999
dxflib 2.2.0.0
  0
SECTION
  2
HEADER
  9
$ACADVER
  1
AC1015
  9
$HANDSEED
  5
FFFF
  9
$SPLINESEGS
 70
8
  9
$DIMEXE
 40
1.25
  9
$PSVPSCALE
 40
0.3744939650297536
  9
$DIMLUNIT
 70
2
  9
$GRIDMODE
 70
1
  9
$INSUNITS
 70
4
  9
$DIMADEC
 70
2
  9
$DIMASZ
 40
2.5
  9
$DIMGAP
 40
0.625
  9
$DIMTXT
 40
2.5
  9
$GRIDUNIT
 10
0.0
 20
0.0
  9
$DIMEXO
 40
0.625
  9
$LUPREC
 70
4
  9
$PINSBASE
 10
32.1728121126327906
 20
57.4392664412213065
 30
0.0
  9
$DIMAUNIT
 70
0
  9
$AUPREC
 70
2
  9
$PLIMMIN
 10
0.0
 20
0.0
  9
$LUNITS
 70
2
  9
$PLIMMAX
 10
297.0
 20
210.0
  9
$DIMSTYLE
  2
Standard
  9
$AUNITS
 70
0
  0
ENDSEC
  0
SECTION
  2
TABLES
  0
TABLE
  2
VPORT
  5
8
100
AcDbSymbolTable
 70
1
  0
VPORT
  5
30
100
AcDbSymbolTableRecord
100
AcDbViewportTableRecord
  2
*Active
 70
0
 10
0.0
 20
0.0
 11
1.0
 21
1.0
 12
286.3055555555554861
 22
148.5
 13
0.0
 23
0.0
 14
10.0
 24
10.0
 15
10.0
 25
10.0
 16
0.0
 26
0.0
 36
1.0
 17
0.0
 27
0.0
 37
0.0
 40
297.0
 41
1.92798353909465
 42
50.0
 43
0.0
 44
0.0
 50
0.0
 51
0.0
 71
0
 72
100
 73
1
 74
3
 75
1
 76
1
 77
0
 78
0
281
0
 65
1
110
0.0
120
0.0
130
0.0
111
1.0
121
0.0
131
0.0
112
0.0
122
1.0
132
0.0
 79
0
146
0.0
  0
ENDTAB
  0
TABLE
  2
LTYPE
  5
5
100
AcDbSymbolTable
 70
21
  0
LTYPE
  5
14
100
AcDbSymbolTableRecord
100
AcDbLinetypeTableRecord
  2
ByBlock
 70
0
  3

 72
65
 73
0
 40
0.0
  0
LTYPE
  5
15
100
AcDbSymbolTableRecord
100
AcDbLinetypeTableRecord
  2
ByLayer
 70
0
  3

 72
65
 73
0
 40
0.0
  0
LTYPE
  5
16
100
AcDbSymbolTableRecord
100
AcDbLinetypeTableRecord
  2
CONTINUOUS
 70
0
  3
Solid line
 72
65
 73
0
 40
0.0
  0
LTYPE
  5
31
100
AcDbSymbolTableRecord
100
AcDbLinetypeTableRecord
  2
DOT
 70
0
  3
Dot . . . . . . . . . . . . . . . . . . . . . .
 72
65
 73
2
 40
6.3499999999999996
 49
0.0
 74
0
 49
-6.3499999999999996
 74
0
  0
LTYPE
  5
32
100
AcDbSymbolTableRecord
100
AcDbLinetypeTableRecord
  2
DOT2
 70
0
  3
Dot (.5x) .....................................
 72
65
 73
2
 40
3.1749999999999998
 49
0.0
 74
0
 49
-3.1749999999999998
 74
0
  0
LTYPE
  5
33
100
AcDbSymbolTableRecord
100
AcDbLinetypeTableRecord
  2
DOTX2
 70
0
  3
Dot (2x) .  .  .  .  .  .  .  .  .  .  .  .  .
 72
65
 73
2
 40
12.6999999999999993
 49
0.0
 74
0
 49
-12.6999999999999993
 74
0
  0
LTYPE
  5
34
100
AcDbSymbolTableRecord
100
AcDbLinetypeTableRecord
  2
DASHED
 70
0
  3
Dashed __ __ __ __ __ __ __ __ __ __ __ __ __ _
 72
65
 73
2
 40
19.0500000000000007
 49
12.6999999999999993
 74
0
 49
-6.3499999999999996
 74
0
  0
LTYPE
  5
35
100
AcDbSymbolTableRecord
100
AcDbLinetypeTableRecord
  2
DASHED2
 70
0
  3
Dashed (.5x) _ _ _ _ _ _ _ _ _ _ _ _ _ _ _ _ _
 72
65
 73
2
 40
9.5250000000000004
 49
6.3499999999999996
 74
0
 49
-3.1749999999999998
 74
0
  0
LTYPE
  5
36
100
AcDbSymbolTableRecord
100
AcDbLinetypeTableRecord
  2
DASHEDX2
 70
0
  3
Dashed (2x) ____  ____  ____  ____  ____  ___
 72
65
 73
2
 40
38.1000000000000014
 49
25.3999999999999986
 74
0
 49
-12.6999999999999993
 74
0
  0
LTYPE
  5
37
100
AcDbSymbolTableRecord
100
AcDbLinetypeTableRecord
  2
DASHDOT
 70
0
  3
Dash dot __ . __ . __ . __ . __ . __ . __ . __
 72
65
 73
4
 40
25.3999999999999986
 49
12.6999999999999993
 74
0
 49
-6.3499999999999996
 74
0
 49
0.0
 74
0
 49
-6.3499999999999996
 74
0
  0
LTYPE
  5
38
100
AcDbSymbolTableRecord
100
AcDbLinetypeTableRecord
  2
DASHDOT2
 70
0
  3
Dash dot (.5x) _._._._._._._._._._._._._._._.
 72
65
 73
4
 40
12.6999999999999993
 49
6.3499999999999996
 74
0
 49
-3.1749999999999998
 74
0
 49
0.0
 74
0
 49
-3.1749999999999998
 74
0
  0
LTYPE
  5
39
100
AcDbSymbolTableRecord
100
AcDbLinetypeTableRecord
  2
DASHDOTX2
 70
0
  3
Dash dot (2x) ____  .  ____  .  ____  .  ___
 72
65
 73
4
 40
50.7999999999999972
 49
25.3999999999999986
 74
0
 49
-12.6999999999999993
 74
0
 49
0.0
 74
0
 49
-12.6999999999999993
 74
0
  0
LTYPE
  5
3A
100
AcDbSymbolTableRecord
100
AcDbLinetypeTableRecord
  2
DIVIDE
 70
0
  3
Divide ____ . . ____ . . ____ . . ____ . . ____
 72
65
 73
6
 40
31.75
 49
12.6999999999999993
 74
0
 49
-6.3499999999999996
 74
0
 49
0.0
 74
0
 49
-6.3499999999999996
 74
0
 49
0.0
 74
0
 49
-6.3499999999999996
 74
0
  0
LTYPE
  5
3B
100
AcDbSymbolTableRecord
100
AcDbLinetypeTableRecord
  2
DIVIDE2
 70
0
  3
Divide (.5x) __..__..__..__..__..__..__..__.._
 72
65
 73
6
 40
15.875
 49
6.3499999999999996
 74
0
 49
-3.1749999999999998
 74
0
 49
0.0
 74
0
 49
-3.1749999999999998
 74
0
 49
0.0
 74
0
 49
-3.1749999999999998
 74
0
  0
LTYPE
  5
3C
100
AcDbSymbolTableRecord
100
AcDbLinetypeTableRecord
  2
DIVIDEX2
 70
0
  3
Divide (2x) ________  .  .  ________  .  .  _
 72
65
 73
6
 40
63.5
 49
25.3999999999999986
 74
0
 49
-12.6999999999999993
 74
0
 49
0.0
 74
0
 49
-12.6999999999999993
 74
0
 49
0.0
 74
0
 49
-12.6999999999999993
 74
0
  0
LTYPE
  5
3D
100
AcDbSymbolTableRecord
100
AcDbLinetypeTableRecord
  2
CENTER
 70
0
  3
Center ____ _ ____ _ ____ _ ____ _ ____ _ ____
 72
65
 73
4
 40
50.7999999999999972
 49
31.75
 74
0
 49
-6.3499999999999996
 74
0
 49
6.3499999999999996
 74
0
 49
-6.3499999999999996
 74
0
  0
LTYPE
  5
3E
100
AcDbSymbolTableRecord
100
AcDbLinetypeTableRecord
  2
CENTER2
 70
0
  3
Center (.5x) ___ _ ___ _ ___ _ ___ _ ___ _ ___
 72
65
 73
4
 40
28.5749999999999993
 49
19.0500000000000007
 74
0
 49
-3.1749999999999998
 74
0
 49
3.1749999999999998
 74
0
 49
-3.1749999999999998
 74
0
  0
LTYPE
  5
3F
100
AcDbSymbolTableRecord
100
AcDbLinetypeTableRecord
  2
CENTERX2
 70
0
  3
Center (2x) ________  __  ________  __  _____
 72
65
 73
4
 40
101.5999999999999943
 49
63.5
 74
0
 49
-12.6999999999999993
 74
0
 49
12.6999999999999993
 74
0
 49
-12.6999999999999993
 74
0
  0
LTYPE
  5
40
100
AcDbSymbolTableRecord
100
AcDbLinetypeTableRecord
  2
BORDER
 70
0
  3
Border __ __ . __ __ . __ __ . __ __ . __ __ .
 72
65
 73
6
 40
44.4500000000000028
 49
12.6999999999999993
 74
0
 49
-6.3499999999999996
 74
0
 49
12.6999999999999993
 74
0
 49
-6.3499999999999996
 74
0
 49
0.0
 74
0
 49
-6.3499999999999996
 74
0
  0
LTYPE
  5
41
100
AcDbSymbolTableRecord
100
AcDbLinetypeTableRecord
  2
BORDER2
 70
0
  3
Border (.5x) __.__.__.__.__.__.__.__.__.__.__.
 72
65
 73
6
 40
22.2250000000000014
 49
6.3499999999999996
 74
0
 49
-3.1749999999999998
 74
0
 49
6.3499999999999996
 74
0
 49
-3.1749999999999998
 74
0
 49
0.0
 74
0
 49
-3.1749999999999998
 74
0
  0
LTYPE
  5
42
100
AcDbSymbolTableRecord
100
AcDbLinetypeTableRecord
  2
BORDERX2
 70
0
  3
Border (2x) ____  ____  .  ____  ____  .  ___
 72
65
 73
6
 40
88.9000000000000057
 49
25.3999999999999986
 74
0
 49
-12.6999999999999993
 74
0
 49
25.3999999999999986
 74
0
 49
-12.6999999999999993
 74
0
 49
0.0
 74
0
 49
-12.6999999999999993
 74
0
  0
ENDTAB
  0
TABLE
  2
LAYER
  5
2
100
AcDbSymbolTable
 70
11
  0
LAYER
  5
10
100
AcDbSymbolTableRecord
100
AcDbLayerTableRecord
  2
0
 70
4
 62
7
  6
DASHED2
290
1
370
25
390
F
  0
LAYER
  5
43
100
AcDbSymbolTableRecord
100
AcDbLayerTableRecord
  2
Base
 70
4
 62
7
  6
CONTINUOUS
290
1
370
25
390
F
  0
LAYER
  5
44
100
AcDbSymbolTableRecord
100
AcDbLayerTableRecord
  2
Swivel
 70
4
 62
7
  6
CONTINUOUS
290
1
370
25
390
F
  0
LAYER
  5
45
100
AcDbSymbolTableRecord
100
AcDbLayerTableRecord
  2
Axis
 70
0
 62
7
  6
CONTINUOUS
290
1
370
25
390
F
  0
LAYER
  5
46
100
AcDbSymbolTableRecord
100
AcDbLayerTableRecord
  2
toolbit
 70
4
 62
5
  6
CONTINUOUS
290
1
370
25
390
F
  0
LAYER
  5
47
100
AcDbSymbolTableRecord
100
AcDbLayerTableRecord
  2
Handle
 70
4
 62
7
  6
CONTINUOUS
290
1
370
25
390
F
  0
LAYER
  5
48
100
AcDbSymbolTableRecord
100
AcDbLayerTableRecord
  2
temp
 70
4
 62
7
  6
CONTINUOUS
290
1
370
0
390
F
  0
LAYER
  5
49
100
AcDbSymbolTableRecord
100
AcDbLayerTableRecord
  2
Dimensions
 70
4
 62
7
  6
CONTINUOUS
290
1
370
25
390
F
  0
LAYER
  5
4A
100
AcDbSymbolTableRecord
100
AcDbLayerTableRecord
  2
Cutting
 70
4
 62
7
  6
CONTINUOUS
290
1
370
25
390
F
  0
LAYER
  5
4B
100
AcDbSymbolTableRecord
100
AcDbLayerTableRecord
  2
Experimental Axis
 70
4
 62
7
  6
CONTINUOUS
290
1
370
25
390
F
  0
LAYER
  5
4C
100
AcDbSymbolTableRecord
100
AcDbLayerTableRecord
  2
noname
 70
4
 62
7
  6
CONTINUOUS
290
1
370
25
390
F
  0
ENDTAB
  0
TABLE
  2
STYLE
  5
3
100
AcDbSymbolTable
 70
1
  0
STYLE
  5
11
100
AcDbSymbolTableRecord
100
AcDbTextStyleTableRecord
  2
Standard
 70
0
 40
0.0
 41
0.75
 50
0.0
 71
0
 42
2.5
  3
txt
  4

  0
ENDTAB
  0
TABLE
  2
VIEW
  5
6
100
AcDbSymbolTable
 70
0
  0
ENDTAB
  0
TABLE
  2
UCS
  5
7
100
AcDbSymbolTable
 70
0
  0
ENDTAB
  0
TABLE
  2
APPID
  5
9
100
AcDbSymbolTable
 70
1
  0
APPID
  5
12
100
AcDbSymbolTableRecord
100
AcDbRegAppTableRecord
  2
ACAD
 70
0
  0
ENDTAB
  0
TABLE
  2
DIMSTYLE
  5
A
100
AcDbSymbolTable
 70
1
100
AcDbDimStyleTable
 71
0
  0
DIMSTYLE
105
27
100
AcDbSymbolTableRecord
100
AcDbDimStyleTableRecord
  2
Standard
 41
2.5
 42
0.625
 43
3.75
 44
1.25
 70
0
 73
0
 74
0
 77
1
 78
8
140
2.5
141
2.5
143
0.03937007874016
147
0.625
171
3
172
1
271
2
272
2
274
3
278
44
283
0
284
8
340
11
  0
ENDTAB
  0
TABLE
  2
BLOCK_RECORD
  5
1
100
AcDbSymbolTable
 70
1
  0
BLOCK_RECORD
  5
1F
100
AcDbSymbolTableRecord
100
AcDbBlockTableRecord
  2
*Model_Space
340
22
  0
BLOCK_RECORD
  5
1B
100
AcDbSymbolTableRecord
100
AcDbBlockTableRecord
  2
*Paper_Space
340
1E
  0
BLOCK_RECORD
  5
23
100
AcDbSymbolTableRecord
100
AcDbBlockTableRecord
  2
*Paper_Space0
340
26
  0
ENDTAB
  0
ENDSEC
  0
SECTION
  2
BLOCKS
  0
BLOCK
  5
20
100
AcDbEntity
  8
0
100
AcDbBlockBegin
  2
*Model_Space
 70
0
 10
0.0
 20
0.0
 30
0.0
  3
*Model_Space
  1

  0
ENDBLK
  5
21
100
AcDbEntity
  8
0
100
AcDbBlockEnd
  0
BLOCK
  5
1C
100
AcDbEntity
 67
1
  8
0
100
AcDbBlockBegin
  2
*Paper_Space
 70
0
 10
0.0
 20
0.0
 30
0.0
  3
*Paper_Space
  1

  0
ENDBLK
  5
1D
100
AcDbEntity
 67
1
  8
0
100
AcDbBlockEnd
  0
BLOCK
  5
24
100
AcDbEntity
  8
0
100
AcDbBlockBegin
  2
*Paper_Space0
 70
0
 10
0.0
 20
0.0
 30
0.0
  3
*Paper_Space0
  1

  0
ENDBLK
  5
25
100
AcDbEntity
  8
0
100
AcDbBlockEnd
  0
ENDSEC
  0
SECTION
  2
ENTITIES
  0
LINE
  5
4D
100
AcDbEntity
100
AcDbLine
  8
0
 62
256
370
-1
  6
ByLayer
 10
80.0
 20
95.0
 30
0.0
 11
50.0
 21
95.0
 31
0.0
  0
LINE
  5
4E
100
AcDbEntity
100
AcDbLine
  8
0
 62
256
370
-1
  6
ByLayer
 10
65.0
 20
95.0
 30
0.0
 11
65.0
 21
65.0
 31
0.0
  0
LINE
  5
4F
100
AcDbEntity
100
AcDbLine
  8
0
 62
256
370
-1
  6
ByLayer
 10
50.0
 20
65.0
 30
0.0
 11
80.0
 21
65.0
 31
0.0
  0
LINE
  5
50
100
AcDbEntity
100
AcDbLine
  8
Base
 62
256
370
-1
  6
ByLayer
 10
100.0
 20
90.0
 30
0.0
 11
100.0
 21
80.0
 31
0.0
  0
LINE
  5
51
100
AcDbEntity
100
AcDbLine
  8
Swivel
 62
256
370
-1
  6
ByLayer
 10
168.0
 20
50.0
 30
0.0
 11
168.0
 21
85.0
 31
0.0
  0
LINE
  5
52
100
AcDbEntity
100
AcDbLine
  8
Swivel
 62
256
370
-1
  6
ByLayer
 10
168.0
 20
120.0
 30
0.0
 11
168.0
 21
85.0
 31
0.0
  0
ARC
  5
53
100
AcDbEntity
  8
Swivel
 62
256
370
-1
  6
ByLayer
100
AcDbCircle
 10
170.0
 20
121.0
 30
0.0
 40
2.0
100
AcDbArc
 50
90.0
 51
180.0
  0
ARC
  5
54
100
AcDbEntity
  8
Swivel
 62
256
370
-1
  6
ByLayer
100
AcDbCircle
 10
170.0
 20
49.0
 30
0.0
 40
2.0
100
AcDbArc
 50
180.0
 51
270.0
  0
LINE
  5
55
100
AcDbEntity
100
AcDbLine
  8
Swivel
 62
256
370
-1
  6
ByLayer
 10
168.0
 20
50.0
 30
0.0
 11
168.0
 21
49.0
 31
0.0
  0
LINE
  5
56
100
AcDbEntity
100
AcDbLine
  8
Swivel
 62
256
370
-1
  6
ByLayer
 10
215.0
 20
123.0
 30
0.0
 11
218.0
 21
123.0
 31
0.0
  0
LINE
  5
57
100
AcDbEntity
100
AcDbLine
  8
Swivel
 62
256
370
-1
  6
ByLayer
 10
218.0
 20
113.0
 30
0.0
 11
215.0
 21
113.0
 31
0.0
  0
LINE
  5
58
100
AcDbEntity
100
AcDbLine
  8
Swivel
 62
256
370
-1
  6
ByLayer
 10
218.0
 20
123.0
 30
0.0
 11
219.0
 21
123.0
 31
0.0
  0
LINE
  5
59
100
AcDbEntity
100
AcDbLine
  8
Swivel
 62
256
370
-1
  6
ByLayer
 10
219.0
 20
123.0
 30
0.0
 11
219.0
 21
113.0
 31
0.0
  0
LINE
  5
5A
100
AcDbEntity
100
AcDbLine
  8
Swivel
 62
256
370
-1
  6
ByLayer
 10
219.0
 20
113.0
 30
0.0
 11
218.0
 21
113.0
 31
0.0
  0
LINE
  5
5B
100
AcDbEntity
100
AcDbLine
  8
Swivel
 62
256
370
-1
  6
ByLayer
 10
219.0
 20
57.0
 30
0.0
 11
219.0
 21
47.0
 31
0.0
  0
LINE
  5
5C
100
AcDbEntity
100
AcDbLine
  8
Swivel
 62
256
370
-1
  6
ByLayer
 10
219.0
 20
47.0
 30
0.0
 11
215.0
 21
47.0
 31
0.0
  0
ARC
  5
5D
100
AcDbEntity
  8
Base
 62
256
370
-1
  6
ByLayer
100
AcDbCircle
 10
146.0
 20
76.0
 30
0.0
 40
4.0
100
AcDbArc
 50
0.0
 51
90.0
  0
ARC
  5
5E
100
AcDbEntity
  8
Base
 62
256
370
-1
  6
ByLayer
100
AcDbCircle
 10
146.0
 20
94.0
 30
0.0
 40
4.0
100
AcDbArc
 50
270.0
 51
0.0
  0
LINE
  5
5F
100
AcDbEntity
100
AcDbLine
  8
Base
 62
256
370
-1
  6
ByLayer
 10
150.0
 20
123.0
 30
0.0
 11
150.0
 21
120.0
 31
0.0
  0
LINE
  5
60
100
AcDbEntity
100
AcDbLine
  8
Base
 62
256
370
-1
  6
ByLayer
 10
100.0
 20
90.0
 30
0.0
 11
146.0
 21
90.0
 31
0.0
  0
LINE
  5
61
100
AcDbEntity
100
AcDbLine
  8
Base
 62
256
370
-1
  6
ByLayer
 10
146.0
 20
80.0
 30
0.0
 11
100.0
 21
80.0
 31
0.0
  0
LINE
  5
62
100
AcDbEntity
100
AcDbLine
  8
Swivel
 62
256
370
-1
  6
ByLayer
 10
170.0
 20
123.0
 30
0.0
 11
215.0
 21
123.0
 31
0.0
  0
LINE
  5
63
100
AcDbEntity
100
AcDbLine
  8
Swivel
 62
256
370
-1
  6
ByLayer
 10
215.0
 20
47.0
 30
0.0
 11
170.0
 21
47.0
 31
0.0
  0
LINE
  5
64
100
AcDbEntity
100
AcDbLine
  8
Swivel
 62
256
370
-1
  6
ByLayer
 10
219.0
 20
57.0
 30
0.0
 11
215.0
 21
57.0
 31
0.0
  0
CIRCLE
  5
65
100
AcDbEntity
100
AcDbCircle
  8
Swivel
 62
256
370
-1
  6
ByLayer
 10
173.0
 20
100.0
 30
0.0
 40
3.0
  0
LINE
  5
66
100
AcDbEntity
100
AcDbLine
  8
Swivel
 62
256
370
-1
  6
ByLayer
 10
168.0
 20
121.0
 30
0.0
 11
168.0
 21
120.0
 31
0.0
  0
LINE
  5
67
100
AcDbEntity
100
AcDbLine
  8
Swivel
 62
256
370
-1
  6
ByLayer
 10
213.0
 20
123.0
 30
0.0
 11
213.0
 21
113.0
 31
0.0
  0
LINE
  5
68
100
AcDbEntity
100
AcDbLine
  8
Swivel
 62
256
370
-1
  6
ByLayer
 10
207.0
 20
113.0
 30
0.0
 11
207.0
 21
123.0
 31
0.0
  0
LINE
  5
69
100
AcDbEntity
100
AcDbLine
  8
Axis
 62
256
370
-1
  6
ByLayer
 10
207.0
 20
114.0
 30
0.0
 11
208.0
 21
113.0
 31
0.0
  0
LINE
  5
6A
100
AcDbEntity
100
AcDbLine
  8
Axis
 62
256
370
-1
  6
ByLayer
 10
208.0
 20
113.0
 30
0.0
 11
212.0
 21
113.0
 31
0.0
  0
LINE
  5
6B
100
AcDbEntity
100
AcDbLine
  8
Axis
 62
256
370
-1
  6
ByLayer
 10
212.0
 20
113.0
 30
0.0
 11
213.0
 21
114.0
 31
0.0
  0
LINE
  5
6C
100
AcDbEntity
100
AcDbLine
  8
Axis
 62
256
370
-1
  6
ByLayer
 10
213.0
 20
114.0
 30
0.0
 11
207.0
 21
114.0
 31
0.0
  0
LINE
  5
6D
100
AcDbEntity
100
AcDbLine
  8
Axis
 62
256
370
-1
  6
ByLayer
 10
202.0
 20
124.0
 30
0.0
 11
202.0
 21
123.0
 31
0.0
  0
LINE
  5
6E
100
AcDbEntity
100
AcDbLine
  8
Axis
 62
256
370
-1
  6
ByLayer
 10
202.0
 20
123.0
 30
0.0
 11
218.0
 21
123.0
 31
0.0
  0
LINE
  5
6F
100
AcDbEntity
100
AcDbLine
  8
Axis
 62
256
370
-1
  6
ByLayer
 10
218.0
 20
123.0
 30
0.0
 11
218.0
 21
124.0
 31
0.0
  0
LINE
  5
70
100
AcDbEntity
100
AcDbLine
  8
Axis
 62
256
370
-1
  6
ByLayer
 10
218.0
 20
124.0
 30
0.0
 11
202.0
 21
124.0
 31
0.0
  0
LINE
  5
71
100
AcDbEntity
100
AcDbLine
  8
Base
 62
256
370
-1
  6
ByLayer
 10
215.0
 20
134.0
 30
0.0
 11
218.0
 21
134.0
 31
0.0
  0
LINE
  5
72
100
AcDbEntity
100
AcDbLine
  8
Base
 62
256
370
-1
  6
ByLayer
 10
218.0
 20
124.0
 30
0.0
 11
215.0
 21
124.0
 31
0.0
  0
LINE
  5
73
100
AcDbEntity
100
AcDbLine
  8
Base
 62
256
370
-1
  6
ByLayer
 10
218.0
 20
134.0
 30
0.0
 11
219.0
 21
134.0
 31
0.0
  0
LINE
  5
74
100
AcDbEntity
100
AcDbLine
  8
Base
 62
256
370
-1
  6
ByLayer
 10
219.0
 20
134.0
 30
0.0
 11
219.0
 21
124.0
 31
0.0
  0
LINE
  5
75
100
AcDbEntity
100
AcDbLine
  8
Base
 62
256
370
-1
  6
ByLayer
 10
219.0
 20
124.0
 30
0.0
 11
218.0
 21
124.0
 31
0.0
  0
ARC
  5
76
100
AcDbEntity
  8
Base
 62
256
370
-1
  6
ByLayer
100
AcDbCircle
 10
154.0
 20
130.0
 30
0.0
 40
4.0
100
AcDbArc
 50
90.0
 51
180.0
  0
ARC
  5
77
100
AcDbEntity
  8
Base
 62
256
370
-1
  6
ByLayer
100
AcDbCircle
 10
168.0
 20
121.0
 30
0.0
 40
3.0
100
AcDbArc
 50
90.0
 51
180.0
  0
LINE
  5
78
100
AcDbEntity
100
AcDbLine
  8
Base
 62
256
370
-1
  6
ByLayer
 10
154.0
 20
134.0
 30
0.0
 11
215.0
 21
134.0
 31
0.0
  0
LINE
  5
79
100
AcDbEntity
100
AcDbLine
  8
Base
 62
256
370
-1
  6
ByLayer
 10
215.0
 20
124.0
 30
0.0
 11
168.0
 21
124.0
 31
0.0
  0
LINE
  5
7A
100
AcDbEntity
100
AcDbLine
  8
Base
 62
256
370
-1
  6
ByLayer
 10
165.0
 20
85.0
 30
0.0
 11
165.0
 21
121.0
 31
0.0
  0
LINE
  5
7B
100
AcDbEntity
100
AcDbLine
  8
Base
 62
256
370
-1
  6
ByLayer
 10
150.0
 20
94.0
 30
0.0
 11
150.0
 21
130.0
 31
0.0
  0
LINE
  5
7C
100
AcDbEntity
100
AcDbLine
  8
Base
 62
256
370
-1
  6
ByLayer
 10
215.0
 20
36.0
 30
0.0
 11
219.0
 21
36.0
 31
0.0
  0
LINE
  5
7D
100
AcDbEntity
100
AcDbLine
  8
Base
 62
256
370
-1
  6
ByLayer
 10
219.0
 20
36.0
 30
0.0
 11
219.0
 21
46.0
 31
0.0
  0
LINE
  5
7E
100
AcDbEntity
100
AcDbLine
  8
Base
 62
256
370
-1
  6
ByLayer
 10
219.0
 20
46.0
 30
0.0
 11
215.0
 21
46.0
 31
0.0
  0
ARC
  5
7F
100
AcDbEntity
  8
Base
 62
256
370
-1
  6
ByLayer
100
AcDbCircle
 10
153.0
 20
39.0
 30
0.0
 40
3.0
100
AcDbArc
 50
180.0
 51
270.0
  0
ARC
  5
80
100
AcDbEntity
  8
Base
 62
256
370
-1
  6
ByLayer
100
AcDbCircle
 10
168.0
 20
49.0
 30
0.0
 40
3.0
100
AcDbArc
 50
180.0
 51
270.0
  0
LINE
  5
81
100
AcDbEntity
100
AcDbLine
  8
Base
 62
256
370
-1
  6
ByLayer
 10
153.0
 20
36.0
 30
0.0
 11
215.0
 21
36.0
 31
0.0
  0
LINE
  5
82
100
AcDbEntity
100
AcDbLine
  8
Base
 62
256
370
-1
  6
ByLayer
 10
215.0
 20
46.0
 30
0.0
 11
168.0
 21
46.0
 31
0.0
  0
LINE
  5
83
100
AcDbEntity
100
AcDbLine
  8
Base
 62
256
370
-1
  6
ByLayer
 10
165.0
 20
85.0
 30
0.0
 11
165.0
 21
49.0
 31
0.0
  0
LINE
  5
84
100
AcDbEntity
100
AcDbLine
  8
Base
 62
256
370
-1
  6
ByLayer
 10
150.0
 20
76.0
 30
0.0
 11
150.0
 21
39.0
 31
0.0
  0
LINE
  5
85
100
AcDbEntity
100
AcDbLine
  8
0
 62
256
370
-1
  6
ByLayer
 10
50.0
 20
78.0
 30
0.0
 11
80.0
 21
78.0
 31
0.0
  0
LINE
  5
86
100
AcDbEntity
100
AcDbLine
  8
0
 62
256
370
-1
  6
ByLayer
 10
50.0
 20
89.0
 30
0.0
 11
80.0
 21
89.0
 31
0.0
  0
LINE
  5
87
100
AcDbEntity
100
AcDbLine
  8
Swivel
 62
256
370
-1
  6
ByLayer
 10
200.0
 20
113.0
 30
0.0
 11
200.0
 21
123.0
 31
0.0
  0
LINE
  5
88
100
AcDbEntity
100
AcDbLine
  8
Swivel
 62
256
370
-1
  6
ByLayer
 10
194.0
 20
123.0
 30
0.0
 11
194.0
 21
113.0
 31
0.0
  0
LINE
  5
89
100
AcDbEntity
100
AcDbLine
  8
Swivel
 62
256
370
-1
  6
ByLayer
 10
215.0
 20
113.0
 30
0.0
 11
180.0
 21
113.0
 31
0.0
  0
LINE
  5
8A
100
AcDbEntity
100
AcDbLine
  8
Swivel
 62
256
370
-1
  6
ByLayer
 10
178.0
 20
85.0
 30
0.0
 11
178.0
 21
111.0
 31
0.0
  0
ARC
  5
8B
100
AcDbEntity
  8
Swivel
 62
256
370
-1
  6
ByLayer
100
AcDbCircle
 10
180.0
 20
111.0
 30
0.0
 40
2.0000000000000004
100
AcDbArc
 50
90.0
 51
180.0
  0
CIRCLE
  5
8C
100
AcDbEntity
100
AcDbCircle
  8
Swivel
 62
256
370
-1
  6
ByLayer
 10
173.0
 20
84.0
 30
0.0
 40
2.0
  0
LINE
  5
8D
100
AcDbEntity
100
AcDbLine
  8
Swivel
 62
256
370
-1
  6
ByLayer
 10
174.5
 20
84.0
 30
0.0
 11
173.75
 21
85.299038105676658
 31
0.0
  0
LINE
  5
8E
100
AcDbEntity
100
AcDbLine
  8
Swivel
 62
256
370
-1
  6
ByLayer
 10
173.75
 20
85.299038105676658
 30
0.0
 11
172.25
 21
85.299038105676658
 31
0.0
  0
LINE
  5
8F
100
AcDbEntity
100
AcDbLine
  8
Swivel
 62
256
370
-1
  6
ByLayer
 10
172.25
 20
85.299038105676658
 30
0.0
 11
171.5
 21
84.0
 31
0.0
  0
LINE
  5
90
100
AcDbEntity
100
AcDbLine
  8
Swivel
 62
256
370
-1
  6
ByLayer
 10
171.5
 20
84.0
 30
0.0
 11
172.25
 21
82.700961894323342
 31
0.0
  0
LINE
  5
91
100
AcDbEntity
100
AcDbLine
  8
Swivel
 62
256
370
-1
  6
ByLayer
 10
172.25
 20
82.700961894323342
 30
0.0
 11
173.75
 21
82.700961894323342
 31
0.0
  0
LINE
  5
92
100
AcDbEntity
100
AcDbLine
  8
Swivel
 62
256
370
-1
  6
ByLayer
 10
173.75
 20
82.700961894323342
 30
0.0
 11
174.5
 21
84.0
 31
0.0
  0
LINE
  5
93
100
AcDbEntity
100
AcDbLine
  8
toolbit
 62
256
370
-1
  6
ByLayer
 10
166.0
 20
87.0
 30
0.0
 11
184.0
 21
87.0
 31
0.0
  0
LINE
  5
94
100
AcDbEntity
100
AcDbLine
  8
toolbit
 62
256
370
-1
  6
ByLayer
 10
184.0
 20
87.0
 30
0.0
 11
184.0
 21
81.0
 31
0.0
  0
LINE
  5
95
100
AcDbEntity
100
AcDbLine
  8
toolbit
 62
256
370
-1
  6
ByLayer
 10
184.0
 20
81.0
 30
0.0
 11
166.0
 21
81.0
 31
0.0
  0
LINE
  5
96
100
AcDbEntity
100
AcDbLine
  8
toolbit
 62
256
370
-1
  6
ByLayer
 10
166.0
 20
81.0
 30
0.0
 11
166.0
 21
87.0
 31
0.0
  0
LINE
  5
97
100
AcDbEntity
100
AcDbLine
  8
toolbit
 62
256
370
-1
  6
ByLayer
 10
184.0
 20
87.0
 30
0.0
 11
188.0
 21
87.0
 31
0.0
  0
LINE
  5
98
100
AcDbEntity
100
AcDbLine
  8
toolbit
 62
256
370
-1
  6
ByLayer
 10
188.0
 20
87.0
 30
0.0
 11
184.0
 21
81.0
 31
0.0
  0
LINE
  5
99
100
AcDbEntity
100
AcDbLine
  8
0
 62
256
370
-1
  6
ByLayer
 10
210.0
 20
92.0
 30
0.0
 11
210.0
 21
82.0
 31
0.0
  0
LINE
  5
9A
100
AcDbEntity
100
AcDbLine
  8
0
 62
256
370
-1
  6
ByLayer
 10
197.0
 20
92.0
 30
0.0
 11
197.0
 21
82.0
 31
0.0
  0
LINE
  5
9B
100
AcDbEntity
100
AcDbLine
  8
0
 62
256
370
-1
  6
ByLayer
 10
183.0
 20
92.0
 30
0.0
 11
183.0
 21
82.0
 31
0.0
  0
LINE
  5
9C
100
AcDbEntity
100
AcDbLine
  8
0
 62
256
370
-1
  6
ByLayer
 10
183.0
 20
87.0
 30
0.0
 11
210.0
 21
87.0
 31
0.0
  0
ARC
  5
9D
100
AcDbEntity
  8
Swivel
 62
256
370
-1
  6
ByLayer
100
AcDbCircle
 10
180.0
 20
59.0
 30
0.0
 40
2.0000000000000004
100
AcDbArc
 50
180.0
 51
270.0
  0
LINE
  5
9E
100
AcDbEntity
100
AcDbLine
  8
Swivel
 62
256
370
-1
  6
ByLayer
 10
178.0
 20
85.0
 30
0.0
 11
178.0
 21
59.0
 31
0.0
  0
LINE
  5
9F
100
AcDbEntity
100
AcDbLine
  8
Swivel
 62
256
370
-1
  6
ByLayer
 10
168.0
 20
70.0
 30
0.0
 11
178.0
 21
70.0
 31
0.0
  0
LINE
  5
A0
100
AcDbEntity
100
AcDbLine
  8
Swivel
 62
256
370
-1
  6
ByLayer
 10
178.0
 20
64.0
 30
0.0
 11
168.0
 21
64.0
 31
0.0
  0
LINE
  5
A1
100
AcDbEntity
100
AcDbLine
  8
Swivel
 62
256
370
-1
  6
ByLayer
 10
208.0
 20
113.0
 30
0.0
 11
211.9999999999999716
 21
113.0
 31
0.0
  0
LINE
  5
A2
100
AcDbEntity
100
AcDbLine
  8
Axis
 62
256
370
-1
  6
ByLayer
 10
206.9999999999999147
 20
114.0
 30
0.0
 11
208.0
 21
113.0
 31
0.0
  0
LINE
  5
A3
100
AcDbEntity
100
AcDbLine
  8
Axis
 62
256
370
-1
  6
ByLayer
 10
208.0
 20
113.0
 30
0.0
 11
211.9999999999999716
 21
113.0
 31
0.0
  0
LINE
  5
A4
100
AcDbEntity
100
AcDbLine
  8
Axis
 62
256
370
-1
  6
ByLayer
 10
211.9999999999999716
 20
113.0
 30
0.0
 11
213.0000000000000284
 21
114.0
 31
0.0
  0
LINE
  5
A5
100
AcDbEntity
100
AcDbLine
  8
Axis
 62
256
370
-1
  6
ByLayer
 10
213.0000000000000284
 20
114.0
 30
0.0
 11
206.9999999999999147
 21
114.0
 31
0.0
  0
LINE
  5
A6
100
AcDbEntity
100
AcDbLine
  8
Swivel
 62
256
370
-1
  6
ByLayer
 10
200.0
 20
123.0
 30
0.0
 11
200.0
 21
113.0
 31
0.0
  0
LINE
  5
A7
100
AcDbEntity
100
AcDbLine
  8
Swivel
 62
256
370
-1
  6
ByLayer
 10
194.0
 20
113.0
 30
0.0
 11
194.0
 21
123.0
 31
0.0
  0
LINE
  5
A8
100
AcDbEntity
100
AcDbLine
  8
Swivel
 62
256
370
-1
  6
ByLayer
 10
195.0
 20
113.0
 30
0.0
 11
198.9999999999999716
 21
113.0
 31
0.0
  0
LINE
  5
A9
100
AcDbEntity
100
AcDbLine
  8
Swivel
 62
256
370
-1
  6
ByLayer
 10
187.0
 20
123.0
 30
0.0
 11
187.0
 21
113.0
 31
0.0
  0
LINE
  5
AA
100
AcDbEntity
100
AcDbLine
  8
Swivel
 62
256
370
-1
  6
ByLayer
 10
181.0
 20
113.0
 30
0.0
 11
181.0
 21
123.0
 31
0.0
  0
LINE
  5
AB
100
AcDbEntity
100
AcDbLine
  8
Swivel
 62
256
370
-1
  6
ByLayer
 10
182.0
 20
113.0
 30
0.0
 11
185.9999999999999716
 21
113.0
 31
0.0
  0
LINE
  5
AC
100
AcDbEntity
100
AcDbLine
  8
Swivel
 62
256
370
-1
  6
ByLayer
 10
208.0
 20
57.0
 30
0.0
 11
211.9999999999999716
 21
57.0
 31
0.0
  0
LINE
  5
AD
100
AcDbEntity
100
AcDbLine
  8
Swivel
 62
256
370
-1
  6
ByLayer
 10
195.0
 20
57.0
 30
0.0
 11
198.9999999999999716
 21
57.0
 31
0.0
  0
LINE
  5
AE
100
AcDbEntity
100
AcDbLine
  8
Swivel
 62
256
370
-1
  6
ByLayer
 10
182.0
 20
57.0
 30
0.0
 11
185.9999999999999716
 21
57.0
 31
0.0
  0
LINE
  5
AF
100
AcDbEntity
100
AcDbLine
  8
Swivel
 62
256
370
-1
  6
ByLayer
 10
180.0
 20
57.0
 30
0.0
 11
215.0
 21
57.0
 31
0.0
  0
LINE
  5
B0
100
AcDbEntity
100
AcDbLine
  8
Axis
 62
256
370
-1
  6
ByLayer
 10
210.0
 20
134.0
 30
0.0
 11
203.0
 21
134.0
 31
0.0
  0
LINE
  5
B1
100
AcDbEntity
100
AcDbLine
  8
Axis
 62
256
370
-1
  6
ByLayer
 10
217.0
 20
134.0
 30
0.0
 11
203.0
 21
134.0
 31
0.0
  0
LINE
  5
B2
100
AcDbEntity
100
AcDbLine
  8
Axis
 62
256
370
-1
  6
ByLayer
 10
207.0
 20
56.0
 30
0.0
 11
208.0
 21
57.0
 31
0.0
  0
LINE
  5
B3
100
AcDbEntity
100
AcDbLine
  8
Axis
 62
256
370
-1
  6
ByLayer
 10
208.0
 20
57.0
 30
0.0
 11
212.0
 21
57.0
 31
0.0
  0
LINE
  5
B4
100
AcDbEntity
100
AcDbLine
  8
Axis
 62
256
370
-1
  6
ByLayer
 10
212.0
 20
57.0
 30
0.0
 11
213.0
 21
56.0
 31
0.0
  0
LINE
  5
B5
100
AcDbEntity
100
AcDbLine
  8
Axis
 62
256
370
-1
  6
ByLayer
 10
213.0
 20
56.0
 30
0.0
 11
207.0
 21
56.0
 31
0.0
  0
LINE
  5
B6
100
AcDbEntity
100
AcDbLine
  8
Axis
 62
256
370
-1
  6
ByLayer
 10
202.0
 20
46.0
 30
0.0
 11
202.0
 21
47.0
 31
0.0
  0
LINE
  5
B7
100
AcDbEntity
100
AcDbLine
  8
Axis
 62
256
370
-1
  6
ByLayer
 10
202.0
 20
47.0
 30
0.0
 11
218.0
 21
47.0
 31
0.0
  0
LINE
  5
B8
100
AcDbEntity
100
AcDbLine
  8
Axis
 62
256
370
-1
  6
ByLayer
 10
218.0
 20
47.0
 30
0.0
 11
218.0
 21
46.0
 31
0.0
  0
LINE
  5
B9
100
AcDbEntity
100
AcDbLine
  8
Axis
 62
256
370
-1
  6
ByLayer
 10
218.0
 20
46.0
 30
0.0
 11
202.0
 21
46.0
 31
0.0
  0
LINE
  5
BA
100
AcDbEntity
100
AcDbLine
  8
Axis
 62
256
370
-1
  6
ByLayer
 10
206.9999999999999147
 20
56.0
 30
0.0
 11
208.0
 21
57.0
 31
0.0
  0
LINE
  5
BB
100
AcDbEntity
100
AcDbLine
  8
Axis
 62
256
370
-1
  6
ByLayer
 10
208.0
 20
57.0
 30
0.0
 11
211.9999999999999716
 21
57.0
 31
0.0
  0
LINE
  5
BC
100
AcDbEntity
100
AcDbLine
  8
Axis
 62
256
370
-1
  6
ByLayer
 10
211.9999999999999716
 20
57.0
 30
0.0
 11
213.0000000000000284
 21
56.0
 31
0.0
  0
LINE
  5
BD
100
AcDbEntity
100
AcDbLine
  8
Axis
 62
256
370
-1
  6
ByLayer
 10
213.0000000000000284
 20
56.0
 30
0.0
 11
206.9999999999999147
 21
56.0
 31
0.0
  0
LINE
  5
BE
100
AcDbEntity
100
AcDbLine
  8
Axis
 62
256
370
-1
  6
ByLayer
 10
210.0
 20
36.0
 30
0.0
 11
203.0
 21
35.9999999999999929
 31
0.0
  0
LINE
  5
BF
100
AcDbEntity
100
AcDbLine
  8
Axis
 62
256
370
-1
  6
ByLayer
 10
217.0
 20
35.9999999999999929
 30
0.0
 11
203.0
 21
35.9999999999999929
 31
0.0
  0
LINE
  5
C0
100
AcDbEntity
100
AcDbLine
  8
temp
 62
256
370
-1
  6
ByLayer
 10
35.0
 20
20.0
 30
0.0
 11
20.0
 21
20.0
 31
0.0
  0
LINE
  5
C1
100
AcDbEntity
100
AcDbLine
  8
temp
 62
256
370
-1
  6
ByLayer
 10
20.0
 20
20.0
 30
0.0
 11
20.0
 21
35.0
 31
0.0
  0
LINE
  5
C2
100
AcDbEntity
100
AcDbLine
  8
temp
 62
256
370
-1
  6
ByLayer
 10
20.0
 20
35.0
 30
0.0
 11
35.0
 21
35.0
 31
0.0
  0
LINE
  5
C3
100
AcDbEntity
100
AcDbLine
  8
temp
 62
256
370
-1
  6
ByLayer
 10
35.0
 20
35.0
 30
0.0
 11
35.0
 21
20.0
 31
0.0
  0
LINE
  5
C4
100
AcDbEntity
100
AcDbLine
  8
temp
 62
256
370
-1
  6
ByLayer
 10
38.0
 20
20.0
 30
0.0
 11
38.0
 21
35.0
 31
0.0
  0
LINE
  5
C5
100
AcDbEntity
100
AcDbLine
  8
temp
 62
256
370
-1
  6
ByLayer
 10
38.0
 20
35.0
 30
0.0
 11
89.0
 21
35.0
 31
0.0
  0
LINE
  5
C6
100
AcDbEntity
100
AcDbLine
  8
temp
 62
256
370
-1
  6
ByLayer
 10
89.0
 20
35.0
 30
0.0
 11
89.0
 21
20.0
 31
0.0
  0
LINE
  5
C7
100
AcDbEntity
100
AcDbLine
  8
temp
 62
256
370
-1
  6
ByLayer
 10
89.0
 20
20.0
 30
0.0
 11
38.0
 21
20.0
 31
0.0
  0
CIRCLE
  5
C8
100
AcDbEntity
100
AcDbCircle
  8
temp
 62
256
370
-1
  6
ByLayer
 10
80.0000000000000284
 20
27.5
 30
0.0
 40
1.5
  0
LINE
  5
C9
100
AcDbEntity
100
AcDbLine
  8
temp
 62
256
370
-1
  6
ByLayer
 10
38.1372898517111878
 20
19.2681412159611796
 30
0.0
 11
37.8755037551519536
 21
34.2658566433070462
 31
0.0
  0
LINE
  5
CA
100
AcDbEntity
100
AcDbLine
  8
temp
 62
256
370
-1
  6
ByLayer
 10
37.8755037551519536
 20
34.2658566433070462
 30
0.0
 11
88.8677362081278943
 21
35.1559293716084937
 31
0.0
  0
LINE
  5
CB
100
AcDbEntity
100
AcDbLine
  8
temp
 62
256
370
-1
  6
ByLayer
 10
88.8677362081278943
 20
35.1559293716084937
 30
0.0
 11
89.129522304687157
 21
20.1582139442626271
 31
0.0
  0
LINE
  5
CC
100
AcDbEntity
100
AcDbLine
  8
temp
 62
256
370
-1
  6
ByLayer
 10
89.129522304687157
 20
20.1582139442626271
 30
0.0
 11
38.1372898517111878
 21
19.2681412159611796
 31
0.0
  0
CIRCLE
  5
CD
100
AcDbEntity
100
AcDbCircle
  8
temp
 62
256
370
-1
  6
ByLayer
 10
80.0000000000000284
 20
27.5
 30
0.0
 40
1.5
  0
LINE
  5
CE
100
AcDbEntity
100
AcDbLine
  8
temp
 62
256
370
-1
  6
ByLayer
 10
38.2873314904667268
 20
18.5387899358517529
 30
0.0
 11
37.7638390399292234
 21
33.5296523411381884
 31
0.0
  0
LINE
  5
CF
100
AcDbEntity
100
AcDbLine
  8
temp
 62
256
370
-1
  6
ByLayer
 10
37.7638390399292234
 20
33.5296523411381884
 30
0.0
 11
88.7327712179030925
 21
35.3095266729657169
 31
0.0
  0
LINE
  5
D0
100
AcDbEntity
100
AcDbLine
  8
temp
 62
256
370
-1
  6
ByLayer
 10
88.7327712179030925
 20
35.3095266729657169
 30
0.0
 11
89.2562636684406243
 21
20.3186642676792815
 31
0.0
  0
LINE
  5
D1
100
AcDbEntity
100
AcDbLine
  8
temp
 62
256
370
-1
  6
ByLayer
 10
89.2562636684406243
 20
20.3186642676792815
 30
0.0
 11
38.2873314904667268
 21
18.5387899358517529
 31
0.0
  0
CIRCLE
  5
D2
100
AcDbEntity
100
AcDbCircle
  8
temp
 62
256
370
-1
  6
ByLayer
 10
80.0000000000000284
 20
27.5
 30
0.0
 40
1.5
  0
LINE
  5
D3
100
AcDbEntity
100
AcDbLine
  8
temp
 62
256
370
-1
  6
ByLayer
 10
38.4500792121299924
 20
17.8121683271370728
 30
0.0
 11
37.6650398684858203
 21
32.7916113484556604
 31
0.0
  0
LINE
  5
D4
100
AcDbEntity
100
AcDbLine
  8
temp
 62
256
370
-1
  6
ByLayer
 10
37.6650398684858203
 20
32.7916113484556604
 30
0.0
 11
88.5951461409690921
 21
35.4607451168457999
 31
0.0
  0
LINE
  5
D5
100
AcDbEntity
100
AcDbLine
  8
temp
 62
256
370
-1
  6
ByLayer
 10
88.5951461409690921
 20
35.4607451168457999
 30
0.0
 11
89.3801854846132358
 21
20.4813020955271838
 31
0.0
  0
LINE
  5
D6
100
AcDbEntity
100
AcDbLine
  8
temp
 62
256
370
-1
  6
ByLayer
 10
89.3801854846132358
 20
20.4813020955271838
 30
0.0
 11
38.4500792121299924
 21
17.8121683271370728
 31
0.0
  0
CIRCLE
  5
D7
100
AcDbEntity
100
AcDbCircle
  8
temp
 62
256
370
-1
  6
ByLayer
 10
80.0000000000000284
 20
27.5
 30
0.0
 40
1.5
  0
LINE
  5
D8
100
AcDbEntity
100
AcDbLine
  8
temp
 62
256
370
-1
  6
ByLayer
 10
38.6254834421683313
 20
17.0884977257980495
 30
0.0
 11
37.5791363360064565
 21
32.0519584796954291
 31
0.0
  0
LINE
  5
D9
100
AcDbEntity
100
AcDbLine
  8
temp
 62
256
370
-1
  6
ByLayer
 10
37.5791363360064565
 20
32.0519584796954291
 30
0.0
 11
88.4549028992574904
 21
35.609538640645809
 31
0.0
  0
LINE
  5
DA
100
AcDbEntity
100
AcDbLine
  8
temp
 62
256
370
-1
  6
ByLayer
 10
88.4549028992574904
 20
35.609538640645809
 30
0.0
 11
89.5012500054193652
 21
20.6460778867484578
 31
0.0
  0
LINE
  5
DB
100
AcDbEntity
100
AcDbLine
  8
temp
 62
256
370
-1
  6
ByLayer
 10
89.5012500054193652
 20
20.6460778867484578
 30
0.0
 11
38.6254834421683313
 21
17.0884977257980495
 31
0.0
  0
CIRCLE
  5
DC
100
AcDbEntity
100
AcDbCircle
  8
temp
 62
256
370
-1
  6
ByLayer
 10
80.0000000000000284
 20
27.5
 30
0.0
 40
1.5
  0
LINE
  5
DD
100
AcDbEntity
100
AcDbLine
  8
temp
 62
256
370
-1
  6
ByLayer
 10
38.8134907507541129
 20
16.3679985689102807
 30
0.0
 11
37.5061546095392373
 21
31.3109190402864499
 31
0.0
  0
LINE
  5
DE
100
AcDbEntity
100
AcDbLine
  8
temp
 62
256
370
-1
  6
ByLayer
 10
37.5061546095392373
 20
31.3109190402864499
 30
0.0
 11
88.3120842122182808
 21
35.7558619204170043
 31
0.0
  0
LINE
  5
DF
100
AcDbEntity
100
AcDbLine
  8
temp
 62
256
370
-1
  6
ByLayer
 10
88.3120842122182808
 20
35.7558619204170043
 30
0.0
 11
89.6194203534331564
 21
20.8129414490408351
 31
0.0
  0
LINE
  5
E0
100
AcDbEntity
100
AcDbLine
  8
temp
 62
256
370
-1
  6
ByLayer
 10
89.6194203534331564
 20
20.8129414490408351
 30
0.0
 11
38.8134907507541129
 21
16.3679985689102807
 31
0.0
  0
CIRCLE
  5
E1
100
AcDbEntity
100
AcDbCircle
  8
temp
 62
256
370
-1
  6
ByLayer
 10
80.0000000000000284
 20
27.5
 30
0.0
 40
1.5
  0
LINE
  5
E2
100
AcDbEntity
100
AcDbLine
  8
temp
 62
256
370
-1
  6
ByLayer
 10
39.0140438690399378
 20
15.6508903274965121
 30
0.0
 11
37.4461169200251334
 21
30.5687187580205944
 31
0.0
  0
LINE
  5
E3
100
AcDbEntity
100
AcDbLine
  8
temp
 62
256
370
-1
  6
ByLayer
 10
37.4461169200251334
 20
30.5687187580205944
 30
0.0
 11
88.1667335838070585
 21
35.8996703846709408
 31
0.0
  0
LINE
  5
E4
100
AcDbEntity
100
AcDbLine
  8
temp
 62
256
370
-1
  6
ByLayer
 10
88.1667335838070585
 20
35.8996703846709408
 30
0.0
 11
89.7346605328218629
 21
20.9818419541468302
 31
0.0
  0
LINE
  5
E5
100
AcDbEntity
100
AcDbLine
  8
temp
 62
256
370
-1
  6
ByLayer
 10
89.7346605328218629
 20
20.9818419541468302
 30
0.0
 11
39.0140438690399378
 21
15.6508903274965121
 31
0.0
  0
CIRCLE
  5
E6
100
AcDbEntity
100
AcDbCircle
  8
temp
 62
256
370
-1
  6
ByLayer
 10
80.0000000000000284
 20
27.5
 30
0.0
 40
1.5
  0
LINE
  5
E7
100
AcDbEntity
100
AcDbLine
  8
temp
 62
256
370
-1
  6
ByLayer
 10
39.2270817066030872
 20
14.9373914396738883
 30
0.0
 11
37.3990415555258835
 21
29.8255837142937139
 31
0.0
  0
LINE
  5
E8
100
AcDbEntity
100
AcDbLine
  8
temp
 62
256
370
-1
  6
ByLayer
 10
37.3990415555258835
 20
29.8255837142937139
 30
0.0
 11
88.018895289233285
 21
36.0409202279562351
 31
0.0
  0
LINE
  5
E9
100
AcDbEntity
100
AcDbLine
  8
temp
 62
256
370
-1
  6
ByLayer
 10
88.018895289233285
 20
36.0409202279562351
 30
0.0
 11
89.8469354403105172
 21
21.1527279533364094
 31
0.0
  0
LINE
  5
EA
100
AcDbEntity
100
AcDbLine
  8
temp
 62
256
370
-1
  6
ByLayer
 10
89.8469354403105172
 20
21.1527279533364094
 30
0.0
 11
39.2270817066030872
 21
14.9373914396738883
 31
0.0
  0
CIRCLE
  5
EB
100
AcDbEntity
100
AcDbCircle
  8
temp
 62
256
370
-1
  6
ByLayer
 10
80.0000000000000284
 20
27.5
 30
0.0
 40
1.5
  0
LINE
  5
EC
100
AcDbEntity
100
AcDbLine
  8
temp
 62
256
370
-1
  6
ByLayer
 10
39.4525393700545521
 20
14.2277192441154625
 30
0.0
 11
37.3649428556535668
 21
29.0817402752390137
 31
0.0
  0
LINE
  5
ED
100
AcDbEntity
100
AcDbLine
  8
temp
 62
256
370
-1
  6
ByLayer
 10
37.3649428556535668
 20
29.0817402752390137
 30
0.0
 11
87.8686143614736466
 21
36.1795684242023583
 31
0.0
  0
LINE
  5
EE
100
AcDbEntity
100
AcDbLine
  8
temp
 62
256
370
-1
  6
ByLayer
 10
87.8686143614736466
 20
36.1795684242023583
 30
0.0
 11
89.9562108758746319
 21
21.3255473930788071
 31
0.0
  0
LINE
  5
EF
100
AcDbEntity
100
AcDbLine
  8
temp
 62
256
370
-1
  6
ByLayer
 10
89.9562108758746319
 20
21.3255473930788071
 30
0.0
 11
39.4525393700545521
 21
14.2277192441154625
 31
0.0
  0
CIRCLE
  5
F0
100
AcDbEntity
100
AcDbCircle
  8
temp
 62
256
370
-1
  6
ByLayer
 10
80.0000000000000284
 20
27.5
 30
0.0
 40
1.5
  0
LINE
  5
F1
100
AcDbEntity
100
AcDbLine
  8
temp
 62
256
370
-1
  6
ByLayer
 10
39.6903481828059626
 20
13.5220899138467701
 30
0.0
 11
37.3438312072024701
 21
28.3374150227738255
 31
0.0
  0
LINE
  5
F2
100
AcDbEntity
100
AcDbLine
  8
temp
 62
256
370
-1
  6
ByLayer
 10
37.3438312072024701
 20
28.3374150227738255
 30
0.0
 11
87.7159365775545155
 21
36.3155727398255976
 31
0.0
  0
LINE
  5
F3
100
AcDbEntity
100
AcDbLine
  8
temp
 62
256
370
-1
  6
ByLayer
 10
87.7159365775545155
 20
36.3155727398255976
 30
0.0
 11
90.0624535531579795
 21
21.5002476308985422
 31
0.0
  0
LINE
  5
F4
100
AcDbEntity
100
AcDbLine
  8
temp
 62
256
370
-1
  6
ByLayer
 10
90.0624535531579795
 20
21.5002476308985422
 30
0.0
 11
39.6903481828059626
 21
13.5220899138467701
 31
0.0
  0
CIRCLE
  5
F5
100
AcDbEntity
100
AcDbCircle
  8
temp
 62
256
370
-1
  6
ByLayer
 10
80.0000000000000284
 20
27.5
 30
0.0
 40
1.5
  0
LINE
  5
F6
100
AcDbEntity
100
AcDbLine
  8
temp
 62
256
370
-1
  6
ByLayer
 10
39.9404357059892448
 20
12.8207183903973601
 30
0.0
 11
37.3357130409852971
 21
27.5928346855804989
 31
0.0
  0
LINE
  5
F7
100
AcDbEntity
100
AcDbLine
  8
temp
 62
256
370
-1
  6
ByLayer
 10
37.3357130409852971
 20
27.5928346855804989
 30
0.0
 11
87.5609084446078896
 21
36.4488917465939153
 31
0.0
  0
LINE
  5
F8
100
AcDbEntity
100
AcDbLine
  8
temp
 62
256
370
-1
  6
ByLayer
 10
87.5609084446078896
 20
36.4488917465939153
 30
0.0
 11
90.1656311096118657
 21
21.6767754514108049
 31
0.0
  0
LINE
  5
F9
100
AcDbEntity
100
AcDbLine
  8
temp
 62
256
370
-1
  6
ByLayer
 10
90.1656311096118657
 20
21.6767754514108049
 30
0.0
 11
39.9404357059892448
 21
12.8207183903973601
 31
0.0
  0
CIRCLE
  5
FA
100
AcDbEntity
100
AcDbCircle
  8
temp
 62
256
370
-1
  6
ByLayer
 10
80.0000000000000284
 20
27.5
 30
0.0
 40
1.5
  0
LINE
  5
FB
100
AcDbEntity
100
AcDbLine
  8
temp
 62
256
370
-1
  6
ByLayer
 10
40.2027257605222132
 20
12.1238183183276362
 30
0.0
 11
37.3405908298740314
 21
26.8482260700425854
 31
0.0
  0
LINE
  5
FC
100
AcDbEntity
100
AcDbLine
  8
temp
 62
256
370
-1
  6
ByLayer
 10
37.3405908298740314
 20
26.8482260700425854
 30
0.0
 11
87.4035771857049042
 21
36.5794848342463865
 31
0.0
  0
LINE
  5
FD
100
AcDbEntity
100
AcDbLine
  8
temp
 62
256
370
-1
  6
ByLayer
 10
87.4035771857049042
 20
36.5794848342463865
 30
0.0
 11
90.2657121163530576
 21
21.8550770825314089
 31
0.0
  0
LINE
  5
FE
100
AcDbEntity
100
AcDbLine
  8
temp
 62
256
370
-1
  6
ByLayer
 10
90.2657121163530576
 20
21.8550770825314089
 30
0.0
 11
40.2027257605222132
 21
12.1238183183276362
 31
0.0
  0
CIRCLE
  5
FF
100
AcDbEntity
100
AcDbCircle
  8
temp
 62
256
370
-1
  6
ByLayer
 10
80.0000000000000284
 20
27.5
 30
0.0
 40
1.5
  0
LINE
  5
100
100
AcDbEntity
100
AcDbLine
  8
temp
 62
256
370
-1
  6
ByLayer
 10
40.4771384503133618
 20
11.4316019801505604
 30
0.0
 11
37.3584630880469604
 21
26.1038159911576599
 31
0.0
  0
LINE
  5
101
100
AcDbEntity
100
AcDbLine
  8
temp
 62
256
370
-1
  6
ByLayer
 10
37.3584630880469604
 20
26.1038159911576599
 30
0.0
 11
87.2439907254710647
 21
36.7073122228633792
 31
0.0
  0
LINE
  5
102
100
AcDbEntity
100
AcDbLine
  8
temp
 62
256
370
-1
  6
ByLayer
 10
87.2439907254710647
 20
36.7073122228633792
 30
0.0
 11
90.3626660877374661
 21
22.0350982118562797
 31
0.0
  0
LINE
  5
103
100
AcDbEntity
100
AcDbLine
  8
temp
 62
256
370
-1
  6
ByLayer
 10
90.3626660877374661
 20
22.0350982118562797
 30
0.0
 11
40.4771384503133618
 21
11.4316019801505604
 31
0.0
  0
CIRCLE
  5
104
100
AcDbEntity
100
AcDbCircle
  8
temp
 62
256
370
-1
  6
ByLayer
 10
80.0000000000000284
 20
27.5
 30
0.0
 40
1.5
  0
LINE
  5
105
100
AcDbEntity
100
AcDbLine
  8
temp
 62
256
370
-1
  6
ByLayer
 10
40.7635901865991173
 20
10.7442802316683981
 30
0.0
 11
37.3893243714411483
 21
25.3598312034469302
 31
0.0
  0
LINE
  5
106
100
AcDbEntity
100
AcDbLine
  8
temp
 62
256
370
-1
  6
ByLayer
 10
37.3893243714411483
 20
25.3598312034469302
 30
0.0
 11
87.0821976754881462
 21
36.8323349749840361
 31
0.0
  0
LINE
  5
107
100
AcDbEntity
100
AcDbLine
  8
temp
 62
256
370
-1
  6
ByLayer
 10
87.0821976754881462
 20
36.8323349749840361
 30
0.0
 11
90.4564634906461151
 21
22.216784003205504
 31
0.0
  0
LINE
  5
108
100
AcDbEntity
100
AcDbLine
  8
temp
 62
256
370
-1
  6
ByLayer
 10
90.4564634906461151
 20
22.216784003205504
 30
0.0
 11
40.7635901865991173
 21
10.7442802316683981
 31
0.0
  0
CIRCLE
  5
109
100
AcDbEntity
100
AcDbCircle
  8
temp
 62
256
370
-1
  6
ByLayer
 10
80.0000000000000284
 20
27.5
 30
0.0
 40
1.5
  0
LINE
  5
10A
100
AcDbEntity
100
AcDbLine
  8
temp
 62
256
370
-1
  6
ByLayer
 10
41.0619937134056556
 20
10.0620624377439754
 30
0.0
 11
37.4331652794106446
 21
24.6164983318839461
 31
0.0
  0
LINE
  5
10B
100
AcDbEntity
100
AcDbLine
  8
temp
 62
256
370
-1
  6
ByLayer
 10
37.4331652794106446
 20
24.6164983318839461
 30
0.0
 11
86.9182473194864542
 21
36.9545150074669664
 31
0.0
  0
LINE
  5
10C
100
AcDbEntity
100
AcDbLine
  8
temp
 62
256
370
-1
  6
ByLayer
 10
86.9182473194864542
 20
36.9545150074669664
 30
0.0
 11
90.5470757534814936
 21
22.4000791133270241
 31
0.0
  0
LINE
  5
10D
100
AcDbEntity
100
AcDbLine
  8
temp
 62
256
370
-1
  6
ByLayer
 10
90.5470757534814936
 20
22.4000791133270241
 30
0.0
 11
41.0619937134056556
 21
10.0620624377439754
 31
0.0
  0
CIRCLE
  5
10E
100
AcDbEntity
100
AcDbCircle
  8
temp
 62
256
370
-1
  6
ByLayer
 10
80.0000000000000284
 20
27.5
 30
0.0
 40
1.5
  0
LINE
  5
10F
100
AcDbEntity
100
AcDbLine
  8
temp
 62
256
370
-1
  6
ByLayer
 10
41.3722581341280602
 20
9.3851564085261145
 30
0.0
 11
37.4899724575902269
 21
23.8740438028621327
 31
0.0
  0
LINE
  5
110
100
AcDbEntity
100
AcDbLine
  8
temp
 62
256
370
-1
  6
ByLayer
 10
37.4899724575902269
 20
23.8740438028621327
 30
0.0
 11
86.7521895983327056
 21
37.0738151030906806
 31
0.0
  0
LINE
  5
111
100
AcDbEntity
100
AcDbLine
  8
temp
 62
256
370
-1
  6
ByLayer
 10
86.7521895983327056
 20
37.0738151030906806
 30
0.0
 11
90.6344752748705389
 21
22.5849277087546625
 31
0.0
  0
LINE
  5
112
100
AcDbEntity
100
AcDbLine
  8
temp
 62
256
370
-1
  6
ByLayer
 10
90.6344752748705389
 20
22.5849277087546625
 30
0.0
 11
41.3722581341280602
 21
9.3851564085261145
 31
0.0
  0
CIRCLE
  5
113
100
AcDbEntity
100
AcDbCircle
  8
temp
 62
256
370
-1
  6
ByLayer
 10
80.0000000000000284
 20
27.5
 30
0.0
 40
1.5
  0
LINE
  5
114
100
AcDbEntity
100
AcDbLine
  8
Swivel
 62
256
370
-1
  6
ByLayer
 10
168.0
 20
87.0
 30
0.0
 11
178.0
 21
87.0
 31
0.0
  0
LINE
  5
115
100
AcDbEntity
100
AcDbLine
  8
Swivel
 62
256
370
-1
  6
ByLayer
 10
178.0
 20
81.0
 30
0.0
 11
168.0
 21
81.0
 31
0.0
  0
LINE
  5
116
100
AcDbEntity
100
AcDbLine
  8
Base
 62
256
370
-1
  6
ByLayer
 10
420.0
 20
330.0
 30
0.0
 11
420.0
 21
320.0
 31
0.0
  0
ARC
  5
117
100
AcDbEntity
  8
Base
 62
256
370
-1
  6
ByLayer
100
AcDbCircle
 10
466.0
 20
316.0
 30
0.0
 40
4.0
100
AcDbArc
 50
0.0
 51
90.0
  0
ARC
  5
118
100
AcDbEntity
  8
Base
 62
256
370
-1
  6
ByLayer
100
AcDbCircle
 10
466.0
 20
334.0
 30
0.0
 40
4.0
100
AcDbArc
 50
270.0
 51
0.0
  0
LINE
  5
119
100
AcDbEntity
100
AcDbLine
  8
Base
 62
256
370
-1
  6
ByLayer
 10
470.0
 20
363.0
 30
0.0
 11
470.0
 21
360.0
 31
0.0
  0
LINE
  5
11A
100
AcDbEntity
100
AcDbLine
  8
Base
 62
256
370
-1
  6
ByLayer
 10
420.0
 20
330.0
 30
0.0
 11
466.0
 21
330.0
 31
0.0
  0
LINE
  5
11B
100
AcDbEntity
100
AcDbLine
  8
Base
 62
256
370
-1
  6
ByLayer
 10
466.0
 20
320.0
 30
0.0
 11
420.0
 21
320.0
 31
0.0
  0
LINE
  5
11C
100
AcDbEntity
100
AcDbLine
  8
Base
 62
256
370
-1
  6
ByLayer
 10
535.0
 20
374.0
 30
0.0
 11
538.0
 21
374.0
 31
0.0
  0
LINE
  5
11D
100
AcDbEntity
100
AcDbLine
  8
Base
 62
256
370
-1
  6
ByLayer
 10
538.0
 20
364.0
 30
0.0
 11
535.0
 21
364.0
 31
0.0
  0
LINE
  5
11E
100
AcDbEntity
100
AcDbLine
  8
Base
 62
256
370
-1
  6
ByLayer
 10
538.0
 20
374.0
 30
0.0
 11
539.0
 21
374.0
 31
0.0
  0
LINE
  5
11F
100
AcDbEntity
100
AcDbLine
  8
Base
 62
256
370
-1
  6
ByLayer
 10
539.0
 20
374.0
 30
0.0
 11
539.0
 21
364.0
 31
0.0
  0
LINE
  5
120
100
AcDbEntity
100
AcDbLine
  8
Base
 62
256
370
-1
  6
ByLayer
 10
539.0
 20
364.0
 30
0.0
 11
538.0
 21
364.0
 31
0.0
  0
ARC
  5
121
100
AcDbEntity
  8
Base
 62
256
370
-1
  6
ByLayer
100
AcDbCircle
 10
474.0
 20
370.0
 30
0.0
 40
4.0
100
AcDbArc
 50
90.0
 51
180.0
  0
ARC
  5
122
100
AcDbEntity
  8
Base
 62
256
370
-1
  6
ByLayer
100
AcDbCircle
 10
488.0
 20
361.0
 30
0.0
 40
3.0
100
AcDbArc
 50
90.0
 51
180.0
  0
LINE
  5
123
100
AcDbEntity
100
AcDbLine
  8
Base
 62
256
370
-1
  6
ByLayer
 10
474.0
 20
374.0
 30
0.0
 11
535.0
 21
374.0
 31
0.0
  0
LINE
  5
124
100
AcDbEntity
100
AcDbLine
  8
Base
 62
256
370
-1
  6
ByLayer
 10
535.0
 20
364.0
 30
0.0
 11
488.0
 21
364.0
 31
0.0
  0
LINE
  5
125
100
AcDbEntity
100
AcDbLine
  8
Base
 62
256
370
-1
  6
ByLayer
 10
485.0
 20
325.0
 30
0.0
 11
485.0
 21
361.0
 31
0.0
  0
LINE
  5
126
100
AcDbEntity
100
AcDbLine
  8
Base
 62
256
370
-1
  6
ByLayer
 10
470.0
 20
334.0
 30
0.0
 11
470.0
 21
370.0
 31
0.0
  0
LINE
  5
127
100
AcDbEntity
100
AcDbLine
  8
Base
 62
256
370
-1
  6
ByLayer
 10
535.0
 20
276.0
 30
0.0
 11
539.0
 21
276.0
 31
0.0
  0
LINE
  5
128
100
AcDbEntity
100
AcDbLine
  8
Base
 62
256
370
-1
  6
ByLayer
 10
539.0
 20
276.0
 30
0.0
 11
539.0
 21
286.0
 31
0.0
  0
LINE
  5
129
100
AcDbEntity
100
AcDbLine
  8
Base
 62
256
370
-1
  6
ByLayer
 10
539.0
 20
286.0
 30
0.0
 11
535.0
 21
286.0
 31
0.0
  0
ARC
  5
12A
100
AcDbEntity
  8
Base
 62
256
370
-1
  6
ByLayer
100
AcDbCircle
 10
488.0
 20
289.0
 30
0.0
 40
3.0
100
AcDbArc
 50
180.0
 51
270.0
  0
LINE
  5
12B
100
AcDbEntity
100
AcDbLine
  8
Base
 62
256
370
-1
  6
ByLayer
 10
473.0
 20
276.0
 30
0.0
 11
535.0
 21
276.0
 31
0.0
  0
LINE
  5
12C
100
AcDbEntity
100
AcDbLine
  8
Base
 62
256
370
-1
  6
ByLayer
 10
535.0
 20
286.0
 30
0.0
 11
488.0
 21
286.0
 31
0.0
  0
LINE
  5
12D
100
AcDbEntity
100
AcDbLine
  8
Base
 62
256
370
-1
  6
ByLayer
 10
485.0
 20
325.0
 30
0.0
 11
485.0
 21
289.0
 31
0.0
  0
LINE
  5
12E
100
AcDbEntity
100
AcDbLine
  8
Base
 62
256
370
-1
  6
ByLayer
 10
470.0
 20
316.0
 30
0.0
 11
470.0
 21
279.0
 31
0.0
  0
LINE
  5
12F
100
AcDbEntity
100
AcDbLine
  8
Base
 62
256
370
-1
  6
ByLayer
 10
527.0
 20
285.0
 30
0.0
 11
527.0
 21
286.0
 31
0.0
  0
LINE
  5
130
100
AcDbEntity
100
AcDbLine
  8
Base
 62
256
370
-1
  6
ByLayer
 10
537.0
 20
374.0
 30
0.0
 11
533.0
 21
370.0
 31
0.0
  0
LINE
  5
131
100
AcDbEntity
100
AcDbLine
  8
Base
 62
256
370
-1
  6
ByLayer
 10
527.0
 20
370.0
 30
0.0
 11
523.0
 21
374.0
 31
0.0
  0
LINE
  5
132
100
AcDbEntity
100
AcDbLine
  8
Base
 62
256
370
-1
  6
ByLayer
 10
527.0
 20
370.0
 30
0.0
 11
533.0
 21
370.0
 31
0.0
  0
LINE
  5
133
100
AcDbEntity
100
AcDbLine
  8
Base
 62
256
370
-1
  6
ByLayer
 10
527.0
 20
364.0
 30
0.0
 11
527.0
 21
370.0
 31
0.0
  0
LINE
  5
134
100
AcDbEntity
100
AcDbLine
  8
Base
 62
256
370
-1
  6
ByLayer
 10
533.0
 20
370.0
 30
0.0
 11
533.0
 21
364.0
 31
0.0
  0
LINE
  5
135
100
AcDbEntity
100
AcDbLine
  8
Base
 62
256
370
-1
  6
ByLayer
 10
533.0
 20
286.0
 30
0.0
 11
533.0
 21
280.0
 31
0.0
  0
LINE
  5
136
100
AcDbEntity
100
AcDbLine
  8
Base
 62
256
370
-1
  6
ByLayer
 10
527.0
 20
280.0
 30
0.0
 11
527.0
 21
285.0
 31
0.0
  0
LINE
  5
137
100
AcDbEntity
100
AcDbLine
  8
Base
 62
256
370
-1
  6
ByLayer
 10
537.0
 20
276.0
 30
0.0
 11
533.0
 21
280.0
 31
0.0
  0
LINE
  5
138
100
AcDbEntity
100
AcDbLine
  8
Base
 62
256
370
-1
  6
ByLayer
 10
527.0
 20
280.0
 30
0.0
 11
523.0
 21
276.0
 31
0.0
  0
LINE
  5
139
100
AcDbEntity
100
AcDbLine
  8
Base
 62
256
370
-1
  6
ByLayer
 10
527.0
 20
280.0
 30
0.0
 11
533.0
 21
280.0
 31
0.0
  0
DIMENSION
  5
13A
100
AcDbEntity
  8
Dimensions
 62
256
370
-1
  6
ByLayer
100
AcDbDimension
 10
470.0
 20
390.0
 30
0.0
 11
445.0
 21
391.875
 31
0.0
 70
0
 71
5
 72
1
 41
1.0
 42
0.0
  1

  3
Standard
100
AcDbAlignedDimension
 13
420.0
 23
380.0
 33
0.0
 14
470.0
 24
380.0
 34
0.0
 50
0.0
100
AcDbRotatedDimension
  0
DIMENSION
  5
13B
100
AcDbEntity
  8
Dimensions
 62
256
370
-1
  6
ByLayer
100
AcDbDimension
 10
539.0
 20
390.0
 30
0.0
 11
504.5
 21
391.875
 31
0.0
 70
0
 71
5
 72
1
 41
1.0
 42
0.0
  1

  3
Standard
100
AcDbAlignedDimension
 13
470.0
 23
380.0
 33
0.0
 14
539.0
 24
380.0
 34
0.0
 50
0.0
100
AcDbRotatedDimension
  0
DIMENSION
  5
13C
100
AcDbEntity
  8
Dimensions
 62
256
370
-1
  6
ByLayer
100
AcDbDimension
 10
523.0
 20
310.0
 30
0.0
 11
530.0
 21
311.875
 31
0.0
 70
0
 71
5
 72
1
 41
1.0
 42
0.0
  1

  3
Standard
100
AcDbAlignedDimension
 13
537.0
 23
290.0
 33
0.0
 14
523.0
 24
290.0
 34
0.0
 50
0.0
100
AcDbRotatedDimension
  0
DIMENSION
  5
13D
100
AcDbEntity
  8
Dimensions
 62
256
370
-1
  6
ByLayer
100
AcDbDimension
 10
527.0
 20
300.0
 30
0.0
 11
530.0
 21
301.875
 31
0.0
 70
0
 71
5
 72
1
 41
1.0
 42
0.0
  1

  3
Standard
100
AcDbAlignedDimension
 13
533.0
 23
290.0
 33
0.0
 14
527.0
 24
290.0
 34
0.0
 50
0.0
100
AcDbRotatedDimension
  0
DIMENSION
  5
13E
100
AcDbEntity
  8
Dimensions
 62
256
370
-1
  6
ByLayer
100
AcDbDimension
 10
560.0
 20
280.0
 30
0.0
 11
558.125
 21
278.0
 31
0.0
 70
0
 71
5
 72
1
 41
1.0
 42
0.0
  1

  3
Standard
100
AcDbAlignedDimension
 13
550.0
 23
276.0
 33
0.0
 14
550.0
 24
280.0
 34
0.0
 50
90.0
100
AcDbRotatedDimension
  0
DIMENSION
  5
13F
100
AcDbEntity
  8
Dimensions
 62
256
370
-1
  6
ByLayer
100
AcDbDimension
 10
560.0
 20
286.0
 30
0.0
 11
558.125
 21
283.0
 31
0.0
 70
0
 71
5
 72
1
 41
1.0
 42
0.0
  1

  3
Standard
100
AcDbAlignedDimension
 13
550.0
 23
280.0
 33
0.0
 14
550.0
 24
286.0
 34
0.0
 50
90.0
100
AcDbRotatedDimension
  0
DIMENSION
  5
140
100
AcDbEntity
  8
Dimensions
 62
256
370
-1
  6
ByLayer
100
AcDbDimension
 10
560.0
 20
364.0
 30
0.0
 11
558.125
 21
325.0
 31
0.0
 70
0
 71
5
 72
1
 41
1.0
 42
0.0
  1

  3
Standard
100
AcDbAlignedDimension
 13
550.0
 23
286.0
 33
0.0
 14
550.0
 24
364.0
 34
0.0
 50
90.0
100
AcDbRotatedDimension
  0
DIMENSION
  5
141
100
AcDbEntity
  8
Dimensions
 62
256
370
-1
  6
ByLayer
100
AcDbDimension
 10
560.0
 20
374.0
 30
0.0
 11
558.125
 21
369.0
 31
0.0
 70
0
 71
5
 72
1
 41
1.0
 42
0.0
  1

  3
Standard
100
AcDbAlignedDimension
 13
550.0
 23
364.0
 33
0.0
 14
550.0
 24
374.0
 34
0.0
 50
90.0
100
AcDbRotatedDimension
  0
DIMENSION
  5
142
100
AcDbEntity
  8
Dimensions
 62
256
370
-1
  6
ByLayer
100
AcDbDimension
 10
400.0
 20
330.0
 30
0.0
 11
398.125
 21
352.0
 31
0.0
 70
0
 71
5
 72
1
 41
1.0
 42
0.0
  1

  3
Standard
100
AcDbAlignedDimension
 13
410.0
 23
374.0
 33
0.0
 14
410.0
 24
330.0
 34
0.0
 50
90.0
100
AcDbRotatedDimension
  0
DIMENSION
  5
143
100
AcDbEntity
  8
Dimensions
 62
256
370
-1
  6
ByLayer
100
AcDbDimension
 10
400.0
 20
320.0
 30
0.0
 11
398.125
 21
325.0
 31
0.0
 70
0
 71
5
 72
1
 41
1.0
 42
0.0
  1

  3
Standard
100
AcDbAlignedDimension
 13
410.0
 23
330.0
 33
0.0
 14
410.0
 24
320.0
 34
0.0
 50
90.0
100
AcDbRotatedDimension
  0
DIMENSION
  5
144
100
AcDbEntity
  8
Dimensions
 62
256
370
-1
  6
ByLayer
100
AcDbDimension
 10
400.0
 20
276.0
 30
0.0
 11
398.125
 21
298.0
 31
0.0
 70
0
 71
5
 72
1
 41
1.0
 42
0.0
  1

  3
Standard
100
AcDbAlignedDimension
 13
410.0
 23
320.0
 33
0.0
 14
410.0
 24
276.0
 34
0.0
 50
90.0
100
AcDbRotatedDimension
  0
DIMENSION
  5
145
100
AcDbEntity
  8
Dimensions
 62
256
370
-1
  6
ByLayer
100
AcDbDimension
 10
530.0
 20
261.0
 30
0.0
 11
534.5
 21
262.875
 31
0.0
 70
0
 71
5
 72
1
 41
1.0
 42
0.0
  1

  3
Standard
100
AcDbAlignedDimension
 13
539.0
 23
270.0
 33
0.0
 14
530.0
 24
270.0
 34
0.0
 50
0.0
100
AcDbRotatedDimension
  0
DIMENSION
  5
146
100
AcDbEntity
  8
Dimensions
 62
256
370
-1
  6
ByLayer
100
AcDbDimension
 10
466.0
 20
334.0
 30
0.0
 11
462.2385847611881786
 21
340.4130656682613107
 31
0.0
 70
4
 71
5
 72
1
 41
1.0
 42
0.0
  1

  3
Standard
100
AcDbRadialDimension
 15
463.1715728752537871
 25
336.8284271247462129
 35
0.0
 40
0.0
  0
DIMENSION
  5
147
100
AcDbEntity
  8
Dimensions
 62
256
370
-1
  6
ByLayer
100
AcDbDimension
 10
474.0
 20
370.0
 30
0.0
 11
469.2354613620415194
 21
375.7074361522139156
 31
0.0
 70
4
 71
5
 72
1
 41
1.0
 42
0.0
  1

  3
Standard
100
AcDbRadialDimension
 15
470.7450661151730742
 25
372.3249527748763512
 35
0.0
 40
0.0
  0
DIMENSION
  5
148
100
AcDbEntity
  8
Dimensions
 62
256
370
-1
  6
ByLayer
100
AcDbDimension
 10
488.0
 20
361.0
 30
0.0
 11
493.7308615274634462
 21
358.2902759846324443
 31
0.0
 70
4
 71
5
 72
1
 41
1.0
 42
0.0
  1

  3
Standard
100
AcDbRadialDimension
 15
490.2114624206022313
 25
358.9728261144479688
 35
0.0
 40
0.0
  0
DIMENSION
  5
149
100
AcDbEntity
  8
Dimensions
 62
256
370
-1
  6
ByLayer
100
AcDbDimension
 10
488.0
 20
289.0
 30
0.0
 11
492.5777280539371645
 21
293.3851777558746221
 31
0.0
 70
4
 71
5
 72
1
 41
1.0
 42
0.0
  1

  3
Standard
100
AcDbRadialDimension
 15
490.6832815729997606
 25
290.3416407864998519
 35
0.0
 40
0.0
  0
DIMENSION
  5
14A
100
AcDbEntity
  8
Dimensions
 62
256
370
-1
  6
ByLayer
100
AcDbDimension
 10
466.0
 20
316.0
 30
0.0
 11
459.5869343317386324
 21
312.2385847611882355
 31
0.0
 70
4
 71
5
 72
1
 41
1.0
 42
0.0
  1

  3
Standard
100
AcDbRadialDimension
 15
463.1715728752537871
 25
313.1715728752537871
 35
0.0
 40
0.0
  0
ARC
  5
14B
100
AcDbEntity
  8
Base
 62
256
370
-1
  6
ByLayer
100
AcDbCircle
 10
474.0
 20
280.0
 30
0.0
 40
4.0
100
AcDbArc
 50
180.0
 51
270.0
  0
DIMENSION
  5
14C
100
AcDbEntity
  8
Dimensions
 62
256
370
-1
  6
ByLayer
100
AcDbDimension
 10
474.0
 20
280.0
 30
0.0
 11
467.5869343317386324
 21
276.2385847611882355
 31
0.0
 70
4
 71
5
 72
1
 41
1.0
 42
0.0
  1

  3
Standard
100
AcDbRadialDimension
 15
471.1715728752537871
 25
277.1715728752537871
 35
0.0
 40
0.0
  0
LINE
  5
14D
100
AcDbEntity
100
AcDbLine
  8
Handle
 62
256
370
-1
  6
ByLayer
 10
210.0
 20
176.0
 30
0.0
 11
240.0
 21
176.0
 31
0.0
  0
LINE
  5
14E
100
AcDbEntity
100
AcDbLine
  8
Handle
 62
256
370
-1
  6
ByLayer
 10
240.0
 20
170.0
 30
0.0
 11
210.0
 21
170.0
 31
0.0
  0
LINE
  5
14F
100
AcDbEntity
100
AcDbLine
  8
Handle
 62
256
370
-1
  6
ByLayer
 10
240.0
 20
176.0
 30
0.0
 11
241.0
 21
175.0
 31
0.0
  0
LINE
  5
150
100
AcDbEntity
100
AcDbLine
  8
Handle
 62
256
370
-1
  6
ByLayer
 10
241.0
 20
175.0
 30
0.0
 11
241.0
 21
171.0
 31
0.0
  0
LINE
  5
151
100
AcDbEntity
100
AcDbLine
  8
Handle
 62
256
370
-1
  6
ByLayer
 10
241.0
 20
171.0
 30
0.0
 11
240.0
 21
170.0
 31
0.0
  0
LINE
  5
152
100
AcDbEntity
100
AcDbLine
  8
Handle
 62
256
370
-1
  6
ByLayer
 10
240.0
 20
170.0
 30
0.0
 11
240.0
 21
176.0
 31
0.0
  0
LINE
  5
153
100
AcDbEntity
100
AcDbLine
  8
Handle
 62
256
370
-1
  6
ByLayer
 10
240.0
 20
170.0
 30
0.0
 11
239.0
 21
176.0
 31
0.0
  0
LINE
  5
154
100
AcDbEntity
100
AcDbLine
  8
Handle
 62
256
370
-1
  6
ByLayer
 10
239.0
 20
170.0
 30
0.0
 11
238.0
 21
176.0
 31
0.0
  0
LINE
  5
155
100
AcDbEntity
100
AcDbLine
  8
Handle
 62
256
370
-1
  6
ByLayer
 10
238.0
 20
170.0
 30
0.0
 11
237.0
 21
176.0
 31
0.0
  0
LINE
  5
156
100
AcDbEntity
100
AcDbLine
  8
Handle
 62
256
370
-1
  6
ByLayer
 10
237.0
 20
170.0
 30
0.0
 11
236.0
 21
176.0
 31
0.0
  0
LINE
  5
157
100
AcDbEntity
100
AcDbLine
  8
Handle
 62
256
370
-1
  6
ByLayer
 10
236.0
 20
170.0
 30
0.0
 11
235.0
 21
176.0
 31
0.0
  0
LINE
  5
158
100
AcDbEntity
100
AcDbLine
  8
Handle
 62
256
370
-1
  6
ByLayer
 10
235.0
 20
170.0
 30
0.0
 11
234.0
 21
176.0
 31
0.0
  0
LINE
  5
159
100
AcDbEntity
100
AcDbLine
  8
Handle
 62
256
370
-1
  6
ByLayer
 10
234.0
 20
170.0
 30
0.0
 11
233.0
 21
176.0
 31
0.0
  0
LINE
  5
15A
100
AcDbEntity
100
AcDbLine
  8
Handle
 62
256
370
-1
  6
ByLayer
 10
233.0
 20
170.0
 30
0.0
 11
232.0
 21
176.0
 31
0.0
  0
LINE
  5
15B
100
AcDbEntity
100
AcDbLine
  8
Handle
 62
256
370
-1
  6
ByLayer
 10
232.0
 20
170.0
 30
0.0
 11
231.0
 21
176.0
 31
0.0
  0
LINE
  5
15C
100
AcDbEntity
100
AcDbLine
  8
Handle
 62
256
370
-1
  6
ByLayer
 10
231.0
 20
170.0
 30
0.0
 11
230.0
 21
176.0
 31
0.0
  0
LINE
  5
15D
100
AcDbEntity
100
AcDbLine
  8
Handle
 62
256
370
-1
  6
ByLayer
 10
210.0
 20
170.0
 30
0.0
 11
41.0
 21
170.0
 31
0.0
  0
LINE
  5
15E
100
AcDbEntity
100
AcDbLine
  8
Handle
 62
256
370
-1
  6
ByLayer
 10
210.0
 20
176.0
 30
0.0
 11
41.0
 21
176.0
 31
0.0
  0
LINE
  5
15F
100
AcDbEntity
100
AcDbLine
  8
Handle
 62
256
370
-1
  6
ByLayer
 10
71.0
 20
175.9999999999999716
 30
0.0
 11
41.0
 21
176.0000000000000853
 31
0.0
  0
LINE
  5
160
100
AcDbEntity
100
AcDbLine
  8
Handle
 62
256
370
-1
  6
ByLayer
 10
41.0
 20
176.0000000000000853
 30
0.0
 11
40.0
 21
175.0
 31
0.0
  0
LINE
  5
161
100
AcDbEntity
100
AcDbLine
  8
Handle
 62
256
370
-1
  6
ByLayer
 10
40.0
 20
175.0
 30
0.0
 11
40.0
 21
171.0000000000000284
 31
0.0
  0
LINE
  5
162
100
AcDbEntity
100
AcDbLine
  8
Handle
 62
256
370
-1
  6
ByLayer
 10
40.0
 20
171.0000000000000284
 30
0.0
 11
41.0
 21
169.9999999999999716
 31
0.0
  0
LINE
  5
163
100
AcDbEntity
100
AcDbLine
  8
Handle
 62
256
370
-1
  6
ByLayer
 10
41.0
 20
169.9999999999999716
 30
0.0
 11
41.0
 21
176.0000000000000853
 31
0.0
  0
LINE
  5
164
100
AcDbEntity
100
AcDbLine
  8
Handle
 62
256
370
-1
  6
ByLayer
 10
41.0
 20
169.9999999999999716
 30
0.0
 11
42.0
 21
176.0000000000000568
 31
0.0
  0
LINE
  5
165
100
AcDbEntity
100
AcDbLine
  8
Handle
 62
256
370
-1
  6
ByLayer
 10
42.0
 20
170.0
 30
0.0
 11
43.0
 21
176.0
 31
0.0
  0
LINE
  5
166
100
AcDbEntity
100
AcDbLine
  8
Handle
 62
256
370
-1
  6
ByLayer
 10
43.0
 20
170.0000000000000568
 30
0.0
 11
44.0
 21
176.0000000000000568
 31
0.0
  0
LINE
  5
167
100
AcDbEntity
100
AcDbLine
  8
Handle
 62
256
370
-1
  6
ByLayer
 10
44.0
 20
170.0
 30
0.0
 11
45.0
 21
176.0000000000000284
 31
0.0
  0
LINE
  5
168
100
AcDbEntity
100
AcDbLine
  8
Handle
 62
256
370
-1
  6
ByLayer
 10
45.0
 20
170.0000000000000284
 30
0.0
 11
46.0
 21
175.9999999999999716
 31
0.0
  0
LINE
  5
169
100
AcDbEntity
100
AcDbLine
  8
Handle
 62
256
370
-1
  6
ByLayer
 10
46.0
 20
170.0
 30
0.0
 11
47.0
 21
176.0000000000000568
 31
0.0
  0
LINE
  5
16A
100
AcDbEntity
100
AcDbLine
  8
Handle
 62
256
370
-1
  6
ByLayer
 10
47.0
 20
170.0
 30
0.0
 11
48.0
 21
176.0000000000000853
 31
0.0
  0
LINE
  5
16B
100
AcDbEntity
100
AcDbLine
  8
Handle
 62
256
370
-1
  6
ByLayer
 10
48.0
 20
170.0000000000000568
 30
0.0
 11
49.0
 21
176.0
 31
0.0
  0
LINE
  5
16C
100
AcDbEntity
100
AcDbLine
  8
Handle
 62
256
370
-1
  6
ByLayer
 10
49.0
 20
169.9999999999999716
 30
0.0
 11
50.0
 21
176.0000000000000568
 31
0.0
  0
LINE
  5
16D
100
AcDbEntity
100
AcDbLine
  8
Handle
 62
256
370
-1
  6
ByLayer
 10
50.0
 20
170.0
 30
0.0
 11
51.0
 21
176.0000000000000284
 31
0.0
  0
LINE
  5
16E
100
AcDbEntity
100
AcDbLine
  8
Handle
 62
256
370
-1
  6
ByLayer
 10
149.0
 20
208.0000000000000853
 30
0.0
 11
148.0
 21
207.0
 31
0.0
  0
LINE
  5
16F
100
AcDbEntity
100
AcDbLine
  8
Handle
 62
256
370
-1
  6
ByLayer
 10
148.0
 20
207.0
 30
0.0
 11
148.0
 21
203.0000000000000284
 31
0.0
  0
LINE
  5
170
100
AcDbEntity
100
AcDbLine
  8
Handle
 62
256
370
-1
  6
ByLayer
 10
148.0
 20
203.0000000000000284
 30
0.0
 11
149.0
 21
201.9999999999999716
 31
0.0
  0
LINE
  5
171
100
AcDbEntity
100
AcDbLine
  8
Handle
 62
256
370
-1
  6
ByLayer
 10
149.0
 20
201.9999999999999716
 30
0.0
 11
149.0
 21
208.0000000000000853
 31
0.0
  0
LINE
  5
172
100
AcDbEntity
100
AcDbLine
  8
Handle
 62
256
370
-1
  6
ByLayer
 10
149.0
 20
201.9999999999999716
 30
0.0
 11
150.0
 21
208.0000000000000568
 31
0.0
  0
LINE
  5
173
100
AcDbEntity
100
AcDbLine
  8
Handle
 62
256
370
-1
  6
ByLayer
 10
150.0
 20
202.0
 30
0.0
 11
151.0
 21
208.0
 31
0.0
  0
LINE
  5
174
100
AcDbEntity
100
AcDbLine
  8
Handle
 62
256
370
-1
  6
ByLayer
 10
151.0
 20
202.0000000000000568
 30
0.0
 11
152.0
 21
208.0000000000000568
 31
0.0
  0
LINE
  5
175
100
AcDbEntity
100
AcDbLine
  8
Handle
 62
256
370
-1
  6
ByLayer
 10
152.0
 20
202.0
 30
0.0
 11
153.0
 21
208.0000000000000284
 31
0.0
  0
LINE
  5
176
100
AcDbEntity
100
AcDbLine
  8
Handle
 62
256
370
-1
  6
ByLayer
 10
153.0
 20
202.0000000000000284
 30
0.0
 11
154.0
 21
207.9999999999999716
 31
0.0
  0
LINE
  5
177
100
AcDbEntity
100
AcDbLine
  8
Handle
 62
256
370
-1
  6
ByLayer
 10
154.0
 20
202.0
 30
0.0
 11
155.0
 21
208.0000000000000568
 31
0.0
  0
LINE
  5
178
100
AcDbEntity
100
AcDbLine
  8
Handle
 62
256
370
-1
  6
ByLayer
 10
155.0
 20
202.0
 30
0.0
 11
156.0
 21
208.0000000000000853
 31
0.0
  0
LINE
  5
179
100
AcDbEntity
100
AcDbLine
  8
Handle
 62
256
370
-1
  6
ByLayer
 10
156.0
 20
202.0000000000000568
 30
0.0
 11
157.0
 21
208.0
 31
0.0
  0
LINE
  5
17A
100
AcDbEntity
100
AcDbLine
  8
Handle
 62
256
370
-1
  6
ByLayer
 10
157.0
 20
201.9999999999999716
 30
0.0
 11
158.0
 21
208.0000000000000568
 31
0.0
  0
LINE
  5
17B
100
AcDbEntity
100
AcDbLine
  8
Handle
 62
256
370
-1
  6
ByLayer
 10
158.0
 20
202.0
 30
0.0
 11
149.0
 21
202.0
 31
0.0
  0
LINE
  5
17C
100
AcDbEntity
100
AcDbLine
  8
Handle
 62
256
370
-1
  6
ByLayer
 10
149.0
 20
208.0
 30
0.0
 11
158.0
 21
208.0
 31
0.0
  0
LINE
  5
17D
100
AcDbEntity
100
AcDbLine
  8
Handle
 62
256
370
-1
  6
ByLayer
 10
158.0
 20
208.0
 30
0.0
 11
158.0
 21
209.0
 31
0.0
  0
LINE
  5
17E
100
AcDbEntity
100
AcDbLine
  8
Handle
 62
256
370
-1
  6
ByLayer
 10
158.0
 20
208.0
 30
0.0
 11
158.0
 21
201.0
 31
0.0
  0
CIRCLE
  5
17F
100
AcDbEntity
100
AcDbCircle
  8
Handle
 62
256
370
-1
  6
ByLayer
 10
147.0
 20
205.0
 30
0.0
 40
12.4999999999999964
  0
LINE
  5
180
100
AcDbEntity
100
AcDbLine
  8
Handle
 62
256
370
-1
  6
ByLayer
 10
158.0
 20
201.0
 30
0.0
 11
159.0
 21
201.0
 31
0.0
  0
LINE
  5
181
100
AcDbEntity
100
AcDbLine
  8
Handle
 62
256
370
-1
  6
ByLayer
 10
158.0
 20
209.0
 30
0.0
 11
159.0
 21
209.0
 31
0.0
  0
LINE
  5
182
100
AcDbEntity
100
AcDbLine
  8
Handle
 62
256
370
-1
  6
ByLayer
 10
550.0
 20
-114.0
 30
0.0
 11
580.0
 21
-114.0
 31
0.0
  0
LINE
  5
183
100
AcDbEntity
100
AcDbLine
  8
Handle
 62
256
370
-1
  6
ByLayer
 10
580.0
 20
-120.0
 30
0.0
 11
550.0
 21
-120.0
 31
0.0
  0
LINE
  5
184
100
AcDbEntity
100
AcDbLine
  8
Handle
 62
256
370
-1
  6
ByLayer
 10
580.0
 20
-114.0
 30
0.0
 11
581.0
 21
-115.0
 31
0.0
  0
LINE
  5
185
100
AcDbEntity
100
AcDbLine
  8
Handle
 62
256
370
-1
  6
ByLayer
 10
581.0
 20
-115.0
 30
0.0
 11
581.0
 21
-119.0
 31
0.0
  0
LINE
  5
186
100
AcDbEntity
100
AcDbLine
  8
Handle
 62
256
370
-1
  6
ByLayer
 10
581.0
 20
-119.0
 30
0.0
 11
580.0
 21
-120.0
 31
0.0
  0
LINE
  5
187
100
AcDbEntity
100
AcDbLine
  8
Handle
 62
256
370
-1
  6
ByLayer
 10
580.0
 20
-120.0
 30
0.0
 11
580.0
 21
-114.0
 31
0.0
  0
LINE
  5
188
100
AcDbEntity
100
AcDbLine
  8
Handle
 62
256
370
-1
  6
ByLayer
 10
580.0
 20
-120.0
 30
0.0
 11
579.0
 21
-114.0
 31
0.0
  0
LINE
  5
189
100
AcDbEntity
100
AcDbLine
  8
Handle
 62
256
370
-1
  6
ByLayer
 10
579.0
 20
-120.0
 30
0.0
 11
578.0
 21
-114.0
 31
0.0
  0
LINE
  5
18A
100
AcDbEntity
100
AcDbLine
  8
Handle
 62
256
370
-1
  6
ByLayer
 10
578.0
 20
-120.0
 30
0.0
 11
577.0
 21
-114.0
 31
0.0
  0
LINE
  5
18B
100
AcDbEntity
100
AcDbLine
  8
Handle
 62
256
370
-1
  6
ByLayer
 10
577.0
 20
-120.0
 30
0.0
 11
576.0
 21
-114.0
 31
0.0
  0
LINE
  5
18C
100
AcDbEntity
100
AcDbLine
  8
Handle
 62
256
370
-1
  6
ByLayer
 10
576.0
 20
-120.0
 30
0.0
 11
575.0
 21
-114.0
 31
0.0
  0
LINE
  5
18D
100
AcDbEntity
100
AcDbLine
  8
Handle
 62
256
370
-1
  6
ByLayer
 10
575.0
 20
-120.0
 30
0.0
 11
574.0
 21
-114.0
 31
0.0
  0
LINE
  5
18E
100
AcDbEntity
100
AcDbLine
  8
Handle
 62
256
370
-1
  6
ByLayer
 10
574.0
 20
-120.0
 30
0.0
 11
573.0
 21
-114.0
 31
0.0
  0
LINE
  5
18F
100
AcDbEntity
100
AcDbLine
  8
Handle
 62
256
370
-1
  6
ByLayer
 10
573.0
 20
-120.0
 30
0.0
 11
572.0
 21
-114.0
 31
0.0
  0
LINE
  5
190
100
AcDbEntity
100
AcDbLine
  8
Handle
 62
256
370
-1
  6
ByLayer
 10
572.0
 20
-120.0
 30
0.0
 11
571.0
 21
-114.0
 31
0.0
  0
LINE
  5
191
100
AcDbEntity
100
AcDbLine
  8
Handle
 62
256
370
-1
  6
ByLayer
 10
571.0
 20
-120.0
 30
0.0
 11
570.0
 21
-114.0
 31
0.0
  0
LINE
  5
192
100
AcDbEntity
100
AcDbLine
  8
Handle
 62
256
370
-1
  6
ByLayer
 10
550.0
 20
-120.0
 30
0.0
 11
381.0
 21
-120.0
 31
0.0
  0
LINE
  5
193
100
AcDbEntity
100
AcDbLine
  8
Handle
 62
256
370
-1
  6
ByLayer
 10
550.0
 20
-114.0
 30
0.0
 11
381.0
 21
-114.0
 31
0.0
  0
LINE
  5
194
100
AcDbEntity
100
AcDbLine
  8
Handle
 62
256
370
-1
  6
ByLayer
 10
411.0
 20
-114.0000000000000284
 30
0.0
 11
381.0
 21
-113.9999999999999147
 31
0.0
  0
LINE
  5
195
100
AcDbEntity
100
AcDbLine
  8
Handle
 62
256
370
-1
  6
ByLayer
 10
381.0
 20
-113.9999999999999147
 30
0.0
 11
380.0
 21
-115.0
 31
0.0
  0
LINE
  5
196
100
AcDbEntity
100
AcDbLine
  8
Handle
 62
256
370
-1
  6
ByLayer
 10
380.0
 20
-115.0
 30
0.0
 11
380.0
 21
-118.9999999999999716
 31
0.0
  0
LINE
  5
197
100
AcDbEntity
100
AcDbLine
  8
Handle
 62
256
370
-1
  6
ByLayer
 10
380.0
 20
-118.9999999999999716
 30
0.0
 11
381.0
 21
-120.0000000000000284
 31
0.0
  0
LINE
  5
198
100
AcDbEntity
100
AcDbLine
  8
Handle
 62
256
370
-1
  6
ByLayer
 10
381.0
 20
-120.0000000000000284
 30
0.0
 11
381.0
 21
-113.9999999999999147
 31
0.0
  0
LINE
  5
199
100
AcDbEntity
100
AcDbLine
  8
Handle
 62
256
370
-1
  6
ByLayer
 10
381.0
 20
-120.0000000000000284
 30
0.0
 11
382.0
 21
-113.9999999999999432
 31
0.0
  0
LINE
  5
19A
100
AcDbEntity
100
AcDbLine
  8
Handle
 62
256
370
-1
  6
ByLayer
 10
382.0
 20
-120.0
 30
0.0
 11
383.0
 21
-114.0
 31
0.0
  0
LINE
  5
19B
100
AcDbEntity
100
AcDbLine
  8
Handle
 62
256
370
-1
  6
ByLayer
 10
383.0
 20
-119.9999999999999432
 30
0.0
 11
384.0
 21
-113.9999999999999432
 31
0.0
  0
LINE
  5
19C
100
AcDbEntity
100
AcDbLine
  8
Handle
 62
256
370
-1
  6
ByLayer
 10
384.0
 20
-120.0
 30
0.0
 11
385.0
 21
-113.9999999999999716
 31
0.0
  0
LINE
  5
19D
100
AcDbEntity
100
AcDbLine
  8
Handle
 62
256
370
-1
  6
ByLayer
 10
385.0
 20
-119.9999999999999716
 30
0.0
 11
386.0
 21
-114.0000000000000284
 31
0.0
  0
LINE
  5
19E
100
AcDbEntity
100
AcDbLine
  8
Handle
 62
256
370
-1
  6
ByLayer
 10
386.0
 20
-120.0
 30
0.0
 11
387.0
 21
-113.9999999999999432
 31
0.0
  0
LINE
  5
19F
100
AcDbEntity
100
AcDbLine
  8
Handle
 62
256
370
-1
  6
ByLayer
 10
387.0
 20
-120.0
 30
0.0
 11
388.0
 21
-113.9999999999999147
 31
0.0
  0
LINE
  5
1A0
100
AcDbEntity
100
AcDbLine
  8
Handle
 62
256
370
-1
  6
ByLayer
 10
388.0
 20
-119.9999999999999432
 30
0.0
 11
389.0
 21
-114.0
 31
0.0
  0
LINE
  5
1A1
100
AcDbEntity
100
AcDbLine
  8
Handle
 62
256
370
-1
  6
ByLayer
 10
389.0
 20
-120.0000000000000284
 30
0.0
 11
390.0
 21
-113.9999999999999432
 31
0.0
  0
LINE
  5
1A2
100
AcDbEntity
100
AcDbLine
  8
Handle
 62
256
370
-1
  6
ByLayer
 10
390.0
 20
-120.0
 30
0.0
 11
391.0
 21
-113.9999999999999716
 31
0.0
  0
DIMENSION
  5
1A3
100
AcDbEntity
  8
Dimensions
 62
256
370
-1
  6
ByLayer
100
AcDbDimension
 10
580.0
 20
-100.0
 30
0.0
 11
480.0
 21
-98.125
 31
0.0
 70
0
 71
5
 72
1
 41
1.0
 42
0.0
  1

  3
Standard
100
AcDbAlignedDimension
 13
380.0
 23
-110.0
 33
0.0
 14
580.0
 24
-110.0
 34
0.0
 50
0.0
100
AcDbRotatedDimension
  0
DIMENSION
  5
1A4
100
AcDbEntity
  8
Dimensions
 62
256
370
-1
  6
ByLayer
100
AcDbDimension
 10
390.0
 20
-140.0
 30
0.0
 11
385.0
 21
-138.125
 31
0.0
 70
0
 71
5
 72
1
 41
1.0
 42
0.0
  1

  3
Standard
100
AcDbAlignedDimension
 13
380.0
 23
-130.0
 33
0.0
 14
390.0
 24
-130.0
 34
0.0
 50
0.0
100
AcDbRotatedDimension
  0
DIMENSION
  5
1A5
100
AcDbEntity
  8
Dimensions
 62
256
370
-1
  6
ByLayer
100
AcDbDimension
 10
570.0
 20
-140.0
 30
0.0
 11
480.0
 21
-138.125
 31
0.0
 70
0
 71
5
 72
1
 41
1.0
 42
0.0
  1

  3
Standard
100
AcDbAlignedDimension
 13
390.0
 23
-130.0
 33
0.0
 14
570.0
 24
-130.0
 34
0.0
 50
0.0
100
AcDbRotatedDimension
  0
DIMENSION
  5
1A6
100
AcDbEntity
  8
Dimensions
 62
256
370
-1
  6
ByLayer
100
AcDbDimension
 10
580.0
 20
-140.0
 30
0.0
 11
575.0
 21
-138.125
 31
0.0
 70
0
 71
5
 72
1
 41
1.0
 42
0.0
  1

  3
Standard
100
AcDbAlignedDimension
 13
570.0
 23
-130.0
 33
0.0
 14
580.0
 24
-130.0
 34
0.0
 50
0.0
100
AcDbRotatedDimension
  0
DIMENSION
  5
1A7
100
AcDbEntity
  8
Dimensions
 62
256
370
-1
  6
ByLayer
100
AcDbDimension
 10
360.0
 20
-114.0
 30
0.0
 11
358.125
 21
-117.0
 31
0.0
 70
0
 71
5
 72
1
 41
1.0
 42
0.0
  1

  3
Standard
100
AcDbAlignedDimension
 13
370.0
 23
-120.0
 33
0.0
 14
370.0
 24
-114.0
 34
0.0
 50
90.0
100
AcDbRotatedDimension
  0
LINE
  5
1A8
100
AcDbEntity
100
AcDbLine
  8
Swivel
 62
256
370
-1
  6
ByLayer
 10
468.0
 20
100.0
 30
0.0
 11
468.0
 21
135.0
 31
0.0
  0
LINE
  5
1A9
100
AcDbEntity
100
AcDbLine
  8
Swivel
 62
256
370
-1
  6
ByLayer
 10
468.0
 20
170.0
 30
0.0
 11
468.0
 21
135.0
 31
0.0
  0
ARC
  5
1AA
100
AcDbEntity
  8
Swivel
 62
256
370
-1
  6
ByLayer
100
AcDbCircle
 10
470.0
 20
171.0
 30
0.0
 40
2.0
100
AcDbArc
 50
90.0
 51
180.0
  0
ARC
  5
1AB
100
AcDbEntity
  8
Swivel
 62
256
370
-1
  6
ByLayer
100
AcDbCircle
 10
470.0
 20
99.0
 30
0.0
 40
2.0
100
AcDbArc
 50
180.0
 51
270.0
  0
LINE
  5
1AC
100
AcDbEntity
100
AcDbLine
  8
Swivel
 62
256
370
-1
  6
ByLayer
 10
468.0
 20
100.0
 30
0.0
 11
468.0
 21
99.0
 31
0.0
  0
LINE
  5
1AD
100
AcDbEntity
100
AcDbLine
  8
Swivel
 62
256
370
-1
  6
ByLayer
 10
515.0
 20
173.0
 30
0.0
 11
518.0
 21
173.0
 31
0.0
  0
LINE
  5
1AE
100
AcDbEntity
100
AcDbLine
  8
Swivel
 62
256
370
-1
  6
ByLayer
 10
518.0
 20
163.0
 30
0.0
 11
515.0
 21
163.0
 31
0.0
  0
LINE
  5
1AF
100
AcDbEntity
100
AcDbLine
  8
Swivel
 62
256
370
-1
  6
ByLayer
 10
518.0
 20
173.0
 30
0.0
 11
519.0
 21
173.0
 31
0.0
  0
LINE
  5
1B0
100
AcDbEntity
100
AcDbLine
  8
Swivel
 62
256
370
-1
  6
ByLayer
 10
519.0
 20
173.0
 30
0.0
 11
519.0
 21
163.0
 31
0.0
  0
LINE
  5
1B1
100
AcDbEntity
100
AcDbLine
  8
Swivel
 62
256
370
-1
  6
ByLayer
 10
519.0
 20
163.0
 30
0.0
 11
518.0
 21
163.0
 31
0.0
  0
LINE
  5
1B2
100
AcDbEntity
100
AcDbLine
  8
Swivel
 62
256
370
-1
  6
ByLayer
 10
519.0
 20
107.0
 30
0.0
 11
519.0
 21
97.0
 31
0.0
  0
LINE
  5
1B3
100
AcDbEntity
100
AcDbLine
  8
Swivel
 62
256
370
-1
  6
ByLayer
 10
519.0
 20
97.0
 30
0.0
 11
515.0
 21
97.0
 31
0.0
  0
LINE
  5
1B4
100
AcDbEntity
100
AcDbLine
  8
Swivel
 62
256
370
-1
  6
ByLayer
 10
470.0
 20
173.0
 30
0.0
 11
515.0
 21
173.0
 31
0.0
  0
LINE
  5
1B5
100
AcDbEntity
100
AcDbLine
  8
Swivel
 62
256
370
-1
  6
ByLayer
 10
515.0
 20
97.0
 30
0.0
 11
470.0
 21
97.0
 31
0.0
  0
LINE
  5
1B6
100
AcDbEntity
100
AcDbLine
  8
Swivel
 62
256
370
-1
  6
ByLayer
 10
519.0
 20
107.0
 30
0.0
 11
515.0
 21
107.0
 31
0.0
  0
CIRCLE
  5
1B7
100
AcDbEntity
100
AcDbCircle
  8
Swivel
 62
256
370
-1
  6
ByLayer
 10
473.0
 20
150.0
 30
0.0
 40
3.0
  0
LINE
  5
1B8
100
AcDbEntity
100
AcDbLine
  8
Swivel
 62
256
370
-1
  6
ByLayer
 10
468.0
 20
171.0
 30
0.0
 11
468.0
 21
170.0
 31
0.0
  0
LINE
  5
1B9
100
AcDbEntity
100
AcDbLine
  8
Swivel
 62
256
370
-1
  6
ByLayer
 10
513.0
 20
173.0
 30
0.0
 11
513.0
 21
163.0
 31
0.0
  0
LINE
  5
1BA
100
AcDbEntity
100
AcDbLine
  8
Swivel
 62
256
370
-1
  6
ByLayer
 10
507.0
 20
163.0
 30
0.0
 11
507.0
 21
173.0
 31
0.0
  0
LINE
  5
1BB
100
AcDbEntity
100
AcDbLine
  8
Swivel
 62
256
370
-1
  6
ByLayer
 10
500.0
 20
163.0
 30
0.0
 11
500.0
 21
173.0
 31
0.0
  0
LINE
  5
1BC
100
AcDbEntity
100
AcDbLine
  8
Swivel
 62
256
370
-1
  6
ByLayer
 10
494.0
 20
173.0
 30
0.0
 11
494.0
 21
163.0
 31
0.0
  0
LINE
  5
1BD
100
AcDbEntity
100
AcDbLine
  8
Swivel
 62
256
370
-1
  6
ByLayer
 10
515.0
 20
163.0
 30
0.0
 11
480.0
 21
163.0
 31
0.0
  0
LINE
  5
1BE
100
AcDbEntity
100
AcDbLine
  8
Swivel
 62
256
370
-1
  6
ByLayer
 10
478.0
 20
135.0
 30
0.0
 11
478.0
 21
161.0
 31
0.0
  0
ARC
  5
1BF
100
AcDbEntity
  8
Swivel
 62
256
370
-1
  6
ByLayer
100
AcDbCircle
 10
480.0
 20
161.0
 30
0.0
 40
2.0000000000000004
100
AcDbArc
 50
90.0
 51
180.0
  0
CIRCLE
  5
1C0
100
AcDbEntity
100
AcDbCircle
  8
Swivel
 62
256
370
-1
  6
ByLayer
 10
473.0
 20
134.0
 30
0.0
 40
2.0
  0
LINE
  5
1C1
100
AcDbEntity
100
AcDbLine
  8
Swivel
 62
256
370
-1
  6
ByLayer
 10
474.5
 20
134.0
 30
0.0
 11
473.75
 21
135.299038105676658
 31
0.0
  0
LINE
  5
1C2
100
AcDbEntity
100
AcDbLine
  8
Swivel
 62
256
370
-1
  6
ByLayer
 10
473.75
 20
135.299038105676658
 30
0.0
 11
472.25
 21
135.299038105676658
 31
0.0
  0
LINE
  5
1C3
100
AcDbEntity
100
AcDbLine
  8
Swivel
 62
256
370
-1
  6
ByLayer
 10
472.25
 20
135.299038105676658
 30
0.0
 11
471.5
 21
134.0
 31
0.0
  0
LINE
  5
1C4
100
AcDbEntity
100
AcDbLine
  8
Swivel
 62
256
370
-1
  6
ByLayer
 10
471.5
 20
134.0
 30
0.0
 11
472.25
 21
132.700961894323342
 31
0.0
  0
LINE
  5
1C5
100
AcDbEntity
100
AcDbLine
  8
Swivel
 62
256
370
-1
  6
ByLayer
 10
472.25
 20
132.700961894323342
 30
0.0
 11
473.75
 21
132.700961894323342
 31
0.0
  0
LINE
  5
1C6
100
AcDbEntity
100
AcDbLine
  8
Swivel
 62
256
370
-1
  6
ByLayer
 10
473.75
 20
132.700961894323342
 30
0.0
 11
474.5
 21
134.0
 31
0.0
  0
ARC
  5
1C7
100
AcDbEntity
  8
Swivel
 62
256
370
-1
  6
ByLayer
100
AcDbCircle
 10
480.0
 20
109.0
 30
0.0
 40
2.0000000000000004
100
AcDbArc
 50
180.0
 51
270.0
  0
LINE
  5
1C8
100
AcDbEntity
100
AcDbLine
  8
Swivel
 62
256
370
-1
  6
ByLayer
 10
478.0
 20
135.0
 30
0.0
 11
478.0
 21
109.0
 31
0.0
  0
LINE
  5
1C9
100
AcDbEntity
100
AcDbLine
  8
Swivel
 62
256
370
-1
  6
ByLayer
 10
468.0
 20
120.0
 30
0.0
 11
478.0
 21
120.0
 31
0.0
  0
LINE
  5
1CA
100
AcDbEntity
100
AcDbLine
  8
Swivel
 62
256
370
-1
  6
ByLayer
 10
478.0
 20
114.0
 30
0.0
 11
468.0
 21
114.0
 31
0.0
  0
LINE
  5
1CB
100
AcDbEntity
100
AcDbLine
  8
Swivel
 62
256
370
-1
  6
ByLayer
 10
506.9999999999998863
 20
164.0
 30
0.0
 11
508.0
 21
163.0
 31
0.0
  0
LINE
  5
1CC
100
AcDbEntity
100
AcDbLine
  8
Swivel
 62
256
370
-1
  6
ByLayer
 10
508.0
 20
163.0
 30
0.0
 11
512.0
 21
163.0
 31
0.0
  0
LINE
  5
1CD
100
AcDbEntity
100
AcDbLine
  8
Swivel
 62
256
370
-1
  6
ByLayer
 10
512.0
 20
163.0
 30
0.0
 11
513.0
 21
164.0
 31
0.0
  0
LINE
  5
1CE
100
AcDbEntity
100
AcDbLine
  8
Swivel
 62
256
370
-1
  6
ByLayer
 10
513.0
 20
164.0
 30
0.0
 11
506.9999999999998863
 21
164.0
 31
0.0
  0
LINE
  5
1CF
100
AcDbEntity
100
AcDbLine
  8
Swivel
 62
256
370
-1
  6
ByLayer
 10
513.0
 20
164.0
 30
0.0
 11
507.0
 21
165.0
 31
0.0
  0
LINE
  5
1D0
100
AcDbEntity
100
AcDbLine
  8
Swivel
 62
256
370
-1
  6
ByLayer
 10
513.0
 20
165.0
 30
0.0
 11
507.0
 21
166.0
 31
0.0
  0
LINE
  5
1D1
100
AcDbEntity
100
AcDbLine
  8
Swivel
 62
256
370
-1
  6
ByLayer
 10
513.0
 20
166.0
 30
0.0
 11
507.0
 21
167.0
 31
0.0
  0
LINE
  5
1D2
100
AcDbEntity
100
AcDbLine
  8
Swivel
 62
256
370
-1
  6
ByLayer
 10
513.0
 20
167.0
 30
0.0
 11
507.0
 21
168.0
 31
0.0
  0
LINE
  5
1D3
100
AcDbEntity
100
AcDbLine
  8
Swivel
 62
256
370
-1
  6
ByLayer
 10
513.0
 20
168.0
 30
0.0
 11
507.0
 21
169.0
 31
0.0
  0
LINE
  5
1D4
100
AcDbEntity
100
AcDbLine
  8
Swivel
 62
256
370
-1
  6
ByLayer
 10
513.0
 20
169.0
 30
0.0
 11
507.0
 21
170.0
 31
0.0
  0
LINE
  5
1D5
100
AcDbEntity
100
AcDbLine
  8
Swivel
 62
256
370
-1
  6
ByLayer
 10
513.0
 20
170.0
 30
0.0
 11
506.9999999999998863
 21
171.0
 31
0.0
  0
LINE
  5
1D6
100
AcDbEntity
100
AcDbLine
  8
Swivel
 62
256
370
-1
  6
ByLayer
 10
513.0
 20
171.0
 30
0.0
 11
507.0
 21
172.0
 31
0.0
  0
LINE
  5
1D7
100
AcDbEntity
100
AcDbLine
  8
Swivel
 62
256
370
-1
  6
ByLayer
 10
513.0
 20
172.0
 30
0.0
 11
507.0
 21
173.0
 31
0.0
  0
LINE
  5
1D8
100
AcDbEntity
100
AcDbLine
  8
Swivel
 62
256
370
-1
  6
ByLayer
 10
500.0
 20
173.0
 30
0.0
 11
500.0
 21
163.0
 31
0.0
  0
LINE
  5
1D9
100
AcDbEntity
100
AcDbLine
  8
Swivel
 62
256
370
-1
  6
ByLayer
 10
494.0
 20
163.0
 30
0.0
 11
494.0
 21
173.0
 31
0.0
  0
LINE
  5
1DA
100
AcDbEntity
100
AcDbLine
  8
Swivel
 62
256
370
-1
  6
ByLayer
 10
493.9999999999998863
 20
164.0
 30
0.0
 11
495.0
 21
163.0
 31
0.0
  0
LINE
  5
1DB
100
AcDbEntity
100
AcDbLine
  8
Swivel
 62
256
370
-1
  6
ByLayer
 10
495.0
 20
163.0
 30
0.0
 11
499.0
 21
163.0
 31
0.0
  0
LINE
  5
1DC
100
AcDbEntity
100
AcDbLine
  8
Swivel
 62
256
370
-1
  6
ByLayer
 10
499.0
 20
163.0
 30
0.0
 11
500.0
 21
164.0
 31
0.0
  0
LINE
  5
1DD
100
AcDbEntity
100
AcDbLine
  8
Swivel
 62
256
370
-1
  6
ByLayer
 10
500.0
 20
164.0
 30
0.0
 11
493.9999999999998863
 21
164.0
 31
0.0
  0
LINE
  5
1DE
100
AcDbEntity
100
AcDbLine
  8
Swivel
 62
256
370
-1
  6
ByLayer
 10
500.0
 20
164.0
 30
0.0
 11
494.0
 21
165.0
 31
0.0
  0
LINE
  5
1DF
100
AcDbEntity
100
AcDbLine
  8
Swivel
 62
256
370
-1
  6
ByLayer
 10
500.0
 20
165.0
 30
0.0
 11
494.0
 21
166.0
 31
0.0
  0
LINE
  5
1E0
100
AcDbEntity
100
AcDbLine
  8
Swivel
 62
256
370
-1
  6
ByLayer
 10
500.0
 20
166.0
 30
0.0
 11
494.0
 21
167.0
 31
0.0
  0
LINE
  5
1E1
100
AcDbEntity
100
AcDbLine
  8
Swivel
 62
256
370
-1
  6
ByLayer
 10
500.0
 20
167.0
 30
0.0
 11
494.0
 21
168.0
 31
0.0
  0
LINE
  5
1E2
100
AcDbEntity
100
AcDbLine
  8
Swivel
 62
256
370
-1
  6
ByLayer
 10
500.0
 20
168.0
 30
0.0
 11
494.0
 21
169.0
 31
0.0
  0
LINE
  5
1E3
100
AcDbEntity
100
AcDbLine
  8
Swivel
 62
256
370
-1
  6
ByLayer
 10
500.0
 20
169.0
 30
0.0
 11
494.0
 21
170.0
 31
0.0
  0
LINE
  5
1E4
100
AcDbEntity
100
AcDbLine
  8
Swivel
 62
256
370
-1
  6
ByLayer
 10
500.0
 20
170.0
 30
0.0
 11
493.9999999999998863
 21
171.0
 31
0.0
  0
LINE
  5
1E5
100
AcDbEntity
100
AcDbLine
  8
Swivel
 62
256
370
-1
  6
ByLayer
 10
500.0
 20
171.0
 30
0.0
 11
494.0
 21
172.0
 31
0.0
  0
LINE
  5
1E6
100
AcDbEntity
100
AcDbLine
  8
Swivel
 62
256
370
-1
  6
ByLayer
 10
500.0
 20
172.0
 30
0.0
 11
494.0
 21
173.0
 31
0.0
  0
LINE
  5
1E7
100
AcDbEntity
100
AcDbLine
  8
Swivel
 62
256
370
-1
  6
ByLayer
 10
487.0
 20
173.0
 30
0.0
 11
487.0
 21
163.0
 31
0.0
  0
LINE
  5
1E8
100
AcDbEntity
100
AcDbLine
  8
Swivel
 62
256
370
-1
  6
ByLayer
 10
481.0
 20
163.0
 30
0.0
 11
481.0
 21
173.0
 31
0.0
  0
LINE
  5
1E9
100
AcDbEntity
100
AcDbLine
  8
Swivel
 62
256
370
-1
  6
ByLayer
 10
480.9999999999998863
 20
164.0
 30
0.0
 11
482.0
 21
163.0
 31
0.0
  0
LINE
  5
1EA
100
AcDbEntity
100
AcDbLine
  8
Swivel
 62
256
370
-1
  6
ByLayer
 10
482.0
 20
163.0
 30
0.0
 11
486.0
 21
163.0
 31
0.0
  0
LINE
  5
1EB
100
AcDbEntity
100
AcDbLine
  8
Swivel
 62
256
370
-1
  6
ByLayer
 10
486.0
 20
163.0
 30
0.0
 11
487.0
 21
164.0
 31
0.0
  0
LINE
  5
1EC
100
AcDbEntity
100
AcDbLine
  8
Swivel
 62
256
370
-1
  6
ByLayer
 10
487.0
 20
164.0
 30
0.0
 11
480.9999999999998863
 21
164.0
 31
0.0
  0
LINE
  5
1ED
100
AcDbEntity
100
AcDbLine
  8
Swivel
 62
256
370
-1
  6
ByLayer
 10
487.0
 20
164.0
 30
0.0
 11
481.0
 21
165.0
 31
0.0
  0
LINE
  5
1EE
100
AcDbEntity
100
AcDbLine
  8
Swivel
 62
256
370
-1
  6
ByLayer
 10
487.0
 20
165.0
 30
0.0
 11
481.0
 21
166.0
 31
0.0
  0
LINE
  5
1EF
100
AcDbEntity
100
AcDbLine
  8
Swivel
 62
256
370
-1
  6
ByLayer
 10
487.0
 20
166.0
 30
0.0
 11
481.0
 21
167.0
 31
0.0
  0
LINE
  5
1F0
100
AcDbEntity
100
AcDbLine
  8
Swivel
 62
256
370
-1
  6
ByLayer
 10
487.0
 20
167.0
 30
0.0
 11
481.0
 21
168.0
 31
0.0
  0
LINE
  5
1F1
100
AcDbEntity
100
AcDbLine
  8
Swivel
 62
256
370
-1
  6
ByLayer
 10
487.0
 20
168.0
 30
0.0
 11
481.0
 21
169.0
 31
0.0
  0
LINE
  5
1F2
100
AcDbEntity
100
AcDbLine
  8
Swivel
 62
256
370
-1
  6
ByLayer
 10
487.0
 20
169.0
 30
0.0
 11
481.0
 21
170.0
 31
0.0
  0
LINE
  5
1F3
100
AcDbEntity
100
AcDbLine
  8
Swivel
 62
256
370
-1
  6
ByLayer
 10
487.0
 20
170.0
 30
0.0
 11
480.9999999999998863
 21
171.0
 31
0.0
  0
LINE
  5
1F4
100
AcDbEntity
100
AcDbLine
  8
Swivel
 62
256
370
-1
  6
ByLayer
 10
487.0
 20
171.0
 30
0.0
 11
481.0
 21
172.0
 31
0.0
  0
LINE
  5
1F5
100
AcDbEntity
100
AcDbLine
  8
Swivel
 62
256
370
-1
  6
ByLayer
 10
487.0
 20
172.0
 30
0.0
 11
481.0
 21
173.0
 31
0.0
  0
LINE
  5
1F6
100
AcDbEntity
100
AcDbLine
  8
Swivel
 62
256
370
-1
  6
ByLayer
 10
513.0
 20
97.0
 30
0.0
 11
513.0
 21
107.0
 31
0.0
  0
LINE
  5
1F7
100
AcDbEntity
100
AcDbLine
  8
Swivel
 62
256
370
-1
  6
ByLayer
 10
507.0
 20
107.0
 30
0.0
 11
507.0
 21
97.0
 31
0.0
  0
LINE
  5
1F8
100
AcDbEntity
100
AcDbLine
  8
Swivel
 62
256
370
-1
  6
ByLayer
 10
500.0
 20
107.0
 30
0.0
 11
500.0
 21
97.0
 31
0.0
  0
LINE
  5
1F9
100
AcDbEntity
100
AcDbLine
  8
Swivel
 62
256
370
-1
  6
ByLayer
 10
494.0
 20
97.0
 30
0.0
 11
494.0
 21
107.0
 31
0.0
  0
LINE
  5
1FA
100
AcDbEntity
100
AcDbLine
  8
Swivel
 62
256
370
-1
  6
ByLayer
 10
506.9999999999998863
 20
106.0
 30
0.0
 11
508.0
 21
107.0
 31
0.0
  0
LINE
  5
1FB
100
AcDbEntity
100
AcDbLine
  8
Swivel
 62
256
370
-1
  6
ByLayer
 10
508.0
 20
107.0
 30
0.0
 11
512.0
 21
107.0
 31
0.0
  0
LINE
  5
1FC
100
AcDbEntity
100
AcDbLine
  8
Swivel
 62
256
370
-1
  6
ByLayer
 10
512.0
 20
107.0
 30
0.0
 11
513.0
 21
106.0
 31
0.0
  0
LINE
  5
1FD
100
AcDbEntity
100
AcDbLine
  8
Swivel
 62
256
370
-1
  6
ByLayer
 10
513.0
 20
106.0
 30
0.0
 11
506.9999999999998863
 21
106.0
 31
0.0
  0
LINE
  5
1FE
100
AcDbEntity
100
AcDbLine
  8
Swivel
 62
256
370
-1
  6
ByLayer
 10
513.0
 20
106.0
 30
0.0
 11
507.0
 21
105.0
 31
0.0
  0
LINE
  5
1FF
100
AcDbEntity
100
AcDbLine
  8
Swivel
 62
256
370
-1
  6
ByLayer
 10
513.0
 20
105.0
 30
0.0
 11
507.0
 21
104.0
 31
0.0
  0
LINE
  5
200
100
AcDbEntity
100
AcDbLine
  8
Swivel
 62
256
370
-1
  6
ByLayer
 10
513.0
 20
104.0
 30
0.0
 11
507.0
 21
103.0
 31
0.0
  0
LINE
  5
201
100
AcDbEntity
100
AcDbLine
  8
Swivel
 62
256
370
-1
  6
ByLayer
 10
513.0
 20
103.0
 30
0.0
 11
507.0
 21
102.0
 31
0.0
  0
LINE
  5
202
100
AcDbEntity
100
AcDbLine
  8
Swivel
 62
256
370
-1
  6
ByLayer
 10
513.0
 20
102.0
 30
0.0
 11
507.0
 21
101.0
 31
0.0
  0
LINE
  5
203
100
AcDbEntity
100
AcDbLine
  8
Swivel
 62
256
370
-1
  6
ByLayer
 10
513.0
 20
101.0
 30
0.0
 11
507.0
 21
100.0
 31
0.0
  0
LINE
  5
204
100
AcDbEntity
100
AcDbLine
  8
Swivel
 62
256
370
-1
  6
ByLayer
 10
513.0
 20
100.0
 30
0.0
 11
506.9999999999998863
 21
99.0
 31
0.0
  0
LINE
  5
205
100
AcDbEntity
100
AcDbLine
  8
Swivel
 62
256
370
-1
  6
ByLayer
 10
513.0
 20
99.0
 30
0.0
 11
507.0
 21
98.0
 31
0.0
  0
LINE
  5
206
100
AcDbEntity
100
AcDbLine
  8
Swivel
 62
256
370
-1
  6
ByLayer
 10
513.0
 20
98.0
 30
0.0
 11
507.0
 21
97.0
 31
0.0
  0
LINE
  5
207
100
AcDbEntity
100
AcDbLine
  8
Swivel
 62
256
370
-1
  6
ByLayer
 10
500.0
 20
97.0
 30
0.0
 11
500.0
 21
107.0
 31
0.0
  0
LINE
  5
208
100
AcDbEntity
100
AcDbLine
  8
Swivel
 62
256
370
-1
  6
ByLayer
 10
494.0
 20
107.0
 30
0.0
 11
494.0
 21
97.0
 31
0.0
  0
LINE
  5
209
100
AcDbEntity
100
AcDbLine
  8
Swivel
 62
256
370
-1
  6
ByLayer
 10
493.9999999999998863
 20
106.0
 30
0.0
 11
495.0
 21
107.0
 31
0.0
  0
LINE
  5
20A
100
AcDbEntity
100
AcDbLine
  8
Swivel
 62
256
370
-1
  6
ByLayer
 10
495.0
 20
107.0
 30
0.0
 11
499.0
 21
107.0
 31
0.0
  0
LINE
  5
20B
100
AcDbEntity
100
AcDbLine
  8
Swivel
 62
256
370
-1
  6
ByLayer
 10
499.0
 20
107.0
 30
0.0
 11
500.0
 21
106.0
 31
0.0
  0
LINE
  5
20C
100
AcDbEntity
100
AcDbLine
  8
Swivel
 62
256
370
-1
  6
ByLayer
 10
500.0
 20
106.0
 30
0.0
 11
493.9999999999998863
 21
106.0
 31
0.0
  0
LINE
  5
20D
100
AcDbEntity
100
AcDbLine
  8
Swivel
 62
256
370
-1
  6
ByLayer
 10
500.0
 20
106.0
 30
0.0
 11
494.0
 21
105.0
 31
0.0
  0
LINE
  5
20E
100
AcDbEntity
100
AcDbLine
  8
Swivel
 62
256
370
-1
  6
ByLayer
 10
500.0
 20
105.0
 30
0.0
 11
494.0
 21
104.0
 31
0.0
  0
LINE
  5
20F
100
AcDbEntity
100
AcDbLine
  8
Swivel
 62
256
370
-1
  6
ByLayer
 10
500.0
 20
104.0
 30
0.0
 11
494.0
 21
103.0
 31
0.0
  0
LINE
  5
210
100
AcDbEntity
100
AcDbLine
  8
Swivel
 62
256
370
-1
  6
ByLayer
 10
500.0
 20
103.0
 30
0.0
 11
494.0
 21
102.0
 31
0.0
  0
LINE
  5
211
100
AcDbEntity
100
AcDbLine
  8
Swivel
 62
256
370
-1
  6
ByLayer
 10
500.0
 20
102.0
 30
0.0
 11
494.0
 21
101.0
 31
0.0
  0
LINE
  5
212
100
AcDbEntity
100
AcDbLine
  8
Swivel
 62
256
370
-1
  6
ByLayer
 10
500.0
 20
101.0
 30
0.0
 11
494.0
 21
100.0
 31
0.0
  0
LINE
  5
213
100
AcDbEntity
100
AcDbLine
  8
Swivel
 62
256
370
-1
  6
ByLayer
 10
500.0
 20
100.0
 30
0.0
 11
493.9999999999998863
 21
99.0
 31
0.0
  0
LINE
  5
214
100
AcDbEntity
100
AcDbLine
  8
Swivel
 62
256
370
-1
  6
ByLayer
 10
500.0
 20
99.0
 30
0.0
 11
494.0
 21
98.0
 31
0.0
  0
LINE
  5
215
100
AcDbEntity
100
AcDbLine
  8
Swivel
 62
256
370
-1
  6
ByLayer
 10
500.0
 20
98.0
 30
0.0
 11
494.0
 21
97.0
 31
0.0
  0
LINE
  5
216
100
AcDbEntity
100
AcDbLine
  8
Swivel
 62
256
370
-1
  6
ByLayer
 10
487.0
 20
97.0
 30
0.0
 11
487.0
 21
107.0
 31
0.0
  0
LINE
  5
217
100
AcDbEntity
100
AcDbLine
  8
Swivel
 62
256
370
-1
  6
ByLayer
 10
481.0
 20
107.0
 30
0.0
 11
481.0
 21
97.0
 31
0.0
  0
LINE
  5
218
100
AcDbEntity
100
AcDbLine
  8
Swivel
 62
256
370
-1
  6
ByLayer
 10
480.9999999999998863
 20
106.0
 30
0.0
 11
482.0
 21
107.0
 31
0.0
  0
LINE
  5
219
100
AcDbEntity
100
AcDbLine
  8
Swivel
 62
256
370
-1
  6
ByLayer
 10
482.0
 20
107.0
 30
0.0
 11
486.0
 21
107.0
 31
0.0
  0
LINE
  5
21A
100
AcDbEntity
100
AcDbLine
  8
Swivel
 62
256
370
-1
  6
ByLayer
 10
486.0
 20
107.0
 30
0.0
 11
487.0
 21
106.0
 31
0.0
  0
LINE
  5
21B
100
AcDbEntity
100
AcDbLine
  8
Swivel
 62
256
370
-1
  6
ByLayer
 10
487.0
 20
106.0
 30
0.0
 11
480.9999999999998863
 21
106.0
 31
0.0
  0
LINE
  5
21C
100
AcDbEntity
100
AcDbLine
  8
Swivel
 62
256
370
-1
  6
ByLayer
 10
487.0
 20
106.0
 30
0.0
 11
481.0
 21
105.0
 31
0.0
  0
LINE
  5
21D
100
AcDbEntity
100
AcDbLine
  8
Swivel
 62
256
370
-1
  6
ByLayer
 10
487.0
 20
105.0
 30
0.0
 11
481.0
 21
104.0
 31
0.0
  0
LINE
  5
21E
100
AcDbEntity
100
AcDbLine
  8
Swivel
 62
256
370
-1
  6
ByLayer
 10
487.0
 20
104.0
 30
0.0
 11
481.0
 21
103.0
 31
0.0
  0
LINE
  5
21F
100
AcDbEntity
100
AcDbLine
  8
Swivel
 62
256
370
-1
  6
ByLayer
 10
487.0
 20
103.0
 30
0.0
 11
481.0
 21
102.0
 31
0.0
  0
LINE
  5
220
100
AcDbEntity
100
AcDbLine
  8
Swivel
 62
256
370
-1
  6
ByLayer
 10
487.0
 20
102.0
 30
0.0
 11
481.0
 21
101.0
 31
0.0
  0
LINE
  5
221
100
AcDbEntity
100
AcDbLine
  8
Swivel
 62
256
370
-1
  6
ByLayer
 10
487.0
 20
101.0
 30
0.0
 11
481.0
 21
100.0
 31
0.0
  0
LINE
  5
222
100
AcDbEntity
100
AcDbLine
  8
Swivel
 62
256
370
-1
  6
ByLayer
 10
487.0
 20
100.0
 30
0.0
 11
480.9999999999998863
 21
99.0
 31
0.0
  0
LINE
  5
223
100
AcDbEntity
100
AcDbLine
  8
Swivel
 62
256
370
-1
  6
ByLayer
 10
487.0
 20
99.0
 30
0.0
 11
481.0
 21
98.0
 31
0.0
  0
LINE
  5
224
100
AcDbEntity
100
AcDbLine
  8
Swivel
 62
256
370
-1
  6
ByLayer
 10
487.0
 20
98.0
 30
0.0
 11
481.0
 21
97.0
 31
0.0
  0
LINE
  5
225
100
AcDbEntity
100
AcDbLine
  8
Swivel
 62
256
370
-1
  6
ByLayer
 10
480.0
 20
107.0
 30
0.0
 11
515.0
 21
107.0
 31
0.0
  0
LINE
  5
226
100
AcDbEntity
100
AcDbLine
  8
Swivel
 62
256
370
-1
  6
ByLayer
 10
478.0
 20
137.0
 30
0.0
 11
468.0
 21
137.0
 31
0.0
  0
LINE
  5
227
100
AcDbEntity
100
AcDbLine
  8
Swivel
 62
256
370
-1
  6
ByLayer
 10
468.0
 20
131.0
 30
0.0
 11
478.0
 21
131.0
 31
0.0
  0
DIMENSION
  5
228
100
AcDbEntity
  8
Dimensions
 62
256
370
-1
  6
ByLayer
100
AcDbDimension
 10
478.0
 20
190.0
 30
0.0
 11
473.0
 21
191.875
 31
0.0
 70
0
 71
5
 72
1
 41
1.0
 42
0.0
  1

  3
Standard
100
AcDbAlignedDimension
 13
468.0
 23
180.0
 33
0.0
 14
478.0
 24
180.0
 34
0.0
 50
0.0
100
AcDbRotatedDimension
  0
DIMENSION
  5
229
100
AcDbEntity
  8
Dimensions
 62
256
370
-1
  6
ByLayer
100
AcDbDimension
 10
519.0
 20
190.0
 30
0.0
 11
498.5
 21
191.875
 31
0.0
 70
0
 71
5
 72
1
 41
1.0
 42
0.0
  1

  3
Standard
100
AcDbAlignedDimension
 13
478.0
 23
180.0
 33
0.0
 14
519.0
 24
180.0
 34
0.0
 50
0.0
100
AcDbRotatedDimension
  0
DIMENSION
  5
22A
100
AcDbEntity
  8
Dimensions
 62
256
370
-1
  6
ByLayer
100
AcDbDimension
 10
481.0
 20
80.0
 30
0.0
 11
474.5
 21
81.875
 31
0.0
 70
0
 71
5
 72
1
 41
1.0
 42
0.0
  1

  3
Standard
100
AcDbAlignedDimension
 13
468.0
 23
90.0
 33
0.0
 14
481.0
 24
90.0
 34
0.0
 50
0.0
100
AcDbRotatedDimension
  0
DIMENSION
  5
22B
100
AcDbEntity
  8
Dimensions
 62
256
370
-1
  6
ByLayer
100
AcDbDimension
 10
487.0
 20
80.0
 30
0.0
 11
484.0
 21
81.875
 31
0.0
 70
0
 71
5
 72
1
 41
1.0
 42
0.0
  1

  3
Standard
100
AcDbAlignedDimension
 13
481.0
 23
90.0
 33
0.0
 14
487.0
 24
90.0
 34
0.0
 50
0.0
100
AcDbRotatedDimension
  0
DIMENSION
  5
22C
100
AcDbEntity
  8
Dimensions
 62
256
370
-1
  6
ByLayer
100
AcDbDimension
 10
494.0
 20
80.0
 30
0.0
 11
490.5
 21
81.875
 31
0.0
 70
0
 71
5
 72
1
 41
1.0
 42
0.0
  1

  3
Standard
100
AcDbAlignedDimension
 13
487.0
 23
90.0
 33
0.0
 14
494.0
 24
90.0
 34
0.0
 50
0.0
100
AcDbRotatedDimension
  0
DIMENSION
  5
22D
100
AcDbEntity
  8
Dimensions
 62
256
370
-1
  6
ByLayer
100
AcDbDimension
 10
500.0
 20
80.0
 30
0.0
 11
497.0
 21
81.875
 31
0.0
 70
0
 71
5
 72
1
 41
1.0
 42
0.0
  1

  3
Standard
100
AcDbAlignedDimension
 13
494.0
 23
90.0
 33
0.0
 14
500.0
 24
90.0
 34
0.0
 50
0.0
100
AcDbRotatedDimension
  0
DIMENSION
  5
22E
100
AcDbEntity
  8
Dimensions
 62
256
370
-1
  6
ByLayer
100
AcDbDimension
 10
507.0
 20
80.0
 30
0.0
 11
503.5
 21
81.875
 31
0.0
 70
0
 71
5
 72
1
 41
1.0
 42
0.0
  1

  3
Standard
100
AcDbAlignedDimension
 13
500.0
 23
90.0
 33
0.0
 14
507.0
 24
90.0
 34
0.0
 50
0.0
100
AcDbRotatedDimension
  0
DIMENSION
  5
22F
100
AcDbEntity
  8
Dimensions
 62
256
370
-1
  6
ByLayer
100
AcDbDimension
 10
513.0
 20
80.0
 30
0.0
 11
510.0
 21
81.875
 31
0.0
 70
0
 71
5
 72
1
 41
1.0
 42
0.0
  1

  3
Standard
100
AcDbAlignedDimension
 13
507.0
 23
90.0
 33
0.0
 14
513.0
 24
90.0
 34
0.0
 50
0.0
100
AcDbRotatedDimension
  0
DIMENSION
  5
230
100
AcDbEntity
  8
Dimensions
 62
256
370
-1
  6
ByLayer
100
AcDbDimension
 10
519.0
 20
80.0
 30
0.0
 11
516.0
 21
81.875
 31
0.0
 70
0
 71
5
 72
1
 41
1.0
 42
0.0
  1

  3
Standard
100
AcDbAlignedDimension
 13
513.0
 23
90.0
 33
0.0
 14
519.0
 24
90.0
 34
0.0
 50
0.0
100
AcDbRotatedDimension
  0
DIMENSION
  5
231
100
AcDbEntity
  8
Dimensions
 62
256
370
-1
  6
ByLayer
100
AcDbDimension
 10
540.0
 20
107.0
 30
0.0
 11
538.125
 21
102.0
 31
0.0
 70
0
 71
5
 72
1
 41
1.0
 42
0.0
  1

  3
Standard
100
AcDbAlignedDimension
 13
530.0
 23
97.0
 33
0.0
 14
530.0
 24
107.0
 34
0.0
 50
90.0
100
AcDbRotatedDimension
  0
DIMENSION
  5
232
100
AcDbEntity
  8
Dimensions
 62
256
370
-1
  6
ByLayer
100
AcDbDimension
 10
450.0
 20
97.0
 30
0.0
 11
448.125
 21
135.0
 31
0.0
 70
0
 71
5
 72
1
 41
1.0
 42
0.0
  1

  3
Standard
100
AcDbAlignedDimension
 13
460.0
 23
173.0
 33
0.0
 14
460.0
 24
97.0
 34
0.0
 50
90.0
100
AcDbRotatedDimension
  0
DIMENSION
  5
233
100
AcDbEntity
  8
Dimensions
 62
256
370
-1
  6
ByLayer
100
AcDbDimension
 10
540.0
 20
163.0
 30
0.0
 11
538.125
 21
135.0
 31
0.0
 70
0
 71
5
 72
1
 41
1.0
 42
0.0
  1

  3
Standard
100
AcDbAlignedDimension
 13
530.0
 23
107.0
 33
0.0
 14
530.0
 24
163.0
 34
0.0
 50
90.0
100
AcDbRotatedDimension
  0
DIMENSION
  5
234
100
AcDbEntity
  8
Dimensions
 62
256
370
-1
  6
ByLayer
100
AcDbDimension
 10
540.0
 20
173.0
 30
0.0
 11
538.125
 21
168.0
 31
0.0
 70
0
 71
5
 72
1
 41
1.0
 42
0.0
  1

  3
Standard
100
AcDbAlignedDimension
 13
530.0
 23
163.0
 33
0.0
 14
530.0
 24
173.0
 34
0.0
 50
90.0
100
AcDbRotatedDimension
  0
DIMENSION
  5
235
100
AcDbEntity
  8
Dimensions
 62
256
370
-1
  6
ByLayer
100
AcDbDimension
 10
470.0
 20
171.0
 30
0.0
 11
467.7510075987261189
 21
175.9006428307234273
 31
0.0
 70
4
 71
5
 72
1
 41
1.0
 42
0.0
  1

  3
Standard
100
AcDbRadialDimension
 15
468.5857864376268935
 25
172.4142135623731065
 35
0.0
 40
0.0
  0
DIMENSION
  5
236
100
AcDbEntity
  8
Dimensions
 62
256
370
-1
  6
ByLayer
100
AcDbDimension
 10
480.0
 20
161.0
 30
0.0
 11
485.1694444444444798
 21
159.466666666666697
 31
0.0
 70
4
 71
5
 72
1
 41
1.0
 42
0.0
  1

  3
Standard
100
AcDbRadialDimension
 15
481.6000000000000227
 25
159.8000000000000114
 35
0.0
 40
0.0
  0
DIMENSION
  5
237
100
AcDbEntity
  8
Dimensions
 62
256
370
-1
  6
ByLayer
100
AcDbDimension
 10
480.0
 20
109.0
 30
0.0
 11
482.2489924012738811
 21
113.9006428307234273
 31
0.0
 70
4
 71
5
 72
1
 41
1.0
 42
0.0
  1

  3
Standard
100
AcDbRadialDimension
 15
481.4142135623731065
 25
110.4142135623731065
 35
0.0
 40
0.0
  0
DIMENSION
  5
238
100
AcDbEntity
  8
Dimensions
 62
256
370
-1
  6
ByLayer
100
AcDbDimension
 10
470.0
 20
99.0
 30
0.0
 11
465.377690464102443
 21
96.2235775664248365
 31
0.0
 70
4
 71
5
 72
1
 41
1.0
 42
0.0
  1

  3
Standard
100
AcDbRadialDimension
 15
468.750609904891121
 25
97.4382623811139439
 35
0.0
 40
0.0
  0
CIRCLE
  5
239
100
AcDbEntity
100
AcDbCircle
  8
Cutting
 62
256
370
-1
  6
ByLayer
 10
488.0
 20
361.0
 30
0.0
 40
3.0
  0
CIRCLE
  5
23A
100
AcDbEntity
100
AcDbCircle
  8
Cutting
 62
256
370
-1
  6
ByLayer
 10
488.0
 20
361.0
 30
0.0
 40
0.0
  0
CIRCLE
  5
23B
100
AcDbEntity
100
AcDbCircle
  8
Cutting
 62
256
370
-1
  6
ByLayer
 10
466.0
 20
334.0
 30
0.0
 40
4.0
  0
CIRCLE
  5
23C
100
AcDbEntity
100
AcDbCircle
  8
Cutting
 62
256
370
-1
  6
ByLayer
 10
466.0
 20
334.0
 30
0.0
 40
0.0
  0
CIRCLE
  5
23D
100
AcDbEntity
100
AcDbCircle
  8
Cutting
 62
256
370
-1
  6
ByLayer
 10
466.0
 20
316.0
 30
0.0
 40
4.0
  0
CIRCLE
  5
23E
100
AcDbEntity
100
AcDbCircle
  8
Cutting
 62
256
370
-1
  6
ByLayer
 10
466.0
 20
316.0
 30
0.0
 40
0.0
  0
CIRCLE
  5
23F
100
AcDbEntity
100
AcDbCircle
  8
Cutting
 62
256
370
-1
  6
ByLayer
 10
488.0
 20
289.0
 30
0.0
 40
3.0
  0
CIRCLE
  5
240
100
AcDbEntity
100
AcDbCircle
  8
Cutting
 62
256
370
-1
  6
ByLayer
 10
488.0
 20
289.0
 30
0.0
 40
0.0
  0
CIRCLE
  5
241
100
AcDbEntity
100
AcDbCircle
  8
Cutting
 62
256
370
-1
  6
ByLayer
 10
480.0
 20
161.0
 30
0.0
 40
2.0
  0
CIRCLE
  5
242
100
AcDbEntity
100
AcDbCircle
  8
Cutting
 62
256
370
-1
  6
ByLayer
 10
480.0
 20
109.0
 30
0.0
 40
2.0
  0
CIRCLE
  5
243
100
AcDbEntity
100
AcDbCircle
  8
Cutting
 62
256
370
-1
  6
ByLayer
 10
480.0
 20
109.0
 30
0.0
 40
0.0
  0
CIRCLE
  5
244
100
AcDbEntity
100
AcDbCircle
  8
Cutting
 62
256
370
-1
  6
ByLayer
 10
480.0
 20
161.0
 30
0.0
 40
0.0
  0
LINE
  5
245
100
AcDbEntity
100
AcDbLine
  8
Axis
 62
256
370
-1
  6
ByLayer
 10
207.0
 20
114.0
 30
0.0
 11
207.0
 21
123.0
 31
0.0
  0
LINE
  5
246
100
AcDbEntity
100
AcDbLine
  8
Axis
 62
256
370
-1
  6
ByLayer
 10
213.0
 20
123.0
 30
0.0
 11
213.0
 21
114.0
 31
0.0
  0
LINE
  5
247
100
AcDbEntity
100
AcDbLine
  8
Swivel
 62
256
370
-1
  6
ByLayer
 10
206.0
 20
113.0
 30
0.0
 11
214.0
 21
113.0
 31
0.0
  0
LINE
  5
248
100
AcDbEntity
100
AcDbLine
  8
Swivel
 62
256
370
-1
  6
ByLayer
 10
214.0
 20
134.0
 30
0.0
 11
217.0
 21
134.0
 31
0.0
  0
LINE
  5
249
100
AcDbEntity
100
AcDbLine
  8
Swivel
 62
256
370
-1
  6
ByLayer
 10
203.0
 20
134.0
 30
0.0
 11
206.0
 21
134.0
 31
0.0
  0
CIRCLE
  5
24A
100
AcDbEntity
100
AcDbCircle
  8
Experimental Axis
 62
256
370
-1
  6
ByLayer
 10
240.0
 20
130.0
 30
0.0
 40
4.0
  0
LINE
  5
24B
100
AcDbEntity
100
AcDbLine
  8
Experimental Axis
 62
256
370
-1
  6
ByLayer
 10
237.0
 20
127.0
 30
0.0
 11
237.0
 21
133.0
 31
0.0
  0
LINE
  5
24C
100
AcDbEntity
100
AcDbLine
  8
Experimental Axis
 62
256
370
-1
  6
ByLayer
 10
243.0
 20
133.0
 30
0.0
 11
243.0
 21
127.0
 31
0.0
  0
LINE
  5
24D
100
AcDbEntity
100
AcDbLine
  8
Experimental Axis
 62
256
370
-1
  6
ByLayer
 10
243.0
 20
127.0
 30
0.0
 11
237.0
 21
127.0
 31
0.0
  0
LINE
  5
24E
100
AcDbEntity
100
AcDbLine
  8
Experimental Axis
 62
256
370
-1
  6
ByLayer
 10
237.0
 20
133.0
 30
0.0
 11
243.0
 21
133.0
 31
0.0
  0
DIMENSION
  5
24F
100
AcDbEntity
  8
noname
 62
256
370
-1
  6
ByLayer
100
AcDbDimension
 10
210.0
 20
20.0
 30
0.0
 11
214.5
 21
21.875
 31
0.0
 70
0
 71
5
 72
1
 41
1.0
 42
0.0
  1

  3
Standard
100
AcDbAlignedDimension
 13
219.0
 23
30.0
 33
0.0
 14
210.0
 24
30.0
 34
0.0
 50
0.0
100
AcDbRotatedDimension
  0
DIMENSION
  5
250
100
AcDbEntity
  8
noname
 62
256
370
-1
  6
ByLayer
100
AcDbDimension
 10
197.0
 20
20.0
 30
0.0
 11
203.5
 21
21.875
 31
0.0
 70
0
 71
5
 72
1
 41
1.0
 42
0.0
  1

  3
Standard
100
AcDbAlignedDimension
 13
210.0
 23
30.0
 33
0.0
 14
197.0
 24
30.0
 34
0.0
 50
0.0
100
AcDbRotatedDimension
  0
DIMENSION
  5
251
100
AcDbEntity
  8
noname
 62
256
370
-1
  6
ByLayer
100
AcDbDimension
 10
184.0
 20
20.0
 30
0.0
 11
190.5
 21
21.875
 31
0.0
 70
0
 71
5
 72
1
 41
1.0
 42
0.0
  1

  3
Standard
100
AcDbAlignedDimension
 13
197.0
 23
30.0
 33
0.0
 14
184.0
 24
30.0
 34
0.0
 50
0.0
100
AcDbRotatedDimension
  0
DIMENSION
  5
252
100
AcDbEntity
  8
noname
 62
256
370
-1
  6
ByLayer
100
AcDbDimension
 10
210.0
 20
160.0
 30
0.0
 11
214.5
 21
161.875
 31
0.0
 70
0
 71
5
 72
1
 41
1.0
 42
0.0
  1

  3
Standard
100
AcDbAlignedDimension
 13
219.0
 23
150.0
 33
0.0
 14
210.0
 24
150.0
 34
0.0
 50
0.0
100
AcDbRotatedDimension
  0
DIMENSION
  5
253
100
AcDbEntity
  8
noname
 62
256
370
-1
  6
ByLayer
100
AcDbDimension
 10
197.0
 20
160.0
 30
0.0
 11
203.5
 21
161.875
 31
0.0
 70
0
 71
5
 72
1
 41
1.0
 42
0.0
  1

  3
Standard
100
AcDbAlignedDimension
 13
210.0
 23
150.0
 33
0.0
 14
197.0
 24
150.0
 34
0.0
 50
0.0
100
AcDbRotatedDimension
  0
DIMENSION
  5
254
100
AcDbEntity
  8
noname
 62
256
370
-1
  6
ByLayer
100
AcDbDimension
 10
184.0
 20
160.0
 30
0.0
 11
190.5
 21
161.875
 31
0.0
 70
0
 71
5
 72
1
 41
1.0
 42
0.0
  1

  3
Standard
100
AcDbAlignedDimension
 13
197.0
 23
150.0
 33
0.0
 14
184.0
 24
150.0
 34
0.0
 50
0.0
100
AcDbRotatedDimension
  0
LINE
  5
255
100
AcDbEntity
100
AcDbLine
  8
Base
 62
256
370
-1
  6
ByBlock
 10
206.0
 20
134.0
 30
0.0
 11
206.0
 21
124.0
 31
0.0
  0
LINE
  5
256
100
AcDbEntity
100
AcDbLine
  8
Base
 62
256
370
-1
  6
ByBlock
 10
214.0
 20
134.0
 30
0.0
 11
214.0
 21
124.0
 31
0.0
  0
LINE
  5
257
100
AcDbEntity
100
AcDbLine
  8
Axis
 62
256
370
-1
  6
ByBlock
 10
213.0
 20
124.0
 30
0.0
 11
214.0
 21
125.0
 31
0.0
  0
LINE
  5
258
100
AcDbEntity
100
AcDbLine
  8
Axis
 62
256
370
-1
  6
ByBlock
 10
214.0
 20
125.0
 30
0.0
 11
214.0
 21
134.0
 31
0.0
  0
LINE
  5
259
100
AcDbEntity
100
AcDbLine
  8
Axis
 62
256
370
-1
  6
ByBlock
 10
214.0
 20
134.0
 30
0.0
 11
206.0
 21
134.0
 31
0.0
  0
LINE
  5
25A
100
AcDbEntity
100
AcDbLine
  8
Axis
 62
256
370
-1
  6
ByBlock
 10
206.0
 20
134.0
 30
0.0
 11
206.0
 21
125.0
 31
0.0
  0
LINE
  5
25B
100
AcDbEntity
100
AcDbLine
  8
Axis
 62
256
370
-1
  6
ByBlock
 10
206.0
 20
125.0
 30
0.0
 11
207.0
 21
124.0
 31
0.0
  0
LINE
  5
25C
100
AcDbEntity
100
AcDbLine
  8
Axis
 62
256
370
-1
  6
ByBlock
 10
207.0
 20
124.0
 30
0.0
 11
213.0
 21
124.0
 31
0.0
  0
LINE
  5
25D
100
AcDbEntity
100
AcDbLine
  8
Axis
 62
256
370
-1
  6
ByBlock
 10
206.0
 20
125.0
 30
0.0
 11
214.0
 21
125.0
 31
0.0
  0
LINE
  5
25E
100
AcDbEntity
100
AcDbLine
  8
Axis
 62
256
370
-1
  6
ByBlock
 10
203.0
 20
134.0
 30
0.0
 11
217.0
 21
134.0
 31
0.0
  0
LINE
  5
25F
100
AcDbEntity
100
AcDbLine
  8
Axis
 62
256
370
-1
  6
ByBlock
 10
203.0
 20
149.0
 30
0.0
 11
217.0
 21
149.0
 31
0.0
  0
LINE
  5
260
100
AcDbEntity
100
AcDbLine
  8
Axis
 62
256
370
-1
  6
ByBlock
 10
212.0
 20
144.0
 30
0.0
 11
213.0
 21
143.0
 31
0.0
  0
LINE
  5
261
100
AcDbEntity
100
AcDbLine
  8
Axis
 62
256
370
-1
  6
ByBlock
 10
213.0
 20
143.0
 30
0.0
 11
213.0
 21
139.0
 31
0.0
  0
LINE
  5
262
100
AcDbEntity
100
AcDbLine
  8
Axis
 62
256
370
-1
  6
ByBlock
 10
213.0
 20
139.0
 30
0.0
 11
212.0
 21
138.0
 31
0.0
  0
LINE
  5
263
100
AcDbEntity
100
AcDbLine
  8
Axis
 62
256
370
-1
  6
ByBlock
 10
212.0
 20
138.0
 30
0.0
 11
212.0
 21
144.0
 31
0.0
  0
LINE
  5
264
100
AcDbEntity
100
AcDbLine
  8
Axis
 62
256
370
-1
  6
ByBlock
 10
212.0
 20
138.0
 30
0.0
 11
211.0
 21
144.0
 31
0.0
  0
LINE
  5
265
100
AcDbEntity
100
AcDbLine
  8
Axis
 62
256
370
-1
  6
ByBlock
 10
211.0
 20
138.0
 30
0.0
 11
210.0
 21
144.0
 31
0.0
  0
LINE
  5
266
100
AcDbEntity
100
AcDbLine
  8
Axis
 62
256
370
-1
  6
ByBlock
 10
210.0
 20
138.0
 30
0.0
 11
209.0
 21
144.0
 31
0.0
  0
LINE
  5
267
100
AcDbEntity
100
AcDbLine
  8
Axis
 62
256
370
-1
  6
ByBlock
 10
209.0
 20
138.0
 30
0.0
 11
208.0
 21
144.0
 31
0.0
  0
LINE
  5
268
100
AcDbEntity
100
AcDbLine
  8
Axis
 62
256
370
-1
  6
ByBlock
 10
208.0
 20
138.0
 30
0.0
 11
207.0
 21
144.0
 31
0.0
  0
LINE
  5
269
100
AcDbEntity
100
AcDbLine
  8
Axis
 62
256
370
-1
  6
ByBlock
 10
207.0
 20
138.0
 30
0.0
 11
206.0
 21
144.0
 31
0.0
  0
LINE
  5
26A
100
AcDbEntity
100
AcDbLine
  8
Axis
 62
256
370
-1
  6
ByBlock
 10
206.0
 20
138.0
 30
0.0
 11
205.0
 21
144.0
 31
0.0
  0
LINE
  5
26B
100
AcDbEntity
100
AcDbLine
  8
Axis
 62
256
370
-1
  6
ByBlock
 10
205.0
 20
138.0
 30
0.0
 11
204.0
 21
144.0
 31
0.0
  0
LINE
  5
26C
100
AcDbEntity
100
AcDbLine
  8
Axis
 62
256
370
-1
  6
ByBlock
 10
204.0
 20
138.0
 30
0.0
 11
203.0
 21
144.0
 31
0.0
  0
LINE
  5
26D
100
AcDbEntity
100
AcDbLine
  8
Axis
 62
256
370
-1
  6
ByBlock
 10
203.0
 20
138.0
 30
0.0
 11
202.0
 21
144.0
 31
0.0
  0
LINE
  5
26E
100
AcDbEntity
100
AcDbLine
  8
Axis
 62
256
370
-1
  6
ByBlock
 10
201.0
 20
145.0
 30
0.0
 11
202.0
 21
145.0
 31
0.0
  0
LINE
  5
26F
100
AcDbEntity
100
AcDbLine
  8
Axis
 62
256
370
-1
  6
ByBlock
 10
202.0
 20
145.0
 30
0.0
 11
202.0
 21
137.0
 31
0.0
  0
LINE
  5
270
100
AcDbEntity
100
AcDbLine
  8
Axis
 62
256
370
-1
  6
ByBlock
 10
202.0
 20
137.0
 30
0.0
 11
201.0
 21
137.0
 31
0.0
  0
LINE
  5
271
100
AcDbEntity
100
AcDbLine
  8
Axis
 62
256
370
-1
  6
ByBlock
 10
202.0
 20
138.0
 30
0.0
 11
212.0
 21
138.0
 31
0.0
  0
LINE
  5
272
100
AcDbEntity
100
AcDbLine
  8
Axis
 62
256
370
-1
  6
ByBlock
 10
212.0
 20
144.0
 30
0.0
 11
202.0
 21
144.0
 31
0.0
  0
LINE
  5
273
100
AcDbEntity
100
AcDbLine
  8
Axis
 62
256
370
-1
  6
ByBlock
 10
217.0
 20
149.0
 30
0.0
 11
219.0
 21
146.0
 31
0.0
  0
LINE
  5
274
100
AcDbEntity
100
AcDbLine
  8
Axis
 62
256
370
-1
  6
ByBlock
 10
219.0
 20
146.0
 30
0.0
 11
219.0
 21
134.0
 31
0.0
  0
LINE
  5
275
100
AcDbEntity
100
AcDbLine
  8
Axis
 62
256
370
-1
  6
ByBlock
 10
201.0
 20
134.0
 30
0.0
 11
219.0
 21
134.0
 31
0.0
  0
LINE
  5
276
100
AcDbEntity
100
AcDbLine
  8
Axis
 62
256
370
-1
  6
ByBlock
 10
201.0
 20
134.0
 30
0.0
 11
201.0
 21
146.0
 31
0.0
  0
LINE
  5
277
100
AcDbEntity
100
AcDbLine
  8
Axis
 62
256
370
-1
  6
ByBlock
 10
201.0
 20
146.0
 30
0.0
 11
203.0
 21
149.0
 31
0.0
  0
LINE
  5
278
100
AcDbEntity
100
AcDbLine
  8
Axis
 62
256
370
-1
  6
ByLayer
 10
207.0
 20
56.0
 30
0.0
 11
207.0
 21
47.0
 31
0.0
  0
LINE
  5
279
100
AcDbEntity
100
AcDbLine
  8
Axis
 62
256
370
-1
  6
ByLayer
 10
213.0
 20
47.0
 30
0.0
 11
213.0
 21
56.0
 31
0.0
  0
LINE
  5
27A
100
AcDbEntity
100
AcDbLine
  8
Swivel
 62
256
370
-1
  6
ByLayer
 10
213.0
 20
48.0
 30
0.0
 11
213.0
 21
57.0
 31
0.0
  0
LINE
  5
27B
100
AcDbEntity
100
AcDbLine
  8
Swivel
 62
256
370
-1
  6
ByLayer
 10
207.0
 20
57.0
 30
0.0
 11
207.0
 21
48.0
 31
0.0
  0
LINE
  5
27C
100
AcDbEntity
100
AcDbLine
  8
Swivel
 62
256
370
-1
  6
ByLayer
 10
200.0
 20
57.0
 30
0.0
 11
200.0
 21
48.0
 31
0.0
  0
LINE
  5
27D
100
AcDbEntity
100
AcDbLine
  8
Swivel
 62
256
370
-1
  6
ByLayer
 10
194.0
 20
48.0
 30
0.0
 11
194.0
 21
57.0
 31
0.0
  0
LINE
  5
27E
100
AcDbEntity
100
AcDbLine
  8
Swivel
 62
256
370
-1
  6
ByLayer
 10
187.0
 20
48.0
 30
0.0
 11
187.0
 21
57.0
 31
0.0
  0
LINE
  5
27F
100
AcDbEntity
100
AcDbLine
  8
Swivel
 62
256
370
-1
  6
ByLayer
 10
181.0
 20
57.0
 30
0.0
 11
181.0
 21
48.0
 31
0.0
  0
LINE
  5
280
100
AcDbEntity
100
AcDbLine
  8
Swivel
 62
256
370
-1
  6
ByBlock
 10
181.0
 20
48.0
 30
0.0
 11
180.0
 21
47.0
 31
0.0
  0
LINE
  5
281
100
AcDbEntity
100
AcDbLine
  8
Swivel
 62
256
370
-1
  6
ByBlock
 10
187.0
 20
48.0
 30
0.0
 11
188.0
 21
47.0
 31
0.0
  0
LINE
  5
282
100
AcDbEntity
100
AcDbLine
  8
Swivel
 62
256
370
-1
  6
ByBlock
 10
187.0
 20
48.0
 30
0.0
 11
181.0
 21
48.0
 31
0.0
  0
LINE
  5
283
100
AcDbEntity
100
AcDbLine
  8
Swivel
 62
256
370
-1
  6
ByBlock
 10
194.0
 20
48.0
 30
0.0
 11
200.0
 21
48.0
 31
0.0
  0
LINE
  5
284
100
AcDbEntity
100
AcDbLine
  8
Swivel
 62
256
370
-1
  6
ByBlock
 10
200.0
 20
48.0
 30
0.0
 11
201.0
 21
47.0
 31
0.0
  0
LINE
  5
285
100
AcDbEntity
100
AcDbLine
  8
Swivel
 62
256
370
-1
  6
ByBlock
 10
194.0
 20
48.0
 30
0.0
 11
193.0
 21
47.0
 31
0.0
  0
LINE
  5
286
100
AcDbEntity
100
AcDbLine
  8
Swivel
 62
256
370
-1
  6
ByBlock
 10
206.0
 20
47.0
 30
0.0
 11
207.0
 21
48.0
 31
0.0
  0
LINE
  5
287
100
AcDbEntity
100
AcDbLine
  8
Swivel
 62
256
370
-1
  6
ByBlock
 10
207.0
 20
48.0
 30
0.0
 11
213.0
 21
48.0
 31
0.0
  0
LINE
  5
288
100
AcDbEntity
100
AcDbLine
  8
Swivel
 62
256
370
-1
  6
ByBlock
 10
213.0
 20
48.0
 30
0.0
 11
214.0
 21
47.0
 31
0.0
  0
LINE
  5
289
100
AcDbEntity
100
AcDbLine
  8
Base
 62
256
370
-1
  6
ByBlock
 10
206.0
 20
46.0
 30
0.0
 11
206.0
 21
40.0
 31
0.0
  0
LINE
  5
28A
100
AcDbEntity
100
AcDbLine
  8
Base
 62
256
370
-1
  6
ByBlock
 10
206.0
 20
40.0
 30
0.0
 11
214.0
 21
40.0
 31
0.0
  0
LINE
  5
28B
100
AcDbEntity
100
AcDbLine
  8
Base
 62
256
370
-1
  6
ByBlock
 10
214.0
 20
40.0
 30
0.0
 11
214.0
 21
46.0
 31
0.0
  0
LINE
  5
28C
100
AcDbEntity
100
AcDbLine
  8
Base
 62
256
370
-1
  6
ByBlock
 10
206.0
 20
40.0
 30
0.0
 11
203.0
 21
37.0
 31
0.0
  0
LINE
  5
28D
100
AcDbEntity
100
AcDbLine
  8
Base
 62
256
370
-1
  6
ByBlock
 10
203.0
 20
37.0
 30
0.0
 11
203.0
 21
36.0
 31
0.0
  0
LINE
  5
28E
100
AcDbEntity
100
AcDbLine
  8
Base
 62
256
370
-1
  6
ByBlock
 10
214.0
 20
40.0
 30
0.0
 11
217.0
 21
37.0
 31
0.0
  0
LINE
  5
28F
100
AcDbEntity
100
AcDbLine
  8
Base
 62
256
370
-1
  6
ByBlock
 10
217.0
 20
37.0
 30
0.0
 11
217.0
 21
36.0
 31
0.0
  0
LINE
  5
290
100
AcDbEntity
100
AcDbLine
  8
Base
 62
256
370
-1
  6
ByBlock
 10
206.0
 20
40.0
 30
0.0
 11
214.0
 21
41.0
 31
0.0
  0
LINE
  5
291
100
AcDbEntity
100
AcDbLine
  8
Base
 62
256
370
-1
  6
ByBlock
 10
214.0
 20
42.0
 30
0.0
 11
206.0
 21
41.0
 31
0.0
  0
LINE
  5
292
100
AcDbEntity
100
AcDbLine
  8
Base
 62
256
370
-1
  6
ByBlock
 10
206.0
 20
42.0
 30
0.0
 11
214.0
 21
43.0
 31
0.0
  0
LINE
  5
293
100
AcDbEntity
100
AcDbLine
  8
Base
 62
256
370
-1
  6
ByBlock
 10
214.0
 20
44.0
 30
0.0
 11
206.0
 21
43.0
 31
0.0
  0
LINE
  5
294
100
AcDbEntity
100
AcDbLine
  8
Base
 62
256
370
-1
  6
ByBlock
 10
206.0
 20
44.0
 30
0.0
 11
214.0
 21
45.0
 31
0.0
  0
LINE
  5
295
100
AcDbEntity
100
AcDbLine
  8
Base
 62
256
370
-1
  6
ByBlock
 10
214.0
 20
46.0
 30
0.0
 11
206.0
 21
45.0
 31
0.0
  0
LINE
  5
296
100
AcDbEntity
100
AcDbLine
  8
Axis
 62
256
370
-1
  6
ByBlock
 10
203.0
 20
36.0
 30
0.0
 11
203.0
 21
37.0
 31
0.0
  0
LINE
  5
297
100
AcDbEntity
100
AcDbLine
  8
Axis
 62
256
370
-1
  6
ByBlock
 10
203.0
 20
37.0
 30
0.0
 11
206.0
 21
40.0
 31
0.0
  0
LINE
  5
298
100
AcDbEntity
100
AcDbLine
  8
Axis
 62
256
370
-1
  6
ByBlock
 10
206.0
 20
40.0
 30
0.0
 11
206.0
 21
46.0
 31
0.0
  0
LINE
  5
299
100
AcDbEntity
100
AcDbLine
  8
Axis
 62
256
370
-1
  6
ByBlock
 10
206.0
 20
46.0
 30
0.0
 11
214.0
 21
46.0
 31
0.0
  0
LINE
  5
29A
100
AcDbEntity
100
AcDbLine
  8
Axis
 62
256
370
-1
  6
ByBlock
 10
214.0
 20
46.0
 30
0.0
 11
214.0
 21
40.0
 31
0.0
  0
LINE
  5
29B
100
AcDbEntity
100
AcDbLine
  8
Axis
 62
256
370
-1
  6
ByBlock
 10
214.0
 20
40.0
 30
0.0
 11
217.0
 21
37.0
 31
0.0
  0
LINE
  5
29C
100
AcDbEntity
100
AcDbLine
  8
Axis
 62
256
370
-1
  6
ByBlock
 10
217.0
 20
37.0
 30
0.0
 11
217.0
 21
36.0
 31
0.0
  0
LINE
  5
29D
100
AcDbEntity
100
AcDbLine
  8
Axis
 62
256
370
-1
  6
ByBlock
 10
214.0
 20
40.0
 30
0.0
 11
206.0
 21
40.0
 31
0.0
  0
LINE
  5
29E
100
AcDbEntity
100
AcDbLine
  8
Axis
 62
256
370
-1
  6
ByBlock
 10
206.0
 20
41.0
 30
0.0
 11
214.0
 21
42.0
 31
0.0
  0
LINE
  5
29F
100
AcDbEntity
100
AcDbLine
  8
Axis
 62
256
370
-1
  6
ByBlock
 10
214.0
 20
41.0
 30
0.0
 11
206.0
 21
40.0
 31
0.0
  0
LINE
  5
2A0
100
AcDbEntity
100
AcDbLine
  8
Axis
 62
256
370
-1
  6
ByBlock
 10
206.0
 20
42.0
 30
0.0
 11
214.0
 21
43.0
 31
0.0
  0
LINE
  5
2A1
100
AcDbEntity
100
AcDbLine
  8
Axis
 62
256
370
-1
  6
ByBlock
 10
214.0
 20
44.0
 30
0.0
 11
206.0
 21
43.0
 31
0.0
  0
LINE
  5
2A2
100
AcDbEntity
100
AcDbLine
  8
Axis
 62
256
370
-1
  6
ByBlock
 10
206.0
 20
44.0
 30
0.0
 11
214.0
 21
45.0
 31
0.0
  0
LINE
  5
2A3
100
AcDbEntity
100
AcDbLine
  8
Axis
 62
256
370
-1
  6
ByBlock
 10
214.0
 20
46.0
 30
0.0
 11
206.0
 21
45.0
 31
0.0
  0
LINE
  5
2A4
100
AcDbEntity
100
AcDbLine
  8
Handle
 62
256
370
-1
  6
ByBlock
 10
379.0
 20
-21.9999999999999147
 30
0.0
 11
378.0
 21
-23.0
 31
0.0
  0
LINE
  5
2A5
100
AcDbEntity
100
AcDbLine
  8
Handle
 62
256
370
-1
  6
ByBlock
 10
378.0
 20
-23.0
 30
0.0
 11
378.0
 21
-26.9999999999999716
 31
0.0
  0
LINE
  5
2A6
100
AcDbEntity
100
AcDbLine
  8
Handle
 62
256
370
-1
  6
ByBlock
 10
378.0
 20
-26.9999999999999716
 30
0.0
 11
379.0
 21
-28.0000000000000284
 31
0.0
  0
LINE
  5
2A7
100
AcDbEntity
100
AcDbLine
  8
Handle
 62
256
370
-1
  6
ByBlock
 10
379.0
 20
-28.0000000000000284
 30
0.0
 11
379.0
 21
-21.9999999999999147
 31
0.0
  0
LINE
  5
2A8
100
AcDbEntity
100
AcDbLine
  8
Handle
 62
256
370
-1
  6
ByBlock
 10
379.0
 20
-28.0000000000000284
 30
0.0
 11
380.0
 21
-21.9999999999999432
 31
0.0
  0
LINE
  5
2A9
100
AcDbEntity
100
AcDbLine
  8
Handle
 62
256
370
-1
  6
ByBlock
 10
380.0
 20
-28.0
 30
0.0
 11
381.0
 21
-22.0
 31
0.0
  0
LINE
  5
2AA
100
AcDbEntity
100
AcDbLine
  8
Handle
 62
256
370
-1
  6
ByBlock
 10
381.0
 20
-27.9999999999999432
 30
0.0
 11
382.0
 21
-21.9999999999999432
 31
0.0
  0
LINE
  5
2AB
100
AcDbEntity
100
AcDbLine
  8
Handle
 62
256
370
-1
  6
ByBlock
 10
382.0
 20
-28.0
 30
0.0
 11
383.0
 21
-21.9999999999999716
 31
0.0
  0
LINE
  5
2AC
100
AcDbEntity
100
AcDbLine
  8
Handle
 62
256
370
-1
  6
ByBlock
 10
383.0
 20
-27.9999999999999716
 30
0.0
 11
384.0
 21
-22.0000000000000284
 31
0.0
  0
LINE
  5
2AD
100
AcDbEntity
100
AcDbLine
  8
Handle
 62
256
370
-1
  6
ByBlock
 10
384.0
 20
-28.0
 30
0.0
 11
385.0
 21
-21.9999999999999432
 31
0.0
  0
LINE
  5
2AE
100
AcDbEntity
100
AcDbLine
  8
Handle
 62
256
370
-1
  6
ByBlock
 10
385.0
 20
-28.0
 30
0.0
 11
386.0
 21
-21.9999999999999147
 31
0.0
  0
LINE
  5
2AF
100
AcDbEntity
100
AcDbLine
  8
Handle
 62
256
370
-1
  6
ByBlock
 10
386.0
 20
-27.9999999999999432
 30
0.0
 11
387.0
 21
-22.0
 31
0.0
  0
LINE
  5
2B0
100
AcDbEntity
100
AcDbLine
  8
Handle
 62
256
370
-1
  6
ByBlock
 10
387.0
 20
-28.0000000000000284
 30
0.0
 11
388.0
 21
-21.9999999999999432
 31
0.0
  0
LINE
  5
2B1
100
AcDbEntity
100
AcDbLine
  8
Handle
 62
256
370
-1
  6
ByBlock
 10
388.0
 20
-28.0
 30
0.0
 11
379.0
 21
-28.0
 31
0.0
  0
LINE
  5
2B2
100
AcDbEntity
100
AcDbLine
  8
Handle
 62
256
370
-1
  6
ByBlock
 10
379.0
 20
-22.0
 30
0.0
 11
388.0
 21
-22.0
 31
0.0
  0
LINE
  5
2B3
100
AcDbEntity
100
AcDbLine
  8
Handle
 62
256
370
-1
  6
ByBlock
 10
388.0
 20
-22.0
 30
0.0
 11
388.0
 21
-21.0
 31
0.0
  0
LINE
  5
2B4
100
AcDbEntity
100
AcDbLine
  8
Handle
 62
256
370
-1
  6
ByBlock
 10
388.0
 20
-22.0
 30
0.0
 11
388.0
 21
-29.0
 31
0.0
  0
CIRCLE
  5
2B5
100
AcDbEntity
100
AcDbCircle
  8
Handle
 62
256
370
-1
  6
ByBlock
 10
377.0
 20
-25.0
 30
0.0
 40
12.4999999999999964
  0
LINE
  5
2B6
100
AcDbEntity
100
AcDbLine
  8
Handle
 62
256
370
-1
  6
ByBlock
 10
388.0
 20
-29.0
 30
0.0
 11
389.0
 21
-29.0
 31
0.0
  0
LINE
  5
2B7
100
AcDbEntity
100
AcDbLine
  8
Handle
 62
256
370
-1
  6
ByBlock
 10
388.0
 20
-21.0
 30
0.0
 11
389.0
 21
-21.0
 31
0.0
  0
DIMENSION
  5
2B8
100
AcDbEntity
  8
Dimensions
 62
256
370
-1
  6
ByBlock
100
AcDbDimension
 10
380.7641420992137
 20
-13.0802166858232454
 30
0.0
 11
375.2120325028735124
 21
-24.4353786851179393
 31
0.0
 70
3
 71
5
 72
1
 41
1.0
 42
0.0
  1

  3
Standard
100
AcDbDiametricDimension
 15
373.2358579007863
 25
-36.9197833141767546
 35
0.0
 40
0.0
  0
DIMENSION
  5
2B9
100
AcDbEntity
  8
Dimensions
 62
256
370
-1
  6
ByBlock
100
AcDbDimension
 10
410.0
 20
-28.0
 30
0.0
 11
408.125
 21
-25.0
 31
0.0
 70
0
 71
5
 72
1
 41
1.0
 42
0.0
  1

  3
Standard
100
AcDbAlignedDimension
 13
400.0
 23
-22.0
 33
0.0
 14
400.0
 24
-28.0
 34
0.0
 50
90.0
100
AcDbRotatedDimension
  0
LINE
  5
2BA
100
AcDbEntity
100
AcDbLine
  8
Axis
 62
256
370
-1
  6
ByBlock
 10
572.0
 20
-26.0
 30
0.0
 11
572.0
 21
-27.0
 31
0.0
  0
LINE
  5
2BB
100
AcDbEntity
100
AcDbLine
  8
Axis
 62
256
370
-1
  6
ByBlock
 10
572.0
 20
-27.0
 30
0.0
 11
588.0
 21
-27.0
 31
0.0
  0
LINE
  5
2BC
100
AcDbEntity
100
AcDbLine
  8
Axis
 62
256
370
-1
  6
ByBlock
 10
588.0
 20
-27.0
 30
0.0
 11
588.0
 21
-26.0
 31
0.0
  0
LINE
  5
2BD
100
AcDbEntity
100
AcDbLine
  8
Axis
 62
256
370
-1
  6
ByBlock
 10
588.0
 20
-26.0
 30
0.0
 11
572.0
 21
-26.0
 31
0.0
  0
DIMENSION
  5
2BE
100
AcDbEntity
  8
Dimensions
 62
256
370
-1
  6
ByBlock
100
AcDbDimension
 10
583.0
 20
-10.0
 30
0.0
 11
580.0
 21
-8.125
 31
0.0
 70
0
 71
5
 72
1
 41
1.0
 42
0.0
  1

  3
Standard
100
AcDbAlignedDimension
 13
577.0
 23
-20.0
 33
0.0
 14
583.0
 24
-20.0
 34
0.0
 50
0.0
100
AcDbRotatedDimension
  0
LINE
  5
2BF
100
AcDbEntity
100
AcDbLine
  8
Axis
 62
256
370
-1
  6
ByBlock
 10
577.0
 20
-26.0
 30
0.0
 11
577.0
 21
-27.0
 31
0.0
  0
LINE
  5
2C0
100
AcDbEntity
100
AcDbLine
  8
Axis
 62
256
370
-1
  6
ByBlock
 10
583.0
 20
-26.0
 30
0.0
 11
583.0
 21
-27.0
 31
0.0
  0
LINE
  5
2C1
100
AcDbEntity
100
AcDbLine
  8
Axis
 62
256
370
-1
  6
ByBlock
 10
447.0
 20
-46.0
 30
0.0
 11
448.0
 21
-47.0
 31
0.0
  0
LINE
  5
2C2
100
AcDbEntity
100
AcDbLine
  8
Axis
 62
256
370
-1
  6
ByBlock
 10
448.0
 20
-47.0
 30
0.0
 11
452.0
 21
-47.0
 31
0.0
  0
LINE
  5
2C3
100
AcDbEntity
100
AcDbLine
  8
Axis
 62
256
370
-1
  6
ByBlock
 10
452.0
 20
-47.0
 30
0.0
 11
453.0
 21
-46.0
 31
0.0
  0
LINE
  5
2C4
100
AcDbEntity
100
AcDbLine
  8
Axis
 62
256
370
-1
  6
ByBlock
 10
453.0
 20
-46.0
 30
0.0
 11
447.0
 21
-46.0
 31
0.0
  0
LINE
  5
2C5
100
AcDbEntity
100
AcDbLine
  8
Axis
 62
256
370
-1
  6
ByBlock
 10
446.9999999999998863
 20
-46.0
 30
0.0
 11
448.0
 21
-47.0
 31
0.0
  0
LINE
  5
2C6
100
AcDbEntity
100
AcDbLine
  8
Axis
 62
256
370
-1
  6
ByBlock
 10
448.0
 20
-47.0
 30
0.0
 11
452.0
 21
-47.0
 31
0.0
  0
LINE
  5
2C7
100
AcDbEntity
100
AcDbLine
  8
Axis
 62
256
370
-1
  6
ByBlock
 10
452.0
 20
-47.0
 30
0.0
 11
453.0
 21
-46.0
 31
0.0
  0
LINE
  5
2C8
100
AcDbEntity
100
AcDbLine
  8
Axis
 62
256
370
-1
  6
ByBlock
 10
453.0
 20
-46.0
 30
0.0
 11
446.9999999999998863
 21
-46.0
 31
0.0
  0
LINE
  5
2C9
100
AcDbEntity
100
AcDbLine
  8
Axis
 62
256
370
-1
  6
ByBlock
 10
450.0
 20
-26.0
 30
0.0
 11
443.0
 21
-26.0
 31
0.0
  0
LINE
  5
2CA
100
AcDbEntity
100
AcDbLine
  8
Axis
 62
256
370
-1
  6
ByBlock
 10
457.0
 20
-26.0
 30
0.0
 11
443.0
 21
-26.0
 31
0.0
  0
LINE
  5
2CB
100
AcDbEntity
100
AcDbLine
  8
Axis
 62
256
370
-1
  6
ByBlock
 10
447.0
 20
-46.0
 30
0.0
 11
447.0
 21
-37.0
 31
0.0
  0
LINE
  5
2CC
100
AcDbEntity
100
AcDbLine
  8
Axis
 62
256
370
-1
  6
ByBlock
 10
453.0
 20
-37.0
 30
0.0
 11
453.0
 21
-46.0
 31
0.0
  0
LINE
  5
2CD
100
AcDbEntity
100
AcDbLine
  8
Axis
 62
256
370
-1
  6
ByBlock
 10
453.0
 20
-36.0
 30
0.0
 11
454.0
 21
-35.0
 31
0.0
  0
LINE
  5
2CE
100
AcDbEntity
100
AcDbLine
  8
Axis
 62
256
370
-1
  6
ByBlock
 10
454.0
 20
-35.0
 30
0.0
 11
454.0
 21
-26.0
 31
0.0
  0
LINE
  5
2CF
100
AcDbEntity
100
AcDbLine
  8
Axis
 62
256
370
-1
  6
ByBlock
 10
454.0
 20
-26.0
 30
0.0
 11
446.0
 21
-26.0
 31
0.0
  0
LINE
  5
2D0
100
AcDbEntity
100
AcDbLine
  8
Axis
 62
256
370
-1
  6
ByBlock
 10
446.0
 20
-26.0
 30
0.0
 11
446.0
 21
-35.0
 31
0.0
  0
LINE
  5
2D1
100
AcDbEntity
100
AcDbLine
  8
Axis
 62
256
370
-1
  6
ByBlock
 10
446.0
 20
-35.0
 30
0.0
 11
447.0
 21
-36.0
 31
0.0
  0
LINE
  5
2D2
100
AcDbEntity
100
AcDbLine
  8
Axis
 62
256
370
-1
  6
ByBlock
 10
446.0
 20
-35.0
 30
0.0
 11
454.0
 21
-35.0
 31
0.0
  0
LINE
  5
2D3
100
AcDbEntity
100
AcDbLine
  8
Axis
 62
256
370
-1
  6
ByBlock
 10
443.0
 20
-26.0
 30
0.0
 11
457.0
 21
-26.0
 31
0.0
  0
LINE
  5
2D4
100
AcDbEntity
100
AcDbLine
  8
Axis
 62
256
370
-1
  6
ByBlock
 10
443.0
 20
-11.0
 30
0.0
 11
457.0
 21
-11.0
 31
0.0
  0
LINE
  5
2D5
100
AcDbEntity
100
AcDbLine
  8
Axis
 62
256
370
-1
  6
ByBlock
 10
452.0
 20
-16.0
 30
0.0
 11
453.0
 21
-17.0
 31
0.0
  0
LINE
  5
2D6
100
AcDbEntity
100
AcDbLine
  8
Axis
 62
256
370
-1
  6
ByBlock
 10
453.0
 20
-17.0
 30
0.0
 11
453.0
 21
-21.0
 31
0.0
  0
LINE
  5
2D7
100
AcDbEntity
100
AcDbLine
  8
Axis
 62
256
370
-1
  6
ByBlock
 10
453.0
 20
-21.0
 30
0.0
 11
452.0
 21
-22.0
 31
0.0
  0
LINE
  5
2D8
100
AcDbEntity
100
AcDbLine
  8
Axis
 62
256
370
-1
  6
ByBlock
 10
452.0
 20
-22.0
 30
0.0
 11
452.0
 21
-16.0
 31
0.0
  0
LINE
  5
2D9
100
AcDbEntity
100
AcDbLine
  8
Axis
 62
256
370
-1
  6
ByBlock
 10
452.0
 20
-22.0
 30
0.0
 11
451.0
 21
-16.0
 31
0.0
  0
LINE
  5
2DA
100
AcDbEntity
100
AcDbLine
  8
Axis
 62
256
370
-1
  6
ByBlock
 10
451.0
 20
-22.0
 30
0.0
 11
450.0
 21
-16.0
 31
0.0
  0
LINE
  5
2DB
100
AcDbEntity
100
AcDbLine
  8
Axis
 62
256
370
-1
  6
ByBlock
 10
450.0
 20
-22.0
 30
0.0
 11
449.0
 21
-16.0
 31
0.0
  0
LINE
  5
2DC
100
AcDbEntity
100
AcDbLine
  8
Axis
 62
256
370
-1
  6
ByBlock
 10
449.0
 20
-22.0
 30
0.0
 11
448.0
 21
-16.0
 31
0.0
  0
LINE
  5
2DD
100
AcDbEntity
100
AcDbLine
  8
Axis
 62
256
370
-1
  6
ByBlock
 10
448.0
 20
-22.0
 30
0.0
 11
447.0
 21
-16.0
 31
0.0
  0
LINE
  5
2DE
100
AcDbEntity
100
AcDbLine
  8
Axis
 62
256
370
-1
  6
ByBlock
 10
447.0
 20
-22.0
 30
0.0
 11
446.0
 21
-16.0
 31
0.0
  0
LINE
  5
2DF
100
AcDbEntity
100
AcDbLine
  8
Axis
 62
256
370
-1
  6
ByBlock
 10
446.0
 20
-22.0
 30
0.0
 11
445.0
 21
-16.0
 31
0.0
  0
LINE
  5
2E0
100
AcDbEntity
100
AcDbLine
  8
Axis
 62
256
370
-1
  6
ByBlock
 10
445.0
 20
-22.0
 30
0.0
 11
444.0
 21
-16.0
 31
0.0
  0
LINE
  5
2E1
100
AcDbEntity
100
AcDbLine
  8
Axis
 62
256
370
-1
  6
ByBlock
 10
444.0
 20
-22.0
 30
0.0
 11
443.0
 21
-16.0
 31
0.0
  0
LINE
  5
2E2
100
AcDbEntity
100
AcDbLine
  8
Axis
 62
256
370
-1
  6
ByBlock
 10
443.0
 20
-22.0
 30
0.0
 11
442.0
 21
-16.0
 31
0.0
  0
LINE
  5
2E3
100
AcDbEntity
100
AcDbLine
  8
Axis
 62
256
370
-1
  6
ByBlock
 10
441.0
 20
-15.0
 30
0.0
 11
442.0
 21
-15.0
 31
0.0
  0
LINE
  5
2E4
100
AcDbEntity
100
AcDbLine
  8
Axis
 62
256
370
-1
  6
ByBlock
 10
442.0
 20
-15.0
 30
0.0
 11
442.0
 21
-23.0
 31
0.0
  0
LINE
  5
2E5
100
AcDbEntity
100
AcDbLine
  8
Axis
 62
256
370
-1
  6
ByBlock
 10
442.0
 20
-23.0
 30
0.0
 11
441.0
 21
-23.0
 31
0.0
  0
LINE
  5
2E6
100
AcDbEntity
100
AcDbLine
  8
Axis
 62
256
370
-1
  6
ByBlock
 10
442.0
 20
-22.0
 30
0.0
 11
452.0
 21
-22.0
 31
0.0
  0
LINE
  5
2E7
100
AcDbEntity
100
AcDbLine
  8
Axis
 62
256
370
-1
  6
ByBlock
 10
452.0
 20
-16.0
 30
0.0
 11
442.0
 21
-16.0
 31
0.0
  0
LINE
  5
2E8
100
AcDbEntity
100
AcDbLine
  8
Axis
 62
256
370
-1
  6
ByBlock
 10
457.0
 20
-11.0
 30
0.0
 11
459.0
 21
-14.0
 31
0.0
  0
LINE
  5
2E9
100
AcDbEntity
100
AcDbLine
  8
Axis
 62
256
370
-1
  6
ByBlock
 10
459.0
 20
-14.0
 30
0.0
 11
459.0
 21
-26.0
 31
0.0
  0
LINE
  5
2EA
100
AcDbEntity
100
AcDbLine
  8
Axis
 62
256
370
-1
  6
ByBlock
 10
441.0
 20
-26.0
 30
0.0
 11
459.0
 21
-26.0
 31
0.0
  0
LINE
  5
2EB
100
AcDbEntity
100
AcDbLine
  8
Axis
 62
256
370
-1
  6
ByBlock
 10
441.0
 20
-26.0
 30
0.0
 11
441.0
 21
-14.0
 31
0.0
  0
LINE
  5
2EC
100
AcDbEntity
100
AcDbLine
  8
Axis
 62
256
370
-1
  6
ByBlock
 10
441.0
 20
-14.0
 30
0.0
 11
443.0
 21
-11.0
 31
0.0
  0
LINE
  5
2ED
100
AcDbEntity
100
AcDbLine
  8
Axis
 62
256
370
-1
  6
ByBlock
 10
447.0
 20
-36.0
 30
0.0
 11
447.0
 21
-37.0
 31
0.0
  0
LINE
  5
2EE
100
AcDbEntity
100
AcDbLine
  8
Axis
 62
256
370
-1
  6
ByBlock
 10
453.0
 20
-36.0
 30
0.0
 11
453.0
 21
-37.0
 31
0.0
  0
LINE
  5
2EF
100
AcDbEntity
100
AcDbLine
  8
Axis
 62
256
370
-1
  6
ByBlock
 10
453.0
 20
-36.0
 30
0.0
 11
447.0
 21
-36.0
 31
0.0
  0
LINE
  5
2F0
100
AcDbEntity
100
AcDbLine
  8
Axis
 62
256
370
-1
  6
ByBlock
 10
517.0
 20
-24.0
 30
0.0
 11
518.0
 21
-23.0
 31
0.0
  0
LINE
  5
2F1
100
AcDbEntity
100
AcDbLine
  8
Axis
 62
256
370
-1
  6
ByBlock
 10
518.0
 20
-23.0
 30
0.0
 11
522.0
 21
-23.0
 31
0.0
  0
LINE
  5
2F2
100
AcDbEntity
100
AcDbLine
  8
Axis
 62
256
370
-1
  6
ByBlock
 10
522.0
 20
-23.0
 30
0.0
 11
523.0
 21
-24.0
 31
0.0
  0
LINE
  5
2F3
100
AcDbEntity
100
AcDbLine
  8
Axis
 62
256
370
-1
  6
ByBlock
 10
523.0
 20
-24.0
 30
0.0
 11
517.0
 21
-24.0
 31
0.0
  0
LINE
  5
2F4
100
AcDbEntity
100
AcDbLine
  8
Axis
 62
256
370
-1
  6
ByBlock
 10
516.9999999999998863
 20
-24.0
 30
0.0
 11
518.0
 21
-23.0
 31
0.0
  0
LINE
  5
2F5
100
AcDbEntity
100
AcDbLine
  8
Axis
 62
256
370
-1
  6
ByBlock
 10
518.0
 20
-23.0
 30
0.0
 11
522.0
 21
-23.0
 31
0.0
  0
LINE
  5
2F6
100
AcDbEntity
100
AcDbLine
  8
Axis
 62
256
370
-1
  6
ByBlock
 10
522.0
 20
-23.0
 30
0.0
 11
523.0
 21
-24.0
 31
0.0
  0
LINE
  5
2F7
100
AcDbEntity
100
AcDbLine
  8
Axis
 62
256
370
-1
  6
ByBlock
 10
523.0
 20
-24.0
 30
0.0
 11
516.9999999999998863
 21
-24.0
 31
0.0
  0
LINE
  5
2F8
100
AcDbEntity
100
AcDbLine
  8
Axis
 62
256
370
-1
  6
ByBlock
 10
520.0
 20
-44.0
 30
0.0
 11
513.0
 21
-44.0
 31
0.0
  0
LINE
  5
2F9
100
AcDbEntity
100
AcDbLine
  8
Axis
 62
256
370
-1
  6
ByBlock
 10
527.0
 20
-44.0
 30
0.0
 11
513.0
 21
-44.0
 31
0.0
  0
LINE
  5
2FA
100
AcDbEntity
100
AcDbLine
  8
Axis
 62
256
370
-1
  6
ByBlock
 10
517.0
 20
-24.0
 30
0.0
 11
517.0
 21
-33.0
 31
0.0
  0
LINE
  5
2FB
100
AcDbEntity
100
AcDbLine
  8
Axis
 62
256
370
-1
  6
ByBlock
 10
523.0
 20
-33.0
 30
0.0
 11
523.0
 21
-24.0
 31
0.0
  0
LINE
  5
2FC
100
AcDbEntity
100
AcDbLine
  8
Axis
 62
256
370
-1
  6
ByBlock
 10
513.0
 20
-44.0
 30
0.0
 11
513.0
 21
-43.0
 31
0.0
  0
LINE
  5
2FD
100
AcDbEntity
100
AcDbLine
  8
Axis
 62
256
370
-1
  6
ByBlock
 10
513.0
 20
-43.0
 30
0.0
 11
516.0
 21
-40.0
 31
0.0
  0
LINE
  5
2FE
100
AcDbEntity
100
AcDbLine
  8
Axis
 62
256
370
-1
  6
ByBlock
 10
516.0
 20
-40.0
 30
0.0
 11
516.0
 21
-34.0
 31
0.0
  0
LINE
  5
2FF
100
AcDbEntity
100
AcDbLine
  8
Axis
 62
256
370
-1
  6
ByBlock
 10
524.0
 20
-34.0
 30
0.0
 11
524.0
 21
-40.0
 31
0.0
  0
LINE
  5
300
100
AcDbEntity
100
AcDbLine
  8
Axis
 62
256
370
-1
  6
ByBlock
 10
524.0
 20
-40.0
 30
0.0
 11
527.0
 21
-43.0
 31
0.0
  0
LINE
  5
301
100
AcDbEntity
100
AcDbLine
  8
Axis
 62
256
370
-1
  6
ByBlock
 10
527.0
 20
-43.0
 30
0.0
 11
527.0
 21
-44.0
 31
0.0
  0
LINE
  5
302
100
AcDbEntity
100
AcDbLine
  8
Axis
 62
256
370
-1
  6
ByBlock
 10
524.0
 20
-40.0
 30
0.0
 11
516.0
 21
-40.0
 31
0.0
  0
LINE
  5
303
100
AcDbEntity
100
AcDbLine
  8
Axis
 62
256
370
-1
  6
ByBlock
 10
516.0
 20
-39.0
 30
0.0
 11
524.0
 21
-38.0
 31
0.0
  0
LINE
  5
304
100
AcDbEntity
100
AcDbLine
  8
Axis
 62
256
370
-1
  6
ByBlock
 10
524.0
 20
-39.0
 30
0.0
 11
516.0
 21
-40.0
 31
0.0
  0
LINE
  5
305
100
AcDbEntity
100
AcDbLine
  8
Axis
 62
256
370
-1
  6
ByBlock
 10
516.0
 20
-38.0
 30
0.0
 11
524.0
 21
-37.0
 31
0.0
  0
LINE
  5
306
100
AcDbEntity
100
AcDbLine
  8
Axis
 62
256
370
-1
  6
ByBlock
 10
524.0
 20
-36.0
 30
0.0
 11
516.0
 21
-37.0
 31
0.0
  0
LINE
  5
307
100
AcDbEntity
100
AcDbLine
  8
Axis
 62
256
370
-1
  6
ByBlock
 10
516.0
 20
-36.0
 30
0.0
 11
524.0
 21
-35.0
 31
0.0
  0
LINE
  5
308
100
AcDbEntity
100
AcDbLine
  8
Axis
 62
256
370
-1
  6
ByBlock
 10
524.0
 20
-34.0
 30
0.0
 11
516.0
 21
-35.0
 31
0.0
  0
LINE
  5
309
100
AcDbEntity
100
AcDbLine
  8
Axis
 62
256
370
-1
  6
ByBlock
 10
516.0
 20
-34.0
 30
0.0
 11
524.0
 21
-34.0
 31
0.0
  0
LINE
  5
30A
100
AcDbEntity
100
AcDbLine
  8
Axis
 62
256
370
-1
  6
ByBlock
 10
523.0
 20
-34.0
 30
0.0
 11
523.0
 21
-33.0
 31
0.0
  0
LINE
  5
30B
100
AcDbEntity
100
AcDbLine
  8
Axis
 62
256
370
-1
  6
ByBlock
 10
517.0
 20
-34.0
 30
0.0
 11
517.0
 21
-33.0
 31
0.0
  0
DIMENSION
  5
30C
100
AcDbEntity
  8
Dimensions
 62
256
370
-1
  6
ByBlock
100
AcDbDimension
 10
443.0
 20
10.0
 30
0.0
 11
442.0
 21
11.875
 31
0.0
 70
0
 71
5
 72
1
 41
1.0
 42
0.0
  1

  3
Standard
100
AcDbAlignedDimension
 13
441.0
 23
0.0
 33
0.0
 14
443.0
 24
0.0
 34
0.0
 50
0.0
100
AcDbRotatedDimension
  0
DIMENSION
  5
30D
100
AcDbEntity
  8
Dimensions
 62
256
370
-1
  6
ByBlock
100
AcDbDimension
 10
457.0
 20
10.0
 30
0.0
 11
450.0
 21
11.875
 31
0.0
 70
0
 71
5
 72
1
 41
1.0
 42
0.0
  1

  3
Standard
100
AcDbAlignedDimension
 13
443.0
 23
0.0
 33
0.0
 14
457.0
 24
0.0
 34
0.0
 50
0.0
100
AcDbRotatedDimension
  0
DIMENSION
  5
30E
100
AcDbEntity
  8
Dimensions
 62
256
370
-1
  6
ByBlock
100
AcDbDimension
 10
459.0
 20
10.0
 30
0.0
 11
458.0
 21
11.875
 31
0.0
 70
0
 71
5
 72
1
 41
1.0
 42
0.0
  1

  3
Standard
100
AcDbAlignedDimension
 13
457.0
 23
0.0
 33
0.0
 14
459.0
 24
0.0
 34
0.0
 50
0.0
100
AcDbRotatedDimension
  0
DIMENSION
  5
30F
100
AcDbEntity
  8
Dimensions
 62
256
370
-1
  6
ByBlock
100
AcDbDimension
 10
470.0
 20
-14.0000000000000018
 30
0.0
 11
468.125
 21
-12.5
 31
0.0
 70
0
 71
5
 72
1
 41
1.0
 42
0.0
  1

  3
Standard
100
AcDbAlignedDimension
 13
460.0
 23
-11.0
 33
0.0
 14
460.0
 24
-14.0
 34
0.0
 50
90.0
100
AcDbRotatedDimension
  0
DIMENSION
  5
310
100
AcDbEntity
  8
Dimensions
 62
256
370
-1
  6
ByBlock
100
AcDbDimension
 10
470.0
 20
-26.0
 30
0.0
 11
468.125
 21
-20.0
 31
0.0
 70
0
 71
5
 72
1
 41
1.0
 42
0.0
  1

  3
Standard
100
AcDbAlignedDimension
 13
460.0
 23
-14.0
 33
0.0
 14
460.0
 24
-26.0
 34
0.0
 50
90.0
100
AcDbRotatedDimension
  0
DIMENSION
  5
311
100
AcDbEntity
  8
Dimensions
 62
256
370
-1
  6
ByBlock
100
AcDbDimension
 10
470.0
 20
-36.0
 30
0.0
 11
468.125
 21
-31.0
 31
0.0
 70
0
 71
5
 72
1
 41
1.0
 42
0.0
  1

  3
Standard
100
AcDbAlignedDimension
 13
460.0
 23
-26.0
 33
0.0
 14
460.0
 24
-36.0
 34
0.0
 50
90.0
100
AcDbRotatedDimension
  0
DIMENSION
  5
312
100
AcDbEntity
  8
Dimensions
 62
256
370
-1
  6
ByBlock
100
AcDbDimension
 10
470.0
 20
-47.0
 30
0.0
 11
468.125
 21
-41.5
 31
0.0
 70
0
 71
5
 72
1
 41
1.0
 42
0.0
  1

  3
Standard
100
AcDbAlignedDimension
 13
460.0
 23
-36.0
 33
0.0
 14
460.0
 24
-47.0
 34
0.0
 50
90.0
100
AcDbRotatedDimension
  0
DIMENSION
  5
313
100
AcDbEntity
  8
Dimensions
 62
256
370
-1
  6
ByBlock
100
AcDbDimension
 10
454.0
 20
-60.0
 30
0.0
 11
450.0
 21
-58.125
 31
0.0
 70
0
 71
5
 72
1
 41
1.0
 42
0.0
  1

  3
Standard
100
AcDbAlignedDimension
 13
446.0
 23
-50.0
 33
0.0
 14
454.0
 24
-50.0
 34
0.0
 50
0.0
100
AcDbRotatedDimension
  0
DIMENSION
  5
314
100
AcDbEntity
  8
Dimensions
 62
256
370
-1
  6
ByBlock
100
AcDbDimension
 10
453.0
 20
-54.0
 30
0.0
 11
450.0
 21
-52.125
 31
0.0
 70
0
 71
5
 72
1
 41
1.0
 42
0.0
  1

  3
Standard
100
AcDbAlignedDimension
 13
447.0
 23
-50.0
 33
0.0
 14
453.0
 24
-50.0
 34
0.0
 50
0.0
100
AcDbRotatedDimension
  0
DIMENSION
  5
315
100
AcDbEntity
  8
Dimensions
 62
256
370
-1
  6
ByBlock
100
AcDbDimension
 10
430.0
 20
-22.0
 30
0.0
 11
428.125
 21
-19.0
 31
0.0
 70
0
 71
5
 72
1
 41
1.0
 42
0.0
  1

  3
Standard
100
AcDbAlignedDimension
 13
440.0
 23
-16.0
 33
0.0
 14
440.0
 24
-22.0
 34
0.0
 50
90.0
100
AcDbRotatedDimension
  0
DIMENSION
  5
316
100
AcDbEntity
  8
Dimensions
 62
256
370
-1
  6
ByBlock
100
AcDbDimension
 10
523.0
 20
-10.0
 30
0.0
 11
520.0
 21
-8.125
 31
0.0
 70
0
 71
5
 72
1
 41
1.0
 42
0.0
  1

  3
Standard
100
AcDbAlignedDimension
 13
517.0
 23
-20.0
 33
0.0
 14
523.0
 24
-20.0
 34
0.0
 50
0.0
100
AcDbRotatedDimension
  0
DIMENSION
  5
317
100
AcDbEntity
  8
Dimensions
 62
256
370
-1
  6
ByBlock
100
AcDbDimension
 10
527.0
 20
-60.0
 30
0.0
 11
520.0
 21
-58.125
 31
0.0
 70
0
 71
5
 72
1
 41
1.0
 42
0.0
  1

  3
Standard
100
AcDbAlignedDimension
 13
513.0
 23
-50.0
 33
0.0
 14
527.0
 24
-50.0
 34
0.0
 50
0.0
100
AcDbRotatedDimension
  0
DIMENSION
  5
318
100
AcDbEntity
  8
Dimensions
 62
256
370
-1
  6
ByBlock
100
AcDbDimension
 10
524.0
 20
-54.0
 30
0.0
 11
520.0
 21
-52.125
 31
0.0
 70
0
 71
5
 72
1
 41
1.0
 42
0.0
  1

  3
Standard
100
AcDbAlignedDimension
 13
516.0
 23
-50.0
 33
0.0
 14
524.0
 24
-50.0
 34
0.0
 50
0.0
100
AcDbRotatedDimension
  0
DIMENSION
  5
319
100
AcDbEntity
  8
Dimensions
 62
256
370
-1
  6
ByBlock
100
AcDbDimension
 10
540.0
 20
-34.0
 30
0.0
 11
538.125
 21
-28.5
 31
0.0
 70
0
 71
5
 72
1
 41
1.0
 42
0.0
  1

  3
Standard
100
AcDbAlignedDimension
 13
530.0
 23
-23.0
 33
0.0
 14
530.0
 24
-34.0
 34
0.0
 50
90.0
100
AcDbRotatedDimension
  0
DIMENSION
  5
31A
100
AcDbEntity
  8
Dimensions
 62
256
370
-1
  6
ByBlock
100
AcDbDimension
 10
540.0
 20
-40.0
 30
0.0
 11
538.125
 21
-37.0
 31
0.0
 70
0
 71
5
 72
1
 41
1.0
 42
0.0
  1

  3
Standard
100
AcDbAlignedDimension
 13
530.0
 23
-34.0
 33
0.0
 14
530.0
 24
-40.0
 34
0.0
 50
90.0
100
AcDbRotatedDimension
  0
DIMENSION
  5
31B
100
AcDbEntity
  8
Dimensions
 62
256
370
-1
  6
ByBlock
100
AcDbDimension
 10
540.0
 20
-44.0
 30
0.0
 11
538.125
 21
-42.0
 31
0.0
 70
0
 71
5
 72
1
 41
1.0
 42
0.0
  1

  3
Standard
100
AcDbAlignedDimension
 13
530.0
 23
-40.0
 33
0.0
 14
530.0
 24
-44.0
 34
0.0
 50
90.0
100
AcDbRotatedDimension
  0
DIMENSION
  5
31C
100
AcDbEntity
  8
Dimensions
 62
256
370
-1
  6
ByBlock
100
AcDbDimension
 10
588.0
 20
-40.0
 30
0.0
 11
580.0
 21
-38.125
 31
0.0
 70
0
 71
5
 72
1
 41
1.0
 42
0.0
  1

  3
Standard
100
AcDbAlignedDimension
 13
572.0
 23
-30.0
 33
0.0
 14
588.0
 24
-30.0
 34
0.0
 50
0.0
100
AcDbRotatedDimension
  0
DIMENSION
  5
31D
100
AcDbEntity
  8
Dimensions
 62
256
370
-1
  6
ByBlock
100
AcDbDimension
 10
600.0
 20
-27.0
 30
0.0
 11
598.125
 21
-26.5
 31
0.0
 70
0
 71
5
 72
1
 41
1.0
 42
0.0
  1

  3
Standard
100
AcDbAlignedDimension
 13
590.0
 23
-26.0
 33
0.0
 14
590.0
 24
-27.0
 34
0.0
 50
90.0
100
AcDbRotatedDimension
  0
DIMENSION
  5
31E
100
AcDbEntity
  8
Axis
 62
256
370
-1
  6
ByBlock
100
AcDbDimension
 10
190.0
 20
141.0
 30
0.0
 11
188.125
 21
137.5
 31
0.0
 70
0
 71
5
 72
1
 41
1.0
 42
0.0
  1

  3
Standard
100
AcDbAlignedDimension
 13
200.0
 23
134.0
 33
0.0
 14
200.0
 24
141.0
 34
0.0
 50
90.0
100
AcDbRotatedDimension
  0
ENDSEC
  0
SECTION
  2
OBJECTS
  0
DICTIONARY
  5
C
100
AcDbDictionary
280
0
281
1
  3
ACAD_GROUP
350
D
  3
ACAD_LAYOUT
350
1A
  3
ACAD_MLINESTYLE
350
17
  3
ACAD_PLOTSETTINGS
350
19
  3
ACAD_PLOTSTYLENAME
350
E
  3
AcDbVariableDictionary
350
31F
  0
DICTIONARY
  5
D
100
AcDbDictionary
280
0
281
1
  0
ACDBDICTIONARYWDFLT
  5
E
100
AcDbDictionary
281
1
  3
Normal
350
F
100
AcDbDictionaryWithDefault
340
F
  0
ACDBPLACEHOLDER
  5
F
  0
DICTIONARY
  5
17
100
AcDbDictionary
280
0
281
1
  3
Standard
350
18
  0
MLINESTYLE
  5
18
100
AcDbMlineStyle
  2
STANDARD
 70
0
  3

 62
256
 51
90.0
 52
90.0
 71
2
 49
0.5
 62
256
  6
BYLAYER
 49
-0.5
 62
256
  6
BYLAYER
  0
DICTIONARY
  5
19
100
AcDbDictionary
280
0
281
1
  0
DICTIONARY
  5
1A
100
AcDbDictionary
281
1
  3
Layout1
350
1E
  3
Layout2
350
26
  3
Model
350
22
  0
LAYOUT
  5
1E
100
AcDbPlotSettings
  1

  2
C:\Program Files\AutoCAD 2002\plotters\DWF ePlot (optimized for plotting).pc3
  4

  6

 40
0.0
 41
0.0
 42
0.0
 43
0.0
 44
0.0
 45
0.0
 46
0.0
 47
0.0
 48
0.0
 49
0.0
140
0.0
141
0.0
142
1.0
143
1.0
 70
688
 72
0
 73
0
 74
5
  7

 75
16
147
1.0
148
0.0
149
0.0
100
AcDbLayout
  1
Layout1
 70
1
 71
1
 10
0.0
 20
0.0
 11
420.0
 21
297.0
 12
0.0
 22
0.0
 32
0.0
 14
100000000000000000000.0
 24
100000000000000000000.0
 34
100000000000000000000.0
 15
-100000000000000000000.0
 25
-100000000000000000000.0
 35
-100000000000000000000.0
146
0.0
 13
0.0
 23
0.0
 33
0.0
 16
1.0
 26
0.0
 36
0.0
 17
0.0
 27
1.0
 37
0.0
 76
0
330
1B
  0
LAYOUT
  5
22
100
AcDbPlotSettings
  1

  2
C:\Program Files\AutoCAD 2002\plotters\DWF ePlot (optimized for plotting).pc3
  4

  6

 40
0.0
 41
0.0
 42
0.0
 43
0.0
 44
0.0
 45
0.0
 46
0.0
 47
0.0
 48
0.0
 49
0.0
140
0.0
141
0.0
142
1.0
143
1.0
 70
1712
 72
0
 73
0
 74
0
  7

 75
0
147
1.0
148
0.0
149
0.0
100
AcDbLayout
  1
Model
 70
1
 71
0
 10
0.0
 20
0.0
 11
12.0
 21
9.0
 12
0.0
 22
0.0
 32
0.0
 14
0.0
 24
0.0
 34
0.0
 15
0.0
 25
0.0
 35
0.0
146
0.0
 13
0.0
 23
0.0
 33
0.0
 16
1.0
 26
0.0
 36
0.0
 17
0.0
 27
1.0
 37
0.0
 76
0
330
1F
  0
LAYOUT
  5
26
100
AcDbPlotSettings
  1

  2
C:\Program Files\AutoCAD 2002\plotters\DWF ePlot (optimized for plotting).pc3
  4

  6

 40
0.0
 41
0.0
 42
0.0
 43
0.0
 44
0.0
 45
0.0
 46
0.0
 47
0.0
 48
0.0
 49
0.0
140
0.0
141
0.0
142
1.0
143
1.0
 70
688
 72
0
 73
0
 74
5
  7

 75
16
147
1.0
148
0.0
149
0.0
100
AcDbLayout
  1
Layout2
 70
1
 71
2
 10
0.0
 20
0.0
 11
12.0
 21
9.0
 12
0.0
 22
0.0
 32
0.0
 14
0.0
 24
0.0
 34
0.0
 15
0.0
 25
0.0
 35
0.0
146
0.0
 13
0.0
 23
0.0
 33
0.0
 16
1.0
 26
0.0
 36
0.0
 17
0.0
 27
1.0
 37
0.0
 76
0
330
23
  0
DICTIONARY
  5
31F
100
AcDbDictionary
281
1
  3
DIMASSOC
350
321
  3
HIDETEXT
350
320
  0
DICTIONARYVAR
  5
320
100
DictionaryVariables
280
0
  1
2
  0
DICTIONARYVAR
  5
321
100
DictionaryVariables
280
0
  1
1
  0
ENDSEC
  0
EOF
