999
dxfrw 0.6.3
  0
SECTION
  2
HEADER
  9
$ACADVER
  1
AC1021
  9
$DWGCODEPAGE
  3
ANSI_1252
  9
$INSBASE
 10
0
 20
0
 30
0
  9
$EXTMIN
 10
-13.27735836408752
 20
-13.125
 30
0
  9
$EXTMAX
 10
343.125
 20
248.313585389803
 30
0
  9
$LIMMIN
 10
0
 20
0
  9
$LIMMAX
 10
420
 20
297
  9
$ORTHOMODE
 70
    0
  9
$REGENMODE
 70
    1
  9
$FILLMODE
 70
    1
  9
$QTEXTMODE
 70
    0
  9
$MIRRTEXT
 70
    0
  9
$LTSCALE
 40
1
  9
$ATTMODE
 70
    0
  9
$TEXTSIZE
 40
2.5
  9
$TRACEWID
 40
15.68
  9
$TEXTSTYLE
  7
STANDARD
  9
$CLAYER
  8
Dimms
  9
$CELTYPE
  6
BYLAYER
  9
$CECOLOR
 62
  256
  9
$CELTSCALE
 40
1
  9
$DISPSILH
 70
    0
  9
$DIMSCALE
 40
2.5
  9
$DIMASZ
 40
2.5
  9
$DIMEXO
 40
0.625
  9
$DIMDLI
 40
3.75
  9
$DIMRND
 40
0
  9
$DIMDLE
 40
0
  9
$DIMEXE
 40
1.25
  9
$DIMTP
 40
0
  9
$DIMTM
 40
0
  9
$DIMTXT
 40
2.5
  9
$DIMCEN
 40
2.5
  9
$DIMTSZ
 40
0
  9
$DIMTOL
 70
    0
  9
$DIMLIM
 70
    0
  9
$DIMTIH
 70
    0
  9
$DIMTOH
 70
    0
  9
$DIMSE1
 70
    0
  9
$DIMSE2
 70
    0
  9
$DIMTAD
 70
    1
  9
$DIMZIN
 70
    8
  9
$DIMBLK
  1

  9
$DIMASO
 70
    1
  9
$DIMSHO
 70
    1
  9
$DIMPOST
  1

  9
$DIMAPOST
  1

  9
$DIMALT
 70
    0
  9
$DIMALTD
 70
    3
  9
$DIMALTF
 40
0.03937
  9
$DIMLFAC
 40
1
  9
$DIMTOFL
 70
    1
  9
$DIMTVP
 40
0
  9
$DIMTIX
 70
    0
  9
$DIMSOXD
 70
    0
  9
$DIMSAH
 70
    0
  9
$DIMBLK1
  1

  9
$DIMBLK2
  1

  9
$DIMSTYLE
  2
Standard
  9
$DIMCLRD
 70
    0
  9
$DIMCLRE
 70
    0
  9
$DIMCLRT
 70
    0
  9
$DIMTFAC
 40
1
  9
$DIMGAP
 40
0.625
  9
$DIMJUST
 70
    0
  9
$DIMSD1
 70
    0
  9
$DIMSD2
 70
    0
  9
$DIMTOLJ
 70
    0
  9
$DIMTZIN
 70
    8
  9
$DIMALTZ
 70
    0
  9
$DIMALTTZ
 70
    0
  9
$DIMUPT
 70
    0
  9
$DIMDEC
 70
    2
  9
$DIMTDEC
 70
    2
  9
$DIMALTU
 70
    2
  9
$DIMALTTD
 70
    3
  9
$DIMTXSTY
  7
STANDARD
  9
$DIMAUNIT
 70
    0
  9
$DIMADEC
 70
    0
  9
$DIMALTRND
 40
0
  9
$DIMAZIN
 70
    0
  9
$DIMDSEP
 70
   44
  9
$DIMATFIT
 70
    3
  9
$DIMFRAC
 70
    0
  9
$DIMLDRBLK
  1
STANDARD
  9
$DIMLUNIT
 70
    2
  9
$DIMLWD
 70
   -2
  9
$DIMLWE
 70
   -2
  9
$DIMTMOVE
 70
    0
  9
$DIMFXL
 40
1
  9
$DIMFXLON
 70
    0
  9
$DIMJOGANG
 40
0.7854
  9
$DIMTFILL
 70
    0
  9
$DIMTFILLCLR
 70
    0
  9
$DIMARCSYM
 70
    0
  9
$DIMLTYPE
  6

  9
$DIMLTEX1
  6

  9
$DIMLTEX2
  6

  9
$LUNITS
 70
    2
  9
$LUPREC
 70
    4
  9
$SKETCHINC
 40
1
  9
$FILLETRAD
 40
0
  9
$AUNITS
 70
    0
  9
$AUPREC
 70
    2
  9
$MENU
  1
.
  9
$ELEVATION
 40
0
  9
$PELEVATION
 40
0
  9
$THICKNESS
 40
0
  9
$LIMCHECK
 70
    0
  9
$CHAMFERA
 40
0
  9
$CHAMFERB
 40
0
  9
$CHAMFERC
 40
0
  9
$CHAMFERD
 40
0
  9
$SKPOLY
 70
    0
  9
$USRTIMER
 70
    1
  9
$ANGBASE
 50
0
  9
$ANGDIR
 70
    0
  9
$PDMODE
 70
   34
  9
$PDSIZE
 40
0
  9
$PLINEWID
 40
0
  9
$SPLFRAME
 70
    0
  9
$SPLINETYPE
 70
    2
  9
$SPLINESEGS
 70
    8
  9
$HANDSEED
  5
20000
  9
$SURFTAB1
 70
    6
  9
$SURFTAB2
 70
    6
  9
$SURFTYPE
 70
    6
  9
$SURFU
 70
    6
  9
$SURFV
 70
    6
  9
$UCSBASE
  2

  9
$UCSNAME
  2

  9
$UCSORG
 10
0
 20
0
 30
0
  9
$UCSXDIR
 10
1
 20
0
 30
0
  9
$UCSYDIR
 10
0
 20
1
 30
0
  9
$UCSORTHOREF
  2

  9
$UCSORTHOVIEW
 70
    0
  9
$UCSORGTOP
 10
0
 20
0
 30
0
  9
$UCSORGBOTTOM
 10
0
 20
0
 30
0
  9
$UCSORGLEFT
 10
0
 20
0
 30
0
  9
$UCSORGRIGHT
 10
0
 20
0
 30
0
  9
$UCSORGFRONT
 10
0
 20
0
 30
0
  9
$UCSORGBACK
 10
0
 20
0
 30
0
  9
$PUCSBASE
  2

  9
$PUCSNAME
  2

  9
$PUCSORG
 10
0
 20
0
 30
0
  9
$PUCSXDIR
 10
1
 20
0
 30
0
  9
$PUCSYDIR
 10
0
 20
1
 30
0
  9
$PUCSORTHOREF
  2

  9
$PUCSORTHOVIEW
 70
    0
  9
$PUCSORGTOP
 10
0
 20
0
 30
0
  9
$PUCSORGBOTTOM
 10
0
 20
0
 30
0
  9
$PUCSORGLEFT
 10
0
 20
0
 30
0
  9
$PUCSORGRIGHT
 10
0
 20
0
 30
0
  9
$PUCSORGFRONT
 10
0
 20
0
 30
0
  9
$PUCSORGBACK
 10
0
 20
0
 30
0
  9
$USERI1
 70
    0
  9
$USERI2
 70
    0
  9
$USERI3
 70
    0
  9
$USERI4
 70
    0
  9
$USERI5
 70
    0
  9
$USERR1
 40
0
  9
$USERR2
 40
0
  9
$USERR3
 40
0
  9
$USERR4
 40
0
  9
$USERR5
 40
0
  9
$WORLDVIEW
 70
    1
  9
$SHADEDGE
 70
    3
  9
$SHADEDIF
 70
   70
  9
$TILEMODE
 70
    1
  9
$MAXACTVP
 70
   64
  9
$PINSBASE
 10
81.7965676873326
 20
18.88139801938637
 30
0
  9
$PLIMCHECK
 70
    0
  9
$PEXTMIN
 10
0
 20
0
 30
0
  9
$PEXTMAX
 10
0
 20
0
 30
0
  9
$GRIDMODE
 70
    1
  9
$SNAPSTYLE
 70
    0
  9
$PLIMMIN
 10
0
 20
0
  9
$PLIMMAX
 10
297
 20
210
  9
$UNITMODE
 70
    0
  9
$VISRETAIN
 70
    1
  9
$PLINEGEN
 70
    0
  9
$PSLTSCALE
 70
    1
  9
$TREEDEPTH
 70
 3020
  9
$CMLSTYLE
  2
Standard
  9
$CMLJUST
 70
    0
  9
$CMLSCALE
 40
20
  9
$PROXYGRAPHICS
 70
    1
  9
$MEASUREMENT
 70
    1
  9
$CELWEIGHT
370
   -1
  9
$ENDCAPS
280
    0
  9
$JOINSTYLE
280
    0
  9
$LWDISPLAY
290
    0
  9
$INSUNITS
 70
    4
  9
$HYPERLINKBASE
  1

  9
$STYLESHEET
  1

  9
$XEDIT
290
    1
  9
$CEPSNTYPE
380
    0
  9
$PSTYLEMODE
290
    1
  9
$EXTNAMES
290
    1
  9
$PSVPSCALE
 40
1
  9
$OLESTARTUP
290
    0
  9
$SORTENTS
280
  127
  9
$INDEXCTL
280
    0
  9
$HIDETEXT
280
    1
  9
$XCLIPFRAME
290
    0
  9
$HALOGAP
280
    0
  9
$OBSCOLOR
 70
  257
  9
$OBSLTYPE
280
    0
  9
$INTERSECTIONDISPLAY
280
    0
  9
$INTERSECTIONCOLOR
 70
  257
  9
$DIMASSOC
280
    1
  9
$PROJECTNAME
  1

  9
$CAMERADISPLAY
290
    0
  9
$LENSLENGTH
 40
50
  9
$CAMERAHEIGHT
 40
0
  9
$STEPSPERSEC
 40
2
  9
$STEPSIZE
 40
50
  9
$3DDWFPREC
 40
2
  9
$PSOLWIDTH
 40
5
  9
$PSOLHEIGHT
 40
80
  9
$LOFTANG1
 40
1.570796326794897
  9
$LOFTANG2
 40
1.570796326794897
  9
$LOFTMAG1
 40
0
  9
$LOFTMAG2
 40
0
  9
$LOFTPARAM
 70
    7
  9
$LOFTNORMALS
280
    1
  9
$LATITUDE
 40
1
  9
$LONGITUDE
 40
1
  9
$NORTHDIRECTION
 40
0
  9
$TIMEZONE
 70
-8000
  9
$LIGHTGLYPHDISPLAY
280
    1
  9
$TILEMODELIGHTSYNCH
280
    1
  9
$SOLIDHIST
280
    1
  9
$SHOWHIST
280
    1
  9
$DWFFRAME
280
    2
  9
$DGNFRAME
280
    0
  9
$REALWORLDSCALE
290
    1
  9
$INTERFERECOLOR
 62
    1
  9
$CSHADOW
280
    0
  9
$SHADOWPLANELOCATION
 40
0
  0
ENDSEC
  0
SECTION
  2
CLASSES
  0
ENDSEC
  0
SECTION
  2
TABLES
  0
TABLE
  2
VPORT
  5
8
330
0
100
AcDbSymbolTable
 70
    1
  0
VPORT
  5
31
330
2
100
AcDbSymbolTableRecord
100
AcDbViewportTableRecord
  2
*ACTIVE
 70
    0
 10
0
 20
0
 11
1
 21
1
 12
267.0898437501768
 22
147.2167968750975
 13
0
 23
0
 14
10
 24
10
 15
10
 25
10
 16
0
 26
0
 36
1
 17
0
 27
0
 37
0
 40
338.8671875002243
 41
1.863112391930836
 42
50
 43
0
 44
0
 50
0
 51
0
 71
    0
 72
  100
 73
    1
 74
    3
 75
    0
 76
    1
 77
    0
 78
    0
281
    0
 65
    1
110
0
120
0
130
0
111
1
121
0
131
0
112
0
122
1
132
0
 79
    0
146
0
348
10020
 60
    7
 61
    5
292
1
282
    1
141
0
142
0
 63
  250
421
3358443
  0
ENDTAB
  0
TABLE
  2
LTYPE
  5
5
330
0
100
AcDbSymbolTable
 70
    4
  0
LTYPE
  5
14
330
5
100
AcDbSymbolTableRecord
100
AcDbLinetypeTableRecord
  2
ByBlock
 70
    0
  3

 72
   65
 73
    0
 40
0
  0
LTYPE
  5
15
330
5
100
AcDbSymbolTableRecord
100
AcDbLinetypeTableRecord
  2
ByLayer
 70
    0
  3

 72
   65
 73
    0
 40
0
  0
LTYPE
  5
16
330
5
100
AcDbSymbolTableRecord
100
AcDbLinetypeTableRecord
  2
Continuous
 70
    0
  3
Solid line
 72
   65
 73
    0
 40
0
  0
LTYPE
  5
32
330
5
100
AcDbSymbolTableRecord
100
AcDbLinetypeTableRecord
  2
DOT
 70
    0
  3
Dot . . . . . . . . . . . . . . . . . . . . . .
 72
   65
 73
    2
 40
6.35
 49
0
 74
    0
 49
-6.35
 74
    0
  0
LTYPE
  5
33
330
5
100
AcDbSymbolTableRecord
100
AcDbLinetypeTableRecord
  2
DOTTINY
 70
    0
  3
Dot (.15x) .....................................
 72
   65
 73
    2
 40
0.9525
 49
0
 74
    0
 49
-0.9525
 74
    0
  0
LTYPE
  5
34
330
5
100
AcDbSymbolTableRecord
100
AcDbLinetypeTableRecord
  2
DOT2
 70
    0
  3
Dot (.5x) .....................................
 72
   65
 73
    2
 40
3.175
 49
0
 74
    0
 49
-3.175
 74
    0
  0
LTYPE
  5
35
330
5
100
AcDbSymbolTableRecord
100
AcDbLinetypeTableRecord
  2
DOTX2
 70
    0
  3
Dot (2x) .  .  .  .  .  .  .  .  .  .  .  .  .
 72
   65
 73
    2
 40
12.7
 49
0
 74
    0
 49
-12.7
 74
    0
  0
LTYPE
  5
36
330
5
100
AcDbSymbolTableRecord
100
AcDbLinetypeTableRecord
  2
DASHED
 70
    0
  3
Dashed _ _ _ _ _ _ _ _ _ _ _ _ _ _ _ _ _
 72
   65
 73
    2
 40
19.05
 49
12.7
 74
    0
 49
-6.35
 74
    0
  0
LTYPE
  5
37
330
5
100
AcDbSymbolTableRecord
100
AcDbLinetypeTableRecord
  2
DASHEDTINY
 70
    0
  3
Dashed (.15x) _ _ _ _ _ _ _ _ _ _ _ _ _ _ _ _ _
 72
   65
 73
    2
 40
2.8575
 49
1.905
 74
    0
 49
-0.9525
 74
    0
  0
LTYPE
  5
38
330
5
100
AcDbSymbolTableRecord
100
AcDbLinetypeTableRecord
  2
DASHED2
 70
    0
  3
Dashed (.5x) _ _ _ _ _ _ _ _ _ _ _ _ _ _ _ _ _
 72
   65
 73
    2
 40
9.524999999999999
 49
6.35
 74
    0
 49
-3.175
 74
    0
  0
LTYPE
  5
39
330
5
100
AcDbSymbolTableRecord
100
AcDbLinetypeTableRecord
  2
DASHEDX2
 70
    0
  3
Dashed (2x) ____  ____  ____  ____  ____  ___
 72
   65
 73
    2
 40
38.09999999999999
 49
25.4
 74
    0
 49
-12.7
 74
    0
  0
LTYPE
  5
3A
330
5
100
AcDbSymbolTableRecord
100
AcDbLinetypeTableRecord
  2
DASHDOT
 70
    0
  3
Dash dot __ . __ . __ . __ . __ . __ . __ . __
 72
   65
 73
    4
 40
25.4
 49
12.7
 74
    0
 49
-6.35
 74
    0
 49
0
 74
    0
 49
-6.35
 74
    0
  0
LTYPE
  5
3B
330
5
100
AcDbSymbolTableRecord
100
AcDbLinetypeTableRecord
  2
DASHDOTTINY
 70
    0
  3
Dash dot (.15x) _._._._._._._._._._._._._._._.
 72
   65
 73
    4
 40
3.81
 49
1.905
 74
    0
 49
-0.9525
 74
    0
 49
0
 74
    0
 49
-0.9525
 74
    0
  0
LTYPE
  5
3C
330
5
100
AcDbSymbolTableRecord
100
AcDbLinetypeTableRecord
  2
DASHDOT2
 70
    0
  3
Dash dot (.5x) _._._._._._._._._._._._._._._.
 72
   65
 73
    4
 40
12.7
 49
6.35
 74
    0
 49
-3.175
 74
    0
 49
0
 74
    0
 49
-3.175
 74
    0
  0
LTYPE
  5
3D
330
5
100
AcDbSymbolTableRecord
100
AcDbLinetypeTableRecord
  2
DASHDOTX2
 70
    0
  3
Dash dot (2x) ____  .  ____  .  ____  .  ___
 72
   65
 73
    4
 40
50.8
 49
25.4
 74
    0
 49
-12.7
 74
    0
 49
0
 74
    0
 49
-12.7
 74
    0
  0
LTYPE
  5
3E
330
5
100
AcDbSymbolTableRecord
100
AcDbLinetypeTableRecord
  2
DIVIDE
 70
    0
  3
Divide ____ . . ____ . . ____ . . ____ . . ____
 72
   65
 73
    6
 40
31.75
 49
12.7
 74
    0
 49
-6.35
 74
    0
 49
0
 74
    0
 49
-6.35
 74
    0
 49
0
 74
    0
 49
-6.35
 74
    0
  0
LTYPE
  5
3F
330
5
100
AcDbSymbolTableRecord
100
AcDbLinetypeTableRecord
  2
DIVIDETINY
 70
    0
  3
Divide (.15x) __..__..__..__..__..__..__..__.._
 72
   65
 73
    6
 40
4.7625
 49
1.905
 74
    0
 49
-0.9525
 74
    0
 49
0
 74
    0
 49
-0.9525
 74
    0
 49
0
 74
    0
 49
-0.9525
 74
    0
  0
LTYPE
  5
40
330
5
100
AcDbSymbolTableRecord
100
AcDbLinetypeTableRecord
  2
DIVIDE2
 70
    0
  3
Divide (.5x) __..__..__..__..__..__..__..__.._
 72
   65
 73
    6
 40
15.875
 49
6.35
 74
    0
 49
-3.175
 74
    0
 49
0
 74
    0
 49
-3.175
 74
    0
 49
0
 74
    0
 49
-3.175
 74
    0
  0
LTYPE
  5
41
330
5
100
AcDbSymbolTableRecord
100
AcDbLinetypeTableRecord
  2
DIVIDEX2
 70
    0
  3
Divide (2x) ________  .  .  ________  .  .  _
 72
   65
 73
    6
 40
63.5
 49
25.4
 74
    0
 49
-12.7
 74
    0
 49
0
 74
    0
 49
-12.7
 74
    0
 49
0
 74
    0
 49
-12.7
 74
    0
  0
LTYPE
  5
42
330
5
100
AcDbSymbolTableRecord
100
AcDbLinetypeTableRecord
  2
BORDER
 70
    0
  3
Border __ __ . __ __ . __ __ . __ __ . __ __ .
 72
   65
 73
    6
 40
44.45
 49
12.7
 74
    0
 49
-6.35
 74
    0
 49
12.7
 74
    0
 49
-6.35
 74
    0
 49
0
 74
    0
 49
-6.35
 74
    0
  0
LTYPE
  5
43
330
5
100
AcDbSymbolTableRecord
100
AcDbLinetypeTableRecord
  2
BORDERTINY
 70
    0
  3
Border (.15x) __.__.__.__.__.__.__.__.__.__.__.
 72
   65
 73
    6
 40
6.6675
 49
1.905
 74
    0
 49
-0.9525
 74
    0
 49
1.905
 74
    0
 49
-0.9525
 74
    0
 49
0
 74
    0
 49
-0.9525
 74
    0
  0
LTYPE
  5
44
330
5
100
AcDbSymbolTableRecord
100
AcDbLinetypeTableRecord
  2
BORDER2
 70
    0
  3
Border (.5x) __.__.__.__.__.__.__.__.__.__.__.
 72
   65
 73
    6
 40
22.225
 49
6.35
 74
    0
 49
-3.175
 74
    0
 49
6.35
 74
    0
 49
-3.175
 74
    0
 49
0
 74
    0
 49
-3.175
 74
    0
  0
LTYPE
  5
45
330
5
100
AcDbSymbolTableRecord
100
AcDbLinetypeTableRecord
  2
BORDERX2
 70
    0
  3
Border (2x) ____  ____  .  ____  ____  .  ___
 72
   65
 73
    6
 40
88.89999999999999
 49
25.4
 74
    0
 49
-12.7
 74
    0
 49
25.4
 74
    0
 49
-12.7
 74
    0
 49
0
 74
    0
 49
-12.7
 74
    0
  0
LTYPE
  5
46
330
5
100
AcDbSymbolTableRecord
100
AcDbLinetypeTableRecord
  2
CENTER
 70
    0
  3
Center ____ _ ____ _ ____ _ ____ _ ____ _ ____
 72
   65
 73
    4
 40
50.8
 49
31.75
 74
    0
 49
-6.35
 74
    0
 49
6.35
 74
    0
 49
-6.35
 74
    0
  0
LTYPE
  5
47
330
5
100
AcDbSymbolTableRecord
100
AcDbLinetypeTableRecord
  2
CENTERTINY
 70
    0
  3
Center (.15x) ___ _ ___ _ ___ _ ___ _ ___ _ ___
 72
   65
 73
    4
 40
7.619999999999999
 49
4.7625
 74
    0
 49
-0.9525
 74
    0
 49
0.9525
 74
    0
 49
-0.9525
 74
    0
  0
LTYPE
  5
48
330
5
100
AcDbSymbolTableRecord
100
AcDbLinetypeTableRecord
  2
CENTER2
 70
    0
  3
Center (.5x) ___ _ ___ _ ___ _ ___ _ ___ _ ___
 72
   65
 73
    4
 40
28.575
 49
19.05
 74
    0
 49
-3.175
 74
    0
 49
3.175
 74
    0
 49
-3.175
 74
    0
  0
LTYPE
  5
49
330
5
100
AcDbSymbolTableRecord
100
AcDbLinetypeTableRecord
  2
CENTERX2
 70
    0
  3
Center (2x) ________  __  ________  __  _____
 72
   65
 73
    4
 40
101.6
 49
63.5
 74
    0
 49
-12.7
 74
    0
 49
12.7
 74
    0
 49
-12.7
 74
    0
  0
ENDTAB
  0
TABLE
  2
LAYER
  5
2
330
0
100
AcDbSymbolTable
 70
    1
  0
LAYER
  5
10
330
2
100
AcDbSymbolTableRecord
100
AcDbLayerTableRecord
  2
0
 70
    4
 62
    7
  6
CONTINUOUS
370
    0
390
F
  0
LAYER
  5
4A
330
2
100
AcDbSymbolTableRecord
100
AcDbLayerTableRecord
  2
Dimms
 70
    4
 62
    7
  6
CONTINUOUS
370
   25
390
F
  0
LAYER
  5
4B
330
2
100
AcDbSymbolTableRecord
100
AcDbLayerTableRecord
  2
Legs
 70
    4
 62
    7
  6
CONTINUOUS
370
   25
390
F
  0
LAYER
  5
4C
330
2
100
AcDbSymbolTableRecord
100
AcDbLayerTableRecord
  2
Top
 70
    4
 62
    7
  6
CONTINUOUS
370
   25
390
F
  0
ENDTAB
  0
TABLE
  2
STYLE
  5
3
330
0
100
AcDbSymbolTable
 70
    3
  0
STYLE
  5
4D
330
2
100
AcDbSymbolTableRecord
100
AcDbTextStyleTableRecord
  2
Standard
 70
    0
 40
0
 41
1
 50
0
 71
    0
 42
1
  3
txt
  4

  0
ENDTAB
  0
TABLE
  2
VIEW
  5
6
330
0
100
AcDbSymbolTable
 70
    0
  0
ENDTAB
  0
TABLE
  2
UCS
  5
7
330
0
100
AcDbSymbolTable
 70
    0
  0
ENDTAB
  0
TABLE
  2
APPID
  5
9
330
0
100
AcDbSymbolTable
 70
    1
  0
APPID
  5
12
330
9
100
AcDbSymbolTableRecord
100
AcDbRegAppTableRecord
  2
ACAD
 70
    0
  0
APPID
  5
4E
330
9
100
AcDbSymbolTableRecord
100
AcDbRegAppTableRecord
  2
LibreCad
 70
    0
  0
ENDTAB
  0
TABLE
  2
DIMSTYLE
  5
A
330
0
100
AcDbSymbolTable
 70
    1
100
AcDbDimStyleTable
 71
    1
  0
DIMSTYLE
105
4F
330
A
100
AcDbSymbolTableRecord
100
AcDbDimStyleTableRecord
  2
Standard
 70
    0
 40
2.5
 41
2.5
 42
0.625
 43
0.38
 44
1.25
 45
0
 46
0
 47
0
 48
0
 49
1
140
2.5
141
0.09
142
0
143
25.4
144
1
145
0
146
1
147
0.625
148
0
 71
    0
 72
    0
 73
    0
 74
    1
 75
    0
 76
    0
 77
    0
 78
    8
 79
    0
170
    0
171
    2
172
    0
173
    0
174
    0
175
    0
176
    0
177
    0
178
    0
179
    0
271
    2
272
    4
273
    2
274
    2
275
    0
276
    0
277
    2
278
   44
279
    0
280
    0
281
    0
282
    0
283
    1
284
    0
285
    0
286
    0
288
    0
289
    3
340
STANDARD
341

371
   -2
372
   -2
  0
ENDTAB
  0
TABLE
  2
BLOCK_RECORD
  5
1
330
0
100
AcDbSymbolTable
 70
    2
  0
BLOCK_RECORD
  5
1F
330
1
100
AcDbSymbolTableRecord
100
AcDbBlockTableRecord
  2
*Model_Space
 70
    0
280
    1
281
    0
  0
BLOCK_RECORD
  5
1E
330
1
100
AcDbSymbolTableRecord
100
AcDbBlockTableRecord
  2
*Paper_Space
 70
    0
280
    1
281
    0
  0
BLOCK_RECORD
  5
50
330
1
100
AcDbSymbolTableRecord
100
AcDbBlockTableRecord
  2
*D5
 70
    0
280
    1
281
    0
  0
BLOCK_RECORD
  5
53
330
1
100
AcDbSymbolTableRecord
100
AcDbBlockTableRecord
  2
*D4
 70
    0
280
    1
281
    0
  0
BLOCK_RECORD
  5
56
330
1
100
AcDbSymbolTableRecord
100
AcDbBlockTableRecord
  2
*D6
 70
    0
280
    1
281
    0
  0
BLOCK_RECORD
  5
59
330
1
100
AcDbSymbolTableRecord
100
AcDbBlockTableRecord
  2
*D1
 70
    0
280
    1
281
    0
  0
BLOCK_RECORD
  5
5C
330
1
100
AcDbSymbolTableRecord
100
AcDbBlockTableRecord
  2
*D3
 70
    0
280
    1
281
    0
  0
BLOCK_RECORD
  5
5F
330
1
100
AcDbSymbolTableRecord
100
AcDbBlockTableRecord
  2
*D2
 70
    0
280
    1
281
    0
  0
ENDTAB
  0
ENDSEC
  0
SECTION
  2
BLOCKS
  0
BLOCK
  5
20
330
1F
100
AcDbEntity
  8
0
100
AcDbBlockBegin
  2
*Model_Space
 70
    0
 10
0
 20
0
 30
0
  3
*Model_Space
  1

  0
ENDBLK
  5
21
330
1F
100
AcDbEntity
  8
0
100
AcDbBlockEnd
  0
BLOCK
  5
1C
330
1B
100
AcDbEntity
  8
0
100
AcDbBlockBegin
  2
*Paper_Space
 70
    0
 10
0
 20
0
 30
0
  3
*Paper_Space
  1

  0
ENDBLK
  5
1D
330
1F
100
AcDbEntity
  8
0
100
AcDbBlockEnd
  0
BLOCK
  5
51
330
50
100
AcDbEntity
  8
0
100
AcDbBlockBegin
  2
*D5
 70
    1
 10
0
 20
0
  3
*D5
  1

  0
LINE
  5
62
100
AcDbEntity
  8
Dimms
  6
ByBlock
 62
    0
370
   -2
100
AcDbLine
 10
65.78125
 20
115.3531646934132
 11
41.21293097746998
 21
72.79958788983032
  0
LINE
  5
63
100
AcDbEntity
  8
Dimms
  6
ByBlock
 62
    0
370
   -2
100
AcDbLine
 10
106.5624999999999
 20
44.71796769724473
 11
57.42586195493999
 21
44.71796769724483
  0
ARC
  5
64
100
AcDbEntity
  8
Dimms
  6
ByBlock
 62
    0
370
   -2
100
AcDbCircle
 10
24.99999999999991
 20
44.71796769724489
 40
29.30086195494008
100
AcDbArc
 50
359.9999999999999
 51
59.99999999999996
  0
SOLID
  5
65
100
AcDbEntity
  8
Dimms
  6
ByBlock
 62
    0
370
   -2
100
AcDbTrace
 10
39.65043097746997
 20
70.09325850300397
 30
0
 11
45.31301959103074
 21
67.25060641025175
 31
0
 12
44.08633798707172
 22
65.56906689244826
 32
0
 13
44.08633798707172
 23
65.56906689244826
 33
0
  0
SOLID
  5
66
100
AcDbEntity
  8
Dimms
  6
ByBlock
 62
    0
370
   -2
100
AcDbTrace
 10
54.30086195493999
 20
44.71796769724484
 30
0
 11
52.60075059341121
 21
50.82167166166327
 31
0
 12
54.67034733527598
 22
51.04323933414507
 32
0
 13
54.67034733527598
 23
51.04323933414507
 33
0
  0
MTEXT
  5
67
100
AcDbEntity
  8
Dimms
  6
CONTINUOUS
 62
    0
370
   -2
100
AcDbMText
 10
51.72845549917221
 20
60.14964867471489
 30
0
 40
6.25
 41
11.80555555555594
 71
    8
 72
    1
  1
60%%D
  7
STANDARD
210
0
220
0
230
1
 50
299.9999999999998
 73
    2
 44
1
  0
ENDBLK
  5
52
330
50
100
AcDbEntity
  8
0
100
AcDbBlockEnd
  0
BLOCK
  5
54
330
53
100
AcDbEntity
  8
0
100
AcDbBlockBegin
  2
*D4
 70
    1
 10
0
 20
0
  3
*D4
  1

  0
SOLID
  5
68
100
AcDbEntity
  8
Dimms
  6
ByBlock
 62
    0
370
   -2
100
AcDbTrace
 10
115.5858026454733
 20
38.47893962030982
 30
0
 11
121.5005532398853
 21
36.20708880373773
 31
0
 12
120.4452297405334
 22
34.41303885483946
 32
0
 13
120.4452297405334
 23
34.41303885483946
 33
0
  0
LINE
  5
69
100
AcDbEntity
  8
Dimms
  6
ByBlock
 62
    0
370
   -2
100
AcDbLine
 10
113
 20
40
 11
128.7542420437173
 21
30.73279879781331
  0
MTEXT
  5
6A
100
AcDbEntity
  8
Dimms
  6
CONTINUOUS
 62
    0
370
   -2
100
AcDbMText
 10
124.5466791878612
 20
38.64618584261361
 30
0
 40
6.25
 41
2.777777777778165
 71
    5
 72
    1
  1
3
  7
STANDARD
210
0
220
0
230
1
 50
329.5344550805401
 73
    2
 44
1
  0
ENDBLK
  5
55
330
53
100
AcDbEntity
  8
0
100
AcDbBlockEnd
  0
BLOCK
  5
57
330
56
100
AcDbEntity
  8
0
100
AcDbBlockBegin
  2
*D6
 70
    1
 10
0
 20
0
  3
*D6
  1

  0
LINE
  5
6B
100
AcDbEntity
  8
Dimms
  6
ByBlock
 62
    0
370
   -2
100
AcDbLine
 10
340
 20
10
 11
340
 21
240
  0
SOLID
  5
6C
100
AcDbEntity
  8
Dimms
  6
ByBlock
 62
    0
370
   -2
100
AcDbTrace
 10
340
 20
10
 30
0
 11
338.9592883555679
 21
16.25
 31
0
 12
341.0407116444321
 22
16.25
 32
0
 13
341.0407116444321
 23
16.25
 33
0
  0
SOLID
  5
6D
100
AcDbEntity
  8
Dimms
  6
ByBlock
 62
    0
370
   -2
100
AcDbTrace
 10
340
 20
240
 30
0
 11
341.0407116444321
 21
233.75
 31
0
 12
338.9592883555679
 22
233.75
 32
0
 13
338.9592883555679
 23
233.75
 33
0
  0
MTEXT
  5
6E
100
AcDbEntity
  8
Dimms
  6
CONTINUOUS
 62
    0
370
   -2
100
AcDbMText
 10
335.3125
 20
125
 30
0
 40
6.25
 41
12.50000000000039
 71
    5
 72
    1
  1
230
  7
STANDARD
210
0
220
0
230
1
 50
90
 73
    2
 44
1
  0
LINE
  5
6F
100
AcDbEntity
  8
Dimms
  6
ByBlock
 62
    0
370
   -2
100
AcDbLine
 10
331.5625
 20
10
 11
343.125
 21
10
  0
LINE
  5
70
100
AcDbEntity
  8
Dimms
  6
ByBlock
 62
    0
370
   -2
100
AcDbLine
 10
331.5625
 20
240
 11
343.125
 21
240
  0
ENDBLK
  5
58
330
56
100
AcDbEntity
  8
0
100
AcDbBlockEnd
  0
BLOCK
  5
5A
330
59
100
AcDbEntity
  8
0
100
AcDbBlockBegin
  2
*D1
 70
    1
 10
0
 20
0
  3
*D1
  1

  0
LINE
  5
71
100
AcDbEntity
  8
Dimms
  6
ByBlock
 62
    0
370
   -2
100
AcDbLine
 10
6
 20
10
 11
124
 21
10
  0
SOLID
  5
72
100
AcDbEntity
  8
Dimms
  6
ByBlock
 62
    0
370
   -2
100
AcDbTrace
 10
6
 20
10
 30
0
 11
12.25
 21
11.0407116444321
 31
0
 12
12.25
 22
8.959288355567898
 32
0
 13
12.25
 23
8.959288355567898
 33
0
  0
SOLID
  5
73
100
AcDbEntity
  8
Dimms
  6
ByBlock
 62
    0
370
   -2
100
AcDbTrace
 10
124
 20
10
 30
0
 11
117.75
 21
8.959288355567899
 31
0
 12
117.75
 22
11.0407116444321
 32
0
 13
117.75
 23
11.0407116444321
 33
0
  0
MTEXT
  5
74
100
AcDbEntity
  8
Dimms
  6
CONTINUOUS
 62
    0
370
   -2
100
AcDbMText
 10
65
 20
14.6875
 30
0
 40
6.25
 41
9.722222222222221
 71
    5
 72
    1
  1
118
  7
STANDARD
210
0
220
0
230
1
 50
0
 73
    2
 44
1
  0
LINE
  5
75
100
AcDbEntity
  8
Dimms
  6
ByBlock
 62
    0
370
   -2
100
AcDbLine
 10
6
 20
18.4375
 11
5.999999999999999
 21
6.875
  0
LINE
  5
76
100
AcDbEntity
  8
Dimms
  6
ByBlock
 62
    0
370
   -2
100
AcDbLine
 10
124
 20
18.4375
 11
124
 21
6.875
  0
ENDBLK
  5
5B
330
59
100
AcDbEntity
  8
0
100
AcDbBlockEnd
  0
BLOCK
  5
5D
330
5C
100
AcDbEntity
  8
0
100
AcDbBlockBegin
  2
*D3
 70
    1
 10
0
 20
0
  3
*D3
  1

  0
SOLID
  5
77
100
AcDbEntity
  8
Dimms
  6
ByBlock
 62
    0
370
   -2
100
AcDbTrace
 10
7.883530336386479
 20
32.99937276567427
 30
0
 11
3.724275397402195
 21
28.2196050851911
 31
0
 12
2.399848652370089
 22
29.82528771400351
 32
0
 13
2.399848652370089
 23
29.82528771400351
 33
0
  0
LINE
  5
78
100
AcDbEntity
  8
Dimms
  6
ByBlock
 62
    0
370
   -2
100
AcDbLine
 10
14.25384615384616
 20
38.25384615384615
 11
-13.27735836408752
 21
15.54508482566958
  0
MTEXT
  5
79
100
AcDbEntity
  8
Dimms
  6
CONTINUOUS
 62
    0
370
   -2
100
AcDbMText
 10
-5.679608788408247
 20
27.88833002929717
 30
0
 40
6.25
 41
14.93055555555594
 71
    5
 72
    1
  1
8,26
  7
STANDARD
210
0
220
0
230
1
 50
39.5170802634148
 73
    2
 44
1
  0
ENDBLK
  5
5E
330
5C
100
AcDbEntity
  8
0
100
AcDbBlockEnd
  0
BLOCK
  5
60
330
5F
100
AcDbEntity
  8
0
100
AcDbBlockBegin
  2
*D2
 70
    1
 10
0
 20
0
  3
*D2
  1

  0
LINE
  5
7A
100
AcDbEntity
  8
Dimms
  6
ByBlock
 62
    0
370
   -2
100
AcDbLine
 10
26
 20
-10
 11
106
 21
-10
  0
SOLID
  5
7B
100
AcDbEntity
  8
Dimms
  6
ByBlock
 62
    0
370
   -2
100
AcDbTrace
 10
26
 20
-10
 30
0
 11
32.25
 21
-8.959288355567899
 31
0
 12
32.25
 22
-11.0407116444321
 32
0
 13
32.25
 23
-11.0407116444321
 33
0
  0
SOLID
  5
7C
100
AcDbEntity
  8
Dimms
  6
ByBlock
 62
    0
370
   -2
100
AcDbTrace
 10
106
 20
-10
 30
0
 11
99.75
 21
-11.0407116444321
 31
0
 12
99.75
 22
-8.959288355567899
 32
0
 13
99.75
 23
-8.959288355567899
 33
0
  0
MTEXT
  5
7D
100
AcDbEntity
  8
Dimms
  6
CONTINUOUS
 62
    0
370
   -2
100
AcDbMText
 10
66
 20
-5.3125
 30
0
 40
6.25
 41
7.638888888888888
 71
    5
 72
    1
  1
80
  7
STANDARD
210
0
220
0
230
1
 50
0
 73
    2
 44
1
  0
LINE
  5
7E
100
AcDbEntity
  8
Dimms
  6
ByBlock
 62
    0
370
   -2
100
AcDbLine
 10
26
 20
-1.5625
 11
26
 21
-13.125
  0
LINE
  5
7F
100
AcDbEntity
  8
Dimms
  6
ByBlock
 62
    0
370
   -2
100
AcDbLine
 10
106
 20
-1.5625
 11
106
 21
-13.125
  0
ENDBLK
  5
61
330
5F
100
AcDbEntity
  8
0
100
AcDbBlockEnd
  0
ENDSEC
  0
SECTION
  2
ENTITIES
  0
ARC
  5
80
100
AcDbEntity
  8
Top
  6
ByLayer
 62
  256
370
   -1
100
AcDbCircle
 10
14.25384615384616
 20
38.25384615384615
 40
8.25774873686427
100
AcDbArc
 50
151.4534341959363
 51
268.2384297034385
  0
ARC
  5
81
100
AcDbEntity
  8
Top
  6
ByLayer
 62
  256
370
   -1
100
AcDbCircle
 10
115.7269230769231
 20
38.23461538461539
 40
8.23643406783823
100
AcDbArc
 50
271.2040777717431
 51
27.98907327924523
  0
ARC
  5
82
100
AcDbEntity
  8
Top
  6
ByLayer
 62
  256
370
   -1
100
AcDbCircle
 10
65.01153846153846
 20
126.0615384615385
 40
8.278800366173744
100
AcDbArc
 50
32.42015384050258
 51
149.2051493480049
  0
LINE
  5
83
100
AcDbEntity
  8
Top
  6
ByLayer
 62
  256
370
   -1
100
AcDbLine
 10
123
 20
42
 11
72
 21
130.5
  0
LINE
  5
84
100
AcDbEntity
  8
Top
  6
ByLayer
 62
  256
370
   -1
100
AcDbLine
 10
14
 20
30
 11
116
 21
30
  0
LINE
  5
85
100
AcDbEntity
  8
Top
  6
ByLayer
 62
  256
370
   -1
100
AcDbLine
 10
57.9
 20
130.3
 11
7
 21
42
  0
LINE
  5
86
100
AcDbEntity
  8
Top
  6
ByLayer
 62
  256
370
   -1
100
AcDbLine
 10
170
 20
240
 11
170
 21
234
  0
DIMENSION
  5
87
100
AcDbEntity
  8
Dimms
  6
ByLayer
 62
  256
370
   -1
100
AcDbDimension
  2
*D1
 10
124
 20
10
 30
0
 11
65
 21
14.6875
 31
0
 70
   32
 71
    5
  3
Standard
 53
0
210
0
220
0
230
1
100
AcDbAlignedDimension
 13
6
 23
20
 33
0
 14
124
 24
20
 34
0
100
AcDbRotatedDimension
  0
DIMENSION
  5
88
100
AcDbEntity
  8
Dimms
  6
ByLayer
 62
  256
370
   -1
100
AcDbDimension
  2
*D2
 10
106
 20
-10
 30
0
 11
66
 21
-5.3125
 31
0
 70
   32
 71
    5
  3
Standard
 53
0
210
0
220
0
230
1
100
AcDbAlignedDimension
 13
26
 23
0
 33
0
 14
106
 24
0
 34
0
100
AcDbRotatedDimension
  0
DIMENSION
  5
89
100
AcDbEntity
  8
Dimms
  6
ByLayer
 62
  256
370
   -1
100
AcDbDimension
  2
*D3
 10
14.25384615384616
 20
38.25384615384615
 30
0
 11
-5.679608788408247
 21
27.88833002929717
 31
0
 70
   36
 71
    5
  3
Standard
 53
0
210
0
220
0
230
1
100
AcDbRadialDimension
 15
7.883530336386479
 25
32.99937276567427
 35
0
 40
0
  0
LINE
  5
8A
100
AcDbEntity
  8
Top
  6
ByLayer
 62
  256
370
   -1
100
AcDbLine
 10
170
 20
234
 11
288
 21
234
  0
LINE
  5
8B
100
AcDbEntity
  8
Top
  6
ByLayer
 62
  256
370
   -1
100
AcDbLine
 10
288
 20
234
 11
288
 21
240
  0
LINE
  5
8C
100
AcDbEntity
  8
Top
  6
ByLayer
 62
  256
370
   -1
100
AcDbLine
 10
288
 20
240
 11
170
 21
240
  0
LINE
  5
8D
100
AcDbEntity
  8
Legs
  6
ByLayer
 62
  256
370
   -1
100
AcDbLine
 10
177.1328686277904
 20
235.127170779606
 11
153.6139643925684
 21
11.35974432174448
  0
LINE
  5
8E
100
AcDbEntity
  8
Legs
  6
ByLayer
 62
  256
370
   -1
100
AcDbLine
 10
153.6139643925684
 20
11.35974432174448
 11
159.581095764778
 21
10.73257354213854
  0
LINE
  5
8F
100
AcDbEntity
  8
Legs
  6
ByLayer
 62
  256
370
   -1
100
AcDbLine
 10
159.581095764778
 20
10.73257354213854
 11
183.1
 21
234.5
  0
LINE
  5
90
100
AcDbEntity
  8
Legs
  6
ByLayer
 62
  256
370
   -1
100
AcDbLine
 10
183.1
 20
234.5
 11
177.1328686277904
 21
235.127170779606
  0
LINE
  5
91
100
AcDbEntity
  8
Top
  6
ByLayer
 62
  256
370
   -1
100
AcDbLine
 10
174
 20
234
 11
173.5818861469294
 21
230.0219124185269
  0
LINE
  5
92
100
AcDbEntity
  8
Top
  6
ByLayer
 62
  256
370
   -1
100
AcDbLine
 10
173.5818861469294
 20
230.0219124185269
 11
185.5161488913487
 21
228.7675708593151
  0
LINE
  5
93
100
AcDbEntity
  8
Top
  6
ByLayer
 62
  256
370
   -1
100
AcDbLine
 10
185.5161488913487
 20
228.7675708593151
 11
185.9342627444193
 21
232.7456584407882
  0
LINE
  5
94
100
AcDbEntity
  8
Top
  6
ByLayer
 62
  256
370
   -1
100
AcDbLine
 10
176.5654518330342
 20
229.7083270287239
 11
176.9835656861048
 21
233.686414610197
  0
LINE
  5
95
100
AcDbEntity
  8
Top
  6
ByLayer
 62
  256
370
   -1
100
AcDbLine
 10
182.9506970583145
 20
233.0592438305911
 11
182.5325832052438
 21
229.081156249118
  0
LINE
  5
96
100
AcDbEntity
  8
Top
  6
ByLayer
 62
  256
370
   -1
100
AcDbLine
 10
174
 20
234
 11
185.9521528433091
 21
232.7727908042319
  0
LINE
  5
97
100
AcDbEntity
  8
Legs
  6
ByLayer
 62
  256
370
   -1
100
AcDbLine
 10
280.8671313722096
 20
235.127170779606
 11
304.3860356074316
 21
11.35974432174441
  0
LINE
  5
98
100
AcDbEntity
  8
Legs
  6
ByLayer
 62
  256
370
   -1
100
AcDbLine
 10
304.3860356074316
 20
11.35974432174441
 11
298.418904235222
 21
10.73257354213854
  0
LINE
  5
99
100
AcDbEntity
  8
Legs
  6
ByLayer
 62
  256
370
   -1
100
AcDbLine
 10
298.418904235222
 20
10.73257354213854
 11
274.9
 21
234.5
  0
LINE
  5
9A
100
AcDbEntity
  8
Legs
  6
ByLayer
 62
  256
370
   -1
100
AcDbLine
 10
274.9
 20
234.5
 11
280.8671313722096
 21
235.127170779606
  0
LINE
  5
9B
100
AcDbEntity
  8
Top
  6
ByLayer
 62
  256
370
   -1
100
AcDbLine
 10
284
 20
234
 11
284.4181138530706
 21
230.0219124185269
  0
LINE
  5
9C
100
AcDbEntity
  8
Top
  6
ByLayer
 62
  256
370
   -1
100
AcDbLine
 10
284.4181138530706
 20
230.0219124185269
 11
272.4838511086513
 21
228.7675708593151
  0
LINE
  5
9D
100
AcDbEntity
  8
Top
  6
ByLayer
 62
  256
370
   -1
100
AcDbLine
 10
272.4838511086513
 20
228.7675708593151
 11
272.0657372555808
 21
232.7456584407882
  0
LINE
  5
9E
100
AcDbEntity
  8
Top
  6
ByLayer
 62
  256
370
   -1
100
AcDbLine
 10
281.4345481669658
 20
229.7083270287239
 11
281.0164343138952
 21
233.686414610197
  0
LINE
  5
9F
100
AcDbEntity
  8
Top
  6
ByLayer
 62
  256
370
   -1
100
AcDbLine
 10
275.0493029416855
 20
233.0592438305911
 11
275.4674167947562
 21
229.081156249118
  0
LINE
  5
A0
100
AcDbEntity
  8
Top
  6
ByLayer
 62
  256
370
   -1
100
AcDbLine
 10
284
 20
234
 11
272.0478471566909
 21
232.7727908042319
  0
LINE
  5
A1
100
AcDbEntity
  8
Top
  6
ByLayer
 62
  256
370
   -1
100
AcDbLine
 10
14
 20
35
 11
20
 21
35
  0
LINE
  5
A2
100
AcDbEntity
  8
Top
  6
ByLayer
 62
  256
370
   -1
100
AcDbLine
 10
20
 20
35
 11
23
 21
40.19615242270663
  0
LINE
  5
A3
100
AcDbEntity
  8
Top
  6
ByLayer
 62
  256
370
   -1
100
AcDbLine
 10
23
 20
40.19615242270663
 11
20
 21
45.39230484541326
  0
LINE
  5
A4
100
AcDbEntity
  8
Top
  6
ByLayer
 62
  256
370
   -1
100
AcDbLine
 10
20
 20
45.39230484541326
 11
13.99999999999999
 21
45.39230484541326
  0
LINE
  5
A5
100
AcDbEntity
  8
Top
  6
ByLayer
 62
  256
370
   -1
100
AcDbLine
 10
13.99999999999999
 20
45.39230484541326
 11
11
 21
40.19615242270663
  0
LINE
  5
A6
100
AcDbEntity
  8
Top
  6
ByLayer
 62
  256
370
   -1
100
AcDbLine
 10
11
 20
40.19615242270663
 11
14
 21
35
  0
CIRCLE
  5
A7
100
AcDbEntity
  8
Top
  6
ByLayer
 62
  256
370
   -1
100
AcDbCircle
 10
17
 20
40
 40
3
  0
LINE
  5
A8
100
AcDbEntity
  8
Top
  6
ByLayer
 62
  256
370
   -1
100
AcDbLine
 10
110
 20
35
 11
116
 21
35
  0
LINE
  5
A9
100
AcDbEntity
  8
Top
  6
ByLayer
 62
  256
370
   -1
100
AcDbLine
 10
116
 20
35
 11
119
 21
40.19615242270663
  0
LINE
  5
AA
100
AcDbEntity
  8
Top
  6
ByLayer
 62
  256
370
   -1
100
AcDbLine
 10
119
 20
40.19615242270663
 11
116
 21
45.39230484541326
  0
LINE
  5
AB
100
AcDbEntity
  8
Top
  6
ByLayer
 62
  256
370
   -1
100
AcDbLine
 10
116
 20
45.39230484541326
 11
110
 21
45.39230484541326
  0
LINE
  5
AC
100
AcDbEntity
  8
Top
  6
ByLayer
 62
  256
370
   -1
100
AcDbLine
 10
110
 20
45.39230484541326
 11
107
 21
40.19615242270663
  0
LINE
  5
AD
100
AcDbEntity
  8
Top
  6
ByLayer
 62
  256
370
   -1
100
AcDbLine
 10
107
 20
40.19615242270663
 11
110
 21
35
  0
CIRCLE
  5
AE
100
AcDbEntity
  8
Top
  6
ByLayer
 62
  256
370
   -1
100
AcDbCircle
 10
113
 20
40
 40
3
  0
LINE
  5
AF
100
AcDbEntity
  8
Top
  6
ByLayer
 62
  256
370
   -1
100
AcDbLine
 10
62
 20
118
 11
68
 21
118
  0
LINE
  5
B0
100
AcDbEntity
  8
Top
  6
ByLayer
 62
  256
370
   -1
100
AcDbLine
 10
68
 20
118
 11
71
 21
123.1961524227066
  0
LINE
  5
B1
100
AcDbEntity
  8
Top
  6
ByLayer
 62
  256
370
   -1
100
AcDbLine
 10
71
 20
123.1961524227066
 11
68
 21
128.3923048454133
  0
LINE
  5
B2
100
AcDbEntity
  8
Top
  6
ByLayer
 62
  256
370
   -1
100
AcDbLine
 10
68
 20
128.3923048454133
 11
62
 21
128.3923048454133
  0
LINE
  5
B3
100
AcDbEntity
  8
Top
  6
ByLayer
 62
  256
370
   -1
100
AcDbLine
 10
62
 20
128.3923048454133
 11
59
 21
123.1961524227066
  0
LINE
  5
B4
100
AcDbEntity
  8
Top
  6
ByLayer
 62
  256
370
   -1
100
AcDbLine
 10
59
 20
123.1961524227066
 11
62
 21
118
  0
CIRCLE
  5
B5
100
AcDbEntity
  8
Top
  6
ByLayer
 62
  256
370
   -1
100
AcDbCircle
 10
65
 20
123
 40
3
  0
LINE
  5
B6
100
AcDbEntity
  8
Top
  6
ByLayer
 62
  256
370
   -1
100
AcDbLine
 10
24.99999999999991
 20
44.7179676972449
 11
104.9999999999999
 21
44.71796769724481
  0
LINE
  5
B7
100
AcDbEntity
  8
Top
  6
ByLayer
 62
  256
370
   -1
100
AcDbLine
 10
104.9999999999999
 20
44.71796769724481
 11
65
 21
114
  0
LINE
  5
B8
100
AcDbEntity
  8
Top
  6
ByLayer
 62
  256
370
   -1
100
AcDbLine
 10
65
 20
114
 11
24.99999999999991
 21
44.7179676972449
  0
DIMENSION
  5
B9
100
AcDbEntity
  8
Dimms
  6
ByLayer
 62
  256
370
   -1
100
AcDbDimension
  2
*D4
 10
113
 20
40
 30
0
 11
124.5466791878612
 21
38.64618584261361
 31
0
 70
   36
 71
    5
  3
Standard
 53
0
210
0
220
0
230
1
100
AcDbRadialDimension
 15
115.5858026454733
 25
38.47893962030982
 35
0
 40
0
  0
DIMENSION
  5
BA
100
AcDbEntity
  8
Dimms
  6
ByLayer
 62
  256
370
   -1
100
AcDbDimension
  2
*D5
 10
104.9999999999999
 20
44.71796769724481
 30
0
 11
0
 21
0
 31
0
 70
   34
 71
    5
  3
Standard
 53
0
210
0
220
0
230
1
100
AcDb2LineAngularDimension
 13
24.99999999999991
 23
44.7179676972449
 33
0
 14
65
 24
114
 34
0
 15
24.99999999999991
 25
44.7179676972449
 35
0
 16
50
 26
60
 36
0
  0
LINE
  5
BB
100
AcDbEntity
  8
Legs
  6
ByLayer
 62
  256
370
   -1
100
AcDbLine
 10
225.9978850162175
 20
235.4484699634199
 11
225.9978850162175
 21
10.44846996341985
  0
LINE
  5
BC
100
AcDbEntity
  8
Legs
  6
ByLayer
 62
  256
370
   -1
100
AcDbLine
 10
225.9978850162175
 20
10.44846996341985
 11
231.9978850162175
 21
10.44846996341985
  0
LINE
  5
BD
100
AcDbEntity
  8
Legs
  6
ByLayer
 62
  256
370
   -1
100
AcDbLine
 10
231.9978850162175
 20
10.44846996341985
 11
231.9978850162175
 21
235.4484699634198
  0
LINE
  5
BE
100
AcDbEntity
  8
Legs
  6
ByLayer
 62
  256
370
   -1
100
AcDbLine
 10
231.9978850162175
 20
235.4484699634198
 11
225.9978850162175
 21
235.4484699634199
  0
LINE
  5
BF
100
AcDbEntity
  8
Top
  6
ByLayer
 62
  256
370
   -1
100
AcDbLine
 10
223
 20
234
 11
223
 21
230
  0
LINE
  5
C0
100
AcDbEntity
  8
Top
  6
ByLayer
 62
  256
370
   -1
100
AcDbLine
 10
223
 20
230
 11
235
 21
230
  0
LINE
  5
C1
100
AcDbEntity
  8
Top
  6
ByLayer
 62
  256
370
   -1
100
AcDbLine
 10
235
 20
230
 11
235
 21
234
  0
LINE
  5
C2
100
AcDbEntity
  8
Top
  6
ByLayer
 62
  256
370
   -1
100
AcDbLine
 10
223
 20
234
 11
235.0149559908007
 21
234.0288537540626
  0
DIMENSION
  5
C3
100
AcDbEntity
  8
Dimms
  6
ByLayer
 62
  256
370
   -1
100
AcDbDimension
  2
*D6
 10
340
 20
240
 30
0
 11
335.3125
 21
125
 31
0
 70
   32
 71
    5
  3
Standard
 53
0
210
0
220
0
230
1
100
AcDbAlignedDimension
 13
330
 23
10
 33
0
 14
330
 24
240
 34
0
 50
90
100
AcDbRotatedDimension
  0
ENDSEC
  0
SECTION
  2
OBJECTS
  0
DICTIONARY
  5
C
330
0
100
AcDbDictionary
281
    1
  3
ACAD_GROUP
350
D
  0
DICTIONARY
  5
D
330
C
100
AcDbDictionary
281
    1
  0
ENDSEC
  0
EOF
