999
dxfrw 0.6.3
  0
SECTION
  2
HEADER
  9
$ACADVER
  1
AC1021
  9
$DWGCODEPAGE
  3
ANSI_1252
  9
$INSBASE
 10
0
 20
0
 30
0
  9
$EXTMIN
 10
0
 20
0
 30
0
  9
$EXTMAX
 10
421.25
 20
229
 30
0
  9
$LIMMIN
 10
0
 20
0
  9
$LIMMAX
 10
420
 20
297
  9
$ORTHOMODE
 70
    0
  9
$REGENMODE
 70
    1
  9
$FILLMODE
 70
    1
  9
$QTEXTMODE
 70
    0
  9
$MIRRTEXT
 70
    0
  9
$LTSCALE
 40
1
  9
$ATTMODE
 70
    0
  9
$TEXTSIZE
 40
2.5
  9
$TRACEWID
 40
15.68
  9
$TEXTSTYLE
  7
STANDARD
  9
$CLAYER
  8
Axle
  9
$CELTYPE
  6
BYLAYER
  9
$CECOLOR
 62
  256
  9
$CELTSCALE
 40
1
  9
$DISPSILH
 70
    0
  9
$DIMSCALE
 40
1
  9
$DIMASZ
 40
2.5
  9
$DIMEXO
 40
0.625
  9
$DIMDLI
 40
3.75
  9
$DIMRND
 40
0
  9
$DIMDLE
 40
0
  9
$DIMEXE
 40
1.25
  9
$DIMTP
 40
0
  9
$DIMTM
 40
0
  9
$DIMTXT
 40
2.5
  9
$DIMCEN
 40
2.5
  9
$DIMTSZ
 40
0
  9
$DIMTOL
 70
    0
  9
$DIMLIM
 70
    0
  9
$DIMTIH
 70
    0
  9
$DIMTOH
 70
    0
  9
$DIMSE1
 70
    0
  9
$DIMSE2
 70
    0
  9
$DIMTAD
 70
    1
  9
$DIMZIN
 70
    8
  9
$DIMBLK
  1

  9
$DIMASO
 70
    1
  9
$DIMSHO
 70
    1
  9
$DIMPOST
  1

  9
$DIMAPOST
  1

  9
$DIMALT
 70
    0
  9
$DIMALTD
 70
    3
  9
$DIMALTF
 40
0.03937
  9
$DIMLFAC
 40
1
  9
$DIMTOFL
 70
    1
  9
$DIMTVP
 40
0
  9
$DIMTIX
 70
    0
  9
$DIMSOXD
 70
    0
  9
$DIMSAH
 70
    0
  9
$DIMBLK1
  1

  9
$DIMBLK2
  1

  9
$DIMSTYLE
  2
Standard
  9
$DIMCLRD
 70
    0
  9
$DIMCLRE
 70
    0
  9
$DIMCLRT
 70
    0
  9
$DIMTFAC
 40
1
  9
$DIMGAP
 40
0.625
  9
$DIMJUST
 70
    0
  9
$DIMSD1
 70
    0
  9
$DIMSD2
 70
    0
  9
$DIMTOLJ
 70
    0
  9
$DIMTZIN
 70
    8
  9
$DIMALTZ
 70
    0
  9
$DIMALTTZ
 70
    0
  9
$DIMUPT
 70
    0
  9
$DIMDEC
 70
    2
  9
$DIMTDEC
 70
    2
  9
$DIMALTU
 70
    2
  9
$DIMALTTD
 70
    3
  9
$DIMTXSTY
  7
standard
  9
$DIMAUNIT
 70
    0
  9
$DIMADEC
 70
    0
  9
$DIMALTRND
 40
0
  9
$DIMAZIN
 70
    0
  9
$DIMDSEP
 70
   44
  9
$DIMATFIT
 70
    3
  9
$DIMFRAC
 70
    0
  9
$DIMLDRBLK
  1
STANDARD
  9
$DIMLUNIT
 70
    2
  9
$DIMLWD
 70
   -2
  9
$DIMLWE
 70
   -2
  9
$DIMTMOVE
 70
    0
  9
$DIMFXL
 40
1
  9
$DIMFXLON
 70
    0
  9
$DIMJOGANG
 40
0.7854
  9
$DIMTFILL
 70
    0
  9
$DIMTFILLCLR
 70
    0
  9
$DIMARCSYM
 70
    0
  9
$DIMLTYPE
  6

  9
$DIMLTEX1
  6

  9
$DIMLTEX2
  6

  9
$LUNITS
 70
    2
  9
$LUPREC
 70
    4
  9
$SKETCHINC
 40
1
  9
$FILLETRAD
 40
0
  9
$AUNITS
 70
    0
  9
$AUPREC
 70
    2
  9
$MENU
  1
.
  9
$ELEVATION
 40
0
  9
$PELEVATION
 40
0
  9
$THICKNESS
 40
0
  9
$LIMCHECK
 70
    0
  9
$CHAMFERA
 40
0
  9
$CHAMFERB
 40
0
  9
$CHAMFERC
 40
0
  9
$CHAMFERD
 40
0
  9
$SKPOLY
 70
    0
  9
$USRTIMER
 70
    1
  9
$ANGBASE
 50
0
  9
$ANGDIR
 70
    0
  9
$PDMODE
 70
   34
  9
$PDSIZE
 40
0
  9
$PLINEWID
 40
0
  9
$SPLFRAME
 70
    0
  9
$SPLINETYPE
 70
    2
  9
$SPLINESEGS
 70
    8
  9
$HANDSEED
  5
20000
  9
$SURFTAB1
 70
    6
  9
$SURFTAB2
 70
    6
  9
$SURFTYPE
 70
    6
  9
$SURFU
 70
    6
  9
$SURFV
 70
    6
  9
$UCSBASE
  2

  9
$UCSNAME
  2

  9
$UCSORG
 10
0
 20
0
 30
0
  9
$UCSXDIR
 10
1
 20
0
 30
0
  9
$UCSYDIR
 10
0
 20
1
 30
0
  9
$UCSORTHOREF
  2

  9
$UCSORTHOVIEW
 70
    0
  9
$UCSORGTOP
 10
0
 20
0
 30
0
  9
$UCSORGBOTTOM
 10
0
 20
0
 30
0
  9
$UCSORGLEFT
 10
0
 20
0
 30
0
  9
$UCSORGRIGHT
 10
0
 20
0
 30
0
  9
$UCSORGFRONT
 10
0
 20
0
 30
0
  9
$UCSORGBACK
 10
0
 20
0
 30
0
  9
$PUCSBASE
  2

  9
$PUCSNAME
  2

  9
$PUCSORG
 10
0
 20
0
 30
0
  9
$PUCSXDIR
 10
1
 20
0
 30
0
  9
$PUCSYDIR
 10
0
 20
1
 30
0
  9
$PUCSORTHOREF
  2

  9
$PUCSORTHOVIEW
 70
    0
  9
$PUCSORGTOP
 10
0
 20
0
 30
0
  9
$PUCSORGBOTTOM
 10
0
 20
0
 30
0
  9
$PUCSORGLEFT
 10
0
 20
0
 30
0
  9
$PUCSORGRIGHT
 10
0
 20
0
 30
0
  9
$PUCSORGFRONT
 10
0
 20
0
 30
0
  9
$PUCSORGBACK
 10
0
 20
0
 30
0
  9
$USERI1
 70
    0
  9
$USERI2
 70
    0
  9
$USERI3
 70
    0
  9
$USERI4
 70
    0
  9
$USERI5
 70
    0
  9
$USERR1
 40
0
  9
$USERR2
 40
0
  9
$USERR3
 40
0
  9
$USERR4
 40
0
  9
$USERR5
 40
0
  9
$WORLDVIEW
 70
    1
  9
$SHADEDGE
 70
    3
  9
$SHADEDIF
 70
   70
  9
$TILEMODE
 70
    1
  9
$MAXACTVP
 70
   64
  9
$PINSBASE
 10
12.5
 20
31.06765578635014
 30
0
  9
$PLIMCHECK
 70
    0
  9
$PEXTMIN
 10
0
 20
0
 30
0
  9
$PEXTMAX
 10
0
 20
0
 30
0
  9
$GRIDMODE
 70
    1
  9
$SNAPSTYLE
 70
    0
  9
$GRIDUNIT
 10
0
 20
0
  9
$PLIMMIN
 10
0
 20
0
  9
$PLIMMAX
 10
297
 20
210
  9
$UNITMODE
 70
    0
  9
$VISRETAIN
 70
    1
  9
$PLINEGEN
 70
    0
  9
$PSLTSCALE
 70
    1
  9
$TREEDEPTH
 70
 3020
  9
$CMLSTYLE
  2
Standard
  9
$CMLJUST
 70
    0
  9
$CMLSCALE
 40
20
  9
$PROXYGRAPHICS
 70
    1
  9
$MEASUREMENT
 70
    1
  9
$CELWEIGHT
370
   -1
  9
$ENDCAPS
280
    0
  9
$JOINSTYLE
280
    0
  9
$LWDISPLAY
290
    0
  9
$INSUNITS
 70
    4
  9
$HYPERLINKBASE
  1

  9
$STYLESHEET
  1

  9
$XEDIT
290
    1
  9
$CEPSNTYPE
380
    0
  9
$PSTYLEMODE
290
    1
  9
$EXTNAMES
290
    1
  9
$PSVPSCALE
 40
0.6456986782548056
  9
$OLESTARTUP
290
    0
  9
$SORTENTS
280
  127
  9
$INDEXCTL
280
    0
  9
$HIDETEXT
280
    1
  9
$XCLIPFRAME
290
    0
  9
$HALOGAP
280
    0
  9
$OBSCOLOR
 70
  257
  9
$OBSLTYPE
280
    0
  9
$INTERSECTIONDISPLAY
280
    0
  9
$INTERSECTIONCOLOR
 70
  257
  9
$DIMASSOC
280
    1
  9
$PROJECTNAME
  1

  9
$CAMERADISPLAY
290
    0
  9
$LENSLENGTH
 40
50
  9
$CAMERAHEIGHT
 40
0
  9
$STEPSPERSEC
 40
2
  9
$STEPSIZE
 40
50
  9
$3DDWFPREC
 40
2
  9
$PSOLWIDTH
 40
5
  9
$PSOLHEIGHT
 40
80
  9
$LOFTANG1
 40
1.570796326794897
  9
$LOFTANG2
 40
1.570796326794897
  9
$LOFTMAG1
 40
0
  9
$LOFTMAG2
 40
0
  9
$LOFTPARAM
 70
    7
  9
$LOFTNORMALS
280
    1
  9
$LATITUDE
 40
1
  9
$LONGITUDE
 40
1
  9
$NORTHDIRECTION
 40
0
  9
$TIMEZONE
 70
-8000
  9
$LIGHTGLYPHDISPLAY
280
    1
  9
$TILEMODELIGHTSYNCH
280
    1
  9
$SOLIDHIST
280
    1
  9
$SHOWHIST
280
    1
  9
$DWFFRAME
280
    2
  9
$DGNFRAME
280
    0
  9
$REALWORLDSCALE
290
    1
  9
$INTERFERECOLOR
 62
    1
  9
$CSHADOW
280
    0
  9
$SHADOWPLANELOCATION
 40
0
  0
ENDSEC
  0
SECTION
  2
CLASSES
  0
ENDSEC
  0
SECTION
  2
TABLES
  0
TABLE
  2
VPORT
  5
8
330
0
100
AcDbSymbolTable
 70
    1
  0
VPORT
  5
31
330
2
100
AcDbSymbolTableRecord
100
AcDbViewportTableRecord
  2
*ACTIVE
 70
    0
 10
0
 20
0
 11
1
 21
1
 12
149.7500000001279
 22
116.1250000000991
 13
0
 23
0
 14
10
 24
10
 15
10
 25
10
 16
0
 26
0
 36
1
 17
0
 27
0
 37
0
 40
168.0000000001434
 41
1.819940476190476
 42
50
 43
0
 44
0
 50
0
 51
0
 71
    0
 72
  100
 73
    1
 74
    3
 75
    0
 76
    1
 77
    0
 78
    0
281
    0
 65
    1
110
0
120
0
130
0
111
1
121
0
131
0
112
0
122
1
132
0
 79
    0
146
0
348
10020
 60
    7
 61
    5
292
1
282
    1
141
0
142
0
 63
  250
421
3358443
  0
ENDTAB
  0
TABLE
  2
LTYPE
  5
5
330
0
100
AcDbSymbolTable
 70
    4
  0
LTYPE
  5
14
330
5
100
AcDbSymbolTableRecord
100
AcDbLinetypeTableRecord
  2
ByBlock
 70
    0
  3

 72
   65
 73
    0
 40
0
  0
LTYPE
  5
15
330
5
100
AcDbSymbolTableRecord
100
AcDbLinetypeTableRecord
  2
ByLayer
 70
    0
  3

 72
   65
 73
    0
 40
0
  0
LTYPE
  5
16
330
5
100
AcDbSymbolTableRecord
100
AcDbLinetypeTableRecord
  2
Continuous
 70
    0
  3
Solid line
 72
   65
 73
    0
 40
0
  0
LTYPE
  5
32
330
5
100
AcDbSymbolTableRecord
100
AcDbLinetypeTableRecord
  2
DOT
 70
    0
  3
Dot . . . . . . . . . . . . . . . . . . . . . .
 72
   65
 73
    2
 40
6.35
 49
0
 74
    0
 49
-6.35
 74
    0
  0
LTYPE
  5
33
330
5
100
AcDbSymbolTableRecord
100
AcDbLinetypeTableRecord
  2
DOTTINY
 70
    0
  3
Dot (.15x) .....................................
 72
   65
 73
    2
 40
0.9525
 49
0
 74
    0
 49
-0.9525
 74
    0
  0
LTYPE
  5
34
330
5
100
AcDbSymbolTableRecord
100
AcDbLinetypeTableRecord
  2
DOT2
 70
    0
  3
Dot (.5x) .....................................
 72
   65
 73
    2
 40
3.175
 49
0
 74
    0
 49
-3.175
 74
    0
  0
LTYPE
  5
35
330
5
100
AcDbSymbolTableRecord
100
AcDbLinetypeTableRecord
  2
DOTX2
 70
    0
  3
Dot (2x) .  .  .  .  .  .  .  .  .  .  .  .  .
 72
   65
 73
    2
 40
12.7
 49
0
 74
    0
 49
-12.7
 74
    0
  0
LTYPE
  5
36
330
5
100
AcDbSymbolTableRecord
100
AcDbLinetypeTableRecord
  2
DASHED
 70
    0
  3
Dashed _ _ _ _ _ _ _ _ _ _ _ _ _ _ _ _ _
 72
   65
 73
    2
 40
19.05
 49
12.7
 74
    0
 49
-6.35
 74
    0
  0
LTYPE
  5
37
330
5
100
AcDbSymbolTableRecord
100
AcDbLinetypeTableRecord
  2
DASHEDTINY
 70
    0
  3
Dashed (.15x) _ _ _ _ _ _ _ _ _ _ _ _ _ _ _ _ _
 72
   65
 73
    2
 40
2.8575
 49
1.905
 74
    0
 49
-0.9525
 74
    0
  0
LTYPE
  5
38
330
5
100
AcDbSymbolTableRecord
100
AcDbLinetypeTableRecord
  2
DASHED2
 70
    0
  3
Dashed (.5x) _ _ _ _ _ _ _ _ _ _ _ _ _ _ _ _ _
 72
   65
 73
    2
 40
9.524999999999999
 49
6.35
 74
    0
 49
-3.175
 74
    0
  0
LTYPE
  5
39
330
5
100
AcDbSymbolTableRecord
100
AcDbLinetypeTableRecord
  2
DASHEDX2
 70
    0
  3
Dashed (2x) ____  ____  ____  ____  ____  ___
 72
   65
 73
    2
 40
38.09999999999999
 49
25.4
 74
    0
 49
-12.7
 74
    0
  0
LTYPE
  5
3A
330
5
100
AcDbSymbolTableRecord
100
AcDbLinetypeTableRecord
  2
DASHDOT
 70
    0
  3
Dash dot __ . __ . __ . __ . __ . __ . __ . __
 72
   65
 73
    4
 40
25.4
 49
12.7
 74
    0
 49
-6.35
 74
    0
 49
0
 74
    0
 49
-6.35
 74
    0
  0
LTYPE
  5
3B
330
5
100
AcDbSymbolTableRecord
100
AcDbLinetypeTableRecord
  2
DASHDOTTINY
 70
    0
  3
Dash dot (.15x) _._._._._._._._._._._._._._._.
 72
   65
 73
    4
 40
3.81
 49
1.905
 74
    0
 49
-0.9525
 74
    0
 49
0
 74
    0
 49
-0.9525
 74
    0
  0
LTYPE
  5
3C
330
5
100
AcDbSymbolTableRecord
100
AcDbLinetypeTableRecord
  2
DASHDOT2
 70
    0
  3
Dash dot (.5x) _._._._._._._._._._._._._._._.
 72
   65
 73
    4
 40
12.7
 49
6.35
 74
    0
 49
-3.175
 74
    0
 49
0
 74
    0
 49
-3.175
 74
    0
  0
LTYPE
  5
3D
330
5
100
AcDbSymbolTableRecord
100
AcDbLinetypeTableRecord
  2
DASHDOTX2
 70
    0
  3
Dash dot (2x) ____  .  ____  .  ____  .  ___
 72
   65
 73
    4
 40
50.8
 49
25.4
 74
    0
 49
-12.7
 74
    0
 49
0
 74
    0
 49
-12.7
 74
    0
  0
LTYPE
  5
3E
330
5
100
AcDbSymbolTableRecord
100
AcDbLinetypeTableRecord
  2
DIVIDE
 70
    0
  3
Divide ____ . . ____ . . ____ . . ____ . . ____
 72
   65
 73
    6
 40
31.75
 49
12.7
 74
    0
 49
-6.35
 74
    0
 49
0
 74
    0
 49
-6.35
 74
    0
 49
0
 74
    0
 49
-6.35
 74
    0
  0
LTYPE
  5
3F
330
5
100
AcDbSymbolTableRecord
100
AcDbLinetypeTableRecord
  2
DIVIDETINY
 70
    0
  3
Divide (.15x) __..__..__..__..__..__..__..__.._
 72
   65
 73
    6
 40
4.7625
 49
1.905
 74
    0
 49
-0.9525
 74
    0
 49
0
 74
    0
 49
-0.9525
 74
    0
 49
0
 74
    0
 49
-0.9525
 74
    0
  0
LTYPE
  5
40
330
5
100
AcDbSymbolTableRecord
100
AcDbLinetypeTableRecord
  2
DIVIDE2
 70
    0
  3
Divide (.5x) __..__..__..__..__..__..__..__.._
 72
   65
 73
    6
 40
15.875
 49
6.35
 74
    0
 49
-3.175
 74
    0
 49
0
 74
    0
 49
-3.175
 74
    0
 49
0
 74
    0
 49
-3.175
 74
    0
  0
LTYPE
  5
41
330
5
100
AcDbSymbolTableRecord
100
AcDbLinetypeTableRecord
  2
DIVIDEX2
 70
    0
  3
Divide (2x) ________  .  .  ________  .  .  _
 72
   65
 73
    6
 40
63.5
 49
25.4
 74
    0
 49
-12.7
 74
    0
 49
0
 74
    0
 49
-12.7
 74
    0
 49
0
 74
    0
 49
-12.7
 74
    0
  0
LTYPE
  5
42
330
5
100
AcDbSymbolTableRecord
100
AcDbLinetypeTableRecord
  2
BORDER
 70
    0
  3
Border __ __ . __ __ . __ __ . __ __ . __ __ .
 72
   65
 73
    6
 40
44.45
 49
12.7
 74
    0
 49
-6.35
 74
    0
 49
12.7
 74
    0
 49
-6.35
 74
    0
 49
0
 74
    0
 49
-6.35
 74
    0
  0
LTYPE
  5
43
330
5
100
AcDbSymbolTableRecord
100
AcDbLinetypeTableRecord
  2
BORDERTINY
 70
    0
  3
Border (.15x) __.__.__.__.__.__.__.__.__.__.__.
 72
   65
 73
    6
 40
6.6675
 49
1.905
 74
    0
 49
-0.9525
 74
    0
 49
1.905
 74
    0
 49
-0.9525
 74
    0
 49
0
 74
    0
 49
-0.9525
 74
    0
  0
LTYPE
  5
44
330
5
100
AcDbSymbolTableRecord
100
AcDbLinetypeTableRecord
  2
BORDER2
 70
    0
  3
Border (.5x) __.__.__.__.__.__.__.__.__.__.__.
 72
   65
 73
    6
 40
22.225
 49
6.35
 74
    0
 49
-3.175
 74
    0
 49
6.35
 74
    0
 49
-3.175
 74
    0
 49
0
 74
    0
 49
-3.175
 74
    0
  0
LTYPE
  5
45
330
5
100
AcDbSymbolTableRecord
100
AcDbLinetypeTableRecord
  2
BORDERX2
 70
    0
  3
Border (2x) ____  ____  .  ____  ____  .  ___
 72
   65
 73
    6
 40
88.89999999999999
 49
25.4
 74
    0
 49
-12.7
 74
    0
 49
25.4
 74
    0
 49
-12.7
 74
    0
 49
0
 74
    0
 49
-12.7
 74
    0
  0
LTYPE
  5
46
330
5
100
AcDbSymbolTableRecord
100
AcDbLinetypeTableRecord
  2
CENTER
 70
    0
  3
Center ____ _ ____ _ ____ _ ____ _ ____ _ ____
 72
   65
 73
    4
 40
50.8
 49
31.75
 74
    0
 49
-6.35
 74
    0
 49
6.35
 74
    0
 49
-6.35
 74
    0
  0
LTYPE
  5
47
330
5
100
AcDbSymbolTableRecord
100
AcDbLinetypeTableRecord
  2
CENTERTINY
 70
    0
  3
Center (.15x) ___ _ ___ _ ___ _ ___ _ ___ _ ___
 72
   65
 73
    4
 40
7.619999999999999
 49
4.7625
 74
    0
 49
-0.9525
 74
    0
 49
0.9525
 74
    0
 49
-0.9525
 74
    0
  0
LTYPE
  5
48
330
5
100
AcDbSymbolTableRecord
100
AcDbLinetypeTableRecord
  2
CENTER2
 70
    0
  3
Center (.5x) ___ _ ___ _ ___ _ ___ _ ___ _ ___
 72
   65
 73
    4
 40
28.575
 49
19.05
 74
    0
 49
-3.175
 74
    0
 49
3.175
 74
    0
 49
-3.175
 74
    0
  0
LTYPE
  5
49
330
5
100
AcDbSymbolTableRecord
100
AcDbLinetypeTableRecord
  2
CENTERX2
 70
    0
  3
Center (2x) ________  __  ________  __  _____
 72
   65
 73
    4
 40
101.6
 49
63.5
 74
    0
 49
-12.7
 74
    0
 49
12.7
 74
    0
 49
-12.7
 74
    0
  0
ENDTAB
  0
TABLE
  2
LAYER
  5
2
330
0
100
AcDbSymbolTable
 70
    1
  0
LAYER
  5
10
330
2
100
AcDbSymbolTableRecord
100
AcDbLayerTableRecord
  2
0
 70
    4
 62
    7
  6
CONTINUOUS
370
    0
390
F
  0
LAYER
  5
4A
330
2
100
AcDbSymbolTableRecord
100
AcDbLayerTableRecord
  2
Arms
 70
    4
 62
    7
  6
CONTINUOUS
370
   25
390
F
  0
LAYER
  5
4B
330
2
100
AcDbSymbolTableRecord
100
AcDbLayerTableRecord
  2
Axle
 70
    0
 62
    7
  6
CONTINUOUS
370
   25
390
F
  0
LAYER
  5
4C
330
2
100
AcDbSymbolTableRecord
100
AcDbLayerTableRecord
  2
Base
 70
    4
 62
    7
  6
CONTINUOUS
370
   25
390
F
  0
LAYER
  5
4D
330
2
100
AcDbSymbolTableRecord
100
AcDbLayerTableRecord
  2
BobbinLg
 70
    4
 62
    7
  6
CONTINUOUS
370
   25
390
F
  0
LAYER
  5
4E
330
2
100
AcDbSymbolTableRecord
100
AcDbLayerTableRecord
  2
BobbinSm
 70
    4
 62
    7
  6
CONTINUOUS
370
   25
390
F
  0
LAYER
  5
4F
330
2
100
AcDbSymbolTableRecord
100
AcDbLayerTableRecord
  2
Bolts
 70
    4
 62
    7
  6
CONTINUOUS
370
   25
390
F
  0
LAYER
  5
50
330
2
100
AcDbSymbolTableRecord
100
AcDbLayerTableRecord
  2
Collar
 70
    4
 62
    7
  6
CONTINUOUS
370
   25
390
F
  0
LAYER
  5
51
330
2
100
AcDbSymbolTableRecord
100
AcDbLayerTableRecord
  2
Cones
 70
    4
 62
    7
  6
CONTINUOUS
370
   25
390
F
  0
LAYER
  5
52
330
2
100
AcDbSymbolTableRecord
100
AcDbLayerTableRecord
  2
Dimms
 70
    4
 62
    7
  6
CONTINUOUS
370
   25
390
F
  0
LAYER
  5
53
330
2
100
AcDbSymbolTableRecord
100
AcDbLayerTableRecord
  2
Dimms2
 70
    4
 62
    7
  6
CONTINUOUS
370
   25
390
F
  0
LAYER
  5
54
330
2
100
AcDbSymbolTableRecord
100
AcDbLayerTableRecord
  2
Feet
 70
    4
 62
    7
  6
CONTINUOUS
370
   25
390
F
  0
LAYER
  5
55
330
2
100
AcDbSymbolTableRecord
100
AcDbLayerTableRecord
  2
FeltWasher
 70
    4
 62
    7
  6
CONTINUOUS
370
   25
390
F
  0
LAYER
  5
56
330
2
100
AcDbSymbolTableRecord
100
AcDbLayerTableRecord
  2
GrubScrews
 70
    4
 62
    7
  6
CONTINUOUS
370
   25
390
F
  0
LAYER
  5
57
330
2
100
AcDbSymbolTableRecord
100
AcDbLayerTableRecord
  2
Spring
 70
    4
 62
    7
  6
CONTINUOUS
370
   25
390
F
  0
LAYER
  5
58
330
2
100
AcDbSymbolTableRecord
100
AcDbLayerTableRecord
  2
SteelWasher
 70
    4
 62
    7
  6
CONTINUOUS
370
   25
390
F
  0
LAYER
  5
59
330
2
100
AcDbSymbolTableRecord
100
AcDbLayerTableRecord
  2
ThumbNut
 70
    4
 62
    7
  6
CONTINUOUS
370
   25
390
F
  0
LAYER
  5
5A
330
2
100
AcDbSymbolTableRecord
100
AcDbLayerTableRecord
  2
WireRetainer
 70
    4
 62
    7
  6
CONTINUOUS
370
   25
390
F
  0
ENDTAB
  0
TABLE
  2
STYLE
  5
3
330
0
100
AcDbSymbolTable
 70
    3
  0
STYLE
  5
5B
330
2
100
AcDbSymbolTableRecord
100
AcDbTextStyleTableRecord
  2
Standard
 70
    0
 40
0
 41
1
 50
0
 71
    0
 42
1
  3
txt
  4

  0
ENDTAB
  0
TABLE
  2
VIEW
  5
6
330
0
100
AcDbSymbolTable
 70
    0
  0
ENDTAB
  0
TABLE
  2
UCS
  5
7
330
0
100
AcDbSymbolTable
 70
    0
  0
ENDTAB
  0
TABLE
  2
APPID
  5
9
330
0
100
AcDbSymbolTable
 70
    1
  0
APPID
  5
12
330
9
100
AcDbSymbolTableRecord
100
AcDbRegAppTableRecord
  2
ACAD
 70
    0
  0
APPID
  5
5C
330
9
100
AcDbSymbolTableRecord
100
AcDbRegAppTableRecord
  2
LibreCad
 70
    0
  0
ENDTAB
  0
TABLE
  2
DIMSTYLE
  5
A
330
0
100
AcDbSymbolTable
 70
    1
100
AcDbDimStyleTable
 71
    1
  0
DIMSTYLE
105
5D
330
A
100
AcDbSymbolTableRecord
100
AcDbDimStyleTableRecord
  2
Standard
 70
    0
 40
1
 41
2.5
 42
0.625
 43
0.38
 44
1.25
 45
0
 46
0
 47
0
 48
0
 49
1
140
2.5
141
0.09
142
0
143
25.4
144
1
145
0
146
1
147
0.625
148
0
 71
    0
 72
    0
 73
    0
 74
    1
 75
    0
 76
    0
 77
    0
 78
    8
 79
    0
170
    0
171
    2
172
    0
173
    0
174
    0
175
    0
176
    0
177
    0
178
    0
179
    0
271
    2
272
    4
273
    2
274
    2
275
    0
276
    0
277
    2
278
   44
279
    0
280
    0
281
    0
282
    0
283
    1
284
    0
285
    0
286
    0
288
    0
289
    3
340
standard
341

371
   -2
372
   -2
  0
ENDTAB
  0
TABLE
  2
BLOCK_RECORD
  5
1
330
0
100
AcDbSymbolTable
 70
    2
  0
BLOCK_RECORD
  5
1F
330
1
100
AcDbSymbolTableRecord
100
AcDbBlockTableRecord
  2
*Model_Space
 70
    0
280
    1
281
    0
  0
BLOCK_RECORD
  5
1E
330
1
100
AcDbSymbolTableRecord
100
AcDbBlockTableRecord
  2
*Paper_Space
 70
    0
280
    1
281
    0
  0
BLOCK_RECORD
  5
5E
330
1
100
AcDbSymbolTableRecord
100
AcDbBlockTableRecord
  2
*D16
 70
    0
280
    1
281
    0
  0
BLOCK_RECORD
  5
61
330
1
100
AcDbSymbolTableRecord
100
AcDbBlockTableRecord
  2
*D4
 70
    0
280
    1
281
    0
  0
BLOCK_RECORD
  5
64
330
1
100
AcDbSymbolTableRecord
100
AcDbBlockTableRecord
  2
*D2
 70
    0
280
    1
281
    0
  0
BLOCK_RECORD
  5
67
330
1
100
AcDbSymbolTableRecord
100
AcDbBlockTableRecord
  2
*D12
 70
    0
280
    1
281
    0
  0
BLOCK_RECORD
  5
6A
330
1
100
AcDbSymbolTableRecord
100
AcDbBlockTableRecord
  2
*D7
 70
    0
280
    1
281
    0
  0
BLOCK_RECORD
  5
6D
330
1
100
AcDbSymbolTableRecord
100
AcDbBlockTableRecord
  2
*D11
 70
    0
280
    1
281
    0
  0
BLOCK_RECORD
  5
70
330
1
100
AcDbSymbolTableRecord
100
AcDbBlockTableRecord
  2
*D9
 70
    0
280
    1
281
    0
  0
BLOCK_RECORD
  5
73
330
1
100
AcDbSymbolTableRecord
100
AcDbBlockTableRecord
  2
*D6
 70
    0
280
    1
281
    0
  0
BLOCK_RECORD
  5
76
330
1
100
AcDbSymbolTableRecord
100
AcDbBlockTableRecord
  2
*D14
 70
    0
280
    1
281
    0
  0
BLOCK_RECORD
  5
79
330
1
100
AcDbSymbolTableRecord
100
AcDbBlockTableRecord
  2
*D19
 70
    0
280
    1
281
    0
  0
BLOCK_RECORD
  5
7C
330
1
100
AcDbSymbolTableRecord
100
AcDbBlockTableRecord
  2
*D15
 70
    0
280
    1
281
    0
  0
BLOCK_RECORD
  5
7F
330
1
100
AcDbSymbolTableRecord
100
AcDbBlockTableRecord
  2
*D5
 70
    0
280
    1
281
    0
  0
BLOCK_RECORD
  5
82
330
1
100
AcDbSymbolTableRecord
100
AcDbBlockTableRecord
  2
*D8
 70
    0
280
    1
281
    0
  0
BLOCK_RECORD
  5
85
330
1
100
AcDbSymbolTableRecord
100
AcDbBlockTableRecord
  2
*D1
 70
    0
280
    1
281
    0
  0
BLOCK_RECORD
  5
88
330
1
100
AcDbSymbolTableRecord
100
AcDbBlockTableRecord
  2
*D18
 70
    0
280
    1
281
    0
  0
BLOCK_RECORD
  5
8B
330
1
100
AcDbSymbolTableRecord
100
AcDbBlockTableRecord
  2
*D3
 70
    0
280
    1
281
    0
  0
BLOCK_RECORD
  5
8E
330
1
100
AcDbSymbolTableRecord
100
AcDbBlockTableRecord
  2
*D13
 70
    0
280
    1
281
    0
  0
BLOCK_RECORD
  5
91
330
1
100
AcDbSymbolTableRecord
100
AcDbBlockTableRecord
  2
*D17
 70
    0
280
    1
281
    0
  0
BLOCK_RECORD
  5
94
330
1
100
AcDbSymbolTableRecord
100
AcDbBlockTableRecord
  2
*D20
 70
    0
280
    1
281
    0
  0
BLOCK_RECORD
  5
97
330
1
100
AcDbSymbolTableRecord
100
AcDbBlockTableRecord
  2
*D10
 70
    0
280
    1
281
    0
  0
ENDTAB
  0
ENDSEC
  0
SECTION
  2
BLOCKS
  0
BLOCK
  5
20
330
1F
100
AcDbEntity
  8
0
100
AcDbBlockBegin
  2
*Model_Space
 70
    0
 10
0
 20
0
 30
0
  3
*Model_Space
  1

  0
ENDBLK
  5
21
330
1F
100
AcDbEntity
  8
0
100
AcDbBlockEnd
  0
BLOCK
  5
1C
330
1B
100
AcDbEntity
  8
0
100
AcDbBlockBegin
  2
*Paper_Space
 70
    0
 10
0
 20
0
 30
0
  3
*Paper_Space
  1

  0
ENDBLK
  5
1D
330
1F
100
AcDbEntity
  8
0
100
AcDbBlockEnd
  0
BLOCK
  5
5F
330
5E
100
AcDbEntity
  8
0
100
AcDbBlockBegin
  2
*D16
 70
    1
 10
0
 20
0
  3
*D16
  1

  0
LINE
  5
9A
100
AcDbEntity
  8
Dimms
  6
ByBlock
 62
    0
370
   -2
100
AcDbLine
 10
68
 20
195
 11
190
 21
195
  0
SOLID
  5
9B
100
AcDbEntity
  8
Dimms
  6
ByBlock
 62
    0
370
   -2
100
AcDbTrace
 10
68
 20
195
 30
0
 11
70.5
 21
195.4162846577728
 31
0
 12
70.5
 22
194.5837153422272
 32
0
 13
70.5
 23
194.5837153422272
 33
0
  0
SOLID
  5
9C
100
AcDbEntity
  8
Dimms
  6
ByBlock
 62
    0
370
   -2
100
AcDbTrace
 10
190
 20
195
 30
0
 11
187.5
 21
194.5837153422272
 31
0
 12
187.5
 22
195.4162846577728
 32
0
 13
187.5
 23
195.4162846577728
 33
0
  0
MTEXT
  5
9D
100
AcDbEntity
  8
Dimms
  6
CONTINUOUS
 62
    0
370
   -2
100
AcDbMText
 10
129
 20
196.875
 30
0
 40
2.5
 41
4.444444444444445
 71
    5
 72
    1
  1
122
  7
standard
210
0
220
0
230
1
 50
0
 73
    2
 44
1
  0
LINE
  5
9E
100
AcDbEntity
  8
Dimms
  6
ByBlock
 62
    0
370
   -2
100
AcDbLine
 10
68
 20
190.625
 11
68
 21
196.25
  0
LINE
  5
9F
100
AcDbEntity
  8
Dimms
  6
ByBlock
 62
    0
370
   -2
100
AcDbLine
 10
190
 20
190.625
 11
190
 21
196.25
  0
ENDBLK
  5
60
330
5E
100
AcDbEntity
  8
0
100
AcDbBlockEnd
  0
BLOCK
  5
62
330
61
100
AcDbEntity
  8
0
100
AcDbBlockBegin
  2
*D4
 70
    1
 10
0
 20
0
  3
*D4
  1

  0
LINE
  5
A0
100
AcDbEntity
  8
Dimms
  6
ByBlock
 62
    0
370
   -2
100
AcDbLine
 10
420
 20
100
 11
420
 21
180
  0
SOLID
  5
A1
100
AcDbEntity
  8
Dimms
  6
ByBlock
 62
    0
370
   -2
100
AcDbTrace
 10
420
 20
100
 30
0
 11
419.5837153422272
 21
102.5
 31
0
 12
420.4162846577728
 22
102.5
 32
0
 13
420.4162846577728
 23
102.5
 33
0
  0
SOLID
  5
A2
100
AcDbEntity
  8
Dimms
  6
ByBlock
 62
    0
370
   -2
100
AcDbTrace
 10
420
 20
180
 30
0
 11
420.4162846577728
 21
177.5
 31
0
 12
419.5837153422272
 22
177.5
 32
0
 13
419.5837153422272
 23
177.5
 33
0
  0
MTEXT
  5
A3
100
AcDbEntity
  8
Dimms
  6
CONTINUOUS
 62
    0
370
   -2
100
AcDbMText
 10
418.125
 20
140
 30
0
 40
2.5
 41
3.055555555555556
 71
    5
 72
    1
  1
80
  7
standard
210
0
220
0
230
1
 50
90
 73
    2
 44
1
  0
LINE
  5
A4
100
AcDbEntity
  8
Dimms
  6
ByBlock
 62
    0
370
   -2
100
AcDbLine
 10
410.625
 20
100
 11
421.25
 21
100
  0
LINE
  5
A5
100
AcDbEntity
  8
Dimms
  6
ByBlock
 62
    0
370
   -2
100
AcDbLine
 10
410.625
 20
180
 11
421.25
 21
180
  0
ENDBLK
  5
63
330
61
100
AcDbEntity
  8
0
100
AcDbBlockEnd
  0
BLOCK
  5
65
330
64
100
AcDbEntity
  8
0
100
AcDbBlockBegin
  2
*D2
 70
    1
 10
0
 20
0
  3
*D2
  1

  0
LINE
  5
A6
100
AcDbEntity
  8
Dimms
  6
ByBlock
 62
    0
370
   -2
100
AcDbLine
 10
300
 20
70
 11
400
 21
70
  0
SOLID
  5
A7
100
AcDbEntity
  8
Dimms
  6
ByBlock
 62
    0
370
   -2
100
AcDbTrace
 10
300
 20
70
 30
0
 11
302.5
 21
70.41628465777283
 31
0
 12
302.5
 22
69.58371534222717
 32
0
 13
302.5
 23
69.58371534222717
 33
0
  0
SOLID
  5
A8
100
AcDbEntity
  8
Dimms
  6
ByBlock
 62
    0
370
   -2
100
AcDbTrace
 10
400
 20
70
 30
0
 11
397.5
 21
69.58371534222717
 31
0
 12
397.5
 22
70.41628465777283
 32
0
 13
397.5
 23
70.41628465777283
 33
0
  0
MTEXT
  5
A9
100
AcDbEntity
  8
Dimms
  6
CONTINUOUS
 62
    0
370
   -2
100
AcDbMText
 10
350
 20
71.875
 30
0
 40
2.5
 41
4.444444444444445
 71
    5
 72
    1
  1
100
  7
standard
210
0
220
0
230
1
 50
0
 73
    2
 44
1
  0
LINE
  5
AA
100
AcDbEntity
  8
Dimms
  6
ByBlock
 62
    0
370
   -2
100
AcDbLine
 10
300
 20
79.375
 11
300
 21
68.75
  0
LINE
  5
AB
100
AcDbEntity
  8
Dimms
  6
ByBlock
 62
    0
370
   -2
100
AcDbLine
 10
400
 20
79.375
 11
400
 21
68.75
  0
ENDBLK
  5
66
330
64
100
AcDbEntity
  8
0
100
AcDbBlockEnd
  0
BLOCK
  5
68
330
67
100
AcDbEntity
  8
0
100
AcDbBlockBegin
  2
*D12
 70
    1
 10
0
 20
0
  3
*D12
  1

  0
LINE
  5
AC
100
AcDbEntity
  8
Dimms2
  6
ByBlock
 62
    0
370
   -2
100
AcDbLine
 10
157
 20
190
 11
171
 21
190
  0
SOLID
  5
AD
100
AcDbEntity
  8
Dimms2
  6
ByBlock
 62
    0
370
   -2
100
AcDbTrace
 10
162
 20
190
 30
0
 11
159.5
 21
189.5837153422272
 31
0
 12
159.5
 22
190.4162846577728
 32
0
 13
159.5
 23
190.4162846577728
 33
0
  0
SOLID
  5
AE
100
AcDbEntity
  8
Dimms2
  6
ByBlock
 62
    0
370
   -2
100
AcDbTrace
 10
166
 20
190
 30
0
 11
168.5
 21
190.4162846577728
 31
0
 12
168.5
 22
189.5837153422272
 32
0
 13
168.5
 23
189.5837153422272
 33
0
  0
MTEXT
  5
AF
100
AcDbEntity
  8
Dimms2
  6
CONTINUOUS
 62
    0
370
   -2
100
AcDbMText
 10
164
 20
191.875
 30
0
 40
2.5
 41
1.388888888888889
 71
    5
 72
    1
  1
4
  7
standard
210
0
220
0
230
1
 50
0
 73
    2
 44
1
  0
LINE
  5
B0
100
AcDbEntity
  8
Dimms2
  6
ByBlock
 62
    0
370
   -2
100
AcDbLine
 10
162
 20
185.625
 11
162
 21
191.25
  0
LINE
  5
B1
100
AcDbEntity
  8
Dimms2
  6
ByBlock
 62
    0
370
   -2
100
AcDbLine
 10
166
 20
185.625
 11
166
 21
191.25
  0
ENDBLK
  5
69
330
67
100
AcDbEntity
  8
0
100
AcDbBlockEnd
  0
BLOCK
  5
6B
330
6A
100
AcDbEntity
  8
0
100
AcDbBlockBegin
  2
*D7
 70
    1
 10
0
 20
0
  3
*D7
  1

  0
LINE
  5
B2
100
AcDbEntity
  8
Dimms
  6
ByBlock
 62
    0
370
   -2
100
AcDbLine
 10
66
 20
200
 11
201
 21
200
  0
SOLID
  5
B3
100
AcDbEntity
  8
Dimms
  6
ByBlock
 62
    0
370
   -2
100
AcDbTrace
 10
66
 20
200
 30
0
 11
68.5
 21
200.4162846577728
 31
0
 12
68.5
 22
199.5837153422272
 32
0
 13
68.5
 23
199.5837153422272
 33
0
  0
SOLID
  5
B4
100
AcDbEntity
  8
Dimms
  6
ByBlock
 62
    0
370
   -2
100
AcDbTrace
 10
201
 20
200
 30
0
 11
198.5
 21
199.5837153422272
 31
0
 12
198.5
 22
200.4162846577728
 32
0
 13
198.5
 23
200.4162846577728
 33
0
  0
MTEXT
  5
B5
100
AcDbEntity
  8
Dimms
  6
CONTINUOUS
 62
    0
370
   -2
100
AcDbMText
 10
133.5
 20
201.875
 30
0
 40
2.5
 41
4.444444444444756
 71
    5
 72
    1
  1
135
  7
standard
210
0
220
0
230
1
 50
0
 73
    2
 44
1
  0
LINE
  5
B6
100
AcDbEntity
  8
Dimms
  6
ByBlock
 62
    0
370
   -2
100
AcDbLine
 10
66
 20
190.625
 11
66
 21
201.25
  0
LINE
  5
B7
100
AcDbEntity
  8
Dimms
  6
ByBlock
 62
    0
370
   -2
100
AcDbLine
 10
201
 20
190.625
 11
201
 21
201.25
  0
ENDBLK
  5
6C
330
6A
100
AcDbEntity
  8
0
100
AcDbBlockEnd
  0
BLOCK
  5
6E
330
6D
100
AcDbEntity
  8
0
100
AcDbBlockBegin
  2
*D11
 70
    1
 10
0
 20
0
  3
*D11
  1

  0
LINE
  5
B8
100
AcDbEntity
  8
Dimms2
  6
ByBlock
 62
    0
370
   -2
100
AcDbLine
 10
130
 20
170
 11
130
 21
160
  0
SOLID
  5
B9
100
AcDbEntity
  8
Dimms2
  6
ByBlock
 62
    0
370
   -2
100
AcDbTrace
 10
130
 20
170
 30
0
 11
130.4162846577728
 21
167.5
 31
0
 12
129.5837153422272
 22
167.5
 32
0
 13
129.5837153422272
 23
167.5
 33
0
  0
SOLID
  5
BA
100
AcDbEntity
  8
Dimms2
  6
ByBlock
 62
    0
370
   -2
100
AcDbTrace
 10
130
 20
160
 30
0
 11
129.5837153422272
 21
162.5
 31
0
 12
130.4162846577728
 22
162.5
 32
0
 13
130.4162846577728
 23
162.5
 33
0
  0
MTEXT
  5
BB
100
AcDbEntity
  8
Dimms2
  6
CONTINUOUS
 62
    0
370
   -2
100
AcDbMText
 10
128.125
 20
165
 30
0
 40
2.5
 41
2.5
 71
    5
 72
    1
  1
10
  7
standard
210
0
220
0
230
1
 50
90
 73
    2
 44
1
  0
LINE
  5
BC
100
AcDbEntity
  8
Dimms2
  6
ByBlock
 62
    0
370
   -2
100
AcDbLine
 10
129.375
 20
170
 11
128.75
 21
170
  0
LINE
  5
BD
100
AcDbEntity
  8
Dimms2
  6
ByBlock
 62
    0
370
   -2
100
AcDbLine
 10
129.375
 20
160
 11
128.75
 21
160
  0
ENDBLK
  5
6F
330
6D
100
AcDbEntity
  8
0
100
AcDbBlockEnd
  0
BLOCK
  5
71
330
70
100
AcDbEntity
  8
0
100
AcDbBlockBegin
  2
*D9
 70
    1
 10
0
 20
0
  3
*D9
  1

  0
LINE
  5
BE
100
AcDbEntity
  8
Dimms2
  6
ByBlock
 62
    0
370
   -2
100
AcDbLine
 10
160
 20
130
 11
168
 21
130
  0
SOLID
  5
BF
100
AcDbEntity
  8
Dimms2
  6
ByBlock
 62
    0
370
   -2
100
AcDbTrace
 10
160
 20
130
 30
0
 11
162.5
 21
130.4162846577728
 31
0
 12
162.5
 22
129.5837153422272
 32
0
 13
162.5
 23
129.5837153422272
 33
0
  0
SOLID
  5
C0
100
AcDbEntity
  8
Dimms2
  6
ByBlock
 62
    0
370
   -2
100
AcDbTrace
 10
168
 20
130
 30
0
 11
165.5
 21
129.5837153422272
 31
0
 12
165.5
 22
130.4162846577728
 32
0
 13
165.5
 23
130.4162846577728
 33
0
  0
MTEXT
  5
C1
100
AcDbEntity
  8
Dimms2
  6
CONTINUOUS
 62
    0
370
   -2
100
AcDbMText
 10
164
 20
131.875
 30
0
 40
2.5
 41
1.111111111111111
 71
    5
 72
    1
  1
8
  7
standard
210
0
220
0
230
1
 50
0
 73
    2
 44
1
  0
LINE
  5
C2
100
AcDbEntity
  8
Dimms2
  6
ByBlock
 62
    0
370
   -2
100
AcDbLine
 10
160
 20
139.375
 11
160
 21
128.75
  0
LINE
  5
C3
100
AcDbEntity
  8
Dimms2
  6
ByBlock
 62
    0
370
   -2
100
AcDbLine
 10
168
 20
139.375
 11
168
 21
128.75
  0
ENDBLK
  5
72
330
70
100
AcDbEntity
  8
0
100
AcDbBlockEnd
  0
BLOCK
  5
74
330
73
100
AcDbEntity
  8
0
100
AcDbBlockBegin
  2
*D6
 70
    1
 10
0
 20
0
  3
*D6
  1

  0
SOLID
  5
C4
100
AcDbEntity
  8
Dimms
  6
ByBlock
 62
    0
370
   -2
100
AcDbTrace
 10
352.1213203435597
 20
167.1213203435596
 30
0
 11
353.594729592111
 21
169.183445000941
 31
0
 12
354.1834450009412
 22
168.5947295921108
 32
0
 13
354.1834450009412
 23
168.5947295921108
 33
0
  0
LINE
  5
C5
100
AcDbEntity
  8
Dimms
  6
ByBlock
 62
    0
370
   -2
100
AcDbLine
 10
350
 20
165
 11
356.442528450811
 21
171.4425284508107
  0
MTEXT
  5
C6
100
AcDbEntity
  8
Dimms
  6
CONTINUOUS
 62
    0
370
   -2
100
AcDbMText
 10
352.9560991824605
 20
170.60774961191
 30
0
 40
2.5
 41
1.111111111111266
 71
    5
 72
    1
  1
3
  7
standard
210
0
220
0
230
1
 50
44.99999999999847
 73
    2
 44
1
  0
ENDBLK
  5
75
330
73
100
AcDbEntity
  8
0
100
AcDbBlockEnd
  0
BLOCK
  5
77
330
76
100
AcDbEntity
  8
0
100
AcDbBlockBegin
  2
*D14
 70
    1
 10
0
 20
0
  3
*D14
  1

  0
LINE
  5
C7
100
AcDbEntity
  8
Dimms
  6
ByBlock
 62
    0
370
   -2
100
AcDbLine
 10
335
 20
195
 11
365
 21
195
  0
SOLID
  5
C8
100
AcDbEntity
  8
Dimms
  6
ByBlock
 62
    0
370
   -2
100
AcDbTrace
 10
335
 20
195
 30
0
 11
337.5
 21
195.4162846577728
 31
0
 12
337.5
 22
194.5837153422272
 32
0
 13
337.5
 23
194.5837153422272
 33
0
  0
SOLID
  5
C9
100
AcDbEntity
  8
Dimms
  6
ByBlock
 62
    0
370
   -2
100
AcDbTrace
 10
365
 20
195
 30
0
 11
362.5
 21
194.5837153422272
 31
0
 12
362.5
 22
195.4162846577728
 32
0
 13
362.5
 23
195.4162846577728
 33
0
  0
MTEXT
  5
CA
100
AcDbEntity
  8
Dimms
  6
CONTINUOUS
 62
    0
370
   -2
100
AcDbMText
 10
350
 20
196.875
 30
0
 40
2.5
 41
3.055555555555711
 71
    5
 72
    1
  1
30
  7
standard
210
0
220
0
230
1
 50
0
 73
    2
 44
1
  0
LINE
  5
CB
100
AcDbEntity
  8
Dimms
  6
ByBlock
 62
    0
370
   -2
100
AcDbLine
 10
335
 20
190.625
 11
335
 21
196.25
  0
LINE
  5
CC
100
AcDbEntity
  8
Dimms
  6
ByBlock
 62
    0
370
   -2
100
AcDbLine
 10
365
 20
190.625
 11
365
 21
196.25
  0
ENDBLK
  5
78
330
76
100
AcDbEntity
  8
0
100
AcDbBlockEnd
  0
BLOCK
  5
7A
330
79
100
AcDbEntity
  8
0
100
AcDbBlockBegin
  2
*D19
 70
    1
 10
0
 20
0
  3
*D19
  1

  0
LINE
  5
CD
100
AcDbEntity
  8
Dimms
  6
ByBlock
 62
    0
370
   -2
100
AcDbLine
 10
260
 20
100
 11
260
 21
180
  0
SOLID
  5
CE
100
AcDbEntity
  8
Dimms
  6
ByBlock
 62
    0
370
   -2
100
AcDbTrace
 10
260
 20
100
 30
0
 11
259.5837153422272
 21
102.5
 31
0
 12
260.4162846577728
 22
102.5
 32
0
 13
260.4162846577728
 23
102.5
 33
0
  0
SOLID
  5
CF
100
AcDbEntity
  8
Dimms
  6
ByBlock
 62
    0
370
   -2
100
AcDbTrace
 10
260
 20
180
 30
0
 11
260.4162846577728
 21
177.5
 31
0
 12
259.5837153422272
 22
177.5
 32
0
 13
259.5837153422272
 23
177.5
 33
0
  0
MTEXT
  5
D0
100
AcDbEntity
  8
Dimms
  6
CONTINUOUS
 62
    0
370
   -2
100
AcDbMText
 10
258.125
 20
140
 30
0
 40
2.5
 41
3.055555555555556
 71
    5
 72
    1
  1
80
  7
standard
210
0
220
0
230
1
 50
90
 73
    2
 44
1
  0
LINE
  5
D1
100
AcDbEntity
  8
Dimms
  6
ByBlock
 62
    0
370
   -2
100
AcDbLine
 10
250.625
 20
100
 11
261.25
 21
100
  0
LINE
  5
D2
100
AcDbEntity
  8
Dimms
  6
ByBlock
 62
    0
370
   -2
100
AcDbLine
 10
250.625
 20
180
 11
261.25
 21
180
  0
ENDBLK
  5
7B
330
79
100
AcDbEntity
  8
0
100
AcDbBlockEnd
  0
BLOCK
  5
7D
330
7C
100
AcDbEntity
  8
0
100
AcDbBlockBegin
  2
*D15
 70
    1
 10
0
 20
0
  3
*D15
  1

  0
SOLID
  5
D3
100
AcDbEntity
  8
Dimms
  6
ByBlock
 62
    0
370
   -2
100
AcDbTrace
 10
339.3933982822018
 20
175.6066017177982
 30
0
 11
341.4555229395833
 21
174.1331924692469
 31
0
 12
340.8668075307531
 22
173.5444770604167
 32
0
 13
340.8668075307531
 23
173.5444770604167
 33
0
  0
LINE
  5
D4
100
AcDbEntity
  8
Dimms
  6
ByBlock
 62
    0
370
   -2
100
AcDbLine
 10
350
 20
165
 11
339.3933982822018
 21
175.6066017177982
  0
MTEXT
  5
D5
100
AcDbEntity
  8
Dimms
  6
CONTINUOUS
 62
    0
370
   -2
100
AcDbMText
 10
346.0225243558257
 20
171.6291260736239
 30
0
 40
2.5
 41
2.500000000000155
 71
    5
 72
    1
  1
15
  7
standard
210
0
220
0
230
1
 50
314.9999999999999
 73
    2
 44
1
  0
ENDBLK
  5
7E
330
7C
100
AcDbEntity
  8
0
100
AcDbBlockEnd
  0
BLOCK
  5
80
330
7F
100
AcDbEntity
  8
0
100
AcDbBlockBegin
  2
*D5
 70
    1
 10
0
 20
0
  3
*D5
  1

  0
LINE
  5
D6
100
AcDbEntity
  8
Dimms
  6
ByBlock
 62
    0
370
   -2
100
AcDbLine
 10
405
 20
100
 11
405
 21
165
  0
SOLID
  5
D7
100
AcDbEntity
  8
Dimms
  6
ByBlock
 62
    0
370
   -2
100
AcDbTrace
 10
405
 20
100
 30
0
 11
404.5837153422272
 21
102.5
 31
0
 12
405.4162846577728
 22
102.5
 32
0
 13
405.4162846577728
 23
102.5
 33
0
  0
SOLID
  5
D8
100
AcDbEntity
  8
Dimms
  6
ByBlock
 62
    0
370
   -2
100
AcDbTrace
 10
405
 20
165
 30
0
 11
405.4162846577728
 21
162.5
 31
0
 12
404.5837153422272
 22
162.5
 32
0
 13
404.5837153422272
 23
162.5
 33
0
  0
MTEXT
  5
D9
100
AcDbEntity
  8
Dimms
  6
CONTINUOUS
 62
    0
370
   -2
100
AcDbMText
 10
403.125
 20
132.5
 30
0
 40
2.5
 41
3.055555555555866
 71
    5
 72
    1
  1
65
  7
standard
210
0
220
0
230
1
 50
90
 73
    2
 44
1
  0
LINE
  5
DA
100
AcDbEntity
  8
Dimms
  6
ByBlock
 62
    0
370
   -2
100
AcDbLine
 10
409.375
 20
100
 11
403.75
 21
100
  0
LINE
  5
DB
100
AcDbEntity
  8
Dimms
  6
ByBlock
 62
    0
370
   -2
100
AcDbLine
 10
409.375
 20
165
 11
403.75
 21
165
  0
ENDBLK
  5
81
330
7F
100
AcDbEntity
  8
0
100
AcDbBlockEnd
  0
BLOCK
  5
83
330
82
100
AcDbEntity
  8
0
100
AcDbBlockBegin
  2
*D8
 70
    1
 10
0
 20
0
  3
*D8
  1

  0
LINE
  5
DC
100
AcDbEntity
  8
Dimms2
  6
ByBlock
 62
    0
370
   -2
100
AcDbLine
 10
143
 20
130
 11
160
 21
130
  0
SOLID
  5
DD
100
AcDbEntity
  8
Dimms2
  6
ByBlock
 62
    0
370
   -2
100
AcDbTrace
 10
143
 20
130
 30
0
 11
145.5
 21
130.4162846577728
 31
0
 12
145.5
 22
129.5837153422272
 32
0
 13
145.5
 23
129.5837153422272
 33
0
  0
SOLID
  5
DE
100
AcDbEntity
  8
Dimms2
  6
ByBlock
 62
    0
370
   -2
100
AcDbTrace
 10
160
 20
130
 30
0
 11
157.5
 21
129.5837153422272
 31
0
 12
157.5
 22
130.4162846577728
 32
0
 13
157.5
 23
130.4162846577728
 33
0
  0
MTEXT
  5
DF
100
AcDbEntity
  8
Dimms2
  6
CONTINUOUS
 62
    0
370
   -2
100
AcDbMText
 10
151.5
 20
131.875
 30
0
 40
2.5
 41
2.5
 71
    5
 72
    1
  1
17
  7
standard
210
0
220
0
230
1
 50
0
 73
    2
 44
1
  0
LINE
  5
E0
100
AcDbEntity
  8
Dimms2
  6
ByBlock
 62
    0
370
   -2
100
AcDbLine
 10
143
 20
139.375
 11
143
 21
128.75
  0
LINE
  5
E1
100
AcDbEntity
  8
Dimms2
  6
ByBlock
 62
    0
370
   -2
100
AcDbLine
 10
160
 20
139.375
 11
160
 21
128.75
  0
ENDBLK
  5
84
330
82
100
AcDbEntity
  8
0
100
AcDbBlockEnd
  0
BLOCK
  5
86
330
85
100
AcDbEntity
  8
0
100
AcDbBlockBegin
  2
*D1
 70
    1
 10
0
 20
0
  3
*D1
  1

  0
LINE
  5
E2
100
AcDbEntity
  8
Dimms
  6
ByBlock
 62
    0
370
   -2
100
AcDbLine
 10
58
 20
70
 11
200
 21
70
  0
SOLID
  5
E3
100
AcDbEntity
  8
Dimms
  6
ByBlock
 62
    0
370
   -2
100
AcDbTrace
 10
58
 20
70
 30
0
 11
60.5
 21
70.41628465777283
 31
0
 12
60.5
 22
69.58371534222717
 32
0
 13
60.5
 23
69.58371534222717
 33
0
  0
SOLID
  5
E4
100
AcDbEntity
  8
Dimms
  6
ByBlock
 62
    0
370
   -2
100
AcDbTrace
 10
200
 20
70
 30
0
 11
197.5
 21
69.58371534222717
 31
0
 12
197.5
 22
70.41628465777283
 32
0
 13
197.5
 23
70.41628465777283
 33
0
  0
MTEXT
  5
E5
100
AcDbEntity
  8
Dimms
  6
CONTINUOUS
 62
    0
370
   -2
100
AcDbMText
 10
129
 20
71.875
 30
0
 40
2.5
 41
4.722222222222222
 71
    5
 72
    1
  1
142
  7
standard
210
0
220
0
230
1
 50
0
 73
    2
 44
1
  0
LINE
  5
E6
100
AcDbEntity
  8
Dimms
  6
ByBlock
 62
    0
370
   -2
100
AcDbLine
 10
58
 20
79.375
 11
58
 21
68.75
  0
LINE
  5
E7
100
AcDbEntity
  8
Dimms
  6
ByBlock
 62
    0
370
   -2
100
AcDbLine
 10
200
 20
79.375
 11
200
 21
68.75
  0
ENDBLK
  5
87
330
85
100
AcDbEntity
  8
0
100
AcDbBlockEnd
  0
BLOCK
  5
89
330
88
100
AcDbEntity
  8
0
100
AcDbBlockBegin
  2
*D18
 70
    1
 10
0
 20
0
  3
*D18
  1

  0
LINE
  5
E8
100
AcDbEntity
  8
Dimms
  6
ByBlock
 62
    0
370
   -2
100
AcDbLine
 10
200
 20
85
 11
178
 21
85
  0
SOLID
  5
E9
100
AcDbEntity
  8
Dimms
  6
ByBlock
 62
    0
370
   -2
100
AcDbTrace
 10
200
 20
85
 30
0
 11
197.5
 21
84.58371534222717
 31
0
 12
197.5
 22
85.41628465777283
 32
0
 13
197.5
 23
85.41628465777283
 33
0
  0
SOLID
  5
EA
100
AcDbEntity
  8
Dimms
  6
ByBlock
 62
    0
370
   -2
100
AcDbTrace
 10
178
 20
85
 30
0
 11
180.5
 21
85.41628465777283
 31
0
 12
180.5
 22
84.58371534222717
 32
0
 13
180.5
 23
84.58371534222717
 33
0
  0
MTEXT
  5
EB
100
AcDbEntity
  8
Dimms
  6
CONTINUOUS
 62
    0
370
   -2
100
AcDbMText
 10
189
 20
86.875
 30
0
 40
2.5
 41
3.055555555555556
 71
    5
 72
    1
  1
22
  7
standard
210
0
220
0
230
1
 50
360
 73
    2
 44
1
  0
LINE
  5
EC
100
AcDbEntity
  8
Dimms
  6
ByBlock
 62
    0
370
   -2
100
AcDbLine
 10
200
 20
89.375
 11
200
 21
83.75
  0
LINE
  5
ED
100
AcDbEntity
  8
Dimms
  6
ByBlock
 62
    0
370
   -2
100
AcDbLine
 10
178
 20
89.375
 11
178
 21
83.75
  0
ENDBLK
  5
8A
330
88
100
AcDbEntity
  8
0
100
AcDbBlockEnd
  0
BLOCK
  5
8C
330
8B
100
AcDbEntity
  8
0
100
AcDbBlockBegin
  2
*D3
 70
    1
 10
0
 20
0
  3
*D3
  1

  0
LINE
  5
EE
100
AcDbEntity
  8
Dimms
  6
ByBlock
 62
    0
370
   -2
100
AcDbLine
 10
325
 20
85
 11
375
 21
85
  0
SOLID
  5
EF
100
AcDbEntity
  8
Dimms
  6
ByBlock
 62
    0
370
   -2
100
AcDbTrace
 10
325
 20
85
 30
0
 11
327.5
 21
85.41628465777283
 31
0
 12
327.5
 22
84.58371534222717
 32
0
 13
327.5
 23
84.58371534222717
 33
0
  0
SOLID
  5
F0
100
AcDbEntity
  8
Dimms
  6
ByBlock
 62
    0
370
   -2
100
AcDbTrace
 10
375
 20
85
 30
0
 11
372.5
 21
84.58371534222717
 31
0
 12
372.5
 22
85.41628465777283
 32
0
 13
372.5
 23
85.41628465777283
 33
0
  0
MTEXT
  5
F1
100
AcDbEntity
  8
Dimms
  6
CONTINUOUS
 62
    0
370
   -2
100
AcDbMText
 10
350
 20
86.875
 30
0
 40
2.5
 41
3.055555555555711
 71
    5
 72
    1
  1
50
  7
standard
210
0
220
0
230
1
 50
0
 73
    2
 44
1
  0
LINE
  5
F2
100
AcDbEntity
  8
Dimms
  6
ByBlock
 62
    0
370
   -2
100
AcDbLine
 10
325
 20
80.625
 11
325
 21
86.25
  0
LINE
  5
F3
100
AcDbEntity
  8
Dimms
  6
ByBlock
 62
    0
370
   -2
100
AcDbLine
 10
375
 20
80.625
 11
375
 21
86.25
  0
ENDBLK
  5
8D
330
8B
100
AcDbEntity
  8
0
100
AcDbBlockEnd
  0
BLOCK
  5
8F
330
8E
100
AcDbEntity
  8
0
100
AcDbBlockBegin
  2
*D13
 70
    1
 10
0
 20
0
  3
*D13
  1

  0
LINE
  5
F4
100
AcDbEntity
  8
Dimms2
  6
ByBlock
 62
    0
370
   -2
100
AcDbLine
 10
160.5387088844736
 20
180.3168875791021
 11
177.0032157501578
 21
190.0018916177399
  0
LINE
  5
F5
100
AcDbEntity
  8
Dimms2
  6
ByBlock
 62
    0
370
   -2
100
AcDbLine
 10
200.625
 20
168
 11
182.9945132846495
 21
168
  0
ARC
  5
F6
100
AcDbEntity
  8
Dimms2
  6
ByBlock
 62
    0
370
   -2
100
AcDbCircle
 10
139.6
 20
168
 40
42.14451328464956
100
AcDbArc
 50
0
 51
30.46554491945989
  0
SOLID
  5
F7
100
AcDbEntity
  8
Dimms2
  6
ByBlock
 62
    0
370
   -2
100
AcDbTrace
 10
175.9257979812106
 20
189.3681164595357
 30
0
 11
177.4937994780243
 21
187.3769700002597
 31
0
 12
176.7639766632707
 22
186.9763076433388
 32
0
 13
176.7639766632707
 23
186.9763076433388
 33
0
  0
SOLID
  5
F8
100
AcDbEntity
  8
Dimms2
  6
ByBlock
 62
    0
370
   -2
100
AcDbTrace
 10
181.7445132846495
 20
168
 30
0
 11
181.2542729604295
 21
170.486555316257
 31
0
 12
182.0864760943835
 22
170.5112455780062
 32
0
 13
182.0864760943835
 23
170.5112455780062
 33
0
  0
MTEXT
  5
F9
100
AcDbEntity
  8
Dimms2
  6
CONTINUOUS
 62
    0
370
   -2
100
AcDbMText
 10
180.866864932593
 20
179.2373095196733
 30
0
 40
2.5
 41
4.722222222222378
 71
    8
 72
    1
  1
30%%D
  7
standard
210
0
220
0
230
1
 50
285.23277245973
 73
    2
 44
1
  0
ENDBLK
  5
90
330
8E
100
AcDbEntity
  8
0
100
AcDbBlockEnd
  0
BLOCK
  5
92
330
91
100
AcDbEntity
  8
0
100
AcDbBlockBegin
  2
*D17
 70
    1
 10
0
 20
0
  3
*D17
  1

  0
LINE
  5
FA
100
AcDbEntity
  8
Dimms
  6
ByBlock
 62
    0
370
   -2
100
AcDbLine
 10
335
 20
74
 11
365
 21
74
  0
SOLID
  5
FB
100
AcDbEntity
  8
Dimms
  6
ByBlock
 62
    0
370
   -2
100
AcDbTrace
 10
335
 20
74
 30
0
 11
337.5
 21
74.41628465777283
 31
0
 12
337.5
 22
73.58371534222717
 32
0
 13
337.5
 23
73.58371534222717
 33
0
  0
SOLID
  5
FC
100
AcDbEntity
  8
Dimms
  6
ByBlock
 62
    0
370
   -2
100
AcDbTrace
 10
365
 20
74
 30
0
 11
362.5
 21
73.58371534222717
 31
0
 12
362.5
 22
74.41628465777283
 32
0
 13
362.5
 23
74.41628465777283
 33
0
  0
MTEXT
  5
FD
100
AcDbEntity
  8
Dimms
  6
CONTINUOUS
 62
    0
370
   -2
100
AcDbMText
 10
350
 20
75.875
 30
0
 40
2.5
 41
3.055555555555711
 71
    5
 72
    1
  1
30
  7
standard
210
0
220
0
230
1
 50
0
 73
    2
 44
1
  0
LINE
  5
FE
100
AcDbEntity
  8
Dimms
  6
ByBlock
 62
    0
370
   -2
100
AcDbLine
 10
335
 20
79.375
 11
335
 21
72.75
  0
LINE
  5
FF
100
AcDbEntity
  8
Dimms
  6
ByBlock
 62
    0
370
   -2
100
AcDbLine
 10
365
 20
79.375
 11
365
 21
72.75
  0
ENDBLK
  5
93
330
91
100
AcDbEntity
  8
0
100
AcDbBlockEnd
  0
BLOCK
  5
95
330
94
100
AcDbEntity
  8
0
100
AcDbBlockBegin
  2
*D20
 70
    1
 10
0
 20
0
  3
*D20
  1

  0
LINE
  5
100
100
AcDbEntity
  8
Dimms
  6
ByBlock
 62
    0
370
   -2
100
AcDbLine
 10
245
 20
100
 11
245
 21
165
  0
SOLID
  5
101
100
AcDbEntity
  8
Dimms
  6
ByBlock
 62
    0
370
   -2
100
AcDbTrace
 10
245
 20
100
 30
0
 11
244.5837153422272
 21
102.5
 31
0
 12
245.4162846577728
 22
102.5
 32
0
 13
245.4162846577728
 23
102.5
 33
0
  0
SOLID
  5
102
100
AcDbEntity
  8
Dimms
  6
ByBlock
 62
    0
370
   -2
100
AcDbTrace
 10
245
 20
165
 30
0
 11
245.4162846577728
 21
162.5
 31
0
 12
244.5837153422272
 22
162.5
 32
0
 13
244.5837153422272
 23
162.5
 33
0
  0
MTEXT
  5
103
100
AcDbEntity
  8
Dimms
  6
CONTINUOUS
 62
    0
370
   -2
100
AcDbMText
 10
243.125
 20
132.5
 30
0
 40
2.5
 41
3.055555555555866
 71
    5
 72
    1
  1
65
  7
standard
210
0
220
0
230
1
 50
90
 73
    2
 44
1
  0
LINE
  5
104
100
AcDbEntity
  8
Dimms
  6
ByBlock
 62
    0
370
   -2
100
AcDbLine
 10
249.375
 20
100
 11
243.75
 21
100
  0
LINE
  5
105
100
AcDbEntity
  8
Dimms
  6
ByBlock
 62
    0
370
   -2
100
AcDbLine
 10
249.375
 20
165
 11
243.75
 21
165
  0
ENDBLK
  5
96
330
94
100
AcDbEntity
  8
0
100
AcDbBlockEnd
  0
BLOCK
  5
98
330
97
100
AcDbEntity
  8
0
100
AcDbBlockBegin
  2
*D10
 70
    1
 10
0
 20
0
  3
*D10
  1

  0
LINE
  5
106
100
AcDbEntity
  8
Dimms2
  6
ByBlock
 62
    0
370
   -2
100
AcDbLine
 10
125
 20
180
 11
125
 21
150
  0
SOLID
  5
107
100
AcDbEntity
  8
Dimms2
  6
ByBlock
 62
    0
370
   -2
100
AcDbTrace
 10
125
 20
180
 30
0
 11
125.4162846577728
 21
177.5
 31
0
 12
124.5837153422272
 22
177.5
 32
0
 13
124.5837153422272
 23
177.5
 33
0
  0
SOLID
  5
108
100
AcDbEntity
  8
Dimms2
  6
ByBlock
 62
    0
370
   -2
100
AcDbTrace
 10
125
 20
150
 30
0
 11
124.5837153422272
 21
152.5
 31
0
 12
125.4162846577728
 22
152.5
 32
0
 13
125.4162846577728
 23
152.5
 33
0
  0
MTEXT
  5
109
100
AcDbEntity
  8
Dimms2
  6
CONTINUOUS
 62
    0
370
   -2
100
AcDbMText
 10
123.125
 20
165
 30
0
 40
2.5
 41
3.055555555555711
 71
    5
 72
    1
  1
30
  7
standard
210
0
220
0
230
1
 50
90
 73
    2
 44
1
  0
LINE
  5
10A
100
AcDbEntity
  8
Dimms2
  6
ByBlock
 62
    0
370
   -2
100
AcDbLine
 10
129.375
 20
180
 11
123.75
 21
180
  0
LINE
  5
10B
100
AcDbEntity
  8
Dimms2
  6
ByBlock
 62
    0
370
   -2
100
AcDbLine
 10
129.375
 20
150
 11
123.75
 21
150
  0
ENDBLK
  5
99
330
97
100
AcDbEntity
  8
0
100
AcDbBlockEnd
  0
ENDSEC
  0
SECTION
  2
ENTITIES
  0
LINE
  5
10C
100
AcDbEntity
  8
Base
  6
ByLayer
 62
  256
370
   -1
100
AcDbLine
 10
200
 20
100
 11
200
 21
95
  0
ARC
  5
10D
100
AcDbEntity
  8
Arms
  6
ByLayer
 62
  256
370
   -1
100
AcDbCircle
 10
0
 20
0
 40
0
100
AcDbArc
 50
0
 51
0
  0
LINE
  5
10E
100
AcDbEntity
  8
Base
  6
ByLayer
 62
  256
370
   -1
100
AcDbLine
 10
300
 20
100
 11
400
 21
100
  0
LINE
  5
10F
100
AcDbEntity
  8
Base
  6
ByLayer
 62
  256
370
   -1
100
AcDbLine
 10
300
 20
95
 11
300
 21
100
  0
LINE
  5
110
100
AcDbEntity
  8
Base
  6
ByLayer
 62
  256
370
   -1
100
AcDbLine
 10
400
 20
100
 11
400
 21
95
  0
LINE
  5
111
100
AcDbEntity
  8
Base
  6
ByLayer
 62
  256
370
   -1
100
AcDbLine
 10
400
 20
95
 11
300
 21
95
  0
LINE
  5
112
100
AcDbEntity
  8
Arms
  6
ByLayer
 62
  256
370
   -1
100
AcDbLine
 10
325
 20
100
 11
335
 21
165
  0
LINE
  5
113
100
AcDbEntity
  8
Arms
  6
ByLayer
 62
  256
370
   -1
100
AcDbLine
 10
365
 20
165
 11
375
 21
100
  0
CIRCLE
  5
114
100
AcDbEntity
  8
Arms
  6
ByLayer
 62
  256
370
   -1
100
AcDbCircle
 10
350
 20
165
 40
3
  0
ARC
  5
115
100
AcDbEntity
  8
Arms
  6
ByLayer
 62
  256
370
   -1
100
AcDbCircle
 10
350
 20
165
 40
15
100
AcDbArc
 50
0
 51
180
  0
LINE
  5
116
100
AcDbEntity
  8
Arms
  6
ByLayer
 62
  256
370
   -1
100
AcDbLine
 10
190
 20
100
 11
190
 21
180
  0
LINE
  5
117
100
AcDbEntity
  8
Arms
  6
ByLayer
 62
  256
370
   -1
100
AcDbLine
 10
190
 20
180
 11
187
 21
180
  0
LINE
  5
118
100
AcDbEntity
  8
BobbinSm
  6
ByLayer
 62
  256
370
   -1
100
AcDbLine
 10
129
 20
165
 11
129
 21
171
  0
LINE
  5
119
100
AcDbEntity
  8
BobbinSm
  6
ByLayer
 62
  256
370
   -1
100
AcDbLine
 10
129
 20
171
 11
132
 21
171
  0
LINE
  5
11A
100
AcDbEntity
  8
BobbinSm
  6
ByLayer
 62
  256
370
   -1
100
AcDbLine
 10
132
 20
171
 11
132
 21
165
  0
LINE
  5
11B
100
AcDbEntity
  8
BobbinSm
  6
ByLayer
 62
  256
370
   -1
100
AcDbLine
 10
129
 20
174
 11
129
 21
171
  0
LINE
  5
11C
100
AcDbEntity
  8
BobbinSm
  6
ByLayer
 62
  256
370
   -1
100
AcDbLine
 10
132
 20
171
 11
132
 21
174
  0
LINE
  5
11D
100
AcDbEntity
  8
BobbinSm
  6
ByLayer
 62
  256
370
   -1
100
AcDbLine
 10
129
 20
165.0000000000002
 11
128.9999999999993
 21
159.0000000000002
  0
LINE
  5
11E
100
AcDbEntity
  8
BobbinSm
  6
ByLayer
 62
  256
370
   -1
100
AcDbLine
 10
128.9999999999993
 20
159.0000000000002
 11
131.9999999999993
 21
158.9999999999999
  0
LINE
  5
11F
100
AcDbEntity
  8
BobbinSm
  6
ByLayer
 62
  256
370
   -1
100
AcDbLine
 10
131.9999999999993
 20
158.9999999999999
 11
132
 21
164.9999999999999
  0
LINE
  5
120
100
AcDbEntity
  8
BobbinSm
  6
ByLayer
 62
  256
370
   -1
100
AcDbLine
 10
128.999999999999
 20
156.0000000000002
 11
128.9999999999993
 21
159.0000000000002
  0
LINE
  5
121
100
AcDbEntity
  8
BobbinSm
  6
ByLayer
 62
  256
370
   -1
100
AcDbLine
 10
131.9999999999993
 20
158.9999999999999
 11
131.999999999999
 21
155.9999999999999
  0
LINE
  5
122
100
AcDbEntity
  8
BobbinLg
  6
ByLayer
 62
  256
370
   -1
100
AcDbLine
 10
121
 20
175.4
 11
121
 21
165
  0
LINE
  5
123
100
AcDbEntity
  8
BobbinLg
  6
ByLayer
 62
  256
370
   -1
100
AcDbLine
 10
121
 20
165
 11
179
 21
165
  0
LINE
  5
124
100
AcDbEntity
  8
BobbinLg
  6
ByLayer
 62
  256
370
   -1
100
AcDbLine
 10
179
 20
165
 11
179
 21
175.4
  0
LINE
  5
125
100
AcDbEntity
  8
BobbinLg
  6
ByLayer
 62
  256
370
   -1
100
AcDbLine
 10
179
 20
175.4
 11
121
 21
175.4
  0
LINE
  5
126
100
AcDbEntity
  8
BobbinLg
  6
ByLayer
 62
  256
370
   -1
100
AcDbLine
 10
121
 20
154.6
 11
121
 21
165
  0
LINE
  5
127
100
AcDbEntity
  8
BobbinLg
  6
ByLayer
 62
  256
370
   -1
100
AcDbLine
 10
121
 20
165
 11
179
 21
165
  0
LINE
  5
128
100
AcDbEntity
  8
BobbinLg
  6
ByLayer
 62
  256
370
   -1
100
AcDbLine
 10
179
 20
165
 11
179
 21
154.6
  0
LINE
  5
129
100
AcDbEntity
  8
BobbinLg
  6
ByLayer
 62
  256
370
   -1
100
AcDbLine
 10
179
 20
154.6
 11
121
 21
154.6
  0
LINE
  5
12A
100
AcDbEntity
  8
BobbinLg
  6
ByLayer
 62
  256
370
   -1
100
AcDbLine
 10
121
 20
154.6
 11
121
 21
101
  0
LINE
  5
12B
100
AcDbEntity
  8
BobbinLg
  6
ByLayer
 62
  256
370
   -1
100
AcDbLine
 10
179
 20
154.6
 11
179
 21
101
  0
LINE
  5
12C
100
AcDbEntity
  8
BobbinLg
  6
ByLayer
 62
  256
370
   -1
100
AcDbLine
 10
121
 20
175.4
 11
121
 21
229
  0
LINE
  5
12D
100
AcDbEntity
  8
BobbinLg
  6
ByLayer
 62
  256
370
   -1
100
AcDbLine
 10
179
 20
175.4
 11
179
 21
229
  0
LINE
  5
12E
100
AcDbEntity
  8
Base
  6
ByLayer
 62
  256
370
   -1
100
AcDbLine
 10
58
 20
100
 11
200
 21
100
  0
LINE
  5
12F
100
AcDbEntity
  8
Base
  6
ByLayer
 62
  256
370
   -1
100
AcDbLine
 10
200
 20
95
 11
58
 21
95
  0
LINE
  5
130
100
AcDbEntity
  8
Base
  6
ByLayer
 62
  256
370
   -1
100
AcDbLine
 10
58
 20
95
 11
58
 21
100
  0
LINE
  5
131
100
AcDbEntity
  8
Cones
  6
ByLayer
 62
  256
370
   -1
100
AcDbLine
 10
88
 20
168
 11
78
 21
168
  0
LINE
  5
132
100
AcDbEntity
  8
Cones
  6
ByLayer
 62
  256
370
   -1
100
AcDbLine
 10
88
 20
162
 11
78
 21
162
  0
LINE
  5
133
100
AcDbEntity
  8
Cones
  6
ByLayer
 62
  256
370
   -1
100
AcDbLine
 10
74
 20
168
 11
78
 21
168
  0
LINE
  5
134
100
AcDbEntity
  8
GrubScrews
  6
ByLayer
 62
  256
370
   -1
100
AcDbLine
 10
74
 20
174
 11
78
 21
174
  0
LINE
  5
135
100
AcDbEntity
  8
GrubScrews
  6
ByLayer
 62
  256
370
   -1
100
AcDbLine
 10
78
 20
174
 11
78
 21
169
  0
LINE
  5
136
100
AcDbEntity
  8
GrubScrews
  6
ByLayer
 62
  256
370
   -1
100
AcDbLine
 10
78
 20
169
 11
77
 21
168
  0
LINE
  5
137
100
AcDbEntity
  8
GrubScrews
  6
ByLayer
 62
  256
370
   -1
100
AcDbLine
 10
77
 20
168
 11
75
 21
168
  0
LINE
  5
138
100
AcDbEntity
  8
GrubScrews
  6
ByLayer
 62
  256
370
   -1
100
AcDbLine
 10
75
 20
168
 11
74
 21
169
  0
LINE
  5
139
100
AcDbEntity
  8
GrubScrews
  6
ByLayer
 62
  256
370
   -1
100
AcDbLine
 10
74
 20
169
 11
74
 21
174
  0
LINE
  5
13A
100
AcDbEntity
  8
Arms
  6
ByLayer
 62
  256
370
   -1
100
AcDbLine
 10
68
 20
100
 11
68
 21
180
  0
LINE
  5
13B
100
AcDbEntity
  8
Arms
  6
ByLayer
 62
  256
370
   -1
100
AcDbLine
 10
68
 20
180
 11
71
 21
180
  0
LINE
  5
13C
100
AcDbEntity
  8
SteelWasher
  6
ByLayer
 62
  256
370
   -1
100
AcDbLine
 10
68
 20
175
 11
66
 21
175
  0
LINE
  5
13D
100
AcDbEntity
  8
SteelWasher
  6
ByLayer
 62
  256
370
   -1
100
AcDbLine
 10
66
 20
175
 11
66
 21
155
  0
LINE
  5
13E
100
AcDbEntity
  8
SteelWasher
  6
ByLayer
 62
  256
370
   -1
100
AcDbLine
 10
66
 20
155
 11
68
 21
155
  0
LINE
  5
13F
100
AcDbEntity
  8
SteelWasher
  6
ByLayer
 62
  256
370
   -1
100
AcDbLine
 10
68
 20
155
 11
68
 21
175
  0
LINE
  5
140
100
AcDbEntity
  8
Cones
  6
ByLayer
 62
  256
370
   -1
100
AcDbLine
 10
74
 20
180
 11
74
 21
168
  0
LINE
  5
141
100
AcDbEntity
  8
Cones
  6
ByLayer
 62
  256
370
   -1
100
AcDbLine
 10
78
 20
168
 11
78
 21
180
  0
LINE
  5
142
100
AcDbEntity
  8
Cones
  6
ByLayer
 62
  256
370
   -1
100
AcDbLine
 10
72
 20
150
 11
80
 21
150
  0
LINE
  5
143
100
AcDbEntity
  8
Cones
  6
ByLayer
 62
  256
370
   -1
100
AcDbLine
 10
80
 20
180
 11
80
 21
150
  0
LINE
  5
144
100
AcDbEntity
  8
Cones
  6
ByLayer
 62
  256
370
   -1
100
AcDbLine
 10
80
 20
180
 11
72
 21
180
  0
LINE
  5
145
100
AcDbEntity
  8
Cones
  6
ByLayer
 62
  256
370
   -1
100
AcDbLine
 10
72
 20
180
 11
72
 21
150
  0
LINE
  5
146
100
AcDbEntity
  8
Cones
  6
ByLayer
 62
  256
370
   -1
100
AcDbLine
 10
97
 20
170
 11
97
 21
160
  0
LINE
  5
147
100
AcDbEntity
  8
Cones
  6
ByLayer
 62
  256
370
   -1
100
AcDbLine
 10
97
 20
160
 11
80
 21
150
  0
LINE
  5
148
100
AcDbEntity
  8
Cones
  6
ByLayer
 62
  256
370
   -1
100
AcDbLine
 10
97
 20
170
 11
80
 21
180
  0
LINE
  5
149
100
AcDbEntity
  8
Cones
  6
ByLayer
 62
  256
370
   -1
100
AcDbLine
 10
72
 20
168
 11
97
 21
168
  0
LINE
  5
14A
100
AcDbEntity
  8
Cones
  6
ByLayer
 62
  256
370
   -1
100
AcDbLine
 10
97
 20
162
 11
72
 21
162
  0
LINE
  5
14B
100
AcDbEntity
  8
Cones
  6
ByLayer
 62
  256
370
   -1
100
AcDbLine
 10
72
 20
162
 11
97
 21
162
  0
LINE
  5
14C
100
AcDbEntity
  8
Cones
  6
ByLayer
 62
  256
370
   -1
100
AcDbLine
 10
152
 20
168
 11
162
 21
168
  0
LINE
  5
14D
100
AcDbEntity
  8
Cones
  6
ByLayer
 62
  256
370
   -1
100
AcDbLine
 10
152
 20
162
 11
162
 21
162
  0
LINE
  5
14E
100
AcDbEntity
  8
Cones
  6
ByLayer
 62
  256
370
   -1
100
AcDbLine
 10
166
 20
168
 11
162
 21
168
  0
LINE
  5
14F
100
AcDbEntity
  8
Cones
  6
ByLayer
 62
  256
370
   -1
100
AcDbLine
 10
166
 20
180
 11
166
 21
168
  0
LINE
  5
150
100
AcDbEntity
  8
Cones
  6
ByLayer
 62
  256
370
   -1
100
AcDbLine
 10
162
 20
168
 11
162
 21
180
  0
LINE
  5
151
100
AcDbEntity
  8
Cones
  6
ByLayer
 62
  256
370
   -1
100
AcDbLine
 10
168
 20
150
 11
160
 21
150
  0
LINE
  5
152
100
AcDbEntity
  8
Cones
  6
ByLayer
 62
  256
370
   -1
100
AcDbLine
 10
160
 20
180
 11
160
 21
150
  0
LINE
  5
153
100
AcDbEntity
  8
Cones
  6
ByLayer
 62
  256
370
   -1
100
AcDbLine
 10
160
 20
180
 11
168
 21
180
  0
LINE
  5
154
100
AcDbEntity
  8
Cones
  6
ByLayer
 62
  256
370
   -1
100
AcDbLine
 10
168
 20
180
 11
168
 21
150
  0
LINE
  5
155
100
AcDbEntity
  8
Cones
  6
ByLayer
 62
  256
370
   -1
100
AcDbLine
 10
143
 20
170
 11
143
 21
160
  0
LINE
  5
156
100
AcDbEntity
  8
Cones
  6
ByLayer
 62
  256
370
   -1
100
AcDbLine
 10
143
 20
160
 11
160
 21
150
  0
LINE
  5
157
100
AcDbEntity
  8
Cones
  6
ByLayer
 62
  256
370
   -1
100
AcDbLine
 10
143
 20
170
 11
160
 21
180
  0
LINE
  5
158
100
AcDbEntity
  8
Cones
  6
ByLayer
 62
  256
370
   -1
100
AcDbLine
 10
168
 20
168
 11
143
 21
168
  0
LINE
  5
159
100
AcDbEntity
  8
Cones
  6
ByLayer
 62
  256
370
   -1
100
AcDbLine
 10
143
 20
162
 11
168
 21
162
  0
LINE
  5
15A
100
AcDbEntity
  8
Cones
  6
ByLayer
 62
  256
370
   -1
100
AcDbLine
 10
168
 20
162
 11
143
 21
162
  0
LINE
  5
15B
100
AcDbEntity
  8
GrubScrews
  6
ByLayer
 62
  256
370
   -1
100
AcDbLine
 10
162
 20
174
 11
166
 21
174
  0
LINE
  5
15C
100
AcDbEntity
  8
GrubScrews
  6
ByLayer
 62
  256
370
   -1
100
AcDbLine
 10
166
 20
174
 11
166
 21
169
  0
LINE
  5
15D
100
AcDbEntity
  8
GrubScrews
  6
ByLayer
 62
  256
370
   -1
100
AcDbLine
 10
166
 20
169
 11
165
 21
168
  0
LINE
  5
15E
100
AcDbEntity
  8
GrubScrews
  6
ByLayer
 62
  256
370
   -1
100
AcDbLine
 10
165
 20
168
 11
163
 21
168
  0
LINE
  5
15F
100
AcDbEntity
  8
GrubScrews
  6
ByLayer
 62
  256
370
   -1
100
AcDbLine
 10
163
 20
168
 11
162
 21
169
  0
LINE
  5
160
100
AcDbEntity
  8
GrubScrews
  6
ByLayer
 62
  256
370
   -1
100
AcDbLine
 10
162
 20
169
 11
162
 21
174
  0
ARC
  5
161
100
AcDbEntity
  8
Feet
  6
ByLayer
 62
  256
370
   -1
100
AcDbCircle
 10
68
 20
95
 40
3
100
AcDbArc
 50
180
 51
0
  0
LINE
  5
162
100
AcDbEntity
  8
Feet
  6
ByLayer
 62
  256
370
   -1
100
AcDbLine
 10
65
 20
95
 11
71
 21
95
  0
ARC
  5
163
100
AcDbEntity
  8
Feet
  6
ByLayer
 62
  256
370
   -1
100
AcDbCircle
 10
190
 20
95
 40
3
100
AcDbArc
 50
180
 51
0
  0
LINE
  5
164
100
AcDbEntity
  8
Feet
  6
ByLayer
 62
  256
370
   -1
100
AcDbLine
 10
187
 20
95
 11
193
 21
95
  0
ARC
  5
165
100
AcDbEntity
  8
Feet
  6
ByLayer
 62
  256
370
   -1
100
AcDbCircle
 10
310
 20
95
 40
3
100
AcDbArc
 50
180
 51
0
  0
LINE
  5
166
100
AcDbEntity
  8
Feet
  6
ByLayer
 62
  256
370
   -1
100
AcDbLine
 10
307
 20
95
 11
313
 21
95
  0
ARC
  5
167
100
AcDbEntity
  8
Feet
  6
ByLayer
 62
  256
370
   -1
100
AcDbCircle
 10
390
 20
95
 40
3
100
AcDbArc
 50
180
 51
0
  0
LINE
  5
168
100
AcDbEntity
  8
Feet
  6
ByLayer
 62
  256
370
   -1
100
AcDbLine
 10
387
 20
95
 11
393
 21
95
  0
LINE
  5
169
100
AcDbEntity
  8
WireRetainer
  6
ByLayer
 62
  256
370
   -1
100
AcDbLine
 10
120
 20
100
 11
140
 21
107
  0
LINE
  5
16A
100
AcDbEntity
  8
WireRetainer
  6
ByLayer
 62
  256
370
   -1
100
AcDbLine
 10
120
 20
107
 11
140
 21
100
  0
DIMENSION
  5
16B
100
AcDbEntity
  8
Dimms
  6
ByLayer
 62
  256
370
   -1
100
AcDbDimension
  2
*D1
 10
200
 20
70
 30
0
 11
129
 21
71.875
 31
0
 70
   32
 71
    5
 72
    0
  3
Standard
 53
0
210
0
220
0
230
1
100
AcDbAlignedDimension
 13
58
 23
80
 33
0
 14
200
 24
80
 34
0
100
AcDbRotatedDimension
  0
DIMENSION
  5
16C
100
AcDbEntity
  8
Dimms
  6
ByLayer
 62
  256
370
   -1
100
AcDbDimension
  2
*D2
 10
400
 20
70
 30
0
 11
350
 21
71.875
 31
0
 70
   32
 71
    5
 72
    0
  3
Standard
 53
0
210
0
220
0
230
1
100
AcDbAlignedDimension
 13
300
 23
80
 33
0
 14
400
 24
80
 34
0
100
AcDbRotatedDimension
  0
DIMENSION
  5
16D
100
AcDbEntity
  8
Dimms
  6
ByLayer
 62
  256
370
   -1
100
AcDbDimension
  2
*D3
 10
375
 20
85
 30
0
 11
350
 21
86.875
 31
0
 70
   32
 71
    5
 72
    0
  3
Standard
 53
0
210
0
220
0
230
1
100
AcDbAlignedDimension
 13
325
 23
80
 33
0
 14
375
 24
80
 34
0
100
AcDbRotatedDimension
  0
DIMENSION
  5
16E
100
AcDbEntity
  8
Dimms
  6
ByLayer
 62
  256
370
   -1
100
AcDbDimension
  2
*D4
 10
420
 20
180
 30
0
 11
418.125
 21
140
 31
0
 70
   32
 71
    5
 72
    0
  3
Standard
 53
0
210
0
220
0
230
1
100
AcDbAlignedDimension
 13
410
 23
100
 33
0
 14
410
 24
180
 34
0
 50
90
100
AcDbRotatedDimension
  0
DIMENSION
  5
16F
100
AcDbEntity
  8
Dimms
  6
ByLayer
 62
  256
370
   -1
100
AcDbDimension
  2
*D5
 10
405
 20
165
 30
0
 11
403.125
 21
132.5
 31
0
 70
   32
 71
    5
 72
    0
  3
Standard
 53
0
210
0
220
0
230
1
100
AcDbAlignedDimension
 13
410
 23
100
 33
0
 14
410
 24
165
 34
0
 50
90
100
AcDbRotatedDimension
  0
DIMENSION
  5
170
100
AcDbEntity
  8
Dimms
  6
ByLayer
 62
  256
370
   -1
100
AcDbDimension
  2
*D6
 10
350
 20
165
 30
0
 11
352.9560991824605
 21
170.60774961191
 31
0
 70
   36
 71
    5
 72
    0
  3
Standard
 53
0
210
0
220
0
230
1
100
AcDbRadialDimension
 15
352.1213203435597
 25
167.1213203435596
 35
0
 40
0
  0
DIMENSION
  5
171
100
AcDbEntity
  8
Dimms
  6
ByLayer
 62
  256
370
   -1
100
AcDbDimension
  2
*D7
 10
201
 20
200
 30
0
 11
133.5
 21
201.875
 31
0
 70
   32
 71
    5
 72
    0
  3
Standard
 53
0
210
0
220
0
230
1
100
AcDbAlignedDimension
 13
66
 23
190
 33
0
 14
201
 24
190
 34
0
100
AcDbRotatedDimension
  0
DIMENSION
  5
172
100
AcDbEntity
  8
Dimms2
  6
ByLayer
 62
  256
370
   -1
100
AcDbDimension
  2
*D8
 10
160
 20
130
 30
0
 11
151.5
 21
131.875
 31
0
 70
   32
 71
    5
 72
    0
  3
Standard
 53
0
210
0
220
0
230
1
100
AcDbAlignedDimension
 13
143
 23
140
 33
0
 14
160
 24
140
 34
0
100
AcDbRotatedDimension
  0
DIMENSION
  5
173
100
AcDbEntity
  8
Dimms2
  6
ByLayer
 62
  256
370
   -1
100
AcDbDimension
  2
*D9
 10
168
 20
130
 30
0
 11
164
 21
131.875
 31
0
 70
   32
 71
    5
 72
    0
  3
Standard
 53
0
210
0
220
0
230
1
100
AcDbAlignedDimension
 13
160
 23
140
 33
0
 14
168
 24
140
 34
0
100
AcDbRotatedDimension
  0
DIMENSION
  5
174
100
AcDbEntity
  8
Dimms2
  6
ByLayer
 62
  256
370
   -1
100
AcDbDimension
  2
*D10
 10
125
 20
150
 30
0
 11
123.125
 21
165
 31
0
 70
   32
 71
    5
 72
    0
  3
Standard
 53
0
210
0
220
0
230
1
100
AcDbAlignedDimension
 13
130
 23
180
 33
0
 14
130
 24
150
 34
0
 50
90
100
AcDbRotatedDimension
  0
DIMENSION
  5
175
100
AcDbEntity
  8
Dimms2
  6
ByLayer
 62
  256
370
   -1
100
AcDbDimension
  2
*D11
 10
130
 20
160
 30
0
 11
128.125
 21
165
 31
0
 70
   32
 71
    5
 72
    0
  3
Standard
 53
0
210
0
220
0
230
1
100
AcDbAlignedDimension
 13
130
 23
170
 33
0
 14
130
 24
160
 34
0
 50
90
100
AcDbRotatedDimension
  0
DIMENSION
  5
176
100
AcDbEntity
  8
Dimms2
  6
ByLayer
 62
  256
370
   -1
100
AcDbDimension
  2
*D12
 10
166
 20
190
 30
0
 11
164
 21
191.875
 31
0
 70
   32
 71
    5
 72
    0
  3
Standard
 53
0
210
0
220
0
230
1
100
AcDbAlignedDimension
 13
162
 23
185
 33
0
 14
166
 24
185
 34
0
100
AcDbRotatedDimension
  0
DIMENSION
  5
177
100
AcDbEntity
  8
Dimms2
  6
ByLayer
 62
  256
370
   -1
100
AcDbDimension
  2
*D13
 10
66
 20
168
 30
0
 11
0
 21
0
 31
0
 70
   34
 71
    5
 72
    0
  3
Standard
 53
0
210
0
220
0
230
1
100
AcDb2LineAngularDimension
 13
143
 23
170
 33
0
 14
160
 24
180
 34
0
 15
200
 25
168
 35
0
 16
180
 26
180
 36
0
  0
DIMENSION
  5
178
100
AcDbEntity
  8
Dimms
  6
ByLayer
 62
  256
370
   -1
100
AcDbDimension
  2
*D14
 10
365
 20
195
 30
0
 11
350
 21
196.875
 31
0
 70
   32
 71
    5
  3
Standard
 53
0
210
0
220
0
230
1
100
AcDbAlignedDimension
 13
335
 23
190
 33
0
 14
365
 24
190
 34
0
100
AcDbRotatedDimension
  0
DIMENSION
  5
179
100
AcDbEntity
  8
Dimms
  6
ByLayer
 62
  256
370
   -1
100
AcDbDimension
  2
*D15
 10
350
 20
165
 30
0
 11
346.0225243558257
 21
171.6291260736239
 31
0
 70
   36
 71
    5
  3
Standard
 53
0
210
0
220
0
230
1
100
AcDbRadialDimension
 15
339.3933982822018
 25
175.6066017177982
 35
0
 40
0
  0
LINE
  5
17A
100
AcDbEntity
  8
Arms
  6
ByLayer
 62
  256
370
   -1
100
AcDbLine
 10
71
 20
103
 11
88
 21
103
  0
LINE
  5
17B
100
AcDbEntity
  8
Arms
  6
ByLayer
 62
  256
370
   -1
100
AcDbLine
 10
88
 20
103
 11
88
 21
100
  0
LINE
  5
17C
100
AcDbEntity
  8
Arms
  6
ByLayer
 62
  256
370
   -1
100
AcDbLine
 10
88
 20
100
 11
68
 21
100
  0
LINE
  5
17D
100
AcDbEntity
  8
Arms
  6
ByLayer
 62
  256
370
   -1
100
AcDbLine
 10
187
 20
103
 11
170
 21
103
  0
LINE
  5
17E
100
AcDbEntity
  8
Arms
  6
ByLayer
 62
  256
370
   -1
100
AcDbLine
 10
170
 20
103
 11
170
 21
100
  0
LINE
  5
17F
100
AcDbEntity
  8
Arms
  6
ByLayer
 62
  256
370
   -1
100
AcDbLine
 10
170
 20
100
 11
190
 21
100
  0
LINE
  5
180
100
AcDbEntity
  8
Arms
  6
ByLayer
 62
  256
370
   -1
100
AcDbLine
 10
71
 20
180
 11
71
 21
103
  0
LINE
  5
181
100
AcDbEntity
  8
Arms
  6
ByLayer
 62
  256
370
   -1
100
AcDbLine
 10
187
 20
180
 11
187
 21
103
  0
LINE
  5
182
100
AcDbEntity
  8
Bolts
  6
ByLayer
 62
  256
370
   -1
100
AcDbLine
 10
82
 20
103
 11
82
 21
95
  0
LINE
  5
183
100
AcDbEntity
  8
Bolts
  6
ByLayer
 62
  256
370
   -1
100
AcDbLine
 10
78
 20
95
 11
78
 21
103
  0
ARC
  5
184
100
AcDbEntity
  8
Bolts
  6
ByLayer
 62
  256
370
   -1
100
AcDbCircle
 10
80
 20
98
 40
7
100
AcDbArc
 50
45
 51
135
  0
ARC
  5
185
100
AcDbEntity
  8
Bolts
  6
ByLayer
 62
  256
370
   -1
100
AcDbCircle
 10
80
 20
101
 40
6.324555320336759
100
AcDbArc
 50
251.565051177078
 51
288.434948822922
  0
LINE
  5
186
100
AcDbEntity
  8
Bolts
  6
ByLayer
 62
  256
370
   -1
100
AcDbLine
 10
75
 20
103
 11
85
 21
103
  0
LINE
  5
187
100
AcDbEntity
  8
Bolts
  6
ByLayer
 62
  256
370
   -1
100
AcDbLine
 10
180
 20
103
 11
180
 21
95
  0
LINE
  5
188
100
AcDbEntity
  8
Bolts
  6
ByLayer
 62
  256
370
   -1
100
AcDbLine
 10
176
 20
95
 11
176
 21
103
  0
ARC
  5
189
100
AcDbEntity
  8
Bolts
  6
ByLayer
 62
  256
370
   -1
100
AcDbCircle
 10
178
 20
98
 40
7
100
AcDbArc
 50
45
 51
135
  0
ARC
  5
18A
100
AcDbEntity
  8
Bolts
  6
ByLayer
 62
  256
370
   -1
100
AcDbCircle
 10
178
 20
101
 40
6.324555320336759
100
AcDbArc
 50
251.565051177078
 51
288.434948822922
  0
LINE
  5
18B
100
AcDbEntity
  8
Bolts
  6
ByLayer
 62
  256
370
   -1
100
AcDbLine
 10
173
 20
103
 11
183
 21
103
  0
DIMENSION
  5
18C
100
AcDbEntity
  8
Dimms
  6
ByLayer
 62
  256
370
   -1
100
AcDbDimension
  2
*D16
 10
190
 20
195
 30
0
 11
129
 21
196.875
 31
0
 70
   32
 71
    5
 72
    0
  3
Standard
 53
0
210
0
220
0
230
1
100
AcDbAlignedDimension
 13
68
 23
190
 33
0
 14
190
 24
190
 34
0
100
AcDbRotatedDimension
  0
LINE
  5
18D
100
AcDbEntity
  8
Arms
  6
ByLayer
 62
  256
370
   -1
100
AcDbLine
 10
325
 20
100
 11
325
 21
103
  0
LINE
  5
18E
100
AcDbEntity
  8
Arms
  6
ByLayer
 62
  256
370
   -1
100
AcDbLine
 10
325
 20
103
 11
375
 21
103
  0
LINE
  5
18F
100
AcDbEntity
  8
Arms
  6
ByLayer
 62
  256
370
   -1
100
AcDbLine
 10
375
 20
103
 11
375
 21
100
  0
LINE
  5
190
100
AcDbEntity
  8
Bolts
  6
ByLayer
 62
  256
370
   -1
100
AcDbLine
 10
337
 20
103
 11
337
 21
95
  0
LINE
  5
191
100
AcDbEntity
  8
Bolts
  6
ByLayer
 62
  256
370
   -1
100
AcDbLine
 10
333
 20
95
 11
333
 21
103
  0
ARC
  5
192
100
AcDbEntity
  8
Bolts
  6
ByLayer
 62
  256
370
   -1
100
AcDbCircle
 10
335
 20
98
 40
7
100
AcDbArc
 50
45
 51
135
  0
ARC
  5
193
100
AcDbEntity
  8
Bolts
  6
ByLayer
 62
  256
370
   -1
100
AcDbCircle
 10
335
 20
101
 40
6.324555320336759
100
AcDbArc
 50
251.565051177078
 51
288.434948822922
  0
LINE
  5
194
100
AcDbEntity
  8
Bolts
  6
ByLayer
 62
  256
370
   -1
100
AcDbLine
 10
330
 20
103
 11
340
 21
103
  0
LINE
  5
195
100
AcDbEntity
  8
Bolts
  6
ByLayer
 62
  256
370
   -1
100
AcDbLine
 10
367
 20
103
 11
367
 21
95
  0
LINE
  5
196
100
AcDbEntity
  8
Bolts
  6
ByLayer
 62
  256
370
   -1
100
AcDbLine
 10
363
 20
95
 11
363
 21
103
  0
ARC
  5
197
100
AcDbEntity
  8
Bolts
  6
ByLayer
 62
  256
370
   -1
100
AcDbCircle
 10
365
 20
98
 40
7
100
AcDbArc
 50
45
 51
135
  0
ARC
  5
198
100
AcDbEntity
  8
Bolts
  6
ByLayer
 62
  256
370
   -1
100
AcDbCircle
 10
365
 20
101
 40
6.324555320336759
100
AcDbArc
 50
251.565051177078
 51
288.434948822922
  0
LINE
  5
199
100
AcDbEntity
  8
Bolts
  6
ByLayer
 62
  256
370
   -1
100
AcDbLine
 10
360
 20
103
 11
370
 21
103
  0
DIMENSION
  5
19A
100
AcDbEntity
  8
Dimms
  6
ByLayer
 62
  256
370
   -1
100
AcDbDimension
  2
*D17
 10
365
 20
74
 30
0
 11
350
 21
75.875
 31
0
 70
   32
 71
    5
 72
    0
  3
Standard
 53
0
210
0
220
0
230
1
100
AcDbAlignedDimension
 13
335
 23
80
 33
0
 14
365
 24
80
 34
0
100
AcDbRotatedDimension
  0
DIMENSION
  5
19B
100
AcDbEntity
  8
Dimms
  6
ByLayer
 62
  256
370
   -1
100
AcDbDimension
  2
*D18
 10
178
 20
85
 30
0
 11
189
 21
86.875
 31
0
 70
   32
 71
    5
  3
Standard
 53
0
210
0
220
0
230
1
100
AcDbAlignedDimension
 13
200
 23
90
 33
0
 14
178
 24
90
 34
0
100
AcDbRotatedDimension
  0
ARC
  5
19C
100
AcDbEntity
  8
Axle
  6
ByLayer
 62
  256
370
   -1
100
AcDbCircle
 10
58
 20
174
 40
6
100
AcDbArc
 50
180
 51
270
  0
ARC
  5
19D
100
AcDbEntity
  8
Axle
  6
ByLayer
 62
  256
370
   -1
100
AcDbCircle
 10
58
 20
174
 40
12
100
AcDbArc
 50
180
 51
270
  0
LINE
  5
19E
100
AcDbEntity
  8
Collar
  6
ByLayer
 62
  256
370
   -1
100
AcDbLine
 10
60
 20
168
 11
64
 21
168
  0
LINE
  5
19F
100
AcDbEntity
  8
Collar
  6
ByLayer
 62
  256
370
   -1
100
AcDbLine
 10
63
 20
168
 11
61
 21
168
  0
LINE
  5
1A0
100
AcDbEntity
  8
GrubScrews
  6
ByLayer
 62
  256
370
   -1
100
AcDbLine
 10
60
 20
174
 11
64
 21
174
  0
LINE
  5
1A1
100
AcDbEntity
  8
GrubScrews
  6
ByLayer
 62
  256
370
   -1
100
AcDbLine
 10
64
 20
174
 11
64
 21
169
  0
LINE
  5
1A2
100
AcDbEntity
  8
GrubScrews
  6
ByLayer
 62
  256
370
   -1
100
AcDbLine
 10
64
 20
169
 11
63
 21
168
  0
LINE
  5
1A3
100
AcDbEntity
  8
GrubScrews
  6
ByLayer
 62
  256
370
   -1
100
AcDbLine
 10
61
 20
168
 11
60
 21
169
  0
LINE
  5
1A4
100
AcDbEntity
  8
GrubScrews
  6
ByLayer
 62
  256
370
   -1
100
AcDbLine
 10
60
 20
169
 11
60
 21
174
  0
LINE
  5
1A5
100
AcDbEntity
  8
Collar
  6
ByLayer
 62
  256
370
   -1
100
AcDbLine
 10
58
 20
156
 11
66
 21
156
  0
LINE
  5
1A6
100
AcDbEntity
  8
Collar
  6
ByLayer
 62
  256
370
   -1
100
AcDbLine
 10
66
 20
174
 11
66
 21
156
  0
LINE
  5
1A7
100
AcDbEntity
  8
Collar
  6
ByLayer
 62
  256
370
   -1
100
AcDbLine
 10
66
 20
174
 11
58
 21
174
  0
LINE
  5
1A8
100
AcDbEntity
  8
Collar
  6
ByLayer
 62
  256
370
   -1
100
AcDbLine
 10
58
 20
174
 11
58
 21
156
  0
LINE
  5
1A9
100
AcDbEntity
  8
Collar
  6
ByLayer
 62
  256
370
   -1
100
AcDbLine
 10
64
 20
168
 11
64
 21
174
  0
LINE
  5
1AA
100
AcDbEntity
  8
Collar
  6
ByLayer
 62
  256
370
   -1
100
AcDbLine
 10
60
 20
174
 11
60
 21
168
  0
LINE
  5
1AB
100
AcDbEntity
  8
Axle
  6
ByLayer
 62
  256
370
   -1
100
AcDbLine
 10
52
 20
174
 11
52
 21
190
  0
LINE
  5
1AC
100
AcDbEntity
  8
Axle
  6
ByLayer
 62
  256
370
   -1
100
AcDbLine
 10
46
 20
174
 11
46
 21
190
  0
ARC
  5
1AD
100
AcDbEntity
  8
Axle
  6
ByLayer
 62
  256
370
   -1
100
AcDbCircle
 10
40
 20
190
 40
6
100
AcDbArc
 50
0
 51
90
  0
ARC
  5
1AE
100
AcDbEntity
  8
Axle
  6
ByLayer
 62
  256
370
   -1
100
AcDbCircle
 10
40
 20
190
 40
12
100
AcDbArc
 50
0
 51
90
  0
LINE
  5
1AF
100
AcDbEntity
  8
Axle
  6
ByLayer
 62
  256
370
   -1
100
AcDbLine
 10
40
 20
202
 11
10
 21
202
  0
LINE
  5
1B0
100
AcDbEntity
  8
Axle
  6
ByLayer
 62
  256
370
   -1
100
AcDbLine
 10
10
 20
196
 11
40
 21
196
  0
DIMENSION
  5
1B1
100
AcDbEntity
  8
Dimms
  6
ByLayer
 62
  256
370
   -1
100
AcDbDimension
  2
*D19
 10
260
 20
180
 30
0
 11
258.125
 21
140
 31
0
 70
   32
 71
    5
 72
    0
  3
Standard
 53
0
210
0
220
0
230
1
100
AcDbAlignedDimension
 13
250
 23
100
 33
0
 14
250
 24
180
 34
0
 50
90
100
AcDbRotatedDimension
  0
DIMENSION
  5
1B2
100
AcDbEntity
  8
Dimms
  6
ByLayer
 62
  256
370
   -1
100
AcDbDimension
  2
*D20
 10
245
 20
165
 30
0
 11
243.125
 21
132.5
 31
0
 70
   32
 71
    5
 72
    0
  3
Standard
 53
0
210
0
220
0
230
1
100
AcDbAlignedDimension
 13
250
 23
100
 33
0
 14
250
 24
165
 34
0
 50
90
100
AcDbRotatedDimension
  0
ARC
  5
1B3
100
AcDbEntity
  8
Axle
  6
ByLayer
 62
  256
370
   -1
100
AcDbCircle
 10
19
 20
199
 40
9.486832980505138
100
AcDbArc
 50
161.565051177078
 51
198.434948822922
  0
LINE
  5
1B4
100
AcDbEntity
  8
Collar
  6
ByLayer
 62
  256
370
   -1
100
AcDbLine
 10
66
 20
168
 11
58
 21
168
  0
LINE
  5
1B5
100
AcDbEntity
  8
Collar
  6
ByLayer
 62
  256
370
   -1
100
AcDbLine
 10
66
 20
162
 11
58
 21
162
  0
LINE
  5
1B6
100
AcDbEntity
  8
GrubScrews
  6
ByLayer
 62
  256
370
   -1
100
AcDbLine
 10
61
 20
168
 11
63
 21
168
  0
LINE
  5
1B7
100
AcDbEntity
  8
Arms
  6
ByLayer
 62
  256
370
   -1
100
AcDbLine
 10
375
 20
100
 11
325
 21
100
  0
LINE
  5
1B8
100
AcDbEntity
  8
SteelWasher
  6
ByLayer
 62
  256
370
   -1
100
AcDbLine
 10
196
 20
175
 11
194
 21
175
  0
LINE
  5
1B9
100
AcDbEntity
  8
SteelWasher
  6
ByLayer
 62
  256
370
   -1
100
AcDbLine
 10
194
 20
175
 11
194
 21
155
  0
LINE
  5
1BA
100
AcDbEntity
  8
SteelWasher
  6
ByLayer
 62
  256
370
   -1
100
AcDbLine
 10
194
 20
155
 11
196
 21
155
  0
LINE
  5
1BB
100
AcDbEntity
  8
SteelWasher
  6
ByLayer
 62
  256
370
   -1
100
AcDbLine
 10
196
 20
155
 11
196
 21
175
  0
LINE
  5
1BC
100
AcDbEntity
  8
FeltWasher
  6
ByLayer
 62
  256
370
   -1
100
AcDbLine
 10
194
 20
175
 11
192
 21
175
  0
LINE
  5
1BD
100
AcDbEntity
  8
FeltWasher
  6
ByLayer
 62
  256
370
   -1
100
AcDbLine
 10
192
 20
175
 11
192
 21
155
  0
LINE
  5
1BE
100
AcDbEntity
  8
FeltWasher
  6
ByLayer
 62
  256
370
   -1
100
AcDbLine
 10
192
 20
155
 11
194
 21
155
  0
LINE
  5
1BF
100
AcDbEntity
  8
FeltWasher
  6
ByLayer
 62
  256
370
   -1
100
AcDbLine
 10
194
 20
155
 11
194
 21
175
  0
LINE
  5
1C0
100
AcDbEntity
  8
SteelWasher
  6
ByLayer
 62
  256
370
   -1
100
AcDbLine
 10
192
 20
175
 11
190
 21
175
  0
LINE
  5
1C1
100
AcDbEntity
  8
SteelWasher
  6
ByLayer
 62
  256
370
   -1
100
AcDbLine
 10
190
 20
175
 11
190
 21
155
  0
LINE
  5
1C2
100
AcDbEntity
  8
SteelWasher
  6
ByLayer
 62
  256
370
   -1
100
AcDbLine
 10
190
 20
155
 11
192
 21
155
  0
LINE
  5
1C3
100
AcDbEntity
  8
SteelWasher
  6
ByLayer
 62
  256
370
   -1
100
AcDbLine
 10
192
 20
155
 11
192
 21
175
  0
CIRCLE
  5
1C4
100
AcDbEntity
  8
Spring
  6
ByLayer
 62
  256
370
   -1
100
AcDbCircle
 10
204
 20
168.5
 40
0.5
  0
CIRCLE
  5
1C5
100
AcDbEntity
  8
Spring
  6
ByLayer
 62
  256
370
   -1
100
AcDbCircle
 10
203
 20
168.5
 40
0.5
  0
CIRCLE
  5
1C6
100
AcDbEntity
  8
Spring
  6
ByLayer
 62
  256
370
   -1
100
AcDbCircle
 10
196.5
 20
173.5
 40
0.5
  0
CIRCLE
  5
1C7
100
AcDbEntity
  8
Spring
  6
ByLayer
 62
  256
370
   -1
100
AcDbCircle
 10
197.5
 20
173.5
 40
0.5
  0
CIRCLE
  5
1C8
100
AcDbEntity
  8
Spring
  6
ByLayer
 62
  256
370
   -1
100
AcDbCircle
 10
199
 20
172
 40
0.5
  0
CIRCLE
  5
1C9
100
AcDbEntity
  8
Spring
  6
ByLayer
 62
  256
370
   -1
100
AcDbCircle
 10
201
 20
170
 40
0.5
  0
CIRCLE
  5
1CA
100
AcDbEntity
  8
Spring
  6
ByLayer
 62
  256
370
   -1
100
AcDbCircle
 10
204
 20
161.5
 40
0.5
  0
CIRCLE
  5
1CB
100
AcDbEntity
  8
Spring
  6
ByLayer
 62
  256
370
   -1
100
AcDbCircle
 10
203
 20
161.5
 40
0.5
  0
CIRCLE
  5
1CC
100
AcDbEntity
  8
Spring
  6
ByLayer
 62
  256
370
   -1
100
AcDbCircle
 10
196.5
 20
156.5
 40
0.5
  0
CIRCLE
  5
1CD
100
AcDbEntity
  8
Spring
  6
ByLayer
 62
  256
370
   -1
100
AcDbCircle
 10
197.5
 20
156.5
 40
0.5
  0
CIRCLE
  5
1CE
100
AcDbEntity
  8
Spring
  6
ByLayer
 62
  256
370
   -1
100
AcDbCircle
 10
199
 20
158
 40
0.5
  0
CIRCLE
  5
1CF
100
AcDbEntity
  8
Spring
  6
ByLayer
 62
  256
370
   -1
100
AcDbCircle
 10
201
 20
160
 40
0.5
  0
LINE
  5
1D0
100
AcDbEntity
  8
SteelWasher
  6
ByLayer
 62
  256
370
   -1
100
AcDbLine
 10
205
 20
158
 11
206
 21
158
  0
LINE
  5
1D1
100
AcDbEntity
  8
SteelWasher
  6
ByLayer
 62
  256
370
   -1
100
AcDbLine
 10
206
 20
158
 11
206
 21
172
  0
LINE
  5
1D2
100
AcDbEntity
  8
SteelWasher
  6
ByLayer
 62
  256
370
   -1
100
AcDbLine
 10
206
 20
172
 11
205
 21
172
  0
LINE
  5
1D3
100
AcDbEntity
  8
SteelWasher
  6
ByLayer
 62
  256
370
   -1
100
AcDbLine
 10
205
 20
172
 11
205
 21
158
  0
LINE
  5
1D4
100
AcDbEntity
  8
ThumbNut
  6
ByLayer
 62
  256
370
   -1
100
AcDbLine
 10
206
 20
171
 11
210
 21
171
  0
LINE
  5
1D5
100
AcDbEntity
  8
ThumbNut
  6
ByLayer
 62
  256
370
   -1
100
AcDbLine
 10
206
 20
159
 11
206
 21
171
  0
LINE
  5
1D6
100
AcDbEntity
  8
ThumbNut
  6
ByLayer
 62
  256
370
   -1
100
AcDbLine
 10
210
 20
171
 11
210
 21
159
  0
LINE
  5
1D7
100
AcDbEntity
  8
ThumbNut
  6
ByLayer
 62
  256
370
   -1
100
AcDbLine
 10
210
 20
159
 11
206
 21
159
  0
LINE
  5
1D8
100
AcDbEntity
  8
ThumbNut
  6
ByLayer
 62
  256
370
   -1
100
AcDbLine
 10
210
 20
171
 11
210
 21
180
  0
LINE
  5
1D9
100
AcDbEntity
  8
ThumbNut
  6
ByLayer
 62
  256
370
   -1
100
AcDbLine
 10
210
 20
180
 11
218
 21
180
  0
LINE
  5
1DA
100
AcDbEntity
  8
ThumbNut
  6
ByLayer
 62
  256
370
   -1
100
AcDbLine
 10
218
 20
180
 11
218
 21
150
  0
LINE
  5
1DB
100
AcDbEntity
  8
ThumbNut
  6
ByLayer
 62
  256
370
   -1
100
AcDbLine
 10
218
 20
150
 11
210
 21
150
  0
LINE
  5
1DC
100
AcDbEntity
  8
ThumbNut
  6
ByLayer
 62
  256
370
   -1
100
AcDbLine
 10
210
 20
150
 11
210
 21
171
  0
LINE
  5
1DD
100
AcDbEntity
  8
ThumbNut
  6
ByLayer
 62
  256
370
   -1
100
AcDbLine
 10
210
 20
168
 11
218
 21
168
  0
LINE
  5
1DE
100
AcDbEntity
  8
ThumbNut
  6
ByLayer
 62
  256
370
   -1
100
AcDbLine
 10
218
 20
162
 11
210
 21
162
  0
LINE
  5
1DF
100
AcDbEntity
  8
Axle
  6
ByLayer
 62
  256
370
   -1
100
AcDbLine
 10
58
 20
162
 11
219
 21
162
  0
LINE
  5
1E0
100
AcDbEntity
  8
Axle
  6
ByLayer
 62
  256
370
   -1
100
AcDbLine
 10
219
 20
168
 11
58
 21
168
  0
ARC
  5
1E1
100
AcDbEntity
  8
Axle
  6
ByLayer
 62
  256
370
   -1
100
AcDbCircle
 10
211
 20
165
 40
8.544003745317552
100
AcDbArc
 50
339.4439547804166
 51
20.55604521958341
  0
ENDSEC
  0
SECTION
  2
OBJECTS
  0
DICTIONARY
  5
C
330
0
100
AcDbDictionary
281
    1
  3
ACAD_GROUP
350
D
  0
DICTIONARY
  5
D
330
C
100
AcDbDictionary
281
    1
  0
ENDSEC
  0
EOF
