999
dxfrw 0.6.1
  0
SECTION
  2
HEADER
  9
$ACADVER
  1
AC1021
  9
$DWGCODEPAGE
  3
ANSI_1252
  9
$INSBASE
 10
0
 20
0
 30
0
  9
$EXTMIN
 10
-67.8125
 20
56.875
 30
0
  9
$EXTMAX
 10
187.8125000000001
 20
157.8125
 30
0
  9
$LIMMIN
 10
0
 20
0
  9
$LIMMAX
 10
420
 20
297
  9
$ORTHOMODE
 70
    0
  9
$REGENMODE
 70
    1
  9
$FILLMODE
 70
    1
  9
$QTEXTMODE
 70
    0
  9
$MIRRTEXT
 70
    0
  9
$LTSCALE
 40
1
  9
$ATTMODE
 70
    0
  9
$TEXTSIZE
 40
2.5
  9
$TRACEWID
 40
15.68
  9
$TEXTSTYLE
  7
STANDARD
  9
$CLAYER
  8
Dims
  9
$CELTYPE
  6
BYLAYER
  9
$CECOLOR
 62
  256
  9
$CELTSCALE
 40
1
  9
$DISPSILH
 70
    0
  9
$DIMSCALE
 40
2.5
  9
$DIMASZ
 40
2.5
  9
$DIMEXO
 40
0.625
  9
$DIMDLI
 40
3.75
  9
$DIMRND
 40
0
  9
$DIMDLE
 40
0
  9
$DIMEXE
 40
1.25
  9
$DIMTP
 40
0
  9
$DIMTM
 40
0
  9
$DIMTXT
 40
2.5
  9
$DIMCEN
 40
2.5
  9
$DIMTSZ
 40
0
  9
$DIMTOL
 70
    0
  9
$DIMLIM
 70
    0
  9
$DIMTIH
 70
    0
  9
$DIMTOH
 70
    0
  9
$DIMSE1
 70
    0
  9
$DIMSE2
 70
    0
  9
$DIMTAD
 70
    1
  9
$DIMZIN
 70
    8
  9
$DIMBLK
  1

  9
$DIMASO
 70
    1
  9
$DIMSHO
 70
    1
  9
$DIMPOST
  1

  9
$DIMAPOST
  1

  9
$DIMALT
 70
    0
  9
$DIMALTD
 70
    3
  9
$DIMALTF
 40
0.03937
  9
$DIMLFAC
 40
1
  9
$DIMTOFL
 70
    1
  9
$DIMTVP
 40
0
  9
$DIMTIX
 70
    0
  9
$DIMSOXD
 70
    0
  9
$DIMSAH
 70
    0
  9
$DIMBLK1
  1

  9
$DIMBLK2
  1

  9
$DIMSTYLE
  2
Standard
  9
$DIMCLRD
 70
    0
  9
$DIMCLRE
 70
    0
  9
$DIMCLRT
 70
    0
  9
$DIMTFAC
 40
1
  9
$DIMGAP
 40
0.625
  9
$DIMJUST
 70
    0
  9
$DIMSD1
 70
    0
  9
$DIMSD2
 70
    0
  9
$DIMTOLJ
 70
    0
  9
$DIMTZIN
 70
    8
  9
$DIMALTZ
 70
    0
  9
$DIMALTTZ
 70
    0
  9
$DIMUPT
 70
    0
  9
$DIMDEC
 70
    0
  9
$DIMTDEC
 70
    2
  9
$DIMALTU
 70
    2
  9
$DIMALTTD
 70
    3
  9
$DIMTXSTY
  7
standard
  9
$DIMAUNIT
 70
    0
  9
$DIMADEC
 70
    0
  9
$DIMALTRND
 40
0
  9
$DIMAZIN
 70
    0
  9
$DIMDSEP
 70
   44
  9
$DIMATFIT
 70
    3
  9
$DIMFRAC
 70
    0
  9
$DIMLDRBLK
  1
STANDARD
  9
$DIMLUNIT
 70
    2
  9
$DIMLWD
 70
   -2
  9
$DIMLWE
 70
   -2
  9
$DIMTMOVE
 70
    0
  9
$DIMFXL
 40
1
  9
$DIMFXLON
 70
    0
  9
$DIMJOGANG
 40
0.7854
  9
$DIMTFILL
 70
    0
  9
$DIMTFILLCLR
 70
    0
  9
$DIMARCSYM
 70
    0
  9
$DIMLTYPE
  6

  9
$DIMLTEX1
  6

  9
$DIMLTEX2
  6

  9
$LUNITS
 70
    2
  9
$LUPREC
 70
    2
  9
$SKETCHINC
 40
1
  9
$FILLETRAD
 40
0
  9
$AUNITS
 70
    0
  9
$AUPREC
 70
    2
  9
$MENU
  1
.
  9
$ELEVATION
 40
0
  9
$PELEVATION
 40
0
  9
$THICKNESS
 40
0
  9
$LIMCHECK
 70
    0
  9
$CHAMFERA
 40
0
  9
$CHAMFERB
 40
0
  9
$CHAMFERC
 40
0
  9
$CHAMFERD
 40
0
  9
$SKPOLY
 70
    0
  9
$USRTIMER
 70
    1
  9
$ANGBASE
 50
0
  9
$ANGDIR
 70
    0
  9
$PDMODE
 70
   34
  9
$PDSIZE
 40
0
  9
$PLINEWID
 40
0
  9
$SPLFRAME
 70
    0
  9
$SPLINETYPE
 70
    2
  9
$SPLINESEGS
 70
    8
  9
$HANDSEED
  5
20000
  9
$SURFTAB1
 70
    6
  9
$SURFTAB2
 70
    6
  9
$SURFTYPE
 70
    6
  9
$SURFU
 70
    6
  9
$SURFV
 70
    6
  9
$UCSBASE
  2

  9
$UCSNAME
  2

  9
$UCSORG
 10
0
 20
0
 30
0
  9
$UCSXDIR
 10
1
 20
0
 30
0
  9
$UCSYDIR
 10
0
 20
1
 30
0
  9
$UCSORTHOREF
  2

  9
$UCSORTHOVIEW
 70
    0
  9
$UCSORGTOP
 10
0
 20
0
 30
0
  9
$UCSORGBOTTOM
 10
0
 20
0
 30
0
  9
$UCSORGLEFT
 10
0
 20
0
 30
0
  9
$UCSORGRIGHT
 10
0
 20
0
 30
0
  9
$UCSORGFRONT
 10
0
 20
0
 30
0
  9
$UCSORGBACK
 10
0
 20
0
 30
0
  9
$PUCSBASE
  2

  9
$PUCSNAME
  2

  9
$PUCSORG
 10
0
 20
0
 30
0
  9
$PUCSXDIR
 10
1
 20
0
 30
0
  9
$PUCSYDIR
 10
0
 20
1
 30
0
  9
$PUCSORTHOREF
  2

  9
$PUCSORTHOVIEW
 70
    0
  9
$PUCSORGTOP
 10
0
 20
0
 30
0
  9
$PUCSORGBOTTOM
 10
0
 20
0
 30
0
  9
$PUCSORGLEFT
 10
0
 20
0
 30
0
  9
$PUCSORGRIGHT
 10
0
 20
0
 30
0
  9
$PUCSORGFRONT
 10
0
 20
0
 30
0
  9
$PUCSORGBACK
 10
0
 20
0
 30
0
  9
$USERI1
 70
    0
  9
$USERI2
 70
    0
  9
$USERI3
 70
    0
  9
$USERI4
 70
    0
  9
$USERI5
 70
    0
  9
$USERR1
 40
0
  9
$USERR2
 40
0
  9
$USERR3
 40
0
  9
$USERR4
 40
0
  9
$USERR5
 40
0
  9
$WORLDVIEW
 70
    1
  9
$SHADEDGE
 70
    3
  9
$SHADEDIF
 70
   70
  9
$TILEMODE
 70
    1
  9
$MAXACTVP
 70
   64
  9
$PINSBASE
 10
91.72684563758389
 20
-20.41208053691274
 30
0
  9
$PLIMCHECK
 70
    0
  9
$PEXTMIN
 10
0
 20
0
 30
0
  9
$PEXTMAX
 10
0
 20
0
 30
0
  9
$GRIDMODE
 70
    1
  9
$SNAPSTYLE
 70
    0
  9
$GRIDUNIT
 10
0
 20
0
  9
$PLIMMIN
 10
0
 20
0
  9
$PLIMMAX
 10
297
 20
210
  9
$UNITMODE
 70
    0
  9
$VISRETAIN
 70
    1
  9
$PLINEGEN
 70
    0
  9
$PSLTSCALE
 70
    1
  9
$TREEDEPTH
 70
 3020
  9
$CMLSTYLE
  2
Standard
  9
$CMLJUST
 70
    0
  9
$CMLSCALE
 40
20
  9
$PROXYGRAPHICS
 70
    1
  9
$MEASUREMENT
 70
    1
  9
$CELWEIGHT
370
   -1
  9
$ENDCAPS
280
    0
  9
$JOINSTYLE
280
    0
  9
$LWDISPLAY
290
    0
  9
$INSUNITS
 70
    4
  9
$HYPERLINKBASE
  1

  9
$STYLESHEET
  1

  9
$XEDIT
290
    1
  9
$CEPSNTYPE
380
    0
  9
$PSTYLEMODE
290
    1
  9
$EXTNAMES
290
    1
  9
$PSVPSCALE
 40
1.16832
  9
$OLESTARTUP
290
    0
  9
$SORTENTS
280
  127
  9
$INDEXCTL
280
    0
  9
$HIDETEXT
280
    1
  9
$XCLIPFRAME
290
    0
  9
$HALOGAP
280
    0
  9
$OBSCOLOR
 70
  257
  9
$OBSLTYPE
280
    0
  9
$INTERSECTIONDISPLAY
280
    0
  9
$INTERSECTIONCOLOR
 70
  257
  9
$DIMASSOC
280
    0
  9
$PROJECTNAME
  1

  9
$CAMERADISPLAY
290
    0
  9
$LENSLENGTH
 40
50
  9
$CAMERAHEIGHT
 40
0
  9
$STEPSPERSEC
 40
2
  9
$STEPSIZE
 40
50
  9
$3DDWFPREC
 40
2
  9
$PSOLWIDTH
 40
5
  9
$PSOLHEIGHT
 40
80
  9
$LOFTANG1
 40
1.570796326794897
  9
$LOFTANG2
 40
1.570796326794897
  9
$LOFTMAG1
 40
0
  9
$LOFTMAG2
 40
0
  9
$LOFTPARAM
 70
    7
  9
$LOFTNORMALS
280
    1
  9
$LATITUDE
 40
1
  9
$LONGITUDE
 40
1
  9
$NORTHDIRECTION
 40
0
  9
$TIMEZONE
 70
-8000
  9
$LIGHTGLYPHDISPLAY
280
    1
  9
$TILEMODELIGHTSYNCH
280
    1
  9
$SOLIDHIST
280
    1
  9
$SHOWHIST
280
    1
  9
$DWFFRAME
280
    2
  9
$DGNFRAME
280
    0
  9
$REALWORLDSCALE
290
    1
  9
$INTERFERECOLOR
 62
    1
  9
$CSHADOW
280
    0
  9
$SHADOWPLANELOCATION
 40
0
  0
ENDSEC
  0
SECTION
  2
CLASSES
  0
ENDSEC
  0
SECTION
  2
TABLES
  0
TABLE
  2
VPORT
  5
8
330
0
100
AcDbSymbolTable
 70
    1
  0
VPORT
  5
31
330
2
100
AcDbSymbolTableRecord
100
AcDbViewportTableRecord
  2
*ACTIVE
 70
    0
 10
0
 20
0
 11
1
 21
1
 12
83.5072000000181
 22
72.9088000000158
 13
0
 23
0
 14
10
 24
10
 15
10
 25
10
 16
0
 26
0
 36
1
 17
0
 27
0
 37
0
 40
71.27040000001546
 41
1.639367816091954
 42
50
 43
0
 44
0
 50
0
 51
0
 71
    0
 72
  100
 73
    1
 74
    3
 75
    0
 76
    1
 77
    0
 78
    0
281
    0
 65
    1
110
0
120
0
130
0
111
1
121
0
131
0
112
0
122
1
132
0
 79
    0
146
0
348
10020
 60
    7
 61
    5
292
1
282
    1
141
0
142
0
 63
  250
421
3358443
  0
ENDTAB
  0
TABLE
  2
LTYPE
  5
5
330
0
100
AcDbSymbolTable
 70
    4
  0
LTYPE
  5
14
330
5
100
AcDbSymbolTableRecord
100
AcDbLinetypeTableRecord
  2
ByBlock
 70
    0
  3

 72
   65
 73
    0
 40
0
  0
LTYPE
  5
15
330
5
100
AcDbSymbolTableRecord
100
AcDbLinetypeTableRecord
  2
ByLayer
 70
    0
  3

 72
   65
 73
    0
 40
0
  0
LTYPE
  5
16
330
5
100
AcDbSymbolTableRecord
100
AcDbLinetypeTableRecord
  2
Continuous
 70
    0
  3
Solid line
 72
   65
 73
    0
 40
0
  0
LTYPE
  5
32
330
5
100
AcDbSymbolTableRecord
100
AcDbLinetypeTableRecord
  2
DOT
 70
    0
  3
Dot . . . . . . . . . . . . . . . . . . . . . .
 72
   65
 73
    2
 40
6.35
 49
0
 74
    0
 49
-6.35
 74
    0
  0
LTYPE
  5
33
330
5
100
AcDbSymbolTableRecord
100
AcDbLinetypeTableRecord
  2
DOTTINY
 70
    0
  3
Dot (.15x) .....................................
 72
   65
 73
    2
 40
0.9525
 49
0
 74
    0
 49
-0.9525
 74
    0
  0
LTYPE
  5
34
330
5
100
AcDbSymbolTableRecord
100
AcDbLinetypeTableRecord
  2
DOT2
 70
    0
  3
Dot (.5x) .....................................
 72
   65
 73
    2
 40
3.175
 49
0
 74
    0
 49
-3.175
 74
    0
  0
LTYPE
  5
35
330
5
100
AcDbSymbolTableRecord
100
AcDbLinetypeTableRecord
  2
DOTX2
 70
    0
  3
Dot (2x) .  .  .  .  .  .  .  .  .  .  .  .  .
 72
   65
 73
    2
 40
12.7
 49
0
 74
    0
 49
-12.7
 74
    0
  0
LTYPE
  5
36
330
5
100
AcDbSymbolTableRecord
100
AcDbLinetypeTableRecord
  2
DASHED
 70
    0
  3
Dashed _ _ _ _ _ _ _ _ _ _ _ _ _ _ _ _ _
 72
   65
 73
    2
 40
19.05
 49
12.7
 74
    0
 49
-6.35
 74
    0
  0
LTYPE
  5
37
330
5
100
AcDbSymbolTableRecord
100
AcDbLinetypeTableRecord
  2
DASHEDTINY
 70
    0
  3
Dashed (.15x) _ _ _ _ _ _ _ _ _ _ _ _ _ _ _ _ _
 72
   65
 73
    2
 40
2.8575
 49
1.905
 74
    0
 49
-0.9525
 74
    0
  0
LTYPE
  5
38
330
5
100
AcDbSymbolTableRecord
100
AcDbLinetypeTableRecord
  2
DASHED2
 70
    0
  3
Dashed (.5x) _ _ _ _ _ _ _ _ _ _ _ _ _ _ _ _ _
 72
   65
 73
    2
 40
9.524999999999999
 49
6.35
 74
    0
 49
-3.175
 74
    0
  0
LTYPE
  5
39
330
5
100
AcDbSymbolTableRecord
100
AcDbLinetypeTableRecord
  2
DASHEDX2
 70
    0
  3
Dashed (2x) ____  ____  ____  ____  ____  ___
 72
   65
 73
    2
 40
38.09999999999999
 49
25.4
 74
    0
 49
-12.7
 74
    0
  0
LTYPE
  5
3A
330
5
100
AcDbSymbolTableRecord
100
AcDbLinetypeTableRecord
  2
DASHDOT
 70
    0
  3
Dash dot __ . __ . __ . __ . __ . __ . __ . __
 72
   65
 73
    4
 40
25.4
 49
12.7
 74
    0
 49
-6.35
 74
    0
 49
0
 74
    0
 49
-6.35
 74
    0
  0
LTYPE
  5
3B
330
5
100
AcDbSymbolTableRecord
100
AcDbLinetypeTableRecord
  2
DASHDOTTINY
 70
    0
  3
Dash dot (.15x) _._._._._._._._._._._._._._._.
 72
   65
 73
    4
 40
3.81
 49
1.905
 74
    0
 49
-0.9525
 74
    0
 49
0
 74
    0
 49
-0.9525
 74
    0
  0
LTYPE
  5
3C
330
5
100
AcDbSymbolTableRecord
100
AcDbLinetypeTableRecord
  2
DASHDOT2
 70
    0
  3
Dash dot (.5x) _._._._._._._._._._._._._._._.
 72
   65
 73
    4
 40
12.7
 49
6.35
 74
    0
 49
-3.175
 74
    0
 49
0
 74
    0
 49
-3.175
 74
    0
  0
LTYPE
  5
3D
330
5
100
AcDbSymbolTableRecord
100
AcDbLinetypeTableRecord
  2
DASHDOTX2
 70
    0
  3
Dash dot (2x) ____  .  ____  .  ____  .  ___
 72
   65
 73
    4
 40
50.8
 49
25.4
 74
    0
 49
-12.7
 74
    0
 49
0
 74
    0
 49
-12.7
 74
    0
  0
LTYPE
  5
3E
330
5
100
AcDbSymbolTableRecord
100
AcDbLinetypeTableRecord
  2
DIVIDE
 70
    0
  3
Divide ____ . . ____ . . ____ . . ____ . . ____
 72
   65
 73
    6
 40
31.75
 49
12.7
 74
    0
 49
-6.35
 74
    0
 49
0
 74
    0
 49
-6.35
 74
    0
 49
0
 74
    0
 49
-6.35
 74
    0
  0
LTYPE
  5
3F
330
5
100
AcDbSymbolTableRecord
100
AcDbLinetypeTableRecord
  2
DIVIDETINY
 70
    0
  3
Divide (.15x) __..__..__..__..__..__..__..__.._
 72
   65
 73
    6
 40
4.7625
 49
1.905
 74
    0
 49
-0.9525
 74
    0
 49
0
 74
    0
 49
-0.9525
 74
    0
 49
0
 74
    0
 49
-0.9525
 74
    0
  0
LTYPE
  5
40
330
5
100
AcDbSymbolTableRecord
100
AcDbLinetypeTableRecord
  2
DIVIDE2
 70
    0
  3
Divide (.5x) __..__..__..__..__..__..__..__.._
 72
   65
 73
    6
 40
15.875
 49
6.35
 74
    0
 49
-3.175
 74
    0
 49
0
 74
    0
 49
-3.175
 74
    0
 49
0
 74
    0
 49
-3.175
 74
    0
  0
LTYPE
  5
41
330
5
100
AcDbSymbolTableRecord
100
AcDbLinetypeTableRecord
  2
DIVIDEX2
 70
    0
  3
Divide (2x) ________  .  .  ________  .  .  _
 72
   65
 73
    6
 40
63.5
 49
25.4
 74
    0
 49
-12.7
 74
    0
 49
0
 74
    0
 49
-12.7
 74
    0
 49
0
 74
    0
 49
-12.7
 74
    0
  0
LTYPE
  5
42
330
5
100
AcDbSymbolTableRecord
100
AcDbLinetypeTableRecord
  2
BORDER
 70
    0
  3
Border __ __ . __ __ . __ __ . __ __ . __ __ .
 72
   65
 73
    6
 40
44.45
 49
12.7
 74
    0
 49
-6.35
 74
    0
 49
12.7
 74
    0
 49
-6.35
 74
    0
 49
0
 74
    0
 49
-6.35
 74
    0
  0
LTYPE
  5
43
330
5
100
AcDbSymbolTableRecord
100
AcDbLinetypeTableRecord
  2
BORDERTINY
 70
    0
  3
Border (.15x) __.__.__.__.__.__.__.__.__.__.__.
 72
   65
 73
    6
 40
6.6675
 49
1.905
 74
    0
 49
-0.9525
 74
    0
 49
1.905
 74
    0
 49
-0.9525
 74
    0
 49
0
 74
    0
 49
-0.9525
 74
    0
  0
LTYPE
  5
44
330
5
100
AcDbSymbolTableRecord
100
AcDbLinetypeTableRecord
  2
BORDER2
 70
    0
  3
Border (.5x) __.__.__.__.__.__.__.__.__.__.__.
 72
   65
 73
    6
 40
22.225
 49
6.35
 74
    0
 49
-3.175
 74
    0
 49
6.35
 74
    0
 49
-3.175
 74
    0
 49
0
 74
    0
 49
-3.175
 74
    0
  0
LTYPE
  5
45
330
5
100
AcDbSymbolTableRecord
100
AcDbLinetypeTableRecord
  2
BORDERX2
 70
    0
  3
Border (2x) ____  ____  .  ____  ____  .  ___
 72
   65
 73
    6
 40
88.89999999999999
 49
25.4
 74
    0
 49
-12.7
 74
    0
 49
25.4
 74
    0
 49
-12.7
 74
    0
 49
0
 74
    0
 49
-12.7
 74
    0
  0
LTYPE
  5
46
330
5
100
AcDbSymbolTableRecord
100
AcDbLinetypeTableRecord
  2
CENTER
 70
    0
  3
Center ____ _ ____ _ ____ _ ____ _ ____ _ ____
 72
   65
 73
    4
 40
50.8
 49
31.75
 74
    0
 49
-6.35
 74
    0
 49
6.35
 74
    0
 49
-6.35
 74
    0
  0
LTYPE
  5
47
330
5
100
AcDbSymbolTableRecord
100
AcDbLinetypeTableRecord
  2
CENTERTINY
 70
    0
  3
Center (.15x) ___ _ ___ _ ___ _ ___ _ ___ _ ___
 72
   65
 73
    4
 40
7.619999999999999
 49
4.7625
 74
    0
 49
-0.9525
 74
    0
 49
0.9525
 74
    0
 49
-0.9525
 74
    0
  0
LTYPE
  5
48
330
5
100
AcDbSymbolTableRecord
100
AcDbLinetypeTableRecord
  2
CENTER2
 70
    0
  3
Center (.5x) ___ _ ___ _ ___ _ ___ _ ___ _ ___
 72
   65
 73
    4
 40
28.575
 49
19.05
 74
    0
 49
-3.175
 74
    0
 49
3.175
 74
    0
 49
-3.175
 74
    0
  0
LTYPE
  5
49
330
5
100
AcDbSymbolTableRecord
100
AcDbLinetypeTableRecord
  2
CENTERX2
 70
    0
  3
Center (2x) ________  __  ________  __  _____
 72
   65
 73
    4
 40
101.6
 49
63.5
 74
    0
 49
-12.7
 74
    0
 49
12.7
 74
    0
 49
-12.7
 74
    0
  0
ENDTAB
  0
TABLE
  2
LAYER
  5
2
330
0
100
AcDbSymbolTable
 70
    1
  0
LAYER
  5
10
330
2
100
AcDbSymbolTableRecord
100
AcDbLayerTableRecord
  2
0
 70
    4
 62
    7
  6
CONTINUOUS
370
    0
390
F
  0
LAYER
  5
4A
330
2
100
AcDbSymbolTableRecord
100
AcDbLayerTableRecord
  2
Blade
 70
    4
 62
  253
420
10526884
  6
CONTINUOUS
370
   25
390
F
  0
LAYER
  5
4B
330
2
100
AcDbSymbolTableRecord
100
AcDbLayerTableRecord
  2
Dims
 70
    0
 62
    7
  6
CONTINUOUS
370
   25
390
F
  0
LAYER
  5
4C
330
2
100
AcDbSymbolTableRecord
100
AcDbLayerTableRecord
  2
Fasteners
 70
    4
 62
  136
420
32896
  6
CONTINUOUS
370
   25
390
F
  0
LAYER
  5
4D
330
2
100
AcDbSymbolTableRecord
100
AcDbLayerTableRecord
  2
Handle
 70
    4
 62
  136
420
32896
  6
CONTINUOUS
370
   25
390
F
  0
LAYER
  5
4E
330
2
100
AcDbSymbolTableRecord
100
AcDbLayerTableRecord
  2
Holder
 70
    4
 62
   56
420
8421376
  6
CONTINUOUS
370
   25
390
F
  0
ENDTAB
  0
TABLE
  2
STYLE
  5
3
330
0
100
AcDbSymbolTable
 70
    3
  0
STYLE
  5
4F
330
2
100
AcDbSymbolTableRecord
100
AcDbTextStyleTableRecord
  2
Standard
 70
    0
 40
0
 41
1
 50
0
 71
    0
 42
1
  3
txt
  4

  0
ENDTAB
  0
TABLE
  2
VIEW
  5
6
330
0
100
AcDbSymbolTable
 70
    0
  0
ENDTAB
  0
TABLE
  2
UCS
  5
7
330
0
100
AcDbSymbolTable
 70
    0
  0
ENDTAB
  0
TABLE
  2
APPID
  5
9
330
0
100
AcDbSymbolTable
 70
    1
  0
APPID
  5
12
330
9
100
AcDbSymbolTableRecord
100
AcDbRegAppTableRecord
  2
ACAD
 70
    0
  0
APPID
  5
50
330
9
100
AcDbSymbolTableRecord
100
AcDbRegAppTableRecord
  2
LibreCad
 70
    0
  0
ENDTAB
  0
TABLE
  2
DIMSTYLE
  5
A
330
0
100
AcDbSymbolTable
 70
    1
100
AcDbDimStyleTable
 71
    1
  0
DIMSTYLE
105
51
330
A
100
AcDbSymbolTableRecord
100
AcDbDimStyleTableRecord
  2
Standard
 70
    0
 40
1
 41
2.5
 42
0.625
 43
0.38
 44
1.25
 45
0
 46
0
 47
0
 48
0
140
2.5
141
0.09
142
0
143
25.4
144
1
145
0
146
1
147
0.625
148
0
 71
    0
 72
    0
 73
    0
 74
    1
 75
    0
 76
    0
 77
    0
 78
    0
 79
    0
170
    0
171
    2
172
    0
173
    0
174
    0
175
    0
176
    0
177
    0
178
    0
179
    0
271
    4
272
    4
273
    2
274
    2
275
    0
276
    0
277
    2
278
   46
279
    0
280
    0
281
    0
282
    0
283
    1
284
    0
285
    0
286
    0
288
    0
289
    3
340
Standard
341

371
   -2
372
   -2
  0
ENDTAB
  0
TABLE
  2
BLOCK_RECORD
  5
1
330
0
100
AcDbSymbolTable
 70
    2
  0
BLOCK_RECORD
  5
1F
330
1
100
AcDbSymbolTableRecord
100
AcDbBlockTableRecord
  2
*Model_Space
 70
    0
280
    1
281
    0
  0
BLOCK_RECORD
  5
1E
330
1
100
AcDbSymbolTableRecord
100
AcDbBlockTableRecord
  2
*Paper_Space
 70
    0
280
    1
281
    0
  0
BLOCK_RECORD
  5
52
330
1
100
AcDbSymbolTableRecord
100
AcDbBlockTableRecord
  2
*D2
 70
    0
280
    1
281
    0
  0
BLOCK_RECORD
  5
55
330
1
100
AcDbSymbolTableRecord
100
AcDbBlockTableRecord
  2
*D5
 70
    0
280
    1
281
    0
  0
BLOCK_RECORD
  5
58
330
1
100
AcDbSymbolTableRecord
100
AcDbBlockTableRecord
  2
*D8
 70
    0
280
    1
281
    0
  0
BLOCK_RECORD
  5
5B
330
1
100
AcDbSymbolTableRecord
100
AcDbBlockTableRecord
  2
*D11
 70
    0
280
    1
281
    0
  0
BLOCK_RECORD
  5
5E
330
1
100
AcDbSymbolTableRecord
100
AcDbBlockTableRecord
  2
*D14
 70
    0
280
    1
281
    0
  0
BLOCK_RECORD
  5
61
330
1
100
AcDbSymbolTableRecord
100
AcDbBlockTableRecord
  2
*D3
 70
    0
280
    1
281
    0
  0
BLOCK_RECORD
  5
64
330
1
100
AcDbSymbolTableRecord
100
AcDbBlockTableRecord
  2
*D6
 70
    0
280
    1
281
    0
  0
BLOCK_RECORD
  5
67
330
1
100
AcDbSymbolTableRecord
100
AcDbBlockTableRecord
  2
*D1
 70
    0
280
    1
281
    0
  0
BLOCK_RECORD
  5
6A
330
1
100
AcDbSymbolTableRecord
100
AcDbBlockTableRecord
  2
*D9
 70
    0
280
    1
281
    0
  0
BLOCK_RECORD
  5
6D
330
1
100
AcDbSymbolTableRecord
100
AcDbBlockTableRecord
  2
*D12
 70
    0
280
    1
281
    0
  0
BLOCK_RECORD
  5
70
330
1
100
AcDbSymbolTableRecord
100
AcDbBlockTableRecord
  2
*D15
 70
    0
280
    1
281
    0
  0
BLOCK_RECORD
  5
73
330
1
100
AcDbSymbolTableRecord
100
AcDbBlockTableRecord
  2
*D4
 70
    0
280
    1
281
    0
  0
BLOCK_RECORD
  5
76
330
1
100
AcDbSymbolTableRecord
100
AcDbBlockTableRecord
  2
*D7
 70
    0
280
    1
281
    0
  0
BLOCK_RECORD
  5
79
330
1
100
AcDbSymbolTableRecord
100
AcDbBlockTableRecord
  2
*D16
 70
    0
280
    1
281
    0
  0
BLOCK_RECORD
  5
7C
330
1
100
AcDbSymbolTableRecord
100
AcDbBlockTableRecord
  2
*D10
 70
    0
280
    1
281
    0
  0
BLOCK_RECORD
  5
7F
330
1
100
AcDbSymbolTableRecord
100
AcDbBlockTableRecord
  2
*D13
 70
    0
280
    1
281
    0
  0
ENDTAB
  0
ENDSEC
  0
SECTION
  2
BLOCKS
  0
BLOCK
  5
20
330
1F
100
AcDbEntity
  8
0
100
AcDbBlockBegin
  2
*Model_Space
 70
    0
 10
0
 20
0
 30
0
  3
*Model_Space
  1

  0
ENDBLK
  5
21
330
1F
100
AcDbEntity
  8
0
100
AcDbBlockEnd
  0
BLOCK
  5
1C
330
1B
100
AcDbEntity
  8
0
100
AcDbBlockBegin
  2
*Paper_Space
 70
    0
 10
0
 20
0
 30
0
  3
*Paper_Space
  1

  0
ENDBLK
  5
1D
330
1F
100
AcDbEntity
  8
0
100
AcDbBlockEnd
  0
BLOCK
  5
53
330
52
100
AcDbEntity
  8
0
100
AcDbBlockBegin
  2
*D2
 70
    1
 10
0
 20
0
  3
*D2
  1

  0
LINE
  5
82
100
AcDbEntity
  8
Dims
  6
ByBlock
 62
    0
370
   -2
100
AcDbLine
 10
0
 20
150
 11
50
 21
150
  0
SOLID
  5
83
100
AcDbEntity
  8
Dims
  6
ByBlock
 62
    0
370
   -2
100
AcDbTrace
 10
0
 20
150
 30
0
 11
6.25
 21
151.0407116444321
 31
0
 12
6.25
 22
148.9592883555679
 32
0
 13
6.25
 23
148.9592883555679
 33
0
  0
SOLID
  5
84
100
AcDbEntity
  8
Dims
  6
ByBlock
 62
    0
370
   -2
100
AcDbTrace
 10
50
 20
150
 30
0
 11
43.75
 21
148.9592883555679
 31
0
 12
43.75
 22
151.0407116444321
 32
0
 13
43.75
 23
151.0407116444321
 33
0
  0
MTEXT
  5
85
100
AcDbEntity
  8
Dims
  6
CONTINUOUS
 62
    0
370
   -2
100
AcDbMText
 10
25
 20
154.6875
 30
0
 40
6.25
 41
7.638888888889277
 71
    5
 72
    1
  1
50
  7
standard
210
0
220
0
230
1
 50
0
 73
    2
 44
1
  0
LINE
  5
86
100
AcDbEntity
  8
Dims
  6
ByBlock
 62
    0
370
   -2
100
AcDbLine
 10
9.567553118338697e-17
 20
141.5625
 11
1.913510623667739e-16
 21
153.125
  0
LINE
  5
87
100
AcDbEntity
  8
Dims
  6
ByBlock
 62
    0
370
   -2
100
AcDbLine
 10
50
 20
141.5625
 11
50
 21
153.125
  0
ENDBLK
  5
54
330
52
100
AcDbEntity
  8
0
100
AcDbBlockEnd
  0
BLOCK
  5
56
330
55
100
AcDbEntity
  8
0
100
AcDbBlockBegin
  2
*D5
 70
    1
 10
0
 20
0
  3
*D5
  1

  0
LINE
  5
88
100
AcDbEntity
  8
Dims
  6
ByBlock
 62
    0
370
   -2
100
AcDbLine
 10
-31.5625
 20
110
 11
-43.125
 21
110
  0
LINE
  5
89
100
AcDbEntity
  8
Dims
  6
ByBlock
 62
    0
370
   -2
100
AcDbLine
 10
-31.5625
 20
90
 11
-43.125
 21
90
  0
LINE
  5
8A
100
AcDbEntity
  8
Dims
  6
ByBlock
 62
    0
370
   -2
100
AcDbLine
 10
-40
 20
110
 11
-40
 21
90
  0
SOLID
  5
8B
100
AcDbEntity
  8
Dims
  6
ByBlock
 62
    0
370
   -2
100
AcDbTrace
 10
-40
 20
110
 30
0
 11
-38.9592883555679
 21
103.75
 31
0
 12
-41.0407116444321
 22
103.75
 32
0
 13
-41.0407116444321
 23
103.75
 33
0
  0
SOLID
  5
8C
100
AcDbEntity
  8
Dims
  6
ByBlock
 62
    0
370
   -2
100
AcDbTrace
 10
-40
 20
90
 30
0
 11
-41.0407116444321
 21
96.25
 31
0
 12
-38.9592883555679
 22
96.25
 32
0
 13
-38.9592883555679
 23
96.25
 33
0
  0
MTEXT
  5
8D
100
AcDbEntity
  8
Dims
  6
CONTINUOUS
 62
    0
370
   -2
100
AcDbMText
 10
-44.6875
 20
100
 30
0
 40
6.25
 41
7.638888888888888
 71
    5
 72
    1
  1
20
  7
standard
210
0
220
0
230
1
 50
90
 73
    2
 44
1
  0
ENDBLK
  5
57
330
55
100
AcDbEntity
  8
0
100
AcDbBlockEnd
  0
BLOCK
  5
59
330
58
100
AcDbEntity
  8
0
100
AcDbBlockBegin
  2
*D8
 70
    1
 10
0
 20
0
  3
*D8
  1

  0
LINE
  5
8E
100
AcDbEntity
  8
Dims
  6
ByBlock
 62
    0
370
   -2
100
AcDbLine
 10
137.5
 20
130
 11
105.5
 21
130
  0
SOLID
  5
8F
100
AcDbEntity
  8
Dims
  6
ByBlock
 62
    0
370
   -2
100
AcDbTrace
 10
125
 20
130
 30
0
 11
131.25
 21
131.0407116444321
 31
0
 12
131.25
 22
128.9592883555679
 32
0
 13
131.25
 23
128.9592883555679
 33
0
  0
SOLID
  5
90
100
AcDbEntity
  8
Dims
  6
ByBlock
 62
    0
370
   -2
100
AcDbTrace
 10
118
 20
130
 30
0
 11
111.75
 21
128.9592883555679
 31
0
 12
111.75
 22
131.0407116444321
 32
0
 13
111.75
 23
131.0407116444321
 33
0
  0
MTEXT
  5
91
100
AcDbEntity
  8
Dims
  6
CONTINUOUS
 62
    0
370
   -2
100
AcDbMText
 10
121.5
 20
134.6875
 30
0
 40
6.25
 41
2.777777777777778
 71
    5
 72
    1
  1
7
  7
standard
210
0
220
0
230
1
 50
360
 73
    2
 44
1
  0
LINE
  5
92
100
AcDbEntity
  8
Dims
  6
ByBlock
 62
    0
370
   -2
100
AcDbLine
 10
125
 20
121.5625
 11
125
 21
133.125
  0
LINE
  5
93
100
AcDbEntity
  8
Dims
  6
ByBlock
 62
    0
370
   -2
100
AcDbLine
 10
118
 20
121.5625
 11
118
 21
133.125
  0
ENDBLK
  5
5A
330
58
100
AcDbEntity
  8
0
100
AcDbBlockEnd
  0
BLOCK
  5
5C
330
5B
100
AcDbEntity
  8
0
100
AcDbBlockBegin
  2
*D11
 70
    1
 10
0
 20
0
  3
*D11
  1

  0
LINE
  5
94
100
AcDbEntity
  8
Dims
  6
ByBlock
 62
    0
370
   -2
100
AcDbLine
 10
118.5
 20
110
 11
89.5
 21
110
  0
SOLID
  5
95
100
AcDbEntity
  8
Dims
  6
ByBlock
 62
    0
370
   -2
100
AcDbTrace
 10
106
 20
110
 30
0
 11
112.25
 21
111.0407116444321
 31
0
 12
112.25
 22
108.9592883555679
 32
0
 13
112.25
 23
108.9592883555679
 33
0
  0
SOLID
  5
96
100
AcDbEntity
  8
Dims
  6
ByBlock
 62
    0
370
   -2
100
AcDbTrace
 10
102
 20
110
 30
0
 11
95.75
 21
108.9592883555679
 31
0
 12
95.75
 22
111.0407116444321
 32
0
 13
95.75
 23
111.0407116444321
 33
0
  0
MTEXT
  5
97
100
AcDbEntity
  8
Dims
  6
CONTINUOUS
 62
    0
370
   -2
100
AcDbMText
 10
104
 20
114.6875
 30
0
 40
6.25
 41
3.472222222222222
 71
    5
 72
    1
  1
4
  7
standard
210
0
220
0
230
1
 50
360
 73
    2
 44
1
  0
LINE
  5
98
100
AcDbEntity
  8
Dims
  6
ByBlock
 62
    0
370
   -2
100
AcDbLine
 10
106
 20
118.4375
 11
106
 21
106.875
  0
LINE
  5
99
100
AcDbEntity
  8
Dims
  6
ByBlock
 62
    0
370
   -2
100
AcDbLine
 10
102
 20
118.4375
 11
102
 21
106.875
  0
ENDBLK
  5
5D
330
5B
100
AcDbEntity
  8
0
100
AcDbBlockEnd
  0
BLOCK
  5
5F
330
5E
100
AcDbEntity
  8
0
100
AcDbBlockBegin
  2
*D14
 70
    1
 10
0
 20
0
  3
*D14
  1

  0
LINE
  5
9A
100
AcDbEntity
  8
Dims
  6
ByBlock
 62
    0
370
   -2
100
AcDbLine
 10
50
 20
130
 11
30
 21
130
  0
SOLID
  5
9B
100
AcDbEntity
  8
Dims
  6
ByBlock
 62
    0
370
   -2
100
AcDbTrace
 10
50
 20
130
 30
0
 11
43.75
 21
128.9592883555679
 31
0
 12
43.75
 22
131.0407116444321
 32
0
 13
43.75
 23
131.0407116444321
 33
0
  0
SOLID
  5
9C
100
AcDbEntity
  8
Dims
  6
ByBlock
 62
    0
370
   -2
100
AcDbTrace
 10
30
 20
130
 30
0
 11
36.25
 21
131.0407116444321
 31
0
 12
36.25
 22
128.9592883555679
 32
0
 13
36.25
 23
128.9592883555679
 33
0
  0
MTEXT
  5
9D
100
AcDbEntity
  8
Dims
  6
CONTINUOUS
 62
    0
370
   -2
100
AcDbMText
 10
40
 20
134.6875
 30
0
 40
6.25
 41
7.638888888888888
 71
    5
 72
    1
  1
20
  7
standard
210
0
220
0
230
1
 50
360
 73
    2
 44
1
  0
LINE
  5
9E
100
AcDbEntity
  8
Dims
  6
ByBlock
 62
    0
370
   -2
100
AcDbLine
 10
50
 20
121.5625
 11
50
 21
133.125
  0
LINE
  5
9F
100
AcDbEntity
  8
Dims
  6
ByBlock
 62
    0
370
   -2
100
AcDbLine
 10
30
 20
121.5625
 11
30
 21
133.125
  0
ENDBLK
  5
60
330
5E
100
AcDbEntity
  8
0
100
AcDbBlockEnd
  0
BLOCK
  5
62
330
61
100
AcDbEntity
  8
0
100
AcDbBlockBegin
  2
*D3
 70
    1
 10
0
 20
0
  3
*D3
  1

  0
LINE
  5
A0
100
AcDbEntity
  8
Dims
  6
ByBlock
 62
    0
370
   -2
100
AcDbLine
 10
50
 20
150
 11
125
 21
150
  0
SOLID
  5
A1
100
AcDbEntity
  8
Dims
  6
ByBlock
 62
    0
370
   -2
100
AcDbTrace
 10
50
 20
150
 30
0
 11
56.25
 21
151.0407116444321
 31
0
 12
56.25
 22
148.9592883555679
 32
0
 13
56.25
 23
148.9592883555679
 33
0
  0
SOLID
  5
A2
100
AcDbEntity
  8
Dims
  6
ByBlock
 62
    0
370
   -2
100
AcDbTrace
 10
125
 20
150
 30
0
 11
118.75
 21
148.9592883555679
 31
0
 12
118.75
 22
151.0407116444321
 32
0
 13
118.75
 23
151.0407116444321
 33
0
  0
MTEXT
  5
A3
100
AcDbEntity
  8
Dims
  6
CONTINUOUS
 62
    0
370
   -2
100
AcDbMText
 10
87.5
 20
154.6875
 30
0
 40
6.25
 41
7.638888888889277
 71
    5
 72
    1
  1
75
  7
standard
210
0
220
0
230
1
 50
0
 73
    2
 44
1
  0
LINE
  5
A4
100
AcDbEntity
  8
Dims
  6
ByBlock
 62
    0
370
   -2
100
AcDbLine
 10
50
 20
141.5625
 11
50
 21
153.125
  0
LINE
  5
A5
100
AcDbEntity
  8
Dims
  6
ByBlock
 62
    0
370
   -2
100
AcDbLine
 10
125
 20
141.5625
 11
125
 21
153.125
  0
ENDBLK
  5
63
330
61
100
AcDbEntity
  8
0
100
AcDbBlockEnd
  0
BLOCK
  5
65
330
64
100
AcDbEntity
  8
0
100
AcDbBlockBegin
  2
*D6
 70
    1
 10
0
 20
0
  3
*D6
  1

  0
LINE
  5
A6
100
AcDbEntity
  8
Dims
  6
ByBlock
 62
    0
370
   -2
100
AcDbLine
 10
-51.5625
 20
126
 11
-63.125
 21
126
  0
LINE
  5
A7
100
AcDbEntity
  8
Dims
  6
ByBlock
 62
    0
370
   -2
100
AcDbLine
 10
-51.5625
 20
74
 11
-63.125
 21
74
  0
LINE
  5
A8
100
AcDbEntity
  8
Dims
  6
ByBlock
 62
    0
370
   -2
100
AcDbLine
 10
-60
 20
126
 11
-60
 21
74
  0
SOLID
  5
A9
100
AcDbEntity
  8
Dims
  6
ByBlock
 62
    0
370
   -2
100
AcDbTrace
 10
-60
 20
126
 30
0
 11
-58.9592883555679
 21
119.75
 31
0
 12
-61.0407116444321
 22
119.75
 32
0
 13
-61.0407116444321
 23
119.75
 33
0
  0
SOLID
  5
AA
100
AcDbEntity
  8
Dims
  6
ByBlock
 62
    0
370
   -2
100
AcDbTrace
 10
-60
 20
74
 30
0
 11
-61.0407116444321
 21
80.25
 31
0
 12
-58.9592883555679
 22
80.25
 32
0
 13
-58.9592883555679
 23
80.25
 33
0
  0
MTEXT
  5
AB
100
AcDbEntity
  8
Dims
  6
CONTINUOUS
 62
    0
370
   -2
100
AcDbMText
 10
-64.6875
 20
100
 30
0
 40
6.25
 41
7.638888888889277
 71
    5
 72
    1
  1
52
  7
standard
210
0
220
0
230
1
 50
90
 73
    2
 44
1
  0
ENDBLK
  5
66
330
64
100
AcDbEntity
  8
0
100
AcDbBlockEnd
  0
BLOCK
  5
68
330
67
100
AcDbEntity
  8
0
100
AcDbBlockBegin
  2
*D1
 70
    1
 10
0
 20
0
  3
*D1
  1

  0
LINE
  5
AC
100
AcDbEntity
  8
Dims
  6
ByBlock
 62
    0
370
   -2
100
AcDbLine
 10
125
 20
60
 11
0
 21
60
  0
SOLID
  5
AD
100
AcDbEntity
  8
Dims
  6
ByBlock
 62
    0
370
   -2
100
AcDbTrace
 10
125
 20
60
 30
0
 11
118.75
 21
58.9592883555679
 31
0
 12
118.75
 22
61.0407116444321
 32
0
 13
118.75
 23
61.0407116444321
 33
0
  0
SOLID
  5
AE
100
AcDbEntity
  8
Dims
  6
ByBlock
 62
    0
370
   -2
100
AcDbTrace
 10
0
 20
60
 30
0
 11
6.25
 21
61.0407116444321
 31
0
 12
6.25
 22
58.9592883555679
 32
0
 13
6.25
 23
58.9592883555679
 33
0
  0
MTEXT
  5
AF
100
AcDbEntity
  8
Dims
  6
CONTINUOUS
 62
    0
370
   -2
100
AcDbMText
 10
62.5
 20
64.6875
 30
0
 40
6.25
 41
11.1111111111115
 71
    5
 72
    1
  1
125
  7
standard
210
0
220
0
230
1
 50
360
 73
    2
 44
1
  0
LINE
  5
B0
100
AcDbEntity
  8
Dims
  6
ByBlock
 62
    0
370
   -2
100
AcDbLine
 10
125
 20
68.4375
 11
125
 21
56.875
  0
LINE
  5
B1
100
AcDbEntity
  8
Dims
  6
ByBlock
 62
    0
370
   -2
100
AcDbLine
 10
-2.870265935501609e-16
 20
68.4375
 11
-5.740531871003218e-16
 21
56.875
  0
ENDBLK
  5
69
330
67
100
AcDbEntity
  8
0
100
AcDbBlockEnd
  0
BLOCK
  5
6B
330
6A
100
AcDbEntity
  8
0
100
AcDbBlockBegin
  2
*D9
 70
    1
 10
0
 20
0
  3
*D9
  1

  0
LINE
  5
B2
100
AcDbEntity
  8
Dims
  6
ByBlock
 62
    0
370
   -2
100
AcDbLine
 10
130.5
 20
110
 11
101.5
 21
110
  0
SOLID
  5
B3
100
AcDbEntity
  8
Dims
  6
ByBlock
 62
    0
370
   -2
100
AcDbTrace
 10
118
 20
110
 30
0
 11
124.25
 21
111.0407116444321
 31
0
 12
124.25
 22
108.9592883555679
 32
0
 13
124.25
 23
108.9592883555679
 33
0
  0
SOLID
  5
B4
100
AcDbEntity
  8
Dims
  6
ByBlock
 62
    0
370
   -2
100
AcDbTrace
 10
114
 20
110
 30
0
 11
107.75
 21
108.9592883555679
 31
0
 12
107.75
 22
111.0407116444321
 32
0
 13
107.75
 23
111.0407116444321
 33
0
  0
MTEXT
  5
B5
100
AcDbEntity
  8
Dims
  6
CONTINUOUS
 62
    0
370
   -2
100
AcDbMText
 10
116
 20
114.6875
 30
0
 40
6.25
 41
3.472222222222222
 71
    5
 72
    1
  1
4
  7
standard
210
0
220
0
230
1
 50
360
 73
    2
 44
1
  0
LINE
  5
B6
100
AcDbEntity
  8
Dims
  6
ByBlock
 62
    0
370
   -2
100
AcDbLine
 10
118
 20
118.4375
 11
118
 21
106.875
  0
LINE
  5
B7
100
AcDbEntity
  8
Dims
  6
ByBlock
 62
    0
370
   -2
100
AcDbLine
 10
114
 20
118.4375
 11
114
 21
106.875
  0
ENDBLK
  5
6C
330
6A
100
AcDbEntity
  8
0
100
AcDbBlockEnd
  0
BLOCK
  5
6E
330
6D
100
AcDbEntity
  8
0
100
AcDbBlockBegin
  2
*D12
 70
    1
 10
0
 20
0
  3
*D12
  1

  0
LINE
  5
B8
100
AcDbEntity
  8
Dims
  6
ByBlock
 62
    0
370
   -2
100
AcDbLine
 10
114.5
 20
130
 11
77.5
 21
130
  0
SOLID
  5
B9
100
AcDbEntity
  8
Dims
  6
ByBlock
 62
    0
370
   -2
100
AcDbTrace
 10
102
 20
130
 30
0
 11
108.25
 21
131.0407116444321
 31
0
 12
108.25
 22
128.9592883555679
 32
0
 13
108.25
 23
128.9592883555679
 33
0
  0
SOLID
  5
BA
100
AcDbEntity
  8
Dims
  6
ByBlock
 62
    0
370
   -2
100
AcDbTrace
 10
90
 20
130
 30
0
 11
83.75
 21
128.9592883555679
 31
0
 12
83.75
 22
131.0407116444321
 32
0
 13
83.75
 23
131.0407116444321
 33
0
  0
MTEXT
  5
BB
100
AcDbEntity
  8
Dims
  6
CONTINUOUS
 62
    0
370
   -2
100
AcDbMText
 10
96
 20
134.6875
 30
0
 40
6.25
 41
6.25
 71
    5
 72
    1
  1
12
  7
standard
210
0
220
0
230
1
 50
360
 73
    2
 44
1
  0
LINE
  5
BC
100
AcDbEntity
  8
Dims
  6
ByBlock
 62
    0
370
   -2
100
AcDbLine
 10
102
 20
121.5625
 11
102
 21
133.125
  0
LINE
  5
BD
100
AcDbEntity
  8
Dims
  6
ByBlock
 62
    0
370
   -2
100
AcDbLine
 10
90
 20
121.5625
 11
90
 21
133.125
  0
ENDBLK
  5
6F
330
6D
100
AcDbEntity
  8
0
100
AcDbBlockEnd
  0
BLOCK
  5
71
330
70
100
AcDbEntity
  8
0
100
AcDbBlockBegin
  2
*D15
 70
    1
 10
0
 20
0
  3
*D15
  1

  0
LINE
  5
BE
100
AcDbEntity
  8
Dims
  6
ByBlock
 62
    0
370
   -2
100
AcDbLine
 10
171.5625
 20
98.5
 11
183.1250000000001
 21
98.5
  0
LINE
  5
BF
100
AcDbEntity
  8
Dims
  6
ByBlock
 62
    0
370
   -2
100
AcDbLine
 10
171.5625
 20
101.5
 11
183.1250000000001
 21
101.5
  0
LINE
  5
C0
100
AcDbEntity
  8
Dims
  6
ByBlock
 62
    0
370
   -2
100
AcDbLine
 10
180.0000000000001
 20
86
 11
180.0000000000001
 21
114
  0
SOLID
  5
C1
100
AcDbEntity
  8
Dims
  6
ByBlock
 62
    0
370
   -2
100
AcDbTrace
 10
180.0000000000001
 20
98.5
 30
0
 11
181.0407116444322
 21
92.25
 31
0
 12
178.959288355568
 22
92.25
 32
0
 13
178.959288355568
 23
92.25
 33
0
  0
SOLID
  5
C2
100
AcDbEntity
  8
Dims
  6
ByBlock
 62
    0
370
   -2
100
AcDbTrace
 10
180.0000000000001
 20
101.5
 30
0
 11
178.959288355568
 21
107.75
 31
0
 12
181.0407116444322
 22
107.75
 32
0
 13
181.0407116444322
 23
107.75
 33
0
  0
MTEXT
  5
C3
100
AcDbEntity
  8
Dims
  6
CONTINUOUS
 62
    0
370
   -2
100
AcDbMText
 10
184.6875000000001
 20
99.99999999999987
 30
0
 40
6.25
 41
2.777777777778165
 71
    5
 72
    1
  1
3
  7
standard
210
0
220
0
230
1
 50
270
 73
    2
 44
1
  0
ENDBLK
  5
72
330
70
100
AcDbEntity
  8
0
100
AcDbBlockEnd
  0
BLOCK
  5
74
330
73
100
AcDbEntity
  8
0
100
AcDbBlockBegin
  2
*D4
 70
    1
 10
0
 20
0
  3
*D4
  1

  0
LINE
  5
C4
100
AcDbEntity
  8
Dims
  6
ByBlock
 62
    0
370
   -2
100
AcDbLine
 10
-11.5625
 20
105
 11
-23.125
 21
105
  0
LINE
  5
C5
100
AcDbEntity
  8
Dims
  6
ByBlock
 62
    0
370
   -2
100
AcDbLine
 10
-11.5625
 20
95
 11
-23.125
 21
95
  0
LINE
  5
C6
100
AcDbEntity
  8
Dims
  6
ByBlock
 62
    0
370
   -2
100
AcDbLine
 10
-20
 20
117.5
 11
-20
 21
82.5
  0
SOLID
  5
C7
100
AcDbEntity
  8
Dims
  6
ByBlock
 62
    0
370
   -2
100
AcDbTrace
 10
-20
 20
105
 30
0
 11
-21.0407116444321
 21
111.25
 31
0
 12
-18.9592883555679
 22
111.25
 32
0
 13
-18.9592883555679
 23
111.25
 33
0
  0
SOLID
  5
C8
100
AcDbEntity
  8
Dims
  6
ByBlock
 62
    0
370
   -2
100
AcDbTrace
 10
-20
 20
95
 30
0
 11
-18.9592883555679
 21
88.75
 31
0
 12
-21.0407116444321
 22
88.75
 32
0
 13
-21.0407116444321
 23
88.75
 33
0
  0
MTEXT
  5
C9
100
AcDbEntity
  8
Dims
  6
CONTINUOUS
 62
    0
370
   -2
100
AcDbMText
 10
-24.6875
 20
100
 30
0
 40
6.25
 41
6.25
 71
    5
 72
    1
  1
10
  7
standard
210
0
220
0
230
1
 50
90
 73
    2
 44
1
  0
ENDBLK
  5
75
330
73
100
AcDbEntity
  8
0
100
AcDbBlockEnd
  0
BLOCK
  5
77
330
76
100
AcDbEntity
  8
0
100
AcDbBlockBegin
  2
*D7
 70
    1
 10
0
 20
0
  3
*D7
  1

  0
LINE
  5
CA
100
AcDbEntity
  8
Dims
  6
ByBlock
 62
    0
370
   -2
100
AcDbLine
 10
100
 20
70
 11
125
 21
70
  0
SOLID
  5
CB
100
AcDbEntity
  8
Dims
  6
ByBlock
 62
    0
370
   -2
100
AcDbTrace
 10
100
 20
70
 30
0
 11
106.25
 21
71.04071164443209
 31
0
 12
106.25
 22
68.95928835556789
 32
0
 13
106.25
 23
68.95928835556789
 33
0
  0
SOLID
  5
CC
100
AcDbEntity
  8
Dims
  6
ByBlock
 62
    0
370
   -2
100
AcDbTrace
 10
125
 20
70
 30
0
 11
118.75
 21
68.95928835556789
 31
0
 12
118.75
 22
71.04071164443211
 32
0
 13
118.75
 23
71.04071164443211
 33
0
  0
MTEXT
  5
CD
100
AcDbEntity
  8
Dims
  6
CONTINUOUS
 62
    0
370
   -2
100
AcDbMText
 10
112.5
 20
74.6875
 30
0
 40
6.25
 41
7.638888888889277
 71
    5
 72
    1
  1
25
  7
standard
210
0
220
0
230
1
 50
0
 73
    2
 44
1
  0
LINE
  5
CE
100
AcDbEntity
  8
Dims
  6
ByBlock
 62
    0
370
   -2
100
AcDbLine
 10
100
 20
78.4375
 11
100
 21
66.875
  0
LINE
  5
CF
100
AcDbEntity
  8
Dims
  6
ByBlock
 62
    0
370
   -2
100
AcDbLine
 10
125
 20
78.4375
 11
125
 21
66.875
  0
ENDBLK
  5
78
330
76
100
AcDbEntity
  8
0
100
AcDbBlockEnd
  0
BLOCK
  5
7A
330
79
100
AcDbEntity
  8
0
100
AcDbBlockBegin
  2
*D16
 70
    1
 10
0
 20
0
  3
*D16
  1

  0
LINE
  5
D0
100
AcDbEntity
  8
Dims
  6
ByBlock
 62
    0
370
   -2
100
AcDbLine
 10
124.5511465344277
 20
94.18801776174881
 11
103.0296308891924
 21
91.57934919869
  0
LINE
  5
D1
100
AcDbEntity
  8
Dims
  6
ByBlock
 62
    0
370
   -2
100
AcDbLine
 10
48.4375
 20
90
 11
76.875
 21
90
  0
ARC
  5
D2
100
AcDbEntity
  8
Dims
  6
ByBlock
 62
    0
370
   -2
100
AcDbCircle
 10
90
 20
90
 40
10
100
AcDbArc
 50
6.911227119024671
 51
180
  0
SOLID
  5
D3
100
AcDbEntity
  8
Dims
  6
ByBlock
 62
    0
370
   -2
100
AcDbTrace
 10
99.92733782033709
 20
91.20331367519238
 30
0
 11
96.35955092393452
 21
96.43938829161208
 31
0
 12
98.24877381926066
 22
97.31297844677738
 32
0
 13
98.24877381926066
 23
97.31297844677738
 33
0
  0
SOLID
  5
D4
100
AcDbEntity
  8
Dims
  6
ByBlock
 62
    0
370
   -2
100
AcDbTrace
 10
80
 20
90
 30
0
 11
80.93118287212529
 21
96.26725451737178
 31
0
 12
82.91179856012948
 22
95.62734483323037
 32
0
 13
82.91179856012948
 23
95.62734483323037
 33
0
  0
MTEXT
  5
D5
100
AcDbEntity
  8
Dims
  6
CONTINUOUS
 62
    0
370
   -2
100
AcDbMText
 10
89.30306711297553
 20
101.5414769765825
 30
0
 40
6.25
 41
15.27777777777816
 71
    8
 72
    1
  1
173%%D
  7
standard
210
0
220
0
230
1
 50
363.4556135595123
 73
    2
 44
1
  0
ENDBLK
  5
7B
330
79
100
AcDbEntity
  8
0
100
AcDbBlockEnd
  0
BLOCK
  5
7D
330
7C
100
AcDbEntity
  8
0
100
AcDbBlockBegin
  2
*D10
 70
    1
 10
0
 20
0
  3
*D10
  1

  0
LINE
  5
D6
100
AcDbEntity
  8
Dims
  6
ByBlock
 62
    0
370
   -2
100
AcDbLine
 10
126.5
 20
130
 11
93.5
 21
130
  0
SOLID
  5
D7
100
AcDbEntity
  8
Dims
  6
ByBlock
 62
    0
370
   -2
100
AcDbTrace
 10
114
 20
130
 30
0
 11
120.25
 21
131.0407116444321
 31
0
 12
120.25
 22
128.9592883555679
 32
0
 13
120.25
 23
128.9592883555679
 33
0
  0
SOLID
  5
D8
100
AcDbEntity
  8
Dims
  6
ByBlock
 62
    0
370
   -2
100
AcDbTrace
 10
106
 20
130
 30
0
 11
99.75
 21
128.9592883555679
 31
0
 12
99.75
 22
131.0407116444321
 32
0
 13
99.75
 23
131.0407116444321
 33
0
  0
MTEXT
  5
D9
100
AcDbEntity
  8
Dims
  6
CONTINUOUS
 62
    0
370
   -2
100
AcDbMText
 10
110
 20
134.6875
 30
0
 40
6.25
 41
2.777777777777778
 71
    5
 72
    1
  1
8
  7
standard
210
0
220
0
230
1
 50
360
 73
    2
 44
1
  0
LINE
  5
DA
100
AcDbEntity
  8
Dims
  6
ByBlock
 62
    0
370
   -2
100
AcDbLine
 10
114
 20
121.5625
 11
114
 21
133.125
  0
LINE
  5
DB
100
AcDbEntity
  8
Dims
  6
ByBlock
 62
    0
370
   -2
100
AcDbLine
 10
106
 20
121.5625
 11
106
 21
133.125
  0
ENDBLK
  5
7E
330
7C
100
AcDbEntity
  8
0
100
AcDbBlockEnd
  0
BLOCK
  5
80
330
7F
100
AcDbEntity
  8
0
100
AcDbBlockBegin
  2
*D13
 70
    1
 10
0
 20
0
  3
*D13
  1

  0
LINE
  5
DC
100
AcDbEntity
  8
Dims
  6
ByBlock
 62
    0
370
   -2
100
AcDbLine
 10
90
 20
130
 11
50
 21
130
  0
SOLID
  5
DD
100
AcDbEntity
  8
Dims
  6
ByBlock
 62
    0
370
   -2
100
AcDbTrace
 10
90
 20
130
 30
0
 11
83.75
 21
128.9592883555679
 31
0
 12
83.75
 22
131.0407116444321
 32
0
 13
83.75
 23
131.0407116444321
 33
0
  0
SOLID
  5
DE
100
AcDbEntity
  8
Dims
  6
ByBlock
 62
    0
370
   -2
100
AcDbTrace
 10
50
 20
130
 30
0
 11
56.25
 21
131.0407116444321
 31
0
 12
56.25
 22
128.9592883555679
 32
0
 13
56.25
 23
128.9592883555679
 33
0
  0
MTEXT
  5
DF
100
AcDbEntity
  8
Dims
  6
CONTINUOUS
 62
    0
370
   -2
100
AcDbMText
 10
70
 20
134.6875
 30
0
 40
6.25
 41
8.333333333333332
 71
    5
 72
    1
  1
40
  7
standard
210
0
220
0
230
1
 50
360
 73
    2
 44
1
  0
LINE
  5
E0
100
AcDbEntity
  8
Dims
  6
ByBlock
 62
    0
370
   -2
100
AcDbLine
 10
90
 20
121.5625
 11
90
 21
133.125
  0
LINE
  5
E1
100
AcDbEntity
  8
Dims
  6
ByBlock
 62
    0
370
   -2
100
AcDbLine
 10
50
 20
121.5625
 11
50
 21
133.125
  0
ENDBLK
  5
81
330
7F
100
AcDbEntity
  8
0
100
AcDbBlockEnd
  0
ENDSEC
  0
SECTION
  2
ENTITIES
  0
LINE
  5
E2
100
AcDbEntity
  8
Blade
  6
ByLayer
 62
  256
370
   -1
100
AcDbLine
 10
165
 20
101.5
 11
100
 21
101.5
  0
LINE
  5
E3
100
AcDbEntity
  8
Blade
  6
ByLayer
 62
  256
370
   -1
100
AcDbLine
 10
100
 20
101.5
 11
100
 21
98.5
  0
LINE
  5
E4
100
AcDbEntity
  8
Blade
  6
ByLayer
 62
  256
370
   -1
100
AcDbLine
 10
100
 20
98.5
 11
165
 21
98.5
  0
LINE
  5
E5
100
AcDbEntity
  8
Blade
  6
ByLayer
 62
  256
370
   -1
100
AcDbLine
 10
165
 20
98.5
 11
165
 21
101.5
  0
LINE
  5
E6
100
AcDbEntity
  8
Holder
  6
ByLayer
 62
  256
370
   -1
100
AcDbLine
 10
100
 20
101.5
 11
124
 21
101.5
  0
LINE
  5
E7
100
AcDbEntity
  8
Holder
  6
ByLayer
 62
  256
370
   -1
100
AcDbLine
 10
124
 20
101.5
 11
125
 21
102.5
  0
ARC
  5
E8
100
AcDbEntity
  8
Holder
  6
ByLayer
 62
  256
370
   -1
100
AcDbCircle
 10
122.5500000000001
 20
103.5500000000001
 40
2.490983741416157
100
AcDbArc
 50
10.40771131248911
 51
79.5922886875112
  0
LINE
  5
E9
100
AcDbEntity
  8
Holder
  6
ByLayer
 62
  256
370
   -1
100
AcDbLine
 10
125
 20
102.5
 11
125
 21
104
  0
LINE
  5
EA
100
AcDbEntity
  8
Holder
  6
ByLayer
 62
  256
370
   -1
100
AcDbLine
 10
100
 20
101.5
 11
100
 21
100
  0
LINE
  5
EB
100
AcDbEntity
  8
Holder
  6
ByLayer
 62
  256
370
   -1
100
AcDbLine
 10
100
 20
98.5
 11
124
 21
98.5
  0
LINE
  5
EC
100
AcDbEntity
  8
Holder
  6
ByLayer
 62
  256
370
   -1
100
AcDbLine
 10
124
 20
98.5
 11
125
 21
97.5
  0
ARC
  5
ED
100
AcDbEntity
  8
Holder
  6
ByLayer
 62
  256
370
   -1
100
AcDbCircle
 10
122.5500000000001
 20
96.44999999999993
 40
2.490983741416157
100
AcDbArc
 50
280.4077113124888
 51
349.5922886875109
  0
LINE
  5
EE
100
AcDbEntity
  8
Holder
  6
ByLayer
 62
  256
370
   -1
100
AcDbLine
 10
125
 20
97.5
 11
125
 21
95.99999999999999
  0
LINE
  5
EF
100
AcDbEntity
  8
Holder
  6
ByLayer
 62
  256
370
   -1
100
AcDbLine
 10
100
 20
98.49999999999999
 11
100
 21
99.99999999999999
  0
DIMENSION
  5
F0
100
AcDbEntity
  8
Dims
  6
ByLayer
 62
  256
370
   -1
100
AcDbDimension
  2
*D1
 10
-6.123233995736766e-16
 20
60
 30
0
 11
62.5
 21
64.6875
 31
0
 70
   32
 71
    5
  3
Standard
 53
0
210
0
220
0
230
1
100
AcDbAlignedDimension
 13
125
 23
70
 33
0
 14
0
 24
70
 34
0
100
AcDbRotatedDimension
  0
ARC
  5
F1
100
AcDbEntity
  8
Handle
  6
ByLayer
 62
  256
370
   -1
100
AcDbCircle
 10
17.99999999999997
 20
76.00000000000006
 40
2
100
AcDbArc
 50
270
 51
0
  0
LINE
  5
F2
100
AcDbEntity
  8
Handle
  6
ByLayer
 62
  256
370
   -1
100
AcDbLine
 10
17.99999999999997
 20
74.00000000000006
 11
10.99999999999997
 21
74.00000000000006
  0
ARC
  5
F3
100
AcDbEntity
  8
Handle
  6
ByLayer
 62
  256
370
   -1
100
AcDbCircle
 10
67.92105263157939
 20
103.8684210526316
 40
68.0311257588923
100
AcDbArc
 50
183.2597404997285
 51
202.3487916308447
  0
ARC
  5
F4
100
AcDbEntity
  8
Handle
  6
ByLayer
 62
  256
370
   -1
100
AcDbCircle
 10
12.80000000000017
 20
83.20000000000029
 40
9.37443331620663
100
AcDbArc
 50
213.6900675259816
 51
258.9297974220597
  0
ARC
  5
F5
100
AcDbEntity
  8
Handle
  6
ByLayer
 62
  256
370
   -1
100
AcDbCircle
 10
17.99999999999997
 20
124.0000000000001
 40
2
100
AcDbArc
 50
360
 51
90
  0
LINE
  5
F6
100
AcDbEntity
  8
Handle
  6
ByLayer
 62
  256
370
   -1
100
AcDbLine
 10
17.99999999999997
 20
126.0000000000001
 11
10.99999999999997
 21
126.0000000000001
  0
ARC
  5
F7
100
AcDbEntity
  8
Handle
  6
ByLayer
 62
  256
370
   -1
100
AcDbCircle
 10
67.92105263157939
 20
96.13157894736848
 40
68.0311257588923
100
AcDbArc
 50
157.6512083691553
 51
176.7402595002715
  0
ARC
  5
F8
100
AcDbEntity
  8
Handle
  6
ByLayer
 62
  256
370
   -1
100
AcDbCircle
 10
12.80000000000017
 20
116.7999999999998
 40
9.37443331620663
100
AcDbArc
 50
101.0702025779403
 51
146.3099324740184
  0
LINE
  5
F9
100
AcDbEntity
  8
Handle
  6
ByLayer
 62
  256
370
   -1
100
AcDbLine
 10
20
 20
80
 11
19.99999999999997
 21
76.00000000000006
  0
ARC
  5
FA
100
AcDbEntity
  8
Handle
  6
ByLayer
 62
  256
370
   -1
100
AcDbCircle
 10
30
 20
80
 40
10
100
AcDbArc
 50
90
 51
180
  0
LINE
  5
FB
100
AcDbEntity
  8
Handle
  6
ByLayer
 62
  256
370
   -1
100
AcDbLine
 10
50
 20
95
 11
50
 21
90
  0
LINE
  5
FC
100
AcDbEntity
  8
Handle
  6
ByLayer
 62
  256
370
   -1
100
AcDbLine
 10
50
 20
90
 11
30
 21
90
  0
LINE
  5
FD
100
AcDbEntity
  8
Handle
  6
ByLayer
 62
  256
370
   -1
100
AcDbLine
 10
50
 20
105
 11
50
 21
110
  0
LINE
  5
FE
100
AcDbEntity
  8
Handle
  6
ByLayer
 62
  256
370
   -1
100
AcDbLine
 10
30
 20
95
 11
50
 21
95
  0
LINE
  5
FF
100
AcDbEntity
  8
Handle
  6
ByLayer
 62
  256
370
   -1
100
AcDbLine
 10
30
 20
100
 11
30
 21
95
  0
LINE
  5
100
100
AcDbEntity
  8
Handle
  6
ByLayer
 62
  256
370
   -1
100
AcDbLine
 10
30
 20
105
 11
50
 21
105
  0
LINE
  5
101
100
AcDbEntity
  8
Handle
  6
ByLayer
 62
  256
370
   -1
100
AcDbLine
 10
30
 20
100
 11
30
 21
105
  0
LINE
  5
102
100
AcDbEntity
  8
Handle
  6
ByLayer
 62
  256
370
   -1
100
AcDbLine
 10
20
 20
120
 11
19.99999999999997
 21
123.9999999999999
  0
ARC
  5
103
100
AcDbEntity
  8
Handle
  6
ByLayer
 62
  256
370
   -1
100
AcDbCircle
 10
30
 20
120
 40
10
100
AcDbArc
 50
180
 51
270
  0
LINE
  5
104
100
AcDbEntity
  8
Handle
  6
ByLayer
 62
  256
370
   -1
100
AcDbLine
 10
50
 20
110
 11
30
 21
110
  0
LINE
  5
105
100
AcDbEntity
  8
Holder
  6
ByLayer
 62
  256
370
   -1
100
AcDbLine
 10
50
 20
110
 11
50
 21
90
  0
LINE
  5
106
100
AcDbEntity
  8
Holder
  6
ByLayer
 62
  256
370
   -1
100
AcDbLine
 10
50
 20
105
 11
30
 21
105
  0
LINE
  5
107
100
AcDbEntity
  8
Holder
  6
ByLayer
 62
  256
370
   -1
100
AcDbLine
 10
30
 20
105
 11
30
 21
95
  0
LINE
  5
108
100
AcDbEntity
  8
Holder
  6
ByLayer
 62
  256
370
   -1
100
AcDbLine
 10
30
 20
95
 11
50
 21
95
  0
LINE
  5
109
100
AcDbEntity
  8
Holder
  6
ByLayer
 62
  256
370
   -1
100
AcDbLine
 10
90
 20
90
 11
123
 21
94
  0
LINE
  5
10A
100
AcDbEntity
  8
Holder
  6
ByLayer
 62
  256
370
   -1
100
AcDbLine
 10
90
 20
90
 11
50
 21
90
  0
LINE
  5
10B
100
AcDbEntity
  8
Holder
  6
ByLayer
 62
  256
370
   -1
100
AcDbLine
 10
90
 20
110
 11
50
 21
110
  0
LINE
  5
10C
100
AcDbEntity
  8
Holder
  6
ByLayer
 62
  256
370
   -1
100
AcDbLine
 10
90
 20
110
 11
123
 21
106
  0
LINE
  5
10D
100
AcDbEntity
  8
Holder
  6
ByLayer
 62
  256
370
   -1
100
AcDbLine
 10
102
 20
101.5
 11
102
 21
108.5
  0
LINE
  5
10E
100
AcDbEntity
  8
Holder
  6
ByLayer
 62
  256
370
   -1
100
AcDbLine
 10
106
 20
101.5
 11
106
 21
108
  0
LINE
  5
10F
100
AcDbEntity
  8
Holder
  6
ByLayer
 62
  256
370
   -1
100
AcDbLine
 10
114
 20
101.5
 11
114
 21
107
  0
LINE
  5
110
100
AcDbEntity
  8
Holder
  6
ByLayer
 62
  256
370
   -1
100
AcDbLine
 10
118
 20
101.5
 11
118
 21
106.6
  0
LINE
  5
111
100
AcDbEntity
  8
Fasteners
  6
ByLayer
 62
  256
370
   -1
100
AcDbLine
 10
105
 20
101.5
 11
106
 21
102.4
  0
LINE
  5
112
100
AcDbEntity
  8
Fasteners
  6
ByLayer
 62
  256
370
   -1
100
AcDbLine
 10
106
 20
107
 11
102
 21
107
  0
LINE
  5
113
100
AcDbEntity
  8
Fasteners
  6
ByLayer
 62
  256
370
   -1
100
AcDbLine
 10
103
 20
101.5
 11
105
 21
101.5
  0
LINE
  5
114
100
AcDbEntity
  8
Fasteners
  6
ByLayer
 62
  256
370
   -1
100
AcDbLine
 10
106
 20
102.4
 11
106
 21
107
  0
LINE
  5
115
100
AcDbEntity
  8
Fasteners
  6
ByLayer
 62
  256
370
   -1
100
AcDbLine
 10
102
 20
107
 11
102
 21
102.4
  0
LINE
  5
116
100
AcDbEntity
  8
Fasteners
  6
ByLayer
 62
  256
370
   -1
100
AcDbLine
 10
102
 20
102.4
 11
103
 21
101.5
  0
LINE
  5
117
100
AcDbEntity
  8
Fasteners
  6
ByLayer
 62
  256
370
   -1
100
AcDbLine
 10
117
 20
101.5
 11
118
 21
102.4
  0
LINE
  5
118
100
AcDbEntity
  8
Fasteners
  6
ByLayer
 62
  256
370
   -1
100
AcDbLine
 10
118
 20
107
 11
114
 21
107
  0
LINE
  5
119
100
AcDbEntity
  8
Fasteners
  6
ByLayer
 62
  256
370
   -1
100
AcDbLine
 10
115
 20
101.5
 11
117
 21
101.5
  0
LINE
  5
11A
100
AcDbEntity
  8
Fasteners
  6
ByLayer
 62
  256
370
   -1
100
AcDbLine
 10
118
 20
102.4
 11
118
 21
107
  0
LINE
  5
11B
100
AcDbEntity
  8
Fasteners
  6
ByLayer
 62
  256
370
   -1
100
AcDbLine
 10
114
 20
107
 11
114
 21
102.4
  0
LINE
  5
11C
100
AcDbEntity
  8
Fasteners
  6
ByLayer
 62
  256
370
   -1
100
AcDbLine
 10
114
 20
102.4
 11
115
 21
101.5
  0
DIMENSION
  5
11D
100
AcDbEntity
  8
Dims
  6
ByLayer
 62
  256
370
   -1
100
AcDbDimension
  2
*D2
 10
50
 20
150
 30
0
 11
25
 21
154.6875
 31
0
 70
   32
 71
    5
  3
Standard
 53
0
210
0
220
0
230
1
100
AcDbAlignedDimension
 13
0
 23
140
 33
0
 14
50
 24
140
 34
0
100
AcDbRotatedDimension
  0
DIMENSION
  5
11E
100
AcDbEntity
  8
Dims
  6
ByLayer
 62
  256
370
   -1
100
AcDbDimension
  2
*D3
 10
125
 20
150
 30
0
 11
87.5
 21
154.6875
 31
0
 70
   32
 71
    5
  3
Standard
 53
0
210
0
220
0
230
1
100
AcDbAlignedDimension
 13
50
 23
140
 33
0
 14
125
 24
140
 34
0
100
AcDbRotatedDimension
  0
DIMENSION
  5
11F
100
AcDbEntity
  8
Dims
  6
ByLayer
 62
  256
370
   -1
100
AcDbDimension
  2
*D4
 10
-20
 20
95
 30
0
 11
-24.6875
 21
100
 31
0
 70
   33
 71
    5
  3
Standard
 53
0
210
0
220
0
230
1
100
AcDbAlignedDimension
 13
-10
 23
105
 33
0
 14
-10
 24
95
 34
0
  0
DIMENSION
  5
120
100
AcDbEntity
  8
Dims
  6
ByLayer
 62
  256
370
   -1
100
AcDbDimension
  2
*D5
 10
-40
 20
90
 30
0
 11
-44.6875
 21
100
 31
0
 70
   33
 71
    5
  3
Standard
 53
0
210
0
220
0
230
1
100
AcDbAlignedDimension
 13
-30
 23
110
 33
0
 14
-30
 24
90
 34
0
  0
DIMENSION
  5
121
100
AcDbEntity
  8
Dims
  6
ByLayer
 62
  256
370
   -1
100
AcDbDimension
  2
*D6
 10
-60
 20
74
 30
0
 11
-64.6875
 21
100
 31
0
 70
   33
 71
    5
  3
Standard
 53
0
210
0
220
0
230
1
100
AcDbAlignedDimension
 13
-50
 23
126
 33
0
 14
-50
 24
74
 34
0
  0
DIMENSION
  5
122
100
AcDbEntity
  8
Dims
  6
ByLayer
 62
  256
370
   -1
100
AcDbDimension
  2
*D7
 10
125
 20
70
 30
0
 11
112.5
 21
74.6875
 31
0
 70
   32
 71
    5
  3
Standard
 53
0
210
0
220
0
230
1
100
AcDbAlignedDimension
 13
100
 23
80
 33
0
 14
125
 24
80
 34
0
100
AcDbRotatedDimension
  0
DIMENSION
  5
123
100
AcDbEntity
  8
Dims
  6
ByLayer
 62
  256
370
   -1
100
AcDbDimension
  2
*D8
 10
118
 20
130
 30
0
 11
121.5
 21
134.6875
 31
0
 70
   32
 71
    5
  3
Standard
 53
0
210
0
220
0
230
1
100
AcDbAlignedDimension
 13
125
 23
120
 33
0
 14
118
 24
120
 34
0
100
AcDbRotatedDimension
  0
DIMENSION
  5
124
100
AcDbEntity
  8
Dims
  6
ByLayer
 62
  256
370
   -1
100
AcDbDimension
  2
*D9
 10
114
 20
110
 30
0
 11
116
 21
114.6875
 31
0
 70
   32
 71
    5
  3
Standard
 53
0
210
0
220
0
230
1
100
AcDbAlignedDimension
 13
118
 23
120
 33
0
 14
114
 24
120
 34
0
100
AcDbRotatedDimension
  0
DIMENSION
  5
125
100
AcDbEntity
  8
Dims
  6
ByLayer
 62
  256
370
   -1
100
AcDbDimension
  2
*D10
 10
106
 20
130
 30
0
 11
110
 21
134.6875
 31
0
 70
   32
 71
    5
  3
Standard
 53
0
210
0
220
0
230
1
100
AcDbAlignedDimension
 13
114
 23
120
 33
0
 14
106
 24
120
 34
0
100
AcDbRotatedDimension
  0
DIMENSION
  5
126
100
AcDbEntity
  8
Dims
  6
ByLayer
 62
  256
370
   -1
100
AcDbDimension
  2
*D11
 10
102
 20
110
 30
0
 11
104
 21
114.6875
 31
0
 70
   32
 71
    5
  3
Standard
 53
0
210
0
220
0
230
1
100
AcDbAlignedDimension
 13
106
 23
120
 33
0
 14
102
 24
120
 34
0
100
AcDbRotatedDimension
  0
DIMENSION
  5
127
100
AcDbEntity
  8
Dims
  6
ByLayer
 62
  256
370
   -1
100
AcDbDimension
  2
*D12
 10
90
 20
130
 30
0
 11
96
 21
134.6875
 31
0
 70
   32
 71
    5
  3
Standard
 53
0
210
0
220
0
230
1
100
AcDbAlignedDimension
 13
102
 23
120
 33
0
 14
90
 24
120
 34
0
100
AcDbRotatedDimension
  0
DIMENSION
  5
128
100
AcDbEntity
  8
Dims
  6
ByLayer
 62
  256
370
   -1
100
AcDbDimension
  2
*D13
 10
50
 20
130
 30
0
 11
70
 21
134.6875
 31
0
 70
   32
 71
    5
 72
    0
  3
Standard
 53
0
210
0
220
0
230
1
100
AcDbAlignedDimension
 13
90
 23
120
 33
0
 14
50
 24
120
 34
0
100
AcDbRotatedDimension
  0
DIMENSION
  5
129
100
AcDbEntity
  8
Dims
  6
ByLayer
 62
  256
370
   -1
100
AcDbDimension
  2
*D14
 10
30
 20
130
 30
0
 11
40
 21
134.6875
 31
0
 70
   32
 71
    5
 72
    0
  3
Standard
 53
0
210
0
220
0
230
1
100
AcDbAlignedDimension
 13
50
 23
120
 33
0
 14
30
 24
120
 34
0
100
AcDbRotatedDimension
  0
DIMENSION
  5
12A
100
AcDbEntity
  8
Dims
  6
ByLayer
 62
  256
370
   -1
100
AcDbDimension
  2
*D15
 10
180.0000000000001
 20
101.5
 30
0
 11
184.6875000000001
 21
99.99999999999987
 31
0
 70
   33
 71
    5
 72
    0
  3
Standard
 53
0
210
0
220
0
230
1
100
AcDbAlignedDimension
 13
170
 23
98.5
 33
0
 14
170
 24
101.5
 34
0
  0
DIMENSION
  5
12B
100
AcDbEntity
  8
Dims
  6
ByLayer
 62
  256
370
   -1
100
AcDbDimension
  2
*D16
 10
50
 20
90
 30
0
 11
0
 21
0
 31
0
 70
   34
 71
    5
  3
Standard
 53
0
210
0
220
0
230
1
100
AcDb2LineAngularDimension
 13
90
 23
90
 33
0
 14
123
 24
94
 34
0
 15
90
 25
90
 35
0
 16
80
 26
90
 36
0
  0
ENDSEC
  0
SECTION
  2
OBJECTS
  0
DICTIONARY
  5
C
330
0
100
AcDbDictionary
281
    1
  3
ACAD_GROUP
350
D
  0
DICTIONARY
  5
D
330
C
100
AcDbDictionary
281
    1
  0
ENDSEC
  0
EOF
