999
dxfrw 0.6.3
  0
SECTION
  2
HEADER
  9
$ACADVER
  1
AC1021
  9
$DWGCODEPAGE
  3
ANSI_1252
  9
$INSBASE
 10
0
 20
0
 30
0
  9
$EXTMIN
 10
100
 20
-20
 30
0
  9
$EXTMAX
 10
1697
 20
536.625
 30
0
  9
$LIMMIN
 10
0
 20
0
  9
$LIMMAX
 10
420
 20
297
  9
$ORTHOMODE
 70
    0
  9
$REGENMODE
 70
    1
  9
$FILLMODE
 70
    1
  9
$QTEXTMODE
 70
    0
  9
$MIRRTEXT
 70
    0
  9
$LTSCALE
 40
1
  9
$ATTMODE
 70
    0
  9
$TEXTSIZE
 40
2.5
  9
$TRACEWID
 40
15.68
  9
$TEXTSTYLE
  7
STANDARD
  9
$CLAYER
  8
Dimms
  9
$CELTYPE
  6
BYLAYER
  9
$CECOLOR
 62
  256
  9
$CELTSCALE
 40
1
  9
$DISPSILH
 70
    0
  9
$DIMSCALE
 40
1
  9
$DIMASZ
 40
2.5
  9
$DIMEXO
 40
0.625
  9
$DIMDLI
 40
3.75
  9
$DIMRND
 40
0
  9
$DIMDLE
 40
0
  9
$DIMEXE
 40
1.25
  9
$DIMTP
 40
0
  9
$DIMTM
 40
0
  9
$DIMTXT
 40
6
  9
$DIMCEN
 40
2.5
  9
$DIMTSZ
 40
0
  9
$DIMTOL
 70
    0
  9
$DIMLIM
 70
    0
  9
$DIMTIH
 70
    0
  9
$DIMTOH
 70
    0
  9
$DIMSE1
 70
    0
  9
$DIMSE2
 70
    0
  9
$DIMTAD
 70
    1
  9
$DIMZIN
 70
    1
  9
$DIMBLK
  1

  9
$DIMASO
 70
    1
  9
$DIMSHO
 70
    1
  9
$DIMPOST
  1

  9
$DIMAPOST
  1

  9
$DIMALT
 70
    0
  9
$DIMALTD
 70
    3
  9
$DIMALTF
 40
0.03937
  9
$DIMLFAC
 40
1
  9
$DIMTOFL
 70
    1
  9
$DIMTVP
 40
0
  9
$DIMTIX
 70
    0
  9
$DIMSOXD
 70
    0
  9
$DIMSAH
 70
    0
  9
$DIMBLK1
  1

  9
$DIMBLK2
  1

  9
$DIMSTYLE
  2
Standard
  9
$DIMCLRD
 70
    0
  9
$DIMCLRE
 70
    0
  9
$DIMCLRT
 70
    0
  9
$DIMTFAC
 40
1
  9
$DIMGAP
 40
0.625
  9
$DIMJUST
 70
    0
  9
$DIMSD1
 70
    0
  9
$DIMSD2
 70
    0
  9
$DIMTOLJ
 70
    0
  9
$DIMTZIN
 70
    8
  9
$DIMALTZ
 70
    0
  9
$DIMALTTZ
 70
    0
  9
$DIMUPT
 70
    0
  9
$DIMDEC
 70
    1
  9
$DIMTDEC
 70
    2
  9
$DIMALTU
 70
    2
  9
$DIMALTTD
 70
    3
  9
$DIMTXSTY
  7
standard
  9
$DIMAUNIT
 70
    0
  9
$DIMADEC
 70
    1
  9
$DIMALTRND
 40
0
  9
$DIMAZIN
 70
    0
  9
$DIMDSEP
 70
    0
  9
$DIMATFIT
 70
    3
  9
$DIMFRAC
 70
    0
  9
$DIMLDRBLK
  1
STANDARD
  9
$DIMLUNIT
 70
    2
  9
$DIMLWD
 70
   -2
  9
$DIMLWE
 70
   -2
  9
$DIMTMOVE
 70
    0
  9
$DIMFXL
 40
1
  9
$DIMFXLON
 70
    0
  9
$DIMJOGANG
 40
0.7854
  9
$DIMTFILL
 70
    0
  9
$DIMTFILLCLR
 70
    0
  9
$DIMARCSYM
 70
    0
  9
$DIMLTYPE
  6

  9
$DIMLTEX1
  6

  9
$DIMLTEX2
  6

  9
$LUNITS
 70
    2
  9
$LUPREC
 70
    4
  9
$SKETCHINC
 40
1
  9
$FILLETRAD
 40
0
  9
$AUNITS
 70
    0
  9
$AUPREC
 70
    2
  9
$MENU
  1
.
  9
$ELEVATION
 40
0
  9
$PELEVATION
 40
0
  9
$THICKNESS
 40
0
  9
$LIMCHECK
 70
    0
  9
$CHAMFERA
 40
0
  9
$CHAMFERB
 40
0
  9
$CHAMFERC
 40
0
  9
$CHAMFERD
 40
0
  9
$SKPOLY
 70
    0
  9
$USRTIMER
 70
    1
  9
$ANGBASE
 50
0
  9
$ANGDIR
 70
    0
  9
$PDMODE
 70
   34
  9
$PDSIZE
 40
0
  9
$PLINEWID
 40
0
  9
$SPLFRAME
 70
    0
  9
$SPLINETYPE
 70
    2
  9
$SPLINESEGS
 70
    8
  9
$HANDSEED
  5
20000
  9
$SURFTAB1
 70
    6
  9
$SURFTAB2
 70
    6
  9
$SURFTYPE
 70
    6
  9
$SURFU
 70
    6
  9
$SURFV
 70
    6
  9
$UCSBASE
  2

  9
$UCSNAME
  2

  9
$UCSORG
 10
0
 20
0
 30
0
  9
$UCSXDIR
 10
1
 20
0
 30
0
  9
$UCSYDIR
 10
0
 20
1
 30
0
  9
$UCSORTHOREF
  2

  9
$UCSORTHOVIEW
 70
    0
  9
$UCSORGTOP
 10
0
 20
0
 30
0
  9
$UCSORGBOTTOM
 10
0
 20
0
 30
0
  9
$UCSORGLEFT
 10
0
 20
0
 30
0
  9
$UCSORGRIGHT
 10
0
 20
0
 30
0
  9
$UCSORGFRONT
 10
0
 20
0
 30
0
  9
$UCSORGBACK
 10
0
 20
0
 30
0
  9
$PUCSBASE
  2

  9
$PUCSNAME
  2

  9
$PUCSORG
 10
0
 20
0
 30
0
  9
$PUCSXDIR
 10
1
 20
0
 30
0
  9
$PUCSYDIR
 10
0
 20
1
 30
0
  9
$PUCSORTHOREF
  2

  9
$PUCSORTHOVIEW
 70
    0
  9
$PUCSORGTOP
 10
0
 20
0
 30
0
  9
$PUCSORGBOTTOM
 10
0
 20
0
 30
0
  9
$PUCSORGLEFT
 10
0
 20
0
 30
0
  9
$PUCSORGRIGHT
 10
0
 20
0
 30
0
  9
$PUCSORGFRONT
 10
0
 20
0
 30
0
  9
$PUCSORGBACK
 10
0
 20
0
 30
0
  9
$USERI1
 70
    0
  9
$USERI2
 70
    0
  9
$USERI3
 70
    0
  9
$USERI4
 70
    0
  9
$USERI5
 70
    0
  9
$USERR1
 40
0
  9
$USERR2
 40
0
  9
$USERR3
 40
0
  9
$USERR4
 40
0
  9
$USERR5
 40
0
  9
$WORLDVIEW
 70
    1
  9
$SHADEDGE
 70
    3
  9
$SHADEDIF
 70
   70
  9
$TILEMODE
 70
    1
  9
$MAXACTVP
 70
   64
  9
$PINSBASE
 10
-588.0057697102762
 20
-7.680408277785759
 30
0
  9
$PLIMCHECK
 70
    0
  9
$PEXTMIN
 10
0
 20
0
 30
0
  9
$PEXTMAX
 10
0
 20
0
 30
0
  9
$GRIDMODE
 70
    1
  9
$SNAPSTYLE
 70
    0
  9
$GRIDUNIT
 10
0
 20
0
  9
$PLIMMIN
 10
0
 20
0
  9
$PLIMMAX
 10
297
 20
210
  9
$UNITMODE
 70
    0
  9
$VISRETAIN
 70
    1
  9
$PLINEGEN
 70
    0
  9
$PSLTSCALE
 70
    1
  9
$TREEDEPTH
 70
 3020
  9
$CMLSTYLE
  2
Standard
  9
$CMLJUST
 70
    0
  9
$CMLSCALE
 40
20
  9
$PROXYGRAPHICS
 70
    1
  9
$MEASUREMENT
 70
    1
  9
$CELWEIGHT
370
   -1
  9
$ENDCAPS
280
    0
  9
$JOINSTYLE
280
    0
  9
$LWDISPLAY
290
    0
  9
$INSUNITS
 70
    4
  9
$HYPERLINKBASE
  1

  9
$STYLESHEET
  1

  9
$XEDIT
290
    1
  9
$CEPSNTYPE
380
    0
  9
$PSTYLEMODE
290
    1
  9
$EXTNAMES
290
    1
  9
$PSVPSCALE
 40
0.5
  9
$OLESTARTUP
290
    0
  9
$SORTENTS
280
  127
  9
$INDEXCTL
280
    0
  9
$HIDETEXT
280
    1
  9
$XCLIPFRAME
290
    0
  9
$HALOGAP
280
    0
  9
$OBSCOLOR
 70
  257
  9
$OBSLTYPE
280
    0
  9
$INTERSECTIONDISPLAY
280
    0
  9
$INTERSECTIONCOLOR
 70
  257
  9
$DIMASSOC
280
    1
  9
$PROJECTNAME
  1

  9
$CAMERADISPLAY
290
    0
  9
$LENSLENGTH
 40
50
  9
$CAMERAHEIGHT
 40
0
  9
$STEPSPERSEC
 40
2
  9
$STEPSIZE
 40
50
  9
$3DDWFPREC
 40
2
  9
$PSOLWIDTH
 40
5
  9
$PSOLHEIGHT
 40
80
  9
$LOFTANG1
 40
1.570796326794897
  9
$LOFTANG2
 40
1.570796326794897
  9
$LOFTMAG1
 40
0
  9
$LOFTMAG2
 40
0
  9
$LOFTPARAM
 70
    7
  9
$LOFTNORMALS
280
    1
  9
$LATITUDE
 40
1
  9
$LONGITUDE
 40
1
  9
$NORTHDIRECTION
 40
0
  9
$TIMEZONE
 70
-8000
  9
$LIGHTGLYPHDISPLAY
280
    1
  9
$TILEMODELIGHTSYNCH
280
    1
  9
$SOLIDHIST
280
    1
  9
$SHOWHIST
280
    1
  9
$DWFFRAME
280
    2
  9
$DGNFRAME
280
    0
  9
$REALWORLDSCALE
290
    1
  9
$INTERFERECOLOR
 62
    1
  9
$CSHADOW
280
    0
  9
$SHADOWPLANELOCATION
 40
0
  0
ENDSEC
  0
SECTION
  2
CLASSES
  0
ENDSEC
  0
SECTION
  2
TABLES
  0
TABLE
  2
VPORT
  5
8
330
0
100
AcDbSymbolTable
 70
    1
  0
VPORT
  5
31
330
2
100
AcDbSymbolTableRecord
100
AcDbViewportTableRecord
  2
*ACTIVE
 70
    0
 10
0
 20
0
 11
1
 21
1
 12
880.4141455437449
 22
353.1369582992641
 13
0
 23
0
 14
10
 24
10
 15
10
 25
10
 16
0
 26
0
 36
1
 17
0
 27
0
 37
0
 40
897.7587898609975
 41
1.921174652241113
 42
50
 43
0
 44
0
 50
0
 51
0
 71
    0
 72
  100
 73
    1
 74
    3
 75
    0
 76
    1
 77
    0
 78
    0
281
    0
 65
    1
110
0
120
0
130
0
111
1
121
0
131
0
112
0
122
1
132
0
 79
    0
146
0
348
10020
 60
    7
 61
    5
292
1
282
    1
141
0
142
0
 63
  250
421
3358443
  0
ENDTAB
  0
TABLE
  2
LTYPE
  5
5
330
0
100
AcDbSymbolTable
 70
    4
  0
LTYPE
  5
14
330
5
100
AcDbSymbolTableRecord
100
AcDbLinetypeTableRecord
  2
ByBlock
 70
    0
  3

 72
   65
 73
    0
 40
0
  0
LTYPE
  5
15
330
5
100
AcDbSymbolTableRecord
100
AcDbLinetypeTableRecord
  2
ByLayer
 70
    0
  3

 72
   65
 73
    0
 40
0
  0
LTYPE
  5
16
330
5
100
AcDbSymbolTableRecord
100
AcDbLinetypeTableRecord
  2
Continuous
 70
    0
  3
Solid line
 72
   65
 73
    0
 40
0
  0
LTYPE
  5
32
330
5
100
AcDbSymbolTableRecord
100
AcDbLinetypeTableRecord
  2
DOT
 70
    0
  3
Dot . . . . . . . . . . . . . . . . . . . . . .
 72
   65
 73
    2
 40
6.35
 49
0
 74
    0
 49
-6.35
 74
    0
  0
LTYPE
  5
33
330
5
100
AcDbSymbolTableRecord
100
AcDbLinetypeTableRecord
  2
DOTTINY
 70
    0
  3
Dot (.15x) .....................................
 72
   65
 73
    2
 40
0.9525
 49
0
 74
    0
 49
-0.9525
 74
    0
  0
LTYPE
  5
34
330
5
100
AcDbSymbolTableRecord
100
AcDbLinetypeTableRecord
  2
DOT2
 70
    0
  3
Dot (.5x) .....................................
 72
   65
 73
    2
 40
3.175
 49
0
 74
    0
 49
-3.175
 74
    0
  0
LTYPE
  5
35
330
5
100
AcDbSymbolTableRecord
100
AcDbLinetypeTableRecord
  2
DOTX2
 70
    0
  3
Dot (2x) .  .  .  .  .  .  .  .  .  .  .  .  .
 72
   65
 73
    2
 40
12.7
 49
0
 74
    0
 49
-12.7
 74
    0
  0
LTYPE
  5
36
330
5
100
AcDbSymbolTableRecord
100
AcDbLinetypeTableRecord
  2
DASHED
 70
    0
  3
Dashed _ _ _ _ _ _ _ _ _ _ _ _ _ _ _ _ _
 72
   65
 73
    2
 40
19.05
 49
12.7
 74
    0
 49
-6.35
 74
    0
  0
LTYPE
  5
37
330
5
100
AcDbSymbolTableRecord
100
AcDbLinetypeTableRecord
  2
DASHEDTINY
 70
    0
  3
Dashed (.15x) _ _ _ _ _ _ _ _ _ _ _ _ _ _ _ _ _
 72
   65
 73
    2
 40
2.8575
 49
1.905
 74
    0
 49
-0.9525
 74
    0
  0
LTYPE
  5
38
330
5
100
AcDbSymbolTableRecord
100
AcDbLinetypeTableRecord
  2
DASHED2
 70
    0
  3
Dashed (.5x) _ _ _ _ _ _ _ _ _ _ _ _ _ _ _ _ _
 72
   65
 73
    2
 40
9.524999999999999
 49
6.35
 74
    0
 49
-3.175
 74
    0
  0
LTYPE
  5
39
330
5
100
AcDbSymbolTableRecord
100
AcDbLinetypeTableRecord
  2
DASHEDX2
 70
    0
  3
Dashed (2x) ____  ____  ____  ____  ____  ___
 72
   65
 73
    2
 40
38.09999999999999
 49
25.4
 74
    0
 49
-12.7
 74
    0
  0
LTYPE
  5
3A
330
5
100
AcDbSymbolTableRecord
100
AcDbLinetypeTableRecord
  2
DASHDOT
 70
    0
  3
Dash dot __ . __ . __ . __ . __ . __ . __ . __
 72
   65
 73
    4
 40
25.4
 49
12.7
 74
    0
 49
-6.35
 74
    0
 49
0
 74
    0
 49
-6.35
 74
    0
  0
LTYPE
  5
3B
330
5
100
AcDbSymbolTableRecord
100
AcDbLinetypeTableRecord
  2
DASHDOTTINY
 70
    0
  3
Dash dot (.15x) _._._._._._._._._._._._._._._.
 72
   65
 73
    4
 40
3.81
 49
1.905
 74
    0
 49
-0.9525
 74
    0
 49
0
 74
    0
 49
-0.9525
 74
    0
  0
LTYPE
  5
3C
330
5
100
AcDbSymbolTableRecord
100
AcDbLinetypeTableRecord
  2
DASHDOT2
 70
    0
  3
Dash dot (.5x) _._._._._._._._._._._._._._._.
 72
   65
 73
    4
 40
12.7
 49
6.35
 74
    0
 49
-3.175
 74
    0
 49
0
 74
    0
 49
-3.175
 74
    0
  0
LTYPE
  5
3D
330
5
100
AcDbSymbolTableRecord
100
AcDbLinetypeTableRecord
  2
DASHDOTX2
 70
    0
  3
Dash dot (2x) ____  .  ____  .  ____  .  ___
 72
   65
 73
    4
 40
50.8
 49
25.4
 74
    0
 49
-12.7
 74
    0
 49
0
 74
    0
 49
-12.7
 74
    0
  0
LTYPE
  5
3E
330
5
100
AcDbSymbolTableRecord
100
AcDbLinetypeTableRecord
  2
DIVIDE
 70
    0
  3
Divide ____ . . ____ . . ____ . . ____ . . ____
 72
   65
 73
    6
 40
31.75
 49
12.7
 74
    0
 49
-6.35
 74
    0
 49
0
 74
    0
 49
-6.35
 74
    0
 49
0
 74
    0
 49
-6.35
 74
    0
  0
LTYPE
  5
3F
330
5
100
AcDbSymbolTableRecord
100
AcDbLinetypeTableRecord
  2
DIVIDETINY
 70
    0
  3
Divide (.15x) __..__..__..__..__..__..__..__.._
 72
   65
 73
    6
 40
4.7625
 49
1.905
 74
    0
 49
-0.9525
 74
    0
 49
0
 74
    0
 49
-0.9525
 74
    0
 49
0
 74
    0
 49
-0.9525
 74
    0
  0
LTYPE
  5
40
330
5
100
AcDbSymbolTableRecord
100
AcDbLinetypeTableRecord
  2
DIVIDE2
 70
    0
  3
Divide (.5x) __..__..__..__..__..__..__..__.._
 72
   65
 73
    6
 40
15.875
 49
6.35
 74
    0
 49
-3.175
 74
    0
 49
0
 74
    0
 49
-3.175
 74
    0
 49
0
 74
    0
 49
-3.175
 74
    0
  0
LTYPE
  5
41
330
5
100
AcDbSymbolTableRecord
100
AcDbLinetypeTableRecord
  2
DIVIDEX2
 70
    0
  3
Divide (2x) ________  .  .  ________  .  .  _
 72
   65
 73
    6
 40
63.5
 49
25.4
 74
    0
 49
-12.7
 74
    0
 49
0
 74
    0
 49
-12.7
 74
    0
 49
0
 74
    0
 49
-12.7
 74
    0
  0
LTYPE
  5
42
330
5
100
AcDbSymbolTableRecord
100
AcDbLinetypeTableRecord
  2
BORDER
 70
    0
  3
Border __ __ . __ __ . __ __ . __ __ . __ __ .
 72
   65
 73
    6
 40
44.45
 49
12.7
 74
    0
 49
-6.35
 74
    0
 49
12.7
 74
    0
 49
-6.35
 74
    0
 49
0
 74
    0
 49
-6.35
 74
    0
  0
LTYPE
  5
43
330
5
100
AcDbSymbolTableRecord
100
AcDbLinetypeTableRecord
  2
BORDERTINY
 70
    0
  3
Border (.15x) __.__.__.__.__.__.__.__.__.__.__.
 72
   65
 73
    6
 40
6.6675
 49
1.905
 74
    0
 49
-0.9525
 74
    0
 49
1.905
 74
    0
 49
-0.9525
 74
    0
 49
0
 74
    0
 49
-0.9525
 74
    0
  0
LTYPE
  5
44
330
5
100
AcDbSymbolTableRecord
100
AcDbLinetypeTableRecord
  2
BORDER2
 70
    0
  3
Border (.5x) __.__.__.__.__.__.__.__.__.__.__.
 72
   65
 73
    6
 40
22.225
 49
6.35
 74
    0
 49
-3.175
 74
    0
 49
6.35
 74
    0
 49
-3.175
 74
    0
 49
0
 74
    0
 49
-3.175
 74
    0
  0
LTYPE
  5
45
330
5
100
AcDbSymbolTableRecord
100
AcDbLinetypeTableRecord
  2
BORDERX2
 70
    0
  3
Border (2x) ____  ____  .  ____  ____  .  ___
 72
   65
 73
    6
 40
88.89999999999999
 49
25.4
 74
    0
 49
-12.7
 74
    0
 49
25.4
 74
    0
 49
-12.7
 74
    0
 49
0
 74
    0
 49
-12.7
 74
    0
  0
LTYPE
  5
46
330
5
100
AcDbSymbolTableRecord
100
AcDbLinetypeTableRecord
  2
CENTER
 70
    0
  3
Center ____ _ ____ _ ____ _ ____ _ ____ _ ____
 72
   65
 73
    4
 40
50.8
 49
31.75
 74
    0
 49
-6.35
 74
    0
 49
6.35
 74
    0
 49
-6.35
 74
    0
  0
LTYPE
  5
47
330
5
100
AcDbSymbolTableRecord
100
AcDbLinetypeTableRecord
  2
CENTERTINY
 70
    0
  3
Center (.15x) ___ _ ___ _ ___ _ ___ _ ___ _ ___
 72
   65
 73
    4
 40
7.619999999999999
 49
4.7625
 74
    0
 49
-0.9525
 74
    0
 49
0.9525
 74
    0
 49
-0.9525
 74
    0
  0
LTYPE
  5
48
330
5
100
AcDbSymbolTableRecord
100
AcDbLinetypeTableRecord
  2
CENTER2
 70
    0
  3
Center (.5x) ___ _ ___ _ ___ _ ___ _ ___ _ ___
 72
   65
 73
    4
 40
28.575
 49
19.05
 74
    0
 49
-3.175
 74
    0
 49
3.175
 74
    0
 49
-3.175
 74
    0
  0
LTYPE
  5
49
330
5
100
AcDbSymbolTableRecord
100
AcDbLinetypeTableRecord
  2
CENTERX2
 70
    0
  3
Center (2x) ________  __  ________  __  _____
 72
   65
 73
    4
 40
101.6
 49
63.5
 74
    0
 49
-12.7
 74
    0
 49
12.7
 74
    0
 49
-12.7
 74
    0
  0
ENDTAB
  0
TABLE
  2
LAYER
  5
2
330
0
100
AcDbSymbolTable
 70
    1
  0
LAYER
  5
10
330
2
100
AcDbSymbolTableRecord
100
AcDbLayerTableRecord
  2
0
 70
    4
 62
    7
  6
CONTINUOUS
370
   25
390
F
  0
LAYER
  5
4A
330
2
100
AcDbSymbolTableRecord
100
AcDbLayerTableRecord
  2
Dimms
 70
    4
 62
    7
  6
CONTINUOUS
370
   25
390
F
  0
LAYER
  5
4B
330
2
100
AcDbSymbolTableRecord
100
AcDbLayerTableRecord
  2
Fan
 70
    4
 62
    7
  6
CONTINUOUS
370
   25
390
F
  0
LAYER
  5
4C
330
2
100
AcDbSymbolTableRecord
100
AcDbLayerTableRecord
  2
Notes
 70
    4
 62
    7
  6
CONTINUOUS
370
   25
390
F
  0
LAYER
  5
4D
330
2
100
AcDbSymbolTableRecord
100
AcDbLayerTableRecord
  2
Re-inforcementBar
 70
    4
 62
    7
  6
CONTINUOUS
370
   25
390
F
  0
LAYER
  5
4E
330
2
100
AcDbSymbolTableRecord
100
AcDbLayerTableRecord
  2
Sheetwork
 70
    4
 62
    7
  6
CONTINUOUS
370
   25
390
F
  0
LAYER
  5
4F
330
2
100
AcDbSymbolTableRecord
100
AcDbLayerTableRecord
  2
Sheetwork2
 70
    4
 62
    7
  6
CONTINUOUS
370
   25
390
F
  0
ENDTAB
  0
TABLE
  2
STYLE
  5
3
330
0
100
AcDbSymbolTable
 70
    3
  0
STYLE
  5
50
330
2
100
AcDbSymbolTableRecord
100
AcDbTextStyleTableRecord
  2
standard
 70
    0
 40
0
 41
1
 50
0
 71
    0
 42
1
  3
standard
  4

  0
ENDTAB
  0
TABLE
  2
VIEW
  5
6
330
0
100
AcDbSymbolTable
 70
    0
  0
ENDTAB
  0
TABLE
  2
UCS
  5
7
330
0
100
AcDbSymbolTable
 70
    0
  0
ENDTAB
  0
TABLE
  2
APPID
  5
9
330
0
100
AcDbSymbolTable
 70
    1
  0
APPID
  5
12
330
9
100
AcDbSymbolTableRecord
100
AcDbRegAppTableRecord
  2
ACAD
 70
    0
  0
APPID
  5
51
330
9
100
AcDbSymbolTableRecord
100
AcDbRegAppTableRecord
  2
LibreCad
 70
    0
  0
ENDTAB
  0
TABLE
  2
DIMSTYLE
  5
A
330
0
100
AcDbSymbolTable
 70
    1
100
AcDbDimStyleTable
 71
    1
  0
DIMSTYLE
105
52
330
A
100
AcDbSymbolTableRecord
100
AcDbDimStyleTableRecord
  2
Standard
 70
    0
 40
1
 41
2.5
 42
0.625
 43
0.38
 44
1.25
 45
0
 46
0
 47
0
 48
0
 49
1
140
6
141
0.09
142
0
143
25.4
144
1
145
0
146
1
147
0.625
148
0
 71
    0
 72
    0
 73
    0
 74
    1
 75
    0
 76
    0
 77
    0
 78
    1
 79
    0
170
    0
171
    2
172
    0
173
    0
174
    0
175
    0
176
    0
177
    0
178
    0
179
    1
271
    1
272
    4
273
    2
274
    2
275
    0
276
    0
277
    2
278
    0
279
    0
280
    0
281
    0
282
    0
283
    1
284
    0
285
    0
286
    0
288
    0
289
    3
340
standard
341

371
   -2
372
   -2
  0
ENDTAB
  0
TABLE
  2
BLOCK_RECORD
  5
1
330
0
100
AcDbSymbolTable
 70
    2
  0
BLOCK_RECORD
  5
1F
330
1
100
AcDbSymbolTableRecord
100
AcDbBlockTableRecord
  2
*Model_Space
 70
    0
280
    1
281
    0
  0
BLOCK_RECORD
  5
1E
330
1
100
AcDbSymbolTableRecord
100
AcDbBlockTableRecord
  2
*Paper_Space
 70
    0
280
    1
281
    0
  0
BLOCK_RECORD
  5
53
330
1
100
AcDbSymbolTableRecord
100
AcDbBlockTableRecord
  2
*D7
 70
    0
280
    1
281
    0
  0
BLOCK_RECORD
  5
56
330
1
100
AcDbSymbolTableRecord
100
AcDbBlockTableRecord
  2
*D8
 70
    0
280
    1
281
    0
  0
BLOCK_RECORD
  5
59
330
1
100
AcDbSymbolTableRecord
100
AcDbBlockTableRecord
  2
*D2
 70
    0
280
    1
281
    0
  0
BLOCK_RECORD
  5
5C
330
1
100
AcDbSymbolTableRecord
100
AcDbBlockTableRecord
  2
*D1
 70
    0
280
    1
281
    0
  0
BLOCK_RECORD
  5
5F
330
1
100
AcDbSymbolTableRecord
100
AcDbBlockTableRecord
  2
*D6
 70
    0
280
    1
281
    0
  0
BLOCK_RECORD
  5
62
330
1
100
AcDbSymbolTableRecord
100
AcDbBlockTableRecord
  2
*D3
 70
    0
280
    1
281
    0
  0
BLOCK_RECORD
  5
65
330
1
100
AcDbSymbolTableRecord
100
AcDbBlockTableRecord
  2
*D5
 70
    0
280
    1
281
    0
  0
BLOCK_RECORD
  5
68
330
1
100
AcDbSymbolTableRecord
100
AcDbBlockTableRecord
  2
*D11
 70
    0
280
    1
281
    0
  0
BLOCK_RECORD
  5
6B
330
1
100
AcDbSymbolTableRecord
100
AcDbBlockTableRecord
  2
*D9
 70
    0
280
    1
281
    0
  0
BLOCK_RECORD
  5
6E
330
1
100
AcDbSymbolTableRecord
100
AcDbBlockTableRecord
  2
*D4
 70
    0
280
    1
281
    0
  0
BLOCK_RECORD
  5
71
330
1
100
AcDbSymbolTableRecord
100
AcDbBlockTableRecord
  2
*D10
 70
    0
280
    1
281
    0
  0
ENDTAB
  0
ENDSEC
  0
SECTION
  2
BLOCKS
  0
BLOCK
  5
20
330
1F
100
AcDbEntity
  8
0
100
AcDbBlockBegin
  2
*Model_Space
 70
    0
 10
0
 20
0
 30
0
  3
*Model_Space
  1

  0
ENDBLK
  5
21
330
1F
100
AcDbEntity
  8
0
100
AcDbBlockEnd
  0
BLOCK
  5
1C
330
1B
100
AcDbEntity
  8
0
100
AcDbBlockBegin
  2
*Paper_Space
 70
    0
 10
0
 20
0
 30
0
  3
*Paper_Space
  1

  0
ENDBLK
  5
1D
330
1F
100
AcDbEntity
  8
0
100
AcDbBlockEnd
  0
BLOCK
  5
54
330
53
100
AcDbEntity
  8
0
100
AcDbBlockBegin
  2
*D7
 70
    1
 10
0
 20
0
  3
*D7
  1

  0
LINE
  5
74
100
AcDbEntity
  8
Dimms
  6
ByBlock
 62
    0
370
   -2
100
AcDbLine
 10
600
 20
20
 11
980
 21
20
  0
SOLID
  5
75
100
AcDbEntity
  8
Dimms
  6
ByBlock
 62
    0
370
   -2
100
AcDbTrace
 10
600
 20
20
 30
0
 11
602.5
 21
20.41628465777284
 31
0
 12
602.5
 22
19.58371534222716
 32
0
 13
602.5
 23
19.58371534222716
 33
0
  0
SOLID
  5
76
100
AcDbEntity
  8
Dimms
  6
ByBlock
 62
    0
370
   -2
100
AcDbTrace
 10
980
 20
20
 30
0
 11
977.5
 21
19.58371534222716
 31
0
 12
977.5
 22
20.41628465777284
 32
0
 13
977.5
 23
20.41628465777284
 33
0
  0
MTEXT
  5
77
100
AcDbEntity
  8
Dimms
  6
CONTINUOUS
 62
    0
370
   -2
100
AcDbMText
 10
790
 20
23.625
 30
0
 40
6
 41
18.66666666666704
 71
    5
 72
    1
  1
380.0
  7
standard
210
0
220
0
230
1
 50
0
 73
    2
 44
1
  0
LINE
  5
78
100
AcDbEntity
  8
Dimms
  6
ByBlock
 62
    0
370
   -2
100
AcDbLine
 10
600
 20
29.375
 11
600
 21
18.75
  0
LINE
  5
79
100
AcDbEntity
  8
Dimms
  6
ByBlock
 62
    0
370
   -2
100
AcDbLine
 10
980
 20
29.375
 11
980
 21
18.75
  0
ENDBLK
  5
55
330
53
100
AcDbEntity
  8
0
100
AcDbBlockEnd
  0
BLOCK
  5
57
330
56
100
AcDbEntity
  8
0
100
AcDbBlockBegin
  2
*D8
 70
    1
 10
0
 20
0
  3
*D8
  1

  0
LINE
  5
7A
100
AcDbEntity
  8
Dimms
  6
ByBlock
 62
    0
370
   -2
100
AcDbLine
 10
980
 20
20
 11
1010
 21
20
  0
SOLID
  5
7B
100
AcDbEntity
  8
Dimms
  6
ByBlock
 62
    0
370
   -2
100
AcDbTrace
 10
980
 20
20
 30
0
 11
982.5
 21
20.41628465777284
 31
0
 12
982.5
 22
19.58371534222716
 32
0
 13
982.5
 23
19.58371534222716
 33
0
  0
SOLID
  5
7C
100
AcDbEntity
  8
Dimms
  6
ByBlock
 62
    0
370
   -2
100
AcDbTrace
 10
1010
 20
20
 30
0
 11
1007.5
 21
19.58371534222716
 31
0
 12
1007.5
 22
20.41628465777284
 32
0
 13
1007.5
 23
20.41628465777284
 33
0
  0
MTEXT
  5
7D
100
AcDbEntity
  8
Dimms
  6
CONTINUOUS
 62
    0
370
   -2
100
AcDbMText
 10
995
 20
23.625
 30
0
 40
6
 41
14.00000000000037
 71
    5
 72
    1
  1
30.0
  7
standard
210
0
220
0
230
1
 50
0
 73
    2
 44
1
  0
LINE
  5
7E
100
AcDbEntity
  8
Dimms
  6
ByBlock
 62
    0
370
   -2
100
AcDbLine
 10
980
 20
29.375
 11
980
 21
18.75
  0
LINE
  5
7F
100
AcDbEntity
  8
Dimms
  6
ByBlock
 62
    0
370
   -2
100
AcDbLine
 10
1010
 20
29.375
 11
1010
 21
18.75
  0
ENDBLK
  5
58
330
56
100
AcDbEntity
  8
0
100
AcDbBlockEnd
  0
BLOCK
  5
5A
330
59
100
AcDbEntity
  8
0
100
AcDbBlockBegin
  2
*D2
 70
    1
 10
0
 20
0
  3
*D2
  1

  0
LINE
  5
80
100
AcDbEntity
  8
Dimms
  6
ByBlock
 62
    0
370
   -2
100
AcDbLine
 10
570
 20
510
 11
1010
 21
510
  0
SOLID
  5
81
100
AcDbEntity
  8
Dimms
  6
ByBlock
 62
    0
370
   -2
100
AcDbTrace
 10
570
 20
510
 30
0
 11
572.5
 21
510.4162846577728
 31
0
 12
572.5
 22
509.5837153422272
 32
0
 13
572.5
 23
509.5837153422272
 33
0
  0
SOLID
  5
82
100
AcDbEntity
  8
Dimms
  6
ByBlock
 62
    0
370
   -2
100
AcDbTrace
 10
1010
 20
510
 30
0
 11
1007.5
 21
509.5837153422272
 31
0
 12
1007.5
 22
510.4162846577728
 32
0
 13
1007.5
 23
510.4162846577728
 33
0
  0
MTEXT
  5
83
100
AcDbEntity
  8
Dimms
  6
CONTINUOUS
 62
    0
370
   -2
100
AcDbMText
 10
790
 20
513.625
 30
0
 40
6
 41
20
 71
    5
 72
    1
  1
440.0
  7
standard
210
0
220
0
230
1
 50
0
 73
    2
 44
1
  0
LINE
  5
84
100
AcDbEntity
  8
Dimms
  6
ByBlock
 62
    0
370
   -2
100
AcDbLine
 10
570
 20
500.625
 11
570
 21
511.25
  0
LINE
  5
85
100
AcDbEntity
  8
Dimms
  6
ByBlock
 62
    0
370
   -2
100
AcDbLine
 10
1010
 20
500.625
 11
1010
 21
511.25
  0
ENDBLK
  5
5B
330
59
100
AcDbEntity
  8
0
100
AcDbBlockEnd
  0
BLOCK
  5
5D
330
5C
100
AcDbEntity
  8
0
100
AcDbBlockBegin
  2
*D1
 70
    1
 10
0
 20
0
  3
*D1
  1

  0
LINE
  5
86
100
AcDbEntity
  8
Dimms
  6
ByBlock
 62
    0
370
   -2
100
AcDbLine
 10
100
 20
510
 11
430
 21
510
  0
SOLID
  5
87
100
AcDbEntity
  8
Dimms
  6
ByBlock
 62
    0
370
   -2
100
AcDbTrace
 10
100
 20
510
 30
0
 11
102.5
 21
510.4162846577728
 31
0
 12
102.5
 22
509.5837153422272
 32
0
 13
102.5
 23
509.5837153422272
 33
0
  0
SOLID
  5
88
100
AcDbEntity
  8
Dimms
  6
ByBlock
 62
    0
370
   -2
100
AcDbTrace
 10
430
 20
510
 30
0
 11
427.5
 21
509.5837153422272
 31
0
 12
427.5
 22
510.4162846577728
 32
0
 13
427.5
 23
510.4162846577728
 33
0
  0
MTEXT
  5
89
100
AcDbEntity
  8
Dimms
  6
CONTINUOUS
 62
    0
370
   -2
100
AcDbMText
 10
265
 20
513.625
 30
0
 40
6
 41
18.66666666666741
 71
    5
 72
    1
  1
330.0
  7
standard
210
0
220
0
230
1
 50
0
 73
    2
 44
1
  0
LINE
  5
8A
100
AcDbEntity
  8
Dimms
  6
ByBlock
 62
    0
370
   -2
100
AcDbLine
 10
100
 20
500.625
 11
100
 21
511.25
  0
LINE
  5
8B
100
AcDbEntity
  8
Dimms
  6
ByBlock
 62
    0
370
   -2
100
AcDbLine
 10
430
 20
500.625
 11
430
 21
511.25
  0
ENDBLK
  5
5E
330
5C
100
AcDbEntity
  8
0
100
AcDbBlockEnd
  0
BLOCK
  5
60
330
5F
100
AcDbEntity
  8
0
100
AcDbBlockBegin
  2
*D6
 70
    1
 10
0
 20
0
  3
*D6
  1

  0
LINE
  5
8C
100
AcDbEntity
  8
Dimms
  6
ByBlock
 62
    0
370
   -2
100
AcDbLine
 10
460
 20
480
 11
460
 21
70
  0
SOLID
  5
8D
100
AcDbEntity
  8
Dimms
  6
ByBlock
 62
    0
370
   -2
100
AcDbTrace
 10
460
 20
480
 30
0
 11
460.4162846577728
 21
477.5
 31
0
 12
459.5837153422272
 22
477.5
 32
0
 13
459.5837153422272
 23
477.5
 33
0
  0
SOLID
  5
8E
100
AcDbEntity
  8
Dimms
  6
ByBlock
 62
    0
370
   -2
100
AcDbTrace
 10
460
 20
70
 30
0
 11
459.5837153422272
 21
72.5
 31
0
 12
460.4162846577728
 22
72.5
 32
0
 13
460.4162846577728
 23
72.5
 33
0
  0
MTEXT
  5
8F
100
AcDbEntity
  8
Dimms
  6
CONTINUOUS
 62
    0
370
   -2
100
AcDbMText
 10
456.375
 20
275
 30
0
 40
6
 41
18
 71
    5
 72
    1
  1
410.0
  7
standard
210
0
220
0
230
1
 50
90
 73
    2
 44
1
  0
LINE
  5
90
100
AcDbEntity
  8
Dimms
  6
ByBlock
 62
    0
370
   -2
100
AcDbLine
 10
450.625
 20
480
 11
461.25
 21
480
  0
LINE
  5
91
100
AcDbEntity
  8
Dimms
  6
ByBlock
 62
    0
370
   -2
100
AcDbLine
 10
450.625
 20
70
 11
461.25
 21
70
  0
ENDBLK
  5
61
330
5F
100
AcDbEntity
  8
0
100
AcDbBlockEnd
  0
BLOCK
  5
63
330
62
100
AcDbEntity
  8
0
100
AcDbBlockBegin
  2
*D3
 70
    1
 10
0
 20
0
  3
*D3
  1

  0
LINE
  5
92
100
AcDbEntity
  8
Dimms
  6
ByBlock
 62
    0
370
   -2
100
AcDbLine
 10
570
 20
20
 11
600
 21
20
  0
SOLID
  5
93
100
AcDbEntity
  8
Dimms
  6
ByBlock
 62
    0
370
   -2
100
AcDbTrace
 10
570
 20
20
 30
0
 11
572.5
 21
20.41628465777284
 31
0
 12
572.5
 22
19.58371534222716
 32
0
 13
572.5
 23
19.58371534222716
 33
0
  0
SOLID
  5
94
100
AcDbEntity
  8
Dimms
  6
ByBlock
 62
    0
370
   -2
100
AcDbTrace
 10
600
 20
20
 30
0
 11
597.5
 21
19.58371534222716
 31
0
 12
597.5
 22
20.41628465777284
 32
0
 13
597.5
 23
20.41628465777284
 33
0
  0
MTEXT
  5
95
100
AcDbEntity
  8
Dimms
  6
CONTINUOUS
 62
    0
370
   -2
100
AcDbMText
 10
585
 20
23.625
 30
0
 40
6
 41
14.00000000000037
 71
    5
 72
    1
  1
30.0
  7
standard
210
0
220
0
230
1
 50
0
 73
    2
 44
1
  0
LINE
  5
96
100
AcDbEntity
  8
Dimms
  6
ByBlock
 62
    0
370
   -2
100
AcDbLine
 10
570
 20
29.375
 11
570
 21
18.75
  0
LINE
  5
97
100
AcDbEntity
  8
Dimms
  6
ByBlock
 62
    0
370
   -2
100
AcDbLine
 10
600
 20
29.375
 11
600
 21
18.75
  0
ENDBLK
  5
64
330
62
100
AcDbEntity
  8
0
100
AcDbBlockEnd
  0
BLOCK
  5
66
330
65
100
AcDbEntity
  8
0
100
AcDbBlockBegin
  2
*D5
 70
    1
 10
0
 20
0
  3
*D5
  1

  0
LINE
  5
98
100
AcDbEntity
  8
Dimms
  6
ByBlock
 62
    0
370
   -2
100
AcDbLine
 10
1040
 20
480
 11
1040
 21
70
  0
SOLID
  5
99
100
AcDbEntity
  8
Dimms
  6
ByBlock
 62
    0
370
   -2
100
AcDbTrace
 10
1040
 20
480
 30
0
 11
1040.416284657773
 21
477.5
 31
0
 12
1039.583715342227
 22
477.5
 32
0
 13
1039.583715342227
 23
477.5
 33
0
  0
SOLID
  5
9A
100
AcDbEntity
  8
Dimms
  6
ByBlock
 62
    0
370
   -2
100
AcDbTrace
 10
1040
 20
70
 30
0
 11
1039.583715342227
 21
72.5
 31
0
 12
1040.416284657773
 22
72.5
 32
0
 13
1040.416284657773
 23
72.5
 33
0
  0
MTEXT
  5
9B
100
AcDbEntity
  8
Dimms
  6
CONTINUOUS
 62
    0
370
   -2
100
AcDbMText
 10
1036.375
 20
275
 30
0
 40
6
 41
18
 71
    5
 72
    1
  1
410.0
  7
standard
210
0
220
0
230
1
 50
90
 73
    2
 44
1
  0
LINE
  5
9C
100
AcDbEntity
  8
Dimms
  6
ByBlock
 62
    0
370
   -2
100
AcDbLine
 10
1030.625
 20
480
 11
1041.25
 21
480
  0
LINE
  5
9D
100
AcDbEntity
  8
Dimms
  6
ByBlock
 62
    0
370
   -2
100
AcDbLine
 10
1030.625
 20
70
 11
1041.25
 21
70
  0
ENDBLK
  5
67
330
65
100
AcDbEntity
  8
0
100
AcDbBlockEnd
  0
BLOCK
  5
69
330
68
100
AcDbEntity
  8
0
100
AcDbBlockBegin
  2
*D11
 70
    1
 10
0
 20
0
  3
*D11
  1

  0
LINE
  5
9E
100
AcDbEntity
  8
Dimms
  6
ByBlock
 62
    0
370
   -2
100
AcDbLine
 10
1369
 20
315
 11
1369
 21
215
  0
SOLID
  5
9F
100
AcDbEntity
  8
Dimms
  6
ByBlock
 62
    0
370
   -2
100
AcDbTrace
 10
1369
 20
315
 30
0
 11
1369.416284657773
 21
312.5
 31
0
 12
1368.583715342227
 22
312.5
 32
0
 13
1368.583715342227
 23
312.5
 33
0
  0
SOLID
  5
A0
100
AcDbEntity
  8
Dimms
  6
ByBlock
 62
    0
370
   -2
100
AcDbTrace
 10
1369
 20
215
 30
0
 11
1368.583715342227
 21
217.5
 31
0
 12
1369.416284657773
 22
217.5
 32
0
 13
1369.416284657773
 23
217.5
 33
0
  0
MTEXT
  5
A1
100
AcDbEntity
  8
Dimms
  6
CONTINUOUS
 62
    0
370
   -2
100
AcDbMText
 10
1365.375
 20
265
 30
0
 40
6
 41
17.33333333333333
 71
    5
 72
    1
  1
100.0
  7
standard
210
0
220
0
230
1
 50
90
 73
    2
 44
1
  0
LINE
  5
A2
100
AcDbEntity
  8
Dimms
  6
ByBlock
 62
    0
370
   -2
100
AcDbLine
 10
1369.375
 20
315
 11
1367.75
 21
315
  0
LINE
  5
A3
100
AcDbEntity
  8
Dimms
  6
ByBlock
 62
    0
370
   -2
100
AcDbLine
 10
1369.375
 20
215
 11
1367.75
 21
215
  0
ENDBLK
  5
6A
330
68
100
AcDbEntity
  8
0
100
AcDbBlockEnd
  0
BLOCK
  5
6C
330
6B
100
AcDbEntity
  8
0
100
AcDbBlockBegin
  2
*D9
 70
    1
 10
0
 20
0
  3
*D9
  1

  0
LINE
  5
A4
100
AcDbEntity
  8
Dimms
  6
ByBlock
 62
    0
370
   -2
100
AcDbLine
 10
600
 20
530
 11
980
 21
530
  0
SOLID
  5
A5
100
AcDbEntity
  8
Dimms
  6
ByBlock
 62
    0
370
   -2
100
AcDbTrace
 10
600
 20
530
 30
0
 11
602.5
 21
530.4162846577728
 31
0
 12
602.5
 22
529.5837153422272
 32
0
 13
602.5
 23
529.5837153422272
 33
0
  0
SOLID
  5
A6
100
AcDbEntity
  8
Dimms
  6
ByBlock
 62
    0
370
   -2
100
AcDbTrace
 10
980
 20
530
 30
0
 11
977.5
 21
529.5837153422272
 31
0
 12
977.5
 22
530.4162846577728
 32
0
 13
977.5
 23
530.4162846577728
 33
0
  0
MTEXT
  5
A7
100
AcDbEntity
  8
Dimms
  6
CONTINUOUS
 62
    0
370
   -2
100
AcDbMText
 10
790
 20
533.625
 30
0
 40
6
 41
18.66666666666704
 71
    5
 72
    1
  1
380.0
  7
standard
210
0
220
0
230
1
 50
0
 73
    2
 44
1
  0
LINE
  5
A8
100
AcDbEntity
  8
Dimms
  6
ByBlock
 62
    0
370
   -2
100
AcDbLine
 10
600
 20
520.625
 11
600
 21
531.25
  0
LINE
  5
A9
100
AcDbEntity
  8
Dimms
  6
ByBlock
 62
    0
370
   -2
100
AcDbLine
 10
980
 20
520.625
 11
980
 21
531.25
  0
ENDBLK
  5
6D
330
6B
100
AcDbEntity
  8
0
100
AcDbBlockEnd
  0
BLOCK
  5
6F
330
6E
100
AcDbEntity
  8
0
100
AcDbBlockBegin
  2
*D4
 70
    1
 10
0
 20
0
  3
*D4
  1

  0
LINE
  5
AA
100
AcDbEntity
  8
Dimms
  6
ByBlock
 62
    0
370
   -2
100
AcDbLine
 10
540
 20
480
 11
540
 21
450
  0
SOLID
  5
AB
100
AcDbEntity
  8
Dimms
  6
ByBlock
 62
    0
370
   -2
100
AcDbTrace
 10
540
 20
480
 30
0
 11
540.4162846577728
 21
477.5
 31
0
 12
539.5837153422272
 22
477.5
 32
0
 13
539.5837153422272
 23
477.5
 33
0
  0
SOLID
  5
AC
100
AcDbEntity
  8
Dimms
  6
ByBlock
 62
    0
370
   -2
100
AcDbTrace
 10
540
 20
450
 30
0
 11
539.5837153422272
 21
452.5
 31
0
 12
540.4162846577728
 22
452.5
 32
0
 13
540.4162846577728
 23
452.5
 33
0
  0
MTEXT
  5
AD
100
AcDbEntity
  8
Dimms
  6
CONTINUOUS
 62
    0
370
   -2
100
AcDbMText
 10
536.375
 20
465
 30
0
 40
6
 41
14.00000000000037
 71
    5
 72
    1
  1
30.0
  7
standard
210
0
220
0
230
1
 50
90
 73
    2
 44
1
  0
LINE
  5
AE
100
AcDbEntity
  8
Dimms
  6
ByBlock
 62
    0
370
   -2
100
AcDbLine
 10
549.375
 20
480
 11
538.75
 21
480
  0
LINE
  5
AF
100
AcDbEntity
  8
Dimms
  6
ByBlock
 62
    0
370
   -2
100
AcDbLine
 10
549.375
 20
450
 11
538.75
 21
450
  0
ENDBLK
  5
70
330
6E
100
AcDbEntity
  8
0
100
AcDbBlockEnd
  0
BLOCK
  5
72
330
71
100
AcDbEntity
  8
0
100
AcDbBlockBegin
  2
*D10
 70
    1
 10
0
 20
0
  3
*D10
  1

  0
LINE
  5
B0
100
AcDbEntity
  8
Dimms
  6
ByBlock
 62
    0
370
   -2
100
AcDbLine
 10
1385
 20
331
 11
1515
 21
331
  0
SOLID
  5
B1
100
AcDbEntity
  8
Dimms
  6
ByBlock
 62
    0
370
   -2
100
AcDbTrace
 10
1385
 20
331
 30
0
 11
1387.5
 21
331.4162846577728
 31
0
 12
1387.5
 22
330.5837153422272
 32
0
 13
1387.5
 23
330.5837153422272
 33
0
  0
SOLID
  5
B2
100
AcDbEntity
  8
Dimms
  6
ByBlock
 62
    0
370
   -2
100
AcDbTrace
 10
1515
 20
331
 30
0
 11
1512.5
 21
330.5837153422272
 31
0
 12
1512.5
 22
331.4162846577728
 32
0
 13
1512.5
 23
331.4162846577728
 33
0
  0
MTEXT
  5
B3
100
AcDbEntity
  8
Dimms
  6
CONTINUOUS
 62
    0
370
   -2
100
AcDbMText
 10
1450
 20
334.625
 30
0
 40
6
 41
17.33333333333371
 71
    5
 72
    1
  1
130.0
  7
standard
210
0
220
0
230
1
 50
0
 73
    2
 44
1
  0
LINE
  5
B4
100
AcDbEntity
  8
Dimms
  6
ByBlock
 62
    0
370
   -2
100
AcDbLine
 10
1385
 20
330.625
 11
1385
 21
332.25
  0
LINE
  5
B5
100
AcDbEntity
  8
Dimms
  6
ByBlock
 62
    0
370
   -2
100
AcDbLine
 10
1515
 20
330.625
 11
1515
 21
332.25
  0
ENDBLK
  5
73
330
71
100
AcDbEntity
  8
0
100
AcDbBlockEnd
  0
ENDSEC
  0
SECTION
  2
ENTITIES
  0
DIMENSION
  5
B6
100
AcDbEntity
  8
Dimms
  6
ByLayer
 62
  256
370
   -1
100
AcDbDimension
  2
*D1
 10
430
 20
510
 30
0
 11
265
 21
513.625
 31
0
 70
   32
 71
    5
  3
Standard
 53
0
210
0
220
0
230
1
100
AcDbAlignedDimension
 13
100
 23
500
 33
0
 14
430
 24
500
 34
0
100
AcDbRotatedDimension
  0
DIMENSION
  5
B7
100
AcDbEntity
  8
Dimms
  6
ByLayer
 62
  256
370
   -1
100
AcDbDimension
  2
*D2
 10
1010
 20
510
 30
0
 11
790
 21
513.625
 31
0
 70
   32
 71
    5
  3
Standard
 53
0
210
0
220
0
230
1
100
AcDbAlignedDimension
 13
570
 23
500
 33
0
 14
1010
 24
500
 34
0
100
AcDbRotatedDimension
  0
DIMENSION
  5
B8
100
AcDbEntity
  8
Dimms
  6
ByLayer
 62
  256
370
   -1
100
AcDbDimension
  2
*D3
 10
600
 20
20
 30
0
 11
585
 21
23.625
 31
0
 70
   32
 71
    5
  3
Standard
 53
0
210
0
220
0
230
1
100
AcDbAlignedDimension
 13
570
 23
30
 33
0
 14
600
 24
30
 34
0
100
AcDbRotatedDimension
  0
DIMENSION
  5
B9
100
AcDbEntity
  8
Dimms
  6
ByLayer
 62
  256
370
   -1
100
AcDbDimension
  2
*D4
 10
540
 20
450
 30
0
 11
536.375
 21
465
 31
0
 70
   32
 71
    5
  3
Standard
 53
0
210
0
220
0
230
1
100
AcDbAlignedDimension
 13
550
 23
480
 33
0
 14
550
 24
450
 34
0
 50
90
100
AcDbRotatedDimension
  0
DIMENSION
  5
BA
100
AcDbEntity
  8
Dimms
  6
ByLayer
 62
  256
370
   -1
100
AcDbDimension
  2
*D5
 10
1040
 20
70
 30
0
 11
1036.375
 21
275
 31
0
 70
   32
 71
    5
  3
Standard
 53
0
210
0
220
0
230
1
100
AcDbAlignedDimension
 13
1030
 23
480
 33
0
 14
1030
 24
70
 34
0
 50
90
100
AcDbRotatedDimension
  0
DIMENSION
  5
BB
100
AcDbEntity
  8
Dimms
  6
ByLayer
 62
  256
370
   -1
100
AcDbDimension
  2
*D6
 10
460
 20
70
 30
0
 11
456.375
 21
275
 31
0
 70
   32
 71
    5
  3
Standard
 53
0
210
0
220
0
230
1
100
AcDbAlignedDimension
 13
450
 23
480
 33
0
 14
450
 24
70
 34
0
 50
90
100
AcDbRotatedDimension
  0
DIMENSION
  5
BC
100
AcDbEntity
  8
Dimms
  6
ByLayer
 62
  256
370
   -1
100
AcDbDimension
  2
*D7
 10
980
 20
20
 30
0
 11
790
 21
23.625
 31
0
 70
   32
 71
    5
  3
Standard
 53
0
210
0
220
0
230
1
100
AcDbAlignedDimension
 13
600
 23
30
 33
0
 14
980
 24
30
 34
0
100
AcDbRotatedDimension
  0
DIMENSION
  5
BD
100
AcDbEntity
  8
Dimms
  6
ByLayer
 62
  256
370
   -1
100
AcDbDimension
  2
*D8
 10
1010
 20
20
 30
0
 11
995
 21
23.625
 31
0
 70
   32
 71
    5
  3
Standard
 53
0
210
0
220
0
230
1
100
AcDbAlignedDimension
 13
980
 23
30
 33
0
 14
1010
 24
30
 34
0
100
AcDbRotatedDimension
  0
ARC
  5
BE
100
AcDbEntity
  8
Sheetwork
  6
ByLayer
 62
  256
370
   -1
100
AcDbCircle
 10
200
 20
330
 40
100
100
AcDbArc
 50
90
 51
180
  0
LINE
  5
BF
100
AcDbEntity
  8
Sheetwork
  6
ByLayer
 62
  256
370
   -1
100
AcDbLine
 10
200
 20
430
 11
430
 21
450
  0
LINE
  5
C0
100
AcDbEntity
  8
Sheetwork
  6
ByLayer
 62
  256
370
   -1
100
AcDbLine
 10
430
 20
430
 11
430
 21
480
  0
LINE
  5
C1
100
AcDbEntity
  8
Sheetwork
  6
ByLayer
 62
  256
370
   -1
100
AcDbLine
 10
430
 20
430
 11
430
 21
80
  0
LINE
  5
C2
100
AcDbEntity
  8
Sheetwork
  6
ByLayer
 62
  256
370
   -1
100
AcDbLine
 10
430
 20
70
 11
430
 21
80
  0
LINE
  5
C3
100
AcDbEntity
  8
Sheetwork
  6
ByLayer
 62
  256
370
   -1
100
AcDbLine
 10
430
 20
80
 11
100
 21
80
  0
LINE
  5
C4
100
AcDbEntity
  8
Sheetwork
  6
ByLayer
 62
  256
370
   -1
100
AcDbLine
 10
100
 20
80
 11
100
 21
70
  0
LINE
  5
C5
100
AcDbEntity
  8
Sheetwork
  6
ByLayer
 62
  256
370
   -1
100
AcDbLine
 10
100
 20
70
 11
430
 21
70
  0
LINE
  5
C6
100
AcDbEntity
  8
Sheetwork
  6
ByLayer
 62
  256
370
   -1
100
AcDbLine
 10
100
 20
80
 11
100
 21
330
  0
LINE
  5
C7
100
AcDbEntity
  8
Sheetwork
  6
ByLayer
 62
  256
370
   -1
100
AcDbLine
 10
100
 20
80
 11
100
 21
330
  0
LINE
  5
C8
100
AcDbEntity
  8
Sheetwork
  6
ByLayer
 62
  256
370
   -1
100
AcDbLine
 10
600
 20
450
 11
980
 21
450
  0
LINE
  5
C9
100
AcDbEntity
  8
Sheetwork
  6
ByLayer
 62
  256
370
   -1
100
AcDbLine
 10
600
 20
80
 11
980
 21
80
  0
LINE
  5
CA
100
AcDbEntity
  8
Sheetwork
  6
ByLayer
 62
  256
370
   -1
100
AcDbLine
 10
570
 20
70
 11
600
 21
70
  0
LINE
  5
CB
100
AcDbEntity
  8
Sheetwork
  6
ByLayer
 62
  256
370
   -1
100
AcDbLine
 10
980
 20
70
 11
1010
 21
70
  0
LINE
  5
CC
100
AcDbEntity
  8
Sheetwork
  6
ByLayer
 62
  256
370
   -1
100
AcDbLine
 10
600
 20
340
 11
980
 21
340
  0
LINE
  5
CD
100
AcDbEntity
  8
Sheetwork
  6
ByLayer
 62
  256
370
   -1
100
AcDbLine
 10
600
 20
430
 11
980
 21
430
  0
LINE
  5
CE
100
AcDbEntity
  8
Sheetwork
  6
ByLayer
 62
  256
370
   -1
100
AcDbLine
 10
600
 20
80
 11
570
 21
80
  0
LINE
  5
CF
100
AcDbEntity
  8
Sheetwork
  6
ByLayer
 62
  256
370
   -1
100
AcDbLine
 10
570
 20
80
 11
570
 21
70
  0
LINE
  5
D0
100
AcDbEntity
  8
Sheetwork
  6
ByLayer
 62
  256
370
   -1
100
AcDbLine
 10
570
 20
70
 11
600
 21
70
  0
CIRCLE
  5
D1
100
AcDbEntity
  8
Sheetwork
  6
ByLayer
 62
  256
370
   -1
100
AcDbCircle
 10
585
 20
120
 40
2
  0
CIRCLE
  5
D2
100
AcDbEntity
  8
Sheetwork
  6
ByLayer
 62
  256
370
   -1
100
AcDbCircle
 10
995
 20
120
 40
2
  0
MTEXT
  5
D3
100
AcDbEntity
  8
Sheetwork
  6
ByLayer
 62
  256
370
   -1
100
AcDbMText
 10
690
 20
220
 30
0
 40
6
 41
182.1333395047825
 71
    4
 72
    1
  3
* Rolled/wired front edge\P* 304 Stainless steel construction\P* Riveted & sealed seams\P* Fall on top run off\P* 6 x m4 fixing holes\P* Mitred flange corners\P* Hemmed flanges\P* Wall gasket\P* Internal sound proofing\P* "X" bead flat sections for a
  1
nti-drumming
  7
standard
210
0
220
0
230
1
 50
0
 73
    2
 44
1
  0
LINE
  5
D4
100
AcDbEntity
  8
Sheetwork
  6
ByLayer
 62
  256
370
   -1
100
AcDbLine
 10
980
 20
450
 11
980
 21
80
  0
LINE
  5
D5
100
AcDbEntity
  8
Sheetwork
  6
ByLayer
 62
  256
370
   -1
100
AcDbLine
 10
600
 20
80
 11
600
 21
450
  0
LINE
  5
D6
100
AcDbEntity
  8
Sheetwork
  6
ByLayer
 62
  256
370
   -1
100
AcDbLine
 10
980
 20
80
 11
1010
 21
80
  0
LINE
  5
D7
100
AcDbEntity
  8
Sheetwork
  6
ByLayer
 62
  256
370
   -1
100
AcDbLine
 10
570
 20
90
 11
1010
 21
90
  0
LINE
  5
D8
100
AcDbEntity
  8
Re-inforcementBar
  6
ByLayer
 62
  256
370
   -1
100
AcDbLine
 10
980
 20
110
 11
600
 21
110
  0
LINE
  5
D9
100
AcDbEntity
  8
Re-inforcementBar
  6
ByLayer
 62
  256
370
   -1
100
AcDbLine
 10
600
 20
110
 11
600
 21
120
  0
LINE
  5
DA
100
AcDbEntity
  8
Re-inforcementBar
  6
ByLayer
 62
  256
370
   -1
100
AcDbLine
 10
600
 20
120
 11
980
 21
120
  0
LINE
  5
DB
100
AcDbEntity
  8
Re-inforcementBar
  6
ByLayer
 62
  256
370
   -1
100
AcDbLine
 10
980
 20
120
 11
980
 21
110
  0
CIRCLE
  5
DC
100
AcDbEntity
  8
Re-inforcementBar
  6
ByLayer
 62
  256
370
   -1
100
AcDbCircle
 10
410
 20
115
 40
5
  0
CIRCLE
  5
DD
100
AcDbEntity
  8
Re-inforcementBar
  6
ByLayer
 62
  256
370
   -1
100
AcDbCircle
 10
410
 20
115
 40
2.499999999999986
  0
LINE
  5
DE
100
AcDbEntity
  8
Sheetwork
  6
ByLayer
 62
  256
370
   -1
100
AcDbLine
 10
600
 20
470
 11
600
 21
450
  0
ARC
  5
DF
100
AcDbEntity
  8
Sheetwork
  6
ByLayer
 62
  256
370
   -1
100
AcDbCircle
 10
610
 20
470
 40
10
100
AcDbArc
 50
90
 51
180
  0
LINE
  5
E0
100
AcDbEntity
  8
Sheetwork
  6
ByLayer
 62
  256
370
   -1
100
AcDbLine
 10
600
 20
450
 11
580
 21
450
  0
LINE
  5
E1
100
AcDbEntity
  8
Sheetwork
  6
ByLayer
 62
  256
370
   -1
100
AcDbLine
 10
570
 20
440
 11
570
 21
70
  0
ARC
  5
E2
100
AcDbEntity
  8
Sheetwork
  6
ByLayer
 62
  256
370
   -1
100
AcDbCircle
 10
580
 20
440
 40
10
100
AcDbArc
 50
90
 51
180
  0
LINE
  5
E3
100
AcDbEntity
  8
Sheetwork
  6
ByLayer
 62
  256
370
   -1
100
AcDbLine
 10
980
 20
450
 11
980
 21
470
  0
ARC
  5
E4
100
AcDbEntity
  8
Sheetwork
  6
ByLayer
 62
  256
370
   -1
100
AcDbCircle
 10
970
 20
470
 40
10
100
AcDbArc
 50
0
 51
90
  0
LINE
  5
E5
100
AcDbEntity
  8
Sheetwork
  6
ByLayer
 62
  256
370
   -1
100
AcDbLine
 10
1000
 20
450
 11
980
 21
450
  0
LINE
  5
E6
100
AcDbEntity
  8
Sheetwork
  6
ByLayer
 62
  256
370
   -1
100
AcDbLine
 10
1010
 20
70
 11
1010
 21
440
  0
ARC
  5
E7
100
AcDbEntity
  8
Sheetwork
  6
ByLayer
 62
  256
370
   -1
100
AcDbCircle
 10
1000
 20
440
 40
10
100
AcDbArc
 50
0
 51
90
  0
LINE
  5
E8
100
AcDbEntity
  8
Sheetwork
  6
ByLayer
 62
  256
370
   -1
100
AcDbLine
 10
570
 20
440
 11
570
 21
70
  0
LINE
  5
E9
100
AcDbEntity
  8
Sheetwork
  6
ByLayer
 62
  256
370
   -1
100
AcDbLine
 10
600
 20
450
 11
580
 21
450
  0
LINE
  5
EA
100
AcDbEntity
  8
Sheetwork
  6
ByLayer
 62
  256
370
   -1
100
AcDbLine
 10
1000
 20
450
 11
980
 21
450
  0
LINE
  5
EB
100
AcDbEntity
  8
Sheetwork
  6
ByLayer
 62
  256
370
   -1
100
AcDbLine
 10
1010
 20
70
 11
1010
 21
440
  0
LINE
  5
EC
100
AcDbEntity
  8
Sheetwork
  6
ByLayer
 62
  256
370
   -1
100
AcDbLine
 10
980
 20
450
 11
980
 21
470
  0
LINE
  5
ED
100
AcDbEntity
  8
Sheetwork
  6
ByLayer
 62
  256
370
   -1
100
AcDbLine
 10
970
 20
480
 11
610
 21
480
  0
DIMENSION
  5
EE
100
AcDbEntity
  8
Dimms
  6
ByLayer
 62
  256
370
   -1
100
AcDbDimension
  2
*D9
 10
980
 20
530
 30
0
 11
790
 21
533.625
 31
0
 70
   32
 71
    5
  3
Standard
 53
0
210
0
220
0
230
1
100
AcDbAlignedDimension
 13
600
 23
520
 33
0
 14
980
 24
520
 34
0
100
AcDbRotatedDimension
  0
CIRCLE
  5
EF
100
AcDbEntity
  8
Sheetwork
  6
ByLayer
 62
  256
370
   -1
100
AcDbCircle
 10
688
 20
465
 40
2
  0
CIRCLE
  5
F0
100
AcDbEntity
  8
Sheetwork
  6
ByLayer
 62
  256
370
   -1
100
AcDbCircle
 10
912
 20
465
 40
2
  0
CIRCLE
  5
F1
100
AcDbEntity
  8
Sheetwork
  6
ByLayer
 62
  256
370
   -1
100
AcDbCircle
 10
995
 20
370
 40
2
  0
CIRCLE
  5
F2
100
AcDbEntity
  8
Sheetwork
  6
ByLayer
 62
  256
370
   -1
100
AcDbCircle
 10
585
 20
370
 40
2
  0
LINE
  5
F3
100
AcDbEntity
  8
Sheetwork2
  6
ByLayer
 62
  256
370
   -1
100
AcDbLine
 10
1300
 20
450
 11
1680
 21
450
  0
CIRCLE
  5
F4
100
AcDbEntity
  8
Sheetwork2
  6
ByLayer
 62
  256
370
   -1
100
AcDbCircle
 10
1388
 20
465
 40
2
  0
CIRCLE
  5
F5
100
AcDbEntity
  8
Sheetwork2
  6
ByLayer
 62
  256
370
   -1
100
AcDbCircle
 10
1612
 20
465
 40
2
  0
CIRCLE
  5
F6
100
AcDbEntity
  8
Sheetwork2
  6
ByLayer
 62
  256
370
   -1
100
AcDbCircle
 10
1695
 20
370
 40
2
  0
CIRCLE
  5
F7
100
AcDbEntity
  8
Sheetwork2
  6
ByLayer
 62
  256
370
   -1
100
AcDbCircle
 10
1285
 20
370
 40
2
  0
CIRCLE
  5
F8
100
AcDbEntity
  8
Sheetwork2
  6
ByLayer
 62
  256
370
   -1
100
AcDbCircle
 10
1285
 20
70
 40
2
  0
CIRCLE
  5
F9
100
AcDbEntity
  8
Sheetwork2
  6
ByLayer
 62
  256
370
   -1
100
AcDbCircle
 10
1695
 20
70
 40
2
  0
LINE
  5
FA
100
AcDbEntity
  8
Sheetwork2
  6
ByLayer
 62
  256
370
   -1
100
AcDbLine
 10
1300
 20
450
 11
1300
 21
-20
  0
LINE
  5
FB
100
AcDbEntity
  8
Sheetwork2
  6
ByLayer
 62
  256
370
   -1
100
AcDbLine
 10
1300
 20
-20
 11
1680
 21
-20
  0
LINE
  5
FC
100
AcDbEntity
  8
Sheetwork2
  6
ByLayer
 62
  256
370
   -1
100
AcDbLine
 10
1680
 20
450
 11
1680
 21
-20
  0
CIRCLE
  5
FD
100
AcDbEntity
  8
Sheetwork2
  6
ByLayer
 62
  256
370
   -1
100
AcDbCircle
 10
1625
 20
315
 40
2
  0
CIRCLE
  5
FE
100
AcDbEntity
  8
Sheetwork2
  6
ByLayer
 62
  256
370
   -1
100
AcDbCircle
 10
1385
 20
315
 40
2
  0
CIRCLE
  5
FF
100
AcDbEntity
  8
Sheetwork2
  6
ByLayer
 62
  256
370
   -1
100
AcDbCircle
 10
1385
 20
40
 40
2
  0
CIRCLE
  5
100
100
AcDbEntity
  8
Sheetwork2
  6
ByLayer
 62
  256
370
   -1
100
AcDbCircle
 10
1625
 20
40
 40
2
  0
CIRCLE
  5
101
100
AcDbEntity
  8
Sheetwork2
  6
ByLayer
 62
  256
370
   -1
100
AcDbCircle
 10
1485
 20
215
 40
100
  0
CIRCLE
  5
102
100
AcDbEntity
  8
Fan
  6
ByLayer
 62
  256
370
   -1
100
AcDbCircle
 10
1515
 20
215
 40
100
  0
LINE
  5
103
100
AcDbEntity
  8
Fan
  6
ByLayer
 62
  256
370
   -1
100
AcDbLine
 10
1515
 20
215
 11
1665
 21
215
  0
LINE
  5
104
100
AcDbEntity
  8
Fan
  6
ByLayer
 62
  256
370
   -1
100
AcDbLine
 10
1515
 20
215
 11
1515
 21
65
  0
LINE
  5
105
100
AcDbEntity
  8
Fan
  6
ByLayer
 62
  256
370
   -1
100
AcDbLine
 10
1515
 20
215
 11
1515
 21
385
  0
LINE
  5
106
100
AcDbEntity
  8
Fan
  6
ByLayer
 62
  256
370
   -1
100
AcDbLine
 10
1515
 20
215
 11
1315
 21
215
  0
LINE
  5
107
100
AcDbEntity
  8
Fan
  6
ByLayer
 62
  256
370
   -1
100
AcDbLine
 10
1315
 20
65
 11
1335
 21
65
  0
LINE
  5
108
100
AcDbEntity
  8
Fan
  6
ByLayer
 62
  256
370
   -1
100
AcDbLine
 10
1335
 20
65
 11
1595
 21
65
  0
ARC
  5
109
100
AcDbEntity
  8
Fan
  6
ByLayer
 62
  256
370
   -1
100
AcDbCircle
 10
1511.666666666667
 20
218.3333333333334
 40
153.3695609376979
100
AcDbArc
 50
271.2453642667683
 51
358.7546357332316
  0
ARC
  5
10A
100
AcDbEntity
  8
Fan
  6
ByLayer
 62
  256
370
   -1
100
AcDbCircle
 10
1513.947368421053
 20
232.8947368421053
 40
152.1089054380887
100
AcDbArc
 50
353.2438355051383
 51
89.60349574486692
  0
ARC
  5
10B
100
AcDbEntity
  8
Fan
  6
ByLayer
 62
  256
370
   -1
100
AcDbCircle
 10
1488.164556962025
 20
213.9240506329114
 40
173.167899608718
100
AcDbArc
 50
81.08507304285212
 51
179.6440001033426
  0
ARC
  5
10C
100
AcDbEntity
  8
Fan
  6
ByLayer
 62
  256
370
   -1
100
AcDbCircle
 10
5600
 20
710
 40
4313.496261734789
100
AcDbArc
 50
186.5895573633373
 51
188.5997293738457
  0
CIRCLE
  5
10D
100
AcDbEntity
  8
Fan
  6
ByLayer
 62
  256
370
   -1
100
AcDbCircle
 10
1515
 20
215
 40
10
  0
DIMENSION
  5
10E
100
AcDbEntity
  8
Dimms
  6
ByLayer
 62
  256
370
   -1
100
AcDbDimension
  2
*D10
 10
1515
 20
331
 30
0
 11
1450
 21
334.625
 31
0
 70
   32
 71
    5
  3
Standard
 53
0
210
0
220
0
230
1
100
AcDbAlignedDimension
 13
1385
 23
330
 33
0
 14
1515
 24
330
 34
0
100
AcDbRotatedDimension
  0
DIMENSION
  5
10F
100
AcDbEntity
  8
Dimms
  6
ByLayer
 62
  256
370
   -1
100
AcDbDimension
  2
*D11
 10
1369
 20
215
 30
0
 11
1365.375
 21
265
 31
0
 70
   32
 71
    5
  3
Standard
 53
0
210
0
220
0
230
1
100
AcDbAlignedDimension
 13
1370
 23
315
 33
0
 14
1370
 24
215
 34
0
 50
90
100
AcDbRotatedDimension
  0
ENDSEC
  0
SECTION
  2
OBJECTS
  0
DICTIONARY
  5
C
330
0
100
AcDbDictionary
281
    1
  3
ACAD_GROUP
350
D
  0
DICTIONARY
  5
D
330
C
100
AcDbDictionary
281
    1
  0
ENDSEC
  0
EOF
