999
dxfrw 0.5.10
0
SECTION
2
HEADER
9
$ACADVER
1
AC1021
9
$HANDSEED
5
20000
9
$DWGCODEPAGE
3
ANSI_1252
9
$INSBASE
10
0
20
0
30
0
9
$EXTMIN
10
76.875
20
78.75
30
0
9
$EXTMAX
10
321
20
173.125
30
0
9
$LIMMIN
10
0
20
0
9
$LIMMAX
10
420
20
297
9
$ORTHOMODE
70
0
9
$LTSCALE
40
1
9
$TEXTSTYLE
7
STANDARD
9
$CLAYER
8
Dims
9
$DIMASZ
40
2.5
9
$DIMLFAC
40
1
9
$DIMSCALE
40
1
9
$DIMEXO
40
0.625
9
$DIMEXE
40
1.25
9
$DIMTXT
40
2.5
9
$DIMTSZ
40
0
9
$DIMAUNIT
70
0
9
$DIMADEC
70
0
9
$DIMLUNIT
70
2
9
$DIMSTYLE
2
STANDARD
9
$DIMGAP
40
0.625
9
$DIMTIH
70
0
9
$LUNITS
70
2
9
$LUPREC
70
4
9
$AUNITS
70
0
9
$AUPREC
70
2
9
$SPLINESEGS
70
8
9
$GRIDMODE
70
1
9
$SNAPSTYLE
70
0
9
$PINSBASE
10
0
20
0
30
0
9
$PLIMMIN
10
0
20
0
9
$PLIMMAX
10
297
20
210
9
$INSUNITS
70
4
9
$PSVPSCALE
40
1
0
ENDSEC
0
SECTION
2
CLASSES
0
ENDSEC
0
SECTION
2
TABLES
0
TABLE
2
VPORT
5
8
330
0
100
AcDbSymbolTable
70
1
0
VPORT
5
31
330
2
100
AcDbSymbolTableRecord
100
AcDbViewportTableRecord
2
*ACTIVE
70
0
10
0
20
0
11
1
21
1
12
199.44
22
98.32
13
0
23
0
14
10
24
10
15
10
25
10
16
0
26
0
36
1
17
0
27
0
37
0
40
125.44
41
2.04464285714
42
50
43
0
44
0
50
0
51
0
71
0
72
100
73
1
74
3
75
0
76
1
77
0
78
0
281
0
65
1
110
0
120
0
130
0
111
1
121
0
131
0
112
0
122
1
132
0
79
0
146
0
348
10020
60
7
61
5
292
1
282
1
141
0
142
0
63
250
421
3358443
0
ENDTAB
0
TABLE
2
LTYPE
5
5
330
0
100
AcDbSymbolTable
70
4
0
LTYPE
5
14
330
5
100
AcDbSymbolTableRecord
100
AcDbLinetypeTableRecord
2
ByBlock
70
0
3

72
65
73
0
40
0
0
LTYPE
5
15
330
5
100
AcDbSymbolTableRecord
100
AcDbLinetypeTableRecord
2
ByLayer
70
0
3

72
65
73
0
40
0
0
LTYPE
5
16
330
5
100
AcDbSymbolTableRecord
100
AcDbLinetypeTableRecord
2
Continuous
70
0
3
Solid line
72
65
73
0
40
0
0
LTYPE
5
32
330
5
100
AcDbSymbolTableRecord
100
AcDbLinetypeTableRecord
2
DOT
70
0
3
Dot . . . . . . . . . . . . . . . . . . . . . .
72
65
73
2
40
6.35
49
0
74
0
49
-6.35
74
0
0
LTYPE
5
33
330
5
100
AcDbSymbolTableRecord
100
AcDbLinetypeTableRecord
2
DOT2
70
0
3
Dot (.5x) .....................................
72
65
73
2
40
3.175
49
0
74
0
49
-3.175
74
0
0
LTYPE
5
34
330
5
100
AcDbSymbolTableRecord
100
AcDbLinetypeTableRecord
2
DOTX2
70
0
3
Dot (2x) .  .  .  .  .  .  .  .  .  .  .  .  .
72
65
73
2
40
12.7
49
0
74
0
49
-12.7
74
0
0
LTYPE
5
35
330
5
100
AcDbSymbolTableRecord
100
AcDbLinetypeTableRecord
2
DASHED
70
0
3
Dot . . . . . . . . . . . . . . . . . . . . . .
72
65
73
2
40
19.05
49
12.7
74
0
49
-6.35
74
0
0
LTYPE
5
36
330
5
100
AcDbSymbolTableRecord
100
AcDbLinetypeTableRecord
2
DASHED2
70
0
3
Dashed (.5x) _ _ _ _ _ _ _ _ _ _ _ _ _ _ _ _ _
72
65
73
2
40
9.525
49
6.35
74
0
49
-3.175
74
0
0
LTYPE
5
37
330
5
100
AcDbSymbolTableRecord
100
AcDbLinetypeTableRecord
2
DASHEDX2
70
0
3
Dashed (2x) ____  ____  ____  ____  ____  ___
72
65
73
2
40
38.1
49
25.4
74
0
49
-12.7
74
0
0
LTYPE
5
38
330
5
100
AcDbSymbolTableRecord
100
AcDbLinetypeTableRecord
2
DASHDOT
70
0
3
Dash dot __ . __ . __ . __ . __ . __ . __ . __
72
65
73
4
40
25.4
49
12.7
74
0
49
-6.35
74
0
49
0
74
0
49
-6.35
74
0
0
LTYPE
5
39
330
5
100
AcDbSymbolTableRecord
100
AcDbLinetypeTableRecord
2
DASHDOT2
70
0
3
Dash dot (.5x) _._._._._._._._._._._._._._._.
72
65
73
4
40
12.7
49
6.35
74
0
49
-3.175
74
0
49
0
74
0
49
-3.175
74
0
0
LTYPE
5
3A
330
5
100
AcDbSymbolTableRecord
100
AcDbLinetypeTableRecord
2
DASHDOTX2
70
0
3
Dash dot (2x) ____  .  ____  .  ____  .  ___
72
65
73
4
40
50.8
49
25.4
74
0
49
-12.7
74
0
49
0
74
0
49
-12.7
74
0
0
LTYPE
5
3B
330
5
100
AcDbSymbolTableRecord
100
AcDbLinetypeTableRecord
2
DIVIDE
70
0
3
Divide ____ . . ____ . . ____ . . ____ . . ____
72
65
73
6
40
31.75
49
12.7
74
0
49
-6.35
74
0
49
0
74
0
49
-6.35
74
0
49
0
74
0
49
-6.35
74
0
0
LTYPE
5
3C
330
5
100
AcDbSymbolTableRecord
100
AcDbLinetypeTableRecord
2
DIVIDE2
70
0
3
Divide (.5x) __..__..__..__..__..__..__..__.._
72
65
73
6
40
15.875
49
6.35
74
0
49
-3.175
74
0
49
0
74
0
49
-3.175
74
0
49
0
74
0
49
-3.175
74
0
0
LTYPE
5
3D
330
5
100
AcDbSymbolTableRecord
100
AcDbLinetypeTableRecord
2
DIVIDEX2
70
0
3
Divide (2x) ________  .  .  ________  .  .  _
72
65
73
6
40
63.5
49
25.4
74
0
49
-12.7
74
0
49
0
74
0
49
-12.7
74
0
49
0
74
0
49
-12.7
74
0
0
LTYPE
5
3E
330
5
100
AcDbSymbolTableRecord
100
AcDbLinetypeTableRecord
2
BORDER
70
0
3
Border __ __ . __ __ . __ __ . __ __ . __ __ .
72
65
73
6
40
44.45
49
12.7
74
0
49
-6.35
74
0
49
12.7
74
0
49
-6.35
74
0
49
0
74
0
49
-6.35
74
0
0
LTYPE
5
3F
330
5
100
AcDbSymbolTableRecord
100
AcDbLinetypeTableRecord
2
BORDER2
70
0
3
Border (.5x) __.__.__.__.__.__.__.__.__.__.__.
72
65
73
6
40
22.225
49
6.35
74
0
49
-3.175
74
0
49
6.35
74
0
49
-3.175
74
0
49
0
74
0
49
-3.175
74
0
0
LTYPE
5
40
330
5
100
AcDbSymbolTableRecord
100
AcDbLinetypeTableRecord
2
BORDERX2
70
0
3
Border (2x) ____  ____  .  ____  ____  .  ___
72
65
73
6
40
88.9
49
25.4
74
0
49
-12.7
74
0
49
25.4
74
0
49
-12.7
74
0
49
0
74
0
49
-12.7
74
0
0
LTYPE
5
41
330
5
100
AcDbSymbolTableRecord
100
AcDbLinetypeTableRecord
2
CENTER
70
0
3
Center ____ _ ____ _ ____ _ ____ _ ____ _ ____
72
65
73
4
40
50.8
49
31.75
74
0
49
-6.35
74
0
49
6.35
74
0
49
-6.35
74
0
0
LTYPE
5
42
330
5
100
AcDbSymbolTableRecord
100
AcDbLinetypeTableRecord
2
CENTER2
70
0
3
Center (.5x) ___ _ ___ _ ___ _ ___ _ ___ _ ___
72
65
73
4
40
28.575
49
19.05
74
0
49
-3.175
74
0
49
3.175
74
0
49
-3.175
74
0
0
LTYPE
5
43
330
5
100
AcDbSymbolTableRecord
100
AcDbLinetypeTableRecord
2
CENTERX2
70
0
3
Center (2x) ________  __  ________  __  _____
72
65
73
4
40
101.6
49
63.5
74
0
49
-12.7
74
0
49
12.7
74
0
49
-12.7
74
0
0
ENDTAB
0
TABLE
2
LAYER
5
2
330
0
100
AcDbSymbolTable
70
1
0
LAYER
5
10
330
2
100
AcDbSymbolTableRecord
100
AcDbLayerTableRecord
2
0
70
4
62
7
6
CONTINUOUS
370
0
390
F
0
LAYER
5
44
330
2
100
AcDbSymbolTableRecord
100
AcDbLayerTableRecord
2
base
70
4
62
7
6
CONTINUOUS
370
25
390
F
0
LAYER
5
45
330
2
100
AcDbSymbolTableRecord
100
AcDbLayerTableRecord
2
optic
70
4
62
7
6
CONTINUOUS
370
25
390
F
0
LAYER
5
46
330
2
100
AcDbSymbolTableRecord
100
AcDbLayerTableRecord
2
punch
70
4
62
7
6
CONTINUOUS
370
25
390
F
0
LAYER
5
47
330
2
100
AcDbSymbolTableRecord
100
AcDbLayerTableRecord
2
Dims
70
4
62
7
6
CONTINUOUS
370
25
390
F
0
ENDTAB
0
TABLE
2
STYLE
5
3
330
0
100
AcDbSymbolTable
70
3
0
STYLE
5
48
330
2
100
AcDbSymbolTableRecord
100
AcDbTextStyleTableRecord
2
Standard
70
0
40
0
41
1
50
0
71
0
42
1
3
txt
4

0
ENDTAB
0
TABLE
2
VIEW
5
6
330
0
100
AcDbSymbolTable
70
0
0
ENDTAB
0
TABLE
2
UCS
5
7
330
0
100
AcDbSymbolTable
70
0
0
ENDTAB
0
TABLE
2
APPID
5
9
330
0
100
AcDbSymbolTable
70
1
0
APPID
5
12
330
9
100
AcDbSymbolTableRecord
100
AcDbRegAppTableRecord
2
ACAD
70
0
0
ENDTAB
0
TABLE
2
DIMSTYLE
5
A
330
0
100
AcDbSymbolTable
70
1
100
AcDbDimStyleTable
71
1
0
DIMSTYLE
105
49
330
A
100
AcDbSymbolTableRecord
100
AcDbDimStyleTableRecord
2
Standard
70
0
40
1
41
2.5
42
0.625
43
0.38
44
1.25
45
0
46
0
47
0
48
0
140
2.5
141
0.09
142
0
143
25.4
144
1
145
0
146
1
147
0.625
148
0
71
0
72
0
73
0
74
1
75
0
76
0
77
0
78
0
79
0
170
0
171
2
172
0
173
0
174
0
175
0
176
0
177
0
178
0
179
0
271
4
272
4
273
2
274
2
275
0
276
0
277
2
278
46
279
0
280
0
281
0
282
0
283
1
284
0
285
0
286
0
288
0
289
3
340
Standard
341

371
-2
372
-2
0
ENDTAB
0
TABLE
2
BLOCK_RECORD
5
1
330
0
100
AcDbSymbolTable
70
2
0
BLOCK_RECORD
5
1F
330
1
100
AcDbSymbolTableRecord
100
AcDbBlockTableRecord
2
*Model_Space
70
0
280
1
281
0
0
BLOCK_RECORD
5
1E
330
1
100
AcDbSymbolTableRecord
100
AcDbBlockTableRecord
2
*Paper_Space
70
0
280
1
281
0
0
BLOCK_RECORD
5
4A
330
1
100
AcDbSymbolTableRecord
100
AcDbBlockTableRecord
2
*D12
70
0
280
1
281
0
0
BLOCK_RECORD
5
4D
330
1
100
AcDbSymbolTableRecord
100
AcDbBlockTableRecord
2
*D19
70
0
280
1
281
0
0
BLOCK_RECORD
5
50
330
1
100
AcDbSymbolTableRecord
100
AcDbBlockTableRecord
2
*D17
70
0
280
1
281
0
0
BLOCK_RECORD
5
53
330
1
100
AcDbSymbolTableRecord
100
AcDbBlockTableRecord
2
*D21
70
0
280
1
281
0
0
BLOCK_RECORD
5
56
330
1
100
AcDbSymbolTableRecord
100
AcDbBlockTableRecord
2
*D14
70
0
280
1
281
0
0
BLOCK_RECORD
5
59
330
1
100
AcDbSymbolTableRecord
100
AcDbBlockTableRecord
2
*D13
70
0
280
1
281
0
0
BLOCK_RECORD
5
5C
330
1
100
AcDbSymbolTableRecord
100
AcDbBlockTableRecord
2
*D18
70
0
280
1
281
0
0
BLOCK_RECORD
5
5F
330
1
100
AcDbSymbolTableRecord
100
AcDbBlockTableRecord
2
*D10
70
0
280
1
281
0
0
BLOCK_RECORD
5
62
330
1
100
AcDbSymbolTableRecord
100
AcDbBlockTableRecord
2
*D4
70
0
280
1
281
0
0
BLOCK_RECORD
5
65
330
1
100
AcDbSymbolTableRecord
100
AcDbBlockTableRecord
2
*D6
70
0
280
1
281
0
0
BLOCK_RECORD
5
68
330
1
100
AcDbSymbolTableRecord
100
AcDbBlockTableRecord
2
*D15
70
0
280
1
281
0
0
BLOCK_RECORD
5
6B
330
1
100
AcDbSymbolTableRecord
100
AcDbBlockTableRecord
2
*D7
70
0
280
1
281
0
0
BLOCK_RECORD
5
6E
330
1
100
AcDbSymbolTableRecord
100
AcDbBlockTableRecord
2
*D9
70
0
280
1
281
0
0
BLOCK_RECORD
5
71
330
1
100
AcDbSymbolTableRecord
100
AcDbBlockTableRecord
2
*D20
70
0
280
1
281
0
0
BLOCK_RECORD
5
74
330
1
100
AcDbSymbolTableRecord
100
AcDbBlockTableRecord
2
*D2
70
0
280
1
281
0
0
BLOCK_RECORD
5
77
330
1
100
AcDbSymbolTableRecord
100
AcDbBlockTableRecord
2
*D5
70
0
280
1
281
0
0
BLOCK_RECORD
5
7A
330
1
100
AcDbSymbolTableRecord
100
AcDbBlockTableRecord
2
*D1
70
0
280
1
281
0
0
BLOCK_RECORD
5
7D
330
1
100
AcDbSymbolTableRecord
100
AcDbBlockTableRecord
2
*D16
70
0
280
1
281
0
0
BLOCK_RECORD
5
80
330
1
100
AcDbSymbolTableRecord
100
AcDbBlockTableRecord
2
*D3
70
0
280
1
281
0
0
BLOCK_RECORD
5
83
330
1
100
AcDbSymbolTableRecord
100
AcDbBlockTableRecord
2
*D11
70
0
280
1
281
0
0
BLOCK_RECORD
5
86
330
1
100
AcDbSymbolTableRecord
100
AcDbBlockTableRecord
2
*D8
70
0
280
1
281
0
0
ENDTAB
0
ENDSEC
0
SECTION
2
BLOCKS
0
BLOCK
5
20
330
1F
100
AcDbEntity
8
0
100
AcDbBlockBegin
2
*Model_Space
70
0
10
0
20
0
30
0
3
*Model_Space
1

0
ENDBLK
5
21
330
1F
100
AcDbEntity
8
0
100
AcDbBlockEnd
0
BLOCK
5
1C
330
1B
100
AcDbEntity
8
0
100
AcDbBlockBegin
2
*Paper_Space
70
0
10
0
20
0
30
0
3
*Paper_Space
1

0
ENDBLK
5
1D
330
1F
100
AcDbEntity
8
0
100
AcDbBlockEnd
0
BLOCK
5
4B
330
4A
100
AcDbEntity
8
0
100
AcDbBlockBegin
2
*D12
70
1
10
0
20
0
3
*D12
1

0
LINE
5
89
100
AcDbEntity
8
Dims
6
CONTINUOUS
62
7
370
0
100
AcDbLine
10
120
20
80
11
128
21
80
0
SOLID
5
8A
100
AcDbEntity
8
Dims
6
CONTINUOUS
62
7
370
0
100
AcDbTrace
10
120
20
80
30
0
11
122.5
21
80.4162846578
31
0
12
122.5
22
79.5837153422
32
0
13
122.5
23
79.5837153422
33
0
0
SOLID
5
8B
100
AcDbEntity
8
Dims
6
CONTINUOUS
62
7
370
0
100
AcDbTrace
10
128
20
80
30
0
11
125.5
21
79.5837153422
31
0
12
125.5
22
80.4162846578
32
0
13
125.5
23
80.4162846578
33
0
0
MTEXT
5
8C
100
AcDbEntity
8
Dims
6
CONTINUOUS
62
7
370
0
100
AcDbMText
10
124
20
81.875
30
0
40
2.5
41
1.11111111111
71
5
72
1
1
8
7
standard
210
0
220
0
230
1
50
0
73
2
44
1
0
LINE
5
8D
100
AcDbEntity
8
Dims
6
CONTINUOUS
62
7
370
0
100
AcDbLine
10
120
20
89.375
11
120
21
78.75
0
LINE
5
8E
100
AcDbEntity
8
Dims
6
CONTINUOUS
62
7
370
0
100
AcDbLine
10
128
20
89.375
11
128
21
78.75
0
ENDBLK
5
4C
330
4A
100
AcDbEntity
8
0
100
AcDbBlockEnd
0
BLOCK
5
4E
330
4D
100
AcDbEntity
8
0
100
AcDbBlockBegin
2
*D19
70
1
10
0
20
0
3
*D19
1

0
LINE
5
8F
100
AcDbEntity
8
Dims
6
CONTINUOUS
62
7
370
0
100
AcDbLine
10
305
20
81
11
321
21
81
0
SOLID
5
90
100
AcDbEntity
8
Dims
6
CONTINUOUS
62
7
370
0
100
AcDbTrace
10
310
20
81
30
0
11
307.5
21
80.5837153422
31
0
12
307.5
22
81.4162846578
32
0
13
307.5
23
81.4162846578
33
0
0
SOLID
5
91
100
AcDbEntity
8
Dims
6
CONTINUOUS
62
7
370
0
100
AcDbTrace
10
316
20
81
30
0
11
318.5
21
81.4162846578
31
0
12
318.5
22
80.5837153422
32
0
13
318.5
23
80.5837153422
33
0
0
MTEXT
5
92
100
AcDbEntity
8
Dims
6
CONTINUOUS
62
7
370
0
100
AcDbMText
10
313
20
82.875
30
0
40
2.5
41
1.11111111111
71
5
72
1
1
6
7
standard
210
0
220
0
230
1
50
0
73
2
44
1
0
LINE
5
93
100
AcDbEntity
8
Dims
6
CONTINUOUS
62
7
370
0
100
AcDbLine
10
310
20
89.375
11
310
21
79.75
0
LINE
5
94
100
AcDbEntity
8
Dims
6
CONTINUOUS
62
7
370
0
100
AcDbLine
10
316
20
89.375
11
316
21
79.75
0
ENDBLK
5
4F
330
4D
100
AcDbEntity
8
0
100
AcDbBlockEnd
0
BLOCK
5
51
330
50
100
AcDbEntity
8
0
100
AcDbBlockBegin
2
*D17
70
1
10
0
20
0
3
*D17
1

0
LINE
5
95
100
AcDbEntity
8
Dims
6
CONTINUOUS
62
7
370
0
100
AcDbLine
10
200
20
80
11
212
21
80
0
SOLID
5
96
100
AcDbEntity
8
Dims
6
CONTINUOUS
62
7
370
0
100
AcDbTrace
10
200
20
80
30
0
11
202.5
21
80.4162846578
31
0
12
202.5
22
79.5837153422
32
0
13
202.5
23
79.5837153422
33
0
0
SOLID
5
97
100
AcDbEntity
8
Dims
6
CONTINUOUS
62
7
370
0
100
AcDbTrace
10
212
20
80
30
0
11
209.5
21
79.5837153422
31
0
12
209.5
22
80.4162846578
32
0
13
209.5
23
80.4162846578
33
0
0
MTEXT
5
98
100
AcDbEntity
8
Dims
6
CONTINUOUS
62
7
370
0
100
AcDbMText
10
206
20
81.875
30
0
40
2.5
41
2.5
71
5
72
1
1
12
7
standard
210
0
220
0
230
1
50
0
73
2
44
1
0
LINE
5
99
100
AcDbEntity
8
Dims
6
CONTINUOUS
62
7
370
0
100
AcDbLine
10
200
20
89.375
11
200
21
78.75
0
LINE
5
9A
100
AcDbEntity
8
Dims
6
CONTINUOUS
62
7
370
0
100
AcDbLine
10
212
20
89.375
11
212
21
78.75
0
ENDBLK
5
52
330
50
100
AcDbEntity
8
0
100
AcDbBlockEnd
0
BLOCK
5
54
330
53
100
AcDbEntity
8
0
100
AcDbBlockBegin
2
*D21
70
1
10
0
20
0
3
*D21
1

0
SOLID
5
9B
100
AcDbEntity
8
Dims
6
CONTINUOUS
62
7
370
0
100
AcDbTrace
10
213.054194357
20
141.092904613
30
0
11
212.154094698
21
138.723703583
31
0
12
211.434938889
22
139.143211138
32
0
13
211.434938889
23
139.143211138
33
0
0
LINE
5
9C
100
AcDbEntity
8
Dims
6
CONTINUOUS
62
7
370
0
100
AcDbLine
10
206
20
129
11
213.054194357
21
141.092904613
0
MTEXT
5
9D
100
AcDbEntity
8
Dims
6
CONTINUOUS
62
7
370
0
100
AcDbMText
10
207.907511739
20
135.991210479
30
0
40
2.5
41
2.77777777778
71
5
72
1
1
14
7
standard
210
0
220
0
230
1
50
59.7435628365
73
2
44
1
0
ENDBLK
5
55
330
53
100
AcDbEntity
8
0
100
AcDbBlockEnd
0
BLOCK
5
57
330
56
100
AcDbEntity
8
0
100
AcDbBlockBegin
2
*D14
70
1
10
0
20
0
3
*D14
1

0
LINE
5
9E
100
AcDbEntity
8
Dims
6
CONTINUOUS
62
7
370
0
100
AcDbLine
10
108
20
150
11
120
21
150
0
SOLID
5
9F
100
AcDbEntity
8
Dims
6
CONTINUOUS
62
7
370
0
100
AcDbTrace
10
108
20
150
30
0
11
110.5
21
150.416284658
31
0
12
110.5
22
149.583715342
32
0
13
110.5
23
149.583715342
33
0
0
SOLID
5
A0
100
AcDbEntity
8
Dims
6
CONTINUOUS
62
7
370
0
100
AcDbTrace
10
120
20
150
30
0
11
117.5
21
149.583715342
31
0
12
117.5
22
150.416284658
32
0
13
117.5
23
150.416284658
33
0
0
MTEXT
5
A1
100
AcDbEntity
8
Dims
6
CONTINUOUS
62
7
370
0
100
AcDbMText
10
114
20
151.875
30
0
40
2.5
41
2.5
71
5
72
1
1
12
7
standard
210
0
220
0
230
1
50
0
73
2
44
1
0
LINE
5
A2
100
AcDbEntity
8
Dims
6
CONTINUOUS
62
7
370
0
100
AcDbLine
10
108
20
140.625
11
108
21
151.25
0
LINE
5
A3
100
AcDbEntity
8
Dims
6
CONTINUOUS
62
7
370
0
100
AcDbLine
10
120
20
140.625
11
120
21
151.25
0
ENDBLK
5
58
330
56
100
AcDbEntity
8
0
100
AcDbBlockEnd
0
BLOCK
5
5A
330
59
100
AcDbEntity
8
0
100
AcDbBlockBegin
2
*D13
70
1
10
0
20
0
3
*D13
1

0
LINE
5
A4
100
AcDbEntity
8
Dims
6
CONTINUOUS
62
7
370
0
100
AcDbLine
10
97
20
150
11
113
21
150
0
SOLID
5
A5
100
AcDbEntity
8
Dims
6
CONTINUOUS
62
7
370
0
100
AcDbTrace
10
102
20
150
30
0
11
99.5
21
149.583715342
31
0
12
99.5
22
150.416284658
32
0
13
99.5
23
150.416284658
33
0
0
SOLID
5
A6
100
AcDbEntity
8
Dims
6
CONTINUOUS
62
7
370
0
100
AcDbTrace
10
108
20
150
30
0
11
110.5
21
150.416284658
31
0
12
110.5
22
149.583715342
32
0
13
110.5
23
149.583715342
33
0
0
MTEXT
5
A7
100
AcDbEntity
8
Dims
6
CONTINUOUS
62
7
370
0
100
AcDbMText
10
105
20
151.875
30
0
40
2.5
41
1.11111111111
71
5
72
1
1
6
7
standard
210
0
220
0
230
1
50
0
73
2
44
1
0
LINE
5
A8
100
AcDbEntity
8
Dims
6
CONTINUOUS
62
7
370
0
100
AcDbLine
10
102
20
140.625
11
102
21
151.25
0
LINE
5
A9
100
AcDbEntity
8
Dims
6
CONTINUOUS
62
7
370
0
100
AcDbLine
10
108
20
140.625
11
108
21
151.25
0
ENDBLK
5
5B
330
59
100
AcDbEntity
8
0
100
AcDbBlockEnd
0
BLOCK
5
5D
330
5C
100
AcDbEntity
8
0
100
AcDbBlockBegin
2
*D18
70
1
10
0
20
0
3
*D18
1

0
LINE
5
AA
100
AcDbEntity
8
Dims
6
CONTINUOUS
62
7
370
0
100
AcDbLine
10
299
20
81
11
315
21
81
0
SOLID
5
AB
100
AcDbEntity
8
Dims
6
CONTINUOUS
62
7
370
0
100
AcDbTrace
10
304
20
81
30
0
11
301.5
21
80.5837153422
31
0
12
301.5
22
81.4162846578
32
0
13
301.5
23
81.4162846578
33
0
0
SOLID
5
AC
100
AcDbEntity
8
Dims
6
CONTINUOUS
62
7
370
0
100
AcDbTrace
10
310
20
81
30
0
11
312.5
21
81.4162846578
31
0
12
312.5
22
80.5837153422
32
0
13
312.5
23
80.5837153422
33
0
0
MTEXT
5
AD
100
AcDbEntity
8
Dims
6
CONTINUOUS
62
7
370
0
100
AcDbMText
10
307
20
82.875
30
0
40
2.5
41
1.11111111111
71
5
72
1
1
6
7
standard
210
0
220
0
230
1
50
0
73
2
44
1
0
LINE
5
AE
100
AcDbEntity
8
Dims
6
CONTINUOUS
62
7
370
0
100
AcDbLine
10
304
20
89.375
11
304
21
79.75
0
LINE
5
AF
100
AcDbEntity
8
Dims
6
CONTINUOUS
62
7
370
0
100
AcDbLine
10
310
20
89.375
11
310
21
79.75
0
ENDBLK
5
5E
330
5C
100
AcDbEntity
8
0
100
AcDbBlockEnd
0
BLOCK
5
60
330
5F
100
AcDbEntity
8
0
100
AcDbBlockBegin
2
*D10
70
1
10
0
20
0
3
*D10
1

0
LINE
5
B0
100
AcDbEntity
8
Dims
6
CONTINUOUS
62
7
370
0
100
AcDbLine
10
99
20
80
11
113
21
80
0
SOLID
5
B1
100
AcDbEntity
8
Dims
6
CONTINUOUS
62
7
370
0
100
AcDbTrace
10
104
20
80
30
0
11
101.5
21
79.5837153422
31
0
12
101.5
22
80.4162846578
32
0
13
101.5
23
80.4162846578
33
0
0
SOLID
5
B2
100
AcDbEntity
8
Dims
6
CONTINUOUS
62
7
370
0
100
AcDbTrace
10
108
20
80
30
0
11
110.5
21
80.4162846578
31
0
12
110.5
22
79.5837153422
32
0
13
110.5
23
79.5837153422
33
0
0
MTEXT
5
B3
100
AcDbEntity
8
Dims
6
CONTINUOUS
62
7
370
0
100
AcDbMText
10
106
20
81.875
30
0
40
2.5
41
1.38888888889
71
5
72
1
1
4
7
standard
210
0
220
0
230
1
50
0
73
2
44
1
0
LINE
5
B4
100
AcDbEntity
8
Dims
6
CONTINUOUS
62
7
370
0
100
AcDbLine
10
104
20
89.375
11
104
21
78.75
0
LINE
5
B5
100
AcDbEntity
8
Dims
6
CONTINUOUS
62
7
370
0
100
AcDbLine
10
108
20
89.375
11
108
21
78.75
0
ENDBLK
5
61
330
5F
100
AcDbEntity
8
0
100
AcDbBlockEnd
0
BLOCK
5
63
330
62
100
AcDbEntity
8
0
100
AcDbBlockBegin
2
*D4
70
1
10
0
20
0
3
*D4
1

0
LINE
5
B6
100
AcDbEntity
8
Dims
6
CONTINUOUS
62
7
370
0
100
AcDbLine
10
180
20
100
11
180
21
129
0
SOLID
5
B7
100
AcDbEntity
8
Dims
6
CONTINUOUS
62
7
370
0
100
AcDbTrace
10
180
20
100
30
0
11
179.583715342
21
102.5
31
0
12
180.416284658
22
102.5
32
0
13
180.416284658
23
102.5
33
0
0
SOLID
5
B8
100
AcDbEntity
8
Dims
6
CONTINUOUS
62
7
370
0
100
AcDbTrace
10
180
20
129
30
0
11
180.416284658
21
126.5
31
0
12
179.583715342
22
126.5
32
0
13
179.583715342
23
126.5
33
0
0
MTEXT
5
B9
100
AcDbEntity
8
Dims
6
CONTINUOUS
62
7
370
0
100
AcDbMText
10
178.125
20
114.5
30
0
40
2.5
41
3.05555555556
71
5
72
1
1
29
7
standard
210
0
220
0
230
1
50
90
73
2
44
1
0
LINE
5
BA
100
AcDbEntity
8
Dims
6
CONTINUOUS
62
7
370
0
100
AcDbLine
10
189.375
20
100
11
178.75
21
100
0
LINE
5
BB
100
AcDbEntity
8
Dims
6
CONTINUOUS
62
7
370
0
100
AcDbLine
10
189.375
20
129
11
178.75
21
129
0
ENDBLK
5
64
330
62
100
AcDbEntity
8
0
100
AcDbBlockEnd
0
BLOCK
5
66
330
65
100
AcDbEntity
8
0
100
AcDbBlockBegin
2
*D6
70
1
10
0
20
0
3
*D6
1

0
LINE
5
BC
100
AcDbEntity
8
Dims
6
CONTINUOUS
62
7
370
0
100
AcDbLine
10
280
20
95
11
280
21
111
0
SOLID
5
BD
100
AcDbEntity
8
Dims
6
CONTINUOUS
62
7
370
0
100
AcDbTrace
10
280
20
100
30
0
11
280.416284658
21
97.5
31
0
12
279.583715342
22
97.5
32
0
13
279.583715342
23
97.5
33
0
0
SOLID
5
BE
100
AcDbEntity
8
Dims
6
CONTINUOUS
62
7
370
0
100
AcDbTrace
10
280
20
106
30
0
11
279.583715342
21
108.5
31
0
12
280.416284658
22
108.5
32
0
13
280.416284658
23
108.5
33
0
0
MTEXT
5
BF
100
AcDbEntity
8
Dims
6
CONTINUOUS
62
7
370
0
100
AcDbMText
10
278.125
20
103
30
0
40
2.5
41
1.11111111111
71
5
72
1
1
6
7
standard
210
0
220
0
230
1
50
90
73
2
44
1
0
LINE
5
C0
100
AcDbEntity
8
Dims
6
CONTINUOUS
62
7
370
0
100
AcDbLine
10
289.375
20
100
11
278.75
21
100
0
LINE
5
C1
100
AcDbEntity
8
Dims
6
CONTINUOUS
62
7
370
0
100
AcDbLine
10
289.375
20
106
11
278.75
21
106
0
ENDBLK
5
67
330
65
100
AcDbEntity
8
0
100
AcDbBlockEnd
0
BLOCK
5
69
330
68
100
AcDbEntity
8
0
100
AcDbBlockBegin
2
*D15
70
1
10
0
20
0
3
*D15
1

0
LINE
5
C2
100
AcDbEntity
8
Dims
6
CONTINUOUS
62
7
370
0
100
AcDbLine
10
115
20
150
11
131
21
150
0
SOLID
5
C3
100
AcDbEntity
8
Dims
6
CONTINUOUS
62
7
370
0
100
AcDbTrace
10
120
20
150
30
0
11
117.5
21
149.583715342
31
0
12
117.5
22
150.416284658
32
0
13
117.5
23
150.416284658
33
0
0
SOLID
5
C4
100
AcDbEntity
8
Dims
6
CONTINUOUS
62
7
370
0
100
AcDbTrace
10
126
20
150
30
0
11
128.5
21
150.416284658
31
0
12
128.5
22
149.583715342
32
0
13
128.5
23
149.583715342
33
0
0
MTEXT
5
C5
100
AcDbEntity
8
Dims
6
CONTINUOUS
62
7
370
0
100
AcDbMText
10
123
20
151.875
30
0
40
2.5
41
1.11111111111
71
5
72
1
1
6
7
standard
210
0
220
0
230
1
50
0
73
2
44
1
0
LINE
5
C6
100
AcDbEntity
8
Dims
6
CONTINUOUS
62
7
370
0
100
AcDbLine
10
120
20
140.625
11
120
21
151.25
0
LINE
5
C7
100
AcDbEntity
8
Dims
6
CONTINUOUS
62
7
370
0
100
AcDbLine
10
126
20
140.625
11
126
21
151.25
0
ENDBLK
5
6A
330
68
100
AcDbEntity
8
0
100
AcDbBlockEnd
0
BLOCK
5
6C
330
6B
100
AcDbEntity
8
0
100
AcDbBlockBegin
2
*D7
70
1
10
0
20
0
3
*D7
1

0
LINE
5
C8
100
AcDbEntity
8
Dims
6
CONTINUOUS
62
7
370
0
100
AcDbLine
10
280
20
106
11
280
21
150
0
SOLID
5
C9
100
AcDbEntity
8
Dims
6
CONTINUOUS
62
7
370
0
100
AcDbTrace
10
280
20
106
30
0
11
279.583715342
21
108.5
31
0
12
280.416284658
22
108.5
32
0
13
280.416284658
23
108.5
33
0
0
SOLID
5
CA
100
AcDbEntity
8
Dims
6
CONTINUOUS
62
7
370
0
100
AcDbTrace
10
280
20
150
30
0
11
280.416284658
21
147.5
31
0
12
279.583715342
22
147.5
32
0
13
279.583715342
23
147.5
33
0
0
MTEXT
5
CB
100
AcDbEntity
8
Dims
6
CONTINUOUS
62
7
370
0
100
AcDbMText
10
278.125
20
128
30
0
40
2.5
41
3.61111111111
71
5
72
1
1
44
7
standard
210
0
220
0
230
1
50
90
73
2
44
1
0
LINE
5
CC
100
AcDbEntity
8
Dims
6
CONTINUOUS
62
7
370
0
100
AcDbLine
10
289.375
20
106
11
278.75
21
106
0
LINE
5
CD
100
AcDbEntity
8
Dims
6
CONTINUOUS
62
7
370
0
100
AcDbLine
10
289.375
20
150
11
278.75
21
150
0
ENDBLK
5
6D
330
6B
100
AcDbEntity
8
0
100
AcDbBlockEnd
0
BLOCK
5
6F
330
6E
100
AcDbEntity
8
0
100
AcDbBlockBegin
2
*D9
70
1
10
0
20
0
3
*D9
1

0
LINE
5
CE
100
AcDbEntity
8
Dims
6
CONTINUOUS
62
7
370
0
100
AcDbLine
10
97
20
80
11
109
21
80
0
SOLID
5
CF
100
AcDbEntity
8
Dims
6
CONTINUOUS
62
7
370
0
100
AcDbTrace
10
102
20
80
30
0
11
99.5
21
79.5837153422
31
0
12
99.5
22
80.4162846578
32
0
13
99.5
23
80.4162846578
33
0
0
SOLID
5
D0
100
AcDbEntity
8
Dims
6
CONTINUOUS
62
7
370
0
100
AcDbTrace
10
104
20
80
30
0
11
106.5
21
80.4162846578
31
0
12
106.5
22
79.5837153422
32
0
13
106.5
23
79.5837153422
33
0
0
MTEXT
5
D1
100
AcDbEntity
8
Dims
6
CONTINUOUS
62
7
370
0
100
AcDbMText
10
103
20
81.875
30
0
40
2.5
41
1.11111111111
71
5
72
1
1
2
7
standard
210
0
220
0
230
1
50
0
73
2
44
1
0
LINE
5
D2
100
AcDbEntity
8
Dims
6
CONTINUOUS
62
7
370
0
100
AcDbLine
10
102
20
89.375
11
102
21
78.75
0
LINE
5
D3
100
AcDbEntity
8
Dims
6
CONTINUOUS
62
7
370
0
100
AcDbLine
10
104
20
89.375
11
104
21
78.75
0
ENDBLK
5
70
330
6E
100
AcDbEntity
8
0
100
AcDbBlockEnd
0
BLOCK
5
72
330
71
100
AcDbEntity
8
0
100
AcDbBlockBegin
2
*D20
70
1
10
0
20
0
3
*D20
1

0
LINE
5
D4
100
AcDbEntity
8
Dims
6
CONTINUOUS
62
7
370
0
100
AcDbLine
10
304
20
170
11
316
21
170
0
SOLID
5
D5
100
AcDbEntity
8
Dims
6
CONTINUOUS
62
7
370
0
100
AcDbTrace
10
304
20
170
30
0
11
306.5
21
170.416284658
31
0
12
306.5
22
169.583715342
32
0
13
306.5
23
169.583715342
33
0
0
SOLID
5
D6
100
AcDbEntity
8
Dims
6
CONTINUOUS
62
7
370
0
100
AcDbTrace
10
316
20
170
30
0
11
313.5
21
169.583715342
31
0
12
313.5
22
170.416284658
32
0
13
313.5
23
170.416284658
33
0
0
MTEXT
5
D7
100
AcDbEntity
8
Dims
6
CONTINUOUS
62
7
370
0
100
AcDbMText
10
310
20
171.875
30
0
40
2.5
41
2.5
71
5
72
1
1
12
7
standard
210
0
220
0
230
1
50
0
73
2
44
1
0
LINE
5
D8
100
AcDbEntity
8
Dims
6
CONTINUOUS
62
7
370
0
100
AcDbLine
10
304
20
160.625
11
304
21
171.25
0
LINE
5
D9
100
AcDbEntity
8
Dims
6
CONTINUOUS
62
7
370
0
100
AcDbLine
10
316
20
160.625
11
316
21
171.25
0
ENDBLK
5
73
330
71
100
AcDbEntity
8
0
100
AcDbBlockEnd
0
BLOCK
5
75
330
74
100
AcDbEntity
8
0
100
AcDbBlockBegin
2
*D2
70
1
10
0
20
0
3
*D2
1

0
LINE
5
DA
100
AcDbEntity
8
Dims
6
CONTINUOUS
62
7
370
0
100
AcDbLine
10
80
20
105
11
80
21
125
0
SOLID
5
DB
100
AcDbEntity
8
Dims
6
CONTINUOUS
62
7
370
0
100
AcDbTrace
10
80
20
105
30
0
11
79.5837153422
21
107.5
31
0
12
80.4162846578
22
107.5
32
0
13
80.4162846578
23
107.5
33
0
0
SOLID
5
DC
100
AcDbEntity
8
Dims
6
CONTINUOUS
62
7
370
0
100
AcDbTrace
10
80
20
125
30
0
11
80.4162846578
21
122.5
31
0
12
79.5837153422
22
122.5
32
0
13
79.5837153422
23
122.5
33
0
0
MTEXT
5
DD
100
AcDbEntity
8
Dims
6
CONTINUOUS
62
7
370
0
100
AcDbMText
10
78.125
20
115
30
0
40
2.5
41
3.05555555556
71
5
72
1
1
20
7
standard
210
0
220
0
230
1
50
90
73
2
44
1
0
LINE
5
DE
100
AcDbEntity
8
Dims
6
CONTINUOUS
62
7
370
0
100
AcDbLine
10
89.375
20
105
11
78.75
21
105
0
LINE
5
DF
100
AcDbEntity
8
Dims
6
CONTINUOUS
62
7
370
0
100
AcDbLine
10
89.375
20
125
11
78.75
21
125
0
ENDBLK
5
76
330
74
100
AcDbEntity
8
0
100
AcDbBlockEnd
0
BLOCK
5
78
330
77
100
AcDbEntity
8
0
100
AcDbBlockBegin
2
*D5
70
1
10
0
20
0
3
*D5
1

0
LINE
5
E0
100
AcDbEntity
8
Dims
6
CONTINUOUS
62
7
370
0
100
AcDbLine
10
180
20
129
11
180
21
141
0
SOLID
5
E1
100
AcDbEntity
8
Dims
6
CONTINUOUS
62
7
370
0
100
AcDbTrace
10
180
20
129
30
0
11
179.583715342
21
131.5
31
0
12
180.416284658
22
131.5
32
0
13
180.416284658
23
131.5
33
0
0
SOLID
5
E2
100
AcDbEntity
8
Dims
6
CONTINUOUS
62
7
370
0
100
AcDbTrace
10
180
20
141
30
0
11
180.416284658
21
138.5
31
0
12
179.583715342
22
138.5
32
0
13
179.583715342
23
138.5
33
0
0
MTEXT
5
E3
100
AcDbEntity
8
Dims
6
CONTINUOUS
62
7
370
0
100
AcDbMText
10
178.125
20
135
30
0
40
2.5
41
2.5
71
5
72
1
1
12
7
standard
210
0
220
0
230
1
50
90
73
2
44
1
0
LINE
5
E4
100
AcDbEntity
8
Dims
6
CONTINUOUS
62
7
370
0
100
AcDbLine
10
189.375
20
129
11
178.75
21
129
0
LINE
5
E5
100
AcDbEntity
8
Dims
6
CONTINUOUS
62
7
370
0
100
AcDbLine
10
189.375
20
141
11
178.75
21
141
0
ENDBLK
5
79
330
77
100
AcDbEntity
8
0
100
AcDbBlockEnd
0
BLOCK
5
7B
330
7A
100
AcDbEntity
8
0
100
AcDbBlockBegin
2
*D1
70
1
10
0
20
0
3
*D1
1

0
LINE
5
E6
100
AcDbEntity
8
Dims
6
CONTINUOUS
62
7
370
0
100
AcDbLine
10
80
20
95
11
80
21
110
0
SOLID
5
E7
100
AcDbEntity
8
Dims
6
CONTINUOUS
62
7
370
0
100
AcDbTrace
10
80
20
100
30
0
11
80.4162846578
21
97.5
31
0
12
79.5837153422
22
97.5
32
0
13
79.5837153422
23
97.5
33
0
0
SOLID
5
E8
100
AcDbEntity
8
Dims
6
CONTINUOUS
62
7
370
0
100
AcDbTrace
10
80
20
105
30
0
11
79.5837153422
21
107.5
31
0
12
80.4162846578
22
107.5
32
0
13
80.4162846578
23
107.5
33
0
0
MTEXT
5
E9
100
AcDbEntity
8
Dims
6
CONTINUOUS
62
7
370
0
100
AcDbMText
10
78.125
20
102.5
30
0
40
2.5
41
1.11111111111
71
5
72
1
1
5
7
standard
210
0
220
0
230
1
50
90
73
2
44
1
0
LINE
5
EA
100
AcDbEntity
8
Dims
6
CONTINUOUS
62
7
370
0
100
AcDbLine
10
89.375
20
100
11
78.75
21
100
0
LINE
5
EB
100
AcDbEntity
8
Dims
6
CONTINUOUS
62
7
370
0
100
AcDbLine
10
89.375
20
105
11
78.75
21
105
0
ENDBLK
5
7C
330
7A
100
AcDbEntity
8
0
100
AcDbBlockEnd
0
BLOCK
5
7E
330
7D
100
AcDbEntity
8
0
100
AcDbBlockBegin
2
*D16
70
1
10
0
20
0
3
*D16
1

0
LINE
5
EC
100
AcDbEntity
8
Dims
6
CONTINUOUS
62
7
370
0
100
AcDbLine
10
198
20
160
11
214
21
160
0
SOLID
5
ED
100
AcDbEntity
8
Dims
6
CONTINUOUS
62
7
370
0
100
AcDbTrace
10
198
20
160
30
0
11
200.5
21
160.416284658
31
0
12
200.5
22
159.583715342
32
0
13
200.5
23
159.583715342
33
0
0
SOLID
5
EE
100
AcDbEntity
8
Dims
6
CONTINUOUS
62
7
370
0
100
AcDbTrace
10
214
20
160
30
0
11
211.5
21
159.583715342
31
0
12
211.5
22
160.416284658
32
0
13
211.5
23
160.416284658
33
0
0
MTEXT
5
EF
100
AcDbEntity
8
Dims
6
CONTINUOUS
62
7
370
0
100
AcDbMText
10
206
20
161.875
30
0
40
2.5
41
2.5
71
5
72
1
1
16
7
standard
210
0
220
0
230
1
50
0
73
2
44
1
0
LINE
5
F0
100
AcDbEntity
8
Dims
6
CONTINUOUS
62
7
370
0
100
AcDbLine
10
198
20
150.625
11
198
21
161.25
0
LINE
5
F1
100
AcDbEntity
8
Dims
6
CONTINUOUS
62
7
370
0
100
AcDbLine
10
214
20
150.625
11
214
21
161.25
0
ENDBLK
5
7F
330
7D
100
AcDbEntity
8
0
100
AcDbBlockEnd
0
BLOCK
5
81
330
80
100
AcDbEntity
8
0
100
AcDbBlockBegin
2
*D3
70
1
10
0
20
0
3
*D3
1

0
LINE
5
F2
100
AcDbEntity
8
Dims
6
CONTINUOUS
62
7
370
0
100
AcDbLine
10
80
20
120
11
80
21
135
0
SOLID
5
F3
100
AcDbEntity
8
Dims
6
CONTINUOUS
62
7
370
0
100
AcDbTrace
10
80
20
125
30
0
11
80.4162846578
21
122.5
31
0
12
79.5837153422
22
122.5
32
0
13
79.5837153422
23
122.5
33
0
0
SOLID
5
F4
100
AcDbEntity
8
Dims
6
CONTINUOUS
62
7
370
0
100
AcDbTrace
10
80
20
130
30
0
11
79.5837153422
21
132.5
31
0
12
80.4162846578
22
132.5
32
0
13
80.4162846578
23
132.5
33
0
0
MTEXT
5
F5
100
AcDbEntity
8
Dims
6
CONTINUOUS
62
7
370
0
100
AcDbMText
10
78.125
20
127.5
30
0
40
2.5
41
1.11111111111
71
5
72
1
1
5
7
standard
210
0
220
0
230
1
50
90
73
2
44
1
0
LINE
5
F6
100
AcDbEntity
8
Dims
6
CONTINUOUS
62
7
370
0
100
AcDbLine
10
89.375
20
125
11
78.75
21
125
0
LINE
5
F7
100
AcDbEntity
8
Dims
6
CONTINUOUS
62
7
370
0
100
AcDbLine
10
89.375
20
130
11
78.75
21
130
0
ENDBLK
5
82
330
80
100
AcDbEntity
8
0
100
AcDbBlockEnd
0
BLOCK
5
84
330
83
100
AcDbEntity
8
0
100
AcDbBlockBegin
2
*D11
70
1
10
0
20
0
3
*D11
1

0
LINE
5
F8
100
AcDbEntity
8
Dims
6
CONTINUOUS
62
7
370
0
100
AcDbLine
10
108
20
80
11
120
21
80
0
SOLID
5
F9
100
AcDbEntity
8
Dims
6
CONTINUOUS
62
7
370
0
100
AcDbTrace
10
108
20
80
30
0
11
110.5
21
80.4162846578
31
0
12
110.5
22
79.5837153422
32
0
13
110.5
23
79.5837153422
33
0
0
SOLID
5
FA
100
AcDbEntity
8
Dims
6
CONTINUOUS
62
7
370
0
100
AcDbTrace
10
120
20
80
30
0
11
117.5
21
79.5837153422
31
0
12
117.5
22
80.4162846578
32
0
13
117.5
23
80.4162846578
33
0
0
MTEXT
5
FB
100
AcDbEntity
8
Dims
6
CONTINUOUS
62
7
370
0
100
AcDbMText
10
114
20
81.875
30
0
40
2.5
41
2.5
71
5
72
1
1
12
7
standard
210
0
220
0
230
1
50
0
73
2
44
1
0
LINE
5
FC
100
AcDbEntity
8
Dims
6
CONTINUOUS
62
7
370
0
100
AcDbLine
10
108
20
89.375
11
108
21
78.75
0
LINE
5
FD
100
AcDbEntity
8
Dims
6
CONTINUOUS
62
7
370
0
100
AcDbLine
10
120
20
89.375
11
120
21
78.75
0
ENDBLK
5
85
330
83
100
AcDbEntity
8
0
100
AcDbBlockEnd
0
BLOCK
5
87
330
86
100
AcDbEntity
8
0
100
AcDbBlockBegin
2
*D8
70
1
10
0
20
0
3
*D8
1

0
LINE
5
FE
100
AcDbEntity
8
Dims
6
CONTINUOUS
62
7
370
0
100
AcDbLine
10
95
20
80
11
107
21
80
0
SOLID
5
FF
100
AcDbEntity
8
Dims
6
CONTINUOUS
62
7
370
0
100
AcDbTrace
10
100
20
80
30
0
11
97.5
21
79.5837153422
31
0
12
97.5
22
80.4162846578
32
0
13
97.5
23
80.4162846578
33
0
0
SOLID
5
100
100
AcDbEntity
8
Dims
6
CONTINUOUS
62
7
370
0
100
AcDbTrace
10
102
20
80
30
0
11
104.5
21
80.4162846578
31
0
12
104.5
22
79.5837153422
32
0
13
104.5
23
79.5837153422
33
0
0
MTEXT
5
101
100
AcDbEntity
8
Dims
6
CONTINUOUS
62
7
370
0
100
AcDbMText
10
101
20
81.875
30
0
40
2.5
41
1.11111111111
71
5
72
1
1
2
7
standard
210
0
220
0
230
1
50
0
73
2
44
1
0
LINE
5
102
100
AcDbEntity
8
Dims
6
CONTINUOUS
62
7
370
0
100
AcDbLine
10
100
20
89.375
11
100
21
78.75
0
LINE
5
103
100
AcDbEntity
8
Dims
6
CONTINUOUS
62
7
370
0
100
AcDbLine
10
102
20
89.375
11
102
21
78.75
0
ENDBLK
5
88
330
86
100
AcDbEntity
8
0
100
AcDbBlockEnd
0
ENDSEC
0
SECTION
2
ENTITIES
0
LINE
5
104
100
AcDbEntity
8
base
6
ByLayer
62
256
370
-1
100
AcDbLine
10
108
20
130
11
108
21
100
0
LINE
5
105
100
AcDbEntity
8
base
6
ByLayer
62
256
370
-1
100
AcDbLine
10
120
20
100
11
120
21
130
0
ARC
5
106
100
AcDbEntity
8
base
6
ByLayer
62
256
370
-1
100
AcDbCircle
10
103
20
100
40
1
100
AcDbArc
50
0
51
180
0
LINE
5
107
100
AcDbEntity
8
base
6
ByLayer
62
256
370
-1
100
AcDbLine
10
100
20
105
11
100
21
100
0
ARC
5
108
100
AcDbEntity
8
base
6
ByLayer
62
256
370
-1
100
AcDbCircle
10
125
20
100
40
1
100
AcDbArc
50
0
51
180
0
LINE
5
109
100
AcDbEntity
8
base
6
ByLayer
62
256
370
-1
100
AcDbLine
10
128
20
100
11
128
21
105
0
LINE
5
10A
100
AcDbEntity
8
base
6
ByLayer
62
256
370
-1
100
AcDbLine
10
104
20
100
11
124
21
100
0
LINE
5
10B
100
AcDbEntity
8
base
6
ByLayer
62
256
370
-1
100
AcDbLine
10
102
20
100
11
100
21
100
0
LINE
5
10C
100
AcDbEntity
8
base
6
ByLayer
62
256
370
-1
100
AcDbLine
10
126
20
100
11
128
21
100
0
LINE
5
10D
100
AcDbEntity
8
base
6
ByLayer
62
256
370
-1
100
AcDbLine
10
102
20
125
11
102
21
130
0
ARC
5
10E
100
AcDbEntity
8
base
6
ByLayer
62
256
370
-1
100
AcDbCircle
10
87.7199231142
20
116.328007689
40
16.7070059111
100
AcDbArc
50
317.309378516
51
31.2694352095
0
LINE
5
10F
100
AcDbEntity
8
base
6
ByLayer
62
256
370
-1
100
AcDbLine
10
126
20
130
11
126
21
125
0
ARC
5
110
100
AcDbEntity
8
base
6
ByLayer
62
256
370
-1
100
AcDbCircle
10
140.280076886
20
116.328007689
40
16.7070059111
100
AcDbArc
50
148.730564791
51
222.690621484
0
LINE
5
111
100
AcDbEntity
8
base
6
ByLayer
62
256
370
-1
100
AcDbLine
10
102
20
130
11
126
21
130
0
LINE
5
112
100
AcDbEntity
8
punch
6
ByLayer
62
256
370
-1
100
AcDbLine
10
310
20
100
11
316
21
106
0
LINE
5
113
100
AcDbEntity
8
punch
6
ByLayer
62
256
370
-1
100
AcDbLine
10
310
20
100
11
304
21
106
0
LINE
5
114
100
AcDbEntity
8
punch
6
ByLayer
62
256
370
-1
100
AcDbLine
10
304
20
106
11
304
21
150
0
LINE
5
115
100
AcDbEntity
8
punch
6
ByLayer
62
256
370
-1
100
AcDbLine
10
304
20
150
11
316
21
150
0
LINE
5
116
100
AcDbEntity
8
punch
6
ByLayer
62
256
370
-1
100
AcDbLine
10
316
20
150
11
316
21
106
0
LINE
5
117
100
AcDbEntity
8
optic
6
ByLayer
62
256
370
-1
100
AcDbLine
10
200
20
100
11
212
21
100
0
LINE
5
118
100
AcDbEntity
8
optic
6
ByLayer
62
256
370
-1
100
AcDbLine
10
212
20
100
11
212
21
129
0
LINE
5
119
100
AcDbEntity
8
optic
6
ByLayer
62
256
370
-1
100
AcDbLine
10
212
20
129
11
214
21
129
0
LINE
5
11A
100
AcDbEntity
8
optic
6
ByLayer
62
256
370
-1
100
AcDbLine
10
214
20
129
11
214
21
141
0
LINE
5
11B
100
AcDbEntity
8
optic
6
ByLayer
62
256
370
-1
100
AcDbLine
10
214
20
141
11
198
21
141
0
LINE
5
11C
100
AcDbEntity
8
optic
6
ByLayer
62
256
370
-1
100
AcDbLine
10
198
20
141
11
198
21
129
0
LINE
5
11D
100
AcDbEntity
8
optic
6
ByLayer
62
256
370
-1
100
AcDbLine
10
198
20
129
11
200
21
129
0
LINE
5
11E
100
AcDbEntity
8
optic
6
ByLayer
62
256
370
-1
100
AcDbLine
10
200
20
129
11
200
21
100
0
DIMENSION
5
11F
100
AcDbEntity
8
Dims
6
ByLayer
62
256
370
-1
100
AcDbDimension
2
*D1
10
80
20
105
30
0
11
78.125
21
102.5
31
0
70
32
71
5
72
0
3
Standard
53
0
210
0
220
0
230
1
100
AcDbAlignedDimension
13
90
23
100
33
0
14
90
24
105
34
0
50
90
100
AcDbRotatedDimension
0
DIMENSION
5
120
100
AcDbEntity
8
Dims
6
ByLayer
62
256
370
-1
100
AcDbDimension
2
*D2
10
80
20
125
30
0
11
78.125
21
115
31
0
70
32
71
5
72
0
3
Standard
53
0
210
0
220
0
230
1
100
AcDbAlignedDimension
13
90
23
105
33
0
14
90
24
125
34
0
50
90
100
AcDbRotatedDimension
0
DIMENSION
5
121
100
AcDbEntity
8
Dims
6
ByLayer
62
256
370
-1
100
AcDbDimension
2
*D3
10
80
20
130
30
0
11
78.125
21
127.5
31
0
70
32
71
5
72
0
3
Standard
53
0
210
0
220
0
230
1
100
AcDbAlignedDimension
13
90
23
125
33
0
14
90
24
130
34
0
50
90
100
AcDbRotatedDimension
0
DIMENSION
5
122
100
AcDbEntity
8
Dims
6
ByLayer
62
256
370
-1
100
AcDbDimension
2
*D4
10
180
20
129
30
0
11
178.125
21
114.5
31
0
70
32
71
5
72
0
3
Standard
53
0
210
0
220
0
230
1
100
AcDbAlignedDimension
13
190
23
100
33
0
14
190
24
129
34
0
50
90
100
AcDbRotatedDimension
0
DIMENSION
5
123
100
AcDbEntity
8
Dims
6
ByLayer
62
256
370
-1
100
AcDbDimension
2
*D5
10
180
20
141
30
0
11
178.125
21
135
31
0
70
32
71
5
72
0
3
Standard
53
0
210
0
220
0
230
1
100
AcDbAlignedDimension
13
190
23
129
33
0
14
190
24
141
34
0
50
90
100
AcDbRotatedDimension
0
DIMENSION
5
124
100
AcDbEntity
8
Dims
6
ByLayer
62
256
370
-1
100
AcDbDimension
2
*D6
10
280
20
106
30
0
11
278.125
21
103
31
0
70
32
71
5
72
0
3
Standard
53
0
210
0
220
0
230
1
100
AcDbAlignedDimension
13
290
23
100
33
0
14
290
24
106
34
0
50
90
100
AcDbRotatedDimension
0
DIMENSION
5
125
100
AcDbEntity
8
Dims
6
ByLayer
62
256
370
-1
100
AcDbDimension
2
*D7
10
280
20
150
30
0
11
278.125
21
128
31
0
70
32
71
5
72
0
3
Standard
53
0
210
0
220
0
230
1
100
AcDbAlignedDimension
13
290
23
106
33
0
14
290
24
150
34
0
50
90
100
AcDbRotatedDimension
0
DIMENSION
5
126
100
AcDbEntity
8
Dims
6
ByLayer
62
256
370
-1
100
AcDbDimension
2
*D8
10
102
20
80
30
0
11
101
21
81.875
31
0
70
32
71
5
72
0
3
Standard
53
0
210
0
220
0
230
1
100
AcDbAlignedDimension
13
100
23
90
33
0
14
102
24
90
34
0
100
AcDbRotatedDimension
0
DIMENSION
5
127
100
AcDbEntity
8
Dims
6
ByLayer
62
256
370
-1
100
AcDbDimension
2
*D9
10
104
20
80
30
0
11
103
21
81.875
31
0
70
32
71
5
72
0
3
Standard
53
0
210
0
220
0
230
1
100
AcDbAlignedDimension
13
102
23
90
33
0
14
104
24
90
34
0
100
AcDbRotatedDimension
0
DIMENSION
5
128
100
AcDbEntity
8
Dims
6
ByLayer
62
256
370
-1
100
AcDbDimension
2
*D10
10
108
20
80
30
0
11
106
21
81.875
31
0
70
32
71
5
72
0
3
Standard
53
0
210
0
220
0
230
1
100
AcDbAlignedDimension
13
104
23
90
33
0
14
108
24
90
34
0
100
AcDbRotatedDimension
0
DIMENSION
5
129
100
AcDbEntity
8
Dims
6
ByLayer
62
256
370
-1
100
AcDbDimension
2
*D11
10
120
20
80
30
0
11
114
21
81.875
31
0
70
32
71
5
72
0
3
Standard
53
0
210
0
220
0
230
1
100
AcDbAlignedDimension
13
108
23
90
33
0
14
120
24
90
34
0
100
AcDbRotatedDimension
0
DIMENSION
5
12A
100
AcDbEntity
8
Dims
6
ByLayer
62
256
370
-1
100
AcDbDimension
2
*D12
10
128
20
80
30
0
11
124
21
81.875
31
0
70
32
71
5
72
0
3
Standard
53
0
210
0
220
0
230
1
100
AcDbAlignedDimension
13
120
23
90
33
0
14
128
24
90
34
0
100
AcDbRotatedDimension
0
DIMENSION
5
12B
100
AcDbEntity
8
Dims
6
ByLayer
62
256
370
-1
100
AcDbDimension
2
*D13
10
108
20
150
30
0
11
105
21
151.875
31
0
70
32
71
5
72
0
3
Standard
53
0
210
0
220
0
230
1
100
AcDbAlignedDimension
13
102
23
140
33
0
14
108
24
140
34
0
100
AcDbRotatedDimension
0
DIMENSION
5
12C
100
AcDbEntity
8
Dims
6
ByLayer
62
256
370
-1
100
AcDbDimension
2
*D14
10
120
20
150
30
0
11
114
21
151.875
31
0
70
32
71
5
72
0
3
Standard
53
0
210
0
220
0
230
1
100
AcDbAlignedDimension
13
108
23
140
33
0
14
120
24
140
34
0
100
AcDbRotatedDimension
0
DIMENSION
5
12D
100
AcDbEntity
8
Dims
6
ByLayer
62
256
370
-1
100
AcDbDimension
2
*D15
10
126
20
150
30
0
11
123
21
151.875
31
0
70
32
71
5
72
0
3
Standard
53
0
210
0
220
0
230
1
100
AcDbAlignedDimension
13
120
23
140
33
0
14
126
24
140
34
0
100
AcDbRotatedDimension
0
DIMENSION
5
12E
100
AcDbEntity
8
Dims
6
ByLayer
62
256
370
-1
100
AcDbDimension
2
*D16
10
214
20
160
30
0
11
206
21
161.875
31
0
70
32
71
5
72
0
3
Standard
53
0
210
0
220
0
230
1
100
AcDbAlignedDimension
13
198
23
150
33
0
14
214
24
150
34
0
100
AcDbRotatedDimension
0
DIMENSION
5
12F
100
AcDbEntity
8
Dims
6
ByLayer
62
256
370
-1
100
AcDbDimension
2
*D17
10
212
20
80
30
0
11
206
21
81.875
31
0
70
32
71
5
72
0
3
Standard
53
0
210
0
220
0
230
1
100
AcDbAlignedDimension
13
200
23
90
33
0
14
212
24
90
34
0
100
AcDbRotatedDimension
0
DIMENSION
5
130
100
AcDbEntity
8
Dims
6
ByLayer
62
256
370
-1
100
AcDbDimension
2
*D18
10
310
20
81
30
0
11
307
21
82.875
31
0
70
32
71
5
72
0
3
Standard
53
0
210
0
220
0
230
1
100
AcDbAlignedDimension
13
304
23
90
33
0
14
310
24
90
34
0
100
AcDbRotatedDimension
0
DIMENSION
5
131
100
AcDbEntity
8
Dims
6
ByLayer
62
256
370
-1
100
AcDbDimension
2
*D19
10
316
20
81
30
0
11
313
21
82.875
31
0
70
32
71
5
72
0
3
Standard
53
0
210
0
220
0
230
1
100
AcDbAlignedDimension
13
310
23
90
33
0
14
316
24
90
34
0
100
AcDbRotatedDimension
0
DIMENSION
5
132
100
AcDbEntity
8
Dims
6
ByLayer
62
256
370
-1
100
AcDbDimension
2
*D20
10
316
20
170
30
0
11
310
21
171.875
31
0
70
32
71
5
72
0
3
Standard
53
0
210
0
220
0
230
1
100
AcDbAlignedDimension
13
304
23
160
33
0
14
316
24
160
34
0
100
AcDbRotatedDimension
0
ARC
5
133
100
AcDbEntity
8
optic
6
ByLayer
62
256
370
-1
100
AcDbCircle
10
206
20
129
40
14
100
AcDbArc
50
59.7435628365
51
120.256437164
0
DIMENSION
5
134
100
AcDbEntity
8
Dims
6
ByLayer
62
256
370
-1
100
AcDbDimension
2
*D21
10
206
20
129
30
0
11
207.907511739
21
135.991210479
31
0
70
36
71
5
3
Standard
53
0
210
0
220
0
230
1
100
AcDbRadialDimension
15
213.054194357
25
141.092904613
35
0
40
0
0
ENDSEC
0
SECTION
2
OBJECTS
0
DICTIONARY
5
C
330
0
100
AcDbDictionary
281
1
3
ACAD_GROUP
350
D
0
DICTIONARY
5
D
330
C
100
AcDbDictionary
281
1
0
ENDSEC
0
EOF
