999
dxfrw 0.6.3
  0
SECTION
  2
HEADER
  9
$ACADVER
  1
AC1021
  9
$DWGCODEPAGE
  3
ANSI_1252
  9
$INSBASE
 10
0
 20
0
 30
0
  9
$EXTMIN
 10
-8.5
 20
-17.25
 30
0
  9
$EXTMAX
 10
107
 20
65.125
 30
0
  9
$LIMMIN
 10
0
 20
0
  9
$LIMMAX
 10
420
 20
297
  9
$ORTHOMODE
 70
    0
  9
$REGENMODE
 70
    1
  9
$FILLMODE
 70
    1
  9
$QTEXTMODE
 70
    0
  9
$MIRRTEXT
 70
    0
  9
$LTSCALE
 40
1
  9
$ATTMODE
 70
    0
  9
$TEXTSIZE
 40
2.5
  9
$TRACEWID
 40
15.68
  9
$TEXTSTYLE
  7
STANDARD
  9
$CLAYER
  8
Dimms
  9
$CELTYPE
  6
BYLAYER
  9
$CECOLOR
 62
  256
  9
$CELTSCALE
 40
1
  9
$DISPSILH
 70
    0
  9
$DIMSCALE
 40
1
  9
$DIMASZ
 40
2.5
  9
$DIMEXO
 40
0.625
  9
$DIMDLI
 40
3.75
  9
$DIMRND
 40
0
  9
$DIMDLE
 40
0
  9
$DIMEXE
 40
1.25
  9
$DIMTP
 40
0
  9
$DIMTM
 40
0
  9
$DIMTXT
 40
2.5
  9
$DIMCEN
 40
2.5
  9
$DIMTSZ
 40
0
  9
$DIMTOL
 70
    0
  9
$DIMLIM
 70
    0
  9
$DIMTIH
 70
    0
  9
$DIMTOH
 70
    0
  9
$DIMSE1
 70
    0
  9
$DIMSE2
 70
    0
  9
$DIMTAD
 70
    1
  9
$DIMZIN
 70
    1
  9
$DIMBLK
  1

  9
$DIMASO
 70
    1
  9
$DIMSHO
 70
    1
  9
$DIMPOST
  1

  9
$DIMAPOST
  1

  9
$DIMALT
 70
    0
  9
$DIMALTD
 70
    3
  9
$DIMALTF
 40
0.03937
  9
$DIMLFAC
 40
1
  9
$DIMTOFL
 70
    1
  9
$DIMTVP
 40
0
  9
$DIMTIX
 70
    0
  9
$DIMSOXD
 70
    0
  9
$DIMSAH
 70
    0
  9
$DIMBLK1
  1

  9
$DIMBLK2
  1

  9
$DIMSTYLE
  2
Standard
  9
$DIMCLRD
 70
    0
  9
$DIMCLRE
 70
    0
  9
$DIMCLRT
 70
    0
  9
$DIMTFAC
 40
1
  9
$DIMGAP
 40
0.625
  9
$DIMJUST
 70
    0
  9
$DIMSD1
 70
    0
  9
$DIMSD2
 70
    0
  9
$DIMTOLJ
 70
    0
  9
$DIMTZIN
 70
    8
  9
$DIMALTZ
 70
    0
  9
$DIMALTTZ
 70
    0
  9
$DIMUPT
 70
    0
  9
$DIMDEC
 70
    1
  9
$DIMTDEC
 70
    2
  9
$DIMALTU
 70
    2
  9
$DIMALTTD
 70
    3
  9
$DIMTXSTY
  7
standard
  9
$DIMAUNIT
 70
    0
  9
$DIMADEC
 70
    1
  9
$DIMALTRND
 40
0
  9
$DIMAZIN
 70
    0
  9
$DIMDSEP
 70
    0
  9
$DIMATFIT
 70
    3
  9
$DIMFRAC
 70
    0
  9
$DIMLDRBLK
  1
STANDARD
  9
$DIMLUNIT
 70
    5
  9
$DIMLWD
 70
   -2
  9
$DIMLWE
 70
   -2
  9
$DIMTMOVE
 70
    0
  9
$DIMFXL
 40
1
  9
$DIMFXLON
 70
    0
  9
$DIMJOGANG
 40
0.7854
  9
$DIMTFILL
 70
    0
  9
$DIMTFILLCLR
 70
    0
  9
$DIMARCSYM
 70
    0
  9
$DIMLTYPE
  6

  9
$DIMLTEX1
  6

  9
$DIMLTEX2
  6

  9
$LUNITS
 70
    5
  9
$LUPREC
 70
    1
  9
$SKETCHINC
 40
1
  9
$FILLETRAD
 40
0
  9
$AUNITS
 70
    0
  9
$AUPREC
 70
    1
  9
$MENU
  1
.
  9
$ELEVATION
 40
0
  9
$PELEVATION
 40
0
  9
$THICKNESS
 40
0
  9
$LIMCHECK
 70
    0
  9
$CHAMFERA
 40
0
  9
$CHAMFERB
 40
0
  9
$CHAMFERC
 40
0
  9
$CHAMFERD
 40
0
  9
$SKPOLY
 70
    0
  9
$USRTIMER
 70
    1
  9
$ANGBASE
 50
0
  9
$ANGDIR
 70
    0
  9
$PDMODE
 70
   34
  9
$PDSIZE
 40
0
  9
$PLINEWID
 40
0
  9
$SPLFRAME
 70
    0
  9
$SPLINETYPE
 70
    2
  9
$SPLINESEGS
 70
    8
  9
$HANDSEED
  5
20000
  9
$SURFTAB1
 70
    6
  9
$SURFTAB2
 70
    6
  9
$SURFTYPE
 70
    6
  9
$SURFU
 70
    6
  9
$SURFV
 70
    6
  9
$UCSBASE
  2

  9
$UCSNAME
  2

  9
$UCSORG
 10
0
 20
0
 30
0
  9
$UCSXDIR
 10
1
 20
0
 30
0
  9
$UCSYDIR
 10
0
 20
1
 30
0
  9
$UCSORTHOREF
  2

  9
$UCSORTHOVIEW
 70
    0
  9
$UCSORGTOP
 10
0
 20
0
 30
0
  9
$UCSORGBOTTOM
 10
0
 20
0
 30
0
  9
$UCSORGLEFT
 10
0
 20
0
 30
0
  9
$UCSORGRIGHT
 10
0
 20
0
 30
0
  9
$UCSORGFRONT
 10
0
 20
0
 30
0
  9
$UCSORGBACK
 10
0
 20
0
 30
0
  9
$PUCSBASE
  2

  9
$PUCSNAME
  2

  9
$PUCSORG
 10
0
 20
0
 30
0
  9
$PUCSXDIR
 10
1
 20
0
 30
0
  9
$PUCSYDIR
 10
0
 20
1
 30
0
  9
$PUCSORTHOREF
  2

  9
$PUCSORTHOVIEW
 70
    0
  9
$PUCSORGTOP
 10
0
 20
0
 30
0
  9
$PUCSORGBOTTOM
 10
0
 20
0
 30
0
  9
$PUCSORGLEFT
 10
0
 20
0
 30
0
  9
$PUCSORGRIGHT
 10
0
 20
0
 30
0
  9
$PUCSORGFRONT
 10
0
 20
0
 30
0
  9
$PUCSORGBACK
 10
0
 20
0
 30
0
  9
$USERI1
 70
    0
  9
$USERI2
 70
    0
  9
$USERI3
 70
    0
  9
$USERI4
 70
    0
  9
$USERI5
 70
    0
  9
$USERR1
 40
0
  9
$USERR2
 40
0
  9
$USERR3
 40
0
  9
$USERR4
 40
0
  9
$USERR5
 40
0
  9
$WORLDVIEW
 70
    1
  9
$SHADEDGE
 70
    3
  9
$SHADEDIF
 70
   70
  9
$TILEMODE
 70
    1
  9
$MAXACTVP
 70
   64
  9
$PINSBASE
 10
0
 20
0
 30
0
  9
$PLIMCHECK
 70
    0
  9
$PEXTMIN
 10
0
 20
0
 30
0
  9
$PEXTMAX
 10
0
 20
0
 30
0
  9
$GRIDMODE
 70
    1
  9
$SNAPSTYLE
 70
    0
  9
$GRIDUNIT
 10
0
 20
0
  9
$PLIMMIN
 10
0
 20
0
  9
$PLIMMAX
 10
11.69291338582677
 20
8.267716535433072
  9
$UNITMODE
 70
    0
  9
$VISRETAIN
 70
    1
  9
$PLINEGEN
 70
    0
  9
$PSLTSCALE
 70
    1
  9
$TREEDEPTH
 70
 3020
  9
$CMLSTYLE
  2
Standard
  9
$CMLJUST
 70
    0
  9
$CMLSCALE
 40
20
  9
$PROXYGRAPHICS
 70
    1
  9
$MEASUREMENT
 70
    1
  9
$CELWEIGHT
370
   -1
  9
$ENDCAPS
280
    0
  9
$JOINSTYLE
280
    0
  9
$LWDISPLAY
290
    0
  9
$INSUNITS
 70
    1
  9
$HYPERLINKBASE
  1

  9
$STYLESHEET
  1

  9
$XEDIT
290
    1
  9
$CEPSNTYPE
380
    0
  9
$PSTYLEMODE
290
    1
  9
$EXTNAMES
290
    1
  9
$PSVPSCALE
 40
1
  9
$OLESTARTUP
290
    0
  9
$SORTENTS
280
  127
  9
$INDEXCTL
280
    0
  9
$HIDETEXT
280
    1
  9
$XCLIPFRAME
290
    0
  9
$HALOGAP
280
    0
  9
$OBSCOLOR
 70
  257
  9
$OBSLTYPE
280
    0
  9
$INTERSECTIONDISPLAY
280
    0
  9
$INTERSECTIONCOLOR
 70
  257
  9
$DIMASSOC
280
    1
  9
$PROJECTNAME
  1

  9
$CAMERADISPLAY
290
    0
  9
$LENSLENGTH
 40
50
  9
$CAMERAHEIGHT
 40
0
  9
$STEPSPERSEC
 40
2
  9
$STEPSIZE
 40
50
  9
$3DDWFPREC
 40
2
  9
$PSOLWIDTH
 40
5
  9
$PSOLHEIGHT
 40
80
  9
$LOFTANG1
 40
1.570796326794897
  9
$LOFTANG2
 40
1.570796326794897
  9
$LOFTMAG1
 40
0
  9
$LOFTMAG2
 40
0
  9
$LOFTPARAM
 70
    7
  9
$LOFTNORMALS
280
    1
  9
$LATITUDE
 40
1
  9
$LONGITUDE
 40
1
  9
$NORTHDIRECTION
 40
0
  9
$TIMEZONE
 70
-8000
  9
$LIGHTGLYPHDISPLAY
280
    1
  9
$TILEMODELIGHTSYNCH
280
    1
  9
$SOLIDHIST
280
    1
  9
$SHOWHIST
280
    1
  9
$DWFFRAME
280
    2
  9
$DGNFRAME
280
    0
  9
$REALWORLDSCALE
290
    1
  9
$INTERFERECOLOR
 62
    1
  9
$CSHADOW
280
    0
  9
$SHADOWPLANELOCATION
 40
0
  0
ENDSEC
  0
SECTION
  2
CLASSES
  0
ENDSEC
  0
SECTION
  2
TABLES
  0
TABLE
  2
VPORT
  5
8
330
0
100
AcDbSymbolTable
 70
    1
  0
VPORT
  5
31
330
2
100
AcDbSymbolTableRecord
100
AcDbViewportTableRecord
  2
*ACTIVE
 70
    0
 10
0
 20
0
 11
1
 21
1
 12
101.5200000000703
 22
41.04000000002843
 13
0
 23
0
 14
10
 24
10
 15
10
 25
10
 16
0
 26
0
 36
1
 17
0
 27
0
 37
0
 40
111.0400000000769
 41
2.207492795389049
 42
50
 43
0
 44
0
 50
0
 51
0
 71
    0
 72
  100
 73
    1
 74
    3
 75
    0
 76
    1
 77
    0
 78
    0
281
    0
 65
    1
110
0
120
0
130
0
111
1
121
0
131
0
112
0
122
1
132
0
 79
    0
146
0
348
10020
 60
    7
 61
    5
292
1
282
    1
141
0
142
0
 63
  250
421
3358443
  0
ENDTAB
  0
TABLE
  2
LTYPE
  5
5
330
0
100
AcDbSymbolTable
 70
    4
  0
LTYPE
  5
14
330
5
100
AcDbSymbolTableRecord
100
AcDbLinetypeTableRecord
  2
ByBlock
 70
    0
  3

 72
   65
 73
    0
 40
0
  0
LTYPE
  5
15
330
5
100
AcDbSymbolTableRecord
100
AcDbLinetypeTableRecord
  2
ByLayer
 70
    0
  3

 72
   65
 73
    0
 40
0
  0
LTYPE
  5
16
330
5
100
AcDbSymbolTableRecord
100
AcDbLinetypeTableRecord
  2
Continuous
 70
    0
  3
Solid line
 72
   65
 73
    0
 40
0
  0
LTYPE
  5
32
330
5
100
AcDbSymbolTableRecord
100
AcDbLinetypeTableRecord
  2
DOT
 70
    0
  3
Dot . . . . . . . . . . . . . . . . . . . . . .
 72
   65
 73
    2
 40
6.35
 49
0
 74
    0
 49
-6.35
 74
    0
  0
LTYPE
  5
33
330
5
100
AcDbSymbolTableRecord
100
AcDbLinetypeTableRecord
  2
DOTTINY
 70
    0
  3
Dot (.15x) .....................................
 72
   65
 73
    2
 40
0.9525
 49
0
 74
    0
 49
-0.9525
 74
    0
  0
LTYPE
  5
34
330
5
100
AcDbSymbolTableRecord
100
AcDbLinetypeTableRecord
  2
DOT2
 70
    0
  3
Dot (.5x) .....................................
 72
   65
 73
    2
 40
3.175
 49
0
 74
    0
 49
-3.175
 74
    0
  0
LTYPE
  5
35
330
5
100
AcDbSymbolTableRecord
100
AcDbLinetypeTableRecord
  2
DOTX2
 70
    0
  3
Dot (2x) .  .  .  .  .  .  .  .  .  .  .  .  .
 72
   65
 73
    2
 40
12.7
 49
0
 74
    0
 49
-12.7
 74
    0
  0
LTYPE
  5
36
330
5
100
AcDbSymbolTableRecord
100
AcDbLinetypeTableRecord
  2
DASHED
 70
    0
  3
Dashed _ _ _ _ _ _ _ _ _ _ _ _ _ _ _ _ _
 72
   65
 73
    2
 40
19.05
 49
12.7
 74
    0
 49
-6.35
 74
    0
  0
LTYPE
  5
37
330
5
100
AcDbSymbolTableRecord
100
AcDbLinetypeTableRecord
  2
DASHEDTINY
 70
    0
  3
Dashed (.15x) _ _ _ _ _ _ _ _ _ _ _ _ _ _ _ _ _
 72
   65
 73
    2
 40
2.8575
 49
1.905
 74
    0
 49
-0.9525
 74
    0
  0
LTYPE
  5
38
330
5
100
AcDbSymbolTableRecord
100
AcDbLinetypeTableRecord
  2
DASHED2
 70
    0
  3
Dashed (.5x) _ _ _ _ _ _ _ _ _ _ _ _ _ _ _ _ _
 72
   65
 73
    2
 40
9.524999999999999
 49
6.35
 74
    0
 49
-3.175
 74
    0
  0
LTYPE
  5
39
330
5
100
AcDbSymbolTableRecord
100
AcDbLinetypeTableRecord
  2
DASHEDX2
 70
    0
  3
Dashed (2x) ____  ____  ____  ____  ____  ___
 72
   65
 73
    2
 40
38.09999999999999
 49
25.4
 74
    0
 49
-12.7
 74
    0
  0
LTYPE
  5
3A
330
5
100
AcDbSymbolTableRecord
100
AcDbLinetypeTableRecord
  2
DASHDOT
 70
    0
  3
Dash dot __ . __ . __ . __ . __ . __ . __ . __
 72
   65
 73
    4
 40
25.4
 49
12.7
 74
    0
 49
-6.35
 74
    0
 49
0
 74
    0
 49
-6.35
 74
    0
  0
LTYPE
  5
3B
330
5
100
AcDbSymbolTableRecord
100
AcDbLinetypeTableRecord
  2
DASHDOTTINY
 70
    0
  3
Dash dot (.15x) _._._._._._._._._._._._._._._.
 72
   65
 73
    4
 40
3.81
 49
1.905
 74
    0
 49
-0.9525
 74
    0
 49
0
 74
    0
 49
-0.9525
 74
    0
  0
LTYPE
  5
3C
330
5
100
AcDbSymbolTableRecord
100
AcDbLinetypeTableRecord
  2
DASHDOT2
 70
    0
  3
Dash dot (.5x) _._._._._._._._._._._._._._._.
 72
   65
 73
    4
 40
12.7
 49
6.35
 74
    0
 49
-3.175
 74
    0
 49
0
 74
    0
 49
-3.175
 74
    0
  0
LTYPE
  5
3D
330
5
100
AcDbSymbolTableRecord
100
AcDbLinetypeTableRecord
  2
DASHDOTX2
 70
    0
  3
Dash dot (2x) ____  .  ____  .  ____  .  ___
 72
   65
 73
    4
 40
50.8
 49
25.4
 74
    0
 49
-12.7
 74
    0
 49
0
 74
    0
 49
-12.7
 74
    0
  0
LTYPE
  5
3E
330
5
100
AcDbSymbolTableRecord
100
AcDbLinetypeTableRecord
  2
DIVIDE
 70
    0
  3
Divide ____ . . ____ . . ____ . . ____ . . ____
 72
   65
 73
    6
 40
31.75
 49
12.7
 74
    0
 49
-6.35
 74
    0
 49
0
 74
    0
 49
-6.35
 74
    0
 49
0
 74
    0
 49
-6.35
 74
    0
  0
LTYPE
  5
3F
330
5
100
AcDbSymbolTableRecord
100
AcDbLinetypeTableRecord
  2
DIVIDETINY
 70
    0
  3
Divide (.15x) __..__..__..__..__..__..__..__.._
 72
   65
 73
    6
 40
4.7625
 49
1.905
 74
    0
 49
-0.9525
 74
    0
 49
0
 74
    0
 49
-0.9525
 74
    0
 49
0
 74
    0
 49
-0.9525
 74
    0
  0
LTYPE
  5
40
330
5
100
AcDbSymbolTableRecord
100
AcDbLinetypeTableRecord
  2
DIVIDE2
 70
    0
  3
Divide (.5x) __..__..__..__..__..__..__..__.._
 72
   65
 73
    6
 40
15.875
 49
6.35
 74
    0
 49
-3.175
 74
    0
 49
0
 74
    0
 49
-3.175
 74
    0
 49
0
 74
    0
 49
-3.175
 74
    0
  0
LTYPE
  5
41
330
5
100
AcDbSymbolTableRecord
100
AcDbLinetypeTableRecord
  2
DIVIDEX2
 70
    0
  3
Divide (2x) ________  .  .  ________  .  .  _
 72
   65
 73
    6
 40
63.5
 49
25.4
 74
    0
 49
-12.7
 74
    0
 49
0
 74
    0
 49
-12.7
 74
    0
 49
0
 74
    0
 49
-12.7
 74
    0
  0
LTYPE
  5
42
330
5
100
AcDbSymbolTableRecord
100
AcDbLinetypeTableRecord
  2
BORDER
 70
    0
  3
Border __ __ . __ __ . __ __ . __ __ . __ __ .
 72
   65
 73
    6
 40
44.45
 49
12.7
 74
    0
 49
-6.35
 74
    0
 49
12.7
 74
    0
 49
-6.35
 74
    0
 49
0
 74
    0
 49
-6.35
 74
    0
  0
LTYPE
  5
43
330
5
100
AcDbSymbolTableRecord
100
AcDbLinetypeTableRecord
  2
BORDERTINY
 70
    0
  3
Border (.15x) __.__.__.__.__.__.__.__.__.__.__.
 72
   65
 73
    6
 40
6.6675
 49
1.905
 74
    0
 49
-0.9525
 74
    0
 49
1.905
 74
    0
 49
-0.9525
 74
    0
 49
0
 74
    0
 49
-0.9525
 74
    0
  0
LTYPE
  5
44
330
5
100
AcDbSymbolTableRecord
100
AcDbLinetypeTableRecord
  2
BORDER2
 70
    0
  3
Border (.5x) __.__.__.__.__.__.__.__.__.__.__.
 72
   65
 73
    6
 40
22.225
 49
6.35
 74
    0
 49
-3.175
 74
    0
 49
6.35
 74
    0
 49
-3.175
 74
    0
 49
0
 74
    0
 49
-3.175
 74
    0
  0
LTYPE
  5
45
330
5
100
AcDbSymbolTableRecord
100
AcDbLinetypeTableRecord
  2
BORDERX2
 70
    0
  3
Border (2x) ____  ____  .  ____  ____  .  ___
 72
   65
 73
    6
 40
88.89999999999999
 49
25.4
 74
    0
 49
-12.7
 74
    0
 49
25.4
 74
    0
 49
-12.7
 74
    0
 49
0
 74
    0
 49
-12.7
 74
    0
  0
LTYPE
  5
46
330
5
100
AcDbSymbolTableRecord
100
AcDbLinetypeTableRecord
  2
CENTER
 70
    0
  3
Center ____ _ ____ _ ____ _ ____ _ ____ _ ____
 72
   65
 73
    4
 40
50.8
 49
31.75
 74
    0
 49
-6.35
 74
    0
 49
6.35
 74
    0
 49
-6.35
 74
    0
  0
LTYPE
  5
47
330
5
100
AcDbSymbolTableRecord
100
AcDbLinetypeTableRecord
  2
CENTERTINY
 70
    0
  3
Center (.15x) ___ _ ___ _ ___ _ ___ _ ___ _ ___
 72
   65
 73
    4
 40
7.619999999999999
 49
4.7625
 74
    0
 49
-0.9525
 74
    0
 49
0.9525
 74
    0
 49
-0.9525
 74
    0
  0
LTYPE
  5
48
330
5
100
AcDbSymbolTableRecord
100
AcDbLinetypeTableRecord
  2
CENTER2
 70
    0
  3
Center (.5x) ___ _ ___ _ ___ _ ___ _ ___ _ ___
 72
   65
 73
    4
 40
28.575
 49
19.05
 74
    0
 49
-3.175
 74
    0
 49
3.175
 74
    0
 49
-3.175
 74
    0
  0
LTYPE
  5
49
330
5
100
AcDbSymbolTableRecord
100
AcDbLinetypeTableRecord
  2
CENTERX2
 70
    0
  3
Center (2x) ________  __  ________  __  _____
 72
   65
 73
    4
 40
101.6
 49
63.5
 74
    0
 49
-12.7
 74
    0
 49
12.7
 74
    0
 49
-12.7
 74
    0
  0
ENDTAB
  0
TABLE
  2
LAYER
  5
2
330
0
100
AcDbSymbolTable
 70
    1
  0
LAYER
  5
10
330
2
100
AcDbSymbolTableRecord
100
AcDbLayerTableRecord
  2
0
 70
    4
 62
    7
  6
CONTINUOUS
370
    0
390
F
  0
LAYER
  5
4A
330
2
100
AcDbSymbolTableRecord
100
AcDbLayerTableRecord
  2
BallChain
 70
    4
 62
    4
  6
DASHDOTTINY
370
   25
390
F
  0
LAYER
  5
4B
330
2
100
AcDbSymbolTableRecord
100
AcDbLayerTableRecord
  2
Dimms
 70
    0
 62
    7
  6
CONTINUOUS
370
   25
390
F
  0
LAYER
  5
4C
330
2
100
AcDbSymbolTableRecord
100
AcDbLayerTableRecord
  2
Main
 70
    4
 62
    6
  6
CONTINUOUS
370
   25
390
F
  0
LAYER
  5
4D
330
2
100
AcDbSymbolTableRecord
100
AcDbLayerTableRecord
  2
Main2
 70
    4
 62
    5
  6
CONTINUOUS
370
   25
390
F
  0
LAYER
  5
4E
330
2
100
AcDbSymbolTableRecord
100
AcDbLayerTableRecord
  2
SeamAllowance
 70
    4
 62
    2
  6
DOTTINY
370
   25
390
F
  0
ENDTAB
  0
TABLE
  2
STYLE
  5
3
330
0
100
AcDbSymbolTable
 70
    3
  0
STYLE
  5
4F
330
2
100
AcDbSymbolTableRecord
100
AcDbTextStyleTableRecord
  2
Standard
 70
    0
 40
0
 41
1
 50
0
 71
    0
 42
1
  3
txt
  4

  0
ENDTAB
  0
TABLE
  2
VIEW
  5
6
330
0
100
AcDbSymbolTable
 70
    0
  0
ENDTAB
  0
TABLE
  2
UCS
  5
7
330
0
100
AcDbSymbolTable
 70
    0
  0
ENDTAB
  0
TABLE
  2
APPID
  5
9
330
0
100
AcDbSymbolTable
 70
    1
  0
APPID
  5
12
330
9
100
AcDbSymbolTableRecord
100
AcDbRegAppTableRecord
  2
ACAD
 70
    0
  0
APPID
  5
50
330
9
100
AcDbSymbolTableRecord
100
AcDbRegAppTableRecord
  2
LibreCad
 70
    0
  0
ENDTAB
  0
TABLE
  2
DIMSTYLE
  5
A
330
0
100
AcDbSymbolTable
 70
    1
100
AcDbDimStyleTable
 71
    1
  0
DIMSTYLE
105
51
330
A
100
AcDbSymbolTableRecord
100
AcDbDimStyleTableRecord
  2
Standard
 70
    0
 40
1
 41
2.5
 42
0.625
 43
0.38
 44
1.25
 45
0
 46
0
 47
0
 48
0
 49
1
140
2.5
141
0.09
142
0
143
25.4
144
1
145
0
146
1
147
0.625
148
0
 71
    0
 72
    0
 73
    0
 74
    1
 75
    0
 76
    0
 77
    0
 78
    1
 79
    0
170
    0
171
    2
172
    0
173
    0
174
    0
175
    0
176
    0
177
    0
178
    0
179
    1
271
    1
272
    4
273
    2
274
    2
275
    0
276
    0
277
    5
278
    0
279
    0
280
    0
281
    0
282
    0
283
    1
284
    0
285
    0
286
    0
288
    0
289
    3
340
standard
341

371
   -2
372
   -2
  0
ENDTAB
  0
TABLE
  2
BLOCK_RECORD
  5
1
330
0
100
AcDbSymbolTable
 70
    2
  0
BLOCK_RECORD
  5
1F
330
1
100
AcDbSymbolTableRecord
100
AcDbBlockTableRecord
  2
*Model_Space
 70
    0
280
    1
281
    0
  0
BLOCK_RECORD
  5
1E
330
1
100
AcDbSymbolTableRecord
100
AcDbBlockTableRecord
  2
*Paper_Space
 70
    0
280
    1
281
    0
  0
BLOCK_RECORD
  5
52
330
1
100
AcDbSymbolTableRecord
100
AcDbBlockTableRecord
  2
*D19
 70
    0
280
    1
281
    0
  0
BLOCK_RECORD
  5
55
330
1
100
AcDbSymbolTableRecord
100
AcDbBlockTableRecord
  2
*D13
 70
    0
280
    1
281
    0
  0
BLOCK_RECORD
  5
58
330
1
100
AcDbSymbolTableRecord
100
AcDbBlockTableRecord
  2
*D7
 70
    0
280
    1
281
    0
  0
BLOCK_RECORD
  5
5B
330
1
100
AcDbSymbolTableRecord
100
AcDbBlockTableRecord
  2
*D15
 70
    0
280
    1
281
    0
  0
BLOCK_RECORD
  5
5E
330
1
100
AcDbSymbolTableRecord
100
AcDbBlockTableRecord
  2
*D4
 70
    0
280
    1
281
    0
  0
BLOCK_RECORD
  5
61
330
1
100
AcDbSymbolTableRecord
100
AcDbBlockTableRecord
  2
*D3
 70
    0
280
    1
281
    0
  0
BLOCK_RECORD
  5
64
330
1
100
AcDbSymbolTableRecord
100
AcDbBlockTableRecord
  2
*D5
 70
    0
280
    1
281
    0
  0
BLOCK_RECORD
  5
67
330
1
100
AcDbSymbolTableRecord
100
AcDbBlockTableRecord
  2
*D6
 70
    0
280
    1
281
    0
  0
BLOCK_RECORD
  5
6A
330
1
100
AcDbSymbolTableRecord
100
AcDbBlockTableRecord
  2
*D18
 70
    0
280
    1
281
    0
  0
BLOCK_RECORD
  5
6D
330
1
100
AcDbSymbolTableRecord
100
AcDbBlockTableRecord
  2
*D17
 70
    0
280
    1
281
    0
  0
BLOCK_RECORD
  5
70
330
1
100
AcDbSymbolTableRecord
100
AcDbBlockTableRecord
  2
*D2
 70
    0
280
    1
281
    0
  0
BLOCK_RECORD
  5
73
330
1
100
AcDbSymbolTableRecord
100
AcDbBlockTableRecord
  2
*D11
 70
    0
280
    1
281
    0
  0
BLOCK_RECORD
  5
76
330
1
100
AcDbSymbolTableRecord
100
AcDbBlockTableRecord
  2
*D16
 70
    0
280
    1
281
    0
  0
BLOCK_RECORD
  5
79
330
1
100
AcDbSymbolTableRecord
100
AcDbBlockTableRecord
  2
*D9
 70
    0
280
    1
281
    0
  0
BLOCK_RECORD
  5
7C
330
1
100
AcDbSymbolTableRecord
100
AcDbBlockTableRecord
  2
*D12
 70
    0
280
    1
281
    0
  0
BLOCK_RECORD
  5
7F
330
1
100
AcDbSymbolTableRecord
100
AcDbBlockTableRecord
  2
*D14
 70
    0
280
    1
281
    0
  0
BLOCK_RECORD
  5
82
330
1
100
AcDbSymbolTableRecord
100
AcDbBlockTableRecord
  2
*D10
 70
    0
280
    1
281
    0
  0
BLOCK_RECORD
  5
85
330
1
100
AcDbSymbolTableRecord
100
AcDbBlockTableRecord
  2
*D1
 70
    0
280
    1
281
    0
  0
BLOCK_RECORD
  5
88
330
1
100
AcDbSymbolTableRecord
100
AcDbBlockTableRecord
  2
*D8
 70
    0
280
    1
281
    0
  0
ENDTAB
  0
ENDSEC
  0
SECTION
  2
BLOCKS
  0
BLOCK
  5
20
330
1F
100
AcDbEntity
  8
0
100
AcDbBlockBegin
  2
*Model_Space
 70
    0
 10
0
 20
0
 30
0
  3
*Model_Space
  1

  0
ENDBLK
  5
21
330
1F
100
AcDbEntity
  8
0
100
AcDbBlockEnd
  0
BLOCK
  5
1C
330
1B
100
AcDbEntity
  8
0
100
AcDbBlockBegin
  2
*Paper_Space
 70
    0
 10
0
 20
0
 30
0
  3
*Paper_Space
  1

  0
ENDBLK
  5
1D
330
1F
100
AcDbEntity
  8
0
100
AcDbBlockEnd
  0
BLOCK
  5
53
330
52
100
AcDbEntity
  8
0
100
AcDbBlockBegin
  2
*D19
 70
    1
 10
0
 20
0
  3
*D19
  1

  0
LINE
  5
8B
100
AcDbEntity
  8
Dimms
  6
ByBlock
 62
    0
370
   -2
100
AcDbLine
 10
107
 20
-16
 11
0
 21
-16
  0
SOLID
  5
8C
100
AcDbEntity
  8
Dimms
  6
ByBlock
 62
    0
370
   -2
100
AcDbTrace
 10
107
 20
-16
 30
0
 11
104.5
 21
-16.41628465777284
 31
0
 12
104.5
 22
-15.58371534222716
 32
0
 13
104.5
 23
-15.58371534222716
 33
0
  0
SOLID
  5
8D
100
AcDbEntity
  8
Dimms
  6
ByBlock
 62
    0
370
   -2
100
AcDbTrace
 10
0
 20
-16
 30
0
 11
2.5
 21
-15.58371534222716
 31
0
 12
2.5
 22
-16.41628465777284
 32
0
 13
2.5
 23
-16.41628465777284
 33
0
  0
MTEXT
  5
8E
100
AcDbEntity
  8
Dimms
  6
CONTINUOUS
 62
    0
370
   -2
100
AcDbMText
 10
53.5
 20
-14.125
 30
0
 40
2.5
 41
4.444444444444445
 71
    5
 72
    1
  1
107
  7
standard
210
0
220
0
230
1
 50
360
 73
    2
 44
1
  0
LINE
  5
8F
100
AcDbEntity
  8
Dimms
  6
ByBlock
 62
    0
370
   -2
100
AcDbLine
 10
107
 20
-13.625
 11
107
 21
-17.25
  0
LINE
  5
90
100
AcDbEntity
  8
Dimms
  6
ByBlock
 62
    0
370
   -2
100
AcDbLine
 10
-1.148106374200643e-16
 20
-14.625
 11
-2.296212748401287e-16
 21
-17.25
  0
ENDBLK
  5
54
330
52
100
AcDbEntity
  8
0
100
AcDbBlockEnd
  0
BLOCK
  5
56
330
55
100
AcDbEntity
  8
0
100
AcDbBlockBegin
  2
*D13
 70
    1
 10
0
 20
0
  3
*D13
  1

  0
LINE
  5
91
100
AcDbEntity
  8
Dimms
  6
ByBlock
 62
    0
370
   -2
100
AcDbLine
 10
20
 20
39.75
 11
20
 21
29
  0
SOLID
  5
92
100
AcDbEntity
  8
Dimms
  6
ByBlock
 62
    0
370
   -2
100
AcDbTrace
 10
20
 20
34.75
 30
0
 11
19.58371534222716
 21
37.25
 31
0
 12
20.41628465777284
 22
37.25
 32
0
 13
20.41628465777284
 23
37.25
 33
0
  0
SOLID
  5
93
100
AcDbEntity
  8
Dimms
  6
ByBlock
 62
    0
370
   -2
100
AcDbTrace
 10
20
 20
34
 30
0
 11
20.41628465777284
 21
31.5
 31
0
 12
19.58371534222716
 22
31.5
 32
0
 13
19.58371534222716
 23
31.5
 33
0
  0
MTEXT
  5
94
100
AcDbEntity
  8
Dimms
  6
CONTINUOUS
 62
    0
370
   -2
100
AcDbMText
 10
18.125
 20
38.01388888888896
 30
0
 40
2.5
 41
5.277777777777933
 71
    5
 72
    1
  1
3/4
  7
standard
210
0
220
0
230
1
 50
90
 73
    2
 44
1
  0
LINE
  5
95
100
AcDbEntity
  8
Dimms
  6
ByBlock
 62
    0
370
   -2
100
AcDbLine
 10
20.375
 20
34.75
 11
18.75
 21
34.75
  0
LINE
  5
96
100
AcDbEntity
  8
Dimms
  6
ByBlock
 62
    0
370
   -2
100
AcDbLine
 10
20.375
 20
34
 11
18.75
 21
34
  0
ENDBLK
  5
57
330
55
100
AcDbEntity
  8
0
100
AcDbBlockEnd
  0
BLOCK
  5
59
330
58
100
AcDbEntity
  8
0
100
AcDbBlockBegin
  2
*D7
 70
    1
 10
0
 20
0
  3
*D7
  1

  0
LINE
  5
97
100
AcDbEntity
  8
Dimms
  6
ByBlock
 62
    0
370
   -2
100
AcDbLine
 10
18.25
 20
36
 11
29
 21
36
  0
SOLID
  5
98
100
AcDbEntity
  8
Dimms
  6
ByBlock
 62
    0
370
   -2
100
AcDbTrace
 10
23.25
 20
36
 30
0
 11
20.75
 21
35.58371534222716
 31
0
 12
20.75
 22
36.41628465777284
 32
0
 13
20.75
 23
36.41628465777284
 33
0
  0
SOLID
  5
99
100
AcDbEntity
  8
Dimms
  6
ByBlock
 62
    0
370
   -2
100
AcDbTrace
 10
24
 20
36
 30
0
 11
26.5
 21
36.41628465777284
 31
0
 12
26.5
 22
35.58371534222716
 32
0
 13
26.5
 23
35.58371534222716
 33
0
  0
MTEXT
  5
9A
100
AcDbEntity
  8
Dimms
  6
CONTINUOUS
 62
    0
370
   -2
100
AcDbMText
 10
27.26388888888897
 20
37.875
 30
0
 40
2.5
 41
5.277777777777933
 71
    5
 72
    1
  1
3/4
  7
standard
210
0
220
0
230
1
 50
0
 73
    2
 44
1
  0
LINE
  5
9B
100
AcDbEntity
  8
Dimms
  6
ByBlock
 62
    0
370
   -2
100
AcDbLine
 10
23.25
 20
34.625
 11
23.25
 21
37.25
  0
LINE
  5
9C
100
AcDbEntity
  8
Dimms
  6
ByBlock
 62
    0
370
   -2
100
AcDbLine
 10
24
 20
34.625
 11
24
 21
37.25
  0
ENDBLK
  5
5A
330
58
100
AcDbEntity
  8
0
100
AcDbBlockEnd
  0
BLOCK
  5
5C
330
5B
100
AcDbEntity
  8
0
100
AcDbBlockBegin
  2
*D15
 70
    1
 10
0
 20
0
  3
*D15
  1

  0
LINE
  5
9D
100
AcDbEntity
  8
Dimms
  6
ByBlock
 62
    0
370
   -2
100
AcDbLine
 10
-5
 20
43.75
 11
-5
 21
33
  0
SOLID
  5
9E
100
AcDbEntity
  8
Dimms
  6
ByBlock
 62
    0
370
   -2
100
AcDbTrace
 10
-5
 20
38.75
 30
0
 11
-5.41628465777284
 21
41.25
 31
0
 12
-4.583715342227159
 22
41.25
 32
0
 13
-4.583715342227159
 23
41.25
 33
0
  0
SOLID
  5
9F
100
AcDbEntity
  8
Dimms
  6
ByBlock
 62
    0
370
   -2
100
AcDbTrace
 10
-5
 20
38
 30
0
 11
-4.583715342227159
 21
35.5
 31
0
 12
-5.416284657772841
 22
35.5
 32
0
 13
-5.416284657772841
 23
35.5
 33
0
  0
MTEXT
  5
A0
100
AcDbEntity
  8
Dimms
  6
CONTINUOUS
 62
    0
370
   -2
100
AcDbMText
 10
-6.875
 20
42.01388888888896
 30
0
 40
2.5
 41
5.277777777777933
 71
    5
 72
    1
  1
3/4
  7
standard
210
0
220
0
230
1
 50
90
 73
    2
 44
1
  0
LINE
  5
A1
100
AcDbEntity
  8
Dimms
  6
ByBlock
 62
    0
370
   -2
100
AcDbLine
 10
-4.625
 20
38.75
 11
-6.25
 21
38.75
  0
LINE
  5
A2
100
AcDbEntity
  8
Dimms
  6
ByBlock
 62
    0
370
   -2
100
AcDbLine
 10
-4.625
 20
38
 11
-6.25
 21
38
  0
ENDBLK
  5
5D
330
5B
100
AcDbEntity
  8
0
100
AcDbBlockEnd
  0
BLOCK
  5
5F
330
5E
100
AcDbEntity
  8
0
100
AcDbBlockBegin
  2
*D4
 70
    1
 10
0
 20
0
  3
*D4
  1

  0
LINE
  5
A3
100
AcDbEntity
  8
Dimms
  6
ByBlock
 62
    0
370
   -2
100
AcDbLine
 10
87
 20
41
 11
63
 21
41
  0
SOLID
  5
A4
100
AcDbEntity
  8
Dimms
  6
ByBlock
 62
    0
370
   -2
100
AcDbTrace
 10
87
 20
41
 30
0
 11
84.5
 21
40.58371534222716
 31
0
 12
84.5
 22
41.41628465777284
 32
0
 13
84.5
 23
41.41628465777284
 33
0
  0
SOLID
  5
A5
100
AcDbEntity
  8
Dimms
  6
ByBlock
 62
    0
370
   -2
100
AcDbTrace
 10
63
 20
41
 30
0
 11
65.5
 21
41.41628465777284
 31
0
 12
65.5
 22
40.58371534222716
 32
0
 13
65.5
 23
40.58371534222716
 33
0
  0
MTEXT
  5
A6
100
AcDbEntity
  8
Dimms
  6
CONTINUOUS
 62
    0
370
   -2
100
AcDbMText
 10
75
 20
42.875
 30
0
 40
2.5
 41
3.333333333333333
 71
    5
 72
    1
  1
24
  7
standard
210
0
220
0
230
1
 50
360
 73
    2
 44
1
  0
LINE
  5
A7
100
AcDbEntity
  8
Dimms
  6
ByBlock
 62
    0
370
   -2
100
AcDbLine
 10
87
 20
40.625
 11
87
 21
42.25
  0
LINE
  5
A8
100
AcDbEntity
  8
Dimms
  6
ByBlock
 62
    0
370
   -2
100
AcDbLine
 10
63
 20
40.625
 11
63
 21
42.25
  0
ENDBLK
  5
60
330
5E
100
AcDbEntity
  8
0
100
AcDbBlockEnd
  0
BLOCK
  5
62
330
61
100
AcDbEntity
  8
0
100
AcDbBlockBegin
  2
*D3
 70
    1
 10
0
 20
0
  3
*D3
  1

  0
LINE
  5
A9
100
AcDbEntity
  8
Dimms
  6
ByBlock
 62
    0
370
   -2
100
AcDbLine
 10
55
 20
62
 11
65.75
 21
62
  0
SOLID
  5
AA
100
AcDbEntity
  8
Dimms
  6
ByBlock
 62
    0
370
   -2
100
AcDbTrace
 10
60
 20
62
 30
0
 11
57.5
 21
61.58371534222716
 31
0
 12
57.5
 22
62.41628465777284
 32
0
 13
57.5
 23
62.41628465777284
 33
0
  0
SOLID
  5
AB
100
AcDbEntity
  8
Dimms
  6
ByBlock
 62
    0
370
   -2
100
AcDbTrace
 10
60.75
 20
62
 30
0
 11
63.25
 21
62.41628465777284
 31
0
 12
63.25
 22
61.58371534222716
 32
0
 13
63.25
 23
61.58371534222716
 33
0
  0
MTEXT
  5
AC
100
AcDbEntity
  8
Dimms
  6
CONTINUOUS
 62
    0
370
   -2
100
AcDbMText
 10
64.01388888888897
 20
63.875
 30
0
 40
2.5
 41
5.277777777777933
 71
    5
 72
    1
  1
3/4
  7
standard
210
0
220
0
230
1
 50
0
 73
    2
 44
1
  0
LINE
  5
AD
100
AcDbEntity
  8
Dimms
  6
ByBlock
 62
    0
370
   -2
100
AcDbLine
 10
60
 20
61.625
 11
60
 21
63.25
  0
LINE
  5
AE
100
AcDbEntity
  8
Dimms
  6
ByBlock
 62
    0
370
   -2
100
AcDbLine
 10
60.75
 20
61.625
 11
60.75
 21
63.25
  0
ENDBLK
  5
63
330
61
100
AcDbEntity
  8
0
100
AcDbBlockEnd
  0
BLOCK
  5
65
330
64
100
AcDbEntity
  8
0
100
AcDbBlockBegin
  2
*D5
 70
    1
 10
0
 20
0
  3
*D5
  1

  0
LINE
  5
AF
100
AcDbEntity
  8
Dimms
  6
ByBlock
 62
    0
370
   -2
100
AcDbLine
 10
68
 20
41
 11
57.25
 21
41
  0
SOLID
  5
B0
100
AcDbEntity
  8
Dimms
  6
ByBlock
 62
    0
370
   -2
100
AcDbTrace
 10
63
 20
41
 30
0
 11
65.5
 21
41.41628465777284
 31
0
 12
65.5
 22
40.58371534222716
 32
0
 13
65.5
 23
40.58371534222716
 33
0
  0
SOLID
  5
B1
100
AcDbEntity
  8
Dimms
  6
ByBlock
 62
    0
370
   -2
100
AcDbTrace
 10
62.25
 20
41
 30
0
 11
59.75
 21
40.58371534222716
 31
0
 12
59.75
 22
41.41628465777284
 32
0
 13
59.75
 23
41.41628465777284
 33
0
  0
MTEXT
  5
B2
100
AcDbEntity
  8
Dimms
  6
CONTINUOUS
 62
    0
370
   -2
100
AcDbMText
 10
66.26388888888897
 20
42.875
 30
0
 40
2.5
 41
5.277777777777933
 71
    5
 72
    1
  1
3/4
  7
standard
210
0
220
0
230
1
 50
360
 73
    2
 44
1
  0
LINE
  5
B3
100
AcDbEntity
  8
Dimms
  6
ByBlock
 62
    0
370
   -2
100
AcDbLine
 10
63
 20
40.625
 11
63
 21
42.25
  0
LINE
  5
B4
100
AcDbEntity
  8
Dimms
  6
ByBlock
 62
    0
370
   -2
100
AcDbLine
 10
62.25
 20
40.625
 11
62.25
 21
42.25
  0
ENDBLK
  5
66
330
64
100
AcDbEntity
  8
0
100
AcDbBlockEnd
  0
BLOCK
  5
68
330
67
100
AcDbEntity
  8
0
100
AcDbBlockBegin
  2
*D6
 70
    1
 10
0
 20
0
  3
*D6
  1

  0
LINE
  5
B5
100
AcDbEntity
  8
Dimms
  6
ByBlock
 62
    0
370
   -2
100
AcDbLine
 10
82
 20
41
 11
93.5
 21
41
  0
SOLID
  5
B6
100
AcDbEntity
  8
Dimms
  6
ByBlock
 62
    0
370
   -2
100
AcDbTrace
 10
87
 20
41
 30
0
 11
84.5
 21
40.58371534222716
 31
0
 12
84.5
 22
41.41628465777284
 32
0
 13
84.5
 23
41.41628465777284
 33
0
  0
SOLID
  5
B7
100
AcDbEntity
  8
Dimms
  6
ByBlock
 62
    0
370
   -2
100
AcDbTrace
 10
88.5
 20
41
 30
0
 11
91
 21
41.41628465777284
 31
0
 12
91
 22
40.58371534222716
 32
0
 13
91
 23
40.58371534222716
 33
0
  0
MTEXT
  5
B8
100
AcDbEntity
  8
Dimms
  6
CONTINUOUS
 62
    0
370
   -2
100
AcDbMText
 10
92.97916666666667
 20
42.875
 30
0
 40
2.5
 41
7.708333333333334
 71
    5
 72
    1
  1
1 1/2
  7
standard
210
0
220
0
230
1
 50
0
 73
    2
 44
1
  0
LINE
  5
B9
100
AcDbEntity
  8
Dimms
  6
ByBlock
 62
    0
370
   -2
100
AcDbLine
 10
87
 20
40.625
 11
87
 21
42.25
  0
LINE
  5
BA
100
AcDbEntity
  8
Dimms
  6
ByBlock
 62
    0
370
   -2
100
AcDbLine
 10
88.5
 20
40.625
 11
88.5
 21
42.25
  0
ENDBLK
  5
69
330
67
100
AcDbEntity
  8
0
100
AcDbBlockEnd
  0
BLOCK
  5
6B
330
6A
100
AcDbEntity
  8
0
100
AcDbBlockBegin
  2
*D18
 70
    1
 10
0
 20
0
  3
*D18
  1

  0
LINE
  5
BB
100
AcDbEntity
  8
Dimms
  6
ByBlock
 62
    0
370
   -2
100
AcDbLine
 10
15
 20
34
 11
15
 21
24
  0
SOLID
  5
BC
100
AcDbEntity
  8
Dimms
  6
ByBlock
 62
    0
370
   -2
100
AcDbTrace
 10
15
 20
34
 30
0
 11
15.41628465777284
 21
31.5
 31
0
 12
14.58371534222716
 22
31.5
 32
0
 13
14.58371534222716
 23
31.5
 33
0
  0
SOLID
  5
BD
100
AcDbEntity
  8
Dimms
  6
ByBlock
 62
    0
370
   -2
100
AcDbTrace
 10
15
 20
24
 30
0
 11
14.58371534222716
 21
26.5
 31
0
 12
15.41628465777284
 22
26.5
 32
0
 13
15.41628465777284
 23
26.5
 33
0
  0
MTEXT
  5
BE
100
AcDbEntity
  8
Dimms
  6
CONTINUOUS
 62
    0
370
   -2
100
AcDbMText
 10
13.125
 20
29
 30
0
 40
2.5
 41
2.5
 71
    5
 72
    1
  1
10
  7
standard
210
0
220
0
230
1
 50
90
 73
    2
 44
1
  0
LINE
  5
BF
100
AcDbEntity
  8
Dimms
  6
ByBlock
 62
    0
370
   -2
100
AcDbLine
 10
19.875
 20
34
 11
13.75
 21
34
  0
LINE
  5
C0
100
AcDbEntity
  8
Dimms
  6
ByBlock
 62
    0
370
   -2
100
AcDbLine
 10
19.875
 20
24
 11
13.75
 21
24
  0
ENDBLK
  5
6C
330
6A
100
AcDbEntity
  8
0
100
AcDbBlockEnd
  0
BLOCK
  5
6E
330
6D
100
AcDbEntity
  8
0
100
AcDbBlockBegin
  2
*D17
 70
    1
 10
0
 20
0
  3
*D17
  1

  0
LINE
  5
C1
100
AcDbEntity
  8
Dimms
  6
ByBlock
 62
    0
370
   -2
100
AcDbLine
 10
-5
 20
25
 11
-5
 21
14.25
  0
SOLID
  5
C2
100
AcDbEntity
  8
Dimms
  6
ByBlock
 62
    0
370
   -2
100
AcDbTrace
 10
-5
 20
20
 30
0
 11
-5.41628465777284
 21
22.5
 31
0
 12
-4.583715342227159
 22
22.5
 32
0
 13
-4.583715342227159
 23
22.5
 33
0
  0
SOLID
  5
C3
100
AcDbEntity
  8
Dimms
  6
ByBlock
 62
    0
370
   -2
100
AcDbTrace
 10
-5
 20
19.25
 30
0
 11
-4.583715342227159
 21
16.75
 31
0
 12
-5.416284657772841
 22
16.75
 32
0
 13
-5.416284657772841
 23
16.75
 33
0
  0
MTEXT
  5
C4
100
AcDbEntity
  8
Dimms
  6
CONTINUOUS
 62
    0
370
   -2
100
AcDbMText
 10
-6.875
 20
23.26388888888897
 30
0
 40
2.5
 41
5.277777777777933
 71
    5
 72
    1
  1
3/4
  7
standard
210
0
220
0
230
1
 50
90
 73
    2
 44
1
  0
LINE
  5
C5
100
AcDbEntity
  8
Dimms
  6
ByBlock
 62
    0
370
   -2
100
AcDbLine
 10
-4.625
 20
20
 11
-6.25
 21
20
  0
LINE
  5
C6
100
AcDbEntity
  8
Dimms
  6
ByBlock
 62
    0
370
   -2
100
AcDbLine
 10
-4.625
 20
19.25
 11
-6.25
 21
19.25
  0
ENDBLK
  5
6F
330
6D
100
AcDbEntity
  8
0
100
AcDbBlockEnd
  0
BLOCK
  5
71
330
70
100
AcDbEntity
  8
0
100
AcDbBlockBegin
  2
*D2
 70
    1
 10
0
 20
0
  3
*D2
  1

  0
LINE
  5
C7
100
AcDbEntity
  8
Dimms
  6
ByBlock
 62
    0
370
   -2
100
AcDbLine
 10
25
 20
62
 11
60
 21
62
  0
SOLID
  5
C8
100
AcDbEntity
  8
Dimms
  6
ByBlock
 62
    0
370
   -2
100
AcDbTrace
 10
25
 20
62
 30
0
 11
27.5
 21
62.41628465777284
 31
0
 12
27.5
 22
61.58371534222716
 32
0
 13
27.5
 23
61.58371534222716
 33
0
  0
SOLID
  5
C9
100
AcDbEntity
  8
Dimms
  6
ByBlock
 62
    0
370
   -2
100
AcDbTrace
 10
60
 20
62
 30
0
 11
57.5
 21
61.58371534222716
 31
0
 12
57.5
 22
62.41628465777284
 32
0
 13
57.5
 23
62.41628465777284
 33
0
  0
MTEXT
  5
CA
100
AcDbEntity
  8
Dimms
  6
CONTINUOUS
 62
    0
370
   -2
100
AcDbMText
 10
42.5
 20
63.875
 30
0
 40
2.5
 41
3.055555555555866
 71
    5
 72
    1
  1
35
  7
standard
210
0
220
0
230
1
 50
0
 73
    2
 44
1
  0
LINE
  5
CB
100
AcDbEntity
  8
Dimms
  6
ByBlock
 62
    0
370
   -2
100
AcDbLine
 10
25
 20
61.625
 11
25
 21
63.25
  0
LINE
  5
CC
100
AcDbEntity
  8
Dimms
  6
ByBlock
 62
    0
370
   -2
100
AcDbLine
 10
60
 20
61.625
 11
60
 21
63.25
  0
ENDBLK
  5
72
330
70
100
AcDbEntity
  8
0
100
AcDbBlockEnd
  0
BLOCK
  5
74
330
73
100
AcDbEntity
  8
0
100
AcDbBlockBegin
  2
*D11
 70
    1
 10
0
 20
0
  3
*D11
  1

  0
LINE
  5
CD
100
AcDbEntity
  8
Dimms
  6
ByBlock
 62
    0
370
   -2
100
AcDbLine
 10
58
 20
24
 11
58
 21
7.105427357601002e-17
  0
SOLID
  5
CE
100
AcDbEntity
  8
Dimms
  6
ByBlock
 62
    0
370
   -2
100
AcDbTrace
 10
58
 20
24
 30
0
 11
58.41628465777284
 21
21.5
 31
0
 12
57.58371534222716
 22
21.5
 32
0
 13
57.58371534222716
 23
21.5
 33
0
  0
SOLID
  5
CF
100
AcDbEntity
  8
Dimms
  6
ByBlock
 62
    0
370
   -2
100
AcDbTrace
 10
58
 20
7.105427357601002e-17
 30
0
 11
57.58371534222716
 21
2.5
 31
0
 12
58.41628465777284
 22
2.5
 32
0
 13
58.41628465777284
 23
2.5
 33
0
  0
MTEXT
  5
D0
100
AcDbEntity
  8
Dimms
  6
CONTINUOUS
 62
    0
370
   -2
100
AcDbMText
 10
56.125
 20
12
 30
0
 40
2.5
 41
3.333333333333333
 71
    5
 72
    1
  1
24
  7
standard
210
0
220
0
230
1
 50
90
 73
    2
 44
1
  0
LINE
  5
D1
100
AcDbEntity
  8
Dimms
  6
ByBlock
 62
    0
370
   -2
100
AcDbLine
 10
58.375
 20
24
 11
56.75
 21
24
  0
LINE
  5
D2
100
AcDbEntity
  8
Dimms
  6
ByBlock
 62
    0
370
   -2
100
AcDbLine
 10
58.375
 20
7.654042494670958e-17
 11
56.75
 21
2.241351234694292e-16
  0
ENDBLK
  5
75
330
73
100
AcDbEntity
  8
0
100
AcDbBlockEnd
  0
BLOCK
  5
77
330
76
100
AcDbEntity
  8
0
100
AcDbBlockBegin
  2
*D16
 70
    1
 10
0
 20
0
  3
*D16
  1

  0
LINE
  5
D3
100
AcDbEntity
  8
Dimms
  6
ByBlock
 62
    0
370
   -2
100
AcDbLine
 10
-4.999999999999999
 20
38
 11
-5
 21
20
  0
SOLID
  5
D4
100
AcDbEntity
  8
Dimms
  6
ByBlock
 62
    0
370
   -2
100
AcDbTrace
 10
-4.999999999999999
 20
38
 30
0
 11
-4.583715342227158
 21
35.5
 31
0
 12
-5.41628465777284
 22
35.5
 32
0
 13
-5.41628465777284
 23
35.5
 33
0
  0
SOLID
  5
D5
100
AcDbEntity
  8
Dimms
  6
ByBlock
 62
    0
370
   -2
100
AcDbTrace
 10
-5
 20
20
 30
0
 11
-5.41628465777284
 21
22.5
 31
0
 12
-4.583715342227159
 22
22.5
 32
0
 13
-4.583715342227159
 23
22.5
 33
0
  0
MTEXT
  5
D6
100
AcDbEntity
  8
Dimms
  6
CONTINUOUS
 62
    0
370
   -2
100
AcDbMText
 10
-6.875
 20
29
 30
0
 40
2.5
 41
2.5
 71
    5
 72
    1
  1
18
  7
standard
210
0
220
0
230
1
 50
90
 73
    2
 44
1
  0
LINE
  5
D7
100
AcDbEntity
  8
Dimms
  6
ByBlock
 62
    0
370
   -2
100
AcDbLine
 10
-4.625
 20
38
 11
-6.249999999999999
 21
38
  0
LINE
  5
D8
100
AcDbEntity
  8
Dimms
  6
ByBlock
 62
    0
370
   -2
100
AcDbLine
 10
-4.625
 20
20
 11
-6.25
 21
20
  0
ENDBLK
  5
78
330
76
100
AcDbEntity
  8
0
100
AcDbBlockEnd
  0
BLOCK
  5
7A
330
79
100
AcDbEntity
  8
0
100
AcDbBlockBegin
  2
*D9
 70
    1
 10
0
 20
0
  3
*D9
  1

  0
LINE
  5
D9
100
AcDbEntity
  8
Dimms
  6
ByBlock
 62
    0
370
   -2
100
AcDbLine
 10
56
 20
36
 11
66.75
 21
36
  0
SOLID
  5
DA
100
AcDbEntity
  8
Dimms
  6
ByBlock
 62
    0
370
   -2
100
AcDbTrace
 10
61
 20
36
 30
0
 11
58.5
 21
35.58371534222716
 31
0
 12
58.5
 22
36.41628465777284
 32
0
 13
58.5
 23
36.41628465777284
 33
0
  0
SOLID
  5
DB
100
AcDbEntity
  8
Dimms
  6
ByBlock
 62
    0
370
   -2
100
AcDbTrace
 10
61.75
 20
36
 30
0
 11
64.25
 21
36.41628465777284
 31
0
 12
64.25
 22
35.58371534222716
 32
0
 13
64.25
 23
35.58371534222716
 33
0
  0
MTEXT
  5
DC
100
AcDbEntity
  8
Dimms
  6
CONTINUOUS
 62
    0
370
   -2
100
AcDbMText
 10
65.01388888888897
 20
37.875
 30
0
 40
2.5
 41
5.277777777777933
 71
    5
 72
    1
  1
3/4
  7
standard
210
0
220
0
230
1
 50
0
 73
    2
 44
1
  0
LINE
  5
DD
100
AcDbEntity
  8
Dimms
  6
ByBlock
 62
    0
370
   -2
100
AcDbLine
 10
61
 20
34.625
 11
61
 21
37.25
  0
LINE
  5
DE
100
AcDbEntity
  8
Dimms
  6
ByBlock
 62
    0
370
   -2
100
AcDbLine
 10
61.75
 20
34.625
 11
61.75
 21
37.25
  0
ENDBLK
  5
7B
330
79
100
AcDbEntity
  8
0
100
AcDbBlockEnd
  0
BLOCK
  5
7D
330
7C
100
AcDbEntity
  8
0
100
AcDbBlockBegin
  2
*D12
 70
    1
 10
0
 20
0
  3
*D12
  1

  0
LINE
  5
DF
100
AcDbEntity
  8
Dimms
  6
ByBlock
 62
    0
370
   -2
100
AcDbLine
 10
58
 20
5
 11
58
 21
-6.5
  0
SOLID
  5
E0
100
AcDbEntity
  8
Dimms
  6
ByBlock
 62
    0
370
   -2
100
AcDbTrace
 10
58
 20
-2.220446049250313e-16
 30
0
 11
57.58371534222716
 21
2.5
 31
0
 12
58.41628465777284
 22
2.5
 32
0
 13
58.41628465777284
 23
2.5
 33
0
  0
SOLID
  5
E1
100
AcDbEntity
  8
Dimms
  6
ByBlock
 62
    0
370
   -2
100
AcDbTrace
 10
58
 20
-1.5
 30
0
 11
58.41628465777284
 21
-4
 31
0
 12
57.58371534222716
 22
-4
 32
0
 13
57.58371534222716
 23
-4
 33
0
  0
MTEXT
  5
E2
100
AcDbEntity
  8
Dimms
  6
CONTINUOUS
 62
    0
370
   -2
100
AcDbMText
 10
56.125
 20
4.479166666666667
 30
0
 40
2.5
 41
7.708333333333334
 71
    5
 72
    1
  1
1 1/2
  7
standard
210
0
220
0
230
1
 50
90
 73
    2
 44
1
  0
LINE
  5
E3
100
AcDbEntity
  8
Dimms
  6
ByBlock
 62
    0
370
   -2
100
AcDbLine
 10
58.375
 20
7.654042494670958e-17
 11
56.75
 21
-6.896375503161215e-17
  0
LINE
  5
E4
100
AcDbEntity
  8
Dimms
  6
ByBlock
 62
    0
370
   -2
100
AcDbLine
 10
58.375
 20
-1.5
 11
56.75
 21
-1.5
  0
ENDBLK
  5
7E
330
7C
100
AcDbEntity
  8
0
100
AcDbBlockEnd
  0
BLOCK
  5
80
330
7F
100
AcDbEntity
  8
0
100
AcDbBlockBegin
  2
*D14
 70
    1
 10
0
 20
0
  3
*D14
  1

  0
LINE
  5
E5
100
AcDbEntity
  8
Dimms
  6
ByBlock
 62
    0
370
   -2
100
AcDbLine
 10
20
 20
29
 11
20
 21
18.25
  0
SOLID
  5
E6
100
AcDbEntity
  8
Dimms
  6
ByBlock
 62
    0
370
   -2
100
AcDbTrace
 10
20
 20
24
 30
0
 11
19.58371534222716
 21
26.5
 31
0
 12
20.41628465777284
 22
26.5
 32
0
 13
20.41628465777284
 23
26.5
 33
0
  0
SOLID
  5
E7
100
AcDbEntity
  8
Dimms
  6
ByBlock
 62
    0
370
   -2
100
AcDbTrace
 10
20
 20
23.25
 30
0
 11
20.41628465777284
 21
20.75
 31
0
 12
19.58371534222716
 22
20.75
 32
0
 13
19.58371534222716
 23
20.75
 33
0
  0
MTEXT
  5
E8
100
AcDbEntity
  8
Dimms
  6
CONTINUOUS
 62
    0
370
   -2
100
AcDbMText
 10
18.125
 20
27.26388888888897
 30
0
 40
2.5
 41
5.277777777777933
 71
    5
 72
    1
  1
3/4
  7
standard
210
0
220
0
230
1
 50
90
 73
    2
 44
1
  0
LINE
  5
E9
100
AcDbEntity
  8
Dimms
  6
ByBlock
 62
    0
370
   -2
100
AcDbLine
 10
20.375
 20
24
 11
18.75
 21
24
  0
LINE
  5
EA
100
AcDbEntity
  8
Dimms
  6
ByBlock
 62
    0
370
   -2
100
AcDbLine
 10
20.375
 20
23.25
 11
18.75
 21
23.25
  0
ENDBLK
  5
81
330
7F
100
AcDbEntity
  8
0
100
AcDbBlockEnd
  0
BLOCK
  5
83
330
82
100
AcDbEntity
  8
0
100
AcDbBlockBegin
  2
*D10
 70
    1
 10
0
 20
0
  3
*D10
  1

  0
LINE
  5
EB
100
AcDbEntity
  8
Dimms
  6
ByBlock
 62
    0
370
   -2
100
AcDbLine
 10
58
 20
34
 11
58
 21
24
  0
SOLID
  5
EC
100
AcDbEntity
  8
Dimms
  6
ByBlock
 62
    0
370
   -2
100
AcDbTrace
 10
58
 20
34
 30
0
 11
58.41628465777284
 21
31.5
 31
0
 12
57.58371534222716
 22
31.5
 32
0
 13
57.58371534222716
 23
31.5
 33
0
  0
SOLID
  5
ED
100
AcDbEntity
  8
Dimms
  6
ByBlock
 62
    0
370
   -2
100
AcDbTrace
 10
58
 20
24
 30
0
 11
57.58371534222716
 21
26.5
 31
0
 12
58.41628465777284
 22
26.5
 32
0
 13
58.41628465777284
 23
26.5
 33
0
  0
MTEXT
  5
EE
100
AcDbEntity
  8
Dimms
  6
CONTINUOUS
 62
    0
370
   -2
100
AcDbMText
 10
56.125
 20
29
 30
0
 40
2.5
 41
2.5
 71
    5
 72
    1
  1
10
  7
standard
210
0
220
0
230
1
 50
90
 73
    2
 44
1
  0
LINE
  5
EF
100
AcDbEntity
  8
Dimms
  6
ByBlock
 62
    0
370
   -2
100
AcDbLine
 10
58.375
 20
34
 11
56.75
 21
34
  0
LINE
  5
F0
100
AcDbEntity
  8
Dimms
  6
ByBlock
 62
    0
370
   -2
100
AcDbLine
 10
58.375
 20
24
 11
56.75
 21
24
  0
ENDBLK
  5
84
330
82
100
AcDbEntity
  8
0
100
AcDbBlockEnd
  0
BLOCK
  5
86
330
85
100
AcDbEntity
  8
0
100
AcDbBlockBegin
  2
*D1
 70
    1
 10
0
 20
0
  3
*D1
  1

  0
LINE
  5
F1
100
AcDbEntity
  8
Dimms
  6
ByBlock
 62
    0
370
   -2
100
AcDbLine
 10
19.25
 20
62
 11
30
 21
62
  0
SOLID
  5
F2
100
AcDbEntity
  8
Dimms
  6
ByBlock
 62
    0
370
   -2
100
AcDbTrace
 10
24.25
 20
62
 30
0
 11
21.75
 21
61.58371534222716
 31
0
 12
21.75
 22
62.41628465777284
 32
0
 13
21.75
 23
62.41628465777284
 33
0
  0
SOLID
  5
F3
100
AcDbEntity
  8
Dimms
  6
ByBlock
 62
    0
370
   -2
100
AcDbTrace
 10
25
 20
62
 30
0
 11
27.5
 21
62.41628465777284
 31
0
 12
27.5
 22
61.58371534222716
 32
0
 13
27.5
 23
61.58371534222716
 33
0
  0
MTEXT
  5
F4
100
AcDbEntity
  8
Dimms
  6
CONTINUOUS
 62
    0
370
   -2
100
AcDbMText
 10
28.26388888888897
 20
63.875
 30
0
 40
2.5
 41
5.277777777777933
 71
    5
 72
    1
  1
3/4
  7
standard
210
0
220
0
230
1
 50
0
 73
    2
 44
1
  0
LINE
  5
F5
100
AcDbEntity
  8
Dimms
  6
ByBlock
 62
    0
370
   -2
100
AcDbLine
 10
24.25
 20
61.625
 11
24.25
 21
63.25
  0
LINE
  5
F6
100
AcDbEntity
  8
Dimms
  6
ByBlock
 62
    0
370
   -2
100
AcDbLine
 10
25
 20
61.625
 11
25
 21
63.25
  0
ENDBLK
  5
87
330
85
100
AcDbEntity
  8
0
100
AcDbBlockEnd
  0
BLOCK
  5
89
330
88
100
AcDbEntity
  8
0
100
AcDbBlockBegin
  2
*D8
 70
    1
 10
0
 20
0
  3
*D8
  1

  0
LINE
  5
F7
100
AcDbEntity
  8
Dimms
  6
ByBlock
 62
    0
370
   -2
100
AcDbLine
 10
24
 20
36
 11
61
 21
36
  0
SOLID
  5
F8
100
AcDbEntity
  8
Dimms
  6
ByBlock
 62
    0
370
   -2
100
AcDbTrace
 10
24
 20
36
 30
0
 11
26.5
 21
36.41628465777284
 31
0
 12
26.5
 22
35.58371534222716
 32
0
 13
26.5
 23
35.58371534222716
 33
0
  0
SOLID
  5
F9
100
AcDbEntity
  8
Dimms
  6
ByBlock
 62
    0
370
   -2
100
AcDbTrace
 10
61
 20
36
 30
0
 11
58.5
 21
35.58371534222716
 31
0
 12
58.5
 22
36.41628465777284
 32
0
 13
58.5
 23
36.41628465777284
 33
0
  0
MTEXT
  5
FA
100
AcDbEntity
  8
Dimms
  6
CONTINUOUS
 62
    0
370
   -2
100
AcDbMText
 10
42.5
 20
37.875
 30
0
 40
2.5
 41
3.055555555555711
 71
    5
 72
    1
  1
37
  7
standard
210
0
220
0
230
1
 50
0
 73
    2
 44
1
  0
LINE
  5
FB
100
AcDbEntity
  8
Dimms
  6
ByBlock
 62
    0
370
   -2
100
AcDbLine
 10
24
 20
34.625
 11
24
 21
37.25
  0
LINE
  5
FC
100
AcDbEntity
  8
Dimms
  6
ByBlock
 62
    0
370
   -2
100
AcDbLine
 10
61
 20
34.625
 11
61
 21
37.25
  0
ENDBLK
  5
8A
330
88
100
AcDbEntity
  8
0
100
AcDbBlockEnd
  0
ENDSEC
  0
SECTION
  2
ENTITIES
  0
LINE
  5
FD
100
AcDbEntity
  8
Main
  6
ByLayer
 62
  256
370
   -1
100
AcDbLine
 10
24
 20
24
 11
24
 21
34
  0
LINE
  5
FE
100
AcDbEntity
  8
Main
  6
ByLayer
 62
  256
370
   -1
100
AcDbLine
 10
61
 20
34
 11
61
 21
24
  0
LINE
  5
FF
100
AcDbEntity
  8
Main
  6
ByLayer
 62
  256
370
   -1
100
AcDbLine
 10
42.5
 20
0
 11
25
 21
0
  0
LINE
  5
100
100
AcDbEntity
  8
Main
  6
ByLayer
 62
  256
370
   -1
100
AcDbLine
 10
25
 20
0
 11
24
 21
24
  0
LINE
  5
101
100
AcDbEntity
  8
Main
  6
ByLayer
 62
  256
370
   -1
100
AcDbLine
 10
42.5
 20
0
 11
60
 21
0
  0
LINE
  5
102
100
AcDbEntity
  8
Main
  6
ByLayer
 62
  256
370
   -1
100
AcDbLine
 10
60
 20
0
 11
61
 21
24
  0
LINE
  5
103
100
AcDbEntity
  8
Main
  6
ByLayer
 62
  256
370
   -1
100
AcDbLine
 10
42.5
 20
58
 11
25
 21
58
  0
LINE
  5
104
100
AcDbEntity
  8
Main
  6
ByLayer
 62
  256
370
   -1
100
AcDbLine
 10
25
 20
58
 11
24
 21
34
  0
LINE
  5
105
100
AcDbEntity
  8
Main
  6
ByLayer
 62
  256
370
   -1
100
AcDbLine
 10
42.5
 20
58
 11
60
 21
58
  0
LINE
  5
106
100
AcDbEntity
  8
Main
  6
ByLayer
 62
  256
370
   -1
100
AcDbLine
 10
60
 20
58
 11
61
 21
34
  0
LINE
  5
107
100
AcDbEntity
  8
Main
  6
ByLayer
 62
  256
370
   -1
100
AcDbLine
 10
61
 20
24
 11
24
 21
24
  0
LINE
  5
108
100
AcDbEntity
  8
Main
  6
ByLayer
 62
  256
370
   -1
100
AcDbLine
 10
24
 20
34
 11
61
 21
34
  0
LINE
  5
109
100
AcDbEntity
  8
Main2
  6
ByLayer
 62
  256
370
   -1
100
AcDbLine
 10
63
 20
34
 11
63
 21
24
  0
LINE
  5
10A
100
AcDbEntity
  8
Main2
  6
ByLayer
 62
  256
370
   -1
100
AcDbLine
 10
87
 20
38
 11
87
 21
20
  0
LINE
  5
10B
100
AcDbEntity
  8
Main2
  6
ByLayer
 62
  256
370
   -1
100
AcDbLine
 10
87
 20
20
 11
63
 21
24
  0
LINE
  5
10C
100
AcDbEntity
  8
Main2
  6
ByLayer
 62
  256
370
   -1
100
AcDbLine
 10
63
 20
34
 11
87
 21
38
  0
LINE
  5
10D
100
AcDbEntity
  8
Main2
  6
ByLayer
 62
  256
370
   -1
100
AcDbLine
 10
22
 20
34
 11
22
 21
24
  0
LINE
  5
10E
100
AcDbEntity
  8
Main2
  6
ByLayer
 62
  256
370
   -1
100
AcDbLine
 10
-2
 20
38
 11
-2
 21
20
  0
LINE
  5
10F
100
AcDbEntity
  8
Main2
  6
ByLayer
 62
  256
370
   -1
100
AcDbLine
 10
-2
 20
20
 11
22
 21
24
  0
LINE
  5
110
100
AcDbEntity
  8
Main2
  6
ByLayer
 62
  256
370
   -1
100
AcDbLine
 10
22
 20
34
 11
-2
 21
38
  0
LINE
  5
111
100
AcDbEntity
  8
SeamAllowance
  6
ByLayer
 62
  256
370
   -1
100
AcDbLine
 10
23.25
 20
34
 11
23.25
 21
24
  0
LINE
  5
112
100
AcDbEntity
  8
SeamAllowance
  6
ByLayer
 62
  256
370
   -1
100
AcDbLine
 10
23.25
 20
24
 11
24.625
 21
0
  0
LINE
  5
113
100
AcDbEntity
  8
SeamAllowance
  6
ByLayer
 62
  256
370
   -1
100
AcDbLine
 10
24.625
 20
0
 11
24.625
 21
-1.5
  0
LINE
  5
114
100
AcDbEntity
  8
SeamAllowance
  6
ByLayer
 62
  256
370
   -1
100
AcDbLine
 10
24.625
 20
-1.5
 11
60
 21
-1.5
  0
LINE
  5
115
100
AcDbEntity
  8
SeamAllowance
  6
ByLayer
 62
  256
370
   -1
100
AcDbLine
 10
60.75
 20
-1.5
 11
60.75
 21
0
  0
LINE
  5
116
100
AcDbEntity
  8
SeamAllowance
  6
ByLayer
 62
  256
370
   -1
100
AcDbLine
 10
60.75
 20
0
 11
61.75
 21
24
  0
LINE
  5
117
100
AcDbEntity
  8
SeamAllowance
  6
ByLayer
 62
  256
370
   -1
100
AcDbLine
 10
23.25
 20
34
 11
24.25
 21
58
  0
LINE
  5
118
100
AcDbEntity
  8
SeamAllowance
  6
ByLayer
 62
  256
370
   -1
100
AcDbLine
 10
24.25
 20
58
 11
24.25
 21
59.5
  0
LINE
  5
119
100
AcDbEntity
  8
SeamAllowance
  6
ByLayer
 62
  256
370
   -1
100
AcDbLine
 10
24.25
 20
59.5
 11
60.75
 21
59.5
  0
LINE
  5
11A
100
AcDbEntity
  8
SeamAllowance
  6
ByLayer
 62
  256
370
   -1
100
AcDbLine
 10
60.75
 20
59.5
 11
60.75
 21
58
  0
LINE
  5
11B
100
AcDbEntity
  8
SeamAllowance
  6
ByLayer
 62
  256
370
   -1
100
AcDbLine
 10
60.75
 20
58
 11
61.75
 21
34
  0
LINE
  5
11C
100
AcDbEntity
  8
SeamAllowance
  6
ByLayer
 62
  256
370
   -1
100
AcDbLine
 10
61.75
 20
34
 11
61.75
 21
24
  0
LINE
  5
11D
100
AcDbEntity
  8
SeamAllowance
  6
ByLayer
 62
  256
370
   -1
100
AcDbLine
 10
62.25
 20
24
 11
62.25
 21
34
  0
LINE
  5
11E
100
AcDbEntity
  8
SeamAllowance
  6
ByLayer
 62
  256
370
   -1
100
AcDbLine
 10
62.25
 20
34
 11
62.25
 21
34.75
  0
LINE
  5
11F
100
AcDbEntity
  8
SeamAllowance
  6
ByLayer
 62
  256
370
   -1
100
AcDbLine
 10
62.25
 20
34.75
 11
63
 21
34.75
  0
LINE
  5
120
100
AcDbEntity
  8
SeamAllowance
  6
ByLayer
 62
  256
370
   -1
100
AcDbLine
 10
63
 20
34.75
 11
87
 21
38.75
  0
LINE
  5
121
100
AcDbEntity
  8
SeamAllowance
  6
ByLayer
 62
  256
370
   -1
100
AcDbLine
 10
87
 20
38.75
 11
88.5
 21
38.75
  0
LINE
  5
122
100
AcDbEntity
  8
SeamAllowance
  6
ByLayer
 62
  256
370
   -1
100
AcDbLine
 10
88.5
 20
38.75
 11
88.5
 21
19.25
  0
LINE
  5
123
100
AcDbEntity
  8
SeamAllowance
  6
ByLayer
 62
  256
370
   -1
100
AcDbLine
 10
88.5
 20
19.25
 11
87
 21
19.25
  0
LINE
  5
124
100
AcDbEntity
  8
SeamAllowance
  6
ByLayer
 62
  256
370
   -1
100
AcDbLine
 10
87
 20
19.25
 11
63
 21
23.25
  0
LINE
  5
125
100
AcDbEntity
  8
SeamAllowance
  6
ByLayer
 62
  256
370
   -1
100
AcDbLine
 10
63
 20
23.25
 11
62.25
 21
23.25
  0
LINE
  5
126
100
AcDbEntity
  8
SeamAllowance
  6
ByLayer
 62
  256
370
   -1
100
AcDbLine
 10
62.25
 20
23.25
 11
62.25
 21
24
  0
LINE
  5
127
100
AcDbEntity
  8
SeamAllowance
  6
ByLayer
 62
  256
370
   -1
100
AcDbLine
 10
22.75
 20
24
 11
22.75
 21
34
  0
LINE
  5
128
100
AcDbEntity
  8
SeamAllowance
  6
ByLayer
 62
  256
370
   -1
100
AcDbLine
 10
22.75
 20
34
 11
22.75
 21
34.75
  0
LINE
  5
129
100
AcDbEntity
  8
SeamAllowance
  6
ByLayer
 62
  256
370
   -1
100
AcDbLine
 10
22.75
 20
34.75
 11
22
 21
34.75
  0
LINE
  5
12A
100
AcDbEntity
  8
SeamAllowance
  6
ByLayer
 62
  256
370
   -1
100
AcDbLine
 10
22
 20
34.75
 11
-2
 21
38.75
  0
LINE
  5
12B
100
AcDbEntity
  8
SeamAllowance
  6
ByLayer
 62
  256
370
   -1
100
AcDbLine
 10
-2
 20
38.75
 11
-3.5
 21
38.75
  0
LINE
  5
12C
100
AcDbEntity
  8
SeamAllowance
  6
ByLayer
 62
  256
370
   -1
100
AcDbLine
 10
-3.5
 20
38.75
 11
-3.5
 21
19.25
  0
LINE
  5
12D
100
AcDbEntity
  8
SeamAllowance
  6
ByLayer
 62
  256
370
   -1
100
AcDbLine
 10
-3.5
 20
19.25
 11
-2
 21
19.25
  0
LINE
  5
12E
100
AcDbEntity
  8
SeamAllowance
  6
ByLayer
 62
  256
370
   -1
100
AcDbLine
 10
-2
 20
19.25
 11
22
 21
23.25
  0
LINE
  5
12F
100
AcDbEntity
  8
SeamAllowance
  6
ByLayer
 62
  256
370
   -1
100
AcDbLine
 10
22
 20
23.25
 11
22.75
 21
23.25
  0
LINE
  5
130
100
AcDbEntity
  8
SeamAllowance
  6
ByLayer
 62
  256
370
   -1
100
AcDbLine
 10
22.75
 20
23.25
 11
22.75
 21
24
  0
LINE
  5
131
100
AcDbEntity
  8
SeamAllowance
  6
ByLayer
 62
  256
370
   -1
100
AcDbLine
 10
87.75
 20
19.25
 11
87.75
 21
38.75
  0
LINE
  5
132
100
AcDbEntity
  8
SeamAllowance
  6
ByLayer
 62
  256
370
   -1
100
AcDbLine
 10
60.75
 20
58.75
 11
24.25
 21
58.75
  0
LINE
  5
133
100
AcDbEntity
  8
SeamAllowance
  6
ByLayer
 62
  256
370
   -1
100
AcDbLine
 10
-2.75
 20
38.75
 11
-2.75
 21
19.25
  0
LINE
  5
134
100
AcDbEntity
  8
SeamAllowance
  6
ByLayer
 62
  256
370
   -1
100
AcDbLine
 10
24.625
 20
-0.75
 11
60.75
 21
-0.75
  0
LINE
  5
135
100
AcDbEntity
  8
SeamAllowance
  6
ByLayer
 62
  256
370
   -1
100
AcDbLine
 10
60
 20
-1.5
 11
60.75
 21
-1.5
  0
DIMENSION
  5
136
100
AcDbEntity
  8
Dimms
  6
ByLayer
 62
  256
370
   -1
100
AcDbDimension
  2
*D1
 10
25
 20
62
 30
0
 11
24.625
 21
63.875
 31
0
 70
   32
 71
    5
  3
Standard
 53
0
210
0
220
0
230
1
100
AcDbAlignedDimension
 13
24.25
 23
61
 33
0
 14
25
 24
61
 34
0
100
AcDbRotatedDimension
  0
DIMENSION
  5
137
100
AcDbEntity
  8
Dimms
  6
ByLayer
 62
  256
370
   -1
100
AcDbDimension
  2
*D2
 10
60
 20
62
 30
0
 11
42.5
 21
63.875
 31
0
 70
   32
 71
    5
  3
Standard
 53
0
210
0
220
0
230
1
100
AcDbAlignedDimension
 13
25
 23
61
 33
0
 14
60
 24
61
 34
0
100
AcDbRotatedDimension
  0
DIMENSION
  5
138
100
AcDbEntity
  8
Dimms
  6
ByLayer
 62
  256
370
   -1
100
AcDbDimension
  2
*D3
 10
60.75
 20
62
 30
0
 11
60.375
 21
63.875
 31
0
 70
   32
 71
    5
  3
Standard
 53
0
210
0
220
0
230
1
100
AcDbAlignedDimension
 13
60
 23
61
 33
0
 14
60.75
 24
61
 34
0
100
AcDbRotatedDimension
  0
DIMENSION
  5
139
100
AcDbEntity
  8
Dimms
  6
ByLayer
 62
  256
370
   -1
100
AcDbDimension
  2
*D4
 10
63
 20
41
 30
0
 11
75
 21
42.875
 31
0
 70
   32
 71
    5
  3
Standard
 53
0
210
0
220
0
230
1
100
AcDbAlignedDimension
 13
87
 23
40
 33
0
 14
63
 24
40
 34
0
100
AcDbRotatedDimension
  0
DIMENSION
  5
13A
100
AcDbEntity
  8
Dimms
  6
ByLayer
 62
  256
370
   -1
100
AcDbDimension
  2
*D5
 10
62.25
 20
41
 30
0
 11
62.625
 21
42.875
 31
0
 70
   32
 71
    5
  3
Standard
 53
0
210
0
220
0
230
1
100
AcDbAlignedDimension
 13
63
 23
40
 33
0
 14
62.25
 24
40
 34
0
100
AcDbRotatedDimension
  0
DIMENSION
  5
13B
100
AcDbEntity
  8
Dimms
  6
ByLayer
 62
  256
370
   -1
100
AcDbDimension
  2
*D6
 10
88.5
 20
41
 30
0
 11
87.75
 21
42.875
 31
0
 70
   32
 71
    5
  3
Standard
 53
0
210
0
220
0
230
1
100
AcDbAlignedDimension
 13
87
 23
40
 33
0
 14
88.5
 24
40
 34
0
100
AcDbRotatedDimension
  0
DIMENSION
  5
13C
100
AcDbEntity
  8
Dimms
  6
ByLayer
 62
  256
370
   -1
100
AcDbDimension
  2
*D7
 10
24
 20
36
 30
0
 11
23.625
 21
37.875
 31
0
 70
   32
 71
    5
  3
Standard
 53
0
210
0
220
0
230
1
100
AcDbAlignedDimension
 13
23.25
 23
34
 33
0
 14
24
 24
34
 34
0
100
AcDbRotatedDimension
  0
DIMENSION
  5
13D
100
AcDbEntity
  8
Dimms
  6
ByLayer
 62
  256
370
   -1
100
AcDbDimension
  2
*D8
 10
61
 20
36
 30
0
 11
42.5
 21
37.875
 31
0
 70
   32
 71
    5
  3
Standard
 53
0
210
0
220
0
230
1
100
AcDbAlignedDimension
 13
24
 23
34
 33
0
 14
61
 24
34
 34
0
100
AcDbRotatedDimension
  0
DIMENSION
  5
13E
100
AcDbEntity
  8
Dimms
  6
ByLayer
 62
  256
370
   -1
100
AcDbDimension
  2
*D9
 10
61.75
 20
36
 30
0
 11
61.375
 21
37.875
 31
0
 70
   32
 71
    5
  3
Standard
 53
0
210
0
220
0
230
1
100
AcDbAlignedDimension
 13
61
 23
34
 33
0
 14
61.75
 24
34
 34
0
100
AcDbRotatedDimension
  0
DIMENSION
  5
13F
100
AcDbEntity
  8
Dimms
  6
ByLayer
 62
  256
370
   -1
100
AcDbDimension
  2
*D10
 10
58
 20
24
 30
0
 11
56.125
 21
29
 31
0
 70
   32
 71
    5
  3
Standard
 53
0
210
0
220
0
230
1
100
AcDbAlignedDimension
 13
59
 23
34
 33
0
 14
59
 24
24
 34
0
 50
90
100
AcDbRotatedDimension
  0
DIMENSION
  5
140
100
AcDbEntity
  8
Dimms
  6
ByLayer
 62
  256
370
   -1
100
AcDbDimension
  2
*D11
 10
58
 20
1.224646799147353e-16
 30
0
 11
56.125
 21
12
 31
0
 70
   32
 71
    5
  3
Standard
 53
0
210
0
220
0
230
1
100
AcDbAlignedDimension
 13
59
 23
24
 33
0
 14
59
 24
0
 34
0
 50
90
100
AcDbRotatedDimension
  0
DIMENSION
  5
141
100
AcDbEntity
  8
Dimms
  6
ByLayer
 62
  256
370
   -1
100
AcDbDimension
  2
*D12
 10
58
 20
-1.5
 30
0
 11
56.125
 21
-0.7499999999999998
 31
0
 70
   32
 71
    5
  3
Standard
 53
0
210
0
220
0
230
1
100
AcDbAlignedDimension
 13
59
 23
0
 33
0
 14
59
 24
-1.5
 34
0
 50
90
100
AcDbRotatedDimension
  0
DIMENSION
  5
142
100
AcDbEntity
  8
Dimms
  6
ByLayer
 62
  256
370
   -1
100
AcDbDimension
  2
*D13
 10
20
 20
34
 30
0
 11
18.125
 21
34.375
 31
0
 70
   32
 71
    5
  3
Standard
 53
0
210
0
220
0
230
1
100
AcDbAlignedDimension
 13
21
 23
34.75
 33
0
 14
21
 24
34
 34
0
 50
90
100
AcDbRotatedDimension
  0
DIMENSION
  5
143
100
AcDbEntity
  8
Dimms
  6
ByLayer
 62
  256
370
   -1
100
AcDbDimension
  2
*D14
 10
20
 20
23.25
 30
0
 11
18.125
 21
23.625
 31
0
 70
   32
 71
    5
  3
Standard
 53
0
210
0
220
0
230
1
100
AcDbAlignedDimension
 13
21
 23
24
 33
0
 14
21
 24
23.25
 34
0
 50
90
100
AcDbRotatedDimension
  0
DIMENSION
  5
144
100
AcDbEntity
  8
Dimms
  6
ByLayer
 62
  256
370
   -1
100
AcDbDimension
  2
*D15
 10
-5
 20
38
 30
0
 11
-6.875
 21
38.375
 31
0
 70
   32
 71
    5
  3
Standard
 53
0
210
0
220
0
230
1
100
AcDbAlignedDimension
 13
-4
 23
38.75
 33
0
 14
-4
 24
38
 34
0
 50
90
100
AcDbRotatedDimension
  0
DIMENSION
  5
145
100
AcDbEntity
  8
Dimms
  6
ByLayer
 62
  256
370
   -1
100
AcDbDimension
  2
*D16
 10
-5
 20
20
 30
0
 11
-6.875
 21
29
 31
0
 70
   32
 71
    5
  3
Standard
 53
0
210
0
220
0
230
1
100
AcDbAlignedDimension
 13
-4
 23
38
 33
0
 14
-4
 24
20
 34
0
 50
90
100
AcDbRotatedDimension
  0
DIMENSION
  5
146
100
AcDbEntity
  8
Dimms
  6
ByLayer
 62
  256
370
   -1
100
AcDbDimension
  2
*D17
 10
-5
 20
19.25
 30
0
 11
-6.875
 21
19.625
 31
0
 70
   32
 71
    5
  3
Standard
 53
0
210
0
220
0
230
1
100
AcDbAlignedDimension
 13
-4
 23
20
 33
0
 14
-4
 24
19.25
 34
0
 50
90
100
AcDbRotatedDimension
  0
DIMENSION
  5
147
100
AcDbEntity
  8
Dimms
  6
ByLayer
 62
  256
370
   -1
100
AcDbDimension
  2
*D18
 10
15
 20
24
 30
0
 11
13.125
 21
29
 31
0
 70
   32
 71
    5
  3
Standard
 53
0
210
0
220
0
230
1
100
AcDbAlignedDimension
 13
20.5
 23
34
 33
0
 14
20.5
 24
24
 34
0
 50
90
100
AcDbRotatedDimension
  0
LINE
  5
148
100
AcDbEntity
  8
BallChain
  6
ByLayer
 62
  256
370
   -1
100
AcDbLine
 10
0
 20
-12
 11
107
 21
-12
  0
DIMENSION
  5
149
100
AcDbEntity
  8
Dimms
  6
ByLayer
 62
  256
370
   -1
100
AcDbDimension
  2
*D19
 10
-1.224646799147352e-16
 20
-16
 30
0
 11
53.5
 21
-14.125
 31
0
 70
   32
 71
    5
  3
Standard
 53
0
210
0
220
0
230
1
100
AcDbAlignedDimension
 13
107
 23
-13
 33
0
 14
0
 24
-14
 34
0
100
AcDbRotatedDimension
  0
ENDSEC
  0
SECTION
  2
OBJECTS
  0
DICTIONARY
  5
C
330
0
100
AcDbDictionary
281
    1
  3
ACAD_GROUP
350
D
  0
DICTIONARY
  5
D
330
C
100
AcDbDictionary
281
    1
  0
ENDSEC
  0
EOF
