999
dxfrw 0.5.10
0
SECTION
2
HEADER
9
$ACADVER
1
AC1021
9
$HANDSEED
5
20000
9
$DWGCODEPAGE
3
ANSI_1252
9
$INSBASE
10
0
20
0
30
0
9
$EXTMIN
10
0
20
0
30
0
9
$EXTMAX
10
321.25
20
203.125
30
0
9
$LIMMIN
10
0
20
0
9
$LIMMAX
10
420
20
297
9
$ORTHOMODE
70
0
9
$LTSCALE
40
1
9
$TEXTSTYLE
7
STANDARD
9
$CLAYER
8
Fastners-m6x50rod
9
$DIMASZ
40
2.5
9
$DIMLFAC
40
1
9
$DIMSCALE
40
1
9
$DIMEXO
40
0.625
9
$DIMEXE
40
1.25
9
$DIMTXT
40
2.5
9
$DIMTSZ
40
0
9
$DIMAUNIT
70
0
9
$DIMADEC
70
0
9
$DIMLUNIT
70
2
9
$DIMSTYLE
2
STANDARD
9
$DIMGAP
40
0.625
9
$DIMTIH
70
0
9
$LUNITS
70
2
9
$LUPREC
70
4
9
$AUNITS
70
0
9
$AUPREC
70
2
9
$SPLINESEGS
70
8
9
$GRIDMODE
70
1
9
$SNAPSTYLE
70
0
9
$PINSBASE
10
-20.9277018593
20
-12.5072192545
30
0
9
$PLIMMIN
10
0
20
0
9
$PLIMMAX
10
297
20
210
9
$INSUNITS
70
4
9
$PSVPSCALE
40
0.906667633779
0
ENDSEC
0
SECTION
2
CLASSES
0
ENDSEC
0
SECTION
2
TABLES
0
TABLE
2
VPORT
5
8
330
0
100
AcDbSymbolTable
70
1
0
VPORT
5
31
330
2
100
AcDbSymbolTableRecord
100
AcDbViewportTableRecord
2
*ACTIVE
70
0
10
0
20
0
11
1
21
1
12
151.36
22
94.16
13
0
23
0
14
10
24
10
15
10
25
10
16
0
26
0
36
1
17
0
27
0
37
0
40
125.44
41
2.04464285714
42
50
43
0
44
0
50
0
51
0
71
0
72
100
73
1
74
3
75
0
76
1
77
0
78
0
281
0
65
1
110
0
120
0
130
0
111
1
121
0
131
0
112
0
122
1
132
0
79
0
146
0
348
10020
60
7
61
5
292
1
282
1
141
0
142
0
63
250
421
3358443
0
ENDTAB
0
TABLE
2
LTYPE
5
5
330
0
100
AcDbSymbolTable
70
4
0
LTYPE
5
14
330
5
100
AcDbSymbolTableRecord
100
AcDbLinetypeTableRecord
2
ByBlock
70
0
3

72
65
73
0
40
0
0
LTYPE
5
15
330
5
100
AcDbSymbolTableRecord
100
AcDbLinetypeTableRecord
2
ByLayer
70
0
3

72
65
73
0
40
0
0
LTYPE
5
16
330
5
100
AcDbSymbolTableRecord
100
AcDbLinetypeTableRecord
2
Continuous
70
0
3
Solid line
72
65
73
0
40
0
0
LTYPE
5
32
330
5
100
AcDbSymbolTableRecord
100
AcDbLinetypeTableRecord
2
DOT
70
0
3
Dot . . . . . . . . . . . . . . . . . . . . . .
72
65
73
2
40
6.35
49
0
74
0
49
-6.35
74
0
0
LTYPE
5
33
330
5
100
AcDbSymbolTableRecord
100
AcDbLinetypeTableRecord
2
DOT2
70
0
3
Dot (.5x) .....................................
72
65
73
2
40
3.175
49
0
74
0
49
-3.175
74
0
0
LTYPE
5
34
330
5
100
AcDbSymbolTableRecord
100
AcDbLinetypeTableRecord
2
DOTX2
70
0
3
Dot (2x) .  .  .  .  .  .  .  .  .  .  .  .  .
72
65
73
2
40
12.7
49
0
74
0
49
-12.7
74
0
0
LTYPE
5
35
330
5
100
AcDbSymbolTableRecord
100
AcDbLinetypeTableRecord
2
DASHED
70
0
3
Dot . . . . . . . . . . . . . . . . . . . . . .
72
65
73
2
40
19.05
49
12.7
74
0
49
-6.35
74
0
0
LTYPE
5
36
330
5
100
AcDbSymbolTableRecord
100
AcDbLinetypeTableRecord
2
DASHED2
70
0
3
Dashed (.5x) _ _ _ _ _ _ _ _ _ _ _ _ _ _ _ _ _
72
65
73
2
40
9.525
49
6.35
74
0
49
-3.175
74
0
0
LTYPE
5
37
330
5
100
AcDbSymbolTableRecord
100
AcDbLinetypeTableRecord
2
DASHEDX2
70
0
3
Dashed (2x) ____  ____  ____  ____  ____  ___
72
65
73
2
40
38.1
49
25.4
74
0
49
-12.7
74
0
0
LTYPE
5
38
330
5
100
AcDbSymbolTableRecord
100
AcDbLinetypeTableRecord
2
DASHDOT
70
0
3
Dash dot __ . __ . __ . __ . __ . __ . __ . __
72
65
73
4
40
25.4
49
12.7
74
0
49
-6.35
74
0
49
0
74
0
49
-6.35
74
0
0
LTYPE
5
39
330
5
100
AcDbSymbolTableRecord
100
AcDbLinetypeTableRecord
2
DASHDOT2
70
0
3
Dash dot (.5x) _._._._._._._._._._._._._._._.
72
65
73
4
40
12.7
49
6.35
74
0
49
-3.175
74
0
49
0
74
0
49
-3.175
74
0
0
LTYPE
5
3A
330
5
100
AcDbSymbolTableRecord
100
AcDbLinetypeTableRecord
2
DASHDOTX2
70
0
3
Dash dot (2x) ____  .  ____  .  ____  .  ___
72
65
73
4
40
50.8
49
25.4
74
0
49
-12.7
74
0
49
0
74
0
49
-12.7
74
0
0
LTYPE
5
3B
330
5
100
AcDbSymbolTableRecord
100
AcDbLinetypeTableRecord
2
DIVIDE
70
0
3
Divide ____ . . ____ . . ____ . . ____ . . ____
72
65
73
6
40
31.75
49
12.7
74
0
49
-6.35
74
0
49
0
74
0
49
-6.35
74
0
49
0
74
0
49
-6.35
74
0
0
LTYPE
5
3C
330
5
100
AcDbSymbolTableRecord
100
AcDbLinetypeTableRecord
2
DIVIDE2
70
0
3
Divide (.5x) __..__..__..__..__..__..__..__.._
72
65
73
6
40
15.875
49
6.35
74
0
49
-3.175
74
0
49
0
74
0
49
-3.175
74
0
49
0
74
0
49
-3.175
74
0
0
LTYPE
5
3D
330
5
100
AcDbSymbolTableRecord
100
AcDbLinetypeTableRecord
2
DIVIDEX2
70
0
3
Divide (2x) ________  .  .  ________  .  .  _
72
65
73
6
40
63.5
49
25.4
74
0
49
-12.7
74
0
49
0
74
0
49
-12.7
74
0
49
0
74
0
49
-12.7
74
0
0
LTYPE
5
3E
330
5
100
AcDbSymbolTableRecord
100
AcDbLinetypeTableRecord
2
BORDER
70
0
3
Border __ __ . __ __ . __ __ . __ __ . __ __ .
72
65
73
6
40
44.45
49
12.7
74
0
49
-6.35
74
0
49
12.7
74
0
49
-6.35
74
0
49
0
74
0
49
-6.35
74
0
0
LTYPE
5
3F
330
5
100
AcDbSymbolTableRecord
100
AcDbLinetypeTableRecord
2
BORDER2
70
0
3
Border (.5x) __.__.__.__.__.__.__.__.__.__.__.
72
65
73
6
40
22.225
49
6.35
74
0
49
-3.175
74
0
49
6.35
74
0
49
-3.175
74
0
49
0
74
0
49
-3.175
74
0
0
LTYPE
5
40
330
5
100
AcDbSymbolTableRecord
100
AcDbLinetypeTableRecord
2
BORDERX2
70
0
3
Border (2x) ____  ____  .  ____  ____  .  ___
72
65
73
6
40
88.9
49
25.4
74
0
49
-12.7
74
0
49
25.4
74
0
49
-12.7
74
0
49
0
74
0
49
-12.7
74
0
0
LTYPE
5
41
330
5
100
AcDbSymbolTableRecord
100
AcDbLinetypeTableRecord
2
CENTER
70
0
3
Center ____ _ ____ _ ____ _ ____ _ ____ _ ____
72
65
73
4
40
50.8
49
31.75
74
0
49
-6.35
74
0
49
6.35
74
0
49
-6.35
74
0
0
LTYPE
5
42
330
5
100
AcDbSymbolTableRecord
100
AcDbLinetypeTableRecord
2
CENTER2
70
0
3
Center (.5x) ___ _ ___ _ ___ _ ___ _ ___ _ ___
72
65
73
4
40
28.575
49
19.05
74
0
49
-3.175
74
0
49
3.175
74
0
49
-3.175
74
0
0
LTYPE
5
43
330
5
100
AcDbSymbolTableRecord
100
AcDbLinetypeTableRecord
2
CENTERX2
70
0
3
Center (2x) ________  __  ________  __  _____
72
65
73
4
40
101.6
49
63.5
74
0
49
-12.7
74
0
49
12.7
74
0
49
-12.7
74
0
0
ENDTAB
0
TABLE
2
LAYER
5
2
330
0
100
AcDbSymbolTable
70
1
0
LAYER
5
10
330
2
100
AcDbSymbolTableRecord
100
AcDbLayerTableRecord
2
0
70
4
62
216
420
8388736
6
CONTINUOUS
370
25
390
F
0
LAYER
5
44
330
2
100
AcDbSymbolTableRecord
100
AcDbLayerTableRecord
2
Stock
70
4
62
96
420
32768
6
CONTINUOUS
370
25
390
F
0
LAYER
5
45
330
2
100
AcDbSymbolTableRecord
100
AcDbLayerTableRecord
2
Slides
70
4
62
136
420
32896
6
CONTINUOUS
370
25
390
F
0
LAYER
5
46
330
2
100
AcDbSymbolTableRecord
100
AcDbLayerTableRecord
2
Fastners-m16
70
4
62
56
420
8421376
6
CONTINUOUS
370
25
390
F
0
LAYER
5
47
330
2
100
AcDbSymbolTableRecord
100
AcDbLayerTableRecord
2
Blade
70
4
62
6
6
CONTINUOUS
370
25
390
F
0
LAYER
5
48
330
2
100
AcDbSymbolTableRecord
100
AcDbLayerTableRecord
2
Ruler
70
4
62
2
6
CONTINUOUS
370
25
390
F
0
LAYER
5
49
330
2
100
AcDbSymbolTableRecord
100
AcDbLayerTableRecord
2
Cup
70
4
62
16
420
8388608
6
CONTINUOUS
370
25
390
F
0
LAYER
5
4A
330
2
100
AcDbSymbolTableRecord
100
AcDbLayerTableRecord
2
Fastners-4x12 Dowels
70
4
62
7
6
CONTINUOUS
370
25
390
F
0
LAYER
5
4B
330
2
100
AcDbSymbolTableRecord
100
AcDbLayerTableRecord
2
Washer
70
4
62
4
6
CONTINUOUS
370
25
390
F
0
LAYER
5
4C
330
2
100
AcDbSymbolTableRecord
100
AcDbLayerTableRecord
2
Dimensions
70
4
62
7
6
CONTINUOUS
370
25
390
F
0
LAYER
5
4D
330
2
100
AcDbSymbolTableRecord
100
AcDbLayerTableRecord
2
Fastners-8x50Panhead
70
4
62
253
420
10526884
6
CONTINUOUS
370
25
390
F
0
LAYER
5
4E
330
2
100
AcDbSymbolTableRecord
100
AcDbLayerTableRecord
2
Fastners-m4x12csk
70
4
62
8
6
CONTINUOUS
370
25
390
F
0
LAYER
5
4F
330
2
100
AcDbSymbolTableRecord
100
AcDbLayerTableRecord
2
Fastners-m2x10csk
70
4
62
1
6
CONTINUOUS
370
25
390
F
0
LAYER
5
50
330
2
100
AcDbSymbolTableRecord
100
AcDbLayerTableRecord
2
Fastners-m6x50rod
70
4
62
5
6
CONTINUOUS
370
25
390
F
0
LAYER
5
51
330
2
100
AcDbSymbolTableRecord
100
AcDbLayerTableRecord
2
Spring
70
4
62
3
6
CONTINUOUS
370
25
390
F
0
ENDTAB
0
TABLE
2
STYLE
5
3
330
0
100
AcDbSymbolTable
70
3
0
STYLE
5
52
330
2
100
AcDbSymbolTableRecord
100
AcDbTextStyleTableRecord
2
Standard
70
0
40
0
41
1
50
0
71
0
42
1
3
txt
4

0
ENDTAB
0
TABLE
2
VIEW
5
6
330
0
100
AcDbSymbolTable
70
0
0
ENDTAB
0
TABLE
2
UCS
5
7
330
0
100
AcDbSymbolTable
70
0
0
ENDTAB
0
TABLE
2
APPID
5
9
330
0
100
AcDbSymbolTable
70
1
0
APPID
5
12
330
9
100
AcDbSymbolTableRecord
100
AcDbRegAppTableRecord
2
ACAD
70
0
0
ENDTAB
0
TABLE
2
DIMSTYLE
5
A
330
0
100
AcDbSymbolTable
70
1
100
AcDbDimStyleTable
71
1
0
DIMSTYLE
105
53
330
A
100
AcDbSymbolTableRecord
100
AcDbDimStyleTableRecord
2
Standard
70
0
40
1
41
2.5
42
0.625
43
0.38
44
1.25
45
0
46
0
47
0
48
0
140
2.5
141
0.09
142
0
143
25.4
144
1
145
0
146
1
147
0.625
148
0
71
0
72
0
73
0
74
1
75
0
76
0
77
0
78
0
79
0
170
0
171
2
172
0
173
0
174
0
175
0
176
0
177
0
178
0
179
0
271
4
272
4
273
2
274
2
275
0
276
0
277
2
278
46
279
0
280
0
281
0
282
0
283
1
284
0
285
0
286
0
288
0
289
3
340
Standard
341

371
-2
372
-2
0
ENDTAB
0
TABLE
2
BLOCK_RECORD
5
1
330
0
100
AcDbSymbolTable
70
2
0
BLOCK_RECORD
5
1F
330
1
100
AcDbSymbolTableRecord
100
AcDbBlockTableRecord
2
*Model_Space
70
0
280
1
281
0
0
BLOCK_RECORD
5
1E
330
1
100
AcDbSymbolTableRecord
100
AcDbBlockTableRecord
2
*Paper_Space
70
0
280
1
281
0
0
BLOCK_RECORD
5
54
330
1
100
AcDbSymbolTableRecord
100
AcDbBlockTableRecord
2
*D1
70
0
280
1
281
0
0
BLOCK_RECORD
5
57
330
1
100
AcDbSymbolTableRecord
100
AcDbBlockTableRecord
2
*D9
70
0
280
1
281
0
0
BLOCK_RECORD
5
5A
330
1
100
AcDbSymbolTableRecord
100
AcDbBlockTableRecord
2
*D12
70
0
280
1
281
0
0
BLOCK_RECORD
5
5D
330
1
100
AcDbSymbolTableRecord
100
AcDbBlockTableRecord
2
*D8
70
0
280
1
281
0
0
BLOCK_RECORD
5
60
330
1
100
AcDbSymbolTableRecord
100
AcDbBlockTableRecord
2
*D2
70
0
280
1
281
0
0
BLOCK_RECORD
5
63
330
1
100
AcDbSymbolTableRecord
100
AcDbBlockTableRecord
2
*D7
70
0
280
1
281
0
0
BLOCK_RECORD
5
66
330
1
100
AcDbSymbolTableRecord
100
AcDbBlockTableRecord
2
*D11
70
0
280
1
281
0
0
BLOCK_RECORD
5
69
330
1
100
AcDbSymbolTableRecord
100
AcDbBlockTableRecord
2
*D3
70
0
280
1
281
0
0
BLOCK_RECORD
5
6C
330
1
100
AcDbSymbolTableRecord
100
AcDbBlockTableRecord
2
*D6
70
0
280
1
281
0
0
BLOCK_RECORD
5
6F
330
1
100
AcDbSymbolTableRecord
100
AcDbBlockTableRecord
2
*D13
70
0
280
1
281
0
0
BLOCK_RECORD
5
72
330
1
100
AcDbSymbolTableRecord
100
AcDbBlockTableRecord
2
*D10
70
0
280
1
281
0
0
BLOCK_RECORD
5
75
330
1
100
AcDbSymbolTableRecord
100
AcDbBlockTableRecord
2
*D4
70
0
280
1
281
0
0
BLOCK_RECORD
5
78
330
1
100
AcDbSymbolTableRecord
100
AcDbBlockTableRecord
2
*D5
70
0
280
1
281
0
0
ENDTAB
0
ENDSEC
0
SECTION
2
BLOCKS
0
BLOCK
5
20
330
1F
100
AcDbEntity
8
0
100
AcDbBlockBegin
2
*Model_Space
70
0
10
0
20
0
30
0
3
*Model_Space
1

0
ENDBLK
5
21
330
1F
100
AcDbEntity
8
0
100
AcDbBlockEnd
0
BLOCK
5
1C
330
1B
100
AcDbEntity
8
0
100
AcDbBlockBegin
2
*Paper_Space
70
0
10
0
20
0
30
0
3
*Paper_Space
1

0
ENDBLK
5
1D
330
1F
100
AcDbEntity
8
0
100
AcDbBlockEnd
0
BLOCK
5
55
330
54
100
AcDbEntity
8
0
100
AcDbBlockBegin
2
*D1
70
1
10
0
20
0
3
*D1
1

0
LINE
5
7B
100
AcDbEntity
8
Dimensions
6
CONTINUOUS
62
7
370
0
100
AcDbLine
10
110
20
180
11
290
21
180
0
SOLID
5
7C
100
AcDbEntity
8
Dimensions
6
CONTINUOUS
62
7
370
0
100
AcDbTrace
10
110
20
180
30
0
11
112.5
21
180.416284658
31
0
12
112.5
22
179.583715342
32
0
13
112.5
23
179.583715342
33
0
0
SOLID
5
7D
100
AcDbEntity
8
Dimensions
6
CONTINUOUS
62
7
370
0
100
AcDbTrace
10
290
20
180
30
0
11
287.5
21
179.583715342
31
0
12
287.5
22
180.416284658
32
0
13
287.5
23
180.416284658
33
0
0
MTEXT
5
7E
100
AcDbEntity
8
Dimensions
6
CONTINUOUS
62
7
370
0
100
AcDbMText
10
200
20
181.875
30
0
40
2.5
41
4.44444444444
71
5
72
1
1
180
7
standard
210
0
220
0
230
1
50
0
73
2
44
1
0
LINE
5
7F
100
AcDbEntity
8
Dimensions
6
CONTINUOUS
62
7
370
0
100
AcDbLine
10
110
20
170.625
11
110
21
181.25
0
LINE
5
80
100
AcDbEntity
8
Dimensions
6
CONTINUOUS
62
7
370
0
100
AcDbLine
10
290
20
170.625
11
290
21
181.25
0
ENDBLK
5
56
330
54
100
AcDbEntity
8
0
100
AcDbBlockEnd
0
BLOCK
5
58
330
57
100
AcDbEntity
8
0
100
AcDbBlockBegin
2
*D9
70
1
10
0
20
0
3
*D9
1

0
SOLID
5
81
100
AcDbEntity
8
Dimensions
6
CONTINUOUS
62
7
370
0
100
AcDbTrace
10
145.884571843
20
151.175836616
30
0
11
148.402743903
21
150.889301464
31
0
12
148.174019521
22
150.088766129
32
0
13
148.174019521
23
150.088766129
33
0
0
LINE
5
82
100
AcDbEntity
8
Dimensions
6
CONTINUOUS
62
7
370
0
100
AcDbLine
10
143
20
152
11
151.760551523
21
149.496985278
0
MTEXT
5
83
100
AcDbEntity
8
Dimensions
6
CONTINUOUS
62
7
370
0
100
AcDbMText
10
149.337663798
20
152.13926835
30
0
40
2.5
41
1.11111111111
71
5
72
1
1
3
7
standard
210
0
220
0
230
1
50
344.054604094
73
2
44
1
0
ENDBLK
5
59
330
57
100
AcDbEntity
8
0
100
AcDbBlockEnd
0
BLOCK
5
5B
330
5A
100
AcDbEntity
8
0
100
AcDbBlockBegin
2
*D12
70
1
10
0
20
0
3
*D12
1

0
LINE
5
84
100
AcDbEntity
8
Dimensions
6
CONTINUOUS
62
7
370
0
100
AcDbLine
10
70
20
155
11
70
21
105
0
SOLID
5
85
100
AcDbEntity
8
Dimensions
6
CONTINUOUS
62
7
370
0
100
AcDbTrace
10
70
20
155
30
0
11
70.4162846578
21
152.5
31
0
12
69.5837153422
22
152.5
32
0
13
69.5837153422
23
152.5
33
0
0
SOLID
5
86
100
AcDbEntity
8
Dimensions
6
CONTINUOUS
62
7
370
0
100
AcDbTrace
10
70
20
105
30
0
11
69.5837153422
21
107.5
31
0
12
70.4162846578
22
107.5
32
0
13
70.4162846578
23
107.5
33
0
0
MTEXT
5
87
100
AcDbEntity
8
Dimensions
6
CONTINUOUS
62
7
370
0
100
AcDbMText
10
68.125
20
130
30
0
40
2.5
41
3.05555555556
71
5
72
1
1
50
7
standard
210
0
220
0
230
1
50
90
73
2
44
1
0
LINE
5
88
100
AcDbEntity
8
Dimensions
6
CONTINUOUS
62
7
370
0
100
AcDbLine
10
79.375
20
155
11
68.75
21
155
0
LINE
5
89
100
AcDbEntity
8
Dimensions
6
CONTINUOUS
62
7
370
0
100
AcDbLine
10
79.375
20
105
11
68.75
21
105
0
ENDBLK
5
5C
330
5A
100
AcDbEntity
8
0
100
AcDbBlockEnd
0
BLOCK
5
5E
330
5D
100
AcDbEntity
8
0
100
AcDbBlockBegin
2
*D8
70
1
10
0
20
0
3
*D8
1

0
LINE
5
8A
100
AcDbEntity
8
Dimensions
6
CONTINUOUS
62
7
370
0
100
AcDbLine
10
320
20
145
11
320
21
115
0
SOLID
5
8B
100
AcDbEntity
8
Dimensions
6
CONTINUOUS
62
7
370
0
100
AcDbTrace
10
320
20
145
30
0
11
320.416284658
21
142.5
31
0
12
319.583715342
22
142.5
32
0
13
319.583715342
23
142.5
33
0
0
SOLID
5
8C
100
AcDbEntity
8
Dimensions
6
CONTINUOUS
62
7
370
0
100
AcDbTrace
10
320
20
115
30
0
11
319.583715342
21
117.5
31
0
12
320.416284658
22
117.5
32
0
13
320.416284658
23
117.5
33
0
0
MTEXT
5
8D
100
AcDbEntity
8
Dimensions
6
CONTINUOUS
62
7
370
0
100
AcDbMText
10
318.125
20
130
30
0
40
2.5
41
3.05555555556
71
5
72
1
1
30
7
standard
210
0
220
0
230
1
50
90
73
2
44
1
0
LINE
5
8E
100
AcDbEntity
8
Dimensions
6
CONTINUOUS
62
7
370
0
100
AcDbLine
10
310.625
20
145
11
321.25
21
145
0
LINE
5
8F
100
AcDbEntity
8
Dimensions
6
CONTINUOUS
62
7
370
0
100
AcDbLine
10
310.625
20
115
11
321.25
21
115
0
ENDBLK
5
5F
330
5D
100
AcDbEntity
8
0
100
AcDbBlockEnd
0
BLOCK
5
61
330
60
100
AcDbEntity
8
0
100
AcDbBlockBegin
2
*D2
70
1
10
0
20
0
3
*D2
1

0
LINE
5
90
100
AcDbEntity
8
Dimensions
6
CONTINUOUS
62
7
370
0
100
AcDbLine
10
110
20
200
11
200
21
200
0
SOLID
5
91
100
AcDbEntity
8
Dimensions
6
CONTINUOUS
62
7
370
0
100
AcDbTrace
10
110
20
200
30
0
11
112.5
21
200.416284658
31
0
12
112.5
22
199.583715342
32
0
13
112.5
23
199.583715342
33
0
0
SOLID
5
92
100
AcDbEntity
8
Dimensions
6
CONTINUOUS
62
7
370
0
100
AcDbTrace
10
200
20
200
30
0
11
197.5
21
199.583715342
31
0
12
197.5
22
200.416284658
32
0
13
197.5
23
200.416284658
33
0
0
MTEXT
5
93
100
AcDbEntity
8
Dimensions
6
CONTINUOUS
62
7
370
0
100
AcDbMText
10
155
20
201.875
30
0
40
2.5
41
3.05555555556
71
5
72
1
1
90
7
standard
210
0
220
0
230
1
50
0
73
2
44
1
0
LINE
5
94
100
AcDbEntity
8
Dimensions
6
CONTINUOUS
62
7
370
0
100
AcDbLine
10
110
20
190.625
11
110
21
201.25
0
LINE
5
95
100
AcDbEntity
8
Dimensions
6
CONTINUOUS
62
7
370
0
100
AcDbLine
10
200
20
190.625
11
200
21
201.25
0
ENDBLK
5
62
330
60
100
AcDbEntity
8
0
100
AcDbBlockEnd
0
BLOCK
5
64
330
63
100
AcDbEntity
8
0
100
AcDbBlockBegin
2
*D7
70
1
10
0
20
0
3
*D7
1

0
LINE
5
96
100
AcDbEntity
8
Dimensions
6
CONTINUOUS
62
7
370
0
100
AcDbLine
10
200
20
80
11
290
21
80
0
SOLID
5
97
100
AcDbEntity
8
Dimensions
6
CONTINUOUS
62
7
370
0
100
AcDbTrace
10
200
20
80
30
0
11
202.5
21
80.4162846578
31
0
12
202.5
22
79.5837153422
32
0
13
202.5
23
79.5837153422
33
0
0
SOLID
5
98
100
AcDbEntity
8
Dimensions
6
CONTINUOUS
62
7
370
0
100
AcDbTrace
10
290
20
80
30
0
11
287.5
21
79.5837153422
31
0
12
287.5
22
80.4162846578
32
0
13
287.5
23
80.4162846578
33
0
0
MTEXT
5
99
100
AcDbEntity
8
Dimensions
6
CONTINUOUS
62
7
370
0
100
AcDbMText
10
245
20
81.875
30
0
40
2.5
41
3.05555555556
71
5
72
1
1
90
7
standard
210
0
220
0
230
1
50
0
73
2
44
1
0
LINE
5
9A
100
AcDbEntity
8
Dimensions
6
CONTINUOUS
62
7
370
0
100
AcDbLine
10
200
20
89.375
11
200
21
78.75
0
LINE
5
9B
100
AcDbEntity
8
Dimensions
6
CONTINUOUS
62
7
370
0
100
AcDbLine
10
290
20
89.375
11
290
21
78.75
0
ENDBLK
5
65
330
63
100
AcDbEntity
8
0
100
AcDbBlockEnd
0
BLOCK
5
67
330
66
100
AcDbEntity
8
0
100
AcDbBlockBegin
2
*D11
70
1
10
0
20
0
3
*D11
1

0
LINE
5
9C
100
AcDbEntity
8
Dimensions
6
CONTINUOUS
62
7
370
0
100
AcDbLine
10
70
20
165
11
70
21
150
0
SOLID
5
9D
100
AcDbEntity
8
Dimensions
6
CONTINUOUS
62
7
370
0
100
AcDbTrace
10
70
20
160
30
0
11
69.5837153422
21
162.5
31
0
12
70.4162846578
22
162.5
32
0
13
70.4162846578
23
162.5
33
0
0
SOLID
5
9E
100
AcDbEntity
8
Dimensions
6
CONTINUOUS
62
7
370
0
100
AcDbTrace
10
70
20
155
30
0
11
70.4162846578
21
152.5
31
0
12
69.5837153422
22
152.5
32
0
13
69.5837153422
23
152.5
33
0
0
MTEXT
5
9F
100
AcDbEntity
8
Dimensions
6
CONTINUOUS
62
7
370
0
100
AcDbMText
10
68.125
20
157.5
30
0
40
2.5
41
1.11111111111
71
5
72
1
1
5
7
standard
210
0
220
0
230
1
50
90
73
2
44
1
0
LINE
5
A0
100
AcDbEntity
8
Dimensions
6
CONTINUOUS
62
7
370
0
100
AcDbLine
10
79.375
20
160
11
68.75
21
160
0
LINE
5
A1
100
AcDbEntity
8
Dimensions
6
CONTINUOUS
62
7
370
0
100
AcDbLine
10
79.375
20
155
11
68.75
21
155
0
ENDBLK
5
68
330
66
100
AcDbEntity
8
0
100
AcDbBlockEnd
0
BLOCK
5
6A
330
69
100
AcDbEntity
8
0
100
AcDbBlockBegin
2
*D3
70
1
10
0
20
0
3
*D3
1

0
LINE
5
A2
100
AcDbEntity
8
Dimensions
6
CONTINUOUS
62
7
370
0
100
AcDbLine
10
200
20
200
11
290
21
200
0
SOLID
5
A3
100
AcDbEntity
8
Dimensions
6
CONTINUOUS
62
7
370
0
100
AcDbTrace
10
200
20
200
30
0
11
202.5
21
200.416284658
31
0
12
202.5
22
199.583715342
32
0
13
202.5
23
199.583715342
33
0
0
SOLID
5
A4
100
AcDbEntity
8
Dimensions
6
CONTINUOUS
62
7
370
0
100
AcDbTrace
10
290
20
200
30
0
11
287.5
21
199.583715342
31
0
12
287.5
22
200.416284658
32
0
13
287.5
23
200.416284658
33
0
0
MTEXT
5
A5
100
AcDbEntity
8
Dimensions
6
CONTINUOUS
62
7
370
0
100
AcDbMText
10
245
20
201.875
30
0
40
2.5
41
3.05555555556
71
5
72
1
1
90
7
standard
210
0
220
0
230
1
50
0
73
2
44
1
0
LINE
5
A6
100
AcDbEntity
8
Dimensions
6
CONTINUOUS
62
7
370
0
100
AcDbLine
10
200
20
190.625
11
200
21
201.25
0
LINE
5
A7
100
AcDbEntity
8
Dimensions
6
CONTINUOUS
62
7
370
0
100
AcDbLine
10
290
20
190.625
11
290
21
201.25
0
ENDBLK
5
6B
330
69
100
AcDbEntity
8
0
100
AcDbBlockEnd
0
BLOCK
5
6D
330
6C
100
AcDbEntity
8
0
100
AcDbBlockBegin
2
*D6
70
1
10
0
20
0
3
*D6
1

0
LINE
5
A8
100
AcDbEntity
8
Dimensions
6
CONTINUOUS
62
7
370
0
100
AcDbLine
10
190
20
80
11
200
21
80
0
SOLID
5
A9
100
AcDbEntity
8
Dimensions
6
CONTINUOUS
62
7
370
0
100
AcDbTrace
10
190
20
80
30
0
11
192.5
21
80.4162846578
31
0
12
192.5
22
79.5837153422
32
0
13
192.5
23
79.5837153422
33
0
0
SOLID
5
AA
100
AcDbEntity
8
Dimensions
6
CONTINUOUS
62
7
370
0
100
AcDbTrace
10
200
20
80
30
0
11
197.5
21
79.5837153422
31
0
12
197.5
22
80.4162846578
32
0
13
197.5
23
80.4162846578
33
0
0
MTEXT
5
AB
100
AcDbEntity
8
Dimensions
6
CONTINUOUS
62
7
370
0
100
AcDbMText
10
195
20
81.875
30
0
40
2.5
41
2.5
71
5
72
1
1
10
7
standard
210
0
220
0
230
1
50
0
73
2
44
1
0
LINE
5
AC
100
AcDbEntity
8
Dimensions
6
CONTINUOUS
62
7
370
0
100
AcDbLine
10
190
20
89.375
11
190
21
78.75
0
LINE
5
AD
100
AcDbEntity
8
Dimensions
6
CONTINUOUS
62
7
370
0
100
AcDbLine
10
200
20
89.375
11
200
21
78.75
0
ENDBLK
5
6E
330
6C
100
AcDbEntity
8
0
100
AcDbBlockEnd
0
BLOCK
5
70
330
6F
100
AcDbEntity
8
0
100
AcDbBlockBegin
2
*D13
70
1
10
0
20
0
3
*D13
1

0
LINE
5
AE
100
AcDbEntity
8
Dimensions
6
CONTINUOUS
62
7
370
0
100
AcDbLine
10
70
20
110
11
70
21
95
0
SOLID
5
AF
100
AcDbEntity
8
Dimensions
6
CONTINUOUS
62
7
370
0
100
AcDbTrace
10
70
20
105
30
0
11
69.5837153422
21
107.5
31
0
12
70.4162846578
22
107.5
32
0
13
70.4162846578
23
107.5
33
0
0
SOLID
5
B0
100
AcDbEntity
8
Dimensions
6
CONTINUOUS
62
7
370
0
100
AcDbTrace
10
70
20
100
30
0
11
70.4162846578
21
97.5
31
0
12
69.5837153422
22
97.5
32
0
13
69.5837153422
23
97.5
33
0
0
MTEXT
5
B1
100
AcDbEntity
8
Dimensions
6
CONTINUOUS
62
7
370
0
100
AcDbMText
10
68.125
20
102.5
30
0
40
2.5
41
1.11111111111
71
5
72
1
1
5
7
standard
210
0
220
0
230
1
50
90
73
2
44
1
0
LINE
5
B2
100
AcDbEntity
8
Dimensions
6
CONTINUOUS
62
7
370
0
100
AcDbLine
10
79.375
20
105
11
68.75
21
105
0
LINE
5
B3
100
AcDbEntity
8
Dimensions
6
CONTINUOUS
62
7
370
0
100
AcDbLine
10
79.375
20
100
11
68.75
21
100
0
ENDBLK
5
71
330
6F
100
AcDbEntity
8
0
100
AcDbBlockEnd
0
BLOCK
5
73
330
72
100
AcDbEntity
8
0
100
AcDbBlockBegin
2
*D10
70
1
10
0
20
0
3
*D10
1

0
SOLID
5
B4
100
AcDbEntity
8
Dimensions
6
CONTINUOUS
62
7
370
0
100
AcDbTrace
10
112.928932188
20
157.071067812
30
0
11
114.991056845
21
155.597658563
31
0
12
114.402341437
22
155.008943155
32
0
13
114.402341437
23
155.008943155
33
0
0
LINE
5
B5
100
AcDbEntity
8
Dimensions
6
CONTINUOUS
62
7
370
0
100
AcDbLine
10
120
20
150
11
112.928932188
21
157.071067812
0
MTEXT
5
B6
100
AcDbEntity
8
Dimensions
6
CONTINUOUS
62
7
370
0
100
AcDbMText
10
117.790291309
20
154.861359121
30
0
40
2.5
41
2.5
71
5
72
1
1
10
7
standard
210
0
220
0
230
1
50
315
73
2
44
1
0
ENDBLK
5
74
330
72
100
AcDbEntity
8
0
100
AcDbBlockEnd
0
BLOCK
5
76
330
75
100
AcDbEntity
8
0
100
AcDbBlockBegin
2
*D4
70
1
10
0
20
0
3
*D4
1

0
LINE
5
B7
100
AcDbEntity
8
Dimensions
6
CONTINUOUS
62
7
370
0
100
AcDbLine
10
110
20
80
11
140
21
80
0
SOLID
5
B8
100
AcDbEntity
8
Dimensions
6
CONTINUOUS
62
7
370
0
100
AcDbTrace
10
110
20
80
30
0
11
112.5
21
80.4162846578
31
0
12
112.5
22
79.5837153422
32
0
13
112.5
23
79.5837153422
33
0
0
SOLID
5
B9
100
AcDbEntity
8
Dimensions
6
CONTINUOUS
62
7
370
0
100
AcDbTrace
10
140
20
80
30
0
11
137.5
21
79.5837153422
31
0
12
137.5
22
80.4162846578
32
0
13
137.5
23
80.4162846578
33
0
0
MTEXT
5
BA
100
AcDbEntity
8
Dimensions
6
CONTINUOUS
62
7
370
0
100
AcDbMText
10
125
20
81.875
30
0
40
2.5
41
3.05555555556
71
5
72
1
1
30
7
standard
210
0
220
0
230
1
50
0
73
2
44
1
0
LINE
5
BB
100
AcDbEntity
8
Dimensions
6
CONTINUOUS
62
7
370
0
100
AcDbLine
10
110
20
89.375
11
110
21
78.75
0
LINE
5
BC
100
AcDbEntity
8
Dimensions
6
CONTINUOUS
62
7
370
0
100
AcDbLine
10
140
20
89.375
11
140
21
78.75
0
ENDBLK
5
77
330
75
100
AcDbEntity
8
0
100
AcDbBlockEnd
0
BLOCK
5
79
330
78
100
AcDbEntity
8
0
100
AcDbBlockBegin
2
*D5
70
1
10
0
20
0
3
*D5
1

0
LINE
5
BD
100
AcDbEntity
8
Dimensions
6
CONTINUOUS
62
7
370
0
100
AcDbLine
10
140
20
80
11
190
21
80
0
SOLID
5
BE
100
AcDbEntity
8
Dimensions
6
CONTINUOUS
62
7
370
0
100
AcDbTrace
10
140
20
80
30
0
11
142.5
21
80.4162846578
31
0
12
142.5
22
79.5837153422
32
0
13
142.5
23
79.5837153422
33
0
0
SOLID
5
BF
100
AcDbEntity
8
Dimensions
6
CONTINUOUS
62
7
370
0
100
AcDbTrace
10
190
20
80
30
0
11
187.5
21
79.5837153422
31
0
12
187.5
22
80.4162846578
32
0
13
187.5
23
80.4162846578
33
0
0
MTEXT
5
C0
100
AcDbEntity
8
Dimensions
6
CONTINUOUS
62
7
370
0
100
AcDbMText
10
165
20
81.875
30
0
40
2.5
41
3.05555555556
71
5
72
1
1
50
7
standard
210
0
220
0
230
1
50
0
73
2
44
1
0
LINE
5
C1
100
AcDbEntity
8
Dimensions
6
CONTINUOUS
62
7
370
0
100
AcDbLine
10
140
20
89.375
11
140
21
78.75
0
LINE
5
C2
100
AcDbEntity
8
Dimensions
6
CONTINUOUS
62
7
370
0
100
AcDbLine
10
190
20
89.375
11
190
21
78.75
0
ENDBLK
5
7A
330
78
100
AcDbEntity
8
0
100
AcDbBlockEnd
0
ENDSEC
0
SECTION
2
ENTITIES
0
SPLINE
5
C3
100
AcDbEntity
8
Stock
6
ByLayer
62
256
370
-1
100
AcDbSpline
210
0
220
0
230
1
70
8
71
3
72
11
73
7
74
0
42
1e-07
43
1e-07
40
0
40
0
40
0
40
0
40
0.25
40
0.5
40
0.75
40
1
40
1
40
1
40
1
10
200
20
100
30
0
10
220
20
115
30
0
10
240
20
105
30
0
10
260
20
110
30
0
10
290
20
115
30
0
10
290
20
115
30
0
10
290
20
115
30
0
0
SPLINE
5
C4
100
AcDbEntity
8
Stock
6
ByLayer
62
256
370
-1
100
AcDbSpline
210
0
220
0
230
1
70
8
71
3
72
11
73
7
74
0
42
1e-07
43
1e-07
40
0
40
0
40
0
40
0
40
0.25
40
0.5
40
0.75
40
1
40
1
40
1
40
1
10
200
20
160
30
0
10
220
20
145
30
0
10
240
20
155
30
0
10
260
20
150
30
0
10
290
20
145
30
0
10
290
20
145
30
0
10
290
20
145
30
0
0
LINE
5
C5
100
AcDbEntity
8
Stock
6
ByLayer
62
256
370
-1
100
AcDbLine
10
187
20
155
11
143
21
155
0
LINE
5
C6
100
AcDbEntity
8
Stock
6
ByLayer
62
256
370
-1
100
AcDbLine
10
140
20
152
11
140
21
108
0
LINE
5
C7
100
AcDbEntity
8
Stock
6
ByLayer
62
256
370
-1
100
AcDbLine
10
143
20
105
11
187
21
105
0
LINE
5
C8
100
AcDbEntity
8
Stock
6
ByLayer
62
256
370
-1
100
AcDbLine
10
190
20
108
11
190
21
152
0
ARC
5
C9
100
AcDbEntity
8
Stock
6
ByLayer
62
256
370
-1
100
AcDbCircle
10
187
20
152
40
3
100
AcDbArc
50
0
51
90
0
ARC
5
CA
100
AcDbEntity
8
Stock
6
ByLayer
62
256
370
-1
100
AcDbCircle
10
143
20
152
40
3
100
AcDbArc
50
90
51
180
0
ARC
5
CB
100
AcDbEntity
8
Stock
6
ByLayer
62
256
370
-1
100
AcDbCircle
10
143
20
108
40
3
100
AcDbArc
50
180
51
270
0
ARC
5
CC
100
AcDbEntity
8
Stock
6
ByLayer
62
256
370
-1
100
AcDbCircle
10
0
20
0
40
0
100
AcDbArc
50
0
51
0
0
ARC
5
CD
100
AcDbEntity
8
Stock
6
ByLayer
62
256
370
-1
100
AcDbCircle
10
187
20
108
40
3
100
AcDbArc
50
270
51
0
0
ARC
5
CE
100
AcDbEntity
8
Stock
6
ByLayer
62
256
370
-1
100
AcDbCircle
10
120
20
150
40
10
100
AcDbArc
50
90
51
180
0
ARC
5
CF
100
AcDbEntity
8
Stock
6
ByLayer
62
256
370
-1
100
AcDbCircle
10
120
20
110
40
10
100
AcDbArc
50
180
51
270
0
LINE
5
D0
100
AcDbEntity
8
Stock
6
ByLayer
62
256
370
-1
100
AcDbLine
10
110
20
150
11
110
21
110
0
LINE
5
D1
100
AcDbEntity
8
Stock
6
ByLayer
62
256
370
-1
100
AcDbLine
10
200
20
160
11
120
21
160
0
LINE
5
D2
100
AcDbEntity
8
Stock
6
ByLayer
62
256
370
-1
100
AcDbLine
10
120
20
100
11
200
21
100
0
LINE
5
D3
100
AcDbEntity
8
Blade
6
ByLayer
62
256
370
-1
100
AcDbLine
10
181
20
105
11
181
21
155
0
LINE
5
D4
100
AcDbEntity
8
Blade
6
ByLayer
62
256
370
-1
100
AcDbLine
10
181
20
155
11
186
21
155
0
LINE
5
D5
100
AcDbEntity
8
Blade
6
ByLayer
62
256
370
-1
100
AcDbLine
10
186
20
155
11
186
21
105
0
LINE
5
D6
100
AcDbEntity
8
Blade
6
ByLayer
62
256
370
-1
100
AcDbLine
10
186
20
105
11
181
21
105
0
LINE
5
D7
100
AcDbEntity
8
Slides
6
ByLayer
62
256
370
-1
100
AcDbLine
10
163
20
134
11
187
21
134
0
LINE
5
D8
100
AcDbEntity
8
Slides
6
ByLayer
62
256
370
-1
100
AcDbLine
10
160
20
152
11
160
21
137
0
LINE
5
D9
100
AcDbEntity
8
Slides
6
ByLayer
62
256
370
-1
100
AcDbLine
10
187
20
155
11
163
21
155
0
LINE
5
DA
100
AcDbEntity
8
Slides
6
ByLayer
62
256
370
-1
100
AcDbLine
10
190
20
137
11
190
21
152
0
ARC
5
DB
100
AcDbEntity
8
Slides
6
ByLayer
62
256
370
-1
100
AcDbCircle
10
163
20
152
40
3
100
AcDbArc
50
90
51
180
0
ARC
5
DC
100
AcDbEntity
8
Slides
6
ByLayer
62
256
370
-1
100
AcDbCircle
10
163
20
137
40
3
100
AcDbArc
50
180
51
270
0
ARC
5
DD
100
AcDbEntity
8
Slides
6
ByLayer
62
256
370
-1
100
AcDbCircle
10
187
20
137
40
3
100
AcDbArc
50
270
51
0
0
ARC
5
DE
100
AcDbEntity
8
Slides
6
ByLayer
62
256
370
-1
100
AcDbCircle
10
187
20
152
40
3
100
AcDbArc
50
0
51
90
0
LINE
5
DF
100
AcDbEntity
8
Slides
6
ByLayer
62
256
370
-1
100
AcDbLine
10
163
20
126
11
187
21
126
0
LINE
5
E0
100
AcDbEntity
8
Slides
6
ByLayer
62
256
370
-1
100
AcDbLine
10
160
20
108
11
160
21
123
0
LINE
5
E1
100
AcDbEntity
8
Slides
6
ByLayer
62
256
370
-1
100
AcDbLine
10
187
20
105
11
163
21
105
0
LINE
5
E2
100
AcDbEntity
8
Slides
6
ByLayer
62
256
370
-1
100
AcDbLine
10
190
20
123
11
190
21
108
0
ARC
5
E3
100
AcDbEntity
8
Slides
6
ByLayer
62
256
370
-1
100
AcDbCircle
10
163
20
108
40
3
100
AcDbArc
50
180
51
270
0
ARC
5
E4
100
AcDbEntity
8
Slides
6
ByLayer
62
256
370
-1
100
AcDbCircle
10
163
20
123
40
3
100
AcDbArc
50
90
51
180
0
ARC
5
E5
100
AcDbEntity
8
Slides
6
ByLayer
62
256
370
-1
100
AcDbCircle
10
187
20
123
40
3
100
AcDbArc
50
360
51
90
0
ARC
5
E6
100
AcDbEntity
8
Slides
6
ByLayer
62
256
370
-1
100
AcDbCircle
10
187
20
108
40
3
100
AcDbArc
50
270
51
360
0
LINE
5
E7
100
AcDbEntity
8
Ruler
6
ByLayer
62
256
370
-1
100
AcDbLine
10
190
20
120
11
189
21
120
0
LINE
5
E8
100
AcDbEntity
8
Ruler
6
ByLayer
62
256
370
-1
100
AcDbLine
10
189
20
120
11
189
21
113
0
LINE
5
E9
100
AcDbEntity
8
Ruler
6
ByLayer
62
256
370
-1
100
AcDbLine
10
189
20
113
11
190
21
113
0
LINE
5
EA
100
AcDbEntity
8
Ruler
6
ByLayer
62
256
370
-1
100
AcDbLine
10
190
20
113
11
190
21
120
0
LINE
5
EB
100
AcDbEntity
8
Ruler
6
ByLayer
62
256
370
-1
100
AcDbLine
10
190
20
147
11
189
21
147
0
LINE
5
EC
100
AcDbEntity
8
Ruler
6
ByLayer
62
256
370
-1
100
AcDbLine
10
189
20
147
11
189
21
140
0
LINE
5
ED
100
AcDbEntity
8
Ruler
6
ByLayer
62
256
370
-1
100
AcDbLine
10
189
20
140
11
190
21
140
0
LINE
5
EE
100
AcDbEntity
8
Ruler
6
ByLayer
62
256
370
-1
100
AcDbLine
10
190
20
140
11
190
21
147
0
LINE
5
EF
100
AcDbEntity
8
Fastners-m16
6
ByLayer
62
256
370
-1
100
AcDbLine
10
100
20
126
11
100
21
134
0
LINE
5
F0
100
AcDbEntity
8
Fastners-m16
6
ByLayer
62
256
370
-1
100
AcDbLine
10
100
20
122
11
100
21
138
0
LINE
5
F1
100
AcDbEntity
8
Fastners-m16
6
ByLayer
62
256
370
-1
100
AcDbLine
10
145
20
122
11
100
21
122
0
LINE
5
F2
100
AcDbEntity
8
Fastners-m16
6
ByLayer
62
256
370
-1
100
AcDbLine
10
100
20
138
11
145
21
138
0
LINE
5
F3
100
AcDbEntity
8
Fastners-m16
6
ByLayer
62
256
370
-1
100
AcDbLine
10
140
20
122
11
138
21
138
0
LINE
5
F4
100
AcDbEntity
8
Fastners-m16
6
ByLayer
62
256
370
-1
100
AcDbLine
10
138
20
122
11
136
21
138
0
LINE
5
F5
100
AcDbEntity
8
Fastners-m16
6
ByLayer
62
256
370
-1
100
AcDbLine
10
136
20
122
11
134
21
138
0
LINE
5
F6
100
AcDbEntity
8
Fastners-m16
6
ByLayer
62
256
370
-1
100
AcDbLine
10
134
20
122
11
132
21
138
0
LINE
5
F7
100
AcDbEntity
8
Fastners-m16
6
ByLayer
62
256
370
-1
100
AcDbLine
10
132
20
122
11
130
21
138
0
LINE
5
F8
100
AcDbEntity
8
Fastners-m16
6
ByLayer
62
256
370
-1
100
AcDbLine
10
130
20
122
11
128
21
138
0
LINE
5
F9
100
AcDbEntity
8
Fastners-m16
6
ByLayer
62
256
370
-1
100
AcDbLine
10
128
20
122
11
126
21
138
0
LINE
5
FA
100
AcDbEntity
8
Fastners-m16
6
ByLayer
62
256
370
-1
100
AcDbLine
10
126
20
122
11
124
21
138
0
LINE
5
FB
100
AcDbEntity
8
Fastners-m16
6
ByLayer
62
256
370
-1
100
AcDbLine
10
124
20
122
11
122
21
138
0
LINE
5
FC
100
AcDbEntity
8
Fastners-m16
6
ByLayer
62
256
370
-1
100
AcDbLine
10
122
20
122
11
120
21
138
0
LINE
5
FD
100
AcDbEntity
8
Fastners-m16
6
ByLayer
62
256
370
-1
100
AcDbLine
10
120
20
122
11
118
21
138
0
LINE
5
FE
100
AcDbEntity
8
Fastners-m16
6
ByLayer
62
256
370
-1
100
AcDbLine
10
118
20
122
11
116
21
138
0
LINE
5
FF
100
AcDbEntity
8
Fastners-m16
6
ByLayer
62
256
370
-1
100
AcDbLine
10
116
20
122
11
114
21
138
0
LINE
5
100
100
AcDbEntity
8
Fastners-m16
6
ByLayer
62
256
370
-1
100
AcDbLine
10
114
20
122
11
112
21
138
0
LINE
5
101
100
AcDbEntity
8
Fastners-m16
6
ByLayer
62
256
370
-1
100
AcDbLine
10
112
20
122
11
110
21
138
0
LINE
5
102
100
AcDbEntity
8
Fastners-m16
6
ByLayer
62
256
370
-1
100
AcDbLine
10
110
20
122
11
108
21
138
0
LINE
5
103
100
AcDbEntity
8
Fastners-m16
6
ByLayer
62
256
370
-1
100
AcDbLine
10
108
20
122
11
106
21
138
0
LINE
5
104
100
AcDbEntity
8
Fastners-m16
6
ByLayer
62
256
370
-1
100
AcDbLine
10
106
20
122
11
104
21
138
0
LINE
5
105
100
AcDbEntity
8
Fastners-m16
6
ByLayer
62
256
370
-1
100
AcDbLine
10
104
20
122
11
102
21
138
0
LINE
5
106
100
AcDbEntity
8
Fastners-m16
6
ByLayer
62
256
370
-1
100
AcDbLine
10
102
20
122
11
100
21
138
0
CIRCLE
5
107
100
AcDbEntity
8
Fastners-4x12 Dowels
6
ByLayer
62
256
370
-1
100
AcDbCircle
10
165
20
145
40
2
0
CIRCLE
5
108
100
AcDbEntity
8
Fastners-4x12 Dowels
6
ByLayer
62
256
370
-1
100
AcDbCircle
10
165
20
115
40
2
0
DIMENSION
5
109
100
AcDbEntity
8
Dimensions
6
ByLayer
62
256
370
-1
100
AcDbDimension
2
*D1
10
290
20
180
30
0
11
200
21
181.875
31
0
70
32
71
5
72
0
3
Standard
53
0
210
0
220
0
230
1
100
AcDbAlignedDimension
13
110
23
170
33
0
14
290
24
170
34
0
100
AcDbRotatedDimension
0
DIMENSION
5
10A
100
AcDbEntity
8
Dimensions
6
ByLayer
62
256
370
-1
100
AcDbDimension
2
*D2
10
200
20
200
30
0
11
155
21
201.875
31
0
70
32
71
5
72
0
3
Standard
53
0
210
0
220
0
230
1
100
AcDbAlignedDimension
13
110
23
190
33
0
14
200
24
190
34
0
100
AcDbRotatedDimension
0
DIMENSION
5
10B
100
AcDbEntity
8
Dimensions
6
ByLayer
62
256
370
-1
100
AcDbDimension
2
*D3
10
290
20
200
30
0
11
245
21
201.875
31
0
70
32
71
5
72
0
3
Standard
53
0
210
0
220
0
230
1
100
AcDbAlignedDimension
13
200
23
190
33
0
14
290
24
190
34
0
100
AcDbRotatedDimension
0
DIMENSION
5
10C
100
AcDbEntity
8
Dimensions
6
ByLayer
62
256
370
-1
100
AcDbDimension
2
*D4
10
140
20
80
30
0
11
125
21
81.875
31
0
70
32
71
5
72
0
3
Standard
53
0
210
0
220
0
230
1
100
AcDbAlignedDimension
13
110
23
90
33
0
14
140
24
90
34
0
100
AcDbRotatedDimension
0
DIMENSION
5
10D
100
AcDbEntity
8
Dimensions
6
ByLayer
62
256
370
-1
100
AcDbDimension
2
*D5
10
190
20
80
30
0
11
165
21
81.875
31
0
70
32
71
5
72
0
3
Standard
53
0
210
0
220
0
230
1
100
AcDbAlignedDimension
13
140
23
90
33
0
14
190
24
90
34
0
100
AcDbRotatedDimension
0
DIMENSION
5
10E
100
AcDbEntity
8
Dimensions
6
ByLayer
62
256
370
-1
100
AcDbDimension
2
*D6
10
200
20
80
30
0
11
195
21
81.875
31
0
70
32
71
5
72
0
3
Standard
53
0
210
0
220
0
230
1
100
AcDbAlignedDimension
13
190
23
90
33
0
14
200
24
90
34
0
100
AcDbRotatedDimension
0
DIMENSION
5
10F
100
AcDbEntity
8
Dimensions
6
ByLayer
62
256
370
-1
100
AcDbDimension
2
*D7
10
290
20
80
30
0
11
245
21
81.875
31
0
70
32
71
5
72
0
3
Standard
53
0
210
0
220
0
230
1
100
AcDbAlignedDimension
13
200
23
90
33
0
14
290
24
90
34
0
100
AcDbRotatedDimension
0
DIMENSION
5
110
100
AcDbEntity
8
Dimensions
6
ByLayer
62
256
370
-1
100
AcDbDimension
2
*D8
10
320
20
115
30
0
11
318.125
21
130
31
0
70
32
71
5
72
0
3
Standard
53
0
210
0
220
0
230
1
100
AcDbAlignedDimension
13
310
23
145
33
0
14
310
24
115
34
0
50
90
100
AcDbRotatedDimension
0
DIMENSION
5
111
100
AcDbEntity
8
Dimensions
6
ByLayer
62
256
370
-1
100
AcDbDimension
2
*D9
10
143
20
152
30
0
11
149.337663798
21
152.13926835
31
0
70
36
71
5
72
0
3
Standard
53
0
210
0
220
0
230
1
100
AcDbRadialDimension
15
145.884571843
25
151.175836616
35
0
40
0
0
DIMENSION
5
112
100
AcDbEntity
8
Dimensions
6
ByLayer
62
256
370
-1
100
AcDbDimension
2
*D10
10
120
20
150
30
0
11
117.790291309
21
154.861359121
31
0
70
36
71
5
72
0
3
Standard
53
0
210
0
220
0
230
1
100
AcDbRadialDimension
15
112.928932188
25
157.071067812
35
0
40
0
0
ARC
5
113
100
AcDbEntity
8
Stock
6
ByLayer
62
256
370
-1
100
AcDbCircle
10
267.5
20
130
40
27.041634566
100
AcDbArc
50
326.309932474
51
33.690067526
0
LINE
5
114
100
AcDbEntity
8
Fastners-m16
6
ByLayer
62
256
370
-1
100
AcDbLine
10
100
20
130
11
100
21
145
0
LINE
5
115
100
AcDbEntity
8
Fastners-m16
6
ByLayer
62
256
370
-1
100
AcDbLine
10
100
20
145
11
87
21
145
0
LINE
5
116
100
AcDbEntity
8
Fastners-m16
6
ByLayer
62
256
370
-1
100
AcDbLine
10
87
20
145
11
87
21
115
0
LINE
5
117
100
AcDbEntity
8
Fastners-m16
6
ByLayer
62
256
370
-1
100
AcDbLine
10
87
20
115
11
100
21
115
0
LINE
5
118
100
AcDbEntity
8
Fastners-m16
6
ByLayer
62
256
370
-1
100
AcDbLine
10
100
20
115
11
100
21
122
0
DIMENSION
5
119
100
AcDbEntity
8
Dimensions
6
ByLayer
62
256
370
-1
100
AcDbDimension
2
*D11
10
70
20
155
30
0
11
68.125
21
157.5
31
0
70
32
71
5
72
0
3
Standard
53
0
210
0
220
0
230
1
100
AcDbAlignedDimension
13
80
23
160
33
0
14
80
24
155
34
0
50
90
100
AcDbRotatedDimension
0
DIMENSION
5
11A
100
AcDbEntity
8
Dimensions
6
ByLayer
62
256
370
-1
100
AcDbDimension
2
*D12
10
70
20
105
30
0
11
68.125
21
130
31
0
70
32
71
5
72
0
3
Standard
53
0
210
0
220
0
230
1
100
AcDbAlignedDimension
13
80
23
155
33
0
14
80
24
105
34
0
50
90
100
AcDbRotatedDimension
0
DIMENSION
5
11B
100
AcDbEntity
8
Dimensions
6
ByLayer
62
256
370
-1
100
AcDbDimension
2
*D13
10
70
20
100
30
0
11
68.125
21
102.5
31
0
70
32
71
5
72
0
3
Standard
53
0
210
0
220
0
230
1
100
AcDbAlignedDimension
13
80
23
105
33
0
14
80
24
100
34
0
50
90
100
AcDbRotatedDimension
0
CIRCLE
5
11C
100
AcDbEntity
8
Fastners-8x50Panhead
6
ByLayer
62
256
370
-1
100
AcDbCircle
10
175
20
145
40
2
0
CIRCLE
5
11D
100
AcDbEntity
8
Fastners-8x50Panhead
6
ByLayer
62
256
370
-1
100
AcDbCircle
10
175
20
115
40
2
0
LINE
5
11E
100
AcDbEntity
8
Washer
6
ByLayer
62
256
370
-1
100
AcDbLine
10
145
20
141
11
147
21
141
0
LINE
5
11F
100
AcDbEntity
8
Washer
6
ByLayer
62
256
370
-1
100
AcDbLine
10
147
20
141
11
147
21
119
0
LINE
5
120
100
AcDbEntity
8
Washer
6
ByLayer
62
256
370
-1
100
AcDbLine
10
147
20
119
11
145
21
119
0
LINE
5
121
100
AcDbEntity
8
Washer
6
ByLayer
62
256
370
-1
100
AcDbLine
10
145
20
119
11
145
21
141
0
LINE
5
122
100
AcDbEntity
8
Washer
6
ByLayer
62
256
370
-1
100
AcDbLine
10
147
20
124
11
145
21
124
0
LINE
5
123
100
AcDbEntity
8
Washer
6
ByLayer
62
256
370
-1
100
AcDbLine
10
147
20
136
11
145
21
136
0
LINE
5
124
100
AcDbEntity
8
Cup
6
ByLayer
62
256
370
-1
100
AcDbLine
10
147
20
154
11
157
21
154
0
LINE
5
125
100
AcDbEntity
8
Cup
6
ByLayer
62
256
370
-1
100
AcDbLine
10
157
20
154
11
157
21
106
0
LINE
5
126
100
AcDbEntity
8
Cup
6
ByLayer
62
256
370
-1
100
AcDbLine
10
147
20
124
11
147
21
106
0
LINE
5
127
100
AcDbEntity
8
Cup
6
ByLayer
62
256
370
-1
100
AcDbLine
10
157
20
106
11
147
21
106
0
LINE
5
128
100
AcDbEntity
8
Cup
6
ByLayer
62
256
370
-1
100
AcDbLine
10
147
20
154
11
147
21
124
0
LINE
5
129
100
AcDbEntity
8
Cup
6
ByLayer
62
256
370
-1
100
AcDbLine
10
147
20
136
11
149
21
136
0
LINE
5
12A
100
AcDbEntity
8
Cup
6
ByLayer
62
256
370
-1
100
AcDbLine
10
149
20
124
11
147
21
124
0
LINE
5
12B
100
AcDbEntity
8
Cup
6
ByLayer
62
256
370
-1
100
AcDbLine
10
149
20
128
11
149
21
124
0
LINE
5
12C
100
AcDbEntity
8
Cup
6
ByLayer
62
256
370
-1
100
AcDbLine
10
149
20
136
11
149
21
132
0
LINE
5
12D
100
AcDbEntity
8
Cup
6
ByLayer
62
256
370
-1
100
AcDbLine
10
149
20
132
11
152
21
132
0
LINE
5
12E
100
AcDbEntity
8
Cup
6
ByLayer
62
256
370
-1
100
AcDbLine
10
149
20
128
11
152
21
128
0
LINE
5
12F
100
AcDbEntity
8
Cup
6
ByLayer
62
256
370
-1
100
AcDbLine
10
152
20
132
11
154
21
134
0
LINE
5
130
100
AcDbEntity
8
Cup
6
ByLayer
62
256
370
-1
100
AcDbLine
10
152
20
128
11
154
21
126
0
LINE
5
131
100
AcDbEntity
8
Cup
6
ByLayer
62
256
370
-1
100
AcDbLine
10
154
20
134
11
157
21
134
0
LINE
5
132
100
AcDbEntity
8
Cup
6
ByLayer
62
256
370
-1
100
AcDbLine
10
154
20
126
11
157
21
126
0
LINE
5
133
100
AcDbEntity
8
Fastners-m16
6
ByLayer
62
256
370
-1
100
AcDbLine
10
144
20
122
11
142
21
138
0
LINE
5
134
100
AcDbEntity
8
Fastners-m16
6
ByLayer
62
256
370
-1
100
AcDbLine
10
142
20
122
11
140
21
138
0
LINE
5
135
100
AcDbEntity
8
Fastners-m16
6
ByLayer
62
256
370
-1
100
AcDbLine
10
145
20
124
11
145
21
122
0
LINE
5
136
100
AcDbEntity
8
Fastners-m16
6
ByLayer
62
256
370
-1
100
AcDbLine
10
145
20
138
11
145
21
136
0
LINE
5
137
100
AcDbEntity
8
Fastners-m16
6
ByLayer
62
256
370
-1
100
AcDbLine
10
149
20
136
11
145
21
136
0
LINE
5
138
100
AcDbEntity
8
Fastners-m16
6
ByLayer
62
256
370
-1
100
AcDbLine
10
149
20
124
11
145
21
124
0
LINE
5
139
100
AcDbEntity
8
Fastners-m16
6
ByLayer
62
256
370
-1
100
AcDbLine
10
149
20
136
11
149
21
124
0
LINE
5
13A
100
AcDbEntity
8
Fastners-m16
6
ByLayer
62
256
370
-1
100
AcDbLine
10
145
20
136
11
149
21
136
0
LINE
5
13B
100
AcDbEntity
8
Fastners-m16
6
ByLayer
62
256
370
-1
100
AcDbLine
10
131
20
132
11
131
21
128
0
LINE
5
13C
100
AcDbEntity
8
Fastners-m16
6
ByLayer
62
256
370
-1
100
AcDbLine
10
141
20
132
11
140
21
128
0
LINE
5
13D
100
AcDbEntity
8
Fastners-m16
6
ByLayer
62
256
370
-1
100
AcDbLine
10
140
20
132
11
139
21
128
0
LINE
5
13E
100
AcDbEntity
8
Fastners-m16
6
ByLayer
62
256
370
-1
100
AcDbLine
10
139
20
132
11
138
21
128
0
LINE
5
13F
100
AcDbEntity
8
Fastners-m16
6
ByLayer
62
256
370
-1
100
AcDbLine
10
138
20
132
11
137
21
128
0
LINE
5
140
100
AcDbEntity
8
Fastners-m16
6
ByLayer
62
256
370
-1
100
AcDbLine
10
137
20
132
11
136
21
128
0
LINE
5
141
100
AcDbEntity
8
Fastners-m16
6
ByLayer
62
256
370
-1
100
AcDbLine
10
136
20
132
11
135
21
128
0
LINE
5
142
100
AcDbEntity
8
Fastners-m16
6
ByLayer
62
256
370
-1
100
AcDbLine
10
135
20
132
11
134
21
128
0
LINE
5
143
100
AcDbEntity
8
Fastners-m16
6
ByLayer
62
256
370
-1
100
AcDbLine
10
134
20
132
11
133
21
128
0
LINE
5
144
100
AcDbEntity
8
Fastners-m16
6
ByLayer
62
256
370
-1
100
AcDbLine
10
133
20
132
11
132
21
128
0
LINE
5
145
100
AcDbEntity
8
Fastners-m16
6
ByLayer
62
256
370
-1
100
AcDbLine
10
132
20
132
11
131
21
128
0
LINE
5
146
100
AcDbEntity
8
Fastners-m16
6
ByLayer
62
256
370
-1
100
AcDbLine
10
148
20
132
11
131
21
132
0
LINE
5
147
100
AcDbEntity
8
Fastners-m16
6
ByLayer
62
256
370
-1
100
AcDbLine
10
131
20
128
11
148
21
128
0
LINE
5
148
100
AcDbEntity
8
Fastners-m16
6
ByLayer
62
256
370
-1
100
AcDbLine
10
148
20
132
11
147
21
128
0
LINE
5
149
100
AcDbEntity
8
Fastners-m16
6
ByLayer
62
256
370
-1
100
AcDbLine
10
147
20
132
11
146
21
128
0
LINE
5
14A
100
AcDbEntity
8
Fastners-m16
6
ByLayer
62
256
370
-1
100
AcDbLine
10
146
20
132
11
145
21
128
0
LINE
5
14B
100
AcDbEntity
8
Fastners-m16
6
ByLayer
62
256
370
-1
100
AcDbLine
10
145
20
132
11
144
21
128
0
LINE
5
14C
100
AcDbEntity
8
Fastners-m16
6
ByLayer
62
256
370
-1
100
AcDbLine
10
144
20
132
11
143
21
128
0
LINE
5
14D
100
AcDbEntity
8
Fastners-m16
6
ByLayer
62
256
370
-1
100
AcDbLine
10
143
20
132
11
142
21
128
0
LINE
5
14E
100
AcDbEntity
8
Fastners-m16
6
ByLayer
62
256
370
-1
100
AcDbLine
10
142
20
132
11
141
21
128
0
LINE
5
14F
100
AcDbEntity
8
Fastners-m16
6
ByLayer
62
256
370
-1
100
AcDbLine
10
148
20
132
11
149
21
133
0
LINE
5
150
100
AcDbEntity
8
Fastners-m16
6
ByLayer
62
256
370
-1
100
AcDbLine
10
148
20
128
11
149
21
127
0
LINE
5
151
100
AcDbEntity
8
Fastners-m2x10csk
6
ByLayer
62
256
370
-1
100
AcDbLine
10
190
20
141.5
11
190
21
145.5
0
LINE
5
152
100
AcDbEntity
8
Fastners-m2x10csk
6
ByLayer
62
256
370
-1
100
AcDbLine
10
188.5
20
144.5
11
181
21
144.5
0
LINE
5
153
100
AcDbEntity
8
Fastners-m2x10csk
6
ByLayer
62
256
370
-1
100
AcDbLine
10
181
20
144.5
11
181
21
142.5
0
LINE
5
154
100
AcDbEntity
8
Fastners-m2x10csk
6
ByLayer
62
256
370
-1
100
AcDbLine
10
181
20
142.5
11
188.5
21
142.5
0
LINE
5
155
100
AcDbEntity
8
Fastners-m2x10csk
6
ByLayer
62
256
370
-1
100
AcDbLine
10
190
20
141.5
11
188.5
21
142.5
0
LINE
5
156
100
AcDbEntity
8
Fastners-m2x10csk
6
ByLayer
62
256
370
-1
100
AcDbLine
10
188.5
20
144.5
11
190
21
145.5
0
LINE
5
157
100
AcDbEntity
8
Fastners-m2x10csk
6
ByLayer
62
256
370
-1
100
AcDbLine
10
181.6
20
142.5
11
182
21
144.5
0
LINE
5
158
100
AcDbEntity
8
Fastners-m2x10csk
6
ByLayer
62
256
370
-1
100
AcDbLine
10
182.5
20
142.5
11
183
21
144.5
0
LINE
5
159
100
AcDbEntity
8
Fastners-m2x10csk
6
ByLayer
62
256
370
-1
100
AcDbLine
10
183.5
20
142.5
11
184
21
144.5
0
LINE
5
15A
100
AcDbEntity
8
Fastners-m2x10csk
6
ByLayer
62
256
370
-1
100
AcDbLine
10
184.5
20
142.5
11
185
21
144.5
0
LINE
5
15B
100
AcDbEntity
8
Fastners-m2x10csk
6
ByLayer
62
256
370
-1
100
AcDbLine
10
185.5
20
142.5
11
186
21
144.5
0
LINE
5
15C
100
AcDbEntity
8
Fastners-m2x10csk
6
ByLayer
62
256
370
-1
100
AcDbLine
10
186.5
20
142.5
11
187
21
144.5
0
LINE
5
15D
100
AcDbEntity
8
Fastners-m2x10csk
6
ByLayer
62
256
370
-1
100
AcDbLine
10
187.5
20
142.5
11
188
21
144.5
0
LINE
5
15E
100
AcDbEntity
8
Fastners-m2x10csk
6
ByLayer
62
256
370
-1
100
AcDbLine
10
190
20
114.5
11
190
21
118.5
0
LINE
5
15F
100
AcDbEntity
8
Fastners-m2x10csk
6
ByLayer
62
256
370
-1
100
AcDbLine
10
188.5
20
117.5
11
181
21
117.5
0
LINE
5
160
100
AcDbEntity
8
Fastners-m2x10csk
6
ByLayer
62
256
370
-1
100
AcDbLine
10
181
20
117.5
11
181
21
115.5
0
LINE
5
161
100
AcDbEntity
8
Fastners-m2x10csk
6
ByLayer
62
256
370
-1
100
AcDbLine
10
181
20
115.5
11
188.5
21
115.5
0
LINE
5
162
100
AcDbEntity
8
Fastners-m2x10csk
6
ByLayer
62
256
370
-1
100
AcDbLine
10
190
20
114.5
11
188.5
21
115.5
0
LINE
5
163
100
AcDbEntity
8
Fastners-m2x10csk
6
ByLayer
62
256
370
-1
100
AcDbLine
10
188.5
20
117.5
11
190
21
118.5
0
LINE
5
164
100
AcDbEntity
8
Fastners-m2x10csk
6
ByLayer
62
256
370
-1
100
AcDbLine
10
181.6
20
115.5
11
182
21
117.5
0
LINE
5
165
100
AcDbEntity
8
Fastners-m2x10csk
6
ByLayer
62
256
370
-1
100
AcDbLine
10
182.5
20
115.5
11
183
21
117.5
0
LINE
5
166
100
AcDbEntity
8
Fastners-m2x10csk
6
ByLayer
62
256
370
-1
100
AcDbLine
10
183.5
20
115.5
11
184
21
117.5
0
LINE
5
167
100
AcDbEntity
8
Fastners-m2x10csk
6
ByLayer
62
256
370
-1
100
AcDbLine
10
184.5
20
115.5
11
185
21
117.5
0
LINE
5
168
100
AcDbEntity
8
Fastners-m2x10csk
6
ByLayer
62
256
370
-1
100
AcDbLine
10
185.5
20
115.5
11
186
21
117.5
0
LINE
5
169
100
AcDbEntity
8
Fastners-m2x10csk
6
ByLayer
62
256
370
-1
100
AcDbLine
10
186.5
20
115.5
11
187
21
117.5
0
LINE
5
16A
100
AcDbEntity
8
Fastners-m2x10csk
6
ByLayer
62
256
370
-1
100
AcDbLine
10
187.5
20
115.5
11
188
21
117.5
0
LINE
5
16B
100
AcDbEntity
8
Fastners-m6x50rod
6
ByLayer
62
256
370
-1
100
AcDbLine
10
172
20
150
11
178
21
150
0
LINE
5
16C
100
AcDbEntity
8
Fastners-m6x50rod
6
ByLayer
62
256
370
-1
100
AcDbLine
10
178
20
150
11
178
21
100
0
LINE
5
16D
100
AcDbEntity
8
Fastners-m6x50rod
6
ByLayer
62
256
370
-1
100
AcDbLine
10
178
20
100
11
172
21
100
0
LINE
5
16E
100
AcDbEntity
8
Fastners-m6x50rod
6
ByLayer
62
256
370
-1
100
AcDbLine
10
172
20
100
11
172
21
150
0
LINE
5
16F
100
AcDbEntity
8
Spring
6
ByLayer
62
256
370
-1
100
AcDbLine
10
179
20
137
11
171
21
136
0
LINE
5
170
100
AcDbEntity
8
Spring
6
ByLayer
62
256
370
-1
100
AcDbLine
10
171
20
137
11
179
21
137
0
LINE
5
171
100
AcDbEntity
8
Spring
6
ByLayer
62
256
370
-1
100
AcDbLine
10
179
20
136
11
171
21
135
0
LINE
5
172
100
AcDbEntity
8
Spring
6
ByLayer
62
256
370
-1
100
AcDbLine
10
179
20
124
11
171
21
124
0
LINE
5
173
100
AcDbEntity
8
Spring
6
ByLayer
62
256
370
-1
100
AcDbLine
10
179
20
135
11
171
21
134
0
LINE
5
174
100
AcDbEntity
8
Spring
6
ByLayer
62
256
370
-1
100
AcDbLine
10
179
20
134
11
171
21
133
0
LINE
5
175
100
AcDbEntity
8
Spring
6
ByLayer
62
256
370
-1
100
AcDbLine
10
179
20
133
11
171
21
132
0
LINE
5
176
100
AcDbEntity
8
Spring
6
ByLayer
62
256
370
-1
100
AcDbLine
10
179
20
132
11
171
21
131
0
LINE
5
177
100
AcDbEntity
8
Spring
6
ByLayer
62
256
370
-1
100
AcDbLine
10
179
20
131
11
171
21
130
0
LINE
5
178
100
AcDbEntity
8
Spring
6
ByLayer
62
256
370
-1
100
AcDbLine
10
179
20
130
11
171
21
129
0
LINE
5
179
100
AcDbEntity
8
Spring
6
ByLayer
62
256
370
-1
100
AcDbLine
10
179
20
129
11
171
21
128
0
LINE
5
17A
100
AcDbEntity
8
Spring
6
ByLayer
62
256
370
-1
100
AcDbLine
10
179
20
128
11
171
21
127
0
LINE
5
17B
100
AcDbEntity
8
Spring
6
ByLayer
62
256
370
-1
100
AcDbLine
10
179
20
127
11
171
21
126
0
LINE
5
17C
100
AcDbEntity
8
Spring
6
ByLayer
62
256
370
-1
100
AcDbLine
10
179
20
126
11
171
21
125
0
LINE
5
17D
100
AcDbEntity
8
Spring
6
ByLayer
62
256
370
-1
100
AcDbLine
10
179
20
125
11
171
21
124
0
LINE
5
17E
100
AcDbEntity
8
Slides
6
ByLayer
62
256
370
-1
100
AcDbLine
10
170
20
126
11
170
21
124
0
LINE
5
17F
100
AcDbEntity
8
Slides
6
ByLayer
62
256
370
-1
100
AcDbLine
10
170
20
124
11
180
21
124
0
LINE
5
180
100
AcDbEntity
8
Slides
6
ByLayer
62
256
370
-1
100
AcDbLine
10
180
20
124
11
180
21
126
0
LINE
5
181
100
AcDbEntity
8
Slides
6
ByLayer
62
256
370
-1
100
AcDbLine
10
170
20
134
11
170
21
136
0
LINE
5
182
100
AcDbEntity
8
Slides
6
ByLayer
62
256
370
-1
100
AcDbLine
10
170
20
136
11
180
21
136
0
LINE
5
183
100
AcDbEntity
8
Slides
6
ByLayer
62
256
370
-1
100
AcDbLine
10
180
20
136
11
180
21
134
0
LINE
5
184
100
AcDbEntity
8
Fastners-m6x50rod
6
ByLayer
62
256
370
-1
100
AcDbLine
10
168
20
105
11
168
21
101
0
LINE
5
185
100
AcDbEntity
8
Fastners-m6x50rod
6
ByLayer
62
256
370
-1
100
AcDbLine
10
168
20
101
11
182
21
101
0
LINE
5
186
100
AcDbEntity
8
Fastners-m6x50rod
6
ByLayer
62
256
370
-1
100
AcDbLine
10
182
20
101
11
182
21
105
0
LINE
5
187
100
AcDbEntity
8
Fastners-m6x50rod
6
ByLayer
62
256
370
-1
100
AcDbLine
10
182
20
105
11
168
21
105
0
ENDSEC
0
SECTION
2
OBJECTS
0
DICTIONARY
5
C
330
0
100
AcDbDictionary
281
1
3
ACAD_GROUP
350
D
0
DICTIONARY
5
D
330
C
100
AcDbDictionary
281
1
0
ENDSEC
0
EOF
