999
dxfrw 0.5.10
0
SECTION
2
HEADER
9
$ACADVER
1
AC1021
9
$HANDSEED
5
20000
9
$DWGCODEPAGE
3
ANSI_1252
9
$INSBASE
10
0
20
0
30
0
9
$EXTMIN
10
124
20
59.75
30
0
9
$EXTMAX
10
421.25
20
133.125
30
0
9
$LIMMIN
10
0
20
0
9
$LIMMAX
10
420
20
297
9
$ORTHOMODE
70
0
9
$LTSCALE
40
1
9
$TEXTSTYLE
7
STANDARD
9
$CLAYER
8
Dimensions
9
$DIMASZ
40
2.5
9
$DIMLFAC
40
1
9
$DIMSCALE
40
1
9
$DIMEXO
40
0.625
9
$DIMEXE
40
1.25
9
$DIMTXT
40
2.5
9
$DIMTSZ
40
0
9
$DIMAUNIT
70
0
9
$DIMADEC
70
0
9
$DIMLUNIT
70
2
9
$DIMSTYLE
2
STANDARD
9
$DIMGAP
40
0.625
9
$DIMTIH
70
0
9
$LUNITS
70
2
9
$LUPREC
70
4
9
$AUNITS
70
0
9
$AUPREC
70
2
9
$SPLINESEGS
70
8
9
$GRIDMODE
70
1
9
$SNAPSTYLE
70
0
9
$PINSBASE
10
-1034.69289346
20
-150.493461383
30
0
9
$PLIMMIN
10
0
20
0
9
$PLIMMAX
10
297
20
210
9
$INSUNITS
70
4
9
$PSVPSCALE
40
3
0
ENDSEC
0
SECTION
2
CLASSES
0
ENDSEC
0
SECTION
2
TABLES
0
TABLE
2
VPORT
5
8
330
0
100
AcDbSymbolTable
70
1
0
VPORT
5
31
330
2
100
AcDbSymbolTableRecord
100
AcDbViewportTableRecord
2
*ACTIVE
70
0
10
0
20
0
11
1
21
1
12
305.419921876
22
141.845703126
13
0
23
0
14
10
24
10
15
10
25
10
16
0
26
0
36
1
17
0
27
0
37
0
40
346.191406252
41
2.02115655853
42
50
43
0
44
0
50
0
51
0
71
0
72
100
73
1
74
3
75
0
76
1
77
0
78
0
281
0
65
1
110
0
120
0
130
0
111
1
121
0
131
0
112
0
122
1
132
0
79
0
146
0
348
10020
60
7
61
5
292
1
282
1
141
0
142
0
63
250
421
3358443
0
ENDTAB
0
TABLE
2
LTYPE
5
5
330
0
100
AcDbSymbolTable
70
4
0
LTYPE
5
14
330
5
100
AcDbSymbolTableRecord
100
AcDbLinetypeTableRecord
2
ByBlock
70
0
3

72
65
73
0
40
0
0
LTYPE
5
15
330
5
100
AcDbSymbolTableRecord
100
AcDbLinetypeTableRecord
2
ByLayer
70
0
3

72
65
73
0
40
0
0
LTYPE
5
16
330
5
100
AcDbSymbolTableRecord
100
AcDbLinetypeTableRecord
2
Continuous
70
0
3
Solid line
72
65
73
0
40
0
0
LTYPE
5
32
330
5
100
AcDbSymbolTableRecord
100
AcDbLinetypeTableRecord
2
DOT
70
0
3
Dot . . . . . . . . . . . . . . . . . . . . . .
72
65
73
2
40
6.35
49
0
74
0
49
-6.35
74
0
0
LTYPE
5
33
330
5
100
AcDbSymbolTableRecord
100
AcDbLinetypeTableRecord
2
DOT2
70
0
3
Dot (.5x) .....................................
72
65
73
2
40
3.175
49
0
74
0
49
-3.175
74
0
0
LTYPE
5
34
330
5
100
AcDbSymbolTableRecord
100
AcDbLinetypeTableRecord
2
DOTX2
70
0
3
Dot (2x) .  .  .  .  .  .  .  .  .  .  .  .  .
72
65
73
2
40
12.7
49
0
74
0
49
-12.7
74
0
0
LTYPE
5
35
330
5
100
AcDbSymbolTableRecord
100
AcDbLinetypeTableRecord
2
DASHED
70
0
3
Dot . . . . . . . . . . . . . . . . . . . . . .
72
65
73
2
40
19.05
49
12.7
74
0
49
-6.35
74
0
0
LTYPE
5
36
330
5
100
AcDbSymbolTableRecord
100
AcDbLinetypeTableRecord
2
DASHED2
70
0
3
Dashed (.5x) _ _ _ _ _ _ _ _ _ _ _ _ _ _ _ _ _
72
65
73
2
40
9.525
49
6.35
74
0
49
-3.175
74
0
0
LTYPE
5
37
330
5
100
AcDbSymbolTableRecord
100
AcDbLinetypeTableRecord
2
DASHEDX2
70
0
3
Dashed (2x) ____  ____  ____  ____  ____  ___
72
65
73
2
40
38.1
49
25.4
74
0
49
-12.7
74
0
0
LTYPE
5
38
330
5
100
AcDbSymbolTableRecord
100
AcDbLinetypeTableRecord
2
DASHDOT
70
0
3
Dash dot __ . __ . __ . __ . __ . __ . __ . __
72
65
73
4
40
25.4
49
12.7
74
0
49
-6.35
74
0
49
0
74
0
49
-6.35
74
0
0
LTYPE
5
39
330
5
100
AcDbSymbolTableRecord
100
AcDbLinetypeTableRecord
2
DASHDOT2
70
0
3
Dash dot (.5x) _._._._._._._._._._._._._._._.
72
65
73
4
40
12.7
49
6.35
74
0
49
-3.175
74
0
49
0
74
0
49
-3.175
74
0
0
LTYPE
5
3A
330
5
100
AcDbSymbolTableRecord
100
AcDbLinetypeTableRecord
2
DASHDOTX2
70
0
3
Dash dot (2x) ____  .  ____  .  ____  .  ___
72
65
73
4
40
50.8
49
25.4
74
0
49
-12.7
74
0
49
0
74
0
49
-12.7
74
0
0
LTYPE
5
3B
330
5
100
AcDbSymbolTableRecord
100
AcDbLinetypeTableRecord
2
DIVIDE
70
0
3
Divide ____ . . ____ . . ____ . . ____ . . ____
72
65
73
6
40
31.75
49
12.7
74
0
49
-6.35
74
0
49
0
74
0
49
-6.35
74
0
49
0
74
0
49
-6.35
74
0
0
LTYPE
5
3C
330
5
100
AcDbSymbolTableRecord
100
AcDbLinetypeTableRecord
2
DIVIDE2
70
0
3
Divide (.5x) __..__..__..__..__..__..__..__.._
72
65
73
6
40
15.875
49
6.35
74
0
49
-3.175
74
0
49
0
74
0
49
-3.175
74
0
49
0
74
0
49
-3.175
74
0
0
LTYPE
5
3D
330
5
100
AcDbSymbolTableRecord
100
AcDbLinetypeTableRecord
2
DIVIDEX2
70
0
3
Divide (2x) ________  .  .  ________  .  .  _
72
65
73
6
40
63.5
49
25.4
74
0
49
-12.7
74
0
49
0
74
0
49
-12.7
74
0
49
0
74
0
49
-12.7
74
0
0
LTYPE
5
3E
330
5
100
AcDbSymbolTableRecord
100
AcDbLinetypeTableRecord
2
BORDER
70
0
3
Border __ __ . __ __ . __ __ . __ __ . __ __ .
72
65
73
6
40
44.45
49
12.7
74
0
49
-6.35
74
0
49
12.7
74
0
49
-6.35
74
0
49
0
74
0
49
-6.35
74
0
0
LTYPE
5
3F
330
5
100
AcDbSymbolTableRecord
100
AcDbLinetypeTableRecord
2
BORDER2
70
0
3
Border (.5x) __.__.__.__.__.__.__.__.__.__.__.
72
65
73
6
40
22.225
49
6.35
74
0
49
-3.175
74
0
49
6.35
74
0
49
-3.175
74
0
49
0
74
0
49
-3.175
74
0
0
LTYPE
5
40
330
5
100
AcDbSymbolTableRecord
100
AcDbLinetypeTableRecord
2
BORDERX2
70
0
3
Border (2x) ____  ____  .  ____  ____  .  ___
72
65
73
6
40
88.9
49
25.4
74
0
49
-12.7
74
0
49
25.4
74
0
49
-12.7
74
0
49
0
74
0
49
-12.7
74
0
0
LTYPE
5
41
330
5
100
AcDbSymbolTableRecord
100
AcDbLinetypeTableRecord
2
CENTER
70
0
3
Center ____ _ ____ _ ____ _ ____ _ ____ _ ____
72
65
73
4
40
50.8
49
31.75
74
0
49
-6.35
74
0
49
6.35
74
0
49
-6.35
74
0
0
LTYPE
5
42
330
5
100
AcDbSymbolTableRecord
100
AcDbLinetypeTableRecord
2
CENTER2
70
0
3
Center (.5x) ___ _ ___ _ ___ _ ___ _ ___ _ ___
72
65
73
4
40
28.575
49
19.05
74
0
49
-3.175
74
0
49
3.175
74
0
49
-3.175
74
0
0
LTYPE
5
43
330
5
100
AcDbSymbolTableRecord
100
AcDbLinetypeTableRecord
2
CENTERX2
70
0
3
Center (2x) ________  __  ________  __  _____
72
65
73
4
40
101.6
49
63.5
74
0
49
-12.7
74
0
49
12.7
74
0
49
-12.7
74
0
0
ENDTAB
0
TABLE
2
LAYER
5
2
330
0
100
AcDbSymbolTable
70
1
0
LAYER
5
10
330
2
100
AcDbSymbolTableRecord
100
AcDbLayerTableRecord
2
0
70
4
62
7
6
CONTINUOUS
370
0
390
F
0
LAYER
5
44
330
2
100
AcDbSymbolTableRecord
100
AcDbLayerTableRecord
2
Bearing
70
4
62
7
6
CONTINUOUS
370
25
390
F
0
LAYER
5
45
330
2
100
AcDbSymbolTableRecord
100
AcDbLayerTableRecord
2
BearingShaft
70
4
62
176
420
128
6
CONTINUOUS
370
25
390
F
0
LAYER
5
46
330
2
100
AcDbSymbolTableRecord
100
AcDbLayerTableRecord
2
Handle
70
4
62
136
420
32896
6
CONTINUOUS
370
25
390
F
0
LAYER
5
47
330
2
100
AcDbSymbolTableRecord
100
AcDbLayerTableRecord
2
HandleHub
70
4
62
96
420
32768
6
CONTINUOUS
370
25
390
F
0
LAYER
5
48
330
2
100
AcDbSymbolTableRecord
100
AcDbLayerTableRecord
2
Spline
70
4
62
56
420
8421376
6
CONTINUOUS
370
25
390
F
0
LAYER
5
49
330
2
100
AcDbSymbolTableRecord
100
AcDbLayerTableRecord
2
Dimensions
70
5
62
7
6
CONTINUOUS
370
25
390
F
0
LAYER
5
4A
330
2
100
AcDbSymbolTableRecord
100
AcDbLayerTableRecord
2
Fastners
70
4
62
16
420
8388608
6
CONTINUOUS
370
25
390
F
0
ENDTAB
0
TABLE
2
STYLE
5
3
330
0
100
AcDbSymbolTable
70
3
0
STYLE
5
4B
330
2
100
AcDbSymbolTableRecord
100
AcDbTextStyleTableRecord
2
Standard
70
0
40
0
41
1
50
0
71
0
42
1
3
txt
4

0
ENDTAB
0
TABLE
2
VIEW
5
6
330
0
100
AcDbSymbolTable
70
0
0
ENDTAB
0
TABLE
2
UCS
5
7
330
0
100
AcDbSymbolTable
70
0
0
ENDTAB
0
TABLE
2
APPID
5
9
330
0
100
AcDbSymbolTable
70
1
0
APPID
5
12
330
9
100
AcDbSymbolTableRecord
100
AcDbRegAppTableRecord
2
ACAD
70
0
0
ENDTAB
0
TABLE
2
DIMSTYLE
5
A
330
0
100
AcDbSymbolTable
70
1
100
AcDbDimStyleTable
71
1
0
DIMSTYLE
105
4C
330
A
100
AcDbSymbolTableRecord
100
AcDbDimStyleTableRecord
2
Standard
70
0
40
1
41
2.5
42
0.625
43
0.38
44
1.25
45
0
46
0
47
0
48
0
140
2.5
141
0.09
142
0
143
25.4
144
1
145
0
146
1
147
0.625
148
0
71
0
72
0
73
0
74
1
75
0
76
0
77
0
78
0
79
0
170
0
171
2
172
0
173
0
174
0
175
0
176
0
177
0
178
0
179
0
271
4
272
4
273
2
274
2
275
0
276
0
277
2
278
46
279
0
280
0
281
0
282
0
283
1
284
0
285
0
286
0
288
0
289
3
340
Standard
341

371
-2
372
-2
0
ENDTAB
0
TABLE
2
BLOCK_RECORD
5
1
330
0
100
AcDbSymbolTable
70
2
0
BLOCK_RECORD
5
1F
330
1
100
AcDbSymbolTableRecord
100
AcDbBlockTableRecord
2
*Model_Space
70
0
280
1
281
0
0
BLOCK_RECORD
5
1E
330
1
100
AcDbSymbolTableRecord
100
AcDbBlockTableRecord
2
*Paper_Space
70
0
280
1
281
0
0
BLOCK_RECORD
5
4D
330
1
100
AcDbSymbolTableRecord
100
AcDbBlockTableRecord
2
*D2
70
0
280
1
281
0
0
BLOCK_RECORD
5
50
330
1
100
AcDbSymbolTableRecord
100
AcDbBlockTableRecord
2
*D8
70
0
280
1
281
0
0
BLOCK_RECORD
5
53
330
1
100
AcDbSymbolTableRecord
100
AcDbBlockTableRecord
2
*D13
70
0
280
1
281
0
0
BLOCK_RECORD
5
56
330
1
100
AcDbSymbolTableRecord
100
AcDbBlockTableRecord
2
*D9
70
0
280
1
281
0
0
BLOCK_RECORD
5
59
330
1
100
AcDbSymbolTableRecord
100
AcDbBlockTableRecord
2
*D7
70
0
280
1
281
0
0
BLOCK_RECORD
5
5C
330
1
100
AcDbSymbolTableRecord
100
AcDbBlockTableRecord
2
*D11
70
0
280
1
281
0
0
BLOCK_RECORD
5
5F
330
1
100
AcDbSymbolTableRecord
100
AcDbBlockTableRecord
2
*D3
70
0
280
1
281
0
0
BLOCK_RECORD
5
62
330
1
100
AcDbSymbolTableRecord
100
AcDbBlockTableRecord
2
*D5
70
0
280
1
281
0
0
BLOCK_RECORD
5
65
330
1
100
AcDbSymbolTableRecord
100
AcDbBlockTableRecord
2
*D6
70
0
280
1
281
0
0
BLOCK_RECORD
5
68
330
1
100
AcDbSymbolTableRecord
100
AcDbBlockTableRecord
2
*D1
70
0
280
1
281
0
0
BLOCK_RECORD
5
6B
330
1
100
AcDbSymbolTableRecord
100
AcDbBlockTableRecord
2
*D4
70
0
280
1
281
0
0
BLOCK_RECORD
5
6E
330
1
100
AcDbSymbolTableRecord
100
AcDbBlockTableRecord
2
*D15
70
0
280
1
281
0
0
BLOCK_RECORD
5
71
330
1
100
AcDbSymbolTableRecord
100
AcDbBlockTableRecord
2
*D10
70
0
280
1
281
0
0
BLOCK_RECORD
5
74
330
1
100
AcDbSymbolTableRecord
100
AcDbBlockTableRecord
2
*D14
70
0
280
1
281
0
0
BLOCK_RECORD
5
77
330
1
100
AcDbSymbolTableRecord
100
AcDbBlockTableRecord
2
*D12
70
0
280
1
281
0
0
ENDTAB
0
ENDSEC
0
SECTION
2
BLOCKS
0
BLOCK
5
20
330
1F
100
AcDbEntity
8
0
100
AcDbBlockBegin
2
*Model_Space
70
0
10
0
20
0
30
0
3
*Model_Space
1

0
ENDBLK
5
21
330
1F
100
AcDbEntity
8
0
100
AcDbBlockEnd
0
BLOCK
5
1C
330
1B
100
AcDbEntity
8
0
100
AcDbBlockBegin
2
*Paper_Space
70
0
10
0
20
0
30
0
3
*Paper_Space
1

0
ENDBLK
5
1D
330
1F
100
AcDbEntity
8
0
100
AcDbBlockEnd
0
BLOCK
5
4E
330
4D
100
AcDbEntity
8
0
100
AcDbBlockBegin
2
*D2
70
1
10
0
20
0
3
*D2
1

0
LINE
5
7A
100
AcDbEntity
8
Dimensions
6
CONTINUOUS
62
7
370
0
100
AcDbLine
10
292
20
130
11
308
21
130
0
SOLID
5
7B
100
AcDbEntity
8
Dimensions
6
CONTINUOUS
62
7
370
0
100
AcDbTrace
10
292
20
130
30
0
11
294.5
21
130.416284658
31
0
12
294.5
22
129.583715342
32
0
13
294.5
23
129.583715342
33
0
0
SOLID
5
7C
100
AcDbEntity
8
Dimensions
6
CONTINUOUS
62
7
370
0
100
AcDbTrace
10
308
20
130
30
0
11
305.5
21
129.583715342
31
0
12
305.5
22
130.416284658
32
0
13
305.5
23
130.416284658
33
0
0
MTEXT
5
7D
100
AcDbEntity
8
Dimensions
6
CONTINUOUS
62
7
370
0
100
AcDbMText
10
300
20
131.875
30
0
40
2.5
41
2.5
71
5
72
1
1
16
7
standard
210
0
220
0
230
1
50
0
73
2
44
1
0
LINE
5
7E
100
AcDbEntity
8
Dimensions
6
CONTINUOUS
62
7
370
0
100
AcDbLine
10
292
20
120.625
11
292
21
131.25
0
LINE
5
7F
100
AcDbEntity
8
Dimensions
6
CONTINUOUS
62
7
370
0
100
AcDbLine
10
308
20
120.625
11
308
21
131.25
0
ENDBLK
5
4F
330
4D
100
AcDbEntity
8
0
100
AcDbBlockEnd
0
BLOCK
5
51
330
50
100
AcDbEntity
8
0
100
AcDbBlockBegin
2
*D8
70
1
10
0
20
0
3
*D8
1

0
LINE
5
80
100
AcDbEntity
8
Dimensions
6
CONTINUOUS
62
7
370
0
100
AcDbLine
10
290
20
85
11
310
21
85
0
SOLID
5
81
100
AcDbEntity
8
Dimensions
6
CONTINUOUS
62
7
370
0
100
AcDbTrace
10
290
20
85
30
0
11
292.5
21
85.4162846578
31
0
12
292.5
22
84.5837153422
32
0
13
292.5
23
84.5837153422
33
0
0
SOLID
5
82
100
AcDbEntity
8
Dimensions
6
CONTINUOUS
62
7
370
0
100
AcDbTrace
10
310
20
85
30
0
11
307.5
21
84.5837153422
31
0
12
307.5
22
85.4162846578
32
0
13
307.5
23
85.4162846578
33
0
0
MTEXT
5
83
100
AcDbEntity
8
Dimensions
6
CONTINUOUS
62
7
370
0
100
AcDbMText
10
300
20
86.875
30
0
40
2.5
41
3.05555555556
71
5
72
1
1
20
7
standard
210
0
220
0
230
1
50
0
73
2
44
1
0
LINE
5
84
100
AcDbEntity
8
Dimensions
6
CONTINUOUS
62
7
370
0
100
AcDbLine
10
290
20
87.375
11
290
21
83.75
0
LINE
5
85
100
AcDbEntity
8
Dimensions
6
CONTINUOUS
62
7
370
0
100
AcDbLine
10
310
20
87.375
11
310
21
83.75
0
ENDBLK
5
52
330
50
100
AcDbEntity
8
0
100
AcDbBlockEnd
0
BLOCK
5
54
330
53
100
AcDbEntity
8
0
100
AcDbBlockBegin
2
*D13
70
1
10
0
20
0
3
*D13
1

0
LINE
5
86
100
AcDbEntity
8
Dimensions
6
CONTINUOUS
62
7
370
0
100
AcDbLine
10
420
20
87
11
420
21
101
0
SOLID
5
87
100
AcDbEntity
8
Dimensions
6
CONTINUOUS
62
7
370
0
100
AcDbTrace
10
420
20
92
30
0
11
420.416284658
21
89.5
31
0
12
419.583715342
22
89.5
32
0
13
419.583715342
23
89.5
33
0
0
SOLID
5
88
100
AcDbEntity
8
Dimensions
6
CONTINUOUS
62
7
370
0
100
AcDbTrace
10
420
20
96
30
0
11
419.583715342
21
98.5
31
0
12
420.416284658
22
98.5
32
0
13
420.416284658
23
98.5
33
0
0
MTEXT
5
89
100
AcDbEntity
8
Dimensions
6
CONTINUOUS
62
7
370
0
100
AcDbMText
10
418.125
20
94
30
0
40
2.5
41
1.38888888889
71
5
72
1
1
4
7
standard
210
0
220
0
230
1
50
90
73
2
44
1
0
LINE
5
8A
100
AcDbEntity
8
Dimensions
6
CONTINUOUS
62
7
370
0
100
AcDbLine
10
410.625
20
92
11
421.25
21
92
0
LINE
5
8B
100
AcDbEntity
8
Dimensions
6
CONTINUOUS
62
7
370
0
100
AcDbLine
10
410.625
20
96
11
421.25
21
96
0
ENDBLK
5
55
330
53
100
AcDbEntity
8
0
100
AcDbBlockEnd
0
BLOCK
5
57
330
56
100
AcDbEntity
8
0
100
AcDbBlockBegin
2
*D9
70
1
10
0
20
0
3
*D9
1

0
LINE
5
8C
100
AcDbEntity
8
Dimensions
6
CONTINUOUS
62
7
370
0
100
AcDbLine
10
376
20
109
11
385
21
109
0
SOLID
5
8D
100
AcDbEntity
8
Dimensions
6
CONTINUOUS
62
7
370
0
100
AcDbTrace
10
376
20
109
30
0
11
378.5
21
109.416284658
31
0
12
378.5
22
108.583715342
32
0
13
378.5
23
108.583715342
33
0
0
SOLID
5
8E
100
AcDbEntity
8
Dimensions
6
CONTINUOUS
62
7
370
0
100
AcDbTrace
10
385
20
109
30
0
11
382.5
21
108.583715342
31
0
12
382.5
22
109.416284658
32
0
13
382.5
23
109.416284658
33
0
0
MTEXT
5
8F
100
AcDbEntity
8
Dimensions
6
CONTINUOUS
62
7
370
0
100
AcDbMText
10
380.5
20
110.875
30
0
40
2.5
41
1.11111111111
71
5
72
1
1
9
7
standard
210
0
220
0
230
1
50
0
73
2
44
1
0
LINE
5
90
100
AcDbEntity
8
Dimensions
6
CONTINUOUS
62
7
370
0
100
AcDbLine
10
376
20
100.625
11
376
21
110.25
0
LINE
5
91
100
AcDbEntity
8
Dimensions
6
CONTINUOUS
62
7
370
0
100
AcDbLine
10
385
20
100.625
11
385
21
110.25
0
ENDBLK
5
58
330
56
100
AcDbEntity
8
0
100
AcDbBlockEnd
0
BLOCK
5
5A
330
59
100
AcDbEntity
8
0
100
AcDbBlockBegin
2
*D7
70
1
10
0
20
0
3
*D7
1

0
LINE
5
92
100
AcDbEntity
8
Dimensions
6
CONTINUOUS
62
7
370
0
100
AcDbLine
10
295.5
20
90
11
304.5
21
90
0
SOLID
5
93
100
AcDbEntity
8
Dimensions
6
CONTINUOUS
62
7
370
0
100
AcDbTrace
10
295.5
20
90
30
0
11
298
21
90.4162846578
31
0
12
298
22
89.5837153422
32
0
13
298
23
89.5837153422
33
0
0
SOLID
5
94
100
AcDbEntity
8
Dimensions
6
CONTINUOUS
62
7
370
0
100
AcDbTrace
10
304.5
20
90
30
0
11
302
21
89.5837153422
31
0
12
302
22
90.4162846578
32
0
13
302
23
90.4162846578
33
0
0
MTEXT
5
95
100
AcDbEntity
8
Dimensions
6
CONTINUOUS
62
7
370
0
100
AcDbMText
10
300
20
91.875
30
0
40
2.5
41
1.11111111111
71
5
72
1
1
9
7
standard
210
0
220
0
230
1
50
0
73
2
44
1
0
LINE
5
96
100
AcDbEntity
8
Dimensions
6
CONTINUOUS
62
7
370
0
100
AcDbLine
10
295.5
20
92.375
11
295.5
21
88.75
0
LINE
5
97
100
AcDbEntity
8
Dimensions
6
CONTINUOUS
62
7
370
0
100
AcDbLine
10
304.5
20
92.375
11
304.5
21
88.75
0
ENDBLK
5
5B
330
59
100
AcDbEntity
8
0
100
AcDbBlockEnd
0
BLOCK
5
5D
330
5C
100
AcDbEntity
8
0
100
AcDbBlockBegin
2
*D11
70
1
10
0
20
0
3
*D11
1

0
LINE
5
98
100
AcDbEntity
8
Dimensions
6
CONTINUOUS
62
7
370
0
100
AcDbLine
10
391
20
109
11
400
21
109
0
SOLID
5
99
100
AcDbEntity
8
Dimensions
6
CONTINUOUS
62
7
370
0
100
AcDbTrace
10
391
20
109
30
0
11
393.5
21
109.416284658
31
0
12
393.5
22
108.583715342
32
0
13
393.5
23
108.583715342
33
0
0
SOLID
5
9A
100
AcDbEntity
8
Dimensions
6
CONTINUOUS
62
7
370
0
100
AcDbTrace
10
400
20
109
30
0
11
397.5
21
108.583715342
31
0
12
397.5
22
109.416284658
32
0
13
397.5
23
109.416284658
33
0
0
MTEXT
5
9B
100
AcDbEntity
8
Dimensions
6
CONTINUOUS
62
7
370
0
100
AcDbMText
10
395.5
20
110.875
30
0
40
2.5
41
1.11111111111
71
5
72
1
1
9
7
standard
210
0
220
0
230
1
50
0
73
2
44
1
0
LINE
5
9C
100
AcDbEntity
8
Dimensions
6
CONTINUOUS
62
7
370
0
100
AcDbLine
10
391
20
100.625
11
391
21
110.25
0
LINE
5
9D
100
AcDbEntity
8
Dimensions
6
CONTINUOUS
62
7
370
0
100
AcDbLine
10
400
20
100.625
11
400
21
110.25
0
ENDBLK
5
5E
330
5C
100
AcDbEntity
8
0
100
AcDbBlockEnd
0
BLOCK
5
60
330
5F
100
AcDbEntity
8
0
100
AcDbBlockBegin
2
*D3
70
1
10
0
20
0
3
*D3
1

0
LINE
5
9E
100
AcDbEntity
8
Dimensions
6
CONTINUOUS
62
7
370
0
100
AcDbLine
10
340
20
117
11
340
21
110
0
SOLID
5
9F
100
AcDbEntity
8
Dimensions
6
CONTINUOUS
62
7
370
0
100
AcDbTrace
10
340
20
117
30
0
11
340.416284658
21
114.5
31
0
12
339.583715342
22
114.5
32
0
13
339.583715342
23
114.5
33
0
0
SOLID
5
A0
100
AcDbEntity
8
Dimensions
6
CONTINUOUS
62
7
370
0
100
AcDbTrace
10
340
20
110
30
0
11
339.583715342
21
112.5
31
0
12
340.416284658
22
112.5
32
0
13
340.416284658
23
112.5
33
0
0
MTEXT
5
A1
100
AcDbEntity
8
Dimensions
6
CONTINUOUS
62
7
370
0
100
AcDbMText
10
338.125
20
113.5
30
0
40
2.5
41
1.11111111111
71
5
72
1
1
7
7
standard
210
0
220
0
230
1
50
90
73
2
44
1
0
LINE
5
A2
100
AcDbEntity
8
Dimensions
6
CONTINUOUS
62
7
370
0
100
AcDbLine
10
330.625
20
117
11
341.25
21
117
0
LINE
5
A3
100
AcDbEntity
8
Dimensions
6
CONTINUOUS
62
7
370
0
100
AcDbLine
10
330.625
20
110
11
341.25
21
110
0
ENDBLK
5
61
330
5F
100
AcDbEntity
8
0
100
AcDbBlockEnd
0
BLOCK
5
63
330
62
100
AcDbEntity
8
0
100
AcDbBlockBegin
2
*D5
70
1
10
0
20
0
3
*D5
1

0
LINE
5
A4
100
AcDbEntity
8
Dimensions
6
CONTINUOUS
62
7
370
0
100
AcDbLine
10
340
20
105
11
340
21
96
0
SOLID
5
A5
100
AcDbEntity
8
Dimensions
6
CONTINUOUS
62
7
370
0
100
AcDbTrace
10
340
20
105
30
0
11
340.416284658
21
102.5
31
0
12
339.583715342
22
102.5
32
0
13
339.583715342
23
102.5
33
0
0
SOLID
5
A6
100
AcDbEntity
8
Dimensions
6
CONTINUOUS
62
7
370
0
100
AcDbTrace
10
340
20
96
30
0
11
339.583715342
21
98.5
31
0
12
340.416284658
22
98.5
32
0
13
340.416284658
23
98.5
33
0
0
MTEXT
5
A7
100
AcDbEntity
8
Dimensions
6
CONTINUOUS
62
7
370
0
100
AcDbMText
10
338.125
20
100.5
30
0
40
2.5
41
1.11111111111
71
5
72
1
1
9
7
standard
210
0
220
0
230
1
50
90
73
2
44
1
0
LINE
5
A8
100
AcDbEntity
8
Dimensions
6
CONTINUOUS
62
7
370
0
100
AcDbLine
10
330.625
20
105
11
341.25
21
105
0
LINE
5
A9
100
AcDbEntity
8
Dimensions
6
CONTINUOUS
62
7
370
0
100
AcDbLine
10
330.625
20
96
11
341.25
21
96
0
ENDBLK
5
64
330
62
100
AcDbEntity
8
0
100
AcDbBlockEnd
0
BLOCK
5
66
330
65
100
AcDbEntity
8
0
100
AcDbBlockBegin
2
*D6
70
1
10
0
20
0
3
*D6
1

0
LINE
5
AA
100
AcDbEntity
8
Dimensions
6
CONTINUOUS
62
7
370
0
100
AcDbLine
10
294.5
20
121
11
305.5
21
121
0
SOLID
5
AB
100
AcDbEntity
8
Dimensions
6
CONTINUOUS
62
7
370
0
100
AcDbTrace
10
294.5
20
121
30
0
11
297
21
121.416284658
31
0
12
297
22
120.583715342
32
0
13
297
23
120.583715342
33
0
0
SOLID
5
AC
100
AcDbEntity
8
Dimensions
6
CONTINUOUS
62
7
370
0
100
AcDbTrace
10
305.5
20
121
30
0
11
303
21
120.583715342
31
0
12
303
22
121.416284658
32
0
13
303
23
121.416284658
33
0
0
MTEXT
5
AD
100
AcDbEntity
8
Dimensions
6
CONTINUOUS
62
7
370
0
100
AcDbMText
10
300
20
122.875
30
0
40
2.5
41
1.94444444444
71
5
72
1
1
11
7
standard
210
0
220
0
230
1
50
0
73
2
44
1
0
LINE
5
AE
100
AcDbEntity
8
Dimensions
6
CONTINUOUS
62
7
370
0
100
AcDbLine
10
294.5
20
120.625
11
294.5
21
122.25
0
LINE
5
AF
100
AcDbEntity
8
Dimensions
6
CONTINUOUS
62
7
370
0
100
AcDbLine
10
305.5
20
120.625
11
305.5
21
122.25
0
ENDBLK
5
67
330
65
100
AcDbEntity
8
0
100
AcDbBlockEnd
0
BLOCK
5
69
330
68
100
AcDbEntity
8
0
100
AcDbBlockBegin
2
*D1
70
1
10
0
20
0
3
*D1
1

0
LINE
5
B0
100
AcDbEntity
8
Dimensions
6
CONTINUOUS
62
7
370
0
100
AcDbLine
10
275
20
80
11
325
21
80
0
SOLID
5
B1
100
AcDbEntity
8
Dimensions
6
CONTINUOUS
62
7
370
0
100
AcDbTrace
10
275
20
80
30
0
11
277.5
21
80.4162846578
31
0
12
277.5
22
79.5837153422
32
0
13
277.5
23
79.5837153422
33
0
0
SOLID
5
B2
100
AcDbEntity
8
Dimensions
6
CONTINUOUS
62
7
370
0
100
AcDbTrace
10
325
20
80
30
0
11
322.5
21
79.5837153422
31
0
12
322.5
22
80.4162846578
32
0
13
322.5
23
80.4162846578
33
0
0
MTEXT
5
B3
100
AcDbEntity
8
Dimensions
6
CONTINUOUS
62
7
370
0
100
AcDbMText
10
300
20
81.875
30
0
40
2.5
41
3.05555555556
71
5
72
1
1
50
7
standard
210
0
220
0
230
1
50
0
73
2
44
1
0
LINE
5
B4
100
AcDbEntity
8
Dimensions
6
CONTINUOUS
62
7
370
0
100
AcDbLine
10
275
20
89.375
11
275
21
78.75
0
LINE
5
B5
100
AcDbEntity
8
Dimensions
6
CONTINUOUS
62
7
370
0
100
AcDbLine
10
325
20
89.375
11
325
21
78.75
0
ENDBLK
5
6A
330
68
100
AcDbEntity
8
0
100
AcDbBlockEnd
0
BLOCK
5
6C
330
6B
100
AcDbEntity
8
0
100
AcDbBlockBegin
2
*D4
70
1
10
0
20
0
3
*D4
1

0
LINE
5
B6
100
AcDbEntity
8
Dimensions
6
CONTINUOUS
62
7
370
0
100
AcDbLine
10
340
20
115
11
340
21
100
0
SOLID
5
B7
100
AcDbEntity
8
Dimensions
6
CONTINUOUS
62
7
370
0
100
AcDbTrace
10
340
20
110
30
0
11
339.583715342
21
112.5
31
0
12
340.416284658
22
112.5
32
0
13
340.416284658
23
112.5
33
0
0
SOLID
5
B8
100
AcDbEntity
8
Dimensions
6
CONTINUOUS
62
7
370
0
100
AcDbTrace
10
340
20
105
30
0
11
340.416284658
21
102.5
31
0
12
339.583715342
22
102.5
32
0
13
339.583715342
23
102.5
33
0
0
MTEXT
5
B9
100
AcDbEntity
8
Dimensions
6
CONTINUOUS
62
7
370
0
100
AcDbMText
10
338.125
20
107.5
30
0
40
2.5
41
1.11111111111
71
5
72
1
1
5
7
standard
210
0
220
0
230
1
50
90
73
2
44
1
0
LINE
5
BA
100
AcDbEntity
8
Dimensions
6
CONTINUOUS
62
7
370
0
100
AcDbLine
10
330.625
20
110
11
341.25
21
110
0
LINE
5
BB
100
AcDbEntity
8
Dimensions
6
CONTINUOUS
62
7
370
0
100
AcDbLine
10
330.625
20
105
11
341.25
21
105
0
ENDBLK
5
6D
330
6B
100
AcDbEntity
8
0
100
AcDbBlockEnd
0
BLOCK
5
6F
330
6E
100
AcDbEntity
8
0
100
AcDbBlockBegin
2
*D15
70
1
10
0
20
0
3
*D15
1

0
LINE
5
BC
100
AcDbEntity
8
Dimensions
6
CONTINUOUS
62
7
370
0
100
AcDbLine
10
420
20
92
11
420
21
76
0
SOLID
5
BD
100
AcDbEntity
8
Dimensions
6
CONTINUOUS
62
7
370
0
100
AcDbTrace
10
420
20
92
30
0
11
420.416284658
21
89.5
31
0
12
419.583715342
22
89.5
32
0
13
419.583715342
23
89.5
33
0
0
SOLID
5
BE
100
AcDbEntity
8
Dimensions
6
CONTINUOUS
62
7
370
0
100
AcDbTrace
10
420
20
76
30
0
11
419.583715342
21
78.5
31
0
12
420.416284658
22
78.5
32
0
13
420.416284658
23
78.5
33
0
0
MTEXT
5
BF
100
AcDbEntity
8
Dimensions
6
CONTINUOUS
62
7
370
0
100
AcDbMText
10
418.125
20
84
30
0
40
2.5
41
2.5
71
5
72
1
1
16
7
standard
210
0
220
0
230
1
50
90
73
2
44
1
0
LINE
5
C0
100
AcDbEntity
8
Dimensions
6
CONTINUOUS
62
7
370
0
100
AcDbLine
10
410.625
20
92
11
421.25
21
92
0
LINE
5
C1
100
AcDbEntity
8
Dimensions
6
CONTINUOUS
62
7
370
0
100
AcDbLine
10
410.625
20
76
11
421.25
21
76
0
ENDBLK
5
70
330
6E
100
AcDbEntity
8
0
100
AcDbBlockEnd
0
BLOCK
5
72
330
71
100
AcDbEntity
8
0
100
AcDbBlockBegin
2
*D10
70
1
10
0
20
0
3
*D10
1

0
LINE
5
C2
100
AcDbEntity
8
Dimensions
6
CONTINUOUS
62
7
370
0
100
AcDbLine
10
380
20
109
11
396
21
109
0
SOLID
5
C3
100
AcDbEntity
8
Dimensions
6
CONTINUOUS
62
7
370
0
100
AcDbTrace
10
385
20
109
30
0
11
382.5
21
108.583715342
31
0
12
382.5
22
109.416284658
32
0
13
382.5
23
109.416284658
33
0
0
SOLID
5
C4
100
AcDbEntity
8
Dimensions
6
CONTINUOUS
62
7
370
0
100
AcDbTrace
10
391
20
109
30
0
11
393.5
21
109.416284658
31
0
12
393.5
22
108.583715342
32
0
13
393.5
23
108.583715342
33
0
0
MTEXT
5
C5
100
AcDbEntity
8
Dimensions
6
CONTINUOUS
62
7
370
0
100
AcDbMText
10
388
20
110.875
30
0
40
2.5
41
1.11111111111
71
5
72
1
1
6
7
standard
210
0
220
0
230
1
50
0
73
2
44
1
0
LINE
5
C6
100
AcDbEntity
8
Dimensions
6
CONTINUOUS
62
7
370
0
100
AcDbLine
10
385
20
100.625
11
385
21
110.25
0
LINE
5
C7
100
AcDbEntity
8
Dimensions
6
CONTINUOUS
62
7
370
0
100
AcDbLine
10
391
20
100.625
11
391
21
110.25
0
ENDBLK
5
73
330
71
100
AcDbEntity
8
0
100
AcDbBlockEnd
0
BLOCK
5
75
330
74
100
AcDbEntity
8
0
100
AcDbBlockBegin
2
*D14
70
1
10
0
20
0
3
*D14
1

0
LINE
5
C8
100
AcDbEntity
8
Dimensions
6
CONTINUOUS
62
7
370
0
100
AcDbLine
10
360
20
96
11
360
21
81
0
SOLID
5
C9
100
AcDbEntity
8
Dimensions
6
CONTINUOUS
62
7
370
0
100
AcDbTrace
10
360
20
96
30
0
11
360.416284658
21
93.5
31
0
12
359.583715342
22
93.5
32
0
13
359.583715342
23
93.5
33
0
0
SOLID
5
CA
100
AcDbEntity
8
Dimensions
6
CONTINUOUS
62
7
370
0
100
AcDbTrace
10
360
20
81
30
0
11
359.583715342
21
83.5
31
0
12
360.416284658
22
83.5
32
0
13
360.416284658
23
83.5
33
0
0
MTEXT
5
CB
100
AcDbEntity
8
Dimensions
6
CONTINUOUS
62
7
370
0
100
AcDbMText
10
358.125
20
88.5
30
0
40
2.5
41
2.5
71
5
72
1
1
15
7
standard
210
0
220
0
230
1
50
90
73
2
44
1
0
LINE
5
CC
100
AcDbEntity
8
Dimensions
6
CONTINUOUS
62
7
370
0
100
AcDbLine
10
369.375
20
96
11
358.75
21
96
0
LINE
5
CD
100
AcDbEntity
8
Dimensions
6
CONTINUOUS
62
7
370
0
100
AcDbLine
10
369.375
20
81
11
358.75
21
81
0
ENDBLK
5
76
330
74
100
AcDbEntity
8
0
100
AcDbBlockEnd
0
BLOCK
5
78
330
77
100
AcDbEntity
8
0
100
AcDbBlockBegin
2
*D12
70
1
10
0
20
0
3
*D12
1

0
LINE
5
CE
100
AcDbEntity
8
Dimensions
6
CONTINUOUS
62
7
370
0
100
AcDbLine
10
382
20
61
11
394
21
61
0
SOLID
5
CF
100
AcDbEntity
8
Dimensions
6
CONTINUOUS
62
7
370
0
100
AcDbTrace
10
382
20
61
30
0
11
384.5
21
61.4162846578
31
0
12
384.5
22
60.5837153422
32
0
13
384.5
23
60.5837153422
33
0
0
SOLID
5
D0
100
AcDbEntity
8
Dimensions
6
CONTINUOUS
62
7
370
0
100
AcDbTrace
10
394
20
61
30
0
11
391.5
21
60.5837153422
31
0
12
391.5
22
61.4162846578
32
0
13
391.5
23
61.4162846578
33
0
0
MTEXT
5
D1
100
AcDbEntity
8
Dimensions
6
CONTINUOUS
62
7
370
0
100
AcDbMText
10
388
20
62.875
30
0
40
2.5
41
2.5
71
5
72
1
1
12
7
standard
210
0
220
0
230
1
50
0
73
2
44
1
0
LINE
5
D2
100
AcDbEntity
8
Dimensions
6
CONTINUOUS
62
7
370
0
100
AcDbLine
10
382
20
69.375
11
382
21
59.75
0
LINE
5
D3
100
AcDbEntity
8
Dimensions
6
CONTINUOUS
62
7
370
0
100
AcDbLine
10
394
20
69.375
11
394
21
59.75
0
ENDBLK
5
79
330
77
100
AcDbEntity
8
0
100
AcDbBlockEnd
0
ENDSEC
0
SECTION
2
ENTITIES
0
CIRCLE
5
D4
100
AcDbEntity
8
Bearing
6
ByLayer
62
256
370
-1
100
AcDbCircle
10
130
20
100
40
6
0
CIRCLE
5
D5
100
AcDbEntity
8
Bearing
6
ByLayer
62
256
370
-1
100
AcDbCircle
10
130
20
100
40
16
0
CIRCLE
5
D6
100
AcDbEntity
8
Bearing
6
ByLayer
62
256
370
-1
100
AcDbCircle
10
130
20
100
40
8
0
CIRCLE
5
D7
100
AcDbEntity
8
Bearing
6
ByLayer
62
256
370
-1
100
AcDbCircle
10
130
20
100
40
14
0
CIRCLE
5
D8
100
AcDbEntity
8
Bearing
6
ByLayer
62
256
370
-1
100
AcDbCircle
10
130
20
111
40
3
0
CIRCLE
5
D9
100
AcDbEntity
8
Bearing
6
ByLayer
62
256
370
-1
100
AcDbCircle
10
120.473720558
20
105.5
40
3
0
CIRCLE
5
DA
100
AcDbEntity
8
Bearing
6
ByLayer
62
256
370
-1
100
AcDbCircle
10
120.473720558
20
94.5
40
3
0
CIRCLE
5
DB
100
AcDbEntity
8
Bearing
6
ByLayer
62
256
370
-1
100
AcDbCircle
10
130
20
89
40
3
0
CIRCLE
5
DC
100
AcDbEntity
8
Bearing
6
ByLayer
62
256
370
-1
100
AcDbCircle
10
139.526279442
20
94.5
40
3
0
CIRCLE
5
DD
100
AcDbEntity
8
Bearing
6
ByLayer
62
256
370
-1
100
AcDbCircle
10
139.526279442
20
105.5
40
3
0
CIRCLE
5
DE
100
AcDbEntity
8
BearingShaft
6
ByLayer
62
256
370
-1
100
AcDbCircle
10
130
20
100
40
6
0
CIRCLE
5
DF
100
AcDbEntity
8
Handle
6
ByLayer
62
256
370
-1
100
AcDbCircle
10
40
20
100
40
10
0
ARC
5
E0
100
AcDbEntity
8
Handle
6
ByLayer
62
256
370
-1
100
AcDbCircle
10
130
20
100
40
12
100
AcDbArc
50
274.763641691
51
85.2363583093
0
LINE
5
E1
100
AcDbEntity
8
Handle
6
ByLayer
62
256
370
-1
100
AcDbLine
10
131
20
112
11
61.6211719232
21
118.475357287
0
ARC
5
E2
100
AcDbEntity
8
Handle
6
ByLayer
62
256
370
-1
100
AcDbCircle
10
63.4797609552
20
138.388811202
40
20
100
AcDbArc
50
238.548779741
51
264.667841118
0
LINE
5
E3
100
AcDbEntity
8
Handle
6
ByLayer
62
256
370
-1
100
AcDbLine
10
131
20
88
11
61.6211719232
21
81.5246427128
0
ARC
5
E4
100
AcDbEntity
8
Handle
6
ByLayer
62
256
370
-1
100
AcDbCircle
10
63.4797609552
20
61.6111887982
40
20
100
AcDbArc
50
95.3321588817
51
121.451220259
0
ARC
5
E5
100
AcDbEntity
8
Handle
6
ByLayer
62
256
370
-1
100
AcDbCircle
10
40
20
100
40
25
100
AcDbArc
50
58.2405199152
51
302.471192291
0
CIRCLE
5
E6
100
AcDbEntity
8
Handle
6
ByLayer
62
256
370
-1
100
AcDbCircle
10
100
20
100
40
8
0
CIRCLE
5
E7
100
AcDbEntity
8
Handle
6
ByLayer
62
256
370
-1
100
AcDbCircle
10
76
20
100
40
10.0498756211
0
CIRCLE
5
E8
100
AcDbEntity
8
HandleHub
6
ByLayer
62
256
370
-1
100
AcDbCircle
10
40
20
100
40
10
0
CIRCLE
5
E9
100
AcDbEntity
8
HandleHub
6
ByLayer
62
256
370
-1
100
AcDbCircle
10
40
20
100
40
25
0
LINE
5
EA
100
AcDbEntity
8
Spline
6
ByLayer
62
256
370
-1
100
AcDbLine
10
40.1
20
105.4
11
39.9
21
105.4
0
LINE
5
EB
100
AcDbEntity
8
Spline
6
ByLayer
62
256
370
-1
100
AcDbLine
10
40.1
20
105.4
11
40.76
21
104.74
0
LINE
5
EC
100
AcDbEntity
8
Spline
6
ByLayer
62
256
370
-1
100
AcDbLine
10
39.9
20
105.4
11
39.24
21
104.74
0
LINE
5
ED
100
AcDbEntity
8
Spline
6
ByLayer
62
256
370
-1
100
AcDbLine
10
40.76
20
104.74
11
40.936
21
104.708
0
LINE
5
EE
100
AcDbEntity
8
Spline
6
ByLayer
62
256
370
-1
100
AcDbLine
10
39.24
20
104.74
11
39.063
21
104.708
0
LINE
5
EF
100
AcDbEntity
8
Spline
6
ByLayer
62
256
370
-1
100
AcDbLine
10
38.0258974185
20
105.027217819
11
37.841121512
21
104.950681132
0
LINE
5
F0
100
AcDbEntity
8
Spline
6
ByLayer
62
256
370
-1
100
AcDbLine
10
38.0258974185
20
105.027217819
11
38.8882289753
21
104.670028393
0
LINE
5
F1
100
AcDbEntity
8
Spline
6
ByLayer
62
256
370
-1
100
AcDbLine
10
37.841121512
20
104.950681132
11
37.4839320859
21
104.088349576
0
LINE
5
F2
100
AcDbEntity
8
Spline
6
ByLayer
62
256
370
-1
100
AcDbLine
10
38.8882289753
20
104.670028393
11
39.0630776429
21
104.707816532
0
LINE
5
F3
100
AcDbEntity
8
Spline
6
ByLayer
62
256
370
-1
100
AcDbLine
10
37.4839320859
20
104.088349576
11
37.3326512785
21
103.991050463
0
LINE
5
F4
100
AcDbEntity
8
Spline
6
ByLayer
62
256
370
-1
100
AcDbLine
10
36.2523340597
20
103.889087297
11
36.1109127035
21
103.74766594
0
LINE
5
F5
100
AcDbEntity
8
Spline
6
ByLayer
62
256
370
-1
100
AcDbLine
10
36.2523340597
20
103.889087297
11
37.1857150109
21
103.889087297
0
LINE
5
F6
100
AcDbEntity
8
Spline
6
ByLayer
62
256
370
-1
100
AcDbLine
10
36.1109127035
20
103.74766594
11
36.1109127035
21
102.814284989
0
LINE
5
F7
100
AcDbEntity
8
Spline
6
ByLayer
62
256
370
-1
100
AcDbLine
10
37.1857150109
20
103.889087297
11
37.3327932214
21
103.990910673
0
LINE
5
F8
100
AcDbEntity
8
Spline
6
ByLayer
62
256
370
-1
100
AcDbLine
10
36.1109127035
20
102.814284989
11
36.0083822202
21
102.666499672
0
LINE
5
F9
100
AcDbEntity
8
Spline
6
ByLayer
62
256
370
-1
100
AcDbLine
10
35.0493188677
20
102.158878488
11
34.9727821812
21
101.974102582
0
LINE
5
FA
100
AcDbEntity
8
Spline
6
ByLayer
62
256
370
-1
100
AcDbLine
10
35.0493188677
20
102.158878488
11
35.9116504245
21
102.516067914
0
LINE
5
FB
100
AcDbEntity
8
Spline
6
ByLayer
62
256
370
-1
100
AcDbLine
10
34.9727821812
20
101.974102582
11
35.3299716073
21
101.111771025
0
LINE
5
FC
100
AcDbEntity
8
Spline
6
ByLayer
62
256
370
-1
100
AcDbLine
10
35.9116504245
20
102.516067914
11
36.0085668536
21
102.666424842
0
LINE
5
FD
100
AcDbEntity
8
Spline
6
ByLayer
62
256
370
-1
100
AcDbLine
10
35.3299716073
20
101.111771025
11
35.2918007848
21
100.935998478
0
LINE
5
FE
100
AcDbEntity
8
Spline
6
ByLayer
62
256
370
-1
100
AcDbLine
10
34.6
20
100.1
11
34.6
21
99.9
0
LINE
5
FF
100
AcDbEntity
8
Spline
6
ByLayer
62
256
370
-1
100
AcDbLine
10
34.6
20
100.1
11
35.26
21
100.76
0
LINE
5
100
100
AcDbEntity
8
Spline
6
ByLayer
62
256
370
-1
100
AcDbLine
10
34.6
20
99.9
11
35.26
21
99.24
0
LINE
5
101
100
AcDbEntity
8
Spline
6
ByLayer
62
256
370
-1
100
AcDbLine
10
35.26
20
100.76
11
35.292
21
100.936
0
LINE
5
102
100
AcDbEntity
8
Spline
6
ByLayer
62
256
370
-1
100
AcDbLine
10
35.26
20
99.24
11
35.292
21
99.063
0
LINE
5
103
100
AcDbEntity
8
Spline
6
ByLayer
62
256
370
-1
100
AcDbLine
10
34.9727821812
20
98.0258974185
11
35.0493188677
21
97.841121512
0
LINE
5
104
100
AcDbEntity
8
Spline
6
ByLayer
62
256
370
-1
100
AcDbLine
10
34.9727821812
20
98.0258974185
11
35.3299716073
21
98.8882289753
0
LINE
5
105
100
AcDbEntity
8
Spline
6
ByLayer
62
256
370
-1
100
AcDbLine
10
35.0493188677
20
97.841121512
11
35.9116504245
21
97.4839320859
0
LINE
5
106
100
AcDbEntity
8
Spline
6
ByLayer
62
256
370
-1
100
AcDbLine
10
35.3299716073
20
98.8882289753
11
35.2921834682
21
99.0630776429
0
LINE
5
107
100
AcDbEntity
8
Spline
6
ByLayer
62
256
370
-1
100
AcDbLine
10
35.9116504245
20
97.4839320859
11
36.0089495371
21
97.3326512785
0
LINE
5
108
100
AcDbEntity
8
Spline
6
ByLayer
62
256
370
-1
100
AcDbLine
10
36.1109127035
20
96.2523340597
11
36.2523340597
21
96.1109127035
0
LINE
5
109
100
AcDbEntity
8
Spline
6
ByLayer
62
256
370
-1
100
AcDbLine
10
36.1109127035
20
96.2523340597
11
36.1109127035
21
97.1857150109
0
LINE
5
10A
100
AcDbEntity
8
Spline
6
ByLayer
62
256
370
-1
100
AcDbLine
10
36.2523340597
20
96.1109127035
11
37.1857150109
21
96.1109127035
0
LINE
5
10B
100
AcDbEntity
8
Spline
6
ByLayer
62
256
370
-1
100
AcDbLine
10
36.1109127035
20
97.1857150109
11
36.009089327
21
97.3327932214
0
LINE
5
10C
100
AcDbEntity
8
Spline
6
ByLayer
62
256
370
-1
100
AcDbLine
10
37.1857150109
20
96.1109127035
11
37.3335003281
21
96.0083822202
0
LINE
5
10D
100
AcDbEntity
8
Spline
6
ByLayer
62
256
370
-1
100
AcDbLine
10
37.841121512
20
95.0493188677
11
38.0258974185
21
94.9727821812
0
LINE
5
10E
100
AcDbEntity
8
Spline
6
ByLayer
62
256
370
-1
100
AcDbLine
10
37.841121512
20
95.0493188677
11
37.4839320859
21
95.9116504245
0
LINE
5
10F
100
AcDbEntity
8
Spline
6
ByLayer
62
256
370
-1
100
AcDbLine
10
38.0258974185
20
94.9727821812
11
38.8882289753
21
95.3299716073
0
LINE
5
110
100
AcDbEntity
8
Spline
6
ByLayer
62
256
370
-1
100
AcDbLine
10
37.4839320859
20
95.9116504245
11
37.333575158
21
96.0085668536
0
LINE
5
111
100
AcDbEntity
8
Spline
6
ByLayer
62
256
370
-1
100
AcDbLine
10
38.8882289753
20
95.3299716073
11
39.0640015224
21
95.2918007848
0
LINE
5
112
100
AcDbEntity
8
Spline
6
ByLayer
62
256
370
-1
100
AcDbLine
10
39.9
20
94.6
11
40.1
21
94.6
0
LINE
5
113
100
AcDbEntity
8
Spline
6
ByLayer
62
256
370
-1
100
AcDbLine
10
39.9
20
94.6
11
39.24
21
95.26
0
LINE
5
114
100
AcDbEntity
8
Spline
6
ByLayer
62
256
370
-1
100
AcDbLine
10
40.1
20
94.6
11
40.76
21
95.26
0
LINE
5
115
100
AcDbEntity
8
Spline
6
ByLayer
62
256
370
-1
100
AcDbLine
10
39.24
20
95.26
11
39.064
21
95.292
0
LINE
5
116
100
AcDbEntity
8
Spline
6
ByLayer
62
256
370
-1
100
AcDbLine
10
40.76
20
95.26
11
40.937
21
95.292
0
LINE
5
117
100
AcDbEntity
8
Spline
6
ByLayer
62
256
370
-1
100
AcDbLine
10
41.9741025815
20
94.9727821812
11
42.158878488
21
95.0493188677
0
LINE
5
118
100
AcDbEntity
8
Spline
6
ByLayer
62
256
370
-1
100
AcDbLine
10
41.9741025815
20
94.9727821812
11
41.1117710247
21
95.3299716073
0
LINE
5
119
100
AcDbEntity
8
Spline
6
ByLayer
62
256
370
-1
100
AcDbLine
10
42.158878488
20
95.0493188677
11
42.5160679141
21
95.9116504245
0
LINE
5
11A
100
AcDbEntity
8
Spline
6
ByLayer
62
256
370
-1
100
AcDbLine
10
41.1117710247
20
95.3299716073
11
40.9369223571
21
95.2921834682
0
LINE
5
11B
100
AcDbEntity
8
Spline
6
ByLayer
62
256
370
-1
100
AcDbLine
10
42.5160679141
20
95.9116504245
11
42.6673487215
21
96.0089495371
0
LINE
5
11C
100
AcDbEntity
8
Spline
6
ByLayer
62
256
370
-1
100
AcDbLine
10
43.7476659403
20
96.1109127035
11
43.8890872965
21
96.2523340597
0
LINE
5
11D
100
AcDbEntity
8
Spline
6
ByLayer
62
256
370
-1
100
AcDbLine
10
43.7476659403
20
96.1109127035
11
42.8142849891
21
96.1109127035
0
LINE
5
11E
100
AcDbEntity
8
Spline
6
ByLayer
62
256
370
-1
100
AcDbLine
10
43.8890872965
20
96.2523340597
11
43.8890872965
21
97.1857150109
0
LINE
5
11F
100
AcDbEntity
8
Spline
6
ByLayer
62
256
370
-1
100
AcDbLine
10
42.8142849891
20
96.1109127035
11
42.6672067786
21
96.009089327
0
LINE
5
120
100
AcDbEntity
8
Spline
6
ByLayer
62
256
370
-1
100
AcDbLine
10
43.8890872965
20
97.1857150109
11
43.9916177798
21
97.3335003281
0
LINE
5
121
100
AcDbEntity
8
Spline
6
ByLayer
62
256
370
-1
100
AcDbLine
10
44.9506811323
20
97.841121512
11
45.0272178188
21
98.0258974185
0
LINE
5
122
100
AcDbEntity
8
Spline
6
ByLayer
62
256
370
-1
100
AcDbLine
10
44.9506811323
20
97.841121512
11
44.0883495755
21
97.4839320859
0
LINE
5
123
100
AcDbEntity
8
Spline
6
ByLayer
62
256
370
-1
100
AcDbLine
10
45.0272178188
20
98.0258974185
11
44.6700283927
21
98.8882289753
0
LINE
5
124
100
AcDbEntity
8
Spline
6
ByLayer
62
256
370
-1
100
AcDbLine
10
44.0883495755
20
97.4839320859
11
43.9914331464
21
97.333575158
0
LINE
5
125
100
AcDbEntity
8
Spline
6
ByLayer
62
256
370
-1
100
AcDbLine
10
44.6700283927
20
98.8882289753
11
44.7081992152
21
99.0640015224
0
LINE
5
126
100
AcDbEntity
8
Spline
6
ByLayer
62
256
370
-1
100
AcDbLine
10
45.4
20
99.9
11
45.4
21
100.1
0
LINE
5
127
100
AcDbEntity
8
Spline
6
ByLayer
62
256
370
-1
100
AcDbLine
10
45.4
20
99.9
11
44.74
21
99.24
0
LINE
5
128
100
AcDbEntity
8
Spline
6
ByLayer
62
256
370
-1
100
AcDbLine
10
45.4
20
100.1
11
44.74
21
100.76
0
LINE
5
129
100
AcDbEntity
8
Spline
6
ByLayer
62
256
370
-1
100
AcDbLine
10
44.74
20
99.24
11
44.708
21
99.064
0
LINE
5
12A
100
AcDbEntity
8
Spline
6
ByLayer
62
256
370
-1
100
AcDbLine
10
44.74
20
100.76
11
44.708
21
100.937
0
LINE
5
12B
100
AcDbEntity
8
Spline
6
ByLayer
62
256
370
-1
100
AcDbLine
10
45.0272178188
20
101.974102582
11
44.9506811323
21
102.158878488
0
LINE
5
12C
100
AcDbEntity
8
Spline
6
ByLayer
62
256
370
-1
100
AcDbLine
10
45.0272178188
20
101.974102582
11
44.6700283927
21
101.111771025
0
LINE
5
12D
100
AcDbEntity
8
Spline
6
ByLayer
62
256
370
-1
100
AcDbLine
10
44.9506811323
20
102.158878488
11
44.0883495755
21
102.516067914
0
LINE
5
12E
100
AcDbEntity
8
Spline
6
ByLayer
62
256
370
-1
100
AcDbLine
10
44.6700283927
20
101.111771025
11
44.7078165318
21
100.936922357
0
LINE
5
12F
100
AcDbEntity
8
Spline
6
ByLayer
62
256
370
-1
100
AcDbLine
10
44.0883495755
20
102.516067914
11
43.9910504629
21
102.667348722
0
LINE
5
130
100
AcDbEntity
8
Spline
6
ByLayer
62
256
370
-1
100
AcDbLine
10
43.8890872965
20
103.74766594
11
43.7476659403
21
103.889087297
0
LINE
5
131
100
AcDbEntity
8
Spline
6
ByLayer
62
256
370
-1
100
AcDbLine
10
43.8890872965
20
103.74766594
11
43.8890872965
21
102.814284989
0
LINE
5
132
100
AcDbEntity
8
Spline
6
ByLayer
62
256
370
-1
100
AcDbLine
10
43.7476659403
20
103.889087297
11
42.8142849891
21
103.889087297
0
LINE
5
133
100
AcDbEntity
8
Spline
6
ByLayer
62
256
370
-1
100
AcDbLine
10
43.8890872965
20
102.814284989
11
43.990910673
21
102.667206779
0
LINE
5
134
100
AcDbEntity
8
Spline
6
ByLayer
62
256
370
-1
100
AcDbLine
10
42.8142849891
20
103.889087297
11
42.6664996719
21
103.99161778
0
LINE
5
135
100
AcDbEntity
8
Spline
6
ByLayer
62
256
370
-1
100
AcDbLine
10
42.158878488
20
104.950681132
11
41.9741025815
21
105.027217819
0
LINE
5
136
100
AcDbEntity
8
Spline
6
ByLayer
62
256
370
-1
100
AcDbLine
10
42.158878488
20
104.950681132
11
42.5160679141
21
104.088349576
0
LINE
5
137
100
AcDbEntity
8
Spline
6
ByLayer
62
256
370
-1
100
AcDbLine
10
41.9741025815
20
105.027217819
11
41.1117710247
21
104.670028393
0
LINE
5
138
100
AcDbEntity
8
Spline
6
ByLayer
62
256
370
-1
100
AcDbLine
10
42.5160679141
20
104.088349576
11
42.666424842
21
103.991433146
0
LINE
5
139
100
AcDbEntity
8
Spline
6
ByLayer
62
256
370
-1
100
AcDbLine
10
41.1117710247
20
104.670028393
11
40.9359984776
21
104.708199215
0
LINE
5
13A
100
AcDbEntity
8
Spline
6
ByLayer
62
256
370
-1
100
AcDbLine
10
294.5
20
110
11
294.5
21
101
0
LINE
5
13B
100
AcDbEntity
8
Spline
6
ByLayer
62
256
370
-1
100
AcDbLine
10
305.5
20
101
11
305.5
21
110
0
LINE
5
13C
100
AcDbEntity
8
Spline
6
ByLayer
62
256
370
-1
100
AcDbLine
10
303
20
99
11
305.5
21
101
0
LINE
5
13D
100
AcDbEntity
8
Spline
6
ByLayer
62
256
370
-1
100
AcDbLine
10
294.5
20
101
11
297
21
99
0
LINE
5
13E
100
AcDbEntity
8
Spline
6
ByLayer
62
256
370
-1
100
AcDbLine
10
297
20
99
11
303
21
99
0
LINE
5
13F
100
AcDbEntity
8
Spline
6
ByLayer
62
256
370
-1
100
AcDbLine
10
294.5
20
112
11
294.5
21
114
0
LINE
5
140
100
AcDbEntity
8
Spline
6
ByLayer
62
256
370
-1
100
AcDbLine
10
305.5
20
114
11
305.5
21
112
0
ARC
5
141
100
AcDbEntity
8
Spline
6
ByLayer
62
256
370
-1
100
AcDbCircle
10
304.5
20
111
40
1
100
AcDbArc
50
90
51
270
0
LINE
5
142
100
AcDbEntity
8
Spline
6
ByLayer
62
256
370
-1
100
AcDbLine
10
304.5
20
112
11
305.5
21
112
0
LINE
5
143
100
AcDbEntity
8
Spline
6
ByLayer
62
256
370
-1
100
AcDbLine
10
304.5
20
110
11
305.5
21
110
0
ARC
5
144
100
AcDbEntity
8
Spline
6
ByLayer
62
256
370
-1
100
AcDbCircle
10
295.5
20
111
40
1
100
AcDbArc
50
270
51
90
0
LINE
5
145
100
AcDbEntity
8
Spline
6
ByLayer
62
256
370
-1
100
AcDbLine
10
295.5
20
112
11
294.5
21
112
0
LINE
5
146
100
AcDbEntity
8
Spline
6
ByLayer
62
256
370
-1
100
AcDbLine
10
295.5
20
110
11
294.5
21
110
0
LINE
5
147
100
AcDbEntity
8
HandleHub
6
ByLayer
62
256
370
-1
100
AcDbLine
10
294.5
20
117
11
292
21
117
0
LINE
5
148
100
AcDbEntity
8
HandleHub
6
ByLayer
62
256
370
-1
100
AcDbLine
10
275
20
105
11
275
21
110
0
LINE
5
149
100
AcDbEntity
8
HandleHub
6
ByLayer
62
256
370
-1
100
AcDbLine
10
275
20
110
11
292
21
110
0
LINE
5
14A
100
AcDbEntity
8
HandleHub
6
ByLayer
62
256
370
-1
100
AcDbLine
10
292
20
117
11
292
21
110
0
LINE
5
14B
100
AcDbEntity
8
HandleHub
6
ByLayer
62
256
370
-1
100
AcDbLine
10
305.5
20
117
11
308
21
117
0
LINE
5
14C
100
AcDbEntity
8
HandleHub
6
ByLayer
62
256
370
-1
100
AcDbLine
10
325
20
105
11
325
21
110
0
LINE
5
14D
100
AcDbEntity
8
HandleHub
6
ByLayer
62
256
370
-1
100
AcDbLine
10
325
20
110
11
308
21
110
0
LINE
5
14E
100
AcDbEntity
8
HandleHub
6
ByLayer
62
256
370
-1
100
AcDbLine
10
308
20
117
11
308
21
110
0
LINE
5
14F
100
AcDbEntity
8
Handle
6
ByLayer
62
256
370
-1
100
AcDbLine
10
275
20
105
11
275
21
96
0
LINE
5
150
100
AcDbEntity
8
Handle
6
ByLayer
62
256
370
-1
100
AcDbLine
10
275
20
96
11
400
21
96
0
LINE
5
151
100
AcDbEntity
8
Handle
6
ByLayer
62
256
370
-1
100
AcDbLine
10
400
20
96
11
400
21
105
0
LINE
5
152
100
AcDbEntity
8
Handle
6
ByLayer
62
256
370
-1
100
AcDbLine
10
400
20
105
11
275
21
105
0
LINE
5
153
100
AcDbEntity
8
Handle
6
ByLayer
62
256
370
-1
100
AcDbLine
10
292
20
105
11
292
21
96
0
LINE
5
154
100
AcDbEntity
8
Handle
6
ByLayer
62
256
370
-1
100
AcDbLine
10
308
20
105
11
308
21
96
0
DIMENSION
5
155
100
AcDbEntity
8
Dimensions
6
ByLayer
62
256
370
-1
100
AcDbDimension
2
*D1
10
325
20
80
30
0
11
300
21
81.875
31
0
70
32
71
5
3
Standard
53
0
210
0
220
0
230
1
100
AcDbAlignedDimension
13
275
23
90
33
0
14
325
24
90
34
0
100
AcDbRotatedDimension
0
DIMENSION
5
156
100
AcDbEntity
8
Dimensions
6
ByLayer
62
256
370
-1
100
AcDbDimension
2
*D2
10
308
20
130
30
0
11
300
21
131.875
31
0
70
32
71
5
3
Standard
53
0
210
0
220
0
230
1
100
AcDbAlignedDimension
13
292
23
120
33
0
14
308
24
120
34
0
100
AcDbRotatedDimension
0
DIMENSION
5
157
100
AcDbEntity
8
Dimensions
6
ByLayer
62
256
370
-1
100
AcDbDimension
2
*D3
10
340
20
110
30
0
11
338.125
21
113.5
31
0
70
32
71
5
3
Standard
53
0
210
0
220
0
230
1
100
AcDbAlignedDimension
13
330
23
117
33
0
14
330
24
110
34
0
50
90
100
AcDbRotatedDimension
0
DIMENSION
5
158
100
AcDbEntity
8
Dimensions
6
ByLayer
62
256
370
-1
100
AcDbDimension
2
*D4
10
340
20
105
30
0
11
338.125
21
107.5
31
0
70
32
71
5
3
Standard
53
0
210
0
220
0
230
1
100
AcDbAlignedDimension
13
330
23
110
33
0
14
330
24
105
34
0
50
90
100
AcDbRotatedDimension
0
DIMENSION
5
159
100
AcDbEntity
8
Dimensions
6
ByLayer
62
256
370
-1
100
AcDbDimension
2
*D5
10
340
20
96
30
0
11
338.125
21
100.5
31
0
70
32
71
5
3
Standard
53
0
210
0
220
0
230
1
100
AcDbAlignedDimension
13
330
23
105
33
0
14
330
24
96
34
0
50
90
100
AcDbRotatedDimension
0
LINE
5
15A
100
AcDbEntity
8
HandleHub
6
ByLayer
62
256
370
-1
100
AcDbLine
10
310
20
105
11
325
21
105
0
LINE
5
15B
100
AcDbEntity
8
HandleHub
6
ByLayer
62
256
370
-1
100
AcDbLine
10
310
20
105
11
310
21
96
0
LINE
5
15C
100
AcDbEntity
8
HandleHub
6
ByLayer
62
256
370
-1
100
AcDbLine
10
290
20
105
11
275
21
105
0
LINE
5
15D
100
AcDbEntity
8
HandleHub
6
ByLayer
62
256
370
-1
100
AcDbLine
10
290
20
105
11
290
21
96
0
LINE
5
15E
100
AcDbEntity
8
HandleHub
6
ByLayer
62
256
370
-1
100
AcDbLine
10
305.5
20
110
11
305.5
21
117
0
LINE
5
15F
100
AcDbEntity
8
HandleHub
6
ByLayer
62
256
370
-1
100
AcDbLine
10
294.5
20
110
11
294.5
21
117
0
LINE
5
160
100
AcDbEntity
8
HandleHub
6
ByLayer
62
256
370
-1
100
AcDbLine
10
294.5
20
110
11
295.5
21
110
0
LINE
5
161
100
AcDbEntity
8
HandleHub
6
ByLayer
62
256
370
-1
100
AcDbLine
10
290
20
96
11
295
21
96
0
LINE
5
162
100
AcDbEntity
8
HandleHub
6
ByLayer
62
256
370
-1
100
AcDbLine
10
295.5
20
110
11
295.5
21
96.5
0
LINE
5
163
100
AcDbEntity
8
HandleHub
6
ByLayer
62
256
370
-1
100
AcDbLine
10
295
20
96
11
295.5
21
96.5
0
LINE
5
164
100
AcDbEntity
8
HandleHub
6
ByLayer
62
256
370
-1
100
AcDbLine
10
305.5
20
110
11
304.5
21
110
0
LINE
5
165
100
AcDbEntity
8
HandleHub
6
ByLayer
62
256
370
-1
100
AcDbLine
10
310
20
96
11
305
21
96
0
LINE
5
166
100
AcDbEntity
8
HandleHub
6
ByLayer
62
256
370
-1
100
AcDbLine
10
304.5
20
110
11
304.5
21
96.5
0
LINE
5
167
100
AcDbEntity
8
HandleHub
6
ByLayer
62
256
370
-1
100
AcDbLine
10
305
20
96
11
304.5
21
96.5
0
DIMENSION
5
168
100
AcDbEntity
8
Dimensions
6
ByLayer
62
256
370
-1
100
AcDbDimension
2
*D6
10
305.5
20
121
30
0
11
300
21
122.875
31
0
70
32
71
5
3
Standard
53
0
210
0
220
0
230
1
100
AcDbAlignedDimension
13
294.5
23
120
33
0
14
305.5
24
120
34
0
100
AcDbRotatedDimension
0
DIMENSION
5
169
100
AcDbEntity
8
Dimensions
6
ByLayer
62
256
370
-1
100
AcDbDimension
2
*D7
10
304.5
20
90
30
0
11
300
21
91.875
31
0
70
32
71
5
3
Standard
53
0
210
0
220
0
230
1
100
AcDbAlignedDimension
13
295.5
23
93
33
0
14
304.5
24
93
34
0
100
AcDbRotatedDimension
0
DIMENSION
5
16A
100
AcDbEntity
8
Dimensions
6
ByLayer
62
256
370
-1
100
AcDbDimension
2
*D8
10
310
20
85
30
0
11
300
21
86.875
31
0
70
32
71
5
3
Standard
53
0
210
0
220
0
230
1
100
AcDbAlignedDimension
13
290
23
88
33
0
14
310
24
88
34
0
100
AcDbRotatedDimension
0
CIRCLE
5
16B
100
AcDbEntity
8
Handle
6
ByLayer
62
256
370
-1
100
AcDbCircle
10
57
20
100
40
1
0
CIRCLE
5
16C
100
AcDbEntity
8
Handle
6
ByLayer
62
256
370
-1
100
AcDbCircle
10
31.5
20
114.722431864
40
1
0
CIRCLE
5
16D
100
AcDbEntity
8
Handle
6
ByLayer
62
256
370
-1
100
AcDbCircle
10
31.5
20
85.2775681357
40
1
0
CIRCLE
5
16E
100
AcDbEntity
8
Handle
6
ByLayer
62
256
370
-1
100
AcDbCircle
10
130
20
100
40
1
0
CIRCLE
5
16F
100
AcDbEntity
8
Handle
6
ByLayer
62
256
370
-1
100
AcDbCircle
10
130
20
100
40
3
0
CIRCLE
5
170
100
AcDbEntity
8
Handle
6
ByLayer
62
256
370
-1
100
AcDbCircle
10
40
20
100
40
1
0
CIRCLE
5
171
100
AcDbEntity
8
Handle
6
ByLayer
62
256
370
-1
100
AcDbCircle
10
76
20
100
40
1
0
CIRCLE
5
172
100
AcDbEntity
8
Handle
6
ByLayer
62
256
370
-1
100
AcDbCircle
10
100
20
100
40
1
0
CIRCLE
5
173
100
AcDbEntity
8
Handle
6
ByLayer
62
256
370
-1
100
AcDbCircle
10
57
20
100
40
2
0
CIRCLE
5
174
100
AcDbEntity
8
Handle
6
ByLayer
62
256
370
-1
100
AcDbCircle
10
31.5
20
114.722431864
40
2
0
CIRCLE
5
175
100
AcDbEntity
8
Handle
6
ByLayer
62
256
370
-1
100
AcDbCircle
10
31.5
20
85.2775681357
40
2
0
LINE
5
176
100
AcDbEntity
8
HandleHub
6
ByLayer
62
256
370
-1
100
AcDbLine
10
40.1
20
105.4
11
39.9
21
105.4
0
LINE
5
177
100
AcDbEntity
8
HandleHub
6
ByLayer
62
256
370
-1
100
AcDbLine
10
40.1
20
105.4
11
40.76
21
104.74
0
LINE
5
178
100
AcDbEntity
8
HandleHub
6
ByLayer
62
256
370
-1
100
AcDbLine
10
39.9
20
105.4
11
39.24
21
104.74
0
LINE
5
179
100
AcDbEntity
8
HandleHub
6
ByLayer
62
256
370
-1
100
AcDbLine
10
40.76
20
104.74
11
40.936
21
104.708
0
LINE
5
17A
100
AcDbEntity
8
HandleHub
6
ByLayer
62
256
370
-1
100
AcDbLine
10
39.24
20
104.74
11
39.063
21
104.708
0
LINE
5
17B
100
AcDbEntity
8
HandleHub
6
ByLayer
62
256
370
-1
100
AcDbLine
10
38.0258974185
20
105.027217819
11
37.841121512
21
104.950681132
0
LINE
5
17C
100
AcDbEntity
8
HandleHub
6
ByLayer
62
256
370
-1
100
AcDbLine
10
38.0258974185
20
105.027217819
11
38.8882289753
21
104.670028393
0
LINE
5
17D
100
AcDbEntity
8
HandleHub
6
ByLayer
62
256
370
-1
100
AcDbLine
10
37.841121512
20
104.950681132
11
37.4839320859
21
104.088349576
0
LINE
5
17E
100
AcDbEntity
8
HandleHub
6
ByLayer
62
256
370
-1
100
AcDbLine
10
38.8882289753
20
104.670028393
11
39.0630776429
21
104.707816532
0
LINE
5
17F
100
AcDbEntity
8
HandleHub
6
ByLayer
62
256
370
-1
100
AcDbLine
10
37.4839320859
20
104.088349576
11
37.3326512785
21
103.991050463
0
LINE
5
180
100
AcDbEntity
8
HandleHub
6
ByLayer
62
256
370
-1
100
AcDbLine
10
36.2523340597
20
103.889087297
11
36.1109127035
21
103.74766594
0
LINE
5
181
100
AcDbEntity
8
HandleHub
6
ByLayer
62
256
370
-1
100
AcDbLine
10
36.2523340597
20
103.889087297
11
37.1857150109
21
103.889087297
0
LINE
5
182
100
AcDbEntity
8
HandleHub
6
ByLayer
62
256
370
-1
100
AcDbLine
10
36.1109127035
20
103.74766594
11
36.1109127035
21
102.814284989
0
LINE
5
183
100
AcDbEntity
8
HandleHub
6
ByLayer
62
256
370
-1
100
AcDbLine
10
37.1857150109
20
103.889087297
11
37.3327932214
21
103.990910673
0
LINE
5
184
100
AcDbEntity
8
HandleHub
6
ByLayer
62
256
370
-1
100
AcDbLine
10
36.1109127035
20
102.814284989
11
36.0083822202
21
102.666499672
0
LINE
5
185
100
AcDbEntity
8
HandleHub
6
ByLayer
62
256
370
-1
100
AcDbLine
10
35.0493188677
20
102.158878488
11
34.9727821812
21
101.974102582
0
LINE
5
186
100
AcDbEntity
8
HandleHub
6
ByLayer
62
256
370
-1
100
AcDbLine
10
35.0493188677
20
102.158878488
11
35.9116504245
21
102.516067914
0
LINE
5
187
100
AcDbEntity
8
HandleHub
6
ByLayer
62
256
370
-1
100
AcDbLine
10
34.9727821812
20
101.974102582
11
35.3299716073
21
101.111771025
0
LINE
5
188
100
AcDbEntity
8
HandleHub
6
ByLayer
62
256
370
-1
100
AcDbLine
10
35.9116504245
20
102.516067914
11
36.0085668536
21
102.666424842
0
LINE
5
189
100
AcDbEntity
8
HandleHub
6
ByLayer
62
256
370
-1
100
AcDbLine
10
35.3299716073
20
101.111771025
11
35.2918007848
21
100.935998478
0
LINE
5
18A
100
AcDbEntity
8
HandleHub
6
ByLayer
62
256
370
-1
100
AcDbLine
10
34.6
20
100.1
11
34.6
21
99.9
0
LINE
5
18B
100
AcDbEntity
8
HandleHub
6
ByLayer
62
256
370
-1
100
AcDbLine
10
34.6
20
100.1
11
35.26
21
100.76
0
LINE
5
18C
100
AcDbEntity
8
HandleHub
6
ByLayer
62
256
370
-1
100
AcDbLine
10
34.6
20
99.9
11
35.26
21
99.24
0
LINE
5
18D
100
AcDbEntity
8
HandleHub
6
ByLayer
62
256
370
-1
100
AcDbLine
10
35.26
20
100.76
11
35.292
21
100.936
0
LINE
5
18E
100
AcDbEntity
8
HandleHub
6
ByLayer
62
256
370
-1
100
AcDbLine
10
35.26
20
99.24
11
35.292
21
99.063
0
LINE
5
18F
100
AcDbEntity
8
HandleHub
6
ByLayer
62
256
370
-1
100
AcDbLine
10
34.9727821812
20
98.0258974185
11
35.0493188677
21
97.841121512
0
LINE
5
190
100
AcDbEntity
8
HandleHub
6
ByLayer
62
256
370
-1
100
AcDbLine
10
34.9727821812
20
98.0258974185
11
35.3299716073
21
98.8882289753
0
LINE
5
191
100
AcDbEntity
8
HandleHub
6
ByLayer
62
256
370
-1
100
AcDbLine
10
35.0493188677
20
97.841121512
11
35.9116504245
21
97.4839320859
0
LINE
5
192
100
AcDbEntity
8
HandleHub
6
ByLayer
62
256
370
-1
100
AcDbLine
10
35.3299716073
20
98.8882289753
11
35.2921834682
21
99.0630776429
0
LINE
5
193
100
AcDbEntity
8
HandleHub
6
ByLayer
62
256
370
-1
100
AcDbLine
10
35.9116504245
20
97.4839320859
11
36.0089495371
21
97.3326512785
0
LINE
5
194
100
AcDbEntity
8
HandleHub
6
ByLayer
62
256
370
-1
100
AcDbLine
10
36.1109127035
20
96.2523340597
11
36.2523340597
21
96.1109127035
0
LINE
5
195
100
AcDbEntity
8
HandleHub
6
ByLayer
62
256
370
-1
100
AcDbLine
10
36.1109127035
20
96.2523340597
11
36.1109127035
21
97.1857150109
0
LINE
5
196
100
AcDbEntity
8
HandleHub
6
ByLayer
62
256
370
-1
100
AcDbLine
10
36.2523340597
20
96.1109127035
11
37.1857150109
21
96.1109127035
0
LINE
5
197
100
AcDbEntity
8
HandleHub
6
ByLayer
62
256
370
-1
100
AcDbLine
10
36.1109127035
20
97.1857150109
11
36.009089327
21
97.3327932214
0
LINE
5
198
100
AcDbEntity
8
HandleHub
6
ByLayer
62
256
370
-1
100
AcDbLine
10
37.1857150109
20
96.1109127035
11
37.3335003281
21
96.0083822202
0
LINE
5
199
100
AcDbEntity
8
HandleHub
6
ByLayer
62
256
370
-1
100
AcDbLine
10
37.841121512
20
95.0493188677
11
38.0258974185
21
94.9727821812
0
LINE
5
19A
100
AcDbEntity
8
HandleHub
6
ByLayer
62
256
370
-1
100
AcDbLine
10
37.841121512
20
95.0493188677
11
37.4839320859
21
95.9116504245
0
LINE
5
19B
100
AcDbEntity
8
HandleHub
6
ByLayer
62
256
370
-1
100
AcDbLine
10
38.0258974185
20
94.9727821812
11
38.8882289753
21
95.3299716073
0
LINE
5
19C
100
AcDbEntity
8
HandleHub
6
ByLayer
62
256
370
-1
100
AcDbLine
10
37.4839320859
20
95.9116504245
11
37.333575158
21
96.0085668536
0
LINE
5
19D
100
AcDbEntity
8
HandleHub
6
ByLayer
62
256
370
-1
100
AcDbLine
10
38.8882289753
20
95.3299716073
11
39.0640015224
21
95.2918007848
0
LINE
5
19E
100
AcDbEntity
8
HandleHub
6
ByLayer
62
256
370
-1
100
AcDbLine
10
39.9
20
94.6
11
40.1
21
94.6
0
LINE
5
19F
100
AcDbEntity
8
HandleHub
6
ByLayer
62
256
370
-1
100
AcDbLine
10
39.9
20
94.6
11
39.24
21
95.26
0
LINE
5
1A0
100
AcDbEntity
8
HandleHub
6
ByLayer
62
256
370
-1
100
AcDbLine
10
40.1
20
94.6
11
40.76
21
95.26
0
LINE
5
1A1
100
AcDbEntity
8
HandleHub
6
ByLayer
62
256
370
-1
100
AcDbLine
10
39.24
20
95.26
11
39.064
21
95.292
0
LINE
5
1A2
100
AcDbEntity
8
HandleHub
6
ByLayer
62
256
370
-1
100
AcDbLine
10
40.76
20
95.26
11
40.937
21
95.292
0
LINE
5
1A3
100
AcDbEntity
8
HandleHub
6
ByLayer
62
256
370
-1
100
AcDbLine
10
41.9741025815
20
94.9727821812
11
42.158878488
21
95.0493188677
0
LINE
5
1A4
100
AcDbEntity
8
HandleHub
6
ByLayer
62
256
370
-1
100
AcDbLine
10
41.9741025815
20
94.9727821812
11
41.1117710247
21
95.3299716073
0
LINE
5
1A5
100
AcDbEntity
8
HandleHub
6
ByLayer
62
256
370
-1
100
AcDbLine
10
42.158878488
20
95.0493188677
11
42.5160679141
21
95.9116504245
0
LINE
5
1A6
100
AcDbEntity
8
HandleHub
6
ByLayer
62
256
370
-1
100
AcDbLine
10
41.1117710247
20
95.3299716073
11
40.9369223571
21
95.2921834682
0
LINE
5
1A7
100
AcDbEntity
8
HandleHub
6
ByLayer
62
256
370
-1
100
AcDbLine
10
42.5160679141
20
95.9116504245
11
42.6673487215
21
96.0089495371
0
LINE
5
1A8
100
AcDbEntity
8
HandleHub
6
ByLayer
62
256
370
-1
100
AcDbLine
10
43.7476659403
20
96.1109127035
11
43.8890872965
21
96.2523340597
0
LINE
5
1A9
100
AcDbEntity
8
HandleHub
6
ByLayer
62
256
370
-1
100
AcDbLine
10
43.7476659403
20
96.1109127035
11
42.8142849891
21
96.1109127035
0
LINE
5
1AA
100
AcDbEntity
8
HandleHub
6
ByLayer
62
256
370
-1
100
AcDbLine
10
43.8890872965
20
96.2523340597
11
43.8890872965
21
97.1857150109
0
LINE
5
1AB
100
AcDbEntity
8
HandleHub
6
ByLayer
62
256
370
-1
100
AcDbLine
10
42.8142849891
20
96.1109127035
11
42.6672067786
21
96.009089327
0
LINE
5
1AC
100
AcDbEntity
8
HandleHub
6
ByLayer
62
256
370
-1
100
AcDbLine
10
43.8890872965
20
97.1857150109
11
43.9916177798
21
97.3335003281
0
LINE
5
1AD
100
AcDbEntity
8
HandleHub
6
ByLayer
62
256
370
-1
100
AcDbLine
10
44.9506811323
20
97.841121512
11
45.0272178188
21
98.0258974185
0
LINE
5
1AE
100
AcDbEntity
8
HandleHub
6
ByLayer
62
256
370
-1
100
AcDbLine
10
44.9506811323
20
97.841121512
11
44.0883495755
21
97.4839320859
0
LINE
5
1AF
100
AcDbEntity
8
HandleHub
6
ByLayer
62
256
370
-1
100
AcDbLine
10
45.0272178188
20
98.0258974185
11
44.6700283927
21
98.8882289753
0
LINE
5
1B0
100
AcDbEntity
8
HandleHub
6
ByLayer
62
256
370
-1
100
AcDbLine
10
44.0883495755
20
97.4839320859
11
43.9914331464
21
97.333575158
0
LINE
5
1B1
100
AcDbEntity
8
HandleHub
6
ByLayer
62
256
370
-1
100
AcDbLine
10
44.6700283927
20
98.8882289753
11
44.7081992152
21
99.0640015224
0
LINE
5
1B2
100
AcDbEntity
8
HandleHub
6
ByLayer
62
256
370
-1
100
AcDbLine
10
45.4
20
99.9
11
45.4
21
100.1
0
LINE
5
1B3
100
AcDbEntity
8
HandleHub
6
ByLayer
62
256
370
-1
100
AcDbLine
10
45.4
20
99.9
11
44.74
21
99.24
0
LINE
5
1B4
100
AcDbEntity
8
HandleHub
6
ByLayer
62
256
370
-1
100
AcDbLine
10
45.4
20
100.1
11
44.74
21
100.76
0
LINE
5
1B5
100
AcDbEntity
8
HandleHub
6
ByLayer
62
256
370
-1
100
AcDbLine
10
44.74
20
99.24
11
44.708
21
99.064
0
LINE
5
1B6
100
AcDbEntity
8
HandleHub
6
ByLayer
62
256
370
-1
100
AcDbLine
10
44.74
20
100.76
11
44.708
21
100.937
0
LINE
5
1B7
100
AcDbEntity
8
HandleHub
6
ByLayer
62
256
370
-1
100
AcDbLine
10
45.0272178188
20
101.974102582
11
44.9506811323
21
102.158878488
0
LINE
5
1B8
100
AcDbEntity
8
HandleHub
6
ByLayer
62
256
370
-1
100
AcDbLine
10
45.0272178188
20
101.974102582
11
44.6700283927
21
101.111771025
0
LINE
5
1B9
100
AcDbEntity
8
HandleHub
6
ByLayer
62
256
370
-1
100
AcDbLine
10
44.9506811323
20
102.158878488
11
44.0883495755
21
102.516067914
0
LINE
5
1BA
100
AcDbEntity
8
HandleHub
6
ByLayer
62
256
370
-1
100
AcDbLine
10
44.6700283927
20
101.111771025
11
44.7078165318
21
100.936922357
0
LINE
5
1BB
100
AcDbEntity
8
HandleHub
6
ByLayer
62
256
370
-1
100
AcDbLine
10
44.0883495755
20
102.516067914
11
43.9910504629
21
102.667348722
0
LINE
5
1BC
100
AcDbEntity
8
HandleHub
6
ByLayer
62
256
370
-1
100
AcDbLine
10
43.8890872965
20
103.74766594
11
43.7476659403
21
103.889087297
0
LINE
5
1BD
100
AcDbEntity
8
HandleHub
6
ByLayer
62
256
370
-1
100
AcDbLine
10
43.8890872965
20
103.74766594
11
43.8890872965
21
102.814284989
0
LINE
5
1BE
100
AcDbEntity
8
HandleHub
6
ByLayer
62
256
370
-1
100
AcDbLine
10
43.7476659403
20
103.889087297
11
42.8142849891
21
103.889087297
0
LINE
5
1BF
100
AcDbEntity
8
HandleHub
6
ByLayer
62
256
370
-1
100
AcDbLine
10
43.8890872965
20
102.814284989
11
43.990910673
21
102.667206779
0
LINE
5
1C0
100
AcDbEntity
8
HandleHub
6
ByLayer
62
256
370
-1
100
AcDbLine
10
42.8142849891
20
103.889087297
11
42.6664996719
21
103.99161778
0
LINE
5
1C1
100
AcDbEntity
8
HandleHub
6
ByLayer
62
256
370
-1
100
AcDbLine
10
42.158878488
20
104.950681132
11
41.9741025815
21
105.027217819
0
LINE
5
1C2
100
AcDbEntity
8
HandleHub
6
ByLayer
62
256
370
-1
100
AcDbLine
10
42.158878488
20
104.950681132
11
42.5160679141
21
104.088349576
0
LINE
5
1C3
100
AcDbEntity
8
HandleHub
6
ByLayer
62
256
370
-1
100
AcDbLine
10
41.9741025815
20
105.027217819
11
41.1117710247
21
104.670028393
0
LINE
5
1C4
100
AcDbEntity
8
HandleHub
6
ByLayer
62
256
370
-1
100
AcDbLine
10
42.5160679141
20
104.088349576
11
42.666424842
21
103.991433146
0
LINE
5
1C5
100
AcDbEntity
8
HandleHub
6
ByLayer
62
256
370
-1
100
AcDbLine
10
41.1117710247
20
104.670028393
11
40.9359984776
21
104.708199215
0
CIRCLE
5
1C6
100
AcDbEntity
8
HandleHub
6
ByLayer
62
256
370
-1
100
AcDbCircle
10
40
20
100
40
8
0
CIRCLE
5
1C7
100
AcDbEntity
8
BearingShaft
6
ByLayer
62
256
370
-1
100
AcDbCircle
10
130
20
100
40
3
0
LINE
5
1C8
100
AcDbEntity
8
Handle
6
ByLayer
62
256
370
-1
100
AcDbLine
10
391
20
96
11
391
21
101
0
LINE
5
1C9
100
AcDbEntity
8
Handle
6
ByLayer
62
256
370
-1
100
AcDbLine
10
391
20
101
11
395
21
105
0
LINE
5
1CA
100
AcDbEntity
8
Handle
6
ByLayer
62
256
370
-1
100
AcDbLine
10
385
20
101
11
385
21
96
0
LINE
5
1CB
100
AcDbEntity
8
Handle
6
ByLayer
62
256
370
-1
100
AcDbLine
10
385
20
101
11
381
21
105
0
LINE
5
1CC
100
AcDbEntity
8
Fastners
6
ByLayer
62
256
370
-1
100
AcDbLine
10
381
20
105
11
395
21
105
0
LINE
5
1CD
100
AcDbEntity
8
Fastners
6
ByLayer
62
256
370
-1
100
AcDbLine
10
395
20
105
11
391
21
101
0
LINE
5
1CE
100
AcDbEntity
8
Fastners
6
ByLayer
62
256
370
-1
100
AcDbLine
10
391
20
101
11
391
21
85
0
LINE
5
1CF
100
AcDbEntity
8
Fastners
6
ByLayer
62
256
370
-1
100
AcDbLine
10
391
20
85
11
385
21
85
0
LINE
5
1D0
100
AcDbEntity
8
Fastners
6
ByLayer
62
256
370
-1
100
AcDbLine
10
385
20
85
11
385
21
101
0
LINE
5
1D1
100
AcDbEntity
8
Fastners
6
ByLayer
62
256
370
-1
100
AcDbLine
10
385
20
101
11
381
21
105
0
LINE
5
1D2
100
AcDbEntity
8
BearingShaft
6
ByLayer
62
256
370
-1
100
AcDbLine
10
400
20
96
11
391
21
96
0
LINE
5
1D3
100
AcDbEntity
8
BearingShaft
6
ByLayer
62
256
370
-1
100
AcDbLine
10
391
20
96
11
391
21
81
0
LINE
5
1D4
100
AcDbEntity
8
BearingShaft
6
ByLayer
62
256
370
-1
100
AcDbLine
10
391
20
81
11
385
21
81
0
LINE
5
1D5
100
AcDbEntity
8
BearingShaft
6
ByLayer
62
256
370
-1
100
AcDbLine
10
385
20
81
11
385
21
96
0
LINE
5
1D6
100
AcDbEntity
8
BearingShaft
6
ByLayer
62
256
370
-1
100
AcDbLine
10
385
20
96
11
376
21
96
0
LINE
5
1D7
100
AcDbEntity
8
Spline
6
ByLayer
62
256
370
-1
100
AcDbLine
10
294.5
20
112
11
294.5
21
122.4
0
LINE
5
1D8
100
AcDbEntity
8
Spline
6
ByLayer
62
256
370
-1
100
AcDbLine
10
305.5
20
112
11
305.5
21
122.4
0
LINE
5
1D9
100
AcDbEntity
8
Fastners
6
ByLayer
62
256
370
-1
100
AcDbLine
10
319
20
110
11
315
21
110
0
LINE
5
1DA
100
AcDbEntity
8
Fastners
6
ByLayer
62
256
370
-1
100
AcDbLine
10
319
20
99
11
319
21
110
0
LINE
5
1DB
100
AcDbEntity
8
Fastners
6
ByLayer
62
256
370
-1
100
AcDbLine
10
315
20
110
11
315
21
99
0
LINE
5
1DC
100
AcDbEntity
8
Fastners
6
ByLayer
62
256
370
-1
100
AcDbLine
10
315
20
99
11
312
21
96
0
LINE
5
1DD
100
AcDbEntity
8
Fastners
6
ByLayer
62
256
370
-1
100
AcDbLine
10
319
20
99
11
322
21
96
0
LINE
5
1DE
100
AcDbEntity
8
Fastners
6
ByLayer
62
256
370
-1
100
AcDbLine
10
322
20
96
11
312
21
96
0
LINE
5
1DF
100
AcDbEntity
8
Bearing
6
ByLayer
62
256
370
-1
100
AcDbLine
10
382
20
92
11
382
21
76
0
LINE
5
1E0
100
AcDbEntity
8
Bearing
6
ByLayer
62
256
370
-1
100
AcDbLine
10
382
20
76
11
380
21
76
0
LINE
5
1E1
100
AcDbEntity
8
Bearing
6
ByLayer
62
256
370
-1
100
AcDbLine
10
380
20
76
11
380
21
92
0
LINE
5
1E2
100
AcDbEntity
8
Bearing
6
ByLayer
62
256
370
-1
100
AcDbLine
10
380
20
92
11
382
21
92
0
LINE
5
1E3
100
AcDbEntity
8
Bearing
6
ByLayer
62
256
370
-1
100
AcDbLine
10
394
20
92
11
394
21
76
0
LINE
5
1E4
100
AcDbEntity
8
Bearing
6
ByLayer
62
256
370
-1
100
AcDbLine
10
394
20
76
11
396
21
76
0
LINE
5
1E5
100
AcDbEntity
8
Bearing
6
ByLayer
62
256
370
-1
100
AcDbLine
10
396
20
76
11
396
21
92
0
LINE
5
1E6
100
AcDbEntity
8
Bearing
6
ByLayer
62
256
370
-1
100
AcDbLine
10
396
20
92
11
394
21
92
0
LINE
5
1E7
100
AcDbEntity
8
Bearing
6
ByLayer
62
256
370
-1
100
AcDbLine
10
404
20
76
11
404
21
92
0
LINE
5
1E8
100
AcDbEntity
8
Bearing
6
ByLayer
62
256
370
-1
100
AcDbLine
10
404
20
92
11
402
21
92
0
LINE
5
1E9
100
AcDbEntity
8
Bearing
6
ByLayer
62
256
370
-1
100
AcDbLine
10
402
20
92
11
402
21
76
0
LINE
5
1EA
100
AcDbEntity
8
Bearing
6
ByLayer
62
256
370
-1
100
AcDbLine
10
402
20
76
11
404
21
76
0
LINE
5
1EB
100
AcDbEntity
8
Bearing
6
ByLayer
62
256
370
-1
100
AcDbLine
10
372
20
76
11
372
21
92
0
LINE
5
1EC
100
AcDbEntity
8
Bearing
6
ByLayer
62
256
370
-1
100
AcDbLine
10
372
20
92
11
374
21
92
0
LINE
5
1ED
100
AcDbEntity
8
Bearing
6
ByLayer
62
256
370
-1
100
AcDbLine
10
374
20
92
11
374
21
76
0
LINE
5
1EE
100
AcDbEntity
8
Bearing
6
ByLayer
62
256
370
-1
100
AcDbLine
10
374
20
76
11
372
21
76
0
CIRCLE
5
1EF
100
AcDbEntity
8
Bearing
6
ByLayer
62
256
370
-1
100
AcDbCircle
10
377
20
80
40
3
0
CIRCLE
5
1F0
100
AcDbEntity
8
Bearing
6
ByLayer
62
256
370
-1
100
AcDbCircle
10
377
20
88
40
3
0
CIRCLE
5
1F1
100
AcDbEntity
8
Bearing
6
ByLayer
62
256
370
-1
100
AcDbCircle
10
399
20
88
40
3
0
CIRCLE
5
1F2
100
AcDbEntity
8
Bearing
6
ByLayer
62
256
370
-1
100
AcDbCircle
10
399
20
80
40
3
0
LINE
5
1F3
100
AcDbEntity
8
BearingShaft
6
ByLayer
62
256
370
-1
100
AcDbLine
10
394
20
92
11
400
21
92
0
LINE
5
1F4
100
AcDbEntity
8
BearingShaft
6
ByLayer
62
256
370
-1
100
AcDbLine
10
400
20
92
11
400
21
96
0
LINE
5
1F5
100
AcDbEntity
8
BearingShaft
6
ByLayer
62
256
370
-1
100
AcDbLine
10
376
20
96
11
376
21
92
0
LINE
5
1F6
100
AcDbEntity
8
BearingShaft
6
ByLayer
62
256
370
-1
100
AcDbLine
10
376
20
92
11
382
21
92
0
DIMENSION
5
1F7
100
AcDbEntity
8
Dimensions
6
ByLayer
62
256
370
-1
100
AcDbDimension
2
*D9
10
385
20
109
30
0
11
380.5
21
110.875
31
0
70
32
71
5
3
Standard
53
0
210
0
220
0
230
1
100
AcDbAlignedDimension
13
376
23
100
33
0
14
385
24
100
34
0
100
AcDbRotatedDimension
0
DIMENSION
5
1F8
100
AcDbEntity
8
Dimensions
6
ByLayer
62
256
370
-1
100
AcDbDimension
2
*D10
10
391
20
109
30
0
11
388
21
110.875
31
0
70
32
71
5
3
Standard
53
0
210
0
220
0
230
1
100
AcDbAlignedDimension
13
385
23
100
33
0
14
391
24
100
34
0
100
AcDbRotatedDimension
0
DIMENSION
5
1F9
100
AcDbEntity
8
Dimensions
6
ByLayer
62
256
370
-1
100
AcDbDimension
2
*D11
10
400
20
109
30
0
11
395.5
21
110.875
31
0
70
32
71
5
3
Standard
53
0
210
0
220
0
230
1
100
AcDbAlignedDimension
13
391
23
100
33
0
14
400
24
100
34
0
100
AcDbRotatedDimension
0
DIMENSION
5
1FA
100
AcDbEntity
8
Dimensions
6
ByLayer
62
256
370
-1
100
AcDbDimension
2
*D12
10
394
20
61
30
0
11
388
21
62.875
31
0
70
32
71
5
3
Standard
53
0
210
0
220
0
230
1
100
AcDbAlignedDimension
13
382
23
70
33
0
14
394
24
70
34
0
100
AcDbRotatedDimension
0
DIMENSION
5
1FB
100
AcDbEntity
8
Dimensions
6
ByLayer
62
256
370
-1
100
AcDbDimension
2
*D13
10
420
20
96
30
0
11
418.125
21
94
31
0
70
32
71
5
3
Standard
53
0
210
0
220
0
230
1
100
AcDbAlignedDimension
13
410
23
92
33
0
14
410
24
96
34
0
50
90
100
AcDbRotatedDimension
0
DIMENSION
5
1FC
100
AcDbEntity
8
Dimensions
6
ByLayer
62
256
370
-1
100
AcDbDimension
2
*D14
10
360
20
81
30
0
11
358.125
21
88.5
31
0
70
32
71
5
3
Standard
53
0
210
0
220
0
230
1
100
AcDbAlignedDimension
13
370
23
96
33
0
14
370
24
81
34
0
50
90
100
AcDbRotatedDimension
0
LINE
5
1FD
100
AcDbEntity
8
BearingShaft
6
ByLayer
62
256
370
-1
100
AcDbLine
10
382
20
76
11
394
21
76
0
LINE
5
1FE
100
AcDbEntity
8
BearingShaft
6
ByLayer
62
256
370
-1
100
AcDbLine
10
394
20
76
11
394
21
92
0
LINE
5
1FF
100
AcDbEntity
8
BearingShaft
6
ByLayer
62
256
370
-1
100
AcDbLine
10
382
20
92
11
382
21
76
0
DIMENSION
5
200
100
AcDbEntity
8
Dimensions
6
ByLayer
62
256
370
-1
100
AcDbDimension
2
*D15
10
420
20
76
30
0
11
418.125
21
84
31
0
70
32
71
5
3
Standard
53
0
210
0
220
0
230
1
100
AcDbAlignedDimension
13
410
23
92
33
0
14
410
24
76
34
0
50
90
100
AcDbRotatedDimension
0
ENDSEC
0
SECTION
2
OBJECTS
0
DICTIONARY
5
C
330
0
100
AcDbDictionary
281
1
3
ACAD_GROUP
350
D
0
DICTIONARY
5
D
330
C
100
AcDbDictionary
281
1
0
ENDSEC
0
EOF
