999
dxfrw 0.5.10
0
SECTION
2
HEADER
9
$ACADVER
1
AC1021
9
$HANDSEED
5
20000
9
$DWGCODEPAGE
3
ANSI_1252
9
$INSBASE
10
0
20
0
30
0
9
$EXTMIN
10
0
20
0
30
0
9
$EXTMAX
10
694
20
434.125
30
0
9
$LIMMIN
10
0
20
0
9
$LIMMAX
10
420
20
297
9
$ORTHOMODE
70
0
9
$LTSCALE
40
1
9
$TEXTSTYLE
7
STANDARD
9
$CLAYER
8
Dimensions
9
$DIMASZ
40
2.5
9
$DIMLFAC
40
1
9
$DIMSCALE
40
1
9
$DIMEXO
40
0.625
9
$DIMEXE
40
1.25
9
$DIMTXT
40
2.5
9
$DIMTSZ
40
0
9
$DIMAUNIT
70
0
9
$DIMADEC
70
0
9
$DIMLUNIT
70
2
9
$DIMSTYLE
2
STANDARD
9
$DIMGAP
40
0.625
9
$DIMTIH
70
0
9
$LUNITS
70
2
9
$LUPREC
70
4
9
$AUNITS
70
0
9
$AUPREC
70
2
9
$SPLINESEGS
70
8
9
$GRIDMODE
70
1
9
$SNAPSTYLE
70
0
9
$PINSBASE
10
-251.82935809
20
-260.52294662
30
0
9
$PLIMMIN
10
0
20
0
9
$PLIMMAX
10
297
20
210
9
$INSUNITS
70
4
9
$PSVPSCALE
40
1
0
ENDSEC
0
SECTION
2
CLASSES
0
ENDSEC
0
SECTION
2
TABLES
0
TABLE
2
VPORT
5
8
330
0
100
AcDbSymbolTable
70
1
0
VPORT
5
31
330
2
100
AcDbSymbolTableRecord
100
AcDbViewportTableRecord
2
*ACTIVE
70
0
10
0
20
0
11
1
21
1
12
703.33480835
22
354.766845703
13
0
23
0
14
10
24
10
15
10
25
10
16
0
26
0
36
1
17
0
27
0
37
0
40
747.680664063
41
2.04464285714
42
50
43
0
44
0
50
0
51
0
71
0
72
100
73
1
74
3
75
0
76
1
77
0
78
0
281
0
65
1
110
0
120
0
130
0
111
1
121
0
131
0
112
0
122
1
132
0
79
0
146
0
348
10020
60
7
61
5
292
1
282
1
141
0
142
0
63
250
421
3358443
0
ENDTAB
0
TABLE
2
LTYPE
5
5
330
0
100
AcDbSymbolTable
70
4
0
LTYPE
5
14
330
5
100
AcDbSymbolTableRecord
100
AcDbLinetypeTableRecord
2
ByBlock
70
0
3

72
65
73
0
40
0
0
LTYPE
5
15
330
5
100
AcDbSymbolTableRecord
100
AcDbLinetypeTableRecord
2
ByLayer
70
0
3

72
65
73
0
40
0
0
LTYPE
5
16
330
5
100
AcDbSymbolTableRecord
100
AcDbLinetypeTableRecord
2
Continuous
70
0
3
Solid line
72
65
73
0
40
0
0
LTYPE
5
32
330
5
100
AcDbSymbolTableRecord
100
AcDbLinetypeTableRecord
2
DOT
70
0
3
Dot . . . . . . . . . . . . . . . . . . . . . .
72
65
73
2
40
6.35
49
0
74
0
49
-6.35
74
0
0
LTYPE
5
33
330
5
100
AcDbSymbolTableRecord
100
AcDbLinetypeTableRecord
2
DOT2
70
0
3
Dot (.5x) .....................................
72
65
73
2
40
3.175
49
0
74
0
49
-3.175
74
0
0
LTYPE
5
34
330
5
100
AcDbSymbolTableRecord
100
AcDbLinetypeTableRecord
2
DOTX2
70
0
3
Dot (2x) .  .  .  .  .  .  .  .  .  .  .  .  .
72
65
73
2
40
12.7
49
0
74
0
49
-12.7
74
0
0
LTYPE
5
35
330
5
100
AcDbSymbolTableRecord
100
AcDbLinetypeTableRecord
2
DASHED
70
0
3
Dot . . . . . . . . . . . . . . . . . . . . . .
72
65
73
2
40
19.05
49
12.7
74
0
49
-6.35
74
0
0
LTYPE
5
36
330
5
100
AcDbSymbolTableRecord
100
AcDbLinetypeTableRecord
2
DASHED2
70
0
3
Dashed (.5x) _ _ _ _ _ _ _ _ _ _ _ _ _ _ _ _ _
72
65
73
2
40
9.525
49
6.35
74
0
49
-3.175
74
0
0
LTYPE
5
37
330
5
100
AcDbSymbolTableRecord
100
AcDbLinetypeTableRecord
2
DASHEDX2
70
0
3
Dashed (2x) ____  ____  ____  ____  ____  ___
72
65
73
2
40
38.1
49
25.4
74
0
49
-12.7
74
0
0
LTYPE
5
38
330
5
100
AcDbSymbolTableRecord
100
AcDbLinetypeTableRecord
2
DASHDOT
70
0
3
Dash dot __ . __ . __ . __ . __ . __ . __ . __
72
65
73
4
40
25.4
49
12.7
74
0
49
-6.35
74
0
49
0
74
0
49
-6.35
74
0
0
LTYPE
5
39
330
5
100
AcDbSymbolTableRecord
100
AcDbLinetypeTableRecord
2
DASHDOT2
70
0
3
Dash dot (.5x) _._._._._._._._._._._._._._._.
72
65
73
4
40
12.7
49
6.35
74
0
49
-3.175
74
0
49
0
74
0
49
-3.175
74
0
0
LTYPE
5
3A
330
5
100
AcDbSymbolTableRecord
100
AcDbLinetypeTableRecord
2
DASHDOTX2
70
0
3
Dash dot (2x) ____  .  ____  .  ____  .  ___
72
65
73
4
40
50.8
49
25.4
74
0
49
-12.7
74
0
49
0
74
0
49
-12.7
74
0
0
LTYPE
5
3B
330
5
100
AcDbSymbolTableRecord
100
AcDbLinetypeTableRecord
2
DIVIDE
70
0
3
Divide ____ . . ____ . . ____ . . ____ . . ____
72
65
73
6
40
31.75
49
12.7
74
0
49
-6.35
74
0
49
0
74
0
49
-6.35
74
0
49
0
74
0
49
-6.35
74
0
0
LTYPE
5
3C
330
5
100
AcDbSymbolTableRecord
100
AcDbLinetypeTableRecord
2
DIVIDE2
70
0
3
Divide (.5x) __..__..__..__..__..__..__..__.._
72
65
73
6
40
15.875
49
6.35
74
0
49
-3.175
74
0
49
0
74
0
49
-3.175
74
0
49
0
74
0
49
-3.175
74
0
0
LTYPE
5
3D
330
5
100
AcDbSymbolTableRecord
100
AcDbLinetypeTableRecord
2
DIVIDEX2
70
0
3
Divide (2x) ________  .  .  ________  .  .  _
72
65
73
6
40
63.5
49
25.4
74
0
49
-12.7
74
0
49
0
74
0
49
-12.7
74
0
49
0
74
0
49
-12.7
74
0
0
LTYPE
5
3E
330
5
100
AcDbSymbolTableRecord
100
AcDbLinetypeTableRecord
2
BORDER
70
0
3
Border __ __ . __ __ . __ __ . __ __ . __ __ .
72
65
73
6
40
44.45
49
12.7
74
0
49
-6.35
74
0
49
12.7
74
0
49
-6.35
74
0
49
0
74
0
49
-6.35
74
0
0
LTYPE
5
3F
330
5
100
AcDbSymbolTableRecord
100
AcDbLinetypeTableRecord
2
BORDER2
70
0
3
Border (.5x) __.__.__.__.__.__.__.__.__.__.__.
72
65
73
6
40
22.225
49
6.35
74
0
49
-3.175
74
0
49
6.35
74
0
49
-3.175
74
0
49
0
74
0
49
-3.175
74
0
0
LTYPE
5
40
330
5
100
AcDbSymbolTableRecord
100
AcDbLinetypeTableRecord
2
BORDERX2
70
0
3
Border (2x) ____  ____  .  ____  ____  .  ___
72
65
73
6
40
88.9
49
25.4
74
0
49
-12.7
74
0
49
25.4
74
0
49
-12.7
74
0
49
0
74
0
49
-12.7
74
0
0
LTYPE
5
41
330
5
100
AcDbSymbolTableRecord
100
AcDbLinetypeTableRecord
2
CENTER
70
0
3
Center ____ _ ____ _ ____ _ ____ _ ____ _ ____
72
65
73
4
40
50.8
49
31.75
74
0
49
-6.35
74
0
49
6.35
74
0
49
-6.35
74
0
0
LTYPE
5
42
330
5
100
AcDbSymbolTableRecord
100
AcDbLinetypeTableRecord
2
CENTER2
70
0
3
Center (.5x) ___ _ ___ _ ___ _ ___ _ ___ _ ___
72
65
73
4
40
28.575
49
19.05
74
0
49
-3.175
74
0
49
3.175
74
0
49
-3.175
74
0
0
LTYPE
5
43
330
5
100
AcDbSymbolTableRecord
100
AcDbLinetypeTableRecord
2
CENTERX2
70
0
3
Center (2x) ________  __  ________  __  _____
72
65
73
4
40
101.6
49
63.5
74
0
49
-12.7
74
0
49
12.7
74
0
49
-12.7
74
0
0
ENDTAB
0
TABLE
2
LAYER
5
2
330
0
100
AcDbSymbolTable
70
1
0
LAYER
5
10
330
2
100
AcDbSymbolTableRecord
100
AcDbLayerTableRecord
2
0
70
4
62
7
6
CONTINUOUS
370
0
390
F
0
LAYER
5
44
330
2
100
AcDbSymbolTableRecord
100
AcDbLayerTableRecord
2
EmeryRoll
70
4
62
7
6
CONTINUOUS
370
25
390
F
0
LAYER
5
45
330
2
100
AcDbSymbolTableRecord
100
AcDbLayerTableRecord
2
CamRetainer
70
4
62
7
6
CONTINUOUS
370
25
390
F
0
LAYER
5
46
330
2
100
AcDbSymbolTableRecord
100
AcDbLayerTableRecord
2
Runner
70
4
62
7
6
CONTINUOUS
370
25
390
F
0
LAYER
5
47
330
2
100
AcDbSymbolTableRecord
100
AcDbLayerTableRecord
2
Box
70
4
62
7
6
CONTINUOUS
370
25
390
F
0
LAYER
5
48
330
2
100
AcDbSymbolTableRecord
100
AcDbLayerTableRecord
2
BoxLid
70
4
62
7
6
CONTINUOUS
370
25
390
F
0
LAYER
5
49
330
2
100
AcDbSymbolTableRecord
100
AcDbLayerTableRecord
2
BoxLidHinge
70
4
62
7
6
CONTINUOUS
370
25
390
F
0
LAYER
5
4A
330
2
100
AcDbSymbolTableRecord
100
AcDbLayerTableRecord
2
StainlessGaurd
70
4
62
7
6
CONTINUOUS
370
25
390
F
0
LAYER
5
4B
330
2
100
AcDbSymbolTableRecord
100
AcDbLayerTableRecord
2
Dimensions
70
4
62
7
6
CONTINUOUS
370
25
390
F
0
LAYER
5
4C
330
2
100
AcDbSymbolTableRecord
100
AcDbLayerTableRecord
2
Spring
70
4
62
7
6
CONTINUOUS
370
25
390
F
0
LAYER
5
4D
330
2
100
AcDbSymbolTableRecord
100
AcDbLayerTableRecord
2
Sides
70
4
62
7
6
CONTINUOUS
370
25
390
F
0
LAYER
5
4E
330
2
100
AcDbSymbolTableRecord
100
AcDbLayerTableRecord
2
NylonRoller
70
4
62
7
6
CONTINUOUS
370
25
390
F
0
LAYER
5
4F
330
2
100
AcDbSymbolTableRecord
100
AcDbLayerTableRecord
2
SpringSpacer
70
4
62
7
6
CONTINUOUS
370
25
390
F
0
LAYER
5
50
330
2
100
AcDbSymbolTableRecord
100
AcDbLayerTableRecord
2
SpacerWasher
70
4
62
7
6
CONTINUOUS
370
25
390
F
0
LAYER
5
51
330
2
100
AcDbSymbolTableRecord
100
AcDbLayerTableRecord
2
4mmShaft
70
4
62
7
6
CONTINUOUS
370
25
390
F
0
LAYER
5
52
330
2
100
AcDbSymbolTableRecord
100
AcDbLayerTableRecord
2
6mmShaft
70
4
62
7
6
CONTINUOUS
370
25
390
F
0
ENDTAB
0
TABLE
2
STYLE
5
3
330
0
100
AcDbSymbolTable
70
3
0
STYLE
5
53
330
2
100
AcDbSymbolTableRecord
100
AcDbTextStyleTableRecord
2
Standard
70
0
40
0
41
1
50
0
71
0
42
1
3
txt
4

0
ENDTAB
0
TABLE
2
VIEW
5
6
330
0
100
AcDbSymbolTable
70
0
0
ENDTAB
0
TABLE
2
UCS
5
7
330
0
100
AcDbSymbolTable
70
0
0
ENDTAB
0
TABLE
2
APPID
5
9
330
0
100
AcDbSymbolTable
70
1
0
APPID
5
12
330
9
100
AcDbSymbolTableRecord
100
AcDbRegAppTableRecord
2
ACAD
70
0
0
ENDTAB
0
TABLE
2
DIMSTYLE
5
A
330
0
100
AcDbSymbolTable
70
1
100
AcDbDimStyleTable
71
1
0
DIMSTYLE
105
54
330
A
100
AcDbSymbolTableRecord
100
AcDbDimStyleTableRecord
2
Standard
70
0
40
1
41
2.5
42
0.625
43
0.38
44
1.25
45
0
46
0
47
0
48
0
140
2.5
141
0.09
142
0
143
25.4
144
1
145
0
146
1
147
0.625
148
0
71
0
72
0
73
0
74
1
75
0
76
0
77
0
78
0
79
0
170
0
171
2
172
0
173
0
174
0
175
0
176
0
177
0
178
0
179
0
271
4
272
4
273
2
274
2
275
0
276
0
277
2
278
46
279
0
280
0
281
0
282
0
283
1
284
0
285
0
286
0
288
0
289
3
340
Standard
341

371
-2
372
-2
0
ENDTAB
0
TABLE
2
BLOCK_RECORD
5
1
330
0
100
AcDbSymbolTable
70
2
0
BLOCK_RECORD
5
1F
330
1
100
AcDbSymbolTableRecord
100
AcDbBlockTableRecord
2
*Model_Space
70
0
280
1
281
0
0
BLOCK_RECORD
5
1E
330
1
100
AcDbSymbolTableRecord
100
AcDbBlockTableRecord
2
*Paper_Space
70
0
280
1
281
0
0
BLOCK_RECORD
5
55
330
1
100
AcDbSymbolTableRecord
100
AcDbBlockTableRecord
2
*D13
70
0
280
1
281
0
0
BLOCK_RECORD
5
58
330
1
100
AcDbSymbolTableRecord
100
AcDbBlockTableRecord
2
*D15
70
0
280
1
281
0
0
BLOCK_RECORD
5
5B
330
1
100
AcDbSymbolTableRecord
100
AcDbBlockTableRecord
2
*D2
70
0
280
1
281
0
0
BLOCK_RECORD
5
5E
330
1
100
AcDbSymbolTableRecord
100
AcDbBlockTableRecord
2
*D8
70
0
280
1
281
0
0
BLOCK_RECORD
5
61
330
1
100
AcDbSymbolTableRecord
100
AcDbBlockTableRecord
2
*D9
70
0
280
1
281
0
0
BLOCK_RECORD
5
64
330
1
100
AcDbSymbolTableRecord
100
AcDbBlockTableRecord
2
*D11
70
0
280
1
281
0
0
BLOCK_RECORD
5
67
330
1
100
AcDbSymbolTableRecord
100
AcDbBlockTableRecord
2
*D17
70
0
280
1
281
0
0
BLOCK_RECORD
5
6A
330
1
100
AcDbSymbolTableRecord
100
AcDbBlockTableRecord
2
*D5
70
0
280
1
281
0
0
BLOCK_RECORD
5
6D
330
1
100
AcDbSymbolTableRecord
100
AcDbBlockTableRecord
2
*D10
70
0
280
1
281
0
0
BLOCK_RECORD
5
70
330
1
100
AcDbSymbolTableRecord
100
AcDbBlockTableRecord
2
*D1
70
0
280
1
281
0
0
BLOCK_RECORD
5
73
330
1
100
AcDbSymbolTableRecord
100
AcDbBlockTableRecord
2
*D14
70
0
280
1
281
0
0
BLOCK_RECORD
5
76
330
1
100
AcDbSymbolTableRecord
100
AcDbBlockTableRecord
2
*D16
70
0
280
1
281
0
0
BLOCK_RECORD
5
79
330
1
100
AcDbSymbolTableRecord
100
AcDbBlockTableRecord
2
*D7
70
0
280
1
281
0
0
BLOCK_RECORD
5
7C
330
1
100
AcDbSymbolTableRecord
100
AcDbBlockTableRecord
2
*D18
70
0
280
1
281
0
0
BLOCK_RECORD
5
7F
330
1
100
AcDbSymbolTableRecord
100
AcDbBlockTableRecord
2
*D12
70
0
280
1
281
0
0
BLOCK_RECORD
5
82
330
1
100
AcDbSymbolTableRecord
100
AcDbBlockTableRecord
2
*D3
70
0
280
1
281
0
0
BLOCK_RECORD
5
85
330
1
100
AcDbSymbolTableRecord
100
AcDbBlockTableRecord
2
*D19
70
0
280
1
281
0
0
BLOCK_RECORD
5
88
330
1
100
AcDbSymbolTableRecord
100
AcDbBlockTableRecord
2
*D20
70
0
280
1
281
0
0
BLOCK_RECORD
5
8B
330
1
100
AcDbSymbolTableRecord
100
AcDbBlockTableRecord
2
*D6
70
0
280
1
281
0
0
BLOCK_RECORD
5
8E
330
1
100
AcDbSymbolTableRecord
100
AcDbBlockTableRecord
2
*D4
70
0
280
1
281
0
0
ENDTAB
0
ENDSEC
0
SECTION
2
BLOCKS
0
BLOCK
5
20
330
1F
100
AcDbEntity
8
0
100
AcDbBlockBegin
2
*Model_Space
70
0
10
0
20
0
30
0
3
*Model_Space
1

0
ENDBLK
5
21
330
1F
100
AcDbEntity
8
0
100
AcDbBlockEnd
0
BLOCK
5
1C
330
1B
100
AcDbEntity
8
0
100
AcDbBlockBegin
2
*Paper_Space
70
0
10
0
20
0
30
0
3
*Paper_Space
1

0
ENDBLK
5
1D
330
1F
100
AcDbEntity
8
0
100
AcDbBlockEnd
0
BLOCK
5
56
330
55
100
AcDbEntity
8
0
100
AcDbBlockBegin
2
*D13
70
1
10
0
20
0
3
*D13
1

0
LINE
5
91
100
AcDbEntity
8
Dimensions
6
CONTINUOUS
62
7
370
0
100
AcDbLine
10
395
20
420
11
349
21
420
0
SOLID
5
92
100
AcDbEntity
8
Dimensions
6
CONTINUOUS
62
7
370
0
100
AcDbTrace
10
395
20
420
30
0
11
392.5
21
419.583715342
31
0
12
392.5
22
420.416284658
32
0
13
392.5
23
420.416284658
33
0
0
SOLID
5
93
100
AcDbEntity
8
Dimensions
6
CONTINUOUS
62
7
370
0
100
AcDbTrace
10
349
20
420
30
0
11
351.5
21
420.416284658
31
0
12
351.5
22
419.583715342
32
0
13
351.5
23
419.583715342
33
0
0
MTEXT
5
94
100
AcDbEntity
8
Dimensions
6
CONTINUOUS
62
7
370
0
100
AcDbMText
10
372
20
421.875
30
0
40
2.5
41
3.33333333333
71
5
72
1
1
46
7
standard
210
0
220
0
230
1
50
360
73
2
44
1
0
LINE
5
95
100
AcDbEntity
8
Dimensions
6
CONTINUOUS
62
7
370
0
100
AcDbLine
10
395
20
410.625
11
395
21
421.25
0
LINE
5
96
100
AcDbEntity
8
Dimensions
6
CONTINUOUS
62
7
370
0
100
AcDbLine
10
349
20
410.625
11
349
21
421.25
0
ENDBLK
5
57
330
55
100
AcDbEntity
8
0
100
AcDbBlockEnd
0
BLOCK
5
59
330
58
100
AcDbEntity
8
0
100
AcDbBlockBegin
2
*D15
70
1
10
0
20
0
3
*D15
1

0
LINE
5
97
100
AcDbEntity
8
Dimensions
6
CONTINUOUS
62
7
370
0
100
AcDbLine
10
470
20
405
11
470
21
390
0
SOLID
5
98
100
AcDbEntity
8
Dimensions
6
CONTINUOUS
62
7
370
0
100
AcDbTrace
10
470
20
400
30
0
11
469.583715342
21
402.5
31
0
12
470.416284658
22
402.5
32
0
13
470.416284658
23
402.5
33
0
0
SOLID
5
99
100
AcDbEntity
8
Dimensions
6
CONTINUOUS
62
7
370
0
100
AcDbTrace
10
470
20
395
30
0
11
470.416284658
21
392.5
31
0
12
469.583715342
22
392.5
32
0
13
469.583715342
23
392.5
33
0
0
MTEXT
5
9A
100
AcDbEntity
8
Dimensions
6
CONTINUOUS
62
7
370
0
100
AcDbMText
10
468.125
20
397.5
30
0
40
2.5
41
1.11111111111
71
5
72
1
1
5
7
standard
210
0
220
0
230
1
50
90
73
2
44
1
0
LINE
5
9B
100
AcDbEntity
8
Dimensions
6
CONTINUOUS
62
7
370
0
100
AcDbLine
10
460.625
20
400
11
471.25
21
400
0
LINE
5
9C
100
AcDbEntity
8
Dimensions
6
CONTINUOUS
62
7
370
0
100
AcDbLine
10
460.625
20
395
11
471.25
21
395
0
ENDBLK
5
5A
330
58
100
AcDbEntity
8
0
100
AcDbBlockEnd
0
BLOCK
5
5C
330
5B
100
AcDbEntity
8
0
100
AcDbBlockBegin
2
*D2
70
1
10
0
20
0
3
*D2
1

0
LINE
5
9D
100
AcDbEntity
8
Dimensions
6
CONTINUOUS
62
7
370
0
100
AcDbLine
10
600
20
80
11
625
21
80
0
SOLID
5
9E
100
AcDbEntity
8
Dimensions
6
CONTINUOUS
62
7
370
0
100
AcDbTrace
10
600
20
80
30
0
11
602.5
21
80.4162846578
31
0
12
602.5
22
79.5837153422
32
0
13
602.5
23
79.5837153422
33
0
0
SOLID
5
9F
100
AcDbEntity
8
Dimensions
6
CONTINUOUS
62
7
370
0
100
AcDbTrace
10
625
20
80
30
0
11
622.5
21
79.5837153422
31
0
12
622.5
22
80.4162846578
32
0
13
622.5
23
80.4162846578
33
0
0
MTEXT
5
A0
100
AcDbEntity
8
Dimensions
6
CONTINUOUS
62
7
370
0
100
AcDbMText
10
612.5
20
81.875
30
0
40
2.5
41
3.05555555556
71
5
72
1
1
25
7
standard
210
0
220
0
230
1
50
0
73
2
44
1
0
LINE
5
A1
100
AcDbEntity
8
Dimensions
6
CONTINUOUS
62
7
370
0
100
AcDbLine
10
600
20
89.375
11
600
21
78.75
0
LINE
5
A2
100
AcDbEntity
8
Dimensions
6
CONTINUOUS
62
7
370
0
100
AcDbLine
10
625
20
89.375
11
625
21
78.75
0
ENDBLK
5
5D
330
5B
100
AcDbEntity
8
0
100
AcDbBlockEnd
0
BLOCK
5
5F
330
5E
100
AcDbEntity
8
0
100
AcDbBlockBegin
2
*D8
70
1
10
0
20
0
3
*D8
1

0
LINE
5
A3
100
AcDbEntity
8
Dimensions
6
CONTINUOUS
62
7
370
0
100
AcDbLine
10
594
20
420
11
689
21
420
0
SOLID
5
A4
100
AcDbEntity
8
Dimensions
6
CONTINUOUS
62
7
370
0
100
AcDbTrace
10
594
20
420
30
0
11
596.5
21
420.416284658
31
0
12
596.5
22
419.583715342
32
0
13
596.5
23
419.583715342
33
0
0
SOLID
5
A5
100
AcDbEntity
8
Dimensions
6
CONTINUOUS
62
7
370
0
100
AcDbTrace
10
689
20
420
30
0
11
686.5
21
419.583715342
31
0
12
686.5
22
420.416284658
32
0
13
686.5
23
420.416284658
33
0
0
MTEXT
5
A6
100
AcDbEntity
8
Dimensions
6
CONTINUOUS
62
7
370
0
100
AcDbMText
10
641.5
20
421.875
30
0
40
2.5
41
3.05555555556
71
5
72
1
1
95
7
standard
210
0
220
0
230
1
50
0
73
2
44
1
0
LINE
5
A7
100
AcDbEntity
8
Dimensions
6
CONTINUOUS
62
7
370
0
100
AcDbLine
10
594
20
410.625
11
594
21
421.25
0
LINE
5
A8
100
AcDbEntity
8
Dimensions
6
CONTINUOUS
62
7
370
0
100
AcDbLine
10
689
20
410.625
11
689
21
421.25
0
ENDBLK
5
60
330
5E
100
AcDbEntity
8
0
100
AcDbBlockEnd
0
BLOCK
5
62
330
61
100
AcDbEntity
8
0
100
AcDbBlockBegin
2
*D9
70
1
10
0
20
0
3
*D9
1

0
LINE
5
A9
100
AcDbEntity
8
Dimensions
6
CONTINUOUS
62
7
370
0
100
AcDbLine
10
90
20
400
11
90
21
120
0
SOLID
5
AA
100
AcDbEntity
8
Dimensions
6
CONTINUOUS
62
7
370
0
100
AcDbTrace
10
90
20
400
30
0
11
90.4162846578
21
397.5
31
0
12
89.5837153422
22
397.5
32
0
13
89.5837153422
23
397.5
33
0
0
SOLID
5
AB
100
AcDbEntity
8
Dimensions
6
CONTINUOUS
62
7
370
0
100
AcDbTrace
10
90
20
120
30
0
11
89.5837153422
21
122.5
31
0
12
90.4162846578
22
122.5
32
0
13
90.4162846578
23
122.5
33
0
0
MTEXT
5
AC
100
AcDbEntity
8
Dimensions
6
CONTINUOUS
62
7
370
0
100
AcDbMText
10
88.125
20
260
30
0
40
2.5
41
5
71
5
72
1
1
280
7
standard
210
0
220
0
230
1
50
90
73
2
44
1
0
LINE
5
AD
100
AcDbEntity
8
Dimensions
6
CONTINUOUS
62
7
370
0
100
AcDbLine
10
99.375
20
400
11
88.75
21
400
0
LINE
5
AE
100
AcDbEntity
8
Dimensions
6
CONTINUOUS
62
7
370
0
100
AcDbLine
10
99.375
20
120
11
88.75
21
120
0
ENDBLK
5
63
330
61
100
AcDbEntity
8
0
100
AcDbBlockEnd
0
BLOCK
5
65
330
64
100
AcDbEntity
8
0
100
AcDbBlockBegin
2
*D11
70
1
10
0
20
0
3
*D11
1

0
LINE
5
AF
100
AcDbEntity
8
Dimensions
6
CONTINUOUS
62
7
370
0
100
AcDbLine
10
440
20
130
11
440
21
355
0
SOLID
5
B0
100
AcDbEntity
8
Dimensions
6
CONTINUOUS
62
7
370
0
100
AcDbTrace
10
440
20
130
30
0
11
439.583715342
21
132.5
31
0
12
440.416284658
22
132.5
32
0
13
440.416284658
23
132.5
33
0
0
SOLID
5
B1
100
AcDbEntity
8
Dimensions
6
CONTINUOUS
62
7
370
0
100
AcDbTrace
10
440
20
355
30
0
11
440.416284658
21
352.5
31
0
12
439.583715342
22
352.5
32
0
13
439.583715342
23
352.5
33
0
0
MTEXT
5
B2
100
AcDbEntity
8
Dimensions
6
CONTINUOUS
62
7
370
0
100
AcDbMText
10
438.125
20
242.5
30
0
40
2.5
41
5
71
5
72
1
1
225
7
standard
210
0
220
0
230
1
50
90
73
2
44
1
0
LINE
5
B3
100
AcDbEntity
8
Dimensions
6
CONTINUOUS
62
7
370
0
100
AcDbLine
10
420.625
20
130
11
441.25
21
130
0
LINE
5
B4
100
AcDbEntity
8
Dimensions
6
CONTINUOUS
62
7
370
0
100
AcDbLine
10
420.625
20
355
11
441.25
21
355
0
ENDBLK
5
66
330
64
100
AcDbEntity
8
0
100
AcDbBlockEnd
0
BLOCK
5
68
330
67
100
AcDbEntity
8
0
100
AcDbBlockBegin
2
*D17
70
1
10
0
20
0
3
*D17
1

0
LINE
5
B5
100
AcDbEntity
8
Dimensions
6
CONTINUOUS
62
7
370
0
100
AcDbLine
10
470
20
390
11
470
21
368
0
SOLID
5
B6
100
AcDbEntity
8
Dimensions
6
CONTINUOUS
62
7
370
0
100
AcDbTrace
10
470
20
390
30
0
11
470.416284658
21
387.5
31
0
12
469.583715342
22
387.5
32
0
13
469.583715342
23
387.5
33
0
0
SOLID
5
B7
100
AcDbEntity
8
Dimensions
6
CONTINUOUS
62
7
370
0
100
AcDbTrace
10
470
20
368
30
0
11
469.583715342
21
370.5
31
0
12
470.416284658
22
370.5
32
0
13
470.416284658
23
370.5
33
0
0
MTEXT
5
B8
100
AcDbEntity
8
Dimensions
6
CONTINUOUS
62
7
370
0
100
AcDbMText
10
468.125
20
379
30
0
40
2.5
41
3.05555555556
71
5
72
1
1
22
7
standard
210
0
220
0
230
1
50
90
73
2
44
1
0
LINE
5
B9
100
AcDbEntity
8
Dimensions
6
CONTINUOUS
62
7
370
0
100
AcDbLine
10
460.625
20
390
11
471.25
21
390
0
LINE
5
BA
100
AcDbEntity
8
Dimensions
6
CONTINUOUS
62
7
370
0
100
AcDbLine
10
460.625
20
368
11
471.25
21
368
0
ENDBLK
5
69
330
67
100
AcDbEntity
8
0
100
AcDbBlockEnd
0
BLOCK
5
6B
330
6A
100
AcDbEntity
8
0
100
AcDbBlockBegin
2
*D5
70
1
10
0
20
0
3
*D5
1

0
LINE
5
BB
100
AcDbEntity
8
Dimensions
6
CONTINUOUS
62
7
370
0
100
AcDbLine
10
649
20
80
11
663
21
80
0
SOLID
5
BC
100
AcDbEntity
8
Dimensions
6
CONTINUOUS
62
7
370
0
100
AcDbTrace
10
654
20
80
30
0
11
651.5
21
79.5837153422
31
0
12
651.5
22
80.4162846578
32
0
13
651.5
23
80.4162846578
33
0
0
SOLID
5
BD
100
AcDbEntity
8
Dimensions
6
CONTINUOUS
62
7
370
0
100
AcDbTrace
10
658
20
80
30
0
11
660.5
21
80.4162846578
31
0
12
660.5
22
79.5837153422
32
0
13
660.5
23
79.5837153422
33
0
0
MTEXT
5
BE
100
AcDbEntity
8
Dimensions
6
CONTINUOUS
62
7
370
0
100
AcDbMText
10
656
20
81.875
30
0
40
2.5
41
1.38888888889
71
5
72
1
1
4
7
standard
210
0
220
0
230
1
50
0
73
2
44
1
0
LINE
5
BF
100
AcDbEntity
8
Dimensions
6
CONTINUOUS
62
7
370
0
100
AcDbLine
10
654
20
89.375
11
654
21
78.75
0
LINE
5
C0
100
AcDbEntity
8
Dimensions
6
CONTINUOUS
62
7
370
0
100
AcDbLine
10
658
20
89.375
11
658
21
78.75
0
ENDBLK
5
6C
330
6A
100
AcDbEntity
8
0
100
AcDbBlockEnd
0
BLOCK
5
6E
330
6D
100
AcDbEntity
8
0
100
AcDbBlockBegin
2
*D10
70
1
10
0
20
0
3
*D10
1

0
LINE
5
C1
100
AcDbEntity
8
Dimensions
6
CONTINUOUS
62
7
370
0
100
AcDbLine
10
120
20
90
11
400
21
90
0
SOLID
5
C2
100
AcDbEntity
8
Dimensions
6
CONTINUOUS
62
7
370
0
100
AcDbTrace
10
120
20
90
30
0
11
122.5
21
90.4162846578
31
0
12
122.5
22
89.5837153422
32
0
13
122.5
23
89.5837153422
33
0
0
SOLID
5
C3
100
AcDbEntity
8
Dimensions
6
CONTINUOUS
62
7
370
0
100
AcDbTrace
10
400
20
90
30
0
11
397.5
21
89.5837153422
31
0
12
397.5
22
90.4162846578
32
0
13
397.5
23
90.4162846578
33
0
0
MTEXT
5
C4
100
AcDbEntity
8
Dimensions
6
CONTINUOUS
62
7
370
0
100
AcDbMText
10
260
20
91.875
30
0
40
2.5
41
5
71
5
72
1
1
280
7
standard
210
0
220
0
230
1
50
0
73
2
44
1
0
LINE
5
C5
100
AcDbEntity
8
Dimensions
6
CONTINUOUS
62
7
370
0
100
AcDbLine
10
120
20
99.375
11
120
21
88.75
0
LINE
5
C6
100
AcDbEntity
8
Dimensions
6
CONTINUOUS
62
7
370
0
100
AcDbLine
10
400
20
99.375
11
400
21
88.75
0
ENDBLK
5
6F
330
6D
100
AcDbEntity
8
0
100
AcDbBlockEnd
0
BLOCK
5
71
330
70
100
AcDbEntity
8
0
100
AcDbBlockBegin
2
*D1
70
1
10
0
20
0
3
*D1
1

0
LINE
5
C7
100
AcDbEntity
8
Dimensions
6
CONTINUOUS
62
7
370
0
100
AcDbLine
10
589
20
80
11
605
21
80
0
SOLID
5
C8
100
AcDbEntity
8
Dimensions
6
CONTINUOUS
62
7
370
0
100
AcDbTrace
10
594
20
80
30
0
11
591.5
21
79.5837153422
31
0
12
591.5
22
80.4162846578
32
0
13
591.5
23
80.4162846578
33
0
0
SOLID
5
C9
100
AcDbEntity
8
Dimensions
6
CONTINUOUS
62
7
370
0
100
AcDbTrace
10
600
20
80
30
0
11
602.5
21
80.4162846578
31
0
12
602.5
22
79.5837153422
32
0
13
602.5
23
79.5837153422
33
0
0
MTEXT
5
CA
100
AcDbEntity
8
Dimensions
6
CONTINUOUS
62
7
370
0
100
AcDbMText
10
597
20
81.875
30
0
40
2.5
41
1.11111111111
71
5
72
1
1
6
7
standard
210
0
220
0
230
1
50
0
73
2
44
1
0
LINE
5
CB
100
AcDbEntity
8
Dimensions
6
CONTINUOUS
62
7
370
0
100
AcDbLine
10
594
20
89.375
11
594
21
78.75
0
LINE
5
CC
100
AcDbEntity
8
Dimensions
6
CONTINUOUS
62
7
370
0
100
AcDbLine
10
600
20
89.375
11
600
21
78.75
0
ENDBLK
5
72
330
70
100
AcDbEntity
8
0
100
AcDbBlockEnd
0
BLOCK
5
74
330
73
100
AcDbEntity
8
0
100
AcDbBlockBegin
2
*D14
70
1
10
0
20
0
3
*D14
1

0
LINE
5
CD
100
AcDbEntity
8
Dimensions
6
CONTINUOUS
62
7
370
0
100
AcDbLine
10
349
20
420
11
310
21
420
0
SOLID
5
CE
100
AcDbEntity
8
Dimensions
6
CONTINUOUS
62
7
370
0
100
AcDbTrace
10
349
20
420
30
0
11
346.5
21
419.583715342
31
0
12
346.5
22
420.416284658
32
0
13
346.5
23
420.416284658
33
0
0
SOLID
5
CF
100
AcDbEntity
8
Dimensions
6
CONTINUOUS
62
7
370
0
100
AcDbTrace
10
310
20
420
30
0
11
312.5
21
420.416284658
31
0
12
312.5
22
419.583715342
32
0
13
312.5
23
419.583715342
33
0
0
MTEXT
5
D0
100
AcDbEntity
8
Dimensions
6
CONTINUOUS
62
7
370
0
100
AcDbMText
10
329.5
20
421.875
30
0
40
2.5
41
3.05555555556
71
5
72
1
1
39
7
standard
210
0
220
0
230
1
50
360
73
2
44
1
0
LINE
5
D1
100
AcDbEntity
8
Dimensions
6
CONTINUOUS
62
7
370
0
100
AcDbLine
10
349
20
420.625
11
349
21
421.25
0
LINE
5
D2
100
AcDbEntity
8
Dimensions
6
CONTINUOUS
62
7
370
0
100
AcDbLine
10
310
20
410.625
11
310
21
421.25
0
ENDBLK
5
75
330
73
100
AcDbEntity
8
0
100
AcDbBlockEnd
0
BLOCK
5
77
330
76
100
AcDbEntity
8
0
100
AcDbBlockBegin
2
*D16
70
1
10
0
20
0
3
*D16
1

0
LINE
5
D3
100
AcDbEntity
8
Dimensions
6
CONTINUOUS
62
7
370
0
100
AcDbLine
10
470
20
400
11
470
21
385
0
SOLID
5
D4
100
AcDbEntity
8
Dimensions
6
CONTINUOUS
62
7
370
0
100
AcDbTrace
10
470
20
395
30
0
11
469.583715342
21
397.5
31
0
12
470.416284658
22
397.5
32
0
13
470.416284658
23
397.5
33
0
0
SOLID
5
D5
100
AcDbEntity
8
Dimensions
6
CONTINUOUS
62
7
370
0
100
AcDbTrace
10
470
20
390
30
0
11
470.416284658
21
387.5
31
0
12
469.583715342
22
387.5
32
0
13
469.583715342
23
387.5
33
0
0
MTEXT
5
D6
100
AcDbEntity
8
Dimensions
6
CONTINUOUS
62
7
370
0
100
AcDbMText
10
468.125
20
392.5
30
0
40
2.5
41
1.11111111111
71
5
72
1
1
5
7
standard
210
0
220
0
230
1
50
90
73
2
44
1
0
LINE
5
D7
100
AcDbEntity
8
Dimensions
6
CONTINUOUS
62
7
370
0
100
AcDbLine
10
460.625
20
395
11
471.25
21
395
0
LINE
5
D8
100
AcDbEntity
8
Dimensions
6
CONTINUOUS
62
7
370
0
100
AcDbLine
10
460.625
20
390
11
471.25
21
390
0
ENDBLK
5
78
330
76
100
AcDbEntity
8
0
100
AcDbBlockEnd
0
BLOCK
5
7A
330
79
100
AcDbEntity
8
0
100
AcDbBlockBegin
2
*D7
70
1
10
0
20
0
3
*D7
1

0
LINE
5
D9
100
AcDbEntity
8
Dimensions
6
CONTINUOUS
62
7
370
0
100
AcDbLine
10
678
20
80
11
694
21
80
0
SOLID
5
DA
100
AcDbEntity
8
Dimensions
6
CONTINUOUS
62
7
370
0
100
AcDbTrace
10
683
20
80
30
0
11
680.5
21
79.5837153422
31
0
12
680.5
22
80.4162846578
32
0
13
680.5
23
80.4162846578
33
0
0
SOLID
5
DB
100
AcDbEntity
8
Dimensions
6
CONTINUOUS
62
7
370
0
100
AcDbTrace
10
689
20
80
30
0
11
691.5
21
80.4162846578
31
0
12
691.5
22
79.5837153422
32
0
13
691.5
23
79.5837153422
33
0
0
MTEXT
5
DC
100
AcDbEntity
8
Dimensions
6
CONTINUOUS
62
7
370
0
100
AcDbMText
10
686
20
81.875
30
0
40
2.5
41
1.11111111111
71
5
72
1
1
6
7
standard
210
0
220
0
230
1
50
0
73
2
44
1
0
LINE
5
DD
100
AcDbEntity
8
Dimensions
6
CONTINUOUS
62
7
370
0
100
AcDbLine
10
683
20
89.375
11
683
21
78.75
0
LINE
5
DE
100
AcDbEntity
8
Dimensions
6
CONTINUOUS
62
7
370
0
100
AcDbLine
10
689
20
89.375
11
689
21
78.75
0
ENDBLK
5
7B
330
79
100
AcDbEntity
8
0
100
AcDbBlockEnd
0
BLOCK
5
7D
330
7C
100
AcDbEntity
8
0
100
AcDbBlockBegin
2
*D18
70
1
10
0
20
0
3
*D18
1

0
LINE
5
DF
100
AcDbEntity
8
Dimensions
6
CONTINUOUS
62
7
370
0
100
AcDbLine
10
470
20
368
11
470
21
355
0
SOLID
5
E0
100
AcDbEntity
8
Dimensions
6
CONTINUOUS
62
7
370
0
100
AcDbTrace
10
470
20
368
30
0
11
470.416284658
21
365.5
31
0
12
469.583715342
22
365.5
32
0
13
469.583715342
23
365.5
33
0
0
SOLID
5
E1
100
AcDbEntity
8
Dimensions
6
CONTINUOUS
62
7
370
0
100
AcDbTrace
10
470
20
355
30
0
11
469.583715342
21
357.5
31
0
12
470.416284658
22
357.5
32
0
13
470.416284658
23
357.5
33
0
0
MTEXT
5
E2
100
AcDbEntity
8
Dimensions
6
CONTINUOUS
62
7
370
0
100
AcDbMText
10
468.125
20
361.5
30
0
40
2.5
41
2.5
71
5
72
1
1
13
7
standard
210
0
220
0
230
1
50
90
73
2
44
1
0
LINE
5
E3
100
AcDbEntity
8
Dimensions
6
CONTINUOUS
62
7
370
0
100
AcDbLine
10
460.625
20
368
11
471.25
21
368
0
LINE
5
E4
100
AcDbEntity
8
Dimensions
6
CONTINUOUS
62
7
370
0
100
AcDbLine
10
460.625
20
355
11
471.25
21
355
0
ENDBLK
5
7E
330
7C
100
AcDbEntity
8
0
100
AcDbBlockEnd
0
BLOCK
5
80
330
7F
100
AcDbEntity
8
0
100
AcDbBlockBegin
2
*D12
70
1
10
0
20
0
3
*D12
1

0
LINE
5
E5
100
AcDbEntity
8
Dimensions
6
CONTINUOUS
62
7
370
0
100
AcDbLine
10
405
20
420
11
390
21
420
0
SOLID
5
E6
100
AcDbEntity
8
Dimensions
6
CONTINUOUS
62
7
370
0
100
AcDbTrace
10
400
20
420
30
0
11
402.5
21
420.416284658
31
0
12
402.5
22
419.583715342
32
0
13
402.5
23
419.583715342
33
0
0
SOLID
5
E7
100
AcDbEntity
8
Dimensions
6
CONTINUOUS
62
7
370
0
100
AcDbTrace
10
395
20
420
30
0
11
392.5
21
419.583715342
31
0
12
392.5
22
420.416284658
32
0
13
392.5
23
420.416284658
33
0
0
MTEXT
5
E8
100
AcDbEntity
8
Dimensions
6
CONTINUOUS
62
7
370
0
100
AcDbMText
10
397.5
20
421.875
30
0
40
2.5
41
1.11111111111
71
5
72
1
1
5
7
standard
210
0
220
0
230
1
50
360
73
2
44
1
0
LINE
5
E9
100
AcDbEntity
8
Dimensions
6
CONTINUOUS
62
7
370
0
100
AcDbLine
10
400
20
410.625
11
400
21
421.25
0
LINE
5
EA
100
AcDbEntity
8
Dimensions
6
CONTINUOUS
62
7
370
0
100
AcDbLine
10
395
20
410.625
11
395
21
421.25
0
ENDBLK
5
81
330
7F
100
AcDbEntity
8
0
100
AcDbBlockEnd
0
BLOCK
5
83
330
82
100
AcDbEntity
8
0
100
AcDbBlockBegin
2
*D3
70
1
10
0
20
0
3
*D3
1

0
LINE
5
EB
100
AcDbEntity
8
Dimensions
6
CONTINUOUS
62
7
370
0
100
AcDbLine
10
620
20
80
11
634
21
80
0
SOLID
5
EC
100
AcDbEntity
8
Dimensions
6
CONTINUOUS
62
7
370
0
100
AcDbTrace
10
625
20
80
30
0
11
622.5
21
79.5837153422
31
0
12
622.5
22
80.4162846578
32
0
13
622.5
23
80.4162846578
33
0
0
SOLID
5
ED
100
AcDbEntity
8
Dimensions
6
CONTINUOUS
62
7
370
0
100
AcDbTrace
10
629
20
80
30
0
11
631.5
21
80.4162846578
31
0
12
631.5
22
79.5837153422
32
0
13
631.5
23
79.5837153422
33
0
0
MTEXT
5
EE
100
AcDbEntity
8
Dimensions
6
CONTINUOUS
62
7
370
0
100
AcDbMText
10
627
20
81.875
30
0
40
2.5
41
1.38888888889
71
5
72
1
1
4
7
standard
210
0
220
0
230
1
50
0
73
2
44
1
0
LINE
5
EF
100
AcDbEntity
8
Dimensions
6
CONTINUOUS
62
7
370
0
100
AcDbLine
10
625
20
89.375
11
625
21
78.75
0
LINE
5
F0
100
AcDbEntity
8
Dimensions
6
CONTINUOUS
62
7
370
0
100
AcDbLine
10
629
20
89.375
11
629
21
78.75
0
ENDBLK
5
84
330
82
100
AcDbEntity
8
0
100
AcDbBlockEnd
0
BLOCK
5
86
330
85
100
AcDbEntity
8
0
100
AcDbBlockBegin
2
*D19
70
1
10
0
20
0
3
*D19
1

0
LINE
5
F1
100
AcDbEntity
8
Dimensions
6
CONTINUOUS
62
7
370
0
100
AcDbLine
10
470
20
360
11
470
21
345
0
SOLID
5
F2
100
AcDbEntity
8
Dimensions
6
CONTINUOUS
62
7
370
0
100
AcDbTrace
10
470
20
355
30
0
11
469.583715342
21
357.5
31
0
12
470.416284658
22
357.5
32
0
13
470.416284658
23
357.5
33
0
0
SOLID
5
F3
100
AcDbEntity
8
Dimensions
6
CONTINUOUS
62
7
370
0
100
AcDbTrace
10
470
20
350
30
0
11
470.416284658
21
347.5
31
0
12
469.583715342
22
347.5
32
0
13
469.583715342
23
347.5
33
0
0
MTEXT
5
F4
100
AcDbEntity
8
Dimensions
6
CONTINUOUS
62
7
370
0
100
AcDbMText
10
468.125
20
352.5
30
0
40
2.5
41
1.11111111111
71
5
72
1
1
5
7
standard
210
0
220
0
230
1
50
90
73
2
44
1
0
LINE
5
F5
100
AcDbEntity
8
Dimensions
6
CONTINUOUS
62
7
370
0
100
AcDbLine
10
460.625
20
355
11
471.25
21
355
0
LINE
5
F6
100
AcDbEntity
8
Dimensions
6
CONTINUOUS
62
7
370
0
100
AcDbLine
10
460.625
20
350
11
471.25
21
350
0
ENDBLK
5
87
330
85
100
AcDbEntity
8
0
100
AcDbBlockEnd
0
BLOCK
5
89
330
88
100
AcDbEntity
8
0
100
AcDbBlockBegin
2
*D20
70
1
10
0
20
0
3
*D20
1

0
LINE
5
F7
100
AcDbEntity
8
Dimensions
6
CONTINUOUS
62
7
370
0
100
AcDbLine
10
470
20
350
11
470
21
120
0
SOLID
5
F8
100
AcDbEntity
8
Dimensions
6
CONTINUOUS
62
7
370
0
100
AcDbTrace
10
470
20
350
30
0
11
470.416284658
21
347.5
31
0
12
469.583715342
22
347.5
32
0
13
469.583715342
23
347.5
33
0
0
SOLID
5
F9
100
AcDbEntity
8
Dimensions
6
CONTINUOUS
62
7
370
0
100
AcDbTrace
10
470
20
120
30
0
11
469.583715342
21
122.5
31
0
12
470.416284658
22
122.5
32
0
13
470.416284658
23
122.5
33
0
0
MTEXT
5
FA
100
AcDbEntity
8
Dimensions
6
CONTINUOUS
62
7
370
0
100
AcDbMText
10
468.125
20
235
30
0
40
2.5
41
5
71
5
72
1
1
230
7
standard
210
0
220
0
230
1
50
90
73
2
44
1
0
LINE
5
FB
100
AcDbEntity
8
Dimensions
6
CONTINUOUS
62
7
370
0
100
AcDbLine
10
460.625
20
350
11
471.25
21
350
0
LINE
5
FC
100
AcDbEntity
8
Dimensions
6
CONTINUOUS
62
7
370
0
100
AcDbLine
10
460.625
20
120
11
471.25
21
120
0
ENDBLK
5
8A
330
88
100
AcDbEntity
8
0
100
AcDbBlockEnd
0
BLOCK
5
8C
330
8B
100
AcDbEntity
8
0
100
AcDbBlockBegin
2
*D6
70
1
10
0
20
0
3
*D6
1

0
LINE
5
FD
100
AcDbEntity
8
Dimensions
6
CONTINUOUS
62
7
370
0
100
AcDbLine
10
658
20
80
11
683
21
80
0
SOLID
5
FE
100
AcDbEntity
8
Dimensions
6
CONTINUOUS
62
7
370
0
100
AcDbTrace
10
658
20
80
30
0
11
660.5
21
80.4162846578
31
0
12
660.5
22
79.5837153422
32
0
13
660.5
23
79.5837153422
33
0
0
SOLID
5
FF
100
AcDbEntity
8
Dimensions
6
CONTINUOUS
62
7
370
0
100
AcDbTrace
10
683
20
80
30
0
11
680.5
21
79.5837153422
31
0
12
680.5
22
80.4162846578
32
0
13
680.5
23
80.4162846578
33
0
0
MTEXT
5
100
100
AcDbEntity
8
Dimensions
6
CONTINUOUS
62
7
370
0
100
AcDbMText
10
670.5
20
81.875
30
0
40
2.5
41
3.05555555556
71
5
72
1
1
25
7
standard
210
0
220
0
230
1
50
0
73
2
44
1
0
LINE
5
101
100
AcDbEntity
8
Dimensions
6
CONTINUOUS
62
7
370
0
100
AcDbLine
10
658
20
89.375
11
658
21
78.75
0
LINE
5
102
100
AcDbEntity
8
Dimensions
6
CONTINUOUS
62
7
370
0
100
AcDbLine
10
683
20
89.375
11
683
21
78.75
0
ENDBLK
5
8D
330
8B
100
AcDbEntity
8
0
100
AcDbBlockEnd
0
BLOCK
5
8F
330
8E
100
AcDbEntity
8
0
100
AcDbBlockBegin
2
*D4
70
1
10
0
20
0
3
*D4
1

0
LINE
5
103
100
AcDbEntity
8
Dimensions
6
CONTINUOUS
62
7
370
0
100
AcDbLine
10
629
20
80
11
654
21
80
0
SOLID
5
104
100
AcDbEntity
8
Dimensions
6
CONTINUOUS
62
7
370
0
100
AcDbTrace
10
629
20
80
30
0
11
631.5
21
80.4162846578
31
0
12
631.5
22
79.5837153422
32
0
13
631.5
23
79.5837153422
33
0
0
SOLID
5
105
100
AcDbEntity
8
Dimensions
6
CONTINUOUS
62
7
370
0
100
AcDbTrace
10
654
20
80
30
0
11
651.5
21
79.5837153422
31
0
12
651.5
22
80.4162846578
32
0
13
651.5
23
80.4162846578
33
0
0
MTEXT
5
106
100
AcDbEntity
8
Dimensions
6
CONTINUOUS
62
7
370
0
100
AcDbMText
10
641.5
20
81.875
30
0
40
2.5
41
3.05555555556
71
5
72
1
1
25
7
standard
210
0
220
0
230
1
50
0
73
2
44
1
0
LINE
5
107
100
AcDbEntity
8
Dimensions
6
CONTINUOUS
62
7
370
0
100
AcDbLine
10
629
20
89.375
11
629
21
78.75
0
LINE
5
108
100
AcDbEntity
8
Dimensions
6
CONTINUOUS
62
7
370
0
100
AcDbLine
10
654
20
89.375
11
654
21
78.75
0
ENDBLK
5
90
330
8E
100
AcDbEntity
8
0
100
AcDbBlockEnd
0
ENDSEC
0
SECTION
2
ENTITIES
0
ARC
5
109
100
AcDbEntity
8
CamRetainer
6
ByLayer
62
256
370
-1
100
AcDbCircle
10
100
20
100
40
0
100
AcDbArc
50
0
51
0
0
ARC
5
10A
100
AcDbEntity
8
CamRetainer
6
ByLayer
62
256
370
-1
100
AcDbCircle
10
395
20
368
40
10
100
AcDbArc
50
225
51
45
0
LINE
5
10B
100
AcDbEntity
8
CamRetainer
6
ByLayer
62
256
370
-1
100
AcDbLine
10
411
20
383
11
402
21
375
0
ARC
5
10C
100
AcDbEntity
8
CamRetainer
6
ByLayer
62
256
370
-1
100
AcDbCircle
10
399
20
372
40
16
100
AcDbArc
50
42.510447078
51
225
0
ARC
5
10D
100
AcDbEntity
8
EmeryRoll
6
ByLayer
62
256
370
-1
100
AcDbCircle
10
410
20
358.5
40
30
100
AcDbArc
50
0
51
90
0
LINE
5
10E
100
AcDbEntity
8
Box
6
ByLayer
62
256
370
-1
100
AcDbLine
10
390
20
355
11
400
21
355
0
ARC
5
10F
100
AcDbEntity
8
Runner
6
ByLayer
62
256
370
-1
100
AcDbCircle
10
348.8
20
379.7
40
4
100
AcDbArc
50
315
51
225
0
LINE
5
110
100
AcDbEntity
8
Box
6
ByLayer
62
256
370
-1
100
AcDbLine
10
600
20
355
11
625
21
355
0
LINE
5
111
100
AcDbEntity
8
Box
6
ByLayer
62
256
370
-1
100
AcDbLine
10
625
20
355
11
625
21
100
0
LINE
5
112
100
AcDbEntity
8
Box
6
ByLayer
62
256
370
-1
100
AcDbLine
10
625
20
100
11
600
21
100
0
LINE
5
113
100
AcDbEntity
8
Box
6
ByLayer
62
256
370
-1
100
AcDbLine
10
600
20
355
11
600
21
100
0
LINE
5
114
100
AcDbEntity
8
BoxLid
6
ByLayer
62
256
370
-1
100
AcDbLine
10
600
20
400
11
600
21
390
0
LINE
5
115
100
AcDbEntity
8
BoxLid
6
ByLayer
62
256
370
-1
100
AcDbLine
10
600
20
390
11
625
21
390
0
LINE
5
116
100
AcDbEntity
8
BoxLid
6
ByLayer
62
256
370
-1
100
AcDbLine
10
625
20
390
11
625
21
400
0
LINE
5
117
100
AcDbEntity
8
BoxLid
6
ByLayer
62
256
370
-1
100
AcDbLine
10
625
20
400
11
600
21
400
0
LINE
5
118
100
AcDbEntity
8
StainlessGaurd
6
ByLayer
62
256
370
-1
100
AcDbLine
10
600
20
401
11
600
21
389
0
LINE
5
119
100
AcDbEntity
8
StainlessGaurd
6
ByLayer
62
256
370
-1
100
AcDbLine
10
600
20
389
11
625
21
389
0
LINE
5
11A
100
AcDbEntity
8
StainlessGaurd
6
ByLayer
62
256
370
-1
100
AcDbLine
10
625
20
389
11
625
21
401
0
LINE
5
11B
100
AcDbEntity
8
StainlessGaurd
6
ByLayer
62
256
370
-1
100
AcDbLine
10
625
20
401
11
600
21
401
0
CIRCLE
5
11C
100
AcDbEntity
8
Spring
6
ByLayer
62
256
370
-1
100
AcDbCircle
10
395
20
368
40
5.09901951359
0
LINE
5
11D
100
AcDbEntity
8
Spring
6
ByLayer
62
256
370
-1
100
AcDbLine
10
391
20
371
11
395
21
377
0
LINE
5
11E
100
AcDbEntity
8
Spring
6
ByLayer
62
256
370
-1
100
AcDbLine
10
399
20
365
11
395
21
360
0
LINE
5
11F
100
AcDbEntity
8
Box
6
ByLayer
62
256
370
-1
100
AcDbLine
10
629
20
355
11
654
21
355
0
LINE
5
120
100
AcDbEntity
8
Box
6
ByLayer
62
256
370
-1
100
AcDbLine
10
654
20
355
11
654
21
100
0
LINE
5
121
100
AcDbEntity
8
Box
6
ByLayer
62
256
370
-1
100
AcDbLine
10
654
20
100
11
629
21
100
0
LINE
5
122
100
AcDbEntity
8
Box
6
ByLayer
62
256
370
-1
100
AcDbLine
10
629
20
355
11
629
21
100
0
LINE
5
123
100
AcDbEntity
8
BoxLid
6
ByLayer
62
256
370
-1
100
AcDbLine
10
629
20
400
11
629
21
390
0
LINE
5
124
100
AcDbEntity
8
BoxLid
6
ByLayer
62
256
370
-1
100
AcDbLine
10
629
20
390
11
654
21
390
0
LINE
5
125
100
AcDbEntity
8
BoxLid
6
ByLayer
62
256
370
-1
100
AcDbLine
10
654
20
390
11
654
21
400
0
LINE
5
126
100
AcDbEntity
8
BoxLid
6
ByLayer
62
256
370
-1
100
AcDbLine
10
654
20
400
11
629
21
400
0
LINE
5
127
100
AcDbEntity
8
StainlessGaurd
6
ByLayer
62
256
370
-1
100
AcDbLine
10
629
20
401
11
629
21
389
0
LINE
5
128
100
AcDbEntity
8
StainlessGaurd
6
ByLayer
62
256
370
-1
100
AcDbLine
10
629
20
389
11
654
21
389
0
LINE
5
129
100
AcDbEntity
8
StainlessGaurd
6
ByLayer
62
256
370
-1
100
AcDbLine
10
654
20
389
11
654
21
401
0
LINE
5
12A
100
AcDbEntity
8
StainlessGaurd
6
ByLayer
62
256
370
-1
100
AcDbLine
10
654
20
401
11
629
21
401
0
LINE
5
12B
100
AcDbEntity
8
Box
6
ByLayer
62
256
370
-1
100
AcDbLine
10
658
20
355
11
683
21
355
0
LINE
5
12C
100
AcDbEntity
8
Box
6
ByLayer
62
256
370
-1
100
AcDbLine
10
683
20
355
11
683
21
100
0
LINE
5
12D
100
AcDbEntity
8
Box
6
ByLayer
62
256
370
-1
100
AcDbLine
10
683
20
100
11
658
21
100
0
LINE
5
12E
100
AcDbEntity
8
Box
6
ByLayer
62
256
370
-1
100
AcDbLine
10
658
20
355
11
658
21
100
0
LINE
5
12F
100
AcDbEntity
8
BoxLid
6
ByLayer
62
256
370
-1
100
AcDbLine
10
658
20
400
11
658
21
390
0
LINE
5
130
100
AcDbEntity
8
BoxLid
6
ByLayer
62
256
370
-1
100
AcDbLine
10
658
20
390
11
683
21
390
0
LINE
5
131
100
AcDbEntity
8
BoxLid
6
ByLayer
62
256
370
-1
100
AcDbLine
10
683
20
390
11
683
21
400
0
LINE
5
132
100
AcDbEntity
8
BoxLid
6
ByLayer
62
256
370
-1
100
AcDbLine
10
683
20
400
11
658
21
400
0
LINE
5
133
100
AcDbEntity
8
StainlessGaurd
6
ByLayer
62
256
370
-1
100
AcDbLine
10
658
20
401
11
658
21
389
0
LINE
5
134
100
AcDbEntity
8
StainlessGaurd
6
ByLayer
62
256
370
-1
100
AcDbLine
10
658
20
389
11
683
21
389
0
LINE
5
135
100
AcDbEntity
8
StainlessGaurd
6
ByLayer
62
256
370
-1
100
AcDbLine
10
683
20
389
11
683
21
401
0
LINE
5
136
100
AcDbEntity
8
StainlessGaurd
6
ByLayer
62
256
370
-1
100
AcDbLine
10
683
20
401
11
658
21
401
0
LINE
5
137
100
AcDbEntity
8
Sides
6
ByLayer
62
256
370
-1
100
AcDbLine
10
600
20
400
11
594
21
400
0
LINE
5
138
100
AcDbEntity
8
Sides
6
ByLayer
62
256
370
-1
100
AcDbLine
10
594
20
400
11
594
21
100
0
LINE
5
139
100
AcDbEntity
8
Sides
6
ByLayer
62
256
370
-1
100
AcDbLine
10
594
20
100
11
600
21
100
0
LINE
5
13A
100
AcDbEntity
8
Sides
6
ByLayer
62
256
370
-1
100
AcDbLine
10
600
20
100
11
600
21
400
0
LINE
5
13B
100
AcDbEntity
8
Sides
6
ByLayer
62
256
370
-1
100
AcDbLine
10
689
20
400
11
683
21
400
0
LINE
5
13C
100
AcDbEntity
8
Sides
6
ByLayer
62
256
370
-1
100
AcDbLine
10
683
20
400
11
683
21
100
0
LINE
5
13D
100
AcDbEntity
8
Sides
6
ByLayer
62
256
370
-1
100
AcDbLine
10
689
20
100
11
689
21
400
0
LINE
5
13E
100
AcDbEntity
8
Sides
6
ByLayer
62
256
370
-1
100
AcDbLine
10
625
20
400
11
629
21
400
0
LINE
5
13F
100
AcDbEntity
8
Sides
6
ByLayer
62
256
370
-1
100
AcDbLine
10
629
20
400
11
629
21
100
0
LINE
5
140
100
AcDbEntity
8
Sides
6
ByLayer
62
256
370
-1
100
AcDbLine
10
629
20
100
11
625
21
100
0
LINE
5
141
100
AcDbEntity
8
Sides
6
ByLayer
62
256
370
-1
100
AcDbLine
10
625
20
100
11
625
21
400
0
LINE
5
142
100
AcDbEntity
8
Sides
6
ByLayer
62
256
370
-1
100
AcDbLine
10
654
20
400
11
658
21
400
0
LINE
5
143
100
AcDbEntity
8
Sides
6
ByLayer
62
256
370
-1
100
AcDbLine
10
658
20
400
11
658
21
100
0
LINE
5
144
100
AcDbEntity
8
Sides
6
ByLayer
62
256
370
-1
100
AcDbLine
10
658
20
100
11
654
21
100
0
LINE
5
145
100
AcDbEntity
8
Sides
6
ByLayer
62
256
370
-1
100
AcDbLine
10
654
20
100
11
654
21
400
0
LINE
5
146
100
AcDbEntity
8
Sides
6
ByLayer
62
256
370
-1
100
AcDbLine
10
689
20
100
11
683
21
100
0
DIMENSION
5
147
100
AcDbEntity
8
Dimensions
6
ByLayer
62
256
370
-1
100
AcDbDimension
2
*D1
10
600
20
80
30
0
11
597
21
81.875
31
0
70
32
71
5
3
Standard
53
0
210
0
220
0
230
1
100
AcDbAlignedDimension
13
594
23
90
33
0
14
600
24
90
34
0
100
AcDbRotatedDimension
0
DIMENSION
5
148
100
AcDbEntity
8
Dimensions
6
ByLayer
62
256
370
-1
100
AcDbDimension
2
*D2
10
625
20
80
30
0
11
612.5
21
81.875
31
0
70
32
71
5
3
Standard
53
0
210
0
220
0
230
1
100
AcDbAlignedDimension
13
600
23
90
33
0
14
625
24
90
34
0
100
AcDbRotatedDimension
0
DIMENSION
5
149
100
AcDbEntity
8
Dimensions
6
ByLayer
62
256
370
-1
100
AcDbDimension
2
*D3
10
629
20
80
30
0
11
627
21
81.875
31
0
70
32
71
5
3
Standard
53
0
210
0
220
0
230
1
100
AcDbAlignedDimension
13
625
23
90
33
0
14
629
24
90
34
0
100
AcDbRotatedDimension
0
DIMENSION
5
14A
100
AcDbEntity
8
Dimensions
6
ByLayer
62
256
370
-1
100
AcDbDimension
2
*D4
10
654
20
80
30
0
11
641.5
21
81.875
31
0
70
32
71
5
3
Standard
53
0
210
0
220
0
230
1
100
AcDbAlignedDimension
13
629
23
90
33
0
14
654
24
90
34
0
100
AcDbRotatedDimension
0
DIMENSION
5
14B
100
AcDbEntity
8
Dimensions
6
ByLayer
62
256
370
-1
100
AcDbDimension
2
*D5
10
658
20
80
30
0
11
656
21
81.875
31
0
70
32
71
5
3
Standard
53
0
210
0
220
0
230
1
100
AcDbAlignedDimension
13
654
23
90
33
0
14
658
24
90
34
0
100
AcDbRotatedDimension
0
DIMENSION
5
14C
100
AcDbEntity
8
Dimensions
6
ByLayer
62
256
370
-1
100
AcDbDimension
2
*D6
10
683
20
80
30
0
11
670.5
21
81.875
31
0
70
32
71
5
3
Standard
53
0
210
0
220
0
230
1
100
AcDbAlignedDimension
13
658
23
90
33
0
14
683
24
90
34
0
100
AcDbRotatedDimension
0
DIMENSION
5
14D
100
AcDbEntity
8
Dimensions
6
ByLayer
62
256
370
-1
100
AcDbDimension
2
*D7
10
689
20
80
30
0
11
686
21
81.875
31
0
70
32
71
5
3
Standard
53
0
210
0
220
0
230
1
100
AcDbAlignedDimension
13
683
23
90
33
0
14
689
24
90
34
0
100
AcDbRotatedDimension
0
DIMENSION
5
14E
100
AcDbEntity
8
Dimensions
6
ByLayer
62
256
370
-1
100
AcDbDimension
2
*D8
10
689
20
420
30
0
11
641.5
21
421.875
31
0
70
32
71
5
3
Standard
53
0
210
0
220
0
230
1
100
AcDbAlignedDimension
13
594
23
410
33
0
14
689
24
410
34
0
100
AcDbRotatedDimension
0
CIRCLE
5
14F
100
AcDbEntity
8
BoxLidHinge
6
ByLayer
62
256
370
-1
100
AcDbCircle
10
395
20
395
40
2
0
CIRCLE
5
150
100
AcDbEntity
8
CamRetainer
6
ByLayer
62
256
370
-1
100
AcDbCircle
10
395
20
368
40
2
0
CIRCLE
5
151
100
AcDbEntity
8
Box
6
ByLayer
62
256
370
-1
100
AcDbCircle
10
395
20
350
40
2
0
LINE
5
152
100
AcDbEntity
8
Box
6
ByLayer
62
256
370
-1
100
AcDbLine
10
400
20
355
11
400
21
120
0
LINE
5
153
100
AcDbEntity
8
Box
6
ByLayer
62
256
370
-1
100
AcDbLine
10
390
20
130
11
390
21
355
0
LINE
5
154
100
AcDbEntity
8
Box
6
ByLayer
62
256
370
-1
100
AcDbLine
10
130
20
130
11
390
21
130
0
LINE
5
155
100
AcDbEntity
8
Box
6
ByLayer
62
256
370
-1
100
AcDbLine
10
400
20
120
11
120
21
120
0
LINE
5
156
100
AcDbEntity
8
Box
6
ByLayer
62
256
370
-1
100
AcDbLine
10
130
20
130
11
130
21
120
0
LINE
5
157
100
AcDbEntity
8
Box
6
ByLayer
62
256
370
-1
100
AcDbLine
10
390
20
130
11
400
21
130
0
CIRCLE
5
158
100
AcDbEntity
8
Box
6
ByLayer
62
256
370
-1
100
AcDbCircle
10
395
20
125
40
2
0
CIRCLE
5
159
100
AcDbEntity
8
Box
6
ByLayer
62
256
370
-1
100
AcDbCircle
10
395
20
135
40
2
0
CIRCLE
5
15A
100
AcDbEntity
8
Box
6
ByLayer
62
256
370
-1
100
AcDbCircle
10
135
20
125
40
2
0
CIRCLE
5
15B
100
AcDbEntity
8
Box
6
ByLayer
62
256
370
-1
100
AcDbCircle
10
125
20
125
40
2
0
LINE
5
15C
100
AcDbEntity
8
Box
6
ByLayer
62
256
370
-1
100
AcDbLine
10
120
20
390
11
130
21
390
0
LINE
5
15D
100
AcDbEntity
8
Box
6
ByLayer
62
256
370
-1
100
AcDbLine
10
130
20
390
11
130
21
130
0
LINE
5
15E
100
AcDbEntity
8
Box
6
ByLayer
62
256
370
-1
100
AcDbLine
10
120
20
120
11
120
21
390
0
CIRCLE
5
15F
100
AcDbEntity
8
Box
6
ByLayer
62
256
370
-1
100
AcDbCircle
10
125
20
385
40
2
0
LINE
5
160
100
AcDbEntity
8
BoxLid
6
ByLayer
62
256
370
-1
100
AcDbLine
10
120
20
400
11
120
21
390
0
LINE
5
161
100
AcDbEntity
8
BoxLid
6
ByLayer
62
256
370
-1
100
AcDbLine
10
120
20
390
11
395
21
390
0
DIMENSION
5
162
100
AcDbEntity
8
Dimensions
6
ByLayer
62
256
370
-1
100
AcDbDimension
2
*D9
10
90
20
120
30
0
11
88.125
21
260
31
0
70
32
71
5
72
0
3
Standard
53
0
210
0
220
0
230
1
100
AcDbAlignedDimension
13
100
23
400
33
0
14
100
24
120
34
0
50
90
100
AcDbRotatedDimension
0
DIMENSION
5
163
100
AcDbEntity
8
Dimensions
6
ByLayer
62
256
370
-1
100
AcDbDimension
2
*D10
10
400
20
90
30
0
11
260
21
91.875
31
0
70
32
71
5
72
0
3
Standard
53
0
210
0
220
0
230
1
100
AcDbAlignedDimension
13
120
23
100
33
0
14
400
24
100
34
0
100
AcDbRotatedDimension
0
CIRCLE
5
164
100
AcDbEntity
8
Spring
6
ByLayer
62
256
370
-1
100
AcDbCircle
10
349
20
380
40
3
0
DIMENSION
5
165
100
AcDbEntity
8
Dimensions
6
ByLayer
62
256
370
-1
100
AcDbDimension
2
*D11
10
440
20
355
30
0
11
438.125
21
242.5
31
0
70
32
71
5
72
0
3
Standard
53
0
210
0
220
0
230
1
100
AcDbAlignedDimension
13
420
23
130
33
0
14
420
24
355
34
0
50
90
100
AcDbRotatedDimension
0
LINE
5
166
100
AcDbEntity
8
StainlessGaurd
6
ByLayer
62
256
370
-1
100
AcDbLine
10
370
20
390
11
370
21
389
0
LINE
5
167
100
AcDbEntity
8
StainlessGaurd
6
ByLayer
62
256
370
-1
100
AcDbLine
10
370
20
401
11
370
21
400
0
LINE
5
168
100
AcDbEntity
8
StainlessGaurd
6
ByLayer
62
256
370
-1
100
AcDbLine
10
401
20
401
11
401
21
394
0
ARC
5
169
100
AcDbEntity
8
StainlessGaurd
6
ByLayer
62
256
370
-1
100
AcDbCircle
10
395
20
395
40
6
100
AcDbArc
50
270
51
350.537677792
0
ARC
5
16A
100
AcDbEntity
8
StainlessGaurd
6
ByLayer
62
256
370
-1
100
AcDbCircle
10
395
20
395
40
5
100
AcDbArc
50
270
51
348.690067526
0
LINE
5
16B
100
AcDbEntity
8
StainlessGaurd
6
ByLayer
62
256
370
-1
100
AcDbLine
10
400
20
394
11
400
21
400
0
LINE
5
16C
100
AcDbEntity
8
StainlessGaurd
6
ByLayer
62
256
370
-1
100
AcDbLine
10
370
20
401
11
401
21
401
0
LINE
5
16D
100
AcDbEntity
8
StainlessGaurd
6
ByLayer
62
256
370
-1
100
AcDbLine
10
400
20
400
11
370
21
400
0
LINE
5
16E
100
AcDbEntity
8
StainlessGaurd
6
ByLayer
62
256
370
-1
100
AcDbLine
10
395
20
389
11
370
21
389
0
LINE
5
16F
100
AcDbEntity
8
StainlessGaurd
6
ByLayer
62
256
370
-1
100
AcDbLine
10
370
20
390
11
395
21
390
0
ARC
5
170
100
AcDbEntity
8
BoxLid
6
ByLayer
62
256
370
-1
100
AcDbCircle
10
395
20
395
40
5
100
AcDbArc
50
270
51
348.690067526
0
LINE
5
171
100
AcDbEntity
8
BoxLid
6
ByLayer
62
256
370
-1
100
AcDbLine
10
400
20
394
11
400
21
400
0
LINE
5
172
100
AcDbEntity
8
BoxLid
6
ByLayer
62
256
370
-1
100
AcDbLine
10
400
20
400
11
120
21
400
0
CIRCLE
5
173
100
AcDbEntity
8
NylonRoller
6
ByLayer
62
256
370
-1
100
AcDbCircle
10
310
20
375
40
10
0
CIRCLE
5
174
100
AcDbEntity
8
NylonRoller
6
ByLayer
62
256
370
-1
100
AcDbCircle
10
310
20
375
40
3
0
ARC
5
175
100
AcDbEntity
8
Runner
6
ByLayer
62
256
370
-1
100
AcDbCircle
10
260
20
260
40
130
100
AcDbArc
50
180
51
0
0
ARC
5
176
100
AcDbEntity
8
Runner
6
ByLayer
62
256
370
-1
100
AcDbCircle
10
147.558675344
20
235.343112557
40
243.69193257
100
AcDbArc
50
5.80715670851
51
35.5091150633
0
ARC
5
177
100
AcDbEntity
8
Runner
6
ByLayer
62
256
370
-1
100
AcDbCircle
10
136
20
330
40
4
100
AcDbArc
50
0
51
270
0
LINE
5
178
100
AcDbEntity
8
Runner
6
ByLayer
62
256
370
-1
100
AcDbLine
10
140
20
330
11
130
21
250
0
ARC
5
179
100
AcDbEntity
8
EmeryRoll
6
ByLayer
62
256
370
-1
100
AcDbCircle
10
0
20
0
40
0
100
AcDbArc
50
0
51
0
0
ARC
5
17A
100
AcDbEntity
8
EmeryRoll
6
ByLayer
62
256
370
-1
100
AcDbCircle
10
260
20
260
40
110
100
AcDbArc
50
90
51
90
0
ARC
5
17B
100
AcDbEntity
8
EmeryRoll
6
ByLayer
62
256
370
-1
100
AcDbCircle
10
0
20
0
40
0
100
AcDbArc
50
0
51
0
0
ARC
5
17C
100
AcDbEntity
8
EmeryRoll
6
ByLayer
62
256
370
-1
100
AcDbCircle
10
310
20
375
40
11
100
AcDbArc
50
90
51
225
0
LINE
5
17D
100
AcDbEntity
8
EmeryRoll
6
ByLayer
62
256
370
-1
100
AcDbLine
10
302.22
20
367.22
11
327.7
21
346.7
0
LINE
5
17E
100
AcDbEntity
8
EmeryRoll
6
ByLayer
62
256
370
-1
100
AcDbLine
10
310
20
386
11
410
21
388.5
0
CIRCLE
5
17F
100
AcDbEntity
8
SpringSpacer
6
ByLayer
62
256
370
-1
100
AcDbCircle
10
395
20
368
40
2
0
CIRCLE
5
180
100
AcDbEntity
8
SpringSpacer
6
ByLayer
62
256
370
-1
100
AcDbCircle
10
395
20
368
40
4
0
LINE
5
181
100
AcDbEntity
8
CamRetainer
6
ByLayer
62
256
370
-1
100
AcDbLine
10
605
20
358
11
620
21
358
0
LINE
5
182
100
AcDbEntity
8
CamRetainer
6
ByLayer
62
256
370
-1
100
AcDbLine
10
605
20
388
11
605
21
358
0
LINE
5
183
100
AcDbEntity
8
CamRetainer
6
ByLayer
62
256
370
-1
100
AcDbLine
10
620
20
388
11
605
21
388
0
LINE
5
184
100
AcDbEntity
8
CamRetainer
6
ByLayer
62
256
370
-1
100
AcDbLine
10
620
20
358
11
620
21
388
0
LINE
5
185
100
AcDbEntity
8
SpringSpacer
6
ByLayer
62
256
370
-1
100
AcDbLine
10
605
20
375
11
600
21
375
0
LINE
5
186
100
AcDbEntity
8
SpringSpacer
6
ByLayer
62
256
370
-1
100
AcDbLine
10
600
20
375
11
600
21
371
0
LINE
5
187
100
AcDbEntity
8
SpringSpacer
6
ByLayer
62
256
370
-1
100
AcDbLine
10
600
20
371
11
605
21
371
0
LINE
5
188
100
AcDbEntity
8
SpringSpacer
6
ByLayer
62
256
370
-1
100
AcDbLine
10
605
20
371
11
605
21
375
0
LINE
5
189
100
AcDbEntity
8
SpringSpacer
6
ByLayer
62
256
370
-1
100
AcDbLine
10
600
20
369
11
605
21
369
0
LINE
5
18A
100
AcDbEntity
8
SpringSpacer
6
ByLayer
62
256
370
-1
100
AcDbLine
10
605
20
377
11
600
21
377
0
LINE
5
18B
100
AcDbEntity
8
SpringSpacer
6
ByLayer
62
256
370
-1
100
AcDbLine
10
605
20
377
11
605
21
369
0
LINE
5
18C
100
AcDbEntity
8
SpringSpacer
6
ByLayer
62
256
370
-1
100
AcDbLine
10
600
20
369
11
600
21
377
0
LINE
5
18D
100
AcDbEntity
8
Spring
6
ByLayer
62
256
370
-1
100
AcDbLine
10
593
20
373
11
593
21
370
0
LINE
5
18E
100
AcDbEntity
8
Spring
6
ByLayer
62
256
370
-1
100
AcDbLine
10
593
20
370
11
593
21
373
0
LINE
5
18F
100
AcDbEntity
8
Spring
6
ByLayer
62
256
370
-1
100
AcDbLine
10
593
20
373
11
601
21
373
0
LINE
5
190
100
AcDbEntity
8
Spring
6
ByLayer
62
256
370
-1
100
AcDbLine
10
602
20
368
11
603
21
378
0
LINE
5
191
100
AcDbEntity
8
Spring
6
ByLayer
62
256
370
-1
100
AcDbLine
10
603
20
378
11
603
21
368
0
LINE
5
192
100
AcDbEntity
8
Spring
6
ByLayer
62
256
370
-1
100
AcDbLine
10
603
20
368
11
604
21
378
0
LINE
5
193
100
AcDbEntity
8
Spring
6
ByLayer
62
256
370
-1
100
AcDbLine
10
604
20
378
11
604
21
368
0
LINE
5
194
100
AcDbEntity
8
Spring
6
ByLayer
62
256
370
-1
100
AcDbLine
10
604
20
368
11
611
21
368
0
LINE
5
195
100
AcDbEntity
8
Spring
6
ByLayer
62
256
370
-1
100
AcDbLine
10
601
20
373
11
602
21
378
0
LINE
5
196
100
AcDbEntity
8
Spring
6
ByLayer
62
256
370
-1
100
AcDbLine
10
602
20
378
11
602
21
368
0
LINE
5
197
100
AcDbEntity
8
SpacerWasher
6
ByLayer
62
256
370
-1
100
AcDbLine
10
625
20
363
11
625
21
383
0
LINE
5
198
100
AcDbEntity
8
SpacerWasher
6
ByLayer
62
256
370
-1
100
AcDbLine
10
621
20
363
11
625
21
363
0
LINE
5
199
100
AcDbEntity
8
SpacerWasher
6
ByLayer
62
256
370
-1
100
AcDbLine
10
625
20
383
11
621
21
383
0
LINE
5
19A
100
AcDbEntity
8
SpacerWasher
6
ByLayer
62
256
370
-1
100
AcDbLine
10
621
20
383
11
621
21
363
0
LINE
5
19B
100
AcDbEntity
8
SpacerWasher
6
ByLayer
62
256
370
-1
100
AcDbLine
10
621
20
375
11
625
21
375
0
LINE
5
19C
100
AcDbEntity
8
SpacerWasher
6
ByLayer
62
256
370
-1
100
AcDbLine
10
625
20
371
11
621
21
371
0
CIRCLE
5
19D
100
AcDbEntity
8
SpacerWasher
6
ByLayer
62
256
370
-1
100
AcDbCircle
10
395
20
368
40
2
0
CIRCLE
5
19E
100
AcDbEntity
8
SpacerWasher
6
ByLayer
62
256
370
-1
100
AcDbCircle
10
395
20
368
40
10
0
LINE
5
19F
100
AcDbEntity
8
CamRetainer
6
ByLayer
62
256
370
-1
100
AcDbLine
10
634
20
358
11
649
21
358
0
LINE
5
1A0
100
AcDbEntity
8
CamRetainer
6
ByLayer
62
256
370
-1
100
AcDbLine
10
634
20
388
11
634
21
358
0
LINE
5
1A1
100
AcDbEntity
8
CamRetainer
6
ByLayer
62
256
370
-1
100
AcDbLine
10
649
20
388
11
634
21
388
0
LINE
5
1A2
100
AcDbEntity
8
CamRetainer
6
ByLayer
62
256
370
-1
100
AcDbLine
10
649
20
358
11
649
21
388
0
LINE
5
1A3
100
AcDbEntity
8
SpringSpacer
6
ByLayer
62
256
370
-1
100
AcDbLine
10
634
20
375
11
629
21
375
0
LINE
5
1A4
100
AcDbEntity
8
SpringSpacer
6
ByLayer
62
256
370
-1
100
AcDbLine
10
629
20
375
11
629
21
371
0
LINE
5
1A5
100
AcDbEntity
8
SpringSpacer
6
ByLayer
62
256
370
-1
100
AcDbLine
10
629
20
371
11
634
21
371
0
LINE
5
1A6
100
AcDbEntity
8
SpringSpacer
6
ByLayer
62
256
370
-1
100
AcDbLine
10
634
20
371
11
634
21
375
0
LINE
5
1A7
100
AcDbEntity
8
SpringSpacer
6
ByLayer
62
256
370
-1
100
AcDbLine
10
629
20
369
11
634
21
369
0
LINE
5
1A8
100
AcDbEntity
8
SpringSpacer
6
ByLayer
62
256
370
-1
100
AcDbLine
10
634
20
377
11
629
21
377
0
LINE
5
1A9
100
AcDbEntity
8
SpringSpacer
6
ByLayer
62
256
370
-1
100
AcDbLine
10
634
20
377
11
634
21
369
0
LINE
5
1AA
100
AcDbEntity
8
SpringSpacer
6
ByLayer
62
256
370
-1
100
AcDbLine
10
629
20
369
11
629
21
377
0
LINE
5
1AB
100
AcDbEntity
8
Spring
6
ByLayer
62
256
370
-1
100
AcDbLine
10
631
20
368
11
632
21
378
0
LINE
5
1AC
100
AcDbEntity
8
Spring
6
ByLayer
62
256
370
-1
100
AcDbLine
10
632
20
378
11
632
21
368
0
LINE
5
1AD
100
AcDbEntity
8
Spring
6
ByLayer
62
256
370
-1
100
AcDbLine
10
632
20
368
11
633
21
378
0
LINE
5
1AE
100
AcDbEntity
8
Spring
6
ByLayer
62
256
370
-1
100
AcDbLine
10
633
20
378
11
633
21
368
0
LINE
5
1AF
100
AcDbEntity
8
Spring
6
ByLayer
62
256
370
-1
100
AcDbLine
10
633
20
368
11
640
21
368
0
LINE
5
1B0
100
AcDbEntity
8
Spring
6
ByLayer
62
256
370
-1
100
AcDbLine
10
630
20
373
11
631
21
378
0
LINE
5
1B1
100
AcDbEntity
8
Spring
6
ByLayer
62
256
370
-1
100
AcDbLine
10
631
20
378
11
631
21
368
0
LINE
5
1B2
100
AcDbEntity
8
SpacerWasher
6
ByLayer
62
256
370
-1
100
AcDbLine
10
654
20
363
11
654
21
383
0
LINE
5
1B3
100
AcDbEntity
8
SpacerWasher
6
ByLayer
62
256
370
-1
100
AcDbLine
10
650
20
363
11
654
21
363
0
LINE
5
1B4
100
AcDbEntity
8
SpacerWasher
6
ByLayer
62
256
370
-1
100
AcDbLine
10
654
20
383
11
650
21
383
0
LINE
5
1B5
100
AcDbEntity
8
SpacerWasher
6
ByLayer
62
256
370
-1
100
AcDbLine
10
650
20
383
11
650
21
363
0
LINE
5
1B6
100
AcDbEntity
8
SpacerWasher
6
ByLayer
62
256
370
-1
100
AcDbLine
10
650
20
375
11
654
21
375
0
LINE
5
1B7
100
AcDbEntity
8
SpacerWasher
6
ByLayer
62
256
370
-1
100
AcDbLine
10
654
20
371
11
650
21
371
0
LINE
5
1B8
100
AcDbEntity
8
CamRetainer
6
ByLayer
62
256
370
-1
100
AcDbLine
10
663
20
358
11
678
21
358
0
LINE
5
1B9
100
AcDbEntity
8
CamRetainer
6
ByLayer
62
256
370
-1
100
AcDbLine
10
663
20
388
11
663
21
358
0
LINE
5
1BA
100
AcDbEntity
8
CamRetainer
6
ByLayer
62
256
370
-1
100
AcDbLine
10
678
20
388
11
663
21
388
0
LINE
5
1BB
100
AcDbEntity
8
CamRetainer
6
ByLayer
62
256
370
-1
100
AcDbLine
10
678
20
358
11
678
21
388
0
LINE
5
1BC
100
AcDbEntity
8
SpringSpacer
6
ByLayer
62
256
370
-1
100
AcDbLine
10
663
20
375
11
658
21
375
0
LINE
5
1BD
100
AcDbEntity
8
SpringSpacer
6
ByLayer
62
256
370
-1
100
AcDbLine
10
658
20
375
11
658
21
371
0
LINE
5
1BE
100
AcDbEntity
8
SpringSpacer
6
ByLayer
62
256
370
-1
100
AcDbLine
10
658
20
371
11
663
21
371
0
LINE
5
1BF
100
AcDbEntity
8
SpringSpacer
6
ByLayer
62
256
370
-1
100
AcDbLine
10
663
20
371
11
663
21
375
0
LINE
5
1C0
100
AcDbEntity
8
SpringSpacer
6
ByLayer
62
256
370
-1
100
AcDbLine
10
658
20
369
11
663
21
369
0
LINE
5
1C1
100
AcDbEntity
8
SpringSpacer
6
ByLayer
62
256
370
-1
100
AcDbLine
10
663
20
377
11
658
21
377
0
LINE
5
1C2
100
AcDbEntity
8
SpringSpacer
6
ByLayer
62
256
370
-1
100
AcDbLine
10
663
20
377
11
663
21
369
0
LINE
5
1C3
100
AcDbEntity
8
SpringSpacer
6
ByLayer
62
256
370
-1
100
AcDbLine
10
658
20
369
11
658
21
377
0
LINE
5
1C4
100
AcDbEntity
8
Spring
6
ByLayer
62
256
370
-1
100
AcDbLine
10
660
20
368
11
661
21
378
0
LINE
5
1C5
100
AcDbEntity
8
Spring
6
ByLayer
62
256
370
-1
100
AcDbLine
10
661
20
378
11
661
21
368
0
LINE
5
1C6
100
AcDbEntity
8
Spring
6
ByLayer
62
256
370
-1
100
AcDbLine
10
661
20
368
11
662
21
378
0
LINE
5
1C7
100
AcDbEntity
8
Spring
6
ByLayer
62
256
370
-1
100
AcDbLine
10
662
20
378
11
662
21
368
0
LINE
5
1C8
100
AcDbEntity
8
Spring
6
ByLayer
62
256
370
-1
100
AcDbLine
10
662
20
368
11
669
21
368
0
LINE
5
1C9
100
AcDbEntity
8
Spring
6
ByLayer
62
256
370
-1
100
AcDbLine
10
659
20
373
11
660
21
378
0
LINE
5
1CA
100
AcDbEntity
8
Spring
6
ByLayer
62
256
370
-1
100
AcDbLine
10
660
20
378
11
660
21
368
0
LINE
5
1CB
100
AcDbEntity
8
SpacerWasher
6
ByLayer
62
256
370
-1
100
AcDbLine
10
683
20
363
11
683
21
383
0
LINE
5
1CC
100
AcDbEntity
8
SpacerWasher
6
ByLayer
62
256
370
-1
100
AcDbLine
10
679
20
363
11
683
21
363
0
LINE
5
1CD
100
AcDbEntity
8
SpacerWasher
6
ByLayer
62
256
370
-1
100
AcDbLine
10
683
20
383
11
679
21
383
0
LINE
5
1CE
100
AcDbEntity
8
SpacerWasher
6
ByLayer
62
256
370
-1
100
AcDbLine
10
679
20
383
11
679
21
363
0
LINE
5
1CF
100
AcDbEntity
8
SpacerWasher
6
ByLayer
62
256
370
-1
100
AcDbLine
10
679
20
375
11
683
21
375
0
LINE
5
1D0
100
AcDbEntity
8
SpacerWasher
6
ByLayer
62
256
370
-1
100
AcDbLine
10
683
20
371
11
679
21
371
0
LINE
5
1D1
100
AcDbEntity
8
Spring
6
ByLayer
62
256
370
-1
100
AcDbLine
10
653
20
373
11
653
21
370
0
LINE
5
1D2
100
AcDbEntity
8
Spring
6
ByLayer
62
256
370
-1
100
AcDbLine
10
653
20
370
11
653
21
373
0
LINE
5
1D3
100
AcDbEntity
8
Spring
6
ByLayer
62
256
370
-1
100
AcDbLine
10
653
20
373
11
659
21
373
0
LINE
5
1D4
100
AcDbEntity
8
Spring
6
ByLayer
62
256
370
-1
100
AcDbLine
10
624
20
373
11
624
21
370
0
LINE
5
1D5
100
AcDbEntity
8
Spring
6
ByLayer
62
256
370
-1
100
AcDbLine
10
624
20
370
11
624
21
373
0
LINE
5
1D6
100
AcDbEntity
8
Spring
6
ByLayer
62
256
370
-1
100
AcDbLine
10
624
20
373
11
630
21
373
0
LINE
5
1D7
100
AcDbEntity
8
4mmShaft
6
ByLayer
62
256
370
-1
100
AcDbLine
10
594
20
375
11
689
21
375
0
LINE
5
1D8
100
AcDbEntity
8
4mmShaft
6
ByLayer
62
256
370
-1
100
AcDbLine
10
689
20
375
11
689
21
371
0
LINE
5
1D9
100
AcDbEntity
8
4mmShaft
6
ByLayer
62
256
370
-1
100
AcDbLine
10
689
20
371
11
594
21
371
0
LINE
5
1DA
100
AcDbEntity
8
4mmShaft
6
ByLayer
62
256
370
-1
100
AcDbLine
10
594
20
371
11
594
21
375
0
LINE
5
1DB
100
AcDbEntity
8
4mmShaft
6
ByLayer
62
256
370
-1
100
AcDbLine
10
594
20
397
11
689
21
397
0
LINE
5
1DC
100
AcDbEntity
8
4mmShaft
6
ByLayer
62
256
370
-1
100
AcDbLine
10
689
20
397
11
689
21
393
0
LINE
5
1DD
100
AcDbEntity
8
4mmShaft
6
ByLayer
62
256
370
-1
100
AcDbLine
10
689
20
393
11
594
21
393
0
LINE
5
1DE
100
AcDbEntity
8
4mmShaft
6
ByLayer
62
256
370
-1
100
AcDbLine
10
594
20
393
11
594
21
397
0
CIRCLE
5
1DF
100
AcDbEntity
8
4mmShaft
6
ByLayer
62
256
370
-1
100
AcDbCircle
10
349
20
380
40
3
0
CIRCLE
5
1E0
100
AcDbEntity
8
4mmShaft
6
ByLayer
62
256
370
-1
100
AcDbCircle
10
395
20
395
40
2
0
CIRCLE
5
1E1
100
AcDbEntity
8
4mmShaft
6
ByLayer
62
256
370
-1
100
AcDbCircle
10
395
20
368
40
2
0
CIRCLE
5
1E2
100
AcDbEntity
8
6mmShaft
6
ByLayer
62
256
370
-1
100
AcDbCircle
10
310
20
375
40
3
0
DIMENSION
5
1E3
100
AcDbEntity
8
Dimensions
6
ByLayer
62
256
370
-1
100
AcDbDimension
2
*D12
10
395
20
420
30
0
11
397.5
21
421.875
31
0
70
32
71
5
3
Standard
53
0
210
0
220
0
230
1
100
AcDbAlignedDimension
13
400
23
410
33
0
14
395
24
410
34
0
100
AcDbRotatedDimension
0
DIMENSION
5
1E4
100
AcDbEntity
8
Dimensions
6
ByLayer
62
256
370
-1
100
AcDbDimension
2
*D13
10
349
20
420
30
0
11
372
21
421.875
31
0
70
32
71
5
3
Standard
53
0
210
0
220
0
230
1
100
AcDbAlignedDimension
13
395
23
410
33
0
14
349
24
410
34
0
100
AcDbRotatedDimension
0
DIMENSION
5
1E5
100
AcDbEntity
8
Dimensions
6
ByLayer
62
256
370
-1
100
AcDbDimension
2
*D14
10
320
20
420
30
0
11
329.5
21
421.875
31
0
70
32
71
5
3
Standard
53
0
210
0
220
0
230
1
100
AcDbAlignedDimension
13
349
23
420
33
0
14
310
24
410
34
0
100
AcDbRotatedDimension
0
DIMENSION
5
1E6
100
AcDbEntity
8
Dimensions
6
ByLayer
62
256
370
-1
100
AcDbDimension
2
*D15
10
470
20
395
30
0
11
468.125
21
397.5
31
0
70
32
71
5
3
Standard
53
0
210
0
220
0
230
1
100
AcDbAlignedDimension
13
460
23
400
33
0
14
460
24
395
34
0
50
90
100
AcDbRotatedDimension
0
DIMENSION
5
1E7
100
AcDbEntity
8
Dimensions
6
ByLayer
62
256
370
-1
100
AcDbDimension
2
*D16
10
470
20
390
30
0
11
468.125
21
392.5
31
0
70
32
71
5
3
Standard
53
0
210
0
220
0
230
1
100
AcDbAlignedDimension
13
460
23
395
33
0
14
460
24
390
34
0
50
90
100
AcDbRotatedDimension
0
DIMENSION
5
1E8
100
AcDbEntity
8
Dimensions
6
ByLayer
62
256
370
-1
100
AcDbDimension
2
*D17
10
470
20
368
30
0
11
468.125
21
379
31
0
70
32
71
5
3
Standard
53
0
210
0
220
0
230
1
100
AcDbAlignedDimension
13
460
23
390
33
0
14
460
24
368
34
0
50
90
100
AcDbRotatedDimension
0
DIMENSION
5
1E9
100
AcDbEntity
8
Dimensions
6
ByLayer
62
256
370
-1
100
AcDbDimension
2
*D18
10
470
20
355
30
0
11
468.125
21
361.5
31
0
70
32
71
5
3
Standard
53
0
210
0
220
0
230
1
100
AcDbAlignedDimension
13
460
23
368
33
0
14
460
24
355
34
0
50
90
100
AcDbRotatedDimension
0
DIMENSION
5
1EA
100
AcDbEntity
8
Dimensions
6
ByLayer
62
256
370
-1
100
AcDbDimension
2
*D19
10
470
20
350
30
0
11
468.125
21
352.5
31
0
70
32
71
5
3
Standard
53
0
210
0
220
0
230
1
100
AcDbAlignedDimension
13
460
23
355
33
0
14
460
24
350
34
0
50
90
100
AcDbRotatedDimension
0
DIMENSION
5
1EB
100
AcDbEntity
8
Dimensions
6
ByLayer
62
256
370
-1
100
AcDbDimension
2
*D20
10
470
20
120
30
0
11
468.125
21
235
31
0
70
32
71
5
3
Standard
53
0
210
0
220
0
230
1
100
AcDbAlignedDimension
13
460
23
350
33
0
14
460
24
120
34
0
50
90
100
AcDbRotatedDimension
0
ENDSEC
0
SECTION
2
OBJECTS
0
DICTIONARY
5
C
330
0
100
AcDbDictionary
281
1
3
ACAD_GROUP
350
D
0
DICTIONARY
5
D
330
C
100
AcDbDictionary
281
1
0
ENDSEC
0
EOF
