999
dxfrw 0.6.3
  0
SECTION
  2
HEADER
  9
$ACADVER
  1
AC1021
  9
$DWGCODEPAGE
  3
ANSI_1252
  9
$INSBASE
 10
0
 20
0
 30
0
  9
$EXTMIN
 10
100
 20
-551.25
 30
0
  9
$EXTMAX
 10
4000
 20
699.375
 30
0
  9
$LIMMIN
 10
0
 20
0
  9
$LIMMAX
 10
420
 20
297
  9
$ORTHOMODE
 70
    0
  9
$REGENMODE
 70
    1
  9
$FILLMODE
 70
    1
  9
$QTEXTMODE
 70
    0
  9
$MIRRTEXT
 70
    0
  9
$LTSCALE
 40
1
  9
$ATTMODE
 70
    0
  9
$TEXTSIZE
 40
2.5
  9
$TRACEWID
 40
15.68
  9
$TEXTSTYLE
  7
STANDARD
  9
$CLAYER
  8
09-AccessoriesStorage
  9
$CELTYPE
  6
BYLAYER
  9
$CECOLOR
 62
  256
  9
$CELTSCALE
 40
1
  9
$DISPSILH
 70
    0
  9
$DIMSCALE
 40
1
  9
$DIMASZ
 40
2.5
  9
$DIMEXO
 40
0.625
  9
$DIMDLI
 40
3.75
  9
$DIMRND
 40
0
  9
$DIMDLE
 40
0
  9
$DIMEXE
 40
1.25
  9
$DIMTP
 40
0
  9
$DIMTM
 40
0
  9
$DIMTXT
 40
5
  9
$DIMCEN
 40
2.5
  9
$DIMTSZ
 40
0
  9
$DIMTOL
 70
    0
  9
$DIMLIM
 70
    0
  9
$DIMTIH
 70
    0
  9
$DIMTOH
 70
    0
  9
$DIMSE1
 70
    0
  9
$DIMSE2
 70
    0
  9
$DIMTAD
 70
    1
  9
$DIMZIN
 70
    1
  9
$DIMBLK
  1

  9
$DIMASO
 70
    1
  9
$DIMSHO
 70
    1
  9
$DIMPOST
  1

  9
$DIMAPOST
  1

  9
$DIMALT
 70
    0
  9
$DIMALTD
 70
    3
  9
$DIMALTF
 40
0.03937
  9
$DIMLFAC
 40
1
  9
$DIMTOFL
 70
    1
  9
$DIMTVP
 40
0
  9
$DIMTIX
 70
    0
  9
$DIMSOXD
 70
    0
  9
$DIMSAH
 70
    0
  9
$DIMBLK1
  1

  9
$DIMBLK2
  1

  9
$DIMSTYLE
  2
Standard
  9
$DIMCLRD
 70
    0
  9
$DIMCLRE
 70
    0
  9
$DIMCLRT
 70
    0
  9
$DIMTFAC
 40
1
  9
$DIMGAP
 40
0.625
  9
$DIMJUST
 70
    0
  9
$DIMSD1
 70
    0
  9
$DIMSD2
 70
    0
  9
$DIMTOLJ
 70
    0
  9
$DIMTZIN
 70
    8
  9
$DIMALTZ
 70
    0
  9
$DIMALTTZ
 70
    0
  9
$DIMUPT
 70
    0
  9
$DIMDEC
 70
    1
  9
$DIMTDEC
 70
    2
  9
$DIMALTU
 70
    2
  9
$DIMALTTD
 70
    3
  9
$DIMTXSTY
  7
standard
  9
$DIMAUNIT
 70
    0
  9
$DIMADEC
 70
    1
  9
$DIMALTRND
 40
0
  9
$DIMAZIN
 70
    0
  9
$DIMDSEP
 70
    0
  9
$DIMATFIT
 70
    3
  9
$DIMFRAC
 70
    0
  9
$DIMLDRBLK
  1
STANDARD
  9
$DIMLUNIT
 70
    2
  9
$DIMLWD
 70
   -2
  9
$DIMLWE
 70
   -2
  9
$DIMTMOVE
 70
    0
  9
$DIMFXL
 40
1
  9
$DIMFXLON
 70
    0
  9
$DIMJOGANG
 40
0.7854
  9
$DIMTFILL
 70
    0
  9
$DIMTFILLCLR
 70
    0
  9
$DIMARCSYM
 70
    0
  9
$DIMLTYPE
  6

  9
$DIMLTEX1
  6

  9
$DIMLTEX2
  6

  9
$LUNITS
 70
    2
  9
$LUPREC
 70
    1
  9
$SKETCHINC
 40
1
  9
$FILLETRAD
 40
0
  9
$AUNITS
 70
    0
  9
$AUPREC
 70
    1
  9
$MENU
  1
.
  9
$ELEVATION
 40
0
  9
$PELEVATION
 40
0
  9
$THICKNESS
 40
0
  9
$LIMCHECK
 70
    0
  9
$CHAMFERA
 40
0
  9
$CHAMFERB
 40
0
  9
$CHAMFERC
 40
0
  9
$CHAMFERD
 40
0
  9
$SKPOLY
 70
    0
  9
$USRTIMER
 70
    1
  9
$ANGBASE
 50
0
  9
$ANGDIR
 70
    0
  9
$PDMODE
 70
   34
  9
$PDSIZE
 40
0
  9
$PLINEWID
 40
0
  9
$SPLFRAME
 70
    0
  9
$SPLINETYPE
 70
    2
  9
$SPLINESEGS
 70
    8
  9
$HANDSEED
  5
20000
  9
$SURFTAB1
 70
    6
  9
$SURFTAB2
 70
    6
  9
$SURFTYPE
 70
    6
  9
$SURFU
 70
    6
  9
$SURFV
 70
    6
  9
$UCSBASE
  2

  9
$UCSNAME
  2

  9
$UCSORG
 10
0
 20
0
 30
0
  9
$UCSXDIR
 10
1
 20
0
 30
0
  9
$UCSYDIR
 10
0
 20
1
 30
0
  9
$UCSORTHOREF
  2

  9
$UCSORTHOVIEW
 70
    0
  9
$UCSORGTOP
 10
0
 20
0
 30
0
  9
$UCSORGBOTTOM
 10
0
 20
0
 30
0
  9
$UCSORGLEFT
 10
0
 20
0
 30
0
  9
$UCSORGRIGHT
 10
0
 20
0
 30
0
  9
$UCSORGFRONT
 10
0
 20
0
 30
0
  9
$UCSORGBACK
 10
0
 20
0
 30
0
  9
$PUCSBASE
  2

  9
$PUCSNAME
  2

  9
$PUCSORG
 10
0
 20
0
 30
0
  9
$PUCSXDIR
 10
1
 20
0
 30
0
  9
$PUCSYDIR
 10
0
 20
1
 30
0
  9
$PUCSORTHOREF
  2

  9
$PUCSORTHOVIEW
 70
    0
  9
$PUCSORGTOP
 10
0
 20
0
 30
0
  9
$PUCSORGBOTTOM
 10
0
 20
0
 30
0
  9
$PUCSORGLEFT
 10
0
 20
0
 30
0
  9
$PUCSORGRIGHT
 10
0
 20
0
 30
0
  9
$PUCSORGFRONT
 10
0
 20
0
 30
0
  9
$PUCSORGBACK
 10
0
 20
0
 30
0
  9
$USERI1
 70
    0
  9
$USERI2
 70
    0
  9
$USERI3
 70
    0
  9
$USERI4
 70
    0
  9
$USERI5
 70
    0
  9
$USERR1
 40
0
  9
$USERR2
 40
0
  9
$USERR3
 40
0
  9
$USERR4
 40
0
  9
$USERR5
 40
0
  9
$WORLDVIEW
 70
    1
  9
$SHADEDGE
 70
    3
  9
$SHADEDIF
 70
   70
  9
$TILEMODE
 70
    1
  9
$MAXACTVP
 70
   64
  9
$PINSBASE
 10
-592.8870573870573
 20
-185.3505698005698
 30
0
  9
$PLIMCHECK
 70
    0
  9
$PEXTMIN
 10
0
 20
0
 30
0
  9
$PEXTMAX
 10
0
 20
0
 30
0
  9
$GRIDMODE
 70
    1
  9
$SNAPSTYLE
 70
    0
  9
$GRIDUNIT
 10
0
 20
0
  9
$PLIMMIN
 10
0
 20
0
  9
$PLIMMAX
 10
297
 20
210
  9
$UNITMODE
 70
    0
  9
$VISRETAIN
 70
    1
  9
$PLINEGEN
 70
    0
  9
$PSLTSCALE
 70
    1
  9
$TREEDEPTH
 70
 3020
  9
$CMLSTYLE
  2
Standard
  9
$CMLJUST
 70
    0
  9
$CMLSCALE
 40
20
  9
$PROXYGRAPHICS
 70
    1
  9
$MEASUREMENT
 70
    1
  9
$CELWEIGHT
370
   -1
  9
$ENDCAPS
280
    0
  9
$JOINSTYLE
280
    0
  9
$LWDISPLAY
290
    0
  9
$INSUNITS
 70
    4
  9
$HYPERLINKBASE
  1

  9
$STYLESHEET
  1

  9
$XEDIT
290
    1
  9
$CEPSNTYPE
380
    0
  9
$PSTYLEMODE
290
    1
  9
$EXTNAMES
290
    1
  9
$PSVPSCALE
 40
0.5
  9
$OLESTARTUP
290
    0
  9
$SORTENTS
280
  127
  9
$INDEXCTL
280
    0
  9
$HIDETEXT
280
    1
  9
$XCLIPFRAME
290
    0
  9
$HALOGAP
280
    0
  9
$OBSCOLOR
 70
  257
  9
$OBSLTYPE
280
    0
  9
$INTERSECTIONDISPLAY
280
    0
  9
$INTERSECTIONCOLOR
 70
  257
  9
$DIMASSOC
280
    1
  9
$PROJECTNAME
  1

  9
$CAMERADISPLAY
290
    0
  9
$LENSLENGTH
 40
50
  9
$CAMERAHEIGHT
 40
0
  9
$STEPSPERSEC
 40
2
  9
$STEPSIZE
 40
50
  9
$3DDWFPREC
 40
2
  9
$PSOLWIDTH
 40
5
  9
$PSOLHEIGHT
 40
80
  9
$LOFTANG1
 40
1.570796326794897
  9
$LOFTANG2
 40
1.570796326794897
  9
$LOFTMAG1
 40
0
  9
$LOFTMAG2
 40
0
  9
$LOFTPARAM
 70
    7
  9
$LOFTNORMALS
280
    1
  9
$LATITUDE
 40
1
  9
$LONGITUDE
 40
1
  9
$NORTHDIRECTION
 40
0
  9
$TIMEZONE
 70
-8000
  9
$LIGHTGLYPHDISPLAY
280
    1
  9
$TILEMODELIGHTSYNCH
280
    1
  9
$SOLIDHIST
280
    1
  9
$SHOWHIST
280
    1
  9
$DWFFRAME
280
    2
  9
$DGNFRAME
280
    0
  9
$REALWORLDSCALE
290
    1
  9
$INTERFERECOLOR
 62
    1
  9
$CSHADOW
280
    0
  9
$SHADOWPLANELOCATION
 40
0
  0
ENDSEC
  0
SECTION
  2
CLASSES
  0
ENDSEC
  0
SECTION
  2
TABLES
  0
TABLE
  2
VPORT
  5
8
330
0
100
AcDbSymbolTable
 70
    1
  0
VPORT
  5
31
330
2
100
AcDbSymbolTableRecord
100
AcDbViewportTableRecord
  2
*ACTIVE
 70
    0
 10
0
 20
0
 11
1
 21
1
 12
1919.192892131916
 22
478.9877530616394
 13
0
 23
0
 14
10
 24
10
 15
10
 25
10
 16
0
 26
0
 36
1
 17
0
 27
0
 37
0
 40
1124.932320219214
 41
2.207492795389049
 42
50
 43
0
 44
0
 50
0
 51
0
 71
    0
 72
  100
 73
    1
 74
    3
 75
    0
 76
    1
 77
    0
 78
    0
281
    0
 65
    1
110
0
120
0
130
0
111
1
121
0
131
0
112
0
122
1
132
0
 79
    0
146
0
348
10020
 60
    7
 61
    5
292
1
282
    1
141
0
142
0
 63
  250
421
3358443
  0
ENDTAB
  0
TABLE
  2
LTYPE
  5
5
330
0
100
AcDbSymbolTable
 70
    4
  0
LTYPE
  5
14
330
5
100
AcDbSymbolTableRecord
100
AcDbLinetypeTableRecord
  2
ByBlock
 70
    0
  3

 72
   65
 73
    0
 40
0
  0
LTYPE
  5
15
330
5
100
AcDbSymbolTableRecord
100
AcDbLinetypeTableRecord
  2
ByLayer
 70
    0
  3

 72
   65
 73
    0
 40
0
  0
LTYPE
  5
16
330
5
100
AcDbSymbolTableRecord
100
AcDbLinetypeTableRecord
  2
Continuous
 70
    0
  3
Solid line
 72
   65
 73
    0
 40
0
  0
LTYPE
  5
32
330
5
100
AcDbSymbolTableRecord
100
AcDbLinetypeTableRecord
  2
DOT
 70
    0
  3
Dot . . . . . . . . . . . . . . . . . . . . . .
 72
   65
 73
    2
 40
6.35
 49
0
 74
    0
 49
-6.35
 74
    0
  0
LTYPE
  5
33
330
5
100
AcDbSymbolTableRecord
100
AcDbLinetypeTableRecord
  2
DOTTINY
 70
    0
  3
Dot (.15x) .....................................
 72
   65
 73
    2
 40
0.9525
 49
0
 74
    0
 49
-0.9525
 74
    0
  0
LTYPE
  5
34
330
5
100
AcDbSymbolTableRecord
100
AcDbLinetypeTableRecord
  2
DOT2
 70
    0
  3
Dot (.5x) .....................................
 72
   65
 73
    2
 40
3.175
 49
0
 74
    0
 49
-3.175
 74
    0
  0
LTYPE
  5
35
330
5
100
AcDbSymbolTableRecord
100
AcDbLinetypeTableRecord
  2
DOTX2
 70
    0
  3
Dot (2x) .  .  .  .  .  .  .  .  .  .  .  .  .
 72
   65
 73
    2
 40
12.7
 49
0
 74
    0
 49
-12.7
 74
    0
  0
LTYPE
  5
36
330
5
100
AcDbSymbolTableRecord
100
AcDbLinetypeTableRecord
  2
DASHED
 70
    0
  3
Dashed _ _ _ _ _ _ _ _ _ _ _ _ _ _ _ _ _
 72
   65
 73
    2
 40
19.05
 49
12.7
 74
    0
 49
-6.35
 74
    0
  0
LTYPE
  5
37
330
5
100
AcDbSymbolTableRecord
100
AcDbLinetypeTableRecord
  2
DASHEDTINY
 70
    0
  3
Dashed (.15x) _ _ _ _ _ _ _ _ _ _ _ _ _ _ _ _ _
 72
   65
 73
    2
 40
2.8575
 49
1.905
 74
    0
 49
-0.9525
 74
    0
  0
LTYPE
  5
38
330
5
100
AcDbSymbolTableRecord
100
AcDbLinetypeTableRecord
  2
DASHED2
 70
    0
  3
Dashed (.5x) _ _ _ _ _ _ _ _ _ _ _ _ _ _ _ _ _
 72
   65
 73
    2
 40
9.524999999999999
 49
6.35
 74
    0
 49
-3.175
 74
    0
  0
LTYPE
  5
39
330
5
100
AcDbSymbolTableRecord
100
AcDbLinetypeTableRecord
  2
DASHEDX2
 70
    0
  3
Dashed (2x) ____  ____  ____  ____  ____  ___
 72
   65
 73
    2
 40
38.09999999999999
 49
25.4
 74
    0
 49
-12.7
 74
    0
  0
LTYPE
  5
3A
330
5
100
AcDbSymbolTableRecord
100
AcDbLinetypeTableRecord
  2
DASHDOT
 70
    0
  3
Dash dot __ . __ . __ . __ . __ . __ . __ . __
 72
   65
 73
    4
 40
25.4
 49
12.7
 74
    0
 49
-6.35
 74
    0
 49
0
 74
    0
 49
-6.35
 74
    0
  0
LTYPE
  5
3B
330
5
100
AcDbSymbolTableRecord
100
AcDbLinetypeTableRecord
  2
DASHDOTTINY
 70
    0
  3
Dash dot (.15x) _._._._._._._._._._._._._._._.
 72
   65
 73
    4
 40
3.81
 49
1.905
 74
    0
 49
-0.9525
 74
    0
 49
0
 74
    0
 49
-0.9525
 74
    0
  0
LTYPE
  5
3C
330
5
100
AcDbSymbolTableRecord
100
AcDbLinetypeTableRecord
  2
DASHDOT2
 70
    0
  3
Dash dot (.5x) _._._._._._._._._._._._._._._.
 72
   65
 73
    4
 40
12.7
 49
6.35
 74
    0
 49
-3.175
 74
    0
 49
0
 74
    0
 49
-3.175
 74
    0
  0
LTYPE
  5
3D
330
5
100
AcDbSymbolTableRecord
100
AcDbLinetypeTableRecord
  2
DASHDOTX2
 70
    0
  3
Dash dot (2x) ____  .  ____  .  ____  .  ___
 72
   65
 73
    4
 40
50.8
 49
25.4
 74
    0
 49
-12.7
 74
    0
 49
0
 74
    0
 49
-12.7
 74
    0
  0
LTYPE
  5
3E
330
5
100
AcDbSymbolTableRecord
100
AcDbLinetypeTableRecord
  2
DIVIDE
 70
    0
  3
Divide ____ . . ____ . . ____ . . ____ . . ____
 72
   65
 73
    6
 40
31.75
 49
12.7
 74
    0
 49
-6.35
 74
    0
 49
0
 74
    0
 49
-6.35
 74
    0
 49
0
 74
    0
 49
-6.35
 74
    0
  0
LTYPE
  5
3F
330
5
100
AcDbSymbolTableRecord
100
AcDbLinetypeTableRecord
  2
DIVIDETINY
 70
    0
  3
Divide (.15x) __..__..__..__..__..__..__..__.._
 72
   65
 73
    6
 40
4.7625
 49
1.905
 74
    0
 49
-0.9525
 74
    0
 49
0
 74
    0
 49
-0.9525
 74
    0
 49
0
 74
    0
 49
-0.9525
 74
    0
  0
LTYPE
  5
40
330
5
100
AcDbSymbolTableRecord
100
AcDbLinetypeTableRecord
  2
DIVIDE2
 70
    0
  3
Divide (.5x) __..__..__..__..__..__..__..__.._
 72
   65
 73
    6
 40
15.875
 49
6.35
 74
    0
 49
-3.175
 74
    0
 49
0
 74
    0
 49
-3.175
 74
    0
 49
0
 74
    0
 49
-3.175
 74
    0
  0
LTYPE
  5
41
330
5
100
AcDbSymbolTableRecord
100
AcDbLinetypeTableRecord
  2
DIVIDEX2
 70
    0
  3
Divide (2x) ________  .  .  ________  .  .  _
 72
   65
 73
    6
 40
63.5
 49
25.4
 74
    0
 49
-12.7
 74
    0
 49
0
 74
    0
 49
-12.7
 74
    0
 49
0
 74
    0
 49
-12.7
 74
    0
  0
LTYPE
  5
42
330
5
100
AcDbSymbolTableRecord
100
AcDbLinetypeTableRecord
  2
BORDER
 70
    0
  3
Border __ __ . __ __ . __ __ . __ __ . __ __ .
 72
   65
 73
    6
 40
44.45
 49
12.7
 74
    0
 49
-6.35
 74
    0
 49
12.7
 74
    0
 49
-6.35
 74
    0
 49
0
 74
    0
 49
-6.35
 74
    0
  0
LTYPE
  5
43
330
5
100
AcDbSymbolTableRecord
100
AcDbLinetypeTableRecord
  2
BORDERTINY
 70
    0
  3
Border (.15x) __.__.__.__.__.__.__.__.__.__.__.
 72
   65
 73
    6
 40
6.6675
 49
1.905
 74
    0
 49
-0.9525
 74
    0
 49
1.905
 74
    0
 49
-0.9525
 74
    0
 49
0
 74
    0
 49
-0.9525
 74
    0
  0
LTYPE
  5
44
330
5
100
AcDbSymbolTableRecord
100
AcDbLinetypeTableRecord
  2
BORDER2
 70
    0
  3
Border (.5x) __.__.__.__.__.__.__.__.__.__.__.
 72
   65
 73
    6
 40
22.225
 49
6.35
 74
    0
 49
-3.175
 74
    0
 49
6.35
 74
    0
 49
-3.175
 74
    0
 49
0
 74
    0
 49
-3.175
 74
    0
  0
LTYPE
  5
45
330
5
100
AcDbSymbolTableRecord
100
AcDbLinetypeTableRecord
  2
BORDERX2
 70
    0
  3
Border (2x) ____  ____  .  ____  ____  .  ___
 72
   65
 73
    6
 40
88.89999999999999
 49
25.4
 74
    0
 49
-12.7
 74
    0
 49
25.4
 74
    0
 49
-12.7
 74
    0
 49
0
 74
    0
 49
-12.7
 74
    0
  0
LTYPE
  5
46
330
5
100
AcDbSymbolTableRecord
100
AcDbLinetypeTableRecord
  2
CENTER
 70
    0
  3
Center ____ _ ____ _ ____ _ ____ _ ____ _ ____
 72
   65
 73
    4
 40
50.8
 49
31.75
 74
    0
 49
-6.35
 74
    0
 49
6.35
 74
    0
 49
-6.35
 74
    0
  0
LTYPE
  5
47
330
5
100
AcDbSymbolTableRecord
100
AcDbLinetypeTableRecord
  2
CENTERTINY
 70
    0
  3
Center (.15x) ___ _ ___ _ ___ _ ___ _ ___ _ ___
 72
   65
 73
    4
 40
7.619999999999999
 49
4.7625
 74
    0
 49
-0.9525
 74
    0
 49
0.9525
 74
    0
 49
-0.9525
 74
    0
  0
LTYPE
  5
48
330
5
100
AcDbSymbolTableRecord
100
AcDbLinetypeTableRecord
  2
CENTER2
 70
    0
  3
Center (.5x) ___ _ ___ _ ___ _ ___ _ ___ _ ___
 72
   65
 73
    4
 40
28.575
 49
19.05
 74
    0
 49
-3.175
 74
    0
 49
3.175
 74
    0
 49
-3.175
 74
    0
  0
LTYPE
  5
49
330
5
100
AcDbSymbolTableRecord
100
AcDbLinetypeTableRecord
  2
CENTERX2
 70
    0
  3
Center (2x) ________  __  ________  __  _____
 72
   65
 73
    4
 40
101.6
 49
63.5
 74
    0
 49
-12.7
 74
    0
 49
12.7
 74
    0
 49
-12.7
 74
    0
  0
ENDTAB
  0
TABLE
  2
LAYER
  5
2
330
0
100
AcDbSymbolTable
 70
    1
  0
LAYER
  5
10
330
2
100
AcDbSymbolTableRecord
100
AcDbLayerTableRecord
  2
0
 70
    4
 62
    7
  6
CONTINUOUS
370
    0
390
F
  0
LAYER
  5
4A
330
2
100
AcDbSymbolTableRecord
100
AcDbLayerTableRecord
  2
00-MachineBase
 70
    4
 62
   56
420
8421376
  6
CONTINUOUS
370
   25
390
F
  0
LAYER
  5
4B
330
2
100
AcDbSymbolTableRecord
100
AcDbLayerTableRecord
  2
01-BaseFrame
 70
    4
 62
    7
  6
CONTINUOUS
370
   25
390
F
  0
LAYER
  5
4C
330
2
100
AcDbSymbolTableRecord
100
AcDbLayerTableRecord
  2
02-CrossBraces
 70
    4
 62
    4
  6
CONTINUOUS
370
   25
390
F
  0
LAYER
  5
4D
330
2
100
AcDbSymbolTableRecord
100
AcDbLayerTableRecord
  2
03-Sleeves-M12 i/d
 70
    4
 62
    6
  6
CONTINUOUS
370
   25
390
F
  0
LAYER
  5
4E
330
2
100
AcDbSymbolTableRecord
100
AcDbLayerTableRecord
  2
04-Bolts-M10
 70
    4
 62
    2
  6
CONTINUOUS
370
   25
390
F
  0
LAYER
  5
4F
330
2
100
AcDbSymbolTableRecord
100
AcDbLayerTableRecord
  2
04-Bolts-M12
 70
    4
 62
    2
  6
CONTINUOUS
370
   25
390
F
  0
LAYER
  5
50
330
2
100
AcDbSymbolTableRecord
100
AcDbLayerTableRecord
  2
04-Bolts-M6
 70
    4
 62
    1
  6
CONTINUOUS
370
   25
390
F
  0
LAYER
  5
51
330
2
100
AcDbSymbolTableRecord
100
AcDbLayerTableRecord
  2
04-Spacers-M6
 70
    4
 62
  136
420
32896
  6
CONTINUOUS
370
   25
390
F
  0
LAYER
  5
52
330
2
100
AcDbSymbolTableRecord
100
AcDbLayerTableRecord
  2
05-Weldnuts
 70
    4
 62
    3
  6
CONTINUOUS
370
   25
390
F
  0
LAYER
  5
53
330
2
100
AcDbSymbolTableRecord
100
AcDbLayerTableRecord
  2
06-Castors-86kg
 70
    4
 62
    7
  6
CONTINUOUS
370
   25
390
F
  0
LAYER
  5
54
330
2
100
AcDbSymbolTableRecord
100
AcDbLayerTableRecord
  2
07-PlasticCaps
 70
    4
 62
   16
420
8388608
  6
CONTINUOUS
370
   25
390
F
  0
LAYER
  5
55
330
2
100
AcDbSymbolTableRecord
100
AcDbLayerTableRecord
  2
08-CatchTray
 70
    4
 62
   96
420
32768
  6
CONTINUOUS
370
   25
390
F
  0
LAYER
  5
56
330
2
100
AcDbSymbolTableRecord
100
AcDbLayerTableRecord
  2
09-AccessoriesStorage
 70
    0
 62
  216
420
8388736
  6
CONTINUOUS
370
   25
390
F
  0
LAYER
  5
57
330
2
100
AcDbSymbolTableRecord
100
AcDbLayerTableRecord
  2
Cuts
 70
    4
 62
    7
  6
CONTINUOUS
370
   25
390
F
  0
LAYER
  5
58
330
2
100
AcDbSymbolTableRecord
100
AcDbLayerTableRecord
  2
Dims
 70
    4
 62
    7
  6
CONTINUOUS
370
   25
390
F
  0
LAYER
  5
59
330
2
100
AcDbSymbolTableRecord
100
AcDbLayerTableRecord
  2
Shelf
 70
    4
 62
    7
  6
CONTINUOUS
370
   25
390
F
  0
ENDTAB
  0
TABLE
  2
STYLE
  5
3
330
0
100
AcDbSymbolTable
 70
    3
  0
STYLE
  5
5A
330
2
100
AcDbSymbolTableRecord
100
AcDbTextStyleTableRecord
  2
Standard
 70
    0
 40
0
 41
1
 50
0
 71
    0
 42
1
  3
txt
  4

  0
ENDTAB
  0
TABLE
  2
VIEW
  5
6
330
0
100
AcDbSymbolTable
 70
    0
  0
ENDTAB
  0
TABLE
  2
UCS
  5
7
330
0
100
AcDbSymbolTable
 70
    0
  0
ENDTAB
  0
TABLE
  2
APPID
  5
9
330
0
100
AcDbSymbolTable
 70
    1
  0
APPID
  5
12
330
9
100
AcDbSymbolTableRecord
100
AcDbRegAppTableRecord
  2
ACAD
 70
    0
  0
APPID
  5
5B
330
9
100
AcDbSymbolTableRecord
100
AcDbRegAppTableRecord
  2
LibreCad
 70
    0
  0
ENDTAB
  0
TABLE
  2
DIMSTYLE
  5
A
330
0
100
AcDbSymbolTable
 70
    1
100
AcDbDimStyleTable
 71
    1
  0
DIMSTYLE
105
5C
330
A
100
AcDbSymbolTableRecord
100
AcDbDimStyleTableRecord
  2
Standard
 70
    0
 40
1
 41
2.5
 42
0.625
 43
0.38
 44
1.25
 45
0
 46
0
 47
0
 48
0
 49
1
140
5
141
0.09
142
0
143
25.4
144
1
145
0
146
1
147
0.625
148
0
 71
    0
 72
    0
 73
    0
 74
    1
 75
    0
 76
    0
 77
    0
 78
    1
 79
    0
170
    0
171
    2
172
    0
173
    0
174
    0
175
    0
176
    0
177
    0
178
    0
179
    1
271
    1
272
    4
273
    2
274
    2
275
    0
276
    0
277
    2
278
    0
279
    0
280
    0
281
    0
282
    0
283
    1
284
    0
285
    0
286
    0
288
    0
289
    3
340
standard
341

371
   -2
372
   -2
  0
ENDTAB
  0
TABLE
  2
BLOCK_RECORD
  5
1
330
0
100
AcDbSymbolTable
 70
    2
  0
BLOCK_RECORD
  5
1F
330
1
100
AcDbSymbolTableRecord
100
AcDbBlockTableRecord
  2
*Model_Space
 70
    0
280
    1
281
    0
  0
BLOCK_RECORD
  5
1E
330
1
100
AcDbSymbolTableRecord
100
AcDbBlockTableRecord
  2
*Paper_Space
 70
    0
280
    1
281
    0
  0
BLOCK_RECORD
  5
5D
330
1
100
AcDbSymbolTableRecord
100
AcDbBlockTableRecord
  2
*D30
 70
    0
280
    1
281
    0
  0
BLOCK_RECORD
  5
60
330
1
100
AcDbSymbolTableRecord
100
AcDbBlockTableRecord
  2
*D42
 70
    0
280
    1
281
    0
  0
BLOCK_RECORD
  5
63
330
1
100
AcDbSymbolTableRecord
100
AcDbBlockTableRecord
  2
*D21
 70
    0
280
    1
281
    0
  0
BLOCK_RECORD
  5
66
330
1
100
AcDbSymbolTableRecord
100
AcDbBlockTableRecord
  2
*D38
 70
    0
280
    1
281
    0
  0
BLOCK_RECORD
  5
69
330
1
100
AcDbSymbolTableRecord
100
AcDbBlockTableRecord
  2
*D28
 70
    0
280
    1
281
    0
  0
BLOCK_RECORD
  5
6C
330
1
100
AcDbSymbolTableRecord
100
AcDbBlockTableRecord
  2
*D40
 70
    0
280
    1
281
    0
  0
BLOCK_RECORD
  5
6F
330
1
100
AcDbSymbolTableRecord
100
AcDbBlockTableRecord
  2
*D34
 70
    0
280
    1
281
    0
  0
BLOCK_RECORD
  5
72
330
1
100
AcDbSymbolTableRecord
100
AcDbBlockTableRecord
  2
*D41
 70
    0
280
    1
281
    0
  0
BLOCK_RECORD
  5
75
330
1
100
AcDbSymbolTableRecord
100
AcDbBlockTableRecord
  2
*D14
 70
    0
280
    1
281
    0
  0
BLOCK_RECORD
  5
78
330
1
100
AcDbSymbolTableRecord
100
AcDbBlockTableRecord
  2
*D12
 70
    0
280
    1
281
    0
  0
BLOCK_RECORD
  5
7B
330
1
100
AcDbSymbolTableRecord
100
AcDbBlockTableRecord
  2
*D10
 70
    0
280
    1
281
    0
  0
BLOCK_RECORD
  5
7E
330
1
100
AcDbSymbolTableRecord
100
AcDbBlockTableRecord
  2
*D15
 70
    0
280
    1
281
    0
  0
BLOCK_RECORD
  5
81
330
1
100
AcDbSymbolTableRecord
100
AcDbBlockTableRecord
  2
*D24
 70
    0
280
    1
281
    0
  0
BLOCK_RECORD
  5
84
330
1
100
AcDbSymbolTableRecord
100
AcDbBlockTableRecord
  2
*D31
 70
    0
280
    1
281
    0
  0
BLOCK_RECORD
  5
87
330
1
100
AcDbSymbolTableRecord
100
AcDbBlockTableRecord
  2
*D9
 70
    0
280
    1
281
    0
  0
BLOCK_RECORD
  5
8A
330
1
100
AcDbSymbolTableRecord
100
AcDbBlockTableRecord
  2
*D26
 70
    0
280
    1
281
    0
  0
BLOCK_RECORD
  5
8D
330
1
100
AcDbSymbolTableRecord
100
AcDbBlockTableRecord
  2
*D35
 70
    0
280
    1
281
    0
  0
BLOCK_RECORD
  5
90
330
1
100
AcDbSymbolTableRecord
100
AcDbBlockTableRecord
  2
*D20
 70
    0
280
    1
281
    0
  0
BLOCK_RECORD
  5
93
330
1
100
AcDbSymbolTableRecord
100
AcDbBlockTableRecord
  2
*D27
 70
    0
280
    1
281
    0
  0
BLOCK_RECORD
  5
96
330
1
100
AcDbSymbolTableRecord
100
AcDbBlockTableRecord
  2
*D5
 70
    0
280
    1
281
    0
  0
BLOCK_RECORD
  5
99
330
1
100
AcDbSymbolTableRecord
100
AcDbBlockTableRecord
  2
*D6
 70
    0
280
    1
281
    0
  0
BLOCK_RECORD
  5
9C
330
1
100
AcDbSymbolTableRecord
100
AcDbBlockTableRecord
  2
*D13
 70
    0
280
    1
281
    0
  0
BLOCK_RECORD
  5
9F
330
1
100
AcDbSymbolTableRecord
100
AcDbBlockTableRecord
  2
*D45
 70
    0
280
    1
281
    0
  0
BLOCK_RECORD
  5
A2
330
1
100
AcDbSymbolTableRecord
100
AcDbBlockTableRecord
  2
*D17
 70
    0
280
    1
281
    0
  0
BLOCK_RECORD
  5
A5
330
1
100
AcDbSymbolTableRecord
100
AcDbBlockTableRecord
  2
*D19
 70
    0
280
    1
281
    0
  0
BLOCK_RECORD
  5
A8
330
1
100
AcDbSymbolTableRecord
100
AcDbBlockTableRecord
  2
*D33
 70
    0
280
    1
281
    0
  0
BLOCK_RECORD
  5
AB
330
1
100
AcDbSymbolTableRecord
100
AcDbBlockTableRecord
  2
*D39
 70
    0
280
    1
281
    0
  0
BLOCK_RECORD
  5
AE
330
1
100
AcDbSymbolTableRecord
100
AcDbBlockTableRecord
  2
*D11
 70
    0
280
    1
281
    0
  0
BLOCK_RECORD
  5
B1
330
1
100
AcDbSymbolTableRecord
100
AcDbBlockTableRecord
  2
*D1
 70
    0
280
    1
281
    0
  0
BLOCK_RECORD
  5
B4
330
1
100
AcDbSymbolTableRecord
100
AcDbBlockTableRecord
  2
*D25
 70
    0
280
    1
281
    0
  0
BLOCK_RECORD
  5
B7
330
1
100
AcDbSymbolTableRecord
100
AcDbBlockTableRecord
  2
*D8
 70
    0
280
    1
281
    0
  0
BLOCK_RECORD
  5
BA
330
1
100
AcDbSymbolTableRecord
100
AcDbBlockTableRecord
  2
*D46
 70
    0
280
    1
281
    0
  0
BLOCK_RECORD
  5
BD
330
1
100
AcDbSymbolTableRecord
100
AcDbBlockTableRecord
  2
*D29
 70
    0
280
    1
281
    0
  0
BLOCK_RECORD
  5
C0
330
1
100
AcDbSymbolTableRecord
100
AcDbBlockTableRecord
  2
*D22
 70
    0
280
    1
281
    0
  0
BLOCK_RECORD
  5
C3
330
1
100
AcDbSymbolTableRecord
100
AcDbBlockTableRecord
  2
*D23
 70
    0
280
    1
281
    0
  0
BLOCK_RECORD
  5
C6
330
1
100
AcDbSymbolTableRecord
100
AcDbBlockTableRecord
  2
*D3
 70
    0
280
    1
281
    0
  0
BLOCK_RECORD
  5
C9
330
1
100
AcDbSymbolTableRecord
100
AcDbBlockTableRecord
  2
*D7
 70
    0
280
    1
281
    0
  0
BLOCK_RECORD
  5
CC
330
1
100
AcDbSymbolTableRecord
100
AcDbBlockTableRecord
  2
*D4
 70
    0
280
    1
281
    0
  0
BLOCK_RECORD
  5
CF
330
1
100
AcDbSymbolTableRecord
100
AcDbBlockTableRecord
  2
*D32
 70
    0
280
    1
281
    0
  0
BLOCK_RECORD
  5
D2
330
1
100
AcDbSymbolTableRecord
100
AcDbBlockTableRecord
  2
*D16
 70
    0
280
    1
281
    0
  0
BLOCK_RECORD
  5
D5
330
1
100
AcDbSymbolTableRecord
100
AcDbBlockTableRecord
  2
*D2
 70
    0
280
    1
281
    0
  0
BLOCK_RECORD
  5
D8
330
1
100
AcDbSymbolTableRecord
100
AcDbBlockTableRecord
  2
*D36
 70
    0
280
    1
281
    0
  0
BLOCK_RECORD
  5
DB
330
1
100
AcDbSymbolTableRecord
100
AcDbBlockTableRecord
  2
*D18
 70
    0
280
    1
281
    0
  0
BLOCK_RECORD
  5
DE
330
1
100
AcDbSymbolTableRecord
100
AcDbBlockTableRecord
  2
*D37
 70
    0
280
    1
281
    0
  0
BLOCK_RECORD
  5
E1
330
1
100
AcDbSymbolTableRecord
100
AcDbBlockTableRecord
  2
*D43
 70
    0
280
    1
281
    0
  0
BLOCK_RECORD
  5
E4
330
1
100
AcDbSymbolTableRecord
100
AcDbBlockTableRecord
  2
*D44
 70
    0
280
    1
281
    0
  0
ENDTAB
  0
ENDSEC
  0
SECTION
  2
BLOCKS
  0
BLOCK
  5
20
330
1F
100
AcDbEntity
  8
0
100
AcDbBlockBegin
  2
*Model_Space
 70
    0
 10
0
 20
0
 30
0
  3
*Model_Space
  1

  0
ENDBLK
  5
21
330
1F
100
AcDbEntity
  8
0
100
AcDbBlockEnd
  0
BLOCK
  5
1C
330
1B
100
AcDbEntity
  8
0
100
AcDbBlockBegin
  2
*Paper_Space
 70
    0
 10
0
 20
0
 30
0
  3
*Paper_Space
  1

  0
ENDBLK
  5
1D
330
1F
100
AcDbEntity
  8
0
100
AcDbBlockEnd
  0
BLOCK
  5
5E
330
5D
100
AcDbEntity
  8
0
100
AcDbBlockBegin
  2
*D30
 70
    1
 10
0
 20
0
  3
*D30
  1

  0
LINE
  5
E7
100
AcDbEntity
  8
Cuts
  6
ByBlock
 62
    0
370
   -2
100
AcDbLine
 10
3574
 20
-100
 11
3982
 21
-100
  0
SOLID
  5
E8
100
AcDbEntity
  8
Cuts
  6
ByBlock
 62
    0
370
   -2
100
AcDbTrace
 10
3574
 20
-100
 30
0
 11
3576.5
 21
-99.58371534222717
 31
0
 12
3576.5
 22
-100.4162846577728
 32
0
 13
3576.5
 23
-100.4162846577728
 33
0
  0
SOLID
  5
E9
100
AcDbEntity
  8
Cuts
  6
ByBlock
 62
    0
370
   -2
100
AcDbTrace
 10
3982
 20
-100
 30
0
 11
3979.5
 21
-100.4162846577728
 31
0
 12
3979.5
 22
-99.58371534222717
 32
0
 13
3979.5
 23
-99.58371534222717
 33
0
  0
MTEXT
  5
EA
100
AcDbEntity
  8
Cuts
  6
CONTINUOUS
 62
    0
370
   -2
100
AcDbMText
 10
3778
 20
-96.875
 30
0
 40
5
 41
16.11111111111111
 71
    5
 72
    1
  1
408.0
  7
standard
210
0
220
0
230
1
 50
0
 73
    2
 44
1
  0
LINE
  5
EB
100
AcDbEntity
  8
Cuts
  6
ByBlock
 62
    0
370
   -2
100
AcDbLine
 10
3574
 20
-149.375
 11
3574
 21
-98.75
  0
LINE
  5
EC
100
AcDbEntity
  8
Cuts
  6
ByBlock
 62
    0
370
   -2
100
AcDbLine
 10
3982
 20
-149.375
 11
3982
 21
-98.75
  0
ENDBLK
  5
5F
330
5D
100
AcDbEntity
  8
0
100
AcDbBlockEnd
  0
BLOCK
  5
61
330
60
100
AcDbEntity
  8
0
100
AcDbBlockBegin
  2
*D42
 70
    1
 10
0
 20
0
  3
*D42
  1

  0
LINE
  5
ED
100
AcDbEntity
  8
Dims
  6
ByBlock
 62
    0
370
   -2
100
AcDbLine
 10
1750
 20
91
 11
1781
 21
91
  0
SOLID
  5
EE
100
AcDbEntity
  8
Dims
  6
ByBlock
 62
    0
370
   -2
100
AcDbTrace
 10
1750
 20
91
 30
0
 11
1752.5
 21
91.41628465777283
 31
0
 12
1752.5
 22
90.58371534222717
 32
0
 13
1752.5
 23
90.58371534222717
 33
0
  0
SOLID
  5
EF
100
AcDbEntity
  8
Dims
  6
ByBlock
 62
    0
370
   -2
100
AcDbTrace
 10
1781
 20
91
 30
0
 11
1778.5
 21
90.58371534222717
 31
0
 12
1778.5
 22
91.41628465777283
 32
0
 13
1778.5
 23
91.41628465777283
 33
0
  0
MTEXT
  5
F0
100
AcDbEntity
  8
Dims
  6
CONTINUOUS
 62
    0
370
   -2
100
AcDbMText
 10
1765.5
 20
94.125
 30
0
 40
5
 41
10.55555555555587
 71
    5
 72
    1
  1
31.0
  7
standard
210
0
220
0
230
1
 50
0
 73
    2
 44
1
  0
LINE
  5
F1
100
AcDbEntity
  8
Dims
  6
ByBlock
 62
    0
370
   -2
100
AcDbLine
 10
1750
 20
90.625
 11
1750
 21
92.25
  0
LINE
  5
F2
100
AcDbEntity
  8
Dims
  6
ByBlock
 62
    0
370
   -2
100
AcDbLine
 10
1781
 20
90.625
 11
1781
 21
92.25
  0
ENDBLK
  5
62
330
60
100
AcDbEntity
  8
0
100
AcDbBlockEnd
  0
BLOCK
  5
64
330
63
100
AcDbEntity
  8
0
100
AcDbBlockBegin
  2
*D21
 70
    1
 10
0
 20
0
  3
*D21
  1

  0
LINE
  5
F3
100
AcDbEntity
  8
Dims
  6
ByBlock
 62
    0
370
   -2
100
AcDbLine
 10
1500
 20
80
 11
1200
 21
80
  0
SOLID
  5
F4
100
AcDbEntity
  8
Dims
  6
ByBlock
 62
    0
370
   -2
100
AcDbTrace
 10
1500
 20
80
 30
0
 11
1497.5
 21
79.58371534222717
 31
0
 12
1497.5
 22
80.41628465777283
 32
0
 13
1497.5
 23
80.41628465777283
 33
0
  0
SOLID
  5
F5
100
AcDbEntity
  8
Dims
  6
ByBlock
 62
    0
370
   -2
100
AcDbTrace
 10
1200
 20
80
 30
0
 11
1202.5
 21
80.41628465777283
 31
0
 12
1202.5
 22
79.58371534222717
 32
0
 13
1202.5
 23
79.58371534222717
 33
0
  0
MTEXT
  5
F6
100
AcDbEntity
  8
Dims
  6
CONTINUOUS
 62
    0
370
   -2
100
AcDbMText
 10
1350
 20
83.125
 30
0
 40
5
 41
15.55555555555587
 71
    5
 72
    1
  1
300.0
  7
standard
210
0
220
0
230
1
 50
360
 73
    2
 44
1
  0
LINE
  5
F7
100
AcDbEntity
  8
Dims
  6
ByBlock
 62
    0
370
   -2
100
AcDbLine
 10
1500
 20
89.375
 11
1500
 21
78.75
  0
LINE
  5
F8
100
AcDbEntity
  8
Dims
  6
ByBlock
 62
    0
370
   -2
100
AcDbLine
 10
1200
 20
89.375
 11
1200
 21
78.75
  0
ENDBLK
  5
65
330
63
100
AcDbEntity
  8
0
100
AcDbBlockEnd
  0
BLOCK
  5
67
330
66
100
AcDbEntity
  8
0
100
AcDbBlockBegin
  2
*D38
 70
    1
 10
0
 20
0
  3
*D38
  1

  0
LINE
  5
F9
100
AcDbEntity
  8
Dims
  6
ByBlock
 62
    0
370
   -2
100
AcDbLine
 10
2158
 20
80
 11
2886
 21
80
  0
SOLID
  5
FA
100
AcDbEntity
  8
Dims
  6
ByBlock
 62
    0
370
   -2
100
AcDbTrace
 10
2158
 20
80
 30
0
 11
2160.5
 21
80.41628465777283
 31
0
 12
2160.5
 22
79.58371534222717
 32
0
 13
2160.5
 23
79.58371534222717
 33
0
  0
SOLID
  5
FB
100
AcDbEntity
  8
Dims
  6
ByBlock
 62
    0
370
   -2
100
AcDbTrace
 10
2886
 20
80
 30
0
 11
2883.5
 21
79.58371534222717
 31
0
 12
2883.5
 22
80.41628465777283
 32
0
 13
2883.5
 23
80.41628465777283
 33
0
  0
MTEXT
  5
FC
100
AcDbEntity
  8
Dims
  6
CONTINUOUS
 62
    0
370
   -2
100
AcDbMText
 10
2522
 20
83.125
 30
0
 40
5
 41
15.55555555555556
 71
    5
 72
    1
  1
728.0
  7
standard
210
0
220
0
230
1
 50
0
 73
    2
 44
1
  0
LINE
  5
FD
100
AcDbEntity
  8
Dims
  6
ByBlock
 62
    0
370
   -2
100
AcDbLine
 10
2158
 20
89.375
 11
2158
 21
78.75
  0
LINE
  5
FE
100
AcDbEntity
  8
Dims
  6
ByBlock
 62
    0
370
   -2
100
AcDbLine
 10
2886
 20
89.375
 11
2886
 21
78.75
  0
ENDBLK
  5
68
330
66
100
AcDbEntity
  8
0
100
AcDbBlockEnd
  0
BLOCK
  5
6A
330
69
100
AcDbEntity
  8
0
100
AcDbBlockBegin
  2
*D28
 70
    1
 10
0
 20
0
  3
*D28
  1

  0
LINE
  5
FF
100
AcDbEntity
  8
Cuts
  6
ByBlock
 62
    0
370
   -2
100
AcDbLine
 10
3161
 20
-100
 11
3569
 21
-100
  0
SOLID
  5
100
100
AcDbEntity
  8
Cuts
  6
ByBlock
 62
    0
370
   -2
100
AcDbTrace
 10
3161
 20
-100
 30
0
 11
3163.5
 21
-99.58371534222717
 31
0
 12
3163.5
 22
-100.4162846577728
 32
0
 13
3163.5
 23
-100.4162846577728
 33
0
  0
SOLID
  5
101
100
AcDbEntity
  8
Cuts
  6
ByBlock
 62
    0
370
   -2
100
AcDbTrace
 10
3569
 20
-100
 30
0
 11
3566.5
 21
-100.4162846577728
 31
0
 12
3566.5
 22
-99.58371534222717
 32
0
 13
3566.5
 23
-99.58371534222717
 33
0
  0
MTEXT
  5
102
100
AcDbEntity
  8
Cuts
  6
CONTINUOUS
 62
    0
370
   -2
100
AcDbMText
 10
3365
 20
-96.875
 30
0
 40
5
 41
16.11111111111111
 71
    5
 72
    1
  1
408.0
  7
standard
210
0
220
0
230
1
 50
0
 73
    2
 44
1
  0
LINE
  5
103
100
AcDbEntity
  8
Cuts
  6
ByBlock
 62
    0
370
   -2
100
AcDbLine
 10
3161
 20
-149.375
 11
3161
 21
-98.75
  0
LINE
  5
104
100
AcDbEntity
  8
Cuts
  6
ByBlock
 62
    0
370
   -2
100
AcDbLine
 10
3569
 20
-149.375
 11
3569
 21
-98.75
  0
ENDBLK
  5
6B
330
69
100
AcDbEntity
  8
0
100
AcDbBlockEnd
  0
BLOCK
  5
6D
330
6C
100
AcDbEntity
  8
0
100
AcDbBlockBegin
  2
*D40
 70
    1
 10
0
 20
0
  3
*D40
  1

  0
LINE
  5
105
100
AcDbEntity
  8
Dims
  6
ByBlock
 62
    0
370
   -2
100
AcDbLine
 10
2147
 20
80
 11
2163
 21
80
  0
SOLID
  5
106
100
AcDbEntity
  8
Dims
  6
ByBlock
 62
    0
370
   -2
100
AcDbTrace
 10
2152
 20
80
 30
0
 11
2149.5
 21
79.58371534222717
 31
0
 12
2149.5
 22
80.41628465777283
 32
0
 13
2149.5
 23
80.41628465777283
 33
0
  0
SOLID
  5
107
100
AcDbEntity
  8
Dims
  6
ByBlock
 62
    0
370
   -2
100
AcDbTrace
 10
2158
 20
80
 30
0
 11
2160.5
 21
80.41628465777283
 31
0
 12
2160.5
 22
79.58371534222717
 32
0
 13
2160.5
 23
79.58371534222717
 33
0
  0
MTEXT
  5
108
100
AcDbEntity
  8
Dims
  6
CONTINUOUS
 62
    0
370
   -2
100
AcDbMText
 10
2162.513888888889
 20
83.125
 30
0
 40
5
 41
7.777777777778088
 71
    5
 72
    1
  1
6.0
  7
standard
210
0
220
0
230
1
 50
0
 73
    2
 44
1
  0
LINE
  5
109
100
AcDbEntity
  8
Dims
  6
ByBlock
 62
    0
370
   -2
100
AcDbLine
 10
2152
 20
89.375
 11
2152
 21
78.75
  0
LINE
  5
10A
100
AcDbEntity
  8
Dims
  6
ByBlock
 62
    0
370
   -2
100
AcDbLine
 10
2158
 20
89.375
 11
2158
 21
78.75
  0
ENDBLK
  5
6E
330
6C
100
AcDbEntity
  8
0
100
AcDbBlockEnd
  0
BLOCK
  5
70
330
6F
100
AcDbEntity
  8
0
100
AcDbBlockBegin
  2
*D34
 70
    1
 10
0
 20
0
  3
*D34
  1

  0
LINE
  5
10B
100
AcDbEntity
  8
Cuts
  6
ByBlock
 62
    0
370
   -2
100
AcDbLine
 10
3500
 20
-550
 11
3515
 21
-550
  0
SOLID
  5
10C
100
AcDbEntity
  8
Cuts
  6
ByBlock
 62
    0
370
   -2
100
AcDbTrace
 10
3505
 20
-550
 30
0
 11
3502.5
 21
-550.4162846577728
 31
0
 12
3502.5
 22
-549.5837153422272
 32
0
 13
3502.5
 23
-549.5837153422272
 33
0
  0
SOLID
  5
10D
100
AcDbEntity
  8
Cuts
  6
ByBlock
 62
    0
370
   -2
100
AcDbTrace
 10
3510
 20
-550
 30
0
 11
3512.5
 21
-549.5837153422272
 31
0
 12
3512.5
 22
-550.4162846577728
 32
0
 13
3512.5
 23
-550.4162846577728
 33
0
  0
MTEXT
  5
10E
100
AcDbEntity
  8
Cuts
  6
CONTINUOUS
 62
    0
370
   -2
100
AcDbMText
 10
3514.513888888889
 20
-546.875
 30
0
 40
5
 41
7.777777777778088
 71
    5
 72
    1
  1
5.0
  7
standard
210
0
220
0
230
1
 50
0
 73
    2
 44
1
  0
LINE
  5
10F
100
AcDbEntity
  8
Cuts
  6
ByBlock
 62
    0
370
   -2
100
AcDbLine
 10
3505
 20
-500.625
 11
3505
 21
-551.25
  0
LINE
  5
110
100
AcDbEntity
  8
Cuts
  6
ByBlock
 62
    0
370
   -2
100
AcDbLine
 10
3510
 20
-500.625
 11
3510
 21
-551.25
  0
ENDBLK
  5
71
330
6F
100
AcDbEntity
  8
0
100
AcDbBlockEnd
  0
BLOCK
  5
73
330
72
100
AcDbEntity
  8
0
100
AcDbBlockBegin
  2
*D41
 70
    1
 10
0
 20
0
  3
*D41
  1

  0
LINE
  5
111
100
AcDbEntity
  8
Dims
  6
ByBlock
 62
    0
370
   -2
100
AcDbLine
 10
1750
 20
91
 11
1719
 21
91
  0
SOLID
  5
112
100
AcDbEntity
  8
Dims
  6
ByBlock
 62
    0
370
   -2
100
AcDbTrace
 10
1750
 20
91
 30
0
 11
1747.5
 21
90.58371534222717
 31
0
 12
1747.5
 22
91.41628465777283
 32
0
 13
1747.5
 23
91.41628465777283
 33
0
  0
SOLID
  5
113
100
AcDbEntity
  8
Dims
  6
ByBlock
 62
    0
370
   -2
100
AcDbTrace
 10
1719
 20
91
 30
0
 11
1721.5
 21
91.41628465777283
 31
0
 12
1721.5
 22
90.58371534222717
 32
0
 13
1721.5
 23
90.58371534222717
 33
0
  0
MTEXT
  5
114
100
AcDbEntity
  8
Dims
  6
CONTINUOUS
 62
    0
370
   -2
100
AcDbMText
 10
1734.5
 20
94.125
 30
0
 40
5
 41
10.55555555555587
 71
    5
 72
    1
  1
31.0
  7
standard
210
0
220
0
230
1
 50
360
 73
    2
 44
1
  0
LINE
  5
115
100
AcDbEntity
  8
Dims
  6
ByBlock
 62
    0
370
   -2
100
AcDbLine
 10
1750
 20
90.625
 11
1750
 21
92.25
  0
LINE
  5
116
100
AcDbEntity
  8
Dims
  6
ByBlock
 62
    0
370
   -2
100
AcDbLine
 10
1719
 20
90.625
 11
1719
 21
92.25
  0
ENDBLK
  5
74
330
72
100
AcDbEntity
  8
0
100
AcDbBlockEnd
  0
BLOCK
  5
76
330
75
100
AcDbEntity
  8
0
100
AcDbBlockBegin
  2
*D14
 70
    1
 10
0
 20
0
  3
*D14
  1

  0
LINE
  5
117
100
AcDbEntity
  8
Cuts
  6
ByBlock
 62
    0
370
   -2
100
AcDbLine
 10
1745
 20
-550
 11
1760
 21
-550
  0
SOLID
  5
118
100
AcDbEntity
  8
Cuts
  6
ByBlock
 62
    0
370
   -2
100
AcDbTrace
 10
1750
 20
-550
 30
0
 11
1747.5
 21
-550.4162846577728
 31
0
 12
1747.5
 22
-549.5837153422272
 32
0
 13
1747.5
 23
-549.5837153422272
 33
0
  0
SOLID
  5
119
100
AcDbEntity
  8
Cuts
  6
ByBlock
 62
    0
370
   -2
100
AcDbTrace
 10
1755
 20
-550
 30
0
 11
1757.5
 21
-549.5837153422272
 31
0
 12
1757.5
 22
-550.4162846577728
 32
0
 13
1757.5
 23
-550.4162846577728
 33
0
  0
MTEXT
  5
11A
100
AcDbEntity
  8
Cuts
  6
CONTINUOUS
 62
    0
370
   -2
100
AcDbMText
 10
1759.513888888889
 20
-546.875
 30
0
 40
5
 41
7.777777777778088
 71
    5
 72
    1
  1
5.0
  7
standard
210
0
220
0
230
1
 50
0
 73
    2
 44
1
  0
LINE
  5
11B
100
AcDbEntity
  8
Cuts
  6
ByBlock
 62
    0
370
   -2
100
AcDbLine
 10
1750
 20
-500.625
 11
1750
 21
-551.25
  0
LINE
  5
11C
100
AcDbEntity
  8
Cuts
  6
ByBlock
 62
    0
370
   -2
100
AcDbLine
 10
1755
 20
-500.625
 11
1755
 21
-551.25
  0
ENDBLK
  5
77
330
75
100
AcDbEntity
  8
0
100
AcDbBlockEnd
  0
BLOCK
  5
79
330
78
100
AcDbEntity
  8
0
100
AcDbBlockBegin
  2
*D12
 70
    1
 10
0
 20
0
  3
*D12
  1

  0
LINE
  5
11D
100
AcDbEntity
  8
Cuts
  6
ByBlock
 62
    0
370
   -2
100
AcDbLine
 10
1743
 20
-100
 11
1000
 21
-100
  0
SOLID
  5
11E
100
AcDbEntity
  8
Cuts
  6
ByBlock
 62
    0
370
   -2
100
AcDbTrace
 10
1743
 20
-100
 30
0
 11
1740.5
 21
-100.4162846577728
 31
0
 12
1740.5
 22
-99.58371534222717
 32
0
 13
1740.5
 23
-99.58371534222717
 33
0
  0
SOLID
  5
11F
100
AcDbEntity
  8
Cuts
  6
ByBlock
 62
    0
370
   -2
100
AcDbTrace
 10
1000
 20
-100
 30
0
 11
1002.5
 21
-99.58371534222717
 31
0
 12
1002.5
 22
-100.4162846577728
 32
0
 13
1002.5
 23
-100.4162846577728
 33
0
  0
MTEXT
  5
120
100
AcDbEntity
  8
Cuts
  6
CONTINUOUS
 62
    0
370
   -2
100
AcDbMText
 10
1371.5
 20
-96.875
 30
0
 40
5
 41
16.11111111111142
 71
    5
 72
    1
  1
743.0
  7
standard
210
0
220
0
230
1
 50
360
 73
    2
 44
1
  0
LINE
  5
121
100
AcDbEntity
  8
Cuts
  6
ByBlock
 62
    0
370
   -2
100
AcDbLine
 10
1743
 20
-149.375
 11
1743
 21
-98.75
  0
LINE
  5
122
100
AcDbEntity
  8
Cuts
  6
ByBlock
 62
    0
370
   -2
100
AcDbLine
 10
1000
 20
-149.375
 11
1000
 21
-98.75
  0
ENDBLK
  5
7A
330
78
100
AcDbEntity
  8
0
100
AcDbBlockEnd
  0
BLOCK
  5
7C
330
7B
100
AcDbEntity
  8
0
100
AcDbBlockBegin
  2
*D10
 70
    1
 10
0
 20
0
  3
*D10
  1

  0
LINE
  5
123
100
AcDbEntity
  8
Dims
  6
ByBlock
 62
    0
370
   -2
100
AcDbLine
 10
1260
 20
569
 11
1260
 21
594
  0
SOLID
  5
124
100
AcDbEntity
  8
Dims
  6
ByBlock
 62
    0
370
   -2
100
AcDbTrace
 10
1260
 20
569
 30
0
 11
1259.583715342227
 21
571.5
 31
0
 12
1260.416284657773
 22
571.5
 32
0
 13
1260.416284657773
 23
571.5
 33
0
  0
SOLID
  5
125
100
AcDbEntity
  8
Dims
  6
ByBlock
 62
    0
370
   -2
100
AcDbTrace
 10
1260
 20
594
 30
0
 11
1260.416284657773
 21
591.5
 31
0
 12
1259.583715342227
 22
591.5
 32
0
 13
1259.583715342227
 23
591.5
 33
0
  0
MTEXT
  5
126
100
AcDbEntity
  8
Dims
  6
CONTINUOUS
 62
    0
370
   -2
100
AcDbMText
 10
1256.875
 20
581.5
 30
0
 40
5
 41
11.66666666666698
 71
    5
 72
    1
  1
25.0
  7
standard
210
0
220
0
230
1
 50
90
 73
    2
 44
1
  0
LINE
  5
127
100
AcDbEntity
  8
Dims
  6
ByBlock
 62
    0
370
   -2
100
AcDbLine
 10
1269.375
 20
569
 11
1258.75
 21
569
  0
LINE
  5
128
100
AcDbEntity
  8
Dims
  6
ByBlock
 62
    0
370
   -2
100
AcDbLine
 10
1269.375
 20
594
 11
1258.75
 21
594
  0
ENDBLK
  5
7D
330
7B
100
AcDbEntity
  8
0
100
AcDbBlockEnd
  0
BLOCK
  5
7F
330
7E
100
AcDbEntity
  8
0
100
AcDbBlockBegin
  2
*D15
 70
    1
 10
0
 20
0
  3
*D15
  1

  0
LINE
  5
129
100
AcDbEntity
  8
Cuts
  6
ByBlock
 62
    0
370
   -2
100
AcDbLine
 10
1755
 20
-550
 11
2505
 21
-550
  0
SOLID
  5
12A
100
AcDbEntity
  8
Cuts
  6
ByBlock
 62
    0
370
   -2
100
AcDbTrace
 10
1755
 20
-550
 30
0
 11
1757.5
 21
-549.5837153422272
 31
0
 12
1757.5
 22
-550.4162846577728
 32
0
 13
1757.5
 23
-550.4162846577728
 33
0
  0
SOLID
  5
12B
100
AcDbEntity
  8
Cuts
  6
ByBlock
 62
    0
370
   -2
100
AcDbTrace
 10
2505
 20
-550
 30
0
 11
2502.5
 21
-550.4162846577728
 31
0
 12
2502.5
 22
-549.5837153422272
 32
0
 13
2502.5
 23
-549.5837153422272
 33
0
  0
MTEXT
  5
12C
100
AcDbEntity
  8
Cuts
  6
CONTINUOUS
 62
    0
370
   -2
100
AcDbMText
 10
2130
 20
-546.875
 30
0
 40
5
 41
15.55555555555587
 71
    5
 72
    1
  1
750.0
  7
standard
210
0
220
0
230
1
 50
0
 73
    2
 44
1
  0
LINE
  5
12D
100
AcDbEntity
  8
Cuts
  6
ByBlock
 62
    0
370
   -2
100
AcDbLine
 10
1755
 20
-500.625
 11
1755
 21
-551.25
  0
LINE
  5
12E
100
AcDbEntity
  8
Cuts
  6
ByBlock
 62
    0
370
   -2
100
AcDbLine
 10
2505
 20
-500.625
 11
2505
 21
-551.25
  0
ENDBLK
  5
80
330
7E
100
AcDbEntity
  8
0
100
AcDbBlockEnd
  0
BLOCK
  5
82
330
81
100
AcDbEntity
  8
0
100
AcDbBlockBegin
  2
*D24
 70
    1
 10
0
 20
0
  3
*D24
  1

  0
LINE
  5
12F
100
AcDbEntity
  8
Cuts
  6
ByBlock
 62
    0
370
   -2
100
AcDbLine
 10
1738
 20
-100
 11
1753
 21
-100
  0
SOLID
  5
130
100
AcDbEntity
  8
Cuts
  6
ByBlock
 62
    0
370
   -2
100
AcDbTrace
 10
1743
 20
-100
 30
0
 11
1740.5
 21
-100.4162846577728
 31
0
 12
1740.5
 22
-99.58371534222717
 32
0
 13
1740.5
 23
-99.58371534222717
 33
0
  0
SOLID
  5
131
100
AcDbEntity
  8
Cuts
  6
ByBlock
 62
    0
370
   -2
100
AcDbTrace
 10
1748
 20
-100
 30
0
 11
1750.5
 21
-99.58371534222717
 31
0
 12
1750.5
 22
-100.4162846577728
 32
0
 13
1750.5
 23
-100.4162846577728
 33
0
  0
MTEXT
  5
132
100
AcDbEntity
  8
Cuts
  6
CONTINUOUS
 62
    0
370
   -2
100
AcDbMText
 10
1752.513888888889
 20
-96.875
 30
0
 40
5
 41
7.777777777778088
 71
    5
 72
    1
  1
5.0
  7
standard
210
0
220
0
230
1
 50
0
 73
    2
 44
1
  0
LINE
  5
133
100
AcDbEntity
  8
Cuts
  6
ByBlock
 62
    0
370
   -2
100
AcDbLine
 10
1743
 20
-149.375
 11
1743
 21
-98.75
  0
LINE
  5
134
100
AcDbEntity
  8
Cuts
  6
ByBlock
 62
    0
370
   -2
100
AcDbLine
 10
1748
 20
-149.375
 11
1748
 21
-98.75
  0
ENDBLK
  5
83
330
81
100
AcDbEntity
  8
0
100
AcDbBlockEnd
  0
BLOCK
  5
85
330
84
100
AcDbEntity
  8
0
100
AcDbBlockBegin
  2
*D31
 70
    1
 10
0
 20
0
  3
*D31
  1

  0
LINE
  5
135
100
AcDbEntity
  8
Cuts
  6
ByBlock
 62
    0
370
   -2
100
AcDbLine
 10
2748
 20
-100
 11
3156
 21
-100
  0
SOLID
  5
136
100
AcDbEntity
  8
Cuts
  6
ByBlock
 62
    0
370
   -2
100
AcDbTrace
 10
2748
 20
-100
 30
0
 11
2750.5
 21
-99.58371534222717
 31
0
 12
2750.5
 22
-100.4162846577728
 32
0
 13
2750.5
 23
-100.4162846577728
 33
0
  0
SOLID
  5
137
100
AcDbEntity
  8
Cuts
  6
ByBlock
 62
    0
370
   -2
100
AcDbTrace
 10
3156
 20
-100
 30
0
 11
3153.5
 21
-100.4162846577728
 31
0
 12
3153.5
 22
-99.58371534222717
 32
0
 13
3153.5
 23
-99.58371534222717
 33
0
  0
MTEXT
  5
138
100
AcDbEntity
  8
Cuts
  6
CONTINUOUS
 62
    0
370
   -2
100
AcDbMText
 10
2952
 20
-96.875
 30
0
 40
5
 41
16.11111111111111
 71
    5
 72
    1
  1
408.0
  7
standard
210
0
220
0
230
1
 50
0
 73
    2
 44
1
  0
LINE
  5
139
100
AcDbEntity
  8
Cuts
  6
ByBlock
 62
    0
370
   -2
100
AcDbLine
 10
2748
 20
-149.375
 11
2748
 21
-98.75
  0
LINE
  5
13A
100
AcDbEntity
  8
Cuts
  6
ByBlock
 62
    0
370
   -2
100
AcDbLine
 10
3156
 20
-149.375
 11
3156
 21
-98.75
  0
ENDBLK
  5
86
330
84
100
AcDbEntity
  8
0
100
AcDbBlockEnd
  0
BLOCK
  5
88
330
87
100
AcDbEntity
  8
0
100
AcDbBlockBegin
  2
*D9
 70
    1
 10
0
 20
0
  3
*D9
  1

  0
LINE
  5
13B
100
AcDbEntity
  8
Dims
  6
ByBlock
 62
    0
370
   -2
100
AcDbLine
 10
1260
 20
544
 11
1260
 21
569
  0
SOLID
  5
13C
100
AcDbEntity
  8
Dims
  6
ByBlock
 62
    0
370
   -2
100
AcDbTrace
 10
1260
 20
544
 30
0
 11
1259.583715342227
 21
546.5
 31
0
 12
1260.416284657773
 22
546.5
 32
0
 13
1260.416284657773
 23
546.5
 33
0
  0
SOLID
  5
13D
100
AcDbEntity
  8
Dims
  6
ByBlock
 62
    0
370
   -2
100
AcDbTrace
 10
1260
 20
569
 30
0
 11
1260.416284657773
 21
566.5
 31
0
 12
1259.583715342227
 22
566.5
 32
0
 13
1259.583715342227
 23
566.5
 33
0
  0
MTEXT
  5
13E
100
AcDbEntity
  8
Dims
  6
CONTINUOUS
 62
    0
370
   -2
100
AcDbMText
 10
1256.875
 20
556.5
 30
0
 40
5
 41
11.66666666666698
 71
    5
 72
    1
  1
25.0
  7
standard
210
0
220
0
230
1
 50
90
 73
    2
 44
1
  0
LINE
  5
13F
100
AcDbEntity
  8
Dims
  6
ByBlock
 62
    0
370
   -2
100
AcDbLine
 10
1269.375
 20
544
 11
1258.75
 21
544
  0
LINE
  5
140
100
AcDbEntity
  8
Dims
  6
ByBlock
 62
    0
370
   -2
100
AcDbLine
 10
1269.375
 20
569
 11
1258.75
 21
569
  0
ENDBLK
  5
89
330
87
100
AcDbEntity
  8
0
100
AcDbBlockEnd
  0
BLOCK
  5
8B
330
8A
100
AcDbEntity
  8
0
100
AcDbBlockBegin
  2
*D26
 70
    1
 10
0
 20
0
  3
*D26
  1

  0
LINE
  5
141
100
AcDbEntity
  8
Cuts
  6
ByBlock
 62
    0
370
   -2
100
AcDbLine
 10
2353
 20
-100
 11
2743
 21
-100
  0
SOLID
  5
142
100
AcDbEntity
  8
Cuts
  6
ByBlock
 62
    0
370
   -2
100
AcDbTrace
 10
2353
 20
-100
 30
0
 11
2355.5
 21
-99.58371534222717
 31
0
 12
2355.5
 22
-100.4162846577728
 32
0
 13
2355.5
 23
-100.4162846577728
 33
0
  0
SOLID
  5
143
100
AcDbEntity
  8
Cuts
  6
ByBlock
 62
    0
370
   -2
100
AcDbTrace
 10
2743
 20
-100
 30
0
 11
2740.5
 21
-100.4162846577728
 31
0
 12
2740.5
 22
-99.58371534222717
 32
0
 13
2740.5
 23
-99.58371534222717
 33
0
  0
MTEXT
  5
144
100
AcDbEntity
  8
Cuts
  6
CONTINUOUS
 62
    0
370
   -2
100
AcDbMText
 10
2548
 20
-96.875
 30
0
 40
5
 41
15.55555555555587
 71
    5
 72
    1
  1
390.0
  7
standard
210
0
220
0
230
1
 50
0
 73
    2
 44
1
  0
LINE
  5
145
100
AcDbEntity
  8
Cuts
  6
ByBlock
 62
    0
370
   -2
100
AcDbLine
 10
2353
 20
-149.375
 11
2353
 21
-98.75
  0
LINE
  5
146
100
AcDbEntity
  8
Cuts
  6
ByBlock
 62
    0
370
   -2
100
AcDbLine
 10
2743
 20
-149.375
 11
2743
 21
-98.75
  0
ENDBLK
  5
8C
330
8A
100
AcDbEntity
  8
0
100
AcDbBlockEnd
  0
BLOCK
  5
8E
330
8D
100
AcDbEntity
  8
0
100
AcDbBlockBegin
  2
*D35
 70
    1
 10
0
 20
0
  3
*D35
  1

  0
LINE
  5
147
100
AcDbEntity
  8
Cuts
  6
ByBlock
 62
    0
370
   -2
100
AcDbLine
 10
3510
 20
-550
 11
3918
 21
-550
  0
SOLID
  5
148
100
AcDbEntity
  8
Cuts
  6
ByBlock
 62
    0
370
   -2
100
AcDbTrace
 10
3510
 20
-550
 30
0
 11
3512.5
 21
-549.5837153422272
 31
0
 12
3512.5
 22
-550.4162846577728
 32
0
 13
3512.5
 23
-550.4162846577728
 33
0
  0
SOLID
  5
149
100
AcDbEntity
  8
Cuts
  6
ByBlock
 62
    0
370
   -2
100
AcDbTrace
 10
3918
 20
-550
 30
0
 11
3915.5
 21
-550.4162846577728
 31
0
 12
3915.5
 22
-549.5837153422272
 32
0
 13
3915.5
 23
-549.5837153422272
 33
0
  0
MTEXT
  5
14A
100
AcDbEntity
  8
Cuts
  6
CONTINUOUS
 62
    0
370
   -2
100
AcDbMText
 10
3714
 20
-546.875
 30
0
 40
5
 41
16.11111111111111
 71
    5
 72
    1
  1
408.0
  7
standard
210
0
220
0
230
1
 50
0
 73
    2
 44
1
  0
LINE
  5
14B
100
AcDbEntity
  8
Cuts
  6
ByBlock
 62
    0
370
   -2
100
AcDbLine
 10
3510
 20
-500.625
 11
3510
 21
-551.25
  0
LINE
  5
14C
100
AcDbEntity
  8
Cuts
  6
ByBlock
 62
    0
370
   -2
100
AcDbLine
 10
3918
 20
-500.625
 11
3918
 21
-551.25
  0
ENDBLK
  5
8F
330
8D
100
AcDbEntity
  8
0
100
AcDbBlockEnd
  0
BLOCK
  5
91
330
90
100
AcDbEntity
  8
0
100
AcDbBlockBegin
  2
*D20
 70
    1
 10
0
 20
0
  3
*D20
  1

  0
LINE
  5
14D
100
AcDbEntity
  8
Dims
  6
ByBlock
 62
    0
370
   -2
100
AcDbLine
 10
1110
 20
0
 11
1110
 21
600
  0
SOLID
  5
14E
100
AcDbEntity
  8
Dims
  6
ByBlock
 62
    0
370
   -2
100
AcDbTrace
 10
1110
 20
0
 30
0
 11
1109.583715342227
 21
2.5
 31
0
 12
1110.416284657773
 22
2.5
 32
0
 13
1110.416284657773
 23
2.5
 33
0
  0
SOLID
  5
14F
100
AcDbEntity
  8
Dims
  6
ByBlock
 62
    0
370
   -2
100
AcDbTrace
 10
1110
 20
600
 30
0
 11
1110.416284657773
 21
597.5
 31
0
 12
1109.583715342227
 22
597.5
 32
0
 13
1109.583715342227
 23
597.5
 33
0
  0
MTEXT
  5
150
100
AcDbEntity
  8
Dims
  6
CONTINUOUS
 62
    0
370
   -2
100
AcDbMText
 10
1106.875
 20
300
 30
0
 40
5
 41
15.55555555555587
 71
    5
 72
    1
  1
600.0
  7
standard
210
0
220
0
230
1
 50
90
 73
    2
 44
1
  0
LINE
  5
151
100
AcDbEntity
  8
Dims
  6
ByBlock
 62
    0
370
   -2
100
AcDbLine
 10
1100.625
 20
0
 11
1111.25
 21
0
  0
LINE
  5
152
100
AcDbEntity
  8
Dims
  6
ByBlock
 62
    0
370
   -2
100
AcDbLine
 10
1100.625
 20
600
 11
1111.25
 21
600
  0
ENDBLK
  5
92
330
90
100
AcDbEntity
  8
0
100
AcDbBlockEnd
  0
BLOCK
  5
94
330
93
100
AcDbEntity
  8
0
100
AcDbBlockBegin
  2
*D27
 70
    1
 10
0
 20
0
  3
*D27
  1

  0
LINE
  5
153
100
AcDbEntity
  8
Cuts
  6
ByBlock
 62
    0
370
   -2
100
AcDbLine
 10
2738
 20
-100
 11
2753
 21
-100
  0
SOLID
  5
154
100
AcDbEntity
  8
Cuts
  6
ByBlock
 62
    0
370
   -2
100
AcDbTrace
 10
2743
 20
-100
 30
0
 11
2740.5
 21
-100.4162846577728
 31
0
 12
2740.5
 22
-99.58371534222717
 32
0
 13
2740.5
 23
-99.58371534222717
 33
0
  0
SOLID
  5
155
100
AcDbEntity
  8
Cuts
  6
ByBlock
 62
    0
370
   -2
100
AcDbTrace
 10
2748
 20
-100
 30
0
 11
2750.5
 21
-99.58371534222717
 31
0
 12
2750.5
 22
-100.4162846577728
 32
0
 13
2750.5
 23
-100.4162846577728
 33
0
  0
MTEXT
  5
156
100
AcDbEntity
  8
Cuts
  6
CONTINUOUS
 62
    0
370
   -2
100
AcDbMText
 10
2752.513888888889
 20
-96.875
 30
0
 40
5
 41
7.777777777778088
 71
    5
 72
    1
  1
5.0
  7
standard
210
0
220
0
230
1
 50
0
 73
    2
 44
1
  0
LINE
  5
157
100
AcDbEntity
  8
Cuts
  6
ByBlock
 62
    0
370
   -2
100
AcDbLine
 10
2743
 20
-149.375
 11
2743
 21
-98.75
  0
LINE
  5
158
100
AcDbEntity
  8
Cuts
  6
ByBlock
 62
    0
370
   -2
100
AcDbLine
 10
2748
 20
-149.375
 11
2748
 21
-98.75
  0
ENDBLK
  5
95
330
93
100
AcDbEntity
  8
0
100
AcDbBlockEnd
  0
BLOCK
  5
97
330
96
100
AcDbEntity
  8
0
100
AcDbBlockBegin
  2
*D5
 70
    1
 10
0
 20
0
  3
*D5
  1

  0
LINE
  5
159
100
AcDbEntity
  8
Dims
  6
ByBlock
 62
    0
370
   -2
100
AcDbLine
 10
1462
 20
680
 11
1500
 21
680
  0
SOLID
  5
15A
100
AcDbEntity
  8
Dims
  6
ByBlock
 62
    0
370
   -2
100
AcDbTrace
 10
1462
 20
680
 30
0
 11
1464.5
 21
680.4162846577728
 31
0
 12
1464.5
 22
679.5837153422272
 32
0
 13
1464.5
 23
679.5837153422272
 33
0
  0
SOLID
  5
15B
100
AcDbEntity
  8
Dims
  6
ByBlock
 62
    0
370
   -2
100
AcDbTrace
 10
1500
 20
680
 30
0
 11
1497.5
 21
679.5837153422272
 31
0
 12
1497.5
 22
680.4162846577728
 32
0
 13
1497.5
 23
680.4162846577728
 33
0
  0
MTEXT
  5
15C
100
AcDbEntity
  8
Dims
  6
CONTINUOUS
 62
    0
370
   -2
100
AcDbMText
 10
1481
 20
683.125
 30
0
 40
5
 41
11.66666666666698
 71
    5
 72
    1
  1
38.0
  7
standard
210
0
220
0
230
1
 50
0
 73
    2
 44
1
  0
LINE
  5
15D
100
AcDbEntity
  8
Dims
  6
ByBlock
 62
    0
370
   -2
100
AcDbLine
 10
1462
 20
670.625
 11
1462
 21
681.25
  0
LINE
  5
15E
100
AcDbEntity
  8
Dims
  6
ByBlock
 62
    0
370
   -2
100
AcDbLine
 10
1500
 20
670.625
 11
1500
 21
681.25
  0
ENDBLK
  5
98
330
96
100
AcDbEntity
  8
0
100
AcDbBlockEnd
  0
BLOCK
  5
9A
330
99
100
AcDbEntity
  8
0
100
AcDbBlockBegin
  2
*D6
 70
    1
 10
0
 20
0
  3
*D6
  1

  0
LINE
  5
15F
100
AcDbEntity
  8
Dims
  6
ByBlock
 62
    0
370
   -2
100
AcDbLine
 10
1500
 20
680
 11
1538
 21
680
  0
SOLID
  5
160
100
AcDbEntity
  8
Dims
  6
ByBlock
 62
    0
370
   -2
100
AcDbTrace
 10
1500
 20
680
 30
0
 11
1502.5
 21
680.4162846577728
 31
0
 12
1502.5
 22
679.5837153422272
 32
0
 13
1502.5
 23
679.5837153422272
 33
0
  0
SOLID
  5
161
100
AcDbEntity
  8
Dims
  6
ByBlock
 62
    0
370
   -2
100
AcDbTrace
 10
1538
 20
680
 30
0
 11
1535.5
 21
679.5837153422272
 31
0
 12
1535.5
 22
680.4162846577728
 32
0
 13
1535.5
 23
680.4162846577728
 33
0
  0
MTEXT
  5
162
100
AcDbEntity
  8
Dims
  6
CONTINUOUS
 62
    0
370
   -2
100
AcDbMText
 10
1519
 20
683.125
 30
0
 40
5
 41
11.66666666666698
 71
    5
 72
    1
  1
38.0
  7
standard
210
0
220
0
230
1
 50
0
 73
    2
 44
1
  0
LINE
  5
163
100
AcDbEntity
  8
Dims
  6
ByBlock
 62
    0
370
   -2
100
AcDbLine
 10
1500
 20
670.625
 11
1500
 21
681.25
  0
LINE
  5
164
100
AcDbEntity
  8
Dims
  6
ByBlock
 62
    0
370
   -2
100
AcDbLine
 10
1538
 20
670.625
 11
1538
 21
681.25
  0
ENDBLK
  5
9B
330
99
100
AcDbEntity
  8
0
100
AcDbBlockEnd
  0
BLOCK
  5
9D
330
9C
100
AcDbEntity
  8
0
100
AcDbBlockBegin
  2
*D13
 70
    1
 10
0
 20
0
  3
*D13
  1

  0
LINE
  5
165
100
AcDbEntity
  8
Cuts
  6
ByBlock
 62
    0
370
   -2
100
AcDbLine
 10
1000
 20
-550
 11
1750
 21
-550
  0
SOLID
  5
166
100
AcDbEntity
  8
Cuts
  6
ByBlock
 62
    0
370
   -2
100
AcDbTrace
 10
1000
 20
-550
 30
0
 11
1002.5
 21
-549.5837153422272
 31
0
 12
1002.5
 22
-550.4162846577728
 32
0
 13
1002.5
 23
-550.4162846577728
 33
0
  0
SOLID
  5
167
100
AcDbEntity
  8
Cuts
  6
ByBlock
 62
    0
370
   -2
100
AcDbTrace
 10
1750
 20
-550
 30
0
 11
1747.5
 21
-550.4162846577728
 31
0
 12
1747.5
 22
-549.5837153422272
 32
0
 13
1747.5
 23
-549.5837153422272
 33
0
  0
MTEXT
  5
168
100
AcDbEntity
  8
Cuts
  6
CONTINUOUS
 62
    0
370
   -2
100
AcDbMText
 10
1375
 20
-546.875
 30
0
 40
5
 41
15.55555555555587
 71
    5
 72
    1
  1
750.0
  7
standard
210
0
220
0
230
1
 50
0
 73
    2
 44
1
  0
LINE
  5
169
100
AcDbEntity
  8
Cuts
  6
ByBlock
 62
    0
370
   -2
100
AcDbLine
 10
1000
 20
-500.625
 11
1000
 21
-551.25
  0
LINE
  5
16A
100
AcDbEntity
  8
Cuts
  6
ByBlock
 62
    0
370
   -2
100
AcDbLine
 10
1750
 20
-500.625
 11
1750
 21
-551.25
  0
ENDBLK
  5
9E
330
9C
100
AcDbEntity
  8
0
100
AcDbBlockEnd
  0
BLOCK
  5
A0
330
9F
100
AcDbEntity
  8
0
100
AcDbBlockBegin
  2
*D45
 70
    1
 10
0
 20
0
  3
*D45
  1

  0
LINE
  5
16B
100
AcDbEntity
  8
Dims
  6
ByBlock
 62
    0
370
   -2
100
AcDbLine
 10
1695
 20
520
 11
1650
 21
520
  0
SOLID
  5
16C
100
AcDbEntity
  8
Dims
  6
ByBlock
 62
    0
370
   -2
100
AcDbTrace
 10
1695
 20
520
 30
0
 11
1692.5
 21
519.5837153422272
 31
0
 12
1692.5
 22
520.4162846577728
 32
0
 13
1692.5
 23
520.4162846577728
 33
0
  0
SOLID
  5
16D
100
AcDbEntity
  8
Dims
  6
ByBlock
 62
    0
370
   -2
100
AcDbTrace
 10
1650
 20
520
 30
0
 11
1652.5
 21
520.4162846577728
 31
0
 12
1652.5
 22
519.5837153422272
 32
0
 13
1652.5
 23
519.5837153422272
 33
0
  0
MTEXT
  5
16E
100
AcDbEntity
  8
Dims
  6
CONTINUOUS
 62
    0
370
   -2
100
AcDbMText
 10
1672.5
 20
523.125
 30
0
 40
5
 41
12.22222222222253
 71
    5
 72
    1
  1
45.0
  7
standard
210
0
220
0
230
1
 50
360
 73
    2
 44
1
  0
LINE
  5
16F
100
AcDbEntity
  8
Dims
  6
ByBlock
 62
    0
370
   -2
100
AcDbLine
 10
1695
 20
529.375
 11
1695
 21
518.75
  0
LINE
  5
170
100
AcDbEntity
  8
Dims
  6
ByBlock
 62
    0
370
   -2
100
AcDbLine
 10
1650
 20
529.375
 11
1650
 21
518.75
  0
ENDBLK
  5
A1
330
9F
100
AcDbEntity
  8
0
100
AcDbBlockEnd
  0
BLOCK
  5
A3
330
A2
100
AcDbEntity
  8
0
100
AcDbBlockBegin
  2
*D17
 70
    1
 10
0
 20
0
  3
*D17
  1

  0
LINE
  5
171
100
AcDbEntity
  8
Cuts
  6
ByBlock
 62
    0
370
   -2
100
AcDbLine
 10
2510
 20
-550
 11
3110
 21
-550
  0
SOLID
  5
172
100
AcDbEntity
  8
Cuts
  6
ByBlock
 62
    0
370
   -2
100
AcDbTrace
 10
2510
 20
-550
 30
0
 11
2512.5
 21
-549.5837153422272
 31
0
 12
2512.5
 22
-550.4162846577728
 32
0
 13
2512.5
 23
-550.4162846577728
 33
0
  0
SOLID
  5
173
100
AcDbEntity
  8
Cuts
  6
ByBlock
 62
    0
370
   -2
100
AcDbTrace
 10
3110
 20
-550
 30
0
 11
3107.5
 21
-550.4162846577728
 31
0
 12
3107.5
 22
-549.5837153422272
 32
0
 13
3107.5
 23
-549.5837153422272
 33
0
  0
MTEXT
  5
174
100
AcDbEntity
  8
Cuts
  6
CONTINUOUS
 62
    0
370
   -2
100
AcDbMText
 10
2810
 20
-546.875
 30
0
 40
5
 41
15.55555555555587
 71
    5
 72
    1
  1
600.0
  7
standard
210
0
220
0
230
1
 50
0
 73
    2
 44
1
  0
LINE
  5
175
100
AcDbEntity
  8
Cuts
  6
ByBlock
 62
    0
370
   -2
100
AcDbLine
 10
2510
 20
-500.625
 11
2510
 21
-551.25
  0
LINE
  5
176
100
AcDbEntity
  8
Cuts
  6
ByBlock
 62
    0
370
   -2
100
AcDbLine
 10
3110
 20
-500.625
 11
3110
 21
-551.25
  0
ENDBLK
  5
A4
330
A2
100
AcDbEntity
  8
0
100
AcDbBlockEnd
  0
BLOCK
  5
A6
330
A5
100
AcDbEntity
  8
0
100
AcDbBlockBegin
  2
*D19
 70
    1
 10
0
 20
0
  3
*D19
  1

  0
LINE
  5
177
100
AcDbEntity
  8
Cuts
  6
ByBlock
 62
    0
370
   -2
100
AcDbLine
 10
3115
 20
-550
 11
3505
 21
-550
  0
SOLID
  5
178
100
AcDbEntity
  8
Cuts
  6
ByBlock
 62
    0
370
   -2
100
AcDbTrace
 10
3115
 20
-550
 30
0
 11
3117.5
 21
-549.5837153422272
 31
0
 12
3117.5
 22
-550.4162846577728
 32
0
 13
3117.5
 23
-550.4162846577728
 33
0
  0
SOLID
  5
179
100
AcDbEntity
  8
Cuts
  6
ByBlock
 62
    0
370
   -2
100
AcDbTrace
 10
3505
 20
-550
 30
0
 11
3502.5
 21
-550.4162846577728
 31
0
 12
3502.5
 22
-549.5837153422272
 32
0
 13
3502.5
 23
-549.5837153422272
 33
0
  0
MTEXT
  5
17A
100
AcDbEntity
  8
Cuts
  6
CONTINUOUS
 62
    0
370
   -2
100
AcDbMText
 10
3310
 20
-546.875
 30
0
 40
5
 41
15.55555555555587
 71
    5
 72
    1
  1
390.0
  7
standard
210
0
220
0
230
1
 50
0
 73
    2
 44
1
  0
LINE
  5
17B
100
AcDbEntity
  8
Cuts
  6
ByBlock
 62
    0
370
   -2
100
AcDbLine
 10
3115
 20
-500.625
 11
3115
 21
-551.25
  0
LINE
  5
17C
100
AcDbEntity
  8
Cuts
  6
ByBlock
 62
    0
370
   -2
100
AcDbLine
 10
3505
 20
-500.625
 11
3505
 21
-551.25
  0
ENDBLK
  5
A7
330
A5
100
AcDbEntity
  8
0
100
AcDbBlockEnd
  0
BLOCK
  5
A9
330
A8
100
AcDbEntity
  8
0
100
AcDbBlockBegin
  2
*D33
 70
    1
 10
0
 20
0
  3
*D33
  1

  0
LINE
  5
17D
100
AcDbEntity
  8
Cuts
  6
ByBlock
 62
    0
370
   -2
100
AcDbLine
 10
1748
 20
-100
 11
2348
 21
-100
  0
SOLID
  5
17E
100
AcDbEntity
  8
Cuts
  6
ByBlock
 62
    0
370
   -2
100
AcDbTrace
 10
1748
 20
-100
 30
0
 11
1750.5
 21
-99.58371534222717
 31
0
 12
1750.5
 22
-100.4162846577728
 32
0
 13
1750.5
 23
-100.4162846577728
 33
0
  0
SOLID
  5
17F
100
AcDbEntity
  8
Cuts
  6
ByBlock
 62
    0
370
   -2
100
AcDbTrace
 10
2348
 20
-100
 30
0
 11
2345.5
 21
-100.4162846577728
 31
0
 12
2345.5
 22
-99.58371534222717
 32
0
 13
2345.5
 23
-99.58371534222717
 33
0
  0
MTEXT
  5
180
100
AcDbEntity
  8
Cuts
  6
CONTINUOUS
 62
    0
370
   -2
100
AcDbMText
 10
2048
 20
-96.875
 30
0
 40
5
 41
15.55555555555587
 71
    5
 72
    1
  1
600.0
  7
standard
210
0
220
0
230
1
 50
0
 73
    2
 44
1
  0
LINE
  5
181
100
AcDbEntity
  8
Cuts
  6
ByBlock
 62
    0
370
   -2
100
AcDbLine
 10
1748
 20
-149.375
 11
1748
 21
-98.75
  0
LINE
  5
182
100
AcDbEntity
  8
Cuts
  6
ByBlock
 62
    0
370
   -2
100
AcDbLine
 10
2348
 20
-149.375
 11
2348
 21
-98.75
  0
ENDBLK
  5
AA
330
A8
100
AcDbEntity
  8
0
100
AcDbBlockEnd
  0
BLOCK
  5
AC
330
AB
100
AcDbEntity
  8
0
100
AcDbBlockBegin
  2
*D39
 70
    1
 10
0
 20
0
  3
*D39
  1

  0
LINE
  5
183
100
AcDbEntity
  8
Dims
  6
ByBlock
 62
    0
370
   -2
100
AcDbLine
 10
2881
 20
80
 11
2897
 21
80
  0
SOLID
  5
184
100
AcDbEntity
  8
Dims
  6
ByBlock
 62
    0
370
   -2
100
AcDbTrace
 10
2886
 20
80
 30
0
 11
2883.5
 21
79.58371534222717
 31
0
 12
2883.5
 22
80.41628465777283
 32
0
 13
2883.5
 23
80.41628465777283
 33
0
  0
SOLID
  5
185
100
AcDbEntity
  8
Dims
  6
ByBlock
 62
    0
370
   -2
100
AcDbTrace
 10
2892
 20
80
 30
0
 11
2894.5
 21
80.41628465777283
 31
0
 12
2894.5
 22
79.58371534222717
 32
0
 13
2894.5
 23
79.58371534222717
 33
0
  0
MTEXT
  5
186
100
AcDbEntity
  8
Dims
  6
CONTINUOUS
 62
    0
370
   -2
100
AcDbMText
 10
2896.513888888889
 20
83.125
 30
0
 40
5
 41
7.777777777778088
 71
    5
 72
    1
  1
6.0
  7
standard
210
0
220
0
230
1
 50
0
 73
    2
 44
1
  0
LINE
  5
187
100
AcDbEntity
  8
Dims
  6
ByBlock
 62
    0
370
   -2
100
AcDbLine
 10
2886
 20
89.375
 11
2886
 21
78.75
  0
LINE
  5
188
100
AcDbEntity
  8
Dims
  6
ByBlock
 62
    0
370
   -2
100
AcDbLine
 10
2892
 20
89.375
 11
2892
 21
78.75
  0
ENDBLK
  5
AD
330
AB
100
AcDbEntity
  8
0
100
AcDbBlockEnd
  0
BLOCK
  5
AF
330
AE
100
AcDbEntity
  8
0
100
AcDbBlockBegin
  2
*D11
 70
    1
 10
0
 20
0
  3
*D11
  1

  0
LINE
  5
189
100
AcDbEntity
  8
Dims
  6
ByBlock
 62
    0
370
   -2
100
AcDbLine
 10
1260
 20
589
 11
1260
 21
605
  0
SOLID
  5
18A
100
AcDbEntity
  8
Dims
  6
ByBlock
 62
    0
370
   -2
100
AcDbTrace
 10
1260
 20
594
 30
0
 11
1260.416284657773
 21
591.5
 31
0
 12
1259.583715342227
 22
591.5
 32
0
 13
1259.583715342227
 23
591.5
 33
0
  0
SOLID
  5
18B
100
AcDbEntity
  8
Dims
  6
ByBlock
 62
    0
370
   -2
100
AcDbTrace
 10
1260
 20
600
 30
0
 11
1259.583715342227
 21
602.5
 31
0
 12
1260.416284657773
 22
602.5
 32
0
 13
1260.416284657773
 23
602.5
 33
0
  0
MTEXT
  5
18C
100
AcDbEntity
  8
Dims
  6
CONTINUOUS
 62
    0
370
   -2
100
AcDbMText
 10
1256.875
 20
604.513888888889
 30
0
 40
5
 41
7.777777777778088
 71
    5
 72
    1
  1
6.0
  7
standard
210
0
220
0
230
1
 50
90
 73
    2
 44
1
  0
LINE
  5
18D
100
AcDbEntity
  8
Dims
  6
ByBlock
 62
    0
370
   -2
100
AcDbLine
 10
1269.375
 20
594
 11
1258.75
 21
594
  0
LINE
  5
18E
100
AcDbEntity
  8
Dims
  6
ByBlock
 62
    0
370
   -2
100
AcDbLine
 10
1269.375
 20
600
 11
1258.75
 21
600
  0
ENDBLK
  5
B0
330
AE
100
AcDbEntity
  8
0
100
AcDbBlockEnd
  0
BLOCK
  5
B2
330
B1
100
AcDbEntity
  8
0
100
AcDbBlockBegin
  2
*D1
 70
    1
 10
0
 20
0
  3
*D1
  1

  0
LINE
  5
18F
100
AcDbEntity
  8
Dims
  6
ByBlock
 62
    0
370
   -2
100
AcDbLine
 10
1305
 20
660
 11
1695
 21
660
  0
SOLID
  5
190
100
AcDbEntity
  8
Dims
  6
ByBlock
 62
    0
370
   -2
100
AcDbTrace
 10
1305
 20
660
 30
0
 11
1307.5
 21
660.4162846577728
 31
0
 12
1307.5
 22
659.5837153422272
 32
0
 13
1307.5
 23
659.5837153422272
 33
0
  0
SOLID
  5
191
100
AcDbEntity
  8
Dims
  6
ByBlock
 62
    0
370
   -2
100
AcDbTrace
 10
1695
 20
660
 30
0
 11
1692.5
 21
659.5837153422272
 31
0
 12
1692.5
 22
660.4162846577728
 32
0
 13
1692.5
 23
660.4162846577728
 33
0
  0
MTEXT
  5
192
100
AcDbEntity
  8
Dims
  6
CONTINUOUS
 62
    0
370
   -2
100
AcDbMText
 10
1500
 20
663.125
 30
0
 40
5
 41
15.55555555555587
 71
    5
 72
    1
  1
390.0
  7
standard
210
0
220
0
230
1
 50
0
 73
    2
 44
1
  0
LINE
  5
193
100
AcDbEntity
  8
Dims
  6
ByBlock
 62
    0
370
   -2
100
AcDbLine
 10
1305
 20
640.625
 11
1305
 21
661.25
  0
LINE
  5
194
100
AcDbEntity
  8
Dims
  6
ByBlock
 62
    0
370
   -2
100
AcDbLine
 10
1695
 20
640.625
 11
1695
 21
661.25
  0
ENDBLK
  5
B3
330
B1
100
AcDbEntity
  8
0
100
AcDbBlockEnd
  0
BLOCK
  5
B5
330
B4
100
AcDbEntity
  8
0
100
AcDbBlockBegin
  2
*D25
 70
    1
 10
0
 20
0
  3
*D25
  1

  0
LINE
  5
195
100
AcDbEntity
  8
Cuts
  6
ByBlock
 62
    0
370
   -2
100
AcDbLine
 10
2343
 20
-100
 11
2358
 21
-100
  0
SOLID
  5
196
100
AcDbEntity
  8
Cuts
  6
ByBlock
 62
    0
370
   -2
100
AcDbTrace
 10
2348
 20
-100
 30
0
 11
2345.5
 21
-100.4162846577728
 31
0
 12
2345.5
 22
-99.58371534222717
 32
0
 13
2345.5
 23
-99.58371534222717
 33
0
  0
SOLID
  5
197
100
AcDbEntity
  8
Cuts
  6
ByBlock
 62
    0
370
   -2
100
AcDbTrace
 10
2353
 20
-100
 30
0
 11
2355.5
 21
-99.58371534222717
 31
0
 12
2355.5
 22
-100.4162846577728
 32
0
 13
2355.5
 23
-100.4162846577728
 33
0
  0
MTEXT
  5
198
100
AcDbEntity
  8
Cuts
  6
CONTINUOUS
 62
    0
370
   -2
100
AcDbMText
 10
2357.513888888889
 20
-96.875
 30
0
 40
5
 41
7.777777777778088
 71
    5
 72
    1
  1
5.0
  7
standard
210
0
220
0
230
1
 50
0
 73
    2
 44
1
  0
LINE
  5
199
100
AcDbEntity
  8
Cuts
  6
ByBlock
 62
    0
370
   -2
100
AcDbLine
 10
2348
 20
-149.375
 11
2348
 21
-98.75
  0
LINE
  5
19A
100
AcDbEntity
  8
Cuts
  6
ByBlock
 62
    0
370
   -2
100
AcDbLine
 10
2353
 20
-149.375
 11
2353
 21
-98.75
  0
ENDBLK
  5
B6
330
B4
100
AcDbEntity
  8
0
100
AcDbBlockEnd
  0
BLOCK
  5
B8
330
B7
100
AcDbEntity
  8
0
100
AcDbBlockBegin
  2
*D8
 70
    1
 10
0
 20
0
  3
*D8
  1

  0
LINE
  5
19B
100
AcDbEntity
  8
Dims
  6
ByBlock
 62
    0
370
   -2
100
AcDbLine
 10
1673
 20
680
 11
1695
 21
680
  0
SOLID
  5
19C
100
AcDbEntity
  8
Dims
  6
ByBlock
 62
    0
370
   -2
100
AcDbTrace
 10
1673
 20
680
 30
0
 11
1675.5
 21
680.4162846577728
 31
0
 12
1675.5
 22
679.5837153422272
 32
0
 13
1675.5
 23
679.5837153422272
 33
0
  0
SOLID
  5
19D
100
AcDbEntity
  8
Dims
  6
ByBlock
 62
    0
370
   -2
100
AcDbTrace
 10
1695
 20
680
 30
0
 11
1692.5
 21
679.5837153422272
 31
0
 12
1692.5
 22
680.4162846577728
 32
0
 13
1692.5
 23
680.4162846577728
 33
0
  0
MTEXT
  5
19E
100
AcDbEntity
  8
Dims
  6
CONTINUOUS
 62
    0
370
   -2
100
AcDbMText
 10
1684
 20
683.125
 30
0
 40
5
 41
11.66666666666667
 71
    5
 72
    1
  1
22.0
  7
standard
210
0
220
0
230
1
 50
0
 73
    2
 44
1
  0
LINE
  5
19F
100
AcDbEntity
  8
Dims
  6
ByBlock
 62
    0
370
   -2
100
AcDbLine
 10
1673
 20
670.625
 11
1673
 21
681.25
  0
LINE
  5
1A0
100
AcDbEntity
  8
Dims
  6
ByBlock
 62
    0
370
   -2
100
AcDbLine
 10
1695
 20
670.625
 11
1695
 21
681.25
  0
ENDBLK
  5
B9
330
B7
100
AcDbEntity
  8
0
100
AcDbBlockEnd
  0
BLOCK
  5
BB
330
BA
100
AcDbEntity
  8
0
100
AcDbBlockBegin
  2
*D46
 70
    1
 10
0
 20
0
  3
*D46
  1

  0
LINE
  5
1A1
100
AcDbEntity
  8
Dims
  6
ByBlock
 62
    0
370
   -2
100
AcDbLine
 10
1305
 20
520
 11
1420
 21
520
  0
SOLID
  5
1A2
100
AcDbEntity
  8
Dims
  6
ByBlock
 62
    0
370
   -2
100
AcDbTrace
 10
1305
 20
520
 30
0
 11
1307.5
 21
520.4162846577728
 31
0
 12
1307.5
 22
519.5837153422272
 32
0
 13
1307.5
 23
519.5837153422272
 33
0
  0
SOLID
  5
1A3
100
AcDbEntity
  8
Dims
  6
ByBlock
 62
    0
370
   -2
100
AcDbTrace
 10
1420
 20
520
 30
0
 11
1417.5
 21
519.5837153422272
 31
0
 12
1417.5
 22
520.4162846577728
 32
0
 13
1417.5
 23
520.4162846577728
 33
0
  0
MTEXT
  5
1A4
100
AcDbEntity
  8
Dims
  6
CONTINUOUS
 62
    0
370
   -2
100
AcDbMText
 10
1362.5
 20
523.125
 30
0
 40
5
 41
13.33333333333365
 71
    5
 72
    1
  1
115.0
  7
standard
210
0
220
0
230
1
 50
0
 73
    2
 44
1
  0
LINE
  5
1A5
100
AcDbEntity
  8
Dims
  6
ByBlock
 62
    0
370
   -2
100
AcDbLine
 10
1305
 20
529.375
 11
1305
 21
518.75
  0
LINE
  5
1A6
100
AcDbEntity
  8
Dims
  6
ByBlock
 62
    0
370
   -2
100
AcDbLine
 10
1420
 20
529.375
 11
1420
 21
518.75
  0
ENDBLK
  5
BC
330
BA
100
AcDbEntity
  8
0
100
AcDbBlockEnd
  0
BLOCK
  5
BE
330
BD
100
AcDbEntity
  8
0
100
AcDbBlockBegin
  2
*D29
 70
    1
 10
0
 20
0
  3
*D29
  1

  0
LINE
  5
1A7
100
AcDbEntity
  8
Cuts
  6
ByBlock
 62
    0
370
   -2
100
AcDbLine
 10
3564
 20
-100
 11
3579
 21
-100
  0
SOLID
  5
1A8
100
AcDbEntity
  8
Cuts
  6
ByBlock
 62
    0
370
   -2
100
AcDbTrace
 10
3569
 20
-100
 30
0
 11
3566.5
 21
-100.4162846577728
 31
0
 12
3566.5
 22
-99.58371534222717
 32
0
 13
3566.5
 23
-99.58371534222717
 33
0
  0
SOLID
  5
1A9
100
AcDbEntity
  8
Cuts
  6
ByBlock
 62
    0
370
   -2
100
AcDbTrace
 10
3574
 20
-100
 30
0
 11
3576.5
 21
-99.58371534222717
 31
0
 12
3576.5
 22
-100.4162846577728
 32
0
 13
3576.5
 23
-100.4162846577728
 33
0
  0
MTEXT
  5
1AA
100
AcDbEntity
  8
Cuts
  6
CONTINUOUS
 62
    0
370
   -2
100
AcDbMText
 10
3578.513888888889
 20
-96.875
 30
0
 40
5
 41
7.777777777778088
 71
    5
 72
    1
  1
5.0
  7
standard
210
0
220
0
230
1
 50
0
 73
    2
 44
1
  0
LINE
  5
1AB
100
AcDbEntity
  8
Cuts
  6
ByBlock
 62
    0
370
   -2
100
AcDbLine
 10
3569
 20
-149.375
 11
3569
 21
-98.75
  0
LINE
  5
1AC
100
AcDbEntity
  8
Cuts
  6
ByBlock
 62
    0
370
   -2
100
AcDbLine
 10
3574
 20
-149.375
 11
3574
 21
-98.75
  0
ENDBLK
  5
BF
330
BD
100
AcDbEntity
  8
0
100
AcDbBlockEnd
  0
BLOCK
  5
C1
330
C0
100
AcDbEntity
  8
0
100
AcDbBlockBegin
  2
*D22
 70
    1
 10
0
 20
0
  3
*D22
  1

  0
LINE
  5
1AD
100
AcDbEntity
  8
Dims
  6
ByBlock
 62
    0
370
   -2
100
AcDbLine
 10
1288
 20
85
 11
1212
 21
85
  0
SOLID
  5
1AE
100
AcDbEntity
  8
Dims
  6
ByBlock
 62
    0
370
   -2
100
AcDbTrace
 10
1288
 20
85
 30
0
 11
1285.5
 21
84.58371534222717
 31
0
 12
1285.5
 22
85.41628465777283
 32
0
 13
1285.5
 23
85.41628465777283
 33
0
  0
SOLID
  5
1AF
100
AcDbEntity
  8
Dims
  6
ByBlock
 62
    0
370
   -2
100
AcDbTrace
 10
1212
 20
85
 30
0
 11
1214.5
 21
85.41628465777283
 31
0
 12
1214.5
 22
84.58371534222717
 32
0
 13
1214.5
 23
84.58371534222717
 33
0
  0
MTEXT
  5
1B0
100
AcDbEntity
  8
Dims
  6
CONTINUOUS
 62
    0
370
   -2
100
AcDbMText
 10
1250
 20
88.125
 30
0
 40
5
 41
11.66666666666698
 71
    5
 72
    1
  1
76.0
  7
standard
210
0
220
0
230
1
 50
360
 73
    2
 44
1
  0
LINE
  5
1B1
100
AcDbEntity
  8
Dims
  6
ByBlock
 62
    0
370
   -2
100
AcDbLine
 10
1288
 20
89.375
 11
1288
 21
83.75
  0
LINE
  5
1B2
100
AcDbEntity
  8
Dims
  6
ByBlock
 62
    0
370
   -2
100
AcDbLine
 10
1212
 20
89.375
 11
1212
 21
83.75
  0
ENDBLK
  5
C2
330
C0
100
AcDbEntity
  8
0
100
AcDbBlockEnd
  0
BLOCK
  5
C4
330
C3
100
AcDbEntity
  8
0
100
AcDbBlockBegin
  2
*D23
 70
    1
 10
0
 20
0
  3
*D23
  1

  0
LINE
  5
1B3
100
AcDbEntity
  8
Dims
  6
ByBlock
 62
    0
370
   -2
100
AcDbLine
 10
1212
 20
85
 11
1200
 21
85
  0
SOLID
  5
1B4
100
AcDbEntity
  8
Dims
  6
ByBlock
 62
    0
370
   -2
100
AcDbTrace
 10
1212
 20
85
 30
0
 11
1209.5
 21
84.58371534222717
 31
0
 12
1209.5
 22
85.41628465777283
 32
0
 13
1209.5
 23
85.41628465777283
 33
0
  0
SOLID
  5
1B5
100
AcDbEntity
  8
Dims
  6
ByBlock
 62
    0
370
   -2
100
AcDbTrace
 10
1200
 20
85
 30
0
 11
1202.5
 21
85.41628465777283
 31
0
 12
1202.5
 22
84.58371534222717
 32
0
 13
1202.5
 23
84.58371534222717
 33
0
  0
MTEXT
  5
1B6
100
AcDbEntity
  8
Dims
  6
CONTINUOUS
 62
    0
370
   -2
100
AcDbMText
 10
1206
 20
88.125
 30
0
 40
5
 41
10.55555555555556
 71
    5
 72
    1
  1
12.0
  7
standard
210
0
220
0
230
1
 50
360
 73
    2
 44
1
  0
LINE
  5
1B7
100
AcDbEntity
  8
Dims
  6
ByBlock
 62
    0
370
   -2
100
AcDbLine
 10
1212
 20
89.375
 11
1212
 21
83.75
  0
LINE
  5
1B8
100
AcDbEntity
  8
Dims
  6
ByBlock
 62
    0
370
   -2
100
AcDbLine
 10
1200
 20
89.375
 11
1200
 21
83.75
  0
ENDBLK
  5
C5
330
C3
100
AcDbEntity
  8
0
100
AcDbBlockEnd
  0
BLOCK
  5
C7
330
C6
100
AcDbEntity
  8
0
100
AcDbBlockBegin
  2
*D3
 70
    1
 10
0
 20
0
  3
*D3
  1

  0
LINE
  5
1B9
100
AcDbEntity
  8
Dims
  6
ByBlock
 62
    0
370
   -2
100
AcDbLine
 10
1305
 20
680
 11
1327
 21
680
  0
SOLID
  5
1BA
100
AcDbEntity
  8
Dims
  6
ByBlock
 62
    0
370
   -2
100
AcDbTrace
 10
1305
 20
680
 30
0
 11
1307.5
 21
680.4162846577728
 31
0
 12
1307.5
 22
679.5837153422272
 32
0
 13
1307.5
 23
679.5837153422272
 33
0
  0
SOLID
  5
1BB
100
AcDbEntity
  8
Dims
  6
ByBlock
 62
    0
370
   -2
100
AcDbTrace
 10
1327
 20
680
 30
0
 11
1324.5
 21
679.5837153422272
 31
0
 12
1324.5
 22
680.4162846577728
 32
0
 13
1324.5
 23
680.4162846577728
 33
0
  0
MTEXT
  5
1BC
100
AcDbEntity
  8
Dims
  6
CONTINUOUS
 62
    0
370
   -2
100
AcDbMText
 10
1316
 20
683.125
 30
0
 40
5
 41
11.66666666666667
 71
    5
 72
    1
  1
22.0
  7
standard
210
0
220
0
230
1
 50
0
 73
    2
 44
1
  0
LINE
  5
1BD
100
AcDbEntity
  8
Dims
  6
ByBlock
 62
    0
370
   -2
100
AcDbLine
 10
1305
 20
670.625
 11
1305
 21
681.25
  0
LINE
  5
1BE
100
AcDbEntity
  8
Dims
  6
ByBlock
 62
    0
370
   -2
100
AcDbLine
 10
1327
 20
670.625
 11
1327
 21
681.25
  0
ENDBLK
  5
C8
330
C6
100
AcDbEntity
  8
0
100
AcDbBlockEnd
  0
BLOCK
  5
CA
330
C9
100
AcDbEntity
  8
0
100
AcDbBlockBegin
  2
*D7
 70
    1
 10
0
 20
0
  3
*D7
  1

  0
LINE
  5
1BF
100
AcDbEntity
  8
Dims
  6
ByBlock
 62
    0
370
   -2
100
AcDbLine
 10
1538
 20
680
 11
1673
 21
680
  0
SOLID
  5
1C0
100
AcDbEntity
  8
Dims
  6
ByBlock
 62
    0
370
   -2
100
AcDbTrace
 10
1538
 20
680
 30
0
 11
1540.5
 21
680.4162846577728
 31
0
 12
1540.5
 22
679.5837153422272
 32
0
 13
1540.5
 23
679.5837153422272
 33
0
  0
SOLID
  5
1C1
100
AcDbEntity
  8
Dims
  6
ByBlock
 62
    0
370
   -2
100
AcDbTrace
 10
1673
 20
680
 30
0
 11
1670.5
 21
679.5837153422272
 31
0
 12
1670.5
 22
680.4162846577728
 32
0
 13
1670.5
 23
680.4162846577728
 33
0
  0
MTEXT
  5
1C2
100
AcDbEntity
  8
Dims
  6
CONTINUOUS
 62
    0
370
   -2
100
AcDbMText
 10
1605.5
 20
683.125
 30
0
 40
5
 41
14.44444444444506
 71
    5
 72
    1
  1
135.0
  7
standard
210
0
220
0
230
1
 50
0
 73
    2
 44
1
  0
LINE
  5
1C3
100
AcDbEntity
  8
Dims
  6
ByBlock
 62
    0
370
   -2
100
AcDbLine
 10
1538
 20
670.625
 11
1538
 21
681.25
  0
LINE
  5
1C4
100
AcDbEntity
  8
Dims
  6
ByBlock
 62
    0
370
   -2
100
AcDbLine
 10
1673
 20
670.625
 11
1673
 21
681.25
  0
ENDBLK
  5
CB
330
C9
100
AcDbEntity
  8
0
100
AcDbBlockEnd
  0
BLOCK
  5
CD
330
CC
100
AcDbEntity
  8
0
100
AcDbBlockBegin
  2
*D4
 70
    1
 10
0
 20
0
  3
*D4
  1

  0
LINE
  5
1C5
100
AcDbEntity
  8
Dims
  6
ByBlock
 62
    0
370
   -2
100
AcDbLine
 10
1327
 20
680
 11
1462
 21
680
  0
SOLID
  5
1C6
100
AcDbEntity
  8
Dims
  6
ByBlock
 62
    0
370
   -2
100
AcDbTrace
 10
1327
 20
680
 30
0
 11
1329.5
 21
680.4162846577728
 31
0
 12
1329.5
 22
679.5837153422272
 32
0
 13
1329.5
 23
679.5837153422272
 33
0
  0
SOLID
  5
1C7
100
AcDbEntity
  8
Dims
  6
ByBlock
 62
    0
370
   -2
100
AcDbTrace
 10
1462
 20
680
 30
0
 11
1459.5
 21
679.5837153422272
 31
0
 12
1459.5
 22
680.4162846577728
 32
0
 13
1459.5
 23
680.4162846577728
 33
0
  0
MTEXT
  5
1C8
100
AcDbEntity
  8
Dims
  6
CONTINUOUS
 62
    0
370
   -2
100
AcDbMText
 10
1394.5
 20
683.125
 30
0
 40
5
 41
14.44444444444506
 71
    5
 72
    1
  1
135.0
  7
standard
210
0
220
0
230
1
 50
0
 73
    2
 44
1
  0
LINE
  5
1C9
100
AcDbEntity
  8
Dims
  6
ByBlock
 62
    0
370
   -2
100
AcDbLine
 10
1327
 20
670.625
 11
1327
 21
681.25
  0
LINE
  5
1CA
100
AcDbEntity
  8
Dims
  6
ByBlock
 62
    0
370
   -2
100
AcDbLine
 10
1462
 20
670.625
 11
1462
 21
681.25
  0
ENDBLK
  5
CE
330
CC
100
AcDbEntity
  8
0
100
AcDbBlockEnd
  0
BLOCK
  5
D0
330
CF
100
AcDbEntity
  8
0
100
AcDbBlockBegin
  2
*D32
 70
    1
 10
0
 20
0
  3
*D32
  1

  0
LINE
  5
1CB
100
AcDbEntity
  8
Cuts
  6
ByBlock
 62
    0
370
   -2
100
AcDbLine
 10
3151
 20
-100
 11
3166
 21
-100
  0
SOLID
  5
1CC
100
AcDbEntity
  8
Cuts
  6
ByBlock
 62
    0
370
   -2
100
AcDbTrace
 10
3156
 20
-100
 30
0
 11
3153.5
 21
-100.4162846577728
 31
0
 12
3153.5
 22
-99.58371534222717
 32
0
 13
3153.5
 23
-99.58371534222717
 33
0
  0
SOLID
  5
1CD
100
AcDbEntity
  8
Cuts
  6
ByBlock
 62
    0
370
   -2
100
AcDbTrace
 10
3161
 20
-100
 30
0
 11
3163.5
 21
-99.58371534222717
 31
0
 12
3163.5
 22
-100.4162846577728
 32
0
 13
3163.5
 23
-100.4162846577728
 33
0
  0
MTEXT
  5
1CE
100
AcDbEntity
  8
Cuts
  6
CONTINUOUS
 62
    0
370
   -2
100
AcDbMText
 10
3165.513888888889
 20
-96.875
 30
0
 40
5
 41
7.777777777778088
 71
    5
 72
    1
  1
5.0
  7
standard
210
0
220
0
230
1
 50
0
 73
    2
 44
1
  0
LINE
  5
1CF
100
AcDbEntity
  8
Cuts
  6
ByBlock
 62
    0
370
   -2
100
AcDbLine
 10
3156
 20
-149.375
 11
3156
 21
-98.75
  0
LINE
  5
1D0
100
AcDbEntity
  8
Cuts
  6
ByBlock
 62
    0
370
   -2
100
AcDbLine
 10
3161
 20
-149.375
 11
3161
 21
-98.75
  0
ENDBLK
  5
D1
330
CF
100
AcDbEntity
  8
0
100
AcDbBlockEnd
  0
BLOCK
  5
D3
330
D2
100
AcDbEntity
  8
0
100
AcDbBlockBegin
  2
*D16
 70
    1
 10
0
 20
0
  3
*D16
  1

  0
LINE
  5
1D1
100
AcDbEntity
  8
Cuts
  6
ByBlock
 62
    0
370
   -2
100
AcDbLine
 10
2500
 20
-550
 11
2515
 21
-550
  0
SOLID
  5
1D2
100
AcDbEntity
  8
Cuts
  6
ByBlock
 62
    0
370
   -2
100
AcDbTrace
 10
2505
 20
-550
 30
0
 11
2502.5
 21
-550.4162846577728
 31
0
 12
2502.5
 22
-549.5837153422272
 32
0
 13
2502.5
 23
-549.5837153422272
 33
0
  0
SOLID
  5
1D3
100
AcDbEntity
  8
Cuts
  6
ByBlock
 62
    0
370
   -2
100
AcDbTrace
 10
2510
 20
-550
 30
0
 11
2512.5
 21
-549.5837153422272
 31
0
 12
2512.5
 22
-550.4162846577728
 32
0
 13
2512.5
 23
-550.4162846577728
 33
0
  0
MTEXT
  5
1D4
100
AcDbEntity
  8
Cuts
  6
CONTINUOUS
 62
    0
370
   -2
100
AcDbMText
 10
2514.513888888889
 20
-546.875
 30
0
 40
5
 41
7.777777777778088
 71
    5
 72
    1
  1
5.0
  7
standard
210
0
220
0
230
1
 50
0
 73
    2
 44
1
  0
LINE
  5
1D5
100
AcDbEntity
  8
Cuts
  6
ByBlock
 62
    0
370
   -2
100
AcDbLine
 10
2505
 20
-500.625
 11
2505
 21
-551.25
  0
LINE
  5
1D6
100
AcDbEntity
  8
Cuts
  6
ByBlock
 62
    0
370
   -2
100
AcDbLine
 10
2510
 20
-500.625
 11
2510
 21
-551.25
  0
ENDBLK
  5
D4
330
D2
100
AcDbEntity
  8
0
100
AcDbBlockEnd
  0
BLOCK
  5
D6
330
D5
100
AcDbEntity
  8
0
100
AcDbBlockBegin
  2
*D2
 70
    1
 10
0
 20
0
  3
*D2
  1

  0
LINE
  5
1D7
100
AcDbEntity
  8
Dims
  6
ByBlock
 62
    0
370
   -2
100
AcDbLine
 10
1800
 20
-20
 11
1200
 21
-20
  0
SOLID
  5
1D8
100
AcDbEntity
  8
Dims
  6
ByBlock
 62
    0
370
   -2
100
AcDbTrace
 10
1800
 20
-20
 30
0
 11
1797.5
 21
-20.41628465777284
 31
0
 12
1797.5
 22
-19.58371534222716
 32
0
 13
1797.5
 23
-19.58371534222716
 33
0
  0
SOLID
  5
1D9
100
AcDbEntity
  8
Dims
  6
ByBlock
 62
    0
370
   -2
100
AcDbTrace
 10
1200
 20
-20
 30
0
 11
1202.5
 21
-19.58371534222716
 31
0
 12
1202.5
 22
-20.41628465777284
 32
0
 13
1202.5
 23
-20.41628465777284
 33
0
  0
MTEXT
  5
1DA
100
AcDbEntity
  8
Dims
  6
CONTINUOUS
 62
    0
370
   -2
100
AcDbMText
 10
1500
 20
-16.875
 30
0
 40
5
 41
15.55555555555587
 71
    5
 72
    1
  1
600.0
  7
standard
210
0
220
0
230
1
 50
360
 73
    2
 44
1
  0
LINE
  5
1DB
100
AcDbEntity
  8
Dims
  6
ByBlock
 62
    0
370
   -2
100
AcDbLine
 10
1800
 20
-0.625
 11
1800
 21
-21.25
  0
LINE
  5
1DC
100
AcDbEntity
  8
Dims
  6
ByBlock
 62
    0
370
   -2
100
AcDbLine
 10
1200
 20
-0.625
 11
1200
 21
-21.25
  0
ENDBLK
  5
D7
330
D5
100
AcDbEntity
  8
0
100
AcDbBlockEnd
  0
BLOCK
  5
D9
330
D8
100
AcDbEntity
  8
0
100
AcDbBlockBegin
  2
*D36
 70
    1
 10
0
 20
0
  3
*D36
  1

  0
LINE
  5
1DD
100
AcDbEntity
  8
Dims
  6
ByBlock
 62
    0
370
   -2
100
AcDbLine
 10
1327
 20
690
 11
1673
 21
690
  0
SOLID
  5
1DE
100
AcDbEntity
  8
Dims
  6
ByBlock
 62
    0
370
   -2
100
AcDbTrace
 10
1327
 20
690
 30
0
 11
1329.5
 21
690.4162846577728
 31
0
 12
1329.5
 22
689.5837153422272
 32
0
 13
1329.5
 23
689.5837153422272
 33
0
  0
SOLID
  5
1DF
100
AcDbEntity
  8
Dims
  6
ByBlock
 62
    0
370
   -2
100
AcDbTrace
 10
1673
 20
690
 30
0
 11
1670.5
 21
689.5837153422272
 31
0
 12
1670.5
 22
690.4162846577728
 32
0
 13
1670.5
 23
690.4162846577728
 33
0
  0
MTEXT
  5
1E0
100
AcDbEntity
  8
Dims
  6
CONTINUOUS
 62
    0
370
   -2
100
AcDbMText
 10
1500
 20
693.125
 30
0
 40
5
 41
16.11111111111173
 71
    5
 72
    1
  1
346.0
  7
standard
210
0
220
0
230
1
 50
0
 73
    2
 44
1
  0
LINE
  5
1E1
100
AcDbEntity
  8
Dims
  6
ByBlock
 62
    0
370
   -2
100
AcDbLine
 10
1327
 20
699.375
 11
1327
 21
688.75
  0
LINE
  5
1E2
100
AcDbEntity
  8
Dims
  6
ByBlock
 62
    0
370
   -2
100
AcDbLine
 10
1673
 20
699.375
 11
1673
 21
688.75
  0
ENDBLK
  5
DA
330
D8
100
AcDbEntity
  8
0
100
AcDbBlockEnd
  0
BLOCK
  5
DC
330
DB
100
AcDbEntity
  8
0
100
AcDbBlockBegin
  2
*D18
 70
    1
 10
0
 20
0
  3
*D18
  1

  0
LINE
  5
1E3
100
AcDbEntity
  8
Cuts
  6
ByBlock
 62
    0
370
   -2
100
AcDbLine
 10
3105
 20
-550
 11
3120
 21
-550
  0
SOLID
  5
1E4
100
AcDbEntity
  8
Cuts
  6
ByBlock
 62
    0
370
   -2
100
AcDbTrace
 10
3110
 20
-550
 30
0
 11
3107.5
 21
-550.4162846577728
 31
0
 12
3107.5
 22
-549.5837153422272
 32
0
 13
3107.5
 23
-549.5837153422272
 33
0
  0
SOLID
  5
1E5
100
AcDbEntity
  8
Cuts
  6
ByBlock
 62
    0
370
   -2
100
AcDbTrace
 10
3115
 20
-550
 30
0
 11
3117.5
 21
-549.5837153422272
 31
0
 12
3117.5
 22
-550.4162846577728
 32
0
 13
3117.5
 23
-550.4162846577728
 33
0
  0
MTEXT
  5
1E6
100
AcDbEntity
  8
Cuts
  6
CONTINUOUS
 62
    0
370
   -2
100
AcDbMText
 10
3119.513888888889
 20
-546.875
 30
0
 40
5
 41
7.777777777778088
 71
    5
 72
    1
  1
5.0
  7
standard
210
0
220
0
230
1
 50
0
 73
    2
 44
1
  0
LINE
  5
1E7
100
AcDbEntity
  8
Cuts
  6
ByBlock
 62
    0
370
   -2
100
AcDbLine
 10
3110
 20
-500.625
 11
3110
 21
-551.25
  0
LINE
  5
1E8
100
AcDbEntity
  8
Cuts
  6
ByBlock
 62
    0
370
   -2
100
AcDbLine
 10
3115
 20
-500.625
 11
3115
 21
-551.25
  0
ENDBLK
  5
DD
330
DB
100
AcDbEntity
  8
0
100
AcDbBlockEnd
  0
BLOCK
  5
DF
330
DE
100
AcDbEntity
  8
0
100
AcDbBlockBegin
  2
*D37
 70
    1
 10
0
 20
0
  3
*D37
  1

  0
LINE
  5
1E9
100
AcDbEntity
  8
Dims
  6
ByBlock
 62
    0
370
   -2
100
AcDbLine
 10
2127
 20
660
 11
2917
 21
660
  0
SOLID
  5
1EA
100
AcDbEntity
  8
Dims
  6
ByBlock
 62
    0
370
   -2
100
AcDbTrace
 10
2127
 20
660
 30
0
 11
2129.5
 21
660.4162846577728
 31
0
 12
2129.5
 22
659.5837153422272
 32
0
 13
2129.5
 23
659.5837153422272
 33
0
  0
SOLID
  5
1EB
100
AcDbEntity
  8
Dims
  6
ByBlock
 62
    0
370
   -2
100
AcDbTrace
 10
2917
 20
660
 30
0
 11
2914.5
 21
659.5837153422272
 31
0
 12
2914.5
 22
660.4162846577728
 32
0
 13
2914.5
 23
660.4162846577728
 33
0
  0
MTEXT
  5
1EC
100
AcDbEntity
  8
Dims
  6
CONTINUOUS
 62
    0
370
   -2
100
AcDbMText
 10
2522
 20
663.125
 30
0
 40
5
 41
15.55555555555556
 71
    5
 72
    1
  1
790.0
  7
standard
210
0
220
0
230
1
 50
0
 73
    2
 44
1
  0
LINE
  5
1ED
100
AcDbEntity
  8
Dims
  6
ByBlock
 62
    0
370
   -2
100
AcDbLine
 10
2127
 20
650.625
 11
2127
 21
661.25
  0
LINE
  5
1EE
100
AcDbEntity
  8
Dims
  6
ByBlock
 62
    0
370
   -2
100
AcDbLine
 10
2917
 20
650.625
 11
2917
 21
661.25
  0
ENDBLK
  5
E0
330
DE
100
AcDbEntity
  8
0
100
AcDbBlockEnd
  0
BLOCK
  5
E2
330
E1
100
AcDbEntity
  8
0
100
AcDbBlockBegin
  2
*D43
 70
    1
 10
0
 20
0
  3
*D43
  1

  0
LINE
  5
1EF
100
AcDbEntity
  8
Dims
  6
ByBlock
 62
    0
370
   -2
100
AcDbLine
 10
1750
 20
83
 11
1705
 21
83
  0
SOLID
  5
1F0
100
AcDbEntity
  8
Dims
  6
ByBlock
 62
    0
370
   -2
100
AcDbTrace
 10
1750
 20
83
 30
0
 11
1747.5
 21
82.58371534222717
 31
0
 12
1747.5
 22
83.41628465777283
 32
0
 13
1747.5
 23
83.41628465777283
 33
0
  0
SOLID
  5
1F1
100
AcDbEntity
  8
Dims
  6
ByBlock
 62
    0
370
   -2
100
AcDbTrace
 10
1705
 20
83
 30
0
 11
1707.5
 21
83.41628465777283
 31
0
 12
1707.5
 22
82.58371534222717
 32
0
 13
1707.5
 23
82.58371534222717
 33
0
  0
MTEXT
  5
1F2
100
AcDbEntity
  8
Dims
  6
CONTINUOUS
 62
    0
370
   -2
100
AcDbMText
 10
1727.5
 20
86.125
 30
0
 40
5
 41
12.22222222222253
 71
    5
 72
    1
  1
45.0
  7
standard
210
0
220
0
230
1
 50
360
 73
    2
 44
1
  0
LINE
  5
1F3
100
AcDbEntity
  8
Dims
  6
ByBlock
 62
    0
370
   -2
100
AcDbLine
 10
1750
 20
89.375
 11
1750
 21
81.75
  0
LINE
  5
1F4
100
AcDbEntity
  8
Dims
  6
ByBlock
 62
    0
370
   -2
100
AcDbLine
 10
1705
 20
89.375
 11
1705
 21
81.75
  0
ENDBLK
  5
E3
330
E1
100
AcDbEntity
  8
0
100
AcDbBlockEnd
  0
BLOCK
  5
E5
330
E4
100
AcDbEntity
  8
0
100
AcDbBlockBegin
  2
*D44
 70
    1
 10
0
 20
0
  3
*D44
  1

  0
LINE
  5
1F5
100
AcDbEntity
  8
Dims
  6
ByBlock
 62
    0
370
   -2
100
AcDbLine
 10
1750
 20
83
 11
1795
 21
83
  0
SOLID
  5
1F6
100
AcDbEntity
  8
Dims
  6
ByBlock
 62
    0
370
   -2
100
AcDbTrace
 10
1750
 20
83
 30
0
 11
1752.5
 21
83.41628465777283
 31
0
 12
1752.5
 22
82.58371534222717
 32
0
 13
1752.5
 23
82.58371534222717
 33
0
  0
SOLID
  5
1F7
100
AcDbEntity
  8
Dims
  6
ByBlock
 62
    0
370
   -2
100
AcDbTrace
 10
1795
 20
83
 30
0
 11
1792.5
 21
82.58371534222717
 31
0
 12
1792.5
 22
83.41628465777283
 32
0
 13
1792.5
 23
83.41628465777283
 33
0
  0
MTEXT
  5
1F8
100
AcDbEntity
  8
Dims
  6
CONTINUOUS
 62
    0
370
   -2
100
AcDbMText
 10
1772.5
 20
86.125
 30
0
 40
5
 41
12.22222222222253
 71
    5
 72
    1
  1
45.0
  7
standard
210
0
220
0
230
1
 50
0
 73
    2
 44
1
  0
LINE
  5
1F9
100
AcDbEntity
  8
Dims
  6
ByBlock
 62
    0
370
   -2
100
AcDbLine
 10
1750
 20
89.375
 11
1750
 21
81.75
  0
LINE
  5
1FA
100
AcDbEntity
  8
Dims
  6
ByBlock
 62
    0
370
   -2
100
AcDbLine
 10
1795
 20
89.375
 11
1795
 21
81.75
  0
ENDBLK
  5
E6
330
E4
100
AcDbEntity
  8
0
100
AcDbBlockEnd
  0
ENDSEC
  0
SECTION
  2
ENTITIES
  0
LINE
  5
1FB
100
AcDbEntity
  8
00-MachineBase
  6
ByLayer
 62
  256
370
   -1
100
AcDbLine
 10
100
 20
100
 11
100
 21
470
  0
LINE
  5
1FC
100
AcDbEntity
  8
00-MachineBase
  6
ByLayer
 62
  256
370
   -1
100
AcDbLine
 10
100
 20
470
 11
128
 21
470
  0
LINE
  5
1FD
100
AcDbEntity
  8
00-MachineBase
  6
ByLayer
 62
  256
370
   -1
100
AcDbLine
 10
128
 20
470
 11
128
 21
100
  0
LINE
  5
1FE
100
AcDbEntity
  8
00-MachineBase
  6
ByLayer
 62
  256
370
   -1
100
AcDbLine
 10
128
 20
100
 11
100
 21
100
  0
CIRCLE
  5
1FF
100
AcDbEntity
  8
00-MachineBase
  6
ByLayer
 62
  256
370
   -1
100
AcDbCircle
 10
114
 20
112
 40
5
  0
CIRCLE
  5
200
100
AcDbEntity
  8
00-MachineBase
  6
ByLayer
 62
  256
370
   -1
100
AcDbCircle
 10
114
 20
458
 40
5
  0
LINE
  5
201
100
AcDbEntity
  8
00-MachineBase
  6
ByLayer
 62
  256
370
   -1
100
AcDbLine
 10
892
 20
100
 11
892
 21
470
  0
LINE
  5
202
100
AcDbEntity
  8
00-MachineBase
  6
ByLayer
 62
  256
370
   -1
100
AcDbLine
 10
892
 20
470
 11
920
 21
470
  0
LINE
  5
203
100
AcDbEntity
  8
00-MachineBase
  6
ByLayer
 62
  256
370
   -1
100
AcDbLine
 10
920
 20
470
 11
920
 21
100
  0
LINE
  5
204
100
AcDbEntity
  8
00-MachineBase
  6
ByLayer
 62
  256
370
   -1
100
AcDbLine
 10
920
 20
100
 11
892
 21
100
  0
CIRCLE
  5
205
100
AcDbEntity
  8
00-MachineBase
  6
ByLayer
 62
  256
370
   -1
100
AcDbCircle
 10
906
 20
112
 40
5
  0
CIRCLE
  5
206
100
AcDbEntity
  8
00-MachineBase
  6
ByLayer
 62
  256
370
   -1
100
AcDbCircle
 10
906
 20
458
 40
5
  0
LINE
  5
207
100
AcDbEntity
  8
01-BaseFrame
  6
ByLayer
 62
  256
370
   -1
100
AcDbLine
 10
1305
 20
600
 11
1695
 21
600
  0
LINE
  5
208
100
AcDbEntity
  8
01-BaseFrame
  6
ByLayer
 62
  256
370
   -1
100
AcDbLine
 10
1695
 20
600
 11
1695
 21
594
  0
LINE
  5
209
100
AcDbEntity
  8
01-BaseFrame
  6
ByLayer
 62
  256
370
   -1
100
AcDbLine
 10
1695
 20
594
 11
1305
 21
594
  0
LINE
  5
20A
100
AcDbEntity
  8
01-BaseFrame
  6
ByLayer
 62
  256
370
   -1
100
AcDbLine
 10
1305
 20
594
 11
1305
 21
600
  0
LINE
  5
20B
100
AcDbEntity
  8
01-BaseFrame
  6
ByLayer
 62
  256
370
   -1
100
AcDbLine
 10
1322
 20
600
 11
1322
 21
594
  0
LINE
  5
20C
100
AcDbEntity
  8
01-BaseFrame
  6
ByLayer
 62
  256
370
   -1
100
AcDbLine
 10
1332
 20
600
 11
1332
 21
594
  0
LINE
  5
20D
100
AcDbEntity
  8
01-BaseFrame
  6
ByLayer
 62
  256
370
   -1
100
AcDbLine
 10
1678
 20
600
 11
1678
 21
594
  0
LINE
  5
20E
100
AcDbEntity
  8
01-BaseFrame
  6
ByLayer
 62
  256
370
   -1
100
AcDbLine
 10
1668
 20
594
 11
1668
 21
600
  0
LINE
  5
20F
100
AcDbEntity
  8
01-BaseFrame
  6
ByLayer
 62
  256
370
   -1
100
AcDbLine
 10
1305
 20
594
 11
1305
 21
544
  0
LINE
  5
210
100
AcDbEntity
  8
01-BaseFrame
  6
ByLayer
 62
  256
370
   -1
100
AcDbLine
 10
1305
 20
544
 11
1695
 21
544
  0
LINE
  5
211
100
AcDbEntity
  8
01-BaseFrame
  6
ByLayer
 62
  256
370
   -1
100
AcDbLine
 10
1695
 20
544
 11
1695
 21
594
  0
LINE
  5
212
100
AcDbEntity
  8
02-CrossBraces
  6
ByLayer
 62
  256
370
   -1
100
AcDbLine
 10
1450
 20
594
 11
1450
 21
544
  0
LINE
  5
213
100
AcDbEntity
  8
02-CrossBraces
  6
ByLayer
 62
  256
370
   -1
100
AcDbLine
 10
1450
 20
544
 11
1550
 21
544
  0
LINE
  5
214
100
AcDbEntity
  8
02-CrossBraces
  6
ByLayer
 62
  256
370
   -1
100
AcDbLine
 10
1550
 20
544
 11
1550
 21
594
  0
LINE
  5
215
100
AcDbEntity
  8
02-CrossBraces
  6
ByLayer
 62
  256
370
   -1
100
AcDbLine
 10
1550
 20
594
 11
1450
 21
594
  0
LINE
  5
216
100
AcDbEntity
  8
02-CrossBraces
  6
ByLayer
 62
  256
370
   -1
100
AcDbLine
 10
1475
 20
594
 11
1475
 21
544
  0
LINE
  5
217
100
AcDbEntity
  8
02-CrossBraces
  6
ByLayer
 62
  256
370
   -1
100
AcDbLine
 10
1475
 20
544
 11
1525
 21
544
  0
LINE
  5
218
100
AcDbEntity
  8
02-CrossBraces
  6
ByLayer
 62
  256
370
   -1
100
AcDbLine
 10
1525
 20
544
 11
1525
 21
594
  0
LINE
  5
219
100
AcDbEntity
  8
02-CrossBraces
  6
ByLayer
 62
  256
370
   -1
100
AcDbLine
 10
1525
 20
594
 11
1475
 21
594
  0
CIRCLE
  5
21A
100
AcDbEntity
  8
06-Castors-86kg
  6
ByLayer
 62
  256
370
   -1
100
AcDbCircle
 10
2917
 20
40
 40
40
  0
LINE
  5
21B
100
AcDbEntity
  8
01-BaseFrame
  6
ByLayer
 62
  256
370
   -1
100
AcDbLine
 10
2892
 20
600
 11
2892
 21
100
  0
LINE
  5
21C
100
AcDbEntity
  8
01-BaseFrame
  6
ByLayer
 62
  256
370
   -1
100
AcDbLine
 10
2892
 20
100
 11
2942
 21
100
  0
LINE
  5
21D
100
AcDbEntity
  8
01-BaseFrame
  6
ByLayer
 62
  256
370
   -1
100
AcDbLine
 10
2942
 20
100
 11
2942
 21
600
  0
LINE
  5
21E
100
AcDbEntity
  8
01-BaseFrame
  6
ByLayer
 62
  256
370
   -1
100
AcDbLine
 10
2942
 20
600
 11
2892
 21
600
  0
LINE
  5
21F
100
AcDbEntity
  8
01-BaseFrame
  6
ByLayer
 62
  256
370
   -1
100
AcDbLine
 10
2892
 20
594
 11
2942
 21
594
  0
LINE
  5
220
100
AcDbEntity
  8
01-BaseFrame
  6
ByLayer
 62
  256
370
   -1
100
AcDbLine
 10
2942
 20
544
 11
2892
 21
544
  0
LINE
  5
221
100
AcDbEntity
  8
01-BaseFrame
  6
ByLayer
 62
  256
370
   -1
100
AcDbLine
 10
2942
 20
150
 11
2892
 21
150
  0
LINE
  5
222
100
AcDbEntity
  8
02-CrossBraces
  6
ByLayer
 62
  256
370
   -1
100
AcDbLine
 10
2892
 20
594
 11
2886
 21
594
  0
LINE
  5
223
100
AcDbEntity
  8
02-CrossBraces
  6
ByLayer
 62
  256
370
   -1
100
AcDbLine
 10
2886
 20
544
 11
2892
 21
544
  0
LINE
  5
224
100
AcDbEntity
  8
02-CrossBraces
  6
ByLayer
 62
  256
370
   -1
100
AcDbLine
 10
2892
 20
544
 11
2892
 21
594
  0
LINE
  5
225
100
AcDbEntity
  8
02-CrossBraces
  6
ByLayer
 62
  256
370
   -1
100
AcDbLine
 10
2892
 20
100
 11
2886
 21
100
  0
LINE
  5
226
100
AcDbEntity
  8
02-CrossBraces
  6
ByLayer
 62
  256
370
   -1
100
AcDbLine
 10
2886
 20
150
 11
2892
 21
150
  0
LINE
  5
227
100
AcDbEntity
  8
02-CrossBraces
  6
ByLayer
 62
  256
370
   -1
100
AcDbLine
 10
2892
 20
150
 11
2892
 21
100
  0
LINE
  5
228
100
AcDbEntity
  8
02-CrossBraces
  6
ByLayer
 62
  256
370
   -1
100
AcDbLine
 10
2886
 20
100
 11
2886
 21
150
  0
LINE
  5
229
100
AcDbEntity
  8
02-CrossBraces
  6
ByLayer
 62
  256
370
   -1
100
AcDbLine
 10
2886
 20
544
 11
2886
 21
594
  0
DIMENSION
  5
22A
100
AcDbEntity
  8
Dims
  6
ByLayer
 62
  256
370
   -1
100
AcDbDimension
  2
*D1
 10
1695
 20
660
 30
0
 11
1500
 21
663.125
 31
0
 70
   32
 71
    5
  3
Standard
 53
0
210
0
220
0
230
1
100
AcDbAlignedDimension
 13
1305
 23
640
 33
0
 14
1695
 24
640
 34
0
100
AcDbRotatedDimension
  0
LINE
  5
22B
100
AcDbEntity
  8
02-CrossBraces
  6
ByLayer
 62
  256
370
   -1
100
AcDbLine
 10
1700
 20
150
 11
1700
 21
100
  0
LINE
  5
22C
100
AcDbEntity
  8
02-CrossBraces
  6
ByLayer
 62
  256
370
   -1
100
AcDbLine
 10
1700
 20
100
 11
1800
 21
100
  0
LINE
  5
22D
100
AcDbEntity
  8
02-CrossBraces
  6
ByLayer
 62
  256
370
   -1
100
AcDbLine
 10
1800
 20
100
 11
1800
 21
150
  0
LINE
  5
22E
100
AcDbEntity
  8
02-CrossBraces
  6
ByLayer
 62
  256
370
   -1
100
AcDbLine
 10
1800
 20
150
 11
1700
 21
150
  0
LINE
  5
22F
100
AcDbEntity
  8
02-CrossBraces
  6
ByLayer
 62
  256
370
   -1
100
AcDbLine
 10
1725
 20
150
 11
1725
 21
100
  0
LINE
  5
230
100
AcDbEntity
  8
02-CrossBraces
  6
ByLayer
 62
  256
370
   -1
100
AcDbLine
 10
1725
 20
100
 11
1775
 21
100
  0
LINE
  5
231
100
AcDbEntity
  8
02-CrossBraces
  6
ByLayer
 62
  256
370
   -1
100
AcDbLine
 10
1775
 20
100
 11
1775
 21
150
  0
LINE
  5
232
100
AcDbEntity
  8
02-CrossBraces
  6
ByLayer
 62
  256
370
   -1
100
AcDbLine
 10
1775
 20
150
 11
1725
 21
150
  0
LINE
  5
233
100
AcDbEntity
  8
06-Castors-86kg
  6
ByLayer
 62
  256
370
   -1
100
AcDbLine
 10
1770
 20
80
 11
1730
 21
80
  0
LINE
  5
234
100
AcDbEntity
  8
06-Castors-86kg
  6
ByLayer
 62
  256
370
   -1
100
AcDbLine
 10
1730
 20
80
 11
1730
 21
0
  0
LINE
  5
235
100
AcDbEntity
  8
06-Castors-86kg
  6
ByLayer
 62
  256
370
   -1
100
AcDbLine
 10
1730
 20
0
 11
1770
 21
0
  0
LINE
  5
236
100
AcDbEntity
  8
06-Castors-86kg
  6
ByLayer
 62
  256
370
   -1
100
AcDbLine
 10
1770
 20
0
 11
1770
 21
80
  0
LINE
  5
237
100
AcDbEntity
  8
02-CrossBraces
  6
ByLayer
 62
  256
370
   -1
100
AcDbLine
 10
1200
 20
150
 11
1200
 21
100
  0
LINE
  5
238
100
AcDbEntity
  8
02-CrossBraces
  6
ByLayer
 62
  256
370
   -1
100
AcDbLine
 10
1200
 20
100
 11
1300
 21
100
  0
LINE
  5
239
100
AcDbEntity
  8
02-CrossBraces
  6
ByLayer
 62
  256
370
   -1
100
AcDbLine
 10
1300
 20
100
 11
1300
 21
150
  0
LINE
  5
23A
100
AcDbEntity
  8
02-CrossBraces
  6
ByLayer
 62
  256
370
   -1
100
AcDbLine
 10
1300
 20
150
 11
1200
 21
150
  0
LINE
  5
23B
100
AcDbEntity
  8
02-CrossBraces
  6
ByLayer
 62
  256
370
   -1
100
AcDbLine
 10
1225
 20
150
 11
1225
 21
100
  0
LINE
  5
23C
100
AcDbEntity
  8
02-CrossBraces
  6
ByLayer
 62
  256
370
   -1
100
AcDbLine
 10
1225
 20
100
 11
1275
 21
100
  0
LINE
  5
23D
100
AcDbEntity
  8
02-CrossBraces
  6
ByLayer
 62
  256
370
   -1
100
AcDbLine
 10
1275
 20
100
 11
1275
 21
150
  0
LINE
  5
23E
100
AcDbEntity
  8
02-CrossBraces
  6
ByLayer
 62
  256
370
   -1
100
AcDbLine
 10
1275
 20
150
 11
1225
 21
150
  0
LINE
  5
23F
100
AcDbEntity
  8
06-Castors-86kg
  6
ByLayer
 62
  256
370
   -1
100
AcDbLine
 10
1230
 20
80
 11
1270
 21
80
  0
LINE
  5
240
100
AcDbEntity
  8
06-Castors-86kg
  6
ByLayer
 62
  256
370
   -1
100
AcDbLine
 10
1270
 20
80
 11
1270
 21
0
  0
LINE
  5
241
100
AcDbEntity
  8
06-Castors-86kg
  6
ByLayer
 62
  256
370
   -1
100
AcDbLine
 10
1270
 20
0
 11
1230
 21
0
  0
LINE
  5
242
100
AcDbEntity
  8
06-Castors-86kg
  6
ByLayer
 62
  256
370
   -1
100
AcDbLine
 10
1230
 20
0
 11
1230
 21
80
  0
LINE
  5
243
100
AcDbEntity
  8
01-BaseFrame
  6
ByLayer
 62
  256
370
   -1
100
AcDbLine
 10
1200
 20
150
 11
1200
 21
100
  0
LINE
  5
244
100
AcDbEntity
  8
01-BaseFrame
  6
ByLayer
 62
  256
370
   -1
100
AcDbLine
 10
1800
 20
100
 11
1800
 21
150
  0
LINE
  5
245
100
AcDbEntity
  8
01-BaseFrame
  6
ByLayer
 62
  256
370
   -1
100
AcDbLine
 10
1200
 20
100
 11
1800
 21
100
  0
LINE
  5
246
100
AcDbEntity
  8
01-BaseFrame
  6
ByLayer
 62
  256
370
   -1
100
AcDbLine
 10
1800
 20
150
 11
1200
 21
150
  0
LINE
  5
247
100
AcDbEntity
  8
01-BaseFrame
  6
ByLayer
 62
  256
370
   -1
100
AcDbLine
 10
1200
 20
150
 11
1251.2
 21
150
  0
LINE
  5
248
100
AcDbEntity
  8
01-BaseFrame
  6
ByLayer
 62
  256
370
   -1
100
AcDbLine
 10
1356.76
 20
544
 11
1305
 21
544
  0
LINE
  5
249
100
AcDbEntity
  8
01-BaseFrame
  6
ByLayer
 62
  256
370
   -1
100
AcDbLine
 10
1800
 20
150
 11
1748.8
 21
150
  0
LINE
  5
24A
100
AcDbEntity
  8
01-BaseFrame
  6
ByLayer
 62
  256
370
   -1
100
AcDbLine
 10
1643.24
 20
544
 11
1695
 21
544
  0
DIMENSION
  5
24B
100
AcDbEntity
  8
Dims
  6
ByLayer
 62
  256
370
   -1
100
AcDbDimension
  2
*D2
 10
1200
 20
-20
 30
0
 11
1500
 21
-16.875
 31
0
 70
   32
 71
    5
  3
Standard
 53
0
210
0
220
0
230
1
100
AcDbAlignedDimension
 13
1800
 23
0
 33
0
 14
1200
 24
0
 34
0
100
AcDbRotatedDimension
  0
LINE
  5
24C
100
AcDbEntity
  8
02-CrossBraces
  6
ByLayer
 62
  256
370
   -1
100
AcDbLine
 10
2892
 20
117
 11
2892
 21
120
  0
LINE
  5
24D
100
AcDbEntity
  8
02-CrossBraces
  6
ByLayer
 62
  256
370
   -1
100
AcDbLine
 10
2892
 20
120
 11
2892
 21
130
  0
LINE
  5
24E
100
AcDbEntity
  8
02-CrossBraces
  6
ByLayer
 62
  256
370
   -1
100
AcDbLine
 10
2892
 20
133
 11
2892
 21
130
  0
LINE
  5
24F
100
AcDbEntity
  8
02-CrossBraces
  6
ByLayer
 62
  256
370
   -1
100
AcDbLine
 10
2892
 20
130
 11
2892
 21
120
  0
LINE
  5
250
100
AcDbEntity
  8
05-Weldnuts
  6
ByLayer
 62
  256
370
   -1
100
AcDbLine
 10
2908
 20
594
 11
2908
 21
587
  0
LINE
  5
251
100
AcDbEntity
  8
05-Weldnuts
  6
ByLayer
 62
  256
370
   -1
100
AcDbLine
 10
2908
 20
587
 11
2926
 21
587
  0
LINE
  5
252
100
AcDbEntity
  8
05-Weldnuts
  6
ByLayer
 62
  256
370
   -1
100
AcDbLine
 10
2926
 20
587
 11
2926
 21
594
  0
LINE
  5
253
100
AcDbEntity
  8
05-Weldnuts
  6
ByLayer
 62
  256
370
   -1
100
AcDbLine
 10
2926
 20
594
 11
2908
 21
594
  0
LINE
  5
254
100
AcDbEntity
  8
05-Weldnuts
  6
ByLayer
 62
  256
370
   -1
100
AcDbLine
 10
2912
 20
594
 11
2912
 21
587
  0
LINE
  5
255
100
AcDbEntity
  8
05-Weldnuts
  6
ByLayer
 62
  256
370
   -1
100
AcDbLine
 10
2922
 20
587
 11
2922
 21
594
  0
LINE
  5
256
100
AcDbEntity
  8
05-Weldnuts
  6
ByLayer
 62
  256
370
   -1
100
AcDbLine
 10
1664
 20
594
 11
1664
 21
587
  0
LINE
  5
257
100
AcDbEntity
  8
05-Weldnuts
  6
ByLayer
 62
  256
370
   -1
100
AcDbLine
 10
1664
 20
587
 11
1682
 21
587
  0
LINE
  5
258
100
AcDbEntity
  8
05-Weldnuts
  6
ByLayer
 62
  256
370
   -1
100
AcDbLine
 10
1682
 20
587
 11
1682
 21
594
  0
LINE
  5
259
100
AcDbEntity
  8
05-Weldnuts
  6
ByLayer
 62
  256
370
   -1
100
AcDbLine
 10
1682
 20
594
 11
1664
 21
594
  0
LINE
  5
25A
100
AcDbEntity
  8
05-Weldnuts
  6
ByLayer
 62
  256
370
   -1
100
AcDbLine
 10
1668
 20
594
 11
1668
 21
587
  0
LINE
  5
25B
100
AcDbEntity
  8
05-Weldnuts
  6
ByLayer
 62
  256
370
   -1
100
AcDbLine
 10
1678
 20
587
 11
1678
 21
594
  0
LINE
  5
25C
100
AcDbEntity
  8
05-Weldnuts
  6
ByLayer
 62
  256
370
   -1
100
AcDbLine
 10
1453
 20
578
 11
1471
 21
578
  0
LINE
  5
25D
100
AcDbEntity
  8
05-Weldnuts
  6
ByLayer
 62
  256
370
   -1
100
AcDbLine
 10
1471
 20
578
 11
1471
 21
560
  0
LINE
  5
25E
100
AcDbEntity
  8
05-Weldnuts
  6
ByLayer
 62
  256
370
   -1
100
AcDbLine
 10
1471
 20
560
 11
1453
 21
560
  0
LINE
  5
25F
100
AcDbEntity
  8
05-Weldnuts
  6
ByLayer
 62
  256
370
   -1
100
AcDbLine
 10
1453
 20
560
 11
1453
 21
578
  0
LINE
  5
260
100
AcDbEntity
  8
05-Weldnuts
  6
ByLayer
 62
  256
370
   -1
100
AcDbLine
 10
1529
 20
578
 11
1547
 21
578
  0
LINE
  5
261
100
AcDbEntity
  8
05-Weldnuts
  6
ByLayer
 62
  256
370
   -1
100
AcDbLine
 10
1547
 20
578
 11
1547
 21
560
  0
LINE
  5
262
100
AcDbEntity
  8
05-Weldnuts
  6
ByLayer
 62
  256
370
   -1
100
AcDbLine
 10
1547
 20
560
 11
1529
 21
560
  0
LINE
  5
263
100
AcDbEntity
  8
05-Weldnuts
  6
ByLayer
 62
  256
370
   -1
100
AcDbLine
 10
1529
 20
560
 11
1529
 21
578
  0
LINE
  5
264
100
AcDbEntity
  8
05-Weldnuts
  6
ByLayer
 62
  256
370
   -1
100
AcDbLine
 10
1221
 20
134
 11
1221
 21
116
  0
LINE
  5
265
100
AcDbEntity
  8
05-Weldnuts
  6
ByLayer
 62
  256
370
   -1
100
AcDbLine
 10
1221
 20
116
 11
1203
 21
116
  0
LINE
  5
266
100
AcDbEntity
  8
05-Weldnuts
  6
ByLayer
 62
  256
370
   -1
100
AcDbLine
 10
1203
 20
116
 11
1203
 21
134
  0
LINE
  5
267
100
AcDbEntity
  8
05-Weldnuts
  6
ByLayer
 62
  256
370
   -1
100
AcDbLine
 10
1279
 20
134
 11
1297
 21
134
  0
LINE
  5
268
100
AcDbEntity
  8
05-Weldnuts
  6
ByLayer
 62
  256
370
   -1
100
AcDbLine
 10
1297
 20
134
 11
1297
 21
116
  0
LINE
  5
269
100
AcDbEntity
  8
05-Weldnuts
  6
ByLayer
 62
  256
370
   -1
100
AcDbLine
 10
1297
 20
116
 11
1279
 21
116
  0
LINE
  5
26A
100
AcDbEntity
  8
05-Weldnuts
  6
ByLayer
 62
  256
370
   -1
100
AcDbLine
 10
1279
 20
116
 11
1279
 21
134
  0
LINE
  5
26B
100
AcDbEntity
  8
05-Weldnuts
  6
ByLayer
 62
  256
370
   -1
100
AcDbLine
 10
1703
 20
134
 11
1721
 21
134
  0
LINE
  5
26C
100
AcDbEntity
  8
05-Weldnuts
  6
ByLayer
 62
  256
370
   -1
100
AcDbLine
 10
1721
 20
134
 11
1721
 21
116
  0
LINE
  5
26D
100
AcDbEntity
  8
05-Weldnuts
  6
ByLayer
 62
  256
370
   -1
100
AcDbLine
 10
1721
 20
116
 11
1703
 21
116
  0
LINE
  5
26E
100
AcDbEntity
  8
05-Weldnuts
  6
ByLayer
 62
  256
370
   -1
100
AcDbLine
 10
1703
 20
116
 11
1703
 21
134
  0
LINE
  5
26F
100
AcDbEntity
  8
05-Weldnuts
  6
ByLayer
 62
  256
370
   -1
100
AcDbLine
 10
1779
 20
134
 11
1797
 21
134
  0
LINE
  5
270
100
AcDbEntity
  8
05-Weldnuts
  6
ByLayer
 62
  256
370
   -1
100
AcDbLine
 10
1797
 20
134
 11
1797
 21
116
  0
LINE
  5
271
100
AcDbEntity
  8
05-Weldnuts
  6
ByLayer
 62
  256
370
   -1
100
AcDbLine
 10
1797
 20
116
 11
1779
 21
116
  0
LINE
  5
272
100
AcDbEntity
  8
05-Weldnuts
  6
ByLayer
 62
  256
370
   -1
100
AcDbLine
 10
1779
 20
116
 11
1779
 21
134
  0
LINE
  5
273
100
AcDbEntity
  8
05-Weldnuts
  6
ByLayer
 62
  256
370
   -1
100
AcDbLine
 10
1318
 20
594
 11
1318
 21
587
  0
LINE
  5
274
100
AcDbEntity
  8
05-Weldnuts
  6
ByLayer
 62
  256
370
   -1
100
AcDbLine
 10
1318
 20
587
 11
1336
 21
587
  0
LINE
  5
275
100
AcDbEntity
  8
05-Weldnuts
  6
ByLayer
 62
  256
370
   -1
100
AcDbLine
 10
1336
 20
587
 11
1336
 21
594
  0
LINE
  5
276
100
AcDbEntity
  8
05-Weldnuts
  6
ByLayer
 62
  256
370
   -1
100
AcDbLine
 10
1336
 20
594
 11
1318
 21
594
  0
LINE
  5
277
100
AcDbEntity
  8
05-Weldnuts
  6
ByLayer
 62
  256
370
   -1
100
AcDbLine
 10
1322
 20
594
 11
1322
 21
587
  0
LINE
  5
278
100
AcDbEntity
  8
05-Weldnuts
  6
ByLayer
 62
  256
370
   -1
100
AcDbLine
 10
1332
 20
587
 11
1332
 21
594
  0
LINE
  5
279
100
AcDbEntity
  8
00-MachineBase
  6
ByLayer
 62
  256
370
   -1
100
AcDbLine
 10
1305
 20
600
 11
1695
 21
600
  0
LINE
  5
27A
100
AcDbEntity
  8
00-MachineBase
  6
ByLayer
 62
  256
370
   -1
100
AcDbLine
 10
1695
 20
600
 11
1695
 21
630
  0
LINE
  5
27B
100
AcDbEntity
  8
00-MachineBase
  6
ByLayer
 62
  256
370
   -1
100
AcDbLine
 10
1695
 20
630
 11
1305
 21
630
  0
LINE
  5
27C
100
AcDbEntity
  8
00-MachineBase
  6
ByLayer
 62
  256
370
   -1
100
AcDbLine
 10
1305
 20
630
 11
1305
 21
600
  0
LINE
  5
27D
100
AcDbEntity
  8
00-MachineBase
  6
ByLayer
 62
  256
370
   -1
100
AcDbLine
 10
1322
 20
600
 11
1322
 21
630
  0
LINE
  5
27E
100
AcDbEntity
  8
00-MachineBase
  6
ByLayer
 62
  256
370
   -1
100
AcDbLine
 10
1332
 20
630
 11
1332
 21
600
  0
LINE
  5
27F
100
AcDbEntity
  8
00-MachineBase
  6
ByLayer
 62
  256
370
   -1
100
AcDbLine
 10
1678
 20
600
 11
1678
 21
630
  0
LINE
  5
280
100
AcDbEntity
  8
00-MachineBase
  6
ByLayer
 62
  256
370
   -1
100
AcDbLine
 10
1668
 20
600
 11
1668
 21
630
  0
LINE
  5
281
100
AcDbEntity
  8
00-MachineBase
  6
ByLayer
 62
  256
370
   -1
100
AcDbLine
 10
2942
 20
600
 11
2942
 21
630
  0
LINE
  5
282
100
AcDbEntity
  8
00-MachineBase
  6
ByLayer
 62
  256
370
   -1
100
AcDbLine
 10
2942
 20
630
 11
2892
 21
630
  0
LINE
  5
283
100
AcDbEntity
  8
00-MachineBase
  6
ByLayer
 62
  256
370
   -1
100
AcDbLine
 10
2892
 20
630
 11
2892
 21
600
  0
LINE
  5
284
100
AcDbEntity
  8
00-MachineBase
  6
ByLayer
 62
  256
370
   -1
100
AcDbLine
 10
2892
 20
600
 11
2942
 21
600
  0
LINE
  5
285
100
AcDbEntity
  8
04-Bolts-M10
  6
ByLayer
 62
  256
370
   -1
100
AcDbLine
 10
2922
 20
580
 11
2912
 21
580
  0
LINE
  5
286
100
AcDbEntity
  8
04-Bolts-M10
  6
ByLayer
 62
  256
370
   -1
100
AcDbLine
 10
2912
 20
580
 11
2912
 21
632
  0
LINE
  5
287
100
AcDbEntity
  8
04-Bolts-M10
  6
ByLayer
 62
  256
370
   -1
100
AcDbLine
 10
2922
 20
632
 11
2922
 21
580
  0
LINE
  5
288
100
AcDbEntity
  8
04-Bolts-M10
  6
ByLayer
 62
  256
370
   -1
100
AcDbLine
 10
2912
 20
632
 11
2907
 21
632
  0
LINE
  5
289
100
AcDbEntity
  8
04-Bolts-M10
  6
ByLayer
 62
  256
370
   -1
100
AcDbLine
 10
2927
 20
632
 11
2922
 21
632
  0
LINE
  5
28A
100
AcDbEntity
  8
04-Bolts-M10
  6
ByLayer
 62
  256
370
   -1
100
AcDbLine
 10
2907
 20
632
 11
2907
 21
639
  0
LINE
  5
28B
100
AcDbEntity
  8
04-Bolts-M10
  6
ByLayer
 62
  256
370
   -1
100
AcDbLine
 10
2907
 20
639
 11
2927
 21
639
  0
LINE
  5
28C
100
AcDbEntity
  8
04-Bolts-M10
  6
ByLayer
 62
  256
370
   -1
100
AcDbLine
 10
2927
 20
639
 11
2927
 21
632
  0
LINE
  5
28D
100
AcDbEntity
  8
04-Bolts-M10
  6
ByLayer
 62
  256
370
   -1
100
AcDbLine
 10
2927
 20
632
 11
2931
 21
632
  0
LINE
  5
28E
100
AcDbEntity
  8
04-Bolts-M10
  6
ByLayer
 62
  256
370
   -1
100
AcDbLine
 10
2931
 20
632
 11
2931
 21
630
  0
LINE
  5
28F
100
AcDbEntity
  8
04-Bolts-M10
  6
ByLayer
 62
  256
370
   -1
100
AcDbLine
 10
2931
 20
630
 11
2903
 21
630
  0
LINE
  5
290
100
AcDbEntity
  8
04-Bolts-M10
  6
ByLayer
 62
  256
370
   -1
100
AcDbLine
 10
2903
 20
630
 11
2903
 21
632
  0
LINE
  5
291
100
AcDbEntity
  8
04-Bolts-M10
  6
ByLayer
 62
  256
370
   -1
100
AcDbLine
 10
2903
 20
632
 11
2927
 21
632
  0
LINE
  5
292
100
AcDbEntity
  8
04-Bolts-M10
  6
ByLayer
 62
  256
370
   -1
100
AcDbLine
 10
1678
 20
580
 11
1668
 21
580
  0
LINE
  5
293
100
AcDbEntity
  8
04-Bolts-M10
  6
ByLayer
 62
  256
370
   -1
100
AcDbLine
 10
1668
 20
580
 11
1668
 21
632
  0
LINE
  5
294
100
AcDbEntity
  8
04-Bolts-M10
  6
ByLayer
 62
  256
370
   -1
100
AcDbLine
 10
1678
 20
632
 11
1678
 21
580
  0
LINE
  5
295
100
AcDbEntity
  8
04-Bolts-M10
  6
ByLayer
 62
  256
370
   -1
100
AcDbLine
 10
1668
 20
632
 11
1663
 21
632
  0
LINE
  5
296
100
AcDbEntity
  8
04-Bolts-M10
  6
ByLayer
 62
  256
370
   -1
100
AcDbLine
 10
1683
 20
632
 11
1678
 21
632
  0
LINE
  5
297
100
AcDbEntity
  8
04-Bolts-M10
  6
ByLayer
 62
  256
370
   -1
100
AcDbLine
 10
1663
 20
632
 11
1663
 21
639
  0
LINE
  5
298
100
AcDbEntity
  8
04-Bolts-M10
  6
ByLayer
 62
  256
370
   -1
100
AcDbLine
 10
1663
 20
639
 11
1683
 21
639
  0
LINE
  5
299
100
AcDbEntity
  8
04-Bolts-M10
  6
ByLayer
 62
  256
370
   -1
100
AcDbLine
 10
1683
 20
639
 11
1683
 21
632
  0
LINE
  5
29A
100
AcDbEntity
  8
04-Bolts-M10
  6
ByLayer
 62
  256
370
   -1
100
AcDbLine
 10
1683
 20
632
 11
1687
 21
632
  0
LINE
  5
29B
100
AcDbEntity
  8
04-Bolts-M10
  6
ByLayer
 62
  256
370
   -1
100
AcDbLine
 10
1687
 20
632
 11
1687
 21
630
  0
LINE
  5
29C
100
AcDbEntity
  8
04-Bolts-M10
  6
ByLayer
 62
  256
370
   -1
100
AcDbLine
 10
1687
 20
630
 11
1659
 21
630
  0
LINE
  5
29D
100
AcDbEntity
  8
04-Bolts-M10
  6
ByLayer
 62
  256
370
   -1
100
AcDbLine
 10
1659
 20
630
 11
1659
 21
632
  0
LINE
  5
29E
100
AcDbEntity
  8
04-Bolts-M10
  6
ByLayer
 62
  256
370
   -1
100
AcDbLine
 10
1659
 20
632
 11
1683
 21
632
  0
LINE
  5
29F
100
AcDbEntity
  8
04-Bolts-M10
  6
ByLayer
 62
  256
370
   -1
100
AcDbLine
 10
1332
 20
580
 11
1322
 21
580
  0
LINE
  5
2A0
100
AcDbEntity
  8
04-Bolts-M10
  6
ByLayer
 62
  256
370
   -1
100
AcDbLine
 10
1322
 20
580
 11
1322
 21
632
  0
LINE
  5
2A1
100
AcDbEntity
  8
04-Bolts-M10
  6
ByLayer
 62
  256
370
   -1
100
AcDbLine
 10
1332
 20
632
 11
1332
 21
580
  0
LINE
  5
2A2
100
AcDbEntity
  8
04-Bolts-M10
  6
ByLayer
 62
  256
370
   -1
100
AcDbLine
 10
1322
 20
632
 11
1317
 21
632
  0
LINE
  5
2A3
100
AcDbEntity
  8
04-Bolts-M10
  6
ByLayer
 62
  256
370
   -1
100
AcDbLine
 10
1337
 20
632
 11
1332
 21
632
  0
LINE
  5
2A4
100
AcDbEntity
  8
04-Bolts-M10
  6
ByLayer
 62
  256
370
   -1
100
AcDbLine
 10
1317
 20
632
 11
1317
 21
639
  0
LINE
  5
2A5
100
AcDbEntity
  8
04-Bolts-M10
  6
ByLayer
 62
  256
370
   -1
100
AcDbLine
 10
1317
 20
639
 11
1337
 21
639
  0
LINE
  5
2A6
100
AcDbEntity
  8
04-Bolts-M10
  6
ByLayer
 62
  256
370
   -1
100
AcDbLine
 10
1337
 20
639
 11
1337
 21
632
  0
LINE
  5
2A7
100
AcDbEntity
  8
04-Bolts-M10
  6
ByLayer
 62
  256
370
   -1
100
AcDbLine
 10
1337
 20
632
 11
1341
 21
632
  0
LINE
  5
2A8
100
AcDbEntity
  8
04-Bolts-M10
  6
ByLayer
 62
  256
370
   -1
100
AcDbLine
 10
1341
 20
632
 11
1341
 21
630
  0
LINE
  5
2A9
100
AcDbEntity
  8
04-Bolts-M10
  6
ByLayer
 62
  256
370
   -1
100
AcDbLine
 10
1341
 20
630
 11
1313
 21
630
  0
LINE
  5
2AA
100
AcDbEntity
  8
04-Bolts-M10
  6
ByLayer
 62
  256
370
   -1
100
AcDbLine
 10
1313
 20
630
 11
1313
 21
632
  0
LINE
  5
2AB
100
AcDbEntity
  8
04-Bolts-M10
  6
ByLayer
 62
  256
370
   -1
100
AcDbLine
 10
1313
 20
632
 11
1337
 21
632
  0
CIRCLE
  5
2AC
100
AcDbEntity
  8
02-CrossBraces
  6
ByLayer
 62
  256
370
   -1
100
AcDbCircle
 10
1250
 20
125
 40
5
  0
CIRCLE
  5
2AD
100
AcDbEntity
  8
02-CrossBraces
  6
ByLayer
 62
  256
370
   -1
100
AcDbCircle
 10
1750
 20
125
 40
5
  0
CIRCLE
  5
2AE
100
AcDbEntity
  8
Dims
  6
ByLayer
 62
  256
370
   -1
100
AcDbCircle
 10
1750
 20
125
 40
1
  0
CIRCLE
  5
2AF
100
AcDbEntity
  8
Dims
  6
ByLayer
 62
  256
370
   -1
100
AcDbCircle
 10
1788
 20
125
 40
1
  0
CIRCLE
  5
2B0
100
AcDbEntity
  8
Dims
  6
ByLayer
 62
  256
370
   -1
100
AcDbCircle
 10
1712
 20
125
 40
1
  0
CIRCLE
  5
2B1
100
AcDbEntity
  8
Dims
  6
ByLayer
 62
  256
370
   -1
100
AcDbCircle
 10
1212
 20
125
 40
1
  0
CIRCLE
  5
2B2
100
AcDbEntity
  8
Dims
  6
ByLayer
 62
  256
370
   -1
100
AcDbCircle
 10
1250
 20
125
 40
1
  0
CIRCLE
  5
2B3
100
AcDbEntity
  8
Dims
  6
ByLayer
 62
  256
370
   -1
100
AcDbCircle
 10
1288
 20
125
 40
1
  0
CIRCLE
  5
2B4
100
AcDbEntity
  8
Dims
  6
ByLayer
 62
  256
370
   -1
100
AcDbCircle
 10
1462
 20
569
 40
1
  0
CIRCLE
  5
2B5
100
AcDbEntity
  8
Dims
  6
ByLayer
 62
  256
370
   -1
100
AcDbCircle
 10
1538
 20
569
 40
1
  0
CIRCLE
  5
2B6
100
AcDbEntity
  8
03-Sleeves-M12 i/d
  6
ByLayer
 62
  256
370
   -1
100
AcDbCircle
 10
1788
 20
125
 40
7
  0
CIRCLE
  5
2B7
100
AcDbEntity
  8
03-Sleeves-M12 i/d
  6
ByLayer
 62
  256
370
   -1
100
AcDbCircle
 10
1712
 20
125
 40
7
  0
CIRCLE
  5
2B8
100
AcDbEntity
  8
03-Sleeves-M12 i/d
  6
ByLayer
 62
  256
370
   -1
100
AcDbCircle
 10
1288
 20
125
 40
7
  0
CIRCLE
  5
2B9
100
AcDbEntity
  8
03-Sleeves-M12 i/d
  6
ByLayer
 62
  256
370
   -1
100
AcDbCircle
 10
1212
 20
125
 40
7
  0
CIRCLE
  5
2BA
100
AcDbEntity
  8
03-Sleeves-M12 i/d
  6
ByLayer
 62
  256
370
   -1
100
AcDbCircle
 10
1462
 20
569
 40
7
  0
CIRCLE
  5
2BB
100
AcDbEntity
  8
03-Sleeves-M12 i/d
  6
ByLayer
 62
  256
370
   -1
100
AcDbCircle
 10
1538
 20
569
 40
7
  0
CIRCLE
  5
2BC
100
AcDbEntity
  8
02-CrossBraces
  6
ByLayer
 62
  256
370
   -1
100
AcDbCircle
 10
1500
 20
569
 40
5
  0
CIRCLE
  5
2BD
100
AcDbEntity
  8
Dims
  6
ByLayer
 62
  256
370
   -1
100
AcDbCircle
 10
1500
 20
569
 40
1
  0
DIMENSION
  5
2BE
100
AcDbEntity
  8
Dims
  6
ByLayer
 62
  256
370
   -1
100
AcDbDimension
  2
*D3
 10
1327
 20
680
 30
0
 11
1316
 21
683.125
 31
0
 70
   32
 71
    5
  3
Standard
 53
0
210
0
220
0
230
1
100
AcDbAlignedDimension
 13
1305
 23
670
 33
0
 14
1327
 24
670
 34
0
100
AcDbRotatedDimension
  0
DIMENSION
  5
2BF
100
AcDbEntity
  8
Dims
  6
ByLayer
 62
  256
370
   -1
100
AcDbDimension
  2
*D4
 10
1462
 20
680
 30
0
 11
1394.5
 21
683.125
 31
0
 70
   32
 71
    5
  3
Standard
 53
0
210
0
220
0
230
1
100
AcDbAlignedDimension
 13
1327
 23
670
 33
0
 14
1462
 24
670
 34
0
100
AcDbRotatedDimension
  0
DIMENSION
  5
2C0
100
AcDbEntity
  8
Dims
  6
ByLayer
 62
  256
370
   -1
100
AcDbDimension
  2
*D5
 10
1500
 20
680
 30
0
 11
1481
 21
683.125
 31
0
 70
   32
 71
    5
  3
Standard
 53
0
210
0
220
0
230
1
100
AcDbAlignedDimension
 13
1462
 23
670
 33
0
 14
1500
 24
670
 34
0
100
AcDbRotatedDimension
  0
DIMENSION
  5
2C1
100
AcDbEntity
  8
Dims
  6
ByLayer
 62
  256
370
   -1
100
AcDbDimension
  2
*D6
 10
1538
 20
680
 30
0
 11
1519
 21
683.125
 31
0
 70
   32
 71
    5
  3
Standard
 53
0
210
0
220
0
230
1
100
AcDbAlignedDimension
 13
1500
 23
670
 33
0
 14
1538
 24
670
 34
0
100
AcDbRotatedDimension
  0
DIMENSION
  5
2C2
100
AcDbEntity
  8
Dims
  6
ByLayer
 62
  256
370
   -1
100
AcDbDimension
  2
*D7
 10
1673
 20
680
 30
0
 11
1605.5
 21
683.125
 31
0
 70
   32
 71
    5
  3
Standard
 53
0
210
0
220
0
230
1
100
AcDbAlignedDimension
 13
1538
 23
670
 33
0
 14
1673
 24
670
 34
0
100
AcDbRotatedDimension
  0
DIMENSION
  5
2C3
100
AcDbEntity
  8
Dims
  6
ByLayer
 62
  256
370
   -1
100
AcDbDimension
  2
*D8
 10
1695
 20
680
 30
0
 11
1684
 21
683.125
 31
0
 70
   32
 71
    5
  3
Standard
 53
0
210
0
220
0
230
1
100
AcDbAlignedDimension
 13
1673
 23
670
 33
0
 14
1695
 24
670
 34
0
100
AcDbRotatedDimension
  0
DIMENSION
  5
2C4
100
AcDbEntity
  8
Dims
  6
ByLayer
 62
  256
370
   -1
100
AcDbDimension
  2
*D9
 10
1260
 20
569
 30
0
 11
1256.875
 21
556.5
 31
0
 70
   32
 71
    5
  3
Standard
 53
0
210
0
220
0
230
1
100
AcDbAlignedDimension
 13
1270
 23
544
 33
0
 14
1270
 24
569
 34
0
 50
90
100
AcDbRotatedDimension
  0
DIMENSION
  5
2C5
100
AcDbEntity
  8
Dims
  6
ByLayer
 62
  256
370
   -1
100
AcDbDimension
  2
*D10
 10
1260
 20
594
 30
0
 11
1256.875
 21
581.5
 31
0
 70
   32
 71
    5
  3
Standard
 53
0
210
0
220
0
230
1
100
AcDbAlignedDimension
 13
1270
 23
569
 33
0
 14
1270
 24
594
 34
0
 50
90
100
AcDbRotatedDimension
  0
DIMENSION
  5
2C6
100
AcDbEntity
  8
Dims
  6
ByLayer
 62
  256
370
   -1
100
AcDbDimension
  2
*D11
 10
1260
 20
600
 30
0
 11
1256.875
 21
597
 31
0
 70
   32
 71
    5
  3
Standard
 53
0
210
0
220
0
230
1
100
AcDbAlignedDimension
 13
1270
 23
594
 33
0
 14
1270
 24
600
 34
0
 50
90
100
AcDbRotatedDimension
  0
LINE
  5
2C7
100
AcDbEntity
  8
07-PlasticCaps
  6
ByLayer
 62
  256
370
   -1
100
AcDbLine
 10
1695
 20
591
 11
1670
 21
591
  0
LINE
  5
2C8
100
AcDbEntity
  8
07-PlasticCaps
  6
ByLayer
 62
  256
370
   -1
100
AcDbLine
 10
1670
 20
591
 11
1670
 21
547
  0
LINE
  5
2C9
100
AcDbEntity
  8
07-PlasticCaps
  6
ByLayer
 62
  256
370
   -1
100
AcDbLine
 10
1670
 20
547
 11
1695
 21
547
  0
LINE
  5
2CA
100
AcDbEntity
  8
07-PlasticCaps
  6
ByLayer
 62
  256
370
   -1
100
AcDbLine
 10
1695
 20
547
 11
1695
 21
544
  0
LINE
  5
2CB
100
AcDbEntity
  8
07-PlasticCaps
  6
ByLayer
 62
  256
370
   -1
100
AcDbLine
 10
1695
 20
544
 11
1697
 21
544
  0
LINE
  5
2CC
100
AcDbEntity
  8
07-PlasticCaps
  6
ByLayer
 62
  256
370
   -1
100
AcDbLine
 10
1700
 20
547
 11
1700
 21
591
  0
LINE
  5
2CD
100
AcDbEntity
  8
07-PlasticCaps
  6
ByLayer
 62
  256
370
   -1
100
AcDbLine
 10
1697
 20
594
 11
1695
 21
594
  0
LINE
  5
2CE
100
AcDbEntity
  8
07-PlasticCaps
  6
ByLayer
 62
  256
370
   -1
100
AcDbLine
 10
1695
 20
594
 11
1695
 21
591
  0
LINE
  5
2CF
100
AcDbEntity
  8
07-PlasticCaps
  6
ByLayer
 62
  256
370
   -1
100
AcDbLine
 10
1695
 20
591
 11
1695
 21
547
  0
ARC
  5
2D0
100
AcDbEntity
  8
07-PlasticCaps
  6
ByLayer
 62
  256
370
   -1
100
AcDbCircle
 10
1697
 20
591
 40
3
100
AcDbArc
 50
0
 51
90
  0
ARC
  5
2D1
100
AcDbEntity
  8
07-PlasticCaps
  6
ByLayer
 62
  256
370
   -1
100
AcDbCircle
 10
1697
 20
547
 40
3
100
AcDbArc
 50
270
 51
0
  0
LINE
  5
2D2
100
AcDbEntity
  8
07-PlasticCaps
  6
ByLayer
 62
  256
370
   -1
100
AcDbLine
 10
1800
 20
147
 11
1775
 21
147
  0
LINE
  5
2D3
100
AcDbEntity
  8
07-PlasticCaps
  6
ByLayer
 62
  256
370
   -1
100
AcDbLine
 10
1775
 20
147
 11
1775
 21
103
  0
LINE
  5
2D4
100
AcDbEntity
  8
07-PlasticCaps
  6
ByLayer
 62
  256
370
   -1
100
AcDbLine
 10
1775
 20
103
 11
1800
 21
103
  0
LINE
  5
2D5
100
AcDbEntity
  8
07-PlasticCaps
  6
ByLayer
 62
  256
370
   -1
100
AcDbLine
 10
1800
 20
103
 11
1800
 21
100
  0
LINE
  5
2D6
100
AcDbEntity
  8
07-PlasticCaps
  6
ByLayer
 62
  256
370
   -1
100
AcDbLine
 10
1800
 20
100
 11
1802
 21
100
  0
LINE
  5
2D7
100
AcDbEntity
  8
07-PlasticCaps
  6
ByLayer
 62
  256
370
   -1
100
AcDbLine
 10
1805
 20
103
 11
1805
 21
147
  0
LINE
  5
2D8
100
AcDbEntity
  8
07-PlasticCaps
  6
ByLayer
 62
  256
370
   -1
100
AcDbLine
 10
1802
 20
150
 11
1800
 21
150
  0
LINE
  5
2D9
100
AcDbEntity
  8
07-PlasticCaps
  6
ByLayer
 62
  256
370
   -1
100
AcDbLine
 10
1800
 20
150
 11
1800
 21
147
  0
LINE
  5
2DA
100
AcDbEntity
  8
07-PlasticCaps
  6
ByLayer
 62
  256
370
   -1
100
AcDbLine
 10
1800
 20
147
 11
1800
 21
103
  0
ARC
  5
2DB
100
AcDbEntity
  8
07-PlasticCaps
  6
ByLayer
 62
  256
370
   -1
100
AcDbCircle
 10
1802
 20
147
 40
3
100
AcDbArc
 50
0
 51
90
  0
ARC
  5
2DC
100
AcDbEntity
  8
07-PlasticCaps
  6
ByLayer
 62
  256
370
   -1
100
AcDbCircle
 10
1802
 20
103
 40
3
100
AcDbArc
 50
270
 51
0
  0
LINE
  5
2DD
100
AcDbEntity
  8
07-PlasticCaps
  6
ByLayer
 62
  256
370
   -1
100
AcDbLine
 10
1305
 20
591
 11
1330
 21
591
  0
LINE
  5
2DE
100
AcDbEntity
  8
07-PlasticCaps
  6
ByLayer
 62
  256
370
   -1
100
AcDbLine
 10
1330
 20
591
 11
1330
 21
547
  0
LINE
  5
2DF
100
AcDbEntity
  8
07-PlasticCaps
  6
ByLayer
 62
  256
370
   -1
100
AcDbLine
 10
1330
 20
547
 11
1305
 21
547
  0
LINE
  5
2E0
100
AcDbEntity
  8
07-PlasticCaps
  6
ByLayer
 62
  256
370
   -1
100
AcDbLine
 10
1305
 20
547
 11
1305
 21
544
  0
LINE
  5
2E1
100
AcDbEntity
  8
07-PlasticCaps
  6
ByLayer
 62
  256
370
   -1
100
AcDbLine
 10
1305
 20
544
 11
1303
 21
544
  0
LINE
  5
2E2
100
AcDbEntity
  8
07-PlasticCaps
  6
ByLayer
 62
  256
370
   -1
100
AcDbLine
 10
1300
 20
547
 11
1300
 21
591
  0
LINE
  5
2E3
100
AcDbEntity
  8
07-PlasticCaps
  6
ByLayer
 62
  256
370
   -1
100
AcDbLine
 10
1303
 20
594
 11
1305
 21
594
  0
LINE
  5
2E4
100
AcDbEntity
  8
07-PlasticCaps
  6
ByLayer
 62
  256
370
   -1
100
AcDbLine
 10
1305
 20
594
 11
1305
 21
591
  0
LINE
  5
2E5
100
AcDbEntity
  8
07-PlasticCaps
  6
ByLayer
 62
  256
370
   -1
100
AcDbLine
 10
1305
 20
591
 11
1305
 21
547
  0
ARC
  5
2E6
100
AcDbEntity
  8
07-PlasticCaps
  6
ByLayer
 62
  256
370
   -1
100
AcDbCircle
 10
1303
 20
591
 40
3
100
AcDbArc
 50
90
 51
180
  0
ARC
  5
2E7
100
AcDbEntity
  8
07-PlasticCaps
  6
ByLayer
 62
  256
370
   -1
100
AcDbCircle
 10
1303
 20
547
 40
3
100
AcDbArc
 50
180
 51
270
  0
LINE
  5
2E8
100
AcDbEntity
  8
07-PlasticCaps
  6
ByLayer
 62
  256
370
   -1
100
AcDbLine
 10
1200
 20
147
 11
1225
 21
147
  0
LINE
  5
2E9
100
AcDbEntity
  8
07-PlasticCaps
  6
ByLayer
 62
  256
370
   -1
100
AcDbLine
 10
1225
 20
147
 11
1225
 21
103
  0
LINE
  5
2EA
100
AcDbEntity
  8
07-PlasticCaps
  6
ByLayer
 62
  256
370
   -1
100
AcDbLine
 10
1225
 20
103
 11
1200
 21
103
  0
LINE
  5
2EB
100
AcDbEntity
  8
07-PlasticCaps
  6
ByLayer
 62
  256
370
   -1
100
AcDbLine
 10
1200
 20
103
 11
1200
 21
100
  0
LINE
  5
2EC
100
AcDbEntity
  8
07-PlasticCaps
  6
ByLayer
 62
  256
370
   -1
100
AcDbLine
 10
1200
 20
100
 11
1198
 21
100
  0
LINE
  5
2ED
100
AcDbEntity
  8
07-PlasticCaps
  6
ByLayer
 62
  256
370
   -1
100
AcDbLine
 10
1195
 20
103
 11
1195
 21
147
  0
LINE
  5
2EE
100
AcDbEntity
  8
07-PlasticCaps
  6
ByLayer
 62
  256
370
   -1
100
AcDbLine
 10
1198
 20
150
 11
1200
 21
150
  0
LINE
  5
2EF
100
AcDbEntity
  8
07-PlasticCaps
  6
ByLayer
 62
  256
370
   -1
100
AcDbLine
 10
1200
 20
150
 11
1200
 21
147
  0
LINE
  5
2F0
100
AcDbEntity
  8
07-PlasticCaps
  6
ByLayer
 62
  256
370
   -1
100
AcDbLine
 10
1200
 20
147
 11
1200
 21
103
  0
ARC
  5
2F1
100
AcDbEntity
  8
07-PlasticCaps
  6
ByLayer
 62
  256
370
   -1
100
AcDbCircle
 10
1198
 20
147
 40
3
100
AcDbArc
 50
90
 51
180
  0
ARC
  5
2F2
100
AcDbEntity
  8
07-PlasticCaps
  6
ByLayer
 62
  256
370
   -1
100
AcDbCircle
 10
1198
 20
103
 40
3
100
AcDbArc
 50
180
 51
270
  0
LINE
  5
2F3
100
AcDbEntity
  8
Cuts
  6
ByLayer
 62
  256
370
   -1
100
AcDbLine
 10
1000
 20
-200
 11
4000
 21
-200
  0
LINE
  5
2F4
100
AcDbEntity
  8
Cuts
  6
ByLayer
 62
  256
370
   -1
100
AcDbLine
 10
4000
 20
-200
 11
4000
 21
-250
  0
LINE
  5
2F5
100
AcDbEntity
  8
Cuts
  6
ByLayer
 62
  256
370
   -1
100
AcDbLine
 10
4000
 20
-250
 11
1000
 21
-250
  0
LINE
  5
2F6
100
AcDbEntity
  8
Cuts
  6
ByLayer
 62
  256
370
   -1
100
AcDbLine
 10
1000
 20
-250
 11
1000
 21
-200
  0
LINE
  5
2F7
100
AcDbEntity
  8
Cuts
  6
ByLayer
 62
  256
370
   -1
100
AcDbLine
 10
1000
 20
-400
 11
4000
 21
-400
  0
LINE
  5
2F8
100
AcDbEntity
  8
Cuts
  6
ByLayer
 62
  256
370
   -1
100
AcDbLine
 10
4000
 20
-400
 11
4000
 21
-450
  0
LINE
  5
2F9
100
AcDbEntity
  8
Cuts
  6
ByLayer
 62
  256
370
   -1
100
AcDbLine
 10
4000
 20
-450
 11
1000
 21
-450
  0
LINE
  5
2FA
100
AcDbEntity
  8
Cuts
  6
ByLayer
 62
  256
370
   -1
100
AcDbLine
 10
1000
 20
-450
 11
1000
 21
-400
  0
LINE
  5
2FB
100
AcDbEntity
  8
Cuts
  6
ByLayer
 62
  256
370
   -1
100
AcDbLine
 10
2510
 20
-450
 11
2520
 21
-450
  0
LINE
  5
2FC
100
AcDbEntity
  8
Cuts
  6
ByLayer
 62
  256
370
   -1
100
AcDbLine
 10
3270
 20
-450
 11
3280
 21
-450
  0
LINE
  5
2FD
100
AcDbEntity
  8
Cuts
  6
ByLayer
 62
  256
370
   -1
100
AcDbLine
 10
3880
 20
-450
 11
3890
 21
-450
  0
LINE
  5
2FE
100
AcDbEntity
  8
Cuts
  6
ByLayer
 62
  256
370
   -1
100
AcDbLine
 10
3400
 20
-200
 11
3390
 21
-200
  0
LINE
  5
2FF
100
AcDbEntity
  8
Cuts
  6
ByLayer
 62
  256
370
   -1
100
AcDbLine
 10
3390
 20
-250
 11
2980
 21
-250
  0
LINE
  5
300
100
AcDbEntity
  8
Cuts
  6
ByLayer
 62
  256
370
   -1
100
AcDbLine
 10
2980
 20
-200
 11
2970
 21
-200
  0
LINE
  5
301
100
AcDbEntity
  8
Cuts
  6
ByLayer
 62
  256
370
   -1
100
AcDbLine
 10
2970
 20
-250
 11
2560
 21
-250
  0
LINE
  5
302
100
AcDbEntity
  8
Cuts
  6
ByLayer
 62
  256
370
   -1
100
AcDbLine
 10
2560
 20
-200
 11
2550
 21
-200
  0
LINE
  5
303
100
AcDbEntity
  8
Cuts
  6
ByLayer
 62
  256
370
   -1
100
AcDbLine
 10
2550
 20
-250
 11
2140
 21
-250
  0
LINE
  5
304
100
AcDbEntity
  8
Cuts
  6
ByLayer
 62
  256
370
   -1
100
AcDbLine
 10
2140
 20
-200
 11
2130
 21
-200
  0
LINE
  5
305
100
AcDbEntity
  8
Cuts
  6
ByLayer
 62
  256
370
   -1
100
AcDbLine
 10
2130
 20
-250
 11
1720
 21
-250
  0
LINE
  5
306
100
AcDbEntity
  8
Cuts
  6
ByLayer
 62
  256
370
   -1
100
AcDbLine
 10
1720
 20
-200
 11
1710
 21
-200
  0
LINE
  5
307
100
AcDbEntity
  8
Cuts
  6
ByLayer
 62
  256
370
   -1
100
AcDbLine
 10
1710
 20
-250
 11
1320
 21
-250
  0
LINE
  5
308
100
AcDbEntity
  8
Cuts
  6
ByLayer
 62
  256
370
   -1
100
AcDbLine
 10
1320
 20
-200
 11
1310
 21
-200
  0
DIMENSION
  5
309
100
AcDbEntity
  8
Cuts
  6
ByLayer
 62
  256
370
   -1
100
AcDbDimension
  2
*D12
 10
1000
 20
-100
 30
0
 11
1371.5
 21
-96.875
 31
0
 70
   32
 71
    5
  3
Standard
 53
0
210
0
220
0
230
1
100
AcDbAlignedDimension
 13
1743
 23
-150
 33
0
 14
1000
 24
-150
 34
0
100
AcDbRotatedDimension
  0
DIMENSION
  5
30A
100
AcDbEntity
  8
Cuts
  6
ByLayer
 62
  256
370
   -1
100
AcDbDimension
  2
*D13
 10
1750
 20
-550
 30
0
 11
1375
 21
-546.875
 31
0
 70
   32
 71
    5
  3
Standard
 53
0
210
0
220
0
230
1
100
AcDbAlignedDimension
 13
1000
 23
-500
 33
0
 14
1750
 24
-500
 34
0
100
AcDbRotatedDimension
  0
DIMENSION
  5
30B
100
AcDbEntity
  8
Cuts
  6
ByLayer
 62
  256
370
   -1
100
AcDbDimension
  2
*D14
 10
1755
 20
-550
 30
0
 11
1752.5
 21
-546.875
 31
0
 70
   32
 71
    5
  3
Standard
 53
0
210
0
220
0
230
1
100
AcDbAlignedDimension
 13
1750
 23
-500
 33
0
 14
1755
 24
-500
 34
0
100
AcDbRotatedDimension
  0
DIMENSION
  5
30C
100
AcDbEntity
  8
Cuts
  6
ByLayer
 62
  256
370
   -1
100
AcDbDimension
  2
*D15
 10
2505
 20
-550
 30
0
 11
2130
 21
-546.875
 31
0
 70
   32
 71
    5
  3
Standard
 53
0
210
0
220
0
230
1
100
AcDbAlignedDimension
 13
1755
 23
-500
 33
0
 14
2505
 24
-500
 34
0
100
AcDbRotatedDimension
  0
DIMENSION
  5
30D
100
AcDbEntity
  8
Cuts
  6
ByLayer
 62
  256
370
   -1
100
AcDbDimension
  2
*D16
 10
2510
 20
-550
 30
0
 11
2507.5
 21
-546.875
 31
0
 70
   32
 71
    5
  3
Standard
 53
0
210
0
220
0
230
1
100
AcDbAlignedDimension
 13
2505
 23
-500
 33
0
 14
2510
 24
-500
 34
0
100
AcDbRotatedDimension
  0
DIMENSION
  5
30E
100
AcDbEntity
  8
Cuts
  6
ByLayer
 62
  256
370
   -1
100
AcDbDimension
  2
*D17
 10
3110
 20
-550
 30
0
 11
2810
 21
-546.875
 31
0
 70
   32
 71
    5
  3
Standard
 53
0
210
0
220
0
230
1
100
AcDbAlignedDimension
 13
2510
 23
-500
 33
0
 14
3110
 24
-500
 34
0
100
AcDbRotatedDimension
  0
DIMENSION
  5
30F
100
AcDbEntity
  8
Cuts
  6
ByLayer
 62
  256
370
   -1
100
AcDbDimension
  2
*D18
 10
3115
 20
-550
 30
0
 11
3112.5
 21
-546.875
 31
0
 70
   32
 71
    5
  3
Standard
 53
0
210
0
220
0
230
1
100
AcDbAlignedDimension
 13
3110
 23
-500
 33
0
 14
3115
 24
-500
 34
0
100
AcDbRotatedDimension
  0
DIMENSION
  5
310
100
AcDbEntity
  8
Cuts
  6
ByLayer
 62
  256
370
   -1
100
AcDbDimension
  2
*D19
 10
3505
 20
-550
 30
0
 11
3310
 21
-546.875
 31
0
 70
   32
 71
    5
  3
Standard
 53
0
210
0
220
0
230
1
100
AcDbAlignedDimension
 13
3115
 23
-500
 33
0
 14
3505
 24
-500
 34
0
100
AcDbRotatedDimension
  0
DIMENSION
  5
311
100
AcDbEntity
  8
Dims
  6
ByLayer
 62
  256
370
   -1
100
AcDbDimension
  2
*D20
 10
1110
 20
600
 30
0
 11
1106.875
 21
300
 31
0
 70
   32
 71
    5
 72
    0
  3
Standard
 53
0
210
0
220
0
230
1
100
AcDbAlignedDimension
 13
1100
 23
0
 33
0
 14
1100
 24
600
 34
0
 50
90
100
AcDbRotatedDimension
  0
DIMENSION
  5
312
100
AcDbEntity
  8
Dims
  6
ByLayer
 62
  256
370
   -1
100
AcDbDimension
  2
*D21
 10
1200
 20
80
 30
0
 11
1350
 21
83.125
 31
0
 70
   32
 71
    5
 72
    0
  3
Standard
 53
0
210
0
220
0
230
1
100
AcDbAlignedDimension
 13
1500
 23
90
 33
0
 14
1200
 24
90
 34
0
100
AcDbRotatedDimension
  0
DIMENSION
  5
313
100
AcDbEntity
  8
Dims
  6
ByLayer
 62
  256
370
   -1
100
AcDbDimension
  2
*D22
 10
1212
 20
85
 30
0
 11
1250
 21
88.125
 31
0
 70
   32
 71
    5
 72
    0
  3
Standard
 53
0
210
0
220
0
230
1
100
AcDbAlignedDimension
 13
1288
 23
90
 33
0
 14
1212
 24
90
 34
0
100
AcDbRotatedDimension
  0
DIMENSION
  5
314
100
AcDbEntity
  8
Dims
  6
ByLayer
 62
  256
370
   -1
100
AcDbDimension
  2
*D23
 10
1200
 20
85
 30
0
 11
1206
 21
88.125
 31
0
 70
   32
 71
    5
 72
    0
  3
Standard
 53
0
210
0
220
0
230
1
100
AcDbAlignedDimension
 13
1212
 23
90
 33
0
 14
1200
 24
90
 34
0
100
AcDbRotatedDimension
  0
LINE
  5
315
100
AcDbEntity
  8
01-BaseFrame
  6
ByLayer
 62
  256
370
   -1
100
AcDbLine
 10
1317
 20
544
 11
1370.56
 21
543.99
  0
LINE
  5
316
100
AcDbEntity
  8
01-BaseFrame
  6
ByLayer
 62
  256
370
   -1
100
AcDbLine
 10
1317
 20
544
 11
1212
 21
150
  0
LINE
  5
317
100
AcDbEntity
  8
01-BaseFrame
  6
ByLayer
 62
  256
370
   -1
100
AcDbLine
 10
1263.2
 20
150
 11
1368.76
 21
544
  0
LINE
  5
318
100
AcDbEntity
  8
01-BaseFrame
  6
ByLayer
 62
  256
370
   -1
100
AcDbLine
 10
1212
 20
150
 11
1263.2
 21
150
  0
LINE
  5
319
100
AcDbEntity
  8
01-BaseFrame
  6
ByLayer
 62
  256
370
   -1
100
AcDbLine
 10
1683
 20
544
 11
1629.44
 21
543.99
  0
LINE
  5
31A
100
AcDbEntity
  8
01-BaseFrame
  6
ByLayer
 62
  256
370
   -1
100
AcDbLine
 10
1683
 20
544
 11
1788
 21
150
  0
LINE
  5
31B
100
AcDbEntity
  8
01-BaseFrame
  6
ByLayer
 62
  256
370
   -1
100
AcDbLine
 10
1736.8
 20
150
 11
1631.24
 21
544
  0
LINE
  5
31C
100
AcDbEntity
  8
01-BaseFrame
  6
ByLayer
 62
  256
370
   -1
100
AcDbLine
 10
1788
 20
150
 11
1736.8
 21
150
  0
CIRCLE
  5
31D
100
AcDbEntity
  8
03-Sleeves-M12 i/d
  6
ByLayer
 62
  256
370
   -1
100
AcDbCircle
 10
1462
 20
569
 40
6
  0
CIRCLE
  5
31E
100
AcDbEntity
  8
03-Sleeves-M12 i/d
  6
ByLayer
 62
  256
370
   -1
100
AcDbCircle
 10
1538
 20
569
 40
6
  0
CIRCLE
  5
31F
100
AcDbEntity
  8
03-Sleeves-M12 i/d
  6
ByLayer
 62
  256
370
   -1
100
AcDbCircle
 10
1288
 20
125
 40
6
  0
CIRCLE
  5
320
100
AcDbEntity
  8
03-Sleeves-M12 i/d
  6
ByLayer
 62
  256
370
   -1
100
AcDbCircle
 10
1212
 20
125
 40
6
  0
CIRCLE
  5
321
100
AcDbEntity
  8
03-Sleeves-M12 i/d
  6
ByLayer
 62
  256
370
   -1
100
AcDbCircle
 10
1712
 20
125
 40
6
  0
CIRCLE
  5
322
100
AcDbEntity
  8
03-Sleeves-M12 i/d
  6
ByLayer
 62
  256
370
   -1
100
AcDbCircle
 10
1788
 20
125
 40
6
  0
LINE
  5
323
100
AcDbEntity
  8
03-Sleeves-M12 i/d
  6
ByLayer
 62
  256
370
   -1
100
AcDbLine
 10
2892
 20
564
 11
2892
 21
574
  0
LINE
  5
324
100
AcDbEntity
  8
03-Sleeves-M12 i/d
  6
ByLayer
 62
  256
370
   -1
100
AcDbLine
 10
2892
 20
574
 11
2892
 21
564
  0
LINE
  5
325
100
AcDbEntity
  8
03-Sleeves-M12 i/d
  6
ByLayer
 62
  256
370
   -1
100
AcDbLine
 10
2892
 20
563
 11
2942
 21
563
  0
LINE
  5
326
100
AcDbEntity
  8
03-Sleeves-M12 i/d
  6
ByLayer
 62
  256
370
   -1
100
AcDbLine
 10
2892
 20
575
 11
2942
 21
575
  0
LINE
  5
327
100
AcDbEntity
  8
03-Sleeves-M12 i/d
  6
ByLayer
 62
  256
370
   -1
100
AcDbLine
 10
2892
 20
562
 11
2892
 21
564
  0
LINE
  5
328
100
AcDbEntity
  8
03-Sleeves-M12 i/d
  6
ByLayer
 62
  256
370
   -1
100
AcDbLine
 10
2892
 20
576
 11
2892
 21
574
  0
LINE
  5
329
100
AcDbEntity
  8
03-Sleeves-M12 i/d
  6
ByLayer
 62
  256
370
   -1
100
AcDbLine
 10
2942
 20
574
 11
2942
 21
576
  0
LINE
  5
32A
100
AcDbEntity
  8
03-Sleeves-M12 i/d
  6
ByLayer
 62
  256
370
   -1
100
AcDbLine
 10
2942
 20
576
 11
2892
 21
576
  0
LINE
  5
32B
100
AcDbEntity
  8
03-Sleeves-M12 i/d
  6
ByLayer
 62
  256
370
   -1
100
AcDbLine
 10
2942
 20
564
 11
2942
 21
562
  0
LINE
  5
32C
100
AcDbEntity
  8
03-Sleeves-M12 i/d
  6
ByLayer
 62
  256
370
   -1
100
AcDbLine
 10
2942
 20
562
 11
2892
 21
562
  0
LINE
  5
32D
100
AcDbEntity
  8
03-Sleeves-M12 i/d
  6
ByLayer
 62
  256
370
   -1
100
AcDbLine
 10
2942
 20
576
 11
2942
 21
562
  0
LINE
  5
32E
100
AcDbEntity
  8
03-Sleeves-M12 i/d
  6
ByLayer
 62
  256
370
   -1
100
AcDbLine
 10
2892
 20
120
 11
2892
 21
130
  0
LINE
  5
32F
100
AcDbEntity
  8
03-Sleeves-M12 i/d
  6
ByLayer
 62
  256
370
   -1
100
AcDbLine
 10
2892
 20
130
 11
2892
 21
120
  0
LINE
  5
330
100
AcDbEntity
  8
03-Sleeves-M12 i/d
  6
ByLayer
 62
  256
370
   -1
100
AcDbLine
 10
2892
 20
119
 11
2942
 21
119
  0
LINE
  5
331
100
AcDbEntity
  8
03-Sleeves-M12 i/d
  6
ByLayer
 62
  256
370
   -1
100
AcDbLine
 10
2892
 20
131
 11
2942
 21
131
  0
LINE
  5
332
100
AcDbEntity
  8
03-Sleeves-M12 i/d
  6
ByLayer
 62
  256
370
   -1
100
AcDbLine
 10
2892
 20
118
 11
2892
 21
120
  0
LINE
  5
333
100
AcDbEntity
  8
03-Sleeves-M12 i/d
  6
ByLayer
 62
  256
370
   -1
100
AcDbLine
 10
2892
 20
132
 11
2892
 21
130
  0
LINE
  5
334
100
AcDbEntity
  8
03-Sleeves-M12 i/d
  6
ByLayer
 62
  256
370
   -1
100
AcDbLine
 10
2942
 20
130
 11
2942
 21
132
  0
LINE
  5
335
100
AcDbEntity
  8
03-Sleeves-M12 i/d
  6
ByLayer
 62
  256
370
   -1
100
AcDbLine
 10
2942
 20
132
 11
2892
 21
132
  0
LINE
  5
336
100
AcDbEntity
  8
03-Sleeves-M12 i/d
  6
ByLayer
 62
  256
370
   -1
100
AcDbLine
 10
2942
 20
120
 11
2942
 21
118
  0
LINE
  5
337
100
AcDbEntity
  8
03-Sleeves-M12 i/d
  6
ByLayer
 62
  256
370
   -1
100
AcDbLine
 10
2942
 20
118
 11
2892
 21
118
  0
LINE
  5
338
100
AcDbEntity
  8
03-Sleeves-M12 i/d
  6
ByLayer
 62
  256
370
   -1
100
AcDbLine
 10
2942
 20
132
 11
2942
 21
118
  0
LINE
  5
339
100
AcDbEntity
  8
02-CrossBraces
  6
ByLayer
 62
  256
370
   -1
100
AcDbLine
 10
2886
 20
575
 11
2892
 21
575
  0
LINE
  5
33A
100
AcDbEntity
  8
02-CrossBraces
  6
ByLayer
 62
  256
370
   -1
100
AcDbLine
 10
2892
 20
563
 11
2886
 21
563
  0
LINE
  5
33B
100
AcDbEntity
  8
02-CrossBraces
  6
ByLayer
 62
  256
370
   -1
100
AcDbLine
 10
2892
 20
119
 11
2886
 21
119
  0
LINE
  5
33C
100
AcDbEntity
  8
02-CrossBraces
  6
ByLayer
 62
  256
370
   -1
100
AcDbLine
 10
2886
 20
131
 11
2892
 21
131
  0
CIRCLE
  5
33D
100
AcDbEntity
  8
02-CrossBraces
  6
ByLayer
 62
  256
370
   -1
100
AcDbCircle
 10
1462
 20
569
 40
6
  0
CIRCLE
  5
33E
100
AcDbEntity
  8
02-CrossBraces
  6
ByLayer
 62
  256
370
   -1
100
AcDbCircle
 10
1538
 20
569
 40
6
  0
CIRCLE
  5
33F
100
AcDbEntity
  8
02-CrossBraces
  6
ByLayer
 62
  256
370
   -1
100
AcDbCircle
 10
1212
 20
125
 40
6
  0
CIRCLE
  5
340
100
AcDbEntity
  8
02-CrossBraces
  6
ByLayer
 62
  256
370
   -1
100
AcDbCircle
 10
1288
 20
125
 40
6
  0
CIRCLE
  5
341
100
AcDbEntity
  8
02-CrossBraces
  6
ByLayer
 62
  256
370
   -1
100
AcDbCircle
 10
1712
 20
125
 40
6
  0
CIRCLE
  5
342
100
AcDbEntity
  8
02-CrossBraces
  6
ByLayer
 62
  256
370
   -1
100
AcDbCircle
 10
1788
 20
125
 40
6
  0
CIRCLE
  5
343
100
AcDbEntity
  8
01-BaseFrame
  6
ByLayer
 62
  256
370
   -1
100
AcDbCircle
 10
1462
 20
569
 40
7
  0
CIRCLE
  5
344
100
AcDbEntity
  8
01-BaseFrame
  6
ByLayer
 62
  256
370
   -1
100
AcDbCircle
 10
1538
 20
569
 40
7
  0
CIRCLE
  5
345
100
AcDbEntity
  8
01-BaseFrame
  6
ByLayer
 62
  256
370
   -1
100
AcDbCircle
 10
1212
 20
125
 40
7
  0
CIRCLE
  5
346
100
AcDbEntity
  8
01-BaseFrame
  6
ByLayer
 62
  256
370
   -1
100
AcDbCircle
 10
1288
 20
125
 40
7
  0
CIRCLE
  5
347
100
AcDbEntity
  8
01-BaseFrame
  6
ByLayer
 62
  256
370
   -1
100
AcDbCircle
 10
1712
 20
125
 40
7
  0
CIRCLE
  5
348
100
AcDbEntity
  8
01-BaseFrame
  6
ByLayer
 62
  256
370
   -1
100
AcDbCircle
 10
1788
 20
125
 40
7
  0
LINE
  5
349
100
AcDbEntity
  8
04-Bolts-M12
  6
ByLayer
 62
  256
370
   -1
100
AcDbLine
 10
1538
 20
579
 11
1529.339745962156
 21
574
  0
LINE
  5
34A
100
AcDbEntity
  8
04-Bolts-M12
  6
ByLayer
 62
  256
370
   -1
100
AcDbLine
 10
1529.339745962156
 20
574
 11
1529.339745962156
 21
564
  0
LINE
  5
34B
100
AcDbEntity
  8
04-Bolts-M12
  6
ByLayer
 62
  256
370
   -1
100
AcDbLine
 10
1529.339745962156
 20
564
 11
1538
 21
559
  0
LINE
  5
34C
100
AcDbEntity
  8
04-Bolts-M12
  6
ByLayer
 62
  256
370
   -1
100
AcDbLine
 10
1538
 20
559
 11
1546.660254037844
 21
564
  0
LINE
  5
34D
100
AcDbEntity
  8
04-Bolts-M12
  6
ByLayer
 62
  256
370
   -1
100
AcDbLine
 10
1546.660254037844
 20
564
 11
1546.660254037844
 21
574
  0
LINE
  5
34E
100
AcDbEntity
  8
04-Bolts-M12
  6
ByLayer
 62
  256
370
   -1
100
AcDbLine
 10
1546.660254037844
 20
574
 11
1538
 21
579
  0
CIRCLE
  5
34F
100
AcDbEntity
  8
04-Bolts-M12
  6
ByLayer
 62
  256
370
   -1
100
AcDbCircle
 10
1538
 20
569
 40
11
  0
CIRCLE
  5
350
100
AcDbEntity
  8
04-Bolts-M12
  6
ByLayer
 62
  256
370
   -1
100
AcDbCircle
 10
1538
 20
569
 40
6
  0
LINE
  5
351
100
AcDbEntity
  8
04-Bolts-M12
  6
ByLayer
 62
  256
370
   -1
100
AcDbLine
 10
1462
 20
579
 11
1453.339745962156
 21
574
  0
LINE
  5
352
100
AcDbEntity
  8
04-Bolts-M12
  6
ByLayer
 62
  256
370
   -1
100
AcDbLine
 10
1453.339745962156
 20
574
 11
1453.339745962156
 21
564
  0
LINE
  5
353
100
AcDbEntity
  8
04-Bolts-M12
  6
ByLayer
 62
  256
370
   -1
100
AcDbLine
 10
1453.339745962156
 20
564
 11
1462
 21
559
  0
LINE
  5
354
100
AcDbEntity
  8
04-Bolts-M12
  6
ByLayer
 62
  256
370
   -1
100
AcDbLine
 10
1462
 20
559
 11
1470.660254037844
 21
564
  0
LINE
  5
355
100
AcDbEntity
  8
04-Bolts-M12
  6
ByLayer
 62
  256
370
   -1
100
AcDbLine
 10
1470.660254037844
 20
564
 11
1470.660254037844
 21
574
  0
LINE
  5
356
100
AcDbEntity
  8
04-Bolts-M12
  6
ByLayer
 62
  256
370
   -1
100
AcDbLine
 10
1470.660254037844
 20
574
 11
1462
 21
579
  0
CIRCLE
  5
357
100
AcDbEntity
  8
04-Bolts-M12
  6
ByLayer
 62
  256
370
   -1
100
AcDbCircle
 10
1462
 20
569
 40
11
  0
CIRCLE
  5
358
100
AcDbEntity
  8
04-Bolts-M12
  6
ByLayer
 62
  256
370
   -1
100
AcDbCircle
 10
1462
 20
569
 40
6
  0
LINE
  5
359
100
AcDbEntity
  8
04-Bolts-M12
  6
ByLayer
 62
  256
370
   -1
100
AcDbLine
 10
1788
 20
135
 11
1779.339745962156
 21
130
  0
LINE
  5
35A
100
AcDbEntity
  8
04-Bolts-M12
  6
ByLayer
 62
  256
370
   -1
100
AcDbLine
 10
1779.339745962156
 20
130
 11
1779.339745962156
 21
120
  0
LINE
  5
35B
100
AcDbEntity
  8
04-Bolts-M12
  6
ByLayer
 62
  256
370
   -1
100
AcDbLine
 10
1779.339745962156
 20
120
 11
1788
 21
115
  0
LINE
  5
35C
100
AcDbEntity
  8
04-Bolts-M12
  6
ByLayer
 62
  256
370
   -1
100
AcDbLine
 10
1788
 20
115
 11
1796.660254037844
 21
120
  0
LINE
  5
35D
100
AcDbEntity
  8
04-Bolts-M12
  6
ByLayer
 62
  256
370
   -1
100
AcDbLine
 10
1796.660254037844
 20
120
 11
1796.660254037844
 21
130
  0
LINE
  5
35E
100
AcDbEntity
  8
04-Bolts-M12
  6
ByLayer
 62
  256
370
   -1
100
AcDbLine
 10
1796.660254037844
 20
130
 11
1788
 21
135
  0
CIRCLE
  5
35F
100
AcDbEntity
  8
04-Bolts-M12
  6
ByLayer
 62
  256
370
   -1
100
AcDbCircle
 10
1788
 20
125
 40
11
  0
CIRCLE
  5
360
100
AcDbEntity
  8
04-Bolts-M12
  6
ByLayer
 62
  256
370
   -1
100
AcDbCircle
 10
1788
 20
125
 40
6
  0
LINE
  5
361
100
AcDbEntity
  8
04-Bolts-M12
  6
ByLayer
 62
  256
370
   -1
100
AcDbLine
 10
1712
 20
135
 11
1703.339745962156
 21
130
  0
LINE
  5
362
100
AcDbEntity
  8
04-Bolts-M12
  6
ByLayer
 62
  256
370
   -1
100
AcDbLine
 10
1703.339745962156
 20
130
 11
1703.339745962156
 21
120
  0
LINE
  5
363
100
AcDbEntity
  8
04-Bolts-M12
  6
ByLayer
 62
  256
370
   -1
100
AcDbLine
 10
1703.339745962156
 20
120
 11
1712
 21
115
  0
LINE
  5
364
100
AcDbEntity
  8
04-Bolts-M12
  6
ByLayer
 62
  256
370
   -1
100
AcDbLine
 10
1712
 20
115
 11
1720.660254037844
 21
120
  0
LINE
  5
365
100
AcDbEntity
  8
04-Bolts-M12
  6
ByLayer
 62
  256
370
   -1
100
AcDbLine
 10
1720.660254037844
 20
120
 11
1720.660254037844
 21
130
  0
LINE
  5
366
100
AcDbEntity
  8
04-Bolts-M12
  6
ByLayer
 62
  256
370
   -1
100
AcDbLine
 10
1720.660254037844
 20
130
 11
1712
 21
135
  0
CIRCLE
  5
367
100
AcDbEntity
  8
04-Bolts-M12
  6
ByLayer
 62
  256
370
   -1
100
AcDbCircle
 10
1712
 20
125
 40
11
  0
CIRCLE
  5
368
100
AcDbEntity
  8
04-Bolts-M12
  6
ByLayer
 62
  256
370
   -1
100
AcDbCircle
 10
1712
 20
125
 40
6
  0
LINE
  5
369
100
AcDbEntity
  8
04-Bolts-M12
  6
ByLayer
 62
  256
370
   -1
100
AcDbLine
 10
1288
 20
135
 11
1279.339745962156
 21
130
  0
LINE
  5
36A
100
AcDbEntity
  8
04-Bolts-M12
  6
ByLayer
 62
  256
370
   -1
100
AcDbLine
 10
1279.339745962156
 20
130
 11
1279.339745962156
 21
120
  0
LINE
  5
36B
100
AcDbEntity
  8
04-Bolts-M12
  6
ByLayer
 62
  256
370
   -1
100
AcDbLine
 10
1279.339745962156
 20
120
 11
1288
 21
115
  0
LINE
  5
36C
100
AcDbEntity
  8
04-Bolts-M12
  6
ByLayer
 62
  256
370
   -1
100
AcDbLine
 10
1288
 20
115
 11
1296.660254037844
 21
120
  0
LINE
  5
36D
100
AcDbEntity
  8
04-Bolts-M12
  6
ByLayer
 62
  256
370
   -1
100
AcDbLine
 10
1296.660254037844
 20
120
 11
1296.660254037844
 21
130
  0
LINE
  5
36E
100
AcDbEntity
  8
04-Bolts-M12
  6
ByLayer
 62
  256
370
   -1
100
AcDbLine
 10
1296.660254037844
 20
130
 11
1288
 21
135
  0
CIRCLE
  5
36F
100
AcDbEntity
  8
04-Bolts-M12
  6
ByLayer
 62
  256
370
   -1
100
AcDbCircle
 10
1288
 20
125
 40
11
  0
CIRCLE
  5
370
100
AcDbEntity
  8
04-Bolts-M12
  6
ByLayer
 62
  256
370
   -1
100
AcDbCircle
 10
1288
 20
125
 40
6
  0
LINE
  5
371
100
AcDbEntity
  8
04-Bolts-M12
  6
ByLayer
 62
  256
370
   -1
100
AcDbLine
 10
1212
 20
135
 11
1203.339745962156
 21
130
  0
LINE
  5
372
100
AcDbEntity
  8
04-Bolts-M12
  6
ByLayer
 62
  256
370
   -1
100
AcDbLine
 10
1203.339745962156
 20
130
 11
1203.339745962156
 21
120
  0
LINE
  5
373
100
AcDbEntity
  8
04-Bolts-M12
  6
ByLayer
 62
  256
370
   -1
100
AcDbLine
 10
1203.339745962156
 20
120
 11
1212
 21
115
  0
LINE
  5
374
100
AcDbEntity
  8
04-Bolts-M12
  6
ByLayer
 62
  256
370
   -1
100
AcDbLine
 10
1212
 20
115
 11
1220.660254037844
 21
120
  0
LINE
  5
375
100
AcDbEntity
  8
04-Bolts-M12
  6
ByLayer
 62
  256
370
   -1
100
AcDbLine
 10
1220.660254037844
 20
120
 11
1220.660254037844
 21
130
  0
LINE
  5
376
100
AcDbEntity
  8
04-Bolts-M12
  6
ByLayer
 62
  256
370
   -1
100
AcDbLine
 10
1220.660254037844
 20
130
 11
1212
 21
135
  0
CIRCLE
  5
377
100
AcDbEntity
  8
04-Bolts-M12
  6
ByLayer
 62
  256
370
   -1
100
AcDbCircle
 10
1212
 20
125
 40
11
  0
CIRCLE
  5
378
100
AcDbEntity
  8
04-Bolts-M12
  6
ByLayer
 62
  256
370
   -1
100
AcDbCircle
 10
1212
 20
125
 40
6
  0
LINE
  5
379
100
AcDbEntity
  8
04-Bolts-M12
  6
ByLayer
 62
  256
370
   -1
100
AcDbLine
 10
2944
 20
120
 11
2944
 21
115
  0
LINE
  5
37A
100
AcDbEntity
  8
04-Bolts-M12
  6
ByLayer
 62
  256
370
   -1
100
AcDbLine
 10
2944
 20
135
 11
2944
 21
130
  0
LINE
  5
37B
100
AcDbEntity
  8
04-Bolts-M12
  6
ByLayer
 62
  256
370
   -1
100
AcDbLine
 10
2944
 20
115
 11
2951
 21
115
  0
LINE
  5
37C
100
AcDbEntity
  8
04-Bolts-M12
  6
ByLayer
 62
  256
370
   -1
100
AcDbLine
 10
2951
 20
115
 11
2951
 21
135
  0
LINE
  5
37D
100
AcDbEntity
  8
04-Bolts-M12
  6
ByLayer
 62
  256
370
   -1
100
AcDbLine
 10
2951
 20
135
 11
2944
 21
135
  0
LINE
  5
37E
100
AcDbEntity
  8
04-Bolts-M12
  6
ByLayer
 62
  256
370
   -1
100
AcDbLine
 10
2942
 20
110
 11
2944
 21
110
  0
LINE
  5
37F
100
AcDbEntity
  8
04-Bolts-M12
  6
ByLayer
 62
  256
370
   -1
100
AcDbLine
 10
2944
 20
110
 11
2944
 21
135
  0
LINE
  5
380
100
AcDbEntity
  8
04-Bolts-M12
  6
ByLayer
 62
  256
370
   -1
100
AcDbLine
 10
2944
 20
135
 11
2944
 21
140
  0
LINE
  5
381
100
AcDbEntity
  8
04-Bolts-M12
  6
ByLayer
 62
  256
370
   -1
100
AcDbLine
 10
2944
 20
140
 11
2942
 21
140
  0
LINE
  5
382
100
AcDbEntity
  8
04-Bolts-M12
  6
ByLayer
 62
  256
370
   -1
100
AcDbLine
 10
2942
 20
140
 11
2942
 21
110
  0
LINE
  5
383
100
AcDbEntity
  8
04-Bolts-M12
  6
ByLayer
 62
  256
370
   -1
100
AcDbLine
 10
2872
 20
131
 11
2872
 21
119
  0
LINE
  5
384
100
AcDbEntity
  8
04-Bolts-M12
  6
ByLayer
 62
  256
370
   -1
100
AcDbLine
 10
2872
 20
119
 11
2944
 21
119
  0
LINE
  5
385
100
AcDbEntity
  8
04-Bolts-M12
  6
ByLayer
 62
  256
370
   -1
100
AcDbLine
 10
2944
 20
131
 11
2872
 21
131
  0
LINE
  5
386
100
AcDbEntity
  8
04-Bolts-M12
  6
ByLayer
 62
  256
370
   -1
100
AcDbLine
 10
2944
 20
564
 11
2944
 21
559
  0
LINE
  5
387
100
AcDbEntity
  8
04-Bolts-M12
  6
ByLayer
 62
  256
370
   -1
100
AcDbLine
 10
2944
 20
579
 11
2944
 21
574
  0
LINE
  5
388
100
AcDbEntity
  8
04-Bolts-M12
  6
ByLayer
 62
  256
370
   -1
100
AcDbLine
 10
2944
 20
559
 11
2951
 21
559
  0
LINE
  5
389
100
AcDbEntity
  8
04-Bolts-M12
  6
ByLayer
 62
  256
370
   -1
100
AcDbLine
 10
2951
 20
559
 11
2951
 21
579
  0
LINE
  5
38A
100
AcDbEntity
  8
04-Bolts-M12
  6
ByLayer
 62
  256
370
   -1
100
AcDbLine
 10
2951
 20
579
 11
2944
 21
579
  0
LINE
  5
38B
100
AcDbEntity
  8
04-Bolts-M12
  6
ByLayer
 62
  256
370
   -1
100
AcDbLine
 10
2942
 20
554
 11
2944
 21
554
  0
LINE
  5
38C
100
AcDbEntity
  8
04-Bolts-M12
  6
ByLayer
 62
  256
370
   -1
100
AcDbLine
 10
2944
 20
554
 11
2944
 21
579
  0
LINE
  5
38D
100
AcDbEntity
  8
04-Bolts-M12
  6
ByLayer
 62
  256
370
   -1
100
AcDbLine
 10
2944
 20
579
 11
2944
 21
584
  0
LINE
  5
38E
100
AcDbEntity
  8
04-Bolts-M12
  6
ByLayer
 62
  256
370
   -1
100
AcDbLine
 10
2944
 20
584
 11
2942
 21
584
  0
LINE
  5
38F
100
AcDbEntity
  8
04-Bolts-M12
  6
ByLayer
 62
  256
370
   -1
100
AcDbLine
 10
2942
 20
584
 11
2942
 21
554
  0
LINE
  5
390
100
AcDbEntity
  8
04-Bolts-M12
  6
ByLayer
 62
  256
370
   -1
100
AcDbLine
 10
2872
 20
575
 11
2872
 21
563
  0
LINE
  5
391
100
AcDbEntity
  8
04-Bolts-M12
  6
ByLayer
 62
  256
370
   -1
100
AcDbLine
 10
2872
 20
563
 11
2944
 21
563
  0
LINE
  5
392
100
AcDbEntity
  8
04-Bolts-M12
  6
ByLayer
 62
  256
370
   -1
100
AcDbLine
 10
2944
 20
575
 11
2872
 21
575
  0
LINE
  5
393
100
AcDbEntity
  8
05-Weldnuts
  6
ByLayer
 62
  256
370
   -1
100
AcDbLine
 10
2879
 20
559
 11
2886
 21
559
  0
LINE
  5
394
100
AcDbEntity
  8
05-Weldnuts
  6
ByLayer
 62
  256
370
   -1
100
AcDbLine
 10
2879
 20
563
 11
2886
 21
563
  0
LINE
  5
395
100
AcDbEntity
  8
05-Weldnuts
  6
ByLayer
 62
  256
370
   -1
100
AcDbLine
 10
2886
 20
559
 11
2886
 21
579
  0
LINE
  5
396
100
AcDbEntity
  8
05-Weldnuts
  6
ByLayer
 62
  256
370
   -1
100
AcDbLine
 10
2886
 20
579
 11
2879
 21
579
  0
LINE
  5
397
100
AcDbEntity
  8
05-Weldnuts
  6
ByLayer
 62
  256
370
   -1
100
AcDbLine
 10
2879
 20
579
 11
2879
 21
559
  0
LINE
  5
398
100
AcDbEntity
  8
05-Weldnuts
  6
ByLayer
 62
  256
370
   -1
100
AcDbLine
 10
2886
 20
575
 11
2879
 21
575
  0
LINE
  5
399
100
AcDbEntity
  8
05-Weldnuts
  6
ByLayer
 62
  256
370
   -1
100
AcDbLine
 10
2879
 20
115
 11
2886
 21
115
  0
LINE
  5
39A
100
AcDbEntity
  8
05-Weldnuts
  6
ByLayer
 62
  256
370
   -1
100
AcDbLine
 10
2879
 20
119
 11
2886
 21
119
  0
LINE
  5
39B
100
AcDbEntity
  8
05-Weldnuts
  6
ByLayer
 62
  256
370
   -1
100
AcDbLine
 10
2886
 20
115
 11
2886
 21
135
  0
LINE
  5
39C
100
AcDbEntity
  8
05-Weldnuts
  6
ByLayer
 62
  256
370
   -1
100
AcDbLine
 10
2886
 20
135
 11
2879
 21
135
  0
LINE
  5
39D
100
AcDbEntity
  8
05-Weldnuts
  6
ByLayer
 62
  256
370
   -1
100
AcDbLine
 10
2879
 20
135
 11
2879
 21
115
  0
LINE
  5
39E
100
AcDbEntity
  8
05-Weldnuts
  6
ByLayer
 62
  256
370
   -1
100
AcDbLine
 10
2886
 20
131
 11
2879
 21
131
  0
CIRCLE
  5
39F
100
AcDbEntity
  8
05-Weldnuts
  6
ByLayer
 62
  256
370
   -1
100
AcDbCircle
 10
1538
 20
569
 40
6
  0
CIRCLE
  5
3A0
100
AcDbEntity
  8
05-Weldnuts
  6
ByLayer
 62
  256
370
   -1
100
AcDbCircle
 10
1462
 20
569
 40
6
  0
LINE
  5
3A1
100
AcDbEntity
  8
05-Weldnuts
  6
ByLayer
 62
  256
370
   -1
100
AcDbLine
 10
1203
 20
134
 11
1221
 21
134
  0
CIRCLE
  5
3A2
100
AcDbEntity
  8
05-Weldnuts
  6
ByLayer
 62
  256
370
   -1
100
AcDbCircle
 10
1212
 20
125
 40
6
  0
CIRCLE
  5
3A3
100
AcDbEntity
  8
05-Weldnuts
  6
ByLayer
 62
  256
370
   -1
100
AcDbCircle
 10
1288
 20
125
 40
6
  0
CIRCLE
  5
3A4
100
AcDbEntity
  8
05-Weldnuts
  6
ByLayer
 62
  256
370
   -1
100
AcDbCircle
 10
1712
 20
125
 40
6
  0
CIRCLE
  5
3A5
100
AcDbEntity
  8
05-Weldnuts
  6
ByLayer
 62
  256
370
   -1
100
AcDbCircle
 10
1788
 20
125
 40
6
  0
DIMENSION
  5
3A6
100
AcDbEntity
  8
Cuts
  6
ByLayer
 62
  256
370
   -1
100
AcDbDimension
  2
*D24
 10
1748
 20
-100
 30
0
 11
1745.5
 21
-96.875
 31
0
 70
   32
 71
    5
  3
Standard
 53
0
210
0
220
0
230
1
100
AcDbAlignedDimension
 13
1743
 23
-150
 33
0
 14
1748
 24
-150
 34
0
100
AcDbRotatedDimension
  0
DIMENSION
  5
3A7
100
AcDbEntity
  8
Cuts
  6
ByLayer
 62
  256
370
   -1
100
AcDbDimension
  2
*D25
 10
2353
 20
-100
 30
0
 11
2350.5
 21
-96.875
 31
0
 70
   32
 71
    5
  3
Standard
 53
0
210
0
220
0
230
1
100
AcDbAlignedDimension
 13
2348
 23
-150
 33
0
 14
2353
 24
-150
 34
0
100
AcDbRotatedDimension
  0
DIMENSION
  5
3A8
100
AcDbEntity
  8
Cuts
  6
ByLayer
 62
  256
370
   -1
100
AcDbDimension
  2
*D26
 10
2743
 20
-100
 30
0
 11
2548
 21
-96.875
 31
0
 70
   32
 71
    5
  3
Standard
 53
0
210
0
220
0
230
1
100
AcDbAlignedDimension
 13
2353
 23
-150
 33
0
 14
2743
 24
-150
 34
0
100
AcDbRotatedDimension
  0
DIMENSION
  5
3A9
100
AcDbEntity
  8
Cuts
  6
ByLayer
 62
  256
370
   -1
100
AcDbDimension
  2
*D27
 10
2748
 20
-100
 30
0
 11
2745.5
 21
-96.875
 31
0
 70
   32
 71
    5
  3
Standard
 53
0
210
0
220
0
230
1
100
AcDbAlignedDimension
 13
2743
 23
-150
 33
0
 14
2748
 24
-150
 34
0
100
AcDbRotatedDimension
  0
DIMENSION
  5
3AA
100
AcDbEntity
  8
Cuts
  6
ByLayer
 62
  256
370
   -1
100
AcDbDimension
  2
*D28
 10
3569
 20
-100
 30
0
 11
3365
 21
-96.875
 31
0
 70
   32
 71
    5
  3
Standard
 53
0
210
0
220
0
230
1
100
AcDbAlignedDimension
 13
3161
 23
-150
 33
0
 14
3569
 24
-150
 34
0
100
AcDbRotatedDimension
  0
DIMENSION
  5
3AB
100
AcDbEntity
  8
Cuts
  6
ByLayer
 62
  256
370
   -1
100
AcDbDimension
  2
*D29
 10
3574
 20
-100
 30
0
 11
3571.5
 21
-96.875
 31
0
 70
   32
 71
    5
  3
Standard
 53
0
210
0
220
0
230
1
100
AcDbAlignedDimension
 13
3569
 23
-150
 33
0
 14
3574
 24
-150
 34
0
100
AcDbRotatedDimension
  0
DIMENSION
  5
3AC
100
AcDbEntity
  8
Cuts
  6
ByLayer
 62
  256
370
   -1
100
AcDbDimension
  2
*D30
 10
3982
 20
-100
 30
0
 11
3778
 21
-96.875
 31
0
 70
   32
 71
    5
  3
Standard
 53
0
210
0
220
0
230
1
100
AcDbAlignedDimension
 13
3574
 23
-150
 33
0
 14
3982
 24
-150
 34
0
100
AcDbRotatedDimension
  0
DIMENSION
  5
3AD
100
AcDbEntity
  8
Cuts
  6
ByLayer
 62
  256
370
   -1
100
AcDbDimension
  2
*D31
 10
3156
 20
-100
 30
0
 11
2952
 21
-96.875
 31
0
 70
   32
 71
    5
  3
Standard
 53
0
210
0
220
0
230
1
100
AcDbAlignedDimension
 13
2748
 23
-150
 33
0
 14
3156
 24
-150
 34
0
100
AcDbRotatedDimension
  0
DIMENSION
  5
3AE
100
AcDbEntity
  8
Cuts
  6
ByLayer
 62
  256
370
   -1
100
AcDbDimension
  2
*D32
 10
3161
 20
-100
 30
0
 11
3158.5
 21
-96.875
 31
0
 70
   32
 71
    5
  3
Standard
 53
0
210
0
220
0
230
1
100
AcDbAlignedDimension
 13
3156
 23
-150
 33
0
 14
3161
 24
-150
 34
0
100
AcDbRotatedDimension
  0
DIMENSION
  5
3AF
100
AcDbEntity
  8
Cuts
  6
ByLayer
 62
  256
370
   -1
100
AcDbDimension
  2
*D33
 10
2348
 20
-100
 30
0
 11
2048
 21
-96.875
 31
0
 70
   32
 71
    5
  3
Standard
 53
0
210
0
220
0
230
1
100
AcDbAlignedDimension
 13
1748
 23
-150
 33
0
 14
2348
 24
-150
 34
0
100
AcDbRotatedDimension
  0
DIMENSION
  5
3B0
100
AcDbEntity
  8
Cuts
  6
ByLayer
 62
  256
370
   -1
100
AcDbDimension
  2
*D34
 10
3510
 20
-550
 30
0
 11
3507.5
 21
-546.875
 31
0
 70
   32
 71
    5
  3
Standard
 53
0
210
0
220
0
230
1
100
AcDbAlignedDimension
 13
3505
 23
-500
 33
0
 14
3510
 24
-500
 34
0
100
AcDbRotatedDimension
  0
DIMENSION
  5
3B1
100
AcDbEntity
  8
Cuts
  6
ByLayer
 62
  256
370
   -1
100
AcDbDimension
  2
*D35
 10
3918
 20
-550
 30
0
 11
3714
 21
-546.875
 31
0
 70
   32
 71
    5
  3
Standard
 53
0
210
0
220
0
230
1
100
AcDbAlignedDimension
 13
3510
 23
-500
 33
0
 14
3918
 24
-500
 34
0
100
AcDbRotatedDimension
  0
DIMENSION
  5
3B2
100
AcDbEntity
  8
Dims
  6
ByLayer
 62
  256
370
   -1
100
AcDbDimension
  2
*D36
 10
1673
 20
690
 30
0
 11
1500
 21
693.125
 31
0
 70
   32
 71
    5
  3
Standard
 53
0
210
0
220
0
230
1
100
AcDbAlignedDimension
 13
1327
 23
700
 33
0
 14
1673
 24
700
 34
0
100
AcDbRotatedDimension
  0
CIRCLE
  5
3B3
100
AcDbEntity
  8
06-Castors-86kg
  6
ByLayer
 62
  256
370
   -1
100
AcDbCircle
 10
2127
 20
40
 40
40
  0
LINE
  5
3B4
100
AcDbEntity
  8
01-BaseFrame
  6
ByLayer
 62
  256
370
   -1
100
AcDbLine
 10
2102
 20
600
 11
2102
 21
100
  0
LINE
  5
3B5
100
AcDbEntity
  8
01-BaseFrame
  6
ByLayer
 62
  256
370
   -1
100
AcDbLine
 10
2102
 20
100
 11
2152
 21
100
  0
LINE
  5
3B6
100
AcDbEntity
  8
01-BaseFrame
  6
ByLayer
 62
  256
370
   -1
100
AcDbLine
 10
2152
 20
100
 11
2152
 21
600
  0
LINE
  5
3B7
100
AcDbEntity
  8
01-BaseFrame
  6
ByLayer
 62
  256
370
   -1
100
AcDbLine
 10
2152
 20
600
 11
2102
 21
600
  0
LINE
  5
3B8
100
AcDbEntity
  8
01-BaseFrame
  6
ByLayer
 62
  256
370
   -1
100
AcDbLine
 10
2102
 20
594
 11
2152
 21
594
  0
LINE
  5
3B9
100
AcDbEntity
  8
01-BaseFrame
  6
ByLayer
 62
  256
370
   -1
100
AcDbLine
 10
2152
 20
544
 11
2102
 21
544
  0
LINE
  5
3BA
100
AcDbEntity
  8
01-BaseFrame
  6
ByLayer
 62
  256
370
   -1
100
AcDbLine
 10
2152
 20
150
 11
2102
 21
150
  0
LINE
  5
3BB
100
AcDbEntity
  8
02-CrossBraces
  6
ByLayer
 62
  256
370
   -1
100
AcDbLine
 10
2152
 20
150
 11
2158
 21
150
  0
LINE
  5
3BC
100
AcDbEntity
  8
02-CrossBraces
  6
ByLayer
 62
  256
370
   -1
100
AcDbLine
 10
2158
 20
100
 11
2152
 21
100
  0
LINE
  5
3BD
100
AcDbEntity
  8
02-CrossBraces
  6
ByLayer
 62
  256
370
   -1
100
AcDbLine
 10
2152
 20
100
 11
2152
 21
150
  0
LINE
  5
3BE
100
AcDbEntity
  8
02-CrossBraces
  6
ByLayer
 62
  256
370
   -1
100
AcDbLine
 10
2152
 20
594
 11
2158
 21
594
  0
LINE
  5
3BF
100
AcDbEntity
  8
02-CrossBraces
  6
ByLayer
 62
  256
370
   -1
100
AcDbLine
 10
2158
 20
544
 11
2152
 21
544
  0
LINE
  5
3C0
100
AcDbEntity
  8
02-CrossBraces
  6
ByLayer
 62
  256
370
   -1
100
AcDbLine
 10
2152
 20
544
 11
2152
 21
594
  0
LINE
  5
3C1
100
AcDbEntity
  8
02-CrossBraces
  6
ByLayer
 62
  256
370
   -1
100
AcDbLine
 10
2158
 20
594
 11
2158
 21
544
  0
LINE
  5
3C2
100
AcDbEntity
  8
03-Sleeves-M12 i/d
  6
ByLayer
 62
  256
370
   -1
100
AcDbLine
 10
2102
 20
120
 11
2102
 21
130
  0
LINE
  5
3C3
100
AcDbEntity
  8
03-Sleeves-M12 i/d
  6
ByLayer
 62
  256
370
   -1
100
AcDbLine
 10
2102
 20
130
 11
2102
 21
120
  0
LINE
  5
3C4
100
AcDbEntity
  8
02-CrossBraces
  6
ByLayer
 62
  256
370
   -1
100
AcDbLine
 10
2158
 20
150
 11
2158
 21
100
  0
LINE
  5
3C5
100
AcDbEntity
  8
05-Weldnuts
  6
ByLayer
 62
  256
370
   -1
100
AcDbLine
 10
2118
 20
594
 11
2118
 21
587
  0
LINE
  5
3C6
100
AcDbEntity
  8
05-Weldnuts
  6
ByLayer
 62
  256
370
   -1
100
AcDbLine
 10
2118
 20
587
 11
2136
 21
587
  0
LINE
  5
3C7
100
AcDbEntity
  8
05-Weldnuts
  6
ByLayer
 62
  256
370
   -1
100
AcDbLine
 10
2136
 20
587
 11
2136
 21
594
  0
LINE
  5
3C8
100
AcDbEntity
  8
05-Weldnuts
  6
ByLayer
 62
  256
370
   -1
100
AcDbLine
 10
2136
 20
594
 11
2118
 21
594
  0
LINE
  5
3C9
100
AcDbEntity
  8
05-Weldnuts
  6
ByLayer
 62
  256
370
   -1
100
AcDbLine
 10
2122
 20
594
 11
2122
 21
587
  0
LINE
  5
3CA
100
AcDbEntity
  8
05-Weldnuts
  6
ByLayer
 62
  256
370
   -1
100
AcDbLine
 10
2132
 20
587
 11
2132
 21
594
  0
LINE
  5
3CB
100
AcDbEntity
  8
00-MachineBase
  6
ByLayer
 62
  256
370
   -1
100
AcDbLine
 10
2102
 20
600
 11
2152
 21
600
  0
LINE
  5
3CC
100
AcDbEntity
  8
00-MachineBase
  6
ByLayer
 62
  256
370
   -1
100
AcDbLine
 10
2152
 20
600
 11
2152
 21
630
  0
LINE
  5
3CD
100
AcDbEntity
  8
00-MachineBase
  6
ByLayer
 62
  256
370
   -1
100
AcDbLine
 10
2152
 20
630
 11
2102
 21
630
  0
LINE
  5
3CE
100
AcDbEntity
  8
00-MachineBase
  6
ByLayer
 62
  256
370
   -1
100
AcDbLine
 10
2102
 20
630
 11
2102
 21
600
  0
LINE
  5
3CF
100
AcDbEntity
  8
04-Bolts-M10
  6
ByLayer
 62
  256
370
   -1
100
AcDbLine
 10
2132
 20
580
 11
2122
 21
580
  0
LINE
  5
3D0
100
AcDbEntity
  8
04-Bolts-M10
  6
ByLayer
 62
  256
370
   -1
100
AcDbLine
 10
2122
 20
580
 11
2122
 21
632
  0
LINE
  5
3D1
100
AcDbEntity
  8
04-Bolts-M10
  6
ByLayer
 62
  256
370
   -1
100
AcDbLine
 10
2132
 20
632
 11
2132
 21
580
  0
LINE
  5
3D2
100
AcDbEntity
  8
04-Bolts-M10
  6
ByLayer
 62
  256
370
   -1
100
AcDbLine
 10
2122
 20
632
 11
2117
 21
632
  0
LINE
  5
3D3
100
AcDbEntity
  8
04-Bolts-M10
  6
ByLayer
 62
  256
370
   -1
100
AcDbLine
 10
2137
 20
632
 11
2132
 21
632
  0
LINE
  5
3D4
100
AcDbEntity
  8
04-Bolts-M10
  6
ByLayer
 62
  256
370
   -1
100
AcDbLine
 10
2117
 20
632
 11
2117
 21
639
  0
LINE
  5
3D5
100
AcDbEntity
  8
04-Bolts-M10
  6
ByLayer
 62
  256
370
   -1
100
AcDbLine
 10
2117
 20
639
 11
2137
 21
639
  0
LINE
  5
3D6
100
AcDbEntity
  8
04-Bolts-M10
  6
ByLayer
 62
  256
370
   -1
100
AcDbLine
 10
2137
 20
639
 11
2137
 21
632
  0
LINE
  5
3D7
100
AcDbEntity
  8
04-Bolts-M10
  6
ByLayer
 62
  256
370
   -1
100
AcDbLine
 10
2137
 20
632
 11
2141
 21
632
  0
LINE
  5
3D8
100
AcDbEntity
  8
04-Bolts-M10
  6
ByLayer
 62
  256
370
   -1
100
AcDbLine
 10
2141
 20
632
 11
2141
 21
630
  0
LINE
  5
3D9
100
AcDbEntity
  8
04-Bolts-M10
  6
ByLayer
 62
  256
370
   -1
100
AcDbLine
 10
2141
 20
630
 11
2113
 21
630
  0
LINE
  5
3DA
100
AcDbEntity
  8
04-Bolts-M10
  6
ByLayer
 62
  256
370
   -1
100
AcDbLine
 10
2113
 20
630
 11
2113
 21
632
  0
LINE
  5
3DB
100
AcDbEntity
  8
04-Bolts-M10
  6
ByLayer
 62
  256
370
   -1
100
AcDbLine
 10
2113
 20
632
 11
2137
 21
632
  0
LINE
  5
3DC
100
AcDbEntity
  8
03-Sleeves-M12 i/d
  6
ByLayer
 62
  256
370
   -1
100
AcDbLine
 10
2102
 20
119
 11
2152
 21
119
  0
LINE
  5
3DD
100
AcDbEntity
  8
03-Sleeves-M12 i/d
  6
ByLayer
 62
  256
370
   -1
100
AcDbLine
 10
2102
 20
131
 11
2152
 21
131
  0
LINE
  5
3DE
100
AcDbEntity
  8
03-Sleeves-M12 i/d
  6
ByLayer
 62
  256
370
   -1
100
AcDbLine
 10
2102
 20
118
 11
2102
 21
120
  0
LINE
  5
3DF
100
AcDbEntity
  8
03-Sleeves-M12 i/d
  6
ByLayer
 62
  256
370
   -1
100
AcDbLine
 10
2102
 20
132
 11
2102
 21
130
  0
LINE
  5
3E0
100
AcDbEntity
  8
03-Sleeves-M12 i/d
  6
ByLayer
 62
  256
370
   -1
100
AcDbLine
 10
2152
 20
130
 11
2152
 21
132
  0
LINE
  5
3E1
100
AcDbEntity
  8
03-Sleeves-M12 i/d
  6
ByLayer
 62
  256
370
   -1
100
AcDbLine
 10
2152
 20
132
 11
2102
 21
132
  0
LINE
  5
3E2
100
AcDbEntity
  8
03-Sleeves-M12 i/d
  6
ByLayer
 62
  256
370
   -1
100
AcDbLine
 10
2152
 20
120
 11
2152
 21
118
  0
LINE
  5
3E3
100
AcDbEntity
  8
03-Sleeves-M12 i/d
  6
ByLayer
 62
  256
370
   -1
100
AcDbLine
 10
2152
 20
118
 11
2102
 21
118
  0
LINE
  5
3E4
100
AcDbEntity
  8
03-Sleeves-M12 i/d
  6
ByLayer
 62
  256
370
   -1
100
AcDbLine
 10
2152
 20
132
 11
2152
 21
118
  0
LINE
  5
3E5
100
AcDbEntity
  8
03-Sleeves-M12 i/d
  6
ByLayer
 62
  256
370
   -1
100
AcDbLine
 10
2102
 20
564
 11
2102
 21
574
  0
LINE
  5
3E6
100
AcDbEntity
  8
03-Sleeves-M12 i/d
  6
ByLayer
 62
  256
370
   -1
100
AcDbLine
 10
2102
 20
574
 11
2102
 21
564
  0
LINE
  5
3E7
100
AcDbEntity
  8
03-Sleeves-M12 i/d
  6
ByLayer
 62
  256
370
   -1
100
AcDbLine
 10
2102
 20
563
 11
2152
 21
563
  0
LINE
  5
3E8
100
AcDbEntity
  8
03-Sleeves-M12 i/d
  6
ByLayer
 62
  256
370
   -1
100
AcDbLine
 10
2102
 20
575
 11
2152
 21
575
  0
LINE
  5
3E9
100
AcDbEntity
  8
03-Sleeves-M12 i/d
  6
ByLayer
 62
  256
370
   -1
100
AcDbLine
 10
2102
 20
562
 11
2102
 21
564
  0
LINE
  5
3EA
100
AcDbEntity
  8
03-Sleeves-M12 i/d
  6
ByLayer
 62
  256
370
   -1
100
AcDbLine
 10
2102
 20
576
 11
2102
 21
574
  0
LINE
  5
3EB
100
AcDbEntity
  8
03-Sleeves-M12 i/d
  6
ByLayer
 62
  256
370
   -1
100
AcDbLine
 10
2152
 20
574
 11
2152
 21
576
  0
LINE
  5
3EC
100
AcDbEntity
  8
03-Sleeves-M12 i/d
  6
ByLayer
 62
  256
370
   -1
100
AcDbLine
 10
2152
 20
576
 11
2102
 21
576
  0
LINE
  5
3ED
100
AcDbEntity
  8
03-Sleeves-M12 i/d
  6
ByLayer
 62
  256
370
   -1
100
AcDbLine
 10
2152
 20
564
 11
2152
 21
562
  0
LINE
  5
3EE
100
AcDbEntity
  8
03-Sleeves-M12 i/d
  6
ByLayer
 62
  256
370
   -1
100
AcDbLine
 10
2152
 20
562
 11
2102
 21
562
  0
LINE
  5
3EF
100
AcDbEntity
  8
03-Sleeves-M12 i/d
  6
ByLayer
 62
  256
370
   -1
100
AcDbLine
 10
2152
 20
576
 11
2152
 21
562
  0
LINE
  5
3F0
100
AcDbEntity
  8
02-CrossBraces
  6
ByLayer
 62
  256
370
   -1
100
AcDbLine
 10
2152
 20
131
 11
2158
 21
131
  0
LINE
  5
3F1
100
AcDbEntity
  8
02-CrossBraces
  6
ByLayer
 62
  256
370
   -1
100
AcDbLine
 10
2158
 20
119
 11
2152
 21
119
  0
LINE
  5
3F2
100
AcDbEntity
  8
02-CrossBraces
  6
ByLayer
 62
  256
370
   -1
100
AcDbLine
 10
2158
 20
575
 11
2152
 21
575
  0
LINE
  5
3F3
100
AcDbEntity
  8
02-CrossBraces
  6
ByLayer
 62
  256
370
   -1
100
AcDbLine
 10
2158
 20
563
 11
2152
 21
563
  0
LINE
  5
3F4
100
AcDbEntity
  8
04-Bolts-M12
  6
ByLayer
 62
  256
370
   -1
100
AcDbLine
 10
2100
 20
120
 11
2100
 21
115
  0
LINE
  5
3F5
100
AcDbEntity
  8
04-Bolts-M12
  6
ByLayer
 62
  256
370
   -1
100
AcDbLine
 10
2100
 20
135
 11
2100
 21
130
  0
LINE
  5
3F6
100
AcDbEntity
  8
04-Bolts-M12
  6
ByLayer
 62
  256
370
   -1
100
AcDbLine
 10
2100
 20
115
 11
2093
 21
115
  0
LINE
  5
3F7
100
AcDbEntity
  8
04-Bolts-M12
  6
ByLayer
 62
  256
370
   -1
100
AcDbLine
 10
2093
 20
115
 11
2093
 21
135
  0
LINE
  5
3F8
100
AcDbEntity
  8
04-Bolts-M12
  6
ByLayer
 62
  256
370
   -1
100
AcDbLine
 10
2093
 20
135
 11
2100
 21
135
  0
LINE
  5
3F9
100
AcDbEntity
  8
04-Bolts-M12
  6
ByLayer
 62
  256
370
   -1
100
AcDbLine
 10
2117
 20
639
 11
2137
 21
639
  0
LINE
  5
3FA
100
AcDbEntity
  8
04-Bolts-M12
  6
ByLayer
 62
  256
370
   -1
100
AcDbLine
 10
2102
 20
110
 11
2100
 21
110
  0
LINE
  5
3FB
100
AcDbEntity
  8
04-Bolts-M12
  6
ByLayer
 62
  256
370
   -1
100
AcDbLine
 10
2100
 20
110
 11
2100
 21
135
  0
LINE
  5
3FC
100
AcDbEntity
  8
04-Bolts-M12
  6
ByLayer
 62
  256
370
   -1
100
AcDbLine
 10
2100
 20
135
 11
2100
 21
140
  0
LINE
  5
3FD
100
AcDbEntity
  8
04-Bolts-M12
  6
ByLayer
 62
  256
370
   -1
100
AcDbLine
 10
2100
 20
140
 11
2102
 21
140
  0
LINE
  5
3FE
100
AcDbEntity
  8
04-Bolts-M12
  6
ByLayer
 62
  256
370
   -1
100
AcDbLine
 10
2102
 20
140
 11
2102
 21
110
  0
LINE
  5
3FF
100
AcDbEntity
  8
04-Bolts-M12
  6
ByLayer
 62
  256
370
   -1
100
AcDbLine
 10
2172
 20
131
 11
2172
 21
119
  0
LINE
  5
400
100
AcDbEntity
  8
04-Bolts-M12
  6
ByLayer
 62
  256
370
   -1
100
AcDbLine
 10
2172
 20
119
 11
2100
 21
119
  0
LINE
  5
401
100
AcDbEntity
  8
04-Bolts-M12
  6
ByLayer
 62
  256
370
   -1
100
AcDbLine
 10
2100
 20
131
 11
2172
 21
131
  0
LINE
  5
402
100
AcDbEntity
  8
04-Bolts-M12
  6
ByLayer
 62
  256
370
   -1
100
AcDbLine
 10
2100
 20
564
 11
2100
 21
559
  0
LINE
  5
403
100
AcDbEntity
  8
04-Bolts-M12
  6
ByLayer
 62
  256
370
   -1
100
AcDbLine
 10
2100
 20
579
 11
2100
 21
574
  0
LINE
  5
404
100
AcDbEntity
  8
04-Bolts-M12
  6
ByLayer
 62
  256
370
   -1
100
AcDbLine
 10
2100
 20
559
 11
2093
 21
559
  0
LINE
  5
405
100
AcDbEntity
  8
04-Bolts-M12
  6
ByLayer
 62
  256
370
   -1
100
AcDbLine
 10
2093
 20
559
 11
2093
 21
579
  0
LINE
  5
406
100
AcDbEntity
  8
04-Bolts-M12
  6
ByLayer
 62
  256
370
   -1
100
AcDbLine
 10
2093
 20
579
 11
2100
 21
579
  0
LINE
  5
407
100
AcDbEntity
  8
04-Bolts-M12
  6
ByLayer
 62
  256
370
   -1
100
AcDbLine
 10
2102
 20
554
 11
2100
 21
554
  0
LINE
  5
408
100
AcDbEntity
  8
04-Bolts-M12
  6
ByLayer
 62
  256
370
   -1
100
AcDbLine
 10
2100
 20
554
 11
2100
 21
579
  0
LINE
  5
409
100
AcDbEntity
  8
04-Bolts-M12
  6
ByLayer
 62
  256
370
   -1
100
AcDbLine
 10
2100
 20
579
 11
2100
 21
584
  0
LINE
  5
40A
100
AcDbEntity
  8
04-Bolts-M12
  6
ByLayer
 62
  256
370
   -1
100
AcDbLine
 10
2100
 20
584
 11
2102
 21
584
  0
LINE
  5
40B
100
AcDbEntity
  8
04-Bolts-M12
  6
ByLayer
 62
  256
370
   -1
100
AcDbLine
 10
2102
 20
584
 11
2102
 21
554
  0
LINE
  5
40C
100
AcDbEntity
  8
04-Bolts-M12
  6
ByLayer
 62
  256
370
   -1
100
AcDbLine
 10
2172
 20
575
 11
2172
 21
563
  0
LINE
  5
40D
100
AcDbEntity
  8
04-Bolts-M12
  6
ByLayer
 62
  256
370
   -1
100
AcDbLine
 10
2172
 20
563
 11
2100
 21
563
  0
LINE
  5
40E
100
AcDbEntity
  8
04-Bolts-M12
  6
ByLayer
 62
  256
370
   -1
100
AcDbLine
 10
2100
 20
575
 11
2172
 21
575
  0
LINE
  5
40F
100
AcDbEntity
  8
05-Weldnuts
  6
ByLayer
 62
  256
370
   -1
100
AcDbLine
 10
2158
 20
559
 11
2165
 21
559
  0
LINE
  5
410
100
AcDbEntity
  8
05-Weldnuts
  6
ByLayer
 62
  256
370
   -1
100
AcDbLine
 10
2158
 20
563
 11
2165
 21
563
  0
LINE
  5
411
100
AcDbEntity
  8
05-Weldnuts
  6
ByLayer
 62
  256
370
   -1
100
AcDbLine
 10
2165
 20
559
 11
2165
 21
579
  0
LINE
  5
412
100
AcDbEntity
  8
05-Weldnuts
  6
ByLayer
 62
  256
370
   -1
100
AcDbLine
 10
2165
 20
579
 11
2158
 21
579
  0
LINE
  5
413
100
AcDbEntity
  8
05-Weldnuts
  6
ByLayer
 62
  256
370
   -1
100
AcDbLine
 10
2158
 20
579
 11
2158
 21
559
  0
LINE
  5
414
100
AcDbEntity
  8
05-Weldnuts
  6
ByLayer
 62
  256
370
   -1
100
AcDbLine
 10
2165
 20
575
 11
2158
 21
575
  0
LINE
  5
415
100
AcDbEntity
  8
05-Weldnuts
  6
ByLayer
 62
  256
370
   -1
100
AcDbLine
 10
2158
 20
115
 11
2165
 21
115
  0
LINE
  5
416
100
AcDbEntity
  8
05-Weldnuts
  6
ByLayer
 62
  256
370
   -1
100
AcDbLine
 10
2158
 20
119
 11
2165
 21
119
  0
LINE
  5
417
100
AcDbEntity
  8
05-Weldnuts
  6
ByLayer
 62
  256
370
   -1
100
AcDbLine
 10
2165
 20
115
 11
2165
 21
135
  0
LINE
  5
418
100
AcDbEntity
  8
05-Weldnuts
  6
ByLayer
 62
  256
370
   -1
100
AcDbLine
 10
2165
 20
135
 11
2158
 21
135
  0
LINE
  5
419
100
AcDbEntity
  8
05-Weldnuts
  6
ByLayer
 62
  256
370
   -1
100
AcDbLine
 10
2158
 20
135
 11
2158
 21
115
  0
LINE
  5
41A
100
AcDbEntity
  8
05-Weldnuts
  6
ByLayer
 62
  256
370
   -1
100
AcDbLine
 10
2165
 20
131
 11
2158
 21
131
  0
LINE
  5
41B
100
AcDbEntity
  8
02-CrossBraces
  6
ByLayer
 62
  256
370
   -1
100
AcDbLine
 10
2886
 20
150
 11
2158
 21
150
  0
LINE
  5
41C
100
AcDbEntity
  8
02-CrossBraces
  6
ByLayer
 62
  256
370
   -1
100
AcDbLine
 10
2158
 20
100
 11
2886
 21
100
  0
LINE
  5
41D
100
AcDbEntity
  8
02-CrossBraces
  6
ByLayer
 62
  256
370
   -1
100
AcDbLine
 10
2158
 20
544
 11
2886
 21
544
  0
LINE
  5
41E
100
AcDbEntity
  8
02-CrossBraces
  6
ByLayer
 62
  256
370
   -1
100
AcDbLine
 10
2886
 20
594
 11
2158
 21
594
  0
DIMENSION
  5
41F
100
AcDbEntity
  8
Dims
  6
ByLayer
 62
  256
370
   -1
100
AcDbDimension
  2
*D37
 10
2917
 20
660
 30
0
 11
2522
 21
663.125
 31
0
 70
   32
 71
    5
  3
Standard
 53
0
210
0
220
0
230
1
100
AcDbAlignedDimension
 13
2127
 23
650
 33
0
 14
2917
 24
650
 34
0
100
AcDbRotatedDimension
  0
DIMENSION
  5
420
100
AcDbEntity
  8
Dims
  6
ByLayer
 62
  256
370
   -1
100
AcDbDimension
  2
*D38
 10
2886
 20
80
 30
0
 11
2522
 21
83.125
 31
0
 70
   32
 71
    5
  3
Standard
 53
0
210
0
220
0
230
1
100
AcDbAlignedDimension
 13
2158
 23
90
 33
0
 14
2886
 24
90
 34
0
100
AcDbRotatedDimension
  0
DIMENSION
  5
421
100
AcDbEntity
  8
Dims
  6
ByLayer
 62
  256
370
   -1
100
AcDbDimension
  2
*D39
 10
2892
 20
80
 30
0
 11
2889
 21
83.125
 31
0
 70
   32
 71
    5
  3
Standard
 53
0
210
0
220
0
230
1
100
AcDbAlignedDimension
 13
2886
 23
90
 33
0
 14
2892
 24
90
 34
0
100
AcDbRotatedDimension
  0
DIMENSION
  5
422
100
AcDbEntity
  8
Dims
  6
ByLayer
 62
  256
370
   -1
100
AcDbDimension
  2
*D40
 10
2158
 20
80
 30
0
 11
2155
 21
83.125
 31
0
 70
   32
 71
    5
  3
Standard
 53
0
210
0
220
0
230
1
100
AcDbAlignedDimension
 13
2152
 23
90
 33
0
 14
2158
 24
90
 34
0
100
AcDbRotatedDimension
  0
DIMENSION
  5
423
100
AcDbEntity
  8
Dims
  6
ByLayer
 62
  256
370
   -1
100
AcDbDimension
  2
*D41
 10
1719
 20
91
 30
0
 11
1734.5
 21
94.125
 31
0
 70
   32
 71
    5
 72
    0
  3
Standard
 53
0
210
0
220
0
230
1
100
AcDbAlignedDimension
 13
1750
 23
90
 33
0
 14
1719
 24
90
 34
0
100
AcDbRotatedDimension
  0
DIMENSION
  5
424
100
AcDbEntity
  8
Dims
  6
ByLayer
 62
  256
370
   -1
100
AcDbDimension
  2
*D42
 10
1781
 20
91
 30
0
 11
1765.5
 21
94.125
 31
0
 70
   32
 71
    5
 72
    0
  3
Standard
 53
0
210
0
220
0
230
1
100
AcDbAlignedDimension
 13
1750
 23
90
 33
0
 14
1781
 24
90
 34
0
100
AcDbRotatedDimension
  0
DIMENSION
  5
425
100
AcDbEntity
  8
Dims
  6
ByLayer
 62
  256
370
   -1
100
AcDbDimension
  2
*D43
 10
1705
 20
83
 30
0
 11
1727.5
 21
86.125
 31
0
 70
   32
 71
    5
 72
    0
  3
Standard
 53
0
210
0
220
0
230
1
100
AcDbAlignedDimension
 13
1750
 23
90
 33
0
 14
1705
 24
90
 34
0
100
AcDbRotatedDimension
  0
DIMENSION
  5
426
100
AcDbEntity
  8
Dims
  6
ByLayer
 62
  256
370
   -1
100
AcDbDimension
  2
*D44
 10
1795
 20
83
 30
0
 11
1772.5
 21
86.125
 31
0
 70
   32
 71
    5
 72
    0
  3
Standard
 53
0
210
0
220
0
230
1
100
AcDbAlignedDimension
 13
1750
 23
90
 33
0
 14
1795
 24
90
 34
0
100
AcDbRotatedDimension
  0
LINE
  5
427
100
AcDbEntity
  8
08-CatchTray
  6
ByLayer
 62
  256
370
   -1
100
AcDbLine
 10
1687.571808513716
 20
544.2968101971347
 11
1690.495525560943
 21
553.8598577567651
  0
LINE
  5
428
100
AcDbEntity
  8
08-CatchTray
  6
ByLayer
 62
  256
370
   -1
100
AcDbLine
 10
1688.582916049017
 20
554.4446011662105
 11
1686.243942411235
 21
546.7941631185063
  0
LINE
  5
429
100
AcDbEntity
  8
08-CatchTray
  6
ByLayer
 62
  256
370
   -1
100
AcDbLine
 10
1686.243942411235
 20
546.7941631185063
 11
1401.265125134251
 21
633.9209311258819
  0
LINE
  5
42A
100
AcDbEntity
  8
08-CatchTray
  6
ByLayer
 62
  256
370
   -1
100
AcDbLine
 10
1400.680381724805
 20
632.0083216139558
 11
1687.571808513716
 21
544.2968101971347
  0
ARC
  5
42B
100
AcDbEntity
  8
08-CatchTray
  6
ByLayer
 62
  256
370
   -1
100
AcDbCircle
 10
1693.364439828832
 20
552.9827426425969
 40
3
100
AcDbArc
 50
253
 51
163
  0
ARC
  5
42C
100
AcDbEntity
  8
08-CatchTray
  6
ByLayer
 62
  256
370
   -1
100
AcDbCircle
 10
1693.364439828832
 20
552.9827426425969
 40
5
100
AcDbArc
 50
253
 51
163
  0
LINE
  5
42D
100
AcDbEntity
  8
08-CatchTray
  6
ByLayer
 62
  256
370
   -1
100
AcDbLine
 10
1692.487324714664
 20
550.1138283747077
 11
1691.902581305219
 21
548.2012188627817
  0
ARC
  5
42E
100
AcDbEntity
  8
08-CatchTray
  6
ByLayer
 62
  256
370
   -1
100
AcDbCircle
 10
1399.803266610637
 20
629.1394073460667
 40
3
100
AcDbArc
 50
73
 51
343
  0
ARC
  5
42F
100
AcDbEntity
  8
08-CatchTray
  6
ByLayer
 62
  256
370
   -1
100
AcDbCircle
 10
1399.803266610637
 20
629.1394073460667
 40
5
100
AcDbArc
 50
73
 51
343
  0
LINE
  5
430
100
AcDbEntity
  8
08-CatchTray
  6
ByLayer
 62
  256
370
   -1
100
AcDbLine
 10
1402.672180878526
 20
628.2622922318984
 11
1404.584790390452
 21
627.677548822453
  0
CIRCLE
  5
431
100
AcDbEntity
  8
08-CatchTray
  6
ByLayer
 62
  256
370
   -1
100
AcDbCircle
 10
1399.803266610637
 20
629.1394073460667
 40
3
  0
CIRCLE
  5
432
100
AcDbEntity
  8
08-CatchTray
  6
ByLayer
 62
  256
370
   -1
100
AcDbCircle
 10
1693.364439828832
 20
552.9827426425969
 40
3
  0
LINE
  5
433
100
AcDbEntity
  8
08-CatchTray
  6
ByLayer
 62
  256
370
   -1
100
AcDbLine
 10
1430
 20
623
 11
1430
 21
570
  0
LINE
  5
434
100
AcDbEntity
  8
08-CatchTray
  6
ByLayer
 62
  256
370
   -1
100
AcDbLine
 10
1410
 20
629
 11
1410
 21
570
  0
LINE
  5
435
100
AcDbEntity
  8
08-CatchTray
  6
ByLayer
 62
  256
370
   -1
100
AcDbLine
 10
1660
 20
555
 11
1660
 21
570
  0
LINE
  5
436
100
AcDbEntity
  8
08-CatchTray
  6
ByLayer
 62
  256
370
   -1
100
AcDbLine
 10
1640
 20
561
 11
1640
 21
570
  0
ARC
  5
437
100
AcDbEntity
  8
08-CatchTray
  6
ByLayer
 62
  256
370
   -1
100
AcDbCircle
 10
1650
 20
570
 40
10
100
AcDbArc
 50
0
 51
180
  0
ARC
  5
438
100
AcDbEntity
  8
08-CatchTray
  6
ByLayer
 62
  256
370
   -1
100
AcDbCircle
 10
1420
 20
570
 40
10
100
AcDbArc
 50
180
 51
0
  0
CIRCLE
  5
439
100
AcDbEntity
  8
08-CatchTray
  6
ByLayer
 62
  256
370
   -1
100
AcDbCircle
 10
1420
 20
570
 40
3
  0
CIRCLE
  5
43A
100
AcDbEntity
  8
08-CatchTray
  6
ByLayer
 62
  256
370
   -1
100
AcDbCircle
 10
1650
 20
570
 40
3
  0
LINE
  5
43B
100
AcDbEntity
  8
04-Bolts-M6
  6
ByLayer
 62
  256
370
   -1
100
AcDbLine
 10
1652.9
 20
565
 11
1655.780127018922
 21
570.011473670975
  0
LINE
  5
43C
100
AcDbEntity
  8
04-Bolts-M6
  6
ByLayer
 62
  256
370
   -1
100
AcDbLine
 10
1655.780127018922
 20
570.011473670975
 11
1652.880127018922
 21
575.011473670975
  0
LINE
  5
43D
100
AcDbEntity
  8
04-Bolts-M6
  6
ByLayer
 62
  256
370
   -1
100
AcDbLine
 10
1652.880127018922
 20
575.011473670975
 11
1647.1
 21
575
  0
LINE
  5
43E
100
AcDbEntity
  8
04-Bolts-M6
  6
ByLayer
 62
  256
370
   -1
100
AcDbLine
 10
1647.1
 20
575
 11
1644.219872981078
 21
569.988526329025
  0
LINE
  5
43F
100
AcDbEntity
  8
04-Bolts-M6
  6
ByLayer
 62
  256
370
   -1
100
AcDbLine
 10
1644.219872981078
 20
569.988526329025
 11
1647.119872981078
 21
564.988526329025
  0
LINE
  5
440
100
AcDbEntity
  8
04-Bolts-M6
  6
ByLayer
 62
  256
370
   -1
100
AcDbLine
 10
1647.119872981078
 20
564.988526329025
 11
1652.9
 21
565
  0
CIRCLE
  5
441
100
AcDbEntity
  8
04-Bolts-M6
  6
ByLayer
 62
  256
370
   -1
100
AcDbCircle
 10
1650
 20
570
 40
3
  0
CIRCLE
  5
442
100
AcDbEntity
  8
04-Bolts-M6
  6
ByLayer
 62
  256
370
   -1
100
AcDbCircle
 10
1650
 20
570
 40
6
  0
LINE
  5
443
100
AcDbEntity
  8
04-Bolts-M6
  6
ByLayer
 62
  256
370
   -1
100
AcDbLine
 10
1422.9
 20
565
 11
1425.780127018922
 21
570.011473670975
  0
LINE
  5
444
100
AcDbEntity
  8
04-Bolts-M6
  6
ByLayer
 62
  256
370
   -1
100
AcDbLine
 10
1425.780127018922
 20
570.011473670975
 11
1422.880127018922
 21
575.011473670975
  0
LINE
  5
445
100
AcDbEntity
  8
04-Bolts-M6
  6
ByLayer
 62
  256
370
   -1
100
AcDbLine
 10
1422.880127018922
 20
575.011473670975
 11
1417.1
 21
575
  0
LINE
  5
446
100
AcDbEntity
  8
04-Bolts-M6
  6
ByLayer
 62
  256
370
   -1
100
AcDbLine
 10
1417.1
 20
575
 11
1414.219872981078
 21
569.988526329025
  0
LINE
  5
447
100
AcDbEntity
  8
04-Bolts-M6
  6
ByLayer
 62
  256
370
   -1
100
AcDbLine
 10
1414.219872981078
 20
569.988526329025
 11
1417.119872981078
 21
564.988526329025
  0
LINE
  5
448
100
AcDbEntity
  8
04-Bolts-M6
  6
ByLayer
 62
  256
370
   -1
100
AcDbLine
 10
1417.119872981078
 20
564.988526329025
 11
1422.9
 21
565
  0
CIRCLE
  5
449
100
AcDbEntity
  8
04-Bolts-M6
  6
ByLayer
 62
  256
370
   -1
100
AcDbCircle
 10
1420
 20
570
 40
3
  0
CIRCLE
  5
44A
100
AcDbEntity
  8
04-Bolts-M6
  6
ByLayer
 62
  256
370
   -1
100
AcDbCircle
 10
1420
 20
570
 40
6
  0
LINE
  5
44B
100
AcDbEntity
  8
09-AccessoriesStorage
  6
ByLayer
 62
  256
370
   -1
100
AcDbLine
 10
1900
 20
100
 11
1900
 21
600
  0
LINE
  5
44C
100
AcDbEntity
  8
09-AccessoriesStorage
  6
ByLayer
 62
  256
370
   -1
100
AcDbLine
 10
1900
 20
600
 11
1964
 21
600
  0
LINE
  5
44D
100
AcDbEntity
  8
09-AccessoriesStorage
  6
ByLayer
 62
  256
370
   -1
100
AcDbLine
 10
1964
 20
600
 11
1964
 21
100
  0
LINE
  5
44E
100
AcDbEntity
  8
09-AccessoriesStorage
  6
ByLayer
 62
  256
370
   -1
100
AcDbLine
 10
1900
 20
100
 11
1964
 21
100
  0
LINE
  5
44F
100
AcDbEntity
  8
09-AccessoriesStorage
  6
ByLayer
 62
  256
370
   -1
100
AcDbLine
 10
1902
 20
600
 11
1902
 21
102
  0
LINE
  5
450
100
AcDbEntity
  8
09-AccessoriesStorage
  6
ByLayer
 62
  256
370
   -1
100
AcDbLine
 10
1902
 20
102
 11
1962
 21
102
  0
LINE
  5
451
100
AcDbEntity
  8
09-AccessoriesStorage
  6
ByLayer
 62
  256
370
   -1
100
AcDbLine
 10
1962
 20
102
 11
1962
 21
600
  0
LINE
  5
452
100
AcDbEntity
  8
08-CatchTray
  6
ByLayer
 62
  256
370
   -1
100
AcDbLine
 10
2158.3
 20
544.3
 11
2885.7
 21
544.3
  0
LINE
  5
453
100
AcDbEntity
  8
08-CatchTray
  6
ByLayer
 62
  256
370
   -1
100
AcDbLine
 10
2158.2
 20
634.1
 11
2885.800000000001
 21
634.1
  0
LINE
  5
454
100
AcDbEntity
  8
08-CatchTray
  6
ByLayer
 62
  256
370
   -1
100
AcDbLine
 10
2885.800000000001
 20
634.1
 11
2885.7
 21
544.3000000000001
  0
LINE
  5
455
100
AcDbEntity
  8
08-CatchTray
  6
ByLayer
 62
  256
370
   -1
100
AcDbLine
 10
2158.3
 20
544.3
 11
2158.2
 21
634.1
  0
CIRCLE
  5
456
100
AcDbEntity
  8
04-Spacers-M6
  6
ByLayer
 62
  256
370
   -1
100
AcDbCircle
 10
1650
 20
570
 40
10
  0
CIRCLE
  5
457
100
AcDbEntity
  8
04-Spacers-M6
  6
ByLayer
 62
  256
370
   -1
100
AcDbCircle
 10
1650
 20
570
 40
3
  0
CIRCLE
  5
458
100
AcDbEntity
  8
04-Spacers-M6
  6
ByLayer
 62
  256
370
   -1
100
AcDbCircle
 10
1420
 20
570
 40
3
  0
CIRCLE
  5
459
100
AcDbEntity
  8
04-Spacers-M6
  6
ByLayer
 62
  256
370
   -1
100
AcDbCircle
 10
1420
 20
570
 40
10
  0
LINE
  5
45A
100
AcDbEntity
  8
04-Spacers-M6
  6
ByLayer
 62
  256
370
   -1
100
AcDbLine
 10
2152
 20
579
 11
2158
 21
579
  0
LINE
  5
45B
100
AcDbEntity
  8
04-Spacers-M6
  6
ByLayer
 62
  256
370
   -1
100
AcDbLine
 10
2158
 20
579
 11
2158
 21
559
  0
LINE
  5
45C
100
AcDbEntity
  8
04-Spacers-M6
  6
ByLayer
 62
  256
370
   -1
100
AcDbLine
 10
2158
 20
559
 11
2152
 21
559
  0
LINE
  5
45D
100
AcDbEntity
  8
04-Spacers-M6
  6
ByLayer
 62
  256
370
   -1
100
AcDbLine
 10
2152
 20
559
 11
2152
 21
579
  0
LINE
  5
45E
100
AcDbEntity
  8
04-Spacers-M6
  6
ByLayer
 62
  256
370
   -1
100
AcDbLine
 10
2152
 20
572
 11
2158
 21
572
  0
LINE
  5
45F
100
AcDbEntity
  8
04-Spacers-M6
  6
ByLayer
 62
  256
370
   -1
100
AcDbLine
 10
2158
 20
566
 11
2152
 21
566
  0
LINE
  5
460
100
AcDbEntity
  8
04-Spacers-M6
  6
ByLayer
 62
  256
370
   -1
100
AcDbLine
 10
2886
 20
579
 11
2892
 21
579
  0
LINE
  5
461
100
AcDbEntity
  8
04-Spacers-M6
  6
ByLayer
 62
  256
370
   -1
100
AcDbLine
 10
2892
 20
579
 11
2892
 21
559
  0
LINE
  5
462
100
AcDbEntity
  8
04-Spacers-M6
  6
ByLayer
 62
  256
370
   -1
100
AcDbLine
 10
2892
 20
559
 11
2886
 21
559
  0
LINE
  5
463
100
AcDbEntity
  8
04-Spacers-M6
  6
ByLayer
 62
  256
370
   -1
100
AcDbLine
 10
2886
 20
559
 11
2886
 21
579
  0
LINE
  5
464
100
AcDbEntity
  8
04-Spacers-M6
  6
ByLayer
 62
  256
370
   -1
100
AcDbLine
 10
2886
 20
572
 11
2892
 21
572
  0
LINE
  5
465
100
AcDbEntity
  8
04-Spacers-M6
  6
ByLayer
 62
  256
370
   -1
100
AcDbLine
 10
2892
 20
566
 11
2886
 21
566
  0
LINE
  5
466
100
AcDbEntity
  8
04-Bolts-M6
  6
ByLayer
 62
  256
370
   -1
100
AcDbLine
 10
2886
 20
572
 11
2897
 21
572
  0
LINE
  5
467
100
AcDbEntity
  8
04-Bolts-M6
  6
ByLayer
 62
  256
370
   -1
100
AcDbLine
 10
2897
 20
572
 11
2897
 21
566
  0
LINE
  5
468
100
AcDbEntity
  8
04-Bolts-M6
  6
ByLayer
 62
  256
370
   -1
100
AcDbLine
 10
2897
 20
566
 11
2886
 21
566
  0
LINE
  5
469
100
AcDbEntity
  8
04-Bolts-M6
  6
ByLayer
 62
  256
370
   -1
100
AcDbLine
 10
2886
 20
572
 11
2886
 21
574
  0
LINE
  5
46A
100
AcDbEntity
  8
04-Bolts-M6
  6
ByLayer
 62
  256
370
   -1
100
AcDbLine
 10
2886
 20
574
 11
2881
 21
574
  0
LINE
  5
46B
100
AcDbEntity
  8
04-Bolts-M6
  6
ByLayer
 62
  256
370
   -1
100
AcDbLine
 10
2881
 20
574
 11
2881
 21
564
  0
LINE
  5
46C
100
AcDbEntity
  8
04-Bolts-M6
  6
ByLayer
 62
  256
370
   -1
100
AcDbLine
 10
2881
 20
564
 11
2886
 21
564
  0
LINE
  5
46D
100
AcDbEntity
  8
04-Bolts-M6
  6
ByLayer
 62
  256
370
   -1
100
AcDbLine
 10
2886
 20
564
 11
2886
 21
566
  0
LINE
  5
46E
100
AcDbEntity
  8
04-Bolts-M6
  6
ByLayer
 62
  256
370
   -1
100
AcDbLine
 10
2158
 20
566
 11
2147
 21
566
  0
LINE
  5
46F
100
AcDbEntity
  8
04-Bolts-M6
  6
ByLayer
 62
  256
370
   -1
100
AcDbLine
 10
2147
 20
566
 11
2147
 21
572
  0
LINE
  5
470
100
AcDbEntity
  8
04-Bolts-M6
  6
ByLayer
 62
  256
370
   -1
100
AcDbLine
 10
2147
 20
572
 11
2158
 21
572
  0
LINE
  5
471
100
AcDbEntity
  8
04-Bolts-M6
  6
ByLayer
 62
  256
370
   -1
100
AcDbLine
 10
2158
 20
566
 11
2158
 21
564
  0
LINE
  5
472
100
AcDbEntity
  8
04-Bolts-M6
  6
ByLayer
 62
  256
370
   -1
100
AcDbLine
 10
2158
 20
564
 11
2163
 21
564
  0
LINE
  5
473
100
AcDbEntity
  8
04-Bolts-M6
  6
ByLayer
 62
  256
370
   -1
100
AcDbLine
 10
2163
 20
564
 11
2163
 21
574
  0
LINE
  5
474
100
AcDbEntity
  8
04-Bolts-M6
  6
ByLayer
 62
  256
370
   -1
100
AcDbLine
 10
2163
 20
574
 11
2158
 21
574
  0
LINE
  5
475
100
AcDbEntity
  8
04-Bolts-M6
  6
ByLayer
 62
  256
370
   -1
100
AcDbLine
 10
2158
 20
574
 11
2158
 21
572
  0
DIMENSION
  5
476
100
AcDbEntity
  8
Dims
  6
ByLayer
 62
  256
370
   -1
100
AcDbDimension
  2
*D45
 10
1650
 20
520
 30
0
 11
1672.5
 21
523.125
 31
0
 70
   32
 71
    5
 72
    0
  3
Standard
 53
0
210
0
220
0
230
1
100
AcDbAlignedDimension
 13
1695
 23
530
 33
0
 14
1650
 24
530
 34
0
100
AcDbRotatedDimension
  0
DIMENSION
  5
477
100
AcDbEntity
  8
Dims
  6
ByLayer
 62
  256
370
   -1
100
AcDbDimension
  2
*D46
 10
1420
 20
520
 30
0
 11
1362.5
 21
523.125
 31
0
 70
   32
 71
    5
 72
    0
  3
Standard
 53
0
210
0
220
0
230
1
100
AcDbAlignedDimension
 13
1305
 23
530
 33
0
 14
1420
 24
530
 34
0
100
AcDbRotatedDimension
  0
ENDSEC
  0
SECTION
  2
OBJECTS
  0
DICTIONARY
  5
C
330
0
100
AcDbDictionary
281
    1
  3
ACAD_GROUP
350
D
  0
DICTIONARY
  5
D
330
C
100
AcDbDictionary
281
    1
  0
ENDSEC
  0
EOF
