999
dxflib 2.2.0.0
  0
SECTION
  2
HEADER
  9
$ACADVER
  1
AC1015
  9
$HANDSEED
  5
FFFF
  9
$SPLINESEGS
 70
8
  9
$DIMEXE
 40
1.25
  9
$PSVPSCALE
 40
3.1443569553805775
  9
$DIMLUNIT
 70
2
  9
$GRIDMODE
 70
1
  9
$INSUNITS
 70
4
  9
$DIMADEC
 70
2
  9
$DIMASZ
 40
2.5
  9
$DIMGAP
 40
0.625
  9
$DIMTXT
 40
2.5
  9
$GRIDUNIT
 10
0.0
 20
0.0
  9
$DIMEXO
 40
0.625
  9
$LUPREC
 70
4
  9
$PINSBASE
 10
-1097.9128018449389401
 20
-239.7037820549722937
 30
0.0
  9
$DIMAUNIT
 70
0
  9
$AUPREC
 70
2
  9
$PLIMMIN
 10
0.0
 20
0.0
  9
$LUNITS
 70
2
  9
$PLIMMAX
 10
297.0
 20
210.0
  9
$DIMSTYLE
  2
Standard
  9
$AUNITS
 70
0
  0
ENDSEC
  0
SECTION
  2
TABLES
  0
TABLE
  2
VPORT
  5
8
100
AcDbSymbolTable
 70
1
  0
VPORT
  5
30
100
AcDbSymbolTableRecord
100
AcDbViewportTableRecord
  2
*Active
 70
0
 10
0.0
 20
0.0
 11
1.0
 21
1.0
 12
286.3055555555554861
 22
148.5
 13
0.0
 23
0.0
 14
10.0
 24
10.0
 15
10.0
 25
10.0
 16
0.0
 26
0.0
 36
1.0
 17
0.0
 27
0.0
 37
0.0
 40
297.0
 41
1.92798353909465
 42
50.0
 43
0.0
 44
0.0
 50
0.0
 51
0.0
 71
0
 72
100
 73
1
 74
3
 75
1
 76
1
 77
0
 78
0
281
0
 65
1
110
0.0
120
0.0
130
0.0
111
1.0
121
0.0
131
0.0
112
0.0
122
1.0
132
0.0
 79
0
146
0.0
  0
ENDTAB
  0
TABLE
  2
LTYPE
  5
5
100
AcDbSymbolTable
 70
21
  0
LTYPE
  5
14
100
AcDbSymbolTableRecord
100
AcDbLinetypeTableRecord
  2
ByBlock
 70
0
  3

 72
65
 73
0
 40
0.0
  0
LTYPE
  5
15
100
AcDbSymbolTableRecord
100
AcDbLinetypeTableRecord
  2
ByLayer
 70
0
  3

 72
65
 73
0
 40
0.0
  0
LTYPE
  5
16
100
AcDbSymbolTableRecord
100
AcDbLinetypeTableRecord
  2
CONTINUOUS
 70
0
  3
Solid line
 72
65
 73
0
 40
0.0
  0
LTYPE
  5
31
100
AcDbSymbolTableRecord
100
AcDbLinetypeTableRecord
  2
DOT
 70
0
  3
Dot . . . . . . . . . . . . . . . . . . . . . .
 72
65
 73
2
 40
6.3499999999999996
 49
0.0
 74
0
 49
-6.3499999999999996
 74
0
  0
LTYPE
  5
32
100
AcDbSymbolTableRecord
100
AcDbLinetypeTableRecord
  2
DOT2
 70
0
  3
Dot (.5x) .....................................
 72
65
 73
2
 40
3.1749999999999998
 49
0.0
 74
0
 49
-3.1749999999999998
 74
0
  0
LTYPE
  5
33
100
AcDbSymbolTableRecord
100
AcDbLinetypeTableRecord
  2
DOTX2
 70
0
  3
Dot (2x) .  .  .  .  .  .  .  .  .  .  .  .  .
 72
65
 73
2
 40
12.6999999999999993
 49
0.0
 74
0
 49
-12.6999999999999993
 74
0
  0
LTYPE
  5
34
100
AcDbSymbolTableRecord
100
AcDbLinetypeTableRecord
  2
DASHED
 70
0
  3
Dashed __ __ __ __ __ __ __ __ __ __ __ __ __ _
 72
65
 73
2
 40
19.0500000000000007
 49
12.6999999999999993
 74
0
 49
-6.3499999999999996
 74
0
  0
LTYPE
  5
35
100
AcDbSymbolTableRecord
100
AcDbLinetypeTableRecord
  2
DASHED2
 70
0
  3
Dashed (.5x) _ _ _ _ _ _ _ _ _ _ _ _ _ _ _ _ _
 72
65
 73
2
 40
9.5250000000000004
 49
6.3499999999999996
 74
0
 49
-3.1749999999999998
 74
0
  0
LTYPE
  5
36
100
AcDbSymbolTableRecord
100
AcDbLinetypeTableRecord
  2
DASHEDX2
 70
0
  3
Dashed (2x) ____  ____  ____  ____  ____  ___
 72
65
 73
2
 40
38.1000000000000014
 49
25.3999999999999986
 74
0
 49
-12.6999999999999993
 74
0
  0
LTYPE
  5
37
100
AcDbSymbolTableRecord
100
AcDbLinetypeTableRecord
  2
DASHDOT
 70
0
  3
Dash dot __ . __ . __ . __ . __ . __ . __ . __
 72
65
 73
4
 40
25.3999999999999986
 49
12.6999999999999993
 74
0
 49
-6.3499999999999996
 74
0
 49
0.0
 74
0
 49
-6.3499999999999996
 74
0
  0
LTYPE
  5
38
100
AcDbSymbolTableRecord
100
AcDbLinetypeTableRecord
  2
DASHDOT2
 70
0
  3
Dash dot (.5x) _._._._._._._._._._._._._._._.
 72
65
 73
4
 40
12.6999999999999993
 49
6.3499999999999996
 74
0
 49
-3.1749999999999998
 74
0
 49
0.0
 74
0
 49
-3.1749999999999998
 74
0
  0
LTYPE
  5
39
100
AcDbSymbolTableRecord
100
AcDbLinetypeTableRecord
  2
DASHDOTX2
 70
0
  3
Dash dot (2x) ____  .  ____  .  ____  .  ___
 72
65
 73
4
 40
50.7999999999999972
 49
25.3999999999999986
 74
0
 49
-12.6999999999999993
 74
0
 49
0.0
 74
0
 49
-12.6999999999999993
 74
0
  0
LTYPE
  5
3A
100
AcDbSymbolTableRecord
100
AcDbLinetypeTableRecord
  2
DIVIDE
 70
0
  3
Divide ____ . . ____ . . ____ . . ____ . . ____
 72
65
 73
6
 40
31.75
 49
12.6999999999999993
 74
0
 49
-6.3499999999999996
 74
0
 49
0.0
 74
0
 49
-6.3499999999999996
 74
0
 49
0.0
 74
0
 49
-6.3499999999999996
 74
0
  0
LTYPE
  5
3B
100
AcDbSymbolTableRecord
100
AcDbLinetypeTableRecord
  2
DIVIDE2
 70
0
  3
Divide (.5x) __..__..__..__..__..__..__..__.._
 72
65
 73
6
 40
15.875
 49
6.3499999999999996
 74
0
 49
-3.1749999999999998
 74
0
 49
0.0
 74
0
 49
-3.1749999999999998
 74
0
 49
0.0
 74
0
 49
-3.1749999999999998
 74
0
  0
LTYPE
  5
3C
100
AcDbSymbolTableRecord
100
AcDbLinetypeTableRecord
  2
DIVIDEX2
 70
0
  3
Divide (2x) ________  .  .  ________  .  .  _
 72
65
 73
6
 40
63.5
 49
25.3999999999999986
 74
0
 49
-12.6999999999999993
 74
0
 49
0.0
 74
0
 49
-12.6999999999999993
 74
0
 49
0.0
 74
0
 49
-12.6999999999999993
 74
0
  0
LTYPE
  5
3D
100
AcDbSymbolTableRecord
100
AcDbLinetypeTableRecord
  2
CENTER
 70
0
  3
Center ____ _ ____ _ ____ _ ____ _ ____ _ ____
 72
65
 73
4
 40
50.7999999999999972
 49
31.75
 74
0
 49
-6.3499999999999996
 74
0
 49
6.3499999999999996
 74
0
 49
-6.3499999999999996
 74
0
  0
LTYPE
  5
3E
100
AcDbSymbolTableRecord
100
AcDbLinetypeTableRecord
  2
CENTER2
 70
0
  3
Center (.5x) ___ _ ___ _ ___ _ ___ _ ___ _ ___
 72
65
 73
4
 40
28.5749999999999993
 49
19.0500000000000007
 74
0
 49
-3.1749999999999998
 74
0
 49
3.1749999999999998
 74
0
 49
-3.1749999999999998
 74
0
  0
LTYPE
  5
3F
100
AcDbSymbolTableRecord
100
AcDbLinetypeTableRecord
  2
CENTERX2
 70
0
  3
Center (2x) ________  __  ________  __  _____
 72
65
 73
4
 40
101.5999999999999943
 49
63.5
 74
0
 49
-12.6999999999999993
 74
0
 49
12.6999999999999993
 74
0
 49
-12.6999999999999993
 74
0
  0
LTYPE
  5
40
100
AcDbSymbolTableRecord
100
AcDbLinetypeTableRecord
  2
BORDER
 70
0
  3
Border __ __ . __ __ . __ __ . __ __ . __ __ .
 72
65
 73
6
 40
44.4500000000000028
 49
12.6999999999999993
 74
0
 49
-6.3499999999999996
 74
0
 49
12.6999999999999993
 74
0
 49
-6.3499999999999996
 74
0
 49
0.0
 74
0
 49
-6.3499999999999996
 74
0
  0
LTYPE
  5
41
100
AcDbSymbolTableRecord
100
AcDbLinetypeTableRecord
  2
BORDER2
 70
0
  3
Border (.5x) __.__.__.__.__.__.__.__.__.__.__.
 72
65
 73
6
 40
22.2250000000000014
 49
6.3499999999999996
 74
0
 49
-3.1749999999999998
 74
0
 49
6.3499999999999996
 74
0
 49
-3.1749999999999998
 74
0
 49
0.0
 74
0
 49
-3.1749999999999998
 74
0
  0
LTYPE
  5
42
100
AcDbSymbolTableRecord
100
AcDbLinetypeTableRecord
  2
BORDERX2
 70
0
  3
Border (2x) ____  ____  .  ____  ____  .  ___
 72
65
 73
6
 40
88.9000000000000057
 49
25.3999999999999986
 74
0
 49
-12.6999999999999993
 74
0
 49
25.3999999999999986
 74
0
 49
-12.6999999999999993
 74
0
 49
0.0
 74
0
 49
-12.6999999999999993
 74
0
  0
ENDTAB
  0
TABLE
  2
LAYER
  5
2
100
AcDbSymbolTable
 70
1
  0
LAYER
  5
10
100
AcDbSymbolTableRecord
100
AcDbLayerTableRecord
  2
0
 70
0
 62
7
  6
CONTINUOUS
290
1
370
25
390
F
  0
ENDTAB
  0
TABLE
  2
STYLE
  5
3
100
AcDbSymbolTable
 70
1
  0
STYLE
  5
11
100
AcDbSymbolTableRecord
100
AcDbTextStyleTableRecord
  2
Standard
 70
0
 40
0.0
 41
0.75
 50
0.0
 71
0
 42
2.5
  3
txt
  4

  0
ENDTAB
  0
TABLE
  2
VIEW
  5
6
100
AcDbSymbolTable
 70
0
  0
ENDTAB
  0
TABLE
  2
UCS
  5
7
100
AcDbSymbolTable
 70
0
  0
ENDTAB
  0
TABLE
  2
APPID
  5
9
100
AcDbSymbolTable
 70
1
  0
APPID
  5
12
100
AcDbSymbolTableRecord
100
AcDbRegAppTableRecord
  2
ACAD
 70
0
  0
ENDTAB
  0
TABLE
  2
DIMSTYLE
  5
A
100
AcDbSymbolTable
 70
1
100
AcDbDimStyleTable
 71
0
  0
DIMSTYLE
105
27
100
AcDbSymbolTableRecord
100
AcDbDimStyleTableRecord
  2
Standard
 41
2.5
 42
0.625
 43
3.75
 44
1.25
 70
0
 73
0
 74
0
 77
1
 78
8
140
2.5
141
2.5
143
0.03937007874016
147
0.625
171
3
172
1
271
2
272
2
274
3
278
44
283
0
284
8
340
11
  0
ENDTAB
  0
TABLE
  2
BLOCK_RECORD
  5
1
100
AcDbSymbolTable
 70
1
  0
BLOCK_RECORD
  5
1F
100
AcDbSymbolTableRecord
100
AcDbBlockTableRecord
  2
*Model_Space
340
22
  0
BLOCK_RECORD
  5
1B
100
AcDbSymbolTableRecord
100
AcDbBlockTableRecord
  2
*Paper_Space
340
1E
  0
BLOCK_RECORD
  5
23
100
AcDbSymbolTableRecord
100
AcDbBlockTableRecord
  2
*Paper_Space0
340
26
  0
ENDTAB
  0
ENDSEC
  0
SECTION
  2
BLOCKS
  0
BLOCK
  5
20
100
AcDbEntity
  8
0
100
AcDbBlockBegin
  2
*Model_Space
 70
0
 10
0.0
 20
0.0
 30
0.0
  3
*Model_Space
  1

  0
ENDBLK
  5
21
100
AcDbEntity
  8
0
100
AcDbBlockEnd
  0
BLOCK
  5
1C
100
AcDbEntity
 67
1
  8
0
100
AcDbBlockBegin
  2
*Paper_Space
 70
0
 10
0.0
 20
0.0
 30
0.0
  3
*Paper_Space
  1

  0
ENDBLK
  5
1D
100
AcDbEntity
 67
1
  8
0
100
AcDbBlockEnd
  0
BLOCK
  5
24
100
AcDbEntity
  8
0
100
AcDbBlockBegin
  2
*Paper_Space0
 70
0
 10
0.0
 20
0.0
 30
0.0
  3
*Paper_Space0
  1

  0
ENDBLK
  5
25
100
AcDbEntity
  8
0
100
AcDbBlockEnd
  0
ENDSEC
  0
SECTION
  2
ENTITIES
  0
CIRCLE
  5
43
100
AcDbEntity
100
AcDbCircle
  8
0
 62
256
370
-1
  6
ByLayer
 10
100.0
 20
100.0
 30
0.0
 40
45.0
  0
LINE
  5
44
100
AcDbEntity
100
AcDbLine
  8
0
 62
256
370
-1
  6
ByLayer
 10
428.5999999999999659
 20
100.0000000000000142
 30
0.0
 11
428.5999999999999659
 21
120.0000000000000142
 31
0.0
  0
LINE
  5
45
100
AcDbEntity
100
AcDbLine
  8
0
 62
256
370
-1
  6
ByLayer
 10
200.0
 20
120.0
 30
0.0
 11
200.0
 21
110.0
 31
0.0
  0
LINE
  5
46
100
AcDbEntity
100
AcDbLine
  8
0
 62
256
370
-1
  6
ByLayer
 10
200.0
 20
100.0
 30
0.0
 11
200.0
 21
110.0
 31
0.0
  0
LINE
  5
47
100
AcDbEntity
100
AcDbLine
  8
0
 62
256
370
-1
  6
ByLayer
 10
200.6350000000000193
 20
100.0
 30
0.0
 11
200.6350000000000193
 21
110.0
 31
0.0
  0
LINE
  5
48
100
AcDbEntity
100
AcDbLine
  8
0
 62
256
370
-1
  6
ByLayer
 10
201.2700000000000387
 20
100.0
 30
0.0
 11
201.2700000000000387
 21
110.0
 31
0.0
  0
LINE
  5
49
100
AcDbEntity
100
AcDbLine
  8
0
 62
256
370
-1
  6
ByLayer
 10
201.905000000000058
 20
100.0
 30
0.0
 11
201.905000000000058
 21
110.0
 31
0.0
  0
LINE
  5
4A
100
AcDbEntity
100
AcDbLine
  8
0
 62
256
370
-1
  6
ByLayer
 10
202.5400000000000773
 20
100.0
 30
0.0
 11
202.5400000000000773
 21
110.0
 31
0.0
  0
LINE
  5
4B
100
AcDbEntity
100
AcDbLine
  8
0
 62
256
370
-1
  6
ByLayer
 10
203.1750000000000966
 20
100.0
 30
0.0
 11
203.1750000000000966
 21
110.0
 31
0.0
  0
LINE
  5
4C
100
AcDbEntity
100
AcDbLine
  8
0
 62
256
370
-1
  6
ByLayer
 10
203.810000000000116
 20
100.0
 30
0.0
 11
203.810000000000116
 21
110.0
 31
0.0
  0
LINE
  5
4D
100
AcDbEntity
100
AcDbLine
  8
0
 62
256
370
-1
  6
ByLayer
 10
204.4450000000001353
 20
100.0
 30
0.0
 11
204.4450000000001353
 21
110.0
 31
0.0
  0
LINE
  5
4E
100
AcDbEntity
100
AcDbLine
  8
0
 62
256
370
-1
  6
ByLayer
 10
205.0800000000001546
 20
100.0
 30
0.0
 11
205.0800000000001546
 21
110.0
 31
0.0
  0
LINE
  5
4F
100
AcDbEntity
100
AcDbLine
  8
0
 62
256
370
-1
  6
ByLayer
 10
205.7150000000001739
 20
100.0
 30
0.0
 11
205.7150000000001739
 21
110.0
 31
0.0
  0
LINE
  5
50
100
AcDbEntity
100
AcDbLine
  8
0
 62
256
370
-1
  6
ByLayer
 10
206.3500000000001933
 20
100.0
 30
0.0
 11
206.3500000000001933
 21
110.0
 31
0.0
  0
LINE
  5
51
100
AcDbEntity
100
AcDbLine
  8
0
 62
256
370
-1
  6
ByLayer
 10
206.9850000000002126
 20
100.0
 30
0.0
 11
206.9850000000002126
 21
110.0
 31
0.0
  0
LINE
  5
52
100
AcDbEntity
100
AcDbLine
  8
0
 62
256
370
-1
  6
ByLayer
 10
207.6200000000002319
 20
100.0
 30
0.0
 11
207.6200000000002319
 21
110.0
 31
0.0
  0
LINE
  5
53
100
AcDbEntity
100
AcDbLine
  8
0
 62
256
370
-1
  6
ByLayer
 10
208.2550000000002512
 20
100.0
 30
0.0
 11
208.2550000000002512
 21
110.0
 31
0.0
  0
LINE
  5
54
100
AcDbEntity
100
AcDbLine
  8
0
 62
256
370
-1
  6
ByLayer
 10
208.8900000000002706
 20
100.0
 30
0.0
 11
208.8900000000002706
 21
110.0
 31
0.0
  0
LINE
  5
55
100
AcDbEntity
100
AcDbLine
  8
0
 62
256
370
-1
  6
ByLayer
 10
209.5250000000002899
 20
100.0
 30
0.0
 11
209.5250000000002899
 21
110.0
 31
0.0
  0
LINE
  5
56
100
AcDbEntity
100
AcDbLine
  8
0
 62
256
370
-1
  6
ByLayer
 10
210.1600000000003092
 20
100.0
 30
0.0
 11
210.1600000000003092
 21
110.0
 31
0.0
  0
LINE
  5
57
100
AcDbEntity
100
AcDbLine
  8
0
 62
256
370
-1
  6
ByLayer
 10
210.7950000000003286
 20
100.0
 30
0.0
 11
210.7950000000003286
 21
110.0
 31
0.0
  0
LINE
  5
58
100
AcDbEntity
100
AcDbLine
  8
0
 62
256
370
-1
  6
ByLayer
 10
211.4300000000003479
 20
100.0
 30
0.0
 11
211.4300000000003479
 21
110.0
 31
0.0
  0
LINE
  5
59
100
AcDbEntity
100
AcDbLine
  8
0
 62
256
370
-1
  6
ByLayer
 10
212.0650000000003672
 20
100.0
 30
0.0
 11
212.0650000000003672
 21
110.0
 31
0.0
  0
LINE
  5
5A
100
AcDbEntity
100
AcDbLine
  8
0
 62
256
370
-1
  6
ByLayer
 10
212.7000000000003865
 20
100.0
 30
0.0
 11
212.7000000000003865
 21
110.0
 31
0.0
  0
LINE
  5
5B
100
AcDbEntity
100
AcDbLine
  8
0
 62
256
370
-1
  6
ByLayer
 10
213.3350000000004059
 20
100.0
 30
0.0
 11
213.3350000000004059
 21
110.0
 31
0.0
  0
LINE
  5
5C
100
AcDbEntity
100
AcDbLine
  8
0
 62
256
370
-1
  6
ByLayer
 10
213.9700000000004252
 20
100.0
 30
0.0
 11
213.9700000000004252
 21
110.0
 31
0.0
  0
LINE
  5
5D
100
AcDbEntity
100
AcDbLine
  8
0
 62
256
370
-1
  6
ByLayer
 10
214.6050000000004445
 20
100.0
 30
0.0
 11
214.6050000000004445
 21
110.0
 31
0.0
  0
LINE
  5
5E
100
AcDbEntity
100
AcDbLine
  8
0
 62
256
370
-1
  6
ByLayer
 10
215.2400000000004638
 20
100.0
 30
0.0
 11
215.2400000000004638
 21
110.0
 31
0.0
  0
LINE
  5
5F
100
AcDbEntity
100
AcDbLine
  8
0
 62
256
370
-1
  6
ByLayer
 10
215.8750000000004832
 20
100.0
 30
0.0
 11
215.8750000000004832
 21
110.0
 31
0.0
  0
LINE
  5
60
100
AcDbEntity
100
AcDbLine
  8
0
 62
256
370
-1
  6
ByLayer
 10
216.5100000000005025
 20
100.0
 30
0.0
 11
216.5100000000005025
 21
110.0
 31
0.0
  0
LINE
  5
61
100
AcDbEntity
100
AcDbLine
  8
0
 62
256
370
-1
  6
ByLayer
 10
217.1450000000005218
 20
100.0
 30
0.0
 11
217.1450000000005218
 21
110.0
 31
0.0
  0
LINE
  5
62
100
AcDbEntity
100
AcDbLine
  8
0
 62
256
370
-1
  6
ByLayer
 10
217.7800000000005411
 20
100.0
 30
0.0
 11
217.7800000000005411
 21
110.0
 31
0.0
  0
LINE
  5
63
100
AcDbEntity
100
AcDbLine
  8
0
 62
256
370
-1
  6
ByLayer
 10
218.4150000000005605
 20
100.0
 30
0.0
 11
218.4150000000005605
 21
110.0
 31
0.0
  0
LINE
  5
64
100
AcDbEntity
100
AcDbLine
  8
0
 62
256
370
-1
  6
ByLayer
 10
219.0500000000005798
 20
100.0
 30
0.0
 11
219.0500000000005798
 21
110.0
 31
0.0
  0
LINE
  5
65
100
AcDbEntity
100
AcDbLine
  8
0
 62
256
370
-1
  6
ByLayer
 10
219.6850000000005991
 20
100.0
 30
0.0
 11
219.6850000000005991
 21
110.0
 31
0.0
  0
LINE
  5
66
100
AcDbEntity
100
AcDbLine
  8
0
 62
256
370
-1
  6
ByLayer
 10
220.3200000000006185
 20
100.0
 30
0.0
 11
220.3200000000006185
 21
110.0
 31
0.0
  0
LINE
  5
67
100
AcDbEntity
100
AcDbLine
  8
0
 62
256
370
-1
  6
ByLayer
 10
220.9550000000006378
 20
100.0
 30
0.0
 11
220.9550000000006378
 21
110.0
 31
0.0
  0
LINE
  5
68
100
AcDbEntity
100
AcDbLine
  8
0
 62
256
370
-1
  6
ByLayer
 10
221.5900000000006571
 20
100.0
 30
0.0
 11
221.5900000000006571
 21
110.0
 31
0.0
  0
LINE
  5
69
100
AcDbEntity
100
AcDbLine
  8
0
 62
256
370
-1
  6
ByLayer
 10
222.2250000000006764
 20
100.0
 30
0.0
 11
222.2250000000006764
 21
110.0
 31
0.0
  0
LINE
  5
6A
100
AcDbEntity
100
AcDbLine
  8
0
 62
256
370
-1
  6
ByLayer
 10
222.8600000000006958
 20
100.0
 30
0.0
 11
222.8600000000006958
 21
110.0
 31
0.0
  0
LINE
  5
6B
100
AcDbEntity
100
AcDbLine
  8
0
 62
256
370
-1
  6
ByLayer
 10
223.4950000000007151
 20
100.0
 30
0.0
 11
223.4950000000007151
 21
110.0
 31
0.0
  0
LINE
  5
6C
100
AcDbEntity
100
AcDbLine
  8
0
 62
256
370
-1
  6
ByLayer
 10
224.1300000000007344
 20
100.0
 30
0.0
 11
224.1300000000007344
 21
110.0
 31
0.0
  0
LINE
  5
6D
100
AcDbEntity
100
AcDbLine
  8
0
 62
256
370
-1
  6
ByLayer
 10
224.7650000000007537
 20
100.0
 30
0.0
 11
224.7650000000007537
 21
110.0
 31
0.0
  0
LINE
  5
6E
100
AcDbEntity
100
AcDbLine
  8
0
 62
256
370
-1
  6
ByLayer
 10
225.4000000000007731
 20
100.0
 30
0.0
 11
225.4000000000007731
 21
110.0
 31
0.0
  0
LINE
  5
6F
100
AcDbEntity
100
AcDbLine
  8
0
 62
256
370
-1
  6
ByLayer
 10
226.0350000000007924
 20
100.0
 30
0.0
 11
226.0350000000007924
 21
110.0
 31
0.0
  0
LINE
  5
70
100
AcDbEntity
100
AcDbLine
  8
0
 62
256
370
-1
  6
ByLayer
 10
226.6700000000008117
 20
100.0
 30
0.0
 11
226.6700000000008117
 21
110.0
 31
0.0
  0
LINE
  5
71
100
AcDbEntity
100
AcDbLine
  8
0
 62
256
370
-1
  6
ByLayer
 10
227.3050000000008311
 20
100.0
 30
0.0
 11
227.3050000000008311
 21
110.0
 31
0.0
  0
LINE
  5
72
100
AcDbEntity
100
AcDbLine
  8
0
 62
256
370
-1
  6
ByLayer
 10
227.9400000000008504
 20
100.0
 30
0.0
 11
227.9400000000008504
 21
110.0
 31
0.0
  0
LINE
  5
73
100
AcDbEntity
100
AcDbLine
  8
0
 62
256
370
-1
  6
ByLayer
 10
228.5750000000008697
 20
100.0
 30
0.0
 11
228.5750000000008697
 21
110.0
 31
0.0
  0
LINE
  5
74
100
AcDbEntity
100
AcDbLine
  8
0
 62
256
370
-1
  6
ByLayer
 10
229.210000000000889
 20
100.0
 30
0.0
 11
229.210000000000889
 21
110.0
 31
0.0
  0
LINE
  5
75
100
AcDbEntity
100
AcDbLine
  8
0
 62
256
370
-1
  6
ByLayer
 10
229.8450000000009084
 20
100.0
 30
0.0
 11
229.8450000000009084
 21
110.0
 31
0.0
  0
LINE
  5
76
100
AcDbEntity
100
AcDbLine
  8
0
 62
256
370
-1
  6
ByLayer
 10
230.4800000000009277
 20
100.0
 30
0.0
 11
230.4800000000009277
 21
110.0
 31
0.0
  0
LINE
  5
77
100
AcDbEntity
100
AcDbLine
  8
0
 62
256
370
-1
  6
ByLayer
 10
231.115000000000947
 20
100.0
 30
0.0
 11
231.115000000000947
 21
110.0
 31
0.0
  0
LINE
  5
78
100
AcDbEntity
100
AcDbLine
  8
0
 62
256
370
-1
  6
ByLayer
 10
231.7500000000009663
 20
100.0
 30
0.0
 11
231.7500000000009663
 21
110.0
 31
0.0
  0
LINE
  5
79
100
AcDbEntity
100
AcDbLine
  8
0
 62
256
370
-1
  6
ByLayer
 10
232.3850000000009857
 20
100.0
 30
0.0
 11
232.3850000000009857
 21
110.0
 31
0.0
  0
LINE
  5
7A
100
AcDbEntity
100
AcDbLine
  8
0
 62
256
370
-1
  6
ByLayer
 10
233.020000000001005
 20
100.0
 30
0.0
 11
233.020000000001005
 21
110.0
 31
0.0
  0
LINE
  5
7B
100
AcDbEntity
100
AcDbLine
  8
0
 62
256
370
-1
  6
ByLayer
 10
233.6550000000010243
 20
100.0
 30
0.0
 11
233.6550000000010243
 21
110.0
 31
0.0
  0
LINE
  5
7C
100
AcDbEntity
100
AcDbLine
  8
0
 62
256
370
-1
  6
ByLayer
 10
234.2900000000010436
 20
100.0
 30
0.0
 11
234.2900000000010436
 21
110.0
 31
0.0
  0
LINE
  5
7D
100
AcDbEntity
100
AcDbLine
  8
0
 62
256
370
-1
  6
ByLayer
 10
234.925000000001063
 20
100.0
 30
0.0
 11
234.925000000001063
 21
110.0
 31
0.0
  0
LINE
  5
7E
100
AcDbEntity
100
AcDbLine
  8
0
 62
256
370
-1
  6
ByLayer
 10
235.5600000000010823
 20
100.0
 30
0.0
 11
235.5600000000010823
 21
110.0
 31
0.0
  0
LINE
  5
7F
100
AcDbEntity
100
AcDbLine
  8
0
 62
256
370
-1
  6
ByLayer
 10
236.1950000000011016
 20
100.0
 30
0.0
 11
236.1950000000011016
 21
110.0
 31
0.0
  0
LINE
  5
80
100
AcDbEntity
100
AcDbLine
  8
0
 62
256
370
-1
  6
ByLayer
 10
236.830000000001121
 20
100.0
 30
0.0
 11
236.830000000001121
 21
110.0
 31
0.0
  0
LINE
  5
81
100
AcDbEntity
100
AcDbLine
  8
0
 62
256
370
-1
  6
ByLayer
 10
237.4650000000011403
 20
100.0
 30
0.0
 11
237.4650000000011403
 21
110.0
 31
0.0
  0
LINE
  5
82
100
AcDbEntity
100
AcDbLine
  8
0
 62
256
370
-1
  6
ByLayer
 10
238.1000000000011596
 20
100.0
 30
0.0
 11
238.1000000000011596
 21
110.0
 31
0.0
  0
LINE
  5
83
100
AcDbEntity
100
AcDbLine
  8
0
 62
256
370
-1
  6
ByLayer
 10
238.7350000000011789
 20
100.0
 30
0.0
 11
238.7350000000011789
 21
110.0
 31
0.0
  0
LINE
  5
84
100
AcDbEntity
100
AcDbLine
  8
0
 62
256
370
-1
  6
ByLayer
 10
239.3700000000011983
 20
100.0
 30
0.0
 11
239.3700000000011983
 21
110.0
 31
0.0
  0
LINE
  5
85
100
AcDbEntity
100
AcDbLine
  8
0
 62
256
370
-1
  6
ByLayer
 10
240.0050000000012176
 20
100.0
 30
0.0
 11
240.0050000000012176
 21
110.0
 31
0.0
  0
LINE
  5
86
100
AcDbEntity
100
AcDbLine
  8
0
 62
256
370
-1
  6
ByLayer
 10
240.6400000000012369
 20
100.0
 30
0.0
 11
240.6400000000012369
 21
110.0
 31
0.0
  0
LINE
  5
87
100
AcDbEntity
100
AcDbLine
  8
0
 62
256
370
-1
  6
ByLayer
 10
241.2750000000012562
 20
100.0
 30
0.0
 11
241.2750000000012562
 21
110.0
 31
0.0
  0
LINE
  5
88
100
AcDbEntity
100
AcDbLine
  8
0
 62
256
370
-1
  6
ByLayer
 10
241.9100000000012756
 20
100.0
 30
0.0
 11
241.9100000000012756
 21
110.0
 31
0.0
  0
LINE
  5
89
100
AcDbEntity
100
AcDbLine
  8
0
 62
256
370
-1
  6
ByLayer
 10
242.5450000000012949
 20
100.0
 30
0.0
 11
242.5450000000012949
 21
110.0
 31
0.0
  0
LINE
  5
8A
100
AcDbEntity
100
AcDbLine
  8
0
 62
256
370
-1
  6
ByLayer
 10
243.1800000000013142
 20
100.0
 30
0.0
 11
243.1800000000013142
 21
110.0
 31
0.0
  0
LINE
  5
8B
100
AcDbEntity
100
AcDbLine
  8
0
 62
256
370
-1
  6
ByLayer
 10
243.8150000000013335
 20
100.0
 30
0.0
 11
243.8150000000013335
 21
110.0
 31
0.0
  0
LINE
  5
8C
100
AcDbEntity
100
AcDbLine
  8
0
 62
256
370
-1
  6
ByLayer
 10
244.4500000000013529
 20
100.0
 30
0.0
 11
244.4500000000013529
 21
110.0
 31
0.0
  0
LINE
  5
8D
100
AcDbEntity
100
AcDbLine
  8
0
 62
256
370
-1
  6
ByLayer
 10
245.0850000000013722
 20
100.0
 30
0.0
 11
245.0850000000013722
 21
110.0
 31
0.0
  0
LINE
  5
8E
100
AcDbEntity
100
AcDbLine
  8
0
 62
256
370
-1
  6
ByLayer
 10
245.7200000000013915
 20
100.0
 30
0.0
 11
245.7200000000013915
 21
110.0
 31
0.0
  0
LINE
  5
8F
100
AcDbEntity
100
AcDbLine
  8
0
 62
256
370
-1
  6
ByLayer
 10
246.3550000000014109
 20
100.0
 30
0.0
 11
246.3550000000014109
 21
110.0
 31
0.0
  0
LINE
  5
90
100
AcDbEntity
100
AcDbLine
  8
0
 62
256
370
-1
  6
ByLayer
 10
246.9900000000014302
 20
100.0
 30
0.0
 11
246.9900000000014302
 21
110.0
 31
0.0
  0
LINE
  5
91
100
AcDbEntity
100
AcDbLine
  8
0
 62
256
370
-1
  6
ByLayer
 10
247.6250000000014495
 20
100.0
 30
0.0
 11
247.6250000000014495
 21
110.0
 31
0.0
  0
LINE
  5
92
100
AcDbEntity
100
AcDbLine
  8
0
 62
256
370
-1
  6
ByLayer
 10
248.2600000000014688
 20
100.0
 30
0.0
 11
248.2600000000014688
 21
110.0
 31
0.0
  0
LINE
  5
93
100
AcDbEntity
100
AcDbLine
  8
0
 62
256
370
-1
  6
ByLayer
 10
248.8950000000014882
 20
100.0
 30
0.0
 11
248.8950000000014882
 21
110.0
 31
0.0
  0
LINE
  5
94
100
AcDbEntity
100
AcDbLine
  8
0
 62
256
370
-1
  6
ByLayer
 10
249.5300000000015075
 20
100.0
 30
0.0
 11
249.5300000000015075
 21
110.0
 31
0.0
  0
LINE
  5
95
100
AcDbEntity
100
AcDbLine
  8
0
 62
256
370
-1
  6
ByLayer
 10
250.1650000000015268
 20
100.0
 30
0.0
 11
250.1650000000015268
 21
110.0
 31
0.0
  0
LINE
  5
96
100
AcDbEntity
100
AcDbLine
  8
0
 62
256
370
-1
  6
ByLayer
 10
250.8000000000015461
 20
100.0
 30
0.0
 11
250.8000000000015461
 21
110.0
 31
0.0
  0
LINE
  5
97
100
AcDbEntity
100
AcDbLine
  8
0
 62
256
370
-1
  6
ByLayer
 10
251.4350000000015655
 20
100.0
 30
0.0
 11
251.4350000000015655
 21
110.0
 31
0.0
  0
LINE
  5
98
100
AcDbEntity
100
AcDbLine
  8
0
 62
256
370
-1
  6
ByLayer
 10
252.0700000000015848
 20
100.0
 30
0.0
 11
252.0700000000015848
 21
110.0
 31
0.0
  0
LINE
  5
99
100
AcDbEntity
100
AcDbLine
  8
0
 62
256
370
-1
  6
ByLayer
 10
252.7050000000016041
 20
100.0
 30
0.0
 11
252.7050000000016041
 21
110.0
 31
0.0
  0
LINE
  5
9A
100
AcDbEntity
100
AcDbLine
  8
0
 62
256
370
-1
  6
ByLayer
 10
253.3400000000016234
 20
100.0
 30
0.0
 11
253.3400000000016234
 21
110.0
 31
0.0
  0
LINE
  5
9B
100
AcDbEntity
100
AcDbLine
  8
0
 62
256
370
-1
  6
ByLayer
 10
253.9750000000016428
 20
100.0
 30
0.0
 11
253.9750000000016428
 21
110.0
 31
0.0
  0
LINE
  5
9C
100
AcDbEntity
100
AcDbLine
  8
0
 62
256
370
-1
  6
ByLayer
 10
254.6100000000016621
 20
100.0
 30
0.0
 11
254.6100000000016621
 21
110.0
 31
0.0
  0
LINE
  5
9D
100
AcDbEntity
100
AcDbLine
  8
0
 62
256
370
-1
  6
ByLayer
 10
255.2450000000016814
 20
100.0
 30
0.0
 11
255.2450000000016814
 21
110.0
 31
0.0
  0
LINE
  5
9E
100
AcDbEntity
100
AcDbLine
  8
0
 62
256
370
-1
  6
ByLayer
 10
255.8800000000017008
 20
100.0
 30
0.0
 11
255.8800000000017008
 21
110.0
 31
0.0
  0
LINE
  5
9F
100
AcDbEntity
100
AcDbLine
  8
0
 62
256
370
-1
  6
ByLayer
 10
256.5150000000016917
 20
100.0
 30
0.0
 11
256.5150000000016917
 21
110.0
 31
0.0
  0
LINE
  5
A0
100
AcDbEntity
100
AcDbLine
  8
0
 62
256
370
-1
  6
ByLayer
 10
257.1500000000017394
 20
100.0
 30
0.0
 11
257.1500000000017394
 21
110.0
 31
0.0
  0
LINE
  5
A1
100
AcDbEntity
100
AcDbLine
  8
0
 62
256
370
-1
  6
ByLayer
 10
257.7850000000017872
 20
100.0
 30
0.0
 11
257.7850000000017872
 21
110.0
 31
0.0
  0
LINE
  5
A2
100
AcDbEntity
100
AcDbLine
  8
0
 62
256
370
-1
  6
ByLayer
 10
258.4200000000017781
 20
100.0
 30
0.0
 11
258.4200000000017781
 21
110.0
 31
0.0
  0
LINE
  5
A3
100
AcDbEntity
100
AcDbLine
  8
0
 62
256
370
-1
  6
ByLayer
 10
259.055000000001769
 20
100.0
 30
0.0
 11
259.055000000001769
 21
110.0
 31
0.0
  0
LINE
  5
A4
100
AcDbEntity
100
AcDbLine
  8
0
 62
256
370
-1
  6
ByLayer
 10
259.6900000000018167
 20
100.0
 30
0.0
 11
259.6900000000018167
 21
110.0
 31
0.0
  0
LINE
  5
A5
100
AcDbEntity
100
AcDbLine
  8
0
 62
256
370
-1
  6
ByLayer
 10
260.3250000000018645
 20
100.0
 30
0.0
 11
260.3250000000018645
 21
110.0
 31
0.0
  0
LINE
  5
A6
100
AcDbEntity
100
AcDbLine
  8
0
 62
256
370
-1
  6
ByLayer
 10
260.9600000000018554
 20
100.0
 30
0.0
 11
260.9600000000018554
 21
110.0
 31
0.0
  0
LINE
  5
A7
100
AcDbEntity
100
AcDbLine
  8
0
 62
256
370
-1
  6
ByLayer
 10
261.5950000000018463
 20
100.0
 30
0.0
 11
261.5950000000018463
 21
110.0
 31
0.0
  0
LINE
  5
A8
100
AcDbEntity
100
AcDbLine
  8
0
 62
256
370
-1
  6
ByLayer
 10
262.230000000001894
 20
100.0
 30
0.0
 11
262.230000000001894
 21
110.0
 31
0.0
  0
LINE
  5
A9
100
AcDbEntity
100
AcDbLine
  8
0
 62
256
370
-1
  6
ByLayer
 10
262.8650000000019418
 20
100.0
 30
0.0
 11
262.8650000000019418
 21
110.0
 31
0.0
  0
LINE
  5
AA
100
AcDbEntity
100
AcDbLine
  8
0
 62
256
370
-1
  6
ByLayer
 10
263.5000000000019327
 20
100.0
 30
0.0
 11
263.5000000000019327
 21
110.0
 31
0.0
  0
LINE
  5
AB
100
AcDbEntity
100
AcDbLine
  8
0
 62
256
370
-1
  6
ByLayer
 10
264.1350000000019236
 20
100.0
 30
0.0
 11
264.1350000000019236
 21
110.0
 31
0.0
  0
LINE
  5
AC
100
AcDbEntity
100
AcDbLine
  8
0
 62
256
370
-1
  6
ByLayer
 10
264.7700000000019713
 20
100.0
 30
0.0
 11
264.7700000000019713
 21
110.0
 31
0.0
  0
LINE
  5
AD
100
AcDbEntity
100
AcDbLine
  8
0
 62
256
370
-1
  6
ByLayer
 10
265.4050000000020191
 20
100.0
 30
0.0
 11
265.4050000000020191
 21
110.0
 31
0.0
  0
LINE
  5
AE
100
AcDbEntity
100
AcDbLine
  8
0
 62
256
370
-1
  6
ByLayer
 10
266.04000000000201
 20
100.0
 30
0.0
 11
266.04000000000201
 21
110.0
 31
0.0
  0
LINE
  5
AF
100
AcDbEntity
100
AcDbLine
  8
0
 62
256
370
-1
  6
ByLayer
 10
266.6750000000020009
 20
100.0
 30
0.0
 11
266.6750000000020009
 21
110.0
 31
0.0
  0
LINE
  5
B0
100
AcDbEntity
100
AcDbLine
  8
0
 62
256
370
-1
  6
ByLayer
 10
267.3100000000020486
 20
100.0
 30
0.0
 11
267.3100000000020486
 21
110.0
 31
0.0
  0
LINE
  5
B1
100
AcDbEntity
100
AcDbLine
  8
0
 62
256
370
-1
  6
ByLayer
 10
267.9450000000020964
 20
100.0
 30
0.0
 11
267.9450000000020964
 21
110.0
 31
0.0
  0
LINE
  5
B2
100
AcDbEntity
100
AcDbLine
  8
0
 62
256
370
-1
  6
ByLayer
 10
268.5800000000020873
 20
100.0
 30
0.0
 11
268.5800000000020873
 21
110.0
 31
0.0
  0
LINE
  5
B3
100
AcDbEntity
100
AcDbLine
  8
0
 62
256
370
-1
  6
ByLayer
 10
269.2150000000020782
 20
100.0
 30
0.0
 11
269.2150000000020782
 21
110.0
 31
0.0
  0
LINE
  5
B4
100
AcDbEntity
100
AcDbLine
  8
0
 62
256
370
-1
  6
ByLayer
 10
269.8500000000021259
 20
100.0
 30
0.0
 11
269.8500000000021259
 21
110.0
 31
0.0
  0
LINE
  5
B5
100
AcDbEntity
100
AcDbLine
  8
0
 62
256
370
-1
  6
ByLayer
 10
270.4850000000021737
 20
100.0
 30
0.0
 11
270.4850000000021737
 21
110.0
 31
0.0
  0
LINE
  5
B6
100
AcDbEntity
100
AcDbLine
  8
0
 62
256
370
-1
  6
ByLayer
 10
271.1200000000021646
 20
100.0
 30
0.0
 11
271.1200000000021646
 21
110.0
 31
0.0
  0
LINE
  5
B7
100
AcDbEntity
100
AcDbLine
  8
0
 62
256
370
-1
  6
ByLayer
 10
271.7550000000021555
 20
100.0
 30
0.0
 11
271.7550000000021555
 21
110.0
 31
0.0
  0
LINE
  5
B8
100
AcDbEntity
100
AcDbLine
  8
0
 62
256
370
-1
  6
ByLayer
 10
272.3900000000022033
 20
100.0
 30
0.0
 11
272.3900000000022033
 21
110.0
 31
0.0
  0
LINE
  5
B9
100
AcDbEntity
100
AcDbLine
  8
0
 62
256
370
-1
  6
ByLayer
 10
273.025000000002251
 20
100.0
 30
0.0
 11
273.025000000002251
 21
110.0
 31
0.0
  0
LINE
  5
BA
100
AcDbEntity
100
AcDbLine
  8
0
 62
256
370
-1
  6
ByLayer
 10
273.6600000000022419
 20
100.0
 30
0.0
 11
273.6600000000022419
 21
110.0
 31
0.0
  0
LINE
  5
BB
100
AcDbEntity
100
AcDbLine
  8
0
 62
256
370
-1
  6
ByLayer
 10
274.2950000000022328
 20
100.0
 30
0.0
 11
274.2950000000022328
 21
110.0
 31
0.0
  0
LINE
  5
BC
100
AcDbEntity
100
AcDbLine
  8
0
 62
256
370
-1
  6
ByLayer
 10
274.9300000000022806
 20
100.0
 30
0.0
 11
274.9300000000022806
 21
110.0
 31
0.0
  0
LINE
  5
BD
100
AcDbEntity
100
AcDbLine
  8
0
 62
256
370
-1
  6
ByLayer
 10
275.5650000000023283
 20
100.0
 30
0.0
 11
275.5650000000023283
 21
110.0
 31
0.0
  0
LINE
  5
BE
100
AcDbEntity
100
AcDbLine
  8
0
 62
256
370
-1
  6
ByLayer
 10
276.2000000000023192
 20
100.0
 30
0.0
 11
276.2000000000023192
 21
110.0
 31
0.0
  0
LINE
  5
BF
100
AcDbEntity
100
AcDbLine
  8
0
 62
256
370
-1
  6
ByLayer
 10
276.8350000000023101
 20
100.0
 30
0.0
 11
276.8350000000023101
 21
110.0
 31
0.0
  0
LINE
  5
C0
100
AcDbEntity
100
AcDbLine
  8
0
 62
256
370
-1
  6
ByLayer
 10
277.4700000000023579
 20
100.0
 30
0.0
 11
277.4700000000023579
 21
110.0
 31
0.0
  0
LINE
  5
C1
100
AcDbEntity
100
AcDbLine
  8
0
 62
256
370
-1
  6
ByLayer
 10
278.1050000000024056
 20
100.0
 30
0.0
 11
278.1050000000024056
 21
110.0
 31
0.0
  0
LINE
  5
C2
100
AcDbEntity
100
AcDbLine
  8
0
 62
256
370
-1
  6
ByLayer
 10
278.7400000000023965
 20
100.0
 30
0.0
 11
278.7400000000023965
 21
110.0
 31
0.0
  0
LINE
  5
C3
100
AcDbEntity
100
AcDbLine
  8
0
 62
256
370
-1
  6
ByLayer
 10
279.3750000000023874
 20
100.0
 30
0.0
 11
279.3750000000023874
 21
110.0
 31
0.0
  0
LINE
  5
C4
100
AcDbEntity
100
AcDbLine
  8
0
 62
256
370
-1
  6
ByLayer
 10
280.0100000000024352
 20
100.0
 30
0.0
 11
280.0100000000024352
 21
110.0
 31
0.0
  0
LINE
  5
C5
100
AcDbEntity
100
AcDbLine
  8
0
 62
256
370
-1
  6
ByLayer
 10
280.6450000000024829
 20
100.0
 30
0.0
 11
280.6450000000024829
 21
110.0
 31
0.0
  0
LINE
  5
C6
100
AcDbEntity
100
AcDbLine
  8
0
 62
256
370
-1
  6
ByLayer
 10
281.2800000000024738
 20
100.0
 30
0.0
 11
281.2800000000024738
 21
110.0
 31
0.0
  0
LINE
  5
C7
100
AcDbEntity
100
AcDbLine
  8
0
 62
256
370
-1
  6
ByLayer
 10
281.9150000000024647
 20
100.0
 30
0.0
 11
281.9150000000024647
 21
110.0
 31
0.0
  0
LINE
  5
C8
100
AcDbEntity
100
AcDbLine
  8
0
 62
256
370
-1
  6
ByLayer
 10
282.5500000000025125
 20
100.0
 30
0.0
 11
282.5500000000025125
 21
110.0
 31
0.0
  0
LINE
  5
C9
100
AcDbEntity
100
AcDbLine
  8
0
 62
256
370
-1
  6
ByLayer
 10
283.1850000000025602
 20
100.0
 30
0.0
 11
283.1850000000025602
 21
110.0
 31
0.0
  0
LINE
  5
CA
100
AcDbEntity
100
AcDbLine
  8
0
 62
256
370
-1
  6
ByLayer
 10
283.8200000000025511
 20
100.0
 30
0.0
 11
283.8200000000025511
 21
110.0
 31
0.0
  0
LINE
  5
CB
100
AcDbEntity
100
AcDbLine
  8
0
 62
256
370
-1
  6
ByLayer
 10
284.455000000002542
 20
100.0
 30
0.0
 11
284.455000000002542
 21
110.0
 31
0.0
  0
LINE
  5
CC
100
AcDbEntity
100
AcDbLine
  8
0
 62
256
370
-1
  6
ByLayer
 10
285.0900000000025898
 20
100.0
 30
0.0
 11
285.0900000000025898
 21
110.0
 31
0.0
  0
LINE
  5
CD
100
AcDbEntity
100
AcDbLine
  8
0
 62
256
370
-1
  6
ByLayer
 10
285.7250000000026375
 20
100.0
 30
0.0
 11
285.7250000000026375
 21
110.0
 31
0.0
  0
LINE
  5
CE
100
AcDbEntity
100
AcDbLine
  8
0
 62
256
370
-1
  6
ByLayer
 10
286.3600000000026284
 20
100.0
 30
0.0
 11
286.3600000000026284
 21
110.0
 31
0.0
  0
LINE
  5
CF
100
AcDbEntity
100
AcDbLine
  8
0
 62
256
370
-1
  6
ByLayer
 10
286.9950000000026193
 20
100.0
 30
0.0
 11
286.9950000000026193
 21
110.0
 31
0.0
  0
LINE
  5
D0
100
AcDbEntity
100
AcDbLine
  8
0
 62
256
370
-1
  6
ByLayer
 10
287.6300000000026671
 20
100.0
 30
0.0
 11
287.6300000000026671
 21
110.0
 31
0.0
  0
LINE
  5
D1
100
AcDbEntity
100
AcDbLine
  8
0
 62
256
370
-1
  6
ByLayer
 10
288.2650000000027148
 20
100.0
 30
0.0
 11
288.2650000000027148
 21
110.0
 31
0.0
  0
LINE
  5
D2
100
AcDbEntity
100
AcDbLine
  8
0
 62
256
370
-1
  6
ByLayer
 10
288.9000000000027057
 20
100.0
 30
0.0
 11
288.9000000000027057
 21
110.0
 31
0.0
  0
LINE
  5
D3
100
AcDbEntity
100
AcDbLine
  8
0
 62
256
370
-1
  6
ByLayer
 10
289.5350000000026967
 20
100.0
 30
0.0
 11
289.5350000000026967
 21
110.0
 31
0.0
  0
LINE
  5
D4
100
AcDbEntity
100
AcDbLine
  8
0
 62
256
370
-1
  6
ByLayer
 10
290.1700000000027444
 20
100.0
 30
0.0
 11
290.1700000000027444
 21
110.0
 31
0.0
  0
LINE
  5
D5
100
AcDbEntity
100
AcDbLine
  8
0
 62
256
370
-1
  6
ByLayer
 10
290.8050000000027921
 20
100.0
 30
0.0
 11
290.8050000000027921
 21
110.0
 31
0.0
  0
LINE
  5
D6
100
AcDbEntity
100
AcDbLine
  8
0
 62
256
370
-1
  6
ByLayer
 10
291.4400000000027831
 20
100.0
 30
0.0
 11
291.4400000000027831
 21
110.0
 31
0.0
  0
LINE
  5
D7
100
AcDbEntity
100
AcDbLine
  8
0
 62
256
370
-1
  6
ByLayer
 10
292.075000000002774
 20
100.0
 30
0.0
 11
292.075000000002774
 21
110.0
 31
0.0
  0
LINE
  5
D8
100
AcDbEntity
100
AcDbLine
  8
0
 62
256
370
-1
  6
ByLayer
 10
292.7100000000028217
 20
100.0
 30
0.0
 11
292.7100000000028217
 21
110.0
 31
0.0
  0
LINE
  5
D9
100
AcDbEntity
100
AcDbLine
  8
0
 62
256
370
-1
  6
ByLayer
 10
293.3450000000028695
 20
100.0
 30
0.0
 11
293.3450000000028695
 21
110.0
 31
0.0
  0
LINE
  5
DA
100
AcDbEntity
100
AcDbLine
  8
0
 62
256
370
-1
  6
ByLayer
 10
293.9800000000028604
 20
100.0
 30
0.0
 11
293.9800000000028604
 21
110.0
 31
0.0
  0
LINE
  5
DB
100
AcDbEntity
100
AcDbLine
  8
0
 62
256
370
-1
  6
ByLayer
 10
294.6150000000028513
 20
100.0
 30
0.0
 11
294.6150000000028513
 21
110.0
 31
0.0
  0
LINE
  5
DC
100
AcDbEntity
100
AcDbLine
  8
0
 62
256
370
-1
  6
ByLayer
 10
295.250000000002899
 20
100.0
 30
0.0
 11
295.250000000002899
 21
110.0
 31
0.0
  0
LINE
  5
DD
100
AcDbEntity
100
AcDbLine
  8
0
 62
256
370
-1
  6
ByLayer
 10
295.8850000000029468
 20
100.0
 30
0.0
 11
295.8850000000029468
 21
110.0
 31
0.0
  0
LINE
  5
DE
100
AcDbEntity
100
AcDbLine
  8
0
 62
256
370
-1
  6
ByLayer
 10
296.5200000000029377
 20
100.0
 30
0.0
 11
296.5200000000029377
 21
110.0
 31
0.0
  0
LINE
  5
DF
100
AcDbEntity
100
AcDbLine
  8
0
 62
256
370
-1
  6
ByLayer
 10
297.1550000000029286
 20
100.0
 30
0.0
 11
297.1550000000029286
 21
110.0
 31
0.0
  0
LINE
  5
E0
100
AcDbEntity
100
AcDbLine
  8
0
 62
256
370
-1
  6
ByLayer
 10
297.7900000000029763
 20
100.0
 30
0.0
 11
297.7900000000029763
 21
110.0
 31
0.0
  0
LINE
  5
E1
100
AcDbEntity
100
AcDbLine
  8
0
 62
256
370
-1
  6
ByLayer
 10
298.4250000000030241
 20
100.0
 30
0.0
 11
298.4250000000030241
 21
110.0
 31
0.0
  0
LINE
  5
E2
100
AcDbEntity
100
AcDbLine
  8
0
 62
256
370
-1
  6
ByLayer
 10
299.060000000003015
 20
100.0
 30
0.0
 11
299.060000000003015
 21
110.0
 31
0.0
  0
LINE
  5
E3
100
AcDbEntity
100
AcDbLine
  8
0
 62
256
370
-1
  6
ByLayer
 10
299.6950000000030059
 20
100.0
 30
0.0
 11
299.6950000000030059
 21
110.0
 31
0.0
  0
LINE
  5
E4
100
AcDbEntity
100
AcDbLine
  8
0
 62
256
370
-1
  6
ByLayer
 10
300.3300000000030536
 20
100.0
 30
0.0
 11
300.3300000000030536
 21
110.0
 31
0.0
  0
LINE
  5
E5
100
AcDbEntity
100
AcDbLine
  8
0
 62
256
370
-1
  6
ByLayer
 10
300.9650000000031014
 20
100.0
 30
0.0
 11
300.9650000000031014
 21
110.0
 31
0.0
  0
LINE
  5
E6
100
AcDbEntity
100
AcDbLine
  8
0
 62
256
370
-1
  6
ByLayer
 10
301.6000000000030923
 20
100.0
 30
0.0
 11
301.6000000000030923
 21
110.0
 31
0.0
  0
LINE
  5
E7
100
AcDbEntity
100
AcDbLine
  8
0
 62
256
370
-1
  6
ByLayer
 10
302.2350000000030832
 20
100.0
 30
0.0
 11
302.2350000000030832
 21
110.0
 31
0.0
  0
LINE
  5
E8
100
AcDbEntity
100
AcDbLine
  8
0
 62
256
370
-1
  6
ByLayer
 10
302.8700000000031309
 20
100.0
 30
0.0
 11
302.8700000000031309
 21
110.0
 31
0.0
  0
LINE
  5
E9
100
AcDbEntity
100
AcDbLine
  8
0
 62
256
370
-1
  6
ByLayer
 10
303.5050000000031787
 20
100.0
 30
0.0
 11
303.5050000000031787
 21
110.0
 31
0.0
  0
LINE
  5
EA
100
AcDbEntity
100
AcDbLine
  8
0
 62
256
370
-1
  6
ByLayer
 10
304.1400000000031696
 20
100.0
 30
0.0
 11
304.1400000000031696
 21
110.0
 31
0.0
  0
LINE
  5
EB
100
AcDbEntity
100
AcDbLine
  8
0
 62
256
370
-1
  6
ByLayer
 10
304.7750000000031605
 20
100.0
 30
0.0
 11
304.7750000000031605
 21
110.0
 31
0.0
  0
LINE
  5
EC
100
AcDbEntity
100
AcDbLine
  8
0
 62
256
370
-1
  6
ByLayer
 10
305.4100000000032082
 20
100.0
 30
0.0
 11
305.4100000000032082
 21
110.0
 31
0.0
  0
LINE
  5
ED
100
AcDbEntity
100
AcDbLine
  8
0
 62
256
370
-1
  6
ByLayer
 10
306.045000000003256
 20
100.0
 30
0.0
 11
306.045000000003256
 21
110.0
 31
0.0
  0
LINE
  5
EE
100
AcDbEntity
100
AcDbLine
  8
0
 62
256
370
-1
  6
ByLayer
 10
306.6800000000032469
 20
100.0
 30
0.0
 11
306.6800000000032469
 21
110.0
 31
0.0
  0
LINE
  5
EF
100
AcDbEntity
100
AcDbLine
  8
0
 62
256
370
-1
  6
ByLayer
 10
307.3150000000032378
 20
100.0
 30
0.0
 11
307.3150000000032378
 21
110.0
 31
0.0
  0
LINE
  5
F0
100
AcDbEntity
100
AcDbLine
  8
0
 62
256
370
-1
  6
ByLayer
 10
307.9500000000032855
 20
100.0
 30
0.0
 11
307.9500000000032855
 21
110.0
 31
0.0
  0
LINE
  5
F1
100
AcDbEntity
100
AcDbLine
  8
0
 62
256
370
-1
  6
ByLayer
 10
308.5850000000033333
 20
100.0
 30
0.0
 11
308.5850000000033333
 21
110.0
 31
0.0
  0
LINE
  5
F2
100
AcDbEntity
100
AcDbLine
  8
0
 62
256
370
-1
  6
ByLayer
 10
309.2200000000033242
 20
100.0
 30
0.0
 11
309.2200000000033242
 21
110.0
 31
0.0
  0
LINE
  5
F3
100
AcDbEntity
100
AcDbLine
  8
0
 62
256
370
-1
  6
ByLayer
 10
309.8550000000033151
 20
100.0
 30
0.0
 11
309.8550000000033151
 21
110.0
 31
0.0
  0
LINE
  5
F4
100
AcDbEntity
100
AcDbLine
  8
0
 62
256
370
-1
  6
ByLayer
 10
310.4900000000033629
 20
100.0
 30
0.0
 11
310.4900000000033629
 21
110.0
 31
0.0
  0
LINE
  5
F5
100
AcDbEntity
100
AcDbLine
  8
0
 62
256
370
-1
  6
ByLayer
 10
311.1250000000034106
 20
100.0
 30
0.0
 11
311.1250000000034106
 21
110.0
 31
0.0
  0
LINE
  5
F6
100
AcDbEntity
100
AcDbLine
  8
0
 62
256
370
-1
  6
ByLayer
 10
311.7600000000034015
 20
100.0
 30
0.0
 11
311.7600000000034015
 21
110.0
 31
0.0
  0
LINE
  5
F7
100
AcDbEntity
100
AcDbLine
  8
0
 62
256
370
-1
  6
ByLayer
 10
312.3950000000033924
 20
100.0
 30
0.0
 11
312.3950000000033924
 21
110.0
 31
0.0
  0
LINE
  5
F8
100
AcDbEntity
100
AcDbLine
  8
0
 62
256
370
-1
  6
ByLayer
 10
313.0300000000034402
 20
100.0
 30
0.0
 11
313.0300000000034402
 21
110.0
 31
0.0
  0
LINE
  5
F9
100
AcDbEntity
100
AcDbLine
  8
0
 62
256
370
-1
  6
ByLayer
 10
313.6650000000034879
 20
100.0
 30
0.0
 11
313.6650000000034879
 21
110.0
 31
0.0
  0
LINE
  5
FA
100
AcDbEntity
100
AcDbLine
  8
0
 62
256
370
-1
  6
ByLayer
 10
314.3000000000034788
 20
100.0
 30
0.0
 11
314.3000000000034788
 21
110.0
 31
0.0
  0
LINE
  5
FB
100
AcDbEntity
100
AcDbLine
  8
0
 62
256
370
-1
  6
ByLayer
 10
314.9350000000034697
 20
100.0
 30
0.0
 11
314.9350000000034697
 21
110.0
 31
0.0
  0
LINE
  5
FC
100
AcDbEntity
100
AcDbLine
  8
0
 62
256
370
-1
  6
ByLayer
 10
315.5700000000035175
 20
100.0
 30
0.0
 11
315.5700000000035175
 21
110.0
 31
0.0
  0
LINE
  5
FD
100
AcDbEntity
100
AcDbLine
  8
0
 62
256
370
-1
  6
ByLayer
 10
316.2050000000035652
 20
100.0
 30
0.0
 11
316.2050000000035652
 21
110.0
 31
0.0
  0
LINE
  5
FE
100
AcDbEntity
100
AcDbLine
  8
0
 62
256
370
-1
  6
ByLayer
 10
316.8400000000035561
 20
100.0
 30
0.0
 11
316.8400000000035561
 21
110.0
 31
0.0
  0
LINE
  5
FF
100
AcDbEntity
100
AcDbLine
  8
0
 62
256
370
-1
  6
ByLayer
 10
317.475000000003547
 20
100.0
 30
0.0
 11
317.475000000003547
 21
110.0
 31
0.0
  0
LINE
  5
100
100
AcDbEntity
100
AcDbLine
  8
0
 62
256
370
-1
  6
ByLayer
 10
318.1100000000035948
 20
100.0
 30
0.0
 11
318.1100000000035948
 21
110.0
 31
0.0
  0
LINE
  5
101
100
AcDbEntity
100
AcDbLine
  8
0
 62
256
370
-1
  6
ByLayer
 10
318.7450000000036425
 20
100.0
 30
0.0
 11
318.7450000000036425
 21
110.0
 31
0.0
  0
LINE
  5
102
100
AcDbEntity
100
AcDbLine
  8
0
 62
256
370
-1
  6
ByLayer
 10
319.3800000000036334
 20
100.0
 30
0.0
 11
319.3800000000036334
 21
110.0
 31
0.0
  0
LINE
  5
103
100
AcDbEntity
100
AcDbLine
  8
0
 62
256
370
-1
  6
ByLayer
 10
320.0150000000036243
 20
100.0
 30
0.0
 11
320.0150000000036243
 21
110.0
 31
0.0
  0
LINE
  5
104
100
AcDbEntity
100
AcDbLine
  8
0
 62
256
370
-1
  6
ByLayer
 10
320.6500000000036721
 20
100.0
 30
0.0
 11
320.6500000000036721
 21
110.0
 31
0.0
  0
LINE
  5
105
100
AcDbEntity
100
AcDbLine
  8
0
 62
256
370
-1
  6
ByLayer
 10
321.2850000000037198
 20
100.0
 30
0.0
 11
321.2850000000037198
 21
110.0
 31
0.0
  0
LINE
  5
106
100
AcDbEntity
100
AcDbLine
  8
0
 62
256
370
-1
  6
ByLayer
 10
321.9200000000037107
 20
100.0
 30
0.0
 11
321.9200000000037107
 21
110.0
 31
0.0
  0
LINE
  5
107
100
AcDbEntity
100
AcDbLine
  8
0
 62
256
370
-1
  6
ByLayer
 10
322.5550000000037016
 20
100.0
 30
0.0
 11
322.5550000000037016
 21
110.0
 31
0.0
  0
LINE
  5
108
100
AcDbEntity
100
AcDbLine
  8
0
 62
256
370
-1
  6
ByLayer
 10
323.1900000000037494
 20
100.0
 30
0.0
 11
323.1900000000037494
 21
110.0
 31
0.0
  0
LINE
  5
109
100
AcDbEntity
100
AcDbLine
  8
0
 62
256
370
-1
  6
ByLayer
 10
323.8250000000037971
 20
100.0
 30
0.0
 11
323.8250000000037971
 21
110.0
 31
0.0
  0
LINE
  5
10A
100
AcDbEntity
100
AcDbLine
  8
0
 62
256
370
-1
  6
ByLayer
 10
324.460000000003788
 20
100.0
 30
0.0
 11
324.460000000003788
 21
110.0
 31
0.0
  0
LINE
  5
10B
100
AcDbEntity
100
AcDbLine
  8
0
 62
256
370
-1
  6
ByLayer
 10
325.095000000003779
 20
100.0
 30
0.0
 11
325.095000000003779
 21
110.0
 31
0.0
  0
LINE
  5
10C
100
AcDbEntity
100
AcDbLine
  8
0
 62
256
370
-1
  6
ByLayer
 10
325.7300000000038267
 20
100.0
 30
0.0
 11
325.7300000000038267
 21
110.0
 31
0.0
  0
LINE
  5
10D
100
AcDbEntity
100
AcDbLine
  8
0
 62
256
370
-1
  6
ByLayer
 10
326.3650000000038744
 20
100.0
 30
0.0
 11
326.3650000000038744
 21
110.0
 31
0.0
  0
LINE
  5
10E
100
AcDbEntity
100
AcDbLine
  8
0
 62
256
370
-1
  6
ByLayer
 10
327.0000000000038654
 20
100.0
 30
0.0
 11
327.0000000000038654
 21
110.0
 31
0.0
  0
LINE
  5
10F
100
AcDbEntity
100
AcDbLine
  8
0
 62
256
370
-1
  6
ByLayer
 10
327.6350000000038563
 20
100.0
 30
0.0
 11
327.6350000000038563
 21
110.0
 31
0.0
  0
LINE
  5
110
100
AcDbEntity
100
AcDbLine
  8
0
 62
256
370
-1
  6
ByLayer
 10
328.270000000003904
 20
100.0
 30
0.0
 11
328.270000000003904
 21
110.0
 31
0.0
  0
LINE
  5
111
100
AcDbEntity
100
AcDbLine
  8
0
 62
256
370
-1
  6
ByLayer
 10
328.9050000000039518
 20
100.0
 30
0.0
 11
328.9050000000039518
 21
110.0
 31
0.0
  0
LINE
  5
112
100
AcDbEntity
100
AcDbLine
  8
0
 62
256
370
-1
  6
ByLayer
 10
329.5400000000039427
 20
100.0
 30
0.0
 11
329.5400000000039427
 21
110.0
 31
0.0
  0
LINE
  5
113
100
AcDbEntity
100
AcDbLine
  8
0
 62
256
370
-1
  6
ByLayer
 10
330.1750000000039336
 20
100.0
 30
0.0
 11
330.1750000000039336
 21
110.0
 31
0.0
  0
LINE
  5
114
100
AcDbEntity
100
AcDbLine
  8
0
 62
256
370
-1
  6
ByLayer
 10
330.8100000000039813
 20
100.0
 30
0.0
 11
330.8100000000039813
 21
110.0
 31
0.0
  0
LINE
  5
115
100
AcDbEntity
100
AcDbLine
  8
0
 62
256
370
-1
  6
ByLayer
 10
331.4450000000040291
 20
100.0
 30
0.0
 11
331.4450000000040291
 21
110.0
 31
0.0
  0
LINE
  5
116
100
AcDbEntity
100
AcDbLine
  8
0
 62
256
370
-1
  6
ByLayer
 10
332.08000000000402
 20
100.0
 30
0.0
 11
332.08000000000402
 21
110.0
 31
0.0
  0
LINE
  5
117
100
AcDbEntity
100
AcDbLine
  8
0
 62
256
370
-1
  6
ByLayer
 10
332.7150000000040109
 20
100.0
 30
0.0
 11
332.7150000000040109
 21
110.0
 31
0.0
  0
LINE
  5
118
100
AcDbEntity
100
AcDbLine
  8
0
 62
256
370
-1
  6
ByLayer
 10
333.3500000000040586
 20
100.0
 30
0.0
 11
333.3500000000040586
 21
110.0
 31
0.0
  0
LINE
  5
119
100
AcDbEntity
100
AcDbLine
  8
0
 62
256
370
-1
  6
ByLayer
 10
333.9850000000041064
 20
100.0
 30
0.0
 11
333.9850000000041064
 21
110.0
 31
0.0
  0
LINE
  5
11A
100
AcDbEntity
100
AcDbLine
  8
0
 62
256
370
-1
  6
ByLayer
 10
334.6200000000040973
 20
100.0
 30
0.0
 11
334.6200000000040973
 21
110.0
 31
0.0
  0
LINE
  5
11B
100
AcDbEntity
100
AcDbLine
  8
0
 62
256
370
-1
  6
ByLayer
 10
335.2550000000040882
 20
100.0
 30
0.0
 11
335.2550000000040882
 21
110.0
 31
0.0
  0
LINE
  5
11C
100
AcDbEntity
100
AcDbLine
  8
0
 62
256
370
-1
  6
ByLayer
 10
335.8900000000041359
 20
100.0
 30
0.0
 11
335.8900000000041359
 21
110.0
 31
0.0
  0
LINE
  5
11D
100
AcDbEntity
100
AcDbLine
  8
0
 62
256
370
-1
  6
ByLayer
 10
336.5250000000041837
 20
100.0
 30
0.0
 11
336.5250000000041837
 21
110.0
 31
0.0
  0
LINE
  5
11E
100
AcDbEntity
100
AcDbLine
  8
0
 62
256
370
-1
  6
ByLayer
 10
337.1600000000041746
 20
100.0
 30
0.0
 11
337.1600000000041746
 21
110.0
 31
0.0
  0
LINE
  5
11F
100
AcDbEntity
100
AcDbLine
  8
0
 62
256
370
-1
  6
ByLayer
 10
337.7950000000041655
 20
100.0
 30
0.0
 11
337.7950000000041655
 21
110.0
 31
0.0
  0
LINE
  5
120
100
AcDbEntity
100
AcDbLine
  8
0
 62
256
370
-1
  6
ByLayer
 10
338.4300000000042132
 20
100.0
 30
0.0
 11
338.4300000000042132
 21
110.0
 31
0.0
  0
LINE
  5
121
100
AcDbEntity
100
AcDbLine
  8
0
 62
256
370
-1
  6
ByLayer
 10
339.065000000004261
 20
100.0
 30
0.0
 11
339.065000000004261
 21
110.0
 31
0.0
  0
LINE
  5
122
100
AcDbEntity
100
AcDbLine
  8
0
 62
256
370
-1
  6
ByLayer
 10
339.7000000000042519
 20
100.0
 30
0.0
 11
339.7000000000042519
 21
110.0
 31
0.0
  0
LINE
  5
123
100
AcDbEntity
100
AcDbLine
  8
0
 62
256
370
-1
  6
ByLayer
 10
340.3350000000042428
 20
100.0
 30
0.0
 11
340.3350000000042428
 21
110.0
 31
0.0
  0
LINE
  5
124
100
AcDbEntity
100
AcDbLine
  8
0
 62
256
370
-1
  6
ByLayer
 10
340.9700000000042905
 20
100.0
 30
0.0
 11
340.9700000000042905
 21
110.0
 31
0.0
  0
LINE
  5
125
100
AcDbEntity
100
AcDbLine
  8
0
 62
256
370
-1
  6
ByLayer
 10
341.6050000000043383
 20
100.0
 30
0.0
 11
341.6050000000043383
 21
110.0
 31
0.0
  0
LINE
  5
126
100
AcDbEntity
100
AcDbLine
  8
0
 62
256
370
-1
  6
ByLayer
 10
342.2400000000043292
 20
100.0
 30
0.0
 11
342.2400000000043292
 21
110.0
 31
0.0
  0
LINE
  5
127
100
AcDbEntity
100
AcDbLine
  8
0
 62
256
370
-1
  6
ByLayer
 10
342.8750000000043201
 20
100.0
 30
0.0
 11
342.8750000000043201
 21
110.0
 31
0.0
  0
LINE
  5
128
100
AcDbEntity
100
AcDbLine
  8
0
 62
256
370
-1
  6
ByLayer
 10
343.5100000000043678
 20
100.0
 30
0.0
 11
343.5100000000043678
 21
110.0
 31
0.0
  0
LINE
  5
129
100
AcDbEntity
100
AcDbLine
  8
0
 62
256
370
-1
  6
ByLayer
 10
344.1450000000044156
 20
100.0
 30
0.0
 11
344.1450000000044156
 21
110.0
 31
0.0
  0
LINE
  5
12A
100
AcDbEntity
100
AcDbLine
  8
0
 62
256
370
-1
  6
ByLayer
 10
344.7800000000044065
 20
100.0
 30
0.0
 11
344.7800000000044065
 21
110.0
 31
0.0
  0
LINE
  5
12B
100
AcDbEntity
100
AcDbLine
  8
0
 62
256
370
-1
  6
ByLayer
 10
345.4150000000043974
 20
100.0
 30
0.0
 11
345.4150000000043974
 21
110.0
 31
0.0
  0
LINE
  5
12C
100
AcDbEntity
100
AcDbLine
  8
0
 62
256
370
-1
  6
ByLayer
 10
346.0500000000044452
 20
100.0
 30
0.0
 11
346.0500000000044452
 21
110.0
 31
0.0
  0
LINE
  5
12D
100
AcDbEntity
100
AcDbLine
  8
0
 62
256
370
-1
  6
ByLayer
 10
346.6850000000044929
 20
100.0
 30
0.0
 11
346.6850000000044929
 21
110.0
 31
0.0
  0
LINE
  5
12E
100
AcDbEntity
100
AcDbLine
  8
0
 62
256
370
-1
  6
ByLayer
 10
347.3200000000044838
 20
100.0
 30
0.0
 11
347.3200000000044838
 21
110.0
 31
0.0
  0
LINE
  5
12F
100
AcDbEntity
100
AcDbLine
  8
0
 62
256
370
-1
  6
ByLayer
 10
347.9550000000044747
 20
100.0
 30
0.0
 11
347.9550000000044747
 21
110.0
 31
0.0
  0
LINE
  5
130
100
AcDbEntity
100
AcDbLine
  8
0
 62
256
370
-1
  6
ByLayer
 10
348.5900000000045225
 20
100.0
 30
0.0
 11
348.5900000000045225
 21
110.0
 31
0.0
  0
LINE
  5
131
100
AcDbEntity
100
AcDbLine
  8
0
 62
256
370
-1
  6
ByLayer
 10
349.2250000000045702
 20
100.0
 30
0.0
 11
349.2250000000045702
 21
110.0
 31
0.0
  0
LINE
  5
132
100
AcDbEntity
100
AcDbLine
  8
0
 62
256
370
-1
  6
ByLayer
 10
349.8600000000045611
 20
100.0
 30
0.0
 11
349.8600000000045611
 21
110.0
 31
0.0
  0
LINE
  5
133
100
AcDbEntity
100
AcDbLine
  8
0
 62
256
370
-1
  6
ByLayer
 10
350.495000000004552
 20
100.0
 30
0.0
 11
350.495000000004552
 21
110.0
 31
0.0
  0
LINE
  5
134
100
AcDbEntity
100
AcDbLine
  8
0
 62
256
370
-1
  6
ByLayer
 10
351.1300000000045998
 20
100.0
 30
0.0
 11
351.1300000000045998
 21
110.0
 31
0.0
  0
LINE
  5
135
100
AcDbEntity
100
AcDbLine
  8
0
 62
256
370
-1
  6
ByLayer
 10
351.7650000000046475
 20
100.0
 30
0.0
 11
351.7650000000046475
 21
110.0
 31
0.0
  0
LINE
  5
136
100
AcDbEntity
100
AcDbLine
  8
0
 62
256
370
-1
  6
ByLayer
 10
352.4000000000046384
 20
100.0
 30
0.0
 11
352.4000000000046384
 21
110.0
 31
0.0
  0
LINE
  5
137
100
AcDbEntity
100
AcDbLine
  8
0
 62
256
370
-1
  6
ByLayer
 10
353.0350000000046293
 20
100.0
 30
0.0
 11
353.0350000000046293
 21
110.0
 31
0.0
  0
LINE
  5
138
100
AcDbEntity
100
AcDbLine
  8
0
 62
256
370
-1
  6
ByLayer
 10
353.6700000000046771
 20
100.0
 30
0.0
 11
353.6700000000046771
 21
110.0
 31
0.0
  0
LINE
  5
139
100
AcDbEntity
100
AcDbLine
  8
0
 62
256
370
-1
  6
ByLayer
 10
354.3050000000047248
 20
100.0
 30
0.0
 11
354.3050000000047248
 21
110.0
 31
0.0
  0
LINE
  5
13A
100
AcDbEntity
100
AcDbLine
  8
0
 62
256
370
-1
  6
ByLayer
 10
354.9400000000047157
 20
100.0
 30
0.0
 11
354.9400000000047157
 21
110.0
 31
0.0
  0
LINE
  5
13B
100
AcDbEntity
100
AcDbLine
  8
0
 62
256
370
-1
  6
ByLayer
 10
355.5750000000047066
 20
100.0
 30
0.0
 11
355.5750000000047066
 21
110.0
 31
0.0
  0
LINE
  5
13C
100
AcDbEntity
100
AcDbLine
  8
0
 62
256
370
-1
  6
ByLayer
 10
356.2100000000047544
 20
100.0
 30
0.0
 11
356.2100000000047544
 21
110.0
 31
0.0
  0
LINE
  5
13D
100
AcDbEntity
100
AcDbLine
  8
0
 62
256
370
-1
  6
ByLayer
 10
356.8450000000048021
 20
100.0
 30
0.0
 11
356.8450000000048021
 21
110.0
 31
0.0
  0
LINE
  5
13E
100
AcDbEntity
100
AcDbLine
  8
0
 62
256
370
-1
  6
ByLayer
 10
357.480000000004793
 20
100.0
 30
0.0
 11
357.480000000004793
 21
110.0
 31
0.0
  0
LINE
  5
13F
100
AcDbEntity
100
AcDbLine
  8
0
 62
256
370
-1
  6
ByLayer
 10
358.1150000000047839
 20
100.0
 30
0.0
 11
358.1150000000047839
 21
110.0
 31
0.0
  0
LINE
  5
140
100
AcDbEntity
100
AcDbLine
  8
0
 62
256
370
-1
  6
ByLayer
 10
358.7500000000048317
 20
100.0
 30
0.0
 11
358.7500000000048317
 21
110.0
 31
0.0
  0
LINE
  5
141
100
AcDbEntity
100
AcDbLine
  8
0
 62
256
370
-1
  6
ByLayer
 10
359.3850000000048794
 20
100.0
 30
0.0
 11
359.3850000000048794
 21
110.0
 31
0.0
  0
LINE
  5
142
100
AcDbEntity
100
AcDbLine
  8
0
 62
256
370
-1
  6
ByLayer
 10
360.0200000000048703
 20
100.0
 30
0.0
 11
360.0200000000048703
 21
110.0
 31
0.0
  0
LINE
  5
143
100
AcDbEntity
100
AcDbLine
  8
0
 62
256
370
-1
  6
ByLayer
 10
360.6550000000048612
 20
100.0
 30
0.0
 11
360.6550000000048612
 21
110.0
 31
0.0
  0
LINE
  5
144
100
AcDbEntity
100
AcDbLine
  8
0
 62
256
370
-1
  6
ByLayer
 10
361.290000000004909
 20
100.0
 30
0.0
 11
361.290000000004909
 21
110.0
 31
0.0
  0
LINE
  5
145
100
AcDbEntity
100
AcDbLine
  8
0
 62
256
370
-1
  6
ByLayer
 10
361.9250000000049567
 20
100.0
 30
0.0
 11
361.9250000000049567
 21
110.0
 31
0.0
  0
LINE
  5
146
100
AcDbEntity
100
AcDbLine
  8
0
 62
256
370
-1
  6
ByLayer
 10
362.5600000000049477
 20
100.0
 30
0.0
 11
362.5600000000049477
 21
110.0
 31
0.0
  0
LINE
  5
147
100
AcDbEntity
100
AcDbLine
  8
0
 62
256
370
-1
  6
ByLayer
 10
363.1950000000049386
 20
100.0
 30
0.0
 11
363.1950000000049386
 21
110.0
 31
0.0
  0
LINE
  5
148
100
AcDbEntity
100
AcDbLine
  8
0
 62
256
370
-1
  6
ByLayer
 10
363.8300000000049863
 20
100.0
 30
0.0
 11
363.8300000000049863
 21
110.0
 31
0.0
  0
LINE
  5
149
100
AcDbEntity
100
AcDbLine
  8
0
 62
256
370
-1
  6
ByLayer
 10
364.4650000000050341
 20
100.0
 30
0.0
 11
364.4650000000050341
 21
110.0
 31
0.0
  0
LINE
  5
14A
100
AcDbEntity
100
AcDbLine
  8
0
 62
256
370
-1
  6
ByLayer
 10
365.100000000005025
 20
100.0
 30
0.0
 11
365.100000000005025
 21
110.0
 31
0.0
  0
LINE
  5
14B
100
AcDbEntity
100
AcDbLine
  8
0
 62
256
370
-1
  6
ByLayer
 10
365.7350000000050159
 20
100.0
 30
0.0
 11
365.7350000000050159
 21
110.0
 31
0.0
  0
LINE
  5
14C
100
AcDbEntity
100
AcDbLine
  8
0
 62
256
370
-1
  6
ByLayer
 10
366.3700000000050636
 20
100.0
 30
0.0
 11
366.3700000000050636
 21
110.0
 31
0.0
  0
LINE
  5
14D
100
AcDbEntity
100
AcDbLine
  8
0
 62
256
370
-1
  6
ByLayer
 10
367.0050000000051114
 20
100.0
 30
0.0
 11
367.0050000000051114
 21
110.0
 31
0.0
  0
LINE
  5
14E
100
AcDbEntity
100
AcDbLine
  8
0
 62
256
370
-1
  6
ByLayer
 10
367.6400000000051023
 20
100.0
 30
0.0
 11
367.6400000000051023
 21
110.0
 31
0.0
  0
LINE
  5
14F
100
AcDbEntity
100
AcDbLine
  8
0
 62
256
370
-1
  6
ByLayer
 10
368.2750000000050932
 20
100.0
 30
0.0
 11
368.2750000000050932
 21
110.0
 31
0.0
  0
LINE
  5
150
100
AcDbEntity
100
AcDbLine
  8
0
 62
256
370
-1
  6
ByLayer
 10
368.9100000000051409
 20
100.0
 30
0.0
 11
368.9100000000051409
 21
110.0
 31
0.0
  0
LINE
  5
151
100
AcDbEntity
100
AcDbLine
  8
0
 62
256
370
-1
  6
ByLayer
 10
369.5450000000051887
 20
100.0
 30
0.0
 11
369.5450000000051887
 21
110.0
 31
0.0
  0
LINE
  5
152
100
AcDbEntity
100
AcDbLine
  8
0
 62
256
370
-1
  6
ByLayer
 10
370.1800000000051796
 20
100.0
 30
0.0
 11
370.1800000000051796
 21
110.0
 31
0.0
  0
LINE
  5
153
100
AcDbEntity
100
AcDbLine
  8
0
 62
256
370
-1
  6
ByLayer
 10
370.8150000000051705
 20
100.0
 30
0.0
 11
370.8150000000051705
 21
110.0
 31
0.0
  0
LINE
  5
154
100
AcDbEntity
100
AcDbLine
  8
0
 62
256
370
-1
  6
ByLayer
 10
371.4500000000052182
 20
100.0
 30
0.0
 11
371.4500000000052182
 21
110.0
 31
0.0
  0
LINE
  5
155
100
AcDbEntity
100
AcDbLine
  8
0
 62
256
370
-1
  6
ByLayer
 10
372.085000000005266
 20
100.0
 30
0.0
 11
372.085000000005266
 21
110.0
 31
0.0
  0
LINE
  5
156
100
AcDbEntity
100
AcDbLine
  8
0
 62
256
370
-1
  6
ByLayer
 10
372.7200000000052569
 20
100.0
 30
0.0
 11
372.7200000000052569
 21
110.0
 31
0.0
  0
LINE
  5
157
100
AcDbEntity
100
AcDbLine
  8
0
 62
256
370
-1
  6
ByLayer
 10
373.3550000000052478
 20
100.0
 30
0.0
 11
373.3550000000052478
 21
110.0
 31
0.0
  0
LINE
  5
158
100
AcDbEntity
100
AcDbLine
  8
0
 62
256
370
-1
  6
ByLayer
 10
373.9900000000052955
 20
100.0
 30
0.0
 11
373.9900000000052955
 21
110.0
 31
0.0
  0
LINE
  5
159
100
AcDbEntity
100
AcDbLine
  8
0
 62
256
370
-1
  6
ByLayer
 10
374.6250000000053433
 20
100.0
 30
0.0
 11
374.6250000000053433
 21
110.0
 31
0.0
  0
LINE
  5
15A
100
AcDbEntity
100
AcDbLine
  8
0
 62
256
370
-1
  6
ByLayer
 10
375.2600000000053342
 20
100.0
 30
0.0
 11
375.2600000000053342
 21
110.0
 31
0.0
  0
LINE
  5
15B
100
AcDbEntity
100
AcDbLine
  8
0
 62
256
370
-1
  6
ByLayer
 10
375.8950000000053251
 20
100.0
 30
0.0
 11
375.8950000000053251
 21
110.0
 31
0.0
  0
LINE
  5
15C
100
AcDbEntity
100
AcDbLine
  8
0
 62
256
370
-1
  6
ByLayer
 10
376.5300000000053728
 20
100.0
 30
0.0
 11
376.5300000000053728
 21
110.0
 31
0.0
  0
LINE
  5
15D
100
AcDbEntity
100
AcDbLine
  8
0
 62
256
370
-1
  6
ByLayer
 10
377.1650000000054206
 20
100.0
 30
0.0
 11
377.1650000000054206
 21
110.0
 31
0.0
  0
LINE
  5
15E
100
AcDbEntity
100
AcDbLine
  8
0
 62
256
370
-1
  6
ByLayer
 10
377.8000000000054115
 20
100.0
 30
0.0
 11
377.8000000000054115
 21
110.0
 31
0.0
  0
LINE
  5
15F
100
AcDbEntity
100
AcDbLine
  8
0
 62
256
370
-1
  6
ByLayer
 10
378.4350000000054024
 20
100.0
 30
0.0
 11
378.4350000000054024
 21
110.0
 31
0.0
  0
LINE
  5
160
100
AcDbEntity
100
AcDbLine
  8
0
 62
256
370
-1
  6
ByLayer
 10
379.0700000000054501
 20
100.0
 30
0.0
 11
379.0700000000054501
 21
110.0
 31
0.0
  0
LINE
  5
161
100
AcDbEntity
100
AcDbLine
  8
0
 62
256
370
-1
  6
ByLayer
 10
379.7050000000054979
 20
100.0
 30
0.0
 11
379.7050000000054979
 21
110.0
 31
0.0
  0
LINE
  5
162
100
AcDbEntity
100
AcDbLine
  8
0
 62
256
370
-1
  6
ByLayer
 10
380.3400000000054888
 20
100.0
 30
0.0
 11
380.3400000000054888
 21
110.0
 31
0.0
  0
LINE
  5
163
100
AcDbEntity
100
AcDbLine
  8
0
 62
256
370
-1
  6
ByLayer
 10
380.9750000000054797
 20
100.0
 30
0.0
 11
380.9750000000054797
 21
110.0
 31
0.0
  0
LINE
  5
164
100
AcDbEntity
100
AcDbLine
  8
0
 62
256
370
-1
  6
ByLayer
 10
381.6100000000055275
 20
100.0
 30
0.0
 11
381.6100000000055275
 21
110.0
 31
0.0
  0
LINE
  5
165
100
AcDbEntity
100
AcDbLine
  8
0
 62
256
370
-1
  6
ByLayer
 10
382.2450000000055752
 20
100.0
 30
0.0
 11
382.2450000000055752
 21
110.0
 31
0.0
  0
LINE
  5
166
100
AcDbEntity
100
AcDbLine
  8
0
 62
256
370
-1
  6
ByLayer
 10
382.8800000000055661
 20
100.0
 30
0.0
 11
382.8800000000055661
 21
110.0
 31
0.0
  0
LINE
  5
167
100
AcDbEntity
100
AcDbLine
  8
0
 62
256
370
-1
  6
ByLayer
 10
383.515000000005557
 20
100.0
 30
0.0
 11
383.515000000005557
 21
110.0
 31
0.0
  0
LINE
  5
168
100
AcDbEntity
100
AcDbLine
  8
0
 62
256
370
-1
  6
ByLayer
 10
384.1500000000056048
 20
100.0
 30
0.0
 11
384.1500000000056048
 21
110.0
 31
0.0
  0
LINE
  5
169
100
AcDbEntity
100
AcDbLine
  8
0
 62
256
370
-1
  6
ByLayer
 10
384.7850000000056525
 20
100.0
 30
0.0
 11
384.7850000000056525
 21
110.0
 31
0.0
  0
LINE
  5
16A
100
AcDbEntity
100
AcDbLine
  8
0
 62
256
370
-1
  6
ByLayer
 10
385.4200000000056434
 20
100.0
 30
0.0
 11
385.4200000000056434
 21
110.0
 31
0.0
  0
LINE
  5
16B
100
AcDbEntity
100
AcDbLine
  8
0
 62
256
370
-1
  6
ByLayer
 10
386.0550000000056343
 20
100.0
 30
0.0
 11
386.0550000000056343
 21
110.0
 31
0.0
  0
LINE
  5
16C
100
AcDbEntity
100
AcDbLine
  8
0
 62
256
370
-1
  6
ByLayer
 10
386.6900000000056821
 20
100.0
 30
0.0
 11
386.6900000000056821
 21
110.0
 31
0.0
  0
LINE
  5
16D
100
AcDbEntity
100
AcDbLine
  8
0
 62
256
370
-1
  6
ByLayer
 10
387.3250000000057298
 20
100.0
 30
0.0
 11
387.3250000000057298
 21
110.0
 31
0.0
  0
LINE
  5
16E
100
AcDbEntity
100
AcDbLine
  8
0
 62
256
370
-1
  6
ByLayer
 10
387.9600000000057207
 20
100.0
 30
0.0
 11
387.9600000000057207
 21
110.0
 31
0.0
  0
LINE
  5
16F
100
AcDbEntity
100
AcDbLine
  8
0
 62
256
370
-1
  6
ByLayer
 10
388.5950000000057116
 20
100.0
 30
0.0
 11
388.5950000000057116
 21
110.0
 31
0.0
  0
LINE
  5
170
100
AcDbEntity
100
AcDbLine
  8
0
 62
256
370
-1
  6
ByLayer
 10
389.2300000000057594
 20
100.0
 30
0.0
 11
389.2300000000057594
 21
110.0
 31
0.0
  0
LINE
  5
171
100
AcDbEntity
100
AcDbLine
  8
0
 62
256
370
-1
  6
ByLayer
 10
389.8650000000058071
 20
100.0
 30
0.0
 11
389.8650000000058071
 21
110.0
 31
0.0
  0
LINE
  5
172
100
AcDbEntity
100
AcDbLine
  8
0
 62
256
370
-1
  6
ByLayer
 10
390.500000000005798
 20
100.0
 30
0.0
 11
390.500000000005798
 21
110.0
 31
0.0
  0
LINE
  5
173
100
AcDbEntity
100
AcDbLine
  8
0
 62
256
370
-1
  6
ByLayer
 10
391.1350000000057889
 20
100.0
 30
0.0
 11
391.1350000000057889
 21
110.0
 31
0.0
  0
LINE
  5
174
100
AcDbEntity
100
AcDbLine
  8
0
 62
256
370
-1
  6
ByLayer
 10
391.7700000000058367
 20
100.0
 30
0.0
 11
391.7700000000058367
 21
110.0
 31
0.0
  0
LINE
  5
175
100
AcDbEntity
100
AcDbLine
  8
0
 62
256
370
-1
  6
ByLayer
 10
392.4050000000058844
 20
100.0
 30
0.0
 11
392.4050000000058844
 21
110.0
 31
0.0
  0
LINE
  5
176
100
AcDbEntity
100
AcDbLine
  8
0
 62
256
370
-1
  6
ByLayer
 10
393.0400000000058753
 20
100.0
 30
0.0
 11
393.0400000000058753
 21
110.0
 31
0.0
  0
LINE
  5
177
100
AcDbEntity
100
AcDbLine
  8
0
 62
256
370
-1
  6
ByLayer
 10
393.6750000000058662
 20
100.0
 30
0.0
 11
393.6750000000058662
 21
110.0
 31
0.0
  0
LINE
  5
178
100
AcDbEntity
100
AcDbLine
  8
0
 62
256
370
-1
  6
ByLayer
 10
394.310000000005914
 20
100.0
 30
0.0
 11
394.310000000005914
 21
110.0
 31
0.0
  0
LINE
  5
179
100
AcDbEntity
100
AcDbLine
  8
0
 62
256
370
-1
  6
ByLayer
 10
394.9450000000059617
 20
100.0
 30
0.0
 11
394.9450000000059617
 21
110.0
 31
0.0
  0
LINE
  5
17A
100
AcDbEntity
100
AcDbLine
  8
0
 62
256
370
-1
  6
ByLayer
 10
395.5800000000059526
 20
100.0
 30
0.0
 11
395.5800000000059526
 21
110.0
 31
0.0
  0
LINE
  5
17B
100
AcDbEntity
100
AcDbLine
  8
0
 62
256
370
-1
  6
ByLayer
 10
396.2150000000059435
 20
100.0
 30
0.0
 11
396.2150000000059435
 21
110.0
 31
0.0
  0
LINE
  5
17C
100
AcDbEntity
100
AcDbLine
  8
0
 62
256
370
-1
  6
ByLayer
 10
396.8500000000059913
 20
100.0
 30
0.0
 11
396.8500000000059913
 21
110.0
 31
0.0
  0
LINE
  5
17D
100
AcDbEntity
100
AcDbLine
  8
0
 62
256
370
-1
  6
ByLayer
 10
397.485000000006039
 20
100.0
 30
0.0
 11
397.485000000006039
 21
110.0
 31
0.0
  0
LINE
  5
17E
100
AcDbEntity
100
AcDbLine
  8
0
 62
256
370
-1
  6
ByLayer
 10
398.1200000000060299
 20
100.0
 30
0.0
 11
398.1200000000060299
 21
110.0
 31
0.0
  0
LINE
  5
17F
100
AcDbEntity
100
AcDbLine
  8
0
 62
256
370
-1
  6
ByLayer
 10
398.7550000000060209
 20
100.0
 30
0.0
 11
398.7550000000060209
 21
110.0
 31
0.0
  0
LINE
  5
180
100
AcDbEntity
100
AcDbLine
  8
0
 62
256
370
-1
  6
ByLayer
 10
399.3900000000060686
 20
100.0
 30
0.0
 11
399.3900000000060686
 21
110.0
 31
0.0
  0
LINE
  5
181
100
AcDbEntity
100
AcDbLine
  8
0
 62
256
370
-1
  6
ByLayer
 10
400.0250000000061164
 20
100.0
 30
0.0
 11
400.0250000000061164
 21
110.0
 31
0.0
  0
LINE
  5
182
100
AcDbEntity
100
AcDbLine
  8
0
 62
256
370
-1
  6
ByLayer
 10
400.6600000000061073
 20
100.0
 30
0.0
 11
400.6600000000061073
 21
110.0
 31
0.0
  0
LINE
  5
183
100
AcDbEntity
100
AcDbLine
  8
0
 62
256
370
-1
  6
ByLayer
 10
401.2950000000060982
 20
100.0
 30
0.0
 11
401.2950000000060982
 21
110.0
 31
0.0
  0
LINE
  5
184
100
AcDbEntity
100
AcDbLine
  8
0
 62
256
370
-1
  6
ByLayer
 10
401.9300000000061459
 20
100.0
 30
0.0
 11
401.9300000000061459
 21
110.0
 31
0.0
  0
LINE
  5
185
100
AcDbEntity
100
AcDbLine
  8
0
 62
256
370
-1
  6
ByLayer
 10
402.5650000000061937
 20
100.0
 30
0.0
 11
402.5650000000061937
 21
110.0
 31
0.0
  0
LINE
  5
186
100
AcDbEntity
100
AcDbLine
  8
0
 62
256
370
-1
  6
ByLayer
 10
403.2000000000061846
 20
100.0
 30
0.0
 11
403.2000000000061846
 21
110.0
 31
0.0
  0
LINE
  5
187
100
AcDbEntity
100
AcDbLine
  8
0
 62
256
370
-1
  6
ByLayer
 10
403.8350000000061755
 20
100.0
 30
0.0
 11
403.8350000000061755
 21
110.0
 31
0.0
  0
LINE
  5
188
100
AcDbEntity
100
AcDbLine
  8
0
 62
256
370
-1
  6
ByLayer
 10
404.4700000000062232
 20
100.0
 30
0.0
 11
404.4700000000062232
 21
110.0
 31
0.0
  0
LINE
  5
189
100
AcDbEntity
100
AcDbLine
  8
0
 62
256
370
-1
  6
ByLayer
 10
405.105000000006271
 20
100.0
 30
0.0
 11
405.105000000006271
 21
110.0
 31
0.0
  0
LINE
  5
18A
100
AcDbEntity
100
AcDbLine
  8
0
 62
256
370
-1
  6
ByLayer
 10
405.7400000000062619
 20
100.0
 30
0.0
 11
405.7400000000062619
 21
110.0
 31
0.0
  0
LINE
  5
18B
100
AcDbEntity
100
AcDbLine
  8
0
 62
256
370
-1
  6
ByLayer
 10
406.3750000000062528
 20
100.0
 30
0.0
 11
406.3750000000062528
 21
110.0
 31
0.0
  0
LINE
  5
18C
100
AcDbEntity
100
AcDbLine
  8
0
 62
256
370
-1
  6
ByLayer
 10
407.0100000000063005
 20
100.0
 30
0.0
 11
407.0100000000063005
 21
110.0
 31
0.0
  0
LINE
  5
18D
100
AcDbEntity
100
AcDbLine
  8
0
 62
256
370
-1
  6
ByLayer
 10
407.6450000000063483
 20
100.0
 30
0.0
 11
407.6450000000063483
 21
110.0
 31
0.0
  0
LINE
  5
18E
100
AcDbEntity
100
AcDbLine
  8
0
 62
256
370
-1
  6
ByLayer
 10
408.2800000000063392
 20
100.0
 30
0.0
 11
408.2800000000063392
 21
110.0
 31
0.0
  0
LINE
  5
18F
100
AcDbEntity
100
AcDbLine
  8
0
 62
256
370
-1
  6
ByLayer
 10
408.9150000000063301
 20
100.0
 30
0.0
 11
408.9150000000063301
 21
110.0
 31
0.0
  0
LINE
  5
190
100
AcDbEntity
100
AcDbLine
  8
0
 62
256
370
-1
  6
ByLayer
 10
409.5500000000063778
 20
100.0
 30
0.0
 11
409.5500000000063778
 21
110.0
 31
0.0
  0
LINE
  5
191
100
AcDbEntity
100
AcDbLine
  8
0
 62
256
370
-1
  6
ByLayer
 10
410.1850000000064256
 20
100.0
 30
0.0
 11
410.1850000000064256
 21
110.0
 31
0.0
  0
LINE
  5
192
100
AcDbEntity
100
AcDbLine
  8
0
 62
256
370
-1
  6
ByLayer
 10
410.8200000000064165
 20
100.0
 30
0.0
 11
410.8200000000064165
 21
110.0
 31
0.0
  0
LINE
  5
193
100
AcDbEntity
100
AcDbLine
  8
0
 62
256
370
-1
  6
ByLayer
 10
411.4550000000064074
 20
100.0
 30
0.0
 11
411.4550000000064074
 21
110.0
 31
0.0
  0
LINE
  5
194
100
AcDbEntity
100
AcDbLine
  8
0
 62
256
370
-1
  6
ByLayer
 10
412.0900000000064551
 20
100.0
 30
0.0
 11
412.0900000000064551
 21
110.0
 31
0.0
  0
LINE
  5
195
100
AcDbEntity
100
AcDbLine
  8
0
 62
256
370
-1
  6
ByLayer
 10
412.7250000000065029
 20
100.0
 30
0.0
 11
412.7250000000065029
 21
110.0
 31
0.0
  0
LINE
  5
196
100
AcDbEntity
100
AcDbLine
  8
0
 62
256
370
-1
  6
ByLayer
 10
413.3600000000064938
 20
100.0
 30
0.0
 11
413.3600000000064938
 21
110.0
 31
0.0
  0
LINE
  5
197
100
AcDbEntity
100
AcDbLine
  8
0
 62
256
370
-1
  6
ByLayer
 10
413.9950000000064847
 20
100.0
 30
0.0
 11
413.9950000000064847
 21
110.0
 31
0.0
  0
LINE
  5
198
100
AcDbEntity
100
AcDbLine
  8
0
 62
256
370
-1
  6
ByLayer
 10
414.6300000000065324
 20
100.0
 30
0.0
 11
414.6300000000065324
 21
110.0
 31
0.0
  0
LINE
  5
199
100
AcDbEntity
100
AcDbLine
  8
0
 62
256
370
-1
  6
ByLayer
 10
415.2650000000065802
 20
100.0
 30
0.0
 11
415.2650000000065802
 21
110.0
 31
0.0
  0
LINE
  5
19A
100
AcDbEntity
100
AcDbLine
  8
0
 62
256
370
-1
  6
ByLayer
 10
415.9000000000065711
 20
100.0
 30
0.0
 11
415.9000000000065711
 21
110.0
 31
0.0
  0
LINE
  5
19B
100
AcDbEntity
100
AcDbLine
  8
0
 62
256
370
-1
  6
ByLayer
 10
416.535000000006562
 20
100.0
 30
0.0
 11
416.535000000006562
 21
110.0
 31
0.0
  0
LINE
  5
19C
100
AcDbEntity
100
AcDbLine
  8
0
 62
256
370
-1
  6
ByLayer
 10
417.1700000000066098
 20
100.0
 30
0.0
 11
417.1700000000066098
 21
110.0
 31
0.0
  0
LINE
  5
19D
100
AcDbEntity
100
AcDbLine
  8
0
 62
256
370
-1
  6
ByLayer
 10
417.8050000000066575
 20
100.0
 30
0.0
 11
417.8050000000066575
 21
110.0
 31
0.0
  0
LINE
  5
19E
100
AcDbEntity
100
AcDbLine
  8
0
 62
256
370
-1
  6
ByLayer
 10
418.4400000000066484
 20
100.0
 30
0.0
 11
418.4400000000066484
 21
110.0
 31
0.0
  0
LINE
  5
19F
100
AcDbEntity
100
AcDbLine
  8
0
 62
256
370
-1
  6
ByLayer
 10
419.0750000000066393
 20
100.0
 30
0.0
 11
419.0750000000066393
 21
110.0
 31
0.0
  0
LINE
  5
1A0
100
AcDbEntity
100
AcDbLine
  8
0
 62
256
370
-1
  6
ByLayer
 10
419.7100000000066871
 20
100.0
 30
0.0
 11
419.7100000000066871
 21
110.0
 31
0.0
  0
LINE
  5
1A1
100
AcDbEntity
100
AcDbLine
  8
0
 62
256
370
-1
  6
ByLayer
 10
420.3450000000067348
 20
100.0
 30
0.0
 11
420.3450000000067348
 21
110.0
 31
0.0
  0
LINE
  5
1A2
100
AcDbEntity
100
AcDbLine
  8
0
 62
256
370
-1
  6
ByLayer
 10
420.9800000000067257
 20
100.0
 30
0.0
 11
420.9800000000067257
 21
110.0
 31
0.0
  0
LINE
  5
1A3
100
AcDbEntity
100
AcDbLine
  8
0
 62
256
370
-1
  6
ByLayer
 10
421.6150000000067166
 20
100.0
 30
0.0
 11
421.6150000000067166
 21
110.0
 31
0.0
  0
LINE
  5
1A4
100
AcDbEntity
100
AcDbLine
  8
0
 62
256
370
-1
  6
ByLayer
 10
422.2500000000067644
 20
100.0
 30
0.0
 11
422.2500000000067644
 21
110.0
 31
0.0
  0
LINE
  5
1A5
100
AcDbEntity
100
AcDbLine
  8
0
 62
256
370
-1
  6
ByLayer
 10
422.8850000000068121
 20
100.0
 30
0.0
 11
422.8850000000068121
 21
110.0
 31
0.0
  0
LINE
  5
1A6
100
AcDbEntity
100
AcDbLine
  8
0
 62
256
370
-1
  6
ByLayer
 10
423.520000000006803
 20
100.0
 30
0.0
 11
423.520000000006803
 21
110.0
 31
0.0
  0
LINE
  5
1A7
100
AcDbEntity
100
AcDbLine
  8
0
 62
256
370
-1
  6
ByLayer
 10
424.1550000000067939
 20
100.0
 30
0.0
 11
424.1550000000067939
 21
110.0
 31
0.0
  0
LINE
  5
1A8
100
AcDbEntity
100
AcDbLine
  8
0
 62
256
370
-1
  6
ByLayer
 10
424.7900000000068417
 20
100.0
 30
0.0
 11
424.7900000000068417
 21
110.0
 31
0.0
  0
LINE
  5
1A9
100
AcDbEntity
100
AcDbLine
  8
0
 62
256
370
-1
  6
ByLayer
 10
425.4250000000068894
 20
100.0
 30
0.0
 11
425.4250000000068894
 21
110.0
 31
0.0
  0
LINE
  5
1AA
100
AcDbEntity
100
AcDbLine
  8
0
 62
256
370
-1
  6
ByLayer
 10
426.0600000000068803
 20
100.0
 30
0.0
 11
426.0600000000068803
 21
110.0
 31
0.0
  0
LINE
  5
1AB
100
AcDbEntity
100
AcDbLine
  8
0
 62
256
370
-1
  6
ByLayer
 10
426.6950000000068712
 20
100.0
 30
0.0
 11
426.6950000000068712
 21
110.0
 31
0.0
  0
LINE
  5
1AC
100
AcDbEntity
100
AcDbLine
  8
0
 62
256
370
-1
  6
ByLayer
 10
427.330000000006919
 20
100.0
 30
0.0
 11
427.330000000006919
 21
110.0
 31
0.0
  0
LINE
  5
1AD
100
AcDbEntity
100
AcDbLine
  8
0
 62
256
370
-1
  6
ByLayer
 10
427.9650000000069667
 20
100.0
 30
0.0
 11
427.9650000000069667
 21
110.0
 31
0.0
  0
LINE
  5
1AE
100
AcDbEntity
100
AcDbLine
  8
0
 62
256
370
-1
  6
ByLayer
 10
428.6000000000069576
 20
100.0
 30
0.0
 11
428.6000000000069576
 21
110.0
 31
0.0
  0
LINE
  5
1AF
100
AcDbEntity
100
AcDbLine
  8
0
 62
256
370
-1
  6
ByLayer
 10
209.5249999999999773
 20
120.0
 30
0.0
 11
209.5249999999999773
 21
110.0
 31
0.0
  0
LINE
  5
1B0
100
AcDbEntity
100
AcDbLine
  8
0
 62
256
370
-1
  6
ByLayer
 10
219.0499999999999545
 20
120.0
 30
0.0
 11
219.0499999999999545
 21
110.0
 31
0.0
  0
LINE
  5
1B1
100
AcDbEntity
100
AcDbLine
  8
0
 62
256
370
-1
  6
ByLayer
 10
228.5749999999999318
 20
120.0
 30
0.0
 11
228.5749999999999318
 21
110.0
 31
0.0
  0
LINE
  5
1B2
100
AcDbEntity
100
AcDbLine
  8
0
 62
256
370
-1
  6
ByLayer
 10
238.0999999999999091
 20
120.0
 30
0.0
 11
238.0999999999999091
 21
110.0
 31
0.0
  0
LINE
  5
1B3
100
AcDbEntity
100
AcDbLine
  8
0
 62
256
370
-1
  6
ByLayer
 10
247.6249999999998863
 20
120.0
 30
0.0
 11
247.6249999999998863
 21
110.0
 31
0.0
  0
LINE
  5
1B4
100
AcDbEntity
100
AcDbLine
  8
0
 62
256
370
-1
  6
ByLayer
 10
257.1499999999998636
 20
120.0
 30
0.0
 11
257.1499999999998636
 21
110.0
 31
0.0
  0
LINE
  5
1B5
100
AcDbEntity
100
AcDbLine
  8
0
 62
256
370
-1
  6
ByLayer
 10
266.6749999999998408
 20
120.0
 30
0.0
 11
266.6749999999998408
 21
110.0
 31
0.0
  0
LINE
  5
1B6
100
AcDbEntity
100
AcDbLine
  8
0
 62
256
370
-1
  6
ByLayer
 10
276.1999999999998181
 20
120.0
 30
0.0
 11
276.1999999999998181
 21
110.0
 31
0.0
  0
LINE
  5
1B7
100
AcDbEntity
100
AcDbLine
  8
0
 62
256
370
-1
  6
ByLayer
 10
285.7249999999997954
 20
120.0
 30
0.0
 11
285.7249999999997954
 21
110.0
 31
0.0
  0
LINE
  5
1B8
100
AcDbEntity
100
AcDbLine
  8
0
 62
256
370
-1
  6
ByLayer
 10
295.2499999999997726
 20
120.0
 30
0.0
 11
295.2499999999997726
 21
110.0
 31
0.0
  0
LINE
  5
1B9
100
AcDbEntity
100
AcDbLine
  8
0
 62
256
370
-1
  6
ByLayer
 10
304.7749999999997499
 20
120.0
 30
0.0
 11
304.7749999999997499
 21
110.0
 31
0.0
  0
LINE
  5
1BA
100
AcDbEntity
100
AcDbLine
  8
0
 62
256
370
-1
  6
ByLayer
 10
314.2999999999997272
 20
120.0
 30
0.0
 11
314.2999999999997272
 21
110.0
 31
0.0
  0
LINE
  5
1BB
100
AcDbEntity
100
AcDbLine
  8
0
 62
256
370
-1
  6
ByLayer
 10
323.8249999999997044
 20
120.0
 30
0.0
 11
323.8249999999997044
 21
110.0
 31
0.0
  0
LINE
  5
1BC
100
AcDbEntity
100
AcDbLine
  8
0
 62
256
370
-1
  6
ByLayer
 10
333.3499999999996817
 20
120.0
 30
0.0
 11
333.3499999999996817
 21
110.0
 31
0.0
  0
LINE
  5
1BD
100
AcDbEntity
100
AcDbLine
  8
0
 62
256
370
-1
  6
ByLayer
 10
342.8749999999996589
 20
120.0
 30
0.0
 11
342.8749999999996589
 21
110.0
 31
0.0
  0
LINE
  5
1BE
100
AcDbEntity
100
AcDbLine
  8
0
 62
256
370
-1
  6
ByLayer
 10
352.3999999999996362
 20
120.0
 30
0.0
 11
352.3999999999996362
 21
110.0
 31
0.0
  0
LINE
  5
1BF
100
AcDbEntity
100
AcDbLine
  8
0
 62
256
370
-1
  6
ByLayer
 10
361.9249999999996135
 20
120.0
 30
0.0
 11
361.9249999999996135
 21
110.0
 31
0.0
  0
LINE
  5
1C0
100
AcDbEntity
100
AcDbLine
  8
0
 62
256
370
-1
  6
ByLayer
 10
371.4499999999995907
 20
120.0
 30
0.0
 11
371.4499999999995907
 21
110.0
 31
0.0
  0
LINE
  5
1C1
100
AcDbEntity
100
AcDbLine
  8
0
 62
256
370
-1
  6
ByLayer
 10
380.974999999999568
 20
120.0
 30
0.0
 11
380.974999999999568
 21
110.0
 31
0.0
  0
LINE
  5
1C2
100
AcDbEntity
100
AcDbLine
  8
0
 62
256
370
-1
  6
ByLayer
 10
390.4999999999995453
 20
120.0
 30
0.0
 11
390.4999999999995453
 21
110.0
 31
0.0
  0
LINE
  5
1C3
100
AcDbEntity
100
AcDbLine
  8
0
 62
256
370
-1
  6
ByLayer
 10
400.0249999999995225
 20
120.0
 30
0.0
 11
400.0249999999995225
 21
110.0
 31
0.0
  0
LINE
  5
1C4
100
AcDbEntity
100
AcDbLine
  8
0
 62
256
370
-1
  6
ByLayer
 10
409.5499999999994998
 20
120.0
 30
0.0
 11
409.5499999999994998
 21
110.0
 31
0.0
  0
LINE
  5
1C5
100
AcDbEntity
100
AcDbLine
  8
0
 62
256
370
-1
  6
ByLayer
 10
419.074999999999477
 20
120.0
 30
0.0
 11
419.074999999999477
 21
110.0
 31
0.0
  0
LINE
  5
1C6
100
AcDbEntity
100
AcDbLine
  8
0
 62
256
370
-1
  6
ByLayer
 10
428.5999999999994543
 20
120.0
 30
0.0
 11
428.5999999999994543
 21
110.0
 31
0.0
  0
LINE
  5
1C7
100
AcDbEntity
100
AcDbLine
  8
0
 62
256
370
-1
  6
ByLayer
 10
200.0
 20
100.0
 30
0.0
 11
200.0
 21
90.0
 31
0.0
  0
LINE
  5
1C8
100
AcDbEntity
100
AcDbLine
  8
0
 62
256
370
-1
  6
ByLayer
 10
206.3499999999999943
 20
100.0
 30
0.0
 11
206.3499999999999943
 21
90.0
 31
0.0
  0
LINE
  5
1C9
100
AcDbEntity
100
AcDbLine
  8
0
 62
256
370
-1
  6
ByLayer
 10
212.6999999999999886
 20
100.0
 30
0.0
 11
212.6999999999999886
 21
90.0
 31
0.0
  0
LINE
  5
1CA
100
AcDbEntity
100
AcDbLine
  8
0
 62
256
370
-1
  6
ByLayer
 10
219.0499999999999829
 20
100.0
 30
0.0
 11
219.0499999999999829
 21
90.0
 31
0.0
  0
LINE
  5
1CB
100
AcDbEntity
100
AcDbLine
  8
0
 62
256
370
-1
  6
ByLayer
 10
225.3999999999999773
 20
100.0
 30
0.0
 11
225.3999999999999773
 21
90.0
 31
0.0
  0
LINE
  5
1CC
100
AcDbEntity
100
AcDbLine
  8
0
 62
256
370
-1
  6
ByLayer
 10
231.7499999999999716
 20
100.0
 30
0.0
 11
231.7499999999999716
 21
90.0
 31
0.0
  0
LINE
  5
1CD
100
AcDbEntity
100
AcDbLine
  8
0
 62
256
370
-1
  6
ByLayer
 10
238.0999999999999659
 20
100.0
 30
0.0
 11
238.0999999999999659
 21
90.0
 31
0.0
  0
LINE
  5
1CE
100
AcDbEntity
100
AcDbLine
  8
0
 62
256
370
-1
  6
ByLayer
 10
244.4499999999999602
 20
100.0
 30
0.0
 11
244.4499999999999602
 21
90.0
 31
0.0
  0
LINE
  5
1CF
100
AcDbEntity
100
AcDbLine
  8
0
 62
256
370
-1
  6
ByLayer
 10
250.7999999999999545
 20
100.0
 30
0.0
 11
250.7999999999999545
 21
90.0
 31
0.0
  0
LINE
  5
1D0
100
AcDbEntity
100
AcDbLine
  8
0
 62
256
370
-1
  6
ByLayer
 10
257.1499999999999773
 20
100.0
 30
0.0
 11
257.1499999999999773
 21
90.0
 31
0.0
  0
LINE
  5
1D1
100
AcDbEntity
100
AcDbLine
  8
0
 62
256
370
-1
  6
ByLayer
 10
263.4999999999999432
 20
100.0
 30
0.0
 11
263.4999999999999432
 21
90.0
 31
0.0
  0
LINE
  5
1D2
100
AcDbEntity
100
AcDbLine
  8
0
 62
256
370
-1
  6
ByLayer
 10
269.8499999999999091
 20
100.0
 30
0.0
 11
269.8499999999999091
 21
90.0
 31
0.0
  0
LINE
  5
1D3
100
AcDbEntity
100
AcDbLine
  8
0
 62
256
370
-1
  6
ByLayer
 10
276.1999999999999318
 20
100.0
 30
0.0
 11
276.1999999999999318
 21
90.0
 31
0.0
  0
LINE
  5
1D4
100
AcDbEntity
100
AcDbLine
  8
0
 62
256
370
-1
  6
ByLayer
 10
282.5499999999999545
 20
100.0
 30
0.0
 11
282.5499999999999545
 21
90.0
 31
0.0
  0
LINE
  5
1D5
100
AcDbEntity
100
AcDbLine
  8
0
 62
256
370
-1
  6
ByLayer
 10
288.8999999999999204
 20
100.0
 30
0.0
 11
288.8999999999999204
 21
90.0
 31
0.0
  0
LINE
  5
1D6
100
AcDbEntity
100
AcDbLine
  8
0
 62
256
370
-1
  6
ByLayer
 10
295.2499999999998863
 20
100.0
 30
0.0
 11
295.2499999999998863
 21
90.0
 31
0.0
  0
LINE
  5
1D7
100
AcDbEntity
100
AcDbLine
  8
0
 62
256
370
-1
  6
ByLayer
 10
301.5999999999999091
 20
100.0
 30
0.0
 11
301.5999999999999091
 21
90.0
 31
0.0
  0
LINE
  5
1D8
100
AcDbEntity
100
AcDbLine
  8
0
 62
256
370
-1
  6
ByLayer
 10
307.9499999999999318
 20
100.0
 30
0.0
 11
307.9499999999999318
 21
90.0
 31
0.0
  0
LINE
  5
1D9
100
AcDbEntity
100
AcDbLine
  8
0
 62
256
370
-1
  6
ByLayer
 10
314.2999999999998977
 20
100.0
 30
0.0
 11
314.2999999999998977
 21
90.0
 31
0.0
  0
LINE
  5
1DA
100
AcDbEntity
100
AcDbLine
  8
0
 62
256
370
-1
  6
ByLayer
 10
320.6499999999998636
 20
100.0
 30
0.0
 11
320.6499999999998636
 21
90.0
 31
0.0
  0
LINE
  5
1DB
100
AcDbEntity
100
AcDbLine
  8
0
 62
256
370
-1
  6
ByLayer
 10
326.9999999999998863
 20
100.0
 30
0.0
 11
326.9999999999998863
 21
90.0
 31
0.0
  0
LINE
  5
1DC
100
AcDbEntity
100
AcDbLine
  8
0
 62
256
370
-1
  6
ByLayer
 10
333.3499999999999091
 20
100.0
 30
0.0
 11
333.3499999999999091
 21
90.0
 31
0.0
  0
LINE
  5
1DD
100
AcDbEntity
100
AcDbLine
  8
0
 62
256
370
-1
  6
ByLayer
 10
339.6999999999998749
 20
100.0
 30
0.0
 11
339.6999999999998749
 21
90.0
 31
0.0
  0
LINE
  5
1DE
100
AcDbEntity
100
AcDbLine
  8
0
 62
256
370
-1
  6
ByLayer
 10
346.0499999999998408
 20
100.0
 30
0.0
 11
346.0499999999998408
 21
90.0
 31
0.0
  0
LINE
  5
1DF
100
AcDbEntity
100
AcDbLine
  8
0
 62
256
370
-1
  6
ByLayer
 10
352.3999999999998636
 20
100.0
 30
0.0
 11
352.3999999999998636
 21
90.0
 31
0.0
  0
LINE
  5
1E0
100
AcDbEntity
100
AcDbLine
  8
0
 62
256
370
-1
  6
ByLayer
 10
358.7499999999998863
 20
100.0
 30
0.0
 11
358.7499999999998863
 21
90.0
 31
0.0
  0
LINE
  5
1E1
100
AcDbEntity
100
AcDbLine
  8
0
 62
256
370
-1
  6
ByLayer
 10
365.0999999999998522
 20
100.0
 30
0.0
 11
365.0999999999998522
 21
90.0
 31
0.0
  0
LINE
  5
1E2
100
AcDbEntity
100
AcDbLine
  8
0
 62
256
370
-1
  6
ByLayer
 10
371.4499999999998181
 20
100.0
 30
0.0
 11
371.4499999999998181
 21
90.0
 31
0.0
  0
LINE
  5
1E3
100
AcDbEntity
100
AcDbLine
  8
0
 62
256
370
-1
  6
ByLayer
 10
377.7999999999998408
 20
100.0
 30
0.0
 11
377.7999999999998408
 21
90.0
 31
0.0
  0
LINE
  5
1E4
100
AcDbEntity
100
AcDbLine
  8
0
 62
256
370
-1
  6
ByLayer
 10
384.1499999999998636
 20
100.0
 30
0.0
 11
384.1499999999998636
 21
90.0
 31
0.0
  0
LINE
  5
1E5
100
AcDbEntity
100
AcDbLine
  8
0
 62
256
370
-1
  6
ByLayer
 10
390.4999999999998295
 20
100.0
 30
0.0
 11
390.4999999999998295
 21
90.0
 31
0.0
  0
LINE
  5
1E6
100
AcDbEntity
100
AcDbLine
  8
0
 62
256
370
-1
  6
ByLayer
 10
396.8499999999997954
 20
100.0
 30
0.0
 11
396.8499999999997954
 21
90.0
 31
0.0
  0
LINE
  5
1E7
100
AcDbEntity
100
AcDbLine
  8
0
 62
256
370
-1
  6
ByLayer
 10
403.1999999999998181
 20
100.0
 30
0.0
 11
403.1999999999998181
 21
90.0
 31
0.0
  0
LINE
  5
1E8
100
AcDbEntity
100
AcDbLine
  8
0
 62
256
370
-1
  6
ByLayer
 10
409.5499999999998408
 20
100.0
 30
0.0
 11
409.5499999999998408
 21
90.0
 31
0.0
  0
LINE
  5
1E9
100
AcDbEntity
100
AcDbLine
  8
0
 62
256
370
-1
  6
ByLayer
 10
415.8999999999998067
 20
100.0
 30
0.0
 11
415.8999999999998067
 21
90.0
 31
0.0
  0
LINE
  5
1EA
100
AcDbEntity
100
AcDbLine
  8
0
 62
256
370
-1
  6
ByLayer
 10
422.2499999999997726
 20
100.0
 30
0.0
 11
422.2499999999997726
 21
90.0
 31
0.0
  0
LINE
  5
1EB
100
AcDbEntity
100
AcDbLine
  8
0
 62
256
370
-1
  6
ByLayer
 10
428.5999999999997954
 20
100.0
 30
0.0
 11
428.5999999999997954
 21
90.0
 31
0.0
  0
MTEXT
  5
1EC
100
AcDbEntity
100
AcDbMText
  8
0
 62
256
370
-1
  6
ByLayer
 10
199.0
 20
130.0
 30
0.0
 40
5.0
 41
100.0
 71
1
 72
2
  1
0
  7
iso
 50
0.0
 73
1
 44
1.0
  0
MTEXT
  5
1ED
100
AcDbEntity
100
AcDbMText
  8
0
 62
256
370
-1
  6
ByLayer
 10
207.0
 20
130.0
 30
0.0
 40
5.0
 41
100.0
 71
1
 72
2
  1
15
  7
iso
 50
0.0
 73
1
 44
1.0
  0
MTEXT
  5
1EE
100
AcDbEntity
100
AcDbMText
  8
0
 62
256
370
-1
  6
ByLayer
 10
216.0
 20
130.0
 30
0.0
 40
5.0
 41
100.0
 71
1
 72
2
  1
30
  7
iso
 50
0.0
 73
1
 44
1.0
  0
MTEXT
  5
1EF
100
AcDbEntity
100
AcDbMText
  8
0
 62
256
370
-1
  6
ByLayer
 10
225.0
 20
130.0
 30
0.0
 40
5.0
 41
100.0
 71
1
 72
2
  1
45
  7
iso
 50
0.0
 73
1
 44
1.0
  0
MTEXT
  5
1F0
100
AcDbEntity
100
AcDbMText
  8
0
 62
256
370
-1
  6
ByLayer
 10
235.0
 20
130.0
 30
0.0
 40
5.0
 41
100.0
 71
1
 72
2
  1
60
  7
iso
 50
0.0
 73
1
 44
1.0
  0
MTEXT
  5
1F1
100
AcDbEntity
100
AcDbMText
  8
0
 62
256
370
-1
  6
ByLayer
 10
244.0
 20
130.0
 30
0.0
 40
5.0
 41
100.0
 71
1
 72
2
  1
75
  7
iso
 50
0.0
 73
1
 44
1.0
  0
MTEXT
  5
1F2
100
AcDbEntity
100
AcDbMText
  8
0
 62
256
370
-1
  6
ByLayer
 10
254.0
 20
130.0
 30
0.0
 40
5.0
 41
100.0
 71
1
 72
2
  1
90
  7
iso
 50
0.0
 73
1
 44
1.0
  0
MTEXT
  5
1F3
100
AcDbEntity
100
AcDbMText
  8
0
 62
256
370
-1
  6
ByLayer
 10
264.0
 20
130.0
 30
0.0
 40
5.0
 41
100.0
 71
1
 72
2
  1
15
  7
iso
 50
0.0
 73
1
 44
1.0
  0
MTEXT
  5
1F4
100
AcDbEntity
100
AcDbMText
  8
0
 62
256
370
-1
  6
ByLayer
 10
273.0
 20
130.0
 30
0.0
 40
5.0
 41
100.0
 71
1
 72
2
  1
30
  7
iso
 50
0.0
 73
1
 44
1.0
  0
MTEXT
  5
1F5
100
AcDbEntity
100
AcDbMText
  8
0
 62
256
370
-1
  6
ByLayer
 10
282.0
 20
130.0
 30
0.0
 40
5.0
 41
100.0
 71
1
 72
2
  1
45
  7
iso
 50
0.0
 73
1
 44
1.0
  0
MTEXT
  5
1F6
100
AcDbEntity
100
AcDbMText
  8
0
 62
256
370
-1
  6
ByLayer
 10
292.0
 20
130.0
 30
0.0
 40
5.0
 41
100.0
 71
1
 72
2
  1
60
  7
iso
 50
0.0
 73
1
 44
1.0
  0
MTEXT
  5
1F7
100
AcDbEntity
100
AcDbMText
  8
0
 62
256
370
-1
  6
ByLayer
 10
301.0
 20
130.0
 30
0.0
 40
5.0
 41
100.0
 71
1
 72
2
  1
75
  7
iso
 50
0.0
 73
1
 44
1.0
  0
MTEXT
  5
1F8
100
AcDbEntity
100
AcDbMText
  8
0
 62
256
370
-1
  6
ByLayer
 10
311.0
 20
130.0
 30
0.0
 40
5.0
 41
100.0
 71
1
 72
2
  1
90
  7
iso
 50
0.0
 73
1
 44
1.0
  0
MTEXT
  5
1F9
100
AcDbEntity
100
AcDbMText
  8
0
 62
256
370
-1
  6
ByLayer
 10
321.0
 20
130.0
 30
0.0
 40
5.0
 41
100.0
 71
1
 72
2
  1
15
  7
iso
 50
0.0
 73
1
 44
1.0
  0
MTEXT
  5
1FA
100
AcDbEntity
100
AcDbMText
  8
0
 62
256
370
-1
  6
ByLayer
 10
330.0
 20
130.0
 30
0.0
 40
5.0
 41
100.0
 71
1
 72
2
  1
30
  7
iso
 50
0.0
 73
1
 44
1.0
  0
MTEXT
  5
1FB
100
AcDbEntity
100
AcDbMText
  8
0
 62
256
370
-1
  6
ByLayer
 10
339.0
 20
130.0
 30
0.0
 40
5.0
 41
100.0
 71
1
 72
2
  1
45
  7
iso
 50
0.0
 73
1
 44
1.0
  0
MTEXT
  5
1FC
100
AcDbEntity
100
AcDbMText
  8
0
 62
256
370
-1
  6
ByLayer
 10
349.0
 20
130.0
 30
0.0
 40
5.0
 41
100.0
 71
1
 72
2
  1
60
  7
iso
 50
0.0
 73
1
 44
1.0
  0
MTEXT
  5
1FD
100
AcDbEntity
100
AcDbMText
  8
0
 62
256
370
-1
  6
ByLayer
 10
358.0
 20
130.0
 30
0.0
 40
5.0
 41
100.0
 71
1
 72
2
  1
75
  7
iso
 50
0.0
 73
1
 44
1.0
  0
MTEXT
  5
1FE
100
AcDbEntity
100
AcDbMText
  8
0
 62
256
370
-1
  6
ByLayer
 10
368.0
 20
130.0
 30
0.0
 40
5.0
 41
100.0
 71
1
 72
2
  1
90
  7
iso
 50
0.0
 73
1
 44
1.0
  0
MTEXT
  5
1FF
100
AcDbEntity
100
AcDbMText
  8
0
 62
256
370
-1
  6
ByLayer
 10
378.0
 20
130.0
 30
0.0
 40
5.0
 41
100.0
 71
1
 72
2
  1
15
  7
iso
 50
0.0
 73
1
 44
1.0
  0
MTEXT
  5
200
100
AcDbEntity
100
AcDbMText
  8
0
 62
256
370
-1
  6
ByLayer
 10
387.0
 20
130.0
 30
0.0
 40
5.0
 41
100.0
 71
1
 72
2
  1
30
  7
iso
 50
0.0
 73
1
 44
1.0
  0
MTEXT
  5
201
100
AcDbEntity
100
AcDbMText
  8
0
 62
256
370
-1
  6
ByLayer
 10
396.0
 20
130.0
 30
0.0
 40
5.0
 41
100.0
 71
1
 72
2
  1
45
  7
iso
 50
0.0
 73
1
 44
1.0
  0
MTEXT
  5
202
100
AcDbEntity
100
AcDbMText
  8
0
 62
256
370
-1
  6
ByLayer
 10
406.0
 20
130.0
 30
0.0
 40
5.0
 41
100.0
 71
1
 72
2
  1
60
  7
iso
 50
0.0
 73
1
 44
1.0
  0
MTEXT
  5
203
100
AcDbEntity
100
AcDbMText
  8
0
 62
256
370
-1
  6
ByLayer
 10
415.0
 20
130.0
 30
0.0
 40
5.0
 41
100.0
 71
1
 72
2
  1
75
  7
iso
 50
0.0
 73
1
 44
1.0
  0
MTEXT
  5
204
100
AcDbEntity
100
AcDbMText
  8
0
 62
256
370
-1
  6
ByLayer
 10
425.0
 20
130.0
 30
0.0
 40
5.0
 41
100.0
 71
1
 72
2
  1
90
  7
iso
 50
0.0
 73
1
 44
1.0
  0
MTEXT
  5
205
100
AcDbEntity
100
AcDbMText
  8
0
 62
256
370
-1
  6
ByLayer
 10
280.0
 20
80.0
 30
0.0
 40
5.0
 41
100.0
 71
1
 72
2
  1
Scale by 3.14436 to print
  7
iso
 50
0.0
 73
0
 44
1.0
  0
ENDSEC
  0
SECTION
  2
OBJECTS
  0
DICTIONARY
  5
C
100
AcDbDictionary
280
0
281
1
  3
ACAD_GROUP
350
D
  3
ACAD_LAYOUT
350
1A
  3
ACAD_MLINESTYLE
350
17
  3
ACAD_PLOTSETTINGS
350
19
  3
ACAD_PLOTSTYLENAME
350
E
  3
AcDbVariableDictionary
350
206
  0
DICTIONARY
  5
D
100
AcDbDictionary
280
0
281
1
  0
ACDBDICTIONARYWDFLT
  5
E
100
AcDbDictionary
281
1
  3
Normal
350
F
100
AcDbDictionaryWithDefault
340
F
  0
ACDBPLACEHOLDER
  5
F
  0
DICTIONARY
  5
17
100
AcDbDictionary
280
0
281
1
  3
Standard
350
18
  0
MLINESTYLE
  5
18
100
AcDbMlineStyle
  2
STANDARD
 70
0
  3

 62
256
 51
90.0
 52
90.0
 71
2
 49
0.5
 62
256
  6
BYLAYER
 49
-0.5
 62
256
  6
BYLAYER
  0
DICTIONARY
  5
19
100
AcDbDictionary
280
0
281
1
  0
DICTIONARY
  5
1A
100
AcDbDictionary
281
1
  3
Layout1
350
1E
  3
Layout2
350
26
  3
Model
350
22
  0
LAYOUT
  5
1E
100
AcDbPlotSettings
  1

  2
C:\Program Files\AutoCAD 2002\plotters\DWF ePlot (optimized for plotting).pc3
  4

  6

 40
0.0
 41
0.0
 42
0.0
 43
0.0
 44
0.0
 45
0.0
 46
0.0
 47
0.0
 48
0.0
 49
0.0
140
0.0
141
0.0
142
1.0
143
1.0
 70
688
 72
0
 73
0
 74
5
  7

 75
16
147
1.0
148
0.0
149
0.0
100
AcDbLayout
  1
Layout1
 70
1
 71
1
 10
0.0
 20
0.0
 11
420.0
 21
297.0
 12
0.0
 22
0.0
 32
0.0
 14
100000000000000000000.0
 24
100000000000000000000.0
 34
100000000000000000000.0
 15
-100000000000000000000.0
 25
-100000000000000000000.0
 35
-100000000000000000000.0
146
0.0
 13
0.0
 23
0.0
 33
0.0
 16
1.0
 26
0.0
 36
0.0
 17
0.0
 27
1.0
 37
0.0
 76
0
330
1B
  0
LAYOUT
  5
22
100
AcDbPlotSettings
  1

  2
C:\Program Files\AutoCAD 2002\plotters\DWF ePlot (optimized for plotting).pc3
  4

  6

 40
0.0
 41
0.0
 42
0.0
 43
0.0
 44
0.0
 45
0.0
 46
0.0
 47
0.0
 48
0.0
 49
0.0
140
0.0
141
0.0
142
1.0
143
1.0
 70
1712
 72
0
 73
0
 74
0
  7

 75
0
147
1.0
148
0.0
149
0.0
100
AcDbLayout
  1
Model
 70
1
 71
0
 10
0.0
 20
0.0
 11
12.0
 21
9.0
 12
0.0
 22
0.0
 32
0.0
 14
0.0
 24
0.0
 34
0.0
 15
0.0
 25
0.0
 35
0.0
146
0.0
 13
0.0
 23
0.0
 33
0.0
 16
1.0
 26
0.0
 36
0.0
 17
0.0
 27
1.0
 37
0.0
 76
0
330
1F
  0
LAYOUT
  5
26
100
AcDbPlotSettings
  1

  2
C:\Program Files\AutoCAD 2002\plotters\DWF ePlot (optimized for plotting).pc3
  4

  6

 40
0.0
 41
0.0
 42
0.0
 43
0.0
 44
0.0
 45
0.0
 46
0.0
 47
0.0
 48
0.0
 49
0.0
140
0.0
141
0.0
142
1.0
143
1.0
 70
688
 72
0
 73
0
 74
5
  7

 75
16
147
1.0
148
0.0
149
0.0
100
AcDbLayout
  1
Layout2
 70
1
 71
2
 10
0.0
 20
0.0
 11
12.0
 21
9.0
 12
0.0
 22
0.0
 32
0.0
 14
0.0
 24
0.0
 34
0.0
 15
0.0
 25
0.0
 35
0.0
146
0.0
 13
0.0
 23
0.0
 33
0.0
 16
1.0
 26
0.0
 36
0.0
 17
0.0
 27
1.0
 37
0.0
 76
0
330
23
  0
DICTIONARY
  5
206
100
AcDbDictionary
281
1
  3
DIMASSOC
350
208
  3
HIDETEXT
350
207
  0
DICTIONARYVAR
  5
207
100
DictionaryVariables
280
0
  1
2
  0
DICTIONARYVAR
  5
208
100
DictionaryVariables
280
0
  1
1
  0
ENDSEC
  0
EOF
