999
dxfrw 0.5.10
0
SECTION
2
HEADER
9
$ACADVER
1
AC1021
9
$HANDSEED
5
20000
9
$DWGCODEPAGE
3
ANSI_1252
9
$INSBASE
10
0
20
0
30
0
9
$EXTMIN
10
66.875
20
68.75
30
0
9
$EXTMAX
10
285
20
143.125
30
0
9
$LIMMIN
10
0
20
0
9
$LIMMAX
10
420
20
297
9
$ORTHOMODE
70
0
9
$LTSCALE
40
1
9
$TEXTSTYLE
7
STANDARD
9
$CLAYER
8
Body
9
$DIMASZ
40
2.5
9
$DIMLFAC
40
1
9
$DIMSCALE
40
1
9
$DIMEXO
40
0.625
9
$DIMEXE
40
1.25
9
$DIMTXT
40
2.5
9
$DIMTSZ
40
0
9
$DIMAUNIT
70
0
9
$DIMADEC
70
0
9
$DIMLUNIT
70
2
9
$DIMSTYLE
2
STANDARD
9
$DIMGAP
40
0.625
9
$DIMTIH
70
0
9
$LUNITS
70
2
9
$LUPREC
70
4
9
$AUNITS
70
0
9
$AUPREC
70
2
9
$SPLINESEGS
70
8
9
$GRIDMODE
70
1
9
$SNAPSTYLE
70
0
9
$PINSBASE
10
0
20
0
30
0
9
$PLIMMIN
10
0
20
0
9
$PLIMMAX
10
297
20
210
9
$INSUNITS
70
4
9
$PSVPSCALE
40
1
0
ENDSEC
0
SECTION
2
CLASSES
0
ENDSEC
0
SECTION
2
TABLES
0
TABLE
2
VPORT
5
8
330
0
100
AcDbSymbolTable
70
1
0
VPORT
5
31
330
2
100
AcDbSymbolTableRecord
100
AcDbViewportTableRecord
2
*ACTIVE
70
0
10
0
20
0
11
1
21
1
12
162.048
22
73.728
13
0
23
0
14
10
24
10
15
10
25
10
16
0
26
0
36
1
17
0
27
0
37
0
40
80.2816
41
2.04464285714
42
50
43
0
44
0
50
0
51
0
71
0
72
100
73
1
74
3
75
0
76
1
77
0
78
0
281
0
65
1
110
0
120
0
130
0
111
1
121
0
131
0
112
0
122
1
132
0
79
0
146
0
348
10020
60
7
61
5
292
1
282
1
141
0
142
0
63
250
421
3358443
0
ENDTAB
0
TABLE
2
LTYPE
5
5
330
0
100
AcDbSymbolTable
70
4
0
LTYPE
5
14
330
5
100
AcDbSymbolTableRecord
100
AcDbLinetypeTableRecord
2
ByBlock
70
0
3

72
65
73
0
40
0
0
LTYPE
5
15
330
5
100
AcDbSymbolTableRecord
100
AcDbLinetypeTableRecord
2
ByLayer
70
0
3

72
65
73
0
40
0
0
LTYPE
5
16
330
5
100
AcDbSymbolTableRecord
100
AcDbLinetypeTableRecord
2
Continuous
70
0
3
Solid line
72
65
73
0
40
0
0
LTYPE
5
32
330
5
100
AcDbSymbolTableRecord
100
AcDbLinetypeTableRecord
2
DOT
70
0
3
Dot . . . . . . . . . . . . . . . . . . . . . .
72
65
73
2
40
6.35
49
0
74
0
49
-6.35
74
0
0
LTYPE
5
33
330
5
100
AcDbSymbolTableRecord
100
AcDbLinetypeTableRecord
2
DOT2
70
0
3
Dot (.5x) .....................................
72
65
73
2
40
3.175
49
0
74
0
49
-3.175
74
0
0
LTYPE
5
34
330
5
100
AcDbSymbolTableRecord
100
AcDbLinetypeTableRecord
2
DOTX2
70
0
3
Dot (2x) .  .  .  .  .  .  .  .  .  .  .  .  .
72
65
73
2
40
12.7
49
0
74
0
49
-12.7
74
0
0
LTYPE
5
35
330
5
100
AcDbSymbolTableRecord
100
AcDbLinetypeTableRecord
2
DASHED
70
0
3
Dot . . . . . . . . . . . . . . . . . . . . . .
72
65
73
2
40
19.05
49
12.7
74
0
49
-6.35
74
0
0
LTYPE
5
36
330
5
100
AcDbSymbolTableRecord
100
AcDbLinetypeTableRecord
2
DASHED2
70
0
3
Dashed (.5x) _ _ _ _ _ _ _ _ _ _ _ _ _ _ _ _ _
72
65
73
2
40
9.525
49
6.35
74
0
49
-3.175
74
0
0
LTYPE
5
37
330
5
100
AcDbSymbolTableRecord
100
AcDbLinetypeTableRecord
2
DASHEDX2
70
0
3
Dashed (2x) ____  ____  ____  ____  ____  ___
72
65
73
2
40
38.1
49
25.4
74
0
49
-12.7
74
0
0
LTYPE
5
38
330
5
100
AcDbSymbolTableRecord
100
AcDbLinetypeTableRecord
2
DASHDOT
70
0
3
Dash dot __ . __ . __ . __ . __ . __ . __ . __
72
65
73
4
40
25.4
49
12.7
74
0
49
-6.35
74
0
49
0
74
0
49
-6.35
74
0
0
LTYPE
5
39
330
5
100
AcDbSymbolTableRecord
100
AcDbLinetypeTableRecord
2
DASHDOT2
70
0
3
Dash dot (.5x) _._._._._._._._._._._._._._._.
72
65
73
4
40
12.7
49
6.35
74
0
49
-3.175
74
0
49
0
74
0
49
-3.175
74
0
0
LTYPE
5
3A
330
5
100
AcDbSymbolTableRecord
100
AcDbLinetypeTableRecord
2
DASHDOTX2
70
0
3
Dash dot (2x) ____  .  ____  .  ____  .  ___
72
65
73
4
40
50.8
49
25.4
74
0
49
-12.7
74
0
49
0
74
0
49
-12.7
74
0
0
LTYPE
5
3B
330
5
100
AcDbSymbolTableRecord
100
AcDbLinetypeTableRecord
2
DIVIDE
70
0
3
Divide ____ . . ____ . . ____ . . ____ . . ____
72
65
73
6
40
31.75
49
12.7
74
0
49
-6.35
74
0
49
0
74
0
49
-6.35
74
0
49
0
74
0
49
-6.35
74
0
0
LTYPE
5
3C
330
5
100
AcDbSymbolTableRecord
100
AcDbLinetypeTableRecord
2
DIVIDE2
70
0
3
Divide (.5x) __..__..__..__..__..__..__..__.._
72
65
73
6
40
15.875
49
6.35
74
0
49
-3.175
74
0
49
0
74
0
49
-3.175
74
0
49
0
74
0
49
-3.175
74
0
0
LTYPE
5
3D
330
5
100
AcDbSymbolTableRecord
100
AcDbLinetypeTableRecord
2
DIVIDEX2
70
0
3
Divide (2x) ________  .  .  ________  .  .  _
72
65
73
6
40
63.5
49
25.4
74
0
49
-12.7
74
0
49
0
74
0
49
-12.7
74
0
49
0
74
0
49
-12.7
74
0
0
LTYPE
5
3E
330
5
100
AcDbSymbolTableRecord
100
AcDbLinetypeTableRecord
2
BORDER
70
0
3
Border __ __ . __ __ . __ __ . __ __ . __ __ .
72
65
73
6
40
44.45
49
12.7
74
0
49
-6.35
74
0
49
12.7
74
0
49
-6.35
74
0
49
0
74
0
49
-6.35
74
0
0
LTYPE
5
3F
330
5
100
AcDbSymbolTableRecord
100
AcDbLinetypeTableRecord
2
BORDER2
70
0
3
Border (.5x) __.__.__.__.__.__.__.__.__.__.__.
72
65
73
6
40
22.225
49
6.35
74
0
49
-3.175
74
0
49
6.35
74
0
49
-3.175
74
0
49
0
74
0
49
-3.175
74
0
0
LTYPE
5
40
330
5
100
AcDbSymbolTableRecord
100
AcDbLinetypeTableRecord
2
BORDERX2
70
0
3
Border (2x) ____  ____  .  ____  ____  .  ___
72
65
73
6
40
88.9
49
25.4
74
0
49
-12.7
74
0
49
25.4
74
0
49
-12.7
74
0
49
0
74
0
49
-12.7
74
0
0
LTYPE
5
41
330
5
100
AcDbSymbolTableRecord
100
AcDbLinetypeTableRecord
2
CENTER
70
0
3
Center ____ _ ____ _ ____ _ ____ _ ____ _ ____
72
65
73
4
40
50.8
49
31.75
74
0
49
-6.35
74
0
49
6.35
74
0
49
-6.35
74
0
0
LTYPE
5
42
330
5
100
AcDbSymbolTableRecord
100
AcDbLinetypeTableRecord
2
CENTER2
70
0
3
Center (.5x) ___ _ ___ _ ___ _ ___ _ ___ _ ___
72
65
73
4
40
28.575
49
19.05
74
0
49
-3.175
74
0
49
3.175
74
0
49
-3.175
74
0
0
LTYPE
5
43
330
5
100
AcDbSymbolTableRecord
100
AcDbLinetypeTableRecord
2
CENTERX2
70
0
3
Center (2x) ________  __  ________  __  _____
72
65
73
4
40
101.6
49
63.5
74
0
49
-12.7
74
0
49
12.7
74
0
49
-12.7
74
0
0
ENDTAB
0
TABLE
2
LAYER
5
2
330
0
100
AcDbSymbolTable
70
1
0
LAYER
5
10
330
2
100
AcDbSymbolTableRecord
100
AcDbLayerTableRecord
2
0
70
4
62
7
6
CONTINUOUS
370
0
390
F
0
LAYER
5
44
330
2
100
AcDbSymbolTableRecord
100
AcDbLayerTableRecord
2
Body
70
4
62
216
420
8388736
6
CONTINUOUS
370
25
390
F
0
LAYER
5
45
330
2
100
AcDbSymbolTableRecord
100
AcDbLayerTableRecord
2
Pin
70
4
62
136
420
32896
6
CONTINUOUS
370
25
390
F
0
LAYER
5
46
330
2
100
AcDbSymbolTableRecord
100
AcDbLayerTableRecord
2
Spring
70
4
62
96
420
32768
6
CONTINUOUS
370
25
390
F
0
LAYER
5
47
330
2
100
AcDbSymbolTableRecord
100
AcDbLayerTableRecord
2
GrubScrew
70
4
62
176
420
128
6
CONTINUOUS
370
25
390
F
0
LAYER
5
48
330
2
100
AcDbSymbolTableRecord
100
AcDbLayerTableRecord
2
Dimensions
70
4
62
7
6
CONTINUOUS
370
25
390
F
0
ENDTAB
0
TABLE
2
STYLE
5
3
330
0
100
AcDbSymbolTable
70
3
0
STYLE
5
49
330
2
100
AcDbSymbolTableRecord
100
AcDbTextStyleTableRecord
2
Standard
70
0
40
0
41
1
50
0
71
0
42
1
3
txt
4

0
ENDTAB
0
TABLE
2
VIEW
5
6
330
0
100
AcDbSymbolTable
70
0
0
ENDTAB
0
TABLE
2
UCS
5
7
330
0
100
AcDbSymbolTable
70
0
0
ENDTAB
0
TABLE
2
APPID
5
9
330
0
100
AcDbSymbolTable
70
1
0
APPID
5
12
330
9
100
AcDbSymbolTableRecord
100
AcDbRegAppTableRecord
2
ACAD
70
0
0
ENDTAB
0
TABLE
2
DIMSTYLE
5
A
330
0
100
AcDbSymbolTable
70
1
100
AcDbDimStyleTable
71
1
0
DIMSTYLE
105
4A
330
A
100
AcDbSymbolTableRecord
100
AcDbDimStyleTableRecord
2
Standard
70
0
40
1
41
2.5
42
0.625
43
0.38
44
1.25
45
0
46
0
47
0
48
0
140
2.5
141
0.09
142
0
143
25.4
144
1
145
0
146
1
147
0.625
148
0
71
0
72
0
73
0
74
1
75
0
76
0
77
0
78
0
79
0
170
0
171
2
172
0
173
0
174
0
175
0
176
0
177
0
178
0
179
0
271
4
272
4
273
2
274
2
275
0
276
0
277
2
278
46
279
0
280
0
281
0
282
0
283
1
284
0
285
0
286
0
288
0
289
3
340
Standard
341

371
-2
372
-2
0
ENDTAB
0
TABLE
2
BLOCK_RECORD
5
1
330
0
100
AcDbSymbolTable
70
2
0
BLOCK_RECORD
5
1F
330
1
100
AcDbSymbolTableRecord
100
AcDbBlockTableRecord
2
*Model_Space
70
0
280
1
281
0
0
BLOCK_RECORD
5
1E
330
1
100
AcDbSymbolTableRecord
100
AcDbBlockTableRecord
2
*Paper_Space
70
0
280
1
281
0
0
BLOCK_RECORD
5
4B
330
1
100
AcDbSymbolTableRecord
100
AcDbBlockTableRecord
2
*D12
70
0
280
1
281
0
0
BLOCK_RECORD
5
4E
330
1
100
AcDbSymbolTableRecord
100
AcDbBlockTableRecord
2
*D8
70
0
280
1
281
0
0
BLOCK_RECORD
5
51
330
1
100
AcDbSymbolTableRecord
100
AcDbBlockTableRecord
2
*D10
70
0
280
1
281
0
0
BLOCK_RECORD
5
54
330
1
100
AcDbSymbolTableRecord
100
AcDbBlockTableRecord
2
*D17
70
0
280
1
281
0
0
BLOCK_RECORD
5
57
330
1
100
AcDbSymbolTableRecord
100
AcDbBlockTableRecord
2
*D13
70
0
280
1
281
0
0
BLOCK_RECORD
5
5A
330
1
100
AcDbSymbolTableRecord
100
AcDbBlockTableRecord
2
*D14
70
0
280
1
281
0
0
BLOCK_RECORD
5
5D
330
1
100
AcDbSymbolTableRecord
100
AcDbBlockTableRecord
2
*D19
70
0
280
1
281
0
0
BLOCK_RECORD
5
60
330
1
100
AcDbSymbolTableRecord
100
AcDbBlockTableRecord
2
*D5
70
0
280
1
281
0
0
BLOCK_RECORD
5
63
330
1
100
AcDbSymbolTableRecord
100
AcDbBlockTableRecord
2
*D7
70
0
280
1
281
0
0
BLOCK_RECORD
5
66
330
1
100
AcDbSymbolTableRecord
100
AcDbBlockTableRecord
2
*D9
70
0
280
1
281
0
0
BLOCK_RECORD
5
69
330
1
100
AcDbSymbolTableRecord
100
AcDbBlockTableRecord
2
*D22
70
0
280
1
281
0
0
BLOCK_RECORD
5
6C
330
1
100
AcDbSymbolTableRecord
100
AcDbBlockTableRecord
2
*D23
70
0
280
1
281
0
0
BLOCK_RECORD
5
6F
330
1
100
AcDbSymbolTableRecord
100
AcDbBlockTableRecord
2
*D2
70
0
280
1
281
0
0
BLOCK_RECORD
5
72
330
1
100
AcDbSymbolTableRecord
100
AcDbBlockTableRecord
2
*D6
70
0
280
1
281
0
0
BLOCK_RECORD
5
75
330
1
100
AcDbSymbolTableRecord
100
AcDbBlockTableRecord
2
*D16
70
0
280
1
281
0
0
BLOCK_RECORD
5
78
330
1
100
AcDbSymbolTableRecord
100
AcDbBlockTableRecord
2
*D11
70
0
280
1
281
0
0
BLOCK_RECORD
5
7B
330
1
100
AcDbSymbolTableRecord
100
AcDbBlockTableRecord
2
*D4
70
0
280
1
281
0
0
BLOCK_RECORD
5
7E
330
1
100
AcDbSymbolTableRecord
100
AcDbBlockTableRecord
2
*D21
70
0
280
1
281
0
0
BLOCK_RECORD
5
81
330
1
100
AcDbSymbolTableRecord
100
AcDbBlockTableRecord
2
*D3
70
0
280
1
281
0
0
BLOCK_RECORD
5
84
330
1
100
AcDbSymbolTableRecord
100
AcDbBlockTableRecord
2
*D15
70
0
280
1
281
0
0
BLOCK_RECORD
5
87
330
1
100
AcDbSymbolTableRecord
100
AcDbBlockTableRecord
2
*D18
70
0
280
1
281
0
0
BLOCK_RECORD
5
8A
330
1
100
AcDbSymbolTableRecord
100
AcDbBlockTableRecord
2
*D24
70
0
280
1
281
0
0
BLOCK_RECORD
5
8D
330
1
100
AcDbSymbolTableRecord
100
AcDbBlockTableRecord
2
*D1
70
0
280
1
281
0
0
BLOCK_RECORD
5
90
330
1
100
AcDbSymbolTableRecord
100
AcDbBlockTableRecord
2
*D20
70
0
280
1
281
0
0
ENDTAB
0
ENDSEC
0
SECTION
2
BLOCKS
0
BLOCK
5
20
330
1F
100
AcDbEntity
8
0
100
AcDbBlockBegin
2
*Model_Space
70
0
10
0
20
0
30
0
3
*Model_Space
1

0
ENDBLK
5
21
330
1F
100
AcDbEntity
8
0
100
AcDbBlockEnd
0
BLOCK
5
1C
330
1B
100
AcDbEntity
8
0
100
AcDbBlockBegin
2
*Paper_Space
70
0
10
0
20
0
30
0
3
*Paper_Space
1

0
ENDBLK
5
1D
330
1F
100
AcDbEntity
8
0
100
AcDbBlockEnd
0
BLOCK
5
4C
330
4B
100
AcDbEntity
8
0
100
AcDbBlockBegin
2
*D12
70
1
10
0
20
0
3
*D12
1

0
LINE
5
93
100
AcDbEntity
8
Dimensions
6
CONTINUOUS
62
7
370
0
100
AcDbLine
10
70
20
105
11
70
21
120
0
SOLID
5
94
100
AcDbEntity
8
Dimensions
6
CONTINUOUS
62
7
370
0
100
AcDbTrace
10
70
20
110
30
0
11
70.4162846578
21
107.5
31
0
12
69.5837153422
22
107.5
32
0
13
69.5837153422
23
107.5
33
0
0
SOLID
5
95
100
AcDbEntity
8
Dimensions
6
CONTINUOUS
62
7
370
0
100
AcDbTrace
10
70
20
115
30
0
11
69.5837153422
21
117.5
31
0
12
70.4162846578
22
117.5
32
0
13
70.4162846578
23
117.5
33
0
0
MTEXT
5
96
100
AcDbEntity
8
Dimensions
6
CONTINUOUS
62
7
370
0
100
AcDbMText
10
68.125
20
112.5
30
0
40
2.5
41
1.11111111111
71
5
72
1
1
5
7
standard
210
0
220
0
230
1
50
90
73
2
44
1
0
LINE
5
97
100
AcDbEntity
8
Dimensions
6
CONTINUOUS
62
7
370
0
100
AcDbLine
10
79.375
20
110
11
68.75
21
110
0
LINE
5
98
100
AcDbEntity
8
Dimensions
6
CONTINUOUS
62
7
370
0
100
AcDbLine
10
79.375
20
115
11
68.75
21
115
0
ENDBLK
5
4D
330
4B
100
AcDbEntity
8
0
100
AcDbBlockEnd
0
BLOCK
5
4F
330
4E
100
AcDbEntity
8
0
100
AcDbBlockBegin
2
*D8
70
1
10
0
20
0
3
*D8
1

0
LINE
5
99
100
AcDbEntity
8
Dimensions
6
CONTINUOUS
62
7
370
0
100
AcDbLine
10
70
20
80
11
70
21
95
0
SOLID
5
9A
100
AcDbEntity
8
Dimensions
6
CONTINUOUS
62
7
370
0
100
AcDbTrace
10
70
20
85
30
0
11
70.4162846578
21
82.5
31
0
12
69.5837153422
22
82.5
32
0
13
69.5837153422
23
82.5
33
0
0
SOLID
5
9B
100
AcDbEntity
8
Dimensions
6
CONTINUOUS
62
7
370
0
100
AcDbTrace
10
70
20
90
30
0
11
69.5837153422
21
92.5
31
0
12
70.4162846578
22
92.5
32
0
13
70.4162846578
23
92.5
33
0
0
MTEXT
5
9C
100
AcDbEntity
8
Dimensions
6
CONTINUOUS
62
7
370
0
100
AcDbMText
10
68.125
20
87.5
30
0
40
2.5
41
1.11111111111
71
5
72
1
1
5
7
standard
210
0
220
0
230
1
50
90
73
2
44
1
0
LINE
5
9D
100
AcDbEntity
8
Dimensions
6
CONTINUOUS
62
7
370
0
100
AcDbLine
10
79.375
20
85
11
68.75
21
85
0
LINE
5
9E
100
AcDbEntity
8
Dimensions
6
CONTINUOUS
62
7
370
0
100
AcDbLine
10
79.375
20
90
11
68.75
21
90
0
ENDBLK
5
50
330
4E
100
AcDbEntity
8
0
100
AcDbBlockEnd
0
BLOCK
5
52
330
51
100
AcDbEntity
8
0
100
AcDbBlockBegin
2
*D10
70
1
10
0
20
0
3
*D10
1

0
LINE
5
9F
100
AcDbEntity
8
Dimensions
6
CONTINUOUS
62
7
370
0
100
AcDbLine
10
70
20
92
11
70
21
108
0
SOLID
5
A0
100
AcDbEntity
8
Dimensions
6
CONTINUOUS
62
7
370
0
100
AcDbTrace
10
70
20
92
30
0
11
69.5837153422
21
94.5
31
0
12
70.4162846578
22
94.5
32
0
13
70.4162846578
23
94.5
33
0
0
SOLID
5
A1
100
AcDbEntity
8
Dimensions
6
CONTINUOUS
62
7
370
0
100
AcDbTrace
10
70
20
108
30
0
11
70.4162846578
21
105.5
31
0
12
69.5837153422
22
105.5
32
0
13
69.5837153422
23
105.5
33
0
0
MTEXT
5
A2
100
AcDbEntity
8
Dimensions
6
CONTINUOUS
62
7
370
0
100
AcDbMText
10
68.125
20
100
30
0
40
2.5
41
2.5
71
5
72
1
1
16
7
standard
210
0
220
0
230
1
50
90
73
2
44
1
0
LINE
5
A3
100
AcDbEntity
8
Dimensions
6
CONTINUOUS
62
7
370
0
100
AcDbLine
10
79.375
20
92
11
68.75
21
92
0
LINE
5
A4
100
AcDbEntity
8
Dimensions
6
CONTINUOUS
62
7
370
0
100
AcDbLine
10
79.375
20
108
11
68.75
21
108
0
ENDBLK
5
53
330
51
100
AcDbEntity
8
0
100
AcDbBlockEnd
0
BLOCK
5
55
330
54
100
AcDbEntity
8
0
100
AcDbBlockBegin
2
*D17
70
1
10
0
20
0
3
*D17
1

0
LINE
5
A5
100
AcDbEntity
8
Dimensions
6
CONTINUOUS
62
7
370
0
100
AcDbLine
10
210
20
105
11
210
21
120
0
SOLID
5
A6
100
AcDbEntity
8
Dimensions
6
CONTINUOUS
62
7
370
0
100
AcDbTrace
10
210
20
110
30
0
11
210.416284658
21
107.5
31
0
12
209.583715342
22
107.5
32
0
13
209.583715342
23
107.5
33
0
0
SOLID
5
A7
100
AcDbEntity
8
Dimensions
6
CONTINUOUS
62
7
370
0
100
AcDbTrace
10
210
20
115
30
0
11
209.583715342
21
117.5
31
0
12
210.416284658
22
117.5
32
0
13
210.416284658
23
117.5
33
0
0
MTEXT
5
A8
100
AcDbEntity
8
Dimensions
6
CONTINUOUS
62
7
370
0
100
AcDbMText
10
208.125
20
112.5
30
0
40
2.5
41
1.11111111111
71
5
72
1
1
5
7
standard
210
0
220
0
230
1
50
90
73
2
44
1
0
LINE
5
A9
100
AcDbEntity
8
Dimensions
6
CONTINUOUS
62
7
370
0
100
AcDbLine
10
200.625
20
110
11
211.25
21
110
0
LINE
5
AA
100
AcDbEntity
8
Dimensions
6
CONTINUOUS
62
7
370
0
100
AcDbLine
10
200.625
20
115
11
211.25
21
115
0
ENDBLK
5
56
330
54
100
AcDbEntity
8
0
100
AcDbBlockEnd
0
BLOCK
5
58
330
57
100
AcDbEntity
8
0
100
AcDbBlockBegin
2
*D13
70
1
10
0
20
0
3
*D13
1

0
LINE
5
AB
100
AcDbEntity
8
Dimensions
6
CONTINUOUS
62
7
370
0
100
AcDbLine
10
210
20
80
11
210
21
95
0
SOLID
5
AC
100
AcDbEntity
8
Dimensions
6
CONTINUOUS
62
7
370
0
100
AcDbTrace
10
210
20
85
30
0
11
210.416284658
21
82.5
31
0
12
209.583715342
22
82.5
32
0
13
209.583715342
23
82.5
33
0
0
SOLID
5
AD
100
AcDbEntity
8
Dimensions
6
CONTINUOUS
62
7
370
0
100
AcDbTrace
10
210
20
90
30
0
11
209.583715342
21
92.5
31
0
12
210.416284658
22
92.5
32
0
13
210.416284658
23
92.5
33
0
0
MTEXT
5
AE
100
AcDbEntity
8
Dimensions
6
CONTINUOUS
62
7
370
0
100
AcDbMText
10
208.125
20
87.5
30
0
40
2.5
41
1.11111111111
71
5
72
1
1
5
7
standard
210
0
220
0
230
1
50
90
73
2
44
1
0
LINE
5
AF
100
AcDbEntity
8
Dimensions
6
CONTINUOUS
62
7
370
0
100
AcDbLine
10
200.625
20
85
11
211.25
21
85
0
LINE
5
B0
100
AcDbEntity
8
Dimensions
6
CONTINUOUS
62
7
370
0
100
AcDbLine
10
200.625
20
90
11
211.25
21
90
0
ENDBLK
5
59
330
57
100
AcDbEntity
8
0
100
AcDbBlockEnd
0
BLOCK
5
5B
330
5A
100
AcDbEntity
8
0
100
AcDbBlockBegin
2
*D14
70
1
10
0
20
0
3
*D14
1

0
LINE
5
B1
100
AcDbEntity
8
Dimensions
6
CONTINUOUS
62
7
370
0
100
AcDbLine
10
210
20
90
11
210
21
97
0
SOLID
5
B2
100
AcDbEntity
8
Dimensions
6
CONTINUOUS
62
7
370
0
100
AcDbTrace
10
210
20
90
30
0
11
209.583715342
21
92.5
31
0
12
210.416284658
22
92.5
32
0
13
210.416284658
23
92.5
33
0
0
SOLID
5
B3
100
AcDbEntity
8
Dimensions
6
CONTINUOUS
62
7
370
0
100
AcDbTrace
10
210
20
97
30
0
11
210.416284658
21
94.5
31
0
12
209.583715342
22
94.5
32
0
13
209.583715342
23
94.5
33
0
0
MTEXT
5
B4
100
AcDbEntity
8
Dimensions
6
CONTINUOUS
62
7
370
0
100
AcDbMText
10
208.125
20
93.5
30
0
40
2.5
41
1.11111111111
71
5
72
1
1
7
7
standard
210
0
220
0
230
1
50
90
73
2
44
1
0
LINE
5
B5
100
AcDbEntity
8
Dimensions
6
CONTINUOUS
62
7
370
0
100
AcDbLine
10
200.625
20
90
11
211.25
21
90
0
LINE
5
B6
100
AcDbEntity
8
Dimensions
6
CONTINUOUS
62
7
370
0
100
AcDbLine
10
200.625
20
97
11
211.25
21
97
0
ENDBLK
5
5C
330
5A
100
AcDbEntity
8
0
100
AcDbBlockEnd
0
BLOCK
5
5E
330
5D
100
AcDbEntity
8
0
100
AcDbBlockBegin
2
*D19
70
1
10
0
20
0
3
*D19
1

0
LINE
5
B7
100
AcDbEntity
8
Dimensions
6
CONTINUOUS
62
7
370
0
100
AcDbLine
10
204
20
140
11
190
21
140
0
SOLID
5
B8
100
AcDbEntity
8
Dimensions
6
CONTINUOUS
62
7
370
0
100
AcDbTrace
10
199
20
140
30
0
11
201.5
21
140.416284658
31
0
12
201.5
22
139.583715342
32
0
13
201.5
23
139.583715342
33
0
0
SOLID
5
B9
100
AcDbEntity
8
Dimensions
6
CONTINUOUS
62
7
370
0
100
AcDbTrace
10
195
20
140
30
0
11
192.5
21
139.583715342
31
0
12
192.5
22
140.416284658
32
0
13
192.5
23
140.416284658
33
0
0
MTEXT
5
BA
100
AcDbEntity
8
Dimensions
6
CONTINUOUS
62
7
370
0
100
AcDbMText
10
197
20
141.875
30
0
40
2.5
41
1.38888888889
71
5
72
1
1
4
7
standard
210
0
220
0
230
1
50
360
73
2
44
1
0
LINE
5
BB
100
AcDbEntity
8
Dimensions
6
CONTINUOUS
62
7
370
0
100
AcDbLine
10
199
20
130.625
11
199
21
141.25
0
LINE
5
BC
100
AcDbEntity
8
Dimensions
6
CONTINUOUS
62
7
370
0
100
AcDbLine
10
195
20
130.625
11
195
21
141.25
0
ENDBLK
5
5F
330
5D
100
AcDbEntity
8
0
100
AcDbBlockEnd
0
BLOCK
5
61
330
60
100
AcDbEntity
8
0
100
AcDbBlockBegin
2
*D5
70
1
10
0
20
0
3
*D5
1

0
LINE
5
BD
100
AcDbEntity
8
Dimensions
6
CONTINUOUS
62
7
370
0
100
AcDbLine
10
166
20
70
11
179
21
70
0
SOLID
5
BE
100
AcDbEntity
8
Dimensions
6
CONTINUOUS
62
7
370
0
100
AcDbTrace
10
171
20
70
30
0
11
168.5
21
69.5837153422
31
0
12
168.5
22
70.4162846578
32
0
13
168.5
23
70.4162846578
33
0
0
SOLID
5
BF
100
AcDbEntity
8
Dimensions
6
CONTINUOUS
62
7
370
0
100
AcDbTrace
10
174
20
70
30
0
11
176.5
21
70.4162846578
31
0
12
176.5
22
69.5837153422
32
0
13
176.5
23
69.5837153422
33
0
0
MTEXT
5
C0
100
AcDbEntity
8
Dimensions
6
CONTINUOUS
62
7
370
0
100
AcDbMText
10
172.5
20
71.875
30
0
40
2.5
41
1.11111111111
71
5
72
1
1
3
7
standard
210
0
220
0
230
1
50
0
73
2
44
1
0
LINE
5
C1
100
AcDbEntity
8
Dimensions
6
CONTINUOUS
62
7
370
0
100
AcDbLine
10
171
20
79.375
11
171
21
68.75
0
LINE
5
C2
100
AcDbEntity
8
Dimensions
6
CONTINUOUS
62
7
370
0
100
AcDbLine
10
174
20
79.375
11
174
21
68.75
0
ENDBLK
5
62
330
60
100
AcDbEntity
8
0
100
AcDbBlockEnd
0
BLOCK
5
64
330
63
100
AcDbEntity
8
0
100
AcDbBlockBegin
2
*D7
70
1
10
0
20
0
3
*D7
1

0
LINE
5
C3
100
AcDbEntity
8
Dimensions
6
CONTINUOUS
62
7
370
0
100
AcDbLine
10
185
20
70
11
199
21
70
0
SOLID
5
C4
100
AcDbEntity
8
Dimensions
6
CONTINUOUS
62
7
370
0
100
AcDbTrace
10
190
20
70
30
0
11
187.5
21
69.5837153422
31
0
12
187.5
22
70.4162846578
32
0
13
187.5
23
70.4162846578
33
0
0
SOLID
5
C5
100
AcDbEntity
8
Dimensions
6
CONTINUOUS
62
7
370
0
100
AcDbTrace
10
194
20
70
30
0
11
196.5
21
70.4162846578
31
0
12
196.5
22
69.5837153422
32
0
13
196.5
23
69.5837153422
33
0
0
MTEXT
5
C6
100
AcDbEntity
8
Dimensions
6
CONTINUOUS
62
7
370
0
100
AcDbMText
10
192
20
71.875
30
0
40
2.5
41
1.38888888889
71
5
72
1
1
4
7
standard
210
0
220
0
230
1
50
0
73
2
44
1
0
LINE
5
C7
100
AcDbEntity
8
Dimensions
6
CONTINUOUS
62
7
370
0
100
AcDbLine
10
190
20
79.375
11
190
21
68.75
0
LINE
5
C8
100
AcDbEntity
8
Dimensions
6
CONTINUOUS
62
7
370
0
100
AcDbLine
10
194
20
79.375
11
194
21
68.75
0
ENDBLK
5
65
330
63
100
AcDbEntity
8
0
100
AcDbBlockEnd
0
BLOCK
5
67
330
66
100
AcDbEntity
8
0
100
AcDbBlockBegin
2
*D9
70
1
10
0
20
0
3
*D9
1

0
LINE
5
C9
100
AcDbEntity
8
Dimensions
6
CONTINUOUS
62
7
370
0
100
AcDbLine
10
70
20
85
11
70
21
97
0
SOLID
5
CA
100
AcDbEntity
8
Dimensions
6
CONTINUOUS
62
7
370
0
100
AcDbTrace
10
70
20
90
30
0
11
70.4162846578
21
87.5
31
0
12
69.5837153422
22
87.5
32
0
13
69.5837153422
23
87.5
33
0
0
SOLID
5
CB
100
AcDbEntity
8
Dimensions
6
CONTINUOUS
62
7
370
0
100
AcDbTrace
10
70
20
92
30
0
11
69.5837153422
21
94.5
31
0
12
70.4162846578
22
94.5
32
0
13
70.4162846578
23
94.5
33
0
0
MTEXT
5
CC
100
AcDbEntity
8
Dimensions
6
CONTINUOUS
62
7
370
0
100
AcDbMText
10
68.125
20
91
30
0
40
2.5
41
1.11111111111
71
5
72
1
1
2
7
standard
210
0
220
0
230
1
50
90
73
2
44
1
0
LINE
5
CD
100
AcDbEntity
8
Dimensions
6
CONTINUOUS
62
7
370
0
100
AcDbLine
10
79.375
20
90
11
68.75
21
90
0
LINE
5
CE
100
AcDbEntity
8
Dimensions
6
CONTINUOUS
62
7
370
0
100
AcDbLine
10
78.375
20
92
11
68.75
21
92
0
ENDBLK
5
68
330
66
100
AcDbEntity
8
0
100
AcDbBlockEnd
0
BLOCK
5
6A
330
69
100
AcDbEntity
8
0
100
AcDbBlockBegin
2
*D22
70
1
10
0
20
0
3
*D22
1

0
LINE
5
CF
100
AcDbEntity
8
Dimensions
6
CONTINUOUS
62
7
370
0
100
AcDbLine
10
176
20
140
11
161
21
140
0
SOLID
5
D0
100
AcDbEntity
8
Dimensions
6
CONTINUOUS
62
7
370
0
100
AcDbTrace
10
171
20
140
30
0
11
173.5
21
140.416284658
31
0
12
173.5
22
139.583715342
32
0
13
173.5
23
139.583715342
33
0
0
SOLID
5
D1
100
AcDbEntity
8
Dimensions
6
CONTINUOUS
62
7
370
0
100
AcDbTrace
10
166
20
140
30
0
11
163.5
21
139.583715342
31
0
12
163.5
22
140.416284658
32
0
13
163.5
23
140.416284658
33
0
0
MTEXT
5
D2
100
AcDbEntity
8
Dimensions
6
CONTINUOUS
62
7
370
0
100
AcDbMText
10
168.5
20
141.875
30
0
40
2.5
41
1.11111111111
71
5
72
1
1
5
7
standard
210
0
220
0
230
1
50
360
73
2
44
1
0
LINE
5
D3
100
AcDbEntity
8
Dimensions
6
CONTINUOUS
62
7
370
0
100
AcDbLine
10
171
20
130.625
11
171
21
141.25
0
LINE
5
D4
100
AcDbEntity
8
Dimensions
6
CONTINUOUS
62
7
370
0
100
AcDbLine
10
166
20
130.625
11
166
21
141.25
0
ENDBLK
5
6B
330
69
100
AcDbEntity
8
0
100
AcDbBlockEnd
0
BLOCK
5
6D
330
6C
100
AcDbEntity
8
0
100
AcDbBlockBegin
2
*D23
70
1
10
0
20
0
3
*D23
1

0
LINE
5
D5
100
AcDbEntity
8
Dimensions
6
CONTINUOUS
62
7
370
0
100
AcDbLine
10
171
20
140
11
159
21
140
0
SOLID
5
D6
100
AcDbEntity
8
Dimensions
6
CONTINUOUS
62
7
370
0
100
AcDbTrace
10
166
20
140
30
0
11
168.5
21
140.416284658
31
0
12
168.5
22
139.583715342
32
0
13
168.5
23
139.583715342
33
0
0
SOLID
5
D7
100
AcDbEntity
8
Dimensions
6
CONTINUOUS
62
7
370
0
100
AcDbTrace
10
164
20
140
30
0
11
161.5
21
139.583715342
31
0
12
161.5
22
140.416284658
32
0
13
161.5
23
140.416284658
33
0
0
MTEXT
5
D8
100
AcDbEntity
8
Dimensions
6
CONTINUOUS
62
7
370
0
100
AcDbMText
10
165
20
141.875
30
0
40
2.5
41
1.11111111111
71
5
72
1
1
2
7
standard
210
0
220
0
230
1
50
360
73
2
44
1
0
LINE
5
D9
100
AcDbEntity
8
Dimensions
6
CONTINUOUS
62
7
370
0
100
AcDbLine
10
166
20
130.625
11
166
21
141.25
0
LINE
5
DA
100
AcDbEntity
8
Dimensions
6
CONTINUOUS
62
7
370
0
100
AcDbLine
10
164
20
130.625
11
164
21
141.25
0
ENDBLK
5
6E
330
6C
100
AcDbEntity
8
0
100
AcDbBlockEnd
0
BLOCK
5
70
330
6F
100
AcDbEntity
8
0
100
AcDbBlockBegin
2
*D2
70
1
10
0
20
0
3
*D2
1

0
LINE
5
DB
100
AcDbEntity
8
Dimensions
6
CONTINUOUS
62
7
370
0
100
AcDbLine
10
93
20
70
11
105
21
70
0
SOLID
5
DC
100
AcDbEntity
8
Dimensions
6
CONTINUOUS
62
7
370
0
100
AcDbTrace
10
98
20
70
30
0
11
95.5
21
69.5837153422
31
0
12
95.5
22
70.4162846578
32
0
13
95.5
23
70.4162846578
33
0
0
SOLID
5
DD
100
AcDbEntity
8
Dimensions
6
CONTINUOUS
62
7
370
0
100
AcDbTrace
10
100
20
70
30
0
11
102.5
21
70.4162846578
31
0
12
102.5
22
69.5837153422
32
0
13
102.5
23
69.5837153422
33
0
0
MTEXT
5
DE
100
AcDbEntity
8
Dimensions
6
CONTINUOUS
62
7
370
0
100
AcDbMText
10
99
20
71.875
30
0
40
2.5
41
1.11111111111
71
5
72
1
1
2
7
standard
210
0
220
0
230
1
50
0
73
2
44
1
0
LINE
5
DF
100
AcDbEntity
8
Dimensions
6
CONTINUOUS
62
7
370
0
100
AcDbLine
10
98
20
79.375
11
98
21
68.75
0
LINE
5
E0
100
AcDbEntity
8
Dimensions
6
CONTINUOUS
62
7
370
0
100
AcDbLine
10
100
20
79.375
11
100
21
68.75
0
ENDBLK
5
71
330
6F
100
AcDbEntity
8
0
100
AcDbBlockEnd
0
BLOCK
5
73
330
72
100
AcDbEntity
8
0
100
AcDbBlockBegin
2
*D6
70
1
10
0
20
0
3
*D6
1

0
LINE
5
E1
100
AcDbEntity
8
Dimensions
6
CONTINUOUS
62
7
370
0
100
AcDbLine
10
174
20
70
11
190
21
70
0
SOLID
5
E2
100
AcDbEntity
8
Dimensions
6
CONTINUOUS
62
7
370
0
100
AcDbTrace
10
174
20
70
30
0
11
176.5
21
70.4162846578
31
0
12
176.5
22
69.5837153422
32
0
13
176.5
23
69.5837153422
33
0
0
SOLID
5
E3
100
AcDbEntity
8
Dimensions
6
CONTINUOUS
62
7
370
0
100
AcDbTrace
10
190
20
70
30
0
11
187.5
21
69.5837153422
31
0
12
187.5
22
70.4162846578
32
0
13
187.5
23
70.4162846578
33
0
0
MTEXT
5
E4
100
AcDbEntity
8
Dimensions
6
CONTINUOUS
62
7
370
0
100
AcDbMText
10
182
20
71.875
30
0
40
2.5
41
2.5
71
5
72
1
1
16
7
standard
210
0
220
0
230
1
50
0
73
2
44
1
0
LINE
5
E5
100
AcDbEntity
8
Dimensions
6
CONTINUOUS
62
7
370
0
100
AcDbLine
10
174
20
79.375
11
174
21
68.75
0
LINE
5
E6
100
AcDbEntity
8
Dimensions
6
CONTINUOUS
62
7
370
0
100
AcDbLine
10
190
20
79.375
11
190
21
68.75
0
ENDBLK
5
74
330
72
100
AcDbEntity
8
0
100
AcDbBlockEnd
0
BLOCK
5
76
330
75
100
AcDbEntity
8
0
100
AcDbBlockBegin
2
*D16
70
1
10
0
20
0
3
*D16
1

0
LINE
5
E7
100
AcDbEntity
8
Dimensions
6
CONTINUOUS
62
7
370
0
100
AcDbLine
10
210
20
103
11
210
21
110
0
SOLID
5
E8
100
AcDbEntity
8
Dimensions
6
CONTINUOUS
62
7
370
0
100
AcDbTrace
10
210
20
103
30
0
11
209.583715342
21
105.5
31
0
12
210.416284658
22
105.5
32
0
13
210.416284658
23
105.5
33
0
0
SOLID
5
E9
100
AcDbEntity
8
Dimensions
6
CONTINUOUS
62
7
370
0
100
AcDbTrace
10
210
20
110
30
0
11
210.416284658
21
107.5
31
0
12
209.583715342
22
107.5
32
0
13
209.583715342
23
107.5
33
0
0
MTEXT
5
EA
100
AcDbEntity
8
Dimensions
6
CONTINUOUS
62
7
370
0
100
AcDbMText
10
208.125
20
106.5
30
0
40
2.5
41
1.11111111111
71
5
72
1
1
7
7
standard
210
0
220
0
230
1
50
90
73
2
44
1
0
LINE
5
EB
100
AcDbEntity
8
Dimensions
6
CONTINUOUS
62
7
370
0
100
AcDbLine
10
200.625
20
103
11
211.25
21
103
0
LINE
5
EC
100
AcDbEntity
8
Dimensions
6
CONTINUOUS
62
7
370
0
100
AcDbLine
10
200.625
20
110
11
211.25
21
110
0
ENDBLK
5
77
330
75
100
AcDbEntity
8
0
100
AcDbBlockEnd
0
BLOCK
5
79
330
78
100
AcDbEntity
8
0
100
AcDbBlockBegin
2
*D11
70
1
10
0
20
0
3
*D11
1

0
LINE
5
ED
100
AcDbEntity
8
Dimensions
6
CONTINUOUS
62
7
370
0
100
AcDbLine
10
70
20
103
11
70
21
115
0
SOLID
5
EE
100
AcDbEntity
8
Dimensions
6
CONTINUOUS
62
7
370
0
100
AcDbTrace
10
70
20
108
30
0
11
70.4162846578
21
105.5
31
0
12
69.5837153422
22
105.5
32
0
13
69.5837153422
23
105.5
33
0
0
SOLID
5
EF
100
AcDbEntity
8
Dimensions
6
CONTINUOUS
62
7
370
0
100
AcDbTrace
10
70
20
110
30
0
11
69.5837153422
21
112.5
31
0
12
70.4162846578
22
112.5
32
0
13
70.4162846578
23
112.5
33
0
0
MTEXT
5
F0
100
AcDbEntity
8
Dimensions
6
CONTINUOUS
62
7
370
0
100
AcDbMText
10
68.125
20
109
30
0
40
2.5
41
1.11111111111
71
5
72
1
1
2
7
standard
210
0
220
0
230
1
50
90
73
2
44
1
0
LINE
5
F1
100
AcDbEntity
8
Dimensions
6
CONTINUOUS
62
7
370
0
100
AcDbLine
10
79.375
20
108
11
68.75
21
108
0
LINE
5
F2
100
AcDbEntity
8
Dimensions
6
CONTINUOUS
62
7
370
0
100
AcDbLine
10
79.375
20
110
11
68.75
21
110
0
ENDBLK
5
7A
330
78
100
AcDbEntity
8
0
100
AcDbBlockEnd
0
BLOCK
5
7C
330
7B
100
AcDbEntity
8
0
100
AcDbBlockBegin
2
*D4
70
1
10
0
20
0
3
*D4
1

0
LINE
5
F3
100
AcDbEntity
8
Dimensions
6
CONTINUOUS
62
7
370
0
100
AcDbLine
10
165
20
70
11
176
21
70
0
SOLID
5
F4
100
AcDbEntity
8
Dimensions
6
CONTINUOUS
62
7
370
0
100
AcDbTrace
10
170
20
70
30
0
11
167.5
21
69.5837153422
31
0
12
167.5
22
70.4162846578
32
0
13
167.5
23
70.4162846578
33
0
0
SOLID
5
F5
100
AcDbEntity
8
Dimensions
6
CONTINUOUS
62
7
370
0
100
AcDbTrace
10
171
20
70
30
0
11
173.5
21
70.4162846578
31
0
12
173.5
22
69.5837153422
32
0
13
173.5
23
69.5837153422
33
0
0
MTEXT
5
F6
100
AcDbEntity
8
Dimensions
6
CONTINUOUS
62
7
370
0
100
AcDbMText
10
170.5
20
71.875
30
0
40
2.5
41
0.555555555556
71
5
72
1
1
1
7
standard
210
0
220
0
230
1
50
0
73
2
44
1
0
LINE
5
F7
100
AcDbEntity
8
Dimensions
6
CONTINUOUS
62
7
370
0
100
AcDbLine
10
170
20
79.375
11
170
21
68.75
0
LINE
5
F8
100
AcDbEntity
8
Dimensions
6
CONTINUOUS
62
7
370
0
100
AcDbLine
10
171
20
79.375
11
171
21
68.75
0
ENDBLK
5
7D
330
7B
100
AcDbEntity
8
0
100
AcDbBlockEnd
0
BLOCK
5
7F
330
7E
100
AcDbEntity
8
0
100
AcDbBlockBegin
2
*D21
70
1
10
0
20
0
3
*D21
1

0
LINE
5
F9
100
AcDbEntity
8
Dimensions
6
CONTINUOUS
62
7
370
0
100
AcDbLine
10
182
20
140
11
171
21
140
0
SOLID
5
FA
100
AcDbEntity
8
Dimensions
6
CONTINUOUS
62
7
370
0
100
AcDbTrace
10
182
20
140
30
0
11
179.5
21
139.583715342
31
0
12
179.5
22
140.416284658
32
0
13
179.5
23
140.416284658
33
0
0
SOLID
5
FB
100
AcDbEntity
8
Dimensions
6
CONTINUOUS
62
7
370
0
100
AcDbTrace
10
171
20
140
30
0
11
173.5
21
140.416284658
31
0
12
173.5
22
139.583715342
32
0
13
173.5
23
139.583715342
33
0
0
MTEXT
5
FC
100
AcDbEntity
8
Dimensions
6
CONTINUOUS
62
7
370
0
100
AcDbMText
10
176.5
20
141.875
30
0
40
2.5
41
1.94444444444
71
5
72
1
1
11
7
standard
210
0
220
0
230
1
50
360
73
2
44
1
0
LINE
5
FD
100
AcDbEntity
8
Dimensions
6
CONTINUOUS
62
7
370
0
100
AcDbLine
10
182
20
130.625
11
182
21
141.25
0
LINE
5
FE
100
AcDbEntity
8
Dimensions
6
CONTINUOUS
62
7
370
0
100
AcDbLine
10
171
20
130.625
11
171
21
141.25
0
ENDBLK
5
80
330
7E
100
AcDbEntity
8
0
100
AcDbBlockEnd
0
BLOCK
5
82
330
81
100
AcDbEntity
8
0
100
AcDbBlockBegin
2
*D3
70
1
10
0
20
0
3
*D3
1

0
LINE
5
FF
100
AcDbEntity
8
Dimensions
6
CONTINUOUS
62
7
370
0
100
AcDbLine
10
100
20
70
11
170
21
70
0
SOLID
5
100
100
AcDbEntity
8
Dimensions
6
CONTINUOUS
62
7
370
0
100
AcDbTrace
10
100
20
70
30
0
11
102.5
21
70.4162846578
31
0
12
102.5
22
69.5837153422
32
0
13
102.5
23
69.5837153422
33
0
0
SOLID
5
101
100
AcDbEntity
8
Dimensions
6
CONTINUOUS
62
7
370
0
100
AcDbTrace
10
170
20
70
30
0
11
167.5
21
69.5837153422
31
0
12
167.5
22
70.4162846578
32
0
13
167.5
23
70.4162846578
33
0
0
MTEXT
5
102
100
AcDbEntity
8
Dimensions
6
CONTINUOUS
62
7
370
0
100
AcDbMText
10
135
20
71.875
30
0
40
2.5
41
3.05555555556
71
5
72
1
1
70
7
standard
210
0
220
0
230
1
50
0
73
2
44
1
0
LINE
5
103
100
AcDbEntity
8
Dimensions
6
CONTINUOUS
62
7
370
0
100
AcDbLine
10
100
20
79.375
11
100
21
68.75
0
LINE
5
104
100
AcDbEntity
8
Dimensions
6
CONTINUOUS
62
7
370
0
100
AcDbLine
10
170
20
79.375
11
170
21
68.75
0
ENDBLK
5
83
330
81
100
AcDbEntity
8
0
100
AcDbBlockEnd
0
BLOCK
5
85
330
84
100
AcDbEntity
8
0
100
AcDbBlockBegin
2
*D15
70
1
10
0
20
0
3
*D15
1

0
LINE
5
105
100
AcDbEntity
8
Dimensions
6
CONTINUOUS
62
7
370
0
100
AcDbLine
10
210
20
92
11
210
21
108
0
SOLID
5
106
100
AcDbEntity
8
Dimensions
6
CONTINUOUS
62
7
370
0
100
AcDbTrace
10
210
20
97
30
0
11
210.416284658
21
94.5
31
0
12
209.583715342
22
94.5
32
0
13
209.583715342
23
94.5
33
0
0
SOLID
5
107
100
AcDbEntity
8
Dimensions
6
CONTINUOUS
62
7
370
0
100
AcDbTrace
10
210
20
103
30
0
11
209.583715342
21
105.5
31
0
12
210.416284658
22
105.5
32
0
13
210.416284658
23
105.5
33
0
0
MTEXT
5
108
100
AcDbEntity
8
Dimensions
6
CONTINUOUS
62
7
370
0
100
AcDbMText
10
208.125
20
100
30
0
40
2.5
41
1.11111111111
71
5
72
1
1
6
7
standard
210
0
220
0
230
1
50
90
73
2
44
1
0
LINE
5
109
100
AcDbEntity
8
Dimensions
6
CONTINUOUS
62
7
370
0
100
AcDbLine
10
200.625
20
97
11
211.25
21
97
0
LINE
5
10A
100
AcDbEntity
8
Dimensions
6
CONTINUOUS
62
7
370
0
100
AcDbLine
10
200.625
20
103
11
211.25
21
103
0
ENDBLK
5
86
330
84
100
AcDbEntity
8
0
100
AcDbBlockEnd
0
BLOCK
5
88
330
87
100
AcDbEntity
8
0
100
AcDbBlockBegin
2
*D18
70
1
10
0
20
0
3
*D18
1

0
LINE
5
10B
100
AcDbEntity
8
Dimensions
6
CONTINUOUS
62
7
370
0
100
AcDbLine
10
187
20
120
11
173
21
120
0
SOLID
5
10C
100
AcDbEntity
8
Dimensions
6
CONTINUOUS
62
7
370
0
100
AcDbTrace
10
182
20
120
30
0
11
184.5
21
120.416284658
31
0
12
184.5
22
119.583715342
32
0
13
184.5
23
119.583715342
33
0
0
SOLID
5
10D
100
AcDbEntity
8
Dimensions
6
CONTINUOUS
62
7
370
0
100
AcDbTrace
10
178
20
120
30
0
11
175.5
21
119.583715342
31
0
12
175.5
22
120.416284658
32
0
13
175.5
23
120.416284658
33
0
0
MTEXT
5
10E
100
AcDbEntity
8
Dimensions
6
CONTINUOUS
62
7
370
0
100
AcDbMText
10
180
20
121.875
30
0
40
2.5
41
1.38888888889
71
5
72
1
1
4
7
standard
210
0
220
0
230
1
50
360
73
2
44
1
0
LINE
5
10F
100
AcDbEntity
8
Dimensions
6
CONTINUOUS
62
7
370
0
100
AcDbLine
10
182
20
129.375
11
182
21
118.75
0
LINE
5
110
100
AcDbEntity
8
Dimensions
6
CONTINUOUS
62
7
370
0
100
AcDbLine
10
178
20
129.375
11
178
21
118.75
0
ENDBLK
5
89
330
87
100
AcDbEntity
8
0
100
AcDbBlockEnd
0
BLOCK
5
8B
330
8A
100
AcDbEntity
8
0
100
AcDbBlockBegin
2
*D24
70
1
10
0
20
0
3
*D24
1

0
LINE
5
111
100
AcDbEntity
8
Dimensions
6
CONTINUOUS
62
7
370
0
100
AcDbLine
10
187
20
120
11
150
21
120
0
SOLID
5
112
100
AcDbEntity
8
Dimensions
6
CONTINUOUS
62
7
370
0
100
AcDbTrace
10
187
20
120
30
0
11
184.5
21
119.583715342
31
0
12
184.5
22
120.416284658
32
0
13
184.5
23
120.416284658
33
0
0
SOLID
5
113
100
AcDbEntity
8
Dimensions
6
CONTINUOUS
62
7
370
0
100
AcDbTrace
10
150
20
120
30
0
11
152.5
21
120.416284658
31
0
12
152.5
22
119.583715342
32
0
13
152.5
23
119.583715342
33
0
0
MTEXT
5
114
100
AcDbEntity
8
Dimensions
6
CONTINUOUS
62
7
370
0
100
AcDbMText
10
168.5
20
121.875
30
0
40
2.5
41
3.05555555556
71
5
72
1
1
37
7
standard
210
0
220
0
230
1
50
360
73
2
44
1
0
LINE
5
115
100
AcDbEntity
8
Dimensions
6
CONTINUOUS
62
7
370
0
100
AcDbLine
10
187
20
129.375
11
187
21
118.75
0
LINE
5
116
100
AcDbEntity
8
Dimensions
6
CONTINUOUS
62
7
370
0
100
AcDbLine
10
150
20
129.375
11
150
21
118.75
0
ENDBLK
5
8C
330
8A
100
AcDbEntity
8
0
100
AcDbBlockEnd
0
BLOCK
5
8E
330
8D
100
AcDbEntity
8
0
100
AcDbBlockBegin
2
*D1
70
1
10
0
20
0
3
*D1
1

0
LINE
5
117
100
AcDbEntity
8
Dimensions
6
CONTINUOUS
62
7
370
0
100
AcDbLine
10
90
20
70
11
98
21
70
0
SOLID
5
118
100
AcDbEntity
8
Dimensions
6
CONTINUOUS
62
7
370
0
100
AcDbTrace
10
90
20
70
30
0
11
92.5
21
70.4162846578
31
0
12
92.5
22
69.5837153422
32
0
13
92.5
23
69.5837153422
33
0
0
SOLID
5
119
100
AcDbEntity
8
Dimensions
6
CONTINUOUS
62
7
370
0
100
AcDbTrace
10
98
20
70
30
0
11
95.5
21
69.5837153422
31
0
12
95.5
22
70.4162846578
32
0
13
95.5
23
70.4162846578
33
0
0
MTEXT
5
11A
100
AcDbEntity
8
Dimensions
6
CONTINUOUS
62
7
370
0
100
AcDbMText
10
94
20
71.875
30
0
40
2.5
41
1.11111111111
71
5
72
1
1
8
7
standard
210
0
220
0
230
1
50
0
73
2
44
1
0
LINE
5
11B
100
AcDbEntity
8
Dimensions
6
CONTINUOUS
62
7
370
0
100
AcDbLine
10
90
20
79.375
11
90
21
68.75
0
LINE
5
11C
100
AcDbEntity
8
Dimensions
6
CONTINUOUS
62
7
370
0
100
AcDbLine
10
98
20
79.375
11
98
21
68.75
0
ENDBLK
5
8F
330
8D
100
AcDbEntity
8
0
100
AcDbBlockEnd
0
BLOCK
5
91
330
90
100
AcDbEntity
8
0
100
AcDbBlockBegin
2
*D20
70
1
10
0
20
0
3
*D20
1

0
LINE
5
11D
100
AcDbEntity
8
Dimensions
6
CONTINUOUS
62
7
370
0
100
AcDbLine
10
195
20
140
11
182
21
140
0
SOLID
5
11E
100
AcDbEntity
8
Dimensions
6
CONTINUOUS
62
7
370
0
100
AcDbTrace
10
195
20
140
30
0
11
192.5
21
139.583715342
31
0
12
192.5
22
140.416284658
32
0
13
192.5
23
140.416284658
33
0
0
SOLID
5
11F
100
AcDbEntity
8
Dimensions
6
CONTINUOUS
62
7
370
0
100
AcDbTrace
10
182
20
140
30
0
11
184.5
21
140.416284658
31
0
12
184.5
22
139.583715342
32
0
13
184.5
23
139.583715342
33
0
0
MTEXT
5
120
100
AcDbEntity
8
Dimensions
6
CONTINUOUS
62
7
370
0
100
AcDbMText
10
188.5
20
141.875
30
0
40
2.5
41
2.5
71
5
72
1
1
13
7
standard
210
0
220
0
230
1
50
360
73
2
44
1
0
LINE
5
121
100
AcDbEntity
8
Dimensions
6
CONTINUOUS
62
7
370
0
100
AcDbLine
10
195
20
130.625
11
195
21
141.25
0
LINE
5
122
100
AcDbEntity
8
Dimensions
6
CONTINUOUS
62
7
370
0
100
AcDbLine
10
182
20
130.625
11
182
21
141.25
0
ENDBLK
5
92
330
90
100
AcDbEntity
8
0
100
AcDbBlockEnd
0
ENDSEC
0
SECTION
2
ENTITIES
0
LINE
5
123
100
AcDbEntity
8
Body
6
ByLayer
62
256
370
-1
100
AcDbLine
10
100
20
90
11
170
21
90
0
LINE
5
124
100
AcDbEntity
8
Body
6
ByLayer
62
256
370
-1
100
AcDbLine
10
100
20
90
11
100
21
110
0
LINE
5
125
100
AcDbEntity
8
Body
6
ByLayer
62
256
370
-1
100
AcDbLine
10
100
20
110
11
170
21
110
0
LINE
5
126
100
AcDbEntity
8
Body
6
ByLayer
62
256
370
-1
100
AcDbLine
10
98
20
108
11
93
21
108
0
LINE
5
127
100
AcDbEntity
8
Body
6
ByLayer
62
256
370
-1
100
AcDbLine
10
98
20
92
11
93
21
92
0
LINE
5
128
100
AcDbEntity
8
Body
6
ByLayer
62
256
370
-1
100
AcDbLine
10
90
20
95
11
90
21
105
0
ARC
5
129
100
AcDbEntity
8
Body
6
ByLayer
62
256
370
-1
100
AcDbCircle
10
93
20
105
40
3
100
AcDbArc
50
90
51
180
0
ARC
5
12A
100
AcDbEntity
8
Body
6
ByLayer
62
256
370
-1
100
AcDbCircle
10
93
20
95
40
3
100
AcDbArc
50
180
51
270
0
LINE
5
12B
100
AcDbEntity
8
Body
6
ByLayer
62
256
370
-1
100
AcDbLine
10
98
20
108
11
100
21
110
0
LINE
5
12C
100
AcDbEntity
8
Body
6
ByLayer
62
256
370
-1
100
AcDbLine
10
98
20
108
11
98
21
92
0
LINE
5
12D
100
AcDbEntity
8
Body
6
ByLayer
62
256
370
-1
100
AcDbLine
10
98
20
92
11
100
21
90
0
ARC
5
12E
100
AcDbEntity
8
Body
6
ByLayer
62
256
370
-1
100
AcDbCircle
10
170.5
20
110
40
0.5
100
AcDbArc
50
180
51
0
0
ARC
5
12F
100
AcDbEntity
8
Body
6
ByLayer
62
256
370
-1
100
AcDbCircle
10
170.5
20
90
40
0.5
100
AcDbArc
50
0
51
180
0
LINE
5
130
100
AcDbEntity
8
Body
6
ByLayer
62
256
370
-1
100
AcDbLine
10
171
20
90
11
171
21
88
0
LINE
5
131
100
AcDbEntity
8
Body
6
ByLayer
62
256
370
-1
100
AcDbLine
10
171
20
88
11
174
21
85
0
LINE
5
132
100
AcDbEntity
8
Body
6
ByLayer
62
256
370
-1
100
AcDbLine
10
174
20
115
11
171
21
112
0
LINE
5
133
100
AcDbEntity
8
Body
6
ByLayer
62
256
370
-1
100
AcDbLine
10
171
20
112
11
171
21
110
0
LINE
5
134
100
AcDbEntity
8
Body
6
ByLayer
62
256
370
-1
100
AcDbLine
10
174
20
115
11
190
21
115
0
LINE
5
135
100
AcDbEntity
8
Body
6
ByLayer
62
256
370
-1
100
AcDbLine
10
190
20
115
11
194
21
110
0
LINE
5
136
100
AcDbEntity
8
Body
6
ByLayer
62
256
370
-1
100
AcDbLine
10
190
20
85
11
194
21
90
0
LINE
5
137
100
AcDbEntity
8
Body
6
ByLayer
62
256
370
-1
100
AcDbLine
10
190
20
85
11
174
21
85
0
LINE
5
138
100
AcDbEntity
8
Body
6
ByLayer
62
256
370
-1
100
AcDbLine
10
178
20
103
11
178
21
114
0
LINE
5
139
100
AcDbEntity
8
Body
6
ByLayer
62
256
370
-1
100
AcDbLine
10
178
20
114
11
177
21
115
0
LINE
5
13A
100
AcDbEntity
8
Body
6
ByLayer
62
256
370
-1
100
AcDbLine
10
182
20
114
11
183
21
115
0
LINE
5
13B
100
AcDbEntity
8
Body
6
ByLayer
62
256
370
-1
100
AcDbLine
10
182
20
114
11
182
21
103
0
LINE
5
13C
100
AcDbEntity
8
GrubScrew
6
ByLayer
62
256
370
-1
100
AcDbLine
10
178
20
113
11
182
21
113
0
LINE
5
13D
100
AcDbEntity
8
GrubScrew
6
ByLayer
62
256
370
-1
100
AcDbLine
10
182
20
113
11
182
21
102
0
LINE
5
13E
100
AcDbEntity
8
GrubScrew
6
ByLayer
62
256
370
-1
100
AcDbLine
10
182
20
102
11
178
21
102
0
LINE
5
13F
100
AcDbEntity
8
GrubScrew
6
ByLayer
62
256
370
-1
100
AcDbLine
10
178
20
102
11
178
21
113
0
LINE
5
140
100
AcDbEntity
8
GrubScrew
6
ByLayer
62
256
370
-1
100
AcDbLine
10
178
20
102
11
182
21
103
0
LINE
5
141
100
AcDbEntity
8
GrubScrew
6
ByLayer
62
256
370
-1
100
AcDbLine
10
178
20
103
11
182
21
104
0
LINE
5
142
100
AcDbEntity
8
GrubScrew
6
ByLayer
62
256
370
-1
100
AcDbLine
10
178
20
104
11
182
21
105
0
LINE
5
143
100
AcDbEntity
8
GrubScrew
6
ByLayer
62
256
370
-1
100
AcDbLine
10
178
20
105
11
182
21
106
0
LINE
5
144
100
AcDbEntity
8
GrubScrew
6
ByLayer
62
256
370
-1
100
AcDbLine
10
178
20
106
11
182
21
107
0
LINE
5
145
100
AcDbEntity
8
GrubScrew
6
ByLayer
62
256
370
-1
100
AcDbLine
10
178
20
107
11
182
21
108
0
LINE
5
146
100
AcDbEntity
8
GrubScrew
6
ByLayer
62
256
370
-1
100
AcDbLine
10
178
20
108
11
182
21
109
0
LINE
5
147
100
AcDbEntity
8
GrubScrew
6
ByLayer
62
256
370
-1
100
AcDbLine
10
178
20
109
11
182
21
110
0
LINE
5
148
100
AcDbEntity
8
GrubScrew
6
ByLayer
62
256
370
-1
100
AcDbLine
10
178
20
110
11
182
21
111
0
LINE
5
149
100
AcDbEntity
8
GrubScrew
6
ByLayer
62
256
370
-1
100
AcDbLine
10
178
20
111
11
182
21
112
0
LINE
5
14A
100
AcDbEntity
8
GrubScrew
6
ByLayer
62
256
370
-1
100
AcDbLine
10
178
20
112
11
182
21
113
0
LINE
5
14B
100
AcDbEntity
8
Pin
6
ByLayer
62
256
370
-1
100
AcDbLine
10
199
20
100
11
195
21
103
0
LINE
5
14C
100
AcDbEntity
8
Pin
6
ByLayer
62
256
370
-1
100
AcDbLine
10
195
20
97
11
199
21
100
0
LINE
5
14D
100
AcDbEntity
8
Pin
6
ByLayer
62
256
370
-1
100
AcDbLine
10
182
20
103
11
182
21
102
0
LINE
5
14E
100
AcDbEntity
8
Pin
6
ByLayer
62
256
370
-1
100
AcDbLine
10
182
20
102
11
171
21
102
0
LINE
5
14F
100
AcDbEntity
8
Pin
6
ByLayer
62
256
370
-1
100
AcDbLine
10
171
20
102
11
171
21
103
0
LINE
5
150
100
AcDbEntity
8
Body
6
ByLayer
62
256
370
-1
100
AcDbLine
10
150
20
103
11
150
21
97
0
LINE
5
151
100
AcDbEntity
8
Body
6
ByLayer
62
256
370
-1
100
AcDbLine
10
150
20
97
11
187
21
97
0
LINE
5
152
100
AcDbEntity
8
Body
6
ByLayer
62
256
370
-1
100
AcDbLine
10
187
20
103
11
150
21
103
0
CIRCLE
5
153
100
AcDbEntity
8
Spring
6
ByLayer
62
256
370
-1
100
AcDbCircle
10
150.5
20
102.5
40
0.2
0
CIRCLE
5
154
100
AcDbEntity
8
Spring
6
ByLayer
62
256
370
-1
100
AcDbCircle
10
151.6
20
102.5
40
0.2
0
CIRCLE
5
155
100
AcDbEntity
8
Spring
6
ByLayer
62
256
370
-1
100
AcDbCircle
10
152.7
20
102.5
40
0.2
0
CIRCLE
5
156
100
AcDbEntity
8
Spring
6
ByLayer
62
256
370
-1
100
AcDbCircle
10
153.8
20
102.5
40
0.2
0
CIRCLE
5
157
100
AcDbEntity
8
Spring
6
ByLayer
62
256
370
-1
100
AcDbCircle
10
154.9
20
102.5
40
0.2
0
CIRCLE
5
158
100
AcDbEntity
8
Spring
6
ByLayer
62
256
370
-1
100
AcDbCircle
10
156
20
102.5
40
0.2
0
CIRCLE
5
159
100
AcDbEntity
8
Spring
6
ByLayer
62
256
370
-1
100
AcDbCircle
10
157.1
20
102.5
40
0.2
0
CIRCLE
5
15A
100
AcDbEntity
8
Spring
6
ByLayer
62
256
370
-1
100
AcDbCircle
10
158.2
20
102.5
40
0.2
0
CIRCLE
5
15B
100
AcDbEntity
8
Spring
6
ByLayer
62
256
370
-1
100
AcDbCircle
10
159.3
20
102.5
40
0.2
0
CIRCLE
5
15C
100
AcDbEntity
8
Spring
6
ByLayer
62
256
370
-1
100
AcDbCircle
10
160.4
20
102.5
40
0.2
0
CIRCLE
5
15D
100
AcDbEntity
8
Spring
6
ByLayer
62
256
370
-1
100
AcDbCircle
10
161.5
20
102.5
40
0.2
0
CIRCLE
5
15E
100
AcDbEntity
8
Spring
6
ByLayer
62
256
370
-1
100
AcDbCircle
10
162.6
20
102.5
40
0.2
0
CIRCLE
5
15F
100
AcDbEntity
8
Spring
6
ByLayer
62
256
370
-1
100
AcDbCircle
10
163.7
20
102.5
40
0.2
0
CIRCLE
5
160
100
AcDbEntity
8
Spring
6
ByLayer
62
256
370
-1
100
AcDbCircle
10
164.8
20
102.5
40
0.2
0
CIRCLE
5
161
100
AcDbEntity
8
Spring
6
ByLayer
62
256
370
-1
100
AcDbCircle
10
150.5
20
97.5
40
0.2
0
CIRCLE
5
162
100
AcDbEntity
8
Spring
6
ByLayer
62
256
370
-1
100
AcDbCircle
10
151.2
20
97.5
40
0.2
0
CIRCLE
5
163
100
AcDbEntity
8
Spring
6
ByLayer
62
256
370
-1
100
AcDbCircle
10
152.3
20
97.5
40
0.2
0
CIRCLE
5
164
100
AcDbEntity
8
Spring
6
ByLayer
62
256
370
-1
100
AcDbCircle
10
153.4
20
97.5
40
0.2
0
CIRCLE
5
165
100
AcDbEntity
8
Spring
6
ByLayer
62
256
370
-1
100
AcDbCircle
10
154.5
20
97.5
40
0.2
0
CIRCLE
5
166
100
AcDbEntity
8
Spring
6
ByLayer
62
256
370
-1
100
AcDbCircle
10
155.6
20
97.5
40
0.2
0
CIRCLE
5
167
100
AcDbEntity
8
Spring
6
ByLayer
62
256
370
-1
100
AcDbCircle
10
156.7
20
97.5
40
0.2
0
CIRCLE
5
168
100
AcDbEntity
8
Spring
6
ByLayer
62
256
370
-1
100
AcDbCircle
10
157.8
20
97.5
40
0.2
0
CIRCLE
5
169
100
AcDbEntity
8
Spring
6
ByLayer
62
256
370
-1
100
AcDbCircle
10
158.9
20
97.5
40
0.2
0
CIRCLE
5
16A
100
AcDbEntity
8
Spring
6
ByLayer
62
256
370
-1
100
AcDbCircle
10
160
20
97.5
40
0.2
0
CIRCLE
5
16B
100
AcDbEntity
8
Spring
6
ByLayer
62
256
370
-1
100
AcDbCircle
10
161.1
20
97.5
40
0.2
0
CIRCLE
5
16C
100
AcDbEntity
8
Spring
6
ByLayer
62
256
370
-1
100
AcDbCircle
10
162.2
20
97.5
40
0.2
0
CIRCLE
5
16D
100
AcDbEntity
8
Spring
6
ByLayer
62
256
370
-1
100
AcDbCircle
10
163.3
20
97.5
40
0.2
0
CIRCLE
5
16E
100
AcDbEntity
8
Spring
6
ByLayer
62
256
370
-1
100
AcDbCircle
10
164.4
20
97.5
40
0.2
0
CIRCLE
5
16F
100
AcDbEntity
8
Spring
6
ByLayer
62
256
370
-1
100
AcDbCircle
10
165.5
20
97.5
40
0.2
0
CIRCLE
5
170
100
AcDbEntity
8
Spring
6
ByLayer
62
256
370
-1
100
AcDbCircle
10
165.5
20
102.5
40
0.2
0
LINE
5
171
100
AcDbEntity
8
Pin
6
ByLayer
62
256
370
-1
100
AcDbLine
10
166
20
103
11
166
21
102
0
LINE
5
172
100
AcDbEntity
8
Pin
6
ByLayer
62
256
370
-1
100
AcDbLine
10
166
20
102
11
164
21
102
0
LINE
5
173
100
AcDbEntity
8
Pin
6
ByLayer
62
256
370
-1
100
AcDbLine
10
164
20
102
11
164
21
98
0
LINE
5
174
100
AcDbEntity
8
Pin
6
ByLayer
62
256
370
-1
100
AcDbLine
10
164
20
98
11
166
21
98
0
LINE
5
175
100
AcDbEntity
8
Pin
6
ByLayer
62
256
370
-1
100
AcDbLine
10
166
20
98
11
166
21
97
0
LINE
5
176
100
AcDbEntity
8
Pin
6
ByLayer
62
256
370
-1
100
AcDbLine
10
166
20
97
11
195
21
97
0
LINE
5
177
100
AcDbEntity
8
Pin
6
ByLayer
62
256
370
-1
100
AcDbLine
10
195
20
103
11
182
21
103
0
LINE
5
178
100
AcDbEntity
8
Pin
6
ByLayer
62
256
370
-1
100
AcDbLine
10
166
20
103
11
171
21
103
0
DIMENSION
5
179
100
AcDbEntity
8
Dimensions
6
ByLayer
62
256
370
-1
100
AcDbDimension
2
*D1
10
98
20
70
30
0
11
94
21
71.875
31
0
70
32
71
5
72
0
3
Standard
53
0
210
0
220
0
230
1
100
AcDbAlignedDimension
13
90
23
80
33
0
14
98
24
80
34
0
100
AcDbRotatedDimension
0
DIMENSION
5
17A
100
AcDbEntity
8
Dimensions
6
ByLayer
62
256
370
-1
100
AcDbDimension
2
*D2
10
100
20
70
30
0
11
99
21
71.875
31
0
70
32
71
5
72
0
3
Standard
53
0
210
0
220
0
230
1
100
AcDbAlignedDimension
13
98
23
80
33
0
14
100
24
80
34
0
100
AcDbRotatedDimension
0
DIMENSION
5
17B
100
AcDbEntity
8
Dimensions
6
ByLayer
62
256
370
-1
100
AcDbDimension
2
*D3
10
170
20
70
30
0
11
135
21
71.875
31
0
70
32
71
5
72
0
3
Standard
53
0
210
0
220
0
230
1
100
AcDbAlignedDimension
13
100
23
80
33
0
14
170
24
80
34
0
100
AcDbRotatedDimension
0
DIMENSION
5
17C
100
AcDbEntity
8
Dimensions
6
ByLayer
62
256
370
-1
100
AcDbDimension
2
*D4
10
171
20
70
30
0
11
170.5
21
71.875
31
0
70
32
71
5
72
0
3
Standard
53
0
210
0
220
0
230
1
100
AcDbAlignedDimension
13
170
23
80
33
0
14
171
24
80
34
0
100
AcDbRotatedDimension
0
DIMENSION
5
17D
100
AcDbEntity
8
Dimensions
6
ByLayer
62
256
370
-1
100
AcDbDimension
2
*D5
10
174
20
70
30
0
11
172.5
21
71.875
31
0
70
32
71
5
72
0
3
Standard
53
0
210
0
220
0
230
1
100
AcDbAlignedDimension
13
171
23
80
33
0
14
174
24
80
34
0
100
AcDbRotatedDimension
0
DIMENSION
5
17E
100
AcDbEntity
8
Dimensions
6
ByLayer
62
256
370
-1
100
AcDbDimension
2
*D6
10
190
20
70
30
0
11
182
21
71.875
31
0
70
32
71
5
72
0
3
Standard
53
0
210
0
220
0
230
1
100
AcDbAlignedDimension
13
174
23
80
33
0
14
190
24
80
34
0
100
AcDbRotatedDimension
0
DIMENSION
5
17F
100
AcDbEntity
8
Dimensions
6
ByLayer
62
256
370
-1
100
AcDbDimension
2
*D7
10
194
20
70
30
0
11
192
21
71.875
31
0
70
32
71
5
72
0
3
Standard
53
0
210
0
220
0
230
1
100
AcDbAlignedDimension
13
190
23
80
33
0
14
194
24
80
34
0
100
AcDbRotatedDimension
0
DIMENSION
5
180
100
AcDbEntity
8
Dimensions
6
ByLayer
62
256
370
-1
100
AcDbDimension
2
*D8
10
70
20
90
30
0
11
68.125
21
87.5
31
0
70
32
71
5
72
0
3
Standard
53
0
210
0
220
0
230
1
100
AcDbAlignedDimension
13
80
23
85
33
0
14
80
24
90
34
0
50
90
100
AcDbRotatedDimension
0
DIMENSION
5
181
100
AcDbEntity
8
Dimensions
6
ByLayer
62
256
370
-1
100
AcDbDimension
2
*D9
10
70
20
92
30
0
11
68.125
21
91
31
0
70
32
71
5
72
0
3
Standard
53
0
210
0
220
0
230
1
100
AcDbAlignedDimension
13
80
23
90
33
0
14
79
24
92
34
0
50
90
100
AcDbRotatedDimension
0
DIMENSION
5
182
100
AcDbEntity
8
Dimensions
6
ByLayer
62
256
370
-1
100
AcDbDimension
2
*D10
10
70
20
108
30
0
11
68.125
21
100
31
0
70
32
71
5
72
0
3
Standard
53
0
210
0
220
0
230
1
100
AcDbAlignedDimension
13
80
23
92
33
0
14
80
24
108
34
0
50
90
100
AcDbRotatedDimension
0
DIMENSION
5
183
100
AcDbEntity
8
Dimensions
6
ByLayer
62
256
370
-1
100
AcDbDimension
2
*D11
10
70
20
110
30
0
11
68.125
21
109
31
0
70
32
71
5
72
0
3
Standard
53
0
210
0
220
0
230
1
100
AcDbAlignedDimension
13
80
23
108
33
0
14
80
24
110
34
0
50
90
100
AcDbRotatedDimension
0
DIMENSION
5
184
100
AcDbEntity
8
Dimensions
6
ByLayer
62
256
370
-1
100
AcDbDimension
2
*D12
10
70
20
115
30
0
11
68.125
21
112.5
31
0
70
32
71
5
72
0
3
Standard
53
0
210
0
220
0
230
1
100
AcDbAlignedDimension
13
80
23
110
33
0
14
80
24
115
34
0
50
90
100
AcDbRotatedDimension
0
DIMENSION
5
185
100
AcDbEntity
8
Dimensions
6
ByLayer
62
256
370
-1
100
AcDbDimension
2
*D13
10
210
20
90
30
0
11
208.125
21
87.5
31
0
70
32
71
5
72
0
3
Standard
53
0
210
0
220
0
230
1
100
AcDbAlignedDimension
13
200
23
85
33
0
14
200
24
90
34
0
50
90
100
AcDbRotatedDimension
0
DIMENSION
5
186
100
AcDbEntity
8
Dimensions
6
ByLayer
62
256
370
-1
100
AcDbDimension
2
*D14
10
210
20
97
30
0
11
208.125
21
93.5
31
0
70
32
71
5
72
0
3
Standard
53
0
210
0
220
0
230
1
100
AcDbAlignedDimension
13
200
23
90
33
0
14
200
24
97
34
0
50
90
100
AcDbRotatedDimension
0
DIMENSION
5
187
100
AcDbEntity
8
Dimensions
6
ByLayer
62
256
370
-1
100
AcDbDimension
2
*D15
10
210
20
103
30
0
11
208.125
21
100
31
0
70
32
71
5
72
0
3
Standard
53
0
210
0
220
0
230
1
100
AcDbAlignedDimension
13
200
23
97
33
0
14
200
24
103
34
0
50
90
100
AcDbRotatedDimension
0
DIMENSION
5
188
100
AcDbEntity
8
Dimensions
6
ByLayer
62
256
370
-1
100
AcDbDimension
2
*D16
10
210
20
110
30
0
11
208.125
21
106.5
31
0
70
32
71
5
72
0
3
Standard
53
0
210
0
220
0
230
1
100
AcDbAlignedDimension
13
200
23
103
33
0
14
200
24
110
34
0
50
90
100
AcDbRotatedDimension
0
DIMENSION
5
189
100
AcDbEntity
8
Dimensions
6
ByLayer
62
256
370
-1
100
AcDbDimension
2
*D17
10
210
20
115
30
0
11
208.125
21
112.5
31
0
70
32
71
5
72
0
3
Standard
53
0
210
0
220
0
230
1
100
AcDbAlignedDimension
13
200
23
110
33
0
14
200
24
115
34
0
50
90
100
AcDbRotatedDimension
0
DIMENSION
5
18A
100
AcDbEntity
8
Dimensions
6
ByLayer
62
256
370
-1
100
AcDbDimension
2
*D18
10
178
20
120
30
0
11
180
21
121.875
31
0
70
32
71
5
72
0
3
Standard
53
0
210
0
220
0
230
1
100
AcDbAlignedDimension
13
182
23
130
33
0
14
178
24
130
34
0
100
AcDbRotatedDimension
0
DIMENSION
5
18B
100
AcDbEntity
8
Dimensions
6
ByLayer
62
256
370
-1
100
AcDbDimension
2
*D19
10
195
20
140
30
0
11
197
21
141.875
31
0
70
32
71
5
72
0
3
Standard
53
0
210
0
220
0
230
1
100
AcDbAlignedDimension
13
199
23
130
33
0
14
195
24
130
34
0
100
AcDbRotatedDimension
0
DIMENSION
5
18C
100
AcDbEntity
8
Dimensions
6
ByLayer
62
256
370
-1
100
AcDbDimension
2
*D20
10
182
20
140
30
0
11
188.5
21
141.875
31
0
70
32
71
5
72
0
3
Standard
53
0
210
0
220
0
230
1
100
AcDbAlignedDimension
13
195
23
130
33
0
14
182
24
130
34
0
100
AcDbRotatedDimension
0
DIMENSION
5
18D
100
AcDbEntity
8
Dimensions
6
ByLayer
62
256
370
-1
100
AcDbDimension
2
*D21
10
171
20
140
30
0
11
176.5
21
141.875
31
0
70
32
71
5
72
0
3
Standard
53
0
210
0
220
0
230
1
100
AcDbAlignedDimension
13
182
23
130
33
0
14
171
24
130
34
0
100
AcDbRotatedDimension
0
DIMENSION
5
18E
100
AcDbEntity
8
Dimensions
6
ByLayer
62
256
370
-1
100
AcDbDimension
2
*D22
10
166
20
140
30
0
11
168.5
21
141.875
31
0
70
32
71
5
72
0
3
Standard
53
0
210
0
220
0
230
1
100
AcDbAlignedDimension
13
171
23
130
33
0
14
166
24
130
34
0
100
AcDbRotatedDimension
0
DIMENSION
5
18F
100
AcDbEntity
8
Dimensions
6
ByLayer
62
256
370
-1
100
AcDbDimension
2
*D23
10
164
20
140
30
0
11
165
21
141.875
31
0
70
32
71
5
72
0
3
Standard
53
0
210
0
220
0
230
1
100
AcDbAlignedDimension
13
166
23
130
33
0
14
164
24
130
34
0
100
AcDbRotatedDimension
0
DIMENSION
5
190
100
AcDbEntity
8
Dimensions
6
ByLayer
62
256
370
-1
100
AcDbDimension
2
*D24
10
150
20
120
30
0
11
168.5
21
121.875
31
0
70
32
71
5
72
0
3
Standard
53
0
210
0
220
0
230
1
100
AcDbAlignedDimension
13
187
23
130
33
0
14
150
24
130
34
0
100
AcDbRotatedDimension
0
CIRCLE
5
191
100
AcDbEntity
8
Body
6
ByLayer
62
256
370
-1
100
AcDbCircle
10
270
20
100
40
15
0
CIRCLE
5
192
100
AcDbEntity
8
Body
6
ByLayer
62
256
370
-1
100
AcDbCircle
10
270
20
100
40
3
0
ARC
5
193
100
AcDbEntity
8
Body
6
ByLayer
62
256
370
-1
100
AcDbCircle
10
188
20
109
40
1
100
AcDbArc
50
90
51
180
0
ARC
5
194
100
AcDbEntity
8
Body
6
ByLayer
62
256
370
-1
100
AcDbCircle
10
188
20
91
40
1
100
AcDbArc
50
180
51
270
0
LINE
5
195
100
AcDbEntity
8
Body
6
ByLayer
62
256
370
-1
100
AcDbLine
10
187
20
91
11
187
21
97
0
LINE
5
196
100
AcDbEntity
8
Body
6
ByLayer
62
256
370
-1
100
AcDbLine
10
194
20
90
11
188
21
90
0
LINE
5
197
100
AcDbEntity
8
Body
6
ByLayer
62
256
370
-1
100
AcDbLine
10
187
20
109
11
187
21
103
0
LINE
5
198
100
AcDbEntity
8
Body
6
ByLayer
62
256
370
-1
100
AcDbLine
10
194
20
110
11
188
21
110
0
CIRCLE
5
199
100
AcDbEntity
8
Body
6
ByLayer
62
256
370
-1
100
AcDbCircle
10
270
20
100
40
10
0
LINE
5
19A
100
AcDbEntity
8
Body
6
ByLayer
62
256
370
-1
100
AcDbLine
10
270
20
110
11
270
21
115
0
LINE
5
19B
100
AcDbEntity
8
Body
6
ByLayer
62
256
370
-1
100
AcDbLine
10
266.173165676
20
109.238795325
11
264.259748515
21
113.858192988
0
LINE
5
19C
100
AcDbEntity
8
Body
6
ByLayer
62
256
370
-1
100
AcDbLine
10
262.928932188
20
107.071067812
11
259.393398282
21
110.606601718
0
LINE
5
19D
100
AcDbEntity
8
Body
6
ByLayer
62
256
370
-1
100
AcDbLine
10
260.761204675
20
103.826834324
11
256.141807012
21
105.740251485
0
LINE
5
19E
100
AcDbEntity
8
Body
6
ByLayer
62
256
370
-1
100
AcDbLine
10
260
20
100
11
255
21
100
0
LINE
5
19F
100
AcDbEntity
8
Body
6
ByLayer
62
256
370
-1
100
AcDbLine
10
260.761204675
20
96.1731656763
11
256.141807012
21
94.2597485145
0
LINE
5
1A0
100
AcDbEntity
8
Body
6
ByLayer
62
256
370
-1
100
AcDbLine
10
262.928932188
20
92.9289321881
11
259.393398282
21
89.3933982822
0
LINE
5
1A1
100
AcDbEntity
8
Body
6
ByLayer
62
256
370
-1
100
AcDbLine
10
266.173165676
20
90.7612046749
11
264.259748515
21
86.1418070123
0
LINE
5
1A2
100
AcDbEntity
8
Body
6
ByLayer
62
256
370
-1
100
AcDbLine
10
270
20
90
11
270
21
85
0
LINE
5
1A3
100
AcDbEntity
8
Body
6
ByLayer
62
256
370
-1
100
AcDbLine
10
273.826834324
20
90.7612046749
11
275.740251485
21
86.1418070123
0
LINE
5
1A4
100
AcDbEntity
8
Body
6
ByLayer
62
256
370
-1
100
AcDbLine
10
277.071067812
20
92.9289321881
11
280.606601718
21
89.3933982822
0
LINE
5
1A5
100
AcDbEntity
8
Body
6
ByLayer
62
256
370
-1
100
AcDbLine
10
279.238795325
20
96.1731656763
11
283.858192988
21
94.2597485145
0
LINE
5
1A6
100
AcDbEntity
8
Body
6
ByLayer
62
256
370
-1
100
AcDbLine
10
280
20
100
11
285
21
100
0
LINE
5
1A7
100
AcDbEntity
8
Body
6
ByLayer
62
256
370
-1
100
AcDbLine
10
279.238795325
20
103.826834324
11
283.858192988
21
105.740251485
0
LINE
5
1A8
100
AcDbEntity
8
Body
6
ByLayer
62
256
370
-1
100
AcDbLine
10
277.071067812
20
107.071067812
11
280.606601718
21
110.606601718
0
LINE
5
1A9
100
AcDbEntity
8
Body
6
ByLayer
62
256
370
-1
100
AcDbLine
10
273.826834324
20
109.238795325
11
275.740251485
21
113.858192988
0
ENDSEC
0
SECTION
2
OBJECTS
0
DICTIONARY
5
C
330
0
100
AcDbDictionary
281
1
3
ACAD_GROUP
350
D
0
DICTIONARY
5
D
330
C
100
AcDbDictionary
281
1
0
ENDSEC
0
EOF
