999
dxfrw 0.5.10
0
SECTION
2
HEADER
9
$ACADVER
1
AC1021
9
$HANDSEED
5
20000
9
$DWGCODEPAGE
3
ANSI_1252
9
$INSBASE
10
0
20
0
30
0
9
$EXTMIN
10
-200
20
0
30
0
9
$EXTMAX
10
421.25
20
183.125
30
0
9
$LIMMIN
10
0
20
0
9
$LIMMAX
10
420
20
297
9
$ORTHOMODE
70
0
9
$LTSCALE
40
1
9
$TEXTSTYLE
7
STANDARD
9
$CLAYER
8
Fastners
9
$DIMASZ
40
2.5
9
$DIMLFAC
40
1
9
$DIMSCALE
40
1
9
$DIMEXO
40
0.625
9
$DIMEXE
40
1.25
9
$DIMTXT
40
2.5
9
$DIMTSZ
40
0
9
$DIMAUNIT
70
0
9
$DIMADEC
70
0
9
$DIMLUNIT
70
2
9
$DIMSTYLE
2
STANDARD
9
$DIMGAP
40
0.625
9
$DIMTIH
70
0
9
$LUNITS
70
2
9
$LUPREC
70
4
9
$AUNITS
70
0
9
$AUPREC
70
2
9
$SPLINESEGS
70
8
9
$GRIDMODE
70
1
9
$SNAPSTYLE
70
0
9
$PINSBASE
10
50.6165610212
20
5.47124407849
30
0
9
$PLIMMIN
10
0
20
0
9
$PLIMMAX
10
297
20
210
9
$INSUNITS
70
4
9
$PSVPSCALE
40
1
0
ENDSEC
0
SECTION
2
CLASSES
0
ENDSEC
0
SECTION
2
TABLES
0
TABLE
2
VPORT
5
8
330
0
100
AcDbSymbolTable
70
1
0
VPORT
5
31
330
2
100
AcDbSymbolTableRecord
100
AcDbViewportTableRecord
2
*ACTIVE
70
0
10
0
20
0
11
1
21
1
12
230.114305403
22
77.0459818506
13
0
23
0
14
10
24
10
15
10
25
10
16
0
26
0
36
1
17
0
27
0
37
0
40
107.004516866
41
2.04464285714
42
50
43
0
44
0
50
0
51
0
71
0
72
100
73
1
74
3
75
0
76
1
77
0
78
0
281
0
65
1
110
0
120
0
130
0
111
1
121
0
131
0
112
0
122
1
132
0
79
0
146
0
348
10020
60
7
61
5
292
1
282
1
141
0
142
0
63
250
421
3358443
0
ENDTAB
0
TABLE
2
LTYPE
5
5
330
0
100
AcDbSymbolTable
70
4
0
LTYPE
5
14
330
5
100
AcDbSymbolTableRecord
100
AcDbLinetypeTableRecord
2
ByBlock
70
0
3

72
65
73
0
40
0
0
LTYPE
5
15
330
5
100
AcDbSymbolTableRecord
100
AcDbLinetypeTableRecord
2
ByLayer
70
0
3

72
65
73
0
40
0
0
LTYPE
5
16
330
5
100
AcDbSymbolTableRecord
100
AcDbLinetypeTableRecord
2
Continuous
70
0
3
Solid line
72
65
73
0
40
0
0
LTYPE
5
32
330
5
100
AcDbSymbolTableRecord
100
AcDbLinetypeTableRecord
2
DOT
70
0
3
Dot . . . . . . . . . . . . . . . . . . . . . .
72
65
73
2
40
6.35
49
0
74
0
49
-6.35
74
0
0
LTYPE
5
33
330
5
100
AcDbSymbolTableRecord
100
AcDbLinetypeTableRecord
2
DOT2
70
0
3
Dot (.5x) .....................................
72
65
73
2
40
3.175
49
0
74
0
49
-3.175
74
0
0
LTYPE
5
34
330
5
100
AcDbSymbolTableRecord
100
AcDbLinetypeTableRecord
2
DOTX2
70
0
3
Dot (2x) .  .  .  .  .  .  .  .  .  .  .  .  .
72
65
73
2
40
12.7
49
0
74
0
49
-12.7
74
0
0
LTYPE
5
35
330
5
100
AcDbSymbolTableRecord
100
AcDbLinetypeTableRecord
2
DASHED
70
0
3
Dot . . . . . . . . . . . . . . . . . . . . . .
72
65
73
2
40
19.05
49
12.7
74
0
49
-6.35
74
0
0
LTYPE
5
36
330
5
100
AcDbSymbolTableRecord
100
AcDbLinetypeTableRecord
2
DASHED2
70
0
3
Dashed (.5x) _ _ _ _ _ _ _ _ _ _ _ _ _ _ _ _ _
72
65
73
2
40
9.525
49
6.35
74
0
49
-3.175
74
0
0
LTYPE
5
37
330
5
100
AcDbSymbolTableRecord
100
AcDbLinetypeTableRecord
2
DASHEDX2
70
0
3
Dashed (2x) ____  ____  ____  ____  ____  ___
72
65
73
2
40
38.1
49
25.4
74
0
49
-12.7
74
0
0
LTYPE
5
38
330
5
100
AcDbSymbolTableRecord
100
AcDbLinetypeTableRecord
2
DASHDOT
70
0
3
Dash dot __ . __ . __ . __ . __ . __ . __ . __
72
65
73
4
40
25.4
49
12.7
74
0
49
-6.35
74
0
49
0
74
0
49
-6.35
74
0
0
LTYPE
5
39
330
5
100
AcDbSymbolTableRecord
100
AcDbLinetypeTableRecord
2
DASHDOT2
70
0
3
Dash dot (.5x) _._._._._._._._._._._._._._._.
72
65
73
4
40
12.7
49
6.35
74
0
49
-3.175
74
0
49
0
74
0
49
-3.175
74
0
0
LTYPE
5
3A
330
5
100
AcDbSymbolTableRecord
100
AcDbLinetypeTableRecord
2
DASHDOTX2
70
0
3
Dash dot (2x) ____  .  ____  .  ____  .  ___
72
65
73
4
40
50.8
49
25.4
74
0
49
-12.7
74
0
49
0
74
0
49
-12.7
74
0
0
LTYPE
5
3B
330
5
100
AcDbSymbolTableRecord
100
AcDbLinetypeTableRecord
2
DIVIDE
70
0
3
Divide ____ . . ____ . . ____ . . ____ . . ____
72
65
73
6
40
31.75
49
12.7
74
0
49
-6.35
74
0
49
0
74
0
49
-6.35
74
0
49
0
74
0
49
-6.35
74
0
0
LTYPE
5
3C
330
5
100
AcDbSymbolTableRecord
100
AcDbLinetypeTableRecord
2
DIVIDE2
70
0
3
Divide (.5x) __..__..__..__..__..__..__..__.._
72
65
73
6
40
15.875
49
6.35
74
0
49
-3.175
74
0
49
0
74
0
49
-3.175
74
0
49
0
74
0
49
-3.175
74
0
0
LTYPE
5
3D
330
5
100
AcDbSymbolTableRecord
100
AcDbLinetypeTableRecord
2
DIVIDEX2
70
0
3
Divide (2x) ________  .  .  ________  .  .  _
72
65
73
6
40
63.5
49
25.4
74
0
49
-12.7
74
0
49
0
74
0
49
-12.7
74
0
49
0
74
0
49
-12.7
74
0
0
LTYPE
5
3E
330
5
100
AcDbSymbolTableRecord
100
AcDbLinetypeTableRecord
2
BORDER
70
0
3
Border __ __ . __ __ . __ __ . __ __ . __ __ .
72
65
73
6
40
44.45
49
12.7
74
0
49
-6.35
74
0
49
12.7
74
0
49
-6.35
74
0
49
0
74
0
49
-6.35
74
0
0
LTYPE
5
3F
330
5
100
AcDbSymbolTableRecord
100
AcDbLinetypeTableRecord
2
BORDER2
70
0
3
Border (.5x) __.__.__.__.__.__.__.__.__.__.__.
72
65
73
6
40
22.225
49
6.35
74
0
49
-3.175
74
0
49
6.35
74
0
49
-3.175
74
0
49
0
74
0
49
-3.175
74
0
0
LTYPE
5
40
330
5
100
AcDbSymbolTableRecord
100
AcDbLinetypeTableRecord
2
BORDERX2
70
0
3
Border (2x) ____  ____  .  ____  ____  .  ___
72
65
73
6
40
88.9
49
25.4
74
0
49
-12.7
74
0
49
25.4
74
0
49
-12.7
74
0
49
0
74
0
49
-12.7
74
0
0
LTYPE
5
41
330
5
100
AcDbSymbolTableRecord
100
AcDbLinetypeTableRecord
2
CENTER
70
0
3
Center ____ _ ____ _ ____ _ ____ _ ____ _ ____
72
65
73
4
40
50.8
49
31.75
74
0
49
-6.35
74
0
49
6.35
74
0
49
-6.35
74
0
0
LTYPE
5
42
330
5
100
AcDbSymbolTableRecord
100
AcDbLinetypeTableRecord
2
CENTER2
70
0
3
Center (.5x) ___ _ ___ _ ___ _ ___ _ ___ _ ___
72
65
73
4
40
28.575
49
19.05
74
0
49
-3.175
74
0
49
3.175
74
0
49
-3.175
74
0
0
LTYPE
5
43
330
5
100
AcDbSymbolTableRecord
100
AcDbLinetypeTableRecord
2
CENTERX2
70
0
3
Center (2x) ________  __  ________  __  _____
72
65
73
4
40
101.6
49
63.5
74
0
49
-12.7
74
0
49
12.7
74
0
49
-12.7
74
0
0
ENDTAB
0
TABLE
2
LAYER
5
2
330
0
100
AcDbSymbolTable
70
1
0
LAYER
5
10
330
2
100
AcDbSymbolTableRecord
100
AcDbLayerTableRecord
2
0
70
4
62
7
6
CONTINUOUS
370
0
390
F
0
LAYER
5
44
330
2
100
AcDbSymbolTableRecord
100
AcDbLayerTableRecord
2
Base
70
4
62
5
6
CONTINUOUS
370
13
390
F
0
LAYER
5
45
330
2
100
AcDbSymbolTableRecord
100
AcDbLayerTableRecord
2
Squares
70
4
62
136
420
32896
6
CONTINUOUS
370
25
390
F
0
LAYER
5
46
330
2
100
AcDbSymbolTableRecord
100
AcDbLayerTableRecord
2
Slides
70
4
62
6
6
CONTINUOUS
370
13
390
F
0
LAYER
5
47
330
2
100
AcDbSymbolTableRecord
100
AcDbLayerTableRecord
2
Inserts
70
4
62
56
420
8421376
6
CONTINUOUS
370
25
390
F
0
LAYER
5
48
330
2
100
AcDbSymbolTableRecord
100
AcDbLayerTableRecord
2
Fastners
70
0
62
16
420
8388608
6
CONTINUOUS
370
25
390
F
0
LAYER
5
49
330
2
100
AcDbSymbolTableRecord
100
AcDbLayerTableRecord
2
Dimensions
70
4
62
7
6
CONTINUOUS
370
25
390
F
0
LAYER
5
4A
330
2
100
AcDbSymbolTableRecord
100
AcDbLayerTableRecord
2
DrillingTemplate
70
4
62
7
6
CONTINUOUS
370
13
390
F
0
LAYER
5
4B
330
2
100
AcDbSymbolTableRecord
100
AcDbLayerTableRecord
2
ToPrint
70
4
62
7
6
CONTINUOUS
370
13
390
F
0
ENDTAB
0
TABLE
2
STYLE
5
3
330
0
100
AcDbSymbolTable
70
3
0
STYLE
5
4C
330
2
100
AcDbSymbolTableRecord
100
AcDbTextStyleTableRecord
2
Standard
70
0
40
0
41
1
50
0
71
0
42
1
3
txt
4

0
ENDTAB
0
TABLE
2
VIEW
5
6
330
0
100
AcDbSymbolTable
70
0
0
ENDTAB
0
TABLE
2
UCS
5
7
330
0
100
AcDbSymbolTable
70
0
0
ENDTAB
0
TABLE
2
APPID
5
9
330
0
100
AcDbSymbolTable
70
1
0
APPID
5
12
330
9
100
AcDbSymbolTableRecord
100
AcDbRegAppTableRecord
2
ACAD
70
0
0
ENDTAB
0
TABLE
2
DIMSTYLE
5
A
330
0
100
AcDbSymbolTable
70
1
100
AcDbDimStyleTable
71
1
0
DIMSTYLE
105
4D
330
A
100
AcDbSymbolTableRecord
100
AcDbDimStyleTableRecord
2
Standard
70
0
40
1
41
2.5
42
0.625
43
0.38
44
1.25
45
0
46
0
47
0
48
0
140
2.5
141
0.09
142
0
143
25.4
144
1
145
0
146
1
147
0.625
148
0
71
0
72
0
73
0
74
1
75
0
76
0
77
0
78
0
79
0
170
0
171
2
172
0
173
0
174
0
175
0
176
0
177
0
178
0
179
0
271
4
272
4
273
2
274
2
275
0
276
0
277
2
278
46
279
0
280
0
281
0
282
0
283
1
284
0
285
0
286
0
288
0
289
3
340
Standard
341

371
-2
372
-2
0
ENDTAB
0
TABLE
2
BLOCK_RECORD
5
1
330
0
100
AcDbSymbolTable
70
2
0
BLOCK_RECORD
5
1F
330
1
100
AcDbSymbolTableRecord
100
AcDbBlockTableRecord
2
*Model_Space
70
0
280
1
281
0
0
BLOCK_RECORD
5
1E
330
1
100
AcDbSymbolTableRecord
100
AcDbBlockTableRecord
2
*Paper_Space
70
0
280
1
281
0
0
BLOCK_RECORD
5
4E
330
1
100
AcDbSymbolTableRecord
100
AcDbBlockTableRecord
2
*D19
70
0
280
1
281
0
0
BLOCK_RECORD
5
51
330
1
100
AcDbSymbolTableRecord
100
AcDbBlockTableRecord
2
*D4
70
0
280
1
281
0
0
BLOCK_RECORD
5
54
330
1
100
AcDbSymbolTableRecord
100
AcDbBlockTableRecord
2
*D11
70
0
280
1
281
0
0
BLOCK_RECORD
5
57
330
1
100
AcDbSymbolTableRecord
100
AcDbBlockTableRecord
2
*D20
70
0
280
1
281
0
0
BLOCK_RECORD
5
5A
330
1
100
AcDbSymbolTableRecord
100
AcDbBlockTableRecord
2
*D26
70
0
280
1
281
0
0
BLOCK_RECORD
5
5D
330
1
100
AcDbSymbolTableRecord
100
AcDbBlockTableRecord
2
*D29
70
0
280
1
281
0
0
BLOCK_RECORD
5
60
330
1
100
AcDbSymbolTableRecord
100
AcDbBlockTableRecord
2
*D8
70
0
280
1
281
0
0
BLOCK_RECORD
5
63
330
1
100
AcDbSymbolTableRecord
100
AcDbBlockTableRecord
2
*D12
70
0
280
1
281
0
0
BLOCK_RECORD
5
66
330
1
100
AcDbSymbolTableRecord
100
AcDbBlockTableRecord
2
*D24
70
0
280
1
281
0
0
BLOCK_RECORD
5
69
330
1
100
AcDbSymbolTableRecord
100
AcDbBlockTableRecord
2
*D30
70
0
280
1
281
0
0
BLOCK_RECORD
5
6C
330
1
100
AcDbSymbolTableRecord
100
AcDbBlockTableRecord
2
*D16
70
0
280
1
281
0
0
BLOCK_RECORD
5
6F
330
1
100
AcDbSymbolTableRecord
100
AcDbBlockTableRecord
2
*D6
70
0
280
1
281
0
0
BLOCK_RECORD
5
72
330
1
100
AcDbSymbolTableRecord
100
AcDbBlockTableRecord
2
*D22
70
0
280
1
281
0
0
BLOCK_RECORD
5
75
330
1
100
AcDbSymbolTableRecord
100
AcDbBlockTableRecord
2
*D25
70
0
280
1
281
0
0
BLOCK_RECORD
5
78
330
1
100
AcDbSymbolTableRecord
100
AcDbBlockTableRecord
2
*D9
70
0
280
1
281
0
0
BLOCK_RECORD
5
7B
330
1
100
AcDbSymbolTableRecord
100
AcDbBlockTableRecord
2
*D34
70
0
280
1
281
0
0
BLOCK_RECORD
5
7E
330
1
100
AcDbSymbolTableRecord
100
AcDbBlockTableRecord
2
*D5
70
0
280
1
281
0
0
BLOCK_RECORD
5
81
330
1
100
AcDbSymbolTableRecord
100
AcDbBlockTableRecord
2
*D21
70
0
280
1
281
0
0
BLOCK_RECORD
5
84
330
1
100
AcDbSymbolTableRecord
100
AcDbBlockTableRecord
2
*D31
70
0
280
1
281
0
0
BLOCK_RECORD
5
87
330
1
100
AcDbSymbolTableRecord
100
AcDbBlockTableRecord
2
*D32
70
0
280
1
281
0
0
BLOCK_RECORD
5
8A
330
1
100
AcDbSymbolTableRecord
100
AcDbBlockTableRecord
2
*D33
70
0
280
1
281
0
0
BLOCK_RECORD
5
8D
330
1
100
AcDbSymbolTableRecord
100
AcDbBlockTableRecord
2
*D14
70
0
280
1
281
0
0
BLOCK_RECORD
5
90
330
1
100
AcDbSymbolTableRecord
100
AcDbBlockTableRecord
2
*D23
70
0
280
1
281
0
0
BLOCK_RECORD
5
93
330
1
100
AcDbSymbolTableRecord
100
AcDbBlockTableRecord
2
*D13
70
0
280
1
281
0
0
BLOCK_RECORD
5
96
330
1
100
AcDbSymbolTableRecord
100
AcDbBlockTableRecord
2
*D3
70
0
280
1
281
0
0
BLOCK_RECORD
5
99
330
1
100
AcDbSymbolTableRecord
100
AcDbBlockTableRecord
2
*D17
70
0
280
1
281
0
0
BLOCK_RECORD
5
9C
330
1
100
AcDbSymbolTableRecord
100
AcDbBlockTableRecord
2
*D15
70
0
280
1
281
0
0
BLOCK_RECORD
5
9F
330
1
100
AcDbSymbolTableRecord
100
AcDbBlockTableRecord
2
*D27
70
0
280
1
281
0
0
BLOCK_RECORD
5
A2
330
1
100
AcDbSymbolTableRecord
100
AcDbBlockTableRecord
2
*D7
70
0
280
1
281
0
0
BLOCK_RECORD
5
A5
330
1
100
AcDbSymbolTableRecord
100
AcDbBlockTableRecord
2
*D2
70
0
280
1
281
0
0
BLOCK_RECORD
5
A8
330
1
100
AcDbSymbolTableRecord
100
AcDbBlockTableRecord
2
*D10
70
0
280
1
281
0
0
BLOCK_RECORD
5
AB
330
1
100
AcDbSymbolTableRecord
100
AcDbBlockTableRecord
2
*D1
70
0
280
1
281
0
0
BLOCK_RECORD
5
AE
330
1
100
AcDbSymbolTableRecord
100
AcDbBlockTableRecord
2
*D18
70
0
280
1
281
0
0
BLOCK_RECORD
5
B1
330
1
100
AcDbSymbolTableRecord
100
AcDbBlockTableRecord
2
*D28
70
0
280
1
281
0
0
ENDTAB
0
ENDSEC
0
SECTION
2
BLOCKS
0
BLOCK
5
20
330
1F
100
AcDbEntity
8
0
100
AcDbBlockBegin
2
*Model_Space
70
0
10
0
20
0
30
0
3
*Model_Space
1

0
ENDBLK
5
21
330
1F
100
AcDbEntity
8
0
100
AcDbBlockEnd
0
BLOCK
5
1C
330
1B
100
AcDbEntity
8
0
100
AcDbBlockBegin
2
*Paper_Space
70
0
10
0
20
0
30
0
3
*Paper_Space
1

0
ENDBLK
5
1D
330
1F
100
AcDbEntity
8
0
100
AcDbBlockEnd
0
BLOCK
5
4F
330
4E
100
AcDbEntity
8
0
100
AcDbBlockBegin
2
*D19
70
1
10
0
20
0
3
*D19
1

0
LINE
5
B4
100
AcDbEntity
8
Dimensions
6
CONTINUOUS
62
7
370
0
100
AcDbLine
10
265
20
60
11
300
21
60
0
SOLID
5
B5
100
AcDbEntity
8
Dimensions
6
CONTINUOUS
62
7
370
0
100
AcDbTrace
10
265
20
60
30
0
11
267.5
21
60.4162846578
31
0
12
267.5
22
59.5837153422
32
0
13
267.5
23
59.5837153422
33
0
0
SOLID
5
B6
100
AcDbEntity
8
Dimensions
6
CONTINUOUS
62
7
370
0
100
AcDbTrace
10
300
20
60
30
0
11
297.5
21
59.5837153422
31
0
12
297.5
22
60.4162846578
32
0
13
297.5
23
60.4162846578
33
0
0
MTEXT
5
B7
100
AcDbEntity
8
Dimensions
6
CONTINUOUS
62
7
370
0
100
AcDbMText
10
282.5
20
61.875
30
0
40
2.5
41
3.05555555556
71
5
72
1
1
35
7
standard
210
0
220
0
230
1
50
0
73
2
44
1
0
LINE
5
B8
100
AcDbEntity
8
Dimensions
6
CONTINUOUS
62
7
370
0
100
AcDbLine
10
265
20
69.375
11
265
21
58.75
0
LINE
5
B9
100
AcDbEntity
8
Dimensions
6
CONTINUOUS
62
7
370
0
100
AcDbLine
10
300
20
69.375
11
300
21
58.75
0
ENDBLK
5
50
330
4E
100
AcDbEntity
8
0
100
AcDbBlockEnd
0
BLOCK
5
52
330
51
100
AcDbEntity
8
0
100
AcDbBlockBegin
2
*D4
70
1
10
0
20
0
3
*D4
1

0
LINE
5
BA
100
AcDbEntity
8
Dimensions
6
CONTINUOUS
62
7
370
0
100
AcDbLine
10
20
20
140
11
20
21
120
0
SOLID
5
BB
100
AcDbEntity
8
Dimensions
6
CONTINUOUS
62
7
370
0
100
AcDbTrace
10
20
20
140
30
0
11
20.4162846578
21
137.5
31
0
12
19.5837153422
22
137.5
32
0
13
19.5837153422
23
137.5
33
0
0
SOLID
5
BC
100
AcDbEntity
8
Dimensions
6
CONTINUOUS
62
7
370
0
100
AcDbTrace
10
20
20
120
30
0
11
19.5837153422
21
122.5
31
0
12
20.4162846578
22
122.5
32
0
13
20.4162846578
23
122.5
33
0
0
MTEXT
5
BD
100
AcDbEntity
8
Dimensions
6
CONTINUOUS
62
7
370
0
100
AcDbMText
10
18.125
20
130
30
0
40
2.5
41
3.05555555556
71
5
72
1
1
20
7
standard
210
0
220
0
230
1
50
90
73
2
44
1
0
LINE
5
BE
100
AcDbEntity
8
Dimensions
6
CONTINUOUS
62
7
370
0
100
AcDbLine
10
29.375
20
140
11
18.75
21
140
0
LINE
5
BF
100
AcDbEntity
8
Dimensions
6
CONTINUOUS
62
7
370
0
100
AcDbLine
10
29.375
20
120
11
18.75
21
120
0
ENDBLK
5
53
330
51
100
AcDbEntity
8
0
100
AcDbBlockEnd
0
BLOCK
5
55
330
54
100
AcDbEntity
8
0
100
AcDbBlockBegin
2
*D11
70
1
10
0
20
0
3
*D11
1

0
LINE
5
C0
100
AcDbEntity
8
Dimensions
6
CONTINUOUS
62
7
370
0
100
AcDbLine
10
180
20
80
11
180
21
90
0
SOLID
5
C1
100
AcDbEntity
8
Dimensions
6
CONTINUOUS
62
7
370
0
100
AcDbTrace
10
180
20
80
30
0
11
179.583715342
21
82.5
31
0
12
180.416284658
22
82.5
32
0
13
180.416284658
23
82.5
33
0
0
SOLID
5
C2
100
AcDbEntity
8
Dimensions
6
CONTINUOUS
62
7
370
0
100
AcDbTrace
10
180
20
90
30
0
11
180.416284658
21
87.5
31
0
12
179.583715342
22
87.5
32
0
13
179.583715342
23
87.5
33
0
0
MTEXT
5
C3
100
AcDbEntity
8
Dimensions
6
CONTINUOUS
62
7
370
0
100
AcDbMText
10
178.125
20
85
30
0
40
2.5
41
2.5
71
5
72
1
1
10
7
standard
210
0
220
0
230
1
50
90
73
2
44
1
0
LINE
5
C4
100
AcDbEntity
8
Dimensions
6
CONTINUOUS
62
7
370
0
100
AcDbLine
10
170.625
20
80
11
181.25
21
80
0
LINE
5
C5
100
AcDbEntity
8
Dimensions
6
CONTINUOUS
62
7
370
0
100
AcDbLine
10
170.625
20
90
11
181.25
21
90
0
ENDBLK
5
56
330
54
100
AcDbEntity
8
0
100
AcDbBlockEnd
0
BLOCK
5
58
330
57
100
AcDbEntity
8
0
100
AcDbBlockBegin
2
*D20
70
1
10
0
20
0
3
*D20
1

0
LINE
5
C6
100
AcDbEntity
8
Dimensions
6
CONTINUOUS
62
7
370
0
100
AcDbLine
10
300
20
60
11
320
21
60
0
SOLID
5
C7
100
AcDbEntity
8
Dimensions
6
CONTINUOUS
62
7
370
0
100
AcDbTrace
10
300
20
60
30
0
11
302.5
21
60.4162846578
31
0
12
302.5
22
59.5837153422
32
0
13
302.5
23
59.5837153422
33
0
0
SOLID
5
C8
100
AcDbEntity
8
Dimensions
6
CONTINUOUS
62
7
370
0
100
AcDbTrace
10
320
20
60
30
0
11
317.5
21
59.5837153422
31
0
12
317.5
22
60.4162846578
32
0
13
317.5
23
60.4162846578
33
0
0
MTEXT
5
C9
100
AcDbEntity
8
Dimensions
6
CONTINUOUS
62
7
370
0
100
AcDbMText
10
310
20
61.875
30
0
40
2.5
41
3.05555555556
71
5
72
1
1
20
7
standard
210
0
220
0
230
1
50
0
73
2
44
1
0
LINE
5
CA
100
AcDbEntity
8
Dimensions
6
CONTINUOUS
62
7
370
0
100
AcDbLine
10
300
20
69.375
11
300
21
58.75
0
LINE
5
CB
100
AcDbEntity
8
Dimensions
6
CONTINUOUS
62
7
370
0
100
AcDbLine
10
320
20
69.375
11
320
21
58.75
0
ENDBLK
5
59
330
57
100
AcDbEntity
8
0
100
AcDbBlockEnd
0
BLOCK
5
5B
330
5A
100
AcDbEntity
8
0
100
AcDbBlockBegin
2
*D26
70
1
10
0
20
0
3
*D26
1

0
LINE
5
CC
100
AcDbEntity
8
Dimensions
6
CONTINUOUS
62
7
370
0
100
AcDbLine
10
315
20
150
11
327
21
150
0
SOLID
5
CD
100
AcDbEntity
8
Dimensions
6
CONTINUOUS
62
7
370
0
100
AcDbTrace
10
320
20
150
30
0
11
317.5
21
149.583715342
31
0
12
317.5
22
150.416284658
32
0
13
317.5
23
150.416284658
33
0
0
SOLID
5
CE
100
AcDbEntity
8
Dimensions
6
CONTINUOUS
62
7
370
0
100
AcDbTrace
10
322
20
150
30
0
11
324.5
21
150.416284658
31
0
12
324.5
22
149.583715342
32
0
13
324.5
23
149.583715342
33
0
0
MTEXT
5
CF
100
AcDbEntity
8
Dimensions
6
CONTINUOUS
62
7
370
0
100
AcDbMText
10
321
20
151.875
30
0
40
2.5
41
1.11111111111
71
5
72
1
1
2
7
standard
210
0
220
0
230
1
50
0
73
2
44
1
0
LINE
5
D0
100
AcDbEntity
8
Dimensions
6
CONTINUOUS
62
7
370
0
100
AcDbLine
10
320
20
140.625
11
320
21
151.25
0
LINE
5
D1
100
AcDbEntity
8
Dimensions
6
CONTINUOUS
62
7
370
0
100
AcDbLine
10
322
20
140.625
11
322
21
151.25
0
ENDBLK
5
5C
330
5A
100
AcDbEntity
8
0
100
AcDbBlockEnd
0
BLOCK
5
5E
330
5D
100
AcDbEntity
8
0
100
AcDbBlockBegin
2
*D29
70
1
10
0
20
0
3
*D29
1

0
LINE
5
D2
100
AcDbEntity
8
Dimensions
6
CONTINUOUS
62
7
370
0
100
AcDbLine
10
335
20
150
11
351
21
150
0
SOLID
5
D3
100
AcDbEntity
8
Dimensions
6
CONTINUOUS
62
7
370
0
100
AcDbTrace
10
340
20
150
30
0
11
337.5
21
149.583715342
31
0
12
337.5
22
150.416284658
32
0
13
337.5
23
150.416284658
33
0
0
SOLID
5
D4
100
AcDbEntity
8
Dimensions
6
CONTINUOUS
62
7
370
0
100
AcDbTrace
10
346
20
150
30
0
11
348.5
21
150.416284658
31
0
12
348.5
22
149.583715342
32
0
13
348.5
23
149.583715342
33
0
0
MTEXT
5
D5
100
AcDbEntity
8
Dimensions
6
CONTINUOUS
62
7
370
0
100
AcDbMText
10
343
20
151.875
30
0
40
2.5
41
1.11111111111
71
5
72
1
1
6
7
standard
210
0
220
0
230
1
50
0
73
2
44
1
0
LINE
5
D6
100
AcDbEntity
8
Dimensions
6
CONTINUOUS
62
7
370
0
100
AcDbLine
10
340
20
140.625
11
340
21
151.25
0
LINE
5
D7
100
AcDbEntity
8
Dimensions
6
CONTINUOUS
62
7
370
0
100
AcDbLine
10
346
20
140.625
11
346
21
151.25
0
ENDBLK
5
5F
330
5D
100
AcDbEntity
8
0
100
AcDbBlockEnd
0
BLOCK
5
61
330
60
100
AcDbEntity
8
0
100
AcDbBlockBegin
2
*D8
70
1
10
0
20
0
3
*D8
1

0
LINE
5
D8
100
AcDbEntity
8
Dimensions
6
CONTINUOUS
62
7
370
0
100
AcDbLine
10
20
20
100
11
20
21
90
0
SOLID
5
D9
100
AcDbEntity
8
Dimensions
6
CONTINUOUS
62
7
370
0
100
AcDbTrace
10
20
20
100
30
0
11
20.4162846578
21
97.5
31
0
12
19.5837153422
22
97.5
32
0
13
19.5837153422
23
97.5
33
0
0
SOLID
5
DA
100
AcDbEntity
8
Dimensions
6
CONTINUOUS
62
7
370
0
100
AcDbTrace
10
20
20
90
30
0
11
19.5837153422
21
92.5
31
0
12
20.4162846578
22
92.5
32
0
13
20.4162846578
23
92.5
33
0
0
MTEXT
5
DB
100
AcDbEntity
8
Dimensions
6
CONTINUOUS
62
7
370
0
100
AcDbMText
10
18.125
20
95
30
0
40
2.5
41
2.5
71
5
72
1
1
10
7
standard
210
0
220
0
230
1
50
90
73
2
44
1
0
LINE
5
DC
100
AcDbEntity
8
Dimensions
6
CONTINUOUS
62
7
370
0
100
AcDbLine
10
29.375
20
100
11
18.75
21
100
0
LINE
5
DD
100
AcDbEntity
8
Dimensions
6
CONTINUOUS
62
7
370
0
100
AcDbLine
10
29.375
20
90
11
18.75
21
90
0
ENDBLK
5
62
330
60
100
AcDbEntity
8
0
100
AcDbBlockEnd
0
BLOCK
5
64
330
63
100
AcDbEntity
8
0
100
AcDbBlockBegin
2
*D12
70
1
10
0
20
0
3
*D12
1

0
LINE
5
DE
100
AcDbEntity
8
Dimensions
6
CONTINUOUS
62
7
370
0
100
AcDbLine
10
180
20
90
11
180
21
97
0
SOLID
5
DF
100
AcDbEntity
8
Dimensions
6
CONTINUOUS
62
7
370
0
100
AcDbTrace
10
180
20
90
30
0
11
179.583715342
21
92.5
31
0
12
180.416284658
22
92.5
32
0
13
180.416284658
23
92.5
33
0
0
SOLID
5
E0
100
AcDbEntity
8
Dimensions
6
CONTINUOUS
62
7
370
0
100
AcDbTrace
10
180
20
97
30
0
11
180.416284658
21
94.5
31
0
12
179.583715342
22
94.5
32
0
13
179.583715342
23
94.5
33
0
0
MTEXT
5
E1
100
AcDbEntity
8
Dimensions
6
CONTINUOUS
62
7
370
0
100
AcDbMText
10
178.125
20
93.5
30
0
40
2.5
41
1.11111111111
71
5
72
1
1
7
7
standard
210
0
220
0
230
1
50
90
73
2
44
1
0
LINE
5
E2
100
AcDbEntity
8
Dimensions
6
CONTINUOUS
62
7
370
0
100
AcDbLine
10
170.625
20
90
11
181.25
21
90
0
LINE
5
E3
100
AcDbEntity
8
Dimensions
6
CONTINUOUS
62
7
370
0
100
AcDbLine
10
170.625
20
97
11
181.25
21
97
0
ENDBLK
5
65
330
63
100
AcDbEntity
8
0
100
AcDbBlockEnd
0
BLOCK
5
67
330
66
100
AcDbEntity
8
0
100
AcDbBlockBegin
2
*D24
70
1
10
0
20
0
3
*D24
1

0
LINE
5
E4
100
AcDbEntity
8
Dimensions
6
CONTINUOUS
62
7
370
0
100
AcDbLine
10
355
20
60
11
370
21
60
0
SOLID
5
E5
100
AcDbEntity
8
Dimensions
6
CONTINUOUS
62
7
370
0
100
AcDbTrace
10
355
20
60
30
0
11
357.5
21
60.4162846578
31
0
12
357.5
22
59.5837153422
32
0
13
357.5
23
59.5837153422
33
0
0
SOLID
5
E6
100
AcDbEntity
8
Dimensions
6
CONTINUOUS
62
7
370
0
100
AcDbTrace
10
370
20
60
30
0
11
367.5
21
59.5837153422
31
0
12
367.5
22
60.4162846578
32
0
13
367.5
23
60.4162846578
33
0
0
MTEXT
5
E7
100
AcDbEntity
8
Dimensions
6
CONTINUOUS
62
7
370
0
100
AcDbMText
10
362.5
20
61.875
30
0
40
2.5
41
2.5
71
5
72
1
1
15
7
standard
210
0
220
0
230
1
50
0
73
2
44
1
0
LINE
5
E8
100
AcDbEntity
8
Dimensions
6
CONTINUOUS
62
7
370
0
100
AcDbLine
10
355
20
69.375
11
355
21
58.75
0
LINE
5
E9
100
AcDbEntity
8
Dimensions
6
CONTINUOUS
62
7
370
0
100
AcDbLine
10
370
20
69.375
11
370
21
58.75
0
ENDBLK
5
68
330
66
100
AcDbEntity
8
0
100
AcDbBlockEnd
0
BLOCK
5
6A
330
69
100
AcDbEntity
8
0
100
AcDbBlockBegin
2
*D30
70
1
10
0
20
0
3
*D30
1

0
LINE
5
EA
100
AcDbEntity
8
Dimensions
6
CONTINUOUS
62
7
370
0
100
AcDbLine
10
400
20
95
11
400
21
118
0
SOLID
5
EB
100
AcDbEntity
8
Dimensions
6
CONTINUOUS
62
7
370
0
100
AcDbTrace
10
400
20
95
30
0
11
399.583715342
21
97.5
31
0
12
400.416284658
22
97.5
32
0
13
400.416284658
23
97.5
33
0
0
SOLID
5
EC
100
AcDbEntity
8
Dimensions
6
CONTINUOUS
62
7
370
0
100
AcDbTrace
10
400
20
118
30
0
11
400.416284658
21
115.5
31
0
12
399.583715342
22
115.5
32
0
13
399.583715342
23
115.5
33
0
0
MTEXT
5
ED
100
AcDbEntity
8
Dimensions
6
CONTINUOUS
62
7
370
0
100
AcDbMText
10
398.125
20
106.5
30
0
40
2.5
41
3.05555555556
71
5
72
1
1
23
7
standard
210
0
220
0
230
1
50
90
73
2
44
1
0
LINE
5
EE
100
AcDbEntity
8
Dimensions
6
CONTINUOUS
62
7
370
0
100
AcDbLine
10
390.625
20
95
11
401.25
21
95
0
LINE
5
EF
100
AcDbEntity
8
Dimensions
6
CONTINUOUS
62
7
370
0
100
AcDbLine
10
390.625
20
118
11
401.25
21
118
0
ENDBLK
5
6B
330
69
100
AcDbEntity
8
0
100
AcDbBlockEnd
0
BLOCK
5
6D
330
6C
100
AcDbEntity
8
0
100
AcDbBlockBegin
2
*D16
70
1
10
0
20
0
3
*D16
1

0
LINE
5
F0
100
AcDbEntity
8
Dimensions
6
CONTINUOUS
62
7
370
0
100
AcDbLine
10
92
20
180
11
100
21
180
0
SOLID
5
F1
100
AcDbEntity
8
Dimensions
6
CONTINUOUS
62
7
370
0
100
AcDbTrace
10
92
20
180
30
0
11
94.5
21
180.416284658
31
0
12
94.5
22
179.583715342
32
0
13
94.5
23
179.583715342
33
0
0
SOLID
5
F2
100
AcDbEntity
8
Dimensions
6
CONTINUOUS
62
7
370
0
100
AcDbTrace
10
100
20
180
30
0
11
97.5
21
179.583715342
31
0
12
97.5
22
180.416284658
32
0
13
97.5
23
180.416284658
33
0
0
MTEXT
5
F3
100
AcDbEntity
8
Dimensions
6
CONTINUOUS
62
7
370
0
100
AcDbMText
10
96
20
181.875
30
0
40
2.5
41
1.11111111111
71
5
72
1
1
8
7
standard
210
0
220
0
230
1
50
0
73
2
44
1
0
LINE
5
F4
100
AcDbEntity
8
Dimensions
6
CONTINUOUS
62
7
370
0
100
AcDbLine
10
92
20
170.625
11
92
21
181.25
0
LINE
5
F5
100
AcDbEntity
8
Dimensions
6
CONTINUOUS
62
7
370
0
100
AcDbLine
10
100
20
170.625
11
100
21
181.25
0
ENDBLK
5
6E
330
6C
100
AcDbEntity
8
0
100
AcDbBlockEnd
0
BLOCK
5
70
330
6F
100
AcDbEntity
8
0
100
AcDbBlockBegin
2
*D6
70
1
10
0
20
0
3
*D6
1

0
LINE
5
F6
100
AcDbEntity
8
Dimensions
6
CONTINUOUS
62
7
370
0
100
AcDbLine
10
20
20
118
11
20
21
102
0
SOLID
5
F7
100
AcDbEntity
8
Dimensions
6
CONTINUOUS
62
7
370
0
100
AcDbTrace
10
20
20
113
30
0
11
19.5837153422
21
115.5
31
0
12
20.4162846578
22
115.5
32
0
13
20.4162846578
23
115.5
33
0
0
SOLID
5
F8
100
AcDbEntity
8
Dimensions
6
CONTINUOUS
62
7
370
0
100
AcDbTrace
10
20
20
107
30
0
11
20.4162846578
21
104.5
31
0
12
19.5837153422
22
104.5
32
0
13
19.5837153422
23
104.5
33
0
0
MTEXT
5
F9
100
AcDbEntity
8
Dimensions
6
CONTINUOUS
62
7
370
0
100
AcDbMText
10
18.125
20
110
30
0
40
2.5
41
1.11111111111
71
5
72
1
1
6
7
standard
210
0
220
0
230
1
50
90
73
2
44
1
0
LINE
5
FA
100
AcDbEntity
8
Dimensions
6
CONTINUOUS
62
7
370
0
100
AcDbLine
10
29.375
20
113
11
18.75
21
113
0
LINE
5
FB
100
AcDbEntity
8
Dimensions
6
CONTINUOUS
62
7
370
0
100
AcDbLine
10
29.375
20
107
11
18.75
21
107
0
ENDBLK
5
71
330
6F
100
AcDbEntity
8
0
100
AcDbBlockEnd
0
BLOCK
5
73
330
72
100
AcDbEntity
8
0
100
AcDbBlockBegin
2
*D22
70
1
10
0
20
0
3
*D22
1

0
LINE
5
FC
100
AcDbEntity
8
Dimensions
6
CONTINUOUS
62
7
370
0
100
AcDbLine
10
330
20
60
11
345
21
60
0
SOLID
5
FD
100
AcDbEntity
8
Dimensions
6
CONTINUOUS
62
7
370
0
100
AcDbTrace
10
330
20
60
30
0
11
332.5
21
60.4162846578
31
0
12
332.5
22
59.5837153422
32
0
13
332.5
23
59.5837153422
33
0
0
SOLID
5
FE
100
AcDbEntity
8
Dimensions
6
CONTINUOUS
62
7
370
0
100
AcDbTrace
10
345
20
60
30
0
11
342.5
21
59.5837153422
31
0
12
342.5
22
60.4162846578
32
0
13
342.5
23
60.4162846578
33
0
0
MTEXT
5
FF
100
AcDbEntity
8
Dimensions
6
CONTINUOUS
62
7
370
0
100
AcDbMText
10
337.5
20
61.875
30
0
40
2.5
41
2.5
71
5
72
1
1
15
7
standard
210
0
220
0
230
1
50
0
73
2
44
1
0
LINE
5
100
100
AcDbEntity
8
Dimensions
6
CONTINUOUS
62
7
370
0
100
AcDbLine
10
330
20
69.375
11
330
21
58.75
0
LINE
5
101
100
AcDbEntity
8
Dimensions
6
CONTINUOUS
62
7
370
0
100
AcDbLine
10
345
20
69.375
11
345
21
58.75
0
ENDBLK
5
74
330
72
100
AcDbEntity
8
0
100
AcDbBlockEnd
0
BLOCK
5
76
330
75
100
AcDbEntity
8
0
100
AcDbBlockBegin
2
*D25
70
1
10
0
20
0
3
*D25
1

0
LINE
5
102
100
AcDbEntity
8
Dimensions
6
CONTINUOUS
62
7
370
0
100
AcDbLine
10
370
20
60
11
380
21
60
0
SOLID
5
103
100
AcDbEntity
8
Dimensions
6
CONTINUOUS
62
7
370
0
100
AcDbTrace
10
370
20
60
30
0
11
372.5
21
60.4162846578
31
0
12
372.5
22
59.5837153422
32
0
13
372.5
23
59.5837153422
33
0
0
SOLID
5
104
100
AcDbEntity
8
Dimensions
6
CONTINUOUS
62
7
370
0
100
AcDbTrace
10
380
20
60
30
0
11
377.5
21
59.5837153422
31
0
12
377.5
22
60.4162846578
32
0
13
377.5
23
60.4162846578
33
0
0
MTEXT
5
105
100
AcDbEntity
8
Dimensions
6
CONTINUOUS
62
7
370
0
100
AcDbMText
10
375
20
61.875
30
0
40
2.5
41
2.5
71
5
72
1
1
10
7
standard
210
0
220
0
230
1
50
0
73
2
44
1
0
LINE
5
106
100
AcDbEntity
8
Dimensions
6
CONTINUOUS
62
7
370
0
100
AcDbLine
10
370
20
69.375
11
370
21
58.75
0
LINE
5
107
100
AcDbEntity
8
Dimensions
6
CONTINUOUS
62
7
370
0
100
AcDbLine
10
380
20
69.375
11
380
21
58.75
0
ENDBLK
5
77
330
75
100
AcDbEntity
8
0
100
AcDbBlockEnd
0
BLOCK
5
79
330
78
100
AcDbEntity
8
0
100
AcDbBlockBegin
2
*D9
70
1
10
0
20
0
3
*D9
1

0
LINE
5
108
100
AcDbEntity
8
Dimensions
6
CONTINUOUS
62
7
370
0
100
AcDbLine
10
20
20
90
11
20
21
55
0
SOLID
5
109
100
AcDbEntity
8
Dimensions
6
CONTINUOUS
62
7
370
0
100
AcDbTrace
10
20
20
90
30
0
11
20.4162846578
21
87.5
31
0
12
19.5837153422
22
87.5
32
0
13
19.5837153422
23
87.5
33
0
0
SOLID
5
10A
100
AcDbEntity
8
Dimensions
6
CONTINUOUS
62
7
370
0
100
AcDbTrace
10
20
20
55
30
0
11
19.5837153422
21
57.5
31
0
12
20.4162846578
22
57.5
32
0
13
20.4162846578
23
57.5
33
0
0
MTEXT
5
10B
100
AcDbEntity
8
Dimensions
6
CONTINUOUS
62
7
370
0
100
AcDbMText
10
18.125
20
72.5
30
0
40
2.5
41
3.05555555556
71
5
72
1
1
35
7
standard
210
0
220
0
230
1
50
90
73
2
44
1
0
LINE
5
10C
100
AcDbEntity
8
Dimensions
6
CONTINUOUS
62
7
370
0
100
AcDbLine
10
29.375
20
90
11
18.75
21
90
0
LINE
5
10D
100
AcDbEntity
8
Dimensions
6
CONTINUOUS
62
7
370
0
100
AcDbLine
10
29.375
20
55
11
18.75
21
55
0
ENDBLK
5
7A
330
78
100
AcDbEntity
8
0
100
AcDbBlockEnd
0
BLOCK
5
7C
330
7B
100
AcDbEntity
8
0
100
AcDbBlockBegin
2
*D34
70
1
10
0
20
0
3
*D34
1

0
LINE
5
10E
100
AcDbEntity
8
Dimensions
6
CONTINUOUS
62
7
370
0
100
AcDbLine
10
114
20
180
11
126
21
180
0
SOLID
5
10F
100
AcDbEntity
8
Dimensions
6
CONTINUOUS
62
7
370
0
100
AcDbTrace
10
114
20
180
30
0
11
116.5
21
180.416284658
31
0
12
116.5
22
179.583715342
32
0
13
116.5
23
179.583715342
33
0
0
SOLID
5
110
100
AcDbEntity
8
Dimensions
6
CONTINUOUS
62
7
370
0
100
AcDbTrace
10
126
20
180
30
0
11
123.5
21
179.583715342
31
0
12
123.5
22
180.416284658
32
0
13
123.5
23
180.416284658
33
0
0
MTEXT
5
111
100
AcDbEntity
8
Dimensions
6
CONTINUOUS
62
7
370
0
100
AcDbMText
10
120
20
181.875
30
0
40
2.5
41
2.5
71
5
72
1
1
12
7
standard
210
0
220
0
230
1
50
0
73
2
44
1
0
LINE
5
112
100
AcDbEntity
8
Dimensions
6
CONTINUOUS
62
7
370
0
100
AcDbLine
10
114
20
170.625
11
114
21
181.25
0
LINE
5
113
100
AcDbEntity
8
Dimensions
6
CONTINUOUS
62
7
370
0
100
AcDbLine
10
126
20
170.625
11
126
21
181.25
0
ENDBLK
5
7D
330
7B
100
AcDbEntity
8
0
100
AcDbBlockEnd
0
BLOCK
5
7F
330
7E
100
AcDbEntity
8
0
100
AcDbBlockBegin
2
*D5
70
1
10
0
20
0
3
*D5
1

0
LINE
5
114
100
AcDbEntity
8
Dimensions
6
CONTINUOUS
62
7
370
0
100
AcDbLine
10
20
20
120
11
20
21
113
0
SOLID
5
115
100
AcDbEntity
8
Dimensions
6
CONTINUOUS
62
7
370
0
100
AcDbTrace
10
20
20
120
30
0
11
20.4162846578
21
117.5
31
0
12
19.5837153422
22
117.5
32
0
13
19.5837153422
23
117.5
33
0
0
SOLID
5
116
100
AcDbEntity
8
Dimensions
6
CONTINUOUS
62
7
370
0
100
AcDbTrace
10
20
20
113
30
0
11
19.5837153422
21
115.5
31
0
12
20.4162846578
22
115.5
32
0
13
20.4162846578
23
115.5
33
0
0
MTEXT
5
117
100
AcDbEntity
8
Dimensions
6
CONTINUOUS
62
7
370
0
100
AcDbMText
10
18.125
20
116.5
30
0
40
2.5
41
1.11111111111
71
5
72
1
1
7
7
standard
210
0
220
0
230
1
50
90
73
2
44
1
0
LINE
5
118
100
AcDbEntity
8
Dimensions
6
CONTINUOUS
62
7
370
0
100
AcDbLine
10
29.375
20
120
11
18.75
21
120
0
LINE
5
119
100
AcDbEntity
8
Dimensions
6
CONTINUOUS
62
7
370
0
100
AcDbLine
10
29.375
20
113
11
18.75
21
113
0
ENDBLK
5
80
330
7E
100
AcDbEntity
8
0
100
AcDbBlockEnd
0
BLOCK
5
82
330
81
100
AcDbEntity
8
0
100
AcDbBlockBegin
2
*D21
70
1
10
0
20
0
3
*D21
1

0
LINE
5
11A
100
AcDbEntity
8
Dimensions
6
CONTINUOUS
62
7
370
0
100
AcDbLine
10
320
20
61
11
330
21
61
0
SOLID
5
11B
100
AcDbEntity
8
Dimensions
6
CONTINUOUS
62
7
370
0
100
AcDbTrace
10
320
20
61
30
0
11
322.5
21
61.4162846578
31
0
12
322.5
22
60.5837153422
32
0
13
322.5
23
60.5837153422
33
0
0
SOLID
5
11C
100
AcDbEntity
8
Dimensions
6
CONTINUOUS
62
7
370
0
100
AcDbTrace
10
330
20
61
30
0
11
327.5
21
60.5837153422
31
0
12
327.5
22
61.4162846578
32
0
13
327.5
23
61.4162846578
33
0
0
MTEXT
5
11D
100
AcDbEntity
8
Dimensions
6
CONTINUOUS
62
7
370
0
100
AcDbMText
10
325
20
62.875
30
0
40
2.5
41
2.5
71
5
72
1
1
10
7
standard
210
0
220
0
230
1
50
0
73
2
44
1
0
LINE
5
11E
100
AcDbEntity
8
Dimensions
6
CONTINUOUS
62
7
370
0
100
AcDbLine
10
320
20
69.375
11
320
21
59.75
0
LINE
5
11F
100
AcDbEntity
8
Dimensions
6
CONTINUOUS
62
7
370
0
100
AcDbLine
10
330
20
69.375
11
330
21
59.75
0
ENDBLK
5
83
330
81
100
AcDbEntity
8
0
100
AcDbBlockEnd
0
BLOCK
5
85
330
84
100
AcDbEntity
8
0
100
AcDbBlockBegin
2
*D31
70
1
10
0
20
0
3
*D31
1

0
LINE
5
120
100
AcDbEntity
8
Dimensions
6
CONTINUOUS
62
7
370
0
100
AcDbLine
10
420
20
80
11
420
21
135
0
SOLID
5
121
100
AcDbEntity
8
Dimensions
6
CONTINUOUS
62
7
370
0
100
AcDbTrace
10
420
20
80
30
0
11
419.583715342
21
82.5
31
0
12
420.416284658
22
82.5
32
0
13
420.416284658
23
82.5
33
0
0
SOLID
5
122
100
AcDbEntity
8
Dimensions
6
CONTINUOUS
62
7
370
0
100
AcDbTrace
10
420
20
135
30
0
11
420.416284658
21
132.5
31
0
12
419.583715342
22
132.5
32
0
13
419.583715342
23
132.5
33
0
0
MTEXT
5
123
100
AcDbEntity
8
Dimensions
6
CONTINUOUS
62
7
370
0
100
AcDbMText
10
418.125
20
107.5
30
0
40
2.5
41
3.05555555556
71
5
72
1
1
55
7
standard
210
0
220
0
230
1
50
90
73
2
44
1
0
LINE
5
124
100
AcDbEntity
8
Dimensions
6
CONTINUOUS
62
7
370
0
100
AcDbLine
10
410.625
20
80
11
421.25
21
80
0
LINE
5
125
100
AcDbEntity
8
Dimensions
6
CONTINUOUS
62
7
370
0
100
AcDbLine
10
410.625
20
135
11
421.25
21
135
0
ENDBLK
5
86
330
84
100
AcDbEntity
8
0
100
AcDbBlockEnd
0
BLOCK
5
88
330
87
100
AcDbEntity
8
0
100
AcDbBlockBegin
2
*D32
70
1
10
0
20
0
3
*D32
1

0
LINE
5
126
100
AcDbEntity
8
Dimensions
6
CONTINUOUS
62
7
370
0
100
AcDbLine
10
95
20
180
11
107
21
180
0
SOLID
5
127
100
AcDbEntity
8
Dimensions
6
CONTINUOUS
62
7
370
0
100
AcDbTrace
10
100
20
180
30
0
11
97.5
21
179.583715342
31
0
12
97.5
22
180.416284658
32
0
13
97.5
23
180.416284658
33
0
0
SOLID
5
128
100
AcDbEntity
8
Dimensions
6
CONTINUOUS
62
7
370
0
100
AcDbTrace
10
102
20
180
30
0
11
104.5
21
180.416284658
31
0
12
104.5
22
179.583715342
32
0
13
104.5
23
179.583715342
33
0
0
MTEXT
5
129
100
AcDbEntity
8
Dimensions
6
CONTINUOUS
62
7
370
0
100
AcDbMText
10
101
20
181.875
30
0
40
2.5
41
1.11111111111
71
5
72
1
1
2
7
standard
210
0
220
0
230
1
50
0
73
2
44
1
0
LINE
5
12A
100
AcDbEntity
8
Dimensions
6
CONTINUOUS
62
7
370
0
100
AcDbLine
10
100
20
170.625
11
100
21
181.25
0
LINE
5
12B
100
AcDbEntity
8
Dimensions
6
CONTINUOUS
62
7
370
0
100
AcDbLine
10
102
20
170.625
11
102
21
181.25
0
ENDBLK
5
89
330
87
100
AcDbEntity
8
0
100
AcDbBlockEnd
0
BLOCK
5
8B
330
8A
100
AcDbEntity
8
0
100
AcDbBlockBegin
2
*D33
70
1
10
0
20
0
3
*D33
1

0
LINE
5
12C
100
AcDbEntity
8
Dimensions
6
CONTINUOUS
62
7
370
0
100
AcDbLine
10
102
20
180
11
114
21
180
0
SOLID
5
12D
100
AcDbEntity
8
Dimensions
6
CONTINUOUS
62
7
370
0
100
AcDbTrace
10
102
20
180
30
0
11
104.5
21
180.416284658
31
0
12
104.5
22
179.583715342
32
0
13
104.5
23
179.583715342
33
0
0
SOLID
5
12E
100
AcDbEntity
8
Dimensions
6
CONTINUOUS
62
7
370
0
100
AcDbTrace
10
114
20
180
30
0
11
111.5
21
179.583715342
31
0
12
111.5
22
180.416284658
32
0
13
111.5
23
180.416284658
33
0
0
MTEXT
5
12F
100
AcDbEntity
8
Dimensions
6
CONTINUOUS
62
7
370
0
100
AcDbMText
10
108
20
181.875
30
0
40
2.5
41
2.5
71
5
72
1
1
12
7
standard
210
0
220
0
230
1
50
0
73
2
44
1
0
LINE
5
130
100
AcDbEntity
8
Dimensions
6
CONTINUOUS
62
7
370
0
100
AcDbLine
10
102
20
170.625
11
102
21
181.25
0
LINE
5
131
100
AcDbEntity
8
Dimensions
6
CONTINUOUS
62
7
370
0
100
AcDbLine
10
114
20
170.625
11
114
21
181.25
0
ENDBLK
5
8C
330
8A
100
AcDbEntity
8
0
100
AcDbBlockEnd
0
BLOCK
5
8E
330
8D
100
AcDbEntity
8
0
100
AcDbBlockBegin
2
*D14
70
1
10
0
20
0
3
*D14
1

0
LINE
5
132
100
AcDbEntity
8
Dimensions
6
CONTINUOUS
62
7
370
0
100
AcDbLine
10
80
20
180
11
88
21
180
0
SOLID
5
133
100
AcDbEntity
8
Dimensions
6
CONTINUOUS
62
7
370
0
100
AcDbTrace
10
80
20
180
30
0
11
82.5
21
180.416284658
31
0
12
82.5
22
179.583715342
32
0
13
82.5
23
179.583715342
33
0
0
SOLID
5
134
100
AcDbEntity
8
Dimensions
6
CONTINUOUS
62
7
370
0
100
AcDbTrace
10
88
20
180
30
0
11
85.5
21
179.583715342
31
0
12
85.5
22
180.416284658
32
0
13
85.5
23
180.416284658
33
0
0
MTEXT
5
135
100
AcDbEntity
8
Dimensions
6
CONTINUOUS
62
7
370
0
100
AcDbMText
10
84
20
181.875
30
0
40
2.5
41
1.11111111111
71
5
72
1
1
8
7
standard
210
0
220
0
230
1
50
0
73
2
44
1
0
LINE
5
136
100
AcDbEntity
8
Dimensions
6
CONTINUOUS
62
7
370
0
100
AcDbLine
10
80
20
170.625
11
80
21
181.25
0
LINE
5
137
100
AcDbEntity
8
Dimensions
6
CONTINUOUS
62
7
370
0
100
AcDbLine
10
88
20
170.625
11
88
21
181.25
0
ENDBLK
5
8F
330
8D
100
AcDbEntity
8
0
100
AcDbBlockEnd
0
BLOCK
5
91
330
90
100
AcDbEntity
8
0
100
AcDbBlockBegin
2
*D23
70
1
10
0
20
0
3
*D23
1

0
LINE
5
138
100
AcDbEntity
8
Dimensions
6
CONTINUOUS
62
7
370
0
100
AcDbLine
10
345
20
61
11
355
21
61
0
SOLID
5
139
100
AcDbEntity
8
Dimensions
6
CONTINUOUS
62
7
370
0
100
AcDbTrace
10
345
20
61
30
0
11
347.5
21
61.4162846578
31
0
12
347.5
22
60.5837153422
32
0
13
347.5
23
60.5837153422
33
0
0
SOLID
5
13A
100
AcDbEntity
8
Dimensions
6
CONTINUOUS
62
7
370
0
100
AcDbTrace
10
355
20
61
30
0
11
352.5
21
60.5837153422
31
0
12
352.5
22
61.4162846578
32
0
13
352.5
23
61.4162846578
33
0
0
MTEXT
5
13B
100
AcDbEntity
8
Dimensions
6
CONTINUOUS
62
7
370
0
100
AcDbMText
10
350
20
62.875
30
0
40
2.5
41
2.5
71
5
72
1
1
10
7
standard
210
0
220
0
230
1
50
0
73
2
44
1
0
LINE
5
13C
100
AcDbEntity
8
Dimensions
6
CONTINUOUS
62
7
370
0
100
AcDbLine
10
345
20
69.375
11
345
21
59.75
0
LINE
5
13D
100
AcDbEntity
8
Dimensions
6
CONTINUOUS
62
7
370
0
100
AcDbLine
10
355
20
69.375
11
355
21
59.75
0
ENDBLK
5
92
330
90
100
AcDbEntity
8
0
100
AcDbBlockEnd
0
BLOCK
5
94
330
93
100
AcDbEntity
8
0
100
AcDbBlockBegin
2
*D13
70
1
10
0
20
0
3
*D13
1

0
LINE
5
13E
100
AcDbEntity
8
Dimensions
6
CONTINUOUS
62
7
370
0
100
AcDbLine
10
180
20
92
11
180
21
105
0
SOLID
5
13F
100
AcDbEntity
8
Dimensions
6
CONTINUOUS
62
7
370
0
100
AcDbTrace
10
180
20
97
30
0
11
180.416284658
21
94.5
31
0
12
179.583715342
22
94.5
32
0
13
179.583715342
23
94.5
33
0
0
SOLID
5
140
100
AcDbEntity
8
Dimensions
6
CONTINUOUS
62
7
370
0
100
AcDbTrace
10
180
20
100
30
0
11
179.583715342
21
102.5
31
0
12
180.416284658
22
102.5
32
0
13
180.416284658
23
102.5
33
0
0
MTEXT
5
141
100
AcDbEntity
8
Dimensions
6
CONTINUOUS
62
7
370
0
100
AcDbMText
10
178.125
20
98.5
30
0
40
2.5
41
1.11111111111
71
5
72
1
1
3
7
standard
210
0
220
0
230
1
50
90
73
2
44
1
0
LINE
5
142
100
AcDbEntity
8
Dimensions
6
CONTINUOUS
62
7
370
0
100
AcDbLine
10
170.625
20
97
11
181.25
21
97
0
LINE
5
143
100
AcDbEntity
8
Dimensions
6
CONTINUOUS
62
7
370
0
100
AcDbLine
10
170.625
20
100
11
181.25
21
100
0
ENDBLK
5
95
330
93
100
AcDbEntity
8
0
100
AcDbBlockEnd
0
BLOCK
5
97
330
96
100
AcDbEntity
8
0
100
AcDbBlockBegin
2
*D3
70
1
10
0
20
0
3
*D3
1

0
LINE
5
144
100
AcDbEntity
8
Dimensions
6
CONTINUOUS
62
7
370
0
100
AcDbLine
10
20
20
147
11
20
21
140
0
SOLID
5
145
100
AcDbEntity
8
Dimensions
6
CONTINUOUS
62
7
370
0
100
AcDbTrace
10
20
20
147
30
0
11
20.4162846578
21
144.5
31
0
12
19.5837153422
22
144.5
32
0
13
19.5837153422
23
144.5
33
0
0
SOLID
5
146
100
AcDbEntity
8
Dimensions
6
CONTINUOUS
62
7
370
0
100
AcDbTrace
10
20
20
140
30
0
11
19.5837153422
21
142.5
31
0
12
20.4162846578
22
142.5
32
0
13
20.4162846578
23
142.5
33
0
0
MTEXT
5
147
100
AcDbEntity
8
Dimensions
6
CONTINUOUS
62
7
370
0
100
AcDbMText
10
18.125
20
143.5
30
0
40
2.5
41
1.11111111111
71
5
72
1
1
7
7
standard
210
0
220
0
230
1
50
90
73
2
44
1
0
LINE
5
148
100
AcDbEntity
8
Dimensions
6
CONTINUOUS
62
7
370
0
100
AcDbLine
10
29.375
20
147
11
18.75
21
147
0
LINE
5
149
100
AcDbEntity
8
Dimensions
6
CONTINUOUS
62
7
370
0
100
AcDbLine
10
29.375
20
140
11
18.75
21
140
0
ENDBLK
5
98
330
96
100
AcDbEntity
8
0
100
AcDbBlockEnd
0
BLOCK
5
9A
330
99
100
AcDbEntity
8
0
100
AcDbBlockBegin
2
*D17
70
1
10
0
20
0
3
*D17
1

0
LINE
5
14A
100
AcDbEntity
8
Dimensions
6
CONTINUOUS
62
7
370
0
100
AcDbLine
10
45
20
20
11
160
21
20
0
SOLID
5
14B
100
AcDbEntity
8
Dimensions
6
CONTINUOUS
62
7
370
0
100
AcDbTrace
10
45
20
20
30
0
11
47.5
21
20.4162846578
31
0
12
47.5
22
19.5837153422
32
0
13
47.5
23
19.5837153422
33
0
0
SOLID
5
14C
100
AcDbEntity
8
Dimensions
6
CONTINUOUS
62
7
370
0
100
AcDbTrace
10
160
20
20
30
0
11
157.5
21
19.5837153422
31
0
12
157.5
22
20.4162846578
32
0
13
157.5
23
20.4162846578
33
0
0
MTEXT
5
14D
100
AcDbEntity
8
Dimensions
6
CONTINUOUS
62
7
370
0
100
AcDbMText
10
102.5
20
21.875
30
0
40
2.5
41
3.88888888889
71
5
72
1
1
115
7
standard
210
0
220
0
230
1
50
0
73
2
44
1
0
LINE
5
14E
100
AcDbEntity
8
Dimensions
6
CONTINUOUS
62
7
370
0
100
AcDbLine
10
45
20
29.375
11
45
21
18.75
0
LINE
5
14F
100
AcDbEntity
8
Dimensions
6
CONTINUOUS
62
7
370
0
100
AcDbLine
10
160
20
29.375
11
160
21
18.75
0
ENDBLK
5
9B
330
99
100
AcDbEntity
8
0
100
AcDbBlockEnd
0
BLOCK
5
9D
330
9C
100
AcDbEntity
8
0
100
AcDbBlockBegin
2
*D15
70
1
10
0
20
0
3
*D15
1

0
LINE
5
150
100
AcDbEntity
8
Dimensions
6
CONTINUOUS
62
7
370
0
100
AcDbLine
10
83
20
180
11
97
21
180
0
SOLID
5
151
100
AcDbEntity
8
Dimensions
6
CONTINUOUS
62
7
370
0
100
AcDbTrace
10
88
20
180
30
0
11
85.5
21
179.583715342
31
0
12
85.5
22
180.416284658
32
0
13
85.5
23
180.416284658
33
0
0
SOLID
5
152
100
AcDbEntity
8
Dimensions
6
CONTINUOUS
62
7
370
0
100
AcDbTrace
10
92
20
180
30
0
11
94.5
21
180.416284658
31
0
12
94.5
22
179.583715342
32
0
13
94.5
23
179.583715342
33
0
0
MTEXT
5
153
100
AcDbEntity
8
Dimensions
6
CONTINUOUS
62
7
370
0
100
AcDbMText
10
90
20
181.875
30
0
40
2.5
41
1.38888888889
71
5
72
1
1
4
7
standard
210
0
220
0
230
1
50
0
73
2
44
1
0
LINE
5
154
100
AcDbEntity
8
Dimensions
6
CONTINUOUS
62
7
370
0
100
AcDbLine
10
88
20
170.625
11
88
21
181.25
0
LINE
5
155
100
AcDbEntity
8
Dimensions
6
CONTINUOUS
62
7
370
0
100
AcDbLine
10
92
20
170.625
11
92
21
181.25
0
ENDBLK
5
9E
330
9C
100
AcDbEntity
8
0
100
AcDbBlockEnd
0
BLOCK
5
A0
330
9F
100
AcDbEntity
8
0
100
AcDbBlockBegin
2
*D27
70
1
10
0
20
0
3
*D27
1

0
LINE
5
156
100
AcDbEntity
8
Dimensions
6
CONTINUOUS
62
7
370
0
100
AcDbLine
10
322
20
150
11
334
21
150
0
SOLID
5
157
100
AcDbEntity
8
Dimensions
6
CONTINUOUS
62
7
370
0
100
AcDbTrace
10
322
20
150
30
0
11
324.5
21
150.416284658
31
0
12
324.5
22
149.583715342
32
0
13
324.5
23
149.583715342
33
0
0
SOLID
5
158
100
AcDbEntity
8
Dimensions
6
CONTINUOUS
62
7
370
0
100
AcDbTrace
10
334
20
150
30
0
11
331.5
21
149.583715342
31
0
12
331.5
22
150.416284658
32
0
13
331.5
23
150.416284658
33
0
0
MTEXT
5
159
100
AcDbEntity
8
Dimensions
6
CONTINUOUS
62
7
370
0
100
AcDbMText
10
328
20
151.875
30
0
40
2.5
41
2.5
71
5
72
1
1
12
7
standard
210
0
220
0
230
1
50
0
73
2
44
1
0
LINE
5
15A
100
AcDbEntity
8
Dimensions
6
CONTINUOUS
62
7
370
0
100
AcDbLine
10
322
20
140.625
11
322
21
151.25
0
LINE
5
15B
100
AcDbEntity
8
Dimensions
6
CONTINUOUS
62
7
370
0
100
AcDbLine
10
334
20
140.625
11
334
21
151.25
0
ENDBLK
5
A1
330
9F
100
AcDbEntity
8
0
100
AcDbBlockEnd
0
BLOCK
5
A3
330
A2
100
AcDbEntity
8
0
100
AcDbBlockBegin
2
*D7
70
1
10
0
20
0
3
*D7
1

0
LINE
5
15C
100
AcDbEntity
8
Dimensions
6
CONTINUOUS
62
7
370
0
100
AcDbLine
10
20
20
107
11
20
21
100
0
SOLID
5
15D
100
AcDbEntity
8
Dimensions
6
CONTINUOUS
62
7
370
0
100
AcDbTrace
10
20
20
107
30
0
11
20.4162846578
21
104.5
31
0
12
19.5837153422
22
104.5
32
0
13
19.5837153422
23
104.5
33
0
0
SOLID
5
15E
100
AcDbEntity
8
Dimensions
6
CONTINUOUS
62
7
370
0
100
AcDbTrace
10
20
20
100
30
0
11
19.5837153422
21
102.5
31
0
12
20.4162846578
22
102.5
32
0
13
20.4162846578
23
102.5
33
0
0
MTEXT
5
15F
100
AcDbEntity
8
Dimensions
6
CONTINUOUS
62
7
370
0
100
AcDbMText
10
18.125
20
103.5
30
0
40
2.5
41
1.11111111111
71
5
72
1
1
7
7
standard
210
0
220
0
230
1
50
90
73
2
44
1
0
LINE
5
160
100
AcDbEntity
8
Dimensions
6
CONTINUOUS
62
7
370
0
100
AcDbLine
10
29.375
20
107
11
18.75
21
107
0
LINE
5
161
100
AcDbEntity
8
Dimensions
6
CONTINUOUS
62
7
370
0
100
AcDbLine
10
29.375
20
100
11
18.75
21
100
0
ENDBLK
5
A4
330
A2
100
AcDbEntity
8
0
100
AcDbBlockEnd
0
BLOCK
5
A6
330
A5
100
AcDbEntity
8
0
100
AcDbBlockBegin
2
*D2
70
1
10
0
20
0
3
*D2
1

0
LINE
5
162
100
AcDbEntity
8
Dimensions
6
CONTINUOUS
62
7
370
0
100
AcDbLine
10
20
20
158
11
20
21
142
0
SOLID
5
163
100
AcDbEntity
8
Dimensions
6
CONTINUOUS
62
7
370
0
100
AcDbTrace
10
20
20
153
30
0
11
19.5837153422
21
155.5
31
0
12
20.4162846578
22
155.5
32
0
13
20.4162846578
23
155.5
33
0
0
SOLID
5
164
100
AcDbEntity
8
Dimensions
6
CONTINUOUS
62
7
370
0
100
AcDbTrace
10
20
20
147
30
0
11
20.4162846578
21
144.5
31
0
12
19.5837153422
22
144.5
32
0
13
19.5837153422
23
144.5
33
0
0
MTEXT
5
165
100
AcDbEntity
8
Dimensions
6
CONTINUOUS
62
7
370
0
100
AcDbMText
10
18.125
20
150
30
0
40
2.5
41
1.11111111111
71
5
72
1
1
6
7
standard
210
0
220
0
230
1
50
90
73
2
44
1
0
LINE
5
166
100
AcDbEntity
8
Dimensions
6
CONTINUOUS
62
7
370
0
100
AcDbLine
10
29.375
20
153
11
18.75
21
153
0
LINE
5
167
100
AcDbEntity
8
Dimensions
6
CONTINUOUS
62
7
370
0
100
AcDbLine
10
29.375
20
147
11
18.75
21
147
0
ENDBLK
5
A7
330
A5
100
AcDbEntity
8
0
100
AcDbBlockEnd
0
BLOCK
5
A9
330
A8
100
AcDbEntity
8
0
100
AcDbBlockBegin
2
*D10
70
1
10
0
20
0
3
*D10
1

0
LINE
5
168
100
AcDbEntity
8
Dimensions
6
CONTINUOUS
62
7
370
0
100
AcDbLine
10
20
20
55
11
20
21
45
0
SOLID
5
169
100
AcDbEntity
8
Dimensions
6
CONTINUOUS
62
7
370
0
100
AcDbTrace
10
20
20
55
30
0
11
20.4162846578
21
52.5
31
0
12
19.5837153422
22
52.5
32
0
13
19.5837153422
23
52.5
33
0
0
SOLID
5
16A
100
AcDbEntity
8
Dimensions
6
CONTINUOUS
62
7
370
0
100
AcDbTrace
10
20
20
45
30
0
11
19.5837153422
21
47.5
31
0
12
20.4162846578
22
47.5
32
0
13
20.4162846578
23
47.5
33
0
0
MTEXT
5
16B
100
AcDbEntity
8
Dimensions
6
CONTINUOUS
62
7
370
0
100
AcDbMText
10
18.125
20
50
30
0
40
2.5
41
2.5
71
5
72
1
1
10
7
standard
210
0
220
0
230
1
50
90
73
2
44
1
0
LINE
5
16C
100
AcDbEntity
8
Dimensions
6
CONTINUOUS
62
7
370
0
100
AcDbLine
10
29.375
20
55
11
18.75
21
55
0
LINE
5
16D
100
AcDbEntity
8
Dimensions
6
CONTINUOUS
62
7
370
0
100
AcDbLine
10
29.375
20
45
11
18.75
21
45
0
ENDBLK
5
AA
330
A8
100
AcDbEntity
8
0
100
AcDbBlockEnd
0
BLOCK
5
AC
330
AB
100
AcDbEntity
8
0
100
AcDbBlockBegin
2
*D1
70
1
10
0
20
0
3
*D1
1

0
LINE
5
16E
100
AcDbEntity
8
Dimensions
6
CONTINUOUS
62
7
370
0
100
AcDbLine
10
20
20
160
11
20
21
153
0
SOLID
5
16F
100
AcDbEntity
8
Dimensions
6
CONTINUOUS
62
7
370
0
100
AcDbTrace
10
20
20
160
30
0
11
20.4162846578
21
157.5
31
0
12
19.5837153422
22
157.5
32
0
13
19.5837153422
23
157.5
33
0
0
SOLID
5
170
100
AcDbEntity
8
Dimensions
6
CONTINUOUS
62
7
370
0
100
AcDbTrace
10
20
20
153
30
0
11
19.5837153422
21
155.5
31
0
12
20.4162846578
22
155.5
32
0
13
20.4162846578
23
155.5
33
0
0
MTEXT
5
171
100
AcDbEntity
8
Dimensions
6
CONTINUOUS
62
7
370
0
100
AcDbMText
10
18.125
20
156.5
30
0
40
2.5
41
1.11111111111
71
5
72
1
1
7
7
standard
210
0
220
0
230
1
50
90
73
2
44
1
0
LINE
5
172
100
AcDbEntity
8
Dimensions
6
CONTINUOUS
62
7
370
0
100
AcDbLine
10
29.375
20
160
11
18.75
21
160
0
LINE
5
173
100
AcDbEntity
8
Dimensions
6
CONTINUOUS
62
7
370
0
100
AcDbLine
10
29.375
20
153
11
18.75
21
153
0
ENDBLK
5
AD
330
AB
100
AcDbEntity
8
0
100
AcDbBlockEnd
0
BLOCK
5
AF
330
AE
100
AcDbEntity
8
0
100
AcDbBlockBegin
2
*D18
70
1
10
0
20
0
3
*D18
1

0
LINE
5
174
100
AcDbEntity
8
Dimensions
6
CONTINUOUS
62
7
370
0
100
AcDbLine
10
380
20
40
11
265
21
40
0
SOLID
5
175
100
AcDbEntity
8
Dimensions
6
CONTINUOUS
62
7
370
0
100
AcDbTrace
10
380
20
40
30
0
11
377.5
21
39.5837153422
31
0
12
377.5
22
40.4162846578
32
0
13
377.5
23
40.4162846578
33
0
0
SOLID
5
176
100
AcDbEntity
8
Dimensions
6
CONTINUOUS
62
7
370
0
100
AcDbTrace
10
265
20
40
30
0
11
267.5
21
40.4162846578
31
0
12
267.5
22
39.5837153422
32
0
13
267.5
23
39.5837153422
33
0
0
MTEXT
5
177
100
AcDbEntity
8
Dimensions
6
CONTINUOUS
62
7
370
0
100
AcDbMText
10
322.5
20
41.875
30
0
40
2.5
41
3.88888888889
71
5
72
1
1
115
7
standard
210
0
220
0
230
1
50
360
73
2
44
1
0
LINE
5
178
100
AcDbEntity
8
Dimensions
6
CONTINUOUS
62
7
370
0
100
AcDbLine
10
380
20
49.375
11
380
21
38.75
0
LINE
5
179
100
AcDbEntity
8
Dimensions
6
CONTINUOUS
62
7
370
0
100
AcDbLine
10
265
20
49.375
11
265
21
38.75
0
ENDBLK
5
B0
330
AE
100
AcDbEntity
8
0
100
AcDbBlockEnd
0
BLOCK
5
B2
330
B1
100
AcDbEntity
8
0
100
AcDbBlockBegin
2
*D28
70
1
10
0
20
0
3
*D28
1

0
LINE
5
17A
100
AcDbEntity
8
Dimensions
6
CONTINUOUS
62
7
370
0
100
AcDbLine
10
329
20
150
11
345
21
150
0
SOLID
5
17B
100
AcDbEntity
8
Dimensions
6
CONTINUOUS
62
7
370
0
100
AcDbTrace
10
334
20
150
30
0
11
331.5
21
149.583715342
31
0
12
331.5
22
150.416284658
32
0
13
331.5
23
150.416284658
33
0
0
SOLID
5
17C
100
AcDbEntity
8
Dimensions
6
CONTINUOUS
62
7
370
0
100
AcDbTrace
10
340
20
150
30
0
11
342.5
21
150.416284658
31
0
12
342.5
22
149.583715342
32
0
13
342.5
23
149.583715342
33
0
0
MTEXT
5
17D
100
AcDbEntity
8
Dimensions
6
CONTINUOUS
62
7
370
0
100
AcDbMText
10
337
20
151.875
30
0
40
2.5
41
1.11111111111
71
5
72
1
1
6
7
standard
210
0
220
0
230
1
50
0
73
2
44
1
0
LINE
5
17E
100
AcDbEntity
8
Dimensions
6
CONTINUOUS
62
7
370
0
100
AcDbLine
10
334
20
140.625
11
334
21
151.25
0
LINE
5
17F
100
AcDbEntity
8
Dimensions
6
CONTINUOUS
62
7
370
0
100
AcDbLine
10
340
20
140.625
11
340
21
151.25
0
ENDBLK
5
B3
330
B1
100
AcDbEntity
8
0
100
AcDbBlockEnd
0
ENDSEC
0
SECTION
2
ENTITIES
0
ARC
5
180
100
AcDbEntity
8
Base
6
ByLayer
62
256
370
-1
100
AcDbCircle
10
0
20
0
40
0
100
AcDbArc
50
0
51
0
0
ARC
5
181
100
AcDbEntity
8
Base
6
ByLayer
62
256
370
-1
100
AcDbCircle
10
0
20
0
40
0
100
AcDbArc
50
0
51
0
0
LINE
5
182
100
AcDbEntity
8
Base
6
ByLayer
62
256
370
-1
100
AcDbLine
10
55
20
100
11
97
21
100
0
LINE
5
183
100
AcDbEntity
8
Base
6
ByLayer
62
256
370
-1
100
AcDbLine
10
100
20
97
11
100
21
55
0
LINE
5
184
100
AcDbEntity
8
Base
6
ByLayer
62
256
370
-1
100
AcDbLine
10
140
20
97
11
140
21
55
0
LINE
5
185
100
AcDbEntity
8
Base
6
ByLayer
62
256
370
-1
100
AcDbLine
10
97
20
120
11
55
21
120
0
LINE
5
186
100
AcDbEntity
8
Base
6
ByLayer
62
256
370
-1
100
AcDbLine
10
55
20
140
11
97
21
140
0
LINE
5
187
100
AcDbEntity
8
Base
6
ByLayer
62
256
370
-1
100
AcDbLine
10
55
20
160
11
100
21
160
0
LINE
5
188
100
AcDbEntity
8
Base
6
ByLayer
62
256
370
-1
100
AcDbLine
10
100
20
137
11
100
21
123
0
LINE
5
189
100
AcDbEntity
8
Base
6
ByLayer
62
256
370
-1
100
AcDbLine
10
120
20
55
11
120
21
97
0
LINE
5
18A
100
AcDbEntity
8
Base
6
ByLayer
62
256
370
-1
100
AcDbLine
10
160
20
55
11
160
21
100
0
LINE
5
18B
100
AcDbEntity
8
Base
6
ByLayer
62
256
370
-1
100
AcDbLine
10
123
20
100
11
137
21
100
0
ARC
5
18C
100
AcDbEntity
8
Base
6
ByLayer
62
256
370
-1
100
AcDbCircle
10
55
20
150
40
10
100
AcDbArc
50
90
51
270
0
ARC
5
18D
100
AcDbEntity
8
Base
6
ByLayer
62
256
370
-1
100
AcDbCircle
10
97
20
137
40
3
100
AcDbArc
50
0
51
90
0
ARC
5
18E
100
AcDbEntity
8
Base
6
ByLayer
62
256
370
-1
100
AcDbCircle
10
97
20
123
40
3
100
AcDbArc
50
270
51
0
0
ARC
5
18F
100
AcDbEntity
8
Base
6
ByLayer
62
256
370
-1
100
AcDbCircle
10
55
20
110
40
10
100
AcDbArc
50
90
51
270
0
ARC
5
190
100
AcDbEntity
8
Base
6
ByLayer
62
256
370
-1
100
AcDbCircle
10
97
20
97
40
3
100
AcDbArc
50
0
51
90
0
ARC
5
191
100
AcDbEntity
8
Base
6
ByLayer
62
256
370
-1
100
AcDbCircle
10
123
20
97
40
3
100
AcDbArc
50
90
51
180
0
ARC
5
192
100
AcDbEntity
8
Base
6
ByLayer
62
256
370
-1
100
AcDbCircle
10
137
20
97
40
3
100
AcDbArc
50
0
51
90
0
ARC
5
193
100
AcDbEntity
8
Base
6
ByLayer
62
256
370
-1
100
AcDbCircle
10
110
20
55
40
10
100
AcDbArc
50
180
51
0
0
ARC
5
194
100
AcDbEntity
8
Base
6
ByLayer
62
256
370
-1
100
AcDbCircle
10
150
20
55
40
10
100
AcDbArc
50
180
51
0
0
ARC
5
195
100
AcDbEntity
8
Base
6
ByLayer
62
256
370
-1
100
AcDbCircle
10
120
20
120
40
40
100
AcDbArc
50
0
51
90
0
LINE
5
196
100
AcDbEntity
8
Base
6
ByLayer
62
256
370
-1
100
AcDbLine
10
100
20
160
11
120
21
160
0
LINE
5
197
100
AcDbEntity
8
Base
6
ByLayer
62
256
370
-1
100
AcDbLine
10
160
20
120
11
160
21
100
0
LINE
5
198
100
AcDbEntity
8
Squares
6
ByLayer
62
256
370
-1
100
AcDbLine
10
100
20
160
11
100
21
100
0
LINE
5
199
100
AcDbEntity
8
Squares
6
ByLayer
62
256
370
-1
100
AcDbLine
10
80
20
103
11
80
21
157
0
LINE
5
19A
100
AcDbEntity
8
Squares
6
ByLayer
62
256
370
-1
100
AcDbLine
10
83
20
160
11
100
21
160
0
LINE
5
19B
100
AcDbEntity
8
Squares
6
ByLayer
62
256
370
-1
100
AcDbLine
10
97
20
160
11
97
21
100
0
LINE
5
19C
100
AcDbEntity
8
Squares
6
ByLayer
62
256
370
-1
100
AcDbLine
10
100
20
100
11
83
21
100
0
ARC
5
19D
100
AcDbEntity
8
Squares
6
ByLayer
62
256
370
-1
100
AcDbCircle
10
83
20
157
40
3
100
AcDbArc
50
90
51
180
0
ARC
5
19E
100
AcDbEntity
8
Squares
6
ByLayer
62
256
370
-1
100
AcDbCircle
10
83
20
103
40
3
100
AcDbArc
50
180
51
270
0
LINE
5
19F
100
AcDbEntity
8
Squares
6
ByLayer
62
256
370
-1
100
AcDbLine
10
160
20
100
11
100
21
100
0
LINE
5
1A0
100
AcDbEntity
8
Squares
6
ByLayer
62
256
370
-1
100
AcDbLine
10
103
20
80
11
157
21
80
0
LINE
5
1A1
100
AcDbEntity
8
Squares
6
ByLayer
62
256
370
-1
100
AcDbLine
10
160
20
83
11
160
21
100
0
LINE
5
1A2
100
AcDbEntity
8
Squares
6
ByLayer
62
256
370
-1
100
AcDbLine
10
160
20
97
11
100
21
97
0
LINE
5
1A3
100
AcDbEntity
8
Squares
6
ByLayer
62
256
370
-1
100
AcDbLine
10
100
20
100
11
100
21
83
0
ARC
5
1A4
100
AcDbEntity
8
Squares
6
ByLayer
62
256
370
-1
100
AcDbCircle
10
157
20
83
40
3
100
AcDbArc
50
270
51
0
0
ARC
5
1A5
100
AcDbEntity
8
Squares
6
ByLayer
62
256
370
-1
100
AcDbCircle
10
103
20
83
40
3
100
AcDbArc
50
180
51
270
0
LINE
5
1A6
100
AcDbEntity
8
Slides
6
ByLayer
62
256
370
-1
100
AcDbLine
10
97
20
120
11
90
21
120
0
LINE
5
1A7
100
AcDbEntity
8
Slides
6
ByLayer
62
256
370
-1
100
AcDbLine
10
90
20
140
11
97
21
140
0
LINE
5
1A8
100
AcDbEntity
8
Slides
6
ByLayer
62
256
370
-1
100
AcDbLine
10
100
20
137
11
100
21
123
0
ARC
5
1A9
100
AcDbEntity
8
Slides
6
ByLayer
62
256
370
-1
100
AcDbCircle
10
97
20
137
40
3
100
AcDbArc
50
0
51
90
0
ARC
5
1AA
100
AcDbEntity
8
Slides
6
ByLayer
62
256
370
-1
100
AcDbCircle
10
97
20
123
40
3
100
AcDbArc
50
270
51
0
0
LINE
5
1AB
100
AcDbEntity
8
Slides
6
ByLayer
62
256
370
-1
100
AcDbLine
10
83
20
120
11
90
21
120
0
LINE
5
1AC
100
AcDbEntity
8
Slides
6
ByLayer
62
256
370
-1
100
AcDbLine
10
90
20
140
11
83
21
140
0
LINE
5
1AD
100
AcDbEntity
8
Slides
6
ByLayer
62
256
370
-1
100
AcDbLine
10
80
20
137
11
80
21
123
0
ARC
5
1AE
100
AcDbEntity
8
Slides
6
ByLayer
62
256
370
-1
100
AcDbCircle
10
83
20
137
40
3
100
AcDbArc
50
90
51
180
0
ARC
5
1AF
100
AcDbEntity
8
Slides
6
ByLayer
62
256
370
-1
100
AcDbCircle
10
83
20
123
40
3
100
AcDbArc
50
180
51
270
0
LINE
5
1B0
100
AcDbEntity
8
Slides
6
ByLayer
62
256
370
-1
100
AcDbLine
10
120
20
97
11
120
21
90
0
LINE
5
1B1
100
AcDbEntity
8
Slides
6
ByLayer
62
256
370
-1
100
AcDbLine
10
140
20
90
11
140
21
97
0
LINE
5
1B2
100
AcDbEntity
8
Slides
6
ByLayer
62
256
370
-1
100
AcDbLine
10
137
20
100
11
123
21
100
0
ARC
5
1B3
100
AcDbEntity
8
Slides
6
ByLayer
62
256
370
-1
100
AcDbCircle
10
137
20
97
40
3
100
AcDbArc
50
0
51
90
0
ARC
5
1B4
100
AcDbEntity
8
Slides
6
ByLayer
62
256
370
-1
100
AcDbCircle
10
123
20
97
40
3
100
AcDbArc
50
90
51
180
0
LINE
5
1B5
100
AcDbEntity
8
Slides
6
ByLayer
62
256
370
-1
100
AcDbLine
10
120
20
83
11
120
21
90
0
LINE
5
1B6
100
AcDbEntity
8
Slides
6
ByLayer
62
256
370
-1
100
AcDbLine
10
140
20
90
11
140
21
83
0
LINE
5
1B7
100
AcDbEntity
8
Slides
6
ByLayer
62
256
370
-1
100
AcDbLine
10
137
20
80
11
123
21
80
0
ARC
5
1B8
100
AcDbEntity
8
Slides
6
ByLayer
62
256
370
-1
100
AcDbCircle
10
137
20
83
40
3
100
AcDbArc
50
270
51
0
0
ARC
5
1B9
100
AcDbEntity
8
Slides
6
ByLayer
62
256
370
-1
100
AcDbCircle
10
123
20
83
40
3
100
AcDbArc
50
180
51
270
0
CIRCLE
5
1BA
100
AcDbEntity
8
Fastners
6
ByLayer
62
256
370
-1
100
AcDbCircle
10
90
20
135
40
2
0
CIRCLE
5
1BB
100
AcDbEntity
8
Fastners
6
ByLayer
62
256
370
-1
100
AcDbCircle
10
90
20
125
40
2
0
CIRCLE
5
1BC
100
AcDbEntity
8
Fastners
6
ByLayer
62
256
370
-1
100
AcDbCircle
10
90
20
135
40
4
0
CIRCLE
5
1BD
100
AcDbEntity
8
Fastners
6
ByLayer
62
256
370
-1
100
AcDbCircle
10
90
20
125
40
4
0
LINE
5
1BE
100
AcDbEntity
8
Fastners
6
ByLayer
62
256
370
-1
100
AcDbLine
10
93
20
125
11
91.5
21
127.598076211
0
LINE
5
1BF
100
AcDbEntity
8
Fastners
6
ByLayer
62
256
370
-1
100
AcDbLine
10
91.5
20
127.598076211
11
88.5
21
127.598076211
0
LINE
5
1C0
100
AcDbEntity
8
Fastners
6
ByLayer
62
256
370
-1
100
AcDbLine
10
88.5
20
127.598076211
11
87
21
125
0
LINE
5
1C1
100
AcDbEntity
8
Fastners
6
ByLayer
62
256
370
-1
100
AcDbLine
10
87
20
125
11
88.5
21
122.401923789
0
LINE
5
1C2
100
AcDbEntity
8
Fastners
6
ByLayer
62
256
370
-1
100
AcDbLine
10
88.5
20
122.401923789
11
91.5
21
122.401923789
0
LINE
5
1C3
100
AcDbEntity
8
Fastners
6
ByLayer
62
256
370
-1
100
AcDbLine
10
91.5
20
122.401923789
11
93
21
125
0
LINE
5
1C4
100
AcDbEntity
8
Fastners
6
ByLayer
62
256
370
-1
100
AcDbLine
10
93
20
135
11
91.5
21
137.598076211
0
LINE
5
1C5
100
AcDbEntity
8
Fastners
6
ByLayer
62
256
370
-1
100
AcDbLine
10
91.5
20
137.598076211
11
88.5
21
137.598076211
0
LINE
5
1C6
100
AcDbEntity
8
Fastners
6
ByLayer
62
256
370
-1
100
AcDbLine
10
88.5
20
137.598076211
11
87
21
135
0
LINE
5
1C7
100
AcDbEntity
8
Fastners
6
ByLayer
62
256
370
-1
100
AcDbLine
10
87
20
135
11
88.5
21
132.401923789
0
LINE
5
1C8
100
AcDbEntity
8
Fastners
6
ByLayer
62
256
370
-1
100
AcDbLine
10
88.5
20
132.401923789
11
91.5
21
132.401923789
0
LINE
5
1C9
100
AcDbEntity
8
Fastners
6
ByLayer
62
256
370
-1
100
AcDbLine
10
91.5
20
132.401923789
11
93
21
135
0
CIRCLE
5
1CA
100
AcDbEntity
8
Fastners
6
ByLayer
62
256
370
-1
100
AcDbCircle
10
90
20
150
40
3
0
CIRCLE
5
1CB
100
AcDbEntity
8
Fastners
6
ByLayer
62
256
370
-1
100
AcDbCircle
10
90
20
150
40
6
0
LINE
5
1CC
100
AcDbEntity
8
Fastners
6
ByLayer
62
256
370
-1
100
AcDbLine
10
89
20
156
11
89
21
144
0
LINE
5
1CD
100
AcDbEntity
8
Fastners
6
ByLayer
62
256
370
-1
100
AcDbLine
10
91
20
144
11
91
21
156
0
CIRCLE
5
1CE
100
AcDbEntity
8
Fastners
6
ByLayer
62
256
370
-1
100
AcDbCircle
10
90
20
110
40
3
0
CIRCLE
5
1CF
100
AcDbEntity
8
Fastners
6
ByLayer
62
256
370
-1
100
AcDbCircle
10
90
20
110
40
6
0
LINE
5
1D0
100
AcDbEntity
8
Fastners
6
ByLayer
62
256
370
-1
100
AcDbLine
10
89
20
116
11
89
21
104
0
LINE
5
1D1
100
AcDbEntity
8
Fastners
6
ByLayer
62
256
370
-1
100
AcDbLine
10
91
20
104
11
91
21
116
0
CIRCLE
5
1D2
100
AcDbEntity
8
Fastners
6
ByLayer
62
256
370
-1
100
AcDbCircle
10
135
20
90
40
2
0
CIRCLE
5
1D3
100
AcDbEntity
8
Fastners
6
ByLayer
62
256
370
-1
100
AcDbCircle
10
125
20
90
40
2
0
CIRCLE
5
1D4
100
AcDbEntity
8
Fastners
6
ByLayer
62
256
370
-1
100
AcDbCircle
10
135
20
90
40
4
0
CIRCLE
5
1D5
100
AcDbEntity
8
Fastners
6
ByLayer
62
256
370
-1
100
AcDbCircle
10
125
20
90
40
4
0
LINE
5
1D6
100
AcDbEntity
8
Fastners
6
ByLayer
62
256
370
-1
100
AcDbLine
10
125
20
93
11
127.598076211
21
91.5
0
LINE
5
1D7
100
AcDbEntity
8
Fastners
6
ByLayer
62
256
370
-1
100
AcDbLine
10
127.598076211
20
91.5
11
127.598076211
21
88.5
0
LINE
5
1D8
100
AcDbEntity
8
Fastners
6
ByLayer
62
256
370
-1
100
AcDbLine
10
127.598076211
20
88.5
11
125
21
87
0
LINE
5
1D9
100
AcDbEntity
8
Fastners
6
ByLayer
62
256
370
-1
100
AcDbLine
10
125
20
87
11
122.401923789
21
88.5
0
LINE
5
1DA
100
AcDbEntity
8
Fastners
6
ByLayer
62
256
370
-1
100
AcDbLine
10
122.401923789
20
88.5
11
122.401923789
21
91.5
0
LINE
5
1DB
100
AcDbEntity
8
Fastners
6
ByLayer
62
256
370
-1
100
AcDbLine
10
122.401923789
20
91.5
11
125
21
93
0
LINE
5
1DC
100
AcDbEntity
8
Fastners
6
ByLayer
62
256
370
-1
100
AcDbLine
10
135
20
93
11
137.598076211
21
91.5
0
LINE
5
1DD
100
AcDbEntity
8
Fastners
6
ByLayer
62
256
370
-1
100
AcDbLine
10
137.598076211
20
91.5
11
137.598076211
21
88.5
0
LINE
5
1DE
100
AcDbEntity
8
Fastners
6
ByLayer
62
256
370
-1
100
AcDbLine
10
137.598076211
20
88.5
11
135
21
87
0
LINE
5
1DF
100
AcDbEntity
8
Fastners
6
ByLayer
62
256
370
-1
100
AcDbLine
10
135
20
87
11
132.401923789
21
88.5
0
LINE
5
1E0
100
AcDbEntity
8
Fastners
6
ByLayer
62
256
370
-1
100
AcDbLine
10
132.401923789
20
88.5
11
132.401923789
21
91.5
0
LINE
5
1E1
100
AcDbEntity
8
Fastners
6
ByLayer
62
256
370
-1
100
AcDbLine
10
132.401923789
20
91.5
11
135
21
93
0
CIRCLE
5
1E2
100
AcDbEntity
8
Fastners
6
ByLayer
62
256
370
-1
100
AcDbCircle
10
150
20
90
40
3
0
CIRCLE
5
1E3
100
AcDbEntity
8
Fastners
6
ByLayer
62
256
370
-1
100
AcDbCircle
10
150
20
90
40
6
0
LINE
5
1E4
100
AcDbEntity
8
Fastners
6
ByLayer
62
256
370
-1
100
AcDbLine
10
156
20
89
11
144
21
89
0
LINE
5
1E5
100
AcDbEntity
8
Fastners
6
ByLayer
62
256
370
-1
100
AcDbLine
10
144
20
91
11
156
21
91
0
CIRCLE
5
1E6
100
AcDbEntity
8
Fastners
6
ByLayer
62
256
370
-1
100
AcDbCircle
10
110
20
90
40
3
0
CIRCLE
5
1E7
100
AcDbEntity
8
Fastners
6
ByLayer
62
256
370
-1
100
AcDbCircle
10
110
20
90
40
6
0
LINE
5
1E8
100
AcDbEntity
8
Fastners
6
ByLayer
62
256
370
-1
100
AcDbLine
10
116
20
89
11
104
21
89
0
LINE
5
1E9
100
AcDbEntity
8
Fastners
6
ByLayer
62
256
370
-1
100
AcDbLine
10
104
20
91
11
116
21
91
0
ARC
5
1EA
100
AcDbEntity
8
Base
6
ByLayer
62
256
370
-1
100
AcDbCircle
10
55
20
150
40
3
100
AcDbArc
50
90
51
270
0
ARC
5
1EB
100
AcDbEntity
8
Base
6
ByLayer
62
256
370
-1
100
AcDbCircle
10
90
20
150
40
3
100
AcDbArc
50
270
51
90
0
LINE
5
1EC
100
AcDbEntity
8
Base
6
ByLayer
62
256
370
-1
100
AcDbLine
10
55
20
153
11
90
21
153
0
LINE
5
1ED
100
AcDbEntity
8
Base
6
ByLayer
62
256
370
-1
100
AcDbLine
10
90
20
147
11
55
21
147
0
ARC
5
1EE
100
AcDbEntity
8
Base
6
ByLayer
62
256
370
-1
100
AcDbCircle
10
55
20
110
40
3
100
AcDbArc
50
90
51
270
0
ARC
5
1EF
100
AcDbEntity
8
Base
6
ByLayer
62
256
370
-1
100
AcDbCircle
10
90
20
110
40
3
100
AcDbArc
50
270
51
90
0
LINE
5
1F0
100
AcDbEntity
8
Base
6
ByLayer
62
256
370
-1
100
AcDbLine
10
55
20
113
11
90
21
113
0
LINE
5
1F1
100
AcDbEntity
8
Base
6
ByLayer
62
256
370
-1
100
AcDbLine
10
90
20
107
11
55
21
107
0
ARC
5
1F2
100
AcDbEntity
8
Base
6
ByLayer
62
256
370
-1
100
AcDbCircle
10
150
20
55
40
3
100
AcDbArc
50
180
51
0
0
ARC
5
1F3
100
AcDbEntity
8
Base
6
ByLayer
62
256
370
-1
100
AcDbCircle
10
150
20
90
40
3
100
AcDbArc
50
0
51
180
0
LINE
5
1F4
100
AcDbEntity
8
Base
6
ByLayer
62
256
370
-1
100
AcDbLine
10
153
20
55
11
153
21
90
0
LINE
5
1F5
100
AcDbEntity
8
Base
6
ByLayer
62
256
370
-1
100
AcDbLine
10
147
20
90
11
147
21
55
0
ARC
5
1F6
100
AcDbEntity
8
Base
6
ByLayer
62
256
370
-1
100
AcDbCircle
10
110
20
55
40
3
100
AcDbArc
50
180
51
0
0
ARC
5
1F7
100
AcDbEntity
8
Base
6
ByLayer
62
256
370
-1
100
AcDbCircle
10
110
20
90
40
3
100
AcDbArc
50
0
51
180
0
LINE
5
1F8
100
AcDbEntity
8
Base
6
ByLayer
62
256
370
-1
100
AcDbLine
10
113
20
55
11
113
21
90
0
LINE
5
1F9
100
AcDbEntity
8
Base
6
ByLayer
62
256
370
-1
100
AcDbLine
10
107
20
90
11
107
21
55
0
CIRCLE
5
1FA
100
AcDbEntity
8
Squares
6
ByLayer
62
256
370
-1
100
AcDbCircle
10
90
20
150
40
3
0
CIRCLE
5
1FB
100
AcDbEntity
8
Squares
6
ByLayer
62
256
370
-1
100
AcDbCircle
10
90
20
135
40
2
0
CIRCLE
5
1FC
100
AcDbEntity
8
Squares
6
ByLayer
62
256
370
-1
100
AcDbCircle
10
90
20
110
40
3
0
CIRCLE
5
1FD
100
AcDbEntity
8
Squares
6
ByLayer
62
256
370
-1
100
AcDbCircle
10
90
20
125
40
2
0
CIRCLE
5
1FE
100
AcDbEntity
8
Squares
6
ByLayer
62
256
370
-1
100
AcDbCircle
10
150
20
90
40
3
0
CIRCLE
5
1FF
100
AcDbEntity
8
Squares
6
ByLayer
62
256
370
-1
100
AcDbCircle
10
135
20
90
40
2
0
CIRCLE
5
200
100
AcDbEntity
8
Squares
6
ByLayer
62
256
370
-1
100
AcDbCircle
10
110
20
90
40
3
0
CIRCLE
5
201
100
AcDbEntity
8
Squares
6
ByLayer
62
256
370
-1
100
AcDbCircle
10
125
20
90
40
2
0
CIRCLE
5
202
100
AcDbEntity
8
Slides
6
ByLayer
62
256
370
-1
100
AcDbCircle
10
90
20
135
40
2
0
CIRCLE
5
203
100
AcDbEntity
8
Slides
6
ByLayer
62
256
370
-1
100
AcDbCircle
10
90
20
125
40
2
0
CIRCLE
5
204
100
AcDbEntity
8
Slides
6
ByLayer
62
256
370
-1
100
AcDbCircle
10
125
20
90
40
2
0
CIRCLE
5
205
100
AcDbEntity
8
Slides
6
ByLayer
62
256
370
-1
100
AcDbCircle
10
135
20
90
40
2
0
DIMENSION
5
206
100
AcDbEntity
8
Dimensions
6
ByLayer
62
256
370
-1
100
AcDbDimension
2
*D1
10
20
20
153
30
0
11
18.125
21
156.5
31
0
70
32
71
5
72
0
3
Standard
53
0
210
0
220
0
230
1
100
AcDbAlignedDimension
13
30
23
160
33
0
14
30
24
153
34
0
50
90
100
AcDbRotatedDimension
0
DIMENSION
5
207
100
AcDbEntity
8
Dimensions
6
ByLayer
62
256
370
-1
100
AcDbDimension
2
*D2
10
20
20
147
30
0
11
18.125
21
150
31
0
70
32
71
5
72
0
3
Standard
53
0
210
0
220
0
230
1
100
AcDbAlignedDimension
13
30
23
153
33
0
14
30
24
147
34
0
50
90
100
AcDbRotatedDimension
0
DIMENSION
5
208
100
AcDbEntity
8
Dimensions
6
ByLayer
62
256
370
-1
100
AcDbDimension
2
*D3
10
20
20
140
30
0
11
18.125
21
143.5
31
0
70
32
71
5
72
0
3
Standard
53
0
210
0
220
0
230
1
100
AcDbAlignedDimension
13
30
23
147
33
0
14
30
24
140
34
0
50
90
100
AcDbRotatedDimension
0
DIMENSION
5
209
100
AcDbEntity
8
Dimensions
6
ByLayer
62
256
370
-1
100
AcDbDimension
2
*D4
10
20
20
120
30
0
11
18.125
21
130
31
0
70
32
71
5
72
0
3
Standard
53
0
210
0
220
0
230
1
100
AcDbAlignedDimension
13
30
23
140
33
0
14
30
24
120
34
0
50
90
100
AcDbRotatedDimension
0
DIMENSION
5
20A
100
AcDbEntity
8
Dimensions
6
ByLayer
62
256
370
-1
100
AcDbDimension
2
*D5
10
20
20
113
30
0
11
18.125
21
116.5
31
0
70
32
71
5
72
0
3
Standard
53
0
210
0
220
0
230
1
100
AcDbAlignedDimension
13
30
23
120
33
0
14
30
24
113
34
0
50
90
100
AcDbRotatedDimension
0
DIMENSION
5
20B
100
AcDbEntity
8
Dimensions
6
ByLayer
62
256
370
-1
100
AcDbDimension
2
*D6
10
20
20
107
30
0
11
18.125
21
110
31
0
70
32
71
5
72
0
3
Standard
53
0
210
0
220
0
230
1
100
AcDbAlignedDimension
13
30
23
113
33
0
14
30
24
107
34
0
50
90
100
AcDbRotatedDimension
0
DIMENSION
5
20C
100
AcDbEntity
8
Dimensions
6
ByLayer
62
256
370
-1
100
AcDbDimension
2
*D7
10
20
20
100
30
0
11
18.125
21
103.5
31
0
70
32
71
5
72
0
3
Standard
53
0
210
0
220
0
230
1
100
AcDbAlignedDimension
13
30
23
107
33
0
14
30
24
100
34
0
50
90
100
AcDbRotatedDimension
0
DIMENSION
5
20D
100
AcDbEntity
8
Dimensions
6
ByLayer
62
256
370
-1
100
AcDbDimension
2
*D8
10
20
20
90
30
0
11
18.125
21
95
31
0
70
32
71
5
72
0
3
Standard
53
0
210
0
220
0
230
1
100
AcDbAlignedDimension
13
30
23
100
33
0
14
30
24
90
34
0
50
90
100
AcDbRotatedDimension
0
DIMENSION
5
20E
100
AcDbEntity
8
Dimensions
6
ByLayer
62
256
370
-1
100
AcDbDimension
2
*D9
10
20
20
55
30
0
11
18.125
21
72.5
31
0
70
32
71
5
72
0
3
Standard
53
0
210
0
220
0
230
1
100
AcDbAlignedDimension
13
30
23
90
33
0
14
30
24
55
34
0
50
90
100
AcDbRotatedDimension
0
DIMENSION
5
20F
100
AcDbEntity
8
Dimensions
6
ByLayer
62
256
370
-1
100
AcDbDimension
2
*D10
10
20
20
45
30
0
11
18.125
21
50
31
0
70
32
71
5
72
0
3
Standard
53
0
210
0
220
0
230
1
100
AcDbAlignedDimension
13
30
23
55
33
0
14
30
24
45
34
0
50
90
100
AcDbRotatedDimension
0
DIMENSION
5
210
100
AcDbEntity
8
Dimensions
6
ByLayer
62
256
370
-1
100
AcDbDimension
2
*D11
10
180
20
90
30
0
11
178.125
21
85
31
0
70
32
71
5
72
0
3
Standard
53
0
210
0
220
0
230
1
100
AcDbAlignedDimension
13
170
23
80
33
0
14
170
24
90
34
0
50
90
100
AcDbRotatedDimension
0
DIMENSION
5
211
100
AcDbEntity
8
Dimensions
6
ByLayer
62
256
370
-1
100
AcDbDimension
2
*D12
10
180
20
97
30
0
11
178.125
21
93.5
31
0
70
32
71
5
72
0
3
Standard
53
0
210
0
220
0
230
1
100
AcDbAlignedDimension
13
170
23
90
33
0
14
170
24
97
34
0
50
90
100
AcDbRotatedDimension
0
DIMENSION
5
212
100
AcDbEntity
8
Dimensions
6
ByLayer
62
256
370
-1
100
AcDbDimension
2
*D13
10
180
20
100
30
0
11
178.125
21
98.5
31
0
70
32
71
5
72
0
3
Standard
53
0
210
0
220
0
230
1
100
AcDbAlignedDimension
13
170
23
97
33
0
14
170
24
100
34
0
50
90
100
AcDbRotatedDimension
0
DIMENSION
5
213
100
AcDbEntity
8
Dimensions
6
ByLayer
62
256
370
-1
100
AcDbDimension
2
*D14
10
88
20
180
30
0
11
84
21
181.875
31
0
70
32
71
5
72
0
3
Standard
53
0
210
0
220
0
230
1
100
AcDbAlignedDimension
13
80
23
170
33
0
14
88
24
170
34
0
100
AcDbRotatedDimension
0
DIMENSION
5
214
100
AcDbEntity
8
Dimensions
6
ByLayer
62
256
370
-1
100
AcDbDimension
2
*D15
10
92
20
180
30
0
11
90
21
181.875
31
0
70
32
71
5
72
0
3
Standard
53
0
210
0
220
0
230
1
100
AcDbAlignedDimension
13
88
23
170
33
0
14
92
24
170
34
0
100
AcDbRotatedDimension
0
DIMENSION
5
215
100
AcDbEntity
8
Dimensions
6
ByLayer
62
256
370
-1
100
AcDbDimension
2
*D16
10
100
20
180
30
0
11
96
21
181.875
31
0
70
32
71
5
72
0
3
Standard
53
0
210
0
220
0
230
1
100
AcDbAlignedDimension
13
92
23
170
33
0
14
100
24
170
34
0
100
AcDbRotatedDimension
0
DIMENSION
5
216
100
AcDbEntity
8
Dimensions
6
ByLayer
62
256
370
-1
100
AcDbDimension
2
*D17
10
160
20
20
30
0
11
102.5
21
21.875
31
0
70
32
71
5
72
0
3
Standard
53
0
210
0
220
0
230
1
100
AcDbAlignedDimension
13
45
23
30
33
0
14
160
24
30
34
0
100
AcDbRotatedDimension
0
LINE
5
217
100
AcDbEntity
8
Slides
6
ByLayer
62
256
370
-1
100
AcDbLine
10
340
20
100
11
360
21
100
0
LINE
5
218
100
AcDbEntity
8
Squares
6
ByLayer
62
256
370
-1
100
AcDbLine
10
320
20
100
11
320
21
83
0
ARC
5
219
100
AcDbEntity
8
Squares
6
ByLayer
62
256
370
-1
100
AcDbCircle
10
323
20
83
40
3
100
AcDbArc
50
180
51
270
0
LINE
5
21A
100
AcDbEntity
8
Squares
6
ByLayer
62
256
370
-1
100
AcDbLine
10
320
20
100
11
320
21
80
0
LINE
5
21B
100
AcDbEntity
8
Squares
6
ByLayer
62
256
370
-1
100
AcDbLine
10
320
20
80
11
317
21
80
0
LINE
5
21C
100
AcDbEntity
8
Squares
6
ByLayer
62
256
370
-1
100
AcDbLine
10
317
20
80
11
317
21
97
0
LINE
5
21D
100
AcDbEntity
8
Squares
6
ByLayer
62
256
370
-1
100
AcDbLine
10
317
20
97
11
300
21
97
0
LINE
5
21E
100
AcDbEntity
8
Squares
6
ByLayer
62
256
370
-1
100
AcDbLine
10
300
20
97
11
300
21
100
0
LINE
5
21F
100
AcDbEntity
8
Squares
6
ByLayer
62
256
370
-1
100
AcDbLine
10
300
20
100
11
320
21
100
0
LINE
5
220
100
AcDbEntity
8
Squares
6
ByLayer
62
256
370
-1
100
AcDbLine
10
380
20
100
11
380
21
83
0
LINE
5
221
100
AcDbEntity
8
Squares
6
ByLayer
62
256
370
-1
100
AcDbLine
10
320
20
97
11
380
21
97
0
LINE
5
222
100
AcDbEntity
8
Squares
6
ByLayer
62
256
370
-1
100
AcDbLine
10
320
20
100
11
380
21
100
0
ARC
5
223
100
AcDbEntity
8
Squares
6
ByLayer
62
256
370
-1
100
AcDbCircle
10
377
20
83
40
3
100
AcDbArc
50
270
51
0
0
LINE
5
224
100
AcDbEntity
8
Squares
6
ByLayer
62
256
370
-1
100
AcDbLine
10
377
20
80
11
323
21
80
0
DIMENSION
5
225
100
AcDbEntity
8
Dimensions
6
ByLayer
62
256
370
-1
100
AcDbDimension
2
*D18
10
265
20
40
30
0
11
322.5
21
41.875
31
0
70
32
71
5
72
0
3
Standard
53
0
210
0
220
0
230
1
100
AcDbAlignedDimension
13
380
23
50
33
0
14
265
24
50
34
0
100
AcDbRotatedDimension
0
LINE
5
226
100
AcDbEntity
8
Base
6
ByLayer
62
256
370
-1
100
AcDbLine
10
380
20
100
11
265
21
100
0
LINE
5
227
100
AcDbEntity
8
Base
6
ByLayer
62
256
370
-1
100
AcDbLine
10
360
20
115
11
360
21
100
0
LINE
5
228
100
AcDbEntity
8
Base
6
ByLayer
62
256
370
-1
100
AcDbLine
10
340
20
115
11
340
21
100
0
LINE
5
229
100
AcDbEntity
8
Base
6
ByLayer
62
256
370
-1
100
AcDbLine
10
320
20
115
11
320
21
100
0
LINE
5
22A
100
AcDbEntity
8
Base
6
ByLayer
62
256
370
-1
100
AcDbLine
10
380
20
115
11
380
21
100
0
LINE
5
22B
100
AcDbEntity
8
Base
6
ByLayer
62
256
370
-1
100
AcDbLine
10
265
20
100
11
265
21
115
0
LINE
5
22C
100
AcDbEntity
8
Base
6
ByLayer
62
256
370
-1
100
AcDbLine
10
265
20
115
11
380
21
115
0
CIRCLE
5
22D
100
AcDbEntity
8
Inserts
6
ByLayer
62
256
370
-1
100
AcDbCircle
10
114
20
114
40
6
0
CIRCLE
5
22E
100
AcDbEntity
8
Inserts
6
ByLayer
62
256
370
-1
100
AcDbCircle
10
114
20
114
40
12
0
LINE
5
22F
100
AcDbEntity
8
Inserts
6
ByLayer
62
256
370
-1
100
AcDbLine
10
112
20
126
11
112
21
120
0
LINE
5
230
100
AcDbEntity
8
Inserts
6
ByLayer
62
256
370
-1
100
AcDbLine
10
116
20
126
11
116
21
120
0
LINE
5
231
100
AcDbEntity
8
Inserts
6
ByLayer
62
256
370
-1
100
AcDbLine
10
112
20
102
11
112
21
108
0
LINE
5
232
100
AcDbEntity
8
Inserts
6
ByLayer
62
256
370
-1
100
AcDbLine
10
116
20
108
11
116
21
102
0
LINE
5
233
100
AcDbEntity
8
Inserts
6
ByLayer
62
256
370
-1
100
AcDbLine
10
322
20
115
11
346
21
115
0
LINE
5
234
100
AcDbEntity
8
Inserts
6
ByLayer
62
256
370
-1
100
AcDbLine
10
332
20
115
11
332
21
100
0
LINE
5
235
100
AcDbEntity
8
Inserts
6
ByLayer
62
256
370
-1
100
AcDbLine
10
336
20
100
11
336
21
115
0
CIRCLE
5
236
100
AcDbEntity
8
Base
6
ByLayer
62
256
370
-1
100
AcDbCircle
10
114
20
114
40
6
0
LINE
5
237
100
AcDbEntity
8
Slides
6
ByLayer
62
256
370
-1
100
AcDbLine
10
360
20
115
11
340
21
115
0
LINE
5
238
100
AcDbEntity
8
Slides
6
ByLayer
62
256
370
-1
100
AcDbLine
10
340
20
115
11
340
21
100
0
LINE
5
239
100
AcDbEntity
8
Slides
6
ByLayer
62
256
370
-1
100
AcDbLine
10
360
20
100
11
360
21
115
0
LINE
5
23A
100
AcDbEntity
8
Slides
6
ByLayer
62
256
370
-1
100
AcDbLine
10
300
20
100
11
320
21
100
0
LINE
5
23B
100
AcDbEntity
8
Slides
6
ByLayer
62
256
370
-1
100
AcDbLine
10
320
20
115
11
300
21
115
0
LINE
5
23C
100
AcDbEntity
8
Slides
6
ByLayer
62
256
370
-1
100
AcDbLine
10
300
20
115
11
300
21
100
0
LINE
5
23D
100
AcDbEntity
8
Slides
6
ByLayer
62
256
370
-1
100
AcDbLine
10
320
20
100
11
320
21
115
0
LINE
5
23E
100
AcDbEntity
8
Squares
6
ByLayer
62
256
370
-1
100
AcDbLine
10
320
20
115
11
320
21
132
0
ARC
5
23F
100
AcDbEntity
8
Squares
6
ByLayer
62
256
370
-1
100
AcDbCircle
10
323
20
132
40
3
100
AcDbArc
50
90
51
180
0
LINE
5
240
100
AcDbEntity
8
Squares
6
ByLayer
62
256
370
-1
100
AcDbLine
10
320
20
115
11
320
21
135
0
LINE
5
241
100
AcDbEntity
8
Squares
6
ByLayer
62
256
370
-1
100
AcDbLine
10
320
20
135
11
317
21
135
0
LINE
5
242
100
AcDbEntity
8
Squares
6
ByLayer
62
256
370
-1
100
AcDbLine
10
317
20
135
11
317
21
118
0
LINE
5
243
100
AcDbEntity
8
Squares
6
ByLayer
62
256
370
-1
100
AcDbLine
10
317
20
118
11
300
21
118
0
LINE
5
244
100
AcDbEntity
8
Squares
6
ByLayer
62
256
370
-1
100
AcDbLine
10
300
20
118
11
300
21
115
0
LINE
5
245
100
AcDbEntity
8
Squares
6
ByLayer
62
256
370
-1
100
AcDbLine
10
300
20
115
11
320
21
115
0
LINE
5
246
100
AcDbEntity
8
Squares
6
ByLayer
62
256
370
-1
100
AcDbLine
10
380
20
115
11
380
21
132
0
ARC
5
247
100
AcDbEntity
8
Squares
6
ByLayer
62
256
370
-1
100
AcDbCircle
10
377
20
132
40
3
100
AcDbArc
50
0
51
90
0
LINE
5
248
100
AcDbEntity
8
Squares
6
ByLayer
62
256
370
-1
100
AcDbLine
10
377
20
135
11
323
21
135
0
LINE
5
249
100
AcDbEntity
8
Squares
6
ByLayer
62
256
370
-1
100
AcDbLine
10
320
20
118
11
380
21
118
0
LINE
5
24A
100
AcDbEntity
8
Squares
6
ByLayer
62
256
370
-1
100
AcDbLine
10
320
20
115
11
380
21
115
0
LINE
5
24B
100
AcDbEntity
8
Fastners
6
ByLayer
62
256
370
-1
100
AcDbLine
10
316
20
118
11
316
21
123
0
LINE
5
24C
100
AcDbEntity
8
Fastners
6
ByLayer
62
256
370
-1
100
AcDbLine
10
316
20
123
11
304
21
123
0
LINE
5
24D
100
AcDbEntity
8
Fastners
6
ByLayer
62
256
370
-1
100
AcDbLine
10
304
20
123
11
304
21
118
0
LINE
5
24E
100
AcDbEntity
8
Fastners
6
ByLayer
62
256
370
-1
100
AcDbLine
10
304
20
118
11
307
21
118
0
LINE
5
24F
100
AcDbEntity
8
Fastners
6
ByLayer
62
256
370
-1
100
AcDbLine
10
316
20
118
11
313
21
118
0
LINE
5
250
100
AcDbEntity
8
Fastners
6
ByLayer
62
256
370
-1
100
AcDbLine
10
307
20
108
11
313
21
109
0
LINE
5
251
100
AcDbEntity
8
Fastners
6
ByLayer
62
256
370
-1
100
AcDbLine
10
307
20
109
11
313
21
110
0
LINE
5
252
100
AcDbEntity
8
Fastners
6
ByLayer
62
256
370
-1
100
AcDbLine
10
307
20
110
11
313
21
111
0
LINE
5
253
100
AcDbEntity
8
Fastners
6
ByLayer
62
256
370
-1
100
AcDbLine
10
307
20
111
11
313
21
112
0
LINE
5
254
100
AcDbEntity
8
Fastners
6
ByLayer
62
256
370
-1
100
AcDbLine
10
307
20
112
11
313
21
113
0
LINE
5
255
100
AcDbEntity
8
Fastners
6
ByLayer
62
256
370
-1
100
AcDbLine
10
307
20
113
11
313
21
114
0
LINE
5
256
100
AcDbEntity
8
Fastners
6
ByLayer
62
256
370
-1
100
AcDbLine
10
307
20
114
11
313
21
115
0
LINE
5
257
100
AcDbEntity
8
Fastners
6
ByLayer
62
256
370
-1
100
AcDbLine
10
347
20
116
11
349
21
118
0
LINE
5
258
100
AcDbEntity
8
Fastners
6
ByLayer
62
256
370
-1
100
AcDbLine
10
349
20
118
11
341
21
118
0
LINE
5
259
100
AcDbEntity
8
Fastners
6
ByLayer
62
256
370
-1
100
AcDbLine
10
341
20
118
11
343
21
116
0
LINE
5
25A
100
AcDbEntity
8
Fastners
6
ByLayer
62
256
370
-1
100
AcDbLine
10
357
20
116
11
359
21
118
0
LINE
5
25B
100
AcDbEntity
8
Fastners
6
ByLayer
62
256
370
-1
100
AcDbLine
10
359
20
118
11
351
21
118
0
LINE
5
25C
100
AcDbEntity
8
Fastners
6
ByLayer
62
256
370
-1
100
AcDbLine
10
351
20
118
11
353
21
116
0
LINE
5
25D
100
AcDbEntity
8
Fastners
6
ByLayer
62
256
370
-1
100
AcDbLine
10
307
20
118
11
307
21
96
0
LINE
5
25E
100
AcDbEntity
8
Fastners
6
ByLayer
62
256
370
-1
100
AcDbLine
10
313
20
118
11
313
21
96
0
ARC
5
25F
100
AcDbEntity
8
Fastners
6
ByLayer
62
256
370
-1
100
AcDbCircle
10
310
20
99
40
4.24264068712
100
AcDbArc
50
225
51
315
0
LINE
5
260
100
AcDbEntity
8
Fastners
6
ByLayer
62
256
370
-1
100
AcDbLine
10
307
20
96
11
313
21
97
0
LINE
5
261
100
AcDbEntity
8
Fastners
6
ByLayer
62
256
370
-1
100
AcDbLine
10
307
20
97
11
313
21
98
0
LINE
5
262
100
AcDbEntity
8
Fastners
6
ByLayer
62
256
370
-1
100
AcDbLine
10
307
20
98
11
313
21
99
0
LINE
5
263
100
AcDbEntity
8
Fastners
6
ByLayer
62
256
370
-1
100
AcDbLine
10
307
20
99
11
313
21
100
0
LINE
5
264
100
AcDbEntity
8
Fastners
6
ByLayer
62
256
370
-1
100
AcDbLine
10
307
20
100
11
313
21
101
0
LINE
5
265
100
AcDbEntity
8
Fastners
6
ByLayer
62
256
370
-1
100
AcDbLine
10
307
20
101
11
313
21
102
0
LINE
5
266
100
AcDbEntity
8
Fastners
6
ByLayer
62
256
370
-1
100
AcDbLine
10
307
20
102
11
313
21
103
0
LINE
5
267
100
AcDbEntity
8
Fastners
6
ByLayer
62
256
370
-1
100
AcDbLine
10
307
20
103
11
313
21
104
0
LINE
5
268
100
AcDbEntity
8
Fastners
6
ByLayer
62
256
370
-1
100
AcDbLine
10
307
20
104
11
313
21
105
0
LINE
5
269
100
AcDbEntity
8
Fastners
6
ByLayer
62
256
370
-1
100
AcDbLine
10
307
20
105
11
313
21
106
0
LINE
5
26A
100
AcDbEntity
8
Fastners
6
ByLayer
62
256
370
-1
100
AcDbLine
10
307
20
106
11
313
21
107
0
LINE
5
26B
100
AcDbEntity
8
Fastners
6
ByLayer
62
256
370
-1
100
AcDbLine
10
307
20
107
11
313
21
108
0
LINE
5
26C
100
AcDbEntity
8
Fastners
6
ByLayer
62
256
370
-1
100
AcDbLine
10
336
20
118
11
336
21
123
0
LINE
5
26D
100
AcDbEntity
8
Fastners
6
ByLayer
62
256
370
-1
100
AcDbLine
10
336
20
123
11
324
21
123
0
LINE
5
26E
100
AcDbEntity
8
Fastners
6
ByLayer
62
256
370
-1
100
AcDbLine
10
324
20
123
11
324
21
118
0
LINE
5
26F
100
AcDbEntity
8
Fastners
6
ByLayer
62
256
370
-1
100
AcDbLine
10
324
20
118
11
327
21
118
0
LINE
5
270
100
AcDbEntity
8
Fastners
6
ByLayer
62
256
370
-1
100
AcDbLine
10
336
20
118
11
333
21
118
0
LINE
5
271
100
AcDbEntity
8
Fastners
6
ByLayer
62
256
370
-1
100
AcDbLine
10
327
20
108
11
333
21
109
0
LINE
5
272
100
AcDbEntity
8
Fastners
6
ByLayer
62
256
370
-1
100
AcDbLine
10
327
20
109
11
333
21
110
0
LINE
5
273
100
AcDbEntity
8
Fastners
6
ByLayer
62
256
370
-1
100
AcDbLine
10
327
20
110
11
333
21
111
0
LINE
5
274
100
AcDbEntity
8
Fastners
6
ByLayer
62
256
370
-1
100
AcDbLine
10
327
20
111
11
333
21
112
0
LINE
5
275
100
AcDbEntity
8
Fastners
6
ByLayer
62
256
370
-1
100
AcDbLine
10
327
20
112
11
333
21
113
0
LINE
5
276
100
AcDbEntity
8
Fastners
6
ByLayer
62
256
370
-1
100
AcDbLine
10
327
20
113
11
333
21
114
0
LINE
5
277
100
AcDbEntity
8
Fastners
6
ByLayer
62
256
370
-1
100
AcDbLine
10
327
20
114
11
333
21
115
0
LINE
5
278
100
AcDbEntity
8
Fastners
6
ByLayer
62
256
370
-1
100
AcDbLine
10
327
20
118
11
327
21
96
0
LINE
5
279
100
AcDbEntity
8
Fastners
6
ByLayer
62
256
370
-1
100
AcDbLine
10
333
20
118
11
333
21
96
0
ARC
5
27A
100
AcDbEntity
8
Fastners
6
ByLayer
62
256
370
-1
100
AcDbCircle
10
330
20
99
40
4.24264068712
100
AcDbArc
50
225
51
315
0
LINE
5
27B
100
AcDbEntity
8
Fastners
6
ByLayer
62
256
370
-1
100
AcDbLine
10
327
20
96
11
333
21
97
0
LINE
5
27C
100
AcDbEntity
8
Fastners
6
ByLayer
62
256
370
-1
100
AcDbLine
10
327
20
97
11
333
21
98
0
LINE
5
27D
100
AcDbEntity
8
Fastners
6
ByLayer
62
256
370
-1
100
AcDbLine
10
327
20
98
11
333
21
99
0
LINE
5
27E
100
AcDbEntity
8
Fastners
6
ByLayer
62
256
370
-1
100
AcDbLine
10
327
20
99
11
333
21
100
0
LINE
5
27F
100
AcDbEntity
8
Fastners
6
ByLayer
62
256
370
-1
100
AcDbLine
10
327
20
100
11
333
21
101
0
LINE
5
280
100
AcDbEntity
8
Fastners
6
ByLayer
62
256
370
-1
100
AcDbLine
10
327
20
101
11
333
21
102
0
LINE
5
281
100
AcDbEntity
8
Fastners
6
ByLayer
62
256
370
-1
100
AcDbLine
10
327
20
102
11
333
21
103
0
LINE
5
282
100
AcDbEntity
8
Fastners
6
ByLayer
62
256
370
-1
100
AcDbLine
10
327
20
103
11
333
21
104
0
LINE
5
283
100
AcDbEntity
8
Fastners
6
ByLayer
62
256
370
-1
100
AcDbLine
10
327
20
104
11
333
21
105
0
LINE
5
284
100
AcDbEntity
8
Fastners
6
ByLayer
62
256
370
-1
100
AcDbLine
10
327
20
105
11
333
21
106
0
LINE
5
285
100
AcDbEntity
8
Fastners
6
ByLayer
62
256
370
-1
100
AcDbLine
10
327
20
106
11
333
21
107
0
LINE
5
286
100
AcDbEntity
8
Fastners
6
ByLayer
62
256
370
-1
100
AcDbLine
10
327
20
107
11
333
21
108
0
LINE
5
287
100
AcDbEntity
8
Fastners
6
ByLayer
62
256
370
-1
100
AcDbLine
10
376
20
118
11
376
21
123
0
LINE
5
288
100
AcDbEntity
8
Fastners
6
ByLayer
62
256
370
-1
100
AcDbLine
10
376
20
123
11
364
21
123
0
LINE
5
289
100
AcDbEntity
8
Fastners
6
ByLayer
62
256
370
-1
100
AcDbLine
10
364
20
123
11
364
21
118
0
LINE
5
28A
100
AcDbEntity
8
Fastners
6
ByLayer
62
256
370
-1
100
AcDbLine
10
364
20
118
11
367
21
118
0
LINE
5
28B
100
AcDbEntity
8
Fastners
6
ByLayer
62
256
370
-1
100
AcDbLine
10
376
20
118
11
373
21
118
0
LINE
5
28C
100
AcDbEntity
8
Fastners
6
ByLayer
62
256
370
-1
100
AcDbLine
10
367
20
108
11
373
21
109
0
LINE
5
28D
100
AcDbEntity
8
Fastners
6
ByLayer
62
256
370
-1
100
AcDbLine
10
367
20
109
11
373
21
110
0
LINE
5
28E
100
AcDbEntity
8
Fastners
6
ByLayer
62
256
370
-1
100
AcDbLine
10
367
20
110
11
373
21
111
0
LINE
5
28F
100
AcDbEntity
8
Fastners
6
ByLayer
62
256
370
-1
100
AcDbLine
10
367
20
111
11
373
21
112
0
LINE
5
290
100
AcDbEntity
8
Fastners
6
ByLayer
62
256
370
-1
100
AcDbLine
10
367
20
112
11
373
21
113
0
LINE
5
291
100
AcDbEntity
8
Fastners
6
ByLayer
62
256
370
-1
100
AcDbLine
10
367
20
113
11
373
21
114
0
LINE
5
292
100
AcDbEntity
8
Fastners
6
ByLayer
62
256
370
-1
100
AcDbLine
10
367
20
114
11
373
21
115
0
LINE
5
293
100
AcDbEntity
8
Fastners
6
ByLayer
62
256
370
-1
100
AcDbLine
10
367
20
118
11
367
21
96
0
LINE
5
294
100
AcDbEntity
8
Fastners
6
ByLayer
62
256
370
-1
100
AcDbLine
10
373
20
118
11
373
21
96
0
ARC
5
295
100
AcDbEntity
8
Fastners
6
ByLayer
62
256
370
-1
100
AcDbCircle
10
370
20
99
40
4.24264068712
100
AcDbArc
50
225
51
315
0
LINE
5
296
100
AcDbEntity
8
Fastners
6
ByLayer
62
256
370
-1
100
AcDbLine
10
367
20
96
11
373
21
97
0
LINE
5
297
100
AcDbEntity
8
Fastners
6
ByLayer
62
256
370
-1
100
AcDbLine
10
367
20
97
11
373
21
98
0
LINE
5
298
100
AcDbEntity
8
Fastners
6
ByLayer
62
256
370
-1
100
AcDbLine
10
367
20
98
11
373
21
99
0
LINE
5
299
100
AcDbEntity
8
Fastners
6
ByLayer
62
256
370
-1
100
AcDbLine
10
367
20
99
11
373
21
100
0
LINE
5
29A
100
AcDbEntity
8
Fastners
6
ByLayer
62
256
370
-1
100
AcDbLine
10
367
20
100
11
373
21
101
0
LINE
5
29B
100
AcDbEntity
8
Fastners
6
ByLayer
62
256
370
-1
100
AcDbLine
10
367
20
101
11
373
21
102
0
LINE
5
29C
100
AcDbEntity
8
Fastners
6
ByLayer
62
256
370
-1
100
AcDbLine
10
367
20
102
11
373
21
103
0
LINE
5
29D
100
AcDbEntity
8
Fastners
6
ByLayer
62
256
370
-1
100
AcDbLine
10
367
20
103
11
373
21
104
0
LINE
5
29E
100
AcDbEntity
8
Fastners
6
ByLayer
62
256
370
-1
100
AcDbLine
10
367
20
104
11
373
21
105
0
LINE
5
29F
100
AcDbEntity
8
Fastners
6
ByLayer
62
256
370
-1
100
AcDbLine
10
367
20
105
11
373
21
106
0
LINE
5
2A0
100
AcDbEntity
8
Fastners
6
ByLayer
62
256
370
-1
100
AcDbLine
10
367
20
106
11
373
21
107
0
LINE
5
2A1
100
AcDbEntity
8
Fastners
6
ByLayer
62
256
370
-1
100
AcDbLine
10
367
20
107
11
373
21
108
0
DIMENSION
5
2A2
100
AcDbEntity
8
Dimensions
6
ByLayer
62
256
370
-1
100
AcDbDimension
2
*D19
10
300
20
60
30
0
11
282.5
21
61.875
31
0
70
32
71
5
3
Standard
53
0
210
0
220
0
230
1
100
AcDbAlignedDimension
13
265
23
70
33
0
14
300
24
70
34
0
100
AcDbRotatedDimension
0
DIMENSION
5
2A3
100
AcDbEntity
8
Dimensions
6
ByLayer
62
256
370
-1
100
AcDbDimension
2
*D20
10
320
20
60
30
0
11
310
21
61.875
31
0
70
32
71
5
3
Standard
53
0
210
0
220
0
230
1
100
AcDbAlignedDimension
13
300
23
70
33
0
14
320
24
70
34
0
100
AcDbRotatedDimension
0
DIMENSION
5
2A4
100
AcDbEntity
8
Dimensions
6
ByLayer
62
256
370
-1
100
AcDbDimension
2
*D21
10
330
20
61
30
0
11
325
21
62.875
31
0
70
32
71
5
3
Standard
53
0
210
0
220
0
230
1
100
AcDbAlignedDimension
13
320
23
70
33
0
14
330
24
70
34
0
100
AcDbRotatedDimension
0
DIMENSION
5
2A5
100
AcDbEntity
8
Dimensions
6
ByLayer
62
256
370
-1
100
AcDbDimension
2
*D22
10
345
20
60
30
0
11
337.5
21
61.875
31
0
70
32
71
5
3
Standard
53
0
210
0
220
0
230
1
100
AcDbAlignedDimension
13
330
23
70
33
0
14
345
24
70
34
0
100
AcDbRotatedDimension
0
DIMENSION
5
2A6
100
AcDbEntity
8
Dimensions
6
ByLayer
62
256
370
-1
100
AcDbDimension
2
*D23
10
355
20
61
30
0
11
350
21
62.875
31
0
70
32
71
5
3
Standard
53
0
210
0
220
0
230
1
100
AcDbAlignedDimension
13
345
23
70
33
0
14
355
24
70
34
0
100
AcDbRotatedDimension
0
DIMENSION
5
2A7
100
AcDbEntity
8
Dimensions
6
ByLayer
62
256
370
-1
100
AcDbDimension
2
*D24
10
370
20
60
30
0
11
362.5
21
61.875
31
0
70
32
71
5
3
Standard
53
0
210
0
220
0
230
1
100
AcDbAlignedDimension
13
355
23
70
33
0
14
370
24
70
34
0
100
AcDbRotatedDimension
0
DIMENSION
5
2A8
100
AcDbEntity
8
Dimensions
6
ByLayer
62
256
370
-1
100
AcDbDimension
2
*D25
10
380
20
60
30
0
11
375
21
61.875
31
0
70
32
71
5
3
Standard
53
0
210
0
220
0
230
1
100
AcDbAlignedDimension
13
370
23
70
33
0
14
380
24
70
34
0
100
AcDbRotatedDimension
0
DIMENSION
5
2A9
100
AcDbEntity
8
Dimensions
6
ByLayer
62
256
370
-1
100
AcDbDimension
2
*D26
10
322
20
150
30
0
11
321
21
151.875
31
0
70
32
71
5
3
Standard
53
0
210
0
220
0
230
1
100
AcDbAlignedDimension
13
320
23
140
33
0
14
322
24
140
34
0
100
AcDbRotatedDimension
0
DIMENSION
5
2AA
100
AcDbEntity
8
Dimensions
6
ByLayer
62
256
370
-1
100
AcDbDimension
2
*D27
10
334
20
150
30
0
11
328
21
151.875
31
0
70
32
71
5
3
Standard
53
0
210
0
220
0
230
1
100
AcDbAlignedDimension
13
322
23
140
33
0
14
334
24
140
34
0
100
AcDbRotatedDimension
0
LINE
5
2AB
100
AcDbEntity
8
Inserts
6
ByLayer
62
256
370
-1
100
AcDbLine
10
328
20
109
11
322
21
115
0
LINE
5
2AC
100
AcDbEntity
8
Inserts
6
ByLayer
62
256
370
-1
100
AcDbLine
10
328
20
109
11
340
21
109
0
LINE
5
2AD
100
AcDbEntity
8
Inserts
6
ByLayer
62
256
370
-1
100
AcDbLine
10
346
20
115
11
340
21
109
0
LINE
5
2AE
100
AcDbEntity
8
Inserts
6
ByLayer
62
256
370
-1
100
AcDbLine
10
340
20
100
11
328
21
100
0
LINE
5
2AF
100
AcDbEntity
8
Inserts
6
ByLayer
62
256
370
-1
100
AcDbLine
10
328
20
100
11
328
21
109
0
LINE
5
2B0
100
AcDbEntity
8
Inserts
6
ByLayer
62
256
370
-1
100
AcDbLine
10
340
20
109
11
340
21
100
0
DIMENSION
5
2B1
100
AcDbEntity
8
Dimensions
6
ByLayer
62
256
370
-1
100
AcDbDimension
2
*D28
10
340
20
150
30
0
11
337
21
151.875
31
0
70
32
71
5
3
Standard
53
0
210
0
220
0
230
1
100
AcDbAlignedDimension
13
334
23
140
33
0
14
340
24
140
34
0
100
AcDbRotatedDimension
0
DIMENSION
5
2B2
100
AcDbEntity
8
Dimensions
6
ByLayer
62
256
370
-1
100
AcDbDimension
2
*D29
10
346
20
150
30
0
11
343
21
151.875
31
0
70
32
71
5
3
Standard
53
0
210
0
220
0
230
1
100
AcDbAlignedDimension
13
340
23
140
33
0
14
346
24
140
34
0
100
AcDbRotatedDimension
0
DIMENSION
5
2B3
100
AcDbEntity
8
Dimensions
6
ByLayer
62
256
370
-1
100
AcDbDimension
2
*D30
10
400
20
118
30
0
11
398.125
21
106.5
31
0
70
32
71
5
3
Standard
53
0
210
0
220
0
230
1
100
AcDbAlignedDimension
13
390
23
95
33
0
14
390
24
118
34
0
50
90
100
AcDbRotatedDimension
0
DIMENSION
5
2B4
100
AcDbEntity
8
Dimensions
6
ByLayer
62
256
370
-1
100
AcDbDimension
2
*D31
10
420
20
135
30
0
11
418.125
21
107.5
31
0
70
32
71
5
3
Standard
53
0
210
0
220
0
230
1
100
AcDbAlignedDimension
13
410
23
80
33
0
14
410
24
135
34
0
50
90
100
AcDbRotatedDimension
0
DIMENSION
5
2B5
100
AcDbEntity
8
Dimensions
6
ByLayer
62
256
370
-1
100
AcDbDimension
2
*D32
10
102
20
180
30
0
11
101
21
181.875
31
0
70
32
71
5
3
Standard
53
0
210
0
220
0
230
1
100
AcDbAlignedDimension
13
100
23
170
33
0
14
102
24
170
34
0
100
AcDbRotatedDimension
0
DIMENSION
5
2B6
100
AcDbEntity
8
Dimensions
6
ByLayer
62
256
370
-1
100
AcDbDimension
2
*D33
10
114
20
180
30
0
11
108
21
181.875
31
0
70
32
71
5
3
Standard
53
0
210
0
220
0
230
1
100
AcDbAlignedDimension
13
102
23
170
33
0
14
114
24
170
34
0
100
AcDbRotatedDimension
0
DIMENSION
5
2B7
100
AcDbEntity
8
Dimensions
6
ByLayer
62
256
370
-1
100
AcDbDimension
2
*D34
10
126
20
180
30
0
11
120
21
181.875
31
0
70
32
71
5
3
Standard
53
0
210
0
220
0
230
1
100
AcDbAlignedDimension
13
114
23
170
33
0
14
126
24
170
34
0
100
AcDbRotatedDimension
0
CIRCLE
5
2B8
100
AcDbEntity
8
DrillingTemplate
6
ByLayer
62
256
370
-1
100
AcDbCircle
10
125
20
90
40
0.5
0
CIRCLE
5
2B9
100
AcDbEntity
8
DrillingTemplate
6
ByLayer
62
256
370
-1
100
AcDbCircle
10
135
20
90
40
0.5
0
CIRCLE
5
2BA
100
AcDbEntity
8
DrillingTemplate
6
ByLayer
62
256
370
-1
100
AcDbCircle
10
150
20
90
40
0.5
0
CIRCLE
5
2BB
100
AcDbEntity
8
DrillingTemplate
6
ByLayer
62
256
370
-1
100
AcDbCircle
10
150
20
55
40
0.5
0
CIRCLE
5
2BC
100
AcDbEntity
8
DrillingTemplate
6
ByLayer
62
256
370
-1
100
AcDbCircle
10
110
20
55
40
0.5
0
CIRCLE
5
2BD
100
AcDbEntity
8
DrillingTemplate
6
ByLayer
62
256
370
-1
100
AcDbCircle
10
110
20
90
40
0.5
0
CIRCLE
5
2BE
100
AcDbEntity
8
DrillingTemplate
6
ByLayer
62
256
370
-1
100
AcDbCircle
10
123
20
97
40
0.5
0
CIRCLE
5
2BF
100
AcDbEntity
8
DrillingTemplate
6
ByLayer
62
256
370
-1
100
AcDbCircle
10
137
20
97
40
0.5
0
CIRCLE
5
2C0
100
AcDbEntity
8
DrillingTemplate
6
ByLayer
62
256
370
-1
100
AcDbCircle
10
114
20
114
40
0.4
0
CIRCLE
5
2C1
100
AcDbEntity
8
DrillingTemplate
6
ByLayer
62
256
370
-1
100
AcDbCircle
10
90
20
125
40
0.5
0
CIRCLE
5
2C2
100
AcDbEntity
8
DrillingTemplate
6
ByLayer
62
256
370
-1
100
AcDbCircle
10
90
20
135
40
0.5
0
CIRCLE
5
2C3
100
AcDbEntity
8
DrillingTemplate
6
ByLayer
62
256
370
-1
100
AcDbCircle
10
90
20
150
40
0.5
0
CIRCLE
5
2C4
100
AcDbEntity
8
DrillingTemplate
6
ByLayer
62
256
370
-1
100
AcDbCircle
10
55
20
150
40
0.5
0
CIRCLE
5
2C5
100
AcDbEntity
8
DrillingTemplate
6
ByLayer
62
256
370
-1
100
AcDbCircle
10
55
20
110
40
0.5
0
CIRCLE
5
2C6
100
AcDbEntity
8
DrillingTemplate
6
ByLayer
62
256
370
-1
100
AcDbCircle
10
90
20
110
40
0.5
0
CIRCLE
5
2C7
100
AcDbEntity
8
DrillingTemplate
6
ByLayer
62
256
370
-1
100
AcDbCircle
10
97
20
123
40
0.5
0
CIRCLE
5
2C8
100
AcDbEntity
8
DrillingTemplate
6
ByLayer
62
256
370
-1
100
AcDbCircle
10
97
20
137
40
0.5
0
CIRCLE
5
2C9
100
AcDbEntity
8
DrillingTemplate
6
ByLayer
62
256
370
-1
100
AcDbCircle
10
97
20
97
40
0.5
0
LINE
5
2CA
100
AcDbEntity
8
ToPrint
6
ByLayer
62
256
370
-1
100
AcDbLine
10
-200
20
117
11
-200
21
110
0
LINE
5
2CB
100
AcDbEntity
8
ToPrint
6
ByLayer
62
256
370
-1
100
AcDbLine
10
-180
20
110
11
-180
21
117
0
LINE
5
2CC
100
AcDbEntity
8
ToPrint
6
ByLayer
62
256
370
-1
100
AcDbLine
10
-183
20
120
11
-197
21
120
0
ARC
5
2CD
100
AcDbEntity
8
ToPrint
6
ByLayer
62
256
370
-1
100
AcDbCircle
10
-183
20
117
40
3
100
AcDbArc
50
0
51
90
0
ARC
5
2CE
100
AcDbEntity
8
ToPrint
6
ByLayer
62
256
370
-1
100
AcDbCircle
10
-197
20
117
40
3
100
AcDbArc
50
90
51
180
0
LINE
5
2CF
100
AcDbEntity
8
ToPrint
6
ByLayer
62
256
370
-1
100
AcDbLine
10
-200
20
103
11
-200
21
110
0
LINE
5
2D0
100
AcDbEntity
8
ToPrint
6
ByLayer
62
256
370
-1
100
AcDbLine
10
-180
20
110
11
-180
21
103
0
LINE
5
2D1
100
AcDbEntity
8
ToPrint
6
ByLayer
62
256
370
-1
100
AcDbLine
10
-183
20
100
11
-197
21
100
0
ARC
5
2D2
100
AcDbEntity
8
ToPrint
6
ByLayer
62
256
370
-1
100
AcDbCircle
10
-183
20
103
40
3
100
AcDbArc
50
270
51
0
0
ARC
5
2D3
100
AcDbEntity
8
ToPrint
6
ByLayer
62
256
370
-1
100
AcDbCircle
10
-197
20
103
40
3
100
AcDbArc
50
180
51
270
0
CIRCLE
5
2D4
100
AcDbEntity
8
ToPrint
6
ByLayer
62
256
370
-1
100
AcDbCircle
10
-195
20
110
40
2
0
CIRCLE
5
2D5
100
AcDbEntity
8
ToPrint
6
ByLayer
62
256
370
-1
100
AcDbCircle
10
-185
20
110
40
2
0
LINE
5
2D6
100
AcDbEntity
8
ToPrint
6
ByLayer
62
256
370
-1
100
AcDbLine
10
-200
20
142
11
-200
21
135
0
LINE
5
2D7
100
AcDbEntity
8
ToPrint
6
ByLayer
62
256
370
-1
100
AcDbLine
10
-180
20
135
11
-180
21
142
0
LINE
5
2D8
100
AcDbEntity
8
ToPrint
6
ByLayer
62
256
370
-1
100
AcDbLine
10
-183
20
145
11
-197
21
145
0
ARC
5
2D9
100
AcDbEntity
8
ToPrint
6
ByLayer
62
256
370
-1
100
AcDbCircle
10
-183
20
142
40
3
100
AcDbArc
50
0
51
90
0
ARC
5
2DA
100
AcDbEntity
8
ToPrint
6
ByLayer
62
256
370
-1
100
AcDbCircle
10
-197
20
142
40
3
100
AcDbArc
50
90
51
180
0
LINE
5
2DB
100
AcDbEntity
8
ToPrint
6
ByLayer
62
256
370
-1
100
AcDbLine
10
-200
20
128
11
-200
21
135
0
LINE
5
2DC
100
AcDbEntity
8
ToPrint
6
ByLayer
62
256
370
-1
100
AcDbLine
10
-180
20
135
11
-180
21
128
0
LINE
5
2DD
100
AcDbEntity
8
ToPrint
6
ByLayer
62
256
370
-1
100
AcDbLine
10
-183
20
125
11
-197
21
125
0
ARC
5
2DE
100
AcDbEntity
8
ToPrint
6
ByLayer
62
256
370
-1
100
AcDbCircle
10
-183
20
128
40
3
100
AcDbArc
50
270
51
0
0
ARC
5
2DF
100
AcDbEntity
8
ToPrint
6
ByLayer
62
256
370
-1
100
AcDbCircle
10
-197
20
128
40
3
100
AcDbArc
50
180
51
270
0
CIRCLE
5
2E0
100
AcDbEntity
8
ToPrint
6
ByLayer
62
256
370
-1
100
AcDbCircle
10
-195
20
135
40
2
0
CIRCLE
5
2E1
100
AcDbEntity
8
ToPrint
6
ByLayer
62
256
370
-1
100
AcDbCircle
10
-185
20
135
40
2
0
CIRCLE
5
2E2
100
AcDbEntity
8
ToPrint
6
ByLayer
62
256
370
-1
100
AcDbCircle
10
-195
20
110
40
0.5
0
CIRCLE
5
2E3
100
AcDbEntity
8
ToPrint
6
ByLayer
62
256
370
-1
100
AcDbCircle
10
-185
20
110
40
0.5
0
CIRCLE
5
2E4
100
AcDbEntity
8
ToPrint
6
ByLayer
62
256
370
-1
100
AcDbCircle
10
-195
20
135
40
0.5
0
CIRCLE
5
2E5
100
AcDbEntity
8
ToPrint
6
ByLayer
62
256
370
-1
100
AcDbCircle
10
-185
20
135
40
0.5
0
ARC
5
2E6
100
AcDbEntity
8
Fastners
6
ByLayer
62
256
370
-1
100
AcDbCircle
10
345
20
112
40
3.60555127546
100
AcDbArc
50
236.309932474
51
303.690067526
0
LINE
5
2E7
100
AcDbEntity
8
Fastners
6
ByLayer
62
256
370
-1
100
AcDbLine
10
343
20
109
11
347
21
109.8
0
LINE
5
2E8
100
AcDbEntity
8
Fastners
6
ByLayer
62
256
370
-1
100
AcDbLine
10
343
20
109.8
11
347
21
110.6
0
LINE
5
2E9
100
AcDbEntity
8
Fastners
6
ByLayer
62
256
370
-1
100
AcDbLine
10
343
20
110.6
11
347
21
111.4
0
LINE
5
2EA
100
AcDbEntity
8
Fastners
6
ByLayer
62
256
370
-1
100
AcDbLine
10
343
20
111.4
11
347
21
112.2
0
LINE
5
2EB
100
AcDbEntity
8
Fastners
6
ByLayer
62
256
370
-1
100
AcDbLine
10
343
20
112.2
11
347
21
113
0
LINE
5
2EC
100
AcDbEntity
8
Fastners
6
ByLayer
62
256
370
-1
100
AcDbLine
10
343
20
113
11
347
21
113.8
0
LINE
5
2ED
100
AcDbEntity
8
Fastners
6
ByLayer
62
256
370
-1
100
AcDbLine
10
343
20
113.8
11
347
21
114.6
0
LINE
5
2EE
100
AcDbEntity
8
Fastners
6
ByLayer
62
256
370
-1
100
AcDbLine
10
343
20
114.6
11
347
21
115.4
0
ARC
5
2EF
100
AcDbEntity
8
Fastners
6
ByLayer
62
256
370
-1
100
AcDbCircle
10
355
20
112.2
40
3.60555127546
100
AcDbArc
50
236.309932474
51
303.690067526
0
LINE
5
2F0
100
AcDbEntity
8
Fastners
6
ByLayer
62
256
370
-1
100
AcDbLine
10
353
20
109.2
11
357
21
110
0
LINE
5
2F1
100
AcDbEntity
8
Fastners
6
ByLayer
62
256
370
-1
100
AcDbLine
10
353
20
110
11
357
21
110.8
0
LINE
5
2F2
100
AcDbEntity
8
Fastners
6
ByLayer
62
256
370
-1
100
AcDbLine
10
353
20
110.8
11
357
21
111.6
0
LINE
5
2F3
100
AcDbEntity
8
Fastners
6
ByLayer
62
256
370
-1
100
AcDbLine
10
353
20
111.6
11
357
21
112.4
0
LINE
5
2F4
100
AcDbEntity
8
Fastners
6
ByLayer
62
256
370
-1
100
AcDbLine
10
353
20
112.4
11
357
21
113.2
0
LINE
5
2F5
100
AcDbEntity
8
Fastners
6
ByLayer
62
256
370
-1
100
AcDbLine
10
353
20
113.2
11
357
21
114
0
LINE
5
2F6
100
AcDbEntity
8
Fastners
6
ByLayer
62
256
370
-1
100
AcDbLine
10
353
20
114
11
357
21
114.8
0
LINE
5
2F7
100
AcDbEntity
8
Fastners
6
ByLayer
62
256
370
-1
100
AcDbLine
10
353
20
114.8
11
357
21
115.6
0
LINE
5
2F8
100
AcDbEntity
8
Fastners
6
ByLayer
62
256
370
-1
100
AcDbLine
10
343
20
109
11
343
21
116
0
LINE
5
2F9
100
AcDbEntity
8
Fastners
6
ByLayer
62
256
370
-1
100
AcDbLine
10
347
20
109
11
347
21
116
0
LINE
5
2FA
100
AcDbEntity
8
Fastners
6
ByLayer
62
256
370
-1
100
AcDbLine
10
353
20
109
11
353
21
116
0
LINE
5
2FB
100
AcDbEntity
8
Fastners
6
ByLayer
62
256
370
-1
100
AcDbLine
10
357
20
109
11
357
21
116
0
LINE
5
2FC
100
AcDbEntity
8
Fastners
6
ByLayer
62
256
370
-1
100
AcDbLine
10
353
20
99
11
351
21
97
0
LINE
5
2FD
100
AcDbEntity
8
Fastners
6
ByLayer
62
256
370
-1
100
AcDbLine
10
351
20
97
11
359
21
97
0
LINE
5
2FE
100
AcDbEntity
8
Fastners
6
ByLayer
62
256
370
-1
100
AcDbLine
10
359
20
97
11
357
21
99
0
LINE
5
2FF
100
AcDbEntity
8
Fastners
6
ByLayer
62
256
370
-1
100
AcDbLine
10
343
20
99
11
341
21
97
0
LINE
5
300
100
AcDbEntity
8
Fastners
6
ByLayer
62
256
370
-1
100
AcDbLine
10
341
20
97
11
349
21
97
0
LINE
5
301
100
AcDbEntity
8
Fastners
6
ByLayer
62
256
370
-1
100
AcDbLine
10
349
20
97
11
347
21
99
0
ARC
5
302
100
AcDbEntity
8
Fastners
6
ByLayer
62
256
370
-1
100
AcDbCircle
10
355
20
103
40
3.60555127546
100
AcDbArc
50
56.309932474
51
123.690067526
0
LINE
5
303
100
AcDbEntity
8
Fastners
6
ByLayer
62
256
370
-1
100
AcDbLine
10
357
20
106
11
353
21
105.2
0
LINE
5
304
100
AcDbEntity
8
Fastners
6
ByLayer
62
256
370
-1
100
AcDbLine
10
357
20
105.2
11
353
21
104.4
0
LINE
5
305
100
AcDbEntity
8
Fastners
6
ByLayer
62
256
370
-1
100
AcDbLine
10
357
20
104.4
11
353
21
103.6
0
LINE
5
306
100
AcDbEntity
8
Fastners
6
ByLayer
62
256
370
-1
100
AcDbLine
10
357
20
103.6
11
353
21
102.8
0
LINE
5
307
100
AcDbEntity
8
Fastners
6
ByLayer
62
256
370
-1
100
AcDbLine
10
357
20
102.8
11
353
21
102
0
LINE
5
308
100
AcDbEntity
8
Fastners
6
ByLayer
62
256
370
-1
100
AcDbLine
10
357
20
102
11
353
21
101.2
0
LINE
5
309
100
AcDbEntity
8
Fastners
6
ByLayer
62
256
370
-1
100
AcDbLine
10
357
20
101.2
11
353
21
100.4
0
LINE
5
30A
100
AcDbEntity
8
Fastners
6
ByLayer
62
256
370
-1
100
AcDbLine
10
357
20
100.4
11
353
21
99.6
0
ARC
5
30B
100
AcDbEntity
8
Fastners
6
ByLayer
62
256
370
-1
100
AcDbCircle
10
345
20
102.8
40
3.60555127546
100
AcDbArc
50
56.309932474
51
123.690067526
0
LINE
5
30C
100
AcDbEntity
8
Fastners
6
ByLayer
62
256
370
-1
100
AcDbLine
10
347
20
105.8
11
343
21
105
0
LINE
5
30D
100
AcDbEntity
8
Fastners
6
ByLayer
62
256
370
-1
100
AcDbLine
10
347
20
105
11
343
21
104.2
0
LINE
5
30E
100
AcDbEntity
8
Fastners
6
ByLayer
62
256
370
-1
100
AcDbLine
10
347
20
104.2
11
343
21
103.4
0
LINE
5
30F
100
AcDbEntity
8
Fastners
6
ByLayer
62
256
370
-1
100
AcDbLine
10
347
20
103.4
11
343
21
102.6
0
LINE
5
310
100
AcDbEntity
8
Fastners
6
ByLayer
62
256
370
-1
100
AcDbLine
10
347
20
102.6
11
343
21
101.8
0
LINE
5
311
100
AcDbEntity
8
Fastners
6
ByLayer
62
256
370
-1
100
AcDbLine
10
347
20
101.8
11
343
21
101
0
LINE
5
312
100
AcDbEntity
8
Fastners
6
ByLayer
62
256
370
-1
100
AcDbLine
10
347
20
101
11
343
21
100.2
0
LINE
5
313
100
AcDbEntity
8
Fastners
6
ByLayer
62
256
370
-1
100
AcDbLine
10
347
20
100.2
11
343
21
99.4
0
LINE
5
314
100
AcDbEntity
8
Fastners
6
ByLayer
62
256
370
-1
100
AcDbLine
10
357
20
106
11
357
21
99
0
LINE
5
315
100
AcDbEntity
8
Fastners
6
ByLayer
62
256
370
-1
100
AcDbLine
10
353
20
106
11
353
21
99
0
LINE
5
316
100
AcDbEntity
8
Fastners
6
ByLayer
62
256
370
-1
100
AcDbLine
10
347
20
106
11
347
21
99
0
LINE
5
317
100
AcDbEntity
8
Fastners
6
ByLayer
62
256
370
-1
100
AcDbLine
10
343
20
106
11
343
21
99
0
ENDSEC
0
SECTION
2
OBJECTS
0
DICTIONARY
5
C
330
0
100
AcDbDictionary
281
1
3
ACAD_GROUP
350
D
0
DICTIONARY
5
D
330
C
100
AcDbDictionary
281
1
0
ENDSEC
0
EOF
