999
dxfrw 0.6.3
  0
SECTION
  2
HEADER
  9
$ACADVER
  1
AC1021
  9
$DWGCODEPAGE
  3
ANSI_1252
  9
$INSBASE
 10
0
 20
0
 30
0
  9
$EXTMIN
 10
-127.8125
 20
50
 30
0
  9
$EXTMAX
 10
253.125
 20
447.8125
 30
0
  9
$LIMMIN
 10
0
 20
0
  9
$LIMMAX
 10
420
 20
297
  9
$ORTHOMODE
 70
    0
  9
$REGENMODE
 70
    1
  9
$FILLMODE
 70
    1
  9
$QTEXTMODE
 70
    0
  9
$MIRRTEXT
 70
    0
  9
$LTSCALE
 40
1
  9
$ATTMODE
 70
    0
  9
$TEXTSIZE
 40
2.5
  9
$TRACEWID
 40
15.68
  9
$TEXTSTYLE
  7
STANDARD
  9
$CLAYER
  8
Dimms
  9
$CELTYPE
  6
BYLAYER
  9
$CECOLOR
 62
  256
  9
$CELTSCALE
 40
1
  9
$DISPSILH
 70
    0
  9
$DIMSCALE
 40
2.5
  9
$DIMASZ
 40
2.5
  9
$DIMEXO
 40
0.625
  9
$DIMDLI
 40
3.75
  9
$DIMRND
 40
0
  9
$DIMDLE
 40
0
  9
$DIMEXE
 40
1.25
  9
$DIMTP
 40
0
  9
$DIMTM
 40
0
  9
$DIMTXT
 40
2.5
  9
$DIMCEN
 40
2.5
  9
$DIMTSZ
 40
0
  9
$DIMTOL
 70
    0
  9
$DIMLIM
 70
    0
  9
$DIMTIH
 70
    0
  9
$DIMTOH
 70
    0
  9
$DIMSE1
 70
    0
  9
$DIMSE2
 70
    0
  9
$DIMTAD
 70
    1
  9
$DIMZIN
 70
    8
  9
$DIMBLK
  1

  9
$DIMASO
 70
    1
  9
$DIMSHO
 70
    1
  9
$DIMPOST
  1

  9
$DIMAPOST
  1

  9
$DIMALT
 70
    0
  9
$DIMALTD
 70
    3
  9
$DIMALTF
 40
0.03937
  9
$DIMLFAC
 40
1
  9
$DIMTOFL
 70
    1
  9
$DIMTVP
 40
0
  9
$DIMTIX
 70
    0
  9
$DIMSOXD
 70
    0
  9
$DIMSAH
 70
    0
  9
$DIMBLK1
  1

  9
$DIMBLK2
  1

  9
$DIMSTYLE
  2
Standard
  9
$DIMCLRD
 70
    0
  9
$DIMCLRE
 70
    0
  9
$DIMCLRT
 70
    0
  9
$DIMTFAC
 40
1
  9
$DIMGAP
 40
0.625
  9
$DIMJUST
 70
    0
  9
$DIMSD1
 70
    0
  9
$DIMSD2
 70
    0
  9
$DIMTOLJ
 70
    0
  9
$DIMTZIN
 70
    8
  9
$DIMALTZ
 70
    0
  9
$DIMALTTZ
 70
    0
  9
$DIMUPT
 70
    0
  9
$DIMDEC
 70
    2
  9
$DIMTDEC
 70
    2
  9
$DIMALTU
 70
    2
  9
$DIMALTTD
 70
    3
  9
$DIMTXSTY
  7
standard
  9
$DIMAUNIT
 70
    0
  9
$DIMADEC
 70
    0
  9
$DIMALTRND
 40
0
  9
$DIMAZIN
 70
    0
  9
$DIMDSEP
 70
   44
  9
$DIMATFIT
 70
    3
  9
$DIMFRAC
 70
    0
  9
$DIMLDRBLK
  1
STANDARD
  9
$DIMLUNIT
 70
    2
  9
$DIMLWD
 70
   -2
  9
$DIMLWE
 70
   -2
  9
$DIMTMOVE
 70
    0
  9
$DIMFXL
 40
1
  9
$DIMFXLON
 70
    0
  9
$DIMJOGANG
 40
0.7854
  9
$DIMTFILL
 70
    0
  9
$DIMTFILLCLR
 70
    0
  9
$DIMARCSYM
 70
    0
  9
$DIMLTYPE
  6

  9
$DIMLTEX1
  6

  9
$DIMLTEX2
  6

  9
$LUNITS
 70
    2
  9
$LUPREC
 70
    4
  9
$SKETCHINC
 40
1
  9
$FILLETRAD
 40
0
  9
$AUNITS
 70
    0
  9
$AUPREC
 70
    2
  9
$MENU
  1
.
  9
$ELEVATION
 40
0
  9
$PELEVATION
 40
0
  9
$THICKNESS
 40
0
  9
$LIMCHECK
 70
    0
  9
$CHAMFERA
 40
0
  9
$CHAMFERB
 40
0
  9
$CHAMFERC
 40
0
  9
$CHAMFERD
 40
0
  9
$SKPOLY
 70
    0
  9
$USRTIMER
 70
    1
  9
$ANGBASE
 50
0
  9
$ANGDIR
 70
    0
  9
$PDMODE
 70
   34
  9
$PDSIZE
 40
0
  9
$PLINEWID
 40
0
  9
$SPLFRAME
 70
    0
  9
$SPLINETYPE
 70
    2
  9
$SPLINESEGS
 70
    8
  9
$HANDSEED
  5
20000
  9
$SURFTAB1
 70
    6
  9
$SURFTAB2
 70
    6
  9
$SURFTYPE
 70
    6
  9
$SURFU
 70
    6
  9
$SURFV
 70
    6
  9
$UCSBASE
  2

  9
$UCSNAME
  2

  9
$UCSORG
 10
0
 20
0
 30
0
  9
$UCSXDIR
 10
1
 20
0
 30
0
  9
$UCSYDIR
 10
0
 20
1
 30
0
  9
$UCSORTHOREF
  2

  9
$UCSORTHOVIEW
 70
    0
  9
$UCSORGTOP
 10
0
 20
0
 30
0
  9
$UCSORGBOTTOM
 10
0
 20
0
 30
0
  9
$UCSORGLEFT
 10
0
 20
0
 30
0
  9
$UCSORGRIGHT
 10
0
 20
0
 30
0
  9
$UCSORGFRONT
 10
0
 20
0
 30
0
  9
$UCSORGBACK
 10
0
 20
0
 30
0
  9
$PUCSBASE
  2

  9
$PUCSNAME
  2

  9
$PUCSORG
 10
0
 20
0
 30
0
  9
$PUCSXDIR
 10
1
 20
0
 30
0
  9
$PUCSYDIR
 10
0
 20
1
 30
0
  9
$PUCSORTHOREF
  2

  9
$PUCSORTHOVIEW
 70
    0
  9
$PUCSORGTOP
 10
0
 20
0
 30
0
  9
$PUCSORGBOTTOM
 10
0
 20
0
 30
0
  9
$PUCSORGLEFT
 10
0
 20
0
 30
0
  9
$PUCSORGRIGHT
 10
0
 20
0
 30
0
  9
$PUCSORGFRONT
 10
0
 20
0
 30
0
  9
$PUCSORGBACK
 10
0
 20
0
 30
0
  9
$USERI1
 70
    0
  9
$USERI2
 70
    0
  9
$USERI3
 70
    0
  9
$USERI4
 70
    0
  9
$USERI5
 70
    0
  9
$USERR1
 40
0
  9
$USERR2
 40
0
  9
$USERR3
 40
0
  9
$USERR4
 40
0
  9
$USERR5
 40
0
  9
$WORLDVIEW
 70
    1
  9
$SHADEDGE
 70
    3
  9
$SHADEDIF
 70
   70
  9
$TILEMODE
 70
    1
  9
$MAXACTVP
 70
   64
  9
$PINSBASE
 10
233.4094845228192
 20
-14.4133988927745
 30
0
  9
$PLIMCHECK
 70
    0
  9
$PEXTMIN
 10
0
 20
0
 30
0
  9
$PEXTMAX
 10
0
 20
0
 30
0
  9
$GRIDMODE
 70
    1
  9
$SNAPSTYLE
 70
    0
  9
$GRIDUNIT
 10
0
 20
0
  9
$PLIMMIN
 10
0
 20
0
  9
$PLIMMAX
 10
297
 20
210
  9
$UNITMODE
 70
    0
  9
$VISRETAIN
 70
    1
  9
$PLINEGEN
 70
    0
  9
$PSLTSCALE
 70
    1
  9
$TREEDEPTH
 70
 3020
  9
$CMLSTYLE
  2
Standard
  9
$CMLJUST
 70
    0
  9
$CMLSCALE
 40
20
  9
$PROXYGRAPHICS
 70
    1
  9
$MEASUREMENT
 70
    1
  9
$CELWEIGHT
370
   -1
  9
$ENDCAPS
280
    0
  9
$JOINSTYLE
280
    0
  9
$LWDISPLAY
290
    0
  9
$INSUNITS
 70
    4
  9
$HYPERLINKBASE
  1

  9
$STYLESHEET
  1

  9
$XEDIT
290
    1
  9
$CEPSNTYPE
380
    0
  9
$PSTYLEMODE
290
    1
  9
$EXTNAMES
290
    1
  9
$PSVPSCALE
 40
1
  9
$OLESTARTUP
290
    0
  9
$SORTENTS
280
  127
  9
$INDEXCTL
280
    0
  9
$HIDETEXT
280
    1
  9
$XCLIPFRAME
290
    0
  9
$HALOGAP
280
    0
  9
$OBSCOLOR
 70
  257
  9
$OBSLTYPE
280
    0
  9
$INTERSECTIONDISPLAY
280
    0
  9
$INTERSECTIONCOLOR
 70
  257
  9
$DIMASSOC
280
    1
  9
$PROJECTNAME
  1

  9
$CAMERADISPLAY
290
    0
  9
$LENSLENGTH
 40
50
  9
$CAMERAHEIGHT
 40
0
  9
$STEPSPERSEC
 40
2
  9
$STEPSIZE
 40
50
  9
$3DDWFPREC
 40
2
  9
$PSOLWIDTH
 40
5
  9
$PSOLHEIGHT
 40
80
  9
$LOFTANG1
 40
1.570796326794897
  9
$LOFTANG2
 40
1.570796326794897
  9
$LOFTMAG1
 40
0
  9
$LOFTMAG2
 40
0
  9
$LOFTPARAM
 70
    7
  9
$LOFTNORMALS
280
    1
  9
$LATITUDE
 40
1
  9
$LONGITUDE
 40
1
  9
$NORTHDIRECTION
 40
0
  9
$TIMEZONE
 70
-8000
  9
$LIGHTGLYPHDISPLAY
280
    1
  9
$TILEMODELIGHTSYNCH
280
    1
  9
$SOLIDHIST
280
    1
  9
$SHOWHIST
280
    1
  9
$DWFFRAME
280
    2
  9
$DGNFRAME
280
    0
  9
$REALWORLDSCALE
290
    1
  9
$INTERFERECOLOR
 62
    1
  9
$CSHADOW
280
    0
  9
$SHADOWPLANELOCATION
 40
0
  0
ENDSEC
  0
SECTION
  2
CLASSES
  0
ENDSEC
  0
SECTION
  2
TABLES
  0
TABLE
  2
VPORT
  5
8
330
0
100
AcDbSymbolTable
 70
    1
  0
VPORT
  5
31
330
2
100
AcDbSymbolTableRecord
100
AcDbViewportTableRecord
  2
*ACTIVE
 70
    0
 10
0
 20
0
 11
1
 21
1
 12
371.3369369508516
 22
351.0713577272097
 13
0
 23
0
 14
10
 24
10
 15
10
 25
10
 16
0
 26
0
 36
1
 17
0
 27
0
 37
0
 40
801.0864257816125
 41
1.819940476190476
 42
50
 43
0
 44
0
 50
0
 51
0
 71
    0
 72
  100
 73
    1
 74
    3
 75
    0
 76
    1
 77
    0
 78
    0
281
    0
 65
    1
110
0
120
0
130
0
111
1
121
0
131
0
112
0
122
1
132
0
 79
    0
146
0
348
10020
 60
    7
 61
    5
292
1
282
    1
141
0
142
0
 63
  250
421
3358443
  0
ENDTAB
  0
TABLE
  2
LTYPE
  5
5
330
0
100
AcDbSymbolTable
 70
    4
  0
LTYPE
  5
14
330
5
100
AcDbSymbolTableRecord
100
AcDbLinetypeTableRecord
  2
ByBlock
 70
    0
  3

 72
   65
 73
    0
 40
0
  0
LTYPE
  5
15
330
5
100
AcDbSymbolTableRecord
100
AcDbLinetypeTableRecord
  2
ByLayer
 70
    0
  3

 72
   65
 73
    0
 40
0
  0
LTYPE
  5
16
330
5
100
AcDbSymbolTableRecord
100
AcDbLinetypeTableRecord
  2
Continuous
 70
    0
  3
Solid line
 72
   65
 73
    0
 40
0
  0
LTYPE
  5
32
330
5
100
AcDbSymbolTableRecord
100
AcDbLinetypeTableRecord
  2
DOT
 70
    0
  3
Dot . . . . . . . . . . . . . . . . . . . . . .
 72
   65
 73
    2
 40
6.35
 49
0
 74
    0
 49
-6.35
 74
    0
  0
LTYPE
  5
33
330
5
100
AcDbSymbolTableRecord
100
AcDbLinetypeTableRecord
  2
DOTTINY
 70
    0
  3
Dot (.15x) .....................................
 72
   65
 73
    2
 40
0.9525
 49
0
 74
    0
 49
-0.9525
 74
    0
  0
LTYPE
  5
34
330
5
100
AcDbSymbolTableRecord
100
AcDbLinetypeTableRecord
  2
DOT2
 70
    0
  3
Dot (.5x) .....................................
 72
   65
 73
    2
 40
3.175
 49
0
 74
    0
 49
-3.175
 74
    0
  0
LTYPE
  5
35
330
5
100
AcDbSymbolTableRecord
100
AcDbLinetypeTableRecord
  2
DOTX2
 70
    0
  3
Dot (2x) .  .  .  .  .  .  .  .  .  .  .  .  .
 72
   65
 73
    2
 40
12.7
 49
0
 74
    0
 49
-12.7
 74
    0
  0
LTYPE
  5
36
330
5
100
AcDbSymbolTableRecord
100
AcDbLinetypeTableRecord
  2
DASHED
 70
    0
  3
Dashed _ _ _ _ _ _ _ _ _ _ _ _ _ _ _ _ _
 72
   65
 73
    2
 40
19.05
 49
12.7
 74
    0
 49
-6.35
 74
    0
  0
LTYPE
  5
37
330
5
100
AcDbSymbolTableRecord
100
AcDbLinetypeTableRecord
  2
DASHEDTINY
 70
    0
  3
Dashed (.15x) _ _ _ _ _ _ _ _ _ _ _ _ _ _ _ _ _
 72
   65
 73
    2
 40
2.8575
 49
1.905
 74
    0
 49
-0.9525
 74
    0
  0
LTYPE
  5
38
330
5
100
AcDbSymbolTableRecord
100
AcDbLinetypeTableRecord
  2
DASHED2
 70
    0
  3
Dashed (.5x) _ _ _ _ _ _ _ _ _ _ _ _ _ _ _ _ _
 72
   65
 73
    2
 40
9.524999999999999
 49
6.35
 74
    0
 49
-3.175
 74
    0
  0
LTYPE
  5
39
330
5
100
AcDbSymbolTableRecord
100
AcDbLinetypeTableRecord
  2
DASHEDX2
 70
    0
  3
Dashed (2x) ____  ____  ____  ____  ____  ___
 72
   65
 73
    2
 40
38.09999999999999
 49
25.4
 74
    0
 49
-12.7
 74
    0
  0
LTYPE
  5
3A
330
5
100
AcDbSymbolTableRecord
100
AcDbLinetypeTableRecord
  2
DASHDOT
 70
    0
  3
Dash dot __ . __ . __ . __ . __ . __ . __ . __
 72
   65
 73
    4
 40
25.4
 49
12.7
 74
    0
 49
-6.35
 74
    0
 49
0
 74
    0
 49
-6.35
 74
    0
  0
LTYPE
  5
3B
330
5
100
AcDbSymbolTableRecord
100
AcDbLinetypeTableRecord
  2
DASHDOTTINY
 70
    0
  3
Dash dot (.15x) _._._._._._._._._._._._._._._.
 72
   65
 73
    4
 40
3.81
 49
1.905
 74
    0
 49
-0.9525
 74
    0
 49
0
 74
    0
 49
-0.9525
 74
    0
  0
LTYPE
  5
3C
330
5
100
AcDbSymbolTableRecord
100
AcDbLinetypeTableRecord
  2
DASHDOT2
 70
    0
  3
Dash dot (.5x) _._._._._._._._._._._._._._._.
 72
   65
 73
    4
 40
12.7
 49
6.35
 74
    0
 49
-3.175
 74
    0
 49
0
 74
    0
 49
-3.175
 74
    0
  0
LTYPE
  5
3D
330
5
100
AcDbSymbolTableRecord
100
AcDbLinetypeTableRecord
  2
DASHDOTX2
 70
    0
  3
Dash dot (2x) ____  .  ____  .  ____  .  ___
 72
   65
 73
    4
 40
50.8
 49
25.4
 74
    0
 49
-12.7
 74
    0
 49
0
 74
    0
 49
-12.7
 74
    0
  0
LTYPE
  5
3E
330
5
100
AcDbSymbolTableRecord
100
AcDbLinetypeTableRecord
  2
DIVIDE
 70
    0
  3
Divide ____ . . ____ . . ____ . . ____ . . ____
 72
   65
 73
    6
 40
31.75
 49
12.7
 74
    0
 49
-6.35
 74
    0
 49
0
 74
    0
 49
-6.35
 74
    0
 49
0
 74
    0
 49
-6.35
 74
    0
  0
LTYPE
  5
3F
330
5
100
AcDbSymbolTableRecord
100
AcDbLinetypeTableRecord
  2
DIVIDETINY
 70
    0
  3
Divide (.15x) __..__..__..__..__..__..__..__.._
 72
   65
 73
    6
 40
4.7625
 49
1.905
 74
    0
 49
-0.9525
 74
    0
 49
0
 74
    0
 49
-0.9525
 74
    0
 49
0
 74
    0
 49
-0.9525
 74
    0
  0
LTYPE
  5
40
330
5
100
AcDbSymbolTableRecord
100
AcDbLinetypeTableRecord
  2
DIVIDE2
 70
    0
  3
Divide (.5x) __..__..__..__..__..__..__..__.._
 72
   65
 73
    6
 40
15.875
 49
6.35
 74
    0
 49
-3.175
 74
    0
 49
0
 74
    0
 49
-3.175
 74
    0
 49
0
 74
    0
 49
-3.175
 74
    0
  0
LTYPE
  5
41
330
5
100
AcDbSymbolTableRecord
100
AcDbLinetypeTableRecord
  2
DIVIDEX2
 70
    0
  3
Divide (2x) ________  .  .  ________  .  .  _
 72
   65
 73
    6
 40
63.5
 49
25.4
 74
    0
 49
-12.7
 74
    0
 49
0
 74
    0
 49
-12.7
 74
    0
 49
0
 74
    0
 49
-12.7
 74
    0
  0
LTYPE
  5
42
330
5
100
AcDbSymbolTableRecord
100
AcDbLinetypeTableRecord
  2
BORDER
 70
    0
  3
Border __ __ . __ __ . __ __ . __ __ . __ __ .
 72
   65
 73
    6
 40
44.45
 49
12.7
 74
    0
 49
-6.35
 74
    0
 49
12.7
 74
    0
 49
-6.35
 74
    0
 49
0
 74
    0
 49
-6.35
 74
    0
  0
LTYPE
  5
43
330
5
100
AcDbSymbolTableRecord
100
AcDbLinetypeTableRecord
  2
BORDERTINY
 70
    0
  3
Border (.15x) __.__.__.__.__.__.__.__.__.__.__.
 72
   65
 73
    6
 40
6.6675
 49
1.905
 74
    0
 49
-0.9525
 74
    0
 49
1.905
 74
    0
 49
-0.9525
 74
    0
 49
0
 74
    0
 49
-0.9525
 74
    0
  0
LTYPE
  5
44
330
5
100
AcDbSymbolTableRecord
100
AcDbLinetypeTableRecord
  2
BORDER2
 70
    0
  3
Border (.5x) __.__.__.__.__.__.__.__.__.__.__.
 72
   65
 73
    6
 40
22.225
 49
6.35
 74
    0
 49
-3.175
 74
    0
 49
6.35
 74
    0
 49
-3.175
 74
    0
 49
0
 74
    0
 49
-3.175
 74
    0
  0
LTYPE
  5
45
330
5
100
AcDbSymbolTableRecord
100
AcDbLinetypeTableRecord
  2
BORDERX2
 70
    0
  3
Border (2x) ____  ____  .  ____  ____  .  ___
 72
   65
 73
    6
 40
88.89999999999999
 49
25.4
 74
    0
 49
-12.7
 74
    0
 49
25.4
 74
    0
 49
-12.7
 74
    0
 49
0
 74
    0
 49
-12.7
 74
    0
  0
LTYPE
  5
46
330
5
100
AcDbSymbolTableRecord
100
AcDbLinetypeTableRecord
  2
CENTER
 70
    0
  3
Center ____ _ ____ _ ____ _ ____ _ ____ _ ____
 72
   65
 73
    4
 40
50.8
 49
31.75
 74
    0
 49
-6.35
 74
    0
 49
6.35
 74
    0
 49
-6.35
 74
    0
  0
LTYPE
  5
47
330
5
100
AcDbSymbolTableRecord
100
AcDbLinetypeTableRecord
  2
CENTERTINY
 70
    0
  3
Center (.15x) ___ _ ___ _ ___ _ ___ _ ___ _ ___
 72
   65
 73
    4
 40
7.619999999999999
 49
4.7625
 74
    0
 49
-0.9525
 74
    0
 49
0.9525
 74
    0
 49
-0.9525
 74
    0
  0
LTYPE
  5
48
330
5
100
AcDbSymbolTableRecord
100
AcDbLinetypeTableRecord
  2
CENTER2
 70
    0
  3
Center (.5x) ___ _ ___ _ ___ _ ___ _ ___ _ ___
 72
   65
 73
    4
 40
28.575
 49
19.05
 74
    0
 49
-3.175
 74
    0
 49
3.175
 74
    0
 49
-3.175
 74
    0
  0
LTYPE
  5
49
330
5
100
AcDbSymbolTableRecord
100
AcDbLinetypeTableRecord
  2
CENTERX2
 70
    0
  3
Center (2x) ________  __  ________  __  _____
 72
   65
 73
    4
 40
101.6
 49
63.5
 74
    0
 49
-12.7
 74
    0
 49
12.7
 74
    0
 49
-12.7
 74
    0
  0
ENDTAB
  0
TABLE
  2
LAYER
  5
2
330
0
100
AcDbSymbolTable
 70
    1
  0
LAYER
  5
10
330
2
100
AcDbSymbolTableRecord
100
AcDbLayerTableRecord
  2
0
 70
    4
 62
    7
  6
CONTINUOUS
370
    0
390
F
  0
LAYER
  5
4A
330
2
100
AcDbSymbolTableRecord
100
AcDbLayerTableRecord
  2
Dimms
 70
    0
 62
    7
  6
CONTINUOUS
370
   25
390
F
  0
LAYER
  5
4B
330
2
100
AcDbSymbolTableRecord
100
AcDbLayerTableRecord
  2
M6 Bolt
 70
    4
 62
    7
  6
CONTINUOUS
370
   25
390
F
  0
LAYER
  5
4C
330
2
100
AcDbSymbolTableRecord
100
AcDbLayerTableRecord
  2
M6 Tabs
 70
    4
 62
    7
  6
CONTINUOUS
370
   25
390
F
  0
LAYER
  5
4D
330
2
100
AcDbSymbolTableRecord
100
AcDbLayerTableRecord
  2
M8 Bolt
 70
    4
 62
    7
  6
CONTINUOUS
370
   25
390
F
  0
LAYER
  5
4E
330
2
100
AcDbSymbolTableRecord
100
AcDbLayerTableRecord
  2
M8 Tabs
 70
    4
 62
    7
  6
CONTINUOUS
370
   25
390
F
  0
LAYER
  5
4F
330
2
100
AcDbSymbolTableRecord
100
AcDbLayerTableRecord
  2
Welding Jig Base
 70
    4
 62
    7
  6
CONTINUOUS
370
   25
390
F
  0
LAYER
  5
50
330
2
100
AcDbSymbolTableRecord
100
AcDbLayerTableRecord
  2
Welding Jig Nuts
 70
    4
 62
    7
  6
CONTINUOUS
370
   25
390
F
  0
LAYER
  5
51
330
2
100
AcDbSymbolTableRecord
100
AcDbLayerTableRecord
  2
Welding Jig Uprights
 70
    4
 62
    7
  6
CONTINUOUS
370
   25
390
F
  0
LAYER
  5
52
330
2
100
AcDbSymbolTableRecord
100
AcDbLayerTableRecord
  2
m6
 70
    4
 62
    7
  6
CONTINUOUS
370
   25
390
F
  0
ENDTAB
  0
TABLE
  2
STYLE
  5
3
330
0
100
AcDbSymbolTable
 70
    3
  0
STYLE
  5
53
330
2
100
AcDbSymbolTableRecord
100
AcDbTextStyleTableRecord
  2
Standard
 70
    0
 40
0
 41
1
 50
0
 71
    0
 42
1
  3
txt
  4

  0
ENDTAB
  0
TABLE
  2
VIEW
  5
6
330
0
100
AcDbSymbolTable
 70
    0
  0
ENDTAB
  0
TABLE
  2
UCS
  5
7
330
0
100
AcDbSymbolTable
 70
    0
  0
ENDTAB
  0
TABLE
  2
APPID
  5
9
330
0
100
AcDbSymbolTable
 70
    1
  0
APPID
  5
12
330
9
100
AcDbSymbolTableRecord
100
AcDbRegAppTableRecord
  2
ACAD
 70
    0
  0
APPID
  5
54
330
9
100
AcDbSymbolTableRecord
100
AcDbRegAppTableRecord
  2
LibreCad
 70
    0
  0
ENDTAB
  0
TABLE
  2
DIMSTYLE
  5
A
330
0
100
AcDbSymbolTable
 70
    1
100
AcDbDimStyleTable
 71
    1
  0
DIMSTYLE
105
55
330
A
100
AcDbSymbolTableRecord
100
AcDbDimStyleTableRecord
  2
Standard
 70
    0
 40
2.5
 41
2.5
 42
0.625
 43
0.38
 44
1.25
 45
0
 46
0
 47
0
 48
0
 49
1
140
2.5
141
0.09
142
0
143
25.4
144
1
145
0
146
1
147
0.625
148
0
 71
    0
 72
    0
 73
    0
 74
    1
 75
    0
 76
    0
 77
    0
 78
    8
 79
    0
170
    0
171
    2
172
    0
173
    0
174
    0
175
    0
176
    0
177
    0
178
    0
179
    0
271
    2
272
    4
273
    2
274
    2
275
    0
276
    0
277
    2
278
   44
279
    0
280
    0
281
    0
282
    0
283
    1
284
    0
285
    0
286
    0
288
    0
289
    3
340
standard
341

371
   -2
372
   -2
  0
ENDTAB
  0
TABLE
  2
BLOCK_RECORD
  5
1
330
0
100
AcDbSymbolTable
 70
    2
  0
BLOCK_RECORD
  5
1F
330
1
100
AcDbSymbolTableRecord
100
AcDbBlockTableRecord
  2
*Model_Space
 70
    0
280
    1
281
    0
  0
BLOCK_RECORD
  5
1E
330
1
100
AcDbSymbolTableRecord
100
AcDbBlockTableRecord
  2
*Paper_Space
 70
    0
280
    1
281
    0
  0
BLOCK_RECORD
  5
56
330
1
100
AcDbSymbolTableRecord
100
AcDbBlockTableRecord
  2
*D7
 70
    0
280
    1
281
    0
  0
BLOCK_RECORD
  5
59
330
1
100
AcDbSymbolTableRecord
100
AcDbBlockTableRecord
  2
*D17
 70
    0
280
    1
281
    0
  0
BLOCK_RECORD
  5
5C
330
1
100
AcDbSymbolTableRecord
100
AcDbBlockTableRecord
  2
*D18
 70
    0
280
    1
281
    0
  0
BLOCK_RECORD
  5
5F
330
1
100
AcDbSymbolTableRecord
100
AcDbBlockTableRecord
  2
*D3
 70
    0
280
    1
281
    0
  0
BLOCK_RECORD
  5
62
330
1
100
AcDbSymbolTableRecord
100
AcDbBlockTableRecord
  2
*D15
 70
    0
280
    1
281
    0
  0
BLOCK_RECORD
  5
65
330
1
100
AcDbSymbolTableRecord
100
AcDbBlockTableRecord
  2
*D24
 70
    0
280
    1
281
    0
  0
BLOCK_RECORD
  5
68
330
1
100
AcDbSymbolTableRecord
100
AcDbBlockTableRecord
  2
*D22
 70
    0
280
    1
281
    0
  0
BLOCK_RECORD
  5
6B
330
1
100
AcDbSymbolTableRecord
100
AcDbBlockTableRecord
  2
*D19
 70
    0
280
    1
281
    0
  0
BLOCK_RECORD
  5
6E
330
1
100
AcDbSymbolTableRecord
100
AcDbBlockTableRecord
  2
*D5
 70
    0
280
    1
281
    0
  0
BLOCK_RECORD
  5
71
330
1
100
AcDbSymbolTableRecord
100
AcDbBlockTableRecord
  2
*D10
 70
    0
280
    1
281
    0
  0
BLOCK_RECORD
  5
74
330
1
100
AcDbSymbolTableRecord
100
AcDbBlockTableRecord
  2
*D16
 70
    0
280
    1
281
    0
  0
BLOCK_RECORD
  5
77
330
1
100
AcDbSymbolTableRecord
100
AcDbBlockTableRecord
  2
*D4
 70
    0
280
    1
281
    0
  0
BLOCK_RECORD
  5
7A
330
1
100
AcDbSymbolTableRecord
100
AcDbBlockTableRecord
  2
*D6
 70
    0
280
    1
281
    0
  0
BLOCK_RECORD
  5
7D
330
1
100
AcDbSymbolTableRecord
100
AcDbBlockTableRecord
  2
*D9
 70
    0
280
    1
281
    0
  0
BLOCK_RECORD
  5
80
330
1
100
AcDbSymbolTableRecord
100
AcDbBlockTableRecord
  2
*D12
 70
    0
280
    1
281
    0
  0
BLOCK_RECORD
  5
83
330
1
100
AcDbSymbolTableRecord
100
AcDbBlockTableRecord
  2
*D21
 70
    0
280
    1
281
    0
  0
BLOCK_RECORD
  5
86
330
1
100
AcDbSymbolTableRecord
100
AcDbBlockTableRecord
  2
*D8
 70
    0
280
    1
281
    0
  0
BLOCK_RECORD
  5
89
330
1
100
AcDbSymbolTableRecord
100
AcDbBlockTableRecord
  2
*D2
 70
    0
280
    1
281
    0
  0
BLOCK_RECORD
  5
8C
330
1
100
AcDbSymbolTableRecord
100
AcDbBlockTableRecord
  2
*D14
 70
    0
280
    1
281
    0
  0
BLOCK_RECORD
  5
8F
330
1
100
AcDbSymbolTableRecord
100
AcDbBlockTableRecord
  2
*D13
 70
    0
280
    1
281
    0
  0
BLOCK_RECORD
  5
92
330
1
100
AcDbSymbolTableRecord
100
AcDbBlockTableRecord
  2
*D1
 70
    0
280
    1
281
    0
  0
BLOCK_RECORD
  5
95
330
1
100
AcDbSymbolTableRecord
100
AcDbBlockTableRecord
  2
*D25
 70
    0
280
    1
281
    0
  0
BLOCK_RECORD
  5
98
330
1
100
AcDbSymbolTableRecord
100
AcDbBlockTableRecord
  2
*D11
 70
    0
280
    1
281
    0
  0
BLOCK_RECORD
  5
9B
330
1
100
AcDbSymbolTableRecord
100
AcDbBlockTableRecord
  2
*D23
 70
    0
280
    1
281
    0
  0
BLOCK_RECORD
  5
9E
330
1
100
AcDbSymbolTableRecord
100
AcDbBlockTableRecord
  2
*D20
 70
    0
280
    1
281
    0
  0
ENDTAB
  0
ENDSEC
  0
SECTION
  2
BLOCKS
  0
BLOCK
  5
20
330
1F
100
AcDbEntity
  8
0
100
AcDbBlockBegin
  2
*Model_Space
 70
    0
 10
0
 20
0
 30
0
  3
*Model_Space
  1

  0
ENDBLK
  5
21
330
1F
100
AcDbEntity
  8
0
100
AcDbBlockEnd
  0
BLOCK
  5
1C
330
1B
100
AcDbEntity
  8
0
100
AcDbBlockBegin
  2
*Paper_Space
 70
    0
 10
0
 20
0
 30
0
  3
*Paper_Space
  1

  0
ENDBLK
  5
1D
330
1F
100
AcDbEntity
  8
0
100
AcDbBlockEnd
  0
BLOCK
  5
57
330
56
100
AcDbEntity
  8
0
100
AcDbBlockBegin
  2
*D7
 70
    1
 10
0
 20
0
  3
*D7
  1

  0
LINE
  5
A1
100
AcDbEntity
  8
Dimms
  6
ByBlock
 62
    0
370
   -2
100
AcDbLine
 10
-120
 20
362.5
 11
-120
 21
328.5
  0
SOLID
  5
A2
100
AcDbEntity
  8
Dimms
  6
ByBlock
 62
    0
370
   -2
100
AcDbTrace
 10
-120
 20
350
 30
0
 11
-121.0407116444321
 21
356.25
 31
0
 12
-118.9592883555679
 22
356.25
 32
0
 13
-118.9592883555679
 23
356.25
 33
0
  0
SOLID
  5
A3
100
AcDbEntity
  8
Dimms
  6
ByBlock
 62
    0
370
   -2
100
AcDbTrace
 10
-120
 20
341
 30
0
 11
-118.9592883555679
 21
334.75
 31
0
 12
-121.0407116444321
 22
334.75
 32
0
 13
-121.0407116444321
 23
334.75
 33
0
  0
MTEXT
  5
A4
100
AcDbEntity
  8
Dimms
  6
CONTINUOUS
 62
    0
370
   -2
100
AcDbMText
 10
-124.6875
 20
345.5
 30
0
 40
6.25
 41
2.777777777778165
 71
    5
 72
    1
  1
9
  7
standard
210
0
220
0
230
1
 50
90
 73
    2
 44
1
  0
LINE
  5
A5
100
AcDbEntity
  8
Dimms
  6
ByBlock
 62
    0
370
   -2
100
AcDbLine
 10
-111.5625
 20
350
 11
-123.125
 21
350
  0
LINE
  5
A6
100
AcDbEntity
  8
Dimms
  6
ByBlock
 62
    0
370
   -2
100
AcDbLine
 10
-111.5625
 20
341
 11
-123.125
 21
341
  0
ENDBLK
  5
58
330
56
100
AcDbEntity
  8
0
100
AcDbBlockEnd
  0
BLOCK
  5
5A
330
59
100
AcDbEntity
  8
0
100
AcDbBlockBegin
  2
*D17
 70
    1
 10
0
 20
0
  3
*D17
  1

  0
LINE
  5
A7
100
AcDbEntity
  8
Dimms
  6
ByBlock
 62
    0
370
   -2
100
AcDbLine
 10
-30
 20
187.5
 11
-30
 21
218.5
  0
SOLID
  5
A8
100
AcDbEntity
  8
Dimms
  6
ByBlock
 62
    0
370
   -2
100
AcDbTrace
 10
-30
 20
200
 30
0
 11
-28.9592883555679
 21
193.75
 31
0
 12
-31.0407116444321
 22
193.75
 32
0
 13
-31.0407116444321
 23
193.75
 33
0
  0
SOLID
  5
A9
100
AcDbEntity
  8
Dimms
  6
ByBlock
 62
    0
370
   -2
100
AcDbTrace
 10
-30
 20
206
 30
0
 11
-31.0407116444321
 21
212.25
 31
0
 12
-28.9592883555679
 22
212.25
 32
0
 13
-28.9592883555679
 23
212.25
 33
0
  0
MTEXT
  5
AA
100
AcDbEntity
  8
Dimms
  6
CONTINUOUS
 62
    0
370
   -2
100
AcDbMText
 10
-34.6875
 20
203
 30
0
 40
6.25
 41
2.777777777778165
 71
    5
 72
    1
  1
6
  7
standard
210
0
220
0
230
1
 50
89.99999999999999
 73
    2
 44
1
  0
LINE
  5
AB
100
AcDbEntity
  8
Dimms
  6
ByBlock
 62
    0
370
   -2
100
AcDbLine
 10
-38.4375
 20
200
 11
-26.875
 21
200
  0
LINE
  5
AC
100
AcDbEntity
  8
Dimms
  6
ByBlock
 62
    0
370
   -2
100
AcDbLine
 10
-38.4375
 20
206
 11
-26.875
 21
206
  0
ENDBLK
  5
5B
330
59
100
AcDbEntity
  8
0
100
AcDbBlockEnd
  0
BLOCK
  5
5D
330
5C
100
AcDbEntity
  8
0
100
AcDbBlockBegin
  2
*D18
 70
    1
 10
0
 20
0
  3
*D18
  1

  0
LINE
  5
AD
100
AcDbEntity
  8
Dimms
  6
ByBlock
 62
    0
370
   -2
100
AcDbLine
 10
-15
 20
193.5
 11
-15
 21
221.5
  0
SOLID
  5
AE
100
AcDbEntity
  8
Dimms
  6
ByBlock
 62
    0
370
   -2
100
AcDbTrace
 10
-15
 20
206
 30
0
 11
-13.9592883555679
 21
199.75
 31
0
 12
-16.0407116444321
 22
199.75
 32
0
 13
-16.0407116444321
 23
199.75
 33
0
  0
SOLID
  5
AF
100
AcDbEntity
  8
Dimms
  6
ByBlock
 62
    0
370
   -2
100
AcDbTrace
 10
-15
 20
209
 30
0
 11
-16.0407116444321
 21
215.25
 31
0
 12
-13.9592883555679
 22
215.25
 32
0
 13
-13.9592883555679
 23
215.25
 33
0
  0
MTEXT
  5
B0
100
AcDbEntity
  8
Dimms
  6
CONTINUOUS
 62
    0
370
   -2
100
AcDbMText
 10
-19.6875
 20
207.5
 30
0
 40
6.25
 41
2.777777777778165
 71
    5
 72
    1
  1
3
  7
standard
210
0
220
0
230
1
 50
90
 73
    2
 44
1
  0
LINE
  5
B1
100
AcDbEntity
  8
Dimms
  6
ByBlock
 62
    0
370
   -2
100
AcDbLine
 10
-38.4375
 20
206
 11
-11.875
 21
206
  0
LINE
  5
B2
100
AcDbEntity
  8
Dimms
  6
ByBlock
 62
    0
370
   -2
100
AcDbLine
 10
-38.4375
 20
209
 11
-11.875
 21
209
  0
ENDBLK
  5
5E
330
5C
100
AcDbEntity
  8
0
100
AcDbBlockEnd
  0
BLOCK
  5
60
330
5F
100
AcDbEntity
  8
0
100
AcDbBlockBegin
  2
*D3
 70
    1
 10
0
 20
0
  3
*D3
  1

  0
LINE
  5
B3
100
AcDbEntity
  8
Dimms
  6
ByBlock
 62
    0
370
   -2
100
AcDbLine
 10
-103.5
 20
280
 11
-64
 21
280
  0
SOLID
  5
B4
100
AcDbEntity
  8
Dimms
  6
ByBlock
 62
    0
370
   -2
100
AcDbTrace
 10
-91
 20
280
 30
0
 11
-97.25
 21
278.9592883555679
 31
0
 12
-97.25
 22
281.0407116444321
 32
0
 13
-97.25
 23
281.0407116444321
 33
0
  0
SOLID
  5
B5
100
AcDbEntity
  8
Dimms
  6
ByBlock
 62
    0
370
   -2
100
AcDbTrace
 10
-76.5
 20
280
 30
0
 11
-70.25
 21
281.0407116444321
 31
0
 12
-70.25
 22
278.9592883555679
 32
0
 13
-70.25
 23
278.9592883555679
 33
0
  0
MTEXT
  5
B6
100
AcDbEntity
  8
Dimms
  6
CONTINUOUS
 62
    0
370
   -2
100
AcDbMText
 10
-83.75
 20
284.6875
 30
0
 40
6.25
 41
14.2361111111115
 71
    5
 72
    1
  1
14,5
  7
standard
210
0
220
0
230
1
 50
0
 73
    2
 44
1
  0
LINE
  5
B7
100
AcDbEntity
  8
Dimms
  6
ByBlock
 62
    0
370
   -2
100
AcDbLine
 10
-91
 20
288.4375
 11
-91
 21
276.875
  0
LINE
  5
B8
100
AcDbEntity
  8
Dimms
  6
ByBlock
 62
    0
370
   -2
100
AcDbLine
 10
-76.5
 20
288.4375
 11
-76.5
 21
276.875
  0
ENDBLK
  5
61
330
5F
100
AcDbEntity
  8
0
100
AcDbBlockEnd
  0
BLOCK
  5
63
330
62
100
AcDbEntity
  8
0
100
AcDbBlockBegin
  2
*D15
 70
    1
 10
0
 20
0
  3
*D15
  1

  0
LINE
  5
B9
100
AcDbEntity
  8
Dimms
  6
ByBlock
 62
    0
370
   -2
100
AcDbLine
 10
-83.5
 20
170
 11
-54.5
 21
170
  0
SOLID
  5
BA
100
AcDbEntity
  8
Dimms
  6
ByBlock
 62
    0
370
   -2
100
AcDbTrace
 10
-71
 20
170
 30
0
 11
-77.25
 21
168.9592883555679
 31
0
 12
-77.25
 22
171.0407116444321
 32
0
 13
-77.25
 23
171.0407116444321
 33
0
  0
SOLID
  5
BB
100
AcDbEntity
  8
Dimms
  6
ByBlock
 62
    0
370
   -2
100
AcDbTrace
 10
-67
 20
170
 30
0
 11
-60.75
 21
171.0407116444321
 31
0
 12
-60.75
 22
168.9592883555679
 32
0
 13
-60.75
 23
168.9592883555679
 33
0
  0
MTEXT
  5
BC
100
AcDbEntity
  8
Dimms
  6
CONTINUOUS
 62
    0
370
   -2
100
AcDbMText
 10
-69
 20
174.6875
 30
0
 40
6.25
 41
3.472222222222222
 71
    5
 72
    1
  1
4
  7
standard
210
0
220
0
230
1
 50
0
 73
    2
 44
1
  0
LINE
  5
BD
100
AcDbEntity
  8
Dimms
  6
ByBlock
 62
    0
370
   -2
100
AcDbLine
 10
-71
 20
188.4375
 11
-71
 21
166.875
  0
LINE
  5
BE
100
AcDbEntity
  8
Dimms
  6
ByBlock
 62
    0
370
   -2
100
AcDbLine
 10
-67
 20
188.4375
 11
-67
 21
166.875
  0
ENDBLK
  5
64
330
62
100
AcDbEntity
  8
0
100
AcDbBlockEnd
  0
BLOCK
  5
66
330
65
100
AcDbEntity
  8
0
100
AcDbBlockBegin
  2
*D24
 70
    1
 10
0
 20
0
  3
*D24
  1

  0
LINE
  5
BF
100
AcDbEntity
  8
Dimms
  6
ByBlock
 62
    0
370
   -2
100
AcDbLine
 10
60
 20
420
 11
60
 21
402
  0
SOLID
  5
C0
100
AcDbEntity
  8
Dimms
  6
ByBlock
 62
    0
370
   -2
100
AcDbTrace
 10
60
 20
420
 30
0
 11
61.0407116444321
 21
413.75
 31
0
 12
58.9592883555679
 22
413.75
 32
0
 13
58.9592883555679
 23
413.75
 33
0
  0
SOLID
  5
C1
100
AcDbEntity
  8
Dimms
  6
ByBlock
 62
    0
370
   -2
100
AcDbTrace
 10
60
 20
402
 30
0
 11
58.9592883555679
 21
408.25
 31
0
 12
61.0407116444321
 22
408.25
 32
0
 13
61.0407116444321
 23
408.25
 33
0
  0
MTEXT
  5
C2
100
AcDbEntity
  8
Dimms
  6
CONTINUOUS
 62
    0
370
   -2
100
AcDbMText
 10
55.3125
 20
411
 30
0
 40
6.25
 41
6.25
 71
    5
 72
    1
  1
18
  7
standard
210
0
220
0
230
1
 50
90
 73
    2
 44
1
  0
LINE
  5
C3
100
AcDbEntity
  8
Dimms
  6
ByBlock
 62
    0
370
   -2
100
AcDbLine
 10
68.4375
 20
420
 11
56.875
 21
420
  0
LINE
  5
C4
100
AcDbEntity
  8
Dimms
  6
ByBlock
 62
    0
370
   -2
100
AcDbLine
 10
68.4375
 20
402
 11
56.875
 21
402
  0
ENDBLK
  5
67
330
65
100
AcDbEntity
  8
0
100
AcDbBlockEnd
  0
BLOCK
  5
69
330
68
100
AcDbEntity
  8
0
100
AcDbBlockBegin
  2
*D22
 70
    1
 10
0
 20
0
  3
*D22
  1

  0
LINE
  5
C5
100
AcDbEntity
  8
Dimms
  6
ByBlock
 62
    0
370
   -2
100
AcDbLine
 10
84
 20
440
 11
122
 21
440
  0
SOLID
  5
C6
100
AcDbEntity
  8
Dimms
  6
ByBlock
 62
    0
370
   -2
100
AcDbTrace
 10
84
 20
440
 30
0
 11
90.25
 21
441.0407116444321
 31
0
 12
90.25
 22
438.9592883555679
 32
0
 13
90.25
 23
438.9592883555679
 33
0
  0
SOLID
  5
C7
100
AcDbEntity
  8
Dimms
  6
ByBlock
 62
    0
370
   -2
100
AcDbTrace
 10
122
 20
440
 30
0
 11
115.75
 21
438.9592883555679
 31
0
 12
115.75
 22
441.0407116444321
 32
0
 13
115.75
 23
441.0407116444321
 33
0
  0
MTEXT
  5
C8
100
AcDbEntity
  8
Dimms
  6
CONTINUOUS
 62
    0
370
   -2
100
AcDbMText
 10
103
 20
444.6875
 30
0
 40
6.25
 41
7.638888888889277
 71
    5
 72
    1
  1
38
  7
standard
210
0
220
0
230
1
 50
0
 73
    2
 44
1
  0
LINE
  5
C9
100
AcDbEntity
  8
Dimms
  6
ByBlock
 62
    0
370
   -2
100
AcDbLine
 10
84
 20
431.5625
 11
84
 21
443.125
  0
LINE
  5
CA
100
AcDbEntity
  8
Dimms
  6
ByBlock
 62
    0
370
   -2
100
AcDbLine
 10
122
 20
431.5625
 11
122
 21
443.125
  0
ENDBLK
  5
6A
330
68
100
AcDbEntity
  8
0
100
AcDbBlockEnd
  0
BLOCK
  5
6C
330
6B
100
AcDbEntity
  8
0
100
AcDbBlockBegin
  2
*D19
 70
    1
 10
0
 20
0
  3
*D19
  1

  0
LINE
  5
CB
100
AcDbEntity
  8
Dimms
  6
ByBlock
 62
    0
370
   -2
100
AcDbLine
 10
-40
 20
209
 11
-40
 21
231
  0
SOLID
  5
CC
100
AcDbEntity
  8
Dimms
  6
ByBlock
 62
    0
370
   -2
100
AcDbTrace
 10
-40
 20
209
 30
0
 11
-41.0407116444321
 21
215.25
 31
0
 12
-38.9592883555679
 22
215.25
 32
0
 13
-38.9592883555679
 23
215.25
 33
0
  0
SOLID
  5
CD
100
AcDbEntity
  8
Dimms
  6
ByBlock
 62
    0
370
   -2
100
AcDbTrace
 10
-40
 20
231
 30
0
 11
-38.9592883555679
 21
224.75
 31
0
 12
-41.0407116444321
 22
224.75
 32
0
 13
-41.0407116444321
 23
224.75
 33
0
  0
MTEXT
  5
CE
100
AcDbEntity
  8
Dimms
  6
CONTINUOUS
 62
    0
370
   -2
100
AcDbMText
 10
-44.6875
 20
220
 30
0
 40
6.25
 41
7.638888888888888
 71
    5
 72
    1
  1
22
  7
standard
210
0
220
0
230
1
 50
90
 73
    2
 44
1
  0
LINE
  5
CF
100
AcDbEntity
  8
Dimms
  6
ByBlock
 62
    0
370
   -2
100
AcDbLine
 10
-41.5625
 20
209
 11
-43.125
 21
209
  0
LINE
  5
D0
100
AcDbEntity
  8
Dimms
  6
ByBlock
 62
    0
370
   -2
100
AcDbLine
 10
-41.5625
 20
231
 11
-43.125
 21
231
  0
ENDBLK
  5
6D
330
6B
100
AcDbEntity
  8
0
100
AcDbBlockEnd
  0
BLOCK
  5
6F
330
6E
100
AcDbEntity
  8
0
100
AcDbBlockBegin
  2
*D5
 70
    1
 10
0
 20
0
  3
*D5
  1

  0
LINE
  5
D1
100
AcDbEntity
  8
Dimms
  6
ByBlock
 62
    0
370
   -2
100
AcDbLine
 10
-30
 20
350
 11
-30
 21
325
  0
SOLID
  5
D2
100
AcDbEntity
  8
Dimms
  6
ByBlock
 62
    0
370
   -2
100
AcDbTrace
 10
-30
 20
350
 30
0
 11
-28.9592883555679
 21
343.75
 31
0
 12
-31.0407116444321
 22
343.75
 32
0
 13
-31.0407116444321
 23
343.75
 33
0
  0
SOLID
  5
D3
100
AcDbEntity
  8
Dimms
  6
ByBlock
 62
    0
370
   -2
100
AcDbTrace
 10
-30
 20
325
 30
0
 11
-31.0407116444321
 21
331.25
 31
0
 12
-28.9592883555679
 22
331.25
 32
0
 13
-28.9592883555679
 23
331.25
 33
0
  0
MTEXT
  5
D4
100
AcDbEntity
  8
Dimms
  6
CONTINUOUS
 62
    0
370
   -2
100
AcDbMText
 10
-34.6875
 20
337.5
 30
0
 40
6.25
 41
7.638888888889277
 71
    5
 72
    1
  1
25
  7
standard
210
0
220
0
230
1
 50
90
 73
    2
 44
1
  0
LINE
  5
D5
100
AcDbEntity
  8
Dimms
  6
ByBlock
 62
    0
370
   -2
100
AcDbLine
 10
-38.4375
 20
350
 11
-26.875
 21
350
  0
LINE
  5
D6
100
AcDbEntity
  8
Dimms
  6
ByBlock
 62
    0
370
   -2
100
AcDbLine
 10
-38.4375
 20
325
 11
-26.875
 21
325
  0
ENDBLK
  5
70
330
6E
100
AcDbEntity
  8
0
100
AcDbBlockEnd
  0
BLOCK
  5
72
330
71
100
AcDbEntity
  8
0
100
AcDbBlockBegin
  2
*D10
 70
    1
 10
0
 20
0
  3
*D10
  1

  0
LINE
  5
D7
100
AcDbEntity
  8
Dimms
  6
ByBlock
 62
    0
370
   -2
100
AcDbLine
 10
-89
 20
260
 11
-61
 21
260
  0
SOLID
  5
D8
100
AcDbEntity
  8
Dimms
  6
ByBlock
 62
    0
370
   -2
100
AcDbTrace
 10
-76.5
 20
260
 30
0
 11
-82.75
 21
258.9592883555679
 31
0
 12
-82.75
 22
261.0407116444321
 32
0
 13
-82.75
 23
261.0407116444321
 33
0
  0
SOLID
  5
D9
100
AcDbEntity
  8
Dimms
  6
ByBlock
 62
    0
370
   -2
100
AcDbTrace
 10
-73.5
 20
260
 30
0
 11
-67.25
 21
261.0407116444321
 31
0
 12
-67.25
 22
258.9592883555679
 32
0
 13
-67.25
 23
258.9592883555679
 33
0
  0
MTEXT
  5
DA
100
AcDbEntity
  8
Dimms
  6
CONTINUOUS
 62
    0
370
   -2
100
AcDbMText
 10
-75
 20
264.6875
 30
0
 40
6.25
 41
2.777777777778165
 71
    5
 72
    1
  1
3
  7
standard
210
0
220
0
230
1
 50
0
 73
    2
 44
1
  0
LINE
  5
DB
100
AcDbEntity
  8
Dimms
  6
ByBlock
 62
    0
370
   -2
100
AcDbLine
 10
-76.5
 20
241.5625
 11
-76.5
 21
263.125
  0
LINE
  5
DC
100
AcDbEntity
  8
Dimms
  6
ByBlock
 62
    0
370
   -2
100
AcDbLine
 10
-73.5
 20
241.5625
 11
-73.5
 21
263.125
  0
ENDBLK
  5
73
330
71
100
AcDbEntity
  8
0
100
AcDbBlockEnd
  0
BLOCK
  5
75
330
74
100
AcDbEntity
  8
0
100
AcDbBlockBegin
  2
*D16
 70
    1
 10
0
 20
0
  3
*D16
  1

  0
LINE
  5
DD
100
AcDbEntity
  8
Dimms
  6
ByBlock
 62
    0
370
   -2
100
AcDbLine
 10
-67
 20
180
 11
-50
 21
180
  0
SOLID
  5
DE
100
AcDbEntity
  8
Dimms
  6
ByBlock
 62
    0
370
   -2
100
AcDbTrace
 10
-67
 20
180
 30
0
 11
-60.75
 21
181.0407116444321
 31
0
 12
-60.75
 22
178.9592883555679
 32
0
 13
-60.75
 23
178.9592883555679
 33
0
  0
SOLID
  5
DF
100
AcDbEntity
  8
Dimms
  6
ByBlock
 62
    0
370
   -2
100
AcDbTrace
 10
-50
 20
180
 30
0
 11
-56.25
 21
178.9592883555679
 31
0
 12
-56.25
 22
181.0407116444321
 32
0
 13
-56.25
 23
181.0407116444321
 33
0
  0
MTEXT
  5
E0
100
AcDbEntity
  8
Dimms
  6
CONTINUOUS
 62
    0
370
   -2
100
AcDbMText
 10
-58.5
 20
184.6875
 30
0
 40
6.25
 41
6.25
 71
    5
 72
    1
  1
17
  7
standard
210
0
220
0
230
1
 50
0
 73
    2
 44
1
  0
LINE
  5
E1
100
AcDbEntity
  8
Dimms
  6
ByBlock
 62
    0
370
   -2
100
AcDbLine
 10
-67
 20
188.4375
 11
-67
 21
176.875
  0
LINE
  5
E2
100
AcDbEntity
  8
Dimms
  6
ByBlock
 62
    0
370
   -2
100
AcDbLine
 10
-50
 20
188.4375
 11
-50
 21
176.875
  0
ENDBLK
  5
76
330
74
100
AcDbEntity
  8
0
100
AcDbBlockEnd
  0
BLOCK
  5
78
330
77
100
AcDbEntity
  8
0
100
AcDbBlockBegin
  2
*D4
 70
    1
 10
0
 20
0
  3
*D4
  1

  0
LINE
  5
E3
100
AcDbEntity
  8
Dimms
  6
ByBlock
 62
    0
370
   -2
100
AcDbLine
 10
-100
 20
370
 11
-75
 21
370
  0
SOLID
  5
E4
100
AcDbEntity
  8
Dimms
  6
ByBlock
 62
    0
370
   -2
100
AcDbTrace
 10
-100
 20
370
 30
0
 11
-93.75
 21
371.0407116444321
 31
0
 12
-93.75
 22
368.9592883555679
 32
0
 13
-93.75
 23
368.9592883555679
 33
0
  0
SOLID
  5
E5
100
AcDbEntity
  8
Dimms
  6
ByBlock
 62
    0
370
   -2
100
AcDbTrace
 10
-75
 20
370
 30
0
 11
-81.25
 21
368.9592883555679
 31
0
 12
-81.25
 22
371.0407116444321
 32
0
 13
-81.25
 23
371.0407116444321
 33
0
  0
MTEXT
  5
E6
100
AcDbEntity
  8
Dimms
  6
CONTINUOUS
 62
    0
370
   -2
100
AcDbMText
 10
-87.5
 20
374.6875
 30
0
 40
6.25
 41
7.638888888889277
 71
    5
 72
    1
  1
25
  7
standard
210
0
220
0
230
1
 50
0
 73
    2
 44
1
  0
LINE
  5
E7
100
AcDbEntity
  8
Dimms
  6
ByBlock
 62
    0
370
   -2
100
AcDbLine
 10
-100
 20
361.5625
 11
-100
 21
373.125
  0
LINE
  5
E8
100
AcDbEntity
  8
Dimms
  6
ByBlock
 62
    0
370
   -2
100
AcDbLine
 10
-75
 20
361.5625
 11
-75
 21
373.125
  0
ENDBLK
  5
79
330
77
100
AcDbEntity
  8
0
100
AcDbBlockEnd
  0
BLOCK
  5
7B
330
7A
100
AcDbEntity
  8
0
100
AcDbBlockBegin
  2
*D6
 70
    1
 10
0
 20
0
  3
*D6
  1

  0
LINE
  5
E9
100
AcDbEntity
  8
Dimms
  6
ByBlock
 62
    0
370
   -2
100
AcDbLine
 10
-30
 20
325
 11
-30
 21
300
  0
SOLID
  5
EA
100
AcDbEntity
  8
Dimms
  6
ByBlock
 62
    0
370
   -2
100
AcDbTrace
 10
-30
 20
325
 30
0
 11
-28.9592883555679
 21
318.75
 31
0
 12
-31.0407116444321
 22
318.75
 32
0
 13
-31.0407116444321
 23
318.75
 33
0
  0
SOLID
  5
EB
100
AcDbEntity
  8
Dimms
  6
ByBlock
 62
    0
370
   -2
100
AcDbTrace
 10
-30
 20
300
 30
0
 11
-31.0407116444321
 21
306.25
 31
0
 12
-28.9592883555679
 22
306.25
 32
0
 13
-28.9592883555679
 23
306.25
 33
0
  0
MTEXT
  5
EC
100
AcDbEntity
  8
Dimms
  6
CONTINUOUS
 62
    0
370
   -2
100
AcDbMText
 10
-34.6875
 20
312.5
 30
0
 40
6.25
 41
7.638888888889277
 71
    5
 72
    1
  1
25
  7
standard
210
0
220
0
230
1
 50
90
 73
    2
 44
1
  0
LINE
  5
ED
100
AcDbEntity
  8
Dimms
  6
ByBlock
 62
    0
370
   -2
100
AcDbLine
 10
-38.4375
 20
325
 11
-26.875
 21
325
  0
LINE
  5
EE
100
AcDbEntity
  8
Dimms
  6
ByBlock
 62
    0
370
   -2
100
AcDbLine
 10
-38.4375
 20
300
 11
-26.875
 21
300
  0
ENDBLK
  5
7C
330
7A
100
AcDbEntity
  8
0
100
AcDbBlockEnd
  0
BLOCK
  5
7E
330
7D
100
AcDbEntity
  8
0
100
AcDbBlockBegin
  2
*D9
 70
    1
 10
0
 20
0
  3
*D9
  1

  0
LINE
  5
EF
100
AcDbEntity
  8
Dimms
  6
ByBlock
 62
    0
370
   -2
100
AcDbLine
 10
-100
 20
250
 11
-76.5
 21
250
  0
SOLID
  5
F0
100
AcDbEntity
  8
Dimms
  6
ByBlock
 62
    0
370
   -2
100
AcDbTrace
 10
-100
 20
250
 30
0
 11
-93.75
 21
251.0407116444321
 31
0
 12
-93.75
 22
248.9592883555679
 32
0
 13
-93.75
 23
248.9592883555679
 33
0
  0
SOLID
  5
F1
100
AcDbEntity
  8
Dimms
  6
ByBlock
 62
    0
370
   -2
100
AcDbTrace
 10
-76.5
 20
250
 30
0
 11
-82.75
 21
248.9592883555679
 31
0
 12
-82.75
 22
251.0407116444321
 32
0
 13
-82.75
 23
251.0407116444321
 33
0
  0
MTEXT
  5
F2
100
AcDbEntity
  8
Dimms
  6
CONTINUOUS
 62
    0
370
   -2
100
AcDbMText
 10
-88.25
 20
254.6875
 30
0
 40
6.25
 41
14.93055555555633
 71
    5
 72
    1
  1
23,5
  7
standard
210
0
220
0
230
1
 50
0
 73
    2
 44
1
  0
LINE
  5
F3
100
AcDbEntity
  8
Dimms
  6
ByBlock
 62
    0
370
   -2
100
AcDbLine
 10
-100
 20
241.5625
 11
-100
 21
253.125
  0
LINE
  5
F4
100
AcDbEntity
  8
Dimms
  6
ByBlock
 62
    0
370
   -2
100
AcDbLine
 10
-76.5
 20
241.5625
 11
-76.5
 21
253.125
  0
ENDBLK
  5
7F
330
7D
100
AcDbEntity
  8
0
100
AcDbBlockEnd
  0
BLOCK
  5
81
330
80
100
AcDbEntity
  8
0
100
AcDbBlockBegin
  2
*D12
 70
    1
 10
0
 20
0
  3
*D12
  1

  0
LINE
  5
F5
100
AcDbEntity
  8
Dimms
  6
ByBlock
 62
    0
370
   -2
100
AcDbLine
 10
-100
 20
180
 11
-83
 21
180
  0
SOLID
  5
F6
100
AcDbEntity
  8
Dimms
  6
ByBlock
 62
    0
370
   -2
100
AcDbTrace
 10
-100
 20
180
 30
0
 11
-93.75
 21
181.0407116444321
 31
0
 12
-93.75
 22
178.9592883555679
 32
0
 13
-93.75
 23
178.9592883555679
 33
0
  0
SOLID
  5
F7
100
AcDbEntity
  8
Dimms
  6
ByBlock
 62
    0
370
   -2
100
AcDbTrace
 10
-83
 20
180
 30
0
 11
-89.25
 21
178.9592883555679
 31
0
 12
-89.25
 22
181.0407116444321
 32
0
 13
-89.25
 23
181.0407116444321
 33
0
  0
MTEXT
  5
F8
100
AcDbEntity
  8
Dimms
  6
CONTINUOUS
 62
    0
370
   -2
100
AcDbMText
 10
-91.5
 20
184.6875
 30
0
 40
6.25
 41
6.25
 71
    5
 72
    1
  1
17
  7
standard
210
0
220
0
230
1
 50
0
 73
    2
 44
1
  0
LINE
  5
F9
100
AcDbEntity
  8
Dimms
  6
ByBlock
 62
    0
370
   -2
100
AcDbLine
 10
-100
 20
188.4375
 11
-100
 21
176.875
  0
LINE
  5
FA
100
AcDbEntity
  8
Dimms
  6
ByBlock
 62
    0
370
   -2
100
AcDbLine
 10
-83
 20
188.4375
 11
-83
 21
176.875
  0
ENDBLK
  5
82
330
80
100
AcDbEntity
  8
0
100
AcDbBlockEnd
  0
BLOCK
  5
84
330
83
100
AcDbEntity
  8
0
100
AcDbBlockBegin
  2
*D21
 70
    1
 10
0
 20
0
  3
*D21
  1

  0
LINE
  5
FB
100
AcDbEntity
  8
Dimms
  6
ByBlock
 62
    0
370
   -2
100
AcDbLine
 10
-94.5
 20
60
 11
-55.5
 21
60
  0
SOLID
  5
FC
100
AcDbEntity
  8
Dimms
  6
ByBlock
 62
    0
370
   -2
100
AcDbTrace
 10
-82
 20
60
 30
0
 11
-88.25
 21
58.9592883555679
 31
0
 12
-88.25
 22
61.0407116444321
 32
0
 13
-88.25
 23
61.0407116444321
 33
0
  0
SOLID
  5
FD
100
AcDbEntity
  8
Dimms
  6
ByBlock
 62
    0
370
   -2
100
AcDbTrace
 10
-68
 20
60
 30
0
 11
-61.75
 21
61.0407116444321
 31
0
 12
-61.75
 22
58.9592883555679
 32
0
 13
-61.75
 23
58.9592883555679
 33
0
  0
MTEXT
  5
FE
100
AcDbEntity
  8
Dimms
  6
CONTINUOUS
 62
    0
370
   -2
100
AcDbMText
 10
-75
 20
64.6875
 30
0
 40
6.25
 41
6.944444444444445
 71
    5
 72
    1
  1
14
  7
standard
210
0
220
0
230
1
 50
0
 73
    2
 44
1
  0
LINE
  5
FF
100
AcDbEntity
  8
Dimms
  6
ByBlock
 62
    0
370
   -2
100
AcDbLine
 10
-82
 20
61.5625
 11
-82
 21
63.125
  0
LINE
  5
100
100
AcDbEntity
  8
Dimms
  6
ByBlock
 62
    0
370
   -2
100
AcDbLine
 10
-68
 20
61.5625
 11
-68
 21
63.125
  0
ENDBLK
  5
85
330
83
100
AcDbEntity
  8
0
100
AcDbBlockEnd
  0
BLOCK
  5
87
330
86
100
AcDbEntity
  8
0
100
AcDbBlockBegin
  2
*D8
 70
    1
 10
0
 20
0
  3
*D8
  1

  0
LINE
  5
101
100
AcDbEntity
  8
Dimms
  6
ByBlock
 62
    0
370
   -2
100
AcDbLine
 10
-120
 20
341
 11
-120
 21
325
  0
SOLID
  5
102
100
AcDbEntity
  8
Dimms
  6
ByBlock
 62
    0
370
   -2
100
AcDbTrace
 10
-120
 20
341
 30
0
 11
-118.9592883555679
 21
334.75
 31
0
 12
-121.0407116444321
 22
334.75
 32
0
 13
-121.0407116444321
 23
334.75
 33
0
  0
SOLID
  5
103
100
AcDbEntity
  8
Dimms
  6
ByBlock
 62
    0
370
   -2
100
AcDbTrace
 10
-120
 20
325
 30
0
 11
-121.0407116444321
 21
331.25
 31
0
 12
-118.9592883555679
 22
331.25
 32
0
 13
-118.9592883555679
 23
331.25
 33
0
  0
MTEXT
  5
104
100
AcDbEntity
  8
Dimms
  6
CONTINUOUS
 62
    0
370
   -2
100
AcDbMText
 10
-124.6875
 20
333
 30
0
 40
6.25
 41
6.250000000000387
 71
    5
 72
    1
  1
16
  7
standard
210
0
220
0
230
1
 50
90
 73
    2
 44
1
  0
LINE
  5
105
100
AcDbEntity
  8
Dimms
  6
ByBlock
 62
    0
370
   -2
100
AcDbLine
 10
-111.5625
 20
341
 11
-123.125
 21
341
  0
LINE
  5
106
100
AcDbEntity
  8
Dimms
  6
ByBlock
 62
    0
370
   -2
100
AcDbLine
 10
-111.5625
 20
325
 11
-123.125
 21
325
  0
ENDBLK
  5
88
330
86
100
AcDbEntity
  8
0
100
AcDbBlockEnd
  0
BLOCK
  5
8A
330
89
100
AcDbEntity
  8
0
100
AcDbBlockBegin
  2
*D2
 70
    1
 10
0
 20
0
  3
*D2
  1

  0
LINE
  5
107
100
AcDbEntity
  8
Dimms
  6
ByBlock
 62
    0
370
   -2
100
AcDbLine
 10
-114
 20
290
 11
-78.5
 21
290
  0
SOLID
  5
108
100
AcDbEntity
  8
Dimms
  6
ByBlock
 62
    0
370
   -2
100
AcDbTrace
 10
-101.5
 20
290
 30
0
 11
-107.75
 21
288.9592883555679
 31
0
 12
-107.75
 22
291.0407116444321
 32
0
 13
-107.75
 23
291.0407116444321
 33
0
  0
SOLID
  5
109
100
AcDbEntity
  8
Dimms
  6
ByBlock
 62
    0
370
   -2
100
AcDbTrace
 10
-91
 20
290
 30
0
 11
-84.75
 21
291.0407116444321
 31
0
 12
-84.75
 22
288.9592883555679
 32
0
 13
-84.75
 23
288.9592883555679
 33
0
  0
MTEXT
  5
10A
100
AcDbEntity
  8
Dimms
  6
CONTINUOUS
 62
    0
370
   -2
100
AcDbMText
 10
-82.66666666666647
 20
294.6875
 30
0
 40
6.25
 41
13.54166666666706
 71
    5
 72
    1
  1
10,5
  7
standard
210
0
220
0
230
1
 50
0
 73
    2
 44
1
  0
LINE
  5
10B
100
AcDbEntity
  8
Dimms
  6
ByBlock
 62
    0
370
   -2
100
AcDbLine
 10
-101.5
 20
291.5625
 11
-101.5
 21
293.125
  0
LINE
  5
10C
100
AcDbEntity
  8
Dimms
  6
ByBlock
 62
    0
370
   -2
100
AcDbLine
 10
-91
 20
291.5625
 11
-91
 21
293.125
  0
ENDBLK
  5
8B
330
89
100
AcDbEntity
  8
0
100
AcDbBlockEnd
  0
BLOCK
  5
8D
330
8C
100
AcDbEntity
  8
0
100
AcDbBlockBegin
  2
*D14
 70
    1
 10
0
 20
0
  3
*D14
  1

  0
LINE
  5
10D
100
AcDbEntity
  8
Dimms
  6
ByBlock
 62
    0
370
   -2
100
AcDbLine
 10
-91.5
 20
190
 11
-58.5
 21
190
  0
SOLID
  5
10E
100
AcDbEntity
  8
Dimms
  6
ByBlock
 62
    0
370
   -2
100
AcDbTrace
 10
-79
 20
190
 30
0
 11
-85.25
 21
188.9592883555679
 31
0
 12
-85.25
 22
191.0407116444321
 32
0
 13
-85.25
 23
191.0407116444321
 33
0
  0
SOLID
  5
10F
100
AcDbEntity
  8
Dimms
  6
ByBlock
 62
    0
370
   -2
100
AcDbTrace
 10
-71
 20
190
 30
0
 11
-64.75
 21
191.0407116444321
 31
0
 12
-64.75
 22
188.9592883555679
 32
0
 13
-64.75
 23
188.9592883555679
 33
0
  0
MTEXT
  5
110
100
AcDbEntity
  8
Dimms
  6
CONTINUOUS
 62
    0
370
   -2
100
AcDbMText
 10
-75
 20
194.6875
 30
0
 40
6.25
 41
2.777777777777778
 71
    5
 72
    1
  1
8
  7
standard
210
0
220
0
230
1
 50
0
 73
    2
 44
1
  0
LINE
  5
111
100
AcDbEntity
  8
Dimms
  6
ByBlock
 62
    0
370
   -2
100
AcDbLine
 10
-79
 20
191.5625
 11
-79
 21
193.125
  0
LINE
  5
112
100
AcDbEntity
  8
Dimms
  6
ByBlock
 62
    0
370
   -2
100
AcDbLine
 10
-71
 20
191.5625
 11
-71
 21
193.125
  0
ENDBLK
  5
8E
330
8C
100
AcDbEntity
  8
0
100
AcDbBlockEnd
  0
BLOCK
  5
90
330
8F
100
AcDbEntity
  8
0
100
AcDbBlockBegin
  2
*D13
 70
    1
 10
0
 20
0
  3
*D13
  1

  0
LINE
  5
113
100
AcDbEntity
  8
Dimms
  6
ByBlock
 62
    0
370
   -2
100
AcDbLine
 10
-95.5
 20
170
 11
-66.5
 21
170
  0
SOLID
  5
114
100
AcDbEntity
  8
Dimms
  6
ByBlock
 62
    0
370
   -2
100
AcDbTrace
 10
-83
 20
170
 30
0
 11
-89.25
 21
168.9592883555679
 31
0
 12
-89.25
 22
171.0407116444321
 32
0
 13
-89.25
 23
171.0407116444321
 33
0
  0
SOLID
  5
115
100
AcDbEntity
  8
Dimms
  6
ByBlock
 62
    0
370
   -2
100
AcDbTrace
 10
-79
 20
170
 30
0
 11
-72.75
 21
171.0407116444321
 31
0
 12
-72.75
 22
168.9592883555679
 32
0
 13
-72.75
 23
168.9592883555679
 33
0
  0
MTEXT
  5
116
100
AcDbEntity
  8
Dimms
  6
CONTINUOUS
 62
    0
370
   -2
100
AcDbMText
 10
-81
 20
174.6875
 30
0
 40
6.25
 41
3.472222222222222
 71
    5
 72
    1
  1
4
  7
standard
210
0
220
0
230
1
 50
0
 73
    2
 44
1
  0
LINE
  5
117
100
AcDbEntity
  8
Dimms
  6
ByBlock
 62
    0
370
   -2
100
AcDbLine
 10
-83
 20
188.4375
 11
-83
 21
166.875
  0
LINE
  5
118
100
AcDbEntity
  8
Dimms
  6
ByBlock
 62
    0
370
   -2
100
AcDbLine
 10
-79
 20
188.4375
 11
-79
 21
166.875
  0
ENDBLK
  5
91
330
8F
100
AcDbEntity
  8
0
100
AcDbBlockEnd
  0
BLOCK
  5
93
330
92
100
AcDbEntity
  8
0
100
AcDbBlockBegin
  2
*D1
 70
    1
 10
0
 20
0
  3
*D1
  1

  0
LINE
  5
119
100
AcDbEntity
  8
Dimms
  6
ByBlock
 62
    0
370
   -2
100
AcDbLine
 10
-75
 20
370
 11
-50
 21
370
  0
SOLID
  5
11A
100
AcDbEntity
  8
Dimms
  6
ByBlock
 62
    0
370
   -2
100
AcDbTrace
 10
-75
 20
370
 30
0
 11
-68.75
 21
371.0407116444321
 31
0
 12
-68.75
 22
368.9592883555679
 32
0
 13
-68.75
 23
368.9592883555679
 33
0
  0
SOLID
  5
11B
100
AcDbEntity
  8
Dimms
  6
ByBlock
 62
    0
370
   -2
100
AcDbTrace
 10
-50
 20
370
 30
0
 11
-56.25
 21
368.9592883555679
 31
0
 12
-56.25
 22
371.0407116444321
 32
0
 13
-56.25
 23
371.0407116444321
 33
0
  0
MTEXT
  5
11C
100
AcDbEntity
  8
Dimms
  6
CONTINUOUS
 62
    0
370
   -2
100
AcDbMText
 10
-62.5
 20
374.6875
 30
0
 40
6.25
 41
7.638888888889277
 71
    5
 72
    1
  1
25
  7
standard
210
0
220
0
230
1
 50
0
 73
    2
 44
1
  0
LINE
  5
11D
100
AcDbEntity
  8
Dimms
  6
ByBlock
 62
    0
370
   -2
100
AcDbLine
 10
-75
 20
361.5625
 11
-75
 21
373.125
  0
LINE
  5
11E
100
AcDbEntity
  8
Dimms
  6
ByBlock
 62
    0
370
   -2
100
AcDbLine
 10
-50
 20
361.5625
 11
-50
 21
373.125
  0
ENDBLK
  5
94
330
92
100
AcDbEntity
  8
0
100
AcDbBlockEnd
  0
BLOCK
  5
96
330
95
100
AcDbEntity
  8
0
100
AcDbBlockBegin
  2
*D25
 70
    1
 10
0
 20
0
  3
*D25
  1

  0
LINE
  5
11F
100
AcDbEntity
  8
Dimms
  6
ByBlock
 62
    0
370
   -2
100
AcDbLine
 10
250
 20
422
 11
250
 21
404
  0
SOLID
  5
120
100
AcDbEntity
  8
Dimms
  6
ByBlock
 62
    0
370
   -2
100
AcDbTrace
 10
250
 20
422
 30
0
 11
251.0407116444321
 21
415.75
 31
0
 12
248.9592883555679
 22
415.75
 32
0
 13
248.9592883555679
 23
415.75
 33
0
  0
SOLID
  5
121
100
AcDbEntity
  8
Dimms
  6
ByBlock
 62
    0
370
   -2
100
AcDbTrace
 10
250
 20
404
 30
0
 11
248.9592883555679
 21
410.25
 31
0
 12
251.0407116444321
 22
410.25
 32
0
 13
251.0407116444321
 23
410.25
 33
0
  0
MTEXT
  5
122
100
AcDbEntity
  8
Dimms
  6
CONTINUOUS
 62
    0
370
   -2
100
AcDbMText
 10
245.3125
 20
413
 30
0
 40
6.25
 41
6.25
 71
    5
 72
    1
  1
18
  7
standard
210
0
220
0
230
1
 50
90
 73
    2
 44
1
  0
LINE
  5
123
100
AcDbEntity
  8
Dimms
  6
ByBlock
 62
    0
370
   -2
100
AcDbLine
 10
241.5625
 20
422
 11
253.125
 21
422
  0
LINE
  5
124
100
AcDbEntity
  8
Dimms
  6
ByBlock
 62
    0
370
   -2
100
AcDbLine
 10
241.5625
 20
404
 11
253.125
 21
404
  0
ENDBLK
  5
97
330
95
100
AcDbEntity
  8
0
100
AcDbBlockEnd
  0
BLOCK
  5
99
330
98
100
AcDbEntity
  8
0
100
AcDbBlockBegin
  2
*D11
 70
    1
 10
0
 20
0
  3
*D11
  1

  0
LINE
  5
125
100
AcDbEntity
  8
Dimms
  6
ByBlock
 62
    0
370
   -2
100
AcDbLine
 10
-73.5
 20
250
 11
-50
 21
250
  0
SOLID
  5
126
100
AcDbEntity
  8
Dimms
  6
ByBlock
 62
    0
370
   -2
100
AcDbTrace
 10
-73.5
 20
250
 30
0
 11
-67.25
 21
251.0407116444321
 31
0
 12
-67.25
 22
248.9592883555679
 32
0
 13
-67.25
 23
248.9592883555679
 33
0
  0
SOLID
  5
127
100
AcDbEntity
  8
Dimms
  6
ByBlock
 62
    0
370
   -2
100
AcDbTrace
 10
-50
 20
250
 30
0
 11
-56.25
 21
248.9592883555679
 31
0
 12
-56.25
 22
251.0407116444321
 32
0
 13
-56.25
 23
251.0407116444321
 33
0
  0
MTEXT
  5
128
100
AcDbEntity
  8
Dimms
  6
CONTINUOUS
 62
    0
370
   -2
100
AcDbMText
 10
-61.75
 20
254.6875
 30
0
 40
6.25
 41
14.93055555555633
 71
    5
 72
    1
  1
23,5
  7
standard
210
0
220
0
230
1
 50
0
 73
    2
 44
1
  0
LINE
  5
129
100
AcDbEntity
  8
Dimms
  6
ByBlock
 62
    0
370
   -2
100
AcDbLine
 10
-73.5
 20
241.5625
 11
-73.5
 21
253.125
  0
LINE
  5
12A
100
AcDbEntity
  8
Dimms
  6
ByBlock
 62
    0
370
   -2
100
AcDbLine
 10
-50
 20
241.5625
 11
-50
 21
253.125
  0
ENDBLK
  5
9A
330
98
100
AcDbEntity
  8
0
100
AcDbBlockEnd
  0
BLOCK
  5
9C
330
9B
100
AcDbEntity
  8
0
100
AcDbBlockBegin
  2
*D23
 70
    1
 10
0
 20
0
  3
*D23
  1

  0
LINE
  5
12B
100
AcDbEntity
  8
Dimms
  6
ByBlock
 62
    0
370
   -2
100
AcDbLine
 10
182
 20
440
 11
226
 21
440
  0
SOLID
  5
12C
100
AcDbEntity
  8
Dimms
  6
ByBlock
 62
    0
370
   -2
100
AcDbTrace
 10
182
 20
440
 30
0
 11
188.25
 21
441.0407116444321
 31
0
 12
188.25
 22
438.9592883555679
 32
0
 13
188.25
 23
438.9592883555679
 33
0
  0
SOLID
  5
12D
100
AcDbEntity
  8
Dimms
  6
ByBlock
 62
    0
370
   -2
100
AcDbTrace
 10
226
 20
440
 30
0
 11
219.75
 21
438.9592883555679
 31
0
 12
219.75
 22
441.0407116444321
 32
0
 13
219.75
 23
441.0407116444321
 33
0
  0
MTEXT
  5
12E
100
AcDbEntity
  8
Dimms
  6
CONTINUOUS
 62
    0
370
   -2
100
AcDbMText
 10
204
 20
444.6875
 30
0
 40
6.25
 41
9.027777777777779
 71
    5
 72
    1
  1
44
  7
standard
210
0
220
0
230
1
 50
0
 73
    2
 44
1
  0
LINE
  5
12F
100
AcDbEntity
  8
Dimms
  6
ByBlock
 62
    0
370
   -2
100
AcDbLine
 10
182
 20
431.5625
 11
182
 21
443.125
  0
LINE
  5
130
100
AcDbEntity
  8
Dimms
  6
ByBlock
 62
    0
370
   -2
100
AcDbLine
 10
226
 20
431.5625
 11
226
 21
443.125
  0
ENDBLK
  5
9D
330
9B
100
AcDbEntity
  8
0
100
AcDbBlockEnd
  0
BLOCK
  5
9F
330
9E
100
AcDbEntity
  8
0
100
AcDbBlockBegin
  2
*D20
 70
    1
 10
0
 20
0
  3
*D20
  1

  0
LINE
  5
131
100
AcDbEntity
  8
Dimms
  6
ByBlock
 62
    0
370
   -2
100
AcDbLine
 10
-50
 20
74
 11
-50
 21
100
  0
SOLID
  5
132
100
AcDbEntity
  8
Dimms
  6
ByBlock
 62
    0
370
   -2
100
AcDbTrace
 10
-50
 20
74
 30
0
 11
-51.0407116444321
 21
80.25
 31
0
 12
-48.9592883555679
 22
80.25
 32
0
 13
-48.9592883555679
 23
80.25
 33
0
  0
SOLID
  5
133
100
AcDbEntity
  8
Dimms
  6
ByBlock
 62
    0
370
   -2
100
AcDbTrace
 10
-50
 20
100
 30
0
 11
-48.9592883555679
 21
93.75
 31
0
 12
-51.0407116444321
 22
93.75
 32
0
 13
-51.0407116444321
 23
93.75
 33
0
  0
MTEXT
  5
134
100
AcDbEntity
  8
Dimms
  6
CONTINUOUS
 62
    0
370
   -2
100
AcDbMText
 10
-54.6875
 20
87
 30
0
 40
6.25
 41
7.638888888889277
 71
    5
 72
    1
  1
26
  7
standard
210
0
220
0
230
1
 50
90
 73
    2
 44
1
  0
LINE
  5
135
100
AcDbEntity
  8
Dimms
  6
ByBlock
 62
    0
370
   -2
100
AcDbLine
 10
-58.4375
 20
74
 11
-46.875
 21
74
  0
LINE
  5
136
100
AcDbEntity
  8
Dimms
  6
ByBlock
 62
    0
370
   -2
100
AcDbLine
 10
-58.4375
 20
100
 11
-46.875
 21
100
  0
ENDBLK
  5
A0
330
9E
100
AcDbEntity
  8
0
100
AcDbBlockEnd
  0
ENDSEC
  0
SECTION
  2
ENTITIES
  0
LINE
  5
137
100
AcDbEntity
  8
M6 Bolt
  6
ByLayer
 62
  256
370
   -1
100
AcDbLine
 10
100
 20
100
 11
100
 21
50
  0
LINE
  5
138
100
AcDbEntity
  8
M6 Bolt
  6
ByLayer
 62
  256
370
   -1
100
AcDbLine
 10
100
 20
50
 11
106
 21
50
  0
LINE
  5
139
100
AcDbEntity
  8
M6 Bolt
  6
ByLayer
 62
  256
370
   -1
100
AcDbLine
 10
106
 20
50
 11
106
 21
100
  0
LINE
  5
13A
100
AcDbEntity
  8
M6 Bolt
  6
ByLayer
 62
  256
370
   -1
100
AcDbLine
 10
106
 20
100
 11
100
 21
100
  0
LINE
  5
13B
100
AcDbEntity
  8
M6 Bolt
  6
ByLayer
 62
  256
370
   -1
100
AcDbLine
 10
103
 20
100
 11
98
 21
100
  0
LINE
  5
13C
100
AcDbEntity
  8
M6 Bolt
  6
ByLayer
 62
  256
370
   -1
100
AcDbLine
 10
98
 20
100
 11
98
 21
104
  0
LINE
  5
13D
100
AcDbEntity
  8
M6 Bolt
  6
ByLayer
 62
  256
370
   -1
100
AcDbLine
 10
98
 20
104
 11
108
 21
104
  0
LINE
  5
13E
100
AcDbEntity
  8
M6 Bolt
  6
ByLayer
 62
  256
370
   -1
100
AcDbLine
 10
108
 20
104
 11
108
 21
100
  0
LINE
  5
13F
100
AcDbEntity
  8
M6 Bolt
  6
ByLayer
 62
  256
370
   -1
100
AcDbLine
 10
108
 20
100
 11
106
 21
100
  0
LINE
  5
140
100
AcDbEntity
  8
M8 Bolt
  6
ByLayer
 62
  256
370
   -1
100
AcDbLine
 10
200
 20
100
 11
200
 21
50
  0
LINE
  5
141
100
AcDbEntity
  8
M8 Bolt
  6
ByLayer
 62
  256
370
   -1
100
AcDbLine
 10
200
 20
50
 11
208
 21
50
  0
LINE
  5
142
100
AcDbEntity
  8
M8 Bolt
  6
ByLayer
 62
  256
370
   -1
100
AcDbLine
 10
208
 20
50
 11
208
 21
100
  0
LINE
  5
143
100
AcDbEntity
  8
M8 Bolt
  6
ByLayer
 62
  256
370
   -1
100
AcDbLine
 10
208
 20
100
 11
200
 21
100
  0
LINE
  5
144
100
AcDbEntity
  8
M8 Bolt
  6
ByLayer
 62
  256
370
   -1
100
AcDbLine
 10
204
 20
100
 11
197
 21
100
  0
LINE
  5
145
100
AcDbEntity
  8
M8 Bolt
  6
ByLayer
 62
  256
370
   -1
100
AcDbLine
 10
197
 20
100
 11
197
 21
106
  0
LINE
  5
146
100
AcDbEntity
  8
M8 Bolt
  6
ByLayer
 62
  256
370
   -1
100
AcDbLine
 10
197
 20
106
 11
211
 21
106
  0
LINE
  5
147
100
AcDbEntity
  8
M8 Bolt
  6
ByLayer
 62
  256
370
   -1
100
AcDbLine
 10
211
 20
106
 11
211
 21
100
  0
LINE
  5
148
100
AcDbEntity
  8
M8 Bolt
  6
ByLayer
 62
  256
370
   -1
100
AcDbLine
 10
211
 20
100
 11
208
 21
100
  0
LINE
  5
149
100
AcDbEntity
  8
M8 Tabs
  6
ByLayer
 62
  256
370
   -1
100
AcDbLine
 10
204
 20
106
 11
197
 21
106
  0
LINE
  5
14A
100
AcDbEntity
  8
M8 Tabs
  6
ByLayer
 62
  256
370
   -1
100
AcDbLine
 10
204
 20
106
 11
211
 21
106
  0
ARC
  5
14B
100
AcDbEntity
  8
M8 Tabs
  6
ByLayer
 62
  256
370
   -1
100
AcDbCircle
 10
216.4302325581395
 20
112.5232558139535
 40
9.584062058340855
100
AcDbArc
 50
356.8702974084774
 51
98.58232457933514
  0
LINE
  5
14C
100
AcDbEntity
  8
M8 Tabs
  6
ByLayer
 62
  256
370
   -1
100
AcDbLine
 10
215
 20
122
 11
204
 21
122
  0
ARC
  5
14D
100
AcDbEntity
  8
M8 Tabs
  6
ByLayer
 62
  256
370
   -1
100
AcDbCircle
 10
191.5697674418605
 20
112.5232558139535
 40
9.584062058340864
100
AcDbArc
 50
81.41767542066502
 51
183.1297025915228
  0
LINE
  5
14E
100
AcDbEntity
  8
M8 Tabs
  6
ByLayer
 62
  256
370
   -1
100
AcDbLine
 10
193
 20
122
 11
204
 21
122
  0
ARC
  5
14F
100
AcDbEntity
  8
M8 Tabs
  6
ByLayer
 62
  256
370
   -1
100
AcDbCircle
 10
191.2142857142857
 20
113.2857142857143
 40
9.303554291182452
100
AcDbArc
 50
187.9434718105903
 51
308.4537092167059
  0
ARC
  5
150
100
AcDbEntity
  8
M8 Tabs
  6
ByLayer
 62
  256
370
   -1
100
AcDbCircle
 10
216.7857142857143
 20
113.2857142857143
 40
9.303554291182449
100
AcDbArc
 50
231.546290783294
 51
352.0565281894096
  0
LINE
  5
151
100
AcDbEntity
  8
M8 Tabs
  6
ByLayer
 62
  256
370
   -1
100
AcDbLine
 10
204
 20
136
 11
197
 21
136
  0
LINE
  5
152
100
AcDbEntity
  8
M8 Tabs
  6
ByLayer
 62
  256
370
   -1
100
AcDbLine
 10
204
 20
136
 11
211
 21
136
  0
ARC
  5
153
100
AcDbEntity
  8
M8 Tabs
  6
ByLayer
 62
  256
370
   -1
100
AcDbCircle
 10
216.4302325581395
 20
142.5232558139535
 40
9.584062058340855
100
AcDbArc
 50
356.8702974084774
 51
98.58232457933514
  0
LINE
  5
154
100
AcDbEntity
  8
M8 Tabs
  6
ByLayer
 62
  256
370
   -1
100
AcDbLine
 10
215
 20
152
 11
204
 21
152
  0
ARC
  5
155
100
AcDbEntity
  8
M8 Tabs
  6
ByLayer
 62
  256
370
   -1
100
AcDbCircle
 10
191.5697674418605
 20
142.5232558139535
 40
9.584062058340864
100
AcDbArc
 50
81.41767542066502
 51
183.1297025915228
  0
LINE
  5
156
100
AcDbEntity
  8
M8 Tabs
  6
ByLayer
 62
  256
370
   -1
100
AcDbLine
 10
193
 20
152
 11
204
 21
152
  0
ARC
  5
157
100
AcDbEntity
  8
M8 Tabs
  6
ByLayer
 62
  256
370
   -1
100
AcDbCircle
 10
191.2142857142857
 20
143.2857142857143
 40
9.303554291182452
100
AcDbArc
 50
187.9434718105903
 51
308.4537092167059
  0
ARC
  5
158
100
AcDbEntity
  8
M8 Tabs
  6
ByLayer
 62
  256
370
   -1
100
AcDbCircle
 10
216.7857142857143
 20
143.2857142857143
 40
9.303554291182449
100
AcDbArc
 50
231.546290783294
 51
352.0565281894096
  0
LINE
  5
159
100
AcDbEntity
  8
M8 Tabs
  6
ByLayer
 62
  256
370
   -1
100
AcDbLine
 10
204
 20
166
 11
197
 21
166
  0
LINE
  5
15A
100
AcDbEntity
  8
M8 Tabs
  6
ByLayer
 62
  256
370
   -1
100
AcDbLine
 10
204
 20
166
 11
211
 21
166
  0
ARC
  5
15B
100
AcDbEntity
  8
M8 Tabs
  6
ByLayer
 62
  256
370
   -1
100
AcDbCircle
 10
216.4302325581395
 20
172.5232558139535
 40
9.584062058340855
100
AcDbArc
 50
356.8702974084774
 51
98.58232457933514
  0
LINE
  5
15C
100
AcDbEntity
  8
M8 Tabs
  6
ByLayer
 62
  256
370
   -1
100
AcDbLine
 10
215
 20
182
 11
204
 21
182
  0
ARC
  5
15D
100
AcDbEntity
  8
M8 Tabs
  6
ByLayer
 62
  256
370
   -1
100
AcDbCircle
 10
191.5697674418605
 20
172.5232558139535
 40
9.584062058340864
100
AcDbArc
 50
81.41767542066502
 51
183.1297025915228
  0
LINE
  5
15E
100
AcDbEntity
  8
M8 Tabs
  6
ByLayer
 62
  256
370
   -1
100
AcDbLine
 10
193
 20
182
 11
204
 21
182
  0
ARC
  5
15F
100
AcDbEntity
  8
M8 Tabs
  6
ByLayer
 62
  256
370
   -1
100
AcDbCircle
 10
191.2142857142857
 20
173.2857142857143
 40
9.303554291182452
100
AcDbArc
 50
187.9434718105903
 51
308.4537092167059
  0
ARC
  5
160
100
AcDbEntity
  8
M8 Tabs
  6
ByLayer
 62
  256
370
   -1
100
AcDbCircle
 10
216.7857142857143
 20
173.2857142857143
 40
9.303554291182449
100
AcDbArc
 50
231.546290783294
 51
352.0565281894096
  0
LINE
  5
161
100
AcDbEntity
  8
M8 Tabs
  6
ByLayer
 62
  256
370
   -1
100
AcDbLine
 10
204
 20
196
 11
197
 21
196
  0
LINE
  5
162
100
AcDbEntity
  8
M8 Tabs
  6
ByLayer
 62
  256
370
   -1
100
AcDbLine
 10
204
 20
196
 11
211
 21
196
  0
ARC
  5
163
100
AcDbEntity
  8
M8 Tabs
  6
ByLayer
 62
  256
370
   -1
100
AcDbCircle
 10
216.4302325581395
 20
202.5232558139535
 40
9.584062058340855
100
AcDbArc
 50
356.8702974084774
 51
98.58232457933514
  0
LINE
  5
164
100
AcDbEntity
  8
M8 Tabs
  6
ByLayer
 62
  256
370
   -1
100
AcDbLine
 10
215
 20
212
 11
204
 21
212
  0
ARC
  5
165
100
AcDbEntity
  8
M8 Tabs
  6
ByLayer
 62
  256
370
   -1
100
AcDbCircle
 10
191.5697674418605
 20
202.5232558139535
 40
9.584062058340864
100
AcDbArc
 50
81.41767542066502
 51
183.1297025915228
  0
LINE
  5
166
100
AcDbEntity
  8
M8 Tabs
  6
ByLayer
 62
  256
370
   -1
100
AcDbLine
 10
193
 20
212
 11
204
 21
212
  0
ARC
  5
167
100
AcDbEntity
  8
M8 Tabs
  6
ByLayer
 62
  256
370
   -1
100
AcDbCircle
 10
191.2142857142857
 20
203.2857142857143
 40
9.303554291182452
100
AcDbArc
 50
187.9434718105903
 51
308.4537092167059
  0
ARC
  5
168
100
AcDbEntity
  8
M8 Tabs
  6
ByLayer
 62
  256
370
   -1
100
AcDbCircle
 10
216.7857142857143
 20
203.2857142857143
 40
9.303554291182449
100
AcDbArc
 50
231.546290783294
 51
352.0565281894096
  0
LINE
  5
169
100
AcDbEntity
  8
M8 Tabs
  6
ByLayer
 62
  256
370
   -1
100
AcDbLine
 10
204
 20
226
 11
197
 21
226
  0
LINE
  5
16A
100
AcDbEntity
  8
M8 Tabs
  6
ByLayer
 62
  256
370
   -1
100
AcDbLine
 10
204
 20
226
 11
211
 21
226
  0
ARC
  5
16B
100
AcDbEntity
  8
M8 Tabs
  6
ByLayer
 62
  256
370
   -1
100
AcDbCircle
 10
216.4302325581395
 20
232.5232558139535
 40
9.584062058340855
100
AcDbArc
 50
356.8702974084774
 51
98.58232457933514
  0
LINE
  5
16C
100
AcDbEntity
  8
M8 Tabs
  6
ByLayer
 62
  256
370
   -1
100
AcDbLine
 10
215
 20
242
 11
204
 21
242
  0
ARC
  5
16D
100
AcDbEntity
  8
M8 Tabs
  6
ByLayer
 62
  256
370
   -1
100
AcDbCircle
 10
191.5697674418605
 20
232.5232558139535
 40
9.584062058340864
100
AcDbArc
 50
81.41767542066502
 51
183.1297025915228
  0
LINE
  5
16E
100
AcDbEntity
  8
M8 Tabs
  6
ByLayer
 62
  256
370
   -1
100
AcDbLine
 10
193
 20
242
 11
204
 21
242
  0
ARC
  5
16F
100
AcDbEntity
  8
M8 Tabs
  6
ByLayer
 62
  256
370
   -1
100
AcDbCircle
 10
191.2142857142857
 20
233.2857142857143
 40
9.303554291182452
100
AcDbArc
 50
187.9434718105903
 51
308.4537092167059
  0
ARC
  5
170
100
AcDbEntity
  8
M8 Tabs
  6
ByLayer
 62
  256
370
   -1
100
AcDbCircle
 10
216.7857142857143
 20
233.2857142857143
 40
9.303554291182449
100
AcDbArc
 50
231.546290783294
 51
352.0565281894096
  0
LINE
  5
171
100
AcDbEntity
  8
M8 Tabs
  6
ByLayer
 62
  256
370
   -1
100
AcDbLine
 10
204
 20
256
 11
197
 21
256
  0
LINE
  5
172
100
AcDbEntity
  8
M8 Tabs
  6
ByLayer
 62
  256
370
   -1
100
AcDbLine
 10
204
 20
256
 11
211
 21
256
  0
ARC
  5
173
100
AcDbEntity
  8
M8 Tabs
  6
ByLayer
 62
  256
370
   -1
100
AcDbCircle
 10
216.4302325581395
 20
262.5232558139535
 40
9.584062058340855
100
AcDbArc
 50
356.8702974084774
 51
98.58232457933514
  0
LINE
  5
174
100
AcDbEntity
  8
M8 Tabs
  6
ByLayer
 62
  256
370
   -1
100
AcDbLine
 10
215
 20
272
 11
204
 21
272
  0
ARC
  5
175
100
AcDbEntity
  8
M8 Tabs
  6
ByLayer
 62
  256
370
   -1
100
AcDbCircle
 10
191.5697674418605
 20
262.5232558139535
 40
9.584062058340864
100
AcDbArc
 50
81.41767542066502
 51
183.1297025915228
  0
LINE
  5
176
100
AcDbEntity
  8
M8 Tabs
  6
ByLayer
 62
  256
370
   -1
100
AcDbLine
 10
193
 20
272
 11
204
 21
272
  0
ARC
  5
177
100
AcDbEntity
  8
M8 Tabs
  6
ByLayer
 62
  256
370
   -1
100
AcDbCircle
 10
191.2142857142857
 20
263.2857142857143
 40
9.303554291182452
100
AcDbArc
 50
187.9434718105903
 51
308.4537092167059
  0
ARC
  5
178
100
AcDbEntity
  8
M8 Tabs
  6
ByLayer
 62
  256
370
   -1
100
AcDbCircle
 10
216.7857142857143
 20
263.2857142857143
 40
9.303554291182449
100
AcDbArc
 50
231.546290783294
 51
352.0565281894096
  0
LINE
  5
179
100
AcDbEntity
  8
M8 Tabs
  6
ByLayer
 62
  256
370
   -1
100
AcDbLine
 10
204
 20
286
 11
197
 21
286
  0
LINE
  5
17A
100
AcDbEntity
  8
M8 Tabs
  6
ByLayer
 62
  256
370
   -1
100
AcDbLine
 10
204
 20
286
 11
211
 21
286
  0
ARC
  5
17B
100
AcDbEntity
  8
M8 Tabs
  6
ByLayer
 62
  256
370
   -1
100
AcDbCircle
 10
216.4302325581395
 20
292.5232558139535
 40
9.584062058340855
100
AcDbArc
 50
356.8702974084774
 51
98.58232457933514
  0
LINE
  5
17C
100
AcDbEntity
  8
M8 Tabs
  6
ByLayer
 62
  256
370
   -1
100
AcDbLine
 10
215
 20
302
 11
204
 21
302
  0
ARC
  5
17D
100
AcDbEntity
  8
M8 Tabs
  6
ByLayer
 62
  256
370
   -1
100
AcDbCircle
 10
191.5697674418605
 20
292.5232558139535
 40
9.584062058340864
100
AcDbArc
 50
81.41767542066502
 51
183.1297025915228
  0
LINE
  5
17E
100
AcDbEntity
  8
M8 Tabs
  6
ByLayer
 62
  256
370
   -1
100
AcDbLine
 10
193
 20
302
 11
204
 21
302
  0
ARC
  5
17F
100
AcDbEntity
  8
M8 Tabs
  6
ByLayer
 62
  256
370
   -1
100
AcDbCircle
 10
191.2142857142857
 20
293.2857142857143
 40
9.303554291182452
100
AcDbArc
 50
187.9434718105903
 51
308.4537092167059
  0
ARC
  5
180
100
AcDbEntity
  8
M8 Tabs
  6
ByLayer
 62
  256
370
   -1
100
AcDbCircle
 10
216.7857142857143
 20
293.2857142857143
 40
9.303554291182449
100
AcDbArc
 50
231.546290783294
 51
352.0565281894096
  0
LINE
  5
181
100
AcDbEntity
  8
M8 Tabs
  6
ByLayer
 62
  256
370
   -1
100
AcDbLine
 10
204
 20
316
 11
197
 21
316
  0
LINE
  5
182
100
AcDbEntity
  8
M8 Tabs
  6
ByLayer
 62
  256
370
   -1
100
AcDbLine
 10
204
 20
316
 11
211
 21
316
  0
ARC
  5
183
100
AcDbEntity
  8
M8 Tabs
  6
ByLayer
 62
  256
370
   -1
100
AcDbCircle
 10
216.4302325581395
 20
322.5232558139535
 40
9.584062058340855
100
AcDbArc
 50
356.8702974084774
 51
98.58232457933514
  0
LINE
  5
184
100
AcDbEntity
  8
M8 Tabs
  6
ByLayer
 62
  256
370
   -1
100
AcDbLine
 10
215
 20
332
 11
204
 21
332
  0
ARC
  5
185
100
AcDbEntity
  8
M8 Tabs
  6
ByLayer
 62
  256
370
   -1
100
AcDbCircle
 10
191.5697674418605
 20
322.5232558139535
 40
9.584062058340864
100
AcDbArc
 50
81.41767542066502
 51
183.1297025915228
  0
LINE
  5
186
100
AcDbEntity
  8
M8 Tabs
  6
ByLayer
 62
  256
370
   -1
100
AcDbLine
 10
193
 20
332
 11
204
 21
332
  0
ARC
  5
187
100
AcDbEntity
  8
M8 Tabs
  6
ByLayer
 62
  256
370
   -1
100
AcDbCircle
 10
191.2142857142857
 20
323.2857142857143
 40
9.303554291182452
100
AcDbArc
 50
187.9434718105903
 51
308.4537092167059
  0
ARC
  5
188
100
AcDbEntity
  8
M8 Tabs
  6
ByLayer
 62
  256
370
   -1
100
AcDbCircle
 10
216.7857142857143
 20
323.2857142857143
 40
9.303554291182449
100
AcDbArc
 50
231.546290783294
 51
352.0565281894096
  0
LINE
  5
189
100
AcDbEntity
  8
M8 Tabs
  6
ByLayer
 62
  256
370
   -1
100
AcDbLine
 10
204
 20
346
 11
197
 21
346
  0
LINE
  5
18A
100
AcDbEntity
  8
M8 Tabs
  6
ByLayer
 62
  256
370
   -1
100
AcDbLine
 10
204
 20
346
 11
211
 21
346
  0
ARC
  5
18B
100
AcDbEntity
  8
M8 Tabs
  6
ByLayer
 62
  256
370
   -1
100
AcDbCircle
 10
216.4302325581395
 20
352.5232558139535
 40
9.584062058340855
100
AcDbArc
 50
356.8702974084774
 51
98.58232457933514
  0
LINE
  5
18C
100
AcDbEntity
  8
M8 Tabs
  6
ByLayer
 62
  256
370
   -1
100
AcDbLine
 10
215
 20
362
 11
204
 21
362
  0
ARC
  5
18D
100
AcDbEntity
  8
M8 Tabs
  6
ByLayer
 62
  256
370
   -1
100
AcDbCircle
 10
191.5697674418605
 20
352.5232558139535
 40
9.584062058340864
100
AcDbArc
 50
81.41767542066502
 51
183.1297025915228
  0
LINE
  5
18E
100
AcDbEntity
  8
M8 Tabs
  6
ByLayer
 62
  256
370
   -1
100
AcDbLine
 10
193
 20
362
 11
204
 21
362
  0
ARC
  5
18F
100
AcDbEntity
  8
M8 Tabs
  6
ByLayer
 62
  256
370
   -1
100
AcDbCircle
 10
191.2142857142857
 20
353.2857142857143
 40
9.303554291182452
100
AcDbArc
 50
187.9434718105903
 51
308.4537092167059
  0
ARC
  5
190
100
AcDbEntity
  8
M8 Tabs
  6
ByLayer
 62
  256
370
   -1
100
AcDbCircle
 10
216.7857142857143
 20
353.2857142857143
 40
9.303554291182449
100
AcDbArc
 50
231.546290783294
 51
352.0565281894096
  0
LINE
  5
191
100
AcDbEntity
  8
M8 Tabs
  6
ByLayer
 62
  256
370
   -1
100
AcDbLine
 10
204
 20
376
 11
197
 21
376
  0
LINE
  5
192
100
AcDbEntity
  8
M8 Tabs
  6
ByLayer
 62
  256
370
   -1
100
AcDbLine
 10
204
 20
376
 11
211
 21
376
  0
ARC
  5
193
100
AcDbEntity
  8
M8 Tabs
  6
ByLayer
 62
  256
370
   -1
100
AcDbCircle
 10
216.4302325581395
 20
382.5232558139535
 40
9.584062058340855
100
AcDbArc
 50
356.8702974084774
 51
98.58232457933514
  0
LINE
  5
194
100
AcDbEntity
  8
M8 Tabs
  6
ByLayer
 62
  256
370
   -1
100
AcDbLine
 10
215
 20
392
 11
204
 21
392
  0
ARC
  5
195
100
AcDbEntity
  8
M8 Tabs
  6
ByLayer
 62
  256
370
   -1
100
AcDbCircle
 10
191.5697674418605
 20
382.5232558139535
 40
9.584062058340864
100
AcDbArc
 50
81.41767542066502
 51
183.1297025915228
  0
LINE
  5
196
100
AcDbEntity
  8
M8 Tabs
  6
ByLayer
 62
  256
370
   -1
100
AcDbLine
 10
193
 20
392
 11
204
 21
392
  0
ARC
  5
197
100
AcDbEntity
  8
M8 Tabs
  6
ByLayer
 62
  256
370
   -1
100
AcDbCircle
 10
191.2142857142857
 20
383.2857142857143
 40
9.303554291182452
100
AcDbArc
 50
187.9434718105903
 51
308.4537092167059
  0
ARC
  5
198
100
AcDbEntity
  8
M8 Tabs
  6
ByLayer
 62
  256
370
   -1
100
AcDbCircle
 10
216.7857142857143
 20
383.2857142857143
 40
9.303554291182449
100
AcDbArc
 50
231.546290783294
 51
352.0565281894096
  0
LINE
  5
199
100
AcDbEntity
  8
M8 Tabs
  6
ByLayer
 62
  256
370
   -1
100
AcDbLine
 10
204
 20
406
 11
197
 21
406
  0
LINE
  5
19A
100
AcDbEntity
  8
M8 Tabs
  6
ByLayer
 62
  256
370
   -1
100
AcDbLine
 10
204
 20
406
 11
211
 21
406
  0
ARC
  5
19B
100
AcDbEntity
  8
M8 Tabs
  6
ByLayer
 62
  256
370
   -1
100
AcDbCircle
 10
216.4302325581395
 20
412.5232558139535
 40
9.584062058340855
100
AcDbArc
 50
356.8702974084774
 51
98.58232457933514
  0
LINE
  5
19C
100
AcDbEntity
  8
M8 Tabs
  6
ByLayer
 62
  256
370
   -1
100
AcDbLine
 10
215
 20
422
 11
204
 21
422
  0
ARC
  5
19D
100
AcDbEntity
  8
M8 Tabs
  6
ByLayer
 62
  256
370
   -1
100
AcDbCircle
 10
191.5697674418605
 20
412.5232558139535
 40
9.584062058340864
100
AcDbArc
 50
81.41767542066502
 51
183.1297025915228
  0
LINE
  5
19E
100
AcDbEntity
  8
M8 Tabs
  6
ByLayer
 62
  256
370
   -1
100
AcDbLine
 10
193
 20
422
 11
204
 21
422
  0
ARC
  5
19F
100
AcDbEntity
  8
M8 Tabs
  6
ByLayer
 62
  256
370
   -1
100
AcDbCircle
 10
191.2142857142857
 20
413.2857142857143
 40
9.303554291182452
100
AcDbArc
 50
187.9434718105903
 51
308.4537092167059
  0
ARC
  5
1A0
100
AcDbEntity
  8
M8 Tabs
  6
ByLayer
 62
  256
370
   -1
100
AcDbCircle
 10
216.7857142857143
 20
413.2857142857143
 40
9.303554291182449
100
AcDbArc
 50
231.546290783294
 51
352.0565281894096
  0
LINE
  5
1A1
100
AcDbEntity
  8
M6 Tabs
  6
ByLayer
 62
  256
370
   -1
100
AcDbLine
 10
103
 20
104
 11
98
 21
104
  0
ARC
  5
1A2
100
AcDbEntity
  8
M6 Tabs
  6
ByLayer
 62
  256
370
   -1
100
AcDbCircle
 10
93.06976744186046
 20
110.9302325581395
 40
9.117346876238447
100
AcDbArc
 50
84.14398641457103
 51
185.8560135854289
  0
ARC
  5
1A3
100
AcDbEntity
  8
M6 Tabs
  6
ByLayer
 62
  256
370
   -1
100
AcDbCircle
 10
92.71428571428571
 20
111
 40
8.771475104576428
100
AcDbArc
 50
186.5462907832941
 51
307.0565281894096
  0
LINE
  5
1A4
100
AcDbEntity
  8
M6 Tabs
  6
ByLayer
 62
  256
370
   -1
100
AcDbLine
 10
103
 20
104
 11
108
 21
104
  0
ARC
  5
1A5
100
AcDbEntity
  8
M6 Tabs
  6
ByLayer
 62
  256
370
   -1
100
AcDbCircle
 10
112.9302325581395
 20
110.9302325581395
 40
9.117346876238447
100
AcDbArc
 50
354.143986414571
 51
95.85601358542895
  0
ARC
  5
1A6
100
AcDbEntity
  8
M6 Tabs
  6
ByLayer
 62
  256
370
   -1
100
AcDbCircle
 10
113.2857142857143
 20
111
 40
8.771475104576428
100
AcDbArc
 50
232.9434718105904
 51
353.4537092167059
  0
LINE
  5
1A7
100
AcDbEntity
  8
M6 Tabs
  6
ByLayer
 62
  256
370
   -1
100
AcDbLine
 10
94
 20
120
 11
103
 21
120
  0
LINE
  5
1A8
100
AcDbEntity
  8
M6 Tabs
  6
ByLayer
 62
  256
370
   -1
100
AcDbLine
 10
112
 20
120
 11
103
 21
120
  0
LINE
  5
1A9
100
AcDbEntity
  8
M6 Tabs
  6
ByLayer
 62
  256
370
   -1
100
AcDbLine
 10
103
 20
134
 11
98
 21
134
  0
ARC
  5
1AA
100
AcDbEntity
  8
M6 Tabs
  6
ByLayer
 62
  256
370
   -1
100
AcDbCircle
 10
93.06976744186046
 20
140.9302325581395
 40
9.117346876238447
100
AcDbArc
 50
84.14398641457103
 51
185.8560135854289
  0
ARC
  5
1AB
100
AcDbEntity
  8
M6 Tabs
  6
ByLayer
 62
  256
370
   -1
100
AcDbCircle
 10
92.71428571428571
 20
141
 40
8.771475104576428
100
AcDbArc
 50
186.5462907832941
 51
307.0565281894096
  0
LINE
  5
1AC
100
AcDbEntity
  8
M6 Tabs
  6
ByLayer
 62
  256
370
   -1
100
AcDbLine
 10
103
 20
134
 11
108
 21
134
  0
ARC
  5
1AD
100
AcDbEntity
  8
M6 Tabs
  6
ByLayer
 62
  256
370
   -1
100
AcDbCircle
 10
112.9302325581395
 20
140.9302325581395
 40
9.117346876238447
100
AcDbArc
 50
354.143986414571
 51
95.85601358542895
  0
ARC
  5
1AE
100
AcDbEntity
  8
M6 Tabs
  6
ByLayer
 62
  256
370
   -1
100
AcDbCircle
 10
113.2857142857143
 20
141
 40
8.771475104576428
100
AcDbArc
 50
232.9434718105904
 51
353.4537092167059
  0
LINE
  5
1AF
100
AcDbEntity
  8
M6 Tabs
  6
ByLayer
 62
  256
370
   -1
100
AcDbLine
 10
94
 20
150
 11
103
 21
150
  0
LINE
  5
1B0
100
AcDbEntity
  8
M6 Tabs
  6
ByLayer
 62
  256
370
   -1
100
AcDbLine
 10
112
 20
150
 11
103
 21
150
  0
LINE
  5
1B1
100
AcDbEntity
  8
M6 Tabs
  6
ByLayer
 62
  256
370
   -1
100
AcDbLine
 10
103
 20
164
 11
98
 21
164
  0
ARC
  5
1B2
100
AcDbEntity
  8
M6 Tabs
  6
ByLayer
 62
  256
370
   -1
100
AcDbCircle
 10
93.06976744186046
 20
170.9302325581395
 40
9.117346876238447
100
AcDbArc
 50
84.14398641457103
 51
185.8560135854289
  0
ARC
  5
1B3
100
AcDbEntity
  8
M6 Tabs
  6
ByLayer
 62
  256
370
   -1
100
AcDbCircle
 10
92.71428571428571
 20
171
 40
8.771475104576428
100
AcDbArc
 50
186.5462907832941
 51
307.0565281894096
  0
LINE
  5
1B4
100
AcDbEntity
  8
M6 Tabs
  6
ByLayer
 62
  256
370
   -1
100
AcDbLine
 10
103
 20
164
 11
108
 21
164
  0
ARC
  5
1B5
100
AcDbEntity
  8
M6 Tabs
  6
ByLayer
 62
  256
370
   -1
100
AcDbCircle
 10
112.9302325581395
 20
170.9302325581395
 40
9.117346876238447
100
AcDbArc
 50
354.143986414571
 51
95.85601358542895
  0
ARC
  5
1B6
100
AcDbEntity
  8
M6 Tabs
  6
ByLayer
 62
  256
370
   -1
100
AcDbCircle
 10
113.2857142857143
 20
171
 40
8.771475104576428
100
AcDbArc
 50
232.9434718105904
 51
353.4537092167059
  0
LINE
  5
1B7
100
AcDbEntity
  8
M6 Tabs
  6
ByLayer
 62
  256
370
   -1
100
AcDbLine
 10
94
 20
180
 11
103
 21
180
  0
LINE
  5
1B8
100
AcDbEntity
  8
M6 Tabs
  6
ByLayer
 62
  256
370
   -1
100
AcDbLine
 10
112
 20
180
 11
103
 21
180
  0
LINE
  5
1B9
100
AcDbEntity
  8
M6 Tabs
  6
ByLayer
 62
  256
370
   -1
100
AcDbLine
 10
103
 20
194
 11
98
 21
194
  0
ARC
  5
1BA
100
AcDbEntity
  8
M6 Tabs
  6
ByLayer
 62
  256
370
   -1
100
AcDbCircle
 10
93.06976744186046
 20
200.9302325581395
 40
9.117346876238447
100
AcDbArc
 50
84.14398641457103
 51
185.8560135854289
  0
ARC
  5
1BB
100
AcDbEntity
  8
M6 Tabs
  6
ByLayer
 62
  256
370
   -1
100
AcDbCircle
 10
92.71428571428571
 20
201
 40
8.771475104576428
100
AcDbArc
 50
186.5462907832941
 51
307.0565281894096
  0
LINE
  5
1BC
100
AcDbEntity
  8
M6 Tabs
  6
ByLayer
 62
  256
370
   -1
100
AcDbLine
 10
103
 20
194
 11
108
 21
194
  0
ARC
  5
1BD
100
AcDbEntity
  8
M6 Tabs
  6
ByLayer
 62
  256
370
   -1
100
AcDbCircle
 10
112.9302325581395
 20
200.9302325581395
 40
9.117346876238447
100
AcDbArc
 50
354.143986414571
 51
95.85601358542895
  0
ARC
  5
1BE
100
AcDbEntity
  8
M6 Tabs
  6
ByLayer
 62
  256
370
   -1
100
AcDbCircle
 10
113.2857142857143
 20
201
 40
8.771475104576428
100
AcDbArc
 50
232.9434718105904
 51
353.4537092167059
  0
LINE
  5
1BF
100
AcDbEntity
  8
M6 Tabs
  6
ByLayer
 62
  256
370
   -1
100
AcDbLine
 10
94
 20
210
 11
103
 21
210
  0
LINE
  5
1C0
100
AcDbEntity
  8
M6 Tabs
  6
ByLayer
 62
  256
370
   -1
100
AcDbLine
 10
112
 20
210
 11
103
 21
210
  0
LINE
  5
1C1
100
AcDbEntity
  8
M6 Tabs
  6
ByLayer
 62
  256
370
   -1
100
AcDbLine
 10
103
 20
224
 11
98
 21
224
  0
ARC
  5
1C2
100
AcDbEntity
  8
M6 Tabs
  6
ByLayer
 62
  256
370
   -1
100
AcDbCircle
 10
93.06976744186046
 20
230.9302325581395
 40
9.117346876238447
100
AcDbArc
 50
84.14398641457103
 51
185.8560135854289
  0
ARC
  5
1C3
100
AcDbEntity
  8
M6 Tabs
  6
ByLayer
 62
  256
370
   -1
100
AcDbCircle
 10
92.71428571428571
 20
231
 40
8.771475104576428
100
AcDbArc
 50
186.5462907832941
 51
307.0565281894096
  0
LINE
  5
1C4
100
AcDbEntity
  8
M6 Tabs
  6
ByLayer
 62
  256
370
   -1
100
AcDbLine
 10
103
 20
224
 11
108
 21
224
  0
ARC
  5
1C5
100
AcDbEntity
  8
M6 Tabs
  6
ByLayer
 62
  256
370
   -1
100
AcDbCircle
 10
112.9302325581395
 20
230.9302325581395
 40
9.117346876238447
100
AcDbArc
 50
354.143986414571
 51
95.85601358542895
  0
ARC
  5
1C6
100
AcDbEntity
  8
M6 Tabs
  6
ByLayer
 62
  256
370
   -1
100
AcDbCircle
 10
113.2857142857143
 20
231
 40
8.771475104576428
100
AcDbArc
 50
232.9434718105904
 51
353.4537092167059
  0
LINE
  5
1C7
100
AcDbEntity
  8
M6 Tabs
  6
ByLayer
 62
  256
370
   -1
100
AcDbLine
 10
94
 20
240
 11
103
 21
240
  0
LINE
  5
1C8
100
AcDbEntity
  8
M6 Tabs
  6
ByLayer
 62
  256
370
   -1
100
AcDbLine
 10
112
 20
240
 11
103
 21
240
  0
LINE
  5
1C9
100
AcDbEntity
  8
M6 Tabs
  6
ByLayer
 62
  256
370
   -1
100
AcDbLine
 10
103
 20
254
 11
98
 21
254
  0
ARC
  5
1CA
100
AcDbEntity
  8
M6 Tabs
  6
ByLayer
 62
  256
370
   -1
100
AcDbCircle
 10
93.06976744186046
 20
260.9302325581395
 40
9.117346876238447
100
AcDbArc
 50
84.14398641457103
 51
185.8560135854289
  0
ARC
  5
1CB
100
AcDbEntity
  8
M6 Tabs
  6
ByLayer
 62
  256
370
   -1
100
AcDbCircle
 10
92.71428571428571
 20
261
 40
8.771475104576428
100
AcDbArc
 50
186.5462907832941
 51
307.0565281894096
  0
LINE
  5
1CC
100
AcDbEntity
  8
M6 Tabs
  6
ByLayer
 62
  256
370
   -1
100
AcDbLine
 10
103
 20
254
 11
108
 21
254
  0
ARC
  5
1CD
100
AcDbEntity
  8
M6 Tabs
  6
ByLayer
 62
  256
370
   -1
100
AcDbCircle
 10
112.9302325581395
 20
260.9302325581395
 40
9.117346876238447
100
AcDbArc
 50
354.143986414571
 51
95.85601358542895
  0
ARC
  5
1CE
100
AcDbEntity
  8
M6 Tabs
  6
ByLayer
 62
  256
370
   -1
100
AcDbCircle
 10
113.2857142857143
 20
261
 40
8.771475104576428
100
AcDbArc
 50
232.9434718105904
 51
353.4537092167059
  0
LINE
  5
1CF
100
AcDbEntity
  8
M6 Tabs
  6
ByLayer
 62
  256
370
   -1
100
AcDbLine
 10
94
 20
270
 11
103
 21
270
  0
LINE
  5
1D0
100
AcDbEntity
  8
M6 Tabs
  6
ByLayer
 62
  256
370
   -1
100
AcDbLine
 10
112
 20
270
 11
103
 21
270
  0
LINE
  5
1D1
100
AcDbEntity
  8
M6 Tabs
  6
ByLayer
 62
  256
370
   -1
100
AcDbLine
 10
103
 20
284
 11
98
 21
284
  0
ARC
  5
1D2
100
AcDbEntity
  8
M6 Tabs
  6
ByLayer
 62
  256
370
   -1
100
AcDbCircle
 10
93.06976744186046
 20
290.9302325581395
 40
9.117346876238447
100
AcDbArc
 50
84.14398641457103
 51
185.8560135854289
  0
ARC
  5
1D3
100
AcDbEntity
  8
M6 Tabs
  6
ByLayer
 62
  256
370
   -1
100
AcDbCircle
 10
92.71428571428571
 20
291
 40
8.771475104576428
100
AcDbArc
 50
186.5462907832941
 51
307.0565281894096
  0
LINE
  5
1D4
100
AcDbEntity
  8
M6 Tabs
  6
ByLayer
 62
  256
370
   -1
100
AcDbLine
 10
103
 20
284
 11
108
 21
284
  0
ARC
  5
1D5
100
AcDbEntity
  8
M6 Tabs
  6
ByLayer
 62
  256
370
   -1
100
AcDbCircle
 10
112.9302325581395
 20
290.9302325581395
 40
9.117346876238447
100
AcDbArc
 50
354.143986414571
 51
95.85601358542895
  0
ARC
  5
1D6
100
AcDbEntity
  8
M6 Tabs
  6
ByLayer
 62
  256
370
   -1
100
AcDbCircle
 10
113.2857142857143
 20
291
 40
8.771475104576428
100
AcDbArc
 50
232.9434718105904
 51
353.4537092167059
  0
LINE
  5
1D7
100
AcDbEntity
  8
M6 Tabs
  6
ByLayer
 62
  256
370
   -1
100
AcDbLine
 10
94
 20
300
 11
103
 21
300
  0
LINE
  5
1D8
100
AcDbEntity
  8
M6 Tabs
  6
ByLayer
 62
  256
370
   -1
100
AcDbLine
 10
112
 20
300
 11
103
 21
300
  0
LINE
  5
1D9
100
AcDbEntity
  8
M6 Tabs
  6
ByLayer
 62
  256
370
   -1
100
AcDbLine
 10
103
 20
314
 11
98
 21
314
  0
ARC
  5
1DA
100
AcDbEntity
  8
M6 Tabs
  6
ByLayer
 62
  256
370
   -1
100
AcDbCircle
 10
93.06976744186046
 20
320.9302325581395
 40
9.117346876238447
100
AcDbArc
 50
84.14398641457103
 51
185.8560135854289
  0
ARC
  5
1DB
100
AcDbEntity
  8
M6 Tabs
  6
ByLayer
 62
  256
370
   -1
100
AcDbCircle
 10
92.71428571428571
 20
321
 40
8.771475104576428
100
AcDbArc
 50
186.5462907832941
 51
307.0565281894096
  0
LINE
  5
1DC
100
AcDbEntity
  8
M6 Tabs
  6
ByLayer
 62
  256
370
   -1
100
AcDbLine
 10
103
 20
314
 11
108
 21
314
  0
ARC
  5
1DD
100
AcDbEntity
  8
M6 Tabs
  6
ByLayer
 62
  256
370
   -1
100
AcDbCircle
 10
112.9302325581395
 20
320.9302325581395
 40
9.117346876238447
100
AcDbArc
 50
354.143986414571
 51
95.85601358542895
  0
ARC
  5
1DE
100
AcDbEntity
  8
M6 Tabs
  6
ByLayer
 62
  256
370
   -1
100
AcDbCircle
 10
113.2857142857143
 20
321
 40
8.771475104576428
100
AcDbArc
 50
232.9434718105904
 51
353.4537092167059
  0
LINE
  5
1DF
100
AcDbEntity
  8
M6 Tabs
  6
ByLayer
 62
  256
370
   -1
100
AcDbLine
 10
94
 20
330
 11
103
 21
330
  0
LINE
  5
1E0
100
AcDbEntity
  8
M6 Tabs
  6
ByLayer
 62
  256
370
   -1
100
AcDbLine
 10
112
 20
330
 11
103
 21
330
  0
LINE
  5
1E1
100
AcDbEntity
  8
M6 Tabs
  6
ByLayer
 62
  256
370
   -1
100
AcDbLine
 10
103
 20
344
 11
98
 21
344
  0
ARC
  5
1E2
100
AcDbEntity
  8
M6 Tabs
  6
ByLayer
 62
  256
370
   -1
100
AcDbCircle
 10
93.06976744186046
 20
350.9302325581395
 40
9.117346876238447
100
AcDbArc
 50
84.14398641457103
 51
185.8560135854289
  0
ARC
  5
1E3
100
AcDbEntity
  8
M6 Tabs
  6
ByLayer
 62
  256
370
   -1
100
AcDbCircle
 10
92.71428571428571
 20
351
 40
8.771475104576428
100
AcDbArc
 50
186.5462907832941
 51
307.0565281894096
  0
LINE
  5
1E4
100
AcDbEntity
  8
M6 Tabs
  6
ByLayer
 62
  256
370
   -1
100
AcDbLine
 10
103
 20
344
 11
108
 21
344
  0
ARC
  5
1E5
100
AcDbEntity
  8
M6 Tabs
  6
ByLayer
 62
  256
370
   -1
100
AcDbCircle
 10
112.9302325581395
 20
350.9302325581395
 40
9.117346876238447
100
AcDbArc
 50
354.143986414571
 51
95.85601358542895
  0
ARC
  5
1E6
100
AcDbEntity
  8
M6 Tabs
  6
ByLayer
 62
  256
370
   -1
100
AcDbCircle
 10
113.2857142857143
 20
351
 40
8.771475104576428
100
AcDbArc
 50
232.9434718105904
 51
353.4537092167059
  0
LINE
  5
1E7
100
AcDbEntity
  8
M6 Tabs
  6
ByLayer
 62
  256
370
   -1
100
AcDbLine
 10
94
 20
360
 11
103
 21
360
  0
LINE
  5
1E8
100
AcDbEntity
  8
M6 Tabs
  6
ByLayer
 62
  256
370
   -1
100
AcDbLine
 10
112
 20
360
 11
103
 21
360
  0
LINE
  5
1E9
100
AcDbEntity
  8
M6 Tabs
  6
ByLayer
 62
  256
370
   -1
100
AcDbLine
 10
103
 20
374
 11
98
 21
374
  0
ARC
  5
1EA
100
AcDbEntity
  8
M6 Tabs
  6
ByLayer
 62
  256
370
   -1
100
AcDbCircle
 10
93.06976744186046
 20
380.9302325581395
 40
9.117346876238447
100
AcDbArc
 50
84.14398641457103
 51
185.8560135854289
  0
ARC
  5
1EB
100
AcDbEntity
  8
M6 Tabs
  6
ByLayer
 62
  256
370
   -1
100
AcDbCircle
 10
92.71428571428571
 20
381
 40
8.771475104576428
100
AcDbArc
 50
186.5462907832941
 51
307.0565281894096
  0
LINE
  5
1EC
100
AcDbEntity
  8
M6 Tabs
  6
ByLayer
 62
  256
370
   -1
100
AcDbLine
 10
103
 20
374
 11
108
 21
374
  0
ARC
  5
1ED
100
AcDbEntity
  8
M6 Tabs
  6
ByLayer
 62
  256
370
   -1
100
AcDbCircle
 10
112.9302325581395
 20
380.9302325581395
 40
9.117346876238447
100
AcDbArc
 50
354.143986414571
 51
95.85601358542895
  0
ARC
  5
1EE
100
AcDbEntity
  8
M6 Tabs
  6
ByLayer
 62
  256
370
   -1
100
AcDbCircle
 10
113.2857142857143
 20
381
 40
8.771475104576428
100
AcDbArc
 50
232.9434718105904
 51
353.4537092167059
  0
LINE
  5
1EF
100
AcDbEntity
  8
M6 Tabs
  6
ByLayer
 62
  256
370
   -1
100
AcDbLine
 10
94
 20
390
 11
103
 21
390
  0
LINE
  5
1F0
100
AcDbEntity
  8
M6 Tabs
  6
ByLayer
 62
  256
370
   -1
100
AcDbLine
 10
112
 20
390
 11
103
 21
390
  0
LINE
  5
1F1
100
AcDbEntity
  8
M6 Tabs
  6
ByLayer
 62
  256
370
   -1
100
AcDbLine
 10
103
 20
404
 11
98
 21
404
  0
ARC
  5
1F2
100
AcDbEntity
  8
M6 Tabs
  6
ByLayer
 62
  256
370
   -1
100
AcDbCircle
 10
93.06976744186046
 20
410.9302325581395
 40
9.117346876238447
100
AcDbArc
 50
84.14398641457103
 51
185.8560135854289
  0
ARC
  5
1F3
100
AcDbEntity
  8
M6 Tabs
  6
ByLayer
 62
  256
370
   -1
100
AcDbCircle
 10
92.71428571428571
 20
411
 40
8.771475104576428
100
AcDbArc
 50
186.5462907832941
 51
307.0565281894096
  0
LINE
  5
1F4
100
AcDbEntity
  8
M6 Tabs
  6
ByLayer
 62
  256
370
   -1
100
AcDbLine
 10
103
 20
404
 11
108
 21
404
  0
ARC
  5
1F5
100
AcDbEntity
  8
M6 Tabs
  6
ByLayer
 62
  256
370
   -1
100
AcDbCircle
 10
112.9302325581395
 20
410.9302325581395
 40
9.117346876238447
100
AcDbArc
 50
354.143986414571
 51
95.85601358542895
  0
ARC
  5
1F6
100
AcDbEntity
  8
M6 Tabs
  6
ByLayer
 62
  256
370
   -1
100
AcDbCircle
 10
113.2857142857143
 20
411
 40
8.771475104576428
100
AcDbArc
 50
232.9434718105904
 51
353.4537092167059
  0
LINE
  5
1F7
100
AcDbEntity
  8
M6 Tabs
  6
ByLayer
 62
  256
370
   -1
100
AcDbLine
 10
94
 20
420
 11
103
 21
420
  0
LINE
  5
1F8
100
AcDbEntity
  8
M6 Tabs
  6
ByLayer
 62
  256
370
   -1
100
AcDbLine
 10
112
 20
420
 11
103
 21
420
  0
LINE
  5
1F9
100
AcDbEntity
  8
Welding Jig Base
  6
ByLayer
 62
  256
370
   -1
100
AcDbLine
 10
-100
 20
200
 11
-50
 21
200
  0
LINE
  5
1FA
100
AcDbEntity
  8
Welding Jig Base
  6
ByLayer
 62
  256
370
   -1
100
AcDbLine
 10
-50
 20
200
 11
-50
 21
206
  0
LINE
  5
1FB
100
AcDbEntity
  8
Welding Jig Base
  6
ByLayer
 62
  256
370
   -1
100
AcDbLine
 10
-50
 20
206
 11
-100
 21
206
  0
LINE
  5
1FC
100
AcDbEntity
  8
Welding Jig Base
  6
ByLayer
 62
  256
370
   -1
100
AcDbLine
 10
-100
 20
206
 11
-100
 21
200
  0
LINE
  5
1FD
100
AcDbEntity
  8
Welding Jig Base
  6
ByLayer
 62
  256
370
   -1
100
AcDbLine
 10
-79
 20
204
 11
-83
 21
200
  0
LINE
  5
1FE
100
AcDbEntity
  8
Welding Jig Base
  6
ByLayer
 62
  256
370
   -1
100
AcDbLine
 10
-79
 20
206
 11
-79
 21
204
  0
LINE
  5
1FF
100
AcDbEntity
  8
Welding Jig Base
  6
ByLayer
 62
  256
370
   -1
100
AcDbLine
 10
-71
 20
204
 11
-67
 21
200
  0
LINE
  5
200
100
AcDbEntity
  8
Welding Jig Base
  6
ByLayer
 62
  256
370
   -1
100
AcDbLine
 10
-71
 20
204
 11
-71
 21
206
  0
LINE
  5
201
100
AcDbEntity
  8
Welding Jig Base
  6
ByLayer
 62
  256
370
   -1
100
AcDbLine
 10
-100
 20
300
 11
-50
 21
300
  0
LINE
  5
202
100
AcDbEntity
  8
Welding Jig Base
  6
ByLayer
 62
  256
370
   -1
100
AcDbLine
 10
-100
 20
350
 11
-100
 21
300
  0
LINE
  5
203
100
AcDbEntity
  8
Welding Jig Base
  6
ByLayer
 62
  256
370
   -1
100
AcDbLine
 10
-50
 20
300
 11
-50
 21
350
  0
LINE
  5
204
100
AcDbEntity
  8
Welding Jig Base
  6
ByLayer
 62
  256
370
   -1
100
AcDbLine
 10
-50
 20
350
 11
-100
 21
350
  0
CIRCLE
  5
205
100
AcDbEntity
  8
Welding Jig Base
  6
ByLayer
 62
  256
370
   -1
100
AcDbCircle
 10
-75
 20
325
 40
4
  0
CIRCLE
  5
206
100
AcDbEntity
  8
Welding Jig Base
  6
ByLayer
 62
  256
370
   -1
100
AcDbCircle
 10
-75
 20
325
 40
1
  0
CIRCLE
  5
207
100
AcDbEntity
  8
Welding Jig Base
  6
ByLayer
 62
  256
370
   -1
100
AcDbCircle
 10
-75
 20
325
 40
8
  0
LINE
  5
208
100
AcDbEntity
  8
Welding Jig Nuts
  6
ByLayer
 62
  256
370
   -1
100
AcDbLine
 10
-82
 20
96
 11
-78
 21
100
  0
LINE
  5
209
100
AcDbEntity
  8
Welding Jig Nuts
  6
ByLayer
 62
  256
370
   -1
100
AcDbLine
 10
-78
 20
100
 11
-72
 21
100
  0
LINE
  5
20A
100
AcDbEntity
  8
Welding Jig Nuts
  6
ByLayer
 62
  256
370
   -1
100
AcDbLine
 10
-72
 20
100
 11
-68
 21
96
  0
LINE
  5
20B
100
AcDbEntity
  8
Welding Jig Nuts
  6
ByLayer
 62
  256
370
   -1
100
AcDbLine
 10
-68
 20
96
 11
-68
 21
74
  0
LINE
  5
20C
100
AcDbEntity
  8
Welding Jig Nuts
  6
ByLayer
 62
  256
370
   -1
100
AcDbLine
 10
-68
 20
74
 11
-82
 21
74
  0
LINE
  5
20D
100
AcDbEntity
  8
Welding Jig Nuts
  6
ByLayer
 62
  256
370
   -1
100
AcDbLine
 10
-82
 20
74
 11
-82
 21
96
  0
LINE
  5
20E
100
AcDbEntity
  8
Welding Jig Nuts
  6
ByLayer
 62
  256
370
   -1
100
AcDbLine
 10
-79
 20
96
 11
-79
 21
74
  0
LINE
  5
20F
100
AcDbEntity
  8
Welding Jig Nuts
  6
ByLayer
 62
  256
370
   -1
100
AcDbLine
 10
-71
 20
74
 11
-71
 21
96
  0
ARC
  5
210
100
AcDbEntity
  8
Welding Jig Nuts
  6
ByLayer
 62
  256
370
   -1
100
AcDbCircle
 10
-75
 20
103.5
 40
8.5
100
AcDbArc
 50
241.927513064147
 51
298.072486935853
  0
ARC
  5
211
100
AcDbEntity
  8
Welding Jig Nuts
  6
ByLayer
 62
  256
370
   -1
100
AcDbCircle
 10
-69.5
 20
96.5
 40
1.58113883008419
100
AcDbArc
 50
198.434948822922
 51
341.565051177078
  0
ARC
  5
212
100
AcDbEntity
  8
Welding Jig Nuts
  6
ByLayer
 62
  256
370
   -1
100
AcDbCircle
 10
-80.5
 20
96.5
 40
1.58113883008419
100
AcDbArc
 50
198.434948822922
 51
341.565051177078
  0
LINE
  5
213
100
AcDbEntity
  8
Welding Jig Nuts
  6
ByLayer
 62
  256
370
   -1
100
AcDbLine
 10
-76.5
 20
100
 11
-76.5
 21
74
  0
LINE
  5
214
100
AcDbEntity
  8
Welding Jig Nuts
  6
ByLayer
 62
  256
370
   -1
100
AcDbLine
 10
-73.5
 20
74
 11
-73.5
 21
100
  0
LINE
  5
215
100
AcDbEntity
  8
Welding Jig Uprights
  6
ByLayer
 62
  256
370
   -1
100
AcDbLine
 10
-100
 20
206
 11
-76.5
 21
206
  0
LINE
  5
216
100
AcDbEntity
  8
Welding Jig Uprights
  6
ByLayer
 62
  256
370
   -1
100
AcDbLine
 10
-76.5
 20
231
 11
-76.5
 21
206
  0
LINE
  5
217
100
AcDbEntity
  8
Welding Jig Uprights
  6
ByLayer
 62
  256
370
   -1
100
AcDbLine
 10
-79.5
 20
209
 11
-79.5
 21
231
  0
LINE
  5
218
100
AcDbEntity
  8
Welding Jig Uprights
  6
ByLayer
 62
  256
370
   -1
100
AcDbLine
 10
-76.5
 20
231
 11
-79.5
 21
231
  0
LINE
  5
219
100
AcDbEntity
  8
Welding Jig Uprights
  6
ByLayer
 62
  256
370
   -1
100
AcDbLine
 10
-100
 20
209
 11
-79.5
 21
209
  0
LINE
  5
21A
100
AcDbEntity
  8
Welding Jig Uprights
  6
ByLayer
 62
  256
370
   -1
100
AcDbLine
 10
-100
 20
209
 11
-100
 21
206
  0
LINE
  5
21B
100
AcDbEntity
  8
Welding Jig Uprights
  6
ByLayer
 62
  256
370
   -1
100
AcDbLine
 10
-50
 20
206
 11
-73.5
 21
206
  0
LINE
  5
21C
100
AcDbEntity
  8
Welding Jig Uprights
  6
ByLayer
 62
  256
370
   -1
100
AcDbLine
 10
-73.5
 20
231
 11
-73.5
 21
206
  0
LINE
  5
21D
100
AcDbEntity
  8
Welding Jig Uprights
  6
ByLayer
 62
  256
370
   -1
100
AcDbLine
 10
-70.5
 20
209
 11
-70.5
 21
231
  0
LINE
  5
21E
100
AcDbEntity
  8
Welding Jig Uprights
  6
ByLayer
 62
  256
370
   -1
100
AcDbLine
 10
-73.5
 20
231
 11
-70.5
 21
231
  0
LINE
  5
21F
100
AcDbEntity
  8
Welding Jig Uprights
  6
ByLayer
 62
  256
370
   -1
100
AcDbLine
 10
-50
 20
209
 11
-70.5
 21
209
  0
LINE
  5
220
100
AcDbEntity
  8
Welding Jig Uprights
  6
ByLayer
 62
  256
370
   -1
100
AcDbLine
 10
-50
 20
209
 11
-50
 21
206
  0
LINE
  5
221
100
AcDbEntity
  8
Welding Jig Uprights
  6
ByLayer
 62
  256
370
   -1
100
AcDbLine
 10
-76.5
 20
300
 11
-76.5
 21
350
  0
LINE
  5
222
100
AcDbEntity
  8
Welding Jig Uprights
  6
ByLayer
 62
  256
370
   -1
100
AcDbLine
 10
-76.5
 20
350
 11
-101.5
 21
350
  0
LINE
  5
223
100
AcDbEntity
  8
Welding Jig Uprights
  6
ByLayer
 62
  256
370
   -1
100
AcDbLine
 10
-101.5
 20
350
 11
-101.5
 21
300
  0
LINE
  5
224
100
AcDbEntity
  8
Welding Jig Uprights
  6
ByLayer
 62
  256
370
   -1
100
AcDbLine
 10
-101.5
 20
300
 11
-76.5
 21
300
  0
LINE
  5
225
100
AcDbEntity
  8
Welding Jig Uprights
  6
ByLayer
 62
  256
370
   -1
100
AcDbLine
 10
-73.5
 20
300
 11
-73.5
 21
350
  0
LINE
  5
226
100
AcDbEntity
  8
Welding Jig Uprights
  6
ByLayer
 62
  256
370
   -1
100
AcDbLine
 10
-73.5
 20
350
 11
-48.5
 21
350
  0
LINE
  5
227
100
AcDbEntity
  8
Welding Jig Uprights
  6
ByLayer
 62
  256
370
   -1
100
AcDbLine
 10
-48.5
 20
350
 11
-48.5
 21
300
  0
LINE
  5
228
100
AcDbEntity
  8
Welding Jig Uprights
  6
ByLayer
 62
  256
370
   -1
100
AcDbLine
 10
-48.5
 20
300
 11
-73.5
 21
300
  0
LINE
  5
229
100
AcDbEntity
  8
Welding Jig Uprights
  6
ByLayer
 62
  256
370
   -1
100
AcDbLine
 10
-79.5
 20
350
 11
-79.5
 21
300
  0
LINE
  5
22A
100
AcDbEntity
  8
Welding Jig Uprights
  6
ByLayer
 62
  256
370
   -1
100
AcDbLine
 10
-70.5
 20
300
 11
-70.5
 21
350
  0
CIRCLE
  5
22B
100
AcDbEntity
  8
Welding Jig Uprights
  6
ByLayer
 62
  256
370
   -1
100
AcDbCircle
 10
-91
 20
309
 40
4
  0
CIRCLE
  5
22C
100
AcDbEntity
  8
Welding Jig Uprights
  6
ByLayer
 62
  256
370
   -1
100
AcDbCircle
 10
-59
 20
309
 40
4
  0
CIRCLE
  5
22D
100
AcDbEntity
  8
Welding Jig Uprights
  6
ByLayer
 62
  256
370
   -1
100
AcDbCircle
 10
-59
 20
341
 40
4
  0
CIRCLE
  5
22E
100
AcDbEntity
  8
Welding Jig Uprights
  6
ByLayer
 62
  256
370
   -1
100
AcDbCircle
 10
-91
 20
341
 40
4
  0
DIMENSION
  5
22F
100
AcDbEntity
  8
Dimms
  6
ByLayer
 62
  256
370
   -1
100
AcDbDimension
  2
*D1
 10
-50
 20
370
 30
0
 11
-62.5
 21
374.6875
 31
0
 70
   32
 71
    5
  3
Standard
 53
0
210
0
220
0
230
1
100
AcDbAlignedDimension
 13
-75
 23
360
 33
0
 14
-50
 24
360
 34
0
100
AcDbRotatedDimension
  0
DIMENSION
  5
230
100
AcDbEntity
  8
Dimms
  6
ByLayer
 62
  256
370
   -1
100
AcDbDimension
  2
*D2
 10
-91
 20
290
 30
0
 11
-96.25
 21
294.6875
 31
0
 70
   32
 71
    5
  3
Standard
 53
0
210
0
220
0
230
1
100
AcDbAlignedDimension
 13
-101.5
 23
290
 33
0
 14
-91
 24
290
 34
0
100
AcDbRotatedDimension
  0
DIMENSION
  5
231
100
AcDbEntity
  8
Dimms
  6
ByLayer
 62
  256
370
   -1
100
AcDbDimension
  2
*D3
 10
-76.5
 20
280
 30
0
 11
-83.75
 21
284.6875
 31
0
 70
   32
 71
    5
  3
Standard
 53
0
210
0
220
0
230
1
100
AcDbAlignedDimension
 13
-91
 23
290
 33
0
 14
-76.5
 24
290
 34
0
100
AcDbRotatedDimension
  0
DIMENSION
  5
232
100
AcDbEntity
  8
Dimms
  6
ByLayer
 62
  256
370
   -1
100
AcDbDimension
  2
*D4
 10
-75
 20
370
 30
0
 11
-87.5
 21
374.6875
 31
0
 70
   32
 71
    5
  3
Standard
 53
0
210
0
220
0
230
1
100
AcDbAlignedDimension
 13
-100
 23
360
 33
0
 14
-75
 24
360
 34
0
100
AcDbRotatedDimension
  0
DIMENSION
  5
233
100
AcDbEntity
  8
Dimms
  6
ByLayer
 62
  256
370
   -1
100
AcDbDimension
  2
*D5
 10
-30
 20
325
 30
0
 11
-34.6875
 21
337.5
 31
0
 70
   32
 71
    5
  3
Standard
 53
0
210
0
220
0
230
1
100
AcDbAlignedDimension
 13
-40
 23
350
 33
0
 14
-40
 24
325
 34
0
 50
90
100
AcDbRotatedDimension
  0
DIMENSION
  5
234
100
AcDbEntity
  8
Dimms
  6
ByLayer
 62
  256
370
   -1
100
AcDbDimension
  2
*D6
 10
-30
 20
300
 30
0
 11
-34.6875
 21
312.5
 31
0
 70
   32
 71
    5
  3
Standard
 53
0
210
0
220
0
230
1
100
AcDbAlignedDimension
 13
-40
 23
325
 33
0
 14
-40
 24
300
 34
0
 50
90
100
AcDbRotatedDimension
  0
DIMENSION
  5
235
100
AcDbEntity
  8
Dimms
  6
ByLayer
 62
  256
370
   -1
100
AcDbDimension
  2
*D7
 10
-120
 20
341
 30
0
 11
-124.6875
 21
345.5
 31
0
 70
   32
 71
    5
  3
Standard
 53
0
210
0
220
0
230
1
100
AcDbAlignedDimension
 13
-110
 23
350
 33
0
 14
-110
 24
341
 34
0
 50
90
100
AcDbRotatedDimension
  0
DIMENSION
  5
236
100
AcDbEntity
  8
Dimms
  6
ByLayer
 62
  256
370
   -1
100
AcDbDimension
  2
*D8
 10
-120
 20
325
 30
0
 11
-124.6875
 21
333
 31
0
 70
   32
 71
    5
  3
Standard
 53
0
210
0
220
0
230
1
100
AcDbAlignedDimension
 13
-110
 23
341
 33
0
 14
-110
 24
325
 34
0
 50
90
100
AcDbRotatedDimension
  0
DIMENSION
  5
237
100
AcDbEntity
  8
Dimms
  6
ByLayer
 62
  256
370
   -1
100
AcDbDimension
  2
*D9
 10
-76.5
 20
250
 30
0
 11
-88.25
 21
254.6875
 31
0
 70
   32
 71
    5
  3
Standard
 53
0
210
0
220
0
230
1
100
AcDbAlignedDimension
 13
-100
 23
240
 33
0
 14
-76.5
 24
240
 34
0
100
AcDbRotatedDimension
  0
DIMENSION
  5
238
100
AcDbEntity
  8
Dimms
  6
ByLayer
 62
  256
370
   -1
100
AcDbDimension
  2
*D10
 10
-73.5
 20
260
 30
0
 11
-75
 21
264.6875
 31
0
 70
   32
 71
    5
  3
Standard
 53
0
210
0
220
0
230
1
100
AcDbAlignedDimension
 13
-76.5
 23
240
 33
0
 14
-73.5
 24
240
 34
0
100
AcDbRotatedDimension
  0
DIMENSION
  5
239
100
AcDbEntity
  8
Dimms
  6
ByLayer
 62
  256
370
   -1
100
AcDbDimension
  2
*D11
 10
-50
 20
250
 30
0
 11
-61.75
 21
254.6875
 31
0
 70
   32
 71
    5
  3
Standard
 53
0
210
0
220
0
230
1
100
AcDbAlignedDimension
 13
-73.5
 23
240
 33
0
 14
-50
 24
240
 34
0
100
AcDbRotatedDimension
  0
DIMENSION
  5
23A
100
AcDbEntity
  8
Dimms
  6
ByLayer
 62
  256
370
   -1
100
AcDbDimension
  2
*D12
 10
-83
 20
180
 30
0
 11
-91.5
 21
184.6875
 31
0
 70
   32
 71
    5
  3
Standard
 53
0
210
0
220
0
230
1
100
AcDbAlignedDimension
 13
-100
 23
190
 33
0
 14
-83
 24
190
 34
0
100
AcDbRotatedDimension
  0
DIMENSION
  5
23B
100
AcDbEntity
  8
Dimms
  6
ByLayer
 62
  256
370
   -1
100
AcDbDimension
  2
*D13
 10
-79
 20
170
 30
0
 11
-81
 21
174.6875
 31
0
 70
   32
 71
    5
  3
Standard
 53
0
210
0
220
0
230
1
100
AcDbAlignedDimension
 13
-83
 23
190
 33
0
 14
-79
 24
190
 34
0
100
AcDbRotatedDimension
  0
DIMENSION
  5
23C
100
AcDbEntity
  8
Dimms
  6
ByLayer
 62
  256
370
   -1
100
AcDbDimension
  2
*D14
 10
-71
 20
190
 30
0
 11
-75
 21
194.6875
 31
0
 70
   32
 71
    5
  3
Standard
 53
0
210
0
220
0
230
1
100
AcDbAlignedDimension
 13
-79
 23
190
 33
0
 14
-71
 24
190
 34
0
100
AcDbRotatedDimension
  0
DIMENSION
  5
23D
100
AcDbEntity
  8
Dimms
  6
ByLayer
 62
  256
370
   -1
100
AcDbDimension
  2
*D15
 10
-67
 20
170
 30
0
 11
-69
 21
174.6875
 31
0
 70
   32
 71
    5
  3
Standard
 53
0
210
0
220
0
230
1
100
AcDbAlignedDimension
 13
-71
 23
190
 33
0
 14
-67
 24
190
 34
0
100
AcDbRotatedDimension
  0
DIMENSION
  5
23E
100
AcDbEntity
  8
Dimms
  6
ByLayer
 62
  256
370
   -1
100
AcDbDimension
  2
*D16
 10
-50
 20
180
 30
0
 11
-58.5
 21
184.6875
 31
0
 70
   32
 71
    5
  3
Standard
 53
0
210
0
220
0
230
1
100
AcDbAlignedDimension
 13
-67
 23
190
 33
0
 14
-50
 24
190
 34
0
100
AcDbRotatedDimension
  0
DIMENSION
  5
23F
100
AcDbEntity
  8
Dimms
  6
ByLayer
 62
  256
370
   -1
100
AcDbDimension
  2
*D17
 10
-30
 20
206
 30
0
 11
-34.6875
 21
203
 31
0
 70
   32
 71
    5
  3
Standard
 53
0
210
0
220
0
230
1
100
AcDbAlignedDimension
 13
-40
 23
200
 33
0
 14
-40
 24
206
 34
0
 50
90
100
AcDbRotatedDimension
  0
DIMENSION
  5
240
100
AcDbEntity
  8
Dimms
  6
ByLayer
 62
  256
370
   -1
100
AcDbDimension
  2
*D18
 10
-15
 20
209
 30
0
 11
-19.6875
 21
207.5
 31
0
 70
   32
 71
    5
  3
Standard
 53
0
210
0
220
0
230
1
100
AcDbAlignedDimension
 13
-40
 23
206
 33
0
 14
-40
 24
209
 34
0
 50
90
100
AcDbRotatedDimension
  0
DIMENSION
  5
241
100
AcDbEntity
  8
Dimms
  6
ByLayer
 62
  256
370
   -1
100
AcDbDimension
  2
*D19
 10
-40
 20
231
 30
0
 11
-44.6875
 21
220
 31
0
 70
   32
 71
    5
  3
Standard
 53
0
210
0
220
0
230
1
100
AcDbAlignedDimension
 13
-40
 23
209
 33
0
 14
-40
 24
231
 34
0
 50
90
100
AcDbRotatedDimension
  0
DIMENSION
  5
242
100
AcDbEntity
  8
Dimms
  6
ByLayer
 62
  256
370
   -1
100
AcDbDimension
  2
*D20
 10
-50
 20
100
 30
0
 11
-54.6875
 21
87
 31
0
 70
   32
 71
    5
  3
Standard
 53
0
210
0
220
0
230
1
100
AcDbAlignedDimension
 13
-60
 23
74
 33
0
 14
-60
 24
100
 34
0
 50
90
100
AcDbRotatedDimension
  0
DIMENSION
  5
243
100
AcDbEntity
  8
Dimms
  6
ByLayer
 62
  256
370
   -1
100
AcDbDimension
  2
*D21
 10
-68
 20
60
 30
0
 11
-75
 21
64.6875
 31
0
 70
   32
 71
    5
  3
Standard
 53
0
210
0
220
0
230
1
100
AcDbAlignedDimension
 13
-82
 23
60
 33
0
 14
-68
 24
60
 34
0
100
AcDbRotatedDimension
  0
DIMENSION
  5
244
100
AcDbEntity
  8
Dimms
  6
ByLayer
 62
  256
370
   -1
100
AcDbDimension
  2
*D22
 10
122
 20
440
 30
0
 11
103
 21
444.6875
 31
0
 70
   32
 71
    5
  3
Standard
 53
0
210
0
220
0
230
1
100
AcDbAlignedDimension
 13
84
 23
430
 33
0
 14
122
 24
430
 34
0
100
AcDbRotatedDimension
  0
DIMENSION
  5
245
100
AcDbEntity
  8
Dimms
  6
ByLayer
 62
  256
370
   -1
100
AcDbDimension
  2
*D23
 10
226
 20
440
 30
0
 11
204
 21
444.6875
 31
0
 70
   32
 71
    5
  3
Standard
 53
0
210
0
220
0
230
1
100
AcDbAlignedDimension
 13
182
 23
430
 33
0
 14
226
 24
430
 34
0
100
AcDbRotatedDimension
  0
DIMENSION
  5
246
100
AcDbEntity
  8
Dimms
  6
ByLayer
 62
  256
370
   -1
100
AcDbDimension
  2
*D24
 10
60
 20
402
 30
0
 11
55.3125
 21
411
 31
0
 70
   32
 71
    5
  3
Standard
 53
0
210
0
220
0
230
1
100
AcDbAlignedDimension
 13
70
 23
420
 33
0
 14
70
 24
402
 34
0
 50
90
100
AcDbRotatedDimension
  0
DIMENSION
  5
247
100
AcDbEntity
  8
Dimms
  6
ByLayer
 62
  256
370
   -1
100
AcDbDimension
  2
*D25
 10
250
 20
404
 30
0
 11
245.3125
 21
413
 31
0
 70
   32
 71
    5
  3
Standard
 53
0
210
0
220
0
230
1
100
AcDbAlignedDimension
 13
240
 23
422
 33
0
 14
240
 24
404
 34
0
 50
90
100
AcDbRotatedDimension
  0
ENDSEC
  0
SECTION
  2
OBJECTS
  0
DICTIONARY
  5
C
330
0
100
AcDbDictionary
281
    1
  3
ACAD_GROUP
350
D
  0
DICTIONARY
  5
D
330
C
100
AcDbDictionary
281
    1
  0
ENDSEC
  0
EOF
