999
dxflib 2.0.4.0
  0
SECTION
  2
HEADER
  9
$ACADVER
  1
AC1015
  9
$HANDSEED
  5
FFFF
  9
$DIMADEC
 70
2
  9
$GRIDUNIT
 10
0.0
 20
0.0
  9
$DIMASZ
 40
5.0
  9
$DIMGAP
 40
1.0
  9
$LUNITS
 70
2
  9
$AUPREC
 70
2
  9
$SPLINESEGS
 70
8
  9
$INSUNITS
 70
4
  9
$DIMEXO
 40
30.0
  9
$DIMLUNIT
 70
2
  9
$GRIDMODE
 70
1
  9
$DIMTXT
 40
8.0
  9
$LUPREC
 70
4
  9
$DIMSTYLE
  2
Standard
  9
$PSVPSCALE
 40
1.0
  9
$PLIMMIN
 10
0.0
 20
0.0
  9
$PLIMMAX
 10
210.0
 20
297.0
  9
$DIMEXE
 40
30.0
  9
$PINSBASE
 10
-229.9536639127522903
 20
503.1658028370645184
 30
0.0
  9
$DIMAUNIT
 70
0
  9
$AUNITS
 70
0
  0
ENDSEC
  0
SECTION
  2
TABLES
  0
TABLE
  2
VPORT
  5
8
100
AcDbSymbolTable
 70
1
  0
VPORT
  5
30
100
AcDbSymbolTableRecord
100
AcDbViewportTableRecord
  2
*Active
 70
0
 10
0.0
 20
0.0
 11
1.0
 21
1.0
 12
286.3055555555554861
 22
148.5
 13
0.0
 23
0.0
 14
10.0
 24
10.0
 15
10.0
 25
10.0
 16
0.0
 26
0.0
 36
1.0
 17
0.0
 27
0.0
 37
0.0
 40
297.0
 41
1.92798353909465
 42
50.0
 43
0.0
 44
0.0
 50
0.0
 51
0.0
 71
0
 72
100
 73
1
 74
3
 75
1
 76
1
 77
0
 78
0
281
0
 65
1
110
0.0
120
0.0
130
0.0
111
1.0
121
0.0
131
0.0
112
0.0
122
1.0
132
0.0
 79
0
146
0.0
  0
ENDTAB
  0
TABLE
  2
LTYPE
  5
5
100
AcDbSymbolTable
 70
21
  0
LTYPE
  5
14
100
AcDbSymbolTableRecord
100
AcDbLinetypeTableRecord
  2
ByBlock
 70
0
  3

 72
65
 73
0
 40
0.0
  0
LTYPE
  5
15
100
AcDbSymbolTableRecord
100
AcDbLinetypeTableRecord
  2
ByLayer
 70
0
  3

 72
65
 73
0
 40
0.0
  0
LTYPE
  5
16
100
AcDbSymbolTableRecord
100
AcDbLinetypeTableRecord
  2
CONTINUOUS
 70
0
  3
Solid line
 72
65
 73
0
 40
0.0
  0
LTYPE
  5
31
100
AcDbSymbolTableRecord
100
AcDbLinetypeTableRecord
  2
DOT
 70
0
  3
Dot . . . . . . . . . . . . . . . . . . . . . .
 72
65
 73
2
 40
6.3499999999999996
 49
0.0
 74
0
 49
-6.3499999999999996
 74
0
  0
LTYPE
  5
32
100
AcDbSymbolTableRecord
100
AcDbLinetypeTableRecord
  2
DOT2
 70
0
  3
Dot (.5x) .....................................
 72
65
 73
2
 40
3.1749999999999998
 49
0.0
 74
0
 49
-3.1749999999999998
 74
0
  0
LTYPE
  5
33
100
AcDbSymbolTableRecord
100
AcDbLinetypeTableRecord
  2
DOTX2
 70
0
  3
Dot (2x) .  .  .  .  .  .  .  .  .  .  .  .  .
 72
65
 73
2
 40
12.6999999999999993
 49
0.0
 74
0
 49
-12.6999999999999993
 74
0
  0
LTYPE
  5
34
100
AcDbSymbolTableRecord
100
AcDbLinetypeTableRecord
  2
DASHED
 70
0
  3
Dashed __ __ __ __ __ __ __ __ __ __ __ __ __ _
 72
65
 73
2
 40
19.0500000000000007
 49
12.6999999999999993
 74
0
 49
-6.3499999999999996
 74
0
  0
LTYPE
  5
35
100
AcDbSymbolTableRecord
100
AcDbLinetypeTableRecord
  2
DASHED2
 70
0
  3
Dashed (.5x) _ _ _ _ _ _ _ _ _ _ _ _ _ _ _ _ _
 72
65
 73
2
 40
9.5250000000000004
 49
6.3499999999999996
 74
0
 49
-3.1749999999999998
 74
0
  0
LTYPE
  5
36
100
AcDbSymbolTableRecord
100
AcDbLinetypeTableRecord
  2
DASHEDX2
 70
0
  3
Dashed (2x) ____  ____  ____  ____  ____  ___
 72
65
 73
2
 40
38.1000000000000014
 49
25.3999999999999986
 74
0
 49
-12.6999999999999993
 74
0
  0
LTYPE
  5
37
100
AcDbSymbolTableRecord
100
AcDbLinetypeTableRecord
  2
DASHDOT
 70
0
  3
Dash dot __ . __ . __ . __ . __ . __ . __ . __
 72
65
 73
4
 40
25.3999999999999986
 49
12.6999999999999993
 74
0
 49
-6.3499999999999996
 74
0
 49
0.0
 74
0
 49
-6.3499999999999996
 74
0
  0
LTYPE
  5
38
100
AcDbSymbolTableRecord
100
AcDbLinetypeTableRecord
  2
DASHDOT2
 70
0
  3
Dash dot (.5x) _._._._._._._._._._._._._._._.
 72
65
 73
4
 40
12.6999999999999993
 49
6.3499999999999996
 74
0
 49
-3.1749999999999998
 74
0
 49
0.0
 74
0
 49
-3.1749999999999998
 74
0
  0
LTYPE
  5
39
100
AcDbSymbolTableRecord
100
AcDbLinetypeTableRecord
  2
DASHDOTX2
 70
0
  3
Dash dot (2x) ____  .  ____  .  ____  .  ___
 72
65
 73
4
 40
50.7999999999999972
 49
25.3999999999999986
 74
0
 49
-12.6999999999999993
 74
0
 49
0.0
 74
0
 49
-12.6999999999999993
 74
0
  0
LTYPE
  5
3A
100
AcDbSymbolTableRecord
100
AcDbLinetypeTableRecord
  2
DIVIDE
 70
0
  3
Divide ____ . . ____ . . ____ . . ____ . . ____
 72
65
 73
6
 40
31.75
 49
12.6999999999999993
 74
0
 49
-6.3499999999999996
 74
0
 49
0.0
 74
0
 49
-6.3499999999999996
 74
0
 49
0.0
 74
0
 49
-6.3499999999999996
 74
0
  0
LTYPE
  5
3B
100
AcDbSymbolTableRecord
100
AcDbLinetypeTableRecord
  2
DIVIDE2
 70
0
  3
Divide (.5x) __..__..__..__..__..__..__..__.._
 72
65
 73
6
 40
15.875
 49
6.3499999999999996
 74
0
 49
-3.1749999999999998
 74
0
 49
0.0
 74
0
 49
-3.1749999999999998
 74
0
 49
0.0
 74
0
 49
-3.1749999999999998
 74
0
  0
LTYPE
  5
3C
100
AcDbSymbolTableRecord
100
AcDbLinetypeTableRecord
  2
DIVIDEX2
 70
0
  3
Divide (2x) ________  .  .  ________  .  .  _
 72
65
 73
6
 40
63.5
 49
25.3999999999999986
 74
0
 49
-12.6999999999999993
 74
0
 49
0.0
 74
0
 49
-12.6999999999999993
 74
0
 49
0.0
 74
0
 49
-12.6999999999999993
 74
0
  0
LTYPE
  5
3D
100
AcDbSymbolTableRecord
100
AcDbLinetypeTableRecord
  2
CENTER
 70
0
  3
Center ____ _ ____ _ ____ _ ____ _ ____ _ ____
 72
65
 73
4
 40
50.7999999999999972
 49
31.75
 74
0
 49
-6.3499999999999996
 74
0
 49
6.3499999999999996
 74
0
 49
-6.3499999999999996
 74
0
  0
LTYPE
  5
3E
100
AcDbSymbolTableRecord
100
AcDbLinetypeTableRecord
  2
CENTER2
 70
0
  3
Center (.5x) ___ _ ___ _ ___ _ ___ _ ___ _ ___
 72
65
 73
4
 40
28.5749999999999993
 49
19.0500000000000007
 74
0
 49
-3.1749999999999998
 74
0
 49
3.1749999999999998
 74
0
 49
-3.1749999999999998
 74
0
  0
LTYPE
  5
3F
100
AcDbSymbolTableRecord
100
AcDbLinetypeTableRecord
  2
CENTERX2
 70
0
  3
Center (2x) ________  __  ________  __  _____
 72
65
 73
4
 40
101.5999999999999943
 49
63.5
 74
0
 49
-12.6999999999999993
 74
0
 49
12.6999999999999993
 74
0
 49
-12.6999999999999993
 74
0
  0
LTYPE
  5
40
100
AcDbSymbolTableRecord
100
AcDbLinetypeTableRecord
  2
BORDER
 70
0
  3
Border __ __ . __ __ . __ __ . __ __ . __ __ .
 72
65
 73
6
 40
44.4500000000000028
 49
12.6999999999999993
 74
0
 49
-6.3499999999999996
 74
0
 49
12.6999999999999993
 74
0
 49
-6.3499999999999996
 74
0
 49
0.0
 74
0
 49
-6.3499999999999996
 74
0
  0
LTYPE
  5
41
100
AcDbSymbolTableRecord
100
AcDbLinetypeTableRecord
  2
BORDER2
 70
0
  3
Border (.5x) __.__.__.__.__.__.__.__.__.__.__.
 72
65
 73
6
 40
22.2250000000000014
 49
6.3499999999999996
 74
0
 49
-3.1749999999999998
 74
0
 49
6.3499999999999996
 74
0
 49
-3.1749999999999998
 74
0
 49
0.0
 74
0
 49
-3.1749999999999998
 74
0
  0
LTYPE
  5
42
100
AcDbSymbolTableRecord
100
AcDbLinetypeTableRecord
  2
BORDERX2
 70
0
  3
Border (2x) ____  ____  .  ____  ____  .  ___
 72
65
 73
6
 40
88.9000000000000057
 49
25.3999999999999986
 74
0
 49
-12.6999999999999993
 74
0
 49
25.3999999999999986
 74
0
 49
-12.6999999999999993
 74
0
 49
0.0
 74
0
 49
-12.6999999999999993
 74
0
  0
ENDTAB
  0
TABLE
  2
LAYER
  5
2
100
AcDbSymbolTable
 70
5
  0
LAYER
  5
10
100
AcDbSymbolTableRecord
100
AcDbLayerTableRecord
  2
0
 70
4
 62
7
  6
CONTINUOUS
370
25
390
F
  0
LAYER
  5
43
100
AcDbSymbolTableRecord
100
AcDbLayerTableRecord
  2
Facia
 70
4
 62
7
  6
CONTINUOUS
370
25
390
F
  0
LAYER
  5
44
100
AcDbSymbolTableRecord
100
AcDbLayerTableRecord
  2
Chassis
 70
4
 62
1
  6
DASHED
370
25
390
F
  0
LAYER
  5
45
100
AcDbSymbolTableRecord
100
AcDbLayerTableRecord
  2
Fittings
 70
4
 62
3
  6
CONTINUOUS
370
25
390
F
  0
LAYER
  5
46
100
AcDbSymbolTableRecord
100
AcDbLayerTableRecord
  2
Dimensions
 70
4
 62
5
  6
CONTINUOUS
370
25
390
F
  0
ENDTAB
  0
TABLE
  2
STYLE
  5
3
100
AcDbSymbolTable
 70
1
  0
STYLE
  5
11
100
AcDbSymbolTableRecord
100
AcDbTextStyleTableRecord
  2
Standard
 70
0
 40
0.0
 41
1.0
 50
0.0
 71
0
 42
2.5
  3
txt
  4

  0
ENDTAB
  0
TABLE
  2
VIEW
  5
6
100
AcDbSymbolTable
 70
0
  0
ENDTAB
  0
TABLE
  2
UCS
  5
7
100
AcDbSymbolTable
 70
0
  0
ENDTAB
  0
TABLE
  2
APPID
  5
9
100
AcDbSymbolTable
 70
1
  0
APPID
  5
12
100
AcDbSymbolTableRecord
100
AcDbRegAppTableRecord
  2
ACAD
 70
0
  0
ENDTAB
  0
TABLE
  2
DIMSTYLE
  5
A
100
AcDbSymbolTable
 70
1
100
AcDbDimStyleTable
 71
0
  0
DIMSTYLE
105
27
100
AcDbSymbolTableRecord
100
AcDbDimStyleTableRecord
  2
Standard
 41
2.5
 42
0.625
 43
3.75
 44
1.25
 70
0
 73
0
 74
0
 77
1
 78
8
140
2.5
141
2.5
143
0.03937007874016
147
0.625
171
3
172
1
271
2
272
2
274
3
278
44
283
0
284
8
340
11
  0
ENDTAB
  0
TABLE
  2
BLOCK_RECORD
  5
1
100
AcDbSymbolTable
 70
1
  0
BLOCK_RECORD
  5
1F
100
AcDbSymbolTableRecord
100
AcDbBlockTableRecord
  2
*Model_Space
340
22
  0
BLOCK_RECORD
  5
1B
100
AcDbSymbolTableRecord
100
AcDbBlockTableRecord
  2
*Paper_Space
340
1E
  0
BLOCK_RECORD
  5
23
100
AcDbSymbolTableRecord
100
AcDbBlockTableRecord
  2
*Paper_Space0
340
26
  0
ENDTAB
  0
ENDSEC
  0
SECTION
  2
BLOCKS
  0
BLOCK
  5
20
100
AcDbEntity
  8
0
100
AcDbBlockBegin
  2
*Model_Space
 70
0
 10
0.0
 20
0.0
 30
0.0
  3
*Model_Space
  1

  0
ENDBLK
  5
21
100
AcDbEntity
  8
0
100
AcDbBlockEnd
  0
BLOCK
  5
1C
100
AcDbEntity
 67
1
  8
0
100
AcDbBlockBegin
  2
*Paper_Space
 70
0
 10
0.0
 20
0.0
 30
0.0
  3
*Paper_Space
  1

  0
ENDBLK
  5
1D
100
AcDbEntity
 67
1
  8
0
100
AcDbBlockEnd
  0
BLOCK
  5
24
100
AcDbEntity
  8
0
100
AcDbBlockBegin
  2
*Paper_Space0
 70
0
 10
0.0
 20
0.0
 30
0.0
  3
*Paper_Space0
  1

  0
ENDBLK
  5
25
100
AcDbEntity
  8
0
100
AcDbBlockEnd
  0
ENDSEC
  0
SECTION
  2
ENTITIES
  0
LINE
  5
47
100
AcDbEntity
100
AcDbLine
  8
0
 62
256
370
-1
  6
ByLayer
 10
1000.0
 20
520.0
 30
0.0
 11
100.0
 21
520.0
 31
0.0
  0
LINE
  5
48
100
AcDbEntity
100
AcDbLine
  8
0
 62
256
370
-1
  6
ByLayer
 10
1000.0
 20
-730.0
 30
0.0
 11
100.0
 21
-730.0
 31
0.0
  0
LINE
  5
49
100
AcDbEntity
100
AcDbLine
  8
0
 62
256
370
-1
  6
ByLayer
 10
109.0
 20
-112.0
 30
0.0
 11
109.0
 21
-721.0
 31
0.0
  0
LINE
  5
4A
100
AcDbEntity
100
AcDbLine
  8
0
 62
256
370
-1
  6
ByLayer
 10
990.0
 20
-112.0
 30
0.0
 11
990.0
 21
-721.0
 31
0.0
  0
LINE
  5
4B
100
AcDbEntity
100
AcDbLine
  8
0
 62
256
370
-1
  6
ByLayer
 10
640.0
 20
-112.0
 30
0.0
 11
640.0
 21
-721.0
 31
0.0
  0
LINE
  5
4C
100
AcDbEntity
100
AcDbLine
  8
0
 62
256
370
-1
  6
ByLayer
 10
649.0
 20
-112.0
 30
0.0
 11
649.0
 21
-721.0
 31
0.0
  0
ARC
  5
4D
100
AcDbEntity
  8
0
 62
256
370
-1
  6
ByLayer
100
AcDbCircle
 10
328.0
 20
-690.0
 30
0.0
 40
30.0
100
AcDbArc
 50
270.0
 51
0.0
  0
LINE
  5
4E
100
AcDbEntity
100
AcDbLine
  8
0
 62
256
370
-1
  6
ByLayer
 10
358.0
 20
-143.0
 30
0.0
 11
358.0
 21
-690.0
 31
0.0
  0
ARC
  5
4F
100
AcDbEntity
  8
0
 62
256
370
-1
  6
ByLayer
100
AcDbCircle
 10
328.0
 20
-143.0
 30
0.0
 40
30.0
100
AcDbArc
 50
0.0
 51
90.0
  0
LINE
  5
50
100
AcDbEntity
100
AcDbLine
  8
0
 62
256
370
-1
  6
ByLayer
 10
170.0
 20
-113.0
 30
0.0
 11
328.0
 21
-113.0
 31
0.0
  0
ARC
  5
51
100
AcDbEntity
  8
0
 62
256
370
-1
  6
ByLayer
100
AcDbCircle
 10
170.0
 20
-143.0
 30
0.0
 40
30.0
100
AcDbArc
 50
90.0
 51
180.0
  0
LINE
  5
52
100
AcDbEntity
100
AcDbLine
  8
0
 62
256
370
-1
  6
ByLayer
 10
328.0
 20
-720.0
 30
0.0
 11
170.0
 21
-720.0
 31
0.0
  0
LINE
  5
53
100
AcDbEntity
100
AcDbLine
  8
0
 62
256
370
-1
  6
ByLayer
 10
140.0
 20
-690.0
 30
0.0
 11
140.0
 21
-143.0
 31
0.0
  0
ARC
  5
54
100
AcDbEntity
  8
0
 62
256
370
-1
  6
ByLayer
100
AcDbCircle
 10
170.0
 20
-690.0
 30
0.0
 40
30.0
100
AcDbArc
 50
180.0
 51
270.0
  0
ARC
  5
55
100
AcDbEntity
  8
0
 62
256
370
-1
  6
ByLayer
100
AcDbCircle
 10
421.0
 20
-143.0
 30
0.0
 40
30.0
100
AcDbArc
 50
90.0
 51
180.0
  0
LINE
  5
56
100
AcDbEntity
100
AcDbLine
  8
0
 62
256
370
-1
  6
ByLayer
 10
579.0
 20
-113.0
 30
0.0
 11
421.0
 21
-113.0
 31
0.0
  0
ARC
  5
57
100
AcDbEntity
  8
0
 62
256
370
-1
  6
ByLayer
100
AcDbCircle
 10
579.0
 20
-143.0
 30
0.0
 40
30.0
100
AcDbArc
 50
0.0
 51
90.0
  0
LINE
  5
58
100
AcDbEntity
100
AcDbLine
  8
0
 62
256
370
-1
  6
ByLayer
 10
609.0
 20
-690.0
 30
0.0
 11
609.0
 21
-143.0
 31
0.0
  0
ARC
  5
59
100
AcDbEntity
  8
0
 62
256
370
-1
  6
ByLayer
100
AcDbCircle
 10
579.0
 20
-690.0
 30
0.0
 40
30.0
100
AcDbArc
 50
270.0
 51
0.0
  0
LINE
  5
5A
100
AcDbEntity
100
AcDbLine
  8
0
 62
256
370
-1
  6
ByLayer
 10
391.0
 20
-143.0
 30
0.0
 11
391.0
 21
-690.0
 31
0.0
  0
LINE
  5
5B
100
AcDbEntity
100
AcDbLine
  8
0
 62
256
370
-1
  6
ByLayer
 10
421.0
 20
-720.0
 30
0.0
 11
579.0
 21
-720.0
 31
0.0
  0
ARC
  5
5C
100
AcDbEntity
  8
0
 62
256
370
-1
  6
ByLayer
100
AcDbCircle
 10
421.0
 20
-690.0
 30
0.0
 40
30.0
100
AcDbArc
 50
180.0
 51
270.0
  0
LINE
  5
5D
100
AcDbEntity
100
AcDbLine
  8
Facia
 62
256
370
-1
  6
ByLayer
 10
109.0
 20
-112.0
 30
0.0
 11
139.0
 21
-112.0
 31
0.0
  0
LINE
  5
5E
100
AcDbEntity
100
AcDbLine
  8
Facia
 62
256
370
-1
  6
ByLayer
 10
139.0
 20
-721.0
 30
0.0
 11
109.0
 21
-721.0
 31
0.0
  0
LINE
  5
5F
100
AcDbEntity
100
AcDbLine
  8
Facia
 62
256
370
-1
  6
ByLayer
 10
109.0
 20
-721.0
 30
0.0
 11
109.0
 21
-112.0
 31
0.0
  0
ARC
  5
60
100
AcDbEntity
  8
Facia
 62
256
370
-1
  6
ByLayer
100
AcDbCircle
 10
169.0
 20
-142.0
 30
0.0
 40
30.0
100
AcDbArc
 50
90.0
 51
180.0
  0
LINE
  5
61
100
AcDbEntity
100
AcDbLine
  8
0
 62
256
370
-1
  6
ByLayer
 10
169.0
 20
-112.0
 30
0.0
 11
109.0
 21
-112.0
 31
0.0
  0
LINE
  5
62
100
AcDbEntity
100
AcDbLine
  8
Facia
 62
256
370
-1
  6
ByLayer
 10
139.0
 20
-142.0
 30
0.0
 11
139.0
 21
-691.0
 31
0.0
  0
ARC
  5
63
100
AcDbEntity
  8
Facia
 62
256
370
-1
  6
ByLayer
100
AcDbCircle
 10
169.0
 20
-691.0
 30
0.0
 40
30.0
100
AcDbArc
 50
180.0
 51
270.0
  0
LINE
  5
64
100
AcDbEntity
100
AcDbLine
  8
0
 62
256
370
-1
  6
ByLayer
 10
169.0
 20
-721.0
 30
0.0
 11
109.0
 21
-721.0
 31
0.0
  0
LINE
  5
65
100
AcDbEntity
100
AcDbLine
  8
Facia
 62
256
370
-1
  6
ByLayer
 10
359.0
 20
-112.0
 30
0.0
 11
390.0
 21
-112.0
 31
0.0
  0
LINE
  5
66
100
AcDbEntity
100
AcDbLine
  8
Facia
 62
256
370
-1
  6
ByLayer
 10
390.0
 20
-721.0
 30
0.0
 11
359.0
 21
-721.0
 31
0.0
  0
LINE
  5
67
100
AcDbEntity
100
AcDbLine
  8
0
 62
256
370
-1
  6
ByLayer
 10
169.0
 20
-112.0
 30
0.0
 11
329.0
 21
-112.0
 31
0.0
  0
ARC
  5
68
100
AcDbEntity
  8
Facia
 62
256
370
-1
  6
ByLayer
100
AcDbCircle
 10
329.0
 20
-142.0
 30
0.0
 40
30.0
100
AcDbArc
 50
0.0
 51
90.0
  0
ARC
  5
69
100
AcDbEntity
  8
Facia
 62
256
370
-1
  6
ByLayer
100
AcDbCircle
 10
420.0
 20
-142.0
 30
0.0
 40
30.0
100
AcDbArc
 50
90.0
 51
180.0
  0
LINE
  5
6A
100
AcDbEntity
100
AcDbLine
  8
Facia
 62
256
370
-1
  6
ByLayer
 10
421.0
 20
-112.0
 30
0.0
 11
329.0
 21
-112.0
 31
0.0
  0
LINE
  5
6B
100
AcDbEntity
100
AcDbLine
  8
Facia
 62
256
370
-1
  6
ByLayer
 10
359.0
 20
-691.0
 30
0.0
 11
359.0
 21
-142.0
 31
0.0
  0
LINE
  5
6C
100
AcDbEntity
100
AcDbLine
  8
0
 62
256
370
-1
  6
ByLayer
 10
169.0
 20
-721.0
 30
0.0
 11
329.0
 21
-721.0
 31
0.0
  0
ARC
  5
6D
100
AcDbEntity
  8
Facia
 62
256
370
-1
  6
ByLayer
100
AcDbCircle
 10
329.0
 20
-691.0
 30
0.0
 40
30.0
100
AcDbArc
 50
270.0
 51
0.0
  0
LINE
  5
6E
100
AcDbEntity
100
AcDbLine
  8
Facia
 62
256
370
-1
  6
ByLayer
 10
390.0
 20
-142.0
 30
0.0
 11
390.0
 21
-691.0
 31
0.0
  0
ARC
  5
6F
100
AcDbEntity
  8
Facia
 62
256
370
-1
  6
ByLayer
100
AcDbCircle
 10
420.0
 20
-691.0
 30
0.0
 40
30.0
100
AcDbArc
 50
180.0
 51
270.0
  0
LINE
  5
70
100
AcDbEntity
100
AcDbLine
  8
Facia
 62
256
370
-1
  6
ByLayer
 10
420.0
 20
-721.0
 30
0.0
 11
329.0
 21
-721.0
 31
0.0
  0
LINE
  5
71
100
AcDbEntity
100
AcDbLine
  8
0
 62
256
370
-1
  6
ByLayer
 10
109.0
 20
-721.0
 30
0.0
 11
100.0
 21
-721.0
 31
0.0
  0
LINE
  5
72
100
AcDbEntity
100
AcDbLine
  8
0
 62
256
370
-1
  6
ByLayer
 10
109.0
 20
-112.0
 30
0.0
 11
100.0
 21
-112.0
 31
0.0
  0
LINE
  5
73
100
AcDbEntity
100
AcDbLine
  8
Facia
 62
256
370
-1
  6
ByLayer
 10
990.0
 20
-112.0
 30
0.0
 11
990.0
 21
-721.0
 31
0.0
  0
LINE
  5
74
100
AcDbEntity
100
AcDbLine
  8
Facia
 62
256
370
-1
  6
ByLayer
 10
580.0
 20
-721.0
 30
0.0
 11
420.0
 21
-721.0
 31
0.0
  0
ARC
  5
75
100
AcDbEntity
  8
Facia
 62
256
370
-1
  6
ByLayer
100
AcDbCircle
 10
580.0
 20
-691.0
 30
0.0
 40
30.0
100
AcDbArc
 50
270.0
 51
0.0
  0
LINE
  5
76
100
AcDbEntity
100
AcDbLine
  8
Facia
 62
256
370
-1
  6
ByLayer
 10
610.0
 20
-691.0
 30
0.0
 11
610.0
 21
-142.0
 31
0.0
  0
LINE
  5
77
100
AcDbEntity
100
AcDbLine
  8
Facia
 62
256
370
-1
  6
ByLayer
 10
580.0
 20
-112.0
 30
0.0
 11
420.0
 21
-112.0
 31
0.0
  0
ARC
  5
78
100
AcDbEntity
  8
Facia
 62
256
370
-1
  6
ByLayer
100
AcDbCircle
 10
580.0
 20
-142.0
 30
0.0
 40
30.0
100
AcDbArc
 50
0.0
 51
90.0
  0
LINE
  5
79
100
AcDbEntity
100
AcDbLine
  8
Facia
 62
256
370
-1
  6
ByLayer
 10
581.0
 20
-112.0
 30
0.0
 11
611.0
 21
-112.0
 31
0.0
  0
LINE
  5
7A
100
AcDbEntity
100
AcDbLine
  8
Facia
 62
256
370
-1
  6
ByLayer
 10
610.0
 20
-721.0
 30
0.0
 11
581.0
 21
-721.0
 31
0.0
  0
LINE
  5
7B
100
AcDbEntity
100
AcDbLine
  8
Facia
 62
256
370
-1
  6
ByLayer
 10
990.0
 20
-113.0
 30
0.0
 11
990.0
 21
-720.0
 31
0.0
  0
LINE
  5
7C
100
AcDbEntity
100
AcDbLine
  8
Facia
 62
256
370
-1
  6
ByLayer
 10
990.0
 20
-720.0
 30
0.0
 11
710.0
 21
-720.0
 31
0.0
  0
ARC
  5
7D
100
AcDbEntity
  8
Facia
 62
256
370
-1
  6
ByLayer
100
AcDbCircle
 10
710.0
 20
-690.0
 30
0.0
 40
30.0
100
AcDbArc
 50
180.0
 51
270.0
  0
LINE
  5
7E
100
AcDbEntity
100
AcDbLine
  8
Facia
 62
256
370
-1
  6
ByLayer
 10
680.0
 20
-690.0
 30
0.0
 11
680.0
 21
-143.0
 31
0.0
  0
LINE
  5
7F
100
AcDbEntity
100
AcDbLine
  8
Facia
 62
256
370
-1
  6
ByLayer
 10
710.0
 20
-113.0
 30
0.0
 11
990.0
 21
-113.0
 31
0.0
  0
ARC
  5
80
100
AcDbEntity
  8
Facia
 62
256
370
-1
  6
ByLayer
100
AcDbCircle
 10
710.0
 20
-143.0
 30
0.0
 40
30.0
100
AcDbArc
 50
90.0
 51
180.0
  0
LINE
  5
81
100
AcDbEntity
100
AcDbLine
  8
Facia
 62
256
370
-1
  6
ByLayer
 10
990.0
 20
-721.0
 30
0.0
 11
709.0
 21
-721.0
 31
0.0
  0
ARC
  5
82
100
AcDbEntity
  8
Facia
 62
256
370
-1
  6
ByLayer
100
AcDbCircle
 10
709.0
 20
-691.0
 30
0.0
 40
30.0
100
AcDbArc
 50
180.0
 51
270.0
  0
LINE
  5
83
100
AcDbEntity
100
AcDbLine
  8
Facia
 62
256
370
-1
  6
ByLayer
 10
679.0
 20
-142.0
 30
0.0
 11
679.0
 21
-691.0
 31
0.0
  0
LINE
  5
84
100
AcDbEntity
100
AcDbLine
  8
Facia
 62
256
370
-1
  6
ByLayer
 10
709.0
 20
-112.0
 30
0.0
 11
990.0
 21
-112.0
 31
0.0
  0
ARC
  5
85
100
AcDbEntity
  8
Facia
 62
256
370
-1
  6
ByLayer
100
AcDbCircle
 10
709.0
 20
-142.0
 30
0.0
 40
30.0
100
AcDbArc
 50
90.0
 51
180.0
  0
LINE
  5
86
100
AcDbEntity
100
AcDbLine
  8
Facia
 62
256
370
-1
  6
ByLayer
 10
707.0
 20
-112.0
 30
0.0
 11
611.0
 21
-112.0
 31
0.0
  0
LINE
  5
87
100
AcDbEntity
100
AcDbLine
  8
Facia
 62
256
370
-1
  6
ByLayer
 10
610.0
 20
-721.0
 30
0.0
 11
708.0
 21
-721.0
 31
0.0
  0
LINE
  5
88
100
AcDbEntity
100
AcDbLine
  8
Chassis
 62
256
370
-1
  6
ByLayer
 10
170.0
 20
-720.0
 30
0.0
 11
190.0
 21
-720.0
 31
0.0
  0
LINE
  5
89
100
AcDbEntity
100
AcDbLine
  8
Chassis
 62
256
370
-1
  6
ByLayer
 10
190.0
 20
-720.0
 30
0.0
 11
190.0
 21
-113.0
 31
0.0
  0
LINE
  5
8A
100
AcDbEntity
100
AcDbLine
  8
Chassis
 62
256
370
-1
  6
ByLayer
 10
190.0
 20
-113.0
 30
0.0
 11
170.0
 21
-113.0
 31
0.0
  0
LINE
  5
8B
100
AcDbEntity
100
AcDbLine
  8
Chassis
 62
256
370
-1
  6
ByLayer
 10
170.0
 20
-113.0
 30
0.0
 11
170.0
 21
-720.0
 31
0.0
  0
LINE
  5
8C
100
AcDbEntity
100
AcDbLine
  8
Chassis
 62
256
370
-1
  6
ByLayer
 10
109.0
 20
-112.0
 30
0.0
 11
129.0
 21
-112.0
 31
0.0
  0
LINE
  5
8D
100
AcDbEntity
100
AcDbLine
  8
Chassis
 62
256
370
-1
  6
ByLayer
 10
129.0
 20
-112.0
 30
0.0
 11
129.0
 21
-721.0
 31
0.0
  0
LINE
  5
8E
100
AcDbEntity
100
AcDbLine
  8
Chassis
 62
256
370
-1
  6
ByLayer
 10
129.0
 20
-721.0
 30
0.0
 11
109.0
 21
-721.0
 31
0.0
  0
LINE
  5
8F
100
AcDbEntity
100
AcDbLine
  8
Chassis
 62
256
370
-1
  6
ByLayer
 10
109.0
 20
-721.0
 30
0.0
 11
109.0
 21
-112.0
 31
0.0
  0
LINE
  5
90
100
AcDbEntity
100
AcDbLine
  8
Chassis
 62
256
370
-1
  6
ByLayer
 10
385.0
 20
-721.0
 30
0.0
 11
365.0
 21
-721.0
 31
0.0
  0
LINE
  5
91
100
AcDbEntity
100
AcDbLine
  8
Chassis
 62
256
370
-1
  6
ByLayer
 10
365.0
 20
-721.0
 30
0.0
 11
365.0
 21
-112.0
 31
0.0
  0
LINE
  5
92
100
AcDbEntity
100
AcDbLine
  8
Chassis
 62
256
370
-1
  6
ByLayer
 10
365.0
 20
-112.0
 30
0.0
 11
385.0
 21
-112.0
 31
0.0
  0
LINE
  5
93
100
AcDbEntity
100
AcDbLine
  8
Chassis
 62
256
370
-1
  6
ByLayer
 10
385.0
 20
-112.0
 30
0.0
 11
385.0
 21
-721.0
 31
0.0
  0
LINE
  5
94
100
AcDbEntity
100
AcDbLine
  8
Chassis
 62
256
370
-1
  6
ByLayer
 10
640.0
 20
-112.0
 30
0.0
 11
620.0
 21
-112.0
 31
0.0
  0
LINE
  5
95
100
AcDbEntity
100
AcDbLine
  8
Chassis
 62
256
370
-1
  6
ByLayer
 10
620.0
 20
-112.0
 30
0.0
 11
620.0
 21
-721.0
 31
0.0
  0
LINE
  5
96
100
AcDbEntity
100
AcDbLine
  8
Chassis
 62
256
370
-1
  6
ByLayer
 10
620.0
 20
-721.0
 30
0.0
 11
640.0
 21
-721.0
 31
0.0
  0
LINE
  5
97
100
AcDbEntity
100
AcDbLine
  8
Chassis
 62
256
370
-1
  6
ByLayer
 10
640.0
 20
-721.0
 30
0.0
 11
640.0
 21
-112.0
 31
0.0
  0
LINE
  5
98
100
AcDbEntity
100
AcDbLine
  8
Chassis
 62
256
370
-1
  6
ByLayer
 10
649.0
 20
-721.0
 30
0.0
 11
669.0
 21
-721.0
 31
0.0
  0
LINE
  5
99
100
AcDbEntity
100
AcDbLine
  8
Chassis
 62
256
370
-1
  6
ByLayer
 10
669.0
 20
-721.0
 30
0.0
 11
669.0
 21
-112.0
 31
0.0
  0
LINE
  5
9A
100
AcDbEntity
100
AcDbLine
  8
Chassis
 62
256
370
-1
  6
ByLayer
 10
669.0
 20
-112.0
 30
0.0
 11
649.0
 21
-112.0
 31
0.0
  0
LINE
  5
9B
100
AcDbEntity
100
AcDbLine
  8
Chassis
 62
256
370
-1
  6
ByLayer
 10
649.0
 20
-112.0
 30
0.0
 11
649.0
 21
-721.0
 31
0.0
  0
LINE
  5
9C
100
AcDbEntity
100
AcDbLine
  8
Chassis
 62
256
370
-1
  6
ByLayer
 10
580.0
 20
-113.0
 30
0.0
 11
560.0
 21
-113.0
 31
0.0
  0
LINE
  5
9D
100
AcDbEntity
100
AcDbLine
  8
Chassis
 62
256
370
-1
  6
ByLayer
 10
560.0
 20
-113.0
 30
0.0
 11
560.0
 21
-720.0
 31
0.0
  0
LINE
  5
9E
100
AcDbEntity
100
AcDbLine
  8
Chassis
 62
256
370
-1
  6
ByLayer
 10
560.0
 20
-720.0
 30
0.0
 11
580.0
 21
-720.0
 31
0.0
  0
LINE
  5
9F
100
AcDbEntity
100
AcDbLine
  8
Chassis
 62
256
370
-1
  6
ByLayer
 10
580.0
 20
-720.0
 30
0.0
 11
580.0
 21
-113.0
 31
0.0
  0
LINE
  5
A0
100
AcDbEntity
100
AcDbLine
  8
Chassis
 62
256
370
-1
  6
ByLayer
 10
710.0
 20
-113.0
 30
0.0
 11
730.0
 21
-113.0
 31
0.0
  0
LINE
  5
A1
100
AcDbEntity
100
AcDbLine
  8
Chassis
 62
256
370
-1
  6
ByLayer
 10
730.0
 20
-113.0
 30
0.0
 11
730.0
 21
-720.0
 31
0.0
  0
LINE
  5
A2
100
AcDbEntity
100
AcDbLine
  8
Chassis
 62
256
370
-1
  6
ByLayer
 10
730.0
 20
-720.0
 30
0.0
 11
710.0
 21
-720.0
 31
0.0
  0
LINE
  5
A3
100
AcDbEntity
100
AcDbLine
  8
Chassis
 62
256
370
-1
  6
ByLayer
 10
710.0
 20
-720.0
 30
0.0
 11
710.0
 21
-113.0
 31
0.0
  0
LINE
  5
A4
100
AcDbEntity
100
AcDbLine
  8
Fittings
 62
256
370
-1
  6
ByLayer
 10
177.0
 20
-125.0
 30
0.0
 11
183.0
 21
-125.0
 31
0.0
  0
LINE
  5
A5
100
AcDbEntity
100
AcDbLine
  8
Fittings
 62
256
370
-1
  6
ByLayer
 10
183.0
 20
-125.0
 30
0.0
 11
183.0
 21
-106.0
 31
0.0
  0
LINE
  5
A6
100
AcDbEntity
100
AcDbLine
  8
Fittings
 62
256
370
-1
  6
ByLayer
 10
183.0
 20
-106.0
 30
0.0
 11
177.0
 21
-106.0
 31
0.0
  0
LINE
  5
A7
100
AcDbEntity
100
AcDbLine
  8
Fittings
 62
256
370
-1
  6
ByLayer
 10
177.0
 20
-106.0
 30
0.0
 11
177.0
 21
-125.0
 31
0.0
  0
LINE
  5
A8
100
AcDbEntity
100
AcDbLine
  8
Fittings
 62
256
370
-1
  6
ByLayer
 10
177.0
 20
-727.0
 30
0.0
 11
183.0
 21
-727.0
 31
0.0
  0
LINE
  5
A9
100
AcDbEntity
100
AcDbLine
  8
Fittings
 62
256
370
-1
  6
ByLayer
 10
183.0
 20
-727.0
 30
0.0
 11
183.0
 21
-708.0
 31
0.0
  0
LINE
  5
AA
100
AcDbEntity
100
AcDbLine
  8
Fittings
 62
256
370
-1
  6
ByLayer
 10
183.0
 20
-708.0
 30
0.0
 11
177.0
 21
-708.0
 31
0.0
  0
LINE
  5
AB
100
AcDbEntity
100
AcDbLine
  8
Fittings
 62
256
370
-1
  6
ByLayer
 10
177.0
 20
-708.0
 30
0.0
 11
177.0
 21
-727.0
 31
0.0
  0
LINE
  5
AC
100
AcDbEntity
100
AcDbLine
  8
Fittings
 62
256
370
-1
  6
ByLayer
 10
567.0
 20
-727.0
 30
0.0
 11
573.0
 21
-727.0
 31
0.0
  0
LINE
  5
AD
100
AcDbEntity
100
AcDbLine
  8
Fittings
 62
256
370
-1
  6
ByLayer
 10
573.0
 20
-727.0
 30
0.0
 11
573.0
 21
-708.0
 31
0.0
  0
LINE
  5
AE
100
AcDbEntity
100
AcDbLine
  8
Fittings
 62
256
370
-1
  6
ByLayer
 10
573.0
 20
-708.0
 30
0.0
 11
567.0
 21
-708.0
 31
0.0
  0
LINE
  5
AF
100
AcDbEntity
100
AcDbLine
  8
Fittings
 62
256
370
-1
  6
ByLayer
 10
567.0
 20
-708.0
 30
0.0
 11
567.0
 21
-727.0
 31
0.0
  0
LINE
  5
B0
100
AcDbEntity
100
AcDbLine
  8
Fittings
 62
256
370
-1
  6
ByLayer
 10
573.0
 20
-106.0
 30
0.0
 11
567.0
 21
-106.0
 31
0.0
  0
LINE
  5
B1
100
AcDbEntity
100
AcDbLine
  8
Fittings
 62
256
370
-1
  6
ByLayer
 10
567.0
 20
-106.0
 30
0.0
 11
567.0
 21
-125.0
 31
0.0
  0
LINE
  5
B2
100
AcDbEntity
100
AcDbLine
  8
Fittings
 62
256
370
-1
  6
ByLayer
 10
567.0
 20
-125.0
 30
0.0
 11
573.0
 21
-125.0
 31
0.0
  0
LINE
  5
B3
100
AcDbEntity
100
AcDbLine
  8
Fittings
 62
256
370
-1
  6
ByLayer
 10
573.0
 20
-125.0
 30
0.0
 11
573.0
 21
-106.0
 31
0.0
  0
LINE
  5
B4
100
AcDbEntity
100
AcDbLine
  8
Fittings
 62
256
370
-1
  6
ByLayer
 10
723.0
 20
-708.0
 30
0.0
 11
717.0
 21
-708.0
 31
0.0
  0
LINE
  5
B5
100
AcDbEntity
100
AcDbLine
  8
Fittings
 62
256
370
-1
  6
ByLayer
 10
717.0
 20
-708.0
 30
0.0
 11
717.0
 21
-727.0
 31
0.0
  0
LINE
  5
B6
100
AcDbEntity
100
AcDbLine
  8
Fittings
 62
256
370
-1
  6
ByLayer
 10
717.0
 20
-727.0
 30
0.0
 11
723.0
 21
-727.0
 31
0.0
  0
LINE
  5
B7
100
AcDbEntity
100
AcDbLine
  8
Fittings
 62
256
370
-1
  6
ByLayer
 10
723.0
 20
-727.0
 30
0.0
 11
723.0
 21
-708.0
 31
0.0
  0
LINE
  5
B8
100
AcDbEntity
100
AcDbLine
  8
Fittings
 62
256
370
-1
  6
ByLayer
 10
723.0
 20
-106.0
 30
0.0
 11
717.0
 21
-106.0
 31
0.0
  0
LINE
  5
B9
100
AcDbEntity
100
AcDbLine
  8
Fittings
 62
256
370
-1
  6
ByLayer
 10
717.0
 20
-106.0
 30
0.0
 11
717.0
 21
-125.0
 31
0.0
  0
LINE
  5
BA
100
AcDbEntity
100
AcDbLine
  8
Fittings
 62
256
370
-1
  6
ByLayer
 10
717.0
 20
-125.0
 30
0.0
 11
723.0
 21
-125.0
 31
0.0
  0
LINE
  5
BB
100
AcDbEntity
100
AcDbLine
  8
Fittings
 62
256
370
-1
  6
ByLayer
 10
723.0
 20
-125.0
 30
0.0
 11
723.0
 21
-106.0
 31
0.0
  0
CIRCLE
  5
BC
100
AcDbEntity
100
AcDbCircle
  8
Fittings
 62
256
370
-1
  6
ByLayer
 10
305.0
 20
-350.0
 30
0.0
 40
15.0
  0
ARC
  5
BD
100
AcDbEntity
  8
Fittings
 62
256
370
-1
  6
ByLayer
100
AcDbCircle
 10
362.5
 20
-347.5
 30
0.0
 40
2.5
100
AcDbArc
 50
0.0
 51
90.0
  0
LINE
  5
BE
100
AcDbEntity
100
AcDbLine
  8
Fittings
 62
256
370
-1
  6
ByLayer
 10
365.0
 20
-352.5
 30
0.0
 11
365.0
 21
-347.5
 31
0.0
  0
ARC
  5
BF
100
AcDbEntity
  8
Fittings
 62
256
370
-1
  6
ByLayer
100
AcDbCircle
 10
362.5
 20
-352.5
 30
0.0
 40
2.5
100
AcDbArc
 50
270.0
 51
0.0
  0
LINE
  5
C0
100
AcDbEntity
100
AcDbLine
  8
Fittings
 62
256
370
-1
  6
ByLayer
 10
362.5
 20
-345.0
 30
0.0
 11
340.7071421427142468
 21
-345.0
 31
0.0
  0
ARC
  5
C1
100
AcDbEntity
  8
Fittings
 62
256
370
-1
  6
ByLayer
100
AcDbCircle
 10
340.7071421427142468
 20
-315.0
 30
0.0
 40
30.0
100
AcDbArc
 50
224.427004000805681
 51
270.0
  0
LINE
  5
C2
100
AcDbEntity
100
AcDbLine
  8
Fittings
 62
256
370
-1
  6
ByLayer
 10
340.7071421427142468
 20
-355.0
 30
0.0
 11
362.5
 21
-355.0
 31
0.0
  0
ARC
  5
C3
100
AcDbEntity
  8
Fittings
 62
256
370
-1
  6
ByLayer
100
AcDbCircle
 10
354.0
 20
-350.0
 30
0.0
 40
2.0
100
AcDbArc
 50
0.0
 51
90.0
  0
ARC
  5
C4
100
AcDbEntity
  8
Fittings
 62
256
370
-1
  6
ByLayer
100
AcDbCircle
 10
354.0
 20
-350.0
 30
0.0
 40
2.0
100
AcDbArc
 50
270.0
 51
0.0
  0
LINE
  5
C5
100
AcDbEntity
100
AcDbLine
  8
Fittings
 62
256
370
-1
  6
ByLayer
 10
354.0
 20
-352.0
 30
0.0
 11
350.0
 21
-352.0
 31
0.0
  0
ARC
  5
C6
100
AcDbEntity
  8
Fittings
 62
256
370
-1
  6
ByLayer
100
AcDbCircle
 10
350.0
 20
-350.0
 30
0.0
 40
2.0
100
AcDbArc
 50
180.0
 51
270.0
  0
LINE
  5
C7
100
AcDbEntity
100
AcDbLine
  8
Fittings
 62
256
370
-1
  6
ByLayer
 10
350.0
 20
-348.0
 30
0.0
 11
354.0
 21
-348.0
 31
0.0
  0
ARC
  5
C8
100
AcDbEntity
  8
Fittings
 62
256
370
-1
  6
ByLayer
100
AcDbCircle
 10
350.0
 20
-350.0
 30
0.0
 40
2.0
100
AcDbArc
 50
90.0
 51
180.0
  0
ARC
  5
C9
100
AcDbEntity
  8
Fittings
 62
256
370
-1
  6
ByLayer
100
AcDbCircle
 10
340.7071421427142468
 20
-385.0
 30
0.0
 40
30.0
100
AcDbArc
 50
90.0
 51
135.5729955060272403
  0
LINE
  5
CA
100
AcDbEntity
100
AcDbLine
  8
Fittings
 62
256
370
-1
  6
ByLayer
 10
315.0
 20
-331.0
 30
0.0
 11
295.0
 21
-331.0
 31
0.0
  0
LINE
  5
CB
100
AcDbEntity
100
AcDbLine
  8
Fittings
 62
256
370
-1
  6
ByLayer
 10
315.0
 20
-369.0
 30
0.0
 11
295.0
 21
-369.0
 31
0.0
  0
LINE
  5
CC
100
AcDbEntity
100
AcDbLine
  8
Fittings
 62
256
370
-1
  6
ByLayer
 10
315.0
 20
-331.0
 30
0.0
 11
319.0
 21
-336.0
 31
0.0
  0
LINE
  5
CD
100
AcDbEntity
100
AcDbLine
  8
Fittings
 62
256
370
-1
  6
ByLayer
 10
319.0
 20
-364.0
 30
0.0
 11
315.0
 21
-369.0
 31
0.0
  0
ARC
  5
CE
100
AcDbEntity
  8
Fittings
 62
256
370
-1
  6
ByLayer
100
AcDbCircle
 10
328.0
 20
-350.0
 30
0.0
 40
2.0
100
AcDbArc
 50
0.0
 51
90.0
  0
ARC
  5
CF
100
AcDbEntity
  8
Fittings
 62
256
370
-1
  6
ByLayer
100
AcDbCircle
 10
328.0
 20
-350.0
 30
0.0
 40
2.0
100
AcDbArc
 50
270.0
 51
0.0
  0
LINE
  5
D0
100
AcDbEntity
100
AcDbLine
  8
Fittings
 62
256
370
-1
  6
ByLayer
 10
328.0
 20
-352.0
 30
0.0
 11
324.0
 21
-352.0
 31
0.0
  0
ARC
  5
D1
100
AcDbEntity
  8
Fittings
 62
256
370
-1
  6
ByLayer
100
AcDbCircle
 10
324.0
 20
-350.0
 30
0.0
 40
2.0
100
AcDbArc
 50
180.0
 51
270.0
  0
LINE
  5
D2
100
AcDbEntity
100
AcDbLine
  8
Fittings
 62
256
370
-1
  6
ByLayer
 10
324.0
 20
-348.0
 30
0.0
 11
328.0
 21
-348.0
 31
0.0
  0
ARC
  5
D3
100
AcDbEntity
  8
Fittings
 62
256
370
-1
  6
ByLayer
100
AcDbCircle
 10
324.0
 20
-350.0
 30
0.0
 40
2.0
100
AcDbArc
 50
90.0
 51
180.0
  0
LINE
  5
D4
100
AcDbEntity
100
AcDbLine
  8
Fittings
 62
256
370
-1
  6
ByLayer
 10
344.0
 20
-348.0
 30
0.0
 11
344.0
 21
-352.0
 31
0.0
  0
LINE
  5
D5
100
AcDbEntity
100
AcDbLine
  8
Fittings
 62
256
370
-1
  6
ByLayer
 10
343.0
 20
-348.0
 30
0.0
 11
342.0
 21
-352.0
 31
0.0
  0
LINE
  5
D6
100
AcDbEntity
100
AcDbLine
  8
Fittings
 62
256
370
-1
  6
ByLayer
 10
342.0
 20
-348.0
 30
0.0
 11
341.0
 21
-352.0
 31
0.0
  0
LINE
  5
D7
100
AcDbEntity
100
AcDbLine
  8
Fittings
 62
256
370
-1
  6
ByLayer
 10
341.0
 20
-348.0
 30
0.0
 11
340.0
 21
-352.0
 31
0.0
  0
LINE
  5
D8
100
AcDbEntity
100
AcDbLine
  8
Fittings
 62
256
370
-1
  6
ByLayer
 10
340.0
 20
-348.0
 30
0.0
 11
339.0
 21
-352.0
 31
0.0
  0
LINE
  5
D9
100
AcDbEntity
100
AcDbLine
  8
Fittings
 62
256
370
-1
  6
ByLayer
 10
339.0
 20
-348.0
 30
0.0
 11
338.0
 21
-352.0
 31
0.0
  0
LINE
  5
DA
100
AcDbEntity
100
AcDbLine
  8
Fittings
 62
256
370
-1
  6
ByLayer
 10
338.0
 20
-348.0
 30
0.0
 11
337.0
 21
-352.0
 31
0.0
  0
LINE
  5
DB
100
AcDbEntity
100
AcDbLine
  8
Fittings
 62
256
370
-1
  6
ByLayer
 10
337.0
 20
-348.0
 30
0.0
 11
336.0
 21
-352.0
 31
0.0
  0
LINE
  5
DC
100
AcDbEntity
100
AcDbLine
  8
Fittings
 62
256
370
-1
  6
ByLayer
 10
336.0
 20
-348.0
 30
0.0
 11
335.0
 21
-352.0
 31
0.0
  0
LINE
  5
DD
100
AcDbEntity
100
AcDbLine
  8
Fittings
 62
256
370
-1
  6
ByLayer
 10
335.0
 20
-348.0
 30
0.0
 11
334.0
 21
-352.0
 31
0.0
  0
LINE
  5
DE
100
AcDbEntity
100
AcDbLine
  8
Fittings
 62
256
370
-1
  6
ByLayer
 10
334.0
 20
-348.0
 30
0.0
 11
334.0
 21
-352.0
 31
0.0
  0
LINE
  5
DF
100
AcDbEntity
100
AcDbLine
  8
Fittings
 62
256
370
-1
  6
ByLayer
 10
343.0
 20
-348.0
 30
0.0
 11
343.0
 21
-352.0
 31
0.0
  0
CIRCLE
  5
E0
100
AcDbEntity
100
AcDbCircle
  8
Fittings
 62
256
370
-1
  6
ByLayer
 10
445.0
 20
-350.0
 30
0.0
 40
15.0
  0
ARC
  5
E1
100
AcDbEntity
  8
Fittings
 62
256
370
-1
  6
ByLayer
100
AcDbCircle
 10
387.5
 20
-352.5
 30
0.0
 40
2.5
100
AcDbArc
 50
180.0
 51
270.0
  0
LINE
  5
E2
100
AcDbEntity
100
AcDbLine
  8
Fittings
 62
256
370
-1
  6
ByLayer
 10
385.0
 20
-347.5
 30
0.0
 11
385.0
 21
-352.5
 31
0.0
  0
ARC
  5
E3
100
AcDbEntity
  8
Fittings
 62
256
370
-1
  6
ByLayer
100
AcDbCircle
 10
387.5
 20
-347.4999999999999432
 30
0.0
 40
2.5
100
AcDbArc
 50
90.0
 51
180.0
  0
LINE
  5
E4
100
AcDbEntity
100
AcDbLine
  8
Fittings
 62
256
370
-1
  6
ByLayer
 10
387.5
 20
-355.0
 30
0.0
 11
409.2928578572857532
 21
-355.0
 31
0.0
  0
ARC
  5
E5
100
AcDbEntity
  8
Fittings
 62
256
370
-1
  6
ByLayer
100
AcDbCircle
 10
409.2928578572857532
 20
-385.0
 30
0.0
 40
30.0
100
AcDbArc
 50
44.4270040008056668
 51
90.0
  0
LINE
  5
E6
100
AcDbEntity
100
AcDbLine
  8
Fittings
 62
256
370
-1
  6
ByLayer
 10
409.2928578572857532
 20
-345.0
 30
0.0
 11
387.5
 21
-344.9999999999999432
 31
0.0
  0
ARC
  5
E7
100
AcDbEntity
  8
Fittings
 62
256
370
-1
  6
ByLayer
100
AcDbCircle
 10
396.0
 20
-350.0
 30
0.0
 40
2.0
100
AcDbArc
 50
180.0
 51
270.0
  0
ARC
  5
E8
100
AcDbEntity
  8
Fittings
 62
256
370
-1
  6
ByLayer
100
AcDbCircle
 10
396.0
 20
-350.0
 30
0.0
 40
2.0
100
AcDbArc
 50
90.0
 51
180.0
  0
LINE
  5
E9
100
AcDbEntity
100
AcDbLine
  8
Fittings
 62
256
370
-1
  6
ByLayer
 10
396.0
 20
-348.0000000000000568
 30
0.0
 11
400.0
 21
-347.9999999999999432
 31
0.0
  0
ARC
  5
EA
100
AcDbEntity
  8
Fittings
 62
256
370
-1
  6
ByLayer
100
AcDbCircle
 10
400.0
 20
-350.0
 30
0.0
 40
2.0
100
AcDbArc
 50
360.0
 51
90.0
  0
LINE
  5
EB
100
AcDbEntity
100
AcDbLine
  8
Fittings
 62
256
370
-1
  6
ByLayer
 10
400.0
 20
-352.0
 30
0.0
 11
396.0
 21
-351.9999999999999432
 31
0.0
  0
ARC
  5
EC
100
AcDbEntity
  8
Fittings
 62
256
370
-1
  6
ByLayer
100
AcDbCircle
 10
400.0
 20
-350.0
 30
0.0
 40
2.0
100
AcDbArc
 50
270.0
 51
360.0
  0
ARC
  5
ED
100
AcDbEntity
  8
Fittings
 62
256
370
-1
  6
ByLayer
100
AcDbCircle
 10
409.2928578572857532
 20
-315.0
 30
0.0
 40
30.0
100
AcDbArc
 50
270.0
 51
315.5729955060272687
  0
LINE
  5
EE
100
AcDbEntity
100
AcDbLine
  8
Fittings
 62
256
370
-1
  6
ByLayer
 10
435.0
 20
-369.0000000000000568
 30
0.0
 11
455.0
 21
-369.0000000000000568
 31
0.0
  0
LINE
  5
EF
100
AcDbEntity
100
AcDbLine
  8
Fittings
 62
256
370
-1
  6
ByLayer
 10
435.0
 20
-331.0
 30
0.0
 11
455.0
 21
-331.0
 31
0.0
  0
LINE
  5
F0
100
AcDbEntity
100
AcDbLine
  8
Fittings
 62
256
370
-1
  6
ByLayer
 10
435.0
 20
-369.0000000000000568
 30
0.0
 11
431.0
 21
-364.0
 31
0.0
  0
LINE
  5
F1
100
AcDbEntity
100
AcDbLine
  8
Fittings
 62
256
370
-1
  6
ByLayer
 10
431.0
 20
-336.0
 30
0.0
 11
435.0
 21
-331.0
 31
0.0
  0
ARC
  5
F2
100
AcDbEntity
  8
Fittings
 62
256
370
-1
  6
ByLayer
100
AcDbCircle
 10
422.0
 20
-350.0
 30
0.0
 40
2.0
100
AcDbArc
 50
180.0
 51
270.0
  0
ARC
  5
F3
100
AcDbEntity
  8
Fittings
 62
256
370
-1
  6
ByLayer
100
AcDbCircle
 10
422.0
 20
-350.0
 30
0.0
 40
2.0
100
AcDbArc
 50
90.0
 51
180.0
  0
LINE
  5
F4
100
AcDbEntity
100
AcDbLine
  8
Fittings
 62
256
370
-1
  6
ByLayer
 10
422.0
 20
-348.0000000000000568
 30
0.0
 11
426.0
 21
-348.0
 31
0.0
  0
ARC
  5
F5
100
AcDbEntity
  8
Fittings
 62
256
370
-1
  6
ByLayer
100
AcDbCircle
 10
426.0
 20
-350.0
 30
0.0
 40
2.0
100
AcDbArc
 50
360.0
 51
90.0
  0
LINE
  5
F6
100
AcDbEntity
100
AcDbLine
  8
Fittings
 62
256
370
-1
  6
ByLayer
 10
426.0
 20
-352.0000000000000568
 30
0.0
 11
422.0
 21
-351.9999999999999432
 31
0.0
  0
ARC
  5
F7
100
AcDbEntity
  8
Fittings
 62
256
370
-1
  6
ByLayer
100
AcDbCircle
 10
426.0
 20
-350.0
 30
0.0
 40
2.0
100
AcDbArc
 50
270.0
 51
360.0
  0
LINE
  5
F8
100
AcDbEntity
100
AcDbLine
  8
Fittings
 62
256
370
-1
  6
ByLayer
 10
406.0
 20
-352.0
 30
0.0
 11
406.0
 21
-348.0
 31
0.0
  0
LINE
  5
F9
100
AcDbEntity
100
AcDbLine
  8
Fittings
 62
256
370
-1
  6
ByLayer
 10
407.0
 20
-352.0
 30
0.0
 11
408.0
 21
-348.0
 31
0.0
  0
LINE
  5
FA
100
AcDbEntity
100
AcDbLine
  8
Fittings
 62
256
370
-1
  6
ByLayer
 10
408.0
 20
-352.0
 30
0.0
 11
409.0
 21
-348.0
 31
0.0
  0
LINE
  5
FB
100
AcDbEntity
100
AcDbLine
  8
Fittings
 62
256
370
-1
  6
ByLayer
 10
409.0
 20
-352.0
 30
0.0
 11
410.0
 21
-348.0
 31
0.0
  0
LINE
  5
FC
100
AcDbEntity
100
AcDbLine
  8
Fittings
 62
256
370
-1
  6
ByLayer
 10
410.0
 20
-352.0
 30
0.0
 11
411.0
 21
-348.0000000000000568
 31
0.0
  0
LINE
  5
FD
100
AcDbEntity
100
AcDbLine
  8
Fittings
 62
256
370
-1
  6
ByLayer
 10
411.0
 20
-352.0
 30
0.0
 11
412.0
 21
-348.0
 31
0.0
  0
LINE
  5
FE
100
AcDbEntity
100
AcDbLine
  8
Fittings
 62
256
370
-1
  6
ByLayer
 10
412.0
 20
-352.0
 30
0.0
 11
413.0
 21
-348.0
 31
0.0
  0
LINE
  5
FF
100
AcDbEntity
100
AcDbLine
  8
Fittings
 62
256
370
-1
  6
ByLayer
 10
413.0
 20
-352.0
 30
0.0
 11
414.0
 21
-348.0
 31
0.0
  0
LINE
  5
100
100
AcDbEntity
100
AcDbLine
  8
Fittings
 62
256
370
-1
  6
ByLayer
 10
414.0
 20
-352.0
 30
0.0
 11
415.0
 21
-348.0
 31
0.0
  0
LINE
  5
101
100
AcDbEntity
100
AcDbLine
  8
Fittings
 62
256
370
-1
  6
ByLayer
 10
415.0
 20
-352.0
 30
0.0
 11
416.0
 21
-347.9999999999999432
 31
0.0
  0
LINE
  5
102
100
AcDbEntity
100
AcDbLine
  8
Fittings
 62
256
370
-1
  6
ByLayer
 10
416.0
 20
-352.0000000000000568
 30
0.0
 11
416.0
 21
-347.9999999999999432
 31
0.0
  0
LINE
  5
103
100
AcDbEntity
100
AcDbLine
  8
Fittings
 62
256
370
-1
  6
ByLayer
 10
407.0
 20
-352.0
 30
0.0
 11
407.0
 21
-348.0
 31
0.0
  0
CIRCLE
  5
104
100
AcDbEntity
100
AcDbCircle
  8
Facia
 62
256
370
-1
  6
ByLayer
 10
295.0
 20
-350.0
 30
0.0
 40
15.0
  0
CIRCLE
  5
105
100
AcDbEntity
100
AcDbCircle
  8
Facia
 62
256
370
-1
  6
ByLayer
 10
455.0
 20
-350.0
 30
0.0
 40
15.0
  0
ARC
  5
106
100
AcDbEntity
  8
Fittings
 62
256
370
-1
  6
ByLayer
100
AcDbCircle
 10
303.0500000000000114
 20
-350.0
 30
0.0
 40
23.0500000000000078
100
AcDbArc
 50
124.4829187978799752
 51
235.5170812021200106
  0
LINE
  5
107
100
AcDbEntity
100
AcDbLine
  8
Fittings
 62
256
370
-1
  6
ByLayer
 10
295.0
 20
-331.0
 30
0.0
 11
290.0
 21
-331.0
 31
0.0
  0
LINE
  5
108
100
AcDbEntity
100
AcDbLine
  8
Fittings
 62
256
370
-1
  6
ByLayer
 10
295.0
 20
-369.0
 30
0.0
 11
290.0
 21
-369.0
 31
0.0
  0
ARC
  5
109
100
AcDbEntity
  8
Fittings
 62
256
370
-1
  6
ByLayer
100
AcDbCircle
 10
446.9499999999999886
 20
-350.0
 30
0.0
 40
23.0500000000000078
100
AcDbArc
 50
304.4829187978799609
 51
55.5170812021200177
  0
LINE
  5
10A
100
AcDbEntity
100
AcDbLine
  8
Fittings
 62
256
370
-1
  6
ByLayer
 10
455.0
 20
-331.0
 30
0.0
 11
460.0
 21
-331.0
 31
0.0
  0
LINE
  5
10B
100
AcDbEntity
100
AcDbLine
  8
Fittings
 62
256
370
-1
  6
ByLayer
 10
455.0
 20
-369.0
 30
0.0
 11
460.0
 21
-369.0
 31
0.0
  0
LINE
  5
10C
100
AcDbEntity
100
AcDbLine
  8
Facia
 62
256
370
-1
  6
ByLayer
 10
989.880981878992543
 20
-721.1269604278785437
 30
0.0
 11
991.0
 21
-721.1269604278785437
 31
0.0
  0
LINE
  5
10D
100
AcDbEntity
100
AcDbLine
  8
0
 62
256
370
-1
  6
ByLayer
 10
1000.0
 20
-730.1269604278785437
 30
0.0
 11
1000.0
 21
-730.0
 31
0.0
  0
ARC
  5
10E
100
AcDbEntity
  8
Facia
 62
256
370
-1
  6
ByLayer
100
AcDbCircle
 10
991.0
 20
-730.1269604278785437
 30
0.0
 40
9.0
100
AcDbArc
 50
0.0
 51
90.0
  0
ARC
  5
10F
100
AcDbEntity
  8
Facia
 62
256
370
-1
  6
ByLayer
100
AcDbCircle
 10
994.0
 20
-106.0
 30
0.0
 40
6.0
100
AcDbArc
 50
0.0
 51
90.0
  0
LINE
  5
110
100
AcDbEntity
100
AcDbLine
  8
0
 62
256
370
-1
  6
ByLayer
 10
990.0
 20
-112.0
 30
0.0
 11
994.0
 21
-112.0
 31
0.0
  0
LINE
  5
111
100
AcDbEntity
100
AcDbLine
  8
Facia
 62
256
370
-1
  6
ByLayer
 10
1000.0
 20
-106.0
 30
0.0
 11
1000.0
 21
-106.0
 31
0.0
  0
ARC
  5
112
100
AcDbEntity
  8
Facia
 62
256
370
-1
  6
ByLayer
100
AcDbCircle
 10
994.0
 20
-106.0
 30
0.0
 40
6.0
100
AcDbArc
 50
270.0
 51
0.0
  0
LINE
  5
113
100
AcDbEntity
100
AcDbLine
  8
Facia
 62
256
370
-1
  6
ByLayer
 10
1000.0
 20
-107.0
 30
0.0
 11
1000.0
 21
-730.0
 31
0.0
  0
LINE
  5
114
100
AcDbEntity
100
AcDbLine
  8
0
 62
256
370
-1
  6
ByLayer
 10
109.0
 20
-100.0
 30
0.0
 11
994.0
 21
-100.0
 31
0.0
  0
LINE
  5
115
100
AcDbEntity
100
AcDbLine
  8
0
 62
256
370
-1
  6
ByLayer
 10
100.0
 20
-730.0
 30
0.0
 11
100.0
 21
-109.0
 31
0.0
  0
ARC
  5
116
100
AcDbEntity
  8
Facia
 62
256
370
-1
  6
ByLayer
100
AcDbCircle
 10
109.0
 20
-109.0
 30
0.0
 40
9.0
100
AcDbArc
 50
90.0
 51
180.0
  0
ARC
  5
117
100
AcDbEntity
  8
0
 62
256
370
-1
  6
ByLayer
100
AcDbCircle
 10
720.0
 20
380.0
 30
0.0
 40
282.8427124746190202
100
AcDbArc
 50
278.1301023541560085
 51
351.8698976458439915
  0
LINE
  5
118
100
AcDbEntity
100
AcDbLine
  8
0
 62
256
370
-1
  6
ByLayer
 10
760.0
 20
110.0
 30
0.0
 11
109.0
 21
110.0
 31
0.0
  0
LINE
  5
119
100
AcDbEntity
100
AcDbLine
  8
0
 62
256
370
-1
  6
ByLayer
 10
990.0
 20
340.0
 30
0.0
 11
990.0
 21
511.0
 31
0.0
  0
ARC
  5
11A
100
AcDbEntity
  8
0
 62
256
370
-1
  6
ByLayer
100
AcDbCircle
 10
719.9868421052632357
 20
380.0131578947368212
 30
0.0
 40
272.9618256111964456
100
AcDbArc
 50
278.4292963453609673
 51
351.5707036546389759
  0
LINE
  5
11B
100
AcDbEntity
100
AcDbLine
  8
Chassis
 62
256
370
-1
  6
ByLayer
 10
109.0
 20
511.0
 30
0.0
 11
129.0
 21
511.0
 31
0.0
  0
LINE
  5
11C
100
AcDbEntity
100
AcDbLine
  8
Chassis
 62
256
370
-1
  6
ByLayer
 10
129.0
 20
511.0
 30
0.0
 11
129.0
 21
490.0
 31
0.0
  0
LINE
  5
11D
100
AcDbEntity
100
AcDbLine
  8
Chassis
 62
256
370
-1
  6
ByLayer
 10
129.0
 20
490.0
 30
0.0
 11
109.0
 21
490.0
 31
0.0
  0
LINE
  5
11E
100
AcDbEntity
100
AcDbLine
  8
Chassis
 62
256
370
-1
  6
ByLayer
 10
109.0
 20
490.0
 30
0.0
 11
109.0
 21
511.0
 31
0.0
  0
LINE
  5
11F
100
AcDbEntity
100
AcDbLine
  8
Facia
 62
256
370
-1
  6
ByLayer
 10
981.0
 20
511.0
 30
0.0
 11
981.0
 21
340.0
 31
0.0
  0
LINE
  5
120
100
AcDbEntity
100
AcDbLine
  8
Facia
 62
256
370
-1
  6
ByLayer
 10
109.0
 20
119.0
 30
0.0
 11
760.0
 21
119.0
 31
0.0
  0
ARC
  5
121
100
AcDbEntity
  8
Facia
 62
256
370
-1
  6
ByLayer
100
AcDbCircle
 10
721.4863013698629857
 20
378.5136986301368438
 30
0.0
 40
262.3559886087347763
100
AcDbArc
 50
278.4414916937515159
 51
351.5585083062484841
  0
LINE
  5
122
100
AcDbEntity
100
AcDbLine
  8
Chassis
 62
256
370
-1
  6
ByLayer
 10
109.0
 20
119.0
 30
0.0
 11
129.0
 21
119.0
 31
0.0
  0
LINE
  5
123
100
AcDbEntity
100
AcDbLine
  8
Chassis
 62
256
370
-1
  6
ByLayer
 10
129.0
 20
119.0
 30
0.0
 11
129.0
 21
139.0
 31
0.0
  0
LINE
  5
124
100
AcDbEntity
100
AcDbLine
  8
Chassis
 62
256
370
-1
  6
ByLayer
 10
129.0
 20
139.0
 30
0.0
 11
109.0
 21
139.0
 31
0.0
  0
LINE
  5
125
100
AcDbEntity
100
AcDbLine
  8
Chassis
 62
256
370
-1
  6
ByLayer
 10
109.0
 20
139.0
 30
0.0
 11
109.0
 21
119.0
 31
0.0
  0
LINE
  5
126
100
AcDbEntity
100
AcDbLine
  8
Chassis
 62
256
370
-1
  6
ByLayer
 10
365.0
 20
119.0
 30
0.0
 11
385.0
 21
119.0
 31
0.0
  0
LINE
  5
127
100
AcDbEntity
100
AcDbLine
  8
Chassis
 62
256
370
-1
  6
ByLayer
 10
385.0
 20
119.0
 30
0.0
 11
385.0
 21
139.0
 31
0.0
  0
LINE
  5
128
100
AcDbEntity
100
AcDbLine
  8
Chassis
 62
256
370
-1
  6
ByLayer
 10
385.0
 20
139.0
 30
0.0
 11
365.0
 21
139.0
 31
0.0
  0
LINE
  5
129
100
AcDbEntity
100
AcDbLine
  8
Chassis
 62
256
370
-1
  6
ByLayer
 10
365.0
 20
139.0
 30
0.0
 11
365.0
 21
119.0
 31
0.0
  0
LINE
  5
12A
100
AcDbEntity
100
AcDbLine
  8
Chassis
 62
256
370
-1
  6
ByLayer
 10
620.0
 20
119.0
 30
0.0
 11
640.0
 21
119.0
 31
0.0
  0
LINE
  5
12B
100
AcDbEntity
100
AcDbLine
  8
Chassis
 62
256
370
-1
  6
ByLayer
 10
640.0
 20
119.0
 30
0.0
 11
640.0
 21
139.0
 31
0.0
  0
LINE
  5
12C
100
AcDbEntity
100
AcDbLine
  8
Chassis
 62
256
370
-1
  6
ByLayer
 10
640.0
 20
139.0
 30
0.0
 11
620.0
 21
139.0
 31
0.0
  0
LINE
  5
12D
100
AcDbEntity
100
AcDbLine
  8
Chassis
 62
256
370
-1
  6
ByLayer
 10
620.0
 20
139.0
 30
0.0
 11
620.0
 21
119.0
 31
0.0
  0
LINE
  5
12E
100
AcDbEntity
100
AcDbLine
  8
Chassis
 62
256
370
-1
  6
ByLayer
 10
649.0
 20
119.0
 30
0.0
 11
669.0
 21
119.0
 31
0.0
  0
LINE
  5
12F
100
AcDbEntity
100
AcDbLine
  8
Chassis
 62
256
370
-1
  6
ByLayer
 10
669.0
 20
119.0
 30
0.0
 11
669.0
 21
139.0
 31
0.0
  0
LINE
  5
130
100
AcDbEntity
100
AcDbLine
  8
Chassis
 62
256
370
-1
  6
ByLayer
 10
669.0
 20
139.0
 30
0.0
 11
649.0
 21
139.0
 31
0.0
  0
LINE
  5
131
100
AcDbEntity
100
AcDbLine
  8
Chassis
 62
256
370
-1
  6
ByLayer
 10
649.0
 20
139.0
 30
0.0
 11
649.0
 21
119.0
 31
0.0
  0
LINE
  5
132
100
AcDbEntity
100
AcDbLine
  8
Chassis
 62
256
370
-1
  6
ByLayer
 10
669.0
 20
511.0
 30
0.0
 11
649.0
 21
511.0
 31
0.0
  0
LINE
  5
133
100
AcDbEntity
100
AcDbLine
  8
Chassis
 62
256
370
-1
  6
ByLayer
 10
649.0
 20
511.0
 30
0.0
 11
649.0
 21
491.0
 31
0.0
  0
LINE
  5
134
100
AcDbEntity
100
AcDbLine
  8
Chassis
 62
256
370
-1
  6
ByLayer
 10
649.0
 20
491.0
 30
0.0
 11
669.0
 21
491.0
 31
0.0
  0
LINE
  5
135
100
AcDbEntity
100
AcDbLine
  8
Chassis
 62
256
370
-1
  6
ByLayer
 10
669.0
 20
491.0
 30
0.0
 11
669.0
 21
511.0
 31
0.0
  0
LINE
  5
136
100
AcDbEntity
100
AcDbLine
  8
Chassis
 62
256
370
-1
  6
ByLayer
 10
640.0
 20
511.0
 30
0.0
 11
620.0
 21
511.0
 31
0.0
  0
LINE
  5
137
100
AcDbEntity
100
AcDbLine
  8
Chassis
 62
256
370
-1
  6
ByLayer
 10
620.0
 20
511.0
 30
0.0
 11
620.0
 21
491.0
 31
0.0
  0
LINE
  5
138
100
AcDbEntity
100
AcDbLine
  8
Chassis
 62
256
370
-1
  6
ByLayer
 10
620.0
 20
491.0
 30
0.0
 11
640.0
 21
491.0
 31
0.0
  0
LINE
  5
139
100
AcDbEntity
100
AcDbLine
  8
Chassis
 62
256
370
-1
  6
ByLayer
 10
640.0
 20
491.0
 30
0.0
 11
640.0
 21
511.0
 31
0.0
  0
LINE
  5
13A
100
AcDbEntity
100
AcDbLine
  8
Facia
 62
256
370
-1
  6
ByLayer
 10
640.0
 20
120.0
 30
0.0
 11
640.0
 21
119.0
 31
0.0
  0
LINE
  5
13B
100
AcDbEntity
100
AcDbLine
  8
Facia
 62
256
370
-1
  6
ByLayer
 10
640.0
 20
119.0
 30
0.0
 11
640.0
 21
511.0
 31
0.0
  0
LINE
  5
13C
100
AcDbEntity
100
AcDbLine
  8
Facia
 62
256
370
-1
  6
ByLayer
 10
649.0
 20
511.0
 30
0.0
 11
649.0
 21
119.0
 31
0.0
  0
LINE
  5
13D
100
AcDbEntity
100
AcDbLine
  8
0
 62
256
370
-1
  6
ByLayer
 10
1000.0
 20
520.0
 30
0.0
 11
1000.0
 21
520.0
 31
0.0
  0
LINE
  5
13E
100
AcDbEntity
100
AcDbLine
  8
0
 62
256
370
-1
  6
ByLayer
 10
109.0
 20
511.0
 30
0.0
 11
991.0
 21
511.0
 31
0.0
  0
ARC
  5
13F
100
AcDbEntity
  8
Facia
 62
256
370
-1
  6
ByLayer
100
AcDbCircle
 10
991.0
 20
520.0
 30
0.0
 40
9.0
100
AcDbArc
 50
270.0
 51
0.0
  0
LINE
  5
140
100
AcDbEntity
100
AcDbLine
  8
0
 62
256
370
-1
  6
ByLayer
 10
100.0
 20
520.0
 30
0.0
 11
100.0
 21
104.5
 31
0.0
  0
ARC
  5
141
100
AcDbEntity
  8
Facia
 62
256
370
-1
  6
ByLayer
100
AcDbCircle
 10
104.5
 20
104.5
 30
0.0
 40
4.5
100
AcDbArc
 50
180.0
 51
270.0
  0
LINE
  5
142
100
AcDbEntity
100
AcDbLine
  8
0
 62
256
370
-1
  6
ByLayer
 10
109.0
 20
104.5
 30
0.0
 11
109.0
 21
520.0
 31
0.0
  0
LINE
  5
143
100
AcDbEntity
100
AcDbLine
  8
0
 62
256
370
-1
  6
ByLayer
 10
104.5
 20
100.0
 30
0.0
 11
104.5
 21
100.0
 31
0.0
  0
ARC
  5
144
100
AcDbEntity
  8
Facia
 62
256
370
-1
  6
ByLayer
100
AcDbCircle
 10
104.5
 20
104.5
 30
0.0
 40
4.5
100
AcDbArc
 50
270.0
 51
0.0
  0
LINE
  5
145
100
AcDbEntity
100
AcDbLine
  8
Facia
 62
256
370
-1
  6
ByLayer
 10
105.0
 20
100.0
 30
0.0
 11
760.0
 21
100.0
 31
0.0
  0
LINE
  5
146
100
AcDbEntity
100
AcDbLine
  8
Facia
 62
256
370
-1
  6
ByLayer
 10
1000.0
 20
520.0
 30
0.0
 11
1000.0
 21
340.0
 31
0.0
  0
LINE
  5
147
100
AcDbEntity
100
AcDbLine
  8
Facia
 62
256
370
-1
  6
ByLayer
 10
109.0
 20
-400.0
 30
0.0
 11
640.0
 21
-400.0
 31
0.0
  0
LINE
  5
148
100
AcDbEntity
100
AcDbLine
  8
Facia
 62
256
370
-1
  6
ByLayer
 10
640.0
 20
-391.0
 30
0.0
 11
109.0
 21
-391.0
 31
0.0
  0
LINE
  5
149
100
AcDbEntity
100
AcDbLine
  8
Facia
 62
256
370
-1
  6
ByLayer
 10
109.0
 20
-387.0
 30
0.0
 11
640.0
 21
-387.0
 31
0.0
  0
LINE
  5
14A
100
AcDbEntity
100
AcDbLine
  8
Chassis
 62
256
370
-1
  6
ByLayer
 10
170.0
 20
119.0
 30
0.0
 11
190.0
 21
119.0
 31
0.0
  0
LINE
  5
14B
100
AcDbEntity
100
AcDbLine
  8
Chassis
 62
256
370
-1
  6
ByLayer
 10
190.0
 20
119.0
 30
0.0
 11
190.0
 21
139.0
 31
0.0
  0
LINE
  5
14C
100
AcDbEntity
100
AcDbLine
  8
Chassis
 62
256
370
-1
  6
ByLayer
 10
190.0
 20
139.0
 30
0.0
 11
170.0
 21
139.0
 31
0.0
  0
LINE
  5
14D
100
AcDbEntity
100
AcDbLine
  8
Chassis
 62
256
370
-1
  6
ByLayer
 10
170.0
 20
139.0
 30
0.0
 11
170.0
 21
119.0
 31
0.0
  0
LINE
  5
14E
100
AcDbEntity
100
AcDbLine
  8
Chassis
 62
256
370
-1
  6
ByLayer
 10
580.0
 20
119.0
 30
0.0
 11
560.0
 21
119.0
 31
0.0
  0
LINE
  5
14F
100
AcDbEntity
100
AcDbLine
  8
Chassis
 62
256
370
-1
  6
ByLayer
 10
560.0
 20
119.0
 30
0.0
 11
560.0
 21
139.0
 31
0.0
  0
LINE
  5
150
100
AcDbEntity
100
AcDbLine
  8
Chassis
 62
256
370
-1
  6
ByLayer
 10
560.0
 20
139.0
 30
0.0
 11
580.0
 21
139.0
 31
0.0
  0
LINE
  5
151
100
AcDbEntity
100
AcDbLine
  8
Chassis
 62
256
370
-1
  6
ByLayer
 10
580.0
 20
139.0
 30
0.0
 11
580.0
 21
119.0
 31
0.0
  0
LINE
  5
152
100
AcDbEntity
100
AcDbLine
  8
Fittings
 62
256
370
-1
  6
ByLayer
 10
561.0
 20
138.0
 30
0.0
 11
579.0
 21
138.0
 31
0.0
  0
LINE
  5
153
100
AcDbEntity
100
AcDbLine
  8
Fittings
 62
256
370
-1
  6
ByLayer
 10
579.0
 20
138.0
 30
0.0
 11
579.0
 21
120.0
 31
0.0
  0
LINE
  5
154
100
AcDbEntity
100
AcDbLine
  8
Fittings
 62
256
370
-1
  6
ByLayer
 10
579.0
 20
120.0
 30
0.0
 11
561.0
 21
120.0
 31
0.0
  0
LINE
  5
155
100
AcDbEntity
100
AcDbLine
  8
Fittings
 62
256
370
-1
  6
ByLayer
 10
561.0
 20
120.0
 30
0.0
 11
561.0
 21
138.0
 31
0.0
  0
CIRCLE
  5
156
100
AcDbEntity
100
AcDbCircle
  8
Fittings
 62
256
370
-1
  6
ByLayer
 10
570.0
 20
129.0
 30
0.0
 40
3.0
  0
LINE
  5
157
100
AcDbEntity
100
AcDbLine
  8
Fittings
 62
256
370
-1
  6
ByLayer
 10
171.0
 20
138.0
 30
0.0
 11
189.0
 21
138.0
 31
0.0
  0
LINE
  5
158
100
AcDbEntity
100
AcDbLine
  8
Fittings
 62
256
370
-1
  6
ByLayer
 10
189.0
 20
138.0
 30
0.0
 11
189.0
 21
120.0
 31
0.0
  0
LINE
  5
159
100
AcDbEntity
100
AcDbLine
  8
Fittings
 62
256
370
-1
  6
ByLayer
 10
189.0
 20
120.0
 30
0.0
 11
171.0
 21
120.0
 31
0.0
  0
LINE
  5
15A
100
AcDbEntity
100
AcDbLine
  8
Fittings
 62
256
370
-1
  6
ByLayer
 10
171.0
 20
120.0
 30
0.0
 11
171.0
 21
138.0
 31
0.0
  0
CIRCLE
  5
15B
100
AcDbEntity
100
AcDbCircle
  8
Fittings
 62
256
370
-1
  6
ByLayer
 10
180.0
 20
129.0
 30
0.0
 40
3.0
  0
LINE
  5
15C
100
AcDbEntity
100
AcDbLine
  8
Facia
 62
256
370
-1
  6
ByLayer
 10
109.0
 20
170.0
 30
0.0
 11
640.0
 21
170.0
 31
0.0
  0
LINE
  5
15D
100
AcDbEntity
100
AcDbLine
  8
Facia
 62
256
370
-1
  6
ByLayer
 10
640.0
 20
173.0
 30
0.0
 11
109.0
 21
173.0
 31
0.0
  0
LINE
  5
15E
100
AcDbEntity
100
AcDbLine
  8
Fittings
 62
256
370
-1
  6
ByLayer
 10
561.0
 20
-111.0
 30
0.0
 11
579.0
 21
-111.0
 31
0.0
  0
LINE
  5
15F
100
AcDbEntity
100
AcDbLine
  8
Fittings
 62
256
370
-1
  6
ByLayer
 10
171.0
 20
-111.0
 30
0.0
 11
189.0
 21
-111.0
 31
0.0
  0
LINE
  5
160
100
AcDbEntity
100
AcDbLine
  8
Fittings
 62
256
370
-1
  6
ByLayer
 10
171.0
 20
-722.0
 30
0.0
 11
189.0
 21
-722.0
 31
0.0
  0
LINE
  5
161
100
AcDbEntity
100
AcDbLine
  8
Fittings
 62
256
370
-1
  6
ByLayer
 10
561.0
 20
-722.0
 30
0.0
 11
579.0
 21
-722.0
 31
0.0
  0
LINE
  5
162
100
AcDbEntity
100
AcDbLine
  8
Fittings
 62
256
370
-1
  6
ByLayer
 10
711.0
 20
-722.0
 30
0.0
 11
729.0
 21
-722.0
 31
0.0
  0
LINE
  5
163
100
AcDbEntity
100
AcDbLine
  8
Fittings
 62
256
370
-1
  6
ByLayer
 10
711.0
 20
-111.0
 30
0.0
 11
729.0
 21
-111.0
 31
0.0
  0
LINE
  5
164
100
AcDbEntity
100
AcDbLine
  8
Chassis
 62
256
370
-1
  6
ByLayer
 10
710.0
 20
119.0
 30
0.0
 11
730.0
 21
119.0
 31
0.0
  0
LINE
  5
165
100
AcDbEntity
100
AcDbLine
  8
Chassis
 62
256
370
-1
  6
ByLayer
 10
730.0
 20
119.0
 30
0.0
 11
730.0
 21
139.0
 31
0.0
  0
LINE
  5
166
100
AcDbEntity
100
AcDbLine
  8
Chassis
 62
256
370
-1
  6
ByLayer
 10
730.0
 20
139.0
 30
0.0
 11
710.0
 21
139.0
 31
0.0
  0
LINE
  5
167
100
AcDbEntity
100
AcDbLine
  8
Chassis
 62
256
370
-1
  6
ByLayer
 10
710.0
 20
139.0
 30
0.0
 11
710.0
 21
119.0
 31
0.0
  0
LINE
  5
168
100
AcDbEntity
100
AcDbLine
  8
Fittings
 62
256
370
-1
  6
ByLayer
 10
711.0
 20
138.0
 30
0.0
 11
729.0
 21
138.0
 31
0.0
  0
LINE
  5
169
100
AcDbEntity
100
AcDbLine
  8
Fittings
 62
256
370
-1
  6
ByLayer
 10
729.0
 20
138.0
 30
0.0
 11
729.0
 21
120.0
 31
0.0
  0
LINE
  5
16A
100
AcDbEntity
100
AcDbLine
  8
Fittings
 62
256
370
-1
  6
ByLayer
 10
729.0
 20
120.0
 30
0.0
 11
711.0
 21
120.0
 31
0.0
  0
LINE
  5
16B
100
AcDbEntity
100
AcDbLine
  8
Fittings
 62
256
370
-1
  6
ByLayer
 10
711.0
 20
120.0
 30
0.0
 11
711.0
 21
138.0
 31
0.0
  0
CIRCLE
  5
16C
100
AcDbEntity
100
AcDbCircle
  8
Fittings
 62
256
370
-1
  6
ByLayer
 10
720.0
 20
129.0
 30
0.0
 40
3.0
  0
LINE
  5
16D
100
AcDbEntity
100
AcDbLine
  8
Fittings
 62
256
370
-1
  6
ByLayer
 10
345.0
 20
117.0
 30
0.0
 11
345.0
 21
113.0
 31
0.0
  0
LINE
  5
16E
100
AcDbEntity
100
AcDbLine
  8
Fittings
 62
256
370
-1
  6
ByLayer
 10
344.0
 20
117.0
 30
0.0
 11
343.0
 21
113.0
 31
0.0
  0
LINE
  5
16F
100
AcDbEntity
100
AcDbLine
  8
Fittings
 62
256
370
-1
  6
ByLayer
 10
343.0
 20
117.0
 30
0.0
 11
342.0
 21
113.0
 31
0.0
  0
LINE
  5
170
100
AcDbEntity
100
AcDbLine
  8
Fittings
 62
256
370
-1
  6
ByLayer
 10
342.0
 20
117.0
 30
0.0
 11
341.0
 21
113.0
 31
0.0
  0
LINE
  5
171
100
AcDbEntity
100
AcDbLine
  8
Fittings
 62
256
370
-1
  6
ByLayer
 10
341.0
 20
117.0
 30
0.0
 11
340.0
 21
113.0
 31
0.0
  0
LINE
  5
172
100
AcDbEntity
100
AcDbLine
  8
Fittings
 62
256
370
-1
  6
ByLayer
 10
340.0
 20
117.0
 30
0.0
 11
339.0
 21
113.0
 31
0.0
  0
LINE
  5
173
100
AcDbEntity
100
AcDbLine
  8
Fittings
 62
256
370
-1
  6
ByLayer
 10
339.0
 20
117.0
 30
0.0
 11
338.0
 21
113.0
 31
0.0
  0
LINE
  5
174
100
AcDbEntity
100
AcDbLine
  8
Fittings
 62
256
370
-1
  6
ByLayer
 10
338.0
 20
117.0
 30
0.0
 11
337.0
 21
113.0
 31
0.0
  0
LINE
  5
175
100
AcDbEntity
100
AcDbLine
  8
Fittings
 62
256
370
-1
  6
ByLayer
 10
337.0
 20
117.0
 30
0.0
 11
336.0
 21
113.0
 31
0.0
  0
LINE
  5
176
100
AcDbEntity
100
AcDbLine
  8
Fittings
 62
256
370
-1
  6
ByLayer
 10
336.0
 20
117.0
 30
0.0
 11
335.0
 21
113.0
 31
0.0
  0
LINE
  5
177
100
AcDbEntity
100
AcDbLine
  8
Fittings
 62
256
370
-1
  6
ByLayer
 10
335.0
 20
117.0
 30
0.0
 11
335.0
 21
113.0
 31
0.0
  0
LINE
  5
178
100
AcDbEntity
100
AcDbLine
  8
Fittings
 62
256
370
-1
  6
ByLayer
 10
344.0
 20
117.0
 30
0.0
 11
344.0
 21
113.0
 31
0.0
  0
LINE
  5
179
100
AcDbEntity
100
AcDbLine
  8
Fittings
 62
256
370
-1
  6
ByLayer
 10
406.0
 20
113.0
 30
0.0
 11
406.0
 21
117.0
 31
0.0
  0
LINE
  5
17A
100
AcDbEntity
100
AcDbLine
  8
Fittings
 62
256
370
-1
  6
ByLayer
 10
407.0
 20
113.0
 30
0.0
 11
408.0
 21
117.0
 31
0.0
  0
LINE
  5
17B
100
AcDbEntity
100
AcDbLine
  8
Fittings
 62
256
370
-1
  6
ByLayer
 10
408.0
 20
113.0
 30
0.0
 11
409.0
 21
117.0
 31
0.0
  0
LINE
  5
17C
100
AcDbEntity
100
AcDbLine
  8
Fittings
 62
256
370
-1
  6
ByLayer
 10
409.0
 20
113.0
 30
0.0
 11
410.0
 21
117.0
 31
0.0
  0
LINE
  5
17D
100
AcDbEntity
100
AcDbLine
  8
Fittings
 62
256
370
-1
  6
ByLayer
 10
410.0
 20
113.0
 30
0.0
 11
411.0
 21
116.9999999999999432
 31
0.0
  0
LINE
  5
17E
100
AcDbEntity
100
AcDbLine
  8
Fittings
 62
256
370
-1
  6
ByLayer
 10
411.0
 20
113.0
 30
0.0
 11
412.0
 21
117.0
 31
0.0
  0
LINE
  5
17F
100
AcDbEntity
100
AcDbLine
  8
Fittings
 62
256
370
-1
  6
ByLayer
 10
412.0
 20
113.0
 30
0.0
 11
413.0
 21
117.0
 31
0.0
  0
LINE
  5
180
100
AcDbEntity
100
AcDbLine
  8
Fittings
 62
256
370
-1
  6
ByLayer
 10
413.0
 20
113.0
 30
0.0
 11
414.0
 21
117.0
 31
0.0
  0
LINE
  5
181
100
AcDbEntity
100
AcDbLine
  8
Fittings
 62
256
370
-1
  6
ByLayer
 10
414.0
 20
113.0
 30
0.0
 11
415.0
 21
117.0
 31
0.0
  0
LINE
  5
182
100
AcDbEntity
100
AcDbLine
  8
Fittings
 62
256
370
-1
  6
ByLayer
 10
415.0
 20
113.0
 30
0.0
 11
416.0
 21
117.0000000000000568
 31
0.0
  0
LINE
  5
183
100
AcDbEntity
100
AcDbLine
  8
Fittings
 62
256
370
-1
  6
ByLayer
 10
416.0
 20
112.9999999999999432
 30
0.0
 11
416.0
 21
117.0000000000000568
 31
0.0
  0
LINE
  5
184
100
AcDbEntity
100
AcDbLine
  8
Fittings
 62
256
370
-1
  6
ByLayer
 10
407.0
 20
113.0
 30
0.0
 11
407.0
 21
117.0
 31
0.0
  0
LINE
  5
185
100
AcDbEntity
100
AcDbLine
  8
Fittings
 62
256
370
-1
  6
ByLayer
 10
470.0
 20
119.0
 30
0.0
 11
385.0
 21
119.0
 31
0.0
  0
LINE
  5
186
100
AcDbEntity
100
AcDbLine
  8
Fittings
 62
256
370
-1
  6
ByLayer
 10
385.0
 20
119.0
 30
0.0
 11
385.0
 21
117.0
 31
0.0
  0
LINE
  5
187
100
AcDbEntity
100
AcDbLine
  8
Fittings
 62
256
370
-1
  6
ByLayer
 10
385.0
 20
117.0
 30
0.0
 11
470.0
 21
117.0
 31
0.0
  0
LINE
  5
188
100
AcDbEntity
100
AcDbLine
  8
Fittings
 62
256
370
-1
  6
ByLayer
 10
470.0
 20
117.0
 30
0.0
 11
470.0
 21
119.0
 31
0.0
  0
LINE
  5
189
100
AcDbEntity
100
AcDbLine
  8
Fittings
 62
256
370
-1
  6
ByLayer
 10
365.0
 20
119.0
 30
0.0
 11
280.0
 21
119.0
 31
0.0
  0
LINE
  5
18A
100
AcDbEntity
100
AcDbLine
  8
Fittings
 62
256
370
-1
  6
ByLayer
 10
280.0
 20
119.0
 30
0.0
 11
280.0
 21
117.0
 31
0.0
  0
LINE
  5
18B
100
AcDbEntity
100
AcDbLine
  8
Fittings
 62
256
370
-1
  6
ByLayer
 10
280.0
 20
117.0
 30
0.0
 11
365.0
 21
117.0
 31
0.0
  0
LINE
  5
18C
100
AcDbEntity
100
AcDbLine
  8
Fittings
 62
256
370
-1
  6
ByLayer
 10
365.0
 20
117.0
 30
0.0
 11
365.0
 21
119.0
 31
0.0
  0
LINE
  5
18D
100
AcDbEntity
100
AcDbLine
  8
Facia
 62
256
370
-1
  6
ByLayer
 10
-520.0
 20
-730.0
 30
0.0
 11
-100.0
 21
-730.0
 31
0.0
  0
LINE
  5
18E
100
AcDbEntity
100
AcDbLine
  8
Facia
 62
256
370
-1
  6
ByLayer
 10
-100.0
 20
-730.0
 30
0.0
 11
-100.0
 21
-100.0
 31
0.0
  0
LINE
  5
18F
100
AcDbEntity
100
AcDbLine
  8
Facia
 62
256
370
-1
  6
ByLayer
 10
-109.0
 20
-112.0
 30
0.0
 11
-109.0
 21
-721.0
 31
0.0
  0
LINE
  5
190
100
AcDbEntity
100
AcDbLine
  8
Facia
 62
256
370
-1
  6
ByLayer
 10
-510.0
 20
-721.0
 30
0.0
 11
-510.0
 21
-112.0
 31
0.0
  0
LINE
  5
191
100
AcDbEntity
100
AcDbLine
  8
Facia
 62
256
370
-1
  6
ByLayer
 10
-501.0
 20
-112.0
 30
0.0
 11
-501.0
 21
-721.0
 31
0.0
  0
LINE
  5
192
100
AcDbEntity
100
AcDbLine
  8
Facia
 62
256
370
-1
  6
ByLayer
 10
-100.0
 20
-100.0
 30
0.0
 11
-514.0
 21
-100.0
 31
0.0
  0
ARC
  5
193
100
AcDbEntity
  8
Facia
 62
256
370
-1
  6
ByLayer
100
AcDbCircle
 10
-514.0
 20
-106.0
 30
0.0
 40
6.0
100
AcDbArc
 50
90.0
 51
180.0
  0
LINE
  5
194
100
AcDbEntity
100
AcDbLine
  8
Facia
 62
256
370
-1
  6
ByLayer
 10
-520.0
 20
-106.0
 30
0.0
 11
-520.0
 21
-106.0
 31
0.0
  0
ARC
  5
195
100
AcDbEntity
  8
Facia
 62
256
370
-1
  6
ByLayer
100
AcDbCircle
 10
-514.0
 20
-106.0
 30
0.0
 40
6.0
100
AcDbArc
 50
180.0
 51
270.0
  0
LINE
  5
196
100
AcDbEntity
100
AcDbLine
  8
Facia
 62
256
370
-1
  6
ByLayer
 10
-520.0
 20
-730.0
 30
0.0
 11
-520.0
 21
-725.5
 31
0.0
  0
ARC
  5
197
100
AcDbEntity
  8
Facia
 62
256
370
-1
  6
ByLayer
100
AcDbCircle
 10
-515.5
 20
-725.5
 30
0.0
 40
4.5
100
AcDbArc
 50
90.0
 51
180.0
  0
LINE
  5
198
100
AcDbEntity
100
AcDbLine
  8
Facia
 62
256
370
-1
  6
ByLayer
 10
-520.0
 20
-726.0
 30
0.0
 11
-520.0
 21
-106.0
 31
0.0
  0
LINE
  5
199
100
AcDbEntity
100
AcDbLine
  8
Chassis
 62
256
370
-1
  6
ByLayer
 10
-501.0
 20
-112.0
 30
0.0
 11
-481.0
 21
-112.0
 31
0.0
  0
LINE
  5
19A
100
AcDbEntity
100
AcDbLine
  8
Chassis
 62
256
370
-1
  6
ByLayer
 10
-481.0
 20
-112.0
 30
0.0
 11
-481.0
 21
-721.0
 31
0.0
  0
LINE
  5
19B
100
AcDbEntity
100
AcDbLine
  8
Chassis
 62
256
370
-1
  6
ByLayer
 10
-481.0
 20
-721.0
 30
0.0
 11
-501.0
 21
-721.0
 31
0.0
  0
LINE
  5
19C
100
AcDbEntity
100
AcDbLine
  8
Chassis
 62
256
370
-1
  6
ByLayer
 10
-501.0
 20
-721.0
 30
0.0
 11
-501.0
 21
-112.0
 31
0.0
  0
LINE
  5
19D
100
AcDbEntity
100
AcDbLine
  8
Chassis
 62
256
370
-1
  6
ByLayer
 10
-109.0
 20
-721.0
 30
0.0
 11
-129.0
 21
-721.0
 31
0.0
  0
LINE
  5
19E
100
AcDbEntity
100
AcDbLine
  8
Chassis
 62
256
370
-1
  6
ByLayer
 10
-129.0
 20
-721.0
 30
0.0
 11
-129.0
 21
-112.0
 31
0.0
  0
LINE
  5
19F
100
AcDbEntity
100
AcDbLine
  8
Chassis
 62
256
370
-1
  6
ByLayer
 10
-129.0
 20
-112.0
 30
0.0
 11
-109.0
 21
-112.0
 31
0.0
  0
LINE
  5
1A0
100
AcDbEntity
100
AcDbLine
  8
Chassis
 62
256
370
-1
  6
ByLayer
 10
-109.0
 20
-112.0
 30
0.0
 11
-109.0
 21
-721.0
 31
0.0
  0
LINE
  5
1A1
100
AcDbEntity
100
AcDbLine
  8
Fittings
 62
256
370
-1
  6
ByLayer
 10
-500.0
 20
-111.0
 30
0.0
 11
-482.0
 21
-111.0
 31
0.0
  0
LINE
  5
1A2
100
AcDbEntity
100
AcDbLine
  8
Fittings
 62
256
370
-1
  6
ByLayer
 10
-487.0
 20
-106.0
 30
0.0
 11
-493.0
 21
-106.0
 31
0.0
  0
LINE
  5
1A3
100
AcDbEntity
100
AcDbLine
  8
Fittings
 62
256
370
-1
  6
ByLayer
 10
-493.0
 20
-106.0
 30
0.0
 11
-493.0
 21
-125.0
 31
0.0
  0
LINE
  5
1A4
100
AcDbEntity
100
AcDbLine
  8
Fittings
 62
256
370
-1
  6
ByLayer
 10
-493.0
 20
-125.0
 30
0.0
 11
-487.0
 21
-125.0
 31
0.0
  0
LINE
  5
1A5
100
AcDbEntity
100
AcDbLine
  8
Fittings
 62
256
370
-1
  6
ByLayer
 10
-487.0
 20
-125.0
 30
0.0
 11
-487.0
 21
-106.0
 31
0.0
  0
LINE
  5
1A6
100
AcDbEntity
100
AcDbLine
  8
Chassis
 62
256
370
-1
  6
ByLayer
 10
-501.0
 20
-113.0
 30
0.0
 11
-481.0
 21
-113.0
 31
0.0
  0
LINE
  5
1A7
100
AcDbEntity
100
AcDbLine
  8
Chassis
 62
256
370
-1
  6
ByLayer
 10
-501.0
 20
-720.0
 30
0.0
 11
-481.0
 21
-720.0
 31
0.0
  0
LINE
  5
1A8
100
AcDbEntity
100
AcDbLine
  8
Fittings
 62
256
370
-1
  6
ByLayer
 10
-500.0
 20
-722.0
 30
0.0
 11
-482.0
 21
-722.0
 31
0.0
  0
LINE
  5
1A9
100
AcDbEntity
100
AcDbLine
  8
Fittings
 62
256
370
-1
  6
ByLayer
 10
-487.0
 20
-727.0
 30
0.0
 11
-493.0
 21
-727.0
 31
0.0
  0
LINE
  5
1AA
100
AcDbEntity
100
AcDbLine
  8
Fittings
 62
256
370
-1
  6
ByLayer
 10
-493.0
 20
-727.0
 30
0.0
 11
-493.0
 21
-708.0
 31
0.0
  0
LINE
  5
1AB
100
AcDbEntity
100
AcDbLine
  8
Fittings
 62
256
370
-1
  6
ByLayer
 10
-493.0
 20
-708.0
 30
0.0
 11
-487.0
 21
-708.0
 31
0.0
  0
LINE
  5
1AC
100
AcDbEntity
100
AcDbLine
  8
Fittings
 62
256
370
-1
  6
ByLayer
 10
-487.0
 20
-708.0
 30
0.0
 11
-487.0
 21
-727.0
 31
0.0
  0
LINE
  5
1AD
100
AcDbEntity
100
AcDbLine
  8
Facia
 62
256
370
-1
  6
ByLayer
 10
-109.0
 20
-400.0
 30
0.0
 11
-460.0
 21
-400.0
 31
0.0
  0
LINE
  5
1AE
100
AcDbEntity
100
AcDbLine
  8
Facia
 62
256
370
-1
  6
ByLayer
 10
-109.0
 20
-391.0
 30
0.0
 11
-460.0
 21
-391.0
 31
0.0
  0
LINE
  5
1AF
100
AcDbEntity
100
AcDbLine
  8
Facia
 62
256
370
-1
  6
ByLayer
 10
-460.0
 20
-400.0
 30
0.0
 11
-460.0
 21
-391.0
 31
0.0
  0
ARC
  5
1B0
100
AcDbEntity
  8
Facia
 62
256
370
-1
  6
ByLayer
100
AcDbCircle
 10
-458.5
 20
-389.25
 30
0.0
 40
2.3048861143232218
100
AcDbArc
 50
310.6012946450044865
 51
229.3987053549955135
  0
LINE
  5
1B1
100
AcDbEntity
100
AcDbLine
  8
Fittings
 62
256
370
-1
  6
ByLayer
 10
-501.0
 20
-369.0
 30
0.0
 11
-503.0
 21
-369.0
 31
0.0
  0
LINE
  5
1B2
100
AcDbEntity
100
AcDbLine
  8
Fittings
 62
256
370
-1
  6
ByLayer
 10
-503.0
 20
-369.0
 30
0.0
 11
-503.0
 21
-331.0
 31
0.0
  0
LINE
  5
1B3
100
AcDbEntity
100
AcDbLine
  8
Fittings
 62
256
370
-1
  6
ByLayer
 10
-503.0
 20
-331.0
 30
0.0
 11
-501.0
 21
-331.0
 31
0.0
  0
LINE
  5
1B4
100
AcDbEntity
100
AcDbLine
  8
Fittings
 62
256
370
-1
  6
ByLayer
 10
-501.0
 20
-331.0
 30
0.0
 11
-501.0
 21
-369.0
 31
0.0
  0
CIRCLE
  5
1B5
100
AcDbEntity
100
AcDbCircle
  8
Fittings
 62
256
370
-1
  6
ByLayer
 10
-506.0
 20
-350.0
 30
0.0
 40
2.5
  0
CIRCLE
  5
1B6
100
AcDbEntity
100
AcDbCircle
  8
Fittings
 62
256
370
-1
  6
ByLayer
 10
-235.0
 20
-350.0
 30
0.0
 40
15.0
  0
ARC
  5
1B7
100
AcDbEntity
  8
Fittings
 62
256
370
-1
  6
ByLayer
100
AcDbCircle
 10
-177.5
 20
-347.5
 30
0.0
 40
2.5
100
AcDbArc
 50
0.0
 51
90.0
  0
LINE
  5
1B8
100
AcDbEntity
100
AcDbLine
  8
Fittings
 62
256
370
-1
  6
ByLayer
 10
-175.0
 20
-352.5
 30
0.0
 11
-175.0
 21
-347.5
 31
0.0
  0
ARC
  5
1B9
100
AcDbEntity
  8
Fittings
 62
256
370
-1
  6
ByLayer
100
AcDbCircle
 10
-177.5
 20
-352.5
 30
0.0
 40
2.5
100
AcDbArc
 50
270.0
 51
0.0
  0
LINE
  5
1BA
100
AcDbEntity
100
AcDbLine
  8
Fittings
 62
256
370
-1
  6
ByLayer
 10
-177.5
 20
-345.0
 30
0.0
 11
-199.2928578572857532
 21
-345.0
 31
0.0
  0
ARC
  5
1BB
100
AcDbEntity
  8
Fittings
 62
256
370
-1
  6
ByLayer
100
AcDbCircle
 10
-199.2928578572857532
 20
-315.0
 30
0.0
 40
30.0
100
AcDbArc
 50
224.427004000805681
 51
270.0
  0
LINE
  5
1BC
100
AcDbEntity
100
AcDbLine
  8
Fittings
 62
256
370
-1
  6
ByLayer
 10
-199.2928578572857532
 20
-355.0
 30
0.0
 11
-177.5
 21
-355.0
 31
0.0
  0
ARC
  5
1BD
100
AcDbEntity
  8
Fittings
 62
256
370
-1
  6
ByLayer
100
AcDbCircle
 10
-186.0
 20
-350.0
 30
0.0
 40
2.0
100
AcDbArc
 50
0.0
 51
90.0
  0
ARC
  5
1BE
100
AcDbEntity
  8
Fittings
 62
256
370
-1
  6
ByLayer
100
AcDbCircle
 10
-186.0
 20
-350.0
 30
0.0
 40
2.0
100
AcDbArc
 50
270.0
 51
0.0
  0
LINE
  5
1BF
100
AcDbEntity
100
AcDbLine
  8
Fittings
 62
256
370
-1
  6
ByLayer
 10
-186.0
 20
-352.0
 30
0.0
 11
-190.0
 21
-352.0
 31
0.0
  0
ARC
  5
1C0
100
AcDbEntity
  8
Fittings
 62
256
370
-1
  6
ByLayer
100
AcDbCircle
 10
-190.0
 20
-350.0
 30
0.0
 40
2.0
100
AcDbArc
 50
180.0
 51
270.0
  0
LINE
  5
1C1
100
AcDbEntity
100
AcDbLine
  8
Fittings
 62
256
370
-1
  6
ByLayer
 10
-190.0
 20
-348.0
 30
0.0
 11
-186.0
 21
-348.0
 31
0.0
  0
ARC
  5
1C2
100
AcDbEntity
  8
Fittings
 62
256
370
-1
  6
ByLayer
100
AcDbCircle
 10
-190.0
 20
-350.0
 30
0.0
 40
2.0
100
AcDbArc
 50
90.0
 51
180.0
  0
ARC
  5
1C3
100
AcDbEntity
  8
Fittings
 62
256
370
-1
  6
ByLayer
100
AcDbCircle
 10
-199.2928578572857532
 20
-385.0
 30
0.0
 40
30.0
100
AcDbArc
 50
90.0
 51
135.5729955060272403
  0
LINE
  5
1C4
100
AcDbEntity
100
AcDbLine
  8
Fittings
 62
256
370
-1
  6
ByLayer
 10
-225.0
 20
-331.0
 30
0.0
 11
-245.0
 21
-331.0
 31
0.0
  0
LINE
  5
1C5
100
AcDbEntity
100
AcDbLine
  8
Fittings
 62
256
370
-1
  6
ByLayer
 10
-225.0
 20
-369.0
 30
0.0
 11
-245.0
 21
-369.0
 31
0.0
  0
LINE
  5
1C6
100
AcDbEntity
100
AcDbLine
  8
Fittings
 62
256
370
-1
  6
ByLayer
 10
-225.0
 20
-331.0
 30
0.0
 11
-221.0
 21
-336.0
 31
0.0
  0
LINE
  5
1C7
100
AcDbEntity
100
AcDbLine
  8
Fittings
 62
256
370
-1
  6
ByLayer
 10
-221.0
 20
-364.0
 30
0.0
 11
-225.0
 21
-369.0
 31
0.0
  0
ARC
  5
1C8
100
AcDbEntity
  8
Fittings
 62
256
370
-1
  6
ByLayer
100
AcDbCircle
 10
-212.0
 20
-350.0
 30
0.0
 40
2.0
100
AcDbArc
 50
0.0
 51
90.0
  0
ARC
  5
1C9
100
AcDbEntity
  8
Fittings
 62
256
370
-1
  6
ByLayer
100
AcDbCircle
 10
-212.0
 20
-350.0
 30
0.0
 40
2.0
100
AcDbArc
 50
270.0
 51
0.0
  0
LINE
  5
1CA
100
AcDbEntity
100
AcDbLine
  8
Fittings
 62
256
370
-1
  6
ByLayer
 10
-212.0
 20
-352.0
 30
0.0
 11
-216.0
 21
-352.0
 31
0.0
  0
ARC
  5
1CB
100
AcDbEntity
  8
Fittings
 62
256
370
-1
  6
ByLayer
100
AcDbCircle
 10
-216.0
 20
-350.0
 30
0.0
 40
2.0
100
AcDbArc
 50
180.0
 51
270.0
  0
LINE
  5
1CC
100
AcDbEntity
100
AcDbLine
  8
Fittings
 62
256
370
-1
  6
ByLayer
 10
-216.0
 20
-348.0
 30
0.0
 11
-212.0
 21
-348.0
 31
0.0
  0
ARC
  5
1CD
100
AcDbEntity
  8
Fittings
 62
256
370
-1
  6
ByLayer
100
AcDbCircle
 10
-216.0
 20
-350.0
 30
0.0
 40
2.0
100
AcDbArc
 50
90.0
 51
180.0
  0
LINE
  5
1CE
100
AcDbEntity
100
AcDbLine
  8
Fittings
 62
256
370
-1
  6
ByLayer
 10
-196.0
 20
-348.0
 30
0.0
 11
-196.0
 21
-352.0
 31
0.0
  0
LINE
  5
1CF
100
AcDbEntity
100
AcDbLine
  8
Fittings
 62
256
370
-1
  6
ByLayer
 10
-197.0
 20
-348.0
 30
0.0
 11
-198.0
 21
-352.0
 31
0.0
  0
LINE
  5
1D0
100
AcDbEntity
100
AcDbLine
  8
Fittings
 62
256
370
-1
  6
ByLayer
 10
-198.0
 20
-348.0
 30
0.0
 11
-199.0
 21
-352.0
 31
0.0
  0
LINE
  5
1D1
100
AcDbEntity
100
AcDbLine
  8
Fittings
 62
256
370
-1
  6
ByLayer
 10
-199.0
 20
-348.0
 30
0.0
 11
-200.0
 21
-352.0
 31
0.0
  0
LINE
  5
1D2
100
AcDbEntity
100
AcDbLine
  8
Fittings
 62
256
370
-1
  6
ByLayer
 10
-200.0
 20
-348.0
 30
0.0
 11
-201.0
 21
-352.0
 31
0.0
  0
LINE
  5
1D3
100
AcDbEntity
100
AcDbLine
  8
Fittings
 62
256
370
-1
  6
ByLayer
 10
-201.0
 20
-348.0
 30
0.0
 11
-202.0
 21
-352.0
 31
0.0
  0
LINE
  5
1D4
100
AcDbEntity
100
AcDbLine
  8
Fittings
 62
256
370
-1
  6
ByLayer
 10
-202.0
 20
-348.0
 30
0.0
 11
-203.0
 21
-352.0
 31
0.0
  0
LINE
  5
1D5
100
AcDbEntity
100
AcDbLine
  8
Fittings
 62
256
370
-1
  6
ByLayer
 10
-203.0
 20
-348.0
 30
0.0
 11
-204.0
 21
-352.0
 31
0.0
  0
LINE
  5
1D6
100
AcDbEntity
100
AcDbLine
  8
Fittings
 62
256
370
-1
  6
ByLayer
 10
-204.0
 20
-348.0
 30
0.0
 11
-205.0
 21
-352.0
 31
0.0
  0
LINE
  5
1D7
100
AcDbEntity
100
AcDbLine
  8
Fittings
 62
256
370
-1
  6
ByLayer
 10
-205.0
 20
-348.0
 30
0.0
 11
-206.0
 21
-352.0
 31
0.0
  0
LINE
  5
1D8
100
AcDbEntity
100
AcDbLine
  8
Fittings
 62
256
370
-1
  6
ByLayer
 10
-206.0
 20
-348.0
 30
0.0
 11
-206.0
 21
-352.0
 31
0.0
  0
LINE
  5
1D9
100
AcDbEntity
100
AcDbLine
  8
Fittings
 62
256
370
-1
  6
ByLayer
 10
-197.0
 20
-348.0
 30
0.0
 11
-197.0
 21
-352.0
 31
0.0
  0
ARC
  5
1DA
100
AcDbEntity
  8
Fittings
 62
256
370
-1
  6
ByLayer
100
AcDbCircle
 10
-236.9499999999999886
 20
-350.0
 30
0.0
 40
23.0500000000000078
100
AcDbArc
 50
124.4829187978799752
 51
235.5170812021200106
  0
LINE
  5
1DB
100
AcDbEntity
100
AcDbLine
  8
Fittings
 62
256
370
-1
  6
ByLayer
 10
-245.0
 20
-331.0
 30
0.0
 11
-250.0
 21
-331.0
 31
0.0
  0
LINE
  5
1DC
100
AcDbEntity
100
AcDbLine
  8
Fittings
 62
256
370
-1
  6
ByLayer
 10
-245.0
 20
-369.0
 30
0.0
 11
-250.0
 21
-369.0
 31
0.0
  0
CIRCLE
  5
1DD
100
AcDbEntity
100
AcDbCircle
  8
Facia
 62
256
370
-1
  6
ByLayer
 10
-245.0
 20
-350.0
 30
0.0
 40
15.0
  0
LINE
  5
1DE
100
AcDbEntity
100
AcDbLine
  8
Facia
 62
256
370
-1
  6
ByLayer
 10
-514.0
 20
-112.0
 30
0.0
 11
-210.0
 21
-112.0
 31
0.0
  0
ARC
  5
1DF
100
AcDbEntity
  8
Facia
 62
256
370
-1
  6
ByLayer
100
AcDbCircle
 10
-210.0
 20
-142.0
 30
0.0
 40
30.0
100
AcDbArc
 50
0.0
 51
90.0
  0
LINE
  5
1E0
100
AcDbEntity
100
AcDbLine
  8
Facia
 62
256
370
-1
  6
ByLayer
 10
-180.0
 20
-142.0
 30
0.0
 11
-180.0
 21
-691.0
 31
0.0
  0
LINE
  5
1E1
100
AcDbEntity
100
AcDbLine
  8
Facia
 62
256
370
-1
  6
ByLayer
 10
-210.0
 20
-721.0
 30
0.0
 11
-515.5
 21
-721.0
 31
0.0
  0
ARC
  5
1E2
100
AcDbEntity
  8
Facia
 62
256
370
-1
  6
ByLayer
100
AcDbCircle
 10
-210.0
 20
-691.0
 30
0.0
 40
30.0
100
AcDbArc
 50
270.0
 51
0.0
  0
LINE
  5
1E3
100
AcDbEntity
100
AcDbLine
  8
Facia
 62
256
370
-1
  6
ByLayer
 10
-211.0
 20
-721.0
 30
0.0
 11
-109.0
 21
-721.0
 31
0.0
  0
LINE
  5
1E4
100
AcDbEntity
100
AcDbLine
  8
Facia
 62
256
370
-1
  6
ByLayer
 10
-100.0
 20
-112.0
 30
0.0
 11
-210.0
 21
-112.0
 31
0.0
  0
LINE
  5
1E5
100
AcDbEntity
100
AcDbLine
  8
Facia
 62
256
370
-1
  6
ByLayer
 10
-510.0
 20
-113.0
 30
0.0
 11
-510.0
 21
-720.0
 31
0.0
  0
LINE
  5
1E6
100
AcDbEntity
100
AcDbLine
  8
Facia
 62
256
370
-1
  6
ByLayer
 10
-510.0
 20
-720.0
 30
0.0
 11
-211.0
 21
-720.0
 31
0.0
  0
ARC
  5
1E7
100
AcDbEntity
  8
Facia
 62
256
370
-1
  6
ByLayer
100
AcDbCircle
 10
-211.0
 20
-690.0
 30
0.0
 40
30.0
100
AcDbArc
 50
270.0
 51
0.0
  0
LINE
  5
1E8
100
AcDbEntity
100
AcDbLine
  8
Facia
 62
256
370
-1
  6
ByLayer
 10
-211.0
 20
-113.0
 30
0.0
 11
-510.0
 21
-113.0
 31
0.0
  0
LINE
  5
1E9
100
AcDbEntity
100
AcDbLine
  8
Facia
 62
256
370
-1
  6
ByLayer
 10
-181.0
 20
-690.0
 30
0.0
 11
-181.0
 21
-143.0
 31
0.0
  0
ARC
  5
1EA
100
AcDbEntity
  8
Facia
 62
256
370
-1
  6
ByLayer
100
AcDbCircle
 10
-211.0
 20
-143.0
 30
0.0
 40
30.0
100
AcDbArc
 50
0.0
 51
90.0
  0
LINE
  5
1EB
100
AcDbEntity
100
AcDbLine
  8
Chassis
 62
256
370
-1
  6
ByLayer
 10
981.0
 20
-721.0
 30
0.0
 11
961.0
 21
-721.0
 31
0.0
  0
LINE
  5
1EC
100
AcDbEntity
100
AcDbLine
  8
Chassis
 62
256
370
-1
  6
ByLayer
 10
961.0
 20
-721.0
 30
0.0
 11
961.0
 21
-112.0
 31
0.0
  0
LINE
  5
1ED
100
AcDbEntity
100
AcDbLine
  8
Chassis
 62
256
370
-1
  6
ByLayer
 10
961.0
 20
-112.0
 30
0.0
 11
981.0
 21
-112.0
 31
0.0
  0
LINE
  5
1EE
100
AcDbEntity
100
AcDbLine
  8
Chassis
 62
256
370
-1
  6
ByLayer
 10
981.0
 20
-112.0
 30
0.0
 11
981.0
 21
-721.0
 31
0.0
  0
LINE
  5
1EF
100
AcDbEntity
100
AcDbLine
  8
Chassis
 62
256
370
-1
  6
ByLayer
 10
981.0
 20
-112.0
 30
0.0
 11
981.0
 21
-721.0
 31
0.0
  0
LINE
  5
1F0
100
AcDbEntity
100
AcDbLine
  8
Fittings
 62
256
370
-1
  6
ByLayer
 10
984.0
 20
-331.0
 30
0.0
 11
981.0
 21
-331.0
 31
0.0
  0
LINE
  5
1F1
100
AcDbEntity
100
AcDbLine
  8
Fittings
 62
256
370
-1
  6
ByLayer
 10
981.0
 20
-331.0
 30
0.0
 11
981.0
 21
-369.0
 31
0.0
  0
LINE
  5
1F2
100
AcDbEntity
100
AcDbLine
  8
Fittings
 62
256
370
-1
  6
ByLayer
 10
981.0
 20
-369.0
 30
0.0
 11
984.0
 21
-369.0
 31
0.0
  0
LINE
  5
1F3
100
AcDbEntity
100
AcDbLine
  8
Fittings
 62
256
370
-1
  6
ByLayer
 10
984.0
 20
-369.0
 30
0.0
 11
984.0
 21
-331.0
 31
0.0
  0
CIRCLE
  5
1F4
100
AcDbEntity
100
AcDbCircle
  8
Fittings
 62
256
370
-1
  6
ByLayer
 10
987.0
 20
-350.0
 30
0.0
 40
2.5
  0
LINE
  5
1F5
100
AcDbEntity
100
AcDbLine
  8
Chassis
 62
256
370
-1
  6
ByLayer
 10
961.0
 20
491.0
 30
0.0
 11
981.0
 21
491.0
 31
0.0
  0
LINE
  5
1F6
100
AcDbEntity
100
AcDbLine
  8
Chassis
 62
256
370
-1
  6
ByLayer
 10
981.0
 20
491.0
 30
0.0
 11
981.0
 21
511.0
 31
0.0
  0
LINE
  5
1F7
100
AcDbEntity
100
AcDbLine
  8
Chassis
 62
256
370
-1
  6
ByLayer
 10
981.0
 20
511.0
 30
0.0
 11
961.0
 21
511.0
 31
0.0
  0
LINE
  5
1F8
100
AcDbEntity
100
AcDbLine
  8
Chassis
 62
256
370
-1
  6
ByLayer
 10
961.0
 20
511.0
 30
0.0
 11
961.0
 21
491.0
 31
0.0
  0
LINE
  5
1F9
100
AcDbEntity
100
AcDbLine
  8
Fittings
 62
256
370
-1
  6
ByLayer
 10
981.0
 20
445.0
 30
0.0
 11
981.0
 21
360.0
 31
0.0
  0
LINE
  5
1FA
100
AcDbEntity
100
AcDbLine
  8
Fittings
 62
256
370
-1
  6
ByLayer
 10
981.0
 20
360.0
 30
0.0
 11
983.0
 21
360.0
 31
0.0
  0
LINE
  5
1FB
100
AcDbEntity
100
AcDbLine
  8
Fittings
 62
256
370
-1
  6
ByLayer
 10
983.0
 20
360.0
 30
0.0
 11
983.0
 21
445.0
 31
0.0
  0
LINE
  5
1FC
100
AcDbEntity
100
AcDbLine
  8
Fittings
 62
256
370
-1
  6
ByLayer
 10
983.0
 20
445.0
 30
0.0
 11
981.0
 21
445.0
 31
0.0
  0
LINE
  5
1FD
100
AcDbEntity
100
AcDbLine
  8
Fittings
 62
256
370
-1
  6
ByLayer
 10
987.0
 20
414.0
 30
0.0
 11
983.0
 21
414.0
 31
0.0
  0
LINE
  5
1FE
100
AcDbEntity
100
AcDbLine
  8
Fittings
 62
256
370
-1
  6
ByLayer
 10
987.0
 20
415.0
 30
0.0
 11
983.0
 21
416.0
 31
0.0
  0
LINE
  5
1FF
100
AcDbEntity
100
AcDbLine
  8
Fittings
 62
256
370
-1
  6
ByLayer
 10
987.0
 20
416.0
 30
0.0
 11
983.0
 21
417.0
 31
0.0
  0
LINE
  5
200
100
AcDbEntity
100
AcDbLine
  8
Fittings
 62
256
370
-1
  6
ByLayer
 10
987.0
 20
417.0
 30
0.0
 11
983.0
 21
418.0
 31
0.0
  0
LINE
  5
201
100
AcDbEntity
100
AcDbLine
  8
Fittings
 62
256
370
-1
  6
ByLayer
 10
987.0
 20
418.0
 30
0.0
 11
983.0000000000001137
 21
419.0
 31
0.0
  0
LINE
  5
202
100
AcDbEntity
100
AcDbLine
  8
Fittings
 62
256
370
-1
  6
ByLayer
 10
987.0
 20
419.0
 30
0.0
 11
983.0
 21
420.0
 31
0.0
  0
LINE
  5
203
100
AcDbEntity
100
AcDbLine
  8
Fittings
 62
256
370
-1
  6
ByLayer
 10
987.0
 20
420.0
 30
0.0
 11
983.0
 21
421.0
 31
0.0
  0
LINE
  5
204
100
AcDbEntity
100
AcDbLine
  8
Fittings
 62
256
370
-1
  6
ByLayer
 10
987.0
 20
421.0
 30
0.0
 11
983.0
 21
422.0
 31
0.0
  0
LINE
  5
205
100
AcDbEntity
100
AcDbLine
  8
Fittings
 62
256
370
-1
  6
ByLayer
 10
987.0
 20
422.0
 30
0.0
 11
983.0
 21
423.0
 31
0.0
  0
LINE
  5
206
100
AcDbEntity
100
AcDbLine
  8
Fittings
 62
256
370
-1
  6
ByLayer
 10
987.0
 20
423.0
 30
0.0
 11
982.9999999999998863
 21
424.0
 31
0.0
  0
LINE
  5
207
100
AcDbEntity
100
AcDbLine
  8
Fittings
 62
256
370
-1
  6
ByLayer
 10
987.0
 20
424.0
 30
0.0
 11
982.9999999999998863
 21
424.0
 31
0.0
  0
LINE
  5
208
100
AcDbEntity
100
AcDbLine
  8
Fittings
 62
256
370
-1
  6
ByLayer
 10
987.0
 20
415.0
 30
0.0
 11
983.0
 21
415.0
 31
0.0
  0
MTEXT
  5
209
100
AcDbEntity
100
AcDbMText
  8
0
 62
256
370
-1
  6
ByLayer
 10
-500.7931832894496438
 20
360.5370381944985638
 30
0.0
 40
50.0
 41
100.0
 71
1
 72
2
  1
Kitchen\~Unit
  7
cyrillic_ii
 50
0.0
 73
1
 44
1.0
  0
LINE
  5
20A
100
AcDbEntity
100
AcDbLine
  8
Dimensions
 62
256
370
-1
  6
ByLayer
 10
-746.0875521692030361
 20
735.6770281854467157
 30
0.0
 11
1204.1506074544811327
 21
735.6770281854467157
 31
0.0
  0
LINE
  5
20B
100
AcDbEntity
100
AcDbLine
  8
Dimensions
 62
256
370
-1
  6
ByLayer
 10
1204.1506074544811327
 20
735.6770281854467157
 30
0.0
 11
1204.1506074544811327
 21
-961.238381166833733
 31
0.0
  0
LINE
  5
20C
100
AcDbEntity
100
AcDbLine
  8
Dimensions
 62
256
370
-1
  6
ByLayer
 10
1204.1506074544811327
 20
-961.238381166833733
 30
0.0
 11
-746.0875521692030361
 21
-961.238381166833733
 31
0.0
  0
LINE
  5
20D
100
AcDbEntity
100
AcDbLine
  8
Dimensions
 62
256
370
-1
  6
ByLayer
 10
-746.0875521692030361
 20
-961.238381166833733
 30
0.0
 11
-746.0875521692030361
 21
735.6770281854467157
 31
0.0
  0
DIMENSION
  5
20E
100
AcDbEntity
  8
Dimensions
 62
256
370
-1
  6
ByLayer
100
AcDbDimension
 10
1000.0
 20
600.0
 30
0.0
 11
550.0
 21
605.0
 31
0.0
 70
0
 71
5
 72
1
 41
1.0
 42
0.0
  1

  3
Standard
100
AcDbAlignedDimension
 13
100.0
 23
520.0
 33
0.0
 14
1000.0
 24
520.0
 34
0.0
 50
0.0
100
AcDbRotatedDimension
  0
DIMENSION
  5
20F
100
AcDbEntity
  8
Dimensions
 62
256
370
-1
  6
ByLayer
100
AcDbDimension
 10
10.0
 20
100.0000000000000142
 30
0.0
 11
5.0000000000000107
 21
310.0000000000000568
 31
0.0
 70
0
 71
5
 72
1
 41
1.0
 42
0.0
  1

  3
Standard
100
AcDbAlignedDimension
 13
100.0
 23
520.0
 33
0.0
 14
100.0
 24
100.0
 34
0.0
 50
90.0
100
AcDbRotatedDimension
  0
DIMENSION
  5
210
100
AcDbEntity
  8
Dimensions
 62
256
370
-1
  6
ByLayer
100
AcDbDimension
 10
640.0
 20
380.0
 30
0.0
 11
375.0
 21
385.0
 31
0.0
 70
0
 71
5
 72
1
 41
1.0
 42
0.0
  1

  3
Standard
100
AcDbAlignedDimension
 13
110.0
 23
330.0
 33
0.0
 14
640.0
 24
330.0
 34
0.0
 50
0.0
100
AcDbRotatedDimension
  0
DIMENSION
  5
211
100
AcDbEntity
  8
Dimensions
 62
256
370
-1
  6
ByLayer
100
AcDbDimension
 10
650.0
 20
460.0
 30
0.0
 11
815.0
 21
465.0
 31
0.0
 70
0
 71
5
 72
1
 41
1.0
 42
0.0
  1

  3
Standard
100
AcDbAlignedDimension
 13
980.0
 23
460.0
 33
0.0
 14
650.0
 24
470.0
 34
0.0
 50
0.0
100
AcDbRotatedDimension
  0
DIMENSION
  5
212
100
AcDbEntity
  8
Dimensions
 62
256
370
-1
  6
ByLayer
100
AcDbDimension
 10
500.0
 20
170.0
 30
0.0
 11
495.0
 21
340.0
 31
0.0
 70
0
 71
5
 72
1
 41
1.0
 42
0.0
  1

  3
Standard
100
AcDbAlignedDimension
 13
530.0
 23
510.0
 33
0.0
 14
530.0
 24
170.0
 34
0.0
 50
90.0
100
AcDbRotatedDimension
  0
DIMENSION
  5
213
100
AcDbEntity
  8
Dimensions
 62
256
370
-1
  6
ByLayer
100
AcDbDimension
 10
230.0
 20
120.0
 30
0.0
 11
225.0
 21
315.0
 31
0.0
 70
0
 71
5
 72
1
 41
1.0
 42
0.0
  1

  3
Standard
100
AcDbAlignedDimension
 13
250.0
 23
510.0
 33
0.0
 14
250.0
 24
120.0
 34
0.0
 50
90.0
100
AcDbRotatedDimension
  0
DIMENSION
  5
214
100
AcDbEntity
  8
Dimensions
 62
256
370
-1
  6
ByLayer
100
AcDbDimension
 10
700.0
 20
120.0
 30
0.0
 11
695.0
 21
315.0
 31
0.0
 70
0
 71
5
 72
1
 41
1.0
 42
0.0
  1

  3
Standard
100
AcDbAlignedDimension
 13
690.0
 23
510.0
 33
0.0
 14
690.0
 24
120.0
 34
0.0
 50
90.0
100
AcDbRotatedDimension
  0
DIMENSION
  5
215
100
AcDbEntity
  8
Dimensions
 62
256
370
-1
  6
ByLayer
100
AcDbDimension
 10
721.4863013698629857
 20
378.5136986301368438
 30
0.0
 11
828.189946952981245
 21
302.0480317659230423
 31
0.0
 70
4
 71
5
 72
1
 41
1.0
 42
0.0
  1

  3
Standard
100
AcDbRadialDimension
 15
928.7632985212285348
 25
217.6817639567661047
 35
0.0
 40
0.0
  0
DIMENSION
  5
216
100
AcDbEntity
  8
Dimensions
 62
256
370
-1
  6
ByLayer
100
AcDbDimension
 10
719.9868421052632357
 20
380.0131578947368212
 30
0.0
 11
853.8649926451183774
 21
353.0190776496682474
 31
0.0
 70
4
 71
5
 72
1
 41
1.0
 42
0.0
  1

  3
Standard
100
AcDbRadialDimension
 15
985.4090459132885371
 25
316.3012126514126408
 35
0.0
 40
0.0
  0
DIMENSION
  5
217
100
AcDbEntity
  8
Dimensions
 62
256
370
-1
  6
ByLayer
100
AcDbDimension
 10
720.0
 20
380.0
 30
0.0
 11
754.9279702259193527
 21
242.8685415526499298
 31
0.0
 70
4
 71
5
 72
1
 41
1.0
 42
0.0
  1

  3
Standard
100
AcDbRadialDimension
 15
780.0841768126108491
 25
103.612786661989503
 35
0.0
 40
0.0
  0
DIMENSION
  5
218
100
AcDbEntity
  8
Dimensions
 62
256
370
-1
  6
ByLayer
100
AcDbDimension
 10
1000.0
 20
-790.0
 30
0.0
 11
550.0
 21
-785.0
 31
0.0
 70
0
 71
5
 72
1
 41
1.0
 42
0.0
  1

  3
Standard
100
AcDbAlignedDimension
 13
100.0
 23
-730.0
 33
0.0
 14
1000.0
 24
-730.0
 34
0.0
 50
0.0
100
AcDbRotatedDimension
  0
DIMENSION
  5
219
100
AcDbEntity
  8
Dimensions
 62
256
370
-1
  6
ByLayer
100
AcDbDimension
 10
609.0
 20
-564.0
 30
0.0
 11
500.0
 21
-559.0
 31
0.0
 70
0
 71
5
 72
1
 41
1.0
 42
0.0
  1

  3
Standard
100
AcDbAlignedDimension
 13
391.0
 23
-570.0
 33
0.0
 14
609.0
 24
-570.0
 34
0.0
 50
0.0
100
AcDbRotatedDimension
  0
DIMENSION
  5
21A
100
AcDbEntity
  8
Dimensions
 62
256
370
-1
  6
ByLayer
100
AcDbDimension
 10
140.0
 20
-564.0
 30
0.0
 11
249.0
 21
-559.0
 31
0.0
 70
0
 71
5
 72
1
 41
1.0
 42
0.0
  1

  3
Standard
100
AcDbAlignedDimension
 13
358.0
 23
-564.0
 33
0.0
 14
140.0
 24
-564.0
 34
0.0
 50
0.0
100
AcDbRotatedDimension
  0
DIMENSION
  5
21B
100
AcDbEntity
  8
Dimensions
 62
256
370
-1
  6
ByLayer
100
AcDbDimension
 10
390.0
 20
-564.0
 30
0.0
 11
374.5
 21
-559.0
 31
0.0
 70
0
 71
5
 72
1
 41
1.0
 42
0.0
  1

  3
Standard
100
AcDbAlignedDimension
 13
359.0
 23
-564.0
 33
0.0
 14
390.0
 24
-564.0
 34
0.0
 50
0.0
100
AcDbRotatedDimension
  0
DIMENSION
  5
21C
100
AcDbEntity
  8
Dimensions
 62
256
370
-1
  6
ByLayer
100
AcDbDimension
 10
109.0
 20
-537.0
 30
0.0
 11
124.0
 21
-532.0
 31
0.0
 70
0
 71
5
 72
1
 41
1.0
 42
0.0
  1

  3
Standard
100
AcDbAlignedDimension
 13
139.0
 23
-564.0
 33
0.0
 14
109.0
 24
-564.0
 34
0.0
 50
0.0
100
AcDbRotatedDimension
  0
DIMENSION
  5
21D
100
AcDbEntity
  8
Dimensions
 62
256
370
-1
  6
ByLayer
100
AcDbDimension
 10
679.0
 20
-564.0
 30
0.0
 11
644.5
 21
-559.0
 31
0.0
 70
0
 71
5
 72
1
 41
1.0
 42
0.0
  1

  3
Standard
100
AcDbAlignedDimension
 13
610.0
 23
-564.0
 33
0.0
 14
679.0
 24
-564.0
 34
0.0
 50
0.0
100
AcDbRotatedDimension
  0
DIMENSION
  5
21E
100
AcDbEntity
  8
Dimensions
 62
256
370
-1
  6
ByLayer
100
AcDbDimension
 10
1100.0
 20
-100.0000000000000142
 30
0.0
 11
1095.0
 21
-415.0
 31
0.0
 70
0
 71
5
 72
1
 41
1.0
 42
0.0
  1

  3
Standard
100
AcDbAlignedDimension
 13
1000.0
 23
-730.0
 33
0.0
 14
1000.0
 24
-100.0
 34
0.0
 50
90.0
100
AcDbRotatedDimension
  0
DIMENSION
  5
21F
100
AcDbEntity
  8
Dimensions
 62
256
370
-1
  6
ByLayer
100
AcDbDimension
 10
-600.0
 20
-730.0
 30
0.0
 11
-605.0
 21
-415.0
 31
0.0
 70
0
 71
5
 72
1
 41
1.0
 42
0.0
  1

  3
Standard
100
AcDbAlignedDimension
 13
-520.0
 23
-100.0
 33
0.0
 14
-520.0
 24
-730.0
 34
0.0
 50
90.0
100
AcDbRotatedDimension
  0
DIMENSION
  5
220
100
AcDbEntity
  8
Dimensions
 62
256
370
-1
  6
ByLayer
100
AcDbDimension
 10
-100.0
 20
-800.0
 30
0.0
 11
-310.0
 21
-795.0
 31
0.0
 70
0
 71
5
 72
1
 41
1.0
 42
0.0
  1

  3
Standard
100
AcDbAlignedDimension
 13
-520.0
 23
-730.0
 33
0.0
 14
-100.0
 24
-730.0
 34
0.0
 50
0.0
100
AcDbRotatedDimension
  0
DIMENSION
  5
221
100
AcDbEntity
  8
Dimensions
 62
256
370
-1
  6
ByLayer
100
AcDbDimension
 10
295.0
 20
-350.0
 30
0.0
 11
271.6814698972288511
 21
-357.5661188099417132
 31
0.0
 70
4
 71
5
 72
1
 41
1.0
 42
0.0
  1

  3
Standard
100
AcDbRadialDimension
 15
281.9763528681331195
 25
-357.4420840753525113
 35
0.0
 40
0.0
  0
DIMENSION
  5
222
100
AcDbEntity
  8
Dimensions
 62
256
370
-1
  6
ByLayer
100
AcDbDimension
 10
455.0
 20
-350.0
 30
0.0
 11
479.1403939630167201
 21
-354.2709927780721841
 31
0.0
 70
4
 71
5
 72
1
 41
1.0
 42
0.0
  1

  3
Standard
100
AcDbRadialDimension
 15
468.9271503632788836
 25
-355.5708601453115421
 35
0.0
 40
0.0
  0
DIMENSION
  5
223
100
AcDbEntity
  8
Dimensions
 62
256
370
-1
  6
ByLayer
100
AcDbDimension
 10
-260.0
 20
-325.0
 30
0.0
 11
-217.5
 21
-320.0
 31
0.0
 70
0
 71
5
 72
0
 41
1.0
 42
0.0
  1

  3
Standard
100
AcDbAlignedDimension
 13
-175.0
 23
-350.0
 33
0.0
 14
-260.0
 24
-350.0
 34
0.0
 50
0.0
100
AcDbRotatedDimension
  0
DIMENSION
  5
224
100
AcDbEntity
  8
Dimensions
 62
256
370
-1
  6
ByLayer
100
AcDbDimension
 10
-196.0
 20
-339.0
 30
0.0
 11
-201.0
 21
-334.0
 31
0.0
 70
0
 71
5
 72
0
 41
1.0
 42
0.0
  1

  3
Standard
100
AcDbAlignedDimension
 13
-206.0
 23
-350.0
 33
0.0
 14
-196.0
 24
-350.0
 34
0.0
 50
0.0
100
AcDbRotatedDimension
  0
DIMENSION
  5
225
100
AcDbEntity
  8
Dimensions
 62
256
370
-1
  6
ByLayer
100
AcDbDimension
 10
-184.0
 20
-367.0
 30
0.0
 11
-188.0
 21
-362.0
 31
0.0
 70
0
 71
5
 72
0
 41
1.0
 42
0.0
  1

  3
Standard
100
AcDbAlignedDimension
 13
-192.0
 23
-350.0
 33
0.0
 14
-184.0
 24
-350.0
 34
0.0
 50
0.0
100
AcDbRotatedDimension
  0
DIMENSION
  5
226
100
AcDbEntity
  8
Dimensions
 62
256
370
-1
  6
ByLayer
100
AcDbDimension
 10
-167.0
 20
-352.0
 30
0.0
 11
-172.0
 21
-350.0
 31
0.0
 70
0
 71
5
 72
0
 41
1.0
 42
0.0
  1

  3
Standard
100
AcDbAlignedDimension
 13
-187.0
 23
-348.0
 33
0.0
 14
-187.0
 24
-352.0
 34
0.0
 50
90.0
100
AcDbRotatedDimension
  0
DIMENSION
  5
227
100
AcDbEntity
  8
Dimensions
 62
256
370
-1
  6
ByLayer
100
AcDbDimension
 10
-153.0
 20
-345.0
 30
0.0
 11
-158.0
 21
-350.0
 31
0.0
 70
0
 71
5
 72
0
 41
1.0
 42
0.0
  1

  3
Standard
100
AcDbAlignedDimension
 13
-186.0
 23
-355.0
 33
0.0
 14
-186.0
 24
-345.0
 34
0.0
 50
90.0
100
AcDbRotatedDimension
  0
DIMENSION
  5
228
100
AcDbEntity
  8
Dimensions
 62
256
370
-1
  6
ByLayer
100
AcDbDimension
 10
-268.0
 20
-369.0
 30
0.0
 11
-273.0
 21
-350.0
 31
0.0
 70
0
 71
5
 72
0
 41
1.0
 42
0.0
  1

  3
Standard
100
AcDbAlignedDimension
 13
-249.0
 23
-331.0
 33
0.0
 14
-249.0
 24
-369.0
 34
0.0
 50
90.0
100
AcDbRotatedDimension
  0
DIMENSION
  5
229
100
AcDbEntity
  8
Dimensions
 62
256
370
-1
  6
ByLayer
100
AcDbDimension
 10
-223.3906405119501812
 20
-340.5014331461410393
 30
0.0
 11
-238.1661889512863013
 21
-346.1302135039833843
 31
0.0
 70
3
 71
5
 72
0
 41
1.0
 42
0.0
  1

  3
Standard
100
AcDbDiametricDimension
 15
-246.6093594880498188
 25
-359.4985668538589607
 35
0.0
 40
0.0
  0
DIMENSION
  5
22A
100
AcDbEntity
  8
Dimensions
 62
256
370
-1
  6
ByLayer
100
AcDbDimension
 10
-175.0
 20
-379.0
 30
0.0
 11
-185.5
 21
-374.0
 31
0.0
 70
0
 71
5
 72
0
 41
1.0
 42
0.0
  1

  3
Standard
100
AcDbAlignedDimension
 13
-196.0
 23
-350.0
 33
0.0
 14
-175.0
 24
-350.0
 34
0.0
 50
0.0
100
AcDbRotatedDimension
  0
DIMENSION
  5
22B
100
AcDbEntity
  8
Dimensions
 62
256
370
-1
  6
ByLayer
100
AcDbDimension
 10
-109.0
 20
-457.0
 30
0.0
 11
-144.5
 21
-452.0
 31
0.0
 70
0
 71
5
 72
1
 41
1.0
 42
0.0
  1

  3
Standard
100
AcDbAlignedDimension
 13
-180.0
 23
-466.0
 33
0.0
 14
-109.0
 24
-466.0
 34
0.0
 50
0.0
100
AcDbRotatedDimension
  0
DIMENSION
  5
22C
100
AcDbEntity
  8
Dimensions
 62
256
370
-1
  6
ByLayer
100
AcDbDimension
 10
713.0
 20
520.0
 30
0.0
 11
708.0
 21
450.0
 31
0.0
 70
0
 71
5
 72
1
 41
1.0
 42
0.0
  1

  3
Standard
100
AcDbAlignedDimension
 13
720.0
 23
380.0
 33
0.0
 14
720.0
 24
520.0
 34
0.0
 50
90.0
100
AcDbRotatedDimension
  0
ENDSEC
  0
SECTION
  2
OBJECTS
  0
DICTIONARY
  5
C
100
AcDbDictionary
280
0
281
1
  3
ACAD_GROUP
350
D
  3
ACAD_LAYOUT
350
1A
  3
ACAD_MLINESTYLE
350
17
  3
ACAD_PLOTSETTINGS
350
19
  3
ACAD_PLOTSTYLENAME
350
E
  3
AcDbVariableDictionary
350
22D
  0
DICTIONARY
  5
D
100
AcDbDictionary
280
0
281
1
  0
ACDBDICTIONARYWDFLT
  5
E
100
AcDbDictionary
281
1
  3
Normal
350
F
100
AcDbDictionaryWithDefault
340
F
  0
ACDBPLACEHOLDER
  5
F
  0
DICTIONARY
  5
17
100
AcDbDictionary
280
0
281
1
  3
Standard
350
18
  0
MLINESTYLE
  5
18
100
AcDbMlineStyle
  2
STANDARD
 70
0
  3

 62
256
 51
90.0
 52
90.0
 71
2
 49
0.5
 62
256
  6
BYLAYER
 49
-0.5
 62
256
  6
BYLAYER
  0
DICTIONARY
  5
19
100
AcDbDictionary
280
0
281
1
  0
DICTIONARY
  5
1A
100
AcDbDictionary
281
1
  3
Layout1
350
1E
  3
Layout2
350
26
  3
Model
350
22
  0
LAYOUT
  5
1E
100
AcDbPlotSettings
  1

  2
C:\Program Files\AutoCAD 2002\plotters\DWF ePlot (optimized for plotting).pc3
  4

  6

 40
0.0
 41
0.0
 42
0.0
 43
0.0
 44
0.0
 45
0.0
 46
0.0
 47
0.0
 48
0.0
 49
0.0
140
0.0
141
0.0
142
1.0
143
1.0
 70
688
 72
0
 73
0
 74
5
  7

 75
16
147
1.0
148
0.0
149
0.0
100
AcDbLayout
  1
Layout1
 70
1
 71
1
 10
0.0
 20
0.0
 11
420.0
 21
297.0
 12
0.0
 22
0.0
 32
0.0
 14
100000000000000000000.0
 24
100000000000000000000.0
 34
100000000000000000000.0
 15
-100000000000000000000.0
 25
-100000000000000000000.0
 35
-100000000000000000000.0
146
0.0
 13
0.0
 23
0.0
 33
0.0
 16
1.0
 26
0.0
 36
0.0
 17
0.0
 27
1.0
 37
0.0
 76
0
330
1B
  0
LAYOUT
  5
22
100
AcDbPlotSettings
  1

  2
C:\Program Files\AutoCAD 2002\plotters\DWF ePlot (optimized for plotting).pc3
  4

  6

 40
0.0
 41
0.0
 42
0.0
 43
0.0
 44
0.0
 45
0.0
 46
0.0
 47
0.0
 48
0.0
 49
0.0
140
0.0
141
0.0
142
1.0
143
1.0
 70
1712
 72
0
 73
0
 74
0
  7

 75
0
147
1.0
148
0.0
149
0.0
100
AcDbLayout
  1
Model
 70
1
 71
0
 10
0.0
 20
0.0
 11
12.0
 21
9.0
 12
0.0
 22
0.0
 32
0.0
 14
0.0
 24
0.0
 34
0.0
 15
0.0
 25
0.0
 35
0.0
146
0.0
 13
0.0
 23
0.0
 33
0.0
 16
1.0
 26
0.0
 36
0.0
 17
0.0
 27
1.0
 37
0.0
 76
0
330
1F
  0
LAYOUT
  5
26
100
AcDbPlotSettings
  1

  2
C:\Program Files\AutoCAD 2002\plotters\DWF ePlot (optimized for plotting).pc3
  4

  6

 40
0.0
 41
0.0
 42
0.0
 43
0.0
 44
0.0
 45
0.0
 46
0.0
 47
0.0
 48
0.0
 49
0.0
140
0.0
141
0.0
142
1.0
143
1.0
 70
688
 72
0
 73
0
 74
5
  7

 75
16
147
1.0
148
0.0
149
0.0
100
AcDbLayout
  1
Layout2
 70
1
 71
2
 10
0.0
 20
0.0
 11
12.0
 21
9.0
 12
0.0
 22
0.0
 32
0.0
 14
0.0
 24
0.0
 34
0.0
 15
0.0
 25
0.0
 35
0.0
146
0.0
 13
0.0
 23
0.0
 33
0.0
 16
1.0
 26
0.0
 36
0.0
 17
0.0
 27
1.0
 37
0.0
 76
0
330
23
  0
DICTIONARY
  5
22D
100
AcDbDictionary
281
1
  3
DIMASSOC
350
22F
  3
HIDETEXT
350
22E
  0
DICTIONARYVAR
  5
22E
100
DictionaryVariables
280
0
  1
2
  0
DICTIONARYVAR
  5
22F
100
DictionaryVariables
280
0
  1
1
  0
ENDSEC
  0
EOF
