999
dxfrw 0.6.1
  0
SECTION
  2
HEADER
  9
$ACADVER
  1
AC1021
  9
$DWGCODEPAGE
  3
ANSI_1252
  9
$INSBASE
 10
0
 20
0
 30
0
  9
$EXTMIN
 10
0
 20
-103.125
 30
0
  9
$EXTMAX
 10
573.125
 20
100
 30
0
  9
$LIMMIN
 10
0
 20
0
  9
$LIMMAX
 10
420
 20
297
  9
$ORTHOMODE
 70
    0
  9
$REGENMODE
 70
    1
  9
$FILLMODE
 70
    1
  9
$QTEXTMODE
 70
    0
  9
$MIRRTEXT
 70
    0
  9
$LTSCALE
 40
1
  9
$ATTMODE
 70
    0
  9
$TEXTSIZE
 40
2.5
  9
$TRACEWID
 40
15.68
  9
$TEXTSTYLE
  7
STANDARD
  9
$CLAYER
  8
Dimms
  9
$CELTYPE
  6
BYLAYER
  9
$CECOLOR
 62
  256
  9
$CELTSCALE
 40
1
  9
$DISPSILH
 70
    0
  9
$DIMSCALE
 40
2.5
  9
$DIMASZ
 40
2.5
  9
$DIMEXO
 40
0.625
  9
$DIMDLI
 40
3.75
  9
$DIMRND
 40
0
  9
$DIMDLE
 40
0
  9
$DIMEXE
 40
1.25
  9
$DIMTP
 40
0
  9
$DIMTM
 40
0
  9
$DIMTXT
 40
2.5
  9
$DIMCEN
 40
2.5
  9
$DIMTSZ
 40
0
  9
$DIMTOL
 70
    0
  9
$DIMLIM
 70
    0
  9
$DIMTIH
 70
    0
  9
$DIMTOH
 70
    0
  9
$DIMSE1
 70
    0
  9
$DIMSE2
 70
    0
  9
$DIMTAD
 70
    1
  9
$DIMZIN
 70
    8
  9
$DIMBLK
  1

  9
$DIMASO
 70
    1
  9
$DIMSHO
 70
    1
  9
$DIMPOST
  1

  9
$DIMAPOST
  1

  9
$DIMALT
 70
    0
  9
$DIMALTD
 70
    3
  9
$DIMALTF
 40
0.03937
  9
$DIMLFAC
 40
1
  9
$DIMTOFL
 70
    1
  9
$DIMTVP
 40
0
  9
$DIMTIX
 70
    0
  9
$DIMSOXD
 70
    0
  9
$DIMSAH
 70
    0
  9
$DIMBLK1
  1

  9
$DIMBLK2
  1

  9
$DIMSTYLE
  2
STANDARD
  9
$DIMCLRD
 70
    0
  9
$DIMCLRE
 70
    0
  9
$DIMCLRT
 70
    0
  9
$DIMTFAC
 40
1
  9
$DIMGAP
 40
0.625
  9
$DIMJUST
 70
    0
  9
$DIMSD1
 70
    0
  9
$DIMSD2
 70
    0
  9
$DIMTOLJ
 70
    0
  9
$DIMTZIN
 70
    8
  9
$DIMALTZ
 70
    0
  9
$DIMALTTZ
 70
    0
  9
$DIMUPT
 70
    0
  9
$DIMDEC
 70
    2
  9
$DIMTDEC
 70
    2
  9
$DIMALTU
 70
    2
  9
$DIMALTTD
 70
    3
  9
$DIMTXSTY
  7
STANDARD
  9
$DIMAUNIT
 70
    0
  9
$DIMADEC
 70
    0
  9
$DIMALTRND
 40
0
  9
$DIMAZIN
 70
    0
  9
$DIMDSEP
 70
   44
  9
$DIMATFIT
 70
    3
  9
$DIMFRAC
 70
    0
  9
$DIMLDRBLK
  1
STANDARD
  9
$DIMLUNIT
 70
    2
  9
$DIMLWD
 70
   -2
  9
$DIMLWE
 70
   -2
  9
$DIMTMOVE
 70
    0
  9
$DIMFXL
 40
1
  9
$DIMFXLON
 70
    0
  9
$DIMJOGANG
 40
0.7854
  9
$DIMTFILL
 70
    0
  9
$DIMTFILLCLR
 70
    0
  9
$DIMARCSYM
 70
    0
  9
$DIMLTYPE
  6

  9
$DIMLTEX1
  6

  9
$DIMLTEX2
  6

  9
$LUNITS
 70
    2
  9
$LUPREC
 70
    4
  9
$SKETCHINC
 40
1
  9
$FILLETRAD
 40
0
  9
$AUNITS
 70
    0
  9
$AUPREC
 70
    2
  9
$MENU
  1
.
  9
$ELEVATION
 40
0
  9
$PELEVATION
 40
0
  9
$THICKNESS
 40
0
  9
$LIMCHECK
 70
    0
  9
$CHAMFERA
 40
0
  9
$CHAMFERB
 40
0
  9
$CHAMFERC
 40
0
  9
$CHAMFERD
 40
0
  9
$SKPOLY
 70
    0
  9
$USRTIMER
 70
    1
  9
$ANGBASE
 50
0
  9
$ANGDIR
 70
    0
  9
$PDMODE
 70
   34
  9
$PDSIZE
 40
0
  9
$PLINEWID
 40
0
  9
$SPLFRAME
 70
    0
  9
$SPLINETYPE
 70
    2
  9
$SPLINESEGS
 70
    8
  9
$HANDSEED
  5
20000
  9
$SURFTAB1
 70
    6
  9
$SURFTAB2
 70
    6
  9
$SURFTYPE
 70
    6
  9
$SURFU
 70
    6
  9
$SURFV
 70
    6
  9
$UCSBASE
  2

  9
$UCSNAME
  2

  9
$UCSORG
 10
0
 20
0
 30
0
  9
$UCSXDIR
 10
1
 20
0
 30
0
  9
$UCSYDIR
 10
0
 20
1
 30
0
  9
$UCSORTHOREF
  2

  9
$UCSORTHOVIEW
 70
    0
  9
$UCSORGTOP
 10
0
 20
0
 30
0
  9
$UCSORGBOTTOM
 10
0
 20
0
 30
0
  9
$UCSORGLEFT
 10
0
 20
0
 30
0
  9
$UCSORGRIGHT
 10
0
 20
0
 30
0
  9
$UCSORGFRONT
 10
0
 20
0
 30
0
  9
$UCSORGBACK
 10
0
 20
0
 30
0
  9
$PUCSBASE
  2

  9
$PUCSNAME
  2

  9
$PUCSORG
 10
0
 20
0
 30
0
  9
$PUCSXDIR
 10
1
 20
0
 30
0
  9
$PUCSYDIR
 10
0
 20
1
 30
0
  9
$PUCSORTHOREF
  2

  9
$PUCSORTHOVIEW
 70
    0
  9
$PUCSORGTOP
 10
0
 20
0
 30
0
  9
$PUCSORGBOTTOM
 10
0
 20
0
 30
0
  9
$PUCSORGLEFT
 10
0
 20
0
 30
0
  9
$PUCSORGRIGHT
 10
0
 20
0
 30
0
  9
$PUCSORGFRONT
 10
0
 20
0
 30
0
  9
$PUCSORGBACK
 10
0
 20
0
 30
0
  9
$USERI1
 70
    0
  9
$USERI2
 70
    0
  9
$USERI3
 70
    0
  9
$USERI4
 70
    0
  9
$USERI5
 70
    0
  9
$USERR1
 40
0
  9
$USERR2
 40
0
  9
$USERR3
 40
0
  9
$USERR4
 40
0
  9
$USERR5
 40
0
  9
$WORLDVIEW
 70
    1
  9
$SHADEDGE
 70
    3
  9
$SHADEDIF
 70
   70
  9
$TILEMODE
 70
    1
  9
$MAXACTVP
 70
   64
  9
$PINSBASE
 10
-334.3872100802864
 20
109.6300735950045
 30
0
  9
$PLIMCHECK
 70
    0
  9
$PEXTMIN
 10
0
 20
0
 30
0
  9
$PEXTMAX
 10
0
 20
0
 30
0
  9
$GRIDMODE
 70
    1
  9
$SNAPSTYLE
 70
    0
  9
$PLIMMIN
 10
0
 20
0
  9
$PLIMMAX
 10
297
 20
210
  9
$UNITMODE
 70
    0
  9
$VISRETAIN
 70
    1
  9
$PLINEGEN
 70
    0
  9
$PSLTSCALE
 70
    1
  9
$TREEDEPTH
 70
 3020
  9
$CMLSTYLE
  2
Standard
  9
$CMLJUST
 70
    0
  9
$CMLSCALE
 40
20
  9
$PROXYGRAPHICS
 70
    1
  9
$MEASUREMENT
 70
    1
  9
$CELWEIGHT
370
   -1
  9
$ENDCAPS
280
    0
  9
$JOINSTYLE
280
    0
  9
$LWDISPLAY
290
    0
  9
$INSUNITS
 70
    4
  9
$HYPERLINKBASE
  1

  9
$STYLESHEET
  1

  9
$XEDIT
290
    1
  9
$CEPSNTYPE
380
    0
  9
$PSTYLEMODE
290
    1
  9
$EXTNAMES
290
    1
  9
$PSVPSCALE
 40
1
  9
$OLESTARTUP
290
    0
  9
$SORTENTS
280
  127
  9
$INDEXCTL
280
    0
  9
$HIDETEXT
280
    1
  9
$XCLIPFRAME
290
    0
  9
$HALOGAP
280
    0
  9
$OBSCOLOR
 70
  257
  9
$OBSLTYPE
280
    0
  9
$INTERSECTIONDISPLAY
280
    0
  9
$INTERSECTIONCOLOR
 70
  257
  9
$DIMASSOC
280
    0
  9
$PROJECTNAME
  1

  9
$CAMERADISPLAY
290
    0
  9
$LENSLENGTH
 40
50
  9
$CAMERAHEIGHT
 40
0
  9
$STEPSPERSEC
 40
2
  9
$STEPSIZE
 40
50
  9
$3DDWFPREC
 40
2
  9
$PSOLWIDTH
 40
5
  9
$PSOLHEIGHT
 40
80
  9
$LOFTANG1
 40
1.570796326794897
  9
$LOFTANG2
 40
1.570796326794897
  9
$LOFTMAG1
 40
0
  9
$LOFTMAG2
 40
0
  9
$LOFTPARAM
 70
    7
  9
$LOFTNORMALS
280
    1
  9
$LATITUDE
 40
1
  9
$LONGITUDE
 40
1
  9
$NORTHDIRECTION
 40
0
  9
$TIMEZONE
 70
-8000
  9
$LIGHTGLYPHDISPLAY
280
    1
  9
$TILEMODELIGHTSYNCH
280
    1
  9
$SOLIDHIST
280
    1
  9
$SHOWHIST
280
    1
  9
$DWFFRAME
280
    2
  9
$DGNFRAME
280
    0
  9
$REALWORLDSCALE
290
    1
  9
$INTERFERECOLOR
 62
    1
  9
$CSHADOW
280
    0
  9
$SHADOWPLANELOCATION
 40
0
  0
ENDSEC
  0
SECTION
  2
CLASSES
  0
ENDSEC
  0
SECTION
  2
TABLES
  0
TABLE
  2
VPORT
  5
8
330
0
100
AcDbSymbolTable
 70
    1
  0
VPORT
  5
31
330
2
100
AcDbSymbolTableRecord
100
AcDbViewportTableRecord
  2
*ACTIVE
 70
    0
 10
0
 20
0
 11
1
 21
1
 12
246.0937500004744
 22
66.21093750012764
 13
0
 23
0
 14
10
 24
10
 15
10
 25
10
 16
0
 26
0
 36
1
 17
0
 27
0
 37
0
 40
271.8750000005241
 41
1.639367816091954
 42
50
 43
0
 44
0
 50
0
 51
0
 71
    0
 72
  100
 73
    1
 74
    3
 75
    0
 76
    1
 77
    0
 78
    0
281
    0
 65
    1
110
0
120
0
130
0
111
1
121
0
131
0
112
0
122
1
132
0
 79
    0
146
0
348
10020
 60
    7
 61
    5
292
1
282
    1
141
0
142
0
 63
  250
421
3358443
  0
ENDTAB
  0
TABLE
  2
LTYPE
  5
5
330
0
100
AcDbSymbolTable
 70
    4
  0
LTYPE
  5
14
330
5
100
AcDbSymbolTableRecord
100
AcDbLinetypeTableRecord
  2
ByBlock
 70
    0
  3

 72
   65
 73
    0
 40
0
  0
LTYPE
  5
15
330
5
100
AcDbSymbolTableRecord
100
AcDbLinetypeTableRecord
  2
ByLayer
 70
    0
  3

 72
   65
 73
    0
 40
0
  0
LTYPE
  5
16
330
5
100
AcDbSymbolTableRecord
100
AcDbLinetypeTableRecord
  2
Continuous
 70
    0
  3
Solid line
 72
   65
 73
    0
 40
0
  0
LTYPE
  5
32
330
5
100
AcDbSymbolTableRecord
100
AcDbLinetypeTableRecord
  2
DOT
 70
    0
  3
Dot . . . . . . . . . . . . . . . . . . . . . .
 72
   65
 73
    2
 40
6.35
 49
0
 74
    0
 49
-6.35
 74
    0
  0
LTYPE
  5
33
330
5
100
AcDbSymbolTableRecord
100
AcDbLinetypeTableRecord
  2
DOTTINY
 70
    0
  3
Dot (.15x) .....................................
 72
   65
 73
    2
 40
0.9525
 49
0
 74
    0
 49
-0.9525
 74
    0
  0
LTYPE
  5
34
330
5
100
AcDbSymbolTableRecord
100
AcDbLinetypeTableRecord
  2
DOT2
 70
    0
  3
Dot (.5x) .....................................
 72
   65
 73
    2
 40
3.175
 49
0
 74
    0
 49
-3.175
 74
    0
  0
LTYPE
  5
35
330
5
100
AcDbSymbolTableRecord
100
AcDbLinetypeTableRecord
  2
DOTX2
 70
    0
  3
Dot (2x) .  .  .  .  .  .  .  .  .  .  .  .  .
 72
   65
 73
    2
 40
12.7
 49
0
 74
    0
 49
-12.7
 74
    0
  0
LTYPE
  5
36
330
5
100
AcDbSymbolTableRecord
100
AcDbLinetypeTableRecord
  2
DASHED
 70
    0
  3
Dashed _ _ _ _ _ _ _ _ _ _ _ _ _ _ _ _ _
 72
   65
 73
    2
 40
19.05
 49
12.7
 74
    0
 49
-6.35
 74
    0
  0
LTYPE
  5
37
330
5
100
AcDbSymbolTableRecord
100
AcDbLinetypeTableRecord
  2
DASHEDTINY
 70
    0
  3
Dashed (.15x) _ _ _ _ _ _ _ _ _ _ _ _ _ _ _ _ _
 72
   65
 73
    2
 40
2.8575
 49
1.905
 74
    0
 49
-0.9525
 74
    0
  0
LTYPE
  5
38
330
5
100
AcDbSymbolTableRecord
100
AcDbLinetypeTableRecord
  2
DASHED2
 70
    0
  3
Dashed (.5x) _ _ _ _ _ _ _ _ _ _ _ _ _ _ _ _ _
 72
   65
 73
    2
 40
9.524999999999999
 49
6.35
 74
    0
 49
-3.175
 74
    0
  0
LTYPE
  5
39
330
5
100
AcDbSymbolTableRecord
100
AcDbLinetypeTableRecord
  2
DASHEDX2
 70
    0
  3
Dashed (2x) ____  ____  ____  ____  ____  ___
 72
   65
 73
    2
 40
38.09999999999999
 49
25.4
 74
    0
 49
-12.7
 74
    0
  0
LTYPE
  5
3A
330
5
100
AcDbSymbolTableRecord
100
AcDbLinetypeTableRecord
  2
DASHDOT
 70
    0
  3
Dash dot __ . __ . __ . __ . __ . __ . __ . __
 72
   65
 73
    4
 40
25.4
 49
12.7
 74
    0
 49
-6.35
 74
    0
 49
0
 74
    0
 49
-6.35
 74
    0
  0
LTYPE
  5
3B
330
5
100
AcDbSymbolTableRecord
100
AcDbLinetypeTableRecord
  2
DASHDOTTINY
 70
    0
  3
Dash dot (.15x) _._._._._._._._._._._._._._._.
 72
   65
 73
    4
 40
3.81
 49
1.905
 74
    0
 49
-0.9525
 74
    0
 49
0
 74
    0
 49
-0.9525
 74
    0
  0
LTYPE
  5
3C
330
5
100
AcDbSymbolTableRecord
100
AcDbLinetypeTableRecord
  2
DASHDOT2
 70
    0
  3
Dash dot (.5x) _._._._._._._._._._._._._._._.
 72
   65
 73
    4
 40
12.7
 49
6.35
 74
    0
 49
-3.175
 74
    0
 49
0
 74
    0
 49
-3.175
 74
    0
  0
LTYPE
  5
3D
330
5
100
AcDbSymbolTableRecord
100
AcDbLinetypeTableRecord
  2
DASHDOTX2
 70
    0
  3
Dash dot (2x) ____  .  ____  .  ____  .  ___
 72
   65
 73
    4
 40
50.8
 49
25.4
 74
    0
 49
-12.7
 74
    0
 49
0
 74
    0
 49
-12.7
 74
    0
  0
LTYPE
  5
3E
330
5
100
AcDbSymbolTableRecord
100
AcDbLinetypeTableRecord
  2
DIVIDE
 70
    0
  3
Divide ____ . . ____ . . ____ . . ____ . . ____
 72
   65
 73
    6
 40
31.75
 49
12.7
 74
    0
 49
-6.35
 74
    0
 49
0
 74
    0
 49
-6.35
 74
    0
 49
0
 74
    0
 49
-6.35
 74
    0
  0
LTYPE
  5
3F
330
5
100
AcDbSymbolTableRecord
100
AcDbLinetypeTableRecord
  2
DIVIDETINY
 70
    0
  3
Divide (.15x) __..__..__..__..__..__..__..__.._
 72
   65
 73
    6
 40
4.7625
 49
1.905
 74
    0
 49
-0.9525
 74
    0
 49
0
 74
    0
 49
-0.9525
 74
    0
 49
0
 74
    0
 49
-0.9525
 74
    0
  0
LTYPE
  5
40
330
5
100
AcDbSymbolTableRecord
100
AcDbLinetypeTableRecord
  2
DIVIDE2
 70
    0
  3
Divide (.5x) __..__..__..__..__..__..__..__.._
 72
   65
 73
    6
 40
15.875
 49
6.35
 74
    0
 49
-3.175
 74
    0
 49
0
 74
    0
 49
-3.175
 74
    0
 49
0
 74
    0
 49
-3.175
 74
    0
  0
LTYPE
  5
41
330
5
100
AcDbSymbolTableRecord
100
AcDbLinetypeTableRecord
  2
DIVIDEX2
 70
    0
  3
Divide (2x) ________  .  .  ________  .  .  _
 72
   65
 73
    6
 40
63.5
 49
25.4
 74
    0
 49
-12.7
 74
    0
 49
0
 74
    0
 49
-12.7
 74
    0
 49
0
 74
    0
 49
-12.7
 74
    0
  0
LTYPE
  5
42
330
5
100
AcDbSymbolTableRecord
100
AcDbLinetypeTableRecord
  2
BORDER
 70
    0
  3
Border __ __ . __ __ . __ __ . __ __ . __ __ .
 72
   65
 73
    6
 40
44.45
 49
12.7
 74
    0
 49
-6.35
 74
    0
 49
12.7
 74
    0
 49
-6.35
 74
    0
 49
0
 74
    0
 49
-6.35
 74
    0
  0
LTYPE
  5
43
330
5
100
AcDbSymbolTableRecord
100
AcDbLinetypeTableRecord
  2
BORDERTINY
 70
    0
  3
Border (.15x) __.__.__.__.__.__.__.__.__.__.__.
 72
   65
 73
    6
 40
6.6675
 49
1.905
 74
    0
 49
-0.9525
 74
    0
 49
1.905
 74
    0
 49
-0.9525
 74
    0
 49
0
 74
    0
 49
-0.9525
 74
    0
  0
LTYPE
  5
44
330
5
100
AcDbSymbolTableRecord
100
AcDbLinetypeTableRecord
  2
BORDER2
 70
    0
  3
Border (.5x) __.__.__.__.__.__.__.__.__.__.__.
 72
   65
 73
    6
 40
22.225
 49
6.35
 74
    0
 49
-3.175
 74
    0
 49
6.35
 74
    0
 49
-3.175
 74
    0
 49
0
 74
    0
 49
-3.175
 74
    0
  0
LTYPE
  5
45
330
5
100
AcDbSymbolTableRecord
100
AcDbLinetypeTableRecord
  2
BORDERX2
 70
    0
  3
Border (2x) ____  ____  .  ____  ____  .  ___
 72
   65
 73
    6
 40
88.89999999999999
 49
25.4
 74
    0
 49
-12.7
 74
    0
 49
25.4
 74
    0
 49
-12.7
 74
    0
 49
0
 74
    0
 49
-12.7
 74
    0
  0
LTYPE
  5
46
330
5
100
AcDbSymbolTableRecord
100
AcDbLinetypeTableRecord
  2
CENTER
 70
    0
  3
Center ____ _ ____ _ ____ _ ____ _ ____ _ ____
 72
   65
 73
    4
 40
50.8
 49
31.75
 74
    0
 49
-6.35
 74
    0
 49
6.35
 74
    0
 49
-6.35
 74
    0
  0
LTYPE
  5
47
330
5
100
AcDbSymbolTableRecord
100
AcDbLinetypeTableRecord
  2
CENTERTINY
 70
    0
  3
Center (.15x) ___ _ ___ _ ___ _ ___ _ ___ _ ___
 72
   65
 73
    4
 40
7.619999999999999
 49
4.7625
 74
    0
 49
-0.9525
 74
    0
 49
0.9525
 74
    0
 49
-0.9525
 74
    0
  0
LTYPE
  5
48
330
5
100
AcDbSymbolTableRecord
100
AcDbLinetypeTableRecord
  2
CENTER2
 70
    0
  3
Center (.5x) ___ _ ___ _ ___ _ ___ _ ___ _ ___
 72
   65
 73
    4
 40
28.575
 49
19.05
 74
    0
 49
-3.175
 74
    0
 49
3.175
 74
    0
 49
-3.175
 74
    0
  0
LTYPE
  5
49
330
5
100
AcDbSymbolTableRecord
100
AcDbLinetypeTableRecord
  2
CENTERX2
 70
    0
  3
Center (2x) ________  __  ________  __  _____
 72
   65
 73
    4
 40
101.6
 49
63.5
 74
    0
 49
-12.7
 74
    0
 49
12.7
 74
    0
 49
-12.7
 74
    0
  0
ENDTAB
  0
TABLE
  2
LAYER
  5
2
330
0
100
AcDbSymbolTable
 70
    1
  0
LAYER
  5
10
330
2
100
AcDbSymbolTableRecord
100
AcDbLayerTableRecord
  2
0
 70
    4
 62
    7
  6
CONTINUOUS
370
    0
390
F
  0
LAYER
  5
4A
330
2
100
AcDbSymbolTableRecord
100
AcDbLayerTableRecord
  2
Base
 70
    4
 62
  216
420
8388736
  6
CONTINUOUS
370
   25
390
F
  0
LAYER
  5
4B
330
2
100
AcDbSymbolTableRecord
100
AcDbLayerTableRecord
  2
Bolt
 70
    4
 62
    6
  6
CONTINUOUS
370
   25
390
F
  0
LAYER
  5
4C
330
2
100
AcDbSymbolTableRecord
100
AcDbLayerTableRecord
  2
Dimms
 70
    4
 62
    7
  6
CONTINUOUS
370
   25
390
F
  0
LAYER
  5
4D
330
2
100
AcDbSymbolTableRecord
100
AcDbLayerTableRecord
  2
GrubScrew
 70
    4
 62
   56
420
8421376
  6
CONTINUOUS
370
   25
390
F
  0
LAYER
  5
4E
330
2
100
AcDbSymbolTableRecord
100
AcDbLayerTableRecord
  2
Nut
 70
    4
 62
    5
  6
CONTINUOUS
370
   25
390
F
  0
LAYER
  5
4F
330
2
100
AcDbSymbolTableRecord
100
AcDbLayerTableRecord
  2
Rack A
 70
    4
 62
  136
420
32896
  6
CONTINUOUS
370
   25
390
F
  0
LAYER
  5
50
330
2
100
AcDbSymbolTableRecord
100
AcDbLayerTableRecord
  2
Rack B
 70
    4
 62
    4
  6
CONTINUOUS
370
   25
390
F
  0
LAYER
  5
51
330
2
100
AcDbSymbolTableRecord
100
AcDbLayerTableRecord
  2
Spacer A
 70
    4
 62
   96
420
32768
  6
CONTINUOUS
370
   25
390
F
  0
LAYER
  5
52
330
2
100
AcDbSymbolTableRecord
100
AcDbLayerTableRecord
  2
Spacer B
 70
    4
 62
    3
  6
CONTINUOUS
370
   25
390
F
  0
ENDTAB
  0
TABLE
  2
STYLE
  5
3
330
0
100
AcDbSymbolTable
 70
    3
  0
STYLE
  5
53
330
2
100
AcDbSymbolTableRecord
100
AcDbTextStyleTableRecord
  2
Standard
 70
    0
 40
0
 41
1
 50
0
 71
    0
 42
1
  3
txt
  4

  0
ENDTAB
  0
TABLE
  2
VIEW
  5
6
330
0
100
AcDbSymbolTable
 70
    0
  0
ENDTAB
  0
TABLE
  2
UCS
  5
7
330
0
100
AcDbSymbolTable
 70
    0
  0
ENDTAB
  0
TABLE
  2
APPID
  5
9
330
0
100
AcDbSymbolTable
 70
    1
  0
APPID
  5
12
330
9
100
AcDbSymbolTableRecord
100
AcDbRegAppTableRecord
  2
ACAD
 70
    0
  0
APPID
  5
54
330
9
100
AcDbSymbolTableRecord
100
AcDbRegAppTableRecord
  2
LibreCad
 70
    0
  0
ENDTAB
  0
TABLE
  2
DIMSTYLE
  5
A
330
0
100
AcDbSymbolTable
 70
    1
100
AcDbDimStyleTable
 71
    1
  0
DIMSTYLE
105
55
330
A
100
AcDbSymbolTableRecord
100
AcDbDimStyleTableRecord
  2
Standard
 70
    0
 40
1
 41
2.5
 42
0.625
 43
0.38
 44
1.25
 45
0
 46
0
 47
0
 48
0
140
2.5
141
0.09
142
0
143
25.4
144
1
145
0
146
1
147
0.625
148
0
 71
    0
 72
    0
 73
    0
 74
    1
 75
    0
 76
    0
 77
    0
 78
    0
 79
    0
170
    0
171
    2
172
    0
173
    0
174
    0
175
    0
176
    0
177
    0
178
    0
179
    0
271
    4
272
    4
273
    2
274
    2
275
    0
276
    0
277
    2
278
   46
279
    0
280
    0
281
    0
282
    0
283
    1
284
    0
285
    0
286
    0
288
    0
289
    3
340
Standard
341

371
   -2
372
   -2
  0
ENDTAB
  0
TABLE
  2
BLOCK_RECORD
  5
1
330
0
100
AcDbSymbolTable
 70
    2
  0
BLOCK_RECORD
  5
1F
330
1
100
AcDbSymbolTableRecord
100
AcDbBlockTableRecord
  2
*Model_Space
 70
    0
280
    1
281
    0
  0
BLOCK_RECORD
  5
1E
330
1
100
AcDbSymbolTableRecord
100
AcDbBlockTableRecord
  2
*Paper_Space
 70
    0
280
    1
281
    0
  0
BLOCK_RECORD
  5
56
330
1
100
AcDbSymbolTableRecord
100
AcDbBlockTableRecord
  2
*D11
 70
    0
280
    1
281
    0
  0
BLOCK_RECORD
  5
59
330
1
100
AcDbSymbolTableRecord
100
AcDbBlockTableRecord
  2
*D10
 70
    0
280
    1
281
    0
  0
BLOCK_RECORD
  5
5C
330
1
100
AcDbSymbolTableRecord
100
AcDbBlockTableRecord
  2
*D3
 70
    0
280
    1
281
    0
  0
BLOCK_RECORD
  5
5F
330
1
100
AcDbSymbolTableRecord
100
AcDbBlockTableRecord
  2
*D6
 70
    0
280
    1
281
    0
  0
BLOCK_RECORD
  5
62
330
1
100
AcDbSymbolTableRecord
100
AcDbBlockTableRecord
  2
*D9
 70
    0
280
    1
281
    0
  0
BLOCK_RECORD
  5
65
330
1
100
AcDbSymbolTableRecord
100
AcDbBlockTableRecord
  2
*D4
 70
    0
280
    1
281
    0
  0
BLOCK_RECORD
  5
68
330
1
100
AcDbSymbolTableRecord
100
AcDbBlockTableRecord
  2
*D7
 70
    0
280
    1
281
    0
  0
BLOCK_RECORD
  5
6B
330
1
100
AcDbSymbolTableRecord
100
AcDbBlockTableRecord
  2
*D2
 70
    0
280
    1
281
    0
  0
BLOCK_RECORD
  5
6E
330
1
100
AcDbSymbolTableRecord
100
AcDbBlockTableRecord
  2
*D5
 70
    0
280
    1
281
    0
  0
BLOCK_RECORD
  5
71
330
1
100
AcDbSymbolTableRecord
100
AcDbBlockTableRecord
  2
*D1
 70
    0
280
    1
281
    0
  0
BLOCK_RECORD
  5
74
330
1
100
AcDbSymbolTableRecord
100
AcDbBlockTableRecord
  2
*D8
 70
    0
280
    1
281
    0
  0
ENDTAB
  0
ENDSEC
  0
SECTION
  2
BLOCKS
  0
BLOCK
  5
20
330
1F
100
AcDbEntity
  8
0
100
AcDbBlockBegin
  2
*Model_Space
 70
    0
 10
0
 20
0
 30
0
  3
*Model_Space
  1

  0
ENDBLK
  5
21
330
1F
100
AcDbEntity
  8
0
100
AcDbBlockEnd
  0
BLOCK
  5
1C
330
1B
100
AcDbEntity
  8
0
100
AcDbBlockBegin
  2
*Paper_Space
 70
    0
 10
0
 20
0
 30
0
  3
*Paper_Space
  1

  0
ENDBLK
  5
1D
330
1F
100
AcDbEntity
  8
0
100
AcDbBlockEnd
  0
BLOCK
  5
57
330
56
100
AcDbEntity
  8
0
100
AcDbBlockBegin
  2
*D11
 70
    1
 10
0
 20
0
  3
*D11
  1

  0
LINE
  5
77
100
AcDbEntity
  8
Dimms
  6
ByBlock
 62
    0
370
   -2
100
AcDbLine
 10
383
 20
70
 11
417
 21
70
  0
SOLID
  5
78
100
AcDbEntity
  8
Dimms
  6
ByBlock
 62
    0
370
   -2
100
AcDbTrace
 10
383
 20
70
 30
0
 11
389.25
 21
71.04071164443209
 31
0
 12
389.25
 22
68.95928835556789
 32
0
 13
389.25
 23
68.95928835556789
 33
0
  0
SOLID
  5
79
100
AcDbEntity
  8
Dimms
  6
ByBlock
 62
    0
370
   -2
100
AcDbTrace
 10
417
 20
70
 30
0
 11
410.75
 21
68.95928835556789
 31
0
 12
410.75
 22
71.04071164443211
 32
0
 13
410.75
 23
71.04071164443211
 33
0
  0
MTEXT
  5
7A
100
AcDbEntity
  8
Dimms
  6
CONTINUOUS
 62
    0
370
   -2
100
AcDbMText
 10
400
 20
74.6875
 30
0
 40
6.25
 41
20.4861111111115
 71
    5
 72
    1
  1
34,00
  7
STANDARD
210
0
220
0
230
1
 50
0
 73
    2
 44
1
  0
LINE
  5
7B
100
AcDbEntity
  8
Dimms
  6
ByBlock
 62
    0
370
   -2
100
AcDbLine
 10
383
 20
61.5625
 11
383
 21
73.125
  0
LINE
  5
7C
100
AcDbEntity
  8
Dimms
  6
ByBlock
 62
    0
370
   -2
100
AcDbLine
 10
417
 20
61.5625
 11
417
 21
73.125
  0
ENDBLK
  5
58
330
56
100
AcDbEntity
  8
0
100
AcDbBlockEnd
  0
BLOCK
  5
5A
330
59
100
AcDbEntity
  8
0
100
AcDbBlockBegin
  2
*D10
 70
    1
 10
0
 20
0
  3
*D10
  1

  0
LINE
  5
7D
100
AcDbEntity
  8
Dimms
  6
ByBlock
 62
    0
370
   -2
100
AcDbLine
 10
260
 20
10
 11
300
 21
10
  0
SOLID
  5
7E
100
AcDbEntity
  8
Dimms
  6
ByBlock
 62
    0
370
   -2
100
AcDbTrace
 10
260
 20
10
 30
0
 11
266.25
 21
11.0407116444321
 31
0
 12
266.25
 22
8.959288355567898
 32
0
 13
266.25
 23
8.959288355567898
 33
0
  0
SOLID
  5
7F
100
AcDbEntity
  8
Dimms
  6
ByBlock
 62
    0
370
   -2
100
AcDbTrace
 10
300
 20
10
 30
0
 11
293.75
 21
8.959288355567899
 31
0
 12
293.75
 22
11.0407116444321
 32
0
 13
293.75
 23
11.0407116444321
 33
0
  0
MTEXT
  5
80
100
AcDbEntity
  8
Dimms
  6
CONTINUOUS
 62
    0
370
   -2
100
AcDbMText
 10
280
 20
14.6875
 30
0
 40
6.25
 41
20.48611111111111
 71
    5
 72
    1
  1
40,00
  7
STANDARD
210
0
220
0
230
1
 50
0
 73
    2
 44
1
  0
LINE
  5
81
100
AcDbEntity
  8
Dimms
  6
ByBlock
 62
    0
370
   -2
100
AcDbLine
 10
260
 20
1.5625
 11
260
 21
13.125
  0
LINE
  5
82
100
AcDbEntity
  8
Dimms
  6
ByBlock
 62
    0
370
   -2
100
AcDbLine
 10
300
 20
1.5625
 11
300
 21
13.125
  0
ENDBLK
  5
5B
330
59
100
AcDbEntity
  8
0
100
AcDbBlockEnd
  0
BLOCK
  5
5D
330
5C
100
AcDbEntity
  8
0
100
AcDbBlockBegin
  2
*D3
 70
    1
 10
0
 20
0
  3
*D3
  1

  0
SOLID
  5
83
100
AcDbEntity
  8
Dimms
  6
ByBlock
 62
    0
370
   -2
100
AcDbTrace
 10
263.0294372515228
 20
-23.02943725152286
 30
0
 11
257.8741256080691
 21
-19.3459141301447
 31
0
 12
259.3459141301446
 22
-17.87412560806921
 32
0
 13
259.3459141301446
 23
-17.87412560806921
 33
0
  0
LINE
  5
84
100
AcDbEntity
  8
Dimms
  6
ByBlock
 62
    0
370
   -2
100
AcDbLine
 10
265.857864376269
 20
-25.85786437626905
 11
243.142059030651
 21
-3.142059030651296
  0
MTEXT
  5
85
100
AcDbEntity
  8
Dimms
  6
CONTINUOUS
 62
    0
370
   -2
100
AcDbMText
 10
256.4003111778989
 20
-9.771185104275133
 30
0
 40
6.25
 41
15.625
 71
    5
 72
    1
  1
4,00
  7
STANDARD
210
0
220
0
230
1
 50
315.0000000000003
 73
    2
 44
1
  0
ENDBLK
  5
5E
330
5C
100
AcDbEntity
  8
0
100
AcDbBlockEnd
  0
BLOCK
  5
60
330
5F
100
AcDbEntity
  8
0
100
AcDbBlockBegin
  2
*D6
 70
    1
 10
0
 20
0
  3
*D6
  1

  0
LINE
  5
86
100
AcDbEntity
  8
Dimms
  6
ByBlock
 62
    0
370
   -2
100
AcDbLine
 10
530.5
 20
50
 11
561.5
 21
50
  0
SOLID
  5
87
100
AcDbEntity
  8
Dimms
  6
ByBlock
 62
    0
370
   -2
100
AcDbTrace
 10
543
 20
50
 30
0
 11
536.75
 21
48.9592883555679
 31
0
 12
536.75
 22
51.0407116444321
 32
0
 13
536.75
 23
51.0407116444321
 33
0
  0
SOLID
  5
88
100
AcDbEntity
  8
Dimms
  6
ByBlock
 62
    0
370
   -2
100
AcDbTrace
 10
549
 20
50
 30
0
 11
555.25
 21
51.0407116444321
 31
0
 12
555.25
 22
48.9592883555679
 32
0
 13
555.25
 23
48.9592883555679
 33
0
  0
MTEXT
  5
89
100
AcDbEntity
  8
Dimms
  6
CONTINUOUS
 62
    0
370
   -2
100
AcDbMText
 10
558.0277777777779
 20
54.6875
 30
0
 40
6.25
 41
14.93055555555594
 71
    5
 72
    1
  1
6,00
  7
STANDARD
210
0
220
0
230
1
 50
0
 73
    2
 44
1
  0
LINE
  5
8A
100
AcDbEntity
  8
Dimms
  6
ByBlock
 62
    0
370
   -2
100
AcDbLine
 10
543
 20
41.5625
 11
543
 21
53.125
  0
LINE
  5
8B
100
AcDbEntity
  8
Dimms
  6
ByBlock
 62
    0
370
   -2
100
AcDbLine
 10
549
 20
41.5625
 11
549
 21
53.125
  0
ENDBLK
  5
61
330
5F
100
AcDbEntity
  8
0
100
AcDbBlockEnd
  0
BLOCK
  5
63
330
62
100
AcDbEntity
  8
0
100
AcDbBlockBegin
  2
*D9
 70
    1
 10
0
 20
0
  3
*D9
  1

  0
LINE
  5
8C
100
AcDbEntity
  8
Dimms
  6
ByBlock
 62
    0
370
   -2
100
AcDbLine
 10
340
 20
57
 11
340
 21
27
  0
SOLID
  5
8D
100
AcDbEntity
  8
Dimms
  6
ByBlock
 62
    0
370
   -2
100
AcDbTrace
 10
340
 20
44.5
 30
0
 11
338.9592883555679
 21
50.75
 31
0
 12
341.0407116444321
 22
50.75
 32
0
 13
341.0407116444321
 23
50.75
 33
0
  0
SOLID
  5
8E
100
AcDbEntity
  8
Dimms
  6
ByBlock
 62
    0
370
   -2
100
AcDbTrace
 10
340
 20
39.5
 30
0
 11
341.0407116444321
 21
33.25
 31
0
 12
338.9592883555679
 22
33.25
 32
0
 13
338.9592883555679
 23
33.25
 33
0
  0
MTEXT
  5
8F
100
AcDbEntity
  8
Dimms
  6
CONTINUOUS
 62
    0
370
   -2
100
AcDbMText
 10
335.3125
 20
53.52777777777797
 30
0
 40
6.25
 41
14.93055555555594
 71
    5
 72
    1
  1
5,00
  7
STANDARD
210
0
220
0
230
1
 50
90
 73
    2
 44
1
  0
LINE
  5
90
100
AcDbEntity
  8
Dimms
  6
ByBlock
 62
    0
370
   -2
100
AcDbLine
 10
348.4375
 20
44.5
 11
336.875
 21
44.5
  0
LINE
  5
91
100
AcDbEntity
  8
Dimms
  6
ByBlock
 62
    0
370
   -2
100
AcDbLine
 10
348.4375
 20
39.5
 11
336.875
 21
39.5
  0
ENDBLK
  5
64
330
62
100
AcDbEntity
  8
0
100
AcDbBlockEnd
  0
BLOCK
  5
66
330
65
100
AcDbEntity
  8
0
100
AcDbBlockBegin
  2
*D4
 70
    1
 10
0
 20
0
  3
*D4
  1

  0
LINE
  5
92
100
AcDbEntity
  8
Dimms
  6
ByBlock
 62
    0
370
   -2
100
AcDbLine
 10
407
 20
-100
 11
439
 21
-100
  0
SOLID
  5
93
100
AcDbEntity
  8
Dimms
  6
ByBlock
 62
    0
370
   -2
100
AcDbTrace
 10
407
 20
-100
 30
0
 11
413.25
 21
-98.95928835556791
 31
0
 12
413.25
 22
-101.0407116444321
 32
0
 13
413.25
 23
-101.0407116444321
 33
0
  0
SOLID
  5
94
100
AcDbEntity
  8
Dimms
  6
ByBlock
 62
    0
370
   -2
100
AcDbTrace
 10
439
 20
-100
 30
0
 11
432.75
 21
-101.0407116444321
 31
0
 12
432.75
 22
-98.95928835556789
 32
0
 13
432.75
 23
-98.95928835556789
 33
0
  0
MTEXT
  5
95
100
AcDbEntity
  8
Dimms
  6
CONTINUOUS
 62
    0
370
   -2
100
AcDbMText
 10
423
 20
-95.3125
 30
0
 40
6.25
 41
19.79166666666706
 71
    5
 72
    1
  1
32,00
  7
STANDARD
210
0
220
0
230
1
 50
0
 73
    2
 44
1
  0
LINE
  5
96
100
AcDbEntity
  8
Dimms
  6
ByBlock
 62
    0
370
   -2
100
AcDbLine
 10
407
 20
-91.5625
 11
407
 21
-103.125
  0
LINE
  5
97
100
AcDbEntity
  8
Dimms
  6
ByBlock
 62
    0
370
   -2
100
AcDbLine
 10
439
 20
-91.5625
 11
439
 21
-103.125
  0
ENDBLK
  5
67
330
65
100
AcDbEntity
  8
0
100
AcDbBlockEnd
  0
BLOCK
  5
69
330
68
100
AcDbEntity
  8
0
100
AcDbBlockBegin
  2
*D7
 70
    1
 10
0
 20
0
  3
*D7
  1

  0
LINE
  5
98
100
AcDbEntity
  8
Dimms
  6
ByBlock
 62
    0
370
   -2
100
AcDbLine
 10
535
 20
-9.6875
 11
555
 21
-9.6875
  0
SOLID
  5
99
100
AcDbEntity
  8
Dimms
  6
ByBlock
 62
    0
370
   -2
100
AcDbTrace
 10
535
 20
-9.6875
 30
0
 11
541.25
 21
-8.646788355567899
 31
0
 12
541.25
 22
-10.7282116444321
 32
0
 13
541.25
 23
-10.7282116444321
 33
0
  0
SOLID
  5
9A
100
AcDbEntity
  8
Dimms
  6
ByBlock
 62
    0
370
   -2
100
AcDbTrace
 10
555
 20
-9.6875
 30
0
 11
548.75
 21
-10.7282116444321
 31
0
 12
548.75
 22
-8.646788355567899
 32
0
 13
548.75
 23
-8.646788355567899
 33
0
  0
MTEXT
  5
9B
100
AcDbEntity
  8
Dimms
  6
CONTINUOUS
 62
    0
370
   -2
100
AcDbMText
 10
545
 20
-5
 30
0
 40
6.25
 41
19.79166666666666
 71
    5
 72
    1
  1
20,00
  7
STANDARD
210
0
220
0
230
1
 50
0
 73
    2
 44
1
  0
LINE
  5
9C
100
AcDbEntity
  8
Dimms
  6
ByBlock
 62
    0
370
   -2
100
AcDbLine
 10
535
 20
-1.25
 11
535
 21
-12.8125
  0
LINE
  5
9D
100
AcDbEntity
  8
Dimms
  6
ByBlock
 62
    0
370
   -2
100
AcDbLine
 10
555
 20
-1.25
 11
555
 21
-12.8125
  0
ENDBLK
  5
6A
330
68
100
AcDbEntity
  8
0
100
AcDbBlockEnd
  0
BLOCK
  5
6C
330
6B
100
AcDbEntity
  8
0
100
AcDbBlockBegin
  2
*D2
 70
    1
 10
0
 20
0
  3
*D2
  1

  0
SOLID
  5
9E
100
AcDbEntity
  8
Dimms
  6
ByBlock
 62
    0
370
   -2
100
AcDbTrace
 10
282.1213203435597
 20
-42.12132034355965
 30
0
 11
287.2766319870134
 21
-45.80484346493776
 31
0
 12
285.804843464938
 22
-47.27663198701326
 32
0
 13
285.804843464938
 23
-47.27663198701326
 33
0
  0
LINE
  5
9F
100
AcDbEntity
  8
Dimms
  6
ByBlock
 62
    0
370
   -2
100
AcDbLine
 10
280
 20
-40
 11
301.5176521886079
 21
-61.5176521886073
  0
MTEXT
  5
A0
100
AcDbEntity
  8
Dimms
  6
CONTINUOUS
 62
    0
370
   -2
100
AcDbMText
 10
295.1340493028956
 20
-48.50492322927163
 30
0
 40
6.25
 41
14.93055555555594
 71
    5
 72
    1
  1
3,00
  7
STANDARD
210
0
220
0
230
1
 50
315.0000000000009
 73
    2
 44
1
  0
ENDBLK
  5
6D
330
6B
100
AcDbEntity
  8
0
100
AcDbBlockEnd
  0
BLOCK
  5
6F
330
6E
100
AcDbEntity
  8
0
100
AcDbBlockBegin
  2
*D5
 70
    1
 10
0
 20
0
  3
*D5
  1

  0
LINE
  5
A1
100
AcDbEntity
  8
Dimms
  6
ByBlock
 62
    0
370
   -2
100
AcDbLine
 10
570
 20
35
 11
570
 21
5
  0
SOLID
  5
A2
100
AcDbEntity
  8
Dimms
  6
ByBlock
 62
    0
370
   -2
100
AcDbTrace
 10
570
 20
35
 30
0
 11
571.0407116444321
 21
28.75
 31
0
 12
568.9592883555679
 22
28.75
 32
0
 13
568.9592883555679
 23
28.75
 33
0
  0
SOLID
  5
A3
100
AcDbEntity
  8
Dimms
  6
ByBlock
 62
    0
370
   -2
100
AcDbTrace
 10
570
 20
5
 30
0
 11
568.9592883555679
 21
11.25
 31
0
 12
571.0407116444321
 22
11.25
 32
0
 13
571.0407116444321
 23
11.25
 33
0
  0
MTEXT
  5
A4
100
AcDbEntity
  8
Dimms
  6
CONTINUOUS
 62
    0
370
   -2
100
AcDbMText
 10
565.3125
 20
20
 30
0
 40
6.25
 41
19.79166666666706
 71
    5
 72
    1
  1
30,00
  7
STANDARD
210
0
220
0
230
1
 50
90
 73
    2
 44
1
  0
LINE
  5
A5
100
AcDbEntity
  8
Dimms
  6
ByBlock
 62
    0
370
   -2
100
AcDbLine
 10
561.5625
 20
35
 11
573.125
 21
35
  0
LINE
  5
A6
100
AcDbEntity
  8
Dimms
  6
ByBlock
 62
    0
370
   -2
100
AcDbLine
 10
561.5625
 20
5
 11
573.125
 21
5
  0
ENDBLK
  5
70
330
6E
100
AcDbEntity
  8
0
100
AcDbBlockEnd
  0
BLOCK
  5
72
330
71
100
AcDbEntity
  8
0
100
AcDbBlockBegin
  2
*D1
 70
    1
 10
0
 20
0
  3
*D1
  1

  0
LINE
  5
A7
100
AcDbEntity
  8
Dimms
  6
ByBlock
 62
    0
370
   -2
100
AcDbLine
 10
240
 20
-100
 11
320
 21
-100
  0
SOLID
  5
A8
100
AcDbEntity
  8
Dimms
  6
ByBlock
 62
    0
370
   -2
100
AcDbTrace
 10
240
 20
-100
 30
0
 11
246.25
 21
-98.95928835556791
 31
0
 12
246.25
 22
-101.0407116444321
 32
0
 13
246.25
 23
-101.0407116444321
 33
0
  0
SOLID
  5
A9
100
AcDbEntity
  8
Dimms
  6
ByBlock
 62
    0
370
   -2
100
AcDbTrace
 10
320
 20
-100
 30
0
 11
313.75
 21
-101.0407116444321
 31
0
 12
313.75
 22
-98.95928835556789
 32
0
 13
313.75
 23
-98.95928835556789
 33
0
  0
MTEXT
  5
AA
100
AcDbEntity
  8
Dimms
  6
CONTINUOUS
 62
    0
370
   -2
100
AcDbMText
 10
280
 20
-95.3125
 30
0
 40
6.25
 41
19.79166666666666
 71
    5
 72
    1
  1
80,00
  7
STANDARD
210
0
220
0
230
1
 50
0
 73
    2
 44
1
  0
LINE
  5
AB
100
AcDbEntity
  8
Dimms
  6
ByBlock
 62
    0
370
   -2
100
AcDbLine
 10
240
 20
-91.5625
 11
240
 21
-103.125
  0
LINE
  5
AC
100
AcDbEntity
  8
Dimms
  6
ByBlock
 62
    0
370
   -2
100
AcDbLine
 10
320
 20
-91.5625
 11
320
 21
-103.125
  0
ENDBLK
  5
73
330
71
100
AcDbEntity
  8
0
100
AcDbBlockEnd
  0
BLOCK
  5
75
330
74
100
AcDbEntity
  8
0
100
AcDbBlockBegin
  2
*D8
 70
    1
 10
0
 20
0
  3
*D8
  1

  0
LINE
  5
AD
100
AcDbEntity
  8
Dimms
  6
ByBlock
 62
    0
370
   -2
100
AcDbLine
 10
460
 20
61.5
 11
460
 21
22.5
  0
SOLID
  5
AE
100
AcDbEntity
  8
Dimms
  6
ByBlock
 62
    0
370
   -2
100
AcDbTrace
 10
460
 20
49
 30
0
 11
458.9592883555679
 21
55.25
 31
0
 12
461.0407116444321
 22
55.25
 32
0
 13
461.0407116444321
 23
55.25
 33
0
  0
SOLID
  5
AF
100
AcDbEntity
  8
Dimms
  6
ByBlock
 62
    0
370
   -2
100
AcDbTrace
 10
460
 20
35
 30
0
 11
461.0407116444321
 21
28.75
 31
0
 12
458.9592883555679
 22
28.75
 32
0
 13
458.9592883555679
 23
28.75
 33
0
  0
MTEXT
  5
B0
100
AcDbEntity
  8
Dimms
  6
CONTINUOUS
 62
    0
370
   -2
100
AcDbMText
 10
455.3125
 20
60.11111111111111
 30
0
 40
6.25
 41
19.09722222222222
 71
    5
 72
    1
  1
14,00
  7
STANDARD
210
0
220
0
230
1
 50
90
 73
    2
 44
1
  0
LINE
  5
B1
100
AcDbEntity
  8
Dimms
  6
ByBlock
 62
    0
370
   -2
100
AcDbLine
 10
451.5625
 20
49
 11
463.125
 21
49
  0
LINE
  5
B2
100
AcDbEntity
  8
Dimms
  6
ByBlock
 62
    0
370
   -2
100
AcDbLine
 10
451.5625
 20
35
 11
463.125
 21
35
  0
ENDBLK
  5
76
330
74
100
AcDbEntity
  8
0
100
AcDbBlockEnd
  0
ENDSEC
  0
SECTION
  2
ENTITIES
  0
LINE
  5
B3
100
AcDbEntity
  8
0
  6
ByLayer
 62
  256
370
   -1
100
AcDbLine
 10
100
 20
100
 11
100
 21
0
  0
LINE
  5
B4
100
AcDbEntity
  8
Rack A
  6
ByLayer
 62
  256
370
   -1
100
AcDbLine
 10
215
 20
50
 11
215
 21
49
  0
LINE
  5
B5
100
AcDbEntity
  8
Rack A
  6
ByLayer
 62
  256
370
   -1
100
AcDbLine
 10
135
 20
50
 11
215
 21
50
  0
LINE
  5
B6
100
AcDbEntity
  8
Rack A
  6
ByLayer
 62
  256
370
   -1
100
AcDbLine
 10
215
 20
49
 11
135
 21
49
  0
LINE
  5
B7
100
AcDbEntity
  8
Rack A
  6
ByLayer
 62
  256
370
   -1
100
AcDbLine
 10
135
 20
49
 11
135
 21
50
  0
ARC
  5
B8
100
AcDbEntity
  8
Rack A
  6
ByLayer
 62
  256
370
   -1
100
AcDbCircle
 10
0
 20
0
 40
0
100
AcDbArc
 50
0
 51
0
  0
ARC
  5
B9
100
AcDbEntity
  8
Rack A
  6
ByLayer
 62
  256
370
   -1
100
AcDbCircle
 10
0
 20
0
 40
0
100
AcDbArc
 50
0
 51
0
  0
ARC
  5
BA
100
AcDbEntity
  8
Rack A
  6
ByLayer
 62
  256
370
   -1
100
AcDbCircle
 10
0
 20
0
 40
0
100
AcDbArc
 50
0
 51
0
  0
LINE
  5
BB
100
AcDbEntity
  8
Bolt
  6
ByLayer
 62
  256
370
   -1
100
AcDbLine
 10
178
 20
70
 11
182
 21
70
  0
ARC
  5
BC
100
AcDbEntity
  8
Bolt
  6
ByLayer
 62
  256
370
   -1
100
AcDbCircle
 10
175
 20
63
 40
9.899494936611665
100
AcDbArc
 50
45
 51
135
  0
LINE
  5
BD
100
AcDbEntity
  8
Bolt
  6
ByLayer
 62
  256
370
   -1
100
AcDbLine
 10
168
 20
70
 11
172
 21
70
  0
LINE
  5
BE
100
AcDbEntity
  8
Base
  6
ByLayer
 62
  256
370
   -1
100
AcDbLine
 10
100
 20
80
 11
200
 21
80
  0
LINE
  5
BF
100
AcDbEntity
  8
Base
  6
ByLayer
 62
  256
370
   -1
100
AcDbLine
 10
101
 20
70
 11
101
 21
40
  0
LINE
  5
C0
100
AcDbEntity
  8
Base
  6
ByLayer
 62
  256
370
   -1
100
AcDbLine
 10
101
 20
40
 11
100
 21
40
  0
LINE
  5
C1
100
AcDbEntity
  8
Base
  6
ByLayer
 62
  256
370
   -1
100
AcDbLine
 10
100
 20
40
 11
100
 21
71
  0
ARC
  5
C2
100
AcDbEntity
  8
Base
  6
ByLayer
 62
  256
370
   -1
100
AcDbCircle
 10
102
 20
46
 40
6.082762530298219
100
AcDbArc
 50
260.5376777919744
 51
33.69006752597978
  0
ARC
  5
C3
100
AcDbEntity
  8
Base
  6
ByLayer
 62
  256
370
   -1
100
AcDbCircle
 10
113.7670068913074
 20
65.5
 40
7.687665646541167
100
AcDbArc
 50
265.7976894992481
 51
35.82794877113778
  0
LINE
  5
C4
100
AcDbEntity
  8
Base
  6
ByLayer
 62
  256
370
   -1
100
AcDbLine
 10
107
 20
49
 11
115
 21
49
  0
LINE
  5
C5
100
AcDbEntity
  8
Base
  6
ByLayer
 62
  256
370
   -1
100
AcDbLine
 10
115
 20
49
 11
113
 21
58
  0
LINE
  5
C6
100
AcDbEntity
  8
Base
  6
ByLayer
 62
  256
370
   -1
100
AcDbLine
 10
100
 20
71
 11
100
 21
80
  0
LINE
  5
C7
100
AcDbEntity
  8
Base
  6
ByLayer
 62
  256
370
   -1
100
AcDbLine
 10
100
 20
70
 11
192
 21
70
  0
LINE
  5
C8
100
AcDbEntity
  8
Base
  6
ByLayer
 62
  256
370
   -1
100
AcDbLine
 10
200
 20
80
 11
200
 21
78
  0
ARC
  5
C9
100
AcDbEntity
  8
Base
  6
ByLayer
 62
  256
370
   -1
100
AcDbCircle
 10
192
 20
78
 40
8
100
AcDbArc
 50
270
 51
0
  0
LINE
  5
CA
100
AcDbEntity
  8
Spacer A
  6
ByLayer
 62
  256
370
   -1
100
AcDbLine
 10
165
 20
50
 11
185
 21
50
  0
LINE
  5
CB
100
AcDbEntity
  8
Spacer A
  6
ByLayer
 62
  256
370
   -1
100
AcDbLine
 10
185
 20
69
 11
165
 21
69
  0
LINE
  5
CC
100
AcDbEntity
  8
Spacer A
  6
ByLayer
 62
  256
370
   -1
100
AcDbLine
 10
172
 20
69
 11
172
 21
50
  0
LINE
  5
CD
100
AcDbEntity
  8
Spacer A
  6
ByLayer
 62
  256
370
   -1
100
AcDbLine
 10
178
 20
69
 11
178
 21
50
  0
LINE
  5
CE
100
AcDbEntity
  8
Spacer A
  6
ByLayer
 62
  256
370
   -1
100
AcDbLine
 10
172
 20
69
 11
172
 21
50
  0
LINE
  5
CF
100
AcDbEntity
  8
Spacer A
  6
ByLayer
 62
  256
370
   -1
100
AcDbLine
 10
178
 20
50
 11
178
 21
70
  0
LINE
  5
D0
100
AcDbEntity
  8
Spacer A
  6
ByLayer
 62
  256
370
   -1
100
AcDbLine
 10
172
 20
70
 11
172
 21
69
  0
LINE
  5
D1
100
AcDbEntity
  8
Spacer A
  6
ByLayer
 62
  256
370
   -1
100
AcDbLine
 10
165
 20
69
 11
165
 21
70
  0
LINE
  5
D2
100
AcDbEntity
  8
Spacer A
  6
ByLayer
 62
  256
370
   -1
100
AcDbLine
 10
165
 20
70
 11
185
 21
70
  0
LINE
  5
D3
100
AcDbEntity
  8
Spacer A
  6
ByLayer
 62
  256
370
   -1
100
AcDbLine
 10
185
 20
70
 11
185
 21
69
  0
LINE
  5
D4
100
AcDbEntity
  8
Spacer A
  6
ByLayer
 62
  256
370
   -1
100
AcDbLine
 10
185
 20
51
 11
165
 21
51
  0
ARC
  5
D5
100
AcDbEntity
  8
Spacer A
  6
ByLayer
 62
  256
370
   -1
100
AcDbCircle
 10
159
 20
60
 40
10
100
AcDbArc
 50
306.869897645844
 51
53.13010235415599
  0
LINE
  5
D6
100
AcDbEntity
  8
Spacer A
  6
ByLayer
 62
  256
370
   -1
100
AcDbLine
 10
165
 20
69
 11
165
 21
68
  0
LINE
  5
D7
100
AcDbEntity
  8
Spacer A
  6
ByLayer
 62
  256
370
   -1
100
AcDbLine
 10
165
 20
52
 11
165
 21
50
  0
ARC
  5
D8
100
AcDbEntity
  8
Spacer A
  6
ByLayer
 62
  256
370
   -1
100
AcDbCircle
 10
191
 20
60
 40
10
100
AcDbArc
 50
126.869897645844
 51
233.130102354156
  0
LINE
  5
D9
100
AcDbEntity
  8
Spacer A
  6
ByLayer
 62
  256
370
   -1
100
AcDbLine
 10
185
 20
69
 11
185
 21
68
  0
LINE
  5
DA
100
AcDbEntity
  8
Spacer A
  6
ByLayer
 62
  256
370
   -1
100
AcDbLine
 10
185
 20
52
 11
185
 21
50
  0
LINE
  5
DB
100
AcDbEntity
  8
Bolt
  6
ByLayer
 62
  256
370
   -1
100
AcDbLine
 10
172
 20
70
 11
172
 21
50
  0
LINE
  5
DC
100
AcDbEntity
  8
Bolt
  6
ByLayer
 62
  256
370
   -1
100
AcDbLine
 10
178
 20
70
 11
178
 21
50
  0
LINE
  5
DD
100
AcDbEntity
  8
Bolt
  6
ByLayer
 62
  256
370
   -1
100
AcDbLine
 10
172
 20
31
 11
178
 21
31
  0
LINE
  5
DE
100
AcDbEntity
  8
Nut
  6
ByLayer
 62
  256
370
   -1
100
AcDbLine
 10
185
 20
35
 11
185
 21
33
  0
LINE
  5
DF
100
AcDbEntity
  8
Nut
  6
ByLayer
 62
  256
370
   -1
100
AcDbLine
 10
185
 20
33
 11
184
 21
32
  0
LINE
  5
E0
100
AcDbEntity
  8
Nut
  6
ByLayer
 62
  256
370
   -1
100
AcDbLine
 10
184
 20
32
 11
185
 21
31
  0
LINE
  5
E1
100
AcDbEntity
  8
Nut
  6
ByLayer
 62
  256
370
   -1
100
AcDbLine
 10
185
 20
31
 11
185
 21
29
  0
LINE
  5
E2
100
AcDbEntity
  8
Nut
  6
ByLayer
 62
  256
370
   -1
100
AcDbLine
 10
185
 20
29
 11
182
 21
29
  0
ARC
  5
E3
100
AcDbEntity
  8
Nut
  6
ByLayer
 62
  256
370
   -1
100
AcDbCircle
 10
180.8333333333333
 20
25
 40
4.166666666666667
100
AcDbArc
 50
286.2602047083122
 51
73.7397952916878
  0
POINT
  5
E4
100
AcDbEntity
  8
Nut
  6
ByLayer
 62
  256
370
   -1
100
AcDbPoint
 10
182
 20
21
  0
ARC
  5
E5
100
AcDbEntity
  8
Nut
  6
ByLayer
 62
  256
370
   -1
100
AcDbCircle
 10
180.5
 20
15.5
 40
5.70087712549569
100
AcDbArc
 50
37.87498365109819
 51
74.74488129694222
  0
ARC
  5
E6
100
AcDbEntity
  8
Nut
  6
ByLayer
 62
  256
370
   -1
100
AcDbCircle
 10
180.5
 20
22.5
 40
5.70087712549569
100
AcDbArc
 50
285.2551187030577
 51
322.1250163489018
  0
LINE
  5
E7
100
AcDbEntity
  8
Nut
  6
ByLayer
 62
  256
370
   -1
100
AcDbLine
 10
175
 20
35
 11
185
 21
35
  0
LINE
  5
E8
100
AcDbEntity
  8
Nut
  6
ByLayer
 62
  256
370
   -1
100
AcDbLine
 10
165
 20
35
 11
165
 21
33
  0
LINE
  5
E9
100
AcDbEntity
  8
Nut
  6
ByLayer
 62
  256
370
   -1
100
AcDbLine
 10
165
 20
33
 11
166
 21
32
  0
LINE
  5
EA
100
AcDbEntity
  8
Nut
  6
ByLayer
 62
  256
370
   -1
100
AcDbLine
 10
166
 20
32
 11
165
 21
31
  0
LINE
  5
EB
100
AcDbEntity
  8
Nut
  6
ByLayer
 62
  256
370
   -1
100
AcDbLine
 10
165
 20
31
 11
165
 21
29
  0
LINE
  5
EC
100
AcDbEntity
  8
Nut
  6
ByLayer
 62
  256
370
   -1
100
AcDbLine
 10
165
 20
29
 11
168
 21
29
  0
ARC
  5
ED
100
AcDbEntity
  8
Nut
  6
ByLayer
 62
  256
370
   -1
100
AcDbCircle
 10
169.1666666666667
 20
25
 40
4.166666666666667
100
AcDbArc
 50
106.2602047083122
 51
253.7397952916878
  0
POINT
  5
EE
100
AcDbEntity
  8
Nut
  6
ByLayer
 62
  256
370
   -1
100
AcDbPoint
 10
168
 20
21
  0
ARC
  5
EF
100
AcDbEntity
  8
Nut
  6
ByLayer
 62
  256
370
   -1
100
AcDbCircle
 10
169.5
 20
15.5
 40
5.70087712549569
100
AcDbArc
 50
105.2551187030577
 51
142.1250163489019
  0
ARC
  5
F0
100
AcDbEntity
  8
Nut
  6
ByLayer
 62
  256
370
   -1
100
AcDbCircle
 10
169.5
 20
22.5
 40
5.70087712549569
100
AcDbArc
 50
217.8749836510982
 51
254.7448812969423
  0
LINE
  5
F1
100
AcDbEntity
  8
Nut
  6
ByLayer
 62
  256
370
   -1
100
AcDbLine
 10
175
 20
35
 11
165
 21
35
  0
LINE
  5
F2
100
AcDbEntity
  8
Nut
  6
ByLayer
 62
  256
370
   -1
100
AcDbLine
 10
172
 20
35
 11
172
 21
25
  0
LINE
  5
F3
100
AcDbEntity
  8
Nut
  6
ByLayer
 62
  256
370
   -1
100
AcDbLine
 10
178
 20
25
 11
178
 21
35
  0
LINE
  5
F4
100
AcDbEntity
  8
Spacer A
  6
ByLayer
 62
  256
370
   -1
100
AcDbLine
 10
165
 20
68
 11
185
 21
68
  0
LINE
  5
F5
100
AcDbEntity
  8
Spacer A
  6
ByLayer
 62
  256
370
   -1
100
AcDbLine
 10
165
 20
52
 11
185
 21
52
  0
LINE
  5
F6
100
AcDbEntity
  8
Nut
  6
ByLayer
 62
  256
370
   -1
100
AcDbLine
 10
168
 20
17
 11
182
 21
17
  0
LINE
  5
F7
100
AcDbEntity
  8
Nut
  6
ByLayer
 62
  256
370
   -1
100
AcDbLine
 10
182
 20
21
 11
168
 21
21
  0
LINE
  5
F8
100
AcDbEntity
  8
Nut
  6
ByLayer
 62
  256
370
   -1
100
AcDbLine
 10
168
 20
29
 11
182
 21
29
  0
LINE
  5
F9
100
AcDbEntity
  8
Nut
  6
ByLayer
 62
  256
370
   -1
100
AcDbLine
 10
185
 20
31
 11
165
 21
31
  0
LINE
  5
FA
100
AcDbEntity
  8
Nut
  6
ByLayer
 62
  256
370
   -1
100
AcDbLine
 10
166
 20
32
 11
184
 21
32
  0
LINE
  5
FB
100
AcDbEntity
  8
Nut
  6
ByLayer
 62
  256
370
   -1
100
AcDbLine
 10
185
 20
33
 11
165
 21
33
  0
LINE
  5
FC
100
AcDbEntity
  8
Rack A
  6
ByLayer
 62
  256
370
   -1
100
AcDbLine
 10
320
 20
50
 11
320
 21
49
  0
LINE
  5
FD
100
AcDbEntity
  8
Rack A
  6
ByLayer
 62
  256
370
   -1
100
AcDbLine
 10
240
 20
50
 11
320
 21
50
  0
LINE
  5
FE
100
AcDbEntity
  8
Rack A
  6
ByLayer
 62
  256
370
   -1
100
AcDbLine
 10
320
 20
49
 11
240
 21
49
  0
LINE
  5
FF
100
AcDbEntity
  8
Rack A
  6
ByLayer
 62
  256
370
   -1
100
AcDbLine
 10
240
 20
49
 11
240
 21
50
  0
LINE
  5
100
100
AcDbEntity
  8
Rack A
  6
ByLayer
 62
  256
370
   -1
100
AcDbLine
 10
283
 20
50
 11
283
 21
49
  0
LINE
  5
101
100
AcDbEntity
  8
Rack A
  6
ByLayer
 62
  256
370
   -1
100
AcDbLine
 10
277
 20
50
 11
277
 21
49
  0
DIMENSION
  5
102
100
AcDbEntity
  8
Dimms
  6
ByLayer
 62
  256
370
   -1
100
AcDbDimension
  2
*D1
 10
320
 20
-100
 30
0
 11
280
 21
-95.3125
 31
0
 70
   32
 71
    5
  3
Standard
 53
0
210
0
220
0
230
1
100
AcDbAlignedDimension
 13
240
 23
-90
 33
0
 14
320
 24
-90
 34
0
100
AcDbRotatedDimension
  0
CIRCLE
  5
103
100
AcDbEntity
  8
Rack A
  6
ByLayer
 62
  256
370
   -1
100
AcDbCircle
 10
280
 20
-40
 40
3
  0
LINE
  5
104
100
AcDbEntity
  8
Rack A
  6
ByLayer
 62
  256
370
   -1
100
AcDbLine
 10
268.6862915010153
 20
-23.02943725152286
 11
261.6152236891497
 21
-15.9583694396574
  0
ARC
  5
105
100
AcDbEntity
  8
Rack A
  6
ByLayer
 62
  256
370
   -1
100
AcDbCircle
 10
259.8474567361833
 20
-8.816590949673298
 40
2.901723625709388
100
AcDbArc
 50
133.0250659891176
 51
213.3106308245608
  0
LINE
  5
106
100
AcDbEntity
  8
Rack A
  6
ByLayer
 62
  256
370
   -1
100
AcDbLine
 10
261.6152236891497
 20
-15.95836943965739
 11
257.4150094089017
 21
-10.40051013953111
  0
ARC
  5
107
100
AcDbEntity
  8
Rack A
  6
ByLayer
 62
  256
370
   -1
100
AcDbCircle
 10
280
 20
-20
 40
4
100
AcDbArc
 50
179.9999999999999
 51
360
  0
LINE
  5
108
100
AcDbEntity
  8
Rack A
  6
ByLayer
 62
  256
370
   -1
100
AcDbLine
 10
276
 20
-20.00000000000001
 11
276.0000000000001
 21
-9.999999999999972
  0
LINE
  5
109
100
AcDbEntity
  8
Rack A
  6
ByLayer
 62
  256
370
   -1
100
AcDbLine
 10
276.0000000000001
 20
-9.999999999999943
 11
275.04
 21
-3.099999999999994
  0
ARC
  5
10A
100
AcDbEntity
  8
Rack A
  6
ByLayer
 62
  256
370
   -1
100
AcDbCircle
 10
272.2000000000001
 20
-3.699999999999974
 40
2.901723625709388
100
AcDbArc
 50
11.68936917543935
 51
91.97493401088244
  0
ARC
  5
10B
100
AcDbEntity
  8
Rack A
  6
ByLayer
 62
  256
370
   -1
100
AcDbCircle
 10
280
 20
-40
 40
40
100
AcDbArc
 50
101.4145356410799
 51
123.7537050342557
  0
LINE
  5
10C
100
AcDbEntity
  8
Rack A
  6
ByLayer
 62
  256
370
   -1
100
AcDbLine
 10
260
 20
-35.99999999999997
 11
250
 21
-36.00000000000006
  0
ARC
  5
10D
100
AcDbEntity
  8
Rack A
  6
ByLayer
 62
  256
370
   -1
100
AcDbCircle
 10
243.7
 20
-32.20000000000007
 40
2.901723625709388
100
AcDbArc
 50
178.0250659891176
 51
258.3106308245609
  0
LINE
  5
10E
100
AcDbEntity
  8
Rack A
  6
ByLayer
 62
  256
370
   -1
100
AcDbLine
 10
249.9999999999999
 20
-36.00000000000006
 11
243.1
 21
-35.03999999999999
  0
ARC
  5
10F
100
AcDbEntity
  8
Rack A
  6
ByLayer
 62
  256
370
   -1
100
AcDbCircle
 10
265.857864376269
 20
-25.85786437626905
 40
4
100
AcDbArc
 50
224.9999999999999
 51
45.00000000000003
  0
LINE
  5
110
100
AcDbEntity
  8
Rack A
  6
ByLayer
 62
  256
370
   -1
100
AcDbLine
 10
263.0294372515228
 20
-28.68629150101526
 11
255.9583694396574
 21
-21.6152236891497
  0
LINE
  5
111
100
AcDbEntity
  8
Rack A
  6
ByLayer
 62
  256
370
   -1
100
AcDbLine
 10
255.9583694396574
 20
-21.61522368914967
 11
250.4005101395311
 21
-17.41500940890167
  0
ARC
  5
112
100
AcDbEntity
  8
Rack A
  6
ByLayer
 62
  256
370
   -1
100
AcDbCircle
 10
248.8165909496733
 20
-19.84745673618333
 40
2.901723625709388
100
AcDbArc
 50
56.68936917543933
 51
136.9749340108824
  0
ARC
  5
113
100
AcDbEntity
  8
Rack A
  6
ByLayer
 62
  256
370
   -1
100
AcDbCircle
 10
280
 20
-40
 40
40
100
AcDbArc
 50
146.4145356410799
 51
168.7537050342557
  0
LINE
  5
114
100
AcDbEntity
  8
Rack A
  6
ByLayer
 62
  256
370
   -1
100
AcDbLine
 10
263.0294372515228
 20
-51.31370849898474
 11
255.9583694396574
 21
-58.3847763108503
  0
ARC
  5
115
100
AcDbEntity
  8
Rack A
  6
ByLayer
 62
  256
370
   -1
100
AcDbCircle
 10
248.8165909496733
 20
-60.15254326381668
 40
2.901723625709388
100
AcDbArc
 50
223.0250659891176
 51
303.3106308245608
  0
LINE
  5
116
100
AcDbEntity
  8
Rack A
  6
ByLayer
 62
  256
370
   -1
100
AcDbLine
 10
255.9583694396574
 20
-58.3847763108503
 11
250.4005101395311
 21
-62.58499059109833
  0
ARC
  5
117
100
AcDbEntity
  8
Rack A
  6
ByLayer
 62
  256
370
   -1
100
AcDbCircle
 10
260
 20
-40
 40
4
100
AcDbArc
 50
269.9999999999999
 51
90.00000000000003
  0
LINE
  5
118
100
AcDbEntity
  8
Rack A
  6
ByLayer
 62
  256
370
   -1
100
AcDbLine
 10
260
 20
-44.00000000000001
 11
250
 21
-43.99999999999994
  0
LINE
  5
119
100
AcDbEntity
  8
Rack A
  6
ByLayer
 62
  256
370
   -1
100
AcDbLine
 10
249.9999999999999
 20
-43.99999999999994
 11
243.1
 21
-44.96000000000001
  0
ARC
  5
11A
100
AcDbEntity
  8
Rack A
  6
ByLayer
 62
  256
370
   -1
100
AcDbCircle
 10
243.7
 20
-47.79999999999991
 40
2.901723625709388
100
AcDbArc
 50
101.6893691754393
 51
181.9749340108824
  0
ARC
  5
11B
100
AcDbEntity
  8
Rack A
  6
ByLayer
 62
  256
370
   -1
100
AcDbCircle
 10
280
 20
-40
 40
40
100
AcDbArc
 50
191.4145356410799
 51
213.7537050342557
  0
LINE
  5
11C
100
AcDbEntity
  8
Rack A
  6
ByLayer
 62
  256
370
   -1
100
AcDbLine
 10
275.9999999999999
 20
-60
 11
276.0000000000001
 21
-70.00000000000003
  0
ARC
  5
11D
100
AcDbEntity
  8
Rack A
  6
ByLayer
 62
  256
370
   -1
100
AcDbCircle
 10
272.2
 20
-76.30000000000001
 40
2.901723625709388
100
AcDbArc
 50
268.0250659891176
 51
348.3106308245609
  0
LINE
  5
11E
100
AcDbEntity
  8
Rack A
  6
ByLayer
 62
  256
370
   -1
100
AcDbLine
 10
276.0000000000001
 20
-70.00000000000003
 11
275.04
 21
-76.90000000000001
  0
ARC
  5
11F
100
AcDbEntity
  8
Rack A
  6
ByLayer
 62
  256
370
   -1
100
AcDbCircle
 10
265.857864376269
 20
-54.14213562373095
 40
4
100
AcDbArc
 50
314.9999999999999
 51
135
  0
LINE
  5
120
100
AcDbEntity
  8
Rack A
  6
ByLayer
 62
  256
370
   -1
100
AcDbLine
 10
268.6862915010153
 20
-56.97056274847714
 11
261.6152236891497
 21
-64.04163056034258
  0
LINE
  5
121
100
AcDbEntity
  8
Rack A
  6
ByLayer
 62
  256
370
   -1
100
AcDbLine
 10
261.6152236891497
 20
-64.04163056034261
 11
257.4150094089017
 21
-69.59948986046888
  0
ARC
  5
122
100
AcDbEntity
  8
Rack A
  6
ByLayer
 62
  256
370
   -1
100
AcDbCircle
 10
259.8474567361833
 20
-71.1834090503267
 40
2.901723625709388
100
AcDbArc
 50
146.6893691754393
 51
226.9749340108824
  0
ARC
  5
123
100
AcDbEntity
  8
Rack A
  6
ByLayer
 62
  256
370
   -1
100
AcDbCircle
 10
280
 20
-40
 40
40
100
AcDbArc
 50
236.4145356410799
 51
258.7537050342556
  0
LINE
  5
124
100
AcDbEntity
  8
Rack A
  6
ByLayer
 62
  256
370
   -1
100
AcDbLine
 10
291.3137084989847
 20
-56.97056274847714
 11
298.3847763108503
 21
-64.0416305603426
  0
ARC
  5
125
100
AcDbEntity
  8
Rack A
  6
ByLayer
 62
  256
370
   -1
100
AcDbCircle
 10
300.1525432638167
 20
-71.1834090503267
 40
2.901723625709388
100
AcDbArc
 50
313.0250659891176
 51
33.31063082456077
  0
LINE
  5
126
100
AcDbEntity
  8
Rack A
  6
ByLayer
 62
  256
370
   -1
100
AcDbLine
 10
298.3847763108503
 20
-64.04163056034261
 11
302.5849905910983
 21
-69.59948986046888
  0
ARC
  5
127
100
AcDbEntity
  8
Rack A
  6
ByLayer
 62
  256
370
   -1
100
AcDbCircle
 10
280
 20
-60
 40
4
100
AcDbArc
 50
359.9999999999999
 51
180.0000000000001
  0
LINE
  5
128
100
AcDbEntity
  8
Rack A
  6
ByLayer
 62
  256
370
   -1
100
AcDbLine
 10
284
 20
-59.99999999999999
 11
283.9999999999999
 21
-70.00000000000003
  0
LINE
  5
129
100
AcDbEntity
  8
Rack A
  6
ByLayer
 62
  256
370
   -1
100
AcDbLine
 10
283.9999999999999
 20
-70.00000000000006
 11
284.96
 21
-76.90000000000001
  0
ARC
  5
12A
100
AcDbEntity
  8
Rack A
  6
ByLayer
 62
  256
370
   -1
100
AcDbCircle
 10
287.7999999999999
 20
-76.30000000000001
 40
2.901723625709388
100
AcDbArc
 50
191.6893691754393
 51
271.9749340108824
  0
ARC
  5
12B
100
AcDbEntity
  8
Rack A
  6
ByLayer
 62
  256
370
   -1
100
AcDbCircle
 10
280
 20
-40
 40
40
100
AcDbArc
 50
281.4145356410799
 51
303.7537050342557
  0
LINE
  5
12C
100
AcDbEntity
  8
Rack A
  6
ByLayer
 62
  256
370
   -1
100
AcDbLine
 10
300
 20
-44.00000000000003
 11
310.0000000000001
 21
-43.99999999999994
  0
ARC
  5
12D
100
AcDbEntity
  8
Rack A
  6
ByLayer
 62
  256
370
   -1
100
AcDbCircle
 10
316.3000000000001
 20
-47.79999999999991
 40
2.901723625709388
100
AcDbArc
 50
358.0250659891176
 51
78.31063082456082
  0
LINE
  5
12E
100
AcDbEntity
  8
Rack A
  6
ByLayer
 62
  256
370
   -1
100
AcDbLine
 10
310.0000000000001
 20
-43.99999999999994
 11
316.9
 21
-44.96000000000002
  0
ARC
  5
12F
100
AcDbEntity
  8
Rack A
  6
ByLayer
 62
  256
370
   -1
100
AcDbCircle
 10
294.142135623731
 20
-54.14213562373095
 40
4
100
AcDbArc
 50
44.99999999999992
 51
225
  0
LINE
  5
130
100
AcDbEntity
  8
Rack A
  6
ByLayer
 62
  256
370
   -1
100
AcDbLine
 10
296.9705627484772
 20
-51.31370849898474
 11
304.0416305603426
 21
-58.3847763108503
  0
LINE
  5
131
100
AcDbEntity
  8
Rack A
  6
ByLayer
 62
  256
370
   -1
100
AcDbLine
 10
304.0416305603426
 20
-58.38477631085033
 11
309.5994898604689
 21
-62.58499059109835
  0
ARC
  5
132
100
AcDbEntity
  8
Rack A
  6
ByLayer
 62
  256
370
   -1
100
AcDbCircle
 10
311.1834090503267
 20
-60.15254326381668
 40
2.901723625709388
100
AcDbArc
 50
236.6893691754394
 51
316.9749340108825
  0
ARC
  5
133
100
AcDbEntity
  8
Rack A
  6
ByLayer
 62
  256
370
   -1
100
AcDbCircle
 10
280
 20
-40
 40
40
100
AcDbArc
 50
326.4145356410799
 51
348.7537050342556
  0
LINE
  5
134
100
AcDbEntity
  8
Rack A
  6
ByLayer
 62
  256
370
   -1
100
AcDbLine
 10
296.9705627484772
 20
-28.68629150101526
 11
304.0416305603426
 21
-21.61522368914973
  0
ARC
  5
135
100
AcDbEntity
  8
Rack A
  6
ByLayer
 62
  256
370
   -1
100
AcDbCircle
 10
311.1834090503267
 20
-19.84745673618332
 40
2.901723625709388
100
AcDbArc
 50
43.02506598911759
 51
123.3106308245608
  0
LINE
  5
136
100
AcDbEntity
  8
Rack A
  6
ByLayer
 62
  256
370
   -1
100
AcDbLine
 10
304.0416305603426
 20
-21.6152236891497
 11
309.5994898604689
 21
-17.41500940890167
  0
ARC
  5
137
100
AcDbEntity
  8
Rack A
  6
ByLayer
 62
  256
370
   -1
100
AcDbCircle
 10
300
 20
-40
 40
4
100
AcDbArc
 50
89.99999999999987
 51
270
  0
LINE
  5
138
100
AcDbEntity
  8
Rack A
  6
ByLayer
 62
  256
370
   -1
100
AcDbLine
 10
300
 20
-35.99999999999999
 11
310
 21
-36.00000000000009
  0
LINE
  5
139
100
AcDbEntity
  8
Rack A
  6
ByLayer
 62
  256
370
   -1
100
AcDbLine
 10
310.0000000000001
 20
-36.00000000000006
 11
316.9
 21
-35.03999999999999
  0
ARC
  5
13A
100
AcDbEntity
  8
Rack A
  6
ByLayer
 62
  256
370
   -1
100
AcDbCircle
 10
316.3
 20
-32.2000000000001
 40
2.901723625709388
100
AcDbArc
 50
281.6893691754394
 51
1.974934010882431
  0
ARC
  5
13B
100
AcDbEntity
  8
Rack A
  6
ByLayer
 62
  256
370
   -1
100
AcDbCircle
 10
280
 20
-40
 40
40
100
AcDbArc
 50
11.41453564107993
 51
33.75370503425567
  0
LINE
  5
13C
100
AcDbEntity
  8
Rack A
  6
ByLayer
 62
  256
370
   -1
100
AcDbLine
 10
284.0000000000001
 20
-20
 11
283.9999999999999
 21
-9.999999999999986
  0
ARC
  5
13D
100
AcDbEntity
  8
Rack A
  6
ByLayer
 62
  256
370
   -1
100
AcDbCircle
 10
287.8
 20
-3.699999999999974
 40
2.901723625709388
100
AcDbArc
 50
88.02506598911759
 51
168.3106308245608
  0
LINE
  5
13E
100
AcDbEntity
  8
Rack A
  6
ByLayer
 62
  256
370
   -1
100
AcDbLine
 10
283.9999999999999
 20
-9.999999999999972
 11
284.96
 21
-3.099999999999994
  0
ARC
  5
13F
100
AcDbEntity
  8
Rack A
  6
ByLayer
 62
  256
370
   -1
100
AcDbCircle
 10
294.142135623731
 20
-25.85786437626905
 40
4
100
AcDbArc
 50
134.9999999999999
 51
315.0000000000001
  0
LINE
  5
140
100
AcDbEntity
  8
Rack A
  6
ByLayer
 62
  256
370
   -1
100
AcDbLine
 10
291.3137084989847
 20
-23.02943725152286
 11
298.3847763108503
 21
-15.9583694396574
  0
LINE
  5
141
100
AcDbEntity
  8
Rack A
  6
ByLayer
 62
  256
370
   -1
100
AcDbLine
 10
298.3847763108503
 20
-15.95836943965739
 11
302.5849905910983
 21
-10.40051013953112
  0
ARC
  5
142
100
AcDbEntity
  8
Rack A
  6
ByLayer
 62
  256
370
   -1
100
AcDbCircle
 10
300.1525432638167
 20
-8.816590949673298
 40
2.901723625709388
100
AcDbArc
 50
326.6893691754393
 51
46.97493401088246
  0
ARC
  5
143
100
AcDbEntity
  8
Rack A
  6
ByLayer
 62
  256
370
   -1
100
AcDbCircle
 10
280
 20
-40
 40
40
100
AcDbArc
 50
56.4145356410799
 51
78.75370503425567
  0
CIRCLE
  5
144
100
AcDbEntity
  8
Dimms
  6
ByLayer
 62
  256
370
   -1
100
AcDbCircle
 10
280
 20
-20
 40
1
  0
CIRCLE
  5
145
100
AcDbEntity
  8
Dimms
  6
ByLayer
 62
  256
370
   -1
100
AcDbCircle
 10
280
 20
-40
 40
1
  0
CIRCLE
  5
146
100
AcDbEntity
  8
Dimms
  6
ByLayer
 62
  256
370
   -1
100
AcDbCircle
 10
265.857864376269
 20
-25.85786437626905
 40
1
  0
CIRCLE
  5
147
100
AcDbEntity
  8
Dimms
  6
ByLayer
 62
  256
370
   -1
100
AcDbCircle
 10
260
 20
-40
 40
1
  0
CIRCLE
  5
148
100
AcDbEntity
  8
Dimms
  6
ByLayer
 62
  256
370
   -1
100
AcDbCircle
 10
265.857864376269
 20
-54.14213562373095
 40
1
  0
CIRCLE
  5
149
100
AcDbEntity
  8
Dimms
  6
ByLayer
 62
  256
370
   -1
100
AcDbCircle
 10
280
 20
-60
 40
1
  0
CIRCLE
  5
14A
100
AcDbEntity
  8
Dimms
  6
ByLayer
 62
  256
370
   -1
100
AcDbCircle
 10
294.142135623731
 20
-54.14213562373095
 40
1
  0
CIRCLE
  5
14B
100
AcDbEntity
  8
Dimms
  6
ByLayer
 62
  256
370
   -1
100
AcDbCircle
 10
300
 20
-40
 40
1
  0
CIRCLE
  5
14C
100
AcDbEntity
  8
Dimms
  6
ByLayer
 62
  256
370
   -1
100
AcDbCircle
 10
294.142135623731
 20
-25.85786437626905
 40
1
  0
DIMENSION
  5
14D
100
AcDbEntity
  8
Dimms
  6
ByLayer
 62
  256
370
   -1
100
AcDbDimension
  2
*D2
 10
280
 20
-40
 30
0
 11
295.1340493028956
 21
-48.50492322927163
 31
0
 70
   36
 71
    5
  3
Standard
 53
0
210
0
220
0
230
1
100
AcDbRadialDimension
 15
282.1213203435597
 25
-42.12132034355965
 35
0
 40
0
  0
DIMENSION
  5
14E
100
AcDbEntity
  8
Dimms
  6
ByLayer
 62
  256
370
   -1
100
AcDbDimension
  2
*D3
 10
265.857864376269
 20
-25.85786437626905
 30
0
 11
256.4003111778989
 21
-9.771185104275133
 31
0
 70
   36
 71
    5
  3
Standard
 53
0
210
0
220
0
230
1
100
AcDbRadialDimension
 15
263.0294372515228
 25
-23.02943725152286
 35
0
 40
0
  0
CIRCLE
  5
14F
100
AcDbEntity
  8
Spacer B
  6
ByLayer
 62
  256
370
   -1
100
AcDbCircle
 10
400
 20
-40
 40
3
  0
LINE
  5
150
100
AcDbEntity
  8
Spacer B
  6
ByLayer
 62
  256
370
   -1
100
AcDbLine
 10
414.8
 20
-37.5
 11
406
 21
-37.5
  0
LINE
  5
151
100
AcDbEntity
  8
Spacer B
  6
ByLayer
 62
  256
370
   -1
100
AcDbLine
 10
406
 20
-37.5
 11
406
 21
-42.50000000000001
  0
LINE
  5
152
100
AcDbEntity
  8
Spacer B
  6
ByLayer
 62
  256
370
   -1
100
AcDbLine
 10
406
 20
-42.50000000000001
 11
414.8
 21
-42.5
  0
LINE
  5
153
100
AcDbEntity
  8
Spacer B
  6
ByLayer
 62
  256
370
   -1
100
AcDbLine
 10
408.6974134085946
 20
-27.76705268547272
 11
402.4748737341529
 21
-33.98959235991435
  0
LINE
  5
154
100
AcDbEntity
  8
Spacer B
  6
ByLayer
 62
  256
370
   -1
100
AcDbLine
 10
402.4748737341529
 20
-33.98959235991435
 11
406.0104076400856
 21
-37.52512626584709
  0
LINE
  5
155
100
AcDbEntity
  8
Spacer B
  6
ByLayer
 62
  256
370
   -1
100
AcDbLine
 10
406.0104076400856
 20
-37.52512626584709
 11
412.2329473145273
 21
-31.30258659140546
  0
LINE
  5
156
100
AcDbEntity
  8
Spacer B
  6
ByLayer
 62
  256
370
   -1
100
AcDbLine
 10
397.5
 20
-25.19999999999999
 11
397.5
 21
-34
  0
LINE
  5
157
100
AcDbEntity
  8
Spacer B
  6
ByLayer
 62
  256
370
   -1
100
AcDbLine
 10
397.5
 20
-34
 11
402.5
 21
-34
  0
LINE
  5
158
100
AcDbEntity
  8
Spacer B
  6
ByLayer
 62
  256
370
   -1
100
AcDbLine
 10
402.5
 20
-34
 11
402.5
 21
-25.19999999999999
  0
LINE
  5
159
100
AcDbEntity
  8
Spacer B
  6
ByLayer
 62
  256
370
   -1
100
AcDbLine
 10
387.7670526854727
 20
-31.30258659140546
 11
393.9895923599144
 21
-37.52512626584708
  0
LINE
  5
15A
100
AcDbEntity
  8
Spacer B
  6
ByLayer
 62
  256
370
   -1
100
AcDbLine
 10
393.9895923599144
 20
-37.52512626584708
 11
397.5251262658471
 21
-33.98959235991434
  0
LINE
  5
15B
100
AcDbEntity
  8
Spacer B
  6
ByLayer
 62
  256
370
   -1
100
AcDbLine
 10
397.5251262658471
 20
-33.98959235991434
 11
391.3025865914054
 21
-27.76705268547272
  0
LINE
  5
15C
100
AcDbEntity
  8
Spacer B
  6
ByLayer
 62
  256
370
   -1
100
AcDbLine
 10
385.2
 20
-42.5
 11
394
 21
-42.5
  0
LINE
  5
15D
100
AcDbEntity
  8
Spacer B
  6
ByLayer
 62
  256
370
   -1
100
AcDbLine
 10
394
 20
-42.5
 11
394
 21
-37.49999999999999
  0
LINE
  5
15E
100
AcDbEntity
  8
Spacer B
  6
ByLayer
 62
  256
370
   -1
100
AcDbLine
 10
394
 20
-37.49999999999999
 11
385.2
 21
-37.5
  0
LINE
  5
15F
100
AcDbEntity
  8
Spacer B
  6
ByLayer
 62
  256
370
   -1
100
AcDbLine
 10
391.3025865914054
 20
-52.23294731452728
 11
397.5251262658471
 21
-46.01040764008565
  0
LINE
  5
160
100
AcDbEntity
  8
Spacer B
  6
ByLayer
 62
  256
370
   -1
100
AcDbLine
 10
397.5251262658471
 20
-46.01040764008565
 11
393.9895923599144
 21
-42.47487373415291
  0
LINE
  5
161
100
AcDbEntity
  8
Spacer B
  6
ByLayer
 62
  256
370
   -1
100
AcDbLine
 10
393.9895923599144
 20
-42.47487373415291
 11
387.7670526854727
 21
-48.69741340859454
  0
LINE
  5
162
100
AcDbEntity
  8
Spacer B
  6
ByLayer
 62
  256
370
   -1
100
AcDbLine
 10
402.5
 20
-54.80000000000001
 11
402.5
 21
-46
  0
LINE
  5
163
100
AcDbEntity
  8
Spacer B
  6
ByLayer
 62
  256
370
   -1
100
AcDbLine
 10
402.5
 20
-46
 11
397.5
 21
-46
  0
LINE
  5
164
100
AcDbEntity
  8
Spacer B
  6
ByLayer
 62
  256
370
   -1
100
AcDbLine
 10
397.5
 20
-46
 11
397.5
 21
-54.80000000000001
  0
LINE
  5
165
100
AcDbEntity
  8
Spacer B
  6
ByLayer
 62
  256
370
   -1
100
AcDbLine
 10
412.2329473145273
 20
-48.69741340859454
 11
406.0104076400856
 21
-42.47487373415292
  0
LINE
  5
166
100
AcDbEntity
  8
Spacer B
  6
ByLayer
 62
  256
370
   -1
100
AcDbLine
 10
406.0104076400856
 20
-42.47487373415292
 11
402.4748737341529
 21
-46.01040764008566
  0
LINE
  5
167
100
AcDbEntity
  8
Spacer B
  6
ByLayer
 62
  256
370
   -1
100
AcDbLine
 10
402.4748737341529
 20
-46.01040764008566
 11
408.6974134085945
 21
-52.23294731452728
  0
LINE
  5
168
100
AcDbEntity
  8
Rack B
  6
ByLayer
 62
  256
370
   -1
100
AcDbLine
 10
393.6
 20
-42.50000000000001
 11
393.6
 21
-37.5
  0
ARC
  5
169
100
AcDbEntity
  8
Rack B
  6
ByLayer
 62
  256
370
   -1
100
AcDbCircle
 10
362
 20
-38.5
 40
1
100
AcDbArc
 50
90
 51
180
  0
ARC
  5
16A
100
AcDbEntity
  8
Rack B
  6
ByLayer
 62
  256
370
   -1
100
AcDbCircle
 10
362
 20
-41.5
 40
1
100
AcDbArc
 50
180
 51
270
  0
LINE
  5
16B
100
AcDbEntity
  8
Rack B
  6
ByLayer
 62
  256
370
   -1
100
AcDbLine
 10
362
 20
-42.5
 11
393.6
 21
-42.50000000000001
  0
LINE
  5
16C
100
AcDbEntity
  8
Rack B
  6
ByLayer
 62
  256
370
   -1
100
AcDbLine
 10
393.6
 20
-37.5
 11
362
 21
-37.5
  0
LINE
  5
16D
100
AcDbEntity
  8
Rack B
  6
ByLayer
 62
  256
370
   -1
100
AcDbLine
 10
361
 20
-38.5
 11
361
 21
-41.5
  0
LINE
  5
16E
100
AcDbEntity
  8
Rack B
  6
ByLayer
 62
  256
370
   -1
100
AcDbLine
 10
397.2422835533725
 20
-46.29325035256026
 11
393.7067496474397
 21
-42.75771644662752
  0
ARC
  5
16F
100
AcDbEntity
  8
Rack B
  6
ByLayer
 62
  256
370
   -1
100
AcDbCircle
 10
372.0692821431314
 20
-65.80939751330898
 40
1
100
AcDbArc
 50
135
 51
225
  0
ARC
  5
170
100
AcDbEntity
  8
Rack B
  6
ByLayer
 62
  256
370
   -1
100
AcDbCircle
 10
374.190602486691
 20
-67.93071785686863
 40
1
100
AcDbArc
 50
225
 51
315
  0
LINE
  5
171
100
AcDbEntity
  8
Rack B
  6
ByLayer
 62
  256
370
   -1
100
AcDbLine
 10
374.8977092678776
 20
-68.63782463805518
 11
397.2422835533725
 21
-46.29325035256026
  0
LINE
  5
172
100
AcDbEntity
  8
Rack B
  6
ByLayer
 62
  256
370
   -1
100
AcDbLine
 10
393.7067496474397
 20
-42.75771644662752
 11
371.3621753619448
 21
-65.10229073212244
  0
LINE
  5
173
100
AcDbEntity
  8
Rack B
  6
ByLayer
 62
  256
370
   -1
100
AcDbLine
 10
371.3621753619448
 20
-66.51650429449553
 11
373.4834957055045
 21
-68.63782463805518
  0
LINE
  5
174
100
AcDbEntity
  8
Rack B
  6
ByLayer
 62
  256
370
   -1
100
AcDbLine
 10
402.5
 20
-46.39999999999998
 11
397.5
 21
-46.39999999999998
  0
ARC
  5
175
100
AcDbEntity
  8
Rack B
  6
ByLayer
 62
  256
370
   -1
100
AcDbCircle
 10
398.5
 20
-78
 40
1
100
AcDbArc
 50
180
 51
270
  0
ARC
  5
176
100
AcDbEntity
  8
Rack B
  6
ByLayer
 62
  256
370
   -1
100
AcDbCircle
 10
401.5
 20
-78
 40
1
100
AcDbArc
 50
270
 51
360
  0
LINE
  5
177
100
AcDbEntity
  8
Rack B
  6
ByLayer
 62
  256
370
   -1
100
AcDbLine
 10
402.5
 20
-78
 11
402.5
 21
-46.39999999999998
  0
LINE
  5
178
100
AcDbEntity
  8
Rack B
  6
ByLayer
 62
  256
370
   -1
100
AcDbLine
 10
397.5
 20
-46.39999999999998
 11
397.5
 21
-78
  0
LINE
  5
179
100
AcDbEntity
  8
Rack B
  6
ByLayer
 62
  256
370
   -1
100
AcDbLine
 10
398.5
 20
-79
 11
401.5
 21
-79
  0
LINE
  5
17A
100
AcDbEntity
  8
Rack B
  6
ByLayer
 62
  256
370
   -1
100
AcDbLine
 10
406.2932503525603
 20
-42.75771644662751
 11
402.7577164466275
 21
-46.29325035256026
  0
ARC
  5
17B
100
AcDbEntity
  8
Rack B
  6
ByLayer
 62
  256
370
   -1
100
AcDbCircle
 10
425.809397513309
 20
-67.93071785686863
 40
1
100
AcDbArc
 50
225
 51
315
  0
ARC
  5
17C
100
AcDbEntity
  8
Rack B
  6
ByLayer
 62
  256
370
   -1
100
AcDbCircle
 10
427.9307178568686
 20
-65.80939751330898
 40
1
100
AcDbArc
 50
315
 51
45
  0
LINE
  5
17D
100
AcDbEntity
  8
Rack B
  6
ByLayer
 62
  256
370
   -1
100
AcDbLine
 10
428.6378246380552
 20
-65.10229073212244
 11
406.2932503525603
 21
-42.75771644662751
  0
LINE
  5
17E
100
AcDbEntity
  8
Rack B
  6
ByLayer
 62
  256
370
   -1
100
AcDbLine
 10
402.7577164466275
 20
-46.29325035256026
 11
425.1022907321224
 21
-68.63782463805518
  0
LINE
  5
17F
100
AcDbEntity
  8
Rack B
  6
ByLayer
 62
  256
370
   -1
100
AcDbLine
 10
426.5165042944955
 20
-68.63782463805518
 11
428.6378246380552
 21
-66.51650429449553
  0
LINE
  5
180
100
AcDbEntity
  8
Rack B
  6
ByLayer
 62
  256
370
   -1
100
AcDbLine
 10
406.4
 20
-37.49999999999999
 11
406.4
 21
-42.5
  0
ARC
  5
181
100
AcDbEntity
  8
Rack B
  6
ByLayer
 62
  256
370
   -1
100
AcDbCircle
 10
438
 20
-41.50000000000001
 40
1
100
AcDbArc
 50
270
 51
360
  0
ARC
  5
182
100
AcDbEntity
  8
Rack B
  6
ByLayer
 62
  256
370
   -1
100
AcDbCircle
 10
438
 20
-38.50000000000001
 40
1
100
AcDbArc
 50
360
 51
90
  0
LINE
  5
183
100
AcDbEntity
  8
Rack B
  6
ByLayer
 62
  256
370
   -1
100
AcDbLine
 10
438
 20
-37.50000000000001
 11
406.4
 21
-37.49999999999999
  0
LINE
  5
184
100
AcDbEntity
  8
Rack B
  6
ByLayer
 62
  256
370
   -1
100
AcDbLine
 10
406.4
 20
-42.5
 11
438
 21
-42.50000000000001
  0
LINE
  5
185
100
AcDbEntity
  8
Rack B
  6
ByLayer
 62
  256
370
   -1
100
AcDbLine
 10
439
 20
-41.50000000000001
 11
439
 21
-38.50000000000001
  0
LINE
  5
186
100
AcDbEntity
  8
Rack B
  6
ByLayer
 62
  256
370
   -1
100
AcDbLine
 10
402.7577164466275
 20
-33.70674964743974
 11
406.2932503525603
 21
-37.24228355337248
  0
ARC
  5
187
100
AcDbEntity
  8
Rack B
  6
ByLayer
 62
  256
370
   -1
100
AcDbCircle
 10
427.9307178568686
 20
-14.19060248669102
 40
1
100
AcDbArc
 50
315
 51
45
  0
ARC
  5
188
100
AcDbEntity
  8
Rack B
  6
ByLayer
 62
  256
370
   -1
100
AcDbCircle
 10
425.809397513309
 20
-12.06928214313137
 40
1
100
AcDbArc
 50
45
 51
134.9999999999999
  0
LINE
  5
189
100
AcDbEntity
  8
Rack B
  6
ByLayer
 62
  256
370
   -1
100
AcDbLine
 10
425.1022907321225
 20
-11.36217536194483
 11
402.7577164466275
 21
-33.70674964743974
  0
LINE
  5
18A
100
AcDbEntity
  8
Rack B
  6
ByLayer
 62
  256
370
   -1
100
AcDbLine
 10
406.2932503525603
 20
-37.24228355337248
 11
428.6378246380552
 21
-14.89770926787757
  0
LINE
  5
18B
100
AcDbEntity
  8
Rack B
  6
ByLayer
 62
  256
370
   -1
100
AcDbLine
 10
428.6378246380552
 20
-13.48349570550447
 11
426.5165042944955
 21
-11.36217536194482
  0
LINE
  5
18C
100
AcDbEntity
  8
Rack B
  6
ByLayer
 62
  256
370
   -1
100
AcDbLine
 10
397.5
 20
-33.60000000000002
 11
402.5
 21
-33.60000000000002
  0
ARC
  5
18D
100
AcDbEntity
  8
Rack B
  6
ByLayer
 62
  256
370
   -1
100
AcDbCircle
 10
401.5
 20
-2
 40
1
100
AcDbArc
 50
360
 51
90
  0
ARC
  5
18E
100
AcDbEntity
  8
Rack B
  6
ByLayer
 62
  256
370
   -1
100
AcDbCircle
 10
398.5
 20
-2
 40
1
100
AcDbArc
 50
90
 51
180
  0
LINE
  5
18F
100
AcDbEntity
  8
Rack B
  6
ByLayer
 62
  256
370
   -1
100
AcDbLine
 10
397.5
 20
-2
 11
397.5
 21
-33.60000000000002
  0
LINE
  5
190
100
AcDbEntity
  8
Rack B
  6
ByLayer
 62
  256
370
   -1
100
AcDbLine
 10
402.5
 20
-33.60000000000002
 11
402.5
 21
-2
  0
LINE
  5
191
100
AcDbEntity
  8
Rack B
  6
ByLayer
 62
  256
370
   -1
100
AcDbLine
 10
401.5
 20
-1
 11
398.5
 21
-1
  0
LINE
  5
192
100
AcDbEntity
  8
Rack B
  6
ByLayer
 62
  256
370
   -1
100
AcDbLine
 10
393.7067496474397
 20
-37.24228355337249
 11
397.2422835533725
 21
-33.70674964743974
  0
ARC
  5
193
100
AcDbEntity
  8
Rack B
  6
ByLayer
 62
  256
370
   -1
100
AcDbCircle
 10
374.190602486691
 20
-12.06928214313137
 40
1
100
AcDbArc
 50
45
 51
134.9999999999999
  0
ARC
  5
194
100
AcDbEntity
  8
Rack B
  6
ByLayer
 62
  256
370
   -1
100
AcDbCircle
 10
372.0692821431314
 20
-14.19060248669101
 40
1
100
AcDbArc
 50
134.9999999999999
 51
225.0000000000001
  0
LINE
  5
195
100
AcDbEntity
  8
Rack B
  6
ByLayer
 62
  256
370
   -1
100
AcDbLine
 10
371.3621753619448
 20
-14.89770926787756
 11
393.7067496474397
 21
-37.24228355337249
  0
LINE
  5
196
100
AcDbEntity
  8
Rack B
  6
ByLayer
 62
  256
370
   -1
100
AcDbLine
 10
397.2422835533725
 20
-33.70674964743974
 11
374.8977092678776
 21
-11.36217536194482
  0
LINE
  5
197
100
AcDbEntity
  8
Rack B
  6
ByLayer
 62
  256
370
   -1
100
AcDbLine
 10
373.4834957055045
 20
-11.36217536194482
 11
371.3621753619448
 21
-13.48349570550446
  0
DIMENSION
  5
198
100
AcDbEntity
  8
Dimms
  6
ByLayer
 62
  256
370
   -1
100
AcDbDimension
  2
*D4
 10
439
 20
-100
 30
0
 11
423
 21
-95.3125
 31
0
 70
   32
 71
    5
  3
Standard
 53
0
210
0
220
0
230
1
100
AcDbAlignedDimension
 13
407
 23
-90
 33
0
 14
439
 24
-90
 34
0
100
AcDbRotatedDimension
  0
LINE
  5
199
100
AcDbEntity
  8
Nut
  6
ByLayer
 62
  256
370
   -1
100
AcDbLine
 10
172
 20
5
 11
175
 21
5
  0
LINE
  5
19A
100
AcDbEntity
  8
Nut
  6
ByLayer
 62
  256
370
   -1
100
AcDbLine
 10
178
 20
5
 11
175
 21
5
  0
LINE
  5
19B
100
AcDbEntity
  8
GrubScrew
  6
ByLayer
 62
  256
370
   -1
100
AcDbLine
 10
173
 20
25
 11
172
 21
24
  0
LINE
  5
19C
100
AcDbEntity
  8
GrubScrew
  6
ByLayer
 62
  256
370
   -1
100
AcDbLine
 10
172
 20
24
 11
172
 21
17
  0
LINE
  5
19D
100
AcDbEntity
  8
GrubScrew
  6
ByLayer
 62
  256
370
   -1
100
AcDbLine
 10
172
 20
17
 11
178
 21
17
  0
LINE
  5
19E
100
AcDbEntity
  8
GrubScrew
  6
ByLayer
 62
  256
370
   -1
100
AcDbLine
 10
178
 20
17
 11
178
 21
24
  0
LINE
  5
19F
100
AcDbEntity
  8
GrubScrew
  6
ByLayer
 62
  256
370
   -1
100
AcDbLine
 10
178
 20
24
 11
177
 21
25
  0
LINE
  5
1A0
100
AcDbEntity
  8
GrubScrew
  6
ByLayer
 62
  256
370
   -1
100
AcDbLine
 10
177
 20
25
 11
173
 21
25
  0
LINE
  5
1A1
100
AcDbEntity
  8
Bolt
  6
ByLayer
 62
  256
370
   -1
100
AcDbLine
 10
172
 20
50
 11
172
 21
26
  0
LINE
  5
1A2
100
AcDbEntity
  8
Bolt
  6
ByLayer
 62
  256
370
   -1
100
AcDbLine
 10
178
 20
26
 11
178
 21
50
  0
LINE
  5
1A3
100
AcDbEntity
  8
Bolt
  6
ByLayer
 62
  256
370
   -1
100
AcDbLine
 10
172
 20
26
 11
173
 21
25
  0
LINE
  5
1A4
100
AcDbEntity
  8
Bolt
  6
ByLayer
 62
  256
370
   -1
100
AcDbLine
 10
173
 20
25
 11
177
 21
25
  0
LINE
  5
1A5
100
AcDbEntity
  8
Bolt
  6
ByLayer
 62
  256
370
   -1
100
AcDbLine
 10
177
 20
25
 11
178
 21
26
  0
ARC
  5
1A6
100
AcDbEntity
  8
Nut
  6
ByLayer
 62
  256
370
   -1
100
AcDbCircle
 10
173.1153846153846
 20
12.84615384615385
 40
9.807692307692308
100
AcDbArc
 50
306.869897645844
 51
25.05761541830302
  0
LINE
  5
1A7
100
AcDbEntity
  8
Nut
  6
ByLayer
 62
  256
370
   -1
100
AcDbLine
 10
179
 20
5.000000000000002
 11
178
 21
5
  0
ARC
  5
1A8
100
AcDbEntity
  8
Nut
  6
ByLayer
 62
  256
370
   -1
100
AcDbCircle
 10
176.8846153846154
 20
12.84615384615385
 40
9.807692307692308
100
AcDbArc
 50
154.942384581697
 51
233.130102354156
  0
LINE
  5
1A9
100
AcDbEntity
  8
Nut
  6
ByLayer
 62
  256
370
   -1
100
AcDbLine
 10
171
 20
5
 11
172
 21
5
  0
LINE
  5
1AA
100
AcDbEntity
  8
Nut
  6
ByLayer
 62
  256
370
   -1
100
AcDbLine
 10
172
 20
15
 11
172.5
 21
14.5
  0
LINE
  5
1AB
100
AcDbEntity
  8
Nut
  6
ByLayer
 62
  256
370
   -1
100
AcDbLine
 10
178
 20
15
 11
177.5
 21
14.5
  0
LINE
  5
1AC
100
AcDbEntity
  8
Nut
  6
ByLayer
 62
  256
370
   -1
100
AcDbLine
 10
177.5
 20
14.5
 11
177.5
 21
5
  0
LINE
  5
1AD
100
AcDbEntity
  8
Nut
  6
ByLayer
 62
  256
370
   -1
100
AcDbLine
 10
172.5
 20
5
 11
172.5
 21
14.5
  0
LINE
  5
1AE
100
AcDbEntity
  8
Nut
  6
ByLayer
 62
  256
370
   -1
100
AcDbLine
 10
178
 20
15
 11
178
 21
35
  0
LINE
  5
1AF
100
AcDbEntity
  8
Nut
  6
ByLayer
 62
  256
370
   -1
100
AcDbLine
 10
172
 20
15
 11
172
 21
35
  0
DIMENSION
  5
1B0
100
AcDbEntity
  8
Dimms
  6
ByLayer
 62
  256
370
   -1
100
AcDbDimension
  2
*D5
 10
570
 20
5
 30
0
 11
565.3125
 21
20
 31
0
 70
   32
 71
    5
  3
Standard
 53
0
210
0
220
0
230
1
100
AcDbAlignedDimension
 13
560
 23
35
 33
0
 14
560
 24
5
 34
0
 50
90
100
AcDbRotatedDimension
  0
LINE
  5
1B1
100
AcDbEntity
  8
Nut
  6
ByLayer
 62
  256
370
   -1
100
AcDbLine
 10
555
 20
35
 11
555
 21
33
  0
LINE
  5
1B2
100
AcDbEntity
  8
Nut
  6
ByLayer
 62
  256
370
   -1
100
AcDbLine
 10
555
 20
33
 11
554
 21
32
  0
LINE
  5
1B3
100
AcDbEntity
  8
Nut
  6
ByLayer
 62
  256
370
   -1
100
AcDbLine
 10
554
 20
32
 11
555
 21
31
  0
LINE
  5
1B4
100
AcDbEntity
  8
Nut
  6
ByLayer
 62
  256
370
   -1
100
AcDbLine
 10
555
 20
31
 11
555
 21
29
  0
LINE
  5
1B5
100
AcDbEntity
  8
Nut
  6
ByLayer
 62
  256
370
   -1
100
AcDbLine
 10
555
 20
29
 11
552
 21
29
  0
ARC
  5
1B6
100
AcDbEntity
  8
Nut
  6
ByLayer
 62
  256
370
   -1
100
AcDbCircle
 10
550.8333333333333
 20
25
 40
4.166666666666667
100
AcDbArc
 50
286.2602047083122
 51
73.7397952916878
  0
POINT
  5
1B7
100
AcDbEntity
  8
Nut
  6
ByLayer
 62
  256
370
   -1
100
AcDbPoint
 10
552
 20
21
  0
ARC
  5
1B8
100
AcDbEntity
  8
Nut
  6
ByLayer
 62
  256
370
   -1
100
AcDbCircle
 10
550.5
 20
15.5
 40
5.70087712549569
100
AcDbArc
 50
37.87498365109819
 51
74.74488129694222
  0
ARC
  5
1B9
100
AcDbEntity
  8
Nut
  6
ByLayer
 62
  256
370
   -1
100
AcDbCircle
 10
550.5
 20
22.5
 40
5.70087712549569
100
AcDbArc
 50
285.2551187030577
 51
322.1250163489018
  0
LINE
  5
1BA
100
AcDbEntity
  8
Nut
  6
ByLayer
 62
  256
370
   -1
100
AcDbLine
 10
545
 20
35
 11
555
 21
35
  0
LINE
  5
1BB
100
AcDbEntity
  8
Nut
  6
ByLayer
 62
  256
370
   -1
100
AcDbLine
 10
535
 20
35
 11
535
 21
33
  0
LINE
  5
1BC
100
AcDbEntity
  8
Nut
  6
ByLayer
 62
  256
370
   -1
100
AcDbLine
 10
535
 20
33
 11
536
 21
32
  0
LINE
  5
1BD
100
AcDbEntity
  8
Nut
  6
ByLayer
 62
  256
370
   -1
100
AcDbLine
 10
536
 20
32
 11
535
 21
31
  0
LINE
  5
1BE
100
AcDbEntity
  8
Nut
  6
ByLayer
 62
  256
370
   -1
100
AcDbLine
 10
535
 20
31
 11
535
 21
29
  0
LINE
  5
1BF
100
AcDbEntity
  8
Nut
  6
ByLayer
 62
  256
370
   -1
100
AcDbLine
 10
535
 20
29
 11
538
 21
29
  0
ARC
  5
1C0
100
AcDbEntity
  8
Nut
  6
ByLayer
 62
  256
370
   -1
100
AcDbCircle
 10
539.1666666666667
 20
25
 40
4.166666666666667
100
AcDbArc
 50
106.2602047083122
 51
253.7397952916878
  0
POINT
  5
1C1
100
AcDbEntity
  8
Nut
  6
ByLayer
 62
  256
370
   -1
100
AcDbPoint
 10
538
 20
21
  0
ARC
  5
1C2
100
AcDbEntity
  8
Nut
  6
ByLayer
 62
  256
370
   -1
100
AcDbCircle
 10
539.5
 20
15.5
 40
5.70087712549569
100
AcDbArc
 50
105.2551187030577
 51
142.1250163489019
  0
ARC
  5
1C3
100
AcDbEntity
  8
Nut
  6
ByLayer
 62
  256
370
   -1
100
AcDbCircle
 10
539.5
 20
22.5
 40
5.70087712549569
100
AcDbArc
 50
217.8749836510982
 51
254.7448812969423
  0
LINE
  5
1C4
100
AcDbEntity
  8
Nut
  6
ByLayer
 62
  256
370
   -1
100
AcDbLine
 10
545
 20
35
 11
535
 21
35
  0
LINE
  5
1C5
100
AcDbEntity
  8
Nut
  6
ByLayer
 62
  256
370
   -1
100
AcDbLine
 10
542
 20
35
 11
542
 21
25
  0
LINE
  5
1C6
100
AcDbEntity
  8
Nut
  6
ByLayer
 62
  256
370
   -1
100
AcDbLine
 10
548
 20
25
 11
548
 21
35
  0
LINE
  5
1C7
100
AcDbEntity
  8
Nut
  6
ByLayer
 62
  256
370
   -1
100
AcDbLine
 10
538
 20
17
 11
552
 21
17
  0
LINE
  5
1C8
100
AcDbEntity
  8
Nut
  6
ByLayer
 62
  256
370
   -1
100
AcDbLine
 10
552
 20
21
 11
538
 21
21
  0
LINE
  5
1C9
100
AcDbEntity
  8
Nut
  6
ByLayer
 62
  256
370
   -1
100
AcDbLine
 10
538
 20
29
 11
552
 21
29
  0
LINE
  5
1CA
100
AcDbEntity
  8
Nut
  6
ByLayer
 62
  256
370
   -1
100
AcDbLine
 10
555
 20
31
 11
535
 21
31
  0
LINE
  5
1CB
100
AcDbEntity
  8
Nut
  6
ByLayer
 62
  256
370
   -1
100
AcDbLine
 10
536
 20
32
 11
554
 21
32
  0
LINE
  5
1CC
100
AcDbEntity
  8
Nut
  6
ByLayer
 62
  256
370
   -1
100
AcDbLine
 10
555
 20
33
 11
535
 21
33
  0
LINE
  5
1CD
100
AcDbEntity
  8
Nut
  6
ByLayer
 62
  256
370
   -1
100
AcDbLine
 10
542
 20
5
 11
545
 21
5
  0
LINE
  5
1CE
100
AcDbEntity
  8
Nut
  6
ByLayer
 62
  256
370
   -1
100
AcDbLine
 10
548
 20
5
 11
545
 21
5
  0
ARC
  5
1CF
100
AcDbEntity
  8
Nut
  6
ByLayer
 62
  256
370
   -1
100
AcDbCircle
 10
543.1153846153846
 20
12.84615384615385
 40
9.807692307692308
100
AcDbArc
 50
306.869897645844
 51
25.05761541830302
  0
LINE
  5
1D0
100
AcDbEntity
  8
Nut
  6
ByLayer
 62
  256
370
   -1
100
AcDbLine
 10
549
 20
5.000000000000002
 11
548
 21
5
  0
ARC
  5
1D1
100
AcDbEntity
  8
Nut
  6
ByLayer
 62
  256
370
   -1
100
AcDbCircle
 10
546.8846153846154
 20
12.84615384615385
 40
9.807692307692308
100
AcDbArc
 50
154.942384581697
 51
233.130102354156
  0
LINE
  5
1D2
100
AcDbEntity
  8
Nut
  6
ByLayer
 62
  256
370
   -1
100
AcDbLine
 10
541
 20
5
 11
542
 21
5
  0
LINE
  5
1D3
100
AcDbEntity
  8
Nut
  6
ByLayer
 62
  256
370
   -1
100
AcDbLine
 10
542
 20
15
 11
542.5
 21
14.5
  0
LINE
  5
1D4
100
AcDbEntity
  8
Nut
  6
ByLayer
 62
  256
370
   -1
100
AcDbLine
 10
548
 20
15
 11
547.5
 21
14.5
  0
LINE
  5
1D5
100
AcDbEntity
  8
Nut
  6
ByLayer
 62
  256
370
   -1
100
AcDbLine
 10
547.5
 20
14.5
 11
547.5
 21
5
  0
LINE
  5
1D6
100
AcDbEntity
  8
Nut
  6
ByLayer
 62
  256
370
   -1
100
AcDbLine
 10
542.5
 20
5
 11
542.5
 21
14.5
  0
LINE
  5
1D7
100
AcDbEntity
  8
Nut
  6
ByLayer
 62
  256
370
   -1
100
AcDbLine
 10
548
 20
15
 11
548
 21
35
  0
LINE
  5
1D8
100
AcDbEntity
  8
Nut
  6
ByLayer
 62
  256
370
   -1
100
AcDbLine
 10
542
 20
15
 11
542
 21
35
  0
DIMENSION
  5
1D9
100
AcDbEntity
  8
Dimms
  6
ByLayer
 62
  256
370
   -1
100
AcDbDimension
  2
*D6
 10
549
 20
50
 30
0
 11
546
 21
54.6875
 31
0
 70
   32
 71
    5
  3
Standard
 53
0
210
0
220
0
230
1
100
AcDbAlignedDimension
 13
543
 23
40
 33
0
 14
549
 24
40
 34
0
100
AcDbRotatedDimension
  0
DIMENSION
  5
1DA
100
AcDbEntity
  8
Dimms
  6
ByLayer
 62
  256
370
   -1
100
AcDbDimension
  2
*D7
 10
555
 20
-9.6875
 30
0
 11
545
 21
-5
 31
0
 70
   32
 71
    5
  3
Standard
 53
0
210
0
220
0
230
1
100
AcDbAlignedDimension
 13
535
 23
0.3125
 33
0
 14
555
 24
0.3125
 34
0
100
AcDbRotatedDimension
  0
LINE
  5
1DB
100
AcDbEntity
  8
Rack B
  6
ByLayer
 62
  256
370
   -1
100
AcDbLine
 10
439.5
 20
44.50000000000001
 11
439.5
 21
39.5
  0
LINE
  5
1DC
100
AcDbEntity
  8
Rack B
  6
ByLayer
 62
  256
370
   -1
100
AcDbLine
 10
360.5
 20
44.50000000000001
 11
360.5
 21
39.5
  0
CIRCLE
  5
1DD
100
AcDbEntity
  8
Spacer B
  6
ByLayer
 62
  256
370
   -1
100
AcDbCircle
 10
400
 20
42
 40
2.499999999999998
  0
ELLIPSE
  5
1DE
100
AcDbEntity
  8
Spacer B
  6
ByLayer
 62
  256
370
   -1
100
AcDbEllipse
 10
410.6
 20
42
 30
0
 11
-0.1999999999999318
 21
2.499999999999998
 31
0
 40
0.9141494435612236
 41
0
 42
6.283185307179586
  0
ELLIPSE
  5
1DF
100
AcDbEntity
  8
Spacer B
  6
ByLayer
 62
  256
370
   -1
100
AcDbEllipse
 10
389.4
 20
42
 30
0
 11
0.1999999999999318
 21
2.499999999999998
 31
0
 40
0.9141494435612236
 41
0
 42
6.283185307179586
  0
DIMENSION
  5
1E0
100
AcDbEntity
  8
Dimms
  6
ByLayer
 62
  256
370
   -1
100
AcDbDimension
  2
*D8
 10
460
 20
35
 30
0
 11
455.3125
 21
42
 31
0
 70
   32
 71
    5
  3
Standard
 53
0
210
0
220
0
230
1
100
AcDbAlignedDimension
 13
450
 23
49
 33
0
 14
450
 24
35
 34
0
 50
90
100
AcDbRotatedDimension
  0
DIMENSION
  5
1E1
100
AcDbEntity
  8
Dimms
  6
ByLayer
 62
  256
370
   -1
100
AcDbDimension
  2
*D9
 10
340
 20
39.5
 30
0
 11
335.3125
 21
42
 31
0
 70
   32
 71
    5
  3
Standard
 53
0
210
0
220
0
230
1
100
AcDbAlignedDimension
 13
350
 23
44.5
 33
0
 14
350
 24
39.5
 34
0
 50
90
100
AcDbRotatedDimension
  0
LINE
  5
1E2
100
AcDbEntity
  8
Rack B
  6
ByLayer
 62
  256
370
   -1
100
AcDbLine
 10
360.5
 20
39.5
 11
383
 21
39.5
  0
LINE
  5
1E3
100
AcDbEntity
  8
Rack B
  6
ByLayer
 62
  256
370
   -1
100
AcDbLine
 10
383
 20
44.5
 11
360.5
 21
44.50000000000001
  0
LINE
  5
1E4
100
AcDbEntity
  8
Rack B
  6
ByLayer
 62
  256
370
   -1
100
AcDbLine
 10
439.5
 20
39.5
 11
417
 21
39.5
  0
LINE
  5
1E5
100
AcDbEntity
  8
Rack B
  6
ByLayer
 62
  256
370
   -1
100
AcDbLine
 10
417
 20
44.5
 11
439.5
 21
44.50000000000001
  0
DIMENSION
  5
1E6
100
AcDbEntity
  8
Dimms
  6
ByLayer
 62
  256
370
   -1
100
AcDbDimension
  2
*D10
 10
300
 20
10
 30
0
 11
280
 21
14.6875
 31
0
 70
   32
 71
    5
  3
Standard
 53
0
210
0
220
0
230
1
100
AcDbAlignedDimension
 13
260
 23
0
 33
0
 14
300
 24
0
 34
0
100
AcDbRotatedDimension
  0
LINE
  5
1E7
100
AcDbEntity
  8
Spacer B
  6
ByLayer
 62
  256
370
   -1
100
AcDbLine
 10
417
 20
47
 11
417
 21
37
  0
LINE
  5
1E8
100
AcDbEntity
  8
Spacer B
  6
ByLayer
 62
  256
370
   -1
100
AcDbLine
 10
416
 20
35
 11
417
 21
36
  0
LINE
  5
1E9
100
AcDbEntity
  8
Spacer B
  6
ByLayer
 62
  256
370
   -1
100
AcDbLine
 10
417
 20
36
 11
417
 21
37
  0
LINE
  5
1EA
100
AcDbEntity
  8
Spacer B
  6
ByLayer
 62
  256
370
   -1
100
AcDbLine
 10
416
 20
49
 11
417
 21
48
  0
LINE
  5
1EB
100
AcDbEntity
  8
Spacer B
  6
ByLayer
 62
  256
370
   -1
100
AcDbLine
 10
417
 20
48
 11
417
 21
47
  0
LINE
  5
1EC
100
AcDbEntity
  8
Spacer B
  6
ByLayer
 62
  256
370
   -1
100
AcDbLine
 10
383
 20
37
 11
383
 21
47
  0
LINE
  5
1ED
100
AcDbEntity
  8
Spacer B
  6
ByLayer
 62
  256
370
   -1
100
AcDbLine
 10
417
 20
46
 11
383
 21
46
  0
LINE
  5
1EE
100
AcDbEntity
  8
Spacer B
  6
ByLayer
 62
  256
370
   -1
100
AcDbLine
 10
383
 20
38
 11
417
 21
38
  0
LINE
  5
1EF
100
AcDbEntity
  8
Spacer B
  6
ByLayer
 62
  256
370
   -1
100
AcDbLine
 10
383
 20
36
 11
384
 21
35
  0
LINE
  5
1F0
100
AcDbEntity
  8
Spacer B
  6
ByLayer
 62
  256
370
   -1
100
AcDbLine
 10
383
 20
37
 11
383
 21
36
  0
LINE
  5
1F1
100
AcDbEntity
  8
Spacer B
  6
ByLayer
 62
  256
370
   -1
100
AcDbLine
 10
384
 20
35
 11
416
 21
35
  0
LINE
  5
1F2
100
AcDbEntity
  8
Spacer B
  6
ByLayer
 62
  256
370
   -1
100
AcDbLine
 10
383
 20
36
 11
417
 21
36
  0
LINE
  5
1F3
100
AcDbEntity
  8
Spacer B
  6
ByLayer
 62
  256
370
   -1
100
AcDbLine
 10
383
 20
48
 11
384
 21
49
  0
LINE
  5
1F4
100
AcDbEntity
  8
Spacer B
  6
ByLayer
 62
  256
370
   -1
100
AcDbLine
 10
383
 20
47
 11
383
 21
48
  0
LINE
  5
1F5
100
AcDbEntity
  8
Spacer B
  6
ByLayer
 62
  256
370
   -1
100
AcDbLine
 10
384
 20
49
 11
416
 21
49
  0
LINE
  5
1F6
100
AcDbEntity
  8
Spacer B
  6
ByLayer
 62
  256
370
   -1
100
AcDbLine
 10
383
 20
48
 11
417
 21
48
  0
LINE
  5
1F7
100
AcDbEntity
  8
Rack B
  6
ByLayer
 62
  256
370
   -1
100
AcDbLine
 10
214.5
 20
44.50000000000001
 11
214.5
 21
39.5
  0
LINE
  5
1F8
100
AcDbEntity
  8
Rack B
  6
ByLayer
 62
  256
370
   -1
100
AcDbLine
 10
135.5
 20
44.50000000000001
 11
135.5
 21
39.5
  0
CIRCLE
  5
1F9
100
AcDbEntity
  8
Spacer B
  6
ByLayer
 62
  256
370
   -1
100
AcDbCircle
 10
175
 20
42
 40
2.499999999999998
  0
ELLIPSE
  5
1FA
100
AcDbEntity
  8
Spacer B
  6
ByLayer
 62
  256
370
   -1
100
AcDbEllipse
 10
185.6
 20
42
 30
0
 11
-0.1999999999999318
 21
2.499999999999998
 31
0
 40
0.9141494435612236
 41
0
 42
6.283185307179586
  0
ELLIPSE
  5
1FB
100
AcDbEntity
  8
Spacer B
  6
ByLayer
 62
  256
370
   -1
100
AcDbEllipse
 10
164.4
 20
42
 30
0
 11
0.1999999999999318
 21
2.499999999999998
 31
0
 40
0.9141494435612236
 41
0
 42
6.283185307179586
  0
LINE
  5
1FC
100
AcDbEntity
  8
Rack B
  6
ByLayer
 62
  256
370
   -1
100
AcDbLine
 10
135.5
 20
39.5
 11
158
 21
39.5
  0
LINE
  5
1FD
100
AcDbEntity
  8
Rack B
  6
ByLayer
 62
  256
370
   -1
100
AcDbLine
 10
158
 20
44.5
 11
135.5
 21
44.50000000000001
  0
LINE
  5
1FE
100
AcDbEntity
  8
Rack B
  6
ByLayer
 62
  256
370
   -1
100
AcDbLine
 10
214.5
 20
39.5
 11
192
 21
39.5
  0
LINE
  5
1FF
100
AcDbEntity
  8
Rack B
  6
ByLayer
 62
  256
370
   -1
100
AcDbLine
 10
192
 20
44.5
 11
214.5
 21
44.50000000000001
  0
LINE
  5
200
100
AcDbEntity
  8
Spacer B
  6
ByLayer
 62
  256
370
   -1
100
AcDbLine
 10
192
 20
47
 11
192
 21
37
  0
LINE
  5
201
100
AcDbEntity
  8
Spacer B
  6
ByLayer
 62
  256
370
   -1
100
AcDbLine
 10
191
 20
35
 11
192
 21
36
  0
LINE
  5
202
100
AcDbEntity
  8
Spacer B
  6
ByLayer
 62
  256
370
   -1
100
AcDbLine
 10
192
 20
36
 11
192
 21
37
  0
LINE
  5
203
100
AcDbEntity
  8
Spacer B
  6
ByLayer
 62
  256
370
   -1
100
AcDbLine
 10
191
 20
49
 11
192
 21
48
  0
LINE
  5
204
100
AcDbEntity
  8
Spacer B
  6
ByLayer
 62
  256
370
   -1
100
AcDbLine
 10
192
 20
48
 11
192
 21
47
  0
LINE
  5
205
100
AcDbEntity
  8
Spacer B
  6
ByLayer
 62
  256
370
   -1
100
AcDbLine
 10
158
 20
37
 11
158
 21
47
  0
LINE
  5
206
100
AcDbEntity
  8
Spacer B
  6
ByLayer
 62
  256
370
   -1
100
AcDbLine
 10
192
 20
46
 11
158
 21
46
  0
LINE
  5
207
100
AcDbEntity
  8
Spacer B
  6
ByLayer
 62
  256
370
   -1
100
AcDbLine
 10
158
 20
38
 11
192
 21
38
  0
LINE
  5
208
100
AcDbEntity
  8
Spacer B
  6
ByLayer
 62
  256
370
   -1
100
AcDbLine
 10
158
 20
36
 11
159
 21
35
  0
LINE
  5
209
100
AcDbEntity
  8
Spacer B
  6
ByLayer
 62
  256
370
   -1
100
AcDbLine
 10
158
 20
37
 11
158
 21
36
  0
LINE
  5
20A
100
AcDbEntity
  8
Spacer B
  6
ByLayer
 62
  256
370
   -1
100
AcDbLine
 10
159
 20
35
 11
191
 21
35
  0
LINE
  5
20B
100
AcDbEntity
  8
Spacer B
  6
ByLayer
 62
  256
370
   -1
100
AcDbLine
 10
158
 20
36
 11
192
 21
36
  0
LINE
  5
20C
100
AcDbEntity
  8
Spacer B
  6
ByLayer
 62
  256
370
   -1
100
AcDbLine
 10
158
 20
48
 11
159
 21
49
  0
LINE
  5
20D
100
AcDbEntity
  8
Spacer B
  6
ByLayer
 62
  256
370
   -1
100
AcDbLine
 10
158
 20
47
 11
158
 21
48
  0
LINE
  5
20E
100
AcDbEntity
  8
Spacer B
  6
ByLayer
 62
  256
370
   -1
100
AcDbLine
 10
159
 20
49
 11
191
 21
49
  0
LINE
  5
20F
100
AcDbEntity
  8
Spacer B
  6
ByLayer
 62
  256
370
   -1
100
AcDbLine
 10
158
 20
48
 11
192
 21
48
  0
DIMENSION
  5
210
100
AcDbEntity
  8
Dimms
  6
ByLayer
 62
  256
370
   -1
100
AcDbDimension
  2
*D11
 10
417
 20
70
 30
0
 11
400
 21
74.6875
 31
0
 70
   32
 71
    5
  3
Standard
 53
0
210
0
220
0
230
1
100
AcDbAlignedDimension
 13
383
 23
60
 33
0
 14
417
 24
60
 34
0
100
AcDbRotatedDimension
  0
CIRCLE
  5
211
100
AcDbEntity
  8
Spacer B
  6
ByLayer
 62
  256
370
   -1
100
AcDbCircle
 10
400
 20
-40
 40
17
  0
CIRCLE
  5
212
100
AcDbEntity
  8
Dimms
  6
ByLayer
 62
  256
370
   -1
100
AcDbCircle
 10
280
 20
-27
 40
1
  0
CIRCLE
  5
213
100
AcDbEntity
  8
Dimms
  6
ByLayer
 62
  256
370
   -1
100
AcDbCircle
 10
270.8076118445749
 20
-30.80761184457488
 40
1
  0
CIRCLE
  5
214
100
AcDbEntity
  8
Dimms
  6
ByLayer
 62
  256
370
   -1
100
AcDbCircle
 10
267
 20
-40
 40
1
  0
CIRCLE
  5
215
100
AcDbEntity
  8
Dimms
  6
ByLayer
 62
  256
370
   -1
100
AcDbCircle
 10
270.8076118445749
 20
-49.19238815542512
 40
1
  0
CIRCLE
  5
216
100
AcDbEntity
  8
Dimms
  6
ByLayer
 62
  256
370
   -1
100
AcDbCircle
 10
280
 20
-53
 40
1
  0
CIRCLE
  5
217
100
AcDbEntity
  8
Dimms
  6
ByLayer
 62
  256
370
   -1
100
AcDbCircle
 10
289.1923881554251
 20
-49.19238815542512
 40
1
  0
CIRCLE
  5
218
100
AcDbEntity
  8
Dimms
  6
ByLayer
 62
  256
370
   -1
100
AcDbCircle
 10
293
 20
-40
 40
1
  0
CIRCLE
  5
219
100
AcDbEntity
  8
Dimms
  6
ByLayer
 62
  256
370
   -1
100
AcDbCircle
 10
289.1923881554251
 20
-30.80761184457489
 40
1
  0
ENDSEC
  0
SECTION
  2
OBJECTS
  0
DICTIONARY
  5
C
330
0
100
AcDbDictionary
281
    1
  3
ACAD_GROUP
350
D
  0
DICTIONARY
  5
D
330
C
100
AcDbDictionary
281
    1
  0
ENDSEC
  0
EOF
