999
dxflib 2.2.0.0
  0
SECTION
  2
HEADER
  9
$ACADVER
  1
AC1015
  9
$HANDSEED
  5
FFFF
  9
$SPLINESEGS
 70
8
  9
$DIMEXE
 40
1.25
  9
$PSVPSCALE
 40
1.0
  9
$DIMLUNIT
 70
2
  9
$GRIDMODE
 70
1
  9
$INSUNITS
 70
4
  9
$DIMADEC
 70
2
  9
$DIMASZ
 40
2.5
  9
$DIMGAP
 40
0.625
  9
$DIMTXT
 40
2.5
  9
$GRIDUNIT
 10
0.0
 20
0.0
  9
$DIMEXO
 40
0.625
  9
$LUPREC
 70
4
  9
$PINSBASE
 10
-25.117521464816889
 20
-98.6473272490229363
 30
0.0
  9
$DIMAUNIT
 70
0
  9
$AUPREC
 70
2
  9
$PLIMMIN
 10
0.0
 20
0.0
  9
$LUNITS
 70
2
  9
$PLIMMAX
 10
297.0
 20
210.0
  9
$DIMSTYLE
  2
Standard
  9
$AUNITS
 70
0
  0
ENDSEC
  0
SECTION
  2
TABLES
  0
TABLE
  2
VPORT
  5
8
100
AcDbSymbolTable
 70
1
  0
VPORT
  5
30
100
AcDbSymbolTableRecord
100
AcDbViewportTableRecord
  2
*Active
 70
0
 10
0.0
 20
0.0
 11
1.0
 21
1.0
 12
286.3055555555554861
 22
148.5
 13
0.0
 23
0.0
 14
10.0
 24
10.0
 15
10.0
 25
10.0
 16
0.0
 26
0.0
 36
1.0
 17
0.0
 27
0.0
 37
0.0
 40
297.0
 41
1.92798353909465
 42
50.0
 43
0.0
 44
0.0
 50
0.0
 51
0.0
 71
0
 72
100
 73
1
 74
3
 75
1
 76
1
 77
0
 78
0
281
0
 65
1
110
0.0
120
0.0
130
0.0
111
1.0
121
0.0
131
0.0
112
0.0
122
1.0
132
0.0
 79
0
146
0.0
  0
ENDTAB
  0
TABLE
  2
LTYPE
  5
5
100
AcDbSymbolTable
 70
21
  0
LTYPE
  5
14
100
AcDbSymbolTableRecord
100
AcDbLinetypeTableRecord
  2
ByBlock
 70
0
  3

 72
65
 73
0
 40
0.0
  0
LTYPE
  5
15
100
AcDbSymbolTableRecord
100
AcDbLinetypeTableRecord
  2
ByLayer
 70
0
  3

 72
65
 73
0
 40
0.0
  0
LTYPE
  5
16
100
AcDbSymbolTableRecord
100
AcDbLinetypeTableRecord
  2
CONTINUOUS
 70
0
  3
Solid line
 72
65
 73
0
 40
0.0
  0
LTYPE
  5
31
100
AcDbSymbolTableRecord
100
AcDbLinetypeTableRecord
  2
DOT
 70
0
  3
Dot . . . . . . . . . . . . . . . . . . . . . .
 72
65
 73
2
 40
6.3499999999999996
 49
0.0
 74
0
 49
-6.3499999999999996
 74
0
  0
LTYPE
  5
32
100
AcDbSymbolTableRecord
100
AcDbLinetypeTableRecord
  2
DOT2
 70
0
  3
Dot (.5x) .....................................
 72
65
 73
2
 40
3.1749999999999998
 49
0.0
 74
0
 49
-3.1749999999999998
 74
0
  0
LTYPE
  5
33
100
AcDbSymbolTableRecord
100
AcDbLinetypeTableRecord
  2
DOTX2
 70
0
  3
Dot (2x) .  .  .  .  .  .  .  .  .  .  .  .  .
 72
65
 73
2
 40
12.6999999999999993
 49
0.0
 74
0
 49
-12.6999999999999993
 74
0
  0
LTYPE
  5
34
100
AcDbSymbolTableRecord
100
AcDbLinetypeTableRecord
  2
DASHED
 70
0
  3
Dashed __ __ __ __ __ __ __ __ __ __ __ __ __ _
 72
65
 73
2
 40
19.0500000000000007
 49
12.6999999999999993
 74
0
 49
-6.3499999999999996
 74
0
  0
LTYPE
  5
35
100
AcDbSymbolTableRecord
100
AcDbLinetypeTableRecord
  2
DASHED2
 70
0
  3
Dashed (.5x) _ _ _ _ _ _ _ _ _ _ _ _ _ _ _ _ _
 72
65
 73
2
 40
9.5250000000000004
 49
6.3499999999999996
 74
0
 49
-3.1749999999999998
 74
0
  0
LTYPE
  5
36
100
AcDbSymbolTableRecord
100
AcDbLinetypeTableRecord
  2
DASHEDX2
 70
0
  3
Dashed (2x) ____  ____  ____  ____  ____  ___
 72
65
 73
2
 40
38.1000000000000014
 49
25.3999999999999986
 74
0
 49
-12.6999999999999993
 74
0
  0
LTYPE
  5
37
100
AcDbSymbolTableRecord
100
AcDbLinetypeTableRecord
  2
DASHDOT
 70
0
  3
Dash dot __ . __ . __ . __ . __ . __ . __ . __
 72
65
 73
4
 40
25.3999999999999986
 49
12.6999999999999993
 74
0
 49
-6.3499999999999996
 74
0
 49
0.0
 74
0
 49
-6.3499999999999996
 74
0
  0
LTYPE
  5
38
100
AcDbSymbolTableRecord
100
AcDbLinetypeTableRecord
  2
DASHDOT2
 70
0
  3
Dash dot (.5x) _._._._._._._._._._._._._._._.
 72
65
 73
4
 40
12.6999999999999993
 49
6.3499999999999996
 74
0
 49
-3.1749999999999998
 74
0
 49
0.0
 74
0
 49
-3.1749999999999998
 74
0
  0
LTYPE
  5
39
100
AcDbSymbolTableRecord
100
AcDbLinetypeTableRecord
  2
DASHDOTX2
 70
0
  3
Dash dot (2x) ____  .  ____  .  ____  .  ___
 72
65
 73
4
 40
50.7999999999999972
 49
25.3999999999999986
 74
0
 49
-12.6999999999999993
 74
0
 49
0.0
 74
0
 49
-12.6999999999999993
 74
0
  0
LTYPE
  5
3A
100
AcDbSymbolTableRecord
100
AcDbLinetypeTableRecord
  2
DIVIDE
 70
0
  3
Divide ____ . . ____ . . ____ . . ____ . . ____
 72
65
 73
6
 40
31.75
 49
12.6999999999999993
 74
0
 49
-6.3499999999999996
 74
0
 49
0.0
 74
0
 49
-6.3499999999999996
 74
0
 49
0.0
 74
0
 49
-6.3499999999999996
 74
0
  0
LTYPE
  5
3B
100
AcDbSymbolTableRecord
100
AcDbLinetypeTableRecord
  2
DIVIDE2
 70
0
  3
Divide (.5x) __..__..__..__..__..__..__..__.._
 72
65
 73
6
 40
15.875
 49
6.3499999999999996
 74
0
 49
-3.1749999999999998
 74
0
 49
0.0
 74
0
 49
-3.1749999999999998
 74
0
 49
0.0
 74
0
 49
-3.1749999999999998
 74
0
  0
LTYPE
  5
3C
100
AcDbSymbolTableRecord
100
AcDbLinetypeTableRecord
  2
DIVIDEX2
 70
0
  3
Divide (2x) ________  .  .  ________  .  .  _
 72
65
 73
6
 40
63.5
 49
25.3999999999999986
 74
0
 49
-12.6999999999999993
 74
0
 49
0.0
 74
0
 49
-12.6999999999999993
 74
0
 49
0.0
 74
0
 49
-12.6999999999999993
 74
0
  0
LTYPE
  5
3D
100
AcDbSymbolTableRecord
100
AcDbLinetypeTableRecord
  2
CENTER
 70
0
  3
Center ____ _ ____ _ ____ _ ____ _ ____ _ ____
 72
65
 73
4
 40
50.7999999999999972
 49
31.75
 74
0
 49
-6.3499999999999996
 74
0
 49
6.3499999999999996
 74
0
 49
-6.3499999999999996
 74
0
  0
LTYPE
  5
3E
100
AcDbSymbolTableRecord
100
AcDbLinetypeTableRecord
  2
CENTER2
 70
0
  3
Center (.5x) ___ _ ___ _ ___ _ ___ _ ___ _ ___
 72
65
 73
4
 40
28.5749999999999993
 49
19.0500000000000007
 74
0
 49
-3.1749999999999998
 74
0
 49
3.1749999999999998
 74
0
 49
-3.1749999999999998
 74
0
  0
LTYPE
  5
3F
100
AcDbSymbolTableRecord
100
AcDbLinetypeTableRecord
  2
CENTERX2
 70
0
  3
Center (2x) ________  __  ________  __  _____
 72
65
 73
4
 40
101.5999999999999943
 49
63.5
 74
0
 49
-12.6999999999999993
 74
0
 49
12.6999999999999993
 74
0
 49
-12.6999999999999993
 74
0
  0
LTYPE
  5
40
100
AcDbSymbolTableRecord
100
AcDbLinetypeTableRecord
  2
BORDER
 70
0
  3
Border __ __ . __ __ . __ __ . __ __ . __ __ .
 72
65
 73
6
 40
44.4500000000000028
 49
12.6999999999999993
 74
0
 49
-6.3499999999999996
 74
0
 49
12.6999999999999993
 74
0
 49
-6.3499999999999996
 74
0
 49
0.0
 74
0
 49
-6.3499999999999996
 74
0
  0
LTYPE
  5
41
100
AcDbSymbolTableRecord
100
AcDbLinetypeTableRecord
  2
BORDER2
 70
0
  3
Border (.5x) __.__.__.__.__.__.__.__.__.__.__.
 72
65
 73
6
 40
22.2250000000000014
 49
6.3499999999999996
 74
0
 49
-3.1749999999999998
 74
0
 49
6.3499999999999996
 74
0
 49
-3.1749999999999998
 74
0
 49
0.0
 74
0
 49
-3.1749999999999998
 74
0
  0
LTYPE
  5
42
100
AcDbSymbolTableRecord
100
AcDbLinetypeTableRecord
  2
BORDERX2
 70
0
  3
Border (2x) ____  ____  .  ____  ____  .  ___
 72
65
 73
6
 40
88.9000000000000057
 49
25.3999999999999986
 74
0
 49
-12.6999999999999993
 74
0
 49
25.3999999999999986
 74
0
 49
-12.6999999999999993
 74
0
 49
0.0
 74
0
 49
-12.6999999999999993
 74
0
  0
ENDTAB
  0
TABLE
  2
LAYER
  5
2
100
AcDbSymbolTable
 70
11
  0
LAYER
  5
10
100
AcDbSymbolTableRecord
100
AcDbLayerTableRecord
  2
0
 70
4
 62
7
  6
CONTINUOUS
290
1
370
0
390
F
  0
LAYER
  5
43
100
AcDbSymbolTableRecord
100
AcDbLayerTableRecord
  2
Desk
 70
4
 62
6
  6
CONTINUOUS
290
1
370
25
390
F
  0
LAYER
  5
44
100
AcDbSymbolTableRecord
100
AcDbLayerTableRecord
  2
Tray
 70
4
 62
5
  6
CONTINUOUS
290
1
370
25
390
F
  0
LAYER
  5
45
100
AcDbSymbolTableRecord
100
AcDbLayerTableRecord
  2
Screwdrivers
 70
4
 62
2
  6
CONTINUOUS
290
1
370
25
390
F
  0
LAYER
  5
46
100
AcDbSymbolTableRecord
100
AcDbLayerTableRecord
  2
NeoMagnets
 70
4
 62
3
  6
CONTINUOUS
290
1
370
25
390
F
  0
LAYER
  5
47
100
AcDbSymbolTableRecord
100
AcDbLayerTableRecord
  2
4LinkHinge
 70
4
 62
7
  6
CONTINUOUS
290
1
370
25
390
F
  0
LAYER
  5
48
100
AcDbSymbolTableRecord
100
AcDbLayerTableRecord
  2
Spring
 70
4
 62
7
  6
CONTINUOUS
290
1
370
25
390
F
  0
LAYER
  5
49
100
AcDbSymbolTableRecord
100
AcDbLayerTableRecord
  2
Carriage
 70
4
 62
7
  6
CONTINUOUS
290
1
370
25
390
F
  0
LAYER
  5
4A
100
AcDbSymbolTableRecord
100
AcDbLayerTableRecord
  2
HingeFixings
 70
0
 62
7
  6
CONTINUOUS
290
1
370
25
390
F
  0
LAYER
  5
4B
100
AcDbSymbolTableRecord
100
AcDbLayerTableRecord
  2
noname
 70
4
 62
2
  6
CONTINUOUS
290
1
370
25
390
F
  0
LAYER
  5
4C
100
AcDbSymbolTableRecord
100
AcDbLayerTableRecord
  2
Dividers
 70
4
 62
4
  6
CONTINUOUS
290
1
370
25
390
F
  0
ENDTAB
  0
TABLE
  2
STYLE
  5
3
100
AcDbSymbolTable
 70
1
  0
STYLE
  5
11
100
AcDbSymbolTableRecord
100
AcDbTextStyleTableRecord
  2
Standard
 70
0
 40
0.0
 41
0.75
 50
0.0
 71
0
 42
2.5
  3
txt
  4

  0
ENDTAB
  0
TABLE
  2
VIEW
  5
6
100
AcDbSymbolTable
 70
0
  0
ENDTAB
  0
TABLE
  2
UCS
  5
7
100
AcDbSymbolTable
 70
0
  0
ENDTAB
  0
TABLE
  2
APPID
  5
9
100
AcDbSymbolTable
 70
1
  0
APPID
  5
12
100
AcDbSymbolTableRecord
100
AcDbRegAppTableRecord
  2
ACAD
 70
0
  0
ENDTAB
  0
TABLE
  2
DIMSTYLE
  5
A
100
AcDbSymbolTable
 70
1
100
AcDbDimStyleTable
 71
0
  0
DIMSTYLE
105
27
100
AcDbSymbolTableRecord
100
AcDbDimStyleTableRecord
  2
Standard
 41
2.5
 42
0.625
 43
3.75
 44
1.25
 70
0
 73
0
 74
0
 77
1
 78
8
140
2.5
141
2.5
143
0.03937007874016
147
0.625
171
3
172
1
271
2
272
2
274
3
278
44
283
0
284
8
340
11
  0
ENDTAB
  0
TABLE
  2
BLOCK_RECORD
  5
1
100
AcDbSymbolTable
 70
1
  0
BLOCK_RECORD
  5
1F
100
AcDbSymbolTableRecord
100
AcDbBlockTableRecord
  2
*Model_Space
340
22
  0
BLOCK_RECORD
  5
1B
100
AcDbSymbolTableRecord
100
AcDbBlockTableRecord
  2
*Paper_Space
340
1E
  0
BLOCK_RECORD
  5
23
100
AcDbSymbolTableRecord
100
AcDbBlockTableRecord
  2
*Paper_Space0
340
26
  0
ENDTAB
  0
ENDSEC
  0
SECTION
  2
BLOCKS
  0
BLOCK
  5
20
100
AcDbEntity
  8
0
100
AcDbBlockBegin
  2
*Model_Space
 70
0
 10
0.0
 20
0.0
 30
0.0
  3
*Model_Space
  1

  0
ENDBLK
  5
21
100
AcDbEntity
  8
0
100
AcDbBlockEnd
  0
BLOCK
  5
1C
100
AcDbEntity
 67
1
  8
0
100
AcDbBlockBegin
  2
*Paper_Space
 70
0
 10
0.0
 20
0.0
 30
0.0
  3
*Paper_Space
  1

  0
ENDBLK
  5
1D
100
AcDbEntity
 67
1
  8
0
100
AcDbBlockEnd
  0
BLOCK
  5
24
100
AcDbEntity
  8
0
100
AcDbBlockBegin
  2
*Paper_Space0
 70
0
 10
0.0
 20
0.0
 30
0.0
  3
*Paper_Space0
  1

  0
ENDBLK
  5
25
100
AcDbEntity
  8
0
100
AcDbBlockEnd
  0
ENDSEC
  0
SECTION
  2
ENTITIES
  0
HATCH
  5
4D
  8
Desk
 62
256
370
-1
  6
ByLayer
100
AcDbEntity
100
AcDbHatch
 10
0.0
 20
0.0
 30
0.0
210
0.0
220
0.0
230
1.0
  2
ANSI31
 70
0
 71
0
 91
1
 92
1
 93
16
 72
1
 10
100.0
 20
200.0
 11
400.0
 21
200.0
 72
1
 10
400.0
 20
200.0
 11
400.0
 21
220.0
 72
1
 10
400.0
 20
220.0
 11
60.0
 21
220.0
 72
1
 10
60.0
 20
220.0
 11
60.0
 21
100.0
 72
1
 10
60.0
 20
100.0
 11
100.0
 21
100.0
 72
1
 10
100.0
 20
100.0
 11
100.0
 21
200.0
 72
1
 10
600.0
 20
200.0
 11
900.0
 21
200.0
 72
1
 10
900.0
 20
200.0
 11
900.0
 21
220.0
 72
1
 10
900.0
 20
220.0
 11
560.0
 21
220.0
 72
1
 10
560.0
 20
220.0
 11
560.0
 21
100.0
 72
1
 10
560.0
 20
100.0
 11
600.0
 21
100.0
 72
1
 10
600.0
 20
100.0
 11
600.0
 21
200.0
 72
1
 10
-100.0
 20
-200.0
 11
1100.0
 21
-200.0
 72
1
 10
1100.0
 20
-200.0
 11
1100.0
 21
-300.0
 72
1
 10
1100.0
 20
-300.0
 11
-100.0
 21
-300.0
 72
1
 10
-100.0
 20
-300.0
 11
-100.0
 21
-200.0
 97
0
 75
0
 76
1
 52
0.0
 41
1.0
 77
0
 78
1
 53
45.0
 43
0.0
 44
0.0
 45
-0.0883883476483184
 46
0.0883883476483185
 79
0
 98
0
  0
LINE
  5
4E
100
AcDbEntity
100
AcDbLine
  8
Desk
 62
256
370
-1
  6
ByLayer
 10
100.0
 20
200.0
 30
0.0
 11
400.0
 21
200.0
 31
0.0
  0
LINE
  5
4F
100
AcDbEntity
100
AcDbLine
  8
Desk
 62
256
370
-1
  6
ByLayer
 10
100.0
 20
200.0
 30
0.0
 11
100.0
 21
100.0
 31
0.0
  0
LINE
  5
50
100
AcDbEntity
100
AcDbLine
  8
Desk
 62
256
370
-1
  6
ByLayer
 10
100.0
 20
100.0
 30
0.0
 11
60.0
 21
100.0
 31
0.0
  0
LINE
  5
51
100
AcDbEntity
100
AcDbLine
  8
Desk
 62
256
370
-1
  6
ByLayer
 10
60.0
 20
100.0
 30
0.0
 11
60.0
 21
220.0
 31
0.0
  0
LINE
  5
52
100
AcDbEntity
100
AcDbLine
  8
Desk
 62
256
370
-1
  6
ByLayer
 10
60.0
 20
220.0
 30
0.0
 11
400.0
 21
220.0
 31
0.0
  0
LINE
  5
53
100
AcDbEntity
100
AcDbLine
  8
Desk
 62
256
370
-1
  6
ByLayer
 10
400.0
 20
220.0
 30
0.0
 11
400.0
 21
200.0
 31
0.0
  0
LINE
  5
54
100
AcDbEntity
100
AcDbLine
  8
Desk
 62
256
370
-1
  6
ByLayer
 10
600.0
 20
200.0
 30
0.0
 11
900.0
 21
200.0
 31
0.0
  0
LINE
  5
55
100
AcDbEntity
100
AcDbLine
  8
Desk
 62
256
370
-1
  6
ByLayer
 10
600.0
 20
200.0
 30
0.0
 11
600.0
 21
100.0
 31
0.0
  0
LINE
  5
56
100
AcDbEntity
100
AcDbLine
  8
Desk
 62
256
370
-1
  6
ByLayer
 10
600.0
 20
100.0
 30
0.0
 11
560.0
 21
100.0
 31
0.0
  0
LINE
  5
57
100
AcDbEntity
100
AcDbLine
  8
Desk
 62
256
370
-1
  6
ByLayer
 10
560.0
 20
100.0
 30
0.0
 11
560.0
 21
220.0
 31
0.0
  0
LINE
  5
58
100
AcDbEntity
100
AcDbLine
  8
Desk
 62
256
370
-1
  6
ByLayer
 10
560.0
 20
220.0
 30
0.0
 11
900.0
 21
220.0
 31
0.0
  0
LINE
  5
59
100
AcDbEntity
100
AcDbLine
  8
Desk
 62
256
370
-1
  6
ByLayer
 10
900.0
 20
220.0
 30
0.0
 11
900.0
 21
200.0
 31
0.0
  0
ARC
  5
5A
100
AcDbEntity
  8
Tray
 62
256
370
-1
  6
ByLayer
100
AcDbCircle
 10
1598.0
 20
598.0
 30
0.0
 40
2.0
100
AcDbArc
 50
0.0
 51
90.0
  0
LINE
  5
5B
100
AcDbEntity
100
AcDbLine
  8
HingeFixings
 62
256
370
-1
  6
ByLayer
 10
600.0
 20
200.0
 30
0.0
 11
600.0
 21
195.0
 31
0.0
  0
LINE
  5
5C
100
AcDbEntity
100
AcDbLine
  8
HingeFixings
 62
256
370
-1
  6
ByLayer
 10
600.0
 20
195.0
 30
0.0
 11
620.0
 21
195.0
 31
0.0
  0
LINE
  5
5D
100
AcDbEntity
100
AcDbLine
  8
HingeFixings
 62
256
370
-1
  6
ByLayer
 10
620.0
 20
195.0
 30
0.0
 11
620.0
 21
200.0
 31
0.0
  0
LINE
  5
5E
100
AcDbEntity
100
AcDbLine
  8
HingeFixings
 62
256
370
-1
  6
ByLayer
 10
604.0
 20
195.0
 30
0.0
 11
604.0
 21
189.0
 31
0.0
  0
LINE
  5
5F
100
AcDbEntity
100
AcDbLine
  8
HingeFixings
 62
256
370
-1
  6
ByLayer
 10
616.0
 20
195.0
 30
0.0
 11
616.0
 21
189.0
 31
0.0
  0
ARC
  5
60
100
AcDbEntity
  8
HingeFixings
 62
256
370
-1
  6
ByLayer
100
AcDbCircle
 10
610.0
 20
189.0
 30
0.0
 40
6.0
100
AcDbArc
 50
180.0
 51
0.0
  0
CIRCLE
  5
61
100
AcDbEntity
100
AcDbCircle
  8
HingeFixings
 62
256
370
-1
  6
ByLayer
 10
610.0
 20
189.0
 30
0.0
 40
1.0
  0
CIRCLE
  5
62
100
AcDbEntity
100
AcDbCircle
  8
HingeFixings
 62
256
370
-1
  6
ByLayer
 10
610.0
 20
189.0
 30
0.0
 40
2.0
  0
LINE
  5
63
100
AcDbEntity
100
AcDbLine
  8
HingeFixings
 62
256
370
-1
  6
ByLayer
 10
620.0
 20
200.0
 30
0.0
 11
600.0
 21
200.0
 31
0.0
  0
LINE
  5
64
100
AcDbEntity
100
AcDbLine
  8
HingeFixings
 62
256
370
-1
  6
ByLayer
 10
720.0
 20
200.0
 30
0.0
 11
720.0
 21
195.0
 31
0.0
  0
LINE
  5
65
100
AcDbEntity
100
AcDbLine
  8
HingeFixings
 62
256
370
-1
  6
ByLayer
 10
720.0
 20
195.0
 30
0.0
 11
740.0
 21
195.0
 31
0.0
  0
LINE
  5
66
100
AcDbEntity
100
AcDbLine
  8
HingeFixings
 62
256
370
-1
  6
ByLayer
 10
740.0
 20
195.0
 30
0.0
 11
740.0
 21
200.0
 31
0.0
  0
LINE
  5
67
100
AcDbEntity
100
AcDbLine
  8
HingeFixings
 62
256
370
-1
  6
ByLayer
 10
724.0
 20
195.0
 30
0.0
 11
724.0
 21
189.0
 31
0.0
  0
LINE
  5
68
100
AcDbEntity
100
AcDbLine
  8
HingeFixings
 62
256
370
-1
  6
ByLayer
 10
736.0
 20
195.0
 30
0.0
 11
736.0
 21
189.0
 31
0.0
  0
ARC
  5
69
100
AcDbEntity
  8
HingeFixings
 62
256
370
-1
  6
ByLayer
100
AcDbCircle
 10
730.0
 20
189.0
 30
0.0
 40
6.0
100
AcDbArc
 50
180.0
 51
0.0
  0
CIRCLE
  5
6A
100
AcDbEntity
100
AcDbCircle
  8
HingeFixings
 62
256
370
-1
  6
ByLayer
 10
730.0
 20
189.0
 30
0.0
 40
1.0
  0
CIRCLE
  5
6B
100
AcDbEntity
100
AcDbCircle
  8
HingeFixings
 62
256
370
-1
  6
ByLayer
 10
730.0
 20
189.0
 30
0.0
 40
2.0
  0
LINE
  5
6C
100
AcDbEntity
100
AcDbLine
  8
HingeFixings
 62
256
370
-1
  6
ByLayer
 10
740.0
 20
200.0
 30
0.0
 11
720.0
 21
200.0
 31
0.0
  0
LINE
  5
6D
100
AcDbEntity
100
AcDbLine
  8
4LinkHinge
 62
256
370
-1
  6
ByLayer
 10
604.0036550378853235
 20
188.79060301978501
 30
0.0
 11
611.1929513586003395
 21
-17.0839073461486919
 31
0.0
  0
LINE
  5
6E
100
AcDbEntity
100
AcDbLine
  8
4LinkHinge
 62
256
370
-1
  6
ByLayer
 10
623.1856412828295788
 20
-16.6651133857186551
 30
0.0
 11
615.9963449621146765
 21
189.2093969802149616
 31
0.0
  0
ARC
  5
6F
100
AcDbEntity
  8
4LinkHinge
 62
256
370
-1
  6
ByLayer
100
AcDbCircle
 10
610.0
 20
189.0
 30
0.0
 40
6.0
100
AcDbArc
 50
1.9999999999999774
 51
181.9999999999999716
  0
CIRCLE
  5
70
100
AcDbEntity
100
AcDbCircle
  8
4LinkHinge
 62
256
370
-1
  6
ByLayer
 10
610.0
 20
189.0
 30
0.0
 40
1.0
  0
ARC
  5
71
100
AcDbEntity
  8
4LinkHinge
 62
256
370
-1
  6
ByLayer
100
AcDbCircle
 10
617.1892963207149023
 20
-16.8745103659337872
 30
0.0
 40
6.0
100
AcDbArc
 50
181.9999999999999716
 51
1.9999999999999774
  0
LINE
  5
72
100
AcDbEntity
100
AcDbLine
  8
4LinkHinge
 62
256
370
-1
  6
ByLayer
 10
724.204445042265661
 20
190.5529142706151049
 30
0.0
 11
680.2052073748368457
 21
26.3455238014735755
 31
0.0
  0
LINE
  5
73
100
AcDbEntity
100
AcDbLine
  8
4LinkHinge
 62
256
370
-1
  6
ByLayer
 10
691.7963172903055238
 20
23.2396952602433089
 30
0.0
 11
735.795554957734339
 21
187.4470857293848951
 31
0.0
  0
ARC
  5
74
100
AcDbEntity
  8
4LinkHinge
 62
256
370
-1
  6
ByLayer
100
AcDbCircle
 10
730.0
 20
189.0
 30
0.0
 40
6.0
100
AcDbArc
 50
344.9999999999999432
 51
164.9999999999999432
  0
CIRCLE
  5
75
100
AcDbEntity
100
AcDbCircle
  8
4LinkHinge
 62
256
370
-1
  6
ByLayer
 10
730.0
 20
189.0
 30
0.0
 40
1.0
  0
ARC
  5
76
100
AcDbEntity
  8
4LinkHinge
 62
256
370
-1
  6
ByLayer
100
AcDbCircle
 10
686.0007623325711847
 20
24.7926095308585275
 30
0.0
 40
6.0
100
AcDbArc
 50
164.9999999999999432
 51
344.9999999999999432
  0
CIRCLE
  5
77
100
AcDbEntity
100
AcDbCircle
  8
4LinkHinge
 62
256
370
-1
  6
ByLayer
 10
686.0007623325711847
 20
24.7926095308585275
 30
0.0
 40
1.0
  0
CIRCLE
  5
78
100
AcDbEntity
100
AcDbCircle
  8
4LinkHinge
 62
256
370
-1
  6
ByLayer
 10
686.0
 20
25.0
 30
0.0
 40
3.0
  0
CIRCLE
  5
79
100
AcDbEntity
100
AcDbCircle
  8
4LinkHinge
 62
256
370
-1
  6
ByLayer
 10
617.4266159438309387
 20
-16.2030459928041424
 30
0.0
 40
1.0
  0
CIRCLE
  5
7A
100
AcDbEntity
100
AcDbCircle
  8
4LinkHinge
 62
256
370
-1
  6
ByLayer
 10
617.4266159438309387
 20
-16.2030459928041424
 30
0.0
 40
3.0
  0
LINE
  5
7B
100
AcDbEntity
100
AcDbLine
  8
Spring
 62
256
370
-1
  6
ByLayer
 10
612.0
 20
127.0
 30
0.0
 11
714.0
 21
129.0
 31
0.0
  0
CIRCLE
  5
7C
100
AcDbEntity
100
AcDbCircle
  8
Screwdrivers
 62
256
370
-1
  6
ByLayer
 10
510.9612733352071245
 20
-72.0074438770959517
 30
0.0
 40
10.0
  0
CIRCLE
  5
7D
100
AcDbEntity
100
AcDbCircle
  8
Screwdrivers
 62
256
370
-1
  6
ByLayer
 10
528.1046193492492193
 20
-61.7066823788947545
 30
0.0
 40
10.0
  0
CIRCLE
  5
7E
100
AcDbEntity
100
AcDbCircle
  8
Screwdrivers
 62
256
370
-1
  6
ByLayer
 10
545.2479653632916552
 20
-51.4059208806937988
 30
0.0
 40
10.0
  0
CIRCLE
  5
7F
100
AcDbEntity
100
AcDbCircle
  8
Screwdrivers
 62
256
370
-1
  6
ByLayer
 10
562.39131137733375
 20
-41.1051593824927011
 30
0.0
 40
10.0
  0
CIRCLE
  5
80
100
AcDbEntity
100
AcDbCircle
  8
Screwdrivers
 62
256
370
-1
  6
ByLayer
 10
579.5346573913760722
 20
-30.8043978842916246
 30
0.0
 40
10.0
  0
CIRCLE
  5
81
100
AcDbEntity
100
AcDbCircle
  8
Screwdrivers
 62
256
370
-1
  6
ByLayer
 10
596.6780034054182806
 20
-20.5036363860905126
 30
0.0
 40
10.0
  0
CIRCLE
  5
82
100
AcDbEntity
100
AcDbCircle
  8
Screwdrivers
 62
256
370
-1
  6
ByLayer
 10
613.8213494194607165
 20
-10.2028748878894859
 30
0.0
 40
10.0
  0
CIRCLE
  5
83
100
AcDbEntity
100
AcDbCircle
  8
Screwdrivers
 62
256
370
-1
  6
ByLayer
 10
630.964695433502925
 20
0.0978866103115728
 30
0.0
 40
10.0
  0
CIRCLE
  5
84
100
AcDbEntity
100
AcDbCircle
  8
Screwdrivers
 62
256
370
-1
  6
ByLayer
 10
510.9612733352071245
 20
-72.0074438770959517
 30
0.0
 40
1.0
  0
CIRCLE
  5
85
100
AcDbEntity
100
AcDbCircle
  8
Screwdrivers
 62
256
370
-1
  6
ByLayer
 10
528.1046193492492193
 20
-61.7066823788947545
 30
0.0
 40
1.0
  0
CIRCLE
  5
86
100
AcDbEntity
100
AcDbCircle
  8
Screwdrivers
 62
256
370
-1
  6
ByLayer
 10
545.2479653632916552
 20
-51.4059208806937988
 30
0.0
 40
1.0
  0
CIRCLE
  5
87
100
AcDbEntity
100
AcDbCircle
  8
Screwdrivers
 62
256
370
-1
  6
ByLayer
 10
562.39131137733375
 20
-41.1051593824927011
 30
0.0
 40
1.0
  0
CIRCLE
  5
88
100
AcDbEntity
100
AcDbCircle
  8
Screwdrivers
 62
256
370
-1
  6
ByLayer
 10
579.5346573913760722
 20
-30.8043978842916246
 30
0.0
 40
1.0
  0
CIRCLE
  5
89
100
AcDbEntity
100
AcDbCircle
  8
Screwdrivers
 62
256
370
-1
  6
ByLayer
 10
596.6780034054182806
 20
-20.5036363860905126
 30
0.0
 40
1.0
  0
CIRCLE
  5
8A
100
AcDbEntity
100
AcDbCircle
  8
Screwdrivers
 62
256
370
-1
  6
ByLayer
 10
613.8213494194607165
 20
-10.2028748878894859
 30
0.0
 40
1.0
  0
CIRCLE
  5
8B
100
AcDbEntity
100
AcDbCircle
  8
Screwdrivers
 62
256
370
-1
  6
ByLayer
 10
630.964695433502925
 20
0.0978866103115728
 30
0.0
 40
1.0
  0
LINE
  5
8C
100
AcDbEntity
100
AcDbLine
  8
Tray
 62
256
370
-1
  6
ByLayer
 10
650.6832318220954221
 20
6.1128116050021006
 30
0.0
 11
650.6832318220954221
 21
6.1128116050021006
 31
0.0
  0
LINE
  5
8D
100
AcDbEntity
100
AcDbLine
  8
NeoMagnets
 62
256
370
-1
  6
ByLayer
 10
509.761976808712916
 20
-73.8946873276180867
 30
0.0
 11
511.8221291083531241
 21
-77.3233565304265937
 31
0.0
  0
LINE
  5
8E
100
AcDbEntity
100
AcDbLine
  8
NeoMagnets
 62
256
370
-1
  6
ByLayer
 10
511.8221291083531241
 20
-77.3233565304265937
 30
0.0
 11
515.2507983111615886
 21
-75.2632042307863998
 31
0.0
  0
LINE
  5
8F
100
AcDbEntity
100
AcDbLine
  8
NeoMagnets
 62
256
370
-1
  6
ByLayer
 10
515.2507983111615886
 20
-75.2632042307863998
 30
0.0
 11
513.1906460115213804
 21
-71.8345350279779069
 31
0.0
  0
LINE
  5
90
100
AcDbEntity
100
AcDbLine
  8
NeoMagnets
 62
256
370
-1
  6
ByLayer
 10
513.1906460115213804
 20
-71.8345350279779069
 30
0.0
 11
509.761976808712916
 21
-73.8946873276180867
 31
0.0
  0
LINE
  5
91
100
AcDbEntity
100
AcDbLine
  8
NeoMagnets
 62
256
370
-1
  6
ByLayer
 10
526.9053228227551244
 20
-63.5939258294170457
 30
0.0
 11
528.9654751223953326
 21
-67.0225950322254391
 31
0.0
  0
LINE
  5
92
100
AcDbEntity
100
AcDbLine
  8
NeoMagnets
 62
256
370
-1
  6
ByLayer
 10
528.9654751223953326
 20
-67.0225950322254391
 30
0.0
 11
532.3941443252037971
 21
-64.9624427325852309
 31
0.0
  0
LINE
  5
93
100
AcDbEntity
100
AcDbLine
  8
NeoMagnets
 62
256
370
-1
  6
ByLayer
 10
532.3941443252037971
 20
-64.9624427325852309
 30
0.0
 11
530.3339920255635889
 21
-61.5337735297768234
 31
0.0
  0
LINE
  5
94
100
AcDbEntity
100
AcDbLine
  8
NeoMagnets
 62
256
370
-1
  6
ByLayer
 10
530.3339920255635889
 20
-61.5337735297768234
 30
0.0
 11
526.9053228227551244
 21
-63.5939258294170457
 31
0.0
  0
LINE
  5
95
100
AcDbEntity
100
AcDbLine
  8
NeoMagnets
 62
256
370
-1
  6
ByLayer
 10
544.0486688367973329
 20
-53.2931643312159338
 30
0.0
 11
546.1088211364376548
 21
-56.7218335340244266
 31
0.0
  0
LINE
  5
96
100
AcDbEntity
100
AcDbLine
  8
NeoMagnets
 62
256
370
-1
  6
ByLayer
 10
546.1088211364376548
 20
-56.7218335340244266
 30
0.0
 11
549.5374903392461192
 21
-54.6616812343842184
 31
0.0
  0
LINE
  5
97
100
AcDbEntity
100
AcDbLine
  8
NeoMagnets
 62
256
370
-1
  6
ByLayer
 10
549.5374903392461192
 20
-54.6616812343842184
 30
0.0
 11
547.4773380396057973
 21
-51.233012031575754
 31
0.0
  0
LINE
  5
98
100
AcDbEntity
100
AcDbLine
  8
NeoMagnets
 62
256
370
-1
  6
ByLayer
 10
547.4773380396057973
 20
-51.233012031575754
 30
0.0
 11
544.0486688367973329
 21
-53.2931643312159338
 31
0.0
  0
LINE
  5
99
100
AcDbEntity
100
AcDbLine
  8
NeoMagnets
 62
256
370
-1
  6
ByLayer
 10
561.1920148508397688
 20
-42.9924028330149497
 30
0.0
 11
563.2521671504798633
 21
-46.4210720358233999
 31
0.0
  0
LINE
  5
9A
100
AcDbEntity
100
AcDbLine
  8
NeoMagnets
 62
256
370
-1
  6
ByLayer
 10
563.2521671504798633
 20
-46.4210720358233999
 30
0.0
 11
566.680836353288214
 21
-44.3609197361831491
 31
0.0
  0
LINE
  5
9B
100
AcDbEntity
100
AcDbLine
  8
NeoMagnets
 62
256
370
-1
  6
ByLayer
 10
566.680836353288214
 20
-44.3609197361831491
 30
0.0
 11
564.6206840536481195
 21
-40.9322505333747131
 31
0.0
  0
LINE
  5
9C
100
AcDbEntity
100
AcDbLine
  8
NeoMagnets
 62
256
370
-1
  6
ByLayer
 10
564.6206840536481195
 20
-40.9322505333747131
 30
0.0
 11
561.1920148508397688
 21
-42.9924028330149497
 31
0.0
  0
LINE
  5
9D
100
AcDbEntity
100
AcDbLine
  8
NeoMagnets
 62
256
370
-1
  6
ByLayer
 10
578.3353608648819772
 20
-32.6916413348138306
 30
0.0
 11
580.3955131645221854
 21
-36.1203105376223448
 31
0.0
  0
LINE
  5
9E
100
AcDbEntity
100
AcDbLine
  8
NeoMagnets
 62
256
370
-1
  6
ByLayer
 10
580.3955131645221854
 20
-36.1203105376223448
 30
0.0
 11
583.8241823673305362
 21
-34.0601582379821366
 31
0.0
  0
LINE
  5
9F
100
AcDbEntity
100
AcDbLine
  8
NeoMagnets
 62
256
370
-1
  6
ByLayer
 10
583.8241823673305362
 20
-34.0601582379821366
 30
0.0
 11
581.764030067690328
 21
-30.6314890351735869
 31
0.0
  0
LINE
  5
A0
100
AcDbEntity
100
AcDbLine
  8
NeoMagnets
 62
256
370
-1
  6
ByLayer
 10
581.764030067690328
 20
-30.6314890351735869
 30
0.0
 11
578.3353608648819772
 21
-32.6916413348138306
 31
0.0
  0
LINE
  5
A1
100
AcDbEntity
100
AcDbLine
  8
NeoMagnets
 62
256
370
-1
  6
ByLayer
 10
595.478706878924072
 20
-22.3908798366127613
 30
0.0
 11
597.5388591785643939
 21
-25.8195490394212115
 31
0.0
  0
LINE
  5
A2
100
AcDbEntity
100
AcDbLine
  8
NeoMagnets
 62
256
370
-1
  6
ByLayer
 10
597.5388591785643939
 20
-25.8195490394212115
 30
0.0
 11
600.9675283813727447
 21
-23.7593967397810104
 31
0.0
  0
LINE
  5
A3
100
AcDbEntity
100
AcDbLine
  8
NeoMagnets
 62
256
370
-1
  6
ByLayer
 10
600.9675283813727447
 20
-23.7593967397810104
 30
0.0
 11
598.9073760817325365
 21
-20.3307275369725744
 31
0.0
  0
LINE
  5
A4
100
AcDbEntity
100
AcDbLine
  8
NeoMagnets
 62
256
370
-1
  6
ByLayer
 10
598.9073760817325365
 20
-20.3307275369725744
 30
0.0
 11
595.478706878924072
 21
-22.3908798366127613
 31
0.0
  0
LINE
  5
A5
100
AcDbEntity
100
AcDbLine
  8
NeoMagnets
 62
256
370
-1
  6
ByLayer
 10
612.6220528929663942
 20
-12.0901183384116848
 30
0.0
 11
614.6822051926066024
 21
-15.5187875412201706
 31
0.0
  0
LINE
  5
A6
100
AcDbEntity
100
AcDbLine
  8
NeoMagnets
 62
256
370
-1
  6
ByLayer
 10
614.6822051926066024
 20
-15.5187875412201706
 30
0.0
 11
618.1108743954150668
 21
-13.4586352415799624
 31
0.0
  0
LINE
  5
A7
100
AcDbEntity
100
AcDbLine
  8
NeoMagnets
 62
256
370
-1
  6
ByLayer
 10
618.1108743954150668
 20
-13.4586352415799624
 30
0.0
 11
616.0507220957748586
 21
-10.0299660387714979
 31
0.0
  0
LINE
  5
A8
100
AcDbEntity
100
AcDbLine
  8
NeoMagnets
 62
256
370
-1
  6
ByLayer
 10
616.0507220957748586
 20
-10.0299660387714979
 30
0.0
 11
612.6220528929663942
 21
-12.0901183384116848
 31
0.0
  0
LINE
  5
A9
100
AcDbEntity
100
AcDbLine
  8
NeoMagnets
 62
256
370
-1
  6
ByLayer
 10
629.7653989070086027
 20
-1.7893568402106546
 30
0.0
 11
631.8255512066488109
 21
-5.2180260430190835
 31
0.0
  0
LINE
  5
AA
100
AcDbEntity
100
AcDbLine
  8
NeoMagnets
 62
256
370
-1
  6
ByLayer
 10
631.8255512066488109
 20
-5.2180260430190835
 30
0.0
 11
635.2542204094572753
 21
-3.1578737433788611
 31
0.0
  0
LINE
  5
AB
100
AcDbEntity
100
AcDbLine
  8
NeoMagnets
 62
256
370
-1
  6
ByLayer
 10
635.2542204094572753
 20
-3.1578737433788611
 30
0.0
 11
633.1940681098170671
 21
0.2707954594295643
 31
0.0
  0
LINE
  5
AC
100
AcDbEntity
100
AcDbLine
  8
NeoMagnets
 62
256
370
-1
  6
ByLayer
 10
633.1940681098170671
 20
0.2707954594295643
 30
0.0
 11
629.7653989070086027
 21
-1.7893568402106546
 31
0.0
  0
CIRCLE
  5
AD
100
AcDbEntity
100
AcDbCircle
  8
Carriage
 62
256
370
-1
  6
ByLayer
 10
686.0
 20
25.0
 30
0.0
 40
1.0
  0
CIRCLE
  5
AE
100
AcDbEntity
100
AcDbCircle
  8
Carriage
 62
256
370
-1
  6
ByLayer
 10
686.0
 20
25.0
 30
0.0
 40
3.0
  0
CIRCLE
  5
AF
100
AcDbEntity
100
AcDbCircle
  8
Carriage
 62
256
370
-1
  6
ByLayer
 10
617.4266159438309387
 20
-16.2030459928042205
 30
0.0
 40
1.0
  0
CIRCLE
  5
B0
100
AcDbEntity
100
AcDbCircle
  8
Carriage
 62
256
370
-1
  6
ByLayer
 10
617.4266159438309387
 20
-16.2030459928042205
 30
0.0
 40
3.0
  0
ARC
  5
B1
100
AcDbEntity
  8
Carriage
 62
256
370
-1
  6
ByLayer
100
AcDbCircle
 10
704.0042017871884354
 20
29.9848488448703847
 30
0.0
 40
2.0
100
AcDbArc
 50
30.9999999999999929
 51
120.9999999999999858
  0
ARC
  5
B2
100
AcDbEntity
  8
Carriage
 62
256
370
-1
  6
ByLayer
100
AcDbCircle
 10
697.2381608767645957
 20
62.2794755282787307
 30
0.0
 40
31.1135911709910182
100
AcDbArc
 50
256.4340506321394173
 51
280.6235647861634561
  0
ARC
  5
B3
100
AcDbEntity
  8
Carriage
 62
256
370
-1
  6
ByLayer
100
AcDbCircle
 10
604.5727949057433079
 20
-29.7595678446957876
 30
0.0
 40
2.0
100
AcDbArc
 50
120.9999999999999858
 51
210.9999999999999716
  0
ARC
  5
B4
100
AcDbEntity
  8
Carriage
 62
256
370
-1
  6
ByLayer
100
AcDbCircle
 10
579.2347958134400869
 20
-8.6240994510054492
 30
0.0
 40
31.1135911709910182
100
AcDbArc
 50
321.376435213836487
 51
345.5659493678605259
  0
ARC
  5
B5
100
AcDbEntity
  8
Carriage
 62
256
370
-1
  6
ByLayer
100
AcDbCircle
 10
629.0282218542862438
 20
42.1528003845227133
 30
0.0
 40
52.0454545454545539
100
AcDbArc
 50
263.0591843830268886
 51
338.9408156169730546
  0
LINE
  5
B6
100
AcDbEntity
100
AcDbLine
  8
Carriage
 62
256
370
-1
  6
ByLayer
 10
705.7185363885926108
 20
31.0149249946905208
 30
0.0
 11
709.8388409878729135
 21
24.1575865890735919
 31
0.0
  0
LINE
  5
B7
100
AcDbEntity
100
AcDbLine
  8
Carriage
 62
256
370
-1
  6
ByLayer
 10
709.8388409878729135
 20
24.1575865890735919
 30
0.0
 11
606.9787649036195489
 21
-37.646982400132778
 31
0.0
  0
LINE
  5
B8
100
AcDbEntity
100
AcDbLine
  8
Carriage
 62
256
370
-1
  6
ByLayer
 10
606.9787649036195489
 20
-37.646982400132778
 30
0.0
 11
602.8584603043390189
 21
-30.7896439945158846
 31
0.0
  0
ARC
  5
B9
100
AcDbEntity
  8
Carriage
 62
256
370
-1
  6
ByLayer
100
AcDbCircle
 10
618.9717301685611801
 20
-18.7745478949105973
 30
0.0
 40
10.0
100
AcDbArc
 50
67.86989764584402
 51
165.9999999999999716
  0
ARC
  5
BA
100
AcDbEntity
  8
Carriage
 62
256
370
-1
  6
ByLayer
100
AcDbCircle
 10
687.5451142247301277
 20
22.4284980978936765
 30
0.0
 40
10.0
100
AcDbArc
 50
76.0
 51
174.1301023541559516
  0
LINE
  5
BB
100
AcDbEntity
100
AcDbLine
  8
Tray
 62
256
370
-1
  6
ByLayer
 10
707.2636506133226248
 20
28.4434230925841618
 30
0.0
 11
704.6884602387723362
 21
32.7292595960947352
 31
0.0
  0
LINE
  5
BC
100
AcDbEntity
100
AcDbLine
  8
Tray
 62
256
370
-1
  6
ByLayer
 10
707.2636506133226248
 20
28.4434230925841618
 30
0.0
 11
501.5434984448154978
 21
-95.1657148858285353
 31
0.0
  0
LINE
  5
BD
100
AcDbEntity
100
AcDbLine
  8
Tray
 62
256
370
-1
  6
ByLayer
 10
501.5434984448154978
 20
-95.1657148858285353
 30
0.0
 11
498.968308070265266
 21
-90.8798783823179974
 31
0.0
  0
LINE
  5
BE
100
AcDbEntity
100
AcDbLine
  8
Tray
 62
256
370
-1
  6
ByLayer
 10
498.968308070265266
 20
-90.8798783823179974
 30
0.0
 11
704.6884602387723362
 21
32.7292595960947352
 31
0.0
  0
LINE
  5
BF
100
AcDbEntity
100
AcDbLine
  8
Tray
 62
256
370
-1
  6
ByLayer
 10
502.3896003281859066
 20
-77.1578246261963585
 30
0.0
 11
498.968308070265266
 21
-90.8798783823179974
 31
0.0
  0
LINE
  5
C0
100
AcDbEntity
100
AcDbLine
  8
Tray
 62
256
370
-1
  6
ByLayer
 10
502.3896003281859066
 20
-77.1578246261963585
 30
0.0
 11
648.1080414475452471
 21
10.3986481085126847
 31
0.0
  0
LINE
  5
C1
100
AcDbEntity
100
AcDbLine
  8
Tray
 62
256
370
-1
  6
ByLayer
 10
648.1080414475452471
 20
10.3986481085126847
 30
0.0
 11
661.830095203666815
 21
6.9773558505920761
 31
0.0
  0
LINE
  5
C2
100
AcDbEntity
100
AcDbLine
  8
Carriage
 62
256
370
-1
  6
ByLayer
 10
1500.0
 20
-400.0
 30
0.0
 11
1900.0
 21
-400.0
 31
0.0
  0
LINE
  5
C3
100
AcDbEntity
100
AcDbLine
  8
Carriage
 62
256
370
-1
  6
ByLayer
 10
1500.0
 20
-600.0
 30
0.0
 11
1900.0
 21
-600.0
 31
0.0
  0
LINE
  5
C4
100
AcDbEntity
100
AcDbLine
  8
Carriage
 62
256
370
-1
  6
ByLayer
 10
1900.0
 20
-600.0
 30
0.0
 11
1900.0
 21
-650.0
 31
0.0
  0
LINE
  5
C5
100
AcDbEntity
100
AcDbLine
  8
Carriage
 62
256
370
-1
  6
ByLayer
 10
1900.0
 20
-650.0
 30
0.0
 11
1500.0
 21
-650.0
 31
0.0
  0
LINE
  5
C6
100
AcDbEntity
100
AcDbLine
  8
Carriage
 62
256
370
-1
  6
ByLayer
 10
1500.0
 20
-650.0
 30
0.0
 11
1500.0
 21
-600.0
 31
0.0
  0
LINE
  5
C7
100
AcDbEntity
100
AcDbLine
  8
Carriage
 62
256
370
-1
  6
ByLayer
 10
1500.0
 20
-400.0
 30
0.0
 11
1500.0
 21
-350.0
 31
0.0
  0
LINE
  5
C8
100
AcDbEntity
100
AcDbLine
  8
Carriage
 62
256
370
-1
  6
ByLayer
 10
1500.0
 20
-350.0
 30
0.0
 11
1900.0
 21
-350.0
 31
0.0
  0
LINE
  5
C9
100
AcDbEntity
100
AcDbLine
  8
Carriage
 62
256
370
-1
  6
ByLayer
 10
1900.0
 20
-350.0
 30
0.0
 11
1900.0
 21
-400.0
 31
0.0
  0
LINE
  5
CA
100
AcDbEntity
100
AcDbLine
  8
Carriage
 62
256
370
-1
  6
ByLayer
 10
1600.0
 20
-500.0
 30
0.0
 11
1500.0
 21
-500.0
 31
0.0
  0
LINE
  5
CB
100
AcDbEntity
100
AcDbLine
  8
Carriage
 62
256
370
-1
  6
ByLayer
 10
1500.0
 20
-500.0
 30
0.0
 11
1500.0
 21
-600.0
 31
0.0
  0
LINE
  5
CC
100
AcDbEntity
100
AcDbLine
  8
Carriage
 62
256
370
-1
  6
ByLayer
 10
1300.0
 20
-350.0
 30
0.0
 11
1300.0
 21
-400.0
 31
0.0
  0
LINE
  5
CD
100
AcDbEntity
100
AcDbLine
  8
Carriage
 62
256
370
-1
  6
ByLayer
 10
1300.0
 20
-400.0
 30
0.0
 11
1000.0
 21
-400.0
 31
0.0
  0
LINE
  5
CE
100
AcDbEntity
100
AcDbLine
  8
Carriage
 62
256
370
-1
  6
ByLayer
 10
1000.0
 20
-400.0
 30
0.0
 11
1000.0
 21
-350.0
 31
0.0
  0
LINE
  5
CF
100
AcDbEntity
100
AcDbLine
  8
Carriage
 62
256
370
-1
  6
ByLayer
 10
1000.0
 20
-350.0
 30
0.0
 11
1300.0
 21
-350.0
 31
0.0
  0
LINE
  5
D0
100
AcDbEntity
100
AcDbLine
  8
Carriage
 62
256
370
-1
  6
ByLayer
 10
1300.0
 20
-600.0
 30
0.0
 11
1300.0
 21
-650.0
 31
0.0
  0
LINE
  5
D1
100
AcDbEntity
100
AcDbLine
  8
Carriage
 62
256
370
-1
  6
ByLayer
 10
1300.0
 20
-650.0
 30
0.0
 11
1000.0
 21
-650.0
 31
0.0
  0
LINE
  5
D2
100
AcDbEntity
100
AcDbLine
  8
Carriage
 62
256
370
-1
  6
ByLayer
 10
1000.0
 20
-650.0
 30
0.0
 11
1000.0
 21
-600.0
 31
0.0
  0
LINE
  5
D3
100
AcDbEntity
100
AcDbLine
  8
Carriage
 62
256
370
-1
  6
ByLayer
 10
1000.0
 20
-600.0
 30
0.0
 11
1300.0
 21
-600.0
 31
0.0
  0
LINE
  5
D4
100
AcDbEntity
100
AcDbLine
  8
Carriage
 62
256
370
-1
  6
ByLayer
 10
1100.0
 20
-490.0
 30
0.0
 11
1300.0
 21
-490.0
 31
0.0
  0
LINE
  5
D5
100
AcDbEntity
100
AcDbLine
  8
Carriage
 62
256
370
-1
  6
ByLayer
 10
1300.0
 20
-490.0
 30
0.0
 11
1300.0
 21
-550.0
 31
0.0
  0
LINE
  5
D6
100
AcDbEntity
100
AcDbLine
  8
Carriage
 62
256
370
-1
  6
ByLayer
 10
1300.0
 20
-550.0
 30
0.0
 11
1100.0
 21
-550.0
 31
0.0
  0
LINE
  5
D7
100
AcDbEntity
100
AcDbLine
  8
Carriage
 62
256
370
-1
  6
ByLayer
 10
1100.0
 20
-550.0
 30
0.0
 11
1100.0
 21
-490.0
 31
0.0
  0
LINE
  5
D8
100
AcDbEntity
100
AcDbLine
  8
Carriage
 62
256
370
-1
  6
ByLayer
 10
1100.0
 20
-600.0
 30
0.0
 11
1100.0
 21
-500.0
 31
0.0
  0
LINE
  5
D9
100
AcDbEntity
100
AcDbLine
  8
Carriage
 62
256
370
-1
  6
ByLayer
 10
1100.0
 20
-500.0
 30
0.0
 11
1000.0
 21
-500.0
 31
0.0
  0
LINE
  5
DA
100
AcDbEntity
100
AcDbLine
  8
Carriage
 62
256
370
-1
  6
ByLayer
 10
1000.0
 20
-500.0
 30
0.0
 11
1000.0
 21
-600.0
 31
0.0
  0
LINE
  5
DB
100
AcDbEntity
100
AcDbLine
  8
Carriage
 62
256
370
-1
  6
ByLayer
 10
1700.0
 20
-600.0
 30
0.0
 11
1700.0
 21
-500.0
 31
0.0
  0
LINE
  5
DC
100
AcDbEntity
100
AcDbLine
  8
Carriage
 62
256
370
-1
  6
ByLayer
 10
1900.0
 20
-440.0
 30
0.0
 11
1900.0
 21
-600.0
 31
0.0
  0
LINE
  5
DD
100
AcDbEntity
100
AcDbLine
  8
Carriage
 62
256
370
-1
  6
ByLayer
 10
1900.0
 20
-600.0
 30
0.0
 11
1800.0
 21
-600.0
 31
0.0
  0
LINE
  5
DE
100
AcDbEntity
100
AcDbLine
  8
Carriage
 62
256
370
-1
  6
ByLayer
 10
1800.0
 20
-600.0
 30
0.0
 11
1800.0
 21
-530.0
 31
0.0
  0
LINE
  5
DF
100
AcDbEntity
100
AcDbLine
  8
Carriage
 62
256
370
-1
  6
ByLayer
 10
1800.0
 20
-470.0
 30
0.0
 11
1800.0
 21
-440.0
 31
0.0
  0
LINE
  5
E0
100
AcDbEntity
100
AcDbLine
  8
Carriage
 62
256
370
-1
  6
ByLayer
 10
1800.0
 20
-440.0
 30
0.0
 11
1900.0
 21
-440.0
 31
0.0
  0
LINE
  5
E1
100
AcDbEntity
100
AcDbLine
  8
Carriage
 62
256
370
-1
  6
ByLayer
 10
1800.0
 20
-470.0
 30
0.0
 11
1800.0
 21
-530.0
 31
0.0
  0
LINE
  5
E2
100
AcDbEntity
100
AcDbLine
  8
Carriage
 62
256
370
-1
  6
ByLayer
 10
1800.0
 20
-490.0
 30
0.0
 11
1700.0
 21
-490.0
 31
0.0
  0
LINE
  5
E3
100
AcDbEntity
100
AcDbLine
  8
Carriage
 62
256
370
-1
  6
ByLayer
 10
1700.0
 20
-490.0
 30
0.0
 11
1700.0
 21
-550.0
 31
0.0
  0
LINE
  5
E4
100
AcDbEntity
100
AcDbLine
  8
Carriage
 62
256
370
-1
  6
ByLayer
 10
1700.0
 20
-550.0
 30
0.0
 11
1800.0
 21
-550.0
 31
0.0
  0
LINE
  5
E5
100
AcDbEntity
100
AcDbLine
  8
Carriage
 62
256
370
-1
  6
ByLayer
 10
1600.0
 20
-500.0
 30
0.0
 11
1600.0
 21
-600.0
 31
0.0
  0
LINE
  5
E6
100
AcDbEntity
100
AcDbLine
  8
Carriage
 62
256
370
-1
  6
ByLayer
 10
1300.0
 20
-600.0
 30
0.0
 11
1300.0
 21
-550.0
 31
0.0
  0
LINE
  5
E7
100
AcDbEntity
100
AcDbLine
  8
Carriage
 62
256
370
-1
  6
ByLayer
 10
1300.0
 20
-550.0
 30
0.0
 11
1200.0
 21
-550.0
 31
0.0
  0
LINE
  5
E8
100
AcDbEntity
100
AcDbLine
  8
Carriage
 62
256
370
-1
  6
ByLayer
 10
1200.0
 20
-550.0
 30
0.0
 11
1200.0
 21
-600.0
 31
0.0
  0
LINE
  5
E9
100
AcDbEntity
100
AcDbLine
  8
Carriage
 62
256
370
-1
  6
ByLayer
 10
2000.0
 20
-650.0
 30
0.0
 11
2000.0
 21
-670.0
 31
0.0
  0
LINE
  5
EA
100
AcDbEntity
100
AcDbLine
  8
Carriage
 62
256
370
-1
  6
ByLayer
 10
2000.0
 20
-670.0
 30
0.0
 11
2100.0
 21
-670.0
 31
0.0
  0
LINE
  5
EB
100
AcDbEntity
100
AcDbLine
  8
Carriage
 62
256
370
-1
  6
ByLayer
 10
2100.0
 20
-670.0
 30
0.0
 11
2100.0
 21
-330.0
 31
0.0
  0
LINE
  5
EC
100
AcDbEntity
100
AcDbLine
  8
Carriage
 62
256
370
-1
  6
ByLayer
 10
2100.0
 20
-330.0
 30
0.0
 11
2000.0
 21
-330.0
 31
0.0
  0
LINE
  5
ED
100
AcDbEntity
100
AcDbLine
  8
Carriage
 62
256
370
-1
  6
ByLayer
 10
2000.0
 20
-330.0
 30
0.0
 11
2000.0
 21
-350.0
 31
0.0
  0
LINE
  5
EE
100
AcDbEntity
100
AcDbLine
  8
Carriage
 62
256
370
-1
  6
ByLayer
 10
2000.0
 20
-350.0
 30
0.0
 11
2080.0
 21
-350.0
 31
0.0
  0
LINE
  5
EF
100
AcDbEntity
100
AcDbLine
  8
Carriage
 62
256
370
-1
  6
ByLayer
 10
2080.0
 20
-350.0
 30
0.0
 11
2080.0
 21
-400.0
 31
0.0
  0
LINE
  5
F0
100
AcDbEntity
100
AcDbLine
  8
Carriage
 62
256
370
-1
  6
ByLayer
 10
2080.0
 20
-400.0
 30
0.0
 11
2000.0
 21
-400.0
 31
0.0
  0
LINE
  5
F1
100
AcDbEntity
100
AcDbLine
  8
Carriage
 62
256
370
-1
  6
ByLayer
 10
2000.0
 20
-400.0
 30
0.0
 11
2000.0
 21
-600.0
 31
0.0
  0
LINE
  5
F2
100
AcDbEntity
100
AcDbLine
  8
Carriage
 62
256
370
-1
  6
ByLayer
 10
2000.0
 20
-600.0
 30
0.0
 11
2080.0
 21
-600.0
 31
0.0
  0
LINE
  5
F3
100
AcDbEntity
100
AcDbLine
  8
Carriage
 62
256
370
-1
  6
ByLayer
 10
2080.0
 20
-600.0
 30
0.0
 11
2080.0
 21
-650.0
 31
0.0
  0
LINE
  5
F4
100
AcDbEntity
100
AcDbLine
  8
Carriage
 62
256
370
-1
  6
ByLayer
 10
2080.0
 20
-650.0
 30
0.0
 11
2000.0
 21
-650.0
 31
0.0
  0
LINE
  5
F5
100
AcDbEntity
100
AcDbLine
  8
Carriage
 62
256
370
-1
  6
ByLayer
 10
2000.0
 20
-400.0
 30
0.0
 11
2000.0
 21
-420.0
 31
0.0
  0
LINE
  5
F6
100
AcDbEntity
100
AcDbLine
  8
Carriage
 62
256
370
-1
  6
ByLayer
 10
2000.0
 20
-420.0
 30
0.0
 11
2080.0
 21
-420.0
 31
0.0
  0
LINE
  5
F7
100
AcDbEntity
100
AcDbLine
  8
Carriage
 62
256
370
-1
  6
ByLayer
 10
2080.0
 20
-420.0
 30
0.0
 11
2080.0
 21
-580.0
 31
0.0
  0
LINE
  5
F8
100
AcDbEntity
100
AcDbLine
  8
Carriage
 62
256
370
-1
  6
ByLayer
 10
2080.0
 20
-580.0
 30
0.0
 11
2000.0
 21
-580.0
 31
0.0
  0
LINE
  5
F9
100
AcDbEntity
100
AcDbLine
  8
Tray
 62
256
370
-1
  6
ByLayer
 10
1360.0
 20
460.0
 30
0.0
 11
1360.0
 21
470.0
 31
0.0
  0
ARC
  5
FA
100
AcDbEntity
  8
Tray
 62
256
370
-1
  6
ByLayer
100
AcDbCircle
 10
1362.0
 20
598.0
 30
0.0
 40
2.0
100
AcDbArc
 50
90.0
 51
180.0
  0
LINE
  5
FB
100
AcDbEntity
100
AcDbLine
  8
Tray
 62
256
370
-1
  6
ByLayer
 10
1362.0
 20
600.0
 30
0.0
 11
1598.0
 21
600.0
 31
0.0
  0
LINE
  5
FC
100
AcDbEntity
100
AcDbLine
  8
Tray
 62
256
370
-1
  6
ByLayer
 10
2510.0
 20
-700.0
 30
0.0
 11
2500.0
 21
-700.0
 31
0.0
  0
LINE
  5
FD
100
AcDbEntity
100
AcDbLine
  8
Tray
 62
256
370
-1
  6
ByLayer
 10
2510.0
 20
-700.0
 30
0.0
 11
2510.0
 21
-670.0
 31
0.0
  0
LINE
  5
FE
100
AcDbEntity
100
AcDbLine
  8
Tray
 62
256
370
-1
  6
ByLayer
 10
2510.0
 20
-670.0
 30
0.0
 11
2500.0
 21
-670.0
 31
0.0
  0
LINE
  5
FF
100
AcDbEntity
100
AcDbLine
  8
Tray
 62
256
370
-1
  6
ByLayer
 10
2500.0
 20
-670.0
 30
0.0
 11
2500.0
 21
-700.0
 31
0.0
  0
LINE
  5
100
100
AcDbEntity
100
AcDbLine
  8
Tray
 62
256
370
-1
  6
ByLayer
 10
2500.0
 20
-650.0
 30
0.0
 11
2510.0
 21
-650.0
 31
0.0
  0
LINE
  5
101
100
AcDbEntity
100
AcDbLine
  8
Tray
 62
256
370
-1
  6
ByLayer
 10
2510.0
 20
-650.0
 30
0.0
 11
2510.0
 21
-570.0
 31
0.0
  0
LINE
  5
102
100
AcDbEntity
100
AcDbLine
  8
Tray
 62
256
370
-1
  6
ByLayer
 10
2510.0
 20
-570.0
 30
0.0
 11
2500.0
 21
-570.0
 31
0.0
  0
LINE
  5
103
100
AcDbEntity
100
AcDbLine
  8
Tray
 62
256
370
-1
  6
ByLayer
 10
2500.0
 20
-570.0
 30
0.0
 11
2500.0
 21
-650.0
 31
0.0
  0
LINE
  5
104
100
AcDbEntity
100
AcDbLine
  8
Tray
 62
256
370
-1
  6
ByLayer
 10
2000.0
 20
-900.0
 30
0.0
 11
2000.0
 21
-1000.0
 31
0.0
  0
LINE
  5
105
100
AcDbEntity
100
AcDbLine
  8
Tray
 62
256
370
-1
  6
ByLayer
 10
2000.0
 20
-1000.0
 30
0.0
 11
1000.0
 21
-1000.0
 31
0.0
  0
LINE
  5
106
100
AcDbEntity
100
AcDbLine
  8
Tray
 62
256
370
-1
  6
ByLayer
 10
1000.0
 20
-1000.0
 30
0.0
 11
1000.0
 21
-900.0
 31
0.0
  0
LINE
  5
107
100
AcDbEntity
100
AcDbLine
  8
Tray
 62
256
370
-1
  6
ByLayer
 10
1000.0
 20
-900.0
 30
0.0
 11
2000.0
 21
-900.0
 31
0.0
  0
LINE
  5
108
100
AcDbEntity
100
AcDbLine
  8
Tray
 62
256
370
-1
  6
ByLayer
 10
1000.0
 20
-1200.0
 30
0.0
 11
2000.0
 21
-1200.0
 31
0.0
  0
LINE
  5
109
100
AcDbEntity
100
AcDbLine
  8
Tray
 62
256
370
-1
  6
ByLayer
 10
2000.0
 20
-1200.0
 30
0.0
 11
2000.0
 21
-1300.0
 31
0.0
  0
LINE
  5
10A
100
AcDbEntity
100
AcDbLine
  8
Tray
 62
256
370
-1
  6
ByLayer
 10
2000.0
 20
-1300.0
 30
0.0
 11
1000.0
 21
-1300.0
 31
0.0
  0
LINE
  5
10B
100
AcDbEntity
100
AcDbLine
  8
Tray
 62
256
370
-1
  6
ByLayer
 10
1000.0
 20
-1300.0
 30
0.0
 11
1000.0
 21
-1200.0
 31
0.0
  0
CIRCLE
  5
10C
100
AcDbEntity
100
AcDbCircle
  8
Tray
 62
256
370
-1
  6
ByLayer
 10
1050.0
 20
-950.0
 30
0.0
 40
20.0
  0
CIRCLE
  5
10D
100
AcDbEntity
100
AcDbCircle
  8
Tray
 62
256
370
-1
  6
ByLayer
 10
1450.0
 20
-950.0
 30
0.0
 40
20.0
  0
CIRCLE
  5
10E
100
AcDbEntity
100
AcDbCircle
  8
Tray
 62
256
370
-1
  6
ByLayer
 10
1450.0
 20
-1250.0
 30
0.0
 40
20.0
  0
CIRCLE
  5
10F
100
AcDbEntity
100
AcDbCircle
  8
Tray
 62
256
370
-1
  6
ByLayer
 10
1950.0
 20
-1250.0
 30
0.0
 40
20.0
  0
LINE
  5
110
100
AcDbEntity
100
AcDbLine
  8
noname
 62
256
370
-1
  6
ByLayer
 10
1000.0
 20
-900.0
 30
0.0
 11
1000.0
 21
-1300.0
 31
0.0
  0
LINE
  5
111
100
AcDbEntity
100
AcDbLine
  8
noname
 62
256
370
-1
  6
ByLayer
 10
1000.0
 20
-1300.0
 30
0.0
 11
2000.0
 21
-1300.0
 31
0.0
  0
LINE
  5
112
100
AcDbEntity
100
AcDbLine
  8
noname
 62
256
370
-1
  6
ByLayer
 10
2000.0
 20
-1300.0
 30
0.0
 11
2000.0
 21
-900.0
 31
0.0
  0
LINE
  5
113
100
AcDbEntity
100
AcDbLine
  8
noname
 62
256
370
-1
  6
ByLayer
 10
2000.0
 20
-900.0
 30
0.0
 11
1000.0
 21
-900.0
 31
0.0
  0
LINE
  5
114
100
AcDbEntity
100
AcDbLine
  8
noname
 62
256
370
-1
  6
ByLayer
 10
1000.0
 20
-900.0
 30
0.0
 11
1000.0
 21
-1300.0
 31
0.0
  0
LINE
  5
115
100
AcDbEntity
100
AcDbLine
  8
noname
 62
256
370
-1
  6
ByLayer
 10
1050.0
 20
-930.0
 30
0.0
 11
1950.0
 21
-930.0
 31
0.0
  0
LINE
  5
116
100
AcDbEntity
100
AcDbLine
  8
noname
 62
256
370
-1
  6
ByLayer
 10
1950.0
 20
-970.0
 30
0.0
 11
1050.0
 21
-970.0
 31
0.0
  0
LINE
  5
117
100
AcDbEntity
100
AcDbLine
  8
noname
 62
256
370
-1
  6
ByLayer
 10
1050.0
 20
-1230.0
 30
0.0
 11
1950.0
 21
-1230.0
 31
0.0
  0
LINE
  5
118
100
AcDbEntity
100
AcDbLine
  8
noname
 62
256
370
-1
  6
ByLayer
 10
1950.0
 20
-1270.0
 30
0.0
 11
1050.0
 21
-1270.0
 31
0.0
  0
ARC
  5
119
100
AcDbEntity
  8
noname
 62
256
370
-1
  6
ByLayer
100
AcDbCircle
 10
1050.0
 20
-950.0
 30
0.0
 40
20.0
100
AcDbArc
 50
90.0
 51
270.0
  0
ARC
  5
11A
100
AcDbEntity
  8
noname
 62
256
370
-1
  6
ByLayer
100
AcDbCircle
 10
1950.0
 20
-950.0
 30
0.0
 40
20.0
100
AcDbArc
 50
270.0
 51
90.0
  0
ARC
  5
11B
100
AcDbEntity
  8
noname
 62
256
370
-1
  6
ByLayer
100
AcDbCircle
 10
1950.0
 20
-1250.0
 30
0.0
 40
20.0
100
AcDbArc
 50
270.0
 51
90.0
  0
ARC
  5
11C
100
AcDbEntity
  8
noname
 62
256
370
-1
  6
ByLayer
100
AcDbCircle
 10
1050.0
 20
-1250.0
 30
0.0
 40
20.0
100
AcDbArc
 50
90.0
 51
270.0
  0
LINE
  5
11D
100
AcDbEntity
100
AcDbLine
  8
HingeFixings
 62
256
370
-1
  6
ByLayer
 10
217.0
 20
195.0
 30
0.0
 11
237.0
 21
195.0
 31
0.0
  0
LINE
  5
11E
100
AcDbEntity
100
AcDbLine
  8
HingeFixings
 62
256
370
-1
  6
ByLayer
 10
237.0
 20
200.0
 30
0.0
 11
217.0
 21
200.0
 31
0.0
  0
LINE
  5
11F
100
AcDbEntity
100
AcDbLine
  8
HingeFixings
 62
256
370
-1
  6
ByLayer
 10
117.0
 20
195.0
 30
0.0
 11
217.0
 21
195.0
 31
0.0
  0
ARC
  5
120
100
AcDbEntity
  8
HingeFixings
 62
256
370
-1
  6
ByLayer
100
AcDbCircle
 10
231.2499999999999716
 20
151.4999999999999716
 30
0.0
 40
48.8396611372356233
100
AcDbArc
 50
58.1811460716597537
 51
83.238761489962755
  0
ARC
  5
121
100
AcDbEntity
  8
HingeFixings
 62
256
370
-1
  6
ByLayer
100
AcDbCircle
 10
231.2499999999999716
 20
146.4999999999999716
 30
0.0
 40
48.8396611372356233
100
AcDbArc
 50
58.1811460716597537
 51
83.238761489962755
  0
LINE
  5
122
100
AcDbEntity
100
AcDbLine
  8
HingeFixings
 62
256
370
-1
  6
ByLayer
 10
257.0
 20
193.0
 30
0.0
 11
257.0
 21
188.0
 31
0.0
  0
LINE
  5
123
100
AcDbEntity
100
AcDbLine
  8
HingeFixings
 62
256
370
-1
  6
ByLayer
 10
257.0
 20
188.0
 30
0.0
 11
257.0
 21
183.0
 31
0.0
  0
LINE
  5
124
100
AcDbEntity
100
AcDbLine
  8
HingeFixings
 62
256
370
-1
  6
ByLayer
 10
253.0
 20
195.0
 30
0.0
 11
250.0
 21
188.0
 31
0.0
  0
LINE
  5
125
100
AcDbEntity
100
AcDbLine
  8
HingeFixings
 62
256
370
-1
  6
ByLayer
 10
250.0
 20
188.0
 30
0.0
 11
252.0
 21
187.0
 31
0.0
  0
LINE
  5
126
100
AcDbEntity
100
AcDbLine
  8
HingeFixings
 62
256
370
-1
  6
ByLayer
 10
252.0
 20
187.0
 30
0.0
 11
251.0
 21
185.0
 31
0.0
  0
LINE
  5
127
100
AcDbEntity
100
AcDbLine
  8
HingeFixings
 62
256
370
-1
  6
ByLayer
 10
251.0
 20
185.0
 30
0.0
 11
243.0
 21
189.0
 31
0.0
  0
LINE
  5
128
100
AcDbEntity
100
AcDbLine
  8
HingeFixings
 62
256
370
-1
  6
ByLayer
 10
243.0
 20
189.0
 30
0.0
 11
244.0
 21
191.0
 31
0.0
  0
LINE
  5
129
100
AcDbEntity
100
AcDbLine
  8
HingeFixings
 62
256
370
-1
  6
ByLayer
 10
244.0
 20
191.0
 30
0.0
 11
246.0
 21
190.0
 31
0.0
  0
LINE
  5
12A
100
AcDbEntity
100
AcDbLine
  8
HingeFixings
 62
256
370
-1
  6
ByLayer
 10
246.0
 20
190.0
 30
0.0
 11
249.0
 21
197.0
 31
0.0
  0
LINE
  5
12B
100
AcDbEntity
100
AcDbLine
  8
HingeFixings
 62
256
370
-1
  6
ByLayer
 10
246.0
 20
190.0
 30
0.0
 11
250.0
 21
188.0
 31
0.0
  0
LINE
  5
12C
100
AcDbEntity
100
AcDbLine
  8
HingeFixings
 62
256
370
-1
  6
ByLayer
 10
117.0
 20
195.0
 30
0.0
 11
100.0
 21
195.0
 31
0.0
  0
LINE
  5
12D
100
AcDbEntity
100
AcDbLine
  8
HingeFixings
 62
256
370
-1
  6
ByLayer
 10
100.0
 20
195.0
 30
0.0
 11
100.0
 21
200.0
 31
0.0
  0
LINE
  5
12E
100
AcDbEntity
100
AcDbLine
  8
HingeFixings
 62
256
370
-1
  6
ByLayer
 10
100.0
 20
200.0
 30
0.0
 11
120.0
 21
200.0
 31
0.0
  0
LINE
  5
12F
100
AcDbEntity
100
AcDbLine
  8
HingeFixings
 62
256
370
-1
  6
ByLayer
 10
100.0
 20
195.0
 30
0.0
 11
100.0
 21
183.0
 31
0.0
  0
CIRCLE
  5
130
100
AcDbEntity
100
AcDbCircle
  8
HingeFixings
 62
256
370
-1
  6
ByLayer
 10
107.0
 20
188.0
 30
0.0
 40
1.0
  0
CIRCLE
  5
131
100
AcDbEntity
100
AcDbCircle
  8
HingeFixings
 62
256
370
-1
  6
ByLayer
 10
107.0
 20
188.0
 30
0.0
 40
2.0
  0
CIRCLE
  5
132
100
AcDbEntity
100
AcDbCircle
  8
HingeFixings
 62
256
370
-1
  6
ByLayer
 10
227.0
 20
188.0
 30
0.0
 40
1.0
  0
CIRCLE
  5
133
100
AcDbEntity
100
AcDbCircle
  8
HingeFixings
 62
256
370
-1
  6
ByLayer
 10
227.0
 20
188.0
 30
0.0
 40
2.0
  0
LINE
  5
134
100
AcDbEntity
100
AcDbLine
  8
HingeFixings
 62
256
370
-1
  6
ByLayer
 10
100.0
 20
180.0
 30
0.0
 11
257.0
 21
180.0
 31
0.0
  0
LINE
  5
135
100
AcDbEntity
100
AcDbLine
  8
HingeFixings
 62
256
370
-1
  6
ByLayer
 10
257.0
 20
180.0
 30
0.0
 11
257.0
 21
183.0
 31
0.0
  0
CIRCLE
  5
136
100
AcDbEntity
100
AcDbCircle
  8
Screwdrivers
 62
256
370
-1
  6
ByLayer
 10
177.0
 20
114.0
 30
0.0
 40
10.0
  0
CIRCLE
  5
137
100
AcDbEntity
100
AcDbCircle
  8
Screwdrivers
 62
256
370
-1
  6
ByLayer
 10
197.0
 20
114.0
 30
0.0
 40
10.0
  0
CIRCLE
  5
138
100
AcDbEntity
100
AcDbCircle
  8
Screwdrivers
 62
256
370
-1
  6
ByLayer
 10
217.0
 20
114.0
 30
0.0
 40
10.0
  0
CIRCLE
  5
139
100
AcDbEntity
100
AcDbCircle
  8
Screwdrivers
 62
256
370
-1
  6
ByLayer
 10
237.0
 20
114.0
 30
0.0
 40
10.0
  0
CIRCLE
  5
13A
100
AcDbEntity
100
AcDbCircle
  8
Screwdrivers
 62
256
370
-1
  6
ByLayer
 10
257.0
 20
114.0
 30
0.0
 40
10.0
  0
CIRCLE
  5
13B
100
AcDbEntity
100
AcDbCircle
  8
Screwdrivers
 62
256
370
-1
  6
ByLayer
 10
277.0
 20
114.0
 30
0.0
 40
10.0
  0
CIRCLE
  5
13C
100
AcDbEntity
100
AcDbCircle
  8
Screwdrivers
 62
256
370
-1
  6
ByLayer
 10
297.0
 20
114.0
 30
0.0
 40
10.0
  0
CIRCLE
  5
13D
100
AcDbEntity
100
AcDbCircle
  8
Screwdrivers
 62
256
370
-1
  6
ByLayer
 10
317.0
 20
114.0
 30
0.0
 40
10.0
  0
CIRCLE
  5
13E
100
AcDbEntity
100
AcDbCircle
  8
Screwdrivers
 62
256
370
-1
  6
ByLayer
 10
177.0
 20
114.0
 30
0.0
 40
1.0
  0
CIRCLE
  5
13F
100
AcDbEntity
100
AcDbCircle
  8
Screwdrivers
 62
256
370
-1
  6
ByLayer
 10
197.0
 20
114.0
 30
0.0
 40
1.0
  0
CIRCLE
  5
140
100
AcDbEntity
100
AcDbCircle
  8
Screwdrivers
 62
256
370
-1
  6
ByLayer
 10
217.0
 20
114.0
 30
0.0
 40
1.0
  0
CIRCLE
  5
141
100
AcDbEntity
100
AcDbCircle
  8
Screwdrivers
 62
256
370
-1
  6
ByLayer
 10
237.0
 20
114.0
 30
0.0
 40
1.0
  0
CIRCLE
  5
142
100
AcDbEntity
100
AcDbCircle
  8
Screwdrivers
 62
256
370
-1
  6
ByLayer
 10
257.0
 20
114.0
 30
0.0
 40
1.0
  0
CIRCLE
  5
143
100
AcDbEntity
100
AcDbCircle
  8
Screwdrivers
 62
256
370
-1
  6
ByLayer
 10
277.0
 20
114.0
 30
0.0
 40
1.0
  0
CIRCLE
  5
144
100
AcDbEntity
100
AcDbCircle
  8
Screwdrivers
 62
256
370
-1
  6
ByLayer
 10
297.0
 20
114.0
 30
0.0
 40
1.0
  0
CIRCLE
  5
145
100
AcDbEntity
100
AcDbCircle
  8
Screwdrivers
 62
256
370
-1
  6
ByLayer
 10
317.0
 20
114.0
 30
0.0
 40
1.0
  0
LINE
  5
146
100
AcDbEntity
100
AcDbLine
  8
Tray
 62
256
370
-1
  6
ByLayer
 10
337.0
 20
109.0
 30
0.0
 11
337.0
 21
109.0
 31
0.0
  0
LINE
  5
147
100
AcDbEntity
100
AcDbLine
  8
NeoMagnets
 62
256
370
-1
  6
ByLayer
 10
175.0
 20
113.0
 30
0.0
 11
175.0
 21
109.0
 31
0.0
  0
LINE
  5
148
100
AcDbEntity
100
AcDbLine
  8
NeoMagnets
 62
256
370
-1
  6
ByLayer
 10
175.0
 20
109.0
 30
0.0
 11
179.0
 21
109.0
 31
0.0
  0
LINE
  5
149
100
AcDbEntity
100
AcDbLine
  8
NeoMagnets
 62
256
370
-1
  6
ByLayer
 10
179.0
 20
109.0
 30
0.0
 11
179.0
 21
113.0
 31
0.0
  0
LINE
  5
14A
100
AcDbEntity
100
AcDbLine
  8
NeoMagnets
 62
256
370
-1
  6
ByLayer
 10
179.0
 20
113.0
 30
0.0
 11
175.0
 21
113.0
 31
0.0
  0
LINE
  5
14B
100
AcDbEntity
100
AcDbLine
  8
NeoMagnets
 62
256
370
-1
  6
ByLayer
 10
195.0
 20
113.0
 30
0.0
 11
195.0
 21
109.0
 31
0.0
  0
LINE
  5
14C
100
AcDbEntity
100
AcDbLine
  8
NeoMagnets
 62
256
370
-1
  6
ByLayer
 10
195.0
 20
109.0
 30
0.0
 11
199.0
 21
109.0
 31
0.0
  0
LINE
  5
14D
100
AcDbEntity
100
AcDbLine
  8
NeoMagnets
 62
256
370
-1
  6
ByLayer
 10
199.0
 20
109.0
 30
0.0
 11
199.0
 21
113.0
 31
0.0
  0
LINE
  5
14E
100
AcDbEntity
100
AcDbLine
  8
NeoMagnets
 62
256
370
-1
  6
ByLayer
 10
199.0
 20
113.0
 30
0.0
 11
195.0
 21
113.0
 31
0.0
  0
LINE
  5
14F
100
AcDbEntity
100
AcDbLine
  8
NeoMagnets
 62
256
370
-1
  6
ByLayer
 10
215.0
 20
113.0
 30
0.0
 11
215.0
 21
109.0
 31
0.0
  0
LINE
  5
150
100
AcDbEntity
100
AcDbLine
  8
NeoMagnets
 62
256
370
-1
  6
ByLayer
 10
215.0
 20
109.0
 30
0.0
 11
219.0
 21
109.0
 31
0.0
  0
LINE
  5
151
100
AcDbEntity
100
AcDbLine
  8
NeoMagnets
 62
256
370
-1
  6
ByLayer
 10
219.0
 20
109.0
 30
0.0
 11
219.0
 21
113.0
 31
0.0
  0
LINE
  5
152
100
AcDbEntity
100
AcDbLine
  8
NeoMagnets
 62
256
370
-1
  6
ByLayer
 10
219.0
 20
113.0
 30
0.0
 11
215.0
 21
113.0
 31
0.0
  0
LINE
  5
153
100
AcDbEntity
100
AcDbLine
  8
NeoMagnets
 62
256
370
-1
  6
ByLayer
 10
235.0
 20
113.0
 30
0.0
 11
235.0
 21
109.0
 31
0.0
  0
LINE
  5
154
100
AcDbEntity
100
AcDbLine
  8
NeoMagnets
 62
256
370
-1
  6
ByLayer
 10
235.0
 20
109.0
 30
0.0
 11
239.0
 21
109.0
 31
0.0
  0
LINE
  5
155
100
AcDbEntity
100
AcDbLine
  8
NeoMagnets
 62
256
370
-1
  6
ByLayer
 10
239.0
 20
109.0
 30
0.0
 11
239.0
 21
113.0
 31
0.0
  0
LINE
  5
156
100
AcDbEntity
100
AcDbLine
  8
NeoMagnets
 62
256
370
-1
  6
ByLayer
 10
239.0
 20
113.0
 30
0.0
 11
235.0
 21
113.0
 31
0.0
  0
LINE
  5
157
100
AcDbEntity
100
AcDbLine
  8
NeoMagnets
 62
256
370
-1
  6
ByLayer
 10
255.0
 20
113.0
 30
0.0
 11
255.0
 21
109.0
 31
0.0
  0
LINE
  5
158
100
AcDbEntity
100
AcDbLine
  8
NeoMagnets
 62
256
370
-1
  6
ByLayer
 10
255.0
 20
109.0
 30
0.0
 11
259.0
 21
109.0
 31
0.0
  0
LINE
  5
159
100
AcDbEntity
100
AcDbLine
  8
NeoMagnets
 62
256
370
-1
  6
ByLayer
 10
259.0
 20
109.0
 30
0.0
 11
259.0
 21
113.0
 31
0.0
  0
LINE
  5
15A
100
AcDbEntity
100
AcDbLine
  8
NeoMagnets
 62
256
370
-1
  6
ByLayer
 10
259.0
 20
113.0
 30
0.0
 11
255.0
 21
113.0
 31
0.0
  0
LINE
  5
15B
100
AcDbEntity
100
AcDbLine
  8
NeoMagnets
 62
256
370
-1
  6
ByLayer
 10
275.0
 20
113.0
 30
0.0
 11
275.0
 21
109.0
 31
0.0
  0
LINE
  5
15C
100
AcDbEntity
100
AcDbLine
  8
NeoMagnets
 62
256
370
-1
  6
ByLayer
 10
275.0
 20
109.0
 30
0.0
 11
279.0
 21
109.0
 31
0.0
  0
LINE
  5
15D
100
AcDbEntity
100
AcDbLine
  8
NeoMagnets
 62
256
370
-1
  6
ByLayer
 10
279.0
 20
109.0
 30
0.0
 11
279.0
 21
113.0
 31
0.0
  0
LINE
  5
15E
100
AcDbEntity
100
AcDbLine
  8
NeoMagnets
 62
256
370
-1
  6
ByLayer
 10
279.0
 20
113.0
 30
0.0
 11
275.0
 21
113.0
 31
0.0
  0
LINE
  5
15F
100
AcDbEntity
100
AcDbLine
  8
NeoMagnets
 62
256
370
-1
  6
ByLayer
 10
295.0
 20
113.0
 30
0.0
 11
295.0
 21
109.0
 31
0.0
  0
LINE
  5
160
100
AcDbEntity
100
AcDbLine
  8
NeoMagnets
 62
256
370
-1
  6
ByLayer
 10
295.0
 20
109.0
 30
0.0
 11
299.0
 21
109.0
 31
0.0
  0
LINE
  5
161
100
AcDbEntity
100
AcDbLine
  8
NeoMagnets
 62
256
370
-1
  6
ByLayer
 10
299.0
 20
109.0
 30
0.0
 11
299.0
 21
113.0
 31
0.0
  0
LINE
  5
162
100
AcDbEntity
100
AcDbLine
  8
NeoMagnets
 62
256
370
-1
  6
ByLayer
 10
299.0
 20
113.0
 30
0.0
 11
295.0
 21
113.0
 31
0.0
  0
LINE
  5
163
100
AcDbEntity
100
AcDbLine
  8
NeoMagnets
 62
256
370
-1
  6
ByLayer
 10
315.0
 20
113.0
 30
0.0
 11
315.0
 21
109.0
 31
0.0
  0
LINE
  5
164
100
AcDbEntity
100
AcDbLine
  8
NeoMagnets
 62
256
370
-1
  6
ByLayer
 10
315.0
 20
109.0
 30
0.0
 11
319.0
 21
109.0
 31
0.0
  0
LINE
  5
165
100
AcDbEntity
100
AcDbLine
  8
NeoMagnets
 62
256
370
-1
  6
ByLayer
 10
319.0
 20
109.0
 30
0.0
 11
319.0
 21
113.0
 31
0.0
  0
LINE
  5
166
100
AcDbEntity
100
AcDbLine
  8
NeoMagnets
 62
256
370
-1
  6
ByLayer
 10
319.0
 20
113.0
 30
0.0
 11
315.0
 21
113.0
 31
0.0
  0
CIRCLE
  5
167
100
AcDbEntity
100
AcDbCircle
  8
Carriage
 62
256
370
-1
  6
ByLayer
 10
377.0
 20
107.0
 30
0.0
 40
1.0
  0
CIRCLE
  5
168
100
AcDbEntity
100
AcDbCircle
  8
Carriage
 62
256
370
-1
  6
ByLayer
 10
377.0
 20
107.0
 30
0.0
 40
3.0
  0
CIRCLE
  5
169
100
AcDbEntity
100
AcDbCircle
  8
Carriage
 62
256
370
-1
  6
ByLayer
 10
297.0000000000000568
 20
107.0000000000000568
 30
0.0
 40
1.0
  0
CIRCLE
  5
16A
100
AcDbEntity
100
AcDbCircle
  8
Carriage
 62
256
370
-1
  6
ByLayer
 10
297.0000000000000568
 20
107.0000000000000568
 30
0.0
 40
3.0
  0
ARC
  5
16B
100
AcDbEntity
  8
Carriage
 62
256
370
-1
  6
ByLayer
100
AcDbCircle
 10
395.0
 20
101.9999999999999716
 30
0.0
 40
2.0
100
AcDbArc
 50
360.0
 51
90.0
  0
ARC
  5
16C
100
AcDbEntity
  8
Carriage
 62
256
370
-1
  6
ByLayer
100
AcDbCircle
 10
405.8333333333334849
 20
133.1666666666668277
 30
0.0
 40
31.1135911709910182
100
AcDbArc
 50
225.4340506321394457
 51
249.6235647861634845
  0
ARC
  5
16D
100
AcDbEntity
  8
Carriage
 62
256
370
-1
  6
ByLayer
100
AcDbCircle
 10
279.0
 20
102.0
 30
0.0
 40
2.0
100
AcDbArc
 50
90.0
 51
180.0
  0
ARC
  5
16E
100
AcDbEntity
  8
Carriage
 62
256
370
-1
  6
ByLayer
100
AcDbCircle
 10
268.1666666666665151
 20
133.1666666666668846
 30
0.0
 40
31.1135911709910182
100
AcDbArc
 50
290.376435213836487
 51
314.5659493678605827
  0
ARC
  5
16F
100
AcDbEntity
  8
Carriage
 62
256
370
-1
  6
ByLayer
100
AcDbCircle
 10
337.0
 20
151.045454545454561
 30
0.0
 40
52.0454545454545539
100
AcDbArc
 50
232.059184383026917
 51
307.9408156169730546
  0
LINE
  5
170
100
AcDbEntity
100
AcDbLine
  8
Carriage
 62
256
370
-1
  6
ByLayer
 10
397.0
 20
102.0
 30
0.0
 11
397.0
 21
94.0
 31
0.0
  0
LINE
  5
171
100
AcDbEntity
100
AcDbLine
  8
Carriage
 62
256
370
-1
  6
ByLayer
 10
397.0
 20
94.0
 30
0.0
 11
277.0
 21
94.0
 31
0.0
  0
LINE
  5
172
100
AcDbEntity
100
AcDbLine
  8
Carriage
 62
256
370
-1
  6
ByLayer
 10
277.0
 20
94.0
 30
0.0
 11
277.0
 21
102.0
 31
0.0
  0
ARC
  5
173
100
AcDbEntity
  8
Carriage
 62
256
370
-1
  6
ByLayer
100
AcDbCircle
 10
297.0
 20
104.0
 30
0.0
 40
10.0
100
AcDbArc
 50
36.86989764584402
 51
135.0
  0
ARC
  5
174
100
AcDbEntity
  8
Carriage
 62
256
370
-1
  6
ByLayer
100
AcDbCircle
 10
377.0
 20
104.0
 30
0.0
 40
10.0
100
AcDbArc
 50
45.0
 51
143.13010235415598
  0
LINE
  5
175
100
AcDbEntity
100
AcDbLine
  8
4LinkHinge
 62
256
370
-1
  6
ByLayer
 10
104.6556132290643575
 20
182.4769708792853464
 30
0.0
 11
294.2796130402670087
 21
101.9863584104948302
 31
0.0
  0
LINE
  5
176
100
AcDbEntity
100
AcDbLine
  8
4LinkHinge
 62
256
370
-1
  6
ByLayer
 10
298.9683865821382938
 20
113.03241665192418
 30
0.0
 11
109.3443867709356425
 21
193.5230291207146536
 31
0.0
  0
ARC
  5
177
100
AcDbEntity
  8
4LinkHinge
 62
256
370
-1
  6
ByLayer
100
AcDbCircle
 10
107.0
 20
188.0
 30
0.0
 40
6.0
100
AcDbArc
 50
66.9999999999999858
 51
247.0
  0
CIRCLE
  5
178
100
AcDbEntity
100
AcDbCircle
  8
4LinkHinge
 62
256
370
-1
  6
ByLayer
 10
107.0
 20
188.0
 30
0.0
 40
1.0
  0
CIRCLE
  5
179
100
AcDbEntity
100
AcDbCircle
  8
4LinkHinge
 62
256
370
-1
  6
ByLayer
 10
296.6239998112026797
 20
107.5093875312093985
 30
0.0
 40
1.0
  0
ARC
  5
17A
100
AcDbEntity
  8
4LinkHinge
 62
256
370
-1
  6
ByLayer
100
AcDbCircle
 10
296.6239998112026797
 20
107.5093875312093985
 30
0.0
 40
6.0
100
AcDbArc
 50
247.0
 51
66.9999999999999858
  0
LINE
  5
17B
100
AcDbEntity
100
AcDbLine
  8
4LinkHinge
 62
256
370
-1
  6
ByLayer
 10
224.183170623284667
 20
182.7023144428464434
 30
0.0
 11
374.2842614093021893
 21
102.8921487692449119
 31
0.0
  0
LINE
  5
17C
100
AcDbEntity
100
AcDbLine
  8
4LinkHinge
 62
256
370
-1
  6
ByLayer
 10
379.9179201627329121
 20
113.4875198835519541
 30
0.0
 11
229.816829376715333
 21
193.2976855571535566
 31
0.0
  0
ARC
  5
17D
100
AcDbEntity
  8
4LinkHinge
 62
256
370
-1
  6
ByLayer
100
AcDbCircle
 10
227.0
 20
188.0
 30
0.0
 40
6.0
100
AcDbArc
 50
62.0
 51
241.9999999999999716
  0
CIRCLE
  5
17E
100
AcDbEntity
100
AcDbCircle
  8
4LinkHinge
 62
256
370
-1
  6
ByLayer
 10
227.0
 20
188.0
 30
0.0
 40
1.0
  0
CIRCLE
  5
17F
100
AcDbEntity
100
AcDbCircle
  8
4LinkHinge
 62
256
370
-1
  6
ByLayer
 10
377.1010907860174939
 20
108.1898343263984259
 30
0.0
 40
1.0
  0
ARC
  5
180
100
AcDbEntity
  8
4LinkHinge
 62
256
370
-1
  6
ByLayer
100
AcDbCircle
 10
377.1010907860174939
 20
108.1898343263984259
 30
0.0
 40
6.0
100
AcDbArc
 50
241.9999999999999716
 51
62.0
  0
LINE
  5
181
100
AcDbEntity
100
AcDbLine
  8
Tray
 62
256
370
-1
  6
ByLayer
 10
397.0
 20
99.0
 30
0.0
 11
397.0
 21
104.0
 31
0.0
  0
LINE
  5
182
100
AcDbEntity
100
AcDbLine
  8
Tray
 62
256
370
-1
  6
ByLayer
 10
397.0
 20
99.0
 30
0.0
 11
157.0
 21
99.0
 31
0.0
  0
LINE
  5
183
100
AcDbEntity
100
AcDbLine
  8
Tray
 62
256
370
-1
  6
ByLayer
 10
157.0
 20
99.0
 30
0.0
 11
157.0
 21
104.0
 31
0.0
  0
LINE
  5
184
100
AcDbEntity
100
AcDbLine
  8
Tray
 62
256
370
-1
  6
ByLayer
 10
157.0
 20
104.0
 30
0.0
 11
397.0
 21
104.0
 31
0.0
  0
LINE
  5
185
100
AcDbEntity
100
AcDbLine
  8
Tray
 62
256
370
-1
  6
ByLayer
 10
167.0
 20
114.0
 30
0.0
 11
157.0
 21
104.0
 31
0.0
  0
LINE
  5
186
100
AcDbEntity
100
AcDbLine
  8
Tray
 62
256
370
-1
  6
ByLayer
 10
167.0
 20
114.0
 30
0.0
 11
337.0
 21
114.0
 31
0.0
  0
LINE
  5
187
100
AcDbEntity
100
AcDbLine
  8
Tray
 62
256
370
-1
  6
ByLayer
 10
337.0
 20
114.0
 30
0.0
 11
347.0
 21
104.0
 31
0.0
  0
CIRCLE
  5
188
100
AcDbEntity
100
AcDbCircle
  8
Spring
 62
256
370
-1
  6
ByLayer
 10
163.0
 20
166.0
 30
0.0
 40
1.0
  0
LINE
  5
189
100
AcDbEntity
100
AcDbLine
  8
Spring
 62
256
370
-1
  6
ByLayer
 10
189.0
 20
184.0
 30
0.0
 11
180.7096242744495669
 21
178.408070965292552
 31
0.0
  0
LINE
  5
18A
100
AcDbEntity
100
AcDbLine
  8
Spring
 62
256
370
-1
  6
ByLayer
 10
163.2998352507936772
 20
166.6650199924069113
 30
0.0
 11
171.5902109763441103
 21
172.2569490271143309
 31
0.0
  0
LINE
  5
18B
100
AcDbEntity
100
AcDbLine
  8
Spring
 62
256
370
-1
  6
ByLayer
 10
171.5902109763441103
 20
172.2569490271143309
 30
0.0
 11
172.7085967832855999
 21
170.598873882004284
 31
0.0
  0
LINE
  5
18C
100
AcDbEntity
100
AcDbLine
  8
Spring
 62
256
370
-1
  6
ByLayer
 10
172.7085967832855999
 20
170.598873882004284
 30
0.0
 11
171.3008627419576442
 21
174.4742170756951509
 31
0.0
  0
LINE
  5
18D
100
AcDbEntity
100
AcDbLine
  8
Spring
 62
256
370
-1
  6
ByLayer
 10
171.3008627419576442
 20
174.4742170756951509
 30
0.0
 11
173.5376343558406518
 21
171.1580667854750288
 31
0.0
  0
LINE
  5
18E
100
AcDbEntity
100
AcDbLine
  8
Spring
 62
256
370
-1
  6
ByLayer
 10
173.5376343558406518
 20
171.1580667854750288
 30
0.0
 11
172.129900314512696
 21
175.0334099791659241
 31
0.0
  0
LINE
  5
18F
100
AcDbEntity
100
AcDbLine
  8
Spring
 62
256
370
-1
  6
ByLayer
 10
172.129900314512696
 20
175.0334099791659241
 30
0.0
 11
174.3666719283956752
 21
171.7172596889457452
 31
0.0
  0
LINE
  5
190
100
AcDbEntity
100
AcDbLine
  8
Spring
 62
256
370
-1
  6
ByLayer
 10
174.3666719283956752
 20
171.7172596889457452
 30
0.0
 11
172.9589378870677479
 21
175.5926028826366121
 31
0.0
  0
LINE
  5
191
100
AcDbEntity
100
AcDbLine
  8
Spring
 62
256
370
-1
  6
ByLayer
 10
172.9589378870677479
 20
175.5926028826366121
 30
0.0
 11
175.1957095009507555
 21
172.27645259241649
 31
0.0
  0
LINE
  5
192
100
AcDbEntity
100
AcDbLine
  8
Spring
 62
256
370
-1
  6
ByLayer
 10
175.1957095009507555
 20
172.27645259241649
 30
0.0
 11
173.7879754596227713
 21
176.1517957861074422
 31
0.0
  0
LINE
  5
193
100
AcDbEntity
100
AcDbLine
  8
Spring
 62
256
370
-1
  6
ByLayer
 10
173.7879754596227713
 20
176.1517957861074422
 30
0.0
 11
176.0247470735057504
 21
172.8356454958872348
 31
0.0
  0
LINE
  5
194
100
AcDbEntity
100
AcDbLine
  8
Spring
 62
256
370
-1
  6
ByLayer
 10
176.0247470735057504
 20
172.8356454958872348
 30
0.0
 11
174.6170130321778515
 21
176.7109886895781301
 31
0.0
  0
LINE
  5
195
100
AcDbEntity
100
AcDbLine
  8
Spring
 62
256
370
-1
  6
ByLayer
 10
174.6170130321778515
 20
176.7109886895781301
 30
0.0
 11
176.8537846460608023
 21
173.3948383993579796
 31
0.0
  0
LINE
  5
196
100
AcDbEntity
100
AcDbLine
  8
Spring
 62
256
370
-1
  6
ByLayer
 10
176.8537846460608023
 20
173.3948383993579796
 30
0.0
 11
175.4460506047328749
 21
177.2701815930488749
 31
0.0
  0
LINE
  5
197
100
AcDbEntity
100
AcDbLine
  8
Spring
 62
256
370
-1
  6
ByLayer
 10
175.4460506047328749
 20
177.2701815930488749
 30
0.0
 11
177.6828222186158541
 21
173.9540313028287244
 31
0.0
  0
LINE
  5
198
100
AcDbEntity
100
AcDbLine
  8
Spring
 62
256
370
-1
  6
ByLayer
 10
177.6828222186158541
 20
173.9540313028287244
 30
0.0
 11
176.2750881772878984
 21
177.8293744965196481
 31
0.0
  0
LINE
  5
199
100
AcDbEntity
100
AcDbLine
  8
Spring
 62
256
370
-1
  6
ByLayer
 10
176.2750881772878984
 20
177.8293744965196481
 30
0.0
 11
178.5118597911708775
 21
174.5132242062994692
 31
0.0
  0
LINE
  5
19A
100
AcDbEntity
100
AcDbLine
  8
Spring
 62
256
370
-1
  6
ByLayer
 10
178.5118597911708775
 20
174.5132242062994692
 30
0.0
 11
177.1041257498429786
 21
178.3885673999903645
 31
0.0
  0
LINE
  5
19B
100
AcDbEntity
100
AcDbLine
  8
Spring
 62
256
370
-1
  6
ByLayer
 10
177.1041257498429786
 20
178.3885673999903645
 30
0.0
 11
179.3408973637259862
 21
175.072417109770214
 31
0.0
  0
LINE
  5
19C
100
AcDbEntity
100
AcDbLine
  8
Spring
 62
256
370
-1
  6
ByLayer
 10
179.3408973637259862
 20
175.072417109770214
 30
0.0
 11
177.933163322398002
 21
178.9477603034611377
 31
0.0
  0
LINE
  5
19D
100
AcDbEntity
100
AcDbLine
  8
Spring
 62
256
370
-1
  6
ByLayer
 10
177.933163322398002
 20
178.9477603034611377
 30
0.0
 11
180.1699349362809812
 21
175.6316100132409588
 31
0.0
  0
LINE
  5
19E
100
AcDbEntity
100
AcDbLine
  8
Spring
 62
256
370
-1
  6
ByLayer
 10
180.1699349362809812
 20
175.6316100132409588
 30
0.0
 11
178.7622008949530539
 21
179.5069532069318541
 31
0.0
  0
LINE
  5
19F
100
AcDbEntity
100
AcDbLine
  8
Spring
 62
256
370
-1
  6
ByLayer
 10
178.7622008949530539
 20
179.5069532069318541
 30
0.0
 11
180.9989725088360331
 21
176.1908029167117036
 31
0.0
  0
LINE
  5
1A0
100
AcDbEntity
100
AcDbLine
  8
Spring
 62
256
370
-1
  6
ByLayer
 10
180.9989725088360331
 20
176.1908029167117036
 30
0.0
 11
179.5912384675080773
 21
180.0661461104025989
 31
0.0
  0
LINE
  5
1A1
100
AcDbEntity
100
AcDbLine
  8
Spring
 62
256
370
-1
  6
ByLayer
 10
179.5912384675080773
 20
180.0661461104025989
 30
0.0
 11
180.7096242744495669
 21
178.408070965292552
 31
0.0
  0
CIRCLE
  5
1A2
100
AcDbEntity
100
AcDbCircle
  8
Spring
 62
256
370
-1
  6
ByLayer
 10
153.0
 20
170.0
 30
0.0
 40
1.0
  0
CIRCLE
  5
1A3
100
AcDbEntity
100
AcDbCircle
  8
Spring
 62
256
370
-1
  6
ByLayer
 10
173.0
 20
162.0
 30
0.0
 40
1.0
  0
CIRCLE
  5
1A4
100
AcDbEntity
100
AcDbCircle
  8
Spring
 62
256
370
-1
  6
ByLayer
 10
183.0
 20
158.0
 30
0.0
 40
1.0
  0
CIRCLE
  5
1A5
100
AcDbEntity
100
AcDbCircle
  8
Spring
 62
256
370
-1
  6
ByLayer
 10
195.0
 20
153.0
 30
0.0
 40
1.0
  0
CIRCLE
  5
1A6
100
AcDbEntity
100
AcDbCircle
  8
Spring
 62
256
370
-1
  6
ByLayer
 10
199.0
 20
184.0
 30
0.0
 40
1.0
  0
CIRCLE
  5
1A7
100
AcDbEntity
100
AcDbCircle
  8
Spring
 62
256
370
-1
  6
ByLayer
 10
209.0
 20
184.0
 30
0.0
 40
1.0
  0
CIRCLE
  5
1A8
100
AcDbEntity
100
AcDbCircle
  8
Spring
 62
256
370
-1
  6
ByLayer
 10
179.0
 20
184.0
 30
0.0
 40
1.0
  0
CIRCLE
  5
1A9
100
AcDbEntity
100
AcDbCircle
  8
Spring
 62
256
370
-1
  6
ByLayer
 10
189.0
 20
184.0
 30
0.0
 40
1.0
  0
LINE
  5
1AA
100
AcDbEntity
100
AcDbLine
  8
Desk
 62
256
370
-1
  6
ByLayer
 10
-100.0
 20
-200.0
 30
0.0
 11
1100.0
 21
-200.0
 31
0.0
  0
LINE
  5
1AB
100
AcDbEntity
100
AcDbLine
  8
Desk
 62
256
370
-1
  6
ByLayer
 10
-100.0
 20
-200.0
 30
0.0
 11
-100.0
 21
-300.0
 31
0.0
  0
LINE
  5
1AC
100
AcDbEntity
100
AcDbLine
  8
Desk
 62
256
370
-1
  6
ByLayer
 10
-100.0
 20
-300.0
 30
0.0
 11
1100.0
 21
-300.0
 31
0.0
  0
LINE
  5
1AD
100
AcDbEntity
100
AcDbLine
  8
Desk
 62
256
370
-1
  6
ByLayer
 10
1100.0
 20
-300.0
 30
0.0
 11
1100.0
 21
-200.0
 31
0.0
  0
CIRCLE
  5
1AE
100
AcDbEntity
100
AcDbCircle
  8
0
 62
256
370
-1
  6
ByLayer
 10
107.0
 20
188.0
 30
0.0
 40
211.9292334719304449
  0
CIRCLE
  5
1AF
100
AcDbEntity
100
AcDbCircle
  8
0
 62
256
370
-1
  6
ByLayer
 10
227.0
 20
188.0
 30
0.0
 40
175.8237754116319707
  0
LINE
  5
1B0
100
AcDbEntity
100
AcDbLine
  8
Tray
 62
256
370
-1
  6
ByLayer
 10
1360.0
 20
598.0
 30
0.0
 11
1360.0
 21
62.0
 31
0.0
  0
LINE
  5
1B1
100
AcDbEntity
100
AcDbLine
  8
Tray
 62
256
370
-1
  6
ByLayer
 10
1362.0
 20
60.0
 30
0.0
 11
1598.0
 21
60.0
 31
0.0
  0
LINE
  5
1B2
100
AcDbEntity
100
AcDbLine
  8
Tray
 62
256
370
-1
  6
ByLayer
 10
1600.0
 20
62.0
 30
0.0
 11
1600.0
 21
598.0
 31
0.0
  0
ARC
  5
1B3
100
AcDbEntity
  8
Tray
 62
256
370
-1
  6
ByLayer
100
AcDbCircle
 10
1362.0
 20
62.0
 30
0.0
 40
2.0
100
AcDbArc
 50
180.0
 51
270.0
  0
ARC
  5
1B4
100
AcDbEntity
  8
Tray
 62
256
370
-1
  6
ByLayer
100
AcDbCircle
 10
1598.0
 20
62.0
 30
0.0
 40
2.0
100
AcDbArc
 50
270.0
 51
0.0
  0
LINE
  5
1B5
100
AcDbEntity
100
AcDbLine
  8
Dividers
 62
256
370
-1
  6
ByLayer
 10
1365.0
 20
490.0
 30
0.0
 11
1365.0
 21
480.0
 31
0.0
  0
LINE
  5
1B6
100
AcDbEntity
100
AcDbLine
  8
Dividers
 62
256
370
-1
  6
ByLayer
 10
1365.0
 20
490.0
 30
0.0
 11
1365.0
 21
480.0
 31
0.0
  0
LINE
  5
1B7
100
AcDbEntity
100
AcDbLine
  8
Dividers
 62
256
370
-1
  6
ByLayer
 10
1373.0
 20
490.0
 30
0.0
 11
1373.0
 21
480.0
 31
0.0
  0
LINE
  5
1B8
100
AcDbEntity
100
AcDbLine
  8
Dividers
 62
256
370
-1
  6
ByLayer
 10
1389.0
 20
490.0
 30
0.0
 11
1389.0
 21
480.0
 31
0.0
  0
LINE
  5
1B9
100
AcDbEntity
100
AcDbLine
  8
Dividers
 62
256
370
-1
  6
ByLayer
 10
1405.0
 20
490.0
 30
0.0
 11
1405.0
 21
480.0
 31
0.0
  0
LINE
  5
1BA
100
AcDbEntity
100
AcDbLine
  8
Dividers
 62
256
370
-1
  6
ByLayer
 10
1421.0
 20
490.0
 30
0.0
 11
1421.0
 21
480.0
 31
0.0
  0
LINE
  5
1BB
100
AcDbEntity
100
AcDbLine
  8
Dividers
 62
256
370
-1
  6
ByLayer
 10
1437.0
 20
490.0
 30
0.0
 11
1437.0
 21
480.0
 31
0.0
  0
LINE
  5
1BC
100
AcDbEntity
100
AcDbLine
  8
Dividers
 62
256
370
-1
  6
ByLayer
 10
1453.0
 20
490.0
 30
0.0
 11
1453.0
 21
480.0
 31
0.0
  0
LINE
  5
1BD
100
AcDbEntity
100
AcDbLine
  8
Dividers
 62
256
370
-1
  6
ByLayer
 10
1469.0
 20
490.0
 30
0.0
 11
1469.0
 21
480.0
 31
0.0
  0
LINE
  5
1BE
100
AcDbEntity
100
AcDbLine
  8
Dividers
 62
256
370
-1
  6
ByLayer
 10
1485.0
 20
490.0
 30
0.0
 11
1485.0
 21
480.0
 31
0.0
  0
LINE
  5
1BF
100
AcDbEntity
100
AcDbLine
  8
Dividers
 62
256
370
-1
  6
ByLayer
 10
1501.0
 20
490.0
 30
0.0
 11
1501.0
 21
480.0
 31
0.0
  0
LINE
  5
1C0
100
AcDbEntity
100
AcDbLine
  8
Dividers
 62
256
370
-1
  6
ByLayer
 10
1517.0
 20
490.0
 30
0.0
 11
1517.0
 21
480.0
 31
0.0
  0
LINE
  5
1C1
100
AcDbEntity
100
AcDbLine
  8
Dividers
 62
256
370
-1
  6
ByLayer
 10
1533.0
 20
490.0
 30
0.0
 11
1533.0
 21
480.0
 31
0.0
  0
LINE
  5
1C2
100
AcDbEntity
100
AcDbLine
  8
Dividers
 62
256
370
-1
  6
ByLayer
 10
1549.0
 20
490.0
 30
0.0
 11
1549.0
 21
480.0
 31
0.0
  0
LINE
  5
1C3
100
AcDbEntity
100
AcDbLine
  8
Dividers
 62
256
370
-1
  6
ByLayer
 10
1565.0
 20
490.0
 30
0.0
 11
1565.0
 21
480.0
 31
0.0
  0
LINE
  5
1C4
100
AcDbEntity
100
AcDbLine
  8
Dividers
 62
256
370
-1
  6
ByLayer
 10
1365.0
 20
490.0
 30
0.0
 11
1565.0
 21
490.0
 31
0.0
  0
LINE
  5
1C5
100
AcDbEntity
100
AcDbLine
  8
Dividers
 62
256
370
-1
  6
ByLayer
 10
1565.0
 20
480.0
 30
0.0
 11
1365.0
 21
480.0
 31
0.0
  0
LINE
  5
1C6
100
AcDbEntity
100
AcDbLine
  8
Screwdrivers
 62
256
370
-1
  6
ByLayer
 10
1384.0
 20
165.0
 30
0.0
 11
1384.0
 21
475.0
 31
0.0
  0
LINE
  5
1C7
100
AcDbEntity
100
AcDbLine
  8
Screwdrivers
 62
256
370
-1
  6
ByLayer
 10
1384.0
 20
475.0
 30
0.0
 11
1378.0
 21
475.0
 31
0.0
  0
LINE
  5
1C8
100
AcDbEntity
100
AcDbLine
  8
Screwdrivers
 62
256
370
-1
  6
ByLayer
 10
1378.0
 20
475.0
 30
0.0
 11
1378.0
 21
165.0000000000000568
 31
0.0
  0
LINE
  5
1C9
100
AcDbEntity
100
AcDbLine
  8
Screwdrivers
 62
256
370
-1
  6
ByLayer
 10
1400.0
 20
165.0
 30
0.0
 11
1400.0
 21
475.0
 31
0.0
  0
LINE
  5
1CA
100
AcDbEntity
100
AcDbLine
  8
Screwdrivers
 62
256
370
-1
  6
ByLayer
 10
1400.0
 20
475.0
 30
0.0
 11
1394.0
 21
475.0
 31
0.0
  0
LINE
  5
1CB
100
AcDbEntity
100
AcDbLine
  8
Screwdrivers
 62
256
370
-1
  6
ByLayer
 10
1394.0
 20
475.0
 30
0.0
 11
1394.0
 21
165.0000000000000568
 31
0.0
  0
LINE
  5
1CC
100
AcDbEntity
100
AcDbLine
  8
Screwdrivers
 62
256
370
-1
  6
ByLayer
 10
1416.0
 20
165.0
 30
0.0
 11
1416.0
 21
475.0
 31
0.0
  0
LINE
  5
1CD
100
AcDbEntity
100
AcDbLine
  8
Screwdrivers
 62
256
370
-1
  6
ByLayer
 10
1416.0
 20
475.0
 30
0.0
 11
1410.0
 21
475.0
 31
0.0
  0
LINE
  5
1CE
100
AcDbEntity
100
AcDbLine
  8
Screwdrivers
 62
256
370
-1
  6
ByLayer
 10
1410.0
 20
475.0
 30
0.0
 11
1410.0
 21
165.0000000000000284
 31
0.0
  0
LINE
  5
1CF
100
AcDbEntity
100
AcDbLine
  8
Screwdrivers
 62
256
370
-1
  6
ByLayer
 10
1431.0
 20
165.0
 30
0.0
 11
1431.0
 21
315.0
 31
0.0
  0
LINE
  5
1D0
100
AcDbEntity
100
AcDbLine
  8
Screwdrivers
 62
256
370
-1
  6
ByLayer
 10
1431.0
 20
315.0
 30
0.0
 11
1427.0
 21
315.0
 31
0.0
  0
LINE
  5
1D1
100
AcDbEntity
100
AcDbLine
  8
Screwdrivers
 62
256
370
-1
  6
ByLayer
 10
1427.0
 20
315.0
 30
0.0
 11
1427.0
 21
165.0
 31
0.0
  0
LINE
  5
1D2
100
AcDbEntity
100
AcDbLine
  8
Screwdrivers
 62
256
370
-1
  6
ByLayer
 10
1447.0
 20
165.0
 30
0.0
 11
1447.0
 21
315.0
 31
0.0
  0
LINE
  5
1D3
100
AcDbEntity
100
AcDbLine
  8
Screwdrivers
 62
256
370
-1
  6
ByLayer
 10
1447.0
 20
315.0
 30
0.0
 11
1443.0
 21
315.0
 31
0.0
  0
LINE
  5
1D4
100
AcDbEntity
100
AcDbLine
  8
Screwdrivers
 62
256
370
-1
  6
ByLayer
 10
1443.0
 20
315.0
 30
0.0
 11
1443.0
 21
165.0
 31
0.0
  0
LINE
  5
1D5
100
AcDbEntity
100
AcDbLine
  8
Screwdrivers
 62
256
370
-1
  6
ByLayer
 10
1459.0
 20
165.0
 30
0.0
 11
1459.0
 21
255.0
 31
0.0
  0
LINE
  5
1D6
100
AcDbEntity
100
AcDbLine
  8
Screwdrivers
 62
256
370
-1
  6
ByLayer
 10
1459.0
 20
255.0
 30
0.0
 11
1463.0
 21
255.0
 31
0.0
  0
LINE
  5
1D7
100
AcDbEntity
100
AcDbLine
  8
Screwdrivers
 62
256
370
-1
  6
ByLayer
 10
1463.0
 20
255.0
 30
0.0
 11
1463.0
 21
165.0000000000000284
 31
0.0
  0
LINE
  5
1D8
100
AcDbEntity
100
AcDbLine
  8
Screwdrivers
 62
256
370
-1
  6
ByLayer
 10
1475.0
 20
165.0
 30
0.0
 11
1475.0
 21
255.0
 31
0.0
  0
LINE
  5
1D9
100
AcDbEntity
100
AcDbLine
  8
Screwdrivers
 62
256
370
-1
  6
ByLayer
 10
1475.0
 20
255.0
 30
0.0
 11
1479.0
 21
255.0
 31
0.0
  0
LINE
  5
1DA
100
AcDbEntity
100
AcDbLine
  8
Screwdrivers
 62
256
370
-1
  6
ByLayer
 10
1479.0
 20
255.0
 30
0.0
 11
1479.0
 21
165.0
 31
0.0
  0
LINE
  5
1DB
100
AcDbEntity
100
AcDbLine
  8
Screwdrivers
 62
256
370
-1
  6
ByLayer
 10
1491.0
 20
165.0
 30
0.0
 11
1491.0
 21
245.0
 31
0.0
  0
LINE
  5
1DC
100
AcDbEntity
100
AcDbLine
  8
Screwdrivers
 62
256
370
-1
  6
ByLayer
 10
1491.0
 20
245.0
 30
0.0
 11
1495.0
 21
245.0
 31
0.0
  0
LINE
  5
1DD
100
AcDbEntity
100
AcDbLine
  8
Screwdrivers
 62
256
370
-1
  6
ByLayer
 10
1495.0
 20
245.0
 30
0.0
 11
1495.0
 21
165.0
 31
0.0
  0
LINE
  5
1DE
100
AcDbEntity
100
AcDbLine
  8
Screwdrivers
 62
256
370
-1
  6
ByLayer
 10
1507.0
 20
165.0
 30
0.0
 11
1507.0
 21
245.0
 31
0.0
  0
LINE
  5
1DF
100
AcDbEntity
100
AcDbLine
  8
Screwdrivers
 62
256
370
-1
  6
ByLayer
 10
1507.0
 20
245.0
 30
0.0
 11
1511.0
 21
245.0
 31
0.0
  0
LINE
  5
1E0
100
AcDbEntity
100
AcDbLine
  8
Screwdrivers
 62
256
370
-1
  6
ByLayer
 10
1511.0
 20
245.0
 30
0.0
 11
1511.0
 21
164.9999999999999716
 31
0.0
  0
LINE
  5
1E1
100
AcDbEntity
100
AcDbLine
  8
Screwdrivers
 62
256
370
-1
  6
ByLayer
 10
1523.0
 20
164.9999999999999716
 30
0.0
 11
1523.0
 21
215.0
 31
0.0
  0
LINE
  5
1E2
100
AcDbEntity
100
AcDbLine
  8
Screwdrivers
 62
256
370
-1
  6
ByLayer
 10
1523.0
 20
215.0
 30
0.0
 11
1527.0
 21
215.0
 31
0.0
  0
LINE
  5
1E3
100
AcDbEntity
100
AcDbLine
  8
Screwdrivers
 62
256
370
-1
  6
ByLayer
 10
1527.0
 20
215.0
 30
0.0
 11
1527.0
 21
165.0
 31
0.0
  0
LINE
  5
1E4
100
AcDbEntity
100
AcDbLine
  8
Screwdrivers
 62
256
370
-1
  6
ByLayer
 10
1539.0
 20
164.9999999999999432
 30
0.0
 11
1539.0
 21
215.0
 31
0.0
  0
LINE
  5
1E5
100
AcDbEntity
100
AcDbLine
  8
Screwdrivers
 62
256
370
-1
  6
ByLayer
 10
1539.0
 20
215.0
 30
0.0
 11
1543.0
 21
215.0
 31
0.0
  0
LINE
  5
1E6
100
AcDbEntity
100
AcDbLine
  8
Screwdrivers
 62
256
370
-1
  6
ByLayer
 10
1543.0
 20
215.0
 30
0.0
 11
1543.0
 21
164.9999999999999716
 31
0.0
  0
LINE
  5
1E7
100
AcDbEntity
100
AcDbLine
  8
Screwdrivers
 62
256
370
-1
  6
ByLayer
 10
1555.0
 20
164.9999999999999716
 30
0.0
 11
1555.0
 21
215.0
 31
0.0
  0
LINE
  5
1E8
100
AcDbEntity
100
AcDbLine
  8
Screwdrivers
 62
256
370
-1
  6
ByLayer
 10
1555.0
 20
215.0
 30
0.0
 11
1559.0
 21
214.9999999999999432
 31
0.0
  0
LINE
  5
1E9
100
AcDbEntity
100
AcDbLine
  8
Screwdrivers
 62
256
370
-1
  6
ByLayer
 10
1559.0
 20
214.9999999999999432
 30
0.0
 11
1559.0
 21
165.0
 31
0.0
  0
LINE
  5
1EA
100
AcDbEntity
100
AcDbLine
  8
Screwdrivers
 62
256
370
-1
  6
ByLayer
 10
1373.0
 20
595.0
 30
0.0
 11
1365.0
 21
595.0
 31
0.0
  0
LINE
  5
1EB
100
AcDbEntity
100
AcDbLine
  8
Screwdrivers
 62
256
370
-1
  6
ByLayer
 10
1381.0
 20
595.0
 30
0.0
 11
1373.0
 21
595.0
 31
0.0
  0
LINE
  5
1EC
100
AcDbEntity
100
AcDbLine
  8
Screwdrivers
 62
256
370
-1
  6
ByLayer
 10
1389.0
 20
595.0
 30
0.0
 11
1381.0
 21
595.0
 31
0.0
  0
LINE
  5
1ED
100
AcDbEntity
100
AcDbLine
  8
Screwdrivers
 62
256
370
-1
  6
ByLayer
 10
1397.0
 20
595.0
 30
0.0
 11
1389.0
 21
595.0
 31
0.0
  0
LINE
  5
1EE
100
AcDbEntity
100
AcDbLine
  8
Screwdrivers
 62
256
370
-1
  6
ByLayer
 10
1405.0
 20
595.0
 30
0.0
 11
1397.0
 21
595.0
 31
0.0
  0
LINE
  5
1EF
100
AcDbEntity
100
AcDbLine
  8
Screwdrivers
 62
256
370
-1
  6
ByLayer
 10
1413.0
 20
595.0
 30
0.0
 11
1405.0
 21
595.0
 31
0.0
  0
LINE
  5
1F0
100
AcDbEntity
100
AcDbLine
  8
Screwdrivers
 62
256
370
-1
  6
ByLayer
 10
1421.0
 20
595.0
 30
0.0
 11
1413.0
 21
595.0
 31
0.0
  0
LINE
  5
1F1
100
AcDbEntity
100
AcDbLine
  8
Screwdrivers
 62
256
370
-1
  6
ByLayer
 10
1429.0
 20
595.0
 30
0.0
 11
1421.0
 21
595.0
 31
0.0
  0
LINE
  5
1F2
100
AcDbEntity
100
AcDbLine
  8
Screwdrivers
 62
256
370
-1
  6
ByLayer
 10
1437.0
 20
595.0
 30
0.0
 11
1429.0
 21
595.0
 31
0.0
  0
LINE
  5
1F3
100
AcDbEntity
100
AcDbLine
  8
Screwdrivers
 62
256
370
-1
  6
ByLayer
 10
1445.0
 20
595.0
 30
0.0
 11
1437.0
 21
595.0
 31
0.0
  0
LINE
  5
1F4
100
AcDbEntity
100
AcDbLine
  8
Screwdrivers
 62
256
370
-1
  6
ByLayer
 10
1453.0
 20
595.0
 30
0.0
 11
1445.0
 21
595.0
 31
0.0
  0
LINE
  5
1F5
100
AcDbEntity
100
AcDbLine
  8
Screwdrivers
 62
256
370
-1
  6
ByLayer
 10
1461.0
 20
595.0
 30
0.0
 11
1453.0
 21
595.0
 31
0.0
  0
LINE
  5
1F6
100
AcDbEntity
100
AcDbLine
  8
Screwdrivers
 62
256
370
-1
  6
ByLayer
 10
1469.0
 20
595.0
 30
0.0
 11
1461.0
 21
595.0
 31
0.0
  0
LINE
  5
1F7
100
AcDbEntity
100
AcDbLine
  8
Screwdrivers
 62
256
370
-1
  6
ByLayer
 10
1477.0
 20
595.0
 30
0.0
 11
1469.0
 21
595.0
 31
0.0
  0
LINE
  5
1F8
100
AcDbEntity
100
AcDbLine
  8
Screwdrivers
 62
256
370
-1
  6
ByLayer
 10
1485.0
 20
595.0
 30
0.0
 11
1477.0
 21
595.0
 31
0.0
  0
LINE
  5
1F9
100
AcDbEntity
100
AcDbLine
  8
Screwdrivers
 62
256
370
-1
  6
ByLayer
 10
1493.0
 20
595.0
 30
0.0
 11
1485.0
 21
595.0
 31
0.0
  0
LINE
  5
1FA
100
AcDbEntity
100
AcDbLine
  8
Screwdrivers
 62
256
370
-1
  6
ByLayer
 10
1501.0
 20
595.0
 30
0.0
 11
1493.0
 21
595.0
 31
0.0
  0
LINE
  5
1FB
100
AcDbEntity
100
AcDbLine
  8
Screwdrivers
 62
256
370
-1
  6
ByLayer
 10
1509.0
 20
595.0
 30
0.0
 11
1501.0
 21
595.0
 31
0.0
  0
LINE
  5
1FC
100
AcDbEntity
100
AcDbLine
  8
Screwdrivers
 62
256
370
-1
  6
ByLayer
 10
1517.0
 20
595.0
 30
0.0
 11
1509.0
 21
595.0
 31
0.0
  0
LINE
  5
1FD
100
AcDbEntity
100
AcDbLine
  8
Screwdrivers
 62
256
370
-1
  6
ByLayer
 10
1525.0
 20
595.0
 30
0.0
 11
1517.0
 21
595.0
 31
0.0
  0
LINE
  5
1FE
100
AcDbEntity
100
AcDbLine
  8
Screwdrivers
 62
256
370
-1
  6
ByLayer
 10
1533.0
 20
595.0
 30
0.0
 11
1525.0
 21
595.0
 31
0.0
  0
LINE
  5
1FF
100
AcDbEntity
100
AcDbLine
  8
Screwdrivers
 62
256
370
-1
  6
ByLayer
 10
1541.0
 20
595.0
 30
0.0
 11
1533.0
 21
595.0
 31
0.0
  0
LINE
  5
200
100
AcDbEntity
100
AcDbLine
  8
Screwdrivers
 62
256
370
-1
  6
ByLayer
 10
1549.0
 20
595.0
 30
0.0
 11
1541.0
 21
595.0
 31
0.0
  0
LINE
  5
201
100
AcDbEntity
100
AcDbLine
  8
Screwdrivers
 62
256
370
-1
  6
ByLayer
 10
1557.0
 20
595.0
 30
0.0
 11
1549.0
 21
595.0
 31
0.0
  0
LINE
  5
202
100
AcDbEntity
100
AcDbLine
  8
Screwdrivers
 62
256
370
-1
  6
ByLayer
 10
1376.0
 20
495.0
 30
0.0
 11
1376.0
 21
185.0
 31
0.0
  0
LINE
  5
203
100
AcDbEntity
100
AcDbLine
  8
Screwdrivers
 62
256
370
-1
  6
ByLayer
 10
1376.0
 20
185.0
 30
0.0
 11
1370.0
 21
185.0
 31
0.0
  0
LINE
  5
204
100
AcDbEntity
100
AcDbLine
  8
Screwdrivers
 62
256
370
-1
  6
ByLayer
 10
1370.0
 20
185.0
 30
0.0
 11
1370.0
 21
495.0
 31
0.0
  0
LINE
  5
205
100
AcDbEntity
100
AcDbLine
  8
Screwdrivers
 62
256
370
-1
  6
ByLayer
 10
1392.0
 20
495.0
 30
0.0
 11
1392.0
 21
185.0
 31
0.0
  0
LINE
  5
206
100
AcDbEntity
100
AcDbLine
  8
Screwdrivers
 62
256
370
-1
  6
ByLayer
 10
1392.0
 20
185.0
 30
0.0
 11
1386.0
 21
185.0
 31
0.0
  0
LINE
  5
207
100
AcDbEntity
100
AcDbLine
  8
Screwdrivers
 62
256
370
-1
  6
ByLayer
 10
1386.0
 20
185.0
 30
0.0
 11
1386.0
 21
495.0
 31
0.0
  0
LINE
  5
208
100
AcDbEntity
100
AcDbLine
  8
Screwdrivers
 62
256
370
-1
  6
ByLayer
 10
1408.0
 20
495.0
 30
0.0
 11
1408.0
 21
185.0
 31
0.0
  0
LINE
  5
209
100
AcDbEntity
100
AcDbLine
  8
Screwdrivers
 62
256
370
-1
  6
ByLayer
 10
1408.0
 20
185.0
 30
0.0
 11
1402.0
 21
185.0
 31
0.0
  0
LINE
  5
20A
100
AcDbEntity
100
AcDbLine
  8
Screwdrivers
 62
256
370
-1
  6
ByLayer
 10
1402.0
 20
185.0
 30
0.0
 11
1402.0
 21
495.0
 31
0.0
  0
LINE
  5
20B
100
AcDbEntity
100
AcDbLine
  8
Screwdrivers
 62
256
370
-1
  6
ByLayer
 10
1423.0
 20
495.0
 30
0.0
 11
1423.0
 21
345.0
 31
0.0
  0
LINE
  5
20C
100
AcDbEntity
100
AcDbLine
  8
Screwdrivers
 62
256
370
-1
  6
ByLayer
 10
1423.0
 20
345.0
 30
0.0
 11
1419.0
 21
345.0
 31
0.0
  0
LINE
  5
20D
100
AcDbEntity
100
AcDbLine
  8
Screwdrivers
 62
256
370
-1
  6
ByLayer
 10
1419.0
 20
345.0
 30
0.0
 11
1419.0
 21
495.0
 31
0.0
  0
LINE
  5
20E
100
AcDbEntity
100
AcDbLine
  8
Screwdrivers
 62
256
370
-1
  6
ByLayer
 10
1439.0
 20
495.0
 30
0.0
 11
1439.0
 21
345.0
 31
0.0
  0
LINE
  5
20F
100
AcDbEntity
100
AcDbLine
  8
Screwdrivers
 62
256
370
-1
  6
ByLayer
 10
1439.0
 20
345.0
 30
0.0
 11
1435.0
 21
345.0
 31
0.0
  0
LINE
  5
210
100
AcDbEntity
100
AcDbLine
  8
Screwdrivers
 62
256
370
-1
  6
ByLayer
 10
1435.0
 20
345.0
 30
0.0
 11
1435.0
 21
495.0
 31
0.0
  0
LINE
  5
211
100
AcDbEntity
100
AcDbLine
  8
Screwdrivers
 62
256
370
-1
  6
ByLayer
 10
1451.0
 20
495.0
 30
0.0
 11
1451.0
 21
405.0
 31
0.0
  0
LINE
  5
212
100
AcDbEntity
100
AcDbLine
  8
Screwdrivers
 62
256
370
-1
  6
ByLayer
 10
1451.0
 20
405.0
 30
0.0
 11
1455.0
 21
405.0
 31
0.0
  0
LINE
  5
213
100
AcDbEntity
100
AcDbLine
  8
Screwdrivers
 62
256
370
-1
  6
ByLayer
 10
1455.0
 20
405.0
 30
0.0
 11
1455.0
 21
495.0
 31
0.0
  0
LINE
  5
214
100
AcDbEntity
100
AcDbLine
  8
Screwdrivers
 62
256
370
-1
  6
ByLayer
 10
1467.0
 20
495.0
 30
0.0
 11
1467.0
 21
405.0
 31
0.0
  0
LINE
  5
215
100
AcDbEntity
100
AcDbLine
  8
Screwdrivers
 62
256
370
-1
  6
ByLayer
 10
1467.0
 20
405.0
 30
0.0
 11
1471.0
 21
405.0
 31
0.0
  0
LINE
  5
216
100
AcDbEntity
100
AcDbLine
  8
Screwdrivers
 62
256
370
-1
  6
ByLayer
 10
1471.0
 20
405.0
 30
0.0
 11
1471.0
 21
495.0
 31
0.0
  0
LINE
  5
217
100
AcDbEntity
100
AcDbLine
  8
Screwdrivers
 62
256
370
-1
  6
ByLayer
 10
1483.0
 20
495.0
 30
0.0
 11
1483.0
 21
415.0
 31
0.0
  0
LINE
  5
218
100
AcDbEntity
100
AcDbLine
  8
Screwdrivers
 62
256
370
-1
  6
ByLayer
 10
1483.0
 20
415.0
 30
0.0
 11
1487.0
 21
415.0
 31
0.0
  0
LINE
  5
219
100
AcDbEntity
100
AcDbLine
  8
Screwdrivers
 62
256
370
-1
  6
ByLayer
 10
1487.0
 20
415.0
 30
0.0
 11
1487.0
 21
495.0
 31
0.0
  0
LINE
  5
21A
100
AcDbEntity
100
AcDbLine
  8
Screwdrivers
 62
256
370
-1
  6
ByLayer
 10
1499.0
 20
495.0
 30
0.0
 11
1499.0
 21
415.0
 31
0.0
  0
LINE
  5
21B
100
AcDbEntity
100
AcDbLine
  8
Screwdrivers
 62
256
370
-1
  6
ByLayer
 10
1499.0
 20
415.0
 30
0.0
 11
1503.0
 21
415.0
 31
0.0
  0
LINE
  5
21C
100
AcDbEntity
100
AcDbLine
  8
Screwdrivers
 62
256
370
-1
  6
ByLayer
 10
1503.0
 20
415.0
 30
0.0
 11
1503.0
 21
495.0
 31
0.0
  0
LINE
  5
21D
100
AcDbEntity
100
AcDbLine
  8
Screwdrivers
 62
256
370
-1
  6
ByLayer
 10
1515.0
 20
495.0
 30
0.0
 11
1515.0
 21
445.0
 31
0.0
  0
LINE
  5
21E
100
AcDbEntity
100
AcDbLine
  8
Screwdrivers
 62
256
370
-1
  6
ByLayer
 10
1519.0
 20
445.0
 30
0.0
 11
1519.0
 21
495.0
 31
0.0
  0
LINE
  5
21F
100
AcDbEntity
100
AcDbLine
  8
Screwdrivers
 62
256
370
-1
  6
ByLayer
 10
1531.0
 20
495.0
 30
0.0
 11
1531.0
 21
445.0
 31
0.0
  0
LINE
  5
220
100
AcDbEntity
100
AcDbLine
  8
Screwdrivers
 62
256
370
-1
  6
ByLayer
 10
1535.0
 20
445.0
 30
0.0
 11
1535.0
 21
495.0
 31
0.0
  0
LINE
  5
221
100
AcDbEntity
100
AcDbLine
  8
Screwdrivers
 62
256
370
-1
  6
ByLayer
 10
1547.0
 20
495.0
 30
0.0
 11
1547.0
 21
445.0
 31
0.0
  0
LINE
  5
222
100
AcDbEntity
100
AcDbLine
  8
Screwdrivers
 62
256
370
-1
  6
ByLayer
 10
1551.0
 20
445.0
 30
0.0
 11
1551.0
 21
495.0
 31
0.0
  0
LINE
  5
223
100
AcDbEntity
100
AcDbLine
  8
Screwdrivers
 62
256
370
-1
  6
ByLayer
 10
1515.0
 20
445.0
 30
0.0
 11
1519.0
 21
445.0
 31
0.0
  0
LINE
  5
224
100
AcDbEntity
100
AcDbLine
  8
Screwdrivers
 62
256
370
-1
  6
ByLayer
 10
1531.0
 20
445.0
 30
0.0
 11
1535.0
 21
445.0
 31
0.0
  0
LINE
  5
225
100
AcDbEntity
100
AcDbLine
  8
Screwdrivers
 62
256
370
-1
  6
ByLayer
 10
1547.0
 20
445.0
 30
0.0
 11
1551.0
 21
445.0
 31
0.0
  0
LINE
  5
226
100
AcDbEntity
100
AcDbLine
  8
Dividers
 62
256
370
-1
  6
ByLayer
 10
1565.0
 20
180.0000000000000284
 30
0.0
 11
1565.0
 21
170.0000000000000568
 31
0.0
  0
LINE
  5
227
100
AcDbEntity
100
AcDbLine
  8
Dividers
 62
256
370
-1
  6
ByLayer
 10
1565.0
 20
180.0000000000000284
 30
0.0
 11
1565.0
 21
170.0000000000000568
 31
0.0
  0
LINE
  5
228
100
AcDbEntity
100
AcDbLine
  8
Dividers
 62
256
370
-1
  6
ByLayer
 10
1557.0
 20
180.0000000000000284
 30
0.0
 11
1557.0
 21
169.9999999999999716
 31
0.0
  0
LINE
  5
229
100
AcDbEntity
100
AcDbLine
  8
Dividers
 62
256
370
-1
  6
ByLayer
 10
1541.0
 20
180.0
 30
0.0
 11
1541.0000000000002274
 21
169.9999999999999432
 31
0.0
  0
LINE
  5
22A
100
AcDbEntity
100
AcDbLine
  8
Dividers
 62
256
370
-1
  6
ByLayer
 10
1525.0
 20
179.9999999999999716
 30
0.0
 11
1525.0
 21
169.9999999999999716
 31
0.0
  0
LINE
  5
22B
100
AcDbEntity
100
AcDbLine
  8
Dividers
 62
256
370
-1
  6
ByLayer
 10
1509.0
 20
180.0000000000000853
 30
0.0
 11
1509.0
 21
170.0000000000000284
 31
0.0
  0
LINE
  5
22C
100
AcDbEntity
100
AcDbLine
  8
Dividers
 62
256
370
-1
  6
ByLayer
 10
1493.0
 20
180.0000000000000284
 30
0.0
 11
1493.0
 21
170.0
 31
0.0
  0
LINE
  5
22D
100
AcDbEntity
100
AcDbLine
  8
Dividers
 62
256
370
-1
  6
ByLayer
 10
1477.0
 20
180.0000000000000284
 30
0.0
 11
1477.0
 21
170.0
 31
0.0
  0
LINE
  5
22E
100
AcDbEntity
100
AcDbLine
  8
Dividers
 62
256
370
-1
  6
ByLayer
 10
1461.0
 20
180.0000000000001137
 30
0.0
 11
1461.0
 21
170.0
 31
0.0
  0
LINE
  5
22F
100
AcDbEntity
100
AcDbLine
  8
Dividers
 62
256
370
-1
  6
ByLayer
 10
1445.0
 20
179.9999999999999432
 30
0.0
 11
1445.0
 21
170.0000000000000568
 31
0.0
  0
LINE
  5
230
100
AcDbEntity
100
AcDbLine
  8
Dividers
 62
256
370
-1
  6
ByLayer
 10
1429.0
 20
180.0000000000000284
 30
0.0
 11
1429.0
 21
170.0000000000000284
 31
0.0
  0
LINE
  5
231
100
AcDbEntity
100
AcDbLine
  8
Dividers
 62
256
370
-1
  6
ByLayer
 10
1413.0
 20
179.9999999999999432
 30
0.0
 11
1413.0
 21
170.0000000000000284
 31
0.0
  0
LINE
  5
232
100
AcDbEntity
100
AcDbLine
  8
Dividers
 62
256
370
-1
  6
ByLayer
 10
1397.0
 20
180.0000000000000853
 30
0.0
 11
1397.0
 21
170.0000000000000284
 31
0.0
  0
LINE
  5
233
100
AcDbEntity
100
AcDbLine
  8
Dividers
 62
256
370
-1
  6
ByLayer
 10
1381.0
 20
179.9999999999999432
 30
0.0
 11
1381.0
 21
170.0000000000000568
 31
0.0
  0
LINE
  5
234
100
AcDbEntity
100
AcDbLine
  8
Dividers
 62
256
370
-1
  6
ByLayer
 10
1365.0
 20
180.0000000000000284
 30
0.0
 11
1365.0
 21
170.0000000000000284
 31
0.0
  0
LINE
  5
235
100
AcDbEntity
100
AcDbLine
  8
Dividers
 62
256
370
-1
  6
ByLayer
 10
1565.0
 20
180.0000000000000284
 30
0.0
 11
1365.0
 21
180.0000000000000284
 31
0.0
  0
LINE
  5
236
100
AcDbEntity
100
AcDbLine
  8
Dividers
 62
256
370
-1
  6
ByLayer
 10
1365.0
 20
170.0000000000000284
 30
0.0
 11
1565.0
 21
170.0000000000000568
 31
0.0
  0
LINE
  5
237
100
AcDbEntity
100
AcDbLine
  8
Dividers
 62
256
370
-1
  6
ByLayer
 10
1413.0
 20
334.9999999999999432
 30
0.0
 11
1413.0
 21
325.0
 31
0.0
  0
LINE
  5
238
100
AcDbEntity
100
AcDbLine
  8
Dividers
 62
256
370
-1
  6
ByLayer
 10
1397.0
 20
335.0000000000001137
 30
0.0
 11
1397.0
 21
325.0
 31
0.0
  0
LINE
  5
239
100
AcDbEntity
100
AcDbLine
  8
Dividers
 62
256
370
-1
  6
ByLayer
 10
1381.0
 20
334.9999999999999432
 30
0.0
 11
1381.0
 21
325.0000000000000568
 31
0.0
  0
LINE
  5
23A
100
AcDbEntity
100
AcDbLine
  8
Dividers
 62
256
370
-1
  6
ByLayer
 10
1365.0
 20
335.0
 30
0.0
 11
1365.0
 21
325.0
 31
0.0
  0
LINE
  5
23B
100
AcDbEntity
100
AcDbLine
  8
Dividers
 62
256
370
-1
  6
ByLayer
 10
1365.0
 20
335.0
 30
0.0
 11
1421.0
 21
335.0
 31
0.0
  0
LINE
  5
23C
100
AcDbEntity
100
AcDbLine
  8
Dividers
 62
256
370
-1
  6
ByLayer
 10
1421.0
 20
335.0
 30
0.0
 11
1421.0
 21
325.0
 31
0.0
  0
LINE
  5
23D
100
AcDbEntity
100
AcDbLine
  8
Dividers
 62
256
370
-1
  6
ByLayer
 10
1421.0
 20
325.0
 30
0.0
 11
1365.0
 21
325.0
 31
0.0
  0
LINE
  5
23E
100
AcDbEntity
100
AcDbLine
  8
Dividers
 62
256
370
-1
  6
ByLayer
 10
1373.0
 20
335.0
 30
0.0
 11
1373.0
 21
325.0
 31
0.0
  0
LINE
  5
23F
100
AcDbEntity
100
AcDbLine
  8
Dividers
 62
256
370
-1
  6
ByLayer
 10
1389.0
 20
335.0
 30
0.0
 11
1389.0
 21
325.0
 31
0.0
  0
LINE
  5
240
100
AcDbEntity
100
AcDbLine
  8
Dividers
 62
256
370
-1
  6
ByLayer
 10
1405.0
 20
335.0
 30
0.0
 11
1405.0
 21
325.0
 31
0.0
  0
LINE
  5
241
100
AcDbEntity
100
AcDbLine
  8
Screwdrivers
 62
256
370
-1
  6
ByLayer
 10
1365.0
 20
595.0
 30
0.0
 11
1367.0
 21
495.0
 31
0.0
  0
LINE
  5
242
100
AcDbEntity
100
AcDbLine
  8
Screwdrivers
 62
256
370
-1
  6
ByLayer
 10
1367.0
 20
495.0
 30
0.0
 11
1379.0
 21
495.0
 31
0.0
  0
LINE
  5
243
100
AcDbEntity
100
AcDbLine
  8
Screwdrivers
 62
256
370
-1
  6
ByLayer
 10
1379.0
 20
495.0
 30
0.0
 11
1381.0
 21
595.0
 31
0.0
  0
LINE
  5
244
100
AcDbEntity
100
AcDbLine
  8
Screwdrivers
 62
256
370
-1
  6
ByLayer
 10
1389.0
 20
595.0
 30
0.0
 11
1381.0
 21
595.0
 31
0.0
  0
LINE
  5
245
100
AcDbEntity
100
AcDbLine
  8
Screwdrivers
 62
256
370
-1
  6
ByLayer
 10
1397.0
 20
595.0
 30
0.0
 11
1389.0
 21
595.0
 31
0.0
  0
LINE
  5
246
100
AcDbEntity
100
AcDbLine
  8
Screwdrivers
 62
256
370
-1
  6
ByLayer
 10
1381.0
 20
595.0
 30
0.0
 11
1383.0
 21
495.0
 31
0.0
  0
LINE
  5
247
100
AcDbEntity
100
AcDbLine
  8
Screwdrivers
 62
256
370
-1
  6
ByLayer
 10
1383.0
 20
495.0
 30
0.0
 11
1395.0
 21
495.0
 31
0.0
  0
LINE
  5
248
100
AcDbEntity
100
AcDbLine
  8
Screwdrivers
 62
256
370
-1
  6
ByLayer
 10
1395.0
 20
495.0
 30
0.0
 11
1397.0
 21
595.0
 31
0.0
  0
LINE
  5
249
100
AcDbEntity
100
AcDbLine
  8
Screwdrivers
 62
256
370
-1
  6
ByLayer
 10
1405.0
 20
595.0
 30
0.0
 11
1397.0
 21
595.0
 31
0.0
  0
LINE
  5
24A
100
AcDbEntity
100
AcDbLine
  8
Screwdrivers
 62
256
370
-1
  6
ByLayer
 10
1413.0
 20
595.0
 30
0.0
 11
1405.0
 21
595.0
 31
0.0
  0
LINE
  5
24B
100
AcDbEntity
100
AcDbLine
  8
Screwdrivers
 62
256
370
-1
  6
ByLayer
 10
1397.0
 20
595.0
 30
0.0
 11
1399.0
 21
495.0
 31
0.0
  0
LINE
  5
24C
100
AcDbEntity
100
AcDbLine
  8
Screwdrivers
 62
256
370
-1
  6
ByLayer
 10
1399.0
 20
495.0
 30
0.0
 11
1411.0
 21
495.0
 31
0.0
  0
LINE
  5
24D
100
AcDbEntity
100
AcDbLine
  8
Screwdrivers
 62
256
370
-1
  6
ByLayer
 10
1411.0
 20
495.0
 30
0.0
 11
1413.0
 21
595.0
 31
0.0
  0
LINE
  5
24E
100
AcDbEntity
100
AcDbLine
  8
Screwdrivers
 62
256
370
-1
  6
ByLayer
 10
1421.0
 20
595.0
 30
0.0
 11
1413.0
 21
595.0
 31
0.0
  0
LINE
  5
24F
100
AcDbEntity
100
AcDbLine
  8
Screwdrivers
 62
256
370
-1
  6
ByLayer
 10
1429.0
 20
595.0
 30
0.0
 11
1421.0
 21
595.0
 31
0.0
  0
LINE
  5
250
100
AcDbEntity
100
AcDbLine
  8
Screwdrivers
 62
256
370
-1
  6
ByLayer
 10
1413.0
 20
595.0
 30
0.0
 11
1415.0
 21
495.0
 31
0.0
  0
LINE
  5
251
100
AcDbEntity
100
AcDbLine
  8
Screwdrivers
 62
256
370
-1
  6
ByLayer
 10
1415.0
 20
495.0
 30
0.0
 11
1427.0
 21
495.0
 31
0.0
  0
LINE
  5
252
100
AcDbEntity
100
AcDbLine
  8
Screwdrivers
 62
256
370
-1
  6
ByLayer
 10
1427.0
 20
495.0
 30
0.0
 11
1429.0
 21
595.0
 31
0.0
  0
LINE
  5
253
100
AcDbEntity
100
AcDbLine
  8
Screwdrivers
 62
256
370
-1
  6
ByLayer
 10
1437.0
 20
595.0
 30
0.0
 11
1429.0
 21
595.0
 31
0.0
  0
LINE
  5
254
100
AcDbEntity
100
AcDbLine
  8
Screwdrivers
 62
256
370
-1
  6
ByLayer
 10
1445.0
 20
595.0
 30
0.0
 11
1437.0
 21
595.0
 31
0.0
  0
LINE
  5
255
100
AcDbEntity
100
AcDbLine
  8
Screwdrivers
 62
256
370
-1
  6
ByLayer
 10
1429.0
 20
595.0
 30
0.0
 11
1431.0
 21
495.0
 31
0.0
  0
LINE
  5
256
100
AcDbEntity
100
AcDbLine
  8
Screwdrivers
 62
256
370
-1
  6
ByLayer
 10
1431.0
 20
495.0
 30
0.0
 11
1443.0
 21
495.0
 31
0.0
  0
LINE
  5
257
100
AcDbEntity
100
AcDbLine
  8
Screwdrivers
 62
256
370
-1
  6
ByLayer
 10
1443.0
 20
495.0
 30
0.0
 11
1445.0
 21
595.0
 31
0.0
  0
LINE
  5
258
100
AcDbEntity
100
AcDbLine
  8
Screwdrivers
 62
256
370
-1
  6
ByLayer
 10
1453.0
 20
595.0
 30
0.0
 11
1445.0
 21
595.0
 31
0.0
  0
LINE
  5
259
100
AcDbEntity
100
AcDbLine
  8
Screwdrivers
 62
256
370
-1
  6
ByLayer
 10
1461.0
 20
595.0
 30
0.0
 11
1453.0
 21
595.0
 31
0.0
  0
LINE
  5
25A
100
AcDbEntity
100
AcDbLine
  8
Screwdrivers
 62
256
370
-1
  6
ByLayer
 10
1445.0
 20
595.0
 30
0.0
 11
1447.0
 21
495.0
 31
0.0
  0
LINE
  5
25B
100
AcDbEntity
100
AcDbLine
  8
Screwdrivers
 62
256
370
-1
  6
ByLayer
 10
1447.0
 20
495.0
 30
0.0
 11
1459.0
 21
495.0
 31
0.0
  0
LINE
  5
25C
100
AcDbEntity
100
AcDbLine
  8
Screwdrivers
 62
256
370
-1
  6
ByLayer
 10
1459.0
 20
495.0
 30
0.0
 11
1461.0
 21
595.0
 31
0.0
  0
LINE
  5
25D
100
AcDbEntity
100
AcDbLine
  8
Screwdrivers
 62
256
370
-1
  6
ByLayer
 10
1469.0
 20
595.0
 30
0.0
 11
1461.0
 21
595.0
 31
0.0
  0
LINE
  5
25E
100
AcDbEntity
100
AcDbLine
  8
Screwdrivers
 62
256
370
-1
  6
ByLayer
 10
1477.0
 20
595.0
 30
0.0
 11
1469.0
 21
595.0
 31
0.0
  0
LINE
  5
25F
100
AcDbEntity
100
AcDbLine
  8
Screwdrivers
 62
256
370
-1
  6
ByLayer
 10
1461.0
 20
595.0
 30
0.0
 11
1463.0
 21
495.0
 31
0.0
  0
LINE
  5
260
100
AcDbEntity
100
AcDbLine
  8
Screwdrivers
 62
256
370
-1
  6
ByLayer
 10
1463.0
 20
495.0
 30
0.0
 11
1475.0
 21
495.0
 31
0.0
  0
LINE
  5
261
100
AcDbEntity
100
AcDbLine
  8
Screwdrivers
 62
256
370
-1
  6
ByLayer
 10
1475.0
 20
495.0
 30
0.0
 11
1477.0
 21
595.0
 31
0.0
  0
LINE
  5
262
100
AcDbEntity
100
AcDbLine
  8
Screwdrivers
 62
256
370
-1
  6
ByLayer
 10
1485.0
 20
595.0
 30
0.0
 11
1477.0
 21
595.0
 31
0.0
  0
LINE
  5
263
100
AcDbEntity
100
AcDbLine
  8
Screwdrivers
 62
256
370
-1
  6
ByLayer
 10
1493.0
 20
595.0
 30
0.0
 11
1485.0
 21
595.0
 31
0.0
  0
LINE
  5
264
100
AcDbEntity
100
AcDbLine
  8
Screwdrivers
 62
256
370
-1
  6
ByLayer
 10
1477.0
 20
595.0
 30
0.0
 11
1479.0
 21
495.0
 31
0.0
  0
LINE
  5
265
100
AcDbEntity
100
AcDbLine
  8
Screwdrivers
 62
256
370
-1
  6
ByLayer
 10
1479.0
 20
495.0
 30
0.0
 11
1491.0
 21
495.0
 31
0.0
  0
LINE
  5
266
100
AcDbEntity
100
AcDbLine
  8
Screwdrivers
 62
256
370
-1
  6
ByLayer
 10
1491.0
 20
495.0
 30
0.0
 11
1493.0
 21
595.0
 31
0.0
  0
LINE
  5
267
100
AcDbEntity
100
AcDbLine
  8
Screwdrivers
 62
256
370
-1
  6
ByLayer
 10
1501.0
 20
595.0
 30
0.0
 11
1493.0
 21
595.0
 31
0.0
  0
LINE
  5
268
100
AcDbEntity
100
AcDbLine
  8
Screwdrivers
 62
256
370
-1
  6
ByLayer
 10
1509.0
 20
595.0
 30
0.0
 11
1501.0
 21
595.0
 31
0.0
  0
LINE
  5
269
100
AcDbEntity
100
AcDbLine
  8
Screwdrivers
 62
256
370
-1
  6
ByLayer
 10
1493.0
 20
595.0
 30
0.0
 11
1495.0
 21
495.0
 31
0.0
  0
LINE
  5
26A
100
AcDbEntity
100
AcDbLine
  8
Screwdrivers
 62
256
370
-1
  6
ByLayer
 10
1495.0
 20
495.0
 30
0.0
 11
1507.0
 21
495.0
 31
0.0
  0
LINE
  5
26B
100
AcDbEntity
100
AcDbLine
  8
Screwdrivers
 62
256
370
-1
  6
ByLayer
 10
1507.0
 20
495.0
 30
0.0
 11
1509.0
 21
595.0
 31
0.0
  0
LINE
  5
26C
100
AcDbEntity
100
AcDbLine
  8
Screwdrivers
 62
256
370
-1
  6
ByLayer
 10
1517.0
 20
595.0
 30
0.0
 11
1509.0
 21
595.0
 31
0.0
  0
LINE
  5
26D
100
AcDbEntity
100
AcDbLine
  8
Screwdrivers
 62
256
370
-1
  6
ByLayer
 10
1525.0
 20
595.0
 30
0.0
 11
1517.0
 21
595.0
 31
0.0
  0
LINE
  5
26E
100
AcDbEntity
100
AcDbLine
  8
Screwdrivers
 62
256
370
-1
  6
ByLayer
 10
1509.0
 20
595.0
 30
0.0
 11
1511.0
 21
495.0
 31
0.0
  0
LINE
  5
26F
100
AcDbEntity
100
AcDbLine
  8
Screwdrivers
 62
256
370
-1
  6
ByLayer
 10
1511.0
 20
495.0
 30
0.0
 11
1523.0
 21
495.0
 31
0.0
  0
LINE
  5
270
100
AcDbEntity
100
AcDbLine
  8
Screwdrivers
 62
256
370
-1
  6
ByLayer
 10
1523.0
 20
495.0
 30
0.0
 11
1525.0
 21
595.0
 31
0.0
  0
LINE
  5
271
100
AcDbEntity
100
AcDbLine
  8
Screwdrivers
 62
256
370
-1
  6
ByLayer
 10
1533.0
 20
595.0
 30
0.0
 11
1525.0
 21
595.0
 31
0.0
  0
LINE
  5
272
100
AcDbEntity
100
AcDbLine
  8
Screwdrivers
 62
256
370
-1
  6
ByLayer
 10
1541.0
 20
595.0
 30
0.0
 11
1533.0
 21
595.0
 31
0.0
  0
LINE
  5
273
100
AcDbEntity
100
AcDbLine
  8
Screwdrivers
 62
256
370
-1
  6
ByLayer
 10
1525.0
 20
595.0
 30
0.0
 11
1527.0
 21
495.0
 31
0.0
  0
LINE
  5
274
100
AcDbEntity
100
AcDbLine
  8
Screwdrivers
 62
256
370
-1
  6
ByLayer
 10
1527.0
 20
495.0
 30
0.0
 11
1539.0
 21
495.0
 31
0.0
  0
LINE
  5
275
100
AcDbEntity
100
AcDbLine
  8
Screwdrivers
 62
256
370
-1
  6
ByLayer
 10
1539.0
 20
495.0
 30
0.0
 11
1541.0
 21
595.0
 31
0.0
  0
LINE
  5
276
100
AcDbEntity
100
AcDbLine
  8
Screwdrivers
 62
256
370
-1
  6
ByLayer
 10
1549.0
 20
595.0
 30
0.0
 11
1541.0
 21
595.0
 31
0.0
  0
LINE
  5
277
100
AcDbEntity
100
AcDbLine
  8
Screwdrivers
 62
256
370
-1
  6
ByLayer
 10
1557.0
 20
595.0
 30
0.0
 11
1549.0
 21
595.0
 31
0.0
  0
LINE
  5
278
100
AcDbEntity
100
AcDbLine
  8
Screwdrivers
 62
256
370
-1
  6
ByLayer
 10
1541.0
 20
595.0
 30
0.0
 11
1543.0
 21
495.0
 31
0.0
  0
LINE
  5
279
100
AcDbEntity
100
AcDbLine
  8
Screwdrivers
 62
256
370
-1
  6
ByLayer
 10
1543.0
 20
495.0
 30
0.0
 11
1555.0
 21
495.0
 31
0.0
  0
LINE
  5
27A
100
AcDbEntity
100
AcDbLine
  8
Screwdrivers
 62
256
370
-1
  6
ByLayer
 10
1555.0
 20
495.0
 30
0.0
 11
1557.0
 21
595.0
 31
0.0
  0
LINE
  5
27B
100
AcDbEntity
100
AcDbLine
  8
Screwdrivers
 62
256
370
-1
  6
ByLayer
 10
1381.0
 20
65.0000000000000568
 30
0.0
 11
1373.0
 21
64.9999999999999432
 31
0.0
  0
LINE
  5
27C
100
AcDbEntity
100
AcDbLine
  8
Screwdrivers
 62
256
370
-1
  6
ByLayer
 10
1389.0
 20
65.0
 30
0.0
 11
1381.0
 21
65.0000000000000568
 31
0.0
  0
LINE
  5
27D
100
AcDbEntity
100
AcDbLine
  8
Screwdrivers
 62
256
370
-1
  6
ByLayer
 10
1397.0
 20
65.0
 30
0.0
 11
1389.0
 21
65.0
 31
0.0
  0
LINE
  5
27E
100
AcDbEntity
100
AcDbLine
  8
Screwdrivers
 62
256
370
-1
  6
ByLayer
 10
1405.0
 20
65.0
 30
0.0
 11
1397.0
 21
65.0
 31
0.0
  0
LINE
  5
27F
100
AcDbEntity
100
AcDbLine
  8
Screwdrivers
 62
256
370
-1
  6
ByLayer
 10
1413.0
 20
65.0
 30
0.0
 11
1405.0
 21
65.0
 31
0.0
  0
LINE
  5
280
100
AcDbEntity
100
AcDbLine
  8
Screwdrivers
 62
256
370
-1
  6
ByLayer
 10
1421.0
 20
65.0
 30
0.0
 11
1413.0
 21
65.0
 31
0.0
  0
LINE
  5
281
100
AcDbEntity
100
AcDbLine
  8
Screwdrivers
 62
256
370
-1
  6
ByLayer
 10
1428.9999999999997726
 20
65.0000000000000568
 30
0.0
 11
1421.0
 21
65.0
 31
0.0
  0
LINE
  5
282
100
AcDbEntity
100
AcDbLine
  8
Screwdrivers
 62
256
370
-1
  6
ByLayer
 10
1436.9999999999997726
 20
65.0
 30
0.0
 11
1428.9999999999997726
 21
65.0000000000000568
 31
0.0
  0
LINE
  5
283
100
AcDbEntity
100
AcDbLine
  8
Screwdrivers
 62
256
370
-1
  6
ByLayer
 10
1444.9999999999997726
 20
65.0000000000000568
 30
0.0
 11
1436.9999999999997726
 21
65.0
 31
0.0
  0
LINE
  5
284
100
AcDbEntity
100
AcDbLine
  8
Screwdrivers
 62
256
370
-1
  6
ByLayer
 10
1453.0
 20
65.0
 30
0.0
 11
1444.9999999999997726
 21
65.0000000000000568
 31
0.0
  0
LINE
  5
285
100
AcDbEntity
100
AcDbLine
  8
Screwdrivers
 62
256
370
-1
  6
ByLayer
 10
1461.0
 20
65.0
 30
0.0
 11
1453.0
 21
65.0
 31
0.0
  0
LINE
  5
286
100
AcDbEntity
100
AcDbLine
  8
Screwdrivers
 62
256
370
-1
  6
ByLayer
 10
1469.0
 20
65.0
 30
0.0
 11
1461.0
 21
65.0
 31
0.0
  0
LINE
  5
287
100
AcDbEntity
100
AcDbLine
  8
Screwdrivers
 62
256
370
-1
  6
ByLayer
 10
1477.0
 20
65.0000000000000568
 30
0.0
 11
1469.0
 21
65.0
 31
0.0
  0
LINE
  5
288
100
AcDbEntity
100
AcDbLine
  8
Screwdrivers
 62
256
370
-1
  6
ByLayer
 10
1485.0
 20
65.0
 30
0.0
 11
1477.0
 21
65.0000000000000568
 31
0.0
  0
LINE
  5
289
100
AcDbEntity
100
AcDbLine
  8
Screwdrivers
 62
256
370
-1
  6
ByLayer
 10
1493.0
 20
65.0000000000000568
 30
0.0
 11
1485.0
 21
65.0
 31
0.0
  0
LINE
  5
28A
100
AcDbEntity
100
AcDbLine
  8
Screwdrivers
 62
256
370
-1
  6
ByLayer
 10
1501.0
 20
65.0
 30
0.0
 11
1493.0
 21
65.0000000000000568
 31
0.0
  0
LINE
  5
28B
100
AcDbEntity
100
AcDbLine
  8
Screwdrivers
 62
256
370
-1
  6
ByLayer
 10
1508.9999999999997726
 20
65.0
 30
0.0
 11
1501.0
 21
65.0
 31
0.0
  0
LINE
  5
28C
100
AcDbEntity
100
AcDbLine
  8
Screwdrivers
 62
256
370
-1
  6
ByLayer
 10
1517.0
 20
65.0
 30
0.0
 11
1508.9999999999997726
 21
65.0
 31
0.0
  0
LINE
  5
28D
100
AcDbEntity
100
AcDbLine
  8
Screwdrivers
 62
256
370
-1
  6
ByLayer
 10
1525.0
 20
65.0
 30
0.0
 11
1517.0
 21
65.0
 31
0.0
  0
LINE
  5
28E
100
AcDbEntity
100
AcDbLine
  8
Screwdrivers
 62
256
370
-1
  6
ByLayer
 10
1532.9999999999997726
 20
64.9999999999999432
 30
0.0
 11
1525.0
 21
65.0
 31
0.0
  0
LINE
  5
28F
100
AcDbEntity
100
AcDbLine
  8
Screwdrivers
 62
256
370
-1
  6
ByLayer
 10
1540.9999999999997726
 20
65.0
 30
0.0
 11
1532.9999999999997726
 21
64.9999999999999432
 31
0.0
  0
LINE
  5
290
100
AcDbEntity
100
AcDbLine
  8
Screwdrivers
 62
256
370
-1
  6
ByLayer
 10
1549.0
 20
64.9999999999999432
 30
0.0
 11
1540.9999999999997726
 21
65.0
 31
0.0
  0
LINE
  5
291
100
AcDbEntity
100
AcDbLine
  8
Screwdrivers
 62
256
370
-1
  6
ByLayer
 10
1557.0
 20
65.0
 30
0.0
 11
1549.0
 21
64.9999999999999432
 31
0.0
  0
LINE
  5
292
100
AcDbEntity
100
AcDbLine
  8
Screwdrivers
 62
256
370
-1
  6
ByLayer
 10
1565.0
 20
65.0
 30
0.0
 11
1557.0
 21
65.0
 31
0.0
  0
LINE
  5
293
100
AcDbEntity
100
AcDbLine
  8
Screwdrivers
 62
256
370
-1
  6
ByLayer
 10
1373.0
 20
64.9999999999999432
 30
0.0
 11
1375.0
 21
165.0000000000000284
 31
0.0
  0
LINE
  5
294
100
AcDbEntity
100
AcDbLine
  8
Screwdrivers
 62
256
370
-1
  6
ByLayer
 10
1375.0
 20
165.0000000000000284
 30
0.0
 11
1387.0
 21
165.0
 31
0.0
  0
LINE
  5
295
100
AcDbEntity
100
AcDbLine
  8
Screwdrivers
 62
256
370
-1
  6
ByLayer
 10
1387.0
 20
165.0
 30
0.0
 11
1389.0
 21
65.0
 31
0.0
  0
LINE
  5
296
100
AcDbEntity
100
AcDbLine
  8
Screwdrivers
 62
256
370
-1
  6
ByLayer
 10
1397.0
 20
65.0
 30
0.0
 11
1389.0
 21
65.0
 31
0.0
  0
LINE
  5
297
100
AcDbEntity
100
AcDbLine
  8
Screwdrivers
 62
256
370
-1
  6
ByLayer
 10
1405.0
 20
65.0
 30
0.0
 11
1397.0
 21
65.0
 31
0.0
  0
LINE
  5
298
100
AcDbEntity
100
AcDbLine
  8
Screwdrivers
 62
256
370
-1
  6
ByLayer
 10
1389.0
 20
65.0
 30
0.0
 11
1390.9999999999997726
 21
165.0000000000000284
 31
0.0
  0
LINE
  5
299
100
AcDbEntity
100
AcDbLine
  8
Screwdrivers
 62
256
370
-1
  6
ByLayer
 10
1390.9999999999997726
 20
165.0000000000000284
 30
0.0
 11
1402.9999999999997726
 21
165.0000000000000568
 31
0.0
  0
LINE
  5
29A
100
AcDbEntity
100
AcDbLine
  8
Screwdrivers
 62
256
370
-1
  6
ByLayer
 10
1402.9999999999997726
 20
165.0000000000000568
 30
0.0
 11
1405.0
 21
65.0
 31
0.0
  0
LINE
  5
29B
100
AcDbEntity
100
AcDbLine
  8
Screwdrivers
 62
256
370
-1
  6
ByLayer
 10
1413.0
 20
65.0
 30
0.0
 11
1405.0
 21
65.0
 31
0.0
  0
LINE
  5
29C
100
AcDbEntity
100
AcDbLine
  8
Screwdrivers
 62
256
370
-1
  6
ByLayer
 10
1421.0
 20
65.0
 30
0.0
 11
1413.0
 21
65.0
 31
0.0
  0
LINE
  5
29D
100
AcDbEntity
100
AcDbLine
  8
Screwdrivers
 62
256
370
-1
  6
ByLayer
 10
1405.0
 20
65.0
 30
0.0
 11
1407.0
 21
165.0000000000000568
 31
0.0
  0
LINE
  5
29E
100
AcDbEntity
100
AcDbLine
  8
Screwdrivers
 62
256
370
-1
  6
ByLayer
 10
1407.0
 20
165.0000000000000568
 30
0.0
 11
1419.0
 21
165.0
 31
0.0
  0
LINE
  5
29F
100
AcDbEntity
100
AcDbLine
  8
Screwdrivers
 62
256
370
-1
  6
ByLayer
 10
1419.0
 20
165.0
 30
0.0
 11
1421.0
 21
65.0
 31
0.0
  0
LINE
  5
2A0
100
AcDbEntity
100
AcDbLine
  8
Screwdrivers
 62
256
370
-1
  6
ByLayer
 10
1428.9999999999997726
 20
65.0000000000000568
 30
0.0
 11
1421.0
 21
65.0
 31
0.0
  0
LINE
  5
2A1
100
AcDbEntity
100
AcDbLine
  8
Screwdrivers
 62
256
370
-1
  6
ByLayer
 10
1436.9999999999997726
 20
65.0
 30
0.0
 11
1428.9999999999997726
 21
65.0000000000000568
 31
0.0
  0
LINE
  5
2A2
100
AcDbEntity
100
AcDbLine
  8
Screwdrivers
 62
256
370
-1
  6
ByLayer
 10
1421.0
 20
65.0
 30
0.0
 11
1423.0
 21
165.0000000000000284
 31
0.0
  0
LINE
  5
2A3
100
AcDbEntity
100
AcDbLine
  8
Screwdrivers
 62
256
370
-1
  6
ByLayer
 10
1423.0
 20
165.0000000000000284
 30
0.0
 11
1435.0
 21
165.0000000000000284
 31
0.0
  0
LINE
  5
2A4
100
AcDbEntity
100
AcDbLine
  8
Screwdrivers
 62
256
370
-1
  6
ByLayer
 10
1435.0
 20
165.0000000000000284
 30
0.0
 11
1436.9999999999997726
 21
65.0
 31
0.0
  0
LINE
  5
2A5
100
AcDbEntity
100
AcDbLine
  8
Screwdrivers
 62
256
370
-1
  6
ByLayer
 10
1444.9999999999997726
 20
65.0000000000000568
 30
0.0
 11
1436.9999999999997726
 21
65.0
 31
0.0
  0
LINE
  5
2A6
100
AcDbEntity
100
AcDbLine
  8
Screwdrivers
 62
256
370
-1
  6
ByLayer
 10
1453.0
 20
65.0
 30
0.0
 11
1444.9999999999997726
 21
65.0000000000000568
 31
0.0
  0
LINE
  5
2A7
100
AcDbEntity
100
AcDbLine
  8
Screwdrivers
 62
256
370
-1
  6
ByLayer
 10
1436.9999999999997726
 20
65.0
 30
0.0
 11
1439.0
 21
165.0
 31
0.0
  0
LINE
  5
2A8
100
AcDbEntity
100
AcDbLine
  8
Screwdrivers
 62
256
370
-1
  6
ByLayer
 10
1439.0
 20
165.0
 30
0.0
 11
1451.0
 21
165.0
 31
0.0
  0
LINE
  5
2A9
100
AcDbEntity
100
AcDbLine
  8
Screwdrivers
 62
256
370
-1
  6
ByLayer
 10
1451.0
 20
165.0
 30
0.0
 11
1453.0
 21
65.0
 31
0.0
  0
LINE
  5
2AA
100
AcDbEntity
100
AcDbLine
  8
Screwdrivers
 62
256
370
-1
  6
ByLayer
 10
1461.0
 20
65.0
 30
0.0
 11
1453.0
 21
65.0
 31
0.0
  0
LINE
  5
2AB
100
AcDbEntity
100
AcDbLine
  8
Screwdrivers
 62
256
370
-1
  6
ByLayer
 10
1469.0
 20
65.0
 30
0.0
 11
1461.0
 21
65.0
 31
0.0
  0
LINE
  5
2AC
100
AcDbEntity
100
AcDbLine
  8
Screwdrivers
 62
256
370
-1
  6
ByLayer
 10
1453.0
 20
65.0
 30
0.0
 11
1455.0
 21
165.0000000000000284
 31
0.0
  0
LINE
  5
2AD
100
AcDbEntity
100
AcDbLine
  8
Screwdrivers
 62
256
370
-1
  6
ByLayer
 10
1455.0
 20
165.0000000000000284
 30
0.0
 11
1467.0
 21
165.0
 31
0.0
  0
LINE
  5
2AE
100
AcDbEntity
100
AcDbLine
  8
Screwdrivers
 62
256
370
-1
  6
ByLayer
 10
1467.0
 20
165.0
 30
0.0
 11
1469.0
 21
65.0
 31
0.0
  0
LINE
  5
2AF
100
AcDbEntity
100
AcDbLine
  8
Screwdrivers
 62
256
370
-1
  6
ByLayer
 10
1477.0
 20
65.0000000000000568
 30
0.0
 11
1469.0
 21
65.0
 31
0.0
  0
LINE
  5
2B0
100
AcDbEntity
100
AcDbLine
  8
Screwdrivers
 62
256
370
-1
  6
ByLayer
 10
1485.0
 20
65.0
 30
0.0
 11
1477.0
 21
65.0000000000000568
 31
0.0
  0
LINE
  5
2B1
100
AcDbEntity
100
AcDbLine
  8
Screwdrivers
 62
256
370
-1
  6
ByLayer
 10
1469.0
 20
65.0
 30
0.0
 11
1471.0
 21
165.0
 31
0.0
  0
LINE
  5
2B2
100
AcDbEntity
100
AcDbLine
  8
Screwdrivers
 62
256
370
-1
  6
ByLayer
 10
1471.0
 20
165.0
 30
0.0
 11
1483.0
 21
165.0
 31
0.0
  0
LINE
  5
2B3
100
AcDbEntity
100
AcDbLine
  8
Screwdrivers
 62
256
370
-1
  6
ByLayer
 10
1483.0
 20
165.0
 30
0.0
 11
1485.0
 21
65.0
 31
0.0
  0
LINE
  5
2B4
100
AcDbEntity
100
AcDbLine
  8
Screwdrivers
 62
256
370
-1
  6
ByLayer
 10
1493.0
 20
65.0000000000000568
 30
0.0
 11
1485.0
 21
65.0
 31
0.0
  0
LINE
  5
2B5
100
AcDbEntity
100
AcDbLine
  8
Screwdrivers
 62
256
370
-1
  6
ByLayer
 10
1501.0
 20
65.0
 30
0.0
 11
1493.0
 21
65.0000000000000568
 31
0.0
  0
LINE
  5
2B6
100
AcDbEntity
100
AcDbLine
  8
Screwdrivers
 62
256
370
-1
  6
ByLayer
 10
1485.0
 20
65.0
 30
0.0
 11
1487.0
 21
165.0
 31
0.0
  0
LINE
  5
2B7
100
AcDbEntity
100
AcDbLine
  8
Screwdrivers
 62
256
370
-1
  6
ByLayer
 10
1487.0
 20
165.0
 30
0.0
 11
1499.0
 21
164.9999999999999716
 31
0.0
  0
LINE
  5
2B8
100
AcDbEntity
100
AcDbLine
  8
Screwdrivers
 62
256
370
-1
  6
ByLayer
 10
1499.0
 20
164.9999999999999716
 30
0.0
 11
1501.0
 21
65.0
 31
0.0
  0
LINE
  5
2B9
100
AcDbEntity
100
AcDbLine
  8
Screwdrivers
 62
256
370
-1
  6
ByLayer
 10
1508.9999999999997726
 20
65.0
 30
0.0
 11
1501.0
 21
65.0
 31
0.0
  0
LINE
  5
2BA
100
AcDbEntity
100
AcDbLine
  8
Screwdrivers
 62
256
370
-1
  6
ByLayer
 10
1517.0
 20
65.0
 30
0.0
 11
1508.9999999999997726
 21
65.0
 31
0.0
  0
LINE
  5
2BB
100
AcDbEntity
100
AcDbLine
  8
Screwdrivers
 62
256
370
-1
  6
ByLayer
 10
1501.0
 20
65.0
 30
0.0
 11
1503.0
 21
165.0
 31
0.0
  0
LINE
  5
2BC
100
AcDbEntity
100
AcDbLine
  8
Screwdrivers
 62
256
370
-1
  6
ByLayer
 10
1503.0
 20
165.0
 30
0.0
 11
1515.0
 21
164.9999999999999716
 31
0.0
  0
LINE
  5
2BD
100
AcDbEntity
100
AcDbLine
  8
Screwdrivers
 62
256
370
-1
  6
ByLayer
 10
1515.0
 20
164.9999999999999716
 30
0.0
 11
1517.0
 21
65.0
 31
0.0
  0
LINE
  5
2BE
100
AcDbEntity
100
AcDbLine
  8
Screwdrivers
 62
256
370
-1
  6
ByLayer
 10
1525.0
 20
65.0
 30
0.0
 11
1517.0
 21
65.0
 31
0.0
  0
LINE
  5
2BF
100
AcDbEntity
100
AcDbLine
  8
Screwdrivers
 62
256
370
-1
  6
ByLayer
 10
1532.9999999999997726
 20
64.9999999999999432
 30
0.0
 11
1525.0
 21
65.0
 31
0.0
  0
LINE
  5
2C0
100
AcDbEntity
100
AcDbLine
  8
Screwdrivers
 62
256
370
-1
  6
ByLayer
 10
1517.0
 20
65.0
 30
0.0
 11
1519.0
 21
164.9999999999999716
 31
0.0
  0
LINE
  5
2C1
100
AcDbEntity
100
AcDbLine
  8
Screwdrivers
 62
256
370
-1
  6
ByLayer
 10
1519.0
 20
164.9999999999999716
 30
0.0
 11
1531.0
 21
164.9999999999999716
 31
0.0
  0
LINE
  5
2C2
100
AcDbEntity
100
AcDbLine
  8
Screwdrivers
 62
256
370
-1
  6
ByLayer
 10
1531.0
 20
164.9999999999999716
 30
0.0
 11
1532.9999999999997726
 21
64.9999999999999432
 31
0.0
  0
LINE
  5
2C3
100
AcDbEntity
100
AcDbLine
  8
Screwdrivers
 62
256
370
-1
  6
ByLayer
 10
1540.9999999999997726
 20
65.0
 30
0.0
 11
1532.9999999999997726
 21
64.9999999999999432
 31
0.0
  0
LINE
  5
2C4
100
AcDbEntity
100
AcDbLine
  8
Screwdrivers
 62
256
370
-1
  6
ByLayer
 10
1549.0
 20
64.9999999999999432
 30
0.0
 11
1540.9999999999997726
 21
65.0
 31
0.0
  0
LINE
  5
2C5
100
AcDbEntity
100
AcDbLine
  8
Screwdrivers
 62
256
370
-1
  6
ByLayer
 10
1532.9999999999997726
 20
64.9999999999999432
 30
0.0
 11
1535.0
 21
164.9999999999999716
 31
0.0
  0
LINE
  5
2C6
100
AcDbEntity
100
AcDbLine
  8
Screwdrivers
 62
256
370
-1
  6
ByLayer
 10
1535.0
 20
164.9999999999999716
 30
0.0
 11
1547.0
 21
165.0
 31
0.0
  0
LINE
  5
2C7
100
AcDbEntity
100
AcDbLine
  8
Screwdrivers
 62
256
370
-1
  6
ByLayer
 10
1547.0
 20
165.0
 30
0.0
 11
1549.0
 21
64.9999999999999432
 31
0.0
  0
LINE
  5
2C8
100
AcDbEntity
100
AcDbLine
  8
Screwdrivers
 62
256
370
-1
  6
ByLayer
 10
1557.0
 20
65.0
 30
0.0
 11
1549.0
 21
64.9999999999999432
 31
0.0
  0
LINE
  5
2C9
100
AcDbEntity
100
AcDbLine
  8
Screwdrivers
 62
256
370
-1
  6
ByLayer
 10
1565.0
 20
65.0
 30
0.0
 11
1557.0
 21
65.0
 31
0.0
  0
LINE
  5
2CA
100
AcDbEntity
100
AcDbLine
  8
Screwdrivers
 62
256
370
-1
  6
ByLayer
 10
1549.0
 20
64.9999999999999432
 30
0.0
 11
1551.0
 21
165.0
 31
0.0
  0
LINE
  5
2CB
100
AcDbEntity
100
AcDbLine
  8
Screwdrivers
 62
256
370
-1
  6
ByLayer
 10
1551.0
 20
165.0
 30
0.0
 11
1563.0
 21
164.9999999999999432
 31
0.0
  0
LINE
  5
2CC
100
AcDbEntity
100
AcDbLine
  8
Screwdrivers
 62
256
370
-1
  6
ByLayer
 10
1563.0
 20
164.9999999999999432
 30
0.0
 11
1565.0
 21
65.0
 31
0.0
  0
LINE
  5
2CD
100
AcDbEntity
100
AcDbLine
  8
Screwdrivers
 62
256
370
-1
  6
ByLayer
 10
1605.0
 20
330.0
 30
0.0
 11
1605.0
 21
338.0
 31
0.0
  0
LINE
  5
2CE
100
AcDbEntity
100
AcDbLine
  8
Screwdrivers
 62
256
370
-1
  6
ByLayer
 10
1605.0
 20
322.0
 30
0.0
 11
1605.0
 21
330.0
 31
0.0
  0
LINE
  5
2CF
100
AcDbEntity
100
AcDbLine
  8
Screwdrivers
 62
256
370
-1
  6
ByLayer
 10
1605.0
 20
330.0
 30
0.0
 11
1605.0
 21
338.0
 31
0.0
  0
LINE
  5
2D0
100
AcDbEntity
100
AcDbLine
  8
Screwdrivers
 62
256
370
-1
  6
ByLayer
 10
1605.0
 20
322.0
 30
0.0
 11
1605.0
 21
330.0
 31
0.0
  0
LINE
  5
2D1
100
AcDbEntity
100
AcDbLine
  8
Screwdrivers
 62
256
370
-1
  6
ByLayer
 10
1605.0
 20
338.0
 30
0.0
 11
1505.0
 21
336.0
 31
0.0
  0
LINE
  5
2D2
100
AcDbEntity
100
AcDbLine
  8
Screwdrivers
 62
256
370
-1
  6
ByLayer
 10
1505.0
 20
336.0
 30
0.0
 11
1505.0
 21
324.0000000000000568
 31
0.0
  0
LINE
  5
2D3
100
AcDbEntity
100
AcDbLine
  8
Screwdrivers
 62
256
370
-1
  6
ByLayer
 10
1505.0
 20
324.0000000000000568
 30
0.0
 11
1605.0
 21
322.0
 31
0.0
  0
LINE
  5
2D4
100
AcDbEntity
100
AcDbLine
  8
Screwdrivers
 62
256
370
-1
  6
ByLayer
 10
1505.0
 20
332.0
 30
0.0
 11
1455.0
 21
332.0
 31
0.0
  0
LINE
  5
2D5
100
AcDbEntity
100
AcDbLine
  8
Screwdrivers
 62
256
370
-1
  6
ByLayer
 10
1455.0
 20
332.0
 30
0.0
 11
1455.0
 21
328.0
 31
0.0
  0
LINE
  5
2D6
100
AcDbEntity
100
AcDbLine
  8
Screwdrivers
 62
256
370
-1
  6
ByLayer
 10
1455.0
 20
328.0
 30
0.0
 11
1505.0
 21
328.0
 31
0.0
  0
LINE
  5
2D7
100
AcDbEntity
100
AcDbLine
  8
Screwdrivers
 62
256
370
-1
  6
ByLayer
 10
1604.5203371641009653
 20
311.6824153149696599
 30
0.0
 11
1604.9390248140443873
 21
319.6714515930062248
 31
0.0
  0
LINE
  5
2D8
100
AcDbEntity
100
AcDbLine
  8
Screwdrivers
 62
256
370
-1
  6
ByLayer
 10
1604.1016495141573159
 20
303.6933790369329245
 30
0.0
 11
1604.5203371641009653
 21
311.6824153149696599
 31
0.0
  0
LINE
  5
2D9
100
AcDbEntity
100
AcDbLine
  8
Screwdrivers
 62
256
370
-1
  6
ByLayer
 10
1604.5203371641009653
 20
311.6824153149696599
 30
0.0
 11
1604.9390248140443873
 21
319.6714515930062248
 31
0.0
  0
LINE
  5
2DA
100
AcDbEntity
100
AcDbLine
  8
Screwdrivers
 62
256
370
-1
  6
ByLayer
 10
1604.1016495141573159
 20
303.6933790369329245
 30
0.0
 11
1604.5203371641009653
 21
311.6824153149696599
 31
0.0
  0
LINE
  5
2DB
100
AcDbEntity
100
AcDbLine
  8
Screwdrivers
 62
256
370
-1
  6
ByLayer
 10
1604.9390248140443873
 20
319.6714515930062248
 30
0.0
 11
1504.9713994261010157
 21
322.9077881477915071
 31
0.0
  0
LINE
  5
2DC
100
AcDbEntity
100
AcDbLine
  8
Screwdrivers
 62
256
370
-1
  6
ByLayer
 10
1504.9713994261010157
 20
322.9077881477915071
 30
0.0
 11
1504.3433679511858827
 21
310.924233730736546
 31
0.0
  0
LINE
  5
2DD
100
AcDbEntity
100
AcDbLine
  8
Screwdrivers
 62
256
370
-1
  6
ByLayer
 10
1504.3433679511858827
 20
310.924233730736546
 30
0.0
 11
1604.1016495141573159
 21
303.6933790369329245
 31
0.0
  0
LINE
  5
2DE
100
AcDbEntity
100
AcDbLine
  8
Screwdrivers
 62
256
370
-1
  6
ByLayer
 10
1504.7620556011293047
 20
318.9132700087731678
 30
0.0
 11
1454.8305788634006603
 21
321.5300678209204079
 31
0.0
  0
LINE
  5
2DF
100
AcDbEntity
100
AcDbLine
  8
Screwdrivers
 62
256
370
-1
  6
ByLayer
 10
1454.8305788634006603
 20
321.5300678209204079
 30
0.0
 11
1454.6212350384289493
 21
317.5355496819021255
 31
0.0
  0
LINE
  5
2E0
100
AcDbEntity
100
AcDbLine
  8
Screwdrivers
 62
256
370
-1
  6
ByLayer
 10
1454.6212350384289493
 20
317.5355496819021255
 30
0.0
 11
1504.5527117761575937
 21
314.9187518697548285
 31
0.0
  0
LINE
  5
2E1
100
AcDbEntity
100
AcDbLine
  8
Screwdrivers
 62
256
370
-1
  6
ByLayer
 10
1603.0826633788956315
 20
293.4150378563213053
 30
0.0
 11
1603.9188910850368757
 21
301.3712130192674863
 31
0.0
  0
LINE
  5
2E2
100
AcDbEntity
100
AcDbLine
  8
Screwdrivers
 62
256
370
-1
  6
ByLayer
 10
1602.2464356727543873
 20
285.4588626933748969
 30
0.0
 11
1603.0826633788956315
 21
293.4150378563213053
 31
0.0
  0
LINE
  5
2E3
100
AcDbEntity
100
AcDbLine
  8
Screwdrivers
 62
256
370
-1
  6
ByLayer
 10
1603.0826633788956315
 20
293.4150378563213053
 30
0.0
 11
1603.9188910850368757
 21
301.3712130192674863
 31
0.0
  0
LINE
  5
2E4
100
AcDbEntity
100
AcDbLine
  8
Screwdrivers
 62
256
370
-1
  6
ByLayer
 10
1602.2464356727543873
 20
285.4588626933748969
 30
0.0
 11
1603.0826633788956315
 21
293.4150378563213053
 31
0.0
  0
LINE
  5
2E5
100
AcDbEntity
100
AcDbLine
  8
Screwdrivers
 62
256
370
-1
  6
ByLayer
 10
1603.9188910850368757
 20
301.3712130192674863
 30
0.0
 11
1504.257644621674217
 21
309.8350155552962519
 31
0.0
  0
LINE
  5
2E6
100
AcDbEntity
100
AcDbLine
  8
Screwdrivers
 62
256
370
-1
  6
ByLayer
 10
1504.257644621674217
 20
309.8350155552962519
 30
0.0
 11
1503.0033030624624644
 21
297.9007528108770657
 31
0.0
  0
LINE
  5
2E7
100
AcDbEntity
100
AcDbLine
  8
Screwdrivers
 62
256
370
-1
  6
ByLayer
 10
1503.0033030624624644
 20
297.9007528108770657
 30
0.0
 11
1602.2464356727543873
 21
285.4588626933748969
 31
0.0
  0
LINE
  5
2E8
100
AcDbEntity
100
AcDbLine
  8
Screwdrivers
 62
256
370
-1
  6
ByLayer
 10
1503.8395307686037086
 20
305.8569279738231899
 30
0.0
 11
1454.1134360001899495
 21
311.0833511372058524
 31
0.0
  0
LINE
  5
2E9
100
AcDbEntity
100
AcDbLine
  8
Screwdrivers
 62
256
370
-1
  6
ByLayer
 10
1454.1134360001899495
 20
311.0833511372058524
 30
0.0
 11
1453.6953221471194411
 21
307.1052635557327335
 31
0.0
  0
LINE
  5
2EA
100
AcDbEntity
100
AcDbLine
  8
Screwdrivers
 62
256
370
-1
  6
ByLayer
 10
1453.6953221471194411
 20
307.1052635557327335
 30
0.0
 11
1503.4214169155329728
 21
301.8788403923499573
 31
0.0
  0
LINE
  5
2EB
100
AcDbEntity
100
AcDbLine
  8
Screwdrivers
 62
256
370
-1
  6
ByLayer
 10
1600.6909192082982827
 20
275.2479372359192098
 30
0.0
 11
1601.9423949286201605
 21
283.1494439606802871
 31
0.0
  0
LINE
  5
2EC
100
AcDbEntity
100
AcDbLine
  8
Screwdrivers
 62
256
370
-1
  6
ByLayer
 10
1599.4394434879764049
 20
267.3464305111580757
 30
0.0
 11
1600.6909192082982827
 21
275.2479372359192098
 31
0.0
  0
LINE
  5
2ED
100
AcDbEntity
100
AcDbLine
  8
Screwdrivers
 62
256
370
-1
  6
ByLayer
 10
1600.6909192082982827
 20
275.2479372359192098
 30
0.0
 11
1601.9423949286201605
 21
283.1494439606802871
 31
0.0
  0
LINE
  5
2EE
100
AcDbEntity
100
AcDbLine
  8
Screwdrivers
 62
256
370
-1
  6
ByLayer
 10
1599.4394434879764049
 20
267.3464305111580757
 30
0.0
 11
1600.6909192082982827
 21
275.2479372359192098
 31
0.0
  0
LINE
  5
2EF
100
AcDbEntity
100
AcDbLine
  8
Screwdrivers
 62
256
370
-1
  6
ByLayer
 10
1601.9423949286201605
 20
283.1494439606802871
 30
0.0
 11
1502.8606919390258554
 21
296.8175137835131068
 31
0.0
  0
LINE
  5
2F0
100
AcDbEntity
100
AcDbLine
  8
Screwdrivers
 62
256
370
-1
  6
ByLayer
 10
1502.8606919390258554
 20
296.8175137835131068
 30
0.0
 11
1500.983478358542925
 21
284.9652536963715193
 31
0.0
  0
LINE
  5
2F1
100
AcDbEntity
100
AcDbLine
  8
Screwdrivers
 62
256
370
-1
  6
ByLayer
 10
1500.983478358542925
 20
284.9652536963715193
 30
0.0
 11
1599.4394434879764049
 21
267.3464305111580757
 31
0.0
  0
LINE
  5
2F2
100
AcDbEntity
100
AcDbLine
  8
Screwdrivers
 62
256
370
-1
  6
ByLayer
 10
1502.2349540788648028
 20
292.8667604211325397
 30
0.0
 11
1452.8505370491079702
 21
300.6884836731441055
 31
0.0
  0
LINE
  5
2F3
100
AcDbEntity
100
AcDbLine
  8
Screwdrivers
 62
256
370
-1
  6
ByLayer
 10
1452.8505370491079702
 20
300.6884836731441055
 30
0.0
 11
1452.224799188947145
 21
296.7377303107634248
 31
0.0
  0
LINE
  5
2F4
100
AcDbEntity
100
AcDbLine
  8
Screwdrivers
 62
256
370
-1
  6
ByLayer
 10
1452.224799188947145
 20
296.7377303107634248
 30
0.0
 11
1501.6092162187039776
 21
288.9160070587520295
 31
0.0
  0
LINE
  5
2F5
100
AcDbEntity
100
AcDbLine
  8
Screwdrivers
 62
256
370
-1
  6
ByLayer
 10
1597.3516602568320195
 20
257.2309082137842324
 30
0.0
 11
1599.0149537833740396
 21
265.0560890196546779
 31
0.0
  0
LINE
  5
2F6
100
AcDbEntity
100
AcDbLine
  8
Screwdrivers
 62
256
370
-1
  6
ByLayer
 10
1595.6883667302899994
 20
249.4057274079136732
 30
0.0
 11
1597.3516602568320195
 21
257.2309082137842324
 31
0.0
  0
LINE
  5
2F7
100
AcDbEntity
100
AcDbLine
  8
Screwdrivers
 62
256
370
-1
  6
ByLayer
 10
1597.3516602568320195
 20
257.2309082137842324
 30
0.0
 11
1599.0149537833740396
 21
265.0560890196546779
 31
0.0
  0
LINE
  5
2F8
100
AcDbEntity
100
AcDbLine
  8
Screwdrivers
 62
256
370
-1
  6
ByLayer
 10
1595.6883667302899994
 20
249.4057274079136732
 30
0.0
 11
1597.3516602568320195
 21
257.2309082137842324
 31
0.0
  0
LINE
  5
2F9
100
AcDbEntity
100
AcDbLine
  8
Screwdrivers
 62
256
370
-1
  6
ByLayer
 10
1599.0149537833740396
 20
265.0560890196546779
 30
0.0
 11
1500.7843703283579089
 21
283.8909628999630286
 31
0.0
  0
LINE
  5
2FA
100
AcDbEntity
100
AcDbLine
  8
Screwdrivers
 62
256
370
-1
  6
ByLayer
 10
1500.7843703283579089
 20
283.8909628999630286
 30
0.0
 11
1498.2894300385448787
 21
272.1531916911573035
 31
0.0
  0
LINE
  5
2FB
100
AcDbEntity
100
AcDbLine
  8
Screwdrivers
 62
256
370
-1
  6
ByLayer
 10
1498.2894300385448787
 20
272.1531916911573035
 30
0.0
 11
1595.6883667302899994
 21
249.4057274079136732
 31
0.0
  0
LINE
  5
2FC
100
AcDbEntity
100
AcDbLine
  8
Screwdrivers
 62
256
370
-1
  6
ByLayer
 10
1499.9527235650868988
 20
279.978372497027749
 30
0.0
 11
1451.0453435283966428
 21
290.3739570379157726
 31
0.0
  0
LINE
  5
2FD
100
AcDbEntity
100
AcDbLine
  8
Screwdrivers
 62
256
370
-1
  6
ByLayer
 10
1451.0453435283966428
 20
290.3739570379157726
 30
0.0
 11
1450.2136967651256327
 21
286.4613666349805499
 31
0.0
  0
LINE
  5
2FE
100
AcDbEntity
100
AcDbLine
  8
Screwdrivers
 62
256
370
-1
  6
ByLayer
 10
1450.2136967651256327
 20
286.4613666349805499
 30
0.0
 11
1499.1210768018158888
 21
276.0657820940924694
 31
0.0
  0
LINE
  5
2FF
100
AcDbEntity
100
AcDbLine
  8
Screwdrivers
 62
256
370
-1
  6
ByLayer
 10
1604.5203371641009653
 20
348.3175846850303401
 30
0.0
 11
1604.1016495141573159
 21
356.3066209630669618
 31
0.0
  0
LINE
  5
300
100
AcDbEntity
100
AcDbLine
  8
Screwdrivers
 62
256
370
-1
  6
ByLayer
 10
1604.9390248140443873
 20
340.3285484069935478
 30
0.0
 11
1604.5203371641009653
 21
348.3175846850303401
 31
0.0
  0
LINE
  5
301
100
AcDbEntity
100
AcDbLine
  8
Screwdrivers
 62
256
370
-1
  6
ByLayer
 10
1604.5203371641009653
 20
348.3175846850303401
 30
0.0
 11
1604.1016495141573159
 21
356.3066209630669618
 31
0.0
  0
LINE
  5
302
100
AcDbEntity
100
AcDbLine
  8
Screwdrivers
 62
256
370
-1
  6
ByLayer
 10
1604.9390248140443873
 20
340.3285484069935478
 30
0.0
 11
1604.5203371641009653
 21
348.3175846850303401
 31
0.0
  0
LINE
  5
303
100
AcDbEntity
100
AcDbLine
  8
Screwdrivers
 62
256
370
-1
  6
ByLayer
 10
1604.1016495141573159
 20
356.3066209630669618
 30
0.0
 11
1504.3433679511858827
 21
349.0757662692633971
 31
0.0
  0
LINE
  5
304
100
AcDbEntity
100
AcDbLine
  8
Screwdrivers
 62
256
370
-1
  6
ByLayer
 10
1504.3433679511858827
 20
349.0757662692633971
 30
0.0
 11
1504.9713994261010157
 21
337.0922118522086066
 31
0.0
  0
LINE
  5
305
100
AcDbEntity
100
AcDbLine
  8
Screwdrivers
 62
256
370
-1
  6
ByLayer
 10
1504.9713994261010157
 20
337.0922118522086066
 30
0.0
 11
1604.9390248140443873
 21
340.3285484069935478
 31
0.0
  0
LINE
  5
306
100
AcDbEntity
100
AcDbLine
  8
Screwdrivers
 62
256
370
-1
  6
ByLayer
 10
1504.5527117761575937
 20
345.0812481302451147
 30
0.0
 11
1454.6212350384289493
 21
342.4644503180979314
 31
0.0
  0
LINE
  5
307
100
AcDbEntity
100
AcDbLine
  8
Screwdrivers
 62
256
370
-1
  6
ByLayer
 10
1454.6212350384289493
 20
342.4644503180979314
 30
0.0
 11
1454.8305788634006603
 21
338.4699321790795921
 31
0.0
  0
LINE
  5
308
100
AcDbEntity
100
AcDbLine
  8
Screwdrivers
 62
256
370
-1
  6
ByLayer
 10
1454.8305788634006603
 20
338.4699321790795921
 30
0.0
 11
1504.7620556011293047
 21
341.0867299912266617
 31
0.0
  0
LINE
  5
309
100
AcDbEntity
100
AcDbLine
  8
Screwdrivers
 62
256
370
-1
  6
ByLayer
 10
1603.0826633788956315
 20
366.5849621436786947
 30
0.0
 11
1602.2464356727543873
 21
374.5411373066249325
 31
0.0
  0
LINE
  5
30A
100
AcDbEntity
100
AcDbLine
  8
Screwdrivers
 62
256
370
-1
  6
ByLayer
 10
1603.9188910850368757
 20
358.6287869807324
 30
0.0
 11
1603.0826633788956315
 21
366.5849621436786947
 31
0.0
  0
LINE
  5
30B
100
AcDbEntity
100
AcDbLine
  8
Screwdrivers
 62
256
370
-1
  6
ByLayer
 10
1603.0826633788956315
 20
366.5849621436786947
 30
0.0
 11
1602.2464356727543873
 21
374.5411373066249325
 31
0.0
  0
LINE
  5
30C
100
AcDbEntity
100
AcDbLine
  8
Screwdrivers
 62
256
370
-1
  6
ByLayer
 10
1603.9188910850368757
 20
358.6287869807324
 30
0.0
 11
1603.0826633788956315
 21
366.5849621436786947
 31
0.0
  0
LINE
  5
30D
100
AcDbEntity
100
AcDbLine
  8
Screwdrivers
 62
256
370
-1
  6
ByLayer
 10
1602.2464356727543873
 20
374.5411373066249325
 30
0.0
 11
1503.0033030624624644
 21
362.0992471891229911
 31
0.0
  0
LINE
  5
30E
100
AcDbEntity
100
AcDbLine
  8
Screwdrivers
 62
256
370
-1
  6
ByLayer
 10
1503.0033030624624644
 20
362.0992471891229911
 30
0.0
 11
1504.257644621674217
 21
350.1649844447036912
 31
0.0
  0
LINE
  5
30F
100
AcDbEntity
100
AcDbLine
  8
Screwdrivers
 62
256
370
-1
  6
ByLayer
 10
1504.257644621674217
 20
350.1649844447036912
 30
0.0
 11
1603.9188910850368757
 21
358.6287869807324
 31
0.0
  0
LINE
  5
310
100
AcDbEntity
100
AcDbLine
  8
Screwdrivers
 62
256
370
-1
  6
ByLayer
 10
1503.4214169155329728
 20
358.1211596076499291
 30
0.0
 11
1453.6953221471194411
 21
352.8947364442672097
 31
0.0
  0
LINE
  5
311
100
AcDbEntity
100
AcDbLine
  8
Screwdrivers
 62
256
370
-1
  6
ByLayer
 10
1453.6953221471194411
 20
352.8947364442672097
 30
0.0
 11
1454.1134360001899495
 21
348.9166488627941476
 31
0.0
  0
LINE
  5
312
100
AcDbEntity
100
AcDbLine
  8
Screwdrivers
 62
256
370
-1
  6
ByLayer
 10
1454.1134360001899495
 20
348.9166488627941476
 30
0.0
 11
1503.8395307686037086
 21
354.1430720261767533
 31
0.0
  0
LINE
  5
313
100
AcDbEntity
100
AcDbLine
  8
Screwdrivers
 62
256
370
-1
  6
ByLayer
 10
1600.6909192082982827
 20
384.7520627640807902
 30
0.0
 11
1599.4394434879764049
 21
392.6535694888419243
 31
0.0
  0
LINE
  5
314
100
AcDbEntity
100
AcDbLine
  8
Screwdrivers
 62
256
370
-1
  6
ByLayer
 10
1601.9423949286201605
 20
376.8505560393197129
 30
0.0
 11
1600.6909192082982827
 21
384.7520627640807902
 31
0.0
  0
LINE
  5
315
100
AcDbEntity
100
AcDbLine
  8
Screwdrivers
 62
256
370
-1
  6
ByLayer
 10
1600.6909192082982827
 20
384.7520627640807902
 30
0.0
 11
1599.4394434879764049
 21
392.6535694888419243
 31
0.0
  0
LINE
  5
316
100
AcDbEntity
100
AcDbLine
  8
Screwdrivers
 62
256
370
-1
  6
ByLayer
 10
1601.9423949286201605
 20
376.8505560393197129
 30
0.0
 11
1600.6909192082982827
 21
384.7520627640807902
 31
0.0
  0
LINE
  5
317
100
AcDbEntity
100
AcDbLine
  8
Screwdrivers
 62
256
370
-1
  6
ByLayer
 10
1599.4394434879764049
 20
392.6535694888419243
 30
0.0
 11
1500.983478358542925
 21
375.0347463036285376
 31
0.0
  0
LINE
  5
318
100
AcDbEntity
100
AcDbLine
  8
Screwdrivers
 62
256
370
-1
  6
ByLayer
 10
1500.983478358542925
 20
375.0347463036285376
 30
0.0
 11
1502.8606919390258554
 21
363.1824862164868932
 31
0.0
  0
LINE
  5
319
100
AcDbEntity
100
AcDbLine
  8
Screwdrivers
 62
256
370
-1
  6
ByLayer
 10
1502.8606919390258554
 20
363.1824862164868932
 30
0.0
 11
1601.9423949286201605
 21
376.8505560393197129
 31
0.0
  0
LINE
  5
31A
100
AcDbEntity
100
AcDbLine
  8
Screwdrivers
 62
256
370
-1
  6
ByLayer
 10
1501.6092162187039776
 20
371.0839929412479705
 30
0.0
 11
1452.224799188947145
 21
363.2622696892364615
 31
0.0
  0
LINE
  5
31B
100
AcDbEntity
100
AcDbLine
  8
Screwdrivers
 62
256
370
-1
  6
ByLayer
 10
1452.224799188947145
 20
363.2622696892364615
 30
0.0
 11
1452.8505370491079702
 21
359.3115163268557808
 31
0.0
  0
LINE
  5
31C
100
AcDbEntity
100
AcDbLine
  8
Screwdrivers
 62
256
370
-1
  6
ByLayer
 10
1452.8505370491079702
 20
359.3115163268557808
 30
0.0
 11
1502.2349540788648028
 21
367.1332395788674603
 31
0.0
  0
LINE
  5
31D
100
AcDbEntity
100
AcDbLine
  8
Screwdrivers
 62
256
370
-1
  6
ByLayer
 10
1597.3516602568320195
 20
402.7690917862157676
 30
0.0
 11
1595.6883667302899994
 21
410.5942725920862131
 31
0.0
  0
LINE
  5
31E
100
AcDbEntity
100
AcDbLine
  8
Screwdrivers
 62
256
370
-1
  6
ByLayer
 10
1599.0149537833740396
 20
394.9439109803450947
 30
0.0
 11
1597.3516602568320195
 21
402.7690917862157676
 31
0.0
  0
LINE
  5
31F
100
AcDbEntity
100
AcDbLine
  8
Screwdrivers
 62
256
370
-1
  6
ByLayer
 10
1597.3516602568320195
 20
402.7690917862157676
 30
0.0
 11
1595.6883667302899994
 21
410.5942725920862131
 31
0.0
  0
LINE
  5
320
100
AcDbEntity
100
AcDbLine
  8
Screwdrivers
 62
256
370
-1
  6
ByLayer
 10
1599.0149537833740396
 20
394.9439109803450947
 30
0.0
 11
1597.3516602568320195
 21
402.7690917862157676
 31
0.0
  0
LINE
  5
321
100
AcDbEntity
100
AcDbLine
  8
Screwdrivers
 62
256
370
-1
  6
ByLayer
 10
1595.6883667302899994
 20
410.5942725920862131
 30
0.0
 11
1498.2894300385448787
 21
387.8468083088426397
 31
0.0
  0
LINE
  5
322
100
AcDbEntity
100
AcDbLine
  8
Screwdrivers
 62
256
370
-1
  6
ByLayer
 10
1498.2894300385448787
 20
387.8468083088426397
 30
0.0
 11
1500.7843703283579089
 21
376.1090371000370851
 31
0.0
  0
LINE
  5
323
100
AcDbEntity
100
AcDbLine
  8
Screwdrivers
 62
256
370
-1
  6
ByLayer
 10
1500.7843703283579089
 20
376.1090371000370851
 30
0.0
 11
1599.0149537833740396
 21
394.9439109803450947
 31
0.0
  0
LINE
  5
324
100
AcDbEntity
100
AcDbLine
  8
Screwdrivers
 62
256
370
-1
  6
ByLayer
 10
1499.1210768018158888
 20
383.9342179059074169
 30
0.0
 11
1450.2136967651256327
 21
373.5386333650194501
 31
0.0
  0
LINE
  5
325
100
AcDbEntity
100
AcDbLine
  8
Screwdrivers
 62
256
370
-1
  6
ByLayer
 10
1450.2136967651256327
 20
373.5386333650194501
 30
0.0
 11
1451.0453435283966428
 21
369.6260429620842274
 31
0.0
  0
LINE
  5
326
100
AcDbEntity
100
AcDbLine
  8
Screwdrivers
 62
256
370
-1
  6
ByLayer
 10
1451.0453435283966428
 20
369.6260429620842274
 30
0.0
 11
1499.9527235650868988
 21
380.0216275029720805
 31
0.0
  0
ARC
  5
327
100
AcDbEntity
  8
Dividers
 62
256
370
-1
  6
ByLayer
100
AcDbCircle
 10
1240.0
 20
330.0
 30
0.0
 40
260.0
100
AcDbArc
 50
346.6585406965947413
 51
13.341459303405248
  0
ARC
  5
328
100
AcDbEntity
  8
Dividers
 62
256
370
-1
  6
ByLayer
100
AcDbCircle
 10
1240.0
 20
330.0
 30
0.0
 40
250.0
100
AcDbArc
 50
346.7989128242944048
 51
13.3713319698919264
  0
ARC
  5
329
100
AcDbEntity
  8
Dividers
 62
256
370
-1
  6
ByLayer
100
AcDbCircle
 10
1240.0
 20
330.0
 30
0.0
 40
250.0
100
AcDbArc
 50
346.5756299449677158
 51
346.7989128242944048
  0
LINE
  5
32A
100
AcDbEntity
100
AcDbLine
  8
Dividers
 62
256
370
-1
  6
ByLayer
 10
1493.0
 20
270.0
 30
0.0
 11
1483.0
 21
272.0
 31
0.0
  0
LINE
  5
32B
100
AcDbEntity
100
AcDbLine
  8
Dividers
 62
256
370
-1
  6
ByLayer
 10
1493.0
 20
390.0
 30
0.0
 11
1483.0
 21
388.0
 31
0.0
  0
ARC
  5
32C
100
AcDbEntity
  8
Carriage
 62
256
370
-1
  6
ByLayer
100
AcDbCircle
 10
1473.0
 20
69.9999999999999858
 30
0.0
 40
15.8113883008419087
100
AcDbArc
 50
71.5650511770780042
 51
251.5650511770780042
  0
ARC
  5
32D
100
AcDbEntity
  8
Carriage
 62
256
370
-1
  6
ByLayer
100
AcDbCircle
 10
1478.0
 20
74.9999999999999858
 30
0.0
 40
9.9999999999999893
100
AcDbArc
 50
90.0
 51
270.0
  0
ARC
  5
32E
100
AcDbEntity
  8
Carriage
 62
256
370
-1
  6
ByLayer
100
AcDbCircle
 10
1477.25
 20
75.25
 30
0.0
 40
10.2774023955472309
100
AcDbArc
 50
274.1849161251183773
 51
341.565051177077919
  0
ARC
  5
32F
100
AcDbEntity
  8
Carriage
 62
256
370
-1
  6
ByLayer
100
AcDbCircle
 10
1494.236842105263122
 20
70.0263157894736992
 30
0.0
 40
7.5011541124943202
100
AcDbArc
 50
68.3852210572134709
 51
164.7448812969422534
  0
ARC
  5
330
100
AcDbEntity
  8
Carriage
 62
256
370
-1
  6
ByLayer
100
AcDbCircle
 10
1500.7222222222221717
 20
70.2301587301587347
 30
0.0
 40
7.7256513699785003
100
AcDbArc
 50
118.8030576910579299
 51
249.3681758688917967
  0
ARC
  5
331
100
AcDbEntity
  8
Carriage
 62
256
370
-1
  6
ByLayer
100
AcDbCircle
 10
1505.6666666666667425
 20
87.3333333333332575
 30
0.0
 40
25.5125241575365607
100
AcDbArc
 50
252.512002623851231
 51
331.0908163488520017
  0
ARC
  5
332
100
AcDbEntity
  8
Carriage
 62
256
370
-1
  6
ByLayer
100
AcDbCircle
 10
1583.0
 20
69.9999999999999716
 30
0.0
 40
15.8113883008419087
100
AcDbArc
 50
288.4349488229220242
 51
108.4349488229219958
  0
ARC
  5
333
100
AcDbEntity
  8
Carriage
 62
256
370
-1
  6
ByLayer
100
AcDbCircle
 10
1578.0
 20
74.9999999999999858
 30
0.0
 40
9.9999999999999893
100
AcDbArc
 50
270.0
 51
89.9999999999999858
  0
ARC
  5
334
100
AcDbEntity
  8
Carriage
 62
256
370
-1
  6
ByLayer
100
AcDbCircle
 10
1578.75
 20
75.25
 30
0.0
 40
10.2774023955472309
100
AcDbArc
 50
198.4349488229220242
 51
265.8150838748816227
  0
ARC
  5
335
100
AcDbEntity
  8
Carriage
 62
256
370
-1
  6
ByLayer
100
AcDbCircle
 10
1561.763157894736878
 20
70.026315789473685
 30
0.0
 40
7.5011541124943202
100
AcDbArc
 50
15.2551187030577324
 51
111.6147789427865575
  0
ARC
  5
336
100
AcDbEntity
  8
Carriage
 62
256
370
-1
  6
ByLayer
100
AcDbCircle
 10
1555.2777777777778283
 20
70.2301587301587347
 30
0.0
 40
7.7256513699785003
100
AcDbArc
 50
290.6318241311082033
 51
61.1969423089420488
  0
ARC
  5
337
100
AcDbEntity
  8
Carriage
 62
256
370
-1
  6
ByLayer
100
AcDbCircle
 10
1550.3333333333332575
 20
87.3333333333332575
 30
0.0
 40
25.5125241575365607
100
AcDbArc
 50
208.9091836511479698
 51
287.487997376148769
  0
LINE
  5
338
100
AcDbEntity
100
AcDbLine
  8
Carriage
 62
256
370
-1
  6
ByLayer
 10
1468.0
 20
55.0
 30
0.0
 11
1588.0
 21
55.0
 31
0.0
  0
ARC
  5
339
100
AcDbEntity
  8
Carriage
 62
256
370
-1
  6
ByLayer
100
AcDbCircle
 10
1474.0
 20
590.0
 30
0.0
 40
15.8113883008419087
100
AcDbArc
 50
108.43494882292201
 51
288.4349488229220242
  0
ARC
  5
33A
100
AcDbEntity
  8
Carriage
 62
256
370
-1
  6
ByLayer
100
AcDbCircle
 10
1479.0
 20
585.0
 30
0.0
 40
9.9999999999999893
100
AcDbArc
 50
90.0
 51
270.0
  0
ARC
  5
33B
100
AcDbEntity
  8
Carriage
 62
256
370
-1
  6
ByLayer
100
AcDbCircle
 10
1478.2499999999997726
 20
584.75
 30
0.0
 40
10.2774023955472309
100
AcDbArc
 50
18.4349488229220597
 51
85.8150838748816227
  0
ARC
  5
33C
100
AcDbEntity
  8
Carriage
 62
256
370
-1
  6
ByLayer
100
AcDbCircle
 10
1495.236842105263122
 20
589.973684210526244
 30
0.0
 40
7.5011541124943202
100
AcDbArc
 50
195.2551187030577182
 51
291.6147789427865291
  0
ARC
  5
33D
100
AcDbEntity
  8
Carriage
 62
256
370
-1
  6
ByLayer
100
AcDbCircle
 10
1501.7222222222221717
 20
589.7698412698412085
 30
0.0
 40
7.7256513699785003
100
AcDbArc
 50
110.6318241311081891
 51
241.196942308941999
  0
ARC
  5
33E
100
AcDbEntity
  8
Carriage
 62
256
370
-1
  6
ByLayer
100
AcDbCircle
 10
1506.6666666666667425
 20
572.6666666666667425
 30
0.0
 40
25.5125241575365607
100
AcDbArc
 50
28.9091836511479734
 51
107.4879973761487548
  0
ARC
  5
33F
100
AcDbEntity
  8
Carriage
 62
256
370
-1
  6
ByLayer
100
AcDbCircle
 10
1584.0
 20
590.0
 30
0.0
 40
15.8113883008419087
100
AcDbArc
 50
251.5650511770780042
 51
71.56505117707799
  0
ARC
  5
340
100
AcDbEntity
  8
Carriage
 62
256
370
-1
  6
ByLayer
100
AcDbCircle
 10
1579.0
 20
585.0
 30
0.0
 40
9.9999999999999893
100
AcDbArc
 50
270.0
 51
90.0
  0
ARC
  5
341
100
AcDbEntity
  8
Carriage
 62
256
370
-1
  6
ByLayer
100
AcDbCircle
 10
1579.75
 20
584.75
 30
0.0
 40
10.2774023955472309
100
AcDbArc
 50
94.1849161251183773
 51
161.5650511770780042
  0
ARC
  5
342
100
AcDbEntity
  8
Carriage
 62
256
370
-1
  6
ByLayer
100
AcDbCircle
 10
1562.7631578947371054
 20
589.973684210526244
 30
0.0
 40
7.5011541124943202
100
AcDbArc
 50
248.385221057213414
 51
344.7448812969422534
  0
ARC
  5
343
100
AcDbEntity
  8
Carriage
 62
256
370
-1
  6
ByLayer
100
AcDbCircle
 10
1556.2777777777778283
 20
589.7698412698413222
 30
0.0
 40
7.7256513699785003
100
AcDbArc
 50
298.8030576910579157
 51
69.3681758688918109
  0
ARC
  5
344
100
AcDbEntity
  8
Carriage
 62
256
370
-1
  6
ByLayer
100
AcDbCircle
 10
1551.3333333333332575
 20
572.6666666666667425
 30
0.0
 40
25.5125241575365607
100
AcDbArc
 50
72.5120026238512452
 51
151.0908163488520302
  0
LINE
  5
345
100
AcDbEntity
100
AcDbLine
  8
Carriage
 62
256
370
-1
  6
ByLayer
 10
1469.0
 20
605.0
 30
0.0
 11
1589.0
 21
605.0
 31
0.0
  0
CIRCLE
  5
346
100
AcDbEntity
100
AcDbCircle
  8
NeoMagnets
 62
256
370
-1
  6
ByLayer
 10
1373.0
 20
485.0
 30
0.0
 40
2.0
  0
CIRCLE
  5
347
100
AcDbEntity
100
AcDbCircle
  8
NeoMagnets
 62
256
370
-1
  6
ByLayer
 10
1389.0
 20
485.0
 30
0.0
 40
2.0
  0
CIRCLE
  5
348
100
AcDbEntity
100
AcDbCircle
  8
NeoMagnets
 62
256
370
-1
  6
ByLayer
 10
1405.0
 20
485.0
 30
0.0
 40
2.0
  0
CIRCLE
  5
349
100
AcDbEntity
100
AcDbCircle
  8
NeoMagnets
 62
256
370
-1
  6
ByLayer
 10
1421.0
 20
485.0
 30
0.0
 40
2.0
  0
CIRCLE
  5
34A
100
AcDbEntity
100
AcDbCircle
  8
NeoMagnets
 62
256
370
-1
  6
ByLayer
 10
1437.0
 20
485.0
 30
0.0
 40
2.0
  0
CIRCLE
  5
34B
100
AcDbEntity
100
AcDbCircle
  8
NeoMagnets
 62
256
370
-1
  6
ByLayer
 10
1453.0
 20
485.0
 30
0.0
 40
2.0
  0
CIRCLE
  5
34C
100
AcDbEntity
100
AcDbCircle
  8
NeoMagnets
 62
256
370
-1
  6
ByLayer
 10
1469.0
 20
485.0
 30
0.0
 40
2.0
  0
CIRCLE
  5
34D
100
AcDbEntity
100
AcDbCircle
  8
NeoMagnets
 62
256
370
-1
  6
ByLayer
 10
1485.0
 20
485.0
 30
0.0
 40
2.0
  0
CIRCLE
  5
34E
100
AcDbEntity
100
AcDbCircle
  8
NeoMagnets
 62
256
370
-1
  6
ByLayer
 10
1501.0
 20
485.0
 30
0.0
 40
2.0
  0
CIRCLE
  5
34F
100
AcDbEntity
100
AcDbCircle
  8
NeoMagnets
 62
256
370
-1
  6
ByLayer
 10
1517.0
 20
485.0
 30
0.0
 40
2.0
  0
CIRCLE
  5
350
100
AcDbEntity
100
AcDbCircle
  8
NeoMagnets
 62
256
370
-1
  6
ByLayer
 10
1533.0
 20
485.0
 30
0.0
 40
2.0
  0
CIRCLE
  5
351
100
AcDbEntity
100
AcDbCircle
  8
NeoMagnets
 62
256
370
-1
  6
ByLayer
 10
1549.0
 20
485.0
 30
0.0
 40
2.0
  0
CIRCLE
  5
352
100
AcDbEntity
100
AcDbCircle
  8
NeoMagnets
 62
256
370
-1
  6
ByLayer
 10
1381.0
 20
175.0
 30
0.0
 40
2.0
  0
CIRCLE
  5
353
100
AcDbEntity
100
AcDbCircle
  8
NeoMagnets
 62
256
370
-1
  6
ByLayer
 10
1397.0
 20
175.0
 30
0.0
 40
2.0
  0
CIRCLE
  5
354
100
AcDbEntity
100
AcDbCircle
  8
NeoMagnets
 62
256
370
-1
  6
ByLayer
 10
1413.0
 20
175.0
 30
0.0
 40
2.0
  0
CIRCLE
  5
355
100
AcDbEntity
100
AcDbCircle
  8
NeoMagnets
 62
256
370
-1
  6
ByLayer
 10
1429.0
 20
175.0
 30
0.0
 40
2.0
  0
CIRCLE
  5
356
100
AcDbEntity
100
AcDbCircle
  8
NeoMagnets
 62
256
370
-1
  6
ByLayer
 10
1445.0
 20
175.0
 30
0.0
 40
2.0
  0
CIRCLE
  5
357
100
AcDbEntity
100
AcDbCircle
  8
NeoMagnets
 62
256
370
-1
  6
ByLayer
 10
1461.0
 20
175.0
 30
0.0
 40
2.0
  0
CIRCLE
  5
358
100
AcDbEntity
100
AcDbCircle
  8
NeoMagnets
 62
256
370
-1
  6
ByLayer
 10
1477.0
 20
175.0
 30
0.0
 40
2.0
  0
CIRCLE
  5
359
100
AcDbEntity
100
AcDbCircle
  8
NeoMagnets
 62
256
370
-1
  6
ByLayer
 10
1493.0
 20
175.0
 30
0.0
 40
2.0
  0
CIRCLE
  5
35A
100
AcDbEntity
100
AcDbCircle
  8
NeoMagnets
 62
256
370
-1
  6
ByLayer
 10
1509.0
 20
175.0
 30
0.0
 40
2.0
  0
CIRCLE
  5
35B
100
AcDbEntity
100
AcDbCircle
  8
NeoMagnets
 62
256
370
-1
  6
ByLayer
 10
1525.0
 20
175.0
 30
0.0
 40
2.0
  0
CIRCLE
  5
35C
100
AcDbEntity
100
AcDbCircle
  8
NeoMagnets
 62
256
370
-1
  6
ByLayer
 10
1541.0
 20
175.0
 30
0.0
 40
2.0
  0
CIRCLE
  5
35D
100
AcDbEntity
100
AcDbCircle
  8
NeoMagnets
 62
256
370
-1
  6
ByLayer
 10
1557.0
 20
175.0
 30
0.0
 40
2.0
  0
CIRCLE
  5
35E
100
AcDbEntity
100
AcDbCircle
  8
NeoMagnets
 62
256
370
-1
  6
ByLayer
 10
1373.0
 20
330.0
 30
0.0
 40
2.0
  0
CIRCLE
  5
35F
100
AcDbEntity
100
AcDbCircle
  8
NeoMagnets
 62
256
370
-1
  6
ByLayer
 10
1381.0
 20
330.0
 30
0.0
 40
2.0
  0
CIRCLE
  5
360
100
AcDbEntity
100
AcDbCircle
  8
NeoMagnets
 62
256
370
-1
  6
ByLayer
 10
1389.0
 20
330.0
 30
0.0
 40
2.0
  0
CIRCLE
  5
361
100
AcDbEntity
100
AcDbCircle
  8
NeoMagnets
 62
256
370
-1
  6
ByLayer
 10
1397.0
 20
330.0
 30
0.0
 40
2.0
  0
CIRCLE
  5
362
100
AcDbEntity
100
AcDbCircle
  8
NeoMagnets
 62
256
370
-1
  6
ByLayer
 10
1405.0
 20
330.0
 30
0.0
 40
2.0
  0
CIRCLE
  5
363
100
AcDbEntity
100
AcDbCircle
  8
NeoMagnets
 62
256
370
-1
  6
ByLayer
 10
1413.0
 20
330.0
 30
0.0
 40
2.0
  0
CIRCLE
  5
364
100
AcDbEntity
100
AcDbCircle
  8
NeoMagnets
 62
256
370
-1
  6
ByLayer
 10
1495.0
 20
330.0
 30
0.0
 40
2.0
  0
CIRCLE
  5
365
100
AcDbEntity
100
AcDbCircle
  8
NeoMagnets
 62
256
370
-1
  6
ByLayer
 10
1495.0
 20
330.0
 30
0.0
 40
2.0
  0
CIRCLE
  5
366
100
AcDbEntity
100
AcDbCircle
  8
NeoMagnets
 62
256
370
-1
  6
ByLayer
 10
1495.0
 20
330.0
 30
0.0
 40
2.0
  0
CIRCLE
  5
367
100
AcDbEntity
100
AcDbCircle
  8
NeoMagnets
 62
256
370
-1
  6
ByLayer
 10
1495.0
 20
330.0
 30
0.0
 40
2.0
  0
CIRCLE
  5
368
100
AcDbEntity
100
AcDbCircle
  8
NeoMagnets
 62
256
370
-1
  6
ByLayer
 10
1495.0
 20
330.0
 30
0.0
 40
2.0
  0
CIRCLE
  5
369
100
AcDbEntity
100
AcDbCircle
  8
NeoMagnets
 62
256
370
-1
  6
ByLayer
 10
1494.6955650220656935
 20
342.4566912978813775
 30
0.0
 40
2.0
  0
CIRCLE
  5
36A
100
AcDbEntity
100
AcDbCircle
  8
NeoMagnets
 62
256
370
-1
  6
ByLayer
 10
1494.6955650220656935
 20
342.4566912978813775
 30
0.0
 40
2.0
  0
CIRCLE
  5
36B
100
AcDbEntity
100
AcDbCircle
  8
NeoMagnets
 62
256
370
-1
  6
ByLayer
 10
1494.6955650220656935
 20
342.4566912978813775
 30
0.0
 40
2.0
  0
CIRCLE
  5
36C
100
AcDbEntity
100
AcDbCircle
  8
NeoMagnets
 62
256
370
-1
  6
ByLayer
 10
1494.6955650220656935
 20
342.4566912978813775
 30
0.0
 40
2.0
  0
CIRCLE
  5
36D
100
AcDbEntity
100
AcDbCircle
  8
NeoMagnets
 62
256
370
-1
  6
ByLayer
 10
1494.6955650220656935
 20
342.4566912978813775
 30
0.0
 40
2.0
  0
CIRCLE
  5
36E
100
AcDbEntity
100
AcDbCircle
  8
NeoMagnets
 62
256
370
-1
  6
ByLayer
 10
1493.7829869953668549
 20
354.8836394385830886
 30
0.0
 40
2.0
  0
CIRCLE
  5
36F
100
AcDbEntity
100
AcDbCircle
  8
NeoMagnets
 62
256
370
-1
  6
ByLayer
 10
1493.7829869953668549
 20
354.8836394385830886
 30
0.0
 40
2.0
  0
CIRCLE
  5
370
100
AcDbEntity
100
AcDbCircle
  8
NeoMagnets
 62
256
370
-1
  6
ByLayer
 10
1493.7829869953668549
 20
354.8836394385830886
 30
0.0
 40
2.0
  0
CIRCLE
  5
371
100
AcDbEntity
100
AcDbCircle
  8
NeoMagnets
 62
256
370
-1
  6
ByLayer
 10
1493.7829869953668549
 20
354.8836394385830886
 30
0.0
 40
2.0
  0
CIRCLE
  5
372
100
AcDbEntity
100
AcDbCircle
  8
NeoMagnets
 62
256
370
-1
  6
ByLayer
 10
1493.7829869953668549
 20
354.8836394385830886
 30
0.0
 40
2.0
  0
CIRCLE
  5
373
100
AcDbEntity
100
AcDbCircle
  8
NeoMagnets
 62
256
370
-1
  6
ByLayer
 10
1492.2644449055619589
 20
367.2511722834149737
 30
0.0
 40
2.0
  0
CIRCLE
  5
374
100
AcDbEntity
100
AcDbCircle
  8
NeoMagnets
 62
256
370
-1
  6
ByLayer
 10
1492.2644449055619589
 20
367.2511722834149737
 30
0.0
 40
2.0
  0
CIRCLE
  5
375
100
AcDbEntity
100
AcDbCircle
  8
NeoMagnets
 62
256
370
-1
  6
ByLayer
 10
1492.2644449055619589
 20
367.2511722834149737
 30
0.0
 40
2.0
  0
CIRCLE
  5
376
100
AcDbEntity
100
AcDbCircle
  8
NeoMagnets
 62
256
370
-1
  6
ByLayer
 10
1492.2644449055619589
 20
367.2511722834149737
 30
0.0
 40
2.0
  0
CIRCLE
  5
377
100
AcDbEntity
100
AcDbCircle
  8
NeoMagnets
 62
256
370
-1
  6
ByLayer
 10
1492.2644449055619589
 20
367.2511722834149737
 30
0.0
 40
2.0
  0
CIRCLE
  5
378
100
AcDbEntity
100
AcDbCircle
  8
NeoMagnets
 62
256
370
-1
  6
ByLayer
 10
1490.143564614043953
 20
379.5297595610928738
 30
0.0
 40
2.0
  0
CIRCLE
  5
379
100
AcDbEntity
100
AcDbCircle
  8
NeoMagnets
 62
256
370
-1
  6
ByLayer
 10
1490.143564614043953
 20
379.5297595610928738
 30
0.0
 40
2.0
  0
CIRCLE
  5
37A
100
AcDbEntity
100
AcDbCircle
  8
NeoMagnets
 62
256
370
-1
  6
ByLayer
 10
1490.143564614043953
 20
379.5297595610928738
 30
0.0
 40
2.0
  0
CIRCLE
  5
37B
100
AcDbEntity
100
AcDbCircle
  8
NeoMagnets
 62
256
370
-1
  6
ByLayer
 10
1490.143564614043953
 20
379.5297595610928738
 30
0.0
 40
2.0
  0
CIRCLE
  5
37C
100
AcDbEntity
100
AcDbCircle
  8
NeoMagnets
 62
256
370
-1
  6
ByLayer
 10
1490.143564614043953
 20
379.5297595610928738
 30
0.0
 40
2.0
  0
CIRCLE
  5
37D
100
AcDbEntity
100
AcDbCircle
  8
NeoMagnets
 62
256
370
-1
  6
ByLayer
 10
1494.6955650220656935
 20
317.5433087021186225
 30
0.0
 40
2.0
  0
CIRCLE
  5
37E
100
AcDbEntity
100
AcDbCircle
  8
NeoMagnets
 62
256
370
-1
  6
ByLayer
 10
1494.6955650220656935
 20
317.5433087021186225
 30
0.0
 40
2.0
  0
CIRCLE
  5
37F
100
AcDbEntity
100
AcDbCircle
  8
NeoMagnets
 62
256
370
-1
  6
ByLayer
 10
1494.6955650220656935
 20
317.5433087021186225
 30
0.0
 40
2.0
  0
CIRCLE
  5
380
100
AcDbEntity
100
AcDbCircle
  8
NeoMagnets
 62
256
370
-1
  6
ByLayer
 10
1494.6955650220656935
 20
317.5433087021186225
 30
0.0
 40
2.0
  0
CIRCLE
  5
381
100
AcDbEntity
100
AcDbCircle
  8
NeoMagnets
 62
256
370
-1
  6
ByLayer
 10
1494.6955650220656935
 20
317.5433087021186225
 30
0.0
 40
2.0
  0
CIRCLE
  5
382
100
AcDbEntity
100
AcDbCircle
  8
NeoMagnets
 62
256
370
-1
  6
ByLayer
 10
1493.7829869953668549
 20
305.1163605614169114
 30
0.0
 40
2.0
  0
CIRCLE
  5
383
100
AcDbEntity
100
AcDbCircle
  8
NeoMagnets
 62
256
370
-1
  6
ByLayer
 10
1493.7829869953668549
 20
305.1163605614169114
 30
0.0
 40
2.0
  0
CIRCLE
  5
384
100
AcDbEntity
100
AcDbCircle
  8
NeoMagnets
 62
256
370
-1
  6
ByLayer
 10
1493.7829869953668549
 20
305.1163605614169114
 30
0.0
 40
2.0
  0
CIRCLE
  5
385
100
AcDbEntity
100
AcDbCircle
  8
NeoMagnets
 62
256
370
-1
  6
ByLayer
 10
1493.7829869953668549
 20
305.1163605614169114
 30
0.0
 40
2.0
  0
CIRCLE
  5
386
100
AcDbEntity
100
AcDbCircle
  8
NeoMagnets
 62
256
370
-1
  6
ByLayer
 10
1493.7829869953668549
 20
305.1163605614169114
 30
0.0
 40
2.0
  0
CIRCLE
  5
387
100
AcDbEntity
100
AcDbCircle
  8
NeoMagnets
 62
256
370
-1
  6
ByLayer
 10
1492.2644449055619589
 20
292.7488277165850263
 30
0.0
 40
2.0
  0
CIRCLE
  5
388
100
AcDbEntity
100
AcDbCircle
  8
NeoMagnets
 62
256
370
-1
  6
ByLayer
 10
1492.2644449055619589
 20
292.7488277165850263
 30
0.0
 40
2.0
  0
CIRCLE
  5
389
100
AcDbEntity
100
AcDbCircle
  8
NeoMagnets
 62
256
370
-1
  6
ByLayer
 10
1492.2644449055619589
 20
292.7488277165850263
 30
0.0
 40
2.0
  0
CIRCLE
  5
38A
100
AcDbEntity
100
AcDbCircle
  8
NeoMagnets
 62
256
370
-1
  6
ByLayer
 10
1492.2644449055619589
 20
292.7488277165850263
 30
0.0
 40
2.0
  0
CIRCLE
  5
38B
100
AcDbEntity
100
AcDbCircle
  8
NeoMagnets
 62
256
370
-1
  6
ByLayer
 10
1492.2644449055619589
 20
292.7488277165850263
 30
0.0
 40
2.0
  0
CIRCLE
  5
38C
100
AcDbEntity
100
AcDbCircle
  8
NeoMagnets
 62
256
370
-1
  6
ByLayer
 10
1490.143564614043953
 20
280.4702404389071262
 30
0.0
 40
2.0
  0
CIRCLE
  5
38D
100
AcDbEntity
100
AcDbCircle
  8
NeoMagnets
 62
256
370
-1
  6
ByLayer
 10
1490.143564614043953
 20
280.4702404389071262
 30
0.0
 40
2.0
  0
CIRCLE
  5
38E
100
AcDbEntity
100
AcDbCircle
  8
NeoMagnets
 62
256
370
-1
  6
ByLayer
 10
1490.143564614043953
 20
280.4702404389071262
 30
0.0
 40
2.0
  0
CIRCLE
  5
38F
100
AcDbEntity
100
AcDbCircle
  8
NeoMagnets
 62
256
370
-1
  6
ByLayer
 10
1490.143564614043953
 20
280.4702404389071262
 30
0.0
 40
2.0
  0
CIRCLE
  5
390
100
AcDbEntity
100
AcDbCircle
  8
NeoMagnets
 62
256
370
-1
  6
ByLayer
 10
1490.143564614043953
 20
280.4702404389071262
 30
0.0
 40
2.0
  0
LINE
  5
391
100
AcDbEntity
100
AcDbLine
  8
Dividers
 62
256
370
-1
  6
ByLayer
 10
1490.0
 20
330.0
 30
0.0
 11
1500.0
 21
330.0
 31
0.0
  0
LINE
  5
392
100
AcDbEntity
100
AcDbLine
  8
Dividers
 62
256
370
-1
  6
ByLayer
 10
1489.701534335358474
 20
317.787557551096711
 30
0.0
 11
1499.689595708772913
 21
317.299059853140534
 31
0.0
  0
LINE
  5
393
100
AcDbEntity
100
AcDbLine
  8
Dividers
 62
256
370
-1
  6
ByLayer
 10
1488.8068499954579238
 20
305.6042750602126148
 30
0.0
 11
1498.7591239952762407
 21
304.6284460626211512
 31
0.0
  0
LINE
  5
394
100
AcDbEntity
100
AcDbLine
  8
Dividers
 62
256
370
-1
  6
ByLayer
 10
1487.3180832407470007
 20
293.4792428593971181
 30
0.0
 11
1497.2108065703769171
 21
292.0184125737729914
 31
0.0
  0
LINE
  5
395
100
AcDbEntity
100
AcDbLine
  8
Dividers
 62
256
370
-1
  6
ByLayer
 10
1485.2387888372977613
 20
281.4414121950069898
 30
0.0
 11
1495.04834039078969
 21
279.4990686828073194
 31
0.0
  0
LINE
  5
396
100
AcDbEntity
100
AcDbLine
  8
Dividers
 62
256
370
-1
  6
ByLayer
 10
1489.701534335358474
 20
342.212442448903289
 30
0.0
 11
1499.689595708772913
 21
342.700940146859466
 31
0.0
  0
LINE
  5
397
100
AcDbEntity
100
AcDbLine
  8
Dividers
 62
256
370
-1
  6
ByLayer
 10
1488.8068499954579238
 20
354.3957249397873852
 30
0.0
 11
1498.7591239952762407
 21
355.3715539373788488
 31
0.0
  0
LINE
  5
398
100
AcDbEntity
100
AcDbLine
  8
Dividers
 62
256
370
-1
  6
ByLayer
 10
1487.3180832407470007
 20
366.5207571406028819
 30
0.0
 11
1497.2108065703769171
 21
367.9815874262270086
 31
0.0
  0
LINE
  5
399
100
AcDbEntity
100
AcDbLine
  8
Dividers
 62
256
370
-1
  6
ByLayer
 10
1485.2387888372977613
 20
378.5585878049930102
 30
0.0
 11
1495.04834039078969
 21
380.5009313171926806
 31
0.0
  0
LINE
  5
39A
100
AcDbEntity
100
AcDbLine
  8
HingeFixings
 62
256
370
-1
  6
ByLayer
 10
100.0
 20
180.0
 30
0.0
 11
100.0
 21
182.0
 31
0.0
  0
LINE
  5
39B
100
AcDbEntity
100
AcDbLine
  8
HingeFixings
 62
256
370
-1
  6
ByLayer
 10
100.0
 20
182.0
 30
0.0
 11
100.0
 21
183.0
 31
0.0
  0
LINE
  5
39C
100
AcDbEntity
100
AcDbLine
  8
HingeFixings
 62
256
370
-1
  6
ByLayer
 10
120.0
 20
200.0
 30
0.0
 11
217.0
 21
200.0
 31
0.0
  0
ENDSEC
  0
SECTION
  2
OBJECTS
  0
DICTIONARY
  5
C
100
AcDbDictionary
280
0
281
1
  3
ACAD_GROUP
350
D
  3
ACAD_LAYOUT
350
1A
  3
ACAD_MLINESTYLE
350
17
  3
ACAD_PLOTSETTINGS
350
19
  3
ACAD_PLOTSTYLENAME
350
E
  3
AcDbVariableDictionary
350
39D
  0
DICTIONARY
  5
D
100
AcDbDictionary
280
0
281
1
  0
ACDBDICTIONARYWDFLT
  5
E
100
AcDbDictionary
281
1
  3
Normal
350
F
100
AcDbDictionaryWithDefault
340
F
  0
ACDBPLACEHOLDER
  5
F
  0
DICTIONARY
  5
17
100
AcDbDictionary
280
0
281
1
  3
Standard
350
18
  0
MLINESTYLE
  5
18
100
AcDbMlineStyle
  2
STANDARD
 70
0
  3

 62
256
 51
90.0
 52
90.0
 71
2
 49
0.5
 62
256
  6
BYLAYER
 49
-0.5
 62
256
  6
BYLAYER
  0
DICTIONARY
  5
19
100
AcDbDictionary
280
0
281
1
  0
DICTIONARY
  5
1A
100
AcDbDictionary
281
1
  3
Layout1
350
1E
  3
Layout2
350
26
  3
Model
350
22
  0
LAYOUT
  5
1E
100
AcDbPlotSettings
  1

  2
C:\Program Files\AutoCAD 2002\plotters\DWF ePlot (optimized for plotting).pc3
  4

  6

 40
0.0
 41
0.0
 42
0.0
 43
0.0
 44
0.0
 45
0.0
 46
0.0
 47
0.0
 48
0.0
 49
0.0
140
0.0
141
0.0
142
1.0
143
1.0
 70
688
 72
0
 73
0
 74
5
  7

 75
16
147
1.0
148
0.0
149
0.0
100
AcDbLayout
  1
Layout1
 70
1
 71
1
 10
0.0
 20
0.0
 11
420.0
 21
297.0
 12
0.0
 22
0.0
 32
0.0
 14
100000000000000000000.0
 24
100000000000000000000.0
 34
100000000000000000000.0
 15
-100000000000000000000.0
 25
-100000000000000000000.0
 35
-100000000000000000000.0
146
0.0
 13
0.0
 23
0.0
 33
0.0
 16
1.0
 26
0.0
 36
0.0
 17
0.0
 27
1.0
 37
0.0
 76
0
330
1B
  0
LAYOUT
  5
22
100
AcDbPlotSettings
  1

  2
C:\Program Files\AutoCAD 2002\plotters\DWF ePlot (optimized for plotting).pc3
  4

  6

 40
0.0
 41
0.0
 42
0.0
 43
0.0
 44
0.0
 45
0.0
 46
0.0
 47
0.0
 48
0.0
 49
0.0
140
0.0
141
0.0
142
1.0
143
1.0
 70
1712
 72
0
 73
0
 74
0
  7

 75
0
147
1.0
148
0.0
149
0.0
100
AcDbLayout
  1
Model
 70
1
 71
0
 10
0.0
 20
0.0
 11
12.0
 21
9.0
 12
0.0
 22
0.0
 32
0.0
 14
0.0
 24
0.0
 34
0.0
 15
0.0
 25
0.0
 35
0.0
146
0.0
 13
0.0
 23
0.0
 33
0.0
 16
1.0
 26
0.0
 36
0.0
 17
0.0
 27
1.0
 37
0.0
 76
0
330
1F
  0
LAYOUT
  5
26
100
AcDbPlotSettings
  1

  2
C:\Program Files\AutoCAD 2002\plotters\DWF ePlot (optimized for plotting).pc3
  4

  6

 40
0.0
 41
0.0
 42
0.0
 43
0.0
 44
0.0
 45
0.0
 46
0.0
 47
0.0
 48
0.0
 49
0.0
140
0.0
141
0.0
142
1.0
143
1.0
 70
688
 72
0
 73
0
 74
5
  7

 75
16
147
1.0
148
0.0
149
0.0
100
AcDbLayout
  1
Layout2
 70
1
 71
2
 10
0.0
 20
0.0
 11
12.0
 21
9.0
 12
0.0
 22
0.0
 32
0.0
 14
0.0
 24
0.0
 34
0.0
 15
0.0
 25
0.0
 35
0.0
146
0.0
 13
0.0
 23
0.0
 33
0.0
 16
1.0
 26
0.0
 36
0.0
 17
0.0
 27
1.0
 37
0.0
 76
0
330
23
  0
DICTIONARY
  5
39D
100
AcDbDictionary
281
1
  3
DIMASSOC
350
39F
  3
HIDETEXT
350
39E
  0
DICTIONARYVAR
  5
39E
100
DictionaryVariables
280
0
  1
2
  0
DICTIONARYVAR
  5
39F
100
DictionaryVariables
280
0
  1
1
  0
ENDSEC
  0
EOF
