999
dxfrw 0.5.10
0
SECTION
2
HEADER
9
$ACADVER
1
AC1021
9
$HANDSEED
5
20000
9
$DWGCODEPAGE
3
ANSI_1252
9
$INSBASE
10
0
20
0
30
0
9
$EXTMIN
10
-3.125
20
-1.25
30
0
9
$EXTMAX
10
848.5
20
320
30
0
9
$LIMMIN
10
0
20
0
9
$LIMMAX
10
420
20
297
9
$ORTHOMODE
70
0
9
$LTSCALE
40
1
9
$TEXTSTYLE
7
STANDARD
9
$CLAYER
8
Dimensions
9
$DIMASZ
40
2.5
9
$DIMLFAC
40
1
9
$DIMSCALE
40
1
9
$DIMEXO
40
0.625
9
$DIMEXE
40
1.25
9
$DIMTXT
40
2.5
9
$DIMTSZ
40
0
9
$DIMAUNIT
70
0
9
$DIMADEC
70
2
9
$DIMLUNIT
70
2
9
$DIMSTYLE
2
STANDARD
9
$DIMGAP
40
0.625
9
$DIMTIH
70
0
9
$LUNITS
70
2
9
$LUPREC
70
4
9
$AUNITS
70
0
9
$AUPREC
70
2
9
$SPLINESEGS
70
8
9
$GRIDMODE
70
1
9
$SNAPSTYLE
70
0
9
$GRIDUNIT
10
0
20
0
9
$PINSBASE
10
-576.174984207
20
29.5987118669
30
0
9
$PLIMMIN
10
0
20
0
9
$PLIMMAX
10
297
20
210
9
$INSUNITS
70
4
9
$PSVPSCALE
40
1
0
ENDSEC
0
SECTION
2
CLASSES
0
ENDSEC
0
SECTION
2
TABLES
0
TABLE
2
VPORT
5
8
330
0
100
AcDbSymbolTable
70
1
0
VPORT
5
31
330
2
100
AcDbSymbolTableRecord
100
AcDbViewportTableRecord
2
*ACTIVE
70
0
10
0
20
0
11
1
21
1
12
90.23488
22
30.43328
13
0
23
0
14
10
24
10
15
10
25
10
16
0
26
0
36
1
17
0
27
0
37
0
40
64.22528
41
2.04464285714
42
50
43
0
44
0
50
0
51
0
71
0
72
100
73
1
74
3
75
0
76
1
77
0
78
0
281
0
65
1
110
0
120
0
130
0
111
1
121
0
131
0
112
0
122
1
132
0
79
0
146
0
348
10020
60
7
61
5
292
1
282
1
141
0
142
0
63
250
421
3358443
0
ENDTAB
0
TABLE
2
LTYPE
5
5
330
0
100
AcDbSymbolTable
70
4
0
LTYPE
5
14
330
5
100
AcDbSymbolTableRecord
100
AcDbLinetypeTableRecord
2
ByBlock
70
0
3

72
65
73
0
40
0
0
LTYPE
5
15
330
5
100
AcDbSymbolTableRecord
100
AcDbLinetypeTableRecord
2
ByLayer
70
0
3

72
65
73
0
40
0
0
LTYPE
5
16
330
5
100
AcDbSymbolTableRecord
100
AcDbLinetypeTableRecord
2
Continuous
70
0
3
Solid line
72
65
73
0
40
0
0
LTYPE
5
32
330
5
100
AcDbSymbolTableRecord
100
AcDbLinetypeTableRecord
2
DOT
70
0
3
Dot . . . . . . . . . . . . . . . . . . . . . .
72
65
73
2
40
6.35
49
0
74
0
49
-6.35
74
0
0
LTYPE
5
33
330
5
100
AcDbSymbolTableRecord
100
AcDbLinetypeTableRecord
2
DOT2
70
0
3
Dot (.5x) .....................................
72
65
73
2
40
3.175
49
0
74
0
49
-3.175
74
0
0
LTYPE
5
34
330
5
100
AcDbSymbolTableRecord
100
AcDbLinetypeTableRecord
2
DOTX2
70
0
3
Dot (2x) .  .  .  .  .  .  .  .  .  .  .  .  .
72
65
73
2
40
12.7
49
0
74
0
49
-12.7
74
0
0
LTYPE
5
35
330
5
100
AcDbSymbolTableRecord
100
AcDbLinetypeTableRecord
2
DASHED
70
0
3
Dot . . . . . . . . . . . . . . . . . . . . . .
72
65
73
2
40
19.05
49
12.7
74
0
49
-6.35
74
0
0
LTYPE
5
36
330
5
100
AcDbSymbolTableRecord
100
AcDbLinetypeTableRecord
2
DASHED2
70
0
3
Dashed (.5x) _ _ _ _ _ _ _ _ _ _ _ _ _ _ _ _ _
72
65
73
2
40
9.525
49
6.35
74
0
49
-3.175
74
0
0
LTYPE
5
37
330
5
100
AcDbSymbolTableRecord
100
AcDbLinetypeTableRecord
2
DASHEDX2
70
0
3
Dashed (2x) ____  ____  ____  ____  ____  ___
72
65
73
2
40
38.1
49
25.4
74
0
49
-12.7
74
0
0
LTYPE
5
38
330
5
100
AcDbSymbolTableRecord
100
AcDbLinetypeTableRecord
2
DASHDOT
70
0
3
Dash dot __ . __ . __ . __ . __ . __ . __ . __
72
65
73
4
40
25.4
49
12.7
74
0
49
-6.35
74
0
49
0
74
0
49
-6.35
74
0
0
LTYPE
5
39
330
5
100
AcDbSymbolTableRecord
100
AcDbLinetypeTableRecord
2
DASHDOT2
70
0
3
Dash dot (.5x) _._._._._._._._._._._._._._._.
72
65
73
4
40
12.7
49
6.35
74
0
49
-3.175
74
0
49
0
74
0
49
-3.175
74
0
0
LTYPE
5
3A
330
5
100
AcDbSymbolTableRecord
100
AcDbLinetypeTableRecord
2
DASHDOTX2
70
0
3
Dash dot (2x) ____  .  ____  .  ____  .  ___
72
65
73
4
40
50.8
49
25.4
74
0
49
-12.7
74
0
49
0
74
0
49
-12.7
74
0
0
LTYPE
5
3B
330
5
100
AcDbSymbolTableRecord
100
AcDbLinetypeTableRecord
2
DIVIDE
70
0
3
Divide ____ . . ____ . . ____ . . ____ . . ____
72
65
73
6
40
31.75
49
12.7
74
0
49
-6.35
74
0
49
0
74
0
49
-6.35
74
0
49
0
74
0
49
-6.35
74
0
0
LTYPE
5
3C
330
5
100
AcDbSymbolTableRecord
100
AcDbLinetypeTableRecord
2
DIVIDE2
70
0
3
Divide (.5x) __..__..__..__..__..__..__..__.._
72
65
73
6
40
15.875
49
6.35
74
0
49
-3.175
74
0
49
0
74
0
49
-3.175
74
0
49
0
74
0
49
-3.175
74
0
0
LTYPE
5
3D
330
5
100
AcDbSymbolTableRecord
100
AcDbLinetypeTableRecord
2
DIVIDEX2
70
0
3
Divide (2x) ________  .  .  ________  .  .  _
72
65
73
6
40
63.5
49
25.4
74
0
49
-12.7
74
0
49
0
74
0
49
-12.7
74
0
49
0
74
0
49
-12.7
74
0
0
LTYPE
5
3E
330
5
100
AcDbSymbolTableRecord
100
AcDbLinetypeTableRecord
2
BORDER
70
0
3
Border __ __ . __ __ . __ __ . __ __ . __ __ .
72
65
73
6
40
44.45
49
12.7
74
0
49
-6.35
74
0
49
12.7
74
0
49
-6.35
74
0
49
0
74
0
49
-6.35
74
0
0
LTYPE
5
3F
330
5
100
AcDbSymbolTableRecord
100
AcDbLinetypeTableRecord
2
BORDER2
70
0
3
Border (.5x) __.__.__.__.__.__.__.__.__.__.__.
72
65
73
6
40
22.225
49
6.35
74
0
49
-3.175
74
0
49
6.35
74
0
49
-3.175
74
0
49
0
74
0
49
-3.175
74
0
0
LTYPE
5
40
330
5
100
AcDbSymbolTableRecord
100
AcDbLinetypeTableRecord
2
BORDERX2
70
0
3
Border (2x) ____  ____  .  ____  ____  .  ___
72
65
73
6
40
88.9
49
25.4
74
0
49
-12.7
74
0
49
25.4
74
0
49
-12.7
74
0
49
0
74
0
49
-12.7
74
0
0
LTYPE
5
41
330
5
100
AcDbSymbolTableRecord
100
AcDbLinetypeTableRecord
2
CENTER
70
0
3
Center ____ _ ____ _ ____ _ ____ _ ____ _ ____
72
65
73
4
40
50.8
49
31.75
74
0
49
-6.35
74
0
49
6.35
74
0
49
-6.35
74
0
0
LTYPE
5
42
330
5
100
AcDbSymbolTableRecord
100
AcDbLinetypeTableRecord
2
CENTER2
70
0
3
Center (.5x) ___ _ ___ _ ___ _ ___ _ ___ _ ___
72
65
73
4
40
28.575
49
19.05
74
0
49
-3.175
74
0
49
3.175
74
0
49
-3.175
74
0
0
LTYPE
5
43
330
5
100
AcDbSymbolTableRecord
100
AcDbLinetypeTableRecord
2
CENTERX2
70
0
3
Center (2x) ________  __  ________  __  _____
72
65
73
4
40
101.6
49
63.5
74
0
49
-12.7
74
0
49
12.7
74
0
49
-12.7
74
0
0
ENDTAB
0
TABLE
2
LAYER
5
2
330
0
100
AcDbSymbolTable
70
1
0
LAYER
5
10
330
2
100
AcDbSymbolTableRecord
100
AcDbLayerTableRecord
2
0
70
4
62
7
6
CONTINUOUS
370
0
390
F
0
LAYER
5
44
330
2
100
AcDbSymbolTableRecord
100
AcDbLayerTableRecord
2
Shank
70
4
62
7
6
CONTINUOUS
370
25
390
F
0
LAYER
5
45
330
2
100
AcDbSymbolTableRecord
100
AcDbLayerTableRecord
2
KnurlingWheel
70
4
62
7
6
CONTINUOUS
370
25
390
F
0
LAYER
5
46
330
2
100
AcDbSymbolTableRecord
100
AcDbLayerTableRecord
2
Sides
70
4
62
7
6
CONTINUOUS
370
25
390
F
0
LAYER
5
47
330
2
100
AcDbSymbolTableRecord
100
AcDbLayerTableRecord
2
Dowels
70
4
62
7
6
CONTINUOUS
370
25
390
F
0
LAYER
5
48
330
2
100
AcDbSymbolTableRecord
100
AcDbLayerTableRecord
2
Lever
70
4
62
7
6
CONTINUOUS
370
25
390
F
0
LAYER
5
49
330
2
100
AcDbSymbolTableRecord
100
AcDbLayerTableRecord
2
Fastners
70
4
62
7
6
CONTINUOUS
370
25
390
F
0
LAYER
5
4A
330
2
100
AcDbSymbolTableRecord
100
AcDbLayerTableRecord
2
Dimensions
70
5
62
7
6
CONTINUOUS
370
25
390
F
0
ENDTAB
0
TABLE
2
STYLE
5
3
330
0
100
AcDbSymbolTable
70
3
0
STYLE
5
4B
330
2
100
AcDbSymbolTableRecord
100
AcDbTextStyleTableRecord
2
Standard
70
0
40
0
41
1
50
0
71
0
42
1
3
txt
4

0
ENDTAB
0
TABLE
2
VIEW
5
6
330
0
100
AcDbSymbolTable
70
0
0
ENDTAB
0
TABLE
2
UCS
5
7
330
0
100
AcDbSymbolTable
70
0
0
ENDTAB
0
TABLE
2
APPID
5
9
330
0
100
AcDbSymbolTable
70
1
0
APPID
5
12
330
9
100
AcDbSymbolTableRecord
100
AcDbRegAppTableRecord
2
ACAD
70
0
0
ENDTAB
0
TABLE
2
DIMSTYLE
5
A
330
0
100
AcDbSymbolTable
70
1
100
AcDbDimStyleTable
71
1
0
DIMSTYLE
105
4C
330
A
100
AcDbSymbolTableRecord
100
AcDbDimStyleTableRecord
2
Standard
70
0
40
1
41
2.5
42
0.625
43
0.38
44
1.25
45
0
46
0
47
0
48
0
140
2.5
141
0.09
142
0
143
25.4
144
1
145
0
146
1
147
0.625
148
0
71
0
72
0
73
0
74
1
75
0
76
0
77
0
78
0
79
0
170
0
171
2
172
0
173
0
174
0
175
0
176
0
177
0
178
0
179
0
271
4
272
4
273
2
274
2
275
0
276
0
277
2
278
46
279
0
280
0
281
0
282
0
283
1
284
0
285
0
286
0
288
0
289
3
340
Standard
341

371
-2
372
-2
0
ENDTAB
0
TABLE
2
BLOCK_RECORD
5
1
330
0
100
AcDbSymbolTable
70
2
0
BLOCK_RECORD
5
1F
330
1
100
AcDbSymbolTableRecord
100
AcDbBlockTableRecord
2
*Model_Space
70
0
280
1
281
0
0
BLOCK_RECORD
5
1E
330
1
100
AcDbSymbolTableRecord
100
AcDbBlockTableRecord
2
*Paper_Space
70
0
280
1
281
0
0
BLOCK_RECORD
5
4D
330
1
100
AcDbSymbolTableRecord
100
AcDbBlockTableRecord
2
*D14
70
0
280
1
281
0
0
BLOCK_RECORD
5
50
330
1
100
AcDbSymbolTableRecord
100
AcDbBlockTableRecord
2
*D11
70
0
280
1
281
0
0
BLOCK_RECORD
5
53
330
1
100
AcDbSymbolTableRecord
100
AcDbBlockTableRecord
2
*D31
70
0
280
1
281
0
0
BLOCK_RECORD
5
56
330
1
100
AcDbSymbolTableRecord
100
AcDbBlockTableRecord
2
*D32
70
0
280
1
281
0
0
BLOCK_RECORD
5
59
330
1
100
AcDbSymbolTableRecord
100
AcDbBlockTableRecord
2
*D7
70
0
280
1
281
0
0
BLOCK_RECORD
5
5C
330
1
100
AcDbSymbolTableRecord
100
AcDbBlockTableRecord
2
*D27
70
0
280
1
281
0
0
BLOCK_RECORD
5
5F
330
1
100
AcDbSymbolTableRecord
100
AcDbBlockTableRecord
2
*D33
70
0
280
1
281
0
0
BLOCK_RECORD
5
62
330
1
100
AcDbSymbolTableRecord
100
AcDbBlockTableRecord
2
*D19
70
0
280
1
281
0
0
BLOCK_RECORD
5
65
330
1
100
AcDbSymbolTableRecord
100
AcDbBlockTableRecord
2
*D21
70
0
280
1
281
0
0
BLOCK_RECORD
5
68
330
1
100
AcDbSymbolTableRecord
100
AcDbBlockTableRecord
2
*D23
70
0
280
1
281
0
0
BLOCK_RECORD
5
6B
330
1
100
AcDbSymbolTableRecord
100
AcDbBlockTableRecord
2
*D24
70
0
280
1
281
0
0
BLOCK_RECORD
5
6E
330
1
100
AcDbSymbolTableRecord
100
AcDbBlockTableRecord
2
*D26
70
0
280
1
281
0
0
BLOCK_RECORD
5
71
330
1
100
AcDbSymbolTableRecord
100
AcDbBlockTableRecord
2
*D9
70
0
280
1
281
0
0
BLOCK_RECORD
5
74
330
1
100
AcDbSymbolTableRecord
100
AcDbBlockTableRecord
2
*D16
70
0
280
1
281
0
0
BLOCK_RECORD
5
77
330
1
100
AcDbSymbolTableRecord
100
AcDbBlockTableRecord
2
*D18
70
0
280
1
281
0
0
BLOCK_RECORD
5
7A
330
1
100
AcDbSymbolTableRecord
100
AcDbBlockTableRecord
2
*D3
70
0
280
1
281
0
0
BLOCK_RECORD
5
7D
330
1
100
AcDbSymbolTableRecord
100
AcDbBlockTableRecord
2
*D12
70
0
280
1
281
0
0
BLOCK_RECORD
5
80
330
1
100
AcDbSymbolTableRecord
100
AcDbBlockTableRecord
2
*D22
70
0
280
1
281
0
0
BLOCK_RECORD
5
83
330
1
100
AcDbSymbolTableRecord
100
AcDbBlockTableRecord
2
*D15
70
0
280
1
281
0
0
BLOCK_RECORD
5
86
330
1
100
AcDbSymbolTableRecord
100
AcDbBlockTableRecord
2
*D13
70
0
280
1
281
0
0
BLOCK_RECORD
5
89
330
1
100
AcDbSymbolTableRecord
100
AcDbBlockTableRecord
2
*D1
70
0
280
1
281
0
0
BLOCK_RECORD
5
8C
330
1
100
AcDbSymbolTableRecord
100
AcDbBlockTableRecord
2
*D2
70
0
280
1
281
0
0
BLOCK_RECORD
5
8F
330
1
100
AcDbSymbolTableRecord
100
AcDbBlockTableRecord
2
*D30
70
0
280
1
281
0
0
BLOCK_RECORD
5
92
330
1
100
AcDbSymbolTableRecord
100
AcDbBlockTableRecord
2
*D5
70
0
280
1
281
0
0
BLOCK_RECORD
5
95
330
1
100
AcDbSymbolTableRecord
100
AcDbBlockTableRecord
2
*D8
70
0
280
1
281
0
0
BLOCK_RECORD
5
98
330
1
100
AcDbSymbolTableRecord
100
AcDbBlockTableRecord
2
*D28
70
0
280
1
281
0
0
BLOCK_RECORD
5
9B
330
1
100
AcDbSymbolTableRecord
100
AcDbBlockTableRecord
2
*D17
70
0
280
1
281
0
0
BLOCK_RECORD
5
9E
330
1
100
AcDbSymbolTableRecord
100
AcDbBlockTableRecord
2
*D4
70
0
280
1
281
0
0
BLOCK_RECORD
5
A1
330
1
100
AcDbSymbolTableRecord
100
AcDbBlockTableRecord
2
*D6
70
0
280
1
281
0
0
BLOCK_RECORD
5
A4
330
1
100
AcDbSymbolTableRecord
100
AcDbBlockTableRecord
2
*D25
70
0
280
1
281
0
0
BLOCK_RECORD
5
A7
330
1
100
AcDbSymbolTableRecord
100
AcDbBlockTableRecord
2
*D10
70
0
280
1
281
0
0
BLOCK_RECORD
5
AA
330
1
100
AcDbSymbolTableRecord
100
AcDbBlockTableRecord
2
*D20
70
0
280
1
281
0
0
BLOCK_RECORD
5
AD
330
1
100
AcDbSymbolTableRecord
100
AcDbBlockTableRecord
2
*D29
70
0
280
1
281
0
0
ENDTAB
0
ENDSEC
0
SECTION
2
BLOCKS
0
BLOCK
5
20
330
1F
100
AcDbEntity
8
0
100
AcDbBlockBegin
2
*Model_Space
70
0
10
0
20
0
30
0
3
*Model_Space
1

0
ENDBLK
5
21
330
1F
100
AcDbEntity
8
0
100
AcDbBlockEnd
0
BLOCK
5
1C
330
1B
100
AcDbEntity
8
0
100
AcDbBlockBegin
2
*Paper_Space
70
0
10
0
20
0
30
0
3
*Paper_Space
1

0
ENDBLK
5
1D
330
1F
100
AcDbEntity
8
0
100
AcDbBlockEnd
0
BLOCK
5
4E
330
4D
100
AcDbEntity
8
0
100
AcDbBlockBegin
2
*D14
70
1
10
0
20
0
3
*D14
1

0
LINE
5
B0
100
AcDbEntity
8
Dimensions
6
CONTINUOUS
62
7
370
0
100
AcDbLine
10
130
20
13
11
130
21
24
0
SOLID
5
B1
100
AcDbEntity
8
Dimensions
6
CONTINUOUS
62
7
370
0
100
AcDbTrace
10
130
20
18
30
0
11
130.416284658
21
15.5
31
0
12
129.583715342
22
15.5
32
0
13
129.583715342
23
15.5
33
0
0
SOLID
5
B2
100
AcDbEntity
8
Dimensions
6
CONTINUOUS
62
7
370
0
100
AcDbTrace
10
130
20
19
30
0
11
129.583715342
21
21.5
31
0
12
130.416284658
22
21.5
32
0
13
130.416284658
23
21.5
33
0
0
MTEXT
5
B3
100
AcDbEntity
8
Dimensions
6
CONTINUOUS
62
7
370
0
100
AcDbMText
10
128.125
20
18.5
30
0
40
2.5
41
0.555555555556
71
5
72
1
1
1
7
standard
210
0
220
0
230
1
50
90
73
2
44
1
0
LINE
5
B4
100
AcDbEntity
8
Dimensions
6
CONTINUOUS
62
7
370
0
100
AcDbLine
10
120.625
20
18
11
131.25
21
18
0
LINE
5
B5
100
AcDbEntity
8
Dimensions
6
CONTINUOUS
62
7
370
0
100
AcDbLine
10
120.625
20
19
11
131.25
21
19
0
ENDBLK
5
4F
330
4D
100
AcDbEntity
8
0
100
AcDbBlockEnd
0
BLOCK
5
51
330
50
100
AcDbEntity
8
0
100
AcDbBlockBegin
2
*D11
70
1
10
0
20
0
3
*D11
1

0
LINE
5
B6
100
AcDbEntity
8
Dimensions
6
CONTINUOUS
62
7
370
0
100
AcDbLine
10
6.12323399574e-16
20
30
11
3.74939945665e-32
21
20
0
SOLID
5
B7
100
AcDbEntity
8
Dimensions
6
CONTINUOUS
62
7
370
0
100
AcDbTrace
10
6.12323399574e-16
20
30
30
0
11
0.416284657773
21
27.5
31
0
12
-0.416284657773
22
27.5
32
0
13
-0.416284657773
23
27.5
33
0
0
SOLID
5
B8
100
AcDbEntity
8
Dimensions
6
CONTINUOUS
62
7
370
0
100
AcDbTrace
10
3.74939945665e-32
20
20
30
0
11
-0.416284657773
21
22.5
31
0
12
0.416284657773
22
22.5
32
0
13
0.416284657773
23
22.5
33
0
0
MTEXT
5
B9
100
AcDbEntity
8
Dimensions
6
CONTINUOUS
62
7
370
0
100
AcDbMText
10
-1.875
20
25
30
0
40
2.5
41
2.5
71
5
72
1
1
10
7
standard
210
0
220
0
230
1
50
90
73
2
44
1
0
LINE
5
BA
100
AcDbEntity
8
Dimensions
6
CONTINUOUS
62
7
370
0
100
AcDbLine
10
9.375
20
30
11
-1.25
21
30
0
LINE
5
BB
100
AcDbEntity
8
Dimensions
6
CONTINUOUS
62
7
370
0
100
AcDbLine
10
9.375
20
20
11
-1.25
21
20
0
ENDBLK
5
52
330
50
100
AcDbEntity
8
0
100
AcDbBlockEnd
0
BLOCK
5
54
330
53
100
AcDbEntity
8
0
100
AcDbBlockBegin
2
*D31
70
1
10
0
20
0
3
*D31
1

0
LINE
5
BC
100
AcDbEntity
8
Dimensions
6
CONTINUOUS
62
7
370
0
100
AcDbLine
10
81.3431457505
20
19.3431457505
11
92.6568542495
21
30.6568542495
0
SOLID
5
BD
100
AcDbEntity
8
Dimensions
6
CONTINUOUS
62
7
370
0
100
AcDbTrace
10
84.8786796564
20
22.8786796564
30
0
11
83.4052704079
21
20.8165549991
31
0
12
82.8165549991
22
21.4052704079
32
0
13
82.8165549991
23
21.4052704079
33
0
0
SOLID
5
BE
100
AcDbEntity
8
Dimensions
6
CONTINUOUS
62
7
370
0
100
AcDbTrace
10
89.1213203436
20
27.1213203436
30
0
11
90.5947295921
21
29.1834450009
31
0
12
91.1834450009
22
28.5947295921
32
0
13
91.1834450009
23
28.5947295921
33
0
0
MTEXT
5
BF
100
AcDbEntity
8
Dimensions
6
CONTINUOUS
62
7
370
0
100
AcDbMText
10
85.6741747853
20
26.3258252147
30
0
40
2.5
41
1.11111111111
71
5
72
1
1
6
7
standard
210
0
220
0
230
1
50
45
73
2
44
1
0
ENDBLK
5
55
330
53
100
AcDbEntity
8
0
100
AcDbBlockEnd
0
BLOCK
5
57
330
56
100
AcDbEntity
8
0
100
AcDbBlockBegin
2
*D32
70
1
10
0
20
0
3
*D32
1

0
LINE
5
C0
100
AcDbEntity
8
Dimensions
6
CONTINUOUS
62
7
370
0
100
AcDbLine
10
95.4038059223
20
14.4038059223
11
104.596194078
21
23.5961940777
0
SOLID
5
C1
100
AcDbEntity
8
Dimensions
6
CONTINUOUS
62
7
370
0
100
AcDbTrace
10
98.9393398282
20
17.9393398282
30
0
11
97.4659305797
21
15.8772151708
31
0
12
96.8772151708
22
16.4659305797
32
0
13
96.8772151708
23
16.4659305797
33
0
0
SOLID
5
C2
100
AcDbEntity
8
Dimensions
6
CONTINUOUS
62
7
370
0
100
AcDbTrace
10
101.060660172
20
20.0606601718
30
0
11
102.53406942
21
22.1227848292
31
0
12
103.122784829
22
21.5340694203
32
0
13
103.122784829
23
21.5340694203
33
0
0
MTEXT
5
C3
100
AcDbEntity
8
Dimensions
6
CONTINUOUS
62
7
370
0
100
AcDbMText
10
98.6741747853
20
20.3258252147
30
0
40
2.5
41
1.11111111111
71
5
72
1
1
3
7
standard
210
0
220
0
230
1
50
45
73
2
44
1
0
ENDBLK
5
58
330
56
100
AcDbEntity
8
0
100
AcDbBlockEnd
0
BLOCK
5
5A
330
59
100
AcDbEntity
8
0
100
AcDbBlockBegin
2
*D7
70
1
10
0
20
0
3
*D7
1

0
LINE
5
C4
100
AcDbEntity
8
Dimensions
6
CONTINUOUS
62
7
370
0
100
AcDbLine
10
90
20
6.12323399574e-16
11
105
21
-6.12323399574e-16
0
SOLID
5
C5
100
AcDbEntity
8
Dimensions
6
CONTINUOUS
62
7
370
0
100
AcDbTrace
10
95
20
0
30
0
11
92.5
21
-0.416284657773
31
0
12
92.5
22
0.416284657773
32
0
13
92.5
23
0.416284657773
33
0
0
SOLID
5
C6
100
AcDbEntity
8
Dimensions
6
CONTINUOUS
62
7
370
0
100
AcDbTrace
10
100
20
0
30
0
11
102.5
21
0.416284657773
31
0
12
102.5
22
-0.416284657773
32
0
13
102.5
23
-0.416284657773
33
0
0
MTEXT
5
C7
100
AcDbEntity
8
Dimensions
6
CONTINUOUS
62
7
370
0
100
AcDbMText
10
97.5
20
1.875
30
0
40
2.5
41
1.11111111111
71
5
72
1
1
5
7
standard
210
0
220
0
230
1
50
360
73
2
44
1
0
LINE
5
C8
100
AcDbEntity
8
Dimensions
6
CONTINUOUS
62
7
370
0
100
AcDbLine
10
95
20
9.375
11
95
21
-1.25
0
LINE
5
C9
100
AcDbEntity
8
Dimensions
6
CONTINUOUS
62
7
370
0
100
AcDbLine
10
100
20
9.375
11
100
21
-1.25
0
ENDBLK
5
5B
330
59
100
AcDbEntity
8
0
100
AcDbBlockEnd
0
BLOCK
5
5D
330
5C
100
AcDbEntity
8
0
100
AcDbBlockBegin
2
*D27
70
1
10
0
20
0
3
*D27
1

0
LINE
5
CA
100
AcDbEntity
8
Dimensions
6
CONTINUOUS
62
7
370
0
100
AcDbLine
10
330
20
25
11
330
21
40
0
SOLID
5
CB
100
AcDbEntity
8
Dimensions
6
CONTINUOUS
62
7
370
0
100
AcDbTrace
10
330
20
30
30
0
11
330.416284658
21
27.5
31
0
12
329.583715342
22
27.5
32
0
13
329.583715342
23
27.5
33
0
0
SOLID
5
CC
100
AcDbEntity
8
Dimensions
6
CONTINUOUS
62
7
370
0
100
AcDbTrace
10
330
20
35
30
0
11
329.583715342
21
37.5
31
0
12
330.416284658
22
37.5
32
0
13
330.416284658
23
37.5
33
0
0
MTEXT
5
CD
100
AcDbEntity
8
Dimensions
6
CONTINUOUS
62
7
370
0
100
AcDbMText
10
328.125
20
32.5
30
0
40
2.5
41
1.11111111111
71
5
72
1
1
5
7
standard
210
0
220
0
230
1
50
90
73
2
44
1
0
LINE
5
CE
100
AcDbEntity
8
Dimensions
6
CONTINUOUS
62
7
370
0
100
AcDbLine
10
320.625
20
30
11
331.25
21
30
0
LINE
5
CF
100
AcDbEntity
8
Dimensions
6
CONTINUOUS
62
7
370
0
100
AcDbLine
10
320.625
20
35
11
331.25
21
35
0
ENDBLK
5
5E
330
5C
100
AcDbEntity
8
0
100
AcDbBlockEnd
0
BLOCK
5
60
330
5F
100
AcDbEntity
8
0
100
AcDbBlockBegin
2
*D33
70
1
10
0
20
0
3
*D33
1

0
LINE
5
D0
100
AcDbEntity
8
Dimensions
6
CONTINUOUS
62
7
370
0
100
AcDbLine
10
103.343145751
20
19.3431457505
11
114.656854249
21
30.6568542495
0
SOLID
5
D1
100
AcDbEntity
8
Dimensions
6
CONTINUOUS
62
7
370
0
100
AcDbTrace
10
106.878679656
20
22.8786796564
30
0
11
105.405270408
21
20.8165549991
31
0
12
104.816554999
22
21.4052704079
32
0
13
104.816554999
23
21.4052704079
33
0
0
SOLID
5
D2
100
AcDbEntity
8
Dimensions
6
CONTINUOUS
62
7
370
0
100
AcDbTrace
10
111.121320344
20
27.1213203436
30
0
11
112.594729592
21
29.1834450009
31
0
12
113.183445001
22
28.5947295921
32
0
13
113.183445001
23
28.5947295921
33
0
0
MTEXT
5
D3
100
AcDbEntity
8
Dimensions
6
CONTINUOUS
62
7
370
0
100
AcDbMText
10
107.674174785
20
26.3258252147
30
0
40
2.5
41
1.11111111111
71
5
72
1
1
6
7
standard
210
0
220
0
230
1
50
45
73
2
44
1
0
ENDBLK
5
61
330
5F
100
AcDbEntity
8
0
100
AcDbBlockEnd
0
BLOCK
5
63
330
62
100
AcDbEntity
8
0
100
AcDbBlockBegin
2
*D19
70
1
10
0
20
0
3
*D19
1

0
LINE
5
D4
100
AcDbEntity
8
Dimensions
6
CONTINUOUS
62
7
370
0
100
AcDbLine
10
288
20
0
11
296
21
0
0
SOLID
5
D5
100
AcDbEntity
8
Dimensions
6
CONTINUOUS
62
7
370
0
100
AcDbTrace
10
288
20
0
30
0
11
290.5
21
0.416284657773
31
0
12
290.5
22
-0.416284657773
32
0
13
290.5
23
-0.416284657773
33
0
0
SOLID
5
D6
100
AcDbEntity
8
Dimensions
6
CONTINUOUS
62
7
370
0
100
AcDbTrace
10
296
20
0
30
0
11
293.5
21
-0.416284657773
31
0
12
293.5
22
0.416284657773
32
0
13
293.5
23
0.416284657773
33
0
0
MTEXT
5
D7
100
AcDbEntity
8
Dimensions
6
CONTINUOUS
62
7
370
0
100
AcDbMText
10
292
20
1.875
30
0
40
2.5
41
1.11111111111
71
5
72
1
1
8
7
standard
210
0
220
0
230
1
50
0
73
2
44
1
0
LINE
5
D8
100
AcDbEntity
8
Dimensions
6
CONTINUOUS
62
7
370
0
100
AcDbLine
10
288
20
9.375
11
288
21
-1.25
0
LINE
5
D9
100
AcDbEntity
8
Dimensions
6
CONTINUOUS
62
7
370
0
100
AcDbLine
10
296
20
9.375
11
296
21
-1.25
0
ENDBLK
5
64
330
62
100
AcDbEntity
8
0
100
AcDbBlockEnd
0
BLOCK
5
66
330
65
100
AcDbEntity
8
0
100
AcDbBlockBegin
2
*D21
70
1
10
0
20
0
3
*D21
1

0
LINE
5
DA
100
AcDbEntity
8
Dimensions
6
CONTINUOUS
62
7
370
0
100
AcDbLine
10
292
20
6.12323399574e-16
11
305
21
-6.12323399574e-16
0
SOLID
5
DB
100
AcDbEntity
8
Dimensions
6
CONTINUOUS
62
7
370
0
100
AcDbTrace
10
297
20
0
30
0
11
294.5
21
-0.416284657773
31
0
12
294.5
22
0.416284657773
32
0
13
294.5
23
0.416284657773
33
0
0
SOLID
5
DC
100
AcDbEntity
8
Dimensions
6
CONTINUOUS
62
7
370
0
100
AcDbTrace
10
300
20
0
30
0
11
302.5
21
0.416284657773
31
0
12
302.5
22
-0.416284657773
32
0
13
302.5
23
-0.416284657773
33
0
0
MTEXT
5
DD
100
AcDbEntity
8
Dimensions
6
CONTINUOUS
62
7
370
0
100
AcDbMText
10
298.5
20
1.875
30
0
40
2.5
41
1.11111111111
71
5
72
1
1
3
7
standard
210
0
220
0
230
1
50
360
73
2
44
1
0
LINE
5
DE
100
AcDbEntity
8
Dimensions
6
CONTINUOUS
62
7
370
0
100
AcDbLine
10
297
20
9.375
11
297
21
-1.25
0
LINE
5
DF
100
AcDbEntity
8
Dimensions
6
CONTINUOUS
62
7
370
0
100
AcDbLine
10
300
20
9.375
11
300
21
-1.25
0
ENDBLK
5
67
330
65
100
AcDbEntity
8
0
100
AcDbBlockEnd
0
BLOCK
5
69
330
68
100
AcDbEntity
8
0
100
AcDbBlockBegin
2
*D23
70
1
10
0
20
0
3
*D23
1

0
LINE
5
E0
100
AcDbEntity
8
Dimensions
6
CONTINUOUS
62
7
370
0
100
AcDbLine
10
330
20
6
11
330
21
18
0
SOLID
5
E1
100
AcDbEntity
8
Dimensions
6
CONTINUOUS
62
7
370
0
100
AcDbTrace
10
330
20
11
30
0
11
330.416284658
21
8.5
31
0
12
329.583715342
22
8.5
32
0
13
329.583715342
23
8.5
33
0
0
SOLID
5
E2
100
AcDbEntity
8
Dimensions
6
CONTINUOUS
62
7
370
0
100
AcDbTrace
10
330
20
13
30
0
11
329.583715342
21
15.5
31
0
12
330.416284658
22
15.5
32
0
13
330.416284658
23
15.5
33
0
0
MTEXT
5
E3
100
AcDbEntity
8
Dimensions
6
CONTINUOUS
62
7
370
0
100
AcDbMText
10
328.125
20
12
30
0
40
2.5
41
1.11111111111
71
5
72
1
1
2
7
standard
210
0
220
0
230
1
50
90
73
2
44
1
0
LINE
5
E4
100
AcDbEntity
8
Dimensions
6
CONTINUOUS
62
7
370
0
100
AcDbLine
10
320.625
20
11
11
331.25
21
11
0
LINE
5
E5
100
AcDbEntity
8
Dimensions
6
CONTINUOUS
62
7
370
0
100
AcDbLine
10
320.625
20
13
11
331.25
21
13
0
ENDBLK
5
6A
330
68
100
AcDbEntity
8
0
100
AcDbBlockEnd
0
BLOCK
5
6C
330
6B
100
AcDbEntity
8
0
100
AcDbBlockBegin
2
*D24
70
1
10
0
20
0
3
*D24
1

0
LINE
5
E6
100
AcDbEntity
8
Dimensions
6
CONTINUOUS
62
7
370
0
100
AcDbLine
10
330
20
8
11
330
21
20
0
SOLID
5
E7
100
AcDbEntity
8
Dimensions
6
CONTINUOUS
62
7
370
0
100
AcDbTrace
10
330
20
13
30
0
11
330.416284658
21
10.5
31
0
12
329.583715342
22
10.5
32
0
13
329.583715342
23
10.5
33
0
0
SOLID
5
E8
100
AcDbEntity
8
Dimensions
6
CONTINUOUS
62
7
370
0
100
AcDbTrace
10
330
20
15
30
0
11
329.583715342
21
17.5
31
0
12
330.416284658
22
17.5
32
0
13
330.416284658
23
17.5
33
0
0
MTEXT
5
E9
100
AcDbEntity
8
Dimensions
6
CONTINUOUS
62
7
370
0
100
AcDbMText
10
328.125
20
14
30
0
40
2.5
41
1.11111111111
71
5
72
1
1
2
7
standard
210
0
220
0
230
1
50
90
73
2
44
1
0
LINE
5
EA
100
AcDbEntity
8
Dimensions
6
CONTINUOUS
62
7
370
0
100
AcDbLine
10
320.625
20
13
11
331.25
21
13
0
LINE
5
EB
100
AcDbEntity
8
Dimensions
6
CONTINUOUS
62
7
370
0
100
AcDbLine
10
320.625
20
15
11
331.25
21
15
0
ENDBLK
5
6D
330
6B
100
AcDbEntity
8
0
100
AcDbBlockEnd
0
BLOCK
5
6F
330
6E
100
AcDbEntity
8
0
100
AcDbBlockBegin
2
*D26
70
1
10
0
20
0
3
*D26
1

0
LINE
5
EC
100
AcDbEntity
8
Dimensions
6
CONTINUOUS
62
7
370
0
100
AcDbLine
10
330
20
20
11
330
21
30
0
SOLID
5
ED
100
AcDbEntity
8
Dimensions
6
CONTINUOUS
62
7
370
0
100
AcDbTrace
10
330
20
20
30
0
11
329.583715342
21
22.5
31
0
12
330.416284658
22
22.5
32
0
13
330.416284658
23
22.5
33
0
0
SOLID
5
EE
100
AcDbEntity
8
Dimensions
6
CONTINUOUS
62
7
370
0
100
AcDbTrace
10
330
20
30
30
0
11
330.416284658
21
27.5
31
0
12
329.583715342
22
27.5
32
0
13
329.583715342
23
27.5
33
0
0
MTEXT
5
EF
100
AcDbEntity
8
Dimensions
6
CONTINUOUS
62
7
370
0
100
AcDbMText
10
328.125
20
25
30
0
40
2.5
41
2.5
71
5
72
1
1
10
7
standard
210
0
220
0
230
1
50
90
73
2
44
1
0
LINE
5
F0
100
AcDbEntity
8
Dimensions
6
CONTINUOUS
62
7
370
0
100
AcDbLine
10
320.625
20
20
11
331.25
21
20
0
LINE
5
F1
100
AcDbEntity
8
Dimensions
6
CONTINUOUS
62
7
370
0
100
AcDbLine
10
320.625
20
30
11
331.25
21
30
0
ENDBLK
5
70
330
6E
100
AcDbEntity
8
0
100
AcDbBlockEnd
0
BLOCK
5
72
330
71
100
AcDbEntity
8
0
100
AcDbBlockBegin
2
*D9
70
1
10
0
20
0
3
*D9
1

0
LINE
5
F2
100
AcDbEntity
8
Dimensions
6
CONTINUOUS
62
7
370
0
100
AcDbLine
10
104
20
6.12323399574e-16
11
120
21
-6.12323399574e-16
0
SOLID
5
F3
100
AcDbEntity
8
Dimensions
6
CONTINUOUS
62
7
370
0
100
AcDbTrace
10
109
20
0
30
0
11
106.5
21
-0.416284657773
31
0
12
106.5
22
0.416284657773
32
0
13
106.5
23
0.416284657773
33
0
0
SOLID
5
F4
100
AcDbEntity
8
Dimensions
6
CONTINUOUS
62
7
370
0
100
AcDbTrace
10
115
20
0
30
0
11
117.5
21
0.416284657773
31
0
12
117.5
22
-0.416284657773
32
0
13
117.5
23
-0.416284657773
33
0
0
MTEXT
5
F5
100
AcDbEntity
8
Dimensions
6
CONTINUOUS
62
7
370
0
100
AcDbMText
10
112
20
1.875
30
0
40
2.5
41
1.11111111111
71
5
72
1
1
6
7
standard
210
0
220
0
230
1
50
360
73
2
44
1
0
LINE
5
F6
100
AcDbEntity
8
Dimensions
6
CONTINUOUS
62
7
370
0
100
AcDbLine
10
109
20
9.375
11
109
21
-1.25
0
LINE
5
F7
100
AcDbEntity
8
Dimensions
6
CONTINUOUS
62
7
370
0
100
AcDbLine
10
115
20
9.375
11
115
21
-1.25
0
ENDBLK
5
73
330
71
100
AcDbEntity
8
0
100
AcDbBlockEnd
0
BLOCK
5
75
330
74
100
AcDbEntity
8
0
100
AcDbBlockBegin
2
*D16
70
1
10
0
20
0
3
*D16
1

0
LINE
5
F8
100
AcDbEntity
8
Dimensions
6
CONTINUOUS
62
7
370
0
100
AcDbLine
10
130
20
25
11
130
21
32
0
SOLID
5
F9
100
AcDbEntity
8
Dimensions
6
CONTINUOUS
62
7
370
0
100
AcDbTrace
10
130
20
25
30
0
11
129.583715342
21
27.5
31
0
12
130.416284658
22
27.5
32
0
13
130.416284658
23
27.5
33
0
0
SOLID
5
FA
100
AcDbEntity
8
Dimensions
6
CONTINUOUS
62
7
370
0
100
AcDbTrace
10
130
20
32
30
0
11
130.416284658
21
29.5
31
0
12
129.583715342
22
29.5
32
0
13
129.583715342
23
29.5
33
0
0
MTEXT
5
FB
100
AcDbEntity
8
Dimensions
6
CONTINUOUS
62
7
370
0
100
AcDbMText
10
128.125
20
28.5
30
0
40
2.5
41
1.11111111111
71
5
72
1
1
7
7
standard
210
0
220
0
230
1
50
90
73
2
44
1
0
LINE
5
FC
100
AcDbEntity
8
Dimensions
6
CONTINUOUS
62
7
370
0
100
AcDbLine
10
120.625
20
25
11
131.25
21
25
0
LINE
5
FD
100
AcDbEntity
8
Dimensions
6
CONTINUOUS
62
7
370
0
100
AcDbLine
10
120.625
20
32
11
131.25
21
32
0
ENDBLK
5
76
330
74
100
AcDbEntity
8
0
100
AcDbBlockEnd
0
BLOCK
5
78
330
77
100
AcDbEntity
8
0
100
AcDbBlockBegin
2
*D18
70
1
10
0
20
0
3
*D18
1

0
SOLID
5
FE
100
AcDbEntity
8
Dimensions
6
CONTINUOUS
62
7
370
0
100
AcDbTrace
10
61.4644660941
20
38.5355339059
30
0
11
59.4023414367
21
40.0089431545
31
0
12
59.9910568455
22
40.5976585633
32
0
13
59.9910568455
23
40.5976585633
33
0
0
LINE
5
FF
100
AcDbEntity
8
Dimensions
6
CONTINUOUS
62
7
370
0
100
AcDbLine
10
65
20
35
11
57.1432579868
21
42.8567420132
0
MTEXT
5
100
100
AcDbEntity
8
Dimensions
6
CONTINUOUS
62
7
370
0
100
AcDbMText
10
60.6296872552
20
42.0219631743
30
0
40
2.5
41
1.11111111111
71
5
72
1
1
5
7
standard
210
0
220
0
230
1
50
315
73
2
44
1
0
ENDBLK
5
79
330
77
100
AcDbEntity
8
0
100
AcDbBlockEnd
0
BLOCK
5
7B
330
7A
100
AcDbEntity
8
0
100
AcDbBlockBegin
2
*D3
70
1
10
0
20
0
3
*D3
1

0
LINE
5
101
100
AcDbEntity
8
Dimensions
6
CONTINUOUS
62
7
370
0
100
AcDbLine
10
70
20
0
11
77
21
0
0
SOLID
5
102
100
AcDbEntity
8
Dimensions
6
CONTINUOUS
62
7
370
0
100
AcDbTrace
10
70
20
0
30
0
11
72.5
21
0.416284657773
31
0
12
72.5
22
-0.416284657773
32
0
13
72.5
23
-0.416284657773
33
0
0
SOLID
5
103
100
AcDbEntity
8
Dimensions
6
CONTINUOUS
62
7
370
0
100
AcDbTrace
10
77
20
0
30
0
11
74.5
21
-0.416284657773
31
0
12
74.5
22
0.416284657773
32
0
13
74.5
23
0.416284657773
33
0
0
MTEXT
5
104
100
AcDbEntity
8
Dimensions
6
CONTINUOUS
62
7
370
0
100
AcDbMText
10
73.5
20
1.875
30
0
40
2.5
41
1.11111111111
71
5
72
1
1
7
7
standard
210
0
220
0
230
1
50
0
73
2
44
1
0
LINE
5
105
100
AcDbEntity
8
Dimensions
6
CONTINUOUS
62
7
370
0
100
AcDbLine
10
70
20
9.375
11
70
21
-1.25
0
LINE
5
106
100
AcDbEntity
8
Dimensions
6
CONTINUOUS
62
7
370
0
100
AcDbLine
10
77
20
9.375
11
77
21
-1.25
0
ENDBLK
5
7C
330
7A
100
AcDbEntity
8
0
100
AcDbBlockEnd
0
BLOCK
5
7E
330
7D
100
AcDbEntity
8
0
100
AcDbBlockBegin
2
*D12
70
1
10
0
20
0
3
*D12
1

0
LINE
5
107
100
AcDbEntity
8
Dimensions
6
CONTINUOUS
62
7
370
0
100
AcDbLine
10
6.73555739531e-16
20
25
11
-3.06161699787e-16
21
9
0
SOLID
5
108
100
AcDbEntity
8
Dimensions
6
CONTINUOUS
62
7
370
0
100
AcDbTrace
10
3.67394039744e-16
20
20
30
0
11
-0.416284657773
21
22.5
31
0
12
0.416284657773
22
22.5
32
0
13
0.416284657773
23
22.5
33
0
0
SOLID
5
109
100
AcDbEntity
8
Dimensions
6
CONTINUOUS
62
7
370
0
100
AcDbTrace
10
-7.12764913092e-32
20
14
30
0
11
0.416284657773
21
11.5
31
0
12
-0.416284657773
22
11.5
32
0
13
-0.416284657773
23
11.5
33
0
0
MTEXT
5
10A
100
AcDbEntity
8
Dimensions
6
CONTINUOUS
62
7
370
0
100
AcDbMText
10
-1.875
20
17
30
0
40
2.5
41
1.11111111111
71
5
72
1
1
6
7
standard
210
0
220
0
230
1
50
90
73
2
44
1
0
LINE
5
10B
100
AcDbEntity
8
Dimensions
6
CONTINUOUS
62
7
370
0
100
AcDbLine
10
9.375
20
20
11
-1.25
21
20
0
LINE
5
10C
100
AcDbEntity
8
Dimensions
6
CONTINUOUS
62
7
370
0
100
AcDbLine
10
9.375
20
14
11
-1.25
21
14
0
ENDBLK
5
7F
330
7D
100
AcDbEntity
8
0
100
AcDbBlockEnd
0
BLOCK
5
81
330
80
100
AcDbEntity
8
0
100
AcDbBlockBegin
2
*D22
70
1
10
0
20
0
3
*D22
1

0
LINE
5
10D
100
AcDbEntity
8
Dimensions
6
CONTINUOUS
62
7
370
0
100
AcDbLine
10
295
20
6.12323399574e-16
11
311
21
-6.12323399574e-16
0
SOLID
5
10E
100
AcDbEntity
8
Dimensions
6
CONTINUOUS
62
7
370
0
100
AcDbTrace
10
300
20
0
30
0
11
297.5
21
-0.416284657773
31
0
12
297.5
22
0.416284657773
32
0
13
297.5
23
0.416284657773
33
0
0
SOLID
5
10F
100
AcDbEntity
8
Dimensions
6
CONTINUOUS
62
7
370
0
100
AcDbTrace
10
306
20
0
30
0
11
308.5
21
0.416284657773
31
0
12
308.5
22
-0.416284657773
32
0
13
308.5
23
-0.416284657773
33
0
0
MTEXT
5
110
100
AcDbEntity
8
Dimensions
6
CONTINUOUS
62
7
370
0
100
AcDbMText
10
303
20
1.875
30
0
40
2.5
41
1.11111111111
71
5
72
1
1
6
7
standard
210
0
220
0
230
1
50
360
73
2
44
1
0
LINE
5
111
100
AcDbEntity
8
Dimensions
6
CONTINUOUS
62
7
370
0
100
AcDbLine
10
300
20
9.375
11
300
21
-1.25
0
LINE
5
112
100
AcDbEntity
8
Dimensions
6
CONTINUOUS
62
7
370
0
100
AcDbLine
10
306
20
9.375
11
306
21
-1.25
0
ENDBLK
5
82
330
80
100
AcDbEntity
8
0
100
AcDbBlockEnd
0
BLOCK
5
84
330
83
100
AcDbEntity
8
0
100
AcDbBlockBegin
2
*D15
70
1
10
0
20
0
3
*D15
1

0
LINE
5
113
100
AcDbEntity
8
Dimensions
6
CONTINUOUS
62
7
370
0
100
AcDbLine
10
130
20
14
11
130
21
30
0
SOLID
5
114
100
AcDbEntity
8
Dimensions
6
CONTINUOUS
62
7
370
0
100
AcDbTrace
10
130
20
19
30
0
11
130.416284658
21
16.5
31
0
12
129.583715342
22
16.5
32
0
13
129.583715342
23
16.5
33
0
0
SOLID
5
115
100
AcDbEntity
8
Dimensions
6
CONTINUOUS
62
7
370
0
100
AcDbTrace
10
130
20
25
30
0
11
129.583715342
21
27.5
31
0
12
130.416284658
22
27.5
32
0
13
130.416284658
23
27.5
33
0
0
MTEXT
5
116
100
AcDbEntity
8
Dimensions
6
CONTINUOUS
62
7
370
0
100
AcDbMText
10
128.125
20
22
30
0
40
2.5
41
1.11111111111
71
5
72
1
1
6
7
standard
210
0
220
0
230
1
50
90
73
2
44
1
0
LINE
5
117
100
AcDbEntity
8
Dimensions
6
CONTINUOUS
62
7
370
0
100
AcDbLine
10
120.625
20
19
11
131.25
21
19
0
LINE
5
118
100
AcDbEntity
8
Dimensions
6
CONTINUOUS
62
7
370
0
100
AcDbLine
10
120.625
20
25
11
131.25
21
25
0
ENDBLK
5
85
330
83
100
AcDbEntity
8
0
100
AcDbBlockEnd
0
BLOCK
5
87
330
86
100
AcDbEntity
8
0
100
AcDbBlockBegin
2
*D13
70
1
10
0
20
0
3
*D13
1

0
LINE
5
119
100
AcDbEntity
8
Dimensions
6
CONTINUOUS
62
7
370
0
100
AcDbLine
10
130
20
9
11
130
21
23
0
SOLID
5
11A
100
AcDbEntity
8
Dimensions
6
CONTINUOUS
62
7
370
0
100
AcDbTrace
10
130
20
14
30
0
11
130.416284658
21
11.5
31
0
12
129.583715342
22
11.5
32
0
13
129.583715342
23
11.5
33
0
0
SOLID
5
11B
100
AcDbEntity
8
Dimensions
6
CONTINUOUS
62
7
370
0
100
AcDbTrace
10
130
20
18
30
0
11
129.583715342
21
20.5
31
0
12
130.416284658
22
20.5
32
0
13
130.416284658
23
20.5
33
0
0
MTEXT
5
11C
100
AcDbEntity
8
Dimensions
6
CONTINUOUS
62
7
370
0
100
AcDbMText
10
128.125
20
16
30
0
40
2.5
41
1.38888888889
71
5
72
1
1
4
7
standard
210
0
220
0
230
1
50
90
73
2
44
1
0
LINE
5
11D
100
AcDbEntity
8
Dimensions
6
CONTINUOUS
62
7
370
0
100
AcDbLine
10
120.625
20
14
11
131.25
21
14
0
LINE
5
11E
100
AcDbEntity
8
Dimensions
6
CONTINUOUS
62
7
370
0
100
AcDbLine
10
120.625
20
18
11
131.25
21
18
0
ENDBLK
5
88
330
86
100
AcDbEntity
8
0
100
AcDbBlockEnd
0
BLOCK
5
8A
330
89
100
AcDbEntity
8
0
100
AcDbBlockBegin
2
*D1
70
1
10
0
20
0
3
*D1
1

0
LINE
5
11F
100
AcDbEntity
8
Dimensions
6
CONTINUOUS
62
7
370
0
100
AcDbLine
10
20
20
50
11
115
21
50
0
SOLID
5
120
100
AcDbEntity
8
Dimensions
6
CONTINUOUS
62
7
370
0
100
AcDbTrace
10
20
20
50
30
0
11
22.5
21
50.4162846578
31
0
12
22.5
22
49.5837153422
32
0
13
22.5
23
49.5837153422
33
0
0
SOLID
5
121
100
AcDbEntity
8
Dimensions
6
CONTINUOUS
62
7
370
0
100
AcDbTrace
10
115
20
50
30
0
11
112.5
21
49.5837153422
31
0
12
112.5
22
50.4162846578
32
0
13
112.5
23
50.4162846578
33
0
0
MTEXT
5
122
100
AcDbEntity
8
Dimensions
6
CONTINUOUS
62
7
370
0
100
AcDbMText
10
67.5
20
51.875
30
0
40
2.5
41
3.05555555556
71
5
72
1
1
95
7
standard
210
0
220
0
230
1
50
0
73
2
44
1
0
LINE
5
123
100
AcDbEntity
8
Dimensions
6
CONTINUOUS
62
7
370
0
100
AcDbLine
10
20
20
40.625
11
20
21
51.25
0
LINE
5
124
100
AcDbEntity
8
Dimensions
6
CONTINUOUS
62
7
370
0
100
AcDbLine
10
115
20
40.625
11
115
21
51.25
0
ENDBLK
5
8B
330
89
100
AcDbEntity
8
0
100
AcDbBlockEnd
0
BLOCK
5
8D
330
8C
100
AcDbEntity
8
0
100
AcDbBlockBegin
2
*D2
70
1
10
0
20
0
3
*D2
1

0
LINE
5
125
100
AcDbEntity
8
Dimensions
6
CONTINUOUS
62
7
370
0
100
AcDbLine
10
20
20
0
11
70
21
0
0
SOLID
5
126
100
AcDbEntity
8
Dimensions
6
CONTINUOUS
62
7
370
0
100
AcDbTrace
10
20
20
0
30
0
11
22.5
21
0.416284657773
31
0
12
22.5
22
-0.416284657773
32
0
13
22.5
23
-0.416284657773
33
0
0
SOLID
5
127
100
AcDbEntity
8
Dimensions
6
CONTINUOUS
62
7
370
0
100
AcDbTrace
10
70
20
0
30
0
11
67.5
21
-0.416284657773
31
0
12
67.5
22
0.416284657773
32
0
13
67.5
23
0.416284657773
33
0
0
MTEXT
5
128
100
AcDbEntity
8
Dimensions
6
CONTINUOUS
62
7
370
0
100
AcDbMText
10
45
20
1.875
30
0
40
2.5
41
3.05555555556
71
5
72
1
1
50
7
standard
210
0
220
0
230
1
50
0
73
2
44
1
0
LINE
5
129
100
AcDbEntity
8
Dimensions
6
CONTINUOUS
62
7
370
0
100
AcDbLine
10
20
20
9.375
11
20
21
-1.25
0
LINE
5
12A
100
AcDbEntity
8
Dimensions
6
CONTINUOUS
62
7
370
0
100
AcDbLine
10
70
20
9.375
11
70
21
-1.25
0
ENDBLK
5
8E
330
8C
100
AcDbEntity
8
0
100
AcDbBlockEnd
0
BLOCK
5
90
330
8F
100
AcDbEntity
8
0
100
AcDbBlockBegin
2
*D30
70
1
10
0
20
0
3
*D30
1

0
LINE
5
12B
100
AcDbEntity
8
Dimensions
6
CONTINUOUS
62
7
370
0
100
AcDbLine
10
77.4038059223
20
13.4038059223
11
86.5961940777
21
22.5961940777
0
SOLID
5
12C
100
AcDbEntity
8
Dimensions
6
CONTINUOUS
62
7
370
0
100
AcDbTrace
10
80.9393398282
20
16.9393398282
30
0
11
79.4659305797
21
14.8772151708
31
0
12
78.8772151708
22
15.4659305797
32
0
13
78.8772151708
23
15.4659305797
33
0
0
SOLID
5
12D
100
AcDbEntity
8
Dimensions
6
CONTINUOUS
62
7
370
0
100
AcDbTrace
10
83.0606601718
20
19.0606601718
30
0
11
84.5340694203
21
21.1227848292
31
0
12
85.1227848292
22
20.5340694203
32
0
13
85.1227848292
23
20.5340694203
33
0
0
MTEXT
5
12E
100
AcDbEntity
8
Dimensions
6
CONTINUOUS
62
7
370
0
100
AcDbMText
10
80.6741747853
20
19.3258252147
30
0
40
2.5
41
1.11111111111
71
5
72
1
1
3
7
standard
210
0
220
0
230
1
50
45
73
2
44
1
0
ENDBLK
5
91
330
8F
100
AcDbEntity
8
0
100
AcDbBlockEnd
0
BLOCK
5
93
330
92
100
AcDbEntity
8
0
100
AcDbBlockBegin
2
*D5
70
1
10
0
20
0
3
*D5
1

0
LINE
5
12F
100
AcDbEntity
8
Dimensions
6
CONTINUOUS
62
7
370
0
100
AcDbLine
10
77
20
6.12323399574e-16
11
92
21
-6.12323399574e-16
0
SOLID
5
130
100
AcDbEntity
8
Dimensions
6
CONTINUOUS
62
7
370
0
100
AcDbTrace
10
82
20
0
30
0
11
79.5
21
-0.416284657773
31
0
12
79.5
22
0.416284657773
32
0
13
79.5
23
0.416284657773
33
0
0
SOLID
5
131
100
AcDbEntity
8
Dimensions
6
CONTINUOUS
62
7
370
0
100
AcDbTrace
10
87
20
0
30
0
11
89.5
21
0.416284657773
31
0
12
89.5
22
-0.416284657773
32
0
13
89.5
23
-0.416284657773
33
0
0
MTEXT
5
132
100
AcDbEntity
8
Dimensions
6
CONTINUOUS
62
7
370
0
100
AcDbMText
10
84.5
20
1.875
30
0
40
2.5
41
1.11111111111
71
5
72
1
1
5
7
standard
210
0
220
0
230
1
50
360
73
2
44
1
0
LINE
5
133
100
AcDbEntity
8
Dimensions
6
CONTINUOUS
62
7
370
0
100
AcDbLine
10
82
20
9.375
11
82
21
-1.25
0
LINE
5
134
100
AcDbEntity
8
Dimensions
6
CONTINUOUS
62
7
370
0
100
AcDbLine
10
87
20
9.375
11
87
21
-1.25
0
ENDBLK
5
94
330
92
100
AcDbEntity
8
0
100
AcDbBlockEnd
0
BLOCK
5
96
330
95
100
AcDbEntity
8
0
100
AcDbBlockBegin
2
*D8
70
1
10
0
20
0
3
*D8
1

0
LINE
5
135
100
AcDbEntity
8
Dimensions
6
CONTINUOUS
62
7
370
0
100
AcDbLine
10
100
20
0
11
109
21
0
0
SOLID
5
136
100
AcDbEntity
8
Dimensions
6
CONTINUOUS
62
7
370
0
100
AcDbTrace
10
100
20
0
30
0
11
102.5
21
0.416284657773
31
0
12
102.5
22
-0.416284657773
32
0
13
102.5
23
-0.416284657773
33
0
0
SOLID
5
137
100
AcDbEntity
8
Dimensions
6
CONTINUOUS
62
7
370
0
100
AcDbTrace
10
109
20
0
30
0
11
106.5
21
-0.416284657773
31
0
12
106.5
22
0.416284657773
32
0
13
106.5
23
0.416284657773
33
0
0
MTEXT
5
138
100
AcDbEntity
8
Dimensions
6
CONTINUOUS
62
7
370
0
100
AcDbMText
10
104.5
20
1.875
30
0
40
2.5
41
1.11111111111
71
5
72
1
1
9
7
standard
210
0
220
0
230
1
50
0
73
2
44
1
0
LINE
5
139
100
AcDbEntity
8
Dimensions
6
CONTINUOUS
62
7
370
0
100
AcDbLine
10
100
20
9.375
11
100
21
-1.25
0
LINE
5
13A
100
AcDbEntity
8
Dimensions
6
CONTINUOUS
62
7
370
0
100
AcDbLine
10
109
20
9.375
11
109
21
-1.25
0
ENDBLK
5
97
330
95
100
AcDbEntity
8
0
100
AcDbBlockEnd
0
BLOCK
5
99
330
98
100
AcDbEntity
8
0
100
AcDbBlockBegin
2
*D28
70
1
10
0
20
0
3
*D28
1

0
LINE
5
13B
100
AcDbEntity
8
Dimensions
6
CONTINUOUS
62
7
370
0
100
AcDbLine
10
71.3431457505
20
19.3431457505
11
82.6568542495
21
30.6568542495
0
SOLID
5
13C
100
AcDbEntity
8
Dimensions
6
CONTINUOUS
62
7
370
0
100
AcDbTrace
10
74.8786796564
20
22.8786796564
30
0
11
73.4052704079
21
20.8165549991
31
0
12
72.8165549991
22
21.4052704079
32
0
13
72.8165549991
23
21.4052704079
33
0
0
SOLID
5
13D
100
AcDbEntity
8
Dimensions
6
CONTINUOUS
62
7
370
0
100
AcDbTrace
10
79.1213203436
20
27.1213203436
30
0
11
80.5947295921
21
29.1834450009
31
0
12
81.1834450009
22
28.5947295921
32
0
13
81.1834450009
23
28.5947295921
33
0
0
MTEXT
5
13E
100
AcDbEntity
8
Dimensions
6
CONTINUOUS
62
7
370
0
100
AcDbMText
10
75.6741747853
20
26.3258252147
30
0
40
2.5
41
1.11111111111
71
5
72
1
1
6
7
standard
210
0
220
0
230
1
50
45
73
2
44
1
0
ENDBLK
5
9A
330
98
100
AcDbEntity
8
0
100
AcDbBlockEnd
0
BLOCK
5
9C
330
9B
100
AcDbEntity
8
0
100
AcDbBlockBegin
2
*D17
70
1
10
0
20
0
3
*D17
1

0
LINE
5
13F
100
AcDbEntity
8
Dimensions
6
CONTINUOUS
62
7
370
0
100
AcDbLine
10
130
20
27
11
130
21
41
0
SOLID
5
140
100
AcDbEntity
8
Dimensions
6
CONTINUOUS
62
7
370
0
100
AcDbTrace
10
130
20
32
30
0
11
130.416284658
21
29.5
31
0
12
129.583715342
22
29.5
32
0
13
129.583715342
23
29.5
33
0
0
SOLID
5
141
100
AcDbEntity
8
Dimensions
6
CONTINUOUS
62
7
370
0
100
AcDbTrace
10
130
20
36
30
0
11
129.583715342
21
38.5
31
0
12
130.416284658
22
38.5
32
0
13
130.416284658
23
38.5
33
0
0
MTEXT
5
142
100
AcDbEntity
8
Dimensions
6
CONTINUOUS
62
7
370
0
100
AcDbMText
10
128.125
20
34
30
0
40
2.5
41
1.38888888889
71
5
72
1
1
4
7
standard
210
0
220
0
230
1
50
90
73
2
44
1
0
LINE
5
143
100
AcDbEntity
8
Dimensions
6
CONTINUOUS
62
7
370
0
100
AcDbLine
10
120.625
20
32
11
131.25
21
32
0
LINE
5
144
100
AcDbEntity
8
Dimensions
6
CONTINUOUS
62
7
370
0
100
AcDbLine
10
120.625
20
36
11
131.25
21
36
0
ENDBLK
5
9D
330
9B
100
AcDbEntity
8
0
100
AcDbBlockEnd
0
BLOCK
5
9F
330
9E
100
AcDbEntity
8
0
100
AcDbBlockBegin
2
*D4
70
1
10
0
20
0
3
*D4
1

0
LINE
5
145
100
AcDbEntity
8
Dimensions
6
CONTINUOUS
62
7
370
0
100
AcDbLine
10
72
20
6.12323399574e-16
11
87
21
-6.12323399574e-16
0
SOLID
5
146
100
AcDbEntity
8
Dimensions
6
CONTINUOUS
62
7
370
0
100
AcDbTrace
10
77
20
0
30
0
11
74.5
21
-0.416284657773
31
0
12
74.5
22
0.416284657773
32
0
13
74.5
23
0.416284657773
33
0
0
SOLID
5
147
100
AcDbEntity
8
Dimensions
6
CONTINUOUS
62
7
370
0
100
AcDbTrace
10
82
20
0
30
0
11
84.5
21
0.416284657773
31
0
12
84.5
22
-0.416284657773
32
0
13
84.5
23
-0.416284657773
33
0
0
MTEXT
5
148
100
AcDbEntity
8
Dimensions
6
CONTINUOUS
62
7
370
0
100
AcDbMText
10
79.5
20
1.875
30
0
40
2.5
41
1.11111111111
71
5
72
1
1
5
7
standard
210
0
220
0
230
1
50
360
73
2
44
1
0
LINE
5
149
100
AcDbEntity
8
Dimensions
6
CONTINUOUS
62
7
370
0
100
AcDbLine
10
77
20
9.375
11
77
21
-1.25
0
LINE
5
14A
100
AcDbEntity
8
Dimensions
6
CONTINUOUS
62
7
370
0
100
AcDbLine
10
82
20
9.375
11
82
21
-1.25
0
ENDBLK
5
A0
330
9E
100
AcDbEntity
8
0
100
AcDbBlockEnd
0
BLOCK
5
A2
330
A1
100
AcDbEntity
8
0
100
AcDbBlockBegin
2
*D6
70
1
10
0
20
0
3
*D6
1

0
LINE
5
14B
100
AcDbEntity
8
Dimensions
6
CONTINUOUS
62
7
370
0
100
AcDbLine
10
87
20
0
11
95
21
0
0
SOLID
5
14C
100
AcDbEntity
8
Dimensions
6
CONTINUOUS
62
7
370
0
100
AcDbTrace
10
87
20
0
30
0
11
89.5
21
0.416284657773
31
0
12
89.5
22
-0.416284657773
32
0
13
89.5
23
-0.416284657773
33
0
0
SOLID
5
14D
100
AcDbEntity
8
Dimensions
6
CONTINUOUS
62
7
370
0
100
AcDbTrace
10
95
20
0
30
0
11
92.5
21
-0.416284657773
31
0
12
92.5
22
0.416284657773
32
0
13
92.5
23
0.416284657773
33
0
0
MTEXT
5
14E
100
AcDbEntity
8
Dimensions
6
CONTINUOUS
62
7
370
0
100
AcDbMText
10
91
20
1.875
30
0
40
2.5
41
1.11111111111
71
5
72
1
1
8
7
standard
210
0
220
0
230
1
50
0
73
2
44
1
0
LINE
5
14F
100
AcDbEntity
8
Dimensions
6
CONTINUOUS
62
7
370
0
100
AcDbLine
10
87
20
9.375
11
87
21
-1.25
0
LINE
5
150
100
AcDbEntity
8
Dimensions
6
CONTINUOUS
62
7
370
0
100
AcDbLine
10
95
20
9.375
11
95
21
-1.25
0
ENDBLK
5
A3
330
A1
100
AcDbEntity
8
0
100
AcDbBlockEnd
0
BLOCK
5
A5
330
A4
100
AcDbEntity
8
0
100
AcDbBlockBegin
2
*D25
70
1
10
0
20
0
3
*D25
1

0
LINE
5
151
100
AcDbEntity
8
Dimensions
6
CONTINUOUS
62
7
370
0
100
AcDbLine
10
330
20
10
11
330
21
25
0
SOLID
5
152
100
AcDbEntity
8
Dimensions
6
CONTINUOUS
62
7
370
0
100
AcDbTrace
10
330
20
15
30
0
11
330.416284658
21
12.5
31
0
12
329.583715342
22
12.5
32
0
13
329.583715342
23
12.5
33
0
0
SOLID
5
153
100
AcDbEntity
8
Dimensions
6
CONTINUOUS
62
7
370
0
100
AcDbTrace
10
330
20
20
30
0
11
329.583715342
21
22.5
31
0
12
330.416284658
22
22.5
32
0
13
330.416284658
23
22.5
33
0
0
MTEXT
5
154
100
AcDbEntity
8
Dimensions
6
CONTINUOUS
62
7
370
0
100
AcDbMText
10
328.125
20
17.5
30
0
40
2.5
41
1.11111111111
71
5
72
1
1
5
7
standard
210
0
220
0
230
1
50
90
73
2
44
1
0
LINE
5
155
100
AcDbEntity
8
Dimensions
6
CONTINUOUS
62
7
370
0
100
AcDbLine
10
320.625
20
15
11
331.25
21
15
0
LINE
5
156
100
AcDbEntity
8
Dimensions
6
CONTINUOUS
62
7
370
0
100
AcDbLine
10
320.625
20
20
11
331.25
21
20
0
ENDBLK
5
A6
330
A4
100
AcDbEntity
8
0
100
AcDbBlockEnd
0
BLOCK
5
A8
330
A7
100
AcDbEntity
8
0
100
AcDbBlockBegin
2
*D10
70
1
10
0
20
0
3
*D10
1

0
LINE
5
157
100
AcDbEntity
8
Dimensions
6
CONTINUOUS
62
7
370
0
100
AcDbLine
10
6.73555739531e-16
20
41
11
-3.06161699787e-16
21
25
0
SOLID
5
158
100
AcDbEntity
8
Dimensions
6
CONTINUOUS
62
7
370
0
100
AcDbTrace
10
3.67394039744e-16
20
36
30
0
11
-0.416284657773
21
38.5
31
0
12
0.416284657773
22
38.5
32
0
13
0.416284657773
23
38.5
33
0
0
SOLID
5
159
100
AcDbEntity
8
Dimensions
6
CONTINUOUS
62
7
370
0
100
AcDbTrace
10
3.74939945665e-32
20
30
30
0
11
0.416284657773
21
27.5
31
0
12
-0.416284657773
22
27.5
32
0
13
-0.416284657773
23
27.5
33
0
0
MTEXT
5
15A
100
AcDbEntity
8
Dimensions
6
CONTINUOUS
62
7
370
0
100
AcDbMText
10
-1.875
20
33
30
0
40
2.5
41
1.11111111111
71
5
72
1
1
6
7
standard
210
0
220
0
230
1
50
90
73
2
44
1
0
LINE
5
15B
100
AcDbEntity
8
Dimensions
6
CONTINUOUS
62
7
370
0
100
AcDbLine
10
9.375
20
36
11
-1.25
21
36
0
LINE
5
15C
100
AcDbEntity
8
Dimensions
6
CONTINUOUS
62
7
370
0
100
AcDbLine
10
9.375
20
30
11
-1.25
21
30
0
ENDBLK
5
A9
330
A7
100
AcDbEntity
8
0
100
AcDbBlockEnd
0
BLOCK
5
AB
330
AA
100
AcDbEntity
8
0
100
AcDbBlockBegin
2
*D20
70
1
10
0
20
0
3
*D20
1

0
LINE
5
15D
100
AcDbEntity
8
Dimensions
6
CONTINUOUS
62
7
370
0
100
AcDbLine
10
291
20
6.12323399574e-16
11
302
21
-6.12323399574e-16
0
SOLID
5
15E
100
AcDbEntity
8
Dimensions
6
CONTINUOUS
62
7
370
0
100
AcDbTrace
10
296
20
0
30
0
11
293.5
21
-0.416284657773
31
0
12
293.5
22
0.416284657773
32
0
13
293.5
23
0.416284657773
33
0
0
SOLID
5
15F
100
AcDbEntity
8
Dimensions
6
CONTINUOUS
62
7
370
0
100
AcDbTrace
10
297
20
0
30
0
11
299.5
21
0.416284657773
31
0
12
299.5
22
-0.416284657773
32
0
13
299.5
23
-0.416284657773
33
0
0
MTEXT
5
160
100
AcDbEntity
8
Dimensions
6
CONTINUOUS
62
7
370
0
100
AcDbMText
10
296.5
20
1.875
30
0
40
2.5
41
0.555555555556
71
5
72
1
1
1
7
standard
210
0
220
0
230
1
50
360
73
2
44
1
0
LINE
5
161
100
AcDbEntity
8
Dimensions
6
CONTINUOUS
62
7
370
0
100
AcDbLine
10
296
20
9.375
11
296
21
-1.25
0
LINE
5
162
100
AcDbEntity
8
Dimensions
6
CONTINUOUS
62
7
370
0
100
AcDbLine
10
297
20
9.375
11
297
21
-1.25
0
ENDBLK
5
AC
330
AA
100
AcDbEntity
8
0
100
AcDbBlockEnd
0
BLOCK
5
AE
330
AD
100
AcDbEntity
8
0
100
AcDbBlockBegin
2
*D29
70
1
10
0
20
0
3
*D29
1

0
LINE
5
163
100
AcDbEntity
8
Dimensions
6
CONTINUOUS
62
7
370
0
100
AcDbLine
10
77.4038059223
20
27.4038059223
11
86.5961940777
21
36.5961940777
0
SOLID
5
164
100
AcDbEntity
8
Dimensions
6
CONTINUOUS
62
7
370
0
100
AcDbTrace
10
80.9393398282
20
30.9393398282
30
0
11
79.4659305797
21
28.8772151708
31
0
12
78.8772151708
22
29.4659305797
32
0
13
78.8772151708
23
29.4659305797
33
0
0
SOLID
5
165
100
AcDbEntity
8
Dimensions
6
CONTINUOUS
62
7
370
0
100
AcDbTrace
10
83.0606601718
20
33.0606601718
30
0
11
84.5340694203
21
35.1227848292
31
0
12
85.1227848292
22
34.5340694203
32
0
13
85.1227848292
23
34.5340694203
33
0
0
MTEXT
5
166
100
AcDbEntity
8
Dimensions
6
CONTINUOUS
62
7
370
0
100
AcDbMText
10
80.6741747853
20
33.3258252147
30
0
40
2.5
41
1.11111111111
71
5
72
1
1
3
7
standard
210
0
220
0
230
1
50
45
73
2
44
1
0
ENDBLK
5
AF
330
AD
100
AcDbEntity
8
0
100
AcDbBlockEnd
0
ENDSEC
0
SECTION
2
ENTITIES
0
ARC
5
167
100
AcDbEntity
8
Shank
6
ByLayer
62
256
370
-1
100
AcDbCircle
10
65
20
35
40
5
100
AcDbArc
50
270
51
0
0
ARC
5
168
100
AcDbEntity
8
Shank
6
ByLayer
62
256
370
-1
100
AcDbCircle
10
71
20
35
40
1
100
AcDbArc
50
90
51
180
0
ARC
5
169
100
AcDbEntity
8
Shank
6
ByLayer
62
256
370
-1
100
AcDbCircle
10
65
20
15
40
5
100
AcDbArc
50
0
51
90
0
ARC
5
16A
100
AcDbEntity
8
Shank
6
ByLayer
62
256
370
-1
100
AcDbCircle
10
71
20
15
40
1
100
AcDbArc
50
180
51
270
0
LINE
5
16B
100
AcDbEntity
8
Shank
6
ByLayer
62
256
370
-1
100
AcDbLine
10
21
20
20
11
65
21
20
0
LINE
5
16C
100
AcDbEntity
8
Shank
6
ByLayer
62
256
370
-1
100
AcDbLine
10
65
20
30
11
21
21
30
0
ARC
5
16D
100
AcDbEntity
8
Shank
6
ByLayer
62
256
370
-1
100
AcDbCircle
10
21
20
29
40
1
100
AcDbArc
50
90
51
180
0
ARC
5
16E
100
AcDbEntity
8
Shank
6
ByLayer
62
256
370
-1
100
AcDbCircle
10
21
20
21
40
1
100
AcDbArc
50
180
51
270
0
LINE
5
16F
100
AcDbEntity
8
Shank
6
ByLayer
62
256
370
-1
100
AcDbLine
10
20
20
29
11
20
21
21
0
LINE
5
170
100
AcDbEntity
8
Shank
6
ByLayer
62
256
370
-1
100
AcDbLine
10
71
20
14
11
104
21
14
0
LINE
5
171
100
AcDbEntity
8
Shank
6
ByLayer
62
256
370
-1
100
AcDbLine
10
71
20
36
11
104
21
36
0
CIRCLE
5
172
100
AcDbEntity
8
Shank
6
ByLayer
62
256
370
-1
100
AcDbCircle
10
77
20
25
40
3
0
CIRCLE
5
173
100
AcDbEntity
8
Shank
6
ByLayer
62
256
370
-1
100
AcDbCircle
10
87
20
25
40
3
0
CIRCLE
5
174
100
AcDbEntity
8
Shank
6
ByLayer
62
256
370
-1
100
AcDbCircle
10
82
20
32
40
1.5
0
CIRCLE
5
175
100
AcDbEntity
8
Shank
6
ByLayer
62
256
370
-1
100
AcDbCircle
10
82
20
18
40
1.5
0
LINE
5
176
100
AcDbEntity
8
Sides
6
ByLayer
62
256
370
-1
100
AcDbLine
10
70
20
35
11
70
21
15
0
ARC
5
177
100
AcDbEntity
8
Sides
6
ByLayer
62
256
370
-1
100
AcDbCircle
10
104
20
25
40
11
100
AcDbArc
50
270
51
90
0
CIRCLE
5
178
100
AcDbEntity
8
Sides
6
ByLayer
62
256
370
-1
100
AcDbCircle
10
109
20
25
40
3
0
CIRCLE
5
179
100
AcDbEntity
8
Sides
6
ByLayer
62
256
370
-1
100
AcDbCircle
10
100
20
19
40
1.5
0
ARC
5
17A
100
AcDbEntity
8
Shank
6
ByLayer
62
256
370
-1
100
AcDbCircle
10
111
20
25
40
19.4164878389
100
AcDbArc
50
145.491477012
51
214.508522988
0
CIRCLE
5
17B
100
AcDbEntity
8
KnurlingWheel
6
ByLayer
62
256
370
-1
100
AcDbCircle
10
109
20
25
40
9.5
0
CIRCLE
5
17C
100
AcDbEntity
8
KnurlingWheel
6
ByLayer
62
256
370
-1
100
AcDbCircle
10
109
20
25
40
3
0
CIRCLE
5
17D
100
AcDbEntity
8
Lever
6
ByLayer
62
256
370
-1
100
AcDbCircle
10
100
20
19
40
3
0
CIRCLE
5
17E
100
AcDbEntity
8
Lever
6
ByLayer
62
256
370
-1
100
AcDbCircle
10
100
20
19
40
4
0
CIRCLE
5
17F
100
AcDbEntity
8
Lever
6
ByLayer
62
256
370
-1
100
AcDbCircle
10
101
20
19
40
5
0
ARC
5
180
100
AcDbEntity
8
Lever
6
ByLayer
62
256
370
-1
100
AcDbCircle
10
90
20
19
40
2
100
AcDbArc
50
90
51
270
0
LINE
5
181
100
AcDbEntity
8
Lever
6
ByLayer
62
256
370
-1
100
AcDbLine
10
90
20
21
11
96
21
21
0
LINE
5
182
100
AcDbEntity
8
Lever
6
ByLayer
62
256
370
-1
100
AcDbLine
10
96
20
17
11
90
21
17
0
ARC
5
183
100
AcDbEntity
8
Lever
6
ByLayer
62
256
370
-1
100
AcDbCircle
10
96
20
16.2
40
0.8
100
AcDbArc
50
39.8055710923
51
90
0
ARC
5
184
100
AcDbEntity
8
Lever
6
ByLayer
62
256
370
-1
100
AcDbCircle
10
96
20
21.8
40
0.8
100
AcDbArc
50
270
51
320.194428908
0
LINE
5
185
100
AcDbEntity
8
Lever
6
ByLayer
62
256
370
-1
100
AcDbLine
10
96
20
19
11
90
21
19
0
CIRCLE
5
186
100
AcDbEntity
8
Dowels
6
ByLayer
62
256
370
-1
100
AcDbCircle
10
82
20
18
40
1.5
0
CIRCLE
5
187
100
AcDbEntity
8
Dowels
6
ByLayer
62
256
370
-1
100
AcDbCircle
10
82
20
32
40
1.5
0
CIRCLE
5
188
100
AcDbEntity
8
Fastners
6
ByLayer
62
256
370
-1
100
AcDbCircle
10
77
20
25
40
5
0
CIRCLE
5
189
100
AcDbEntity
8
Fastners
6
ByLayer
62
256
370
-1
100
AcDbCircle
10
77
20
25
40
3
0
CIRCLE
5
18A
100
AcDbEntity
8
Fastners
6
ByLayer
62
256
370
-1
100
AcDbCircle
10
87
20
25
40
3
0
CIRCLE
5
18B
100
AcDbEntity
8
Fastners
6
ByLayer
62
256
370
-1
100
AcDbCircle
10
87
20
25
40
5
0
CIRCLE
5
18C
100
AcDbEntity
8
Fastners
6
ByLayer
62
256
370
-1
100
AcDbCircle
10
100
20
19
40
3
0
CIRCLE
5
18D
100
AcDbEntity
8
Fastners
6
ByLayer
62
256
370
-1
100
AcDbCircle
10
100
20
19
40
1.5
0
LINE
5
18E
100
AcDbEntity
8
Shank
6
ByLayer
62
256
370
-1
100
AcDbLine
10
295
20
20
11
295
21
30
0
LINE
5
18F
100
AcDbEntity
8
Shank
6
ByLayer
62
256
370
-1
100
AcDbLine
10
221
20
20
11
295
21
20
0
LINE
5
190
100
AcDbEntity
8
Shank
6
ByLayer
62
256
370
-1
100
AcDbLine
10
295
20
30
11
221
21
30
0
ARC
5
191
100
AcDbEntity
8
Shank
6
ByLayer
62
256
370
-1
100
AcDbCircle
10
221
20
29
40
1
100
AcDbArc
50
90
51
180
0
ARC
5
192
100
AcDbEntity
8
Shank
6
ByLayer
62
256
370
-1
100
AcDbCircle
10
221
20
21
40
1
100
AcDbArc
50
180
51
270
0
LINE
5
193
100
AcDbEntity
8
Shank
6
ByLayer
62
256
370
-1
100
AcDbLine
10
220
20
29
11
220
21
21
0
ARC
5
194
100
AcDbEntity
8
Sides
6
ByLayer
62
256
370
-1
100
AcDbCircle
10
314
20
31
40
1
100
AcDbArc
50
270
51
0
0
LINE
5
195
100
AcDbEntity
8
Sides
6
ByLayer
62
256
370
-1
100
AcDbLine
10
314
20
20
11
270
21
20
0
LINE
5
196
100
AcDbEntity
8
Sides
6
ByLayer
62
256
370
-1
100
AcDbLine
10
314
20
30
11
270
21
30
0
LINE
5
197
100
AcDbEntity
8
KnurlingWheel
6
ByLayer
62
256
370
-1
100
AcDbLine
10
299.5
20
30
11
299.5
21
20
0
LINE
5
198
100
AcDbEntity
8
KnurlingWheel
6
ByLayer
62
256
370
-1
100
AcDbLine
10
299.5
20
20
11
318.5
21
20
0
LINE
5
199
100
AcDbEntity
8
KnurlingWheel
6
ByLayer
62
256
370
-1
100
AcDbLine
10
318.5
20
20
11
318.5
21
30
0
LINE
5
19A
100
AcDbEntity
8
KnurlingWheel
6
ByLayer
62
256
370
-1
100
AcDbLine
10
318.5
20
30
11
299.5
21
30
0
DIMENSION
5
19B
100
AcDbEntity
8
Dimensions
6
ByLayer
62
256
370
-1
100
AcDbDimension
2
*D1
10
115
20
50
30
0
11
67.5
21
51.875
31
0
70
32
71
5
3
Standard
53
0
210
0
220
0
230
1
100
AcDbAlignedDimension
13
20
23
40
33
0
14
115
24
40
34
0
100
AcDbRotatedDimension
0
DIMENSION
5
19C
100
AcDbEntity
8
Dimensions
6
ByLayer
62
256
370
-1
100
AcDbDimension
2
*D2
10
70
20
0
30
0
11
45
21
1.875
31
0
70
32
71
5
3
Standard
53
0
210
0
220
0
230
1
100
AcDbAlignedDimension
13
20
23
10
33
0
14
70
24
10
34
0
100
AcDbRotatedDimension
0
DIMENSION
5
19D
100
AcDbEntity
8
Dimensions
6
ByLayer
62
256
370
-1
100
AcDbDimension
2
*D3
10
77
20
0
30
0
11
73.5
21
1.875
31
0
70
32
71
5
3
Standard
53
0
210
0
220
0
230
1
100
AcDbAlignedDimension
13
70
23
10
33
0
14
77
24
10
34
0
100
AcDbRotatedDimension
0
DIMENSION
5
19E
100
AcDbEntity
8
Dimensions
6
ByLayer
62
256
370
-1
100
AcDbDimension
2
*D4
10
82
20
0
30
0
11
79.5
21
1.875
31
0
70
32
71
5
3
Standard
53
0
210
0
220
0
230
1
100
AcDbAlignedDimension
13
77
23
10
33
0
14
82
24
10
34
0
100
AcDbRotatedDimension
0
DIMENSION
5
19F
100
AcDbEntity
8
Dimensions
6
ByLayer
62
256
370
-1
100
AcDbDimension
2
*D5
10
87
20
0
30
0
11
84.5
21
1.875
31
0
70
32
71
5
3
Standard
53
0
210
0
220
0
230
1
100
AcDbAlignedDimension
13
82
23
10
33
0
14
87
24
10
34
0
100
AcDbRotatedDimension
0
DIMENSION
5
1A0
100
AcDbEntity
8
Dimensions
6
ByLayer
62
256
370
-1
100
AcDbDimension
2
*D6
10
95
20
0
30
0
11
91
21
1.875
31
0
70
32
71
5
3
Standard
53
0
210
0
220
0
230
1
100
AcDbAlignedDimension
13
87
23
10
33
0
14
95
24
10
34
0
100
AcDbRotatedDimension
0
DIMENSION
5
1A1
100
AcDbEntity
8
Dimensions
6
ByLayer
62
256
370
-1
100
AcDbDimension
2
*D7
10
100
20
0
30
0
11
97.5
21
1.875
31
0
70
32
71
5
3
Standard
53
0
210
0
220
0
230
1
100
AcDbAlignedDimension
13
95
23
10
33
0
14
100
24
10
34
0
100
AcDbRotatedDimension
0
DIMENSION
5
1A2
100
AcDbEntity
8
Dimensions
6
ByLayer
62
256
370
-1
100
AcDbDimension
2
*D8
10
109
20
0
30
0
11
104.5
21
1.875
31
0
70
32
71
5
3
Standard
53
0
210
0
220
0
230
1
100
AcDbAlignedDimension
13
100
23
10
33
0
14
109
24
10
34
0
100
AcDbRotatedDimension
0
DIMENSION
5
1A3
100
AcDbEntity
8
Dimensions
6
ByLayer
62
256
370
-1
100
AcDbDimension
2
*D9
10
115
20
0
30
0
11
112
21
1.875
31
0
70
32
71
5
3
Standard
53
0
210
0
220
0
230
1
100
AcDbAlignedDimension
13
109
23
10
33
0
14
115
24
10
34
0
100
AcDbRotatedDimension
0
DIMENSION
5
1A4
100
AcDbEntity
8
Dimensions
6
ByLayer
62
256
370
-1
100
AcDbDimension
2
*D10
10
0
20
30
30
0
11
-1.875
21
33
31
0
70
32
71
5
3
Standard
53
0
210
0
220
0
230
1
100
AcDbAlignedDimension
13
10
23
36
33
0
14
10
24
30
34
0
50
90
100
AcDbRotatedDimension
0
DIMENSION
5
1A5
100
AcDbEntity
8
Dimensions
6
ByLayer
62
256
370
-1
100
AcDbDimension
2
*D11
10
0
20
20
30
0
11
-1.875
21
25
31
0
70
32
71
5
3
Standard
53
0
210
0
220
0
230
1
100
AcDbAlignedDimension
13
10
23
30
33
0
14
10
24
20
34
0
50
90
100
AcDbRotatedDimension
0
DIMENSION
5
1A6
100
AcDbEntity
8
Dimensions
6
ByLayer
62
256
370
-1
100
AcDbDimension
2
*D12
10
0
20
14
30
0
11
-1.875
21
17
31
0
70
32
71
5
3
Standard
53
0
210
0
220
0
230
1
100
AcDbAlignedDimension
13
10
23
20
33
0
14
10
24
14
34
0
50
90
100
AcDbRotatedDimension
0
DIMENSION
5
1A7
100
AcDbEntity
8
Dimensions
6
ByLayer
62
256
370
-1
100
AcDbDimension
2
*D13
10
130
20
18
30
0
11
128.125
21
16
31
0
70
32
71
5
3
Standard
53
0
210
0
220
0
230
1
100
AcDbAlignedDimension
13
120
23
14
33
0
14
120
24
18
34
0
50
90
100
AcDbRotatedDimension
0
DIMENSION
5
1A8
100
AcDbEntity
8
Dimensions
6
ByLayer
62
256
370
-1
100
AcDbDimension
2
*D14
10
130
20
19
30
0
11
128.125
21
18.5
31
0
70
32
71
5
3
Standard
53
0
210
0
220
0
230
1
100
AcDbAlignedDimension
13
120
23
18
33
0
14
120
24
19
34
0
50
90
100
AcDbRotatedDimension
0
DIMENSION
5
1A9
100
AcDbEntity
8
Dimensions
6
ByLayer
62
256
370
-1
100
AcDbDimension
2
*D15
10
130
20
25
30
0
11
128.125
21
22
31
0
70
32
71
5
3
Standard
53
0
210
0
220
0
230
1
100
AcDbAlignedDimension
13
120
23
19
33
0
14
120
24
25
34
0
50
90
100
AcDbRotatedDimension
0
DIMENSION
5
1AA
100
AcDbEntity
8
Dimensions
6
ByLayer
62
256
370
-1
100
AcDbDimension
2
*D16
10
130
20
32
30
0
11
128.125
21
28.5
31
0
70
32
71
5
3
Standard
53
0
210
0
220
0
230
1
100
AcDbAlignedDimension
13
120
23
25
33
0
14
120
24
32
34
0
50
90
100
AcDbRotatedDimension
0
DIMENSION
5
1AB
100
AcDbEntity
8
Dimensions
6
ByLayer
62
256
370
-1
100
AcDbDimension
2
*D17
10
130
20
36
30
0
11
128.125
21
34
31
0
70
32
71
5
3
Standard
53
0
210
0
220
0
230
1
100
AcDbAlignedDimension
13
120
23
32
33
0
14
120
24
36
34
0
50
90
100
AcDbRotatedDimension
0
DIMENSION
5
1AC
100
AcDbEntity
8
Dimensions
6
ByLayer
62
256
370
-1
100
AcDbDimension
2
*D18
10
65
20
35
30
0
11
60.6296872552
21
42.0219631743
31
0
70
36
71
5
3
Standard
53
0
210
0
220
0
230
1
100
AcDbRadialDimension
15
61.4644660941
25
38.5355339059
35
0
40
0
0
LINE
5
1AD
100
AcDbEntity
8
Sides
6
ByLayer
62
256
370
-1
100
AcDbLine
10
270
20
30
11
314
21
30
0
ARC
5
1AE
100
AcDbEntity
8
Sides
6
ByLayer
62
256
370
-1
100
AcDbCircle
10
314
20
19
40
1
100
AcDbArc
50
360
51
90
0
LINE
5
1AF
100
AcDbEntity
8
Sides
6
ByLayer
62
256
370
-1
100
AcDbLine
10
314
20
20
11
270
21
20
0
LINE
5
1B0
100
AcDbEntity
8
Sides
6
ByLayer
62
256
370
-1
100
AcDbLine
10
270
20
20
11
314
21
20
0
LINE
5
1B1
100
AcDbEntity
8
Lever
6
ByLayer
62
256
370
-1
100
AcDbLine
10
288
20
15
11
306
21
15
0
LINE
5
1B2
100
AcDbEntity
8
Lever
6
ByLayer
62
256
370
-1
100
AcDbLine
10
306
20
15
11
306
21
11
0
LINE
5
1B3
100
AcDbEntity
8
Lever
6
ByLayer
62
256
370
-1
100
AcDbLine
10
306
20
11
11
296
21
11
0
LINE
5
1B4
100
AcDbEntity
8
Lever
6
ByLayer
62
256
370
-1
100
AcDbLine
10
296
20
15
11
296
21
11
0
LINE
5
1B5
100
AcDbEntity
8
Lever
6
ByLayer
62
256
370
-1
100
AcDbLine
10
301.5
20
11
11
298.5
21
11
0
LINE
5
1B6
100
AcDbEntity
8
Lever
6
ByLayer
62
256
370
-1
100
AcDbLine
10
303
20
11
11
301.5
21
12.5
0
LINE
5
1B7
100
AcDbEntity
8
Lever
6
ByLayer
62
256
370
-1
100
AcDbLine
10
298.5
20
12.5
11
297
21
11
0
ARC
5
1B8
100
AcDbEntity
8
Lever
6
ByLayer
62
256
370
-1
100
AcDbCircle
10
294
20
11
40
2
100
AcDbArc
50
360
51
90
0
ARC
5
1B9
100
AcDbEntity
8
Lever
6
ByLayer
62
256
370
-1
100
AcDbCircle
10
290
20
15
40
2
100
AcDbArc
50
180
51
270
0
LINE
5
1BA
100
AcDbEntity
8
Lever
6
ByLayer
62
256
370
-1
100
AcDbLine
10
290
20
13
11
294
21
13
0
LINE
5
1BB
100
AcDbEntity
8
Lever
6
ByLayer
62
256
370
-1
100
AcDbLine
10
298.5
20
12.5
11
298.5
21
15
0
LINE
5
1BC
100
AcDbEntity
8
Lever
6
ByLayer
62
256
370
-1
100
AcDbLine
10
301.5
20
15
11
301.5
21
12.5
0
LINE
5
1BD
100
AcDbEntity
8
Lever
6
ByLayer
62
256
370
-1
100
AcDbLine
10
297
20
15
11
297
21
13
0
LINE
5
1BE
100
AcDbEntity
8
Lever
6
ByLayer
62
256
370
-1
100
AcDbLine
10
297
20
13
11
298.5
21
13
0
LINE
5
1BF
100
AcDbEntity
8
Lever
6
ByLayer
62
256
370
-1
100
AcDbLine
10
301.5
20
13
11
306
21
13
0
LINE
5
1C0
100
AcDbEntity
8
Sides
6
ByLayer
62
256
370
-1
100
AcDbLine
10
270
20
20
11
270
21
16
0
LINE
5
1C1
100
AcDbEntity
8
Sides
6
ByLayer
62
256
370
-1
100
AcDbLine
10
315
20
16
11
315
21
19
0
LINE
5
1C2
100
AcDbEntity
8
Sides
6
ByLayer
62
256
370
-1
100
AcDbLine
10
271
20
15
11
314
21
15
0
ARC
5
1C3
100
AcDbEntity
8
Sides
6
ByLayer
62
256
370
-1
100
AcDbCircle
10
271
20
16
40
1
100
AcDbArc
50
180
51
270
0
ARC
5
1C4
100
AcDbEntity
8
Sides
6
ByLayer
62
256
370
-1
100
AcDbCircle
10
314
20
16
40
1
100
AcDbArc
50
270
51
360
0
LINE
5
1C5
100
AcDbEntity
8
Sides
6
ByLayer
62
256
370
-1
100
AcDbLine
10
315
20
34
11
315
21
31
0
LINE
5
1C6
100
AcDbEntity
8
Sides
6
ByLayer
62
256
370
-1
100
AcDbLine
10
270
20
30
11
270
21
34
0
LINE
5
1C7
100
AcDbEntity
8
Sides
6
ByLayer
62
256
370
-1
100
AcDbLine
10
271
20
35
11
314
21
35
0
ARC
5
1C8
100
AcDbEntity
8
Sides
6
ByLayer
62
256
370
-1
100
AcDbCircle
10
271
20
34
40
1
100
AcDbArc
50
90
51
180
0
ARC
5
1C9
100
AcDbEntity
8
Sides
6
ByLayer
62
256
370
-1
100
AcDbCircle
10
314
20
34
40
1
100
AcDbArc
50
0
51
90
0
DIMENSION
5
1CA
100
AcDbEntity
8
Dimensions
6
ByLayer
62
256
370
-1
100
AcDbDimension
2
*D19
10
296
20
0
30
0
11
292
21
1.875
31
0
70
32
71
5
3
Standard
53
0
210
0
220
0
230
1
100
AcDbAlignedDimension
13
288
23
10
33
0
14
296
24
10
34
0
100
AcDbRotatedDimension
0
DIMENSION
5
1CB
100
AcDbEntity
8
Dimensions
6
ByLayer
62
256
370
-1
100
AcDbDimension
2
*D20
10
297
20
0
30
0
11
296.5
21
1.875
31
0
70
32
71
5
3
Standard
53
0
210
0
220
0
230
1
100
AcDbAlignedDimension
13
296
23
10
33
0
14
297
24
10
34
0
100
AcDbRotatedDimension
0
DIMENSION
5
1CC
100
AcDbEntity
8
Dimensions
6
ByLayer
62
256
370
-1
100
AcDbDimension
2
*D21
10
300
20
0
30
0
11
298.5
21
1.875
31
0
70
32
71
5
3
Standard
53
0
210
0
220
0
230
1
100
AcDbAlignedDimension
13
297
23
10
33
0
14
300
24
10
34
0
100
AcDbRotatedDimension
0
DIMENSION
5
1CD
100
AcDbEntity
8
Dimensions
6
ByLayer
62
256
370
-1
100
AcDbDimension
2
*D22
10
306
20
0
30
0
11
303
21
1.875
31
0
70
32
71
5
3
Standard
53
0
210
0
220
0
230
1
100
AcDbAlignedDimension
13
300
23
10
33
0
14
306
24
10
34
0
100
AcDbRotatedDimension
0
DIMENSION
5
1CE
100
AcDbEntity
8
Dimensions
6
ByLayer
62
256
370
-1
100
AcDbDimension
2
*D23
10
330
20
13
30
0
11
328.125
21
12
31
0
70
32
71
5
3
Standard
53
0
210
0
220
0
230
1
100
AcDbAlignedDimension
13
320
23
11
33
0
14
320
24
13
34
0
50
90
100
AcDbRotatedDimension
0
DIMENSION
5
1CF
100
AcDbEntity
8
Dimensions
6
ByLayer
62
256
370
-1
100
AcDbDimension
2
*D24
10
330
20
15
30
0
11
328.125
21
14
31
0
70
32
71
5
3
Standard
53
0
210
0
220
0
230
1
100
AcDbAlignedDimension
13
320
23
13
33
0
14
320
24
15
34
0
50
90
100
AcDbRotatedDimension
0
DIMENSION
5
1D0
100
AcDbEntity
8
Dimensions
6
ByLayer
62
256
370
-1
100
AcDbDimension
2
*D25
10
330
20
20
30
0
11
328.125
21
17.5
31
0
70
32
71
5
3
Standard
53
0
210
0
220
0
230
1
100
AcDbAlignedDimension
13
320
23
15
33
0
14
320
24
20
34
0
50
90
100
AcDbRotatedDimension
0
DIMENSION
5
1D1
100
AcDbEntity
8
Dimensions
6
ByLayer
62
256
370
-1
100
AcDbDimension
2
*D26
10
330
20
30
30
0
11
328.125
21
25
31
0
70
32
71
5
3
Standard
53
0
210
0
220
0
230
1
100
AcDbAlignedDimension
13
320
23
20
33
0
14
320
24
30
34
0
50
90
100
AcDbRotatedDimension
0
DIMENSION
5
1D2
100
AcDbEntity
8
Dimensions
6
ByLayer
62
256
370
-1
100
AcDbDimension
2
*D27
10
330
20
35
30
0
11
328.125
21
32.5
31
0
70
32
71
5
3
Standard
53
0
210
0
220
0
230
1
100
AcDbAlignedDimension
13
320
23
30
33
0
14
320
24
35
34
0
50
90
100
AcDbRotatedDimension
0
DIMENSION
5
1D3
100
AcDbEntity
8
Dimensions
6
ByLayer
62
256
370
-1
100
AcDbDimension
2
*D28
10
74.8786796564
20
22.8786796564
30
0
11
75.6741747853
21
26.3258252147
31
0
70
35
71
5
3
Standard
53
0
210
0
220
0
230
1
100
AcDbDiametricDimension
15
79.1213203436
25
27.1213203436
35
0
40
0
0
DIMENSION
5
1D4
100
AcDbEntity
8
Dimensions
6
ByLayer
62
256
370
-1
100
AcDbDimension
2
*D29
10
80.9393398282
20
30.9393398282
30
0
11
80.6741747853
21
33.3258252147
31
0
70
35
71
5
3
Standard
53
0
210
0
220
0
230
1
100
AcDbDiametricDimension
15
83.0606601718
25
33.0606601718
35
0
40
0
0
DIMENSION
5
1D5
100
AcDbEntity
8
Dimensions
6
ByLayer
62
256
370
-1
100
AcDbDimension
2
*D30
10
80.9393398282
20
16.9393398282
30
0
11
80.6741747853
21
19.3258252147
31
0
70
35
71
5
3
Standard
53
0
210
0
220
0
230
1
100
AcDbDiametricDimension
15
83.0606601718
25
19.0606601718
35
0
40
0
0
DIMENSION
5
1D6
100
AcDbEntity
8
Dimensions
6
ByLayer
62
256
370
-1
100
AcDbDimension
2
*D31
10
84.8786796564
20
22.8786796564
30
0
11
85.6741747853
21
26.3258252147
31
0
70
35
71
5
3
Standard
53
0
210
0
220
0
230
1
100
AcDbDiametricDimension
15
89.1213203436
25
27.1213203436
35
0
40
0
0
DIMENSION
5
1D7
100
AcDbEntity
8
Dimensions
6
ByLayer
62
256
370
-1
100
AcDbDimension
2
*D32
10
98.9393398282
20
17.9393398282
30
0
11
98.6741747853
21
20.3258252147
31
0
70
35
71
5
3
Standard
53
0
210
0
220
0
230
1
100
AcDbDiametricDimension
15
101.060660172
25
20.0606601718
35
0
40
0
0
DIMENSION
5
1D8
100
AcDbEntity
8
Dimensions
6
ByLayer
62
256
370
-1
100
AcDbDimension
2
*D33
10
106.878679656
20
22.8786796564
30
0
11
107.674174785
21
26.3258252147
31
0
70
35
71
5
3
Standard
53
0
210
0
220
0
230
1
100
AcDbDiametricDimension
15
111.121320344
25
27.1213203436
35
0
40
0
0
ENDSEC
0
SECTION
2
OBJECTS
0
DICTIONARY
5
C
330
0
100
AcDbDictionary
281
1
3
ACAD_GROUP
350
D
0
DICTIONARY
5
D
330
C
100
AcDbDictionary
281
1
0
ENDSEC
0
EOF
