999
dxflib 2.2.0.0
  0
SECTION
  2
HEADER
  9
$ACADVER
  1
AC1015
  9
$HANDSEED
  5
FFFF
  9
$SPLINESEGS
 70
8
  9
$DIMEXE
 40
1.25
  9
$PSVPSCALE
 40
1.0
  9
$DIMLUNIT
 70
2
  9
$GRIDMODE
 70
1
  9
$INSUNITS
 70
4
  9
$DIMADEC
 70
2
  9
$DIMASZ
 40
2.5
  9
$DIMGAP
 40
0.625
  9
$DIMTXT
 40
2.5
  9
$GRIDUNIT
 10
0.0
 20
0.0
  9
$DIMEXO
 40
0.625
  9
$LUPREC
 70
4
  9
$PINSBASE
 10
-1033.5039113428933888
 20
125.3138852672751682
 30
0.0
  9
$DIMAUNIT
 70
0
  9
$AUPREC
 70
2
  9
$PLIMMIN
 10
0.0
 20
0.0
  9
$LUNITS
 70
2
  9
$PLIMMAX
 10
297.0
 20
210.0
  9
$DIMSTYLE
  2
Standard
  9
$AUNITS
 70
0
  0
ENDSEC
  0
SECTION
  2
TABLES
  0
TABLE
  2
VPORT
  5
8
100
AcDbSymbolTable
 70
1
  0
VPORT
  5
30
100
AcDbSymbolTableRecord
100
AcDbViewportTableRecord
  2
*Active
 70
0
 10
0.0
 20
0.0
 11
1.0
 21
1.0
 12
286.3055555555554861
 22
148.5
 13
0.0
 23
0.0
 14
10.0
 24
10.0
 15
10.0
 25
10.0
 16
0.0
 26
0.0
 36
1.0
 17
0.0
 27
0.0
 37
0.0
 40
297.0
 41
1.92798353909465
 42
50.0
 43
0.0
 44
0.0
 50
0.0
 51
0.0
 71
0
 72
100
 73
1
 74
3
 75
1
 76
1
 77
0
 78
0
281
0
 65
1
110
0.0
120
0.0
130
0.0
111
1.0
121
0.0
131
0.0
112
0.0
122
1.0
132
0.0
 79
0
146
0.0
  0
ENDTAB
  0
TABLE
  2
LTYPE
  5
5
100
AcDbSymbolTable
 70
21
  0
LTYPE
  5
14
100
AcDbSymbolTableRecord
100
AcDbLinetypeTableRecord
  2
ByBlock
 70
0
  3

 72
65
 73
0
 40
0.0
  0
LTYPE
  5
15
100
AcDbSymbolTableRecord
100
AcDbLinetypeTableRecord
  2
ByLayer
 70
0
  3

 72
65
 73
0
 40
0.0
  0
LTYPE
  5
16
100
AcDbSymbolTableRecord
100
AcDbLinetypeTableRecord
  2
CONTINUOUS
 70
0
  3
Solid line
 72
65
 73
0
 40
0.0
  0
LTYPE
  5
31
100
AcDbSymbolTableRecord
100
AcDbLinetypeTableRecord
  2
DOT
 70
0
  3
Dot . . . . . . . . . . . . . . . . . . . . . .
 72
65
 73
2
 40
6.3499999999999996
 49
0.0
 74
0
 49
-6.3499999999999996
 74
0
  0
LTYPE
  5
32
100
AcDbSymbolTableRecord
100
AcDbLinetypeTableRecord
  2
DOT2
 70
0
  3
Dot (.5x) .....................................
 72
65
 73
2
 40
3.1749999999999998
 49
0.0
 74
0
 49
-3.1749999999999998
 74
0
  0
LTYPE
  5
33
100
AcDbSymbolTableRecord
100
AcDbLinetypeTableRecord
  2
DOTX2
 70
0
  3
Dot (2x) .  .  .  .  .  .  .  .  .  .  .  .  .
 72
65
 73
2
 40
12.6999999999999993
 49
0.0
 74
0
 49
-12.6999999999999993
 74
0
  0
LTYPE
  5
34
100
AcDbSymbolTableRecord
100
AcDbLinetypeTableRecord
  2
DASHED
 70
0
  3
Dashed __ __ __ __ __ __ __ __ __ __ __ __ __ _
 72
65
 73
2
 40
19.0500000000000007
 49
12.6999999999999993
 74
0
 49
-6.3499999999999996
 74
0
  0
LTYPE
  5
35
100
AcDbSymbolTableRecord
100
AcDbLinetypeTableRecord
  2
DASHED2
 70
0
  3
Dashed (.5x) _ _ _ _ _ _ _ _ _ _ _ _ _ _ _ _ _
 72
65
 73
2
 40
9.5250000000000004
 49
6.3499999999999996
 74
0
 49
-3.1749999999999998
 74
0
  0
LTYPE
  5
36
100
AcDbSymbolTableRecord
100
AcDbLinetypeTableRecord
  2
DASHEDX2
 70
0
  3
Dashed (2x) ____  ____  ____  ____  ____  ___
 72
65
 73
2
 40
38.1000000000000014
 49
25.3999999999999986
 74
0
 49
-12.6999999999999993
 74
0
  0
LTYPE
  5
37
100
AcDbSymbolTableRecord
100
AcDbLinetypeTableRecord
  2
DASHDOT
 70
0
  3
Dash dot __ . __ . __ . __ . __ . __ . __ . __
 72
65
 73
4
 40
25.3999999999999986
 49
12.6999999999999993
 74
0
 49
-6.3499999999999996
 74
0
 49
0.0
 74
0
 49
-6.3499999999999996
 74
0
  0
LTYPE
  5
38
100
AcDbSymbolTableRecord
100
AcDbLinetypeTableRecord
  2
DASHDOT2
 70
0
  3
Dash dot (.5x) _._._._._._._._._._._._._._._.
 72
65
 73
4
 40
12.6999999999999993
 49
6.3499999999999996
 74
0
 49
-3.1749999999999998
 74
0
 49
0.0
 74
0
 49
-3.1749999999999998
 74
0
  0
LTYPE
  5
39
100
AcDbSymbolTableRecord
100
AcDbLinetypeTableRecord
  2
DASHDOTX2
 70
0
  3
Dash dot (2x) ____  .  ____  .  ____  .  ___
 72
65
 73
4
 40
50.7999999999999972
 49
25.3999999999999986
 74
0
 49
-12.6999999999999993
 74
0
 49
0.0
 74
0
 49
-12.6999999999999993
 74
0
  0
LTYPE
  5
3A
100
AcDbSymbolTableRecord
100
AcDbLinetypeTableRecord
  2
DIVIDE
 70
0
  3
Divide ____ . . ____ . . ____ . . ____ . . ____
 72
65
 73
6
 40
31.75
 49
12.6999999999999993
 74
0
 49
-6.3499999999999996
 74
0
 49
0.0
 74
0
 49
-6.3499999999999996
 74
0
 49
0.0
 74
0
 49
-6.3499999999999996
 74
0
  0
LTYPE
  5
3B
100
AcDbSymbolTableRecord
100
AcDbLinetypeTableRecord
  2
DIVIDE2
 70
0
  3
Divide (.5x) __..__..__..__..__..__..__..__.._
 72
65
 73
6
 40
15.875
 49
6.3499999999999996
 74
0
 49
-3.1749999999999998
 74
0
 49
0.0
 74
0
 49
-3.1749999999999998
 74
0
 49
0.0
 74
0
 49
-3.1749999999999998
 74
0
  0
LTYPE
  5
3C
100
AcDbSymbolTableRecord
100
AcDbLinetypeTableRecord
  2
DIVIDEX2
 70
0
  3
Divide (2x) ________  .  .  ________  .  .  _
 72
65
 73
6
 40
63.5
 49
25.3999999999999986
 74
0
 49
-12.6999999999999993
 74
0
 49
0.0
 74
0
 49
-12.6999999999999993
 74
0
 49
0.0
 74
0
 49
-12.6999999999999993
 74
0
  0
LTYPE
  5
3D
100
AcDbSymbolTableRecord
100
AcDbLinetypeTableRecord
  2
CENTER
 70
0
  3
Center ____ _ ____ _ ____ _ ____ _ ____ _ ____
 72
65
 73
4
 40
50.7999999999999972
 49
31.75
 74
0
 49
-6.3499999999999996
 74
0
 49
6.3499999999999996
 74
0
 49
-6.3499999999999996
 74
0
  0
LTYPE
  5
3E
100
AcDbSymbolTableRecord
100
AcDbLinetypeTableRecord
  2
CENTER2
 70
0
  3
Center (.5x) ___ _ ___ _ ___ _ ___ _ ___ _ ___
 72
65
 73
4
 40
28.5749999999999993
 49
19.0500000000000007
 74
0
 49
-3.1749999999999998
 74
0
 49
3.1749999999999998
 74
0
 49
-3.1749999999999998
 74
0
  0
LTYPE
  5
3F
100
AcDbSymbolTableRecord
100
AcDbLinetypeTableRecord
  2
CENTERX2
 70
0
  3
Center (2x) ________  __  ________  __  _____
 72
65
 73
4
 40
101.5999999999999943
 49
63.5
 74
0
 49
-12.6999999999999993
 74
0
 49
12.6999999999999993
 74
0
 49
-12.6999999999999993
 74
0
  0
LTYPE
  5
40
100
AcDbSymbolTableRecord
100
AcDbLinetypeTableRecord
  2
BORDER
 70
0
  3
Border __ __ . __ __ . __ __ . __ __ . __ __ .
 72
65
 73
6
 40
44.4500000000000028
 49
12.6999999999999993
 74
0
 49
-6.3499999999999996
 74
0
 49
12.6999999999999993
 74
0
 49
-6.3499999999999996
 74
0
 49
0.0
 74
0
 49
-6.3499999999999996
 74
0
  0
LTYPE
  5
41
100
AcDbSymbolTableRecord
100
AcDbLinetypeTableRecord
  2
BORDER2
 70
0
  3
Border (.5x) __.__.__.__.__.__.__.__.__.__.__.
 72
65
 73
6
 40
22.2250000000000014
 49
6.3499999999999996
 74
0
 49
-3.1749999999999998
 74
0
 49
6.3499999999999996
 74
0
 49
-3.1749999999999998
 74
0
 49
0.0
 74
0
 49
-3.1749999999999998
 74
0
  0
LTYPE
  5
42
100
AcDbSymbolTableRecord
100
AcDbLinetypeTableRecord
  2
BORDERX2
 70
0
  3
Border (2x) ____  ____  .  ____  ____  .  ___
 72
65
 73
6
 40
88.9000000000000057
 49
25.3999999999999986
 74
0
 49
-12.6999999999999993
 74
0
 49
25.3999999999999986
 74
0
 49
-12.6999999999999993
 74
0
 49
0.0
 74
0
 49
-12.6999999999999993
 74
0
  0
ENDTAB
  0
TABLE
  2
LAYER
  5
2
100
AcDbSymbolTable
 70
3
  0
LAYER
  5
10
100
AcDbSymbolTableRecord
100
AcDbLayerTableRecord
  2
0
 70
0
 62
7
  6
CONTINUOUS
290
1
370
25
390
F
  0
LAYER
  5
43
100
AcDbSymbolTableRecord
100
AcDbLayerTableRecord
  2
noname
 70
0
 62
7
  6
CONTINUOUS
290
1
370
25
390
F
  0
LAYER
  5
44
100
AcDbSymbolTableRecord
100
AcDbLayerTableRecord
  2
noname2
 70
0
 62
7
  6
CONTINUOUS
290
1
370
25
390
F
  0
ENDTAB
  0
TABLE
  2
STYLE
  5
3
100
AcDbSymbolTable
 70
1
  0
STYLE
  5
11
100
AcDbSymbolTableRecord
100
AcDbTextStyleTableRecord
  2
Standard
 70
0
 40
0.0
 41
0.75
 50
0.0
 71
0
 42
2.5
  3
txt
  4

  0
ENDTAB
  0
TABLE
  2
VIEW
  5
6
100
AcDbSymbolTable
 70
0
  0
ENDTAB
  0
TABLE
  2
UCS
  5
7
100
AcDbSymbolTable
 70
0
  0
ENDTAB
  0
TABLE
  2
APPID
  5
9
100
AcDbSymbolTable
 70
1
  0
APPID
  5
12
100
AcDbSymbolTableRecord
100
AcDbRegAppTableRecord
  2
ACAD
 70
0
  0
ENDTAB
  0
TABLE
  2
DIMSTYLE
  5
A
100
AcDbSymbolTable
 70
1
100
AcDbDimStyleTable
 71
0
  0
DIMSTYLE
105
27
100
AcDbSymbolTableRecord
100
AcDbDimStyleTableRecord
  2
Standard
 41
2.5
 42
0.625
 43
3.75
 44
1.25
 70
0
 73
0
 74
0
 77
1
 78
8
140
2.5
141
2.5
143
0.03937007874016
147
0.625
171
3
172
1
271
2
272
2
274
3
278
44
283
0
284
8
340
11
  0
ENDTAB
  0
TABLE
  2
BLOCK_RECORD
  5
1
100
AcDbSymbolTable
 70
1
  0
BLOCK_RECORD
  5
1F
100
AcDbSymbolTableRecord
100
AcDbBlockTableRecord
  2
*Model_Space
340
22
  0
BLOCK_RECORD
  5
1B
100
AcDbSymbolTableRecord
100
AcDbBlockTableRecord
  2
*Paper_Space
340
1E
  0
BLOCK_RECORD
  5
23
100
AcDbSymbolTableRecord
100
AcDbBlockTableRecord
  2
*Paper_Space0
340
26
  0
ENDTAB
  0
ENDSEC
  0
SECTION
  2
BLOCKS
  0
BLOCK
  5
20
100
AcDbEntity
  8
0
100
AcDbBlockBegin
  2
*Model_Space
 70
0
 10
0.0
 20
0.0
 30
0.0
  3
*Model_Space
  1

  0
ENDBLK
  5
21
100
AcDbEntity
  8
0
100
AcDbBlockEnd
  0
BLOCK
  5
1C
100
AcDbEntity
 67
1
  8
0
100
AcDbBlockBegin
  2
*Paper_Space
 70
0
 10
0.0
 20
0.0
 30
0.0
  3
*Paper_Space
  1

  0
ENDBLK
  5
1D
100
AcDbEntity
 67
1
  8
0
100
AcDbBlockEnd
  0
BLOCK
  5
24
100
AcDbEntity
  8
0
100
AcDbBlockBegin
  2
*Paper_Space0
 70
0
 10
0.0
 20
0.0
 30
0.0
  3
*Paper_Space0
  1

  0
ENDBLK
  5
25
100
AcDbEntity
  8
0
100
AcDbBlockEnd
  0
ENDSEC
  0
SECTION
  2
ENTITIES
  0
CIRCLE
  5
45
100
AcDbEntity
100
AcDbCircle
  8
0
 62
256
370
-1
  6
ByLayer
 10
114.0
 20
110.0
 30
0.0
 40
7.0
  0
CIRCLE
  5
46
100
AcDbEntity
100
AcDbCircle
  8
0
 62
256
370
-1
  6
ByLayer
 10
131.0
 20
110.0
 30
0.0
 40
7.0
  0
CIRCLE
  5
47
100
AcDbEntity
100
AcDbCircle
  8
0
 62
256
370
-1
  6
ByLayer
 10
148.0
 20
110.0
 30
0.0
 40
7.0
  0
CIRCLE
  5
48
100
AcDbEntity
100
AcDbCircle
  8
0
 62
256
370
-1
  6
ByLayer
 10
165.0
 20
110.0
 30
0.0
 40
7.0
  0
CIRCLE
  5
49
100
AcDbEntity
100
AcDbCircle
  8
0
 62
256
370
-1
  6
ByLayer
 10
182.0
 20
110.0
 30
0.0
 40
7.0
  0
CIRCLE
  5
4A
100
AcDbEntity
100
AcDbCircle
  8
0
 62
256
370
-1
  6
ByLayer
 10
199.0
 20
110.0
 30
0.0
 40
7.0
  0
CIRCLE
  5
4B
100
AcDbEntity
100
AcDbCircle
  8
0
 62
256
370
-1
  6
ByLayer
 10
216.0
 20
110.0
 30
0.0
 40
7.0
  0
CIRCLE
  5
4C
100
AcDbEntity
100
AcDbCircle
  8
0
 62
256
370
-1
  6
ByLayer
 10
233.0
 20
110.0
 30
0.0
 40
7.0
  0
CIRCLE
  5
4D
100
AcDbEntity
100
AcDbCircle
  8
0
 62
256
370
-1
  6
ByLayer
 10
250.0
 20
110.0
 30
0.0
 40
7.0
  0
CIRCLE
  5
4E
100
AcDbEntity
100
AcDbCircle
  8
0
 62
256
370
-1
  6
ByLayer
 10
267.0
 20
110.0
 30
0.0
 40
7.0
  0
CIRCLE
  5
4F
100
AcDbEntity
100
AcDbCircle
  8
0
 62
256
370
-1
  6
ByLayer
 10
284.0
 20
110.0
 30
0.0
 40
7.0
  0
CIRCLE
  5
50
100
AcDbEntity
100
AcDbCircle
  8
0
 62
256
370
-1
  6
ByLayer
 10
301.0
 20
110.0
 30
0.0
 40
7.0
  0
CIRCLE
  5
51
100
AcDbEntity
100
AcDbCircle
  8
0
 62
256
370
-1
  6
ByLayer
 10
318.0
 20
110.0
 30
0.0
 40
7.0
  0
CIRCLE
  5
52
100
AcDbEntity
100
AcDbCircle
  8
0
 62
256
370
-1
  6
ByLayer
 10
335.0
 20
110.0
 30
0.0
 40
7.0
  0
CIRCLE
  5
53
100
AcDbEntity
100
AcDbCircle
  8
0
 62
256
370
-1
  6
ByLayer
 10
352.0
 20
110.0
 30
0.0
 40
7.0
  0
CIRCLE
  5
54
100
AcDbEntity
100
AcDbCircle
  8
0
 62
256
370
-1
  6
ByLayer
 10
369.0
 20
110.0
 30
0.0
 40
7.0
  0
CIRCLE
  5
55
100
AcDbEntity
100
AcDbCircle
  8
0
 62
256
370
-1
  6
ByLayer
 10
386.0
 20
110.0
 30
0.0
 40
7.0
  0
LINE
  5
56
100
AcDbEntity
100
AcDbLine
  8
0
 62
256
370
-1
  6
ByLayer
 10
100.0
 20
100.0
 30
0.0
 11
100.0
 21
124.0
 31
0.0
  0
LINE
  5
57
100
AcDbEntity
100
AcDbLine
  8
0
 62
256
370
-1
  6
ByLayer
 10
100.0
 20
124.0
 30
0.0
 11
400.0
 21
124.0
 31
0.0
  0
LINE
  5
58
100
AcDbEntity
100
AcDbLine
  8
0
 62
256
370
-1
  6
ByLayer
 10
400.0
 20
124.0
 30
0.0
 11
400.0
 21
100.0
 31
0.0
  0
LINE
  5
59
100
AcDbEntity
100
AcDbLine
  8
0
 62
256
370
-1
  6
ByLayer
 10
396.0
 20
96.0
 30
0.0
 11
104.0
 21
96.0
 31
0.0
  0
ARC
  5
5A
100
AcDbEntity
  8
0
 62
256
370
-1
  6
ByLayer
100
AcDbCircle
 10
104.0
 20
100.0
 30
0.0
 40
4.0
100
AcDbArc
 50
180.0
 51
270.0
  0
ARC
  5
5B
100
AcDbEntity
  8
0
 62
256
370
-1
  6
ByLayer
100
AcDbCircle
 10
396.0
 20
100.0
 30
0.0
 40
4.0
100
AcDbArc
 50
270.0
 51
0.0
  0
LINE
  5
5C
100
AcDbEntity
100
AcDbLine
  8
0
 62
256
370
-1
  6
ByLayer
 10
255.0
 20
300.0
 30
0.0
 11
255.0
 21
305.0
 31
0.0
  0
LINE
  5
5D
100
AcDbEntity
100
AcDbLine
  8
0
 62
256
370
-1
  6
ByLayer
 10
248.0
 20
305.0
 30
0.0
 11
248.0
 21
300.0
 31
0.0
  0
LINE
  5
5E
100
AcDbEntity
100
AcDbLine
  8
0
 62
256
370
-1
  6
ByLayer
 10
234.0
 20
300.0
 30
0.0
 11
234.0
 21
305.0
 31
0.0
  0
LINE
  5
5F
100
AcDbEntity
100
AcDbLine
  8
0
 62
256
370
-1
  6
ByLayer
 10
234.0
 20
305.0
 30
0.0
 11
248.0
 21
300.0
 31
0.0
  0
LINE
  5
60
100
AcDbEntity
100
AcDbLine
  8
0
 62
256
370
-1
  6
ByLayer
 10
248.0
 20
305.0
 30
0.0
 11
234.0
 21
300.0
 31
0.0
  0
LINE
  5
61
100
AcDbEntity
100
AcDbLine
  8
0
 62
256
370
-1
  6
ByLayer
 10
225.0
 20
300.0
 30
0.0
 11
225.0
 21
280.0
 31
0.0
  0
LINE
  5
62
100
AcDbEntity
100
AcDbLine
  8
0
 62
256
370
-1
  6
ByLayer
 10
200.0
 20
300.0
 30
0.0
 11
200.0
 21
305.0
 31
0.0
  0
LINE
  5
63
100
AcDbEntity
100
AcDbLine
  8
0
 62
256
370
-1
  6
ByLayer
 10
200.0
 20
305.0
 30
0.0
 11
255.0
 21
305.0
 31
0.0
  0
LINE
  5
64
100
AcDbEntity
100
AcDbLine
  8
0
 62
256
370
-1
  6
ByLayer
 10
255.0
 20
300.0
 30
0.0
 11
200.0
 21
300.0
 31
0.0
  0
LINE
  5
65
100
AcDbEntity
100
AcDbLine
  8
0
 62
256
370
-1
  6
ByLayer
 10
205.0
 20
305.0
 30
0.0
 11
205.0
 21
300.0
 31
0.0
  0
LINE
  5
66
100
AcDbEntity
100
AcDbLine
  8
0
 62
256
370
-1
  6
ByLayer
 10
205.0
 20
300.0
 30
0.0
 11
215.0
 21
305.0
 31
0.0
  0
LINE
  5
67
100
AcDbEntity
100
AcDbLine
  8
0
 62
256
370
-1
  6
ByLayer
 10
215.0
 20
305.0
 30
0.0
 11
215.0
 21
300.0
 31
0.0
  0
LINE
  5
68
100
AcDbEntity
100
AcDbLine
  8
0
 62
256
370
-1
  6
ByLayer
 10
215.0
 20
300.0
 30
0.0
 11
205.0
 21
305.0
 31
0.0
  0
LINE
  5
69
100
AcDbEntity
100
AcDbLine
  8
0
 62
256
370
-1
  6
ByLayer
 10
220.0
 20
300.0
 30
0.0
 11
220.0
 21
235.0
 31
0.0
  0
LINE
  5
6A
100
AcDbEntity
100
AcDbLine
  8
0
 62
256
370
-1
  6
ByLayer
 10
220.0
 20
235.0
 30
0.0
 11
200.0
 21
235.0
 31
0.0
  0
LINE
  5
6B
100
AcDbEntity
100
AcDbLine
  8
0
 62
256
370
-1
  6
ByLayer
 10
200.0
 20
235.0
 30
0.0
 11
200.0
 21
230.0
 31
0.0
  0
LINE
  5
6C
100
AcDbEntity
100
AcDbLine
  8
0
 62
256
370
-1
  6
ByLayer
 10
200.0
 20
230.0
 30
0.0
 11
225.0
 21
230.0
 31
0.0
  0
LINE
  5
6D
100
AcDbEntity
100
AcDbLine
  8
0
 62
256
370
-1
  6
ByLayer
 10
225.0
 20
230.0
 30
0.0
 11
225.0
 21
280.0
 31
0.0
  0
LINE
  5
6E
100
AcDbEntity
100
AcDbLine
  8
0
 62
256
370
-1
  6
ByLayer
 10
225.0
 20
230.0
 30
0.0
 11
270.0
 21
230.0
 31
0.0
  0
LINE
  5
6F
100
AcDbEntity
100
AcDbLine
  8
0
 62
256
370
-1
  6
ByLayer
 10
270.0
 20
235.0
 30
0.0
 11
225.0
 21
235.0
 31
0.0
  0
LINE
  5
70
100
AcDbEntity
100
AcDbLine
  8
0
 62
256
370
-1
  6
ByLayer
 10
270.0
 20
230.0
 30
0.0
 11
300.0
 21
230.0
 31
0.0
  0
LINE
  5
71
100
AcDbEntity
100
AcDbLine
  8
0
 62
256
370
-1
  6
ByLayer
 10
300.0
 20
230.0
 30
0.0
 11
300.0
 21
235.0
 31
0.0
  0
LINE
  5
72
100
AcDbEntity
100
AcDbLine
  8
0
 62
256
370
-1
  6
ByLayer
 10
300.0
 20
235.0
 30
0.0
 11
270.0
 21
235.0
 31
0.0
  0
ARC
  5
73
100
AcDbEntity
  8
0
 62
256
370
-1
  6
ByLayer
100
AcDbCircle
 10
0.0
 20
0.0
 30
0.0
 40
0.0
100
AcDbArc
 50
0.0
 51
0.0
  0
ARC
  5
74
100
AcDbEntity
  8
0
 62
256
370
-1
  6
ByLayer
100
AcDbCircle
 10
500.0
 20
300.0
 30
0.0
 40
20.0
100
AcDbArc
 50
323.1301023541560085
 51
216.86989764584402
  0
ARC
  5
75
100
AcDbEntity
  8
0
 62
256
370
-1
  6
ByLayer
100
AcDbCircle
 10
530.0
 20
277.0
 30
0.0
 40
17.8044938147648573
100
AcDbArc
 50
141.8427734126309474
 51
210.9637565320735177
  0
ARC
  5
76
100
AcDbEntity
  8
0
 62
256
370
-1
  6
ByLayer
100
AcDbCircle
 10
470.0
 20
277.0
 30
0.0
 40
17.8044938147648573
100
AcDbArc
 50
329.0362434679264538
 51
38.1572265873690455
  0
ARC
  5
77
100
AcDbEntity
  8
0
 62
256
370
-1
  6
ByLayer
100
AcDbCircle
 10
465.3589838486224153
 20
240.0
 30
0.0
 40
20.0
100
AcDbArc
 50
83.1301023541559516
 51
336.8698976458439915
  0
ARC
  5
78
100
AcDbEntity
  8
0
 62
256
370
-1
  6
ByLayer
100
AcDbCircle
 10
470.2775681356645237
 20
277.4807621135331601
 30
0.0
 40
17.8044938147648573
100
AcDbArc
 50
261.8427734126309474
 51
330.9637565320734893
  0
ARC
  5
79
100
AcDbEntity
  8
0
 62
256
370
-1
  6
ByLayer
100
AcDbCircle
 10
500.2775681356645237
 20
225.5192378864668399
 30
0.0
 40
17.8044938147648573
100
AcDbArc
 50
89.0362434679264538
 51
158.1572265873690526
  0
ARC
  5
7A
100
AcDbEntity
  8
0
 62
256
370
-1
  6
ByLayer
100
AcDbCircle
 10
534.6410161513775847
 20
239.9999999999999716
 30
0.0
 40
20.0
100
AcDbArc
 50
203.1301023541559232
 51
96.8698976458439915
  0
ARC
  5
7B
100
AcDbEntity
  8
0
 62
256
370
-1
  6
ByLayer
100
AcDbCircle
 10
499.7224318643354195
 20
225.5192378864668399
 30
0.0
 40
17.8044938147648573
100
AcDbArc
 50
21.8427734126309296
 51
90.9637565320735035
  0
ARC
  5
7C
100
AcDbEntity
  8
0
 62
256
370
-1
  6
ByLayer
100
AcDbCircle
 10
529.7224318643354763
 20
277.4807621135331601
 30
0.0
 40
17.8044938147648573
100
AcDbArc
 50
209.0362434679264254
 51
278.1572265873690526
  0
LINE
  5
7D
100
AcDbEntity
100
AcDbLine
  8
0
 62
256
370
-1
  6
ByLayer
 10
500.0000000000000568
 20
302.5
 30
0.0
 11
505.0000000000000568
 21
302.5
 31
0.0
  0
LINE
  5
7E
100
AcDbEntity
100
AcDbLine
  8
0
 62
256
370
-1
  6
ByLayer
 10
505.0000000000000568
 20
302.5
 30
0.0
 11
505.0000000000000568
 21
297.5
 31
0.0
  0
LINE
  5
7F
100
AcDbEntity
100
AcDbLine
  8
0
 62
256
370
-1
  6
ByLayer
 10
505.0000000000000568
 20
297.5
 30
0.0
 11
495.0000000000000568
 21
297.5
 31
0.0
  0
LINE
  5
80
100
AcDbEntity
100
AcDbLine
  8
0
 62
256
370
-1
  6
ByLayer
 10
495.0000000000000568
 20
297.5
 30
0.0
 11
495.0000000000000568
 21
302.5
 31
0.0
  0
LINE
  5
81
100
AcDbEntity
100
AcDbLine
  8
0
 62
256
370
-1
  6
ByLayer
 10
495.0000000000000568
 20
302.5
 30
0.0
 11
500.0000000000000568
 21
302.5
 31
0.0
  0
LINE
  5
82
100
AcDbEntity
100
AcDbLine
  8
0
 62
256
370
-1
  6
ByLayer
 10
495.0000000000000568
 20
302.5
 30
0.0
 11
505.0000000000000568
 21
297.5
 31
0.0
  0
LINE
  5
83
100
AcDbEntity
100
AcDbLine
  8
0
 62
256
370
-1
  6
ByLayer
 10
505.0000000000000568
 20
302.5
 30
0.0
 11
495.0000000000000568
 21
297.5
 31
0.0
  0
LINE
  5
84
100
AcDbEntity
100
AcDbLine
  8
0
 62
256
370
-1
  6
ByLayer
 10
504.9999999999999432
 20
297.5
 30
0.0
 11
504.9999999999999432
 21
302.5
 31
0.0
  0
LINE
  5
85
100
AcDbEntity
100
AcDbLine
  8
0
 62
256
370
-1
  6
ByLayer
 10
486.0
 20
300.0
 30
0.0
 11
486.0
 21
302.5
 31
0.0
  0
LINE
  5
86
100
AcDbEntity
100
AcDbLine
  8
0
 62
256
370
-1
  6
ByLayer
 10
486.0
 20
302.5
 30
0.0
 11
470.0
 21
302.5
 31
0.0
  0
LINE
  5
87
100
AcDbEntity
100
AcDbLine
  8
0
 62
256
370
-1
  6
ByLayer
 10
470.0
 20
302.5
 30
0.0
 11
470.0
 21
297.5
 31
0.0
  0
LINE
  5
88
100
AcDbEntity
100
AcDbLine
  8
0
 62
256
370
-1
  6
ByLayer
 10
470.0
 20
297.5
 30
0.0
 11
486.0
 21
297.5
 31
0.0
  0
LINE
  5
89
100
AcDbEntity
100
AcDbLine
  8
0
 62
256
370
-1
  6
ByLayer
 10
486.0
 20
297.5
 30
0.0
 11
486.0
 21
300.0
 31
0.0
  0
LINE
  5
8A
100
AcDbEntity
100
AcDbLine
  8
0
 62
256
370
-1
  6
ByLayer
 10
486.0
 20
297.5
 30
0.0
 11
470.0
 21
302.5
 31
0.0
  0
LINE
  5
8B
100
AcDbEntity
100
AcDbLine
  8
0
 62
256
370
-1
  6
ByLayer
 10
470.0
 20
297.5000000000000568
 30
0.0
 11
486.0
 21
302.5000000000000568
 31
0.0
  0
LINE
  5
8C
100
AcDbEntity
100
AcDbLine
  8
0
 62
256
370
-1
  6
ByLayer
 10
470.0
 20
302.5
 30
0.0
 11
463.0
 21
302.5
 31
0.0
  0
LINE
  5
8D
100
AcDbEntity
100
AcDbLine
  8
0
 62
256
370
-1
  6
ByLayer
 10
463.0
 20
302.5
 30
0.0
 11
463.0
 21
297.5
 31
0.0
  0
LINE
  5
8E
100
AcDbEntity
100
AcDbLine
  8
0
 62
256
370
-1
  6
ByLayer
 10
463.0
 20
297.5
 30
0.0
 11
470.0
 21
297.5
 31
0.0
  0
LINE
  5
8F
100
AcDbEntity
100
AcDbLine
  8
0
 62
256
370
-1
  6
ByLayer
 10
496.0000000000000568
 20
302.5
 30
0.0
 11
486.0
 21
302.5
 31
0.0
  0
LINE
  5
90
100
AcDbEntity
100
AcDbLine
  8
0
 62
256
370
-1
  6
ByLayer
 10
486.0000000000000568
 20
297.5
 30
0.0
 11
496.0
 21
297.5
 31
0.0
  0
LINE
  5
91
100
AcDbEntity
100
AcDbLine
  8
0
 62
256
370
-1
  6
ByLayer
 10
488.0
 20
297.5
 30
0.0
 11
488.0000000000000568
 21
247.5
 31
0.0
  0
LINE
  5
92
100
AcDbEntity
100
AcDbLine
  8
0
 62
256
370
-1
  6
ByLayer
 10
488.0000000000000568
 20
247.5
 30
0.0
 11
493.0000000000000568
 21
247.5
 31
0.0
  0
LINE
  5
93
100
AcDbEntity
100
AcDbLine
  8
0
 62
256
370
-1
  6
ByLayer
 10
493.0000000000000568
 20
247.5
 30
0.0
 11
493.0
 21
297.5
 31
0.0
  0
LINE
  5
94
100
AcDbEntity
100
AcDbLine
  8
0
 62
256
370
-1
  6
ByLayer
 10
504.9999999999999432
 20
297.5
 30
0.0
 11
504.9999999999999432
 21
302.5
 31
0.0
  0
LINE
  5
95
100
AcDbEntity
100
AcDbLine
  8
0
 62
256
370
-1
  6
ByLayer
 10
514.0
 20
300.0
 30
0.0
 11
514.0
 21
302.5
 31
0.0
  0
LINE
  5
96
100
AcDbEntity
100
AcDbLine
  8
0
 62
256
370
-1
  6
ByLayer
 10
514.0
 20
302.5
 30
0.0
 11
530.0
 21
302.5
 31
0.0
  0
LINE
  5
97
100
AcDbEntity
100
AcDbLine
  8
0
 62
256
370
-1
  6
ByLayer
 10
530.0
 20
302.5
 30
0.0
 11
530.0
 21
297.5
 31
0.0
  0
LINE
  5
98
100
AcDbEntity
100
AcDbLine
  8
0
 62
256
370
-1
  6
ByLayer
 10
530.0
 20
297.5
 30
0.0
 11
514.0
 21
297.5
 31
0.0
  0
LINE
  5
99
100
AcDbEntity
100
AcDbLine
  8
0
 62
256
370
-1
  6
ByLayer
 10
514.0
 20
297.5
 30
0.0
 11
514.0
 21
300.0
 31
0.0
  0
LINE
  5
9A
100
AcDbEntity
100
AcDbLine
  8
0
 62
256
370
-1
  6
ByLayer
 10
514.0
 20
297.5
 30
0.0
 11
530.0
 21
302.5
 31
0.0
  0
LINE
  5
9B
100
AcDbEntity
100
AcDbLine
  8
0
 62
256
370
-1
  6
ByLayer
 10
530.0
 20
297.5000000000000568
 30
0.0
 11
514.0
 21
302.5000000000000568
 31
0.0
  0
LINE
  5
9C
100
AcDbEntity
100
AcDbLine
  8
0
 62
256
370
-1
  6
ByLayer
 10
530.0
 20
302.5
 30
0.0
 11
537.0
 21
302.5
 31
0.0
  0
LINE
  5
9D
100
AcDbEntity
100
AcDbLine
  8
0
 62
256
370
-1
  6
ByLayer
 10
537.0
 20
302.5
 30
0.0
 11
537.0
 21
297.5
 31
0.0
  0
LINE
  5
9E
100
AcDbEntity
100
AcDbLine
  8
0
 62
256
370
-1
  6
ByLayer
 10
537.0
 20
297.5
 30
0.0
 11
530.0
 21
297.5
 31
0.0
  0
LINE
  5
9F
100
AcDbEntity
100
AcDbLine
  8
0
 62
256
370
-1
  6
ByLayer
 10
503.9999999999999432
 20
302.5
 30
0.0
 11
514.0
 21
302.5
 31
0.0
  0
LINE
  5
A0
100
AcDbEntity
100
AcDbLine
  8
0
 62
256
370
-1
  6
ByLayer
 10
513.9999999999998863
 20
297.5
 30
0.0
 11
504.0
 21
297.5
 31
0.0
  0
LINE
  5
A1
100
AcDbEntity
100
AcDbLine
  8
0
 62
256
370
-1
  6
ByLayer
 10
512.0
 20
297.5
 30
0.0
 11
511.9999999999999432
 21
247.5
 31
0.0
  0
LINE
  5
A2
100
AcDbEntity
100
AcDbLine
  8
0
 62
256
370
-1
  6
ByLayer
 10
511.9999999999999432
 20
247.5
 30
0.0
 11
506.9999999999999432
 21
247.5
 31
0.0
  0
LINE
  5
A3
100
AcDbEntity
100
AcDbLine
  8
0
 62
256
370
-1
  6
ByLayer
 10
506.9999999999999432
 20
247.5
 30
0.0
 11
507.0
 21
297.5
 31
0.0
  0
LINE
  5
A4
100
AcDbEntity
100
AcDbLine
  8
0
 62
256
370
-1
  6
ByLayer
 10
500.0000000000000568
 20
247.5000000000000284
 30
0.0
 11
455.0
 21
247.5
 31
0.0
  0
LINE
  5
A5
100
AcDbEntity
100
AcDbLine
  8
0
 62
256
370
-1
  6
ByLayer
 10
455.0
 20
247.5
 30
0.0
 11
455.0000000000000568
 21
242.5
 31
0.0
  0
LINE
  5
A6
100
AcDbEntity
100
AcDbLine
  8
0
 62
256
370
-1
  6
ByLayer
 10
455.0000000000000568
 20
242.5
 30
0.0
 11
500.0
 21
242.5
 31
0.0
  0
LINE
  5
A7
100
AcDbEntity
100
AcDbLine
  8
0
 62
256
370
-1
  6
ByLayer
 10
511.9999999999999432
 20
247.5
 30
0.0
 11
506.9999999999999432
 21
247.5
 31
0.0
  0
LINE
  5
A8
100
AcDbEntity
100
AcDbLine
  8
0
 62
256
370
-1
  6
ByLayer
 10
499.9999999999999432
 20
247.5000000000000284
 30
0.0
 11
545.0
 21
247.5
 31
0.0
  0
LINE
  5
A9
100
AcDbEntity
100
AcDbLine
  8
0
 62
256
370
-1
  6
ByLayer
 10
545.0
 20
247.5
 30
0.0
 11
545.0
 21
242.5
 31
0.0
  0
LINE
  5
AA
100
AcDbEntity
100
AcDbLine
  8
0
 62
256
370
-1
  6
ByLayer
 10
545.0
 20
242.5
 30
0.0
 11
500.0
 21
242.5
 31
0.0
  0
ARC
  5
AB
100
AcDbEntity
  8
0
 62
256
370
-1
  6
ByLayer
100
AcDbCircle
 10
700.0
 20
300.0
 30
0.0
 40
20.0
100
AcDbArc
 50
323.1301023541560085
 51
216.86989764584402
  0
ARC
  5
AC
100
AcDbEntity
  8
0
 62
256
370
-1
  6
ByLayer
100
AcDbCircle
 10
730.0
 20
277.0
 30
0.0
 40
17.8044938147648573
100
AcDbArc
 50
141.8427734126309474
 51
210.9637565320735177
  0
ARC
  5
AD
100
AcDbEntity
  8
0
 62
256
370
-1
  6
ByLayer
100
AcDbCircle
 10
670.0
 20
277.0
 30
0.0
 40
17.8044938147648573
100
AcDbArc
 50
329.0362434679264538
 51
38.1572265873690455
  0
ARC
  5
AE
100
AcDbEntity
  8
0
 62
256
370
-1
  6
ByLayer
100
AcDbCircle
 10
700.0
 20
129.1176470588234224
 30
0.0
 40
110.8823529411765634
100
AcDbArc
 50
57.8528516705072491
 51
122.1471483294927509
  0
ARC
  5
AF
100
AcDbEntity
  8
0
 62
256
370
-1
  6
ByLayer
100
AcDbCircle
 10
657.4028968713789709
 20
284.1893395133255922
 30
0.0
 40
31.9952311285521347
100
AcDbArc
 50
238.5305861714780065
 51
329.6027566051891995
  0
ARC
  5
B0
100
AcDbEntity
  8
0
 62
256
370
-1
  6
ByLayer
100
AcDbCircle
 10
630.0
 20
240.0
 30
0.0
 40
20.0
100
AcDbArc
 50
57.0947570770121047
 51
306.8698976458439915
  0
ARC
  5
B1
100
AcDbEntity
  8
0
 62
256
370
-1
  6
ByLayer
100
AcDbCircle
 10
742.5971031286210291
 20
284.1893395133255922
 30
0.0
 40
31.9952311285521347
100
AcDbArc
 50
210.3972433948108005
 51
301.469413828522022
  0
ARC
  5
B2
100
AcDbEntity
  8
0
 62
256
370
-1
  6
ByLayer
100
AcDbCircle
 10
770.0
 20
240.0
 30
0.0
 40
20.0
100
AcDbArc
 50
233.13010235415598
 51
122.9052429229878953
  0
LINE
  5
B3
100
AcDbEntity
100
AcDbLine
  8
0
 62
256
370
-1
  6
ByLayer
 10
700.0
 20
302.5
 30
0.0
 11
705.0
 21
302.5
 31
0.0
  0
LINE
  5
B4
100
AcDbEntity
100
AcDbLine
  8
0
 62
256
370
-1
  6
ByLayer
 10
705.0
 20
302.5
 30
0.0
 11
705.0
 21
297.5
 31
0.0
  0
LINE
  5
B5
100
AcDbEntity
100
AcDbLine
  8
0
 62
256
370
-1
  6
ByLayer
 10
705.0
 20
297.5
 30
0.0
 11
695.0
 21
297.5
 31
0.0
  0
LINE
  5
B6
100
AcDbEntity
100
AcDbLine
  8
0
 62
256
370
-1
  6
ByLayer
 10
695.0
 20
297.5
 30
0.0
 11
695.0
 21
302.5
 31
0.0
  0
LINE
  5
B7
100
AcDbEntity
100
AcDbLine
  8
0
 62
256
370
-1
  6
ByLayer
 10
695.0
 20
302.5
 30
0.0
 11
700.0
 21
302.5
 31
0.0
  0
LINE
  5
B8
100
AcDbEntity
100
AcDbLine
  8
0
 62
256
370
-1
  6
ByLayer
 10
695.0
 20
302.5
 30
0.0
 11
705.0
 21
297.5
 31
0.0
  0
LINE
  5
B9
100
AcDbEntity
100
AcDbLine
  8
0
 62
256
370
-1
  6
ByLayer
 10
705.0
 20
302.5
 30
0.0
 11
695.0
 21
297.5
 31
0.0
  0
LINE
  5
BA
100
AcDbEntity
100
AcDbLine
  8
0
 62
256
370
-1
  6
ByLayer
 10
705.0
 20
297.5
 30
0.0
 11
705.0
 21
302.5
 31
0.0
  0
LINE
  5
BB
100
AcDbEntity
100
AcDbLine
  8
0
 62
256
370
-1
  6
ByLayer
 10
696.0
 20
302.5
 30
0.0
 11
686.0
 21
302.5
 31
0.0
  0
LINE
  5
BC
100
AcDbEntity
100
AcDbLine
  8
0
 62
256
370
-1
  6
ByLayer
 10
686.0
 20
297.5
 30
0.0
 11
696.0
 21
297.5
 31
0.0
  0
LINE
  5
BD
100
AcDbEntity
100
AcDbLine
  8
0
 62
256
370
-1
  6
ByLayer
 10
688.0
 20
297.5
 30
0.0
 11
688.0
 21
247.5
 31
0.0
  0
LINE
  5
BE
100
AcDbEntity
100
AcDbLine
  8
0
 62
256
370
-1
  6
ByLayer
 10
688.0
 20
247.5
 30
0.0
 11
693.0
 21
247.5
 31
0.0
  0
LINE
  5
BF
100
AcDbEntity
100
AcDbLine
  8
0
 62
256
370
-1
  6
ByLayer
 10
693.0
 20
247.5
 30
0.0
 11
693.0
 21
297.5
 31
0.0
  0
LINE
  5
C0
100
AcDbEntity
100
AcDbLine
  8
0
 62
256
370
-1
  6
ByLayer
 10
705.0
 20
297.5
 30
0.0
 11
705.0
 21
302.5
 31
0.0
  0
LINE
  5
C1
100
AcDbEntity
100
AcDbLine
  8
0
 62
256
370
-1
  6
ByLayer
 10
704.0
 20
302.5
 30
0.0
 11
714.0
 21
302.5
 31
0.0
  0
LINE
  5
C2
100
AcDbEntity
100
AcDbLine
  8
0
 62
256
370
-1
  6
ByLayer
 10
713.9999999999998863
 20
297.5
 30
0.0
 11
704.0
 21
297.5
 31
0.0
  0
LINE
  5
C3
100
AcDbEntity
100
AcDbLine
  8
0
 62
256
370
-1
  6
ByLayer
 10
712.0
 20
297.5
 30
0.0
 11
712.0
 21
247.5
 31
0.0
  0
LINE
  5
C4
100
AcDbEntity
100
AcDbLine
  8
0
 62
256
370
-1
  6
ByLayer
 10
712.0
 20
247.5
 30
0.0
 11
707.0
 21
247.5
 31
0.0
  0
LINE
  5
C5
100
AcDbEntity
100
AcDbLine
  8
0
 62
256
370
-1
  6
ByLayer
 10
707.0
 20
247.5
 30
0.0
 11
707.0
 21
297.5
 31
0.0
  0
LINE
  5
C6
100
AcDbEntity
100
AcDbLine
  8
0
 62
256
370
-1
  6
ByLayer
 10
700.0
 20
247.5000000000000284
 30
0.0
 11
655.0
 21
247.5
 31
0.0
  0
LINE
  5
C7
100
AcDbEntity
100
AcDbLine
  8
0
 62
256
370
-1
  6
ByLayer
 10
655.0
 20
247.5
 30
0.0
 11
655.0
 21
242.5
 31
0.0
  0
LINE
  5
C8
100
AcDbEntity
100
AcDbLine
  8
0
 62
256
370
-1
  6
ByLayer
 10
655.0
 20
242.5
 30
0.0
 11
700.0
 21
242.5
 31
0.0
  0
LINE
  5
C9
100
AcDbEntity
100
AcDbLine
  8
0
 62
256
370
-1
  6
ByLayer
 10
712.0
 20
247.5
 30
0.0
 11
707.0
 21
247.5
 31
0.0
  0
LINE
  5
CA
100
AcDbEntity
100
AcDbLine
  8
0
 62
256
370
-1
  6
ByLayer
 10
700.0
 20
247.5000000000000284
 30
0.0
 11
745.0
 21
247.5
 31
0.0
  0
LINE
  5
CB
100
AcDbEntity
100
AcDbLine
  8
0
 62
256
370
-1
  6
ByLayer
 10
745.0
 20
247.5
 30
0.0
 11
745.0
 21
242.5
 31
0.0
  0
LINE
  5
CC
100
AcDbEntity
100
AcDbLine
  8
0
 62
256
370
-1
  6
ByLayer
 10
745.0
 20
242.5
 30
0.0
 11
700.0
 21
242.5
 31
0.0
  0
LINE
  5
CD
100
AcDbEntity
100
AcDbLine
  8
0
 62
256
370
-1
  6
ByLayer
 10
722.0
 20
300.0
 30
0.0
 11
722.0
 21
302.5
 31
0.0
  0
LINE
  5
CE
100
AcDbEntity
100
AcDbLine
  8
0
 62
256
370
-1
  6
ByLayer
 10
722.0
 20
302.5
 30
0.0
 11
738.0
 21
302.5
 31
0.0
  0
LINE
  5
CF
100
AcDbEntity
100
AcDbLine
  8
0
 62
256
370
-1
  6
ByLayer
 10
738.0
 20
302.5
 30
0.0
 11
738.0
 21
297.5
 31
0.0
  0
LINE
  5
D0
100
AcDbEntity
100
AcDbLine
  8
0
 62
256
370
-1
  6
ByLayer
 10
738.0
 20
297.5
 30
0.0
 11
722.0
 21
297.5
 31
0.0
  0
LINE
  5
D1
100
AcDbEntity
100
AcDbLine
  8
0
 62
256
370
-1
  6
ByLayer
 10
722.0
 20
297.5
 30
0.0
 11
722.0
 21
300.0
 31
0.0
  0
LINE
  5
D2
100
AcDbEntity
100
AcDbLine
  8
0
 62
256
370
-1
  6
ByLayer
 10
722.0
 20
297.5
 30
0.0
 11
738.0
 21
302.5
 31
0.0
  0
LINE
  5
D3
100
AcDbEntity
100
AcDbLine
  8
0
 62
256
370
-1
  6
ByLayer
 10
738.0
 20
297.5000000000000568
 30
0.0
 11
722.0
 21
302.5000000000000568
 31
0.0
  0
LINE
  5
D4
100
AcDbEntity
100
AcDbLine
  8
0
 62
256
370
-1
  6
ByLayer
 10
738.0
 20
302.5
 30
0.0
 11
745.0
 21
302.5
 31
0.0
  0
LINE
  5
D5
100
AcDbEntity
100
AcDbLine
  8
0
 62
256
370
-1
  6
ByLayer
 10
745.0
 20
302.5
 30
0.0
 11
745.0
 21
297.5
 31
0.0
  0
LINE
  5
D6
100
AcDbEntity
100
AcDbLine
  8
0
 62
256
370
-1
  6
ByLayer
 10
745.0
 20
297.5
 30
0.0
 11
738.0
 21
297.5
 31
0.0
  0
LINE
  5
D7
100
AcDbEntity
100
AcDbLine
  8
0
 62
256
370
-1
  6
ByLayer
 10
722.0
 20
302.5
 30
0.0
 11
714.0
 21
302.5
 31
0.0
  0
LINE
  5
D8
100
AcDbEntity
100
AcDbLine
  8
0
 62
256
370
-1
  6
ByLayer
 10
714.0
 20
297.5
 30
0.0
 11
722.0
 21
297.5
 31
0.0
  0
LINE
  5
D9
100
AcDbEntity
100
AcDbLine
  8
0
 62
256
370
-1
  6
ByLayer
 10
678.0
 20
300.0
 30
0.0
 11
678.0
 21
302.5
 31
0.0
  0
LINE
  5
DA
100
AcDbEntity
100
AcDbLine
  8
0
 62
256
370
-1
  6
ByLayer
 10
678.0
 20
302.5
 30
0.0
 11
662.0
 21
302.5
 31
0.0
  0
LINE
  5
DB
100
AcDbEntity
100
AcDbLine
  8
0
 62
256
370
-1
  6
ByLayer
 10
662.0
 20
302.5
 30
0.0
 11
662.0
 21
297.5
 31
0.0
  0
LINE
  5
DC
100
AcDbEntity
100
AcDbLine
  8
0
 62
256
370
-1
  6
ByLayer
 10
662.0
 20
297.5
 30
0.0
 11
678.0
 21
297.5
 31
0.0
  0
LINE
  5
DD
100
AcDbEntity
100
AcDbLine
  8
0
 62
256
370
-1
  6
ByLayer
 10
678.0
 20
297.5
 30
0.0
 11
678.0
 21
300.0
 31
0.0
  0
LINE
  5
DE
100
AcDbEntity
100
AcDbLine
  8
0
 62
256
370
-1
  6
ByLayer
 10
678.0
 20
297.5
 30
0.0
 11
662.0
 21
302.5
 31
0.0
  0
LINE
  5
DF
100
AcDbEntity
100
AcDbLine
  8
0
 62
256
370
-1
  6
ByLayer
 10
662.0
 20
297.5000000000000568
 30
0.0
 11
678.0
 21
302.5000000000000568
 31
0.0
  0
LINE
  5
E0
100
AcDbEntity
100
AcDbLine
  8
0
 62
256
370
-1
  6
ByLayer
 10
662.0
 20
302.5
 30
0.0
 11
655.0
 21
302.5000000000000568
 31
0.0
  0
LINE
  5
E1
100
AcDbEntity
100
AcDbLine
  8
0
 62
256
370
-1
  6
ByLayer
 10
655.0
 20
302.5000000000000568
 30
0.0
 11
655.0
 21
297.5
 31
0.0
  0
LINE
  5
E2
100
AcDbEntity
100
AcDbLine
  8
0
 62
256
370
-1
  6
ByLayer
 10
655.0
 20
297.5
 30
0.0
 11
662.0
 21
297.5
 31
0.0
  0
LINE
  5
E3
100
AcDbEntity
100
AcDbLine
  8
0
 62
256
370
-1
  6
ByLayer
 10
678.0
 20
302.5
 30
0.0
 11
686.0
 21
302.5
 31
0.0
  0
LINE
  5
E4
100
AcDbEntity
100
AcDbLine
  8
0
 62
256
370
-1
  6
ByLayer
 10
686.0
 20
297.5
 30
0.0
 11
678.0
 21
297.5
 31
0.0
  0
LINE
  5
E5
100
AcDbEntity
100
AcDbLine
  8
noname
 62
256
370
-1
  6
ByLayer
 10
693.0000000000001137
 20
297.5000000000000568
 30
0.0
 11
693.0000000000001137
 21
292.5
 31
0.0
  0
LINE
  5
E6
100
AcDbEntity
100
AcDbLine
  8
noname
 62
256
370
-1
  6
ByLayer
 10
693.0000000000001137
 20
292.5
 30
0.0
 11
707.0
 21
292.5
 31
0.0
  0
LINE
  5
E7
100
AcDbEntity
100
AcDbLine
  8
noname
 62
256
370
-1
  6
ByLayer
 10
707.0
 20
292.5
 30
0.0
 11
707.0
 21
297.5
 31
0.0
  0
LINE
  5
E8
100
AcDbEntity
100
AcDbLine
  8
noname
 62
256
370
-1
  6
ByLayer
 10
707.0
 20
297.5
 30
0.0
 11
693.0000000000001137
 21
297.5
 31
0.0
  0
LINE
  5
E9
100
AcDbEntity
100
AcDbLine
  8
noname
 62
256
370
-1
  6
ByLayer
 10
693.0000000000001137
 20
302.5
 30
0.0
 11
690.0000000000001137
 21
302.5
 31
0.0
  0
LINE
  5
EA
100
AcDbEntity
100
AcDbLine
  8
noname
 62
256
370
-1
  6
ByLayer
 10
690.0000000000001137
 20
302.5
 30
0.0
 11
690.0
 21
312.5
 31
0.0
  0
LINE
  5
EB
100
AcDbEntity
100
AcDbLine
  8
noname
 62
256
370
-1
  6
ByLayer
 10
710.0
 20
312.5
 30
0.0
 11
710.0
 21
302.5
 31
0.0
  0
ARC
  5
EC
100
AcDbEntity
  8
noname
 62
256
370
-1
  6
ByLayer
100
AcDbCircle
 10
700.0
 20
312.5000000000000568
 30
0.0
 40
9.9999999999998863
100
AcDbArc
 50
359.9999999999997158
 51
180.0
  0
CIRCLE
  5
ED
100
AcDbEntity
100
AcDbCircle
  8
noname
 62
256
370
-1
  6
ByLayer
 10
700.0
 20
312.5000000000000568
 30
0.0
 40
1.5
  0
LINE
  5
EE
100
AcDbEntity
100
AcDbLine
  8
noname
 62
256
370
-1
  6
ByLayer
 10
707.0
 20
297.5
 30
0.0
 11
707.0
 21
302.5000000000000568
 31
0.0
  0
LINE
  5
EF
100
AcDbEntity
100
AcDbLine
  8
noname
 62
256
370
-1
  6
ByLayer
 10
707.0
 20
302.5000000000000568
 30
0.0
 11
710.0
 21
302.5000000000000568
 31
0.0
  0
LINE
  5
F0
100
AcDbEntity
100
AcDbLine
  8
noname
 62
256
370
-1
  6
ByLayer
 10
693.0
 20
302.5
 30
0.0
 11
693.0
 21
297.5
 31
0.0
  0
LINE
  5
F1
100
AcDbEntity
100
AcDbLine
  8
noname
 62
256
370
-1
  6
ByLayer
 10
700.0
 20
0.0
 30
0.0
 11
995.0
 21
0.0
 31
0.0
  0
LINE
  5
F2
100
AcDbEntity
100
AcDbLine
  8
noname
 62
256
370
-1
  6
ByLayer
 10
995.0
 20
0.0
 30
0.0
 11
995.0
 21
-97.0
 31
0.0
  0
LINE
  5
F3
100
AcDbEntity
100
AcDbLine
  8
noname
 62
256
370
-1
  6
ByLayer
 10
700.0
 20
-97.0
 30
0.0
 11
700.0
 21
0.0
 31
0.0
  0
CIRCLE
  5
F4
100
AcDbEntity
100
AcDbCircle
  8
noname
 62
256
370
-1
  6
ByLayer
 10
717.5000000000001137
 20
-12.5000000000000018
 30
0.0
 40
7.5
  0
CIRCLE
  5
F5
100
AcDbEntity
100
AcDbCircle
  8
noname
 62
256
370
-1
  6
ByLayer
 10
737.5000000000001137
 20
-12.5000000000000018
 30
0.0
 40
7.5
  0
CIRCLE
  5
F6
100
AcDbEntity
100
AcDbCircle
  8
noname
 62
256
370
-1
  6
ByLayer
 10
757.5000000000001137
 20
-12.5000000000000018
 30
0.0
 40
7.5
  0
CIRCLE
  5
F7
100
AcDbEntity
100
AcDbCircle
  8
noname
 62
256
370
-1
  6
ByLayer
 10
777.5000000000001137
 20
-12.5000000000000018
 30
0.0
 40
7.5
  0
CIRCLE
  5
F8
100
AcDbEntity
100
AcDbCircle
  8
noname
 62
256
370
-1
  6
ByLayer
 10
797.5000000000001137
 20
-12.5000000000000018
 30
0.0
 40
7.5
  0
CIRCLE
  5
F9
100
AcDbEntity
100
AcDbCircle
  8
noname
 62
256
370
-1
  6
ByLayer
 10
817.5000000000001137
 20
-12.5000000000000018
 30
0.0
 40
7.5
  0
CIRCLE
  5
FA
100
AcDbEntity
100
AcDbCircle
  8
noname
 62
256
370
-1
  6
ByLayer
 10
837.5000000000001137
 20
-12.5000000000000018
 30
0.0
 40
7.5
  0
CIRCLE
  5
FB
100
AcDbEntity
100
AcDbCircle
  8
noname
 62
256
370
-1
  6
ByLayer
 10
857.5000000000001137
 20
-12.5000000000000018
 30
0.0
 40
7.5
  0
CIRCLE
  5
FC
100
AcDbEntity
100
AcDbCircle
  8
noname
 62
256
370
-1
  6
ByLayer
 10
877.5000000000001137
 20
-12.5000000000000018
 30
0.0
 40
7.5
  0
CIRCLE
  5
FD
100
AcDbEntity
100
AcDbCircle
  8
noname
 62
256
370
-1
  6
ByLayer
 10
897.5000000000001137
 20
-12.5000000000000018
 30
0.0
 40
7.5
  0
CIRCLE
  5
FE
100
AcDbEntity
100
AcDbCircle
  8
noname
 62
256
370
-1
  6
ByLayer
 10
917.5000000000001137
 20
-12.5000000000000018
 30
0.0
 40
7.5
  0
CIRCLE
  5
FF
100
AcDbEntity
100
AcDbCircle
  8
noname
 62
256
370
-1
  6
ByLayer
 10
937.5000000000001137
 20
-12.5000000000000018
 30
0.0
 40
7.5
  0
CIRCLE
  5
100
100
AcDbEntity
100
AcDbCircle
  8
noname
 62
256
370
-1
  6
ByLayer
 10
957.5000000000001137
 20
-12.5000000000000018
 30
0.0
 40
7.5
  0
CIRCLE
  5
101
100
AcDbEntity
100
AcDbCircle
  8
noname
 62
256
370
-1
  6
ByLayer
 10
977.5000000000001137
 20
-12.5000000000000018
 30
0.0
 40
7.5
  0
CIRCLE
  5
102
100
AcDbEntity
100
AcDbCircle
  8
noname
 62
256
370
-1
  6
ByLayer
 10
717.5000000000001137
 20
-12.5000000000000018
 30
0.0
 40
0.5
  0
CIRCLE
  5
103
100
AcDbEntity
100
AcDbCircle
  8
noname
 62
256
370
-1
  6
ByLayer
 10
737.5
 20
-12.5000000000000018
 30
0.0
 40
0.5
  0
CIRCLE
  5
104
100
AcDbEntity
100
AcDbCircle
  8
noname
 62
256
370
-1
  6
ByLayer
 10
757.4999999999998863
 20
-12.5000000000000018
 30
0.0
 40
0.5
  0
CIRCLE
  5
105
100
AcDbEntity
100
AcDbCircle
  8
noname
 62
256
370
-1
  6
ByLayer
 10
777.4999999999997726
 20
-12.5000000000000018
 30
0.0
 40
0.5
  0
CIRCLE
  5
106
100
AcDbEntity
100
AcDbCircle
  8
noname
 62
256
370
-1
  6
ByLayer
 10
797.4999999999996589
 20
-12.5000000000000018
 30
0.0
 40
0.5
  0
CIRCLE
  5
107
100
AcDbEntity
100
AcDbCircle
  8
noname
 62
256
370
-1
  6
ByLayer
 10
817.4999999999995453
 20
-12.5000000000000018
 30
0.0
 40
0.5
  0
CIRCLE
  5
108
100
AcDbEntity
100
AcDbCircle
  8
noname
 62
256
370
-1
  6
ByLayer
 10
837.4999999999994316
 20
-12.5000000000000018
 30
0.0
 40
0.5
  0
CIRCLE
  5
109
100
AcDbEntity
100
AcDbCircle
  8
noname
 62
256
370
-1
  6
ByLayer
 10
857.4999999999993179
 20
-12.5000000000000018
 30
0.0
 40
0.5
  0
CIRCLE
  5
10A
100
AcDbEntity
100
AcDbCircle
  8
noname
 62
256
370
-1
  6
ByLayer
 10
877.4999999999992042
 20
-12.5000000000000018
 30
0.0
 40
0.5
  0
CIRCLE
  5
10B
100
AcDbEntity
100
AcDbCircle
  8
noname
 62
256
370
-1
  6
ByLayer
 10
897.4999999999990905
 20
-12.5000000000000018
 30
0.0
 40
0.5
  0
CIRCLE
  5
10C
100
AcDbEntity
100
AcDbCircle
  8
noname
 62
256
370
-1
  6
ByLayer
 10
917.4999999999989768
 20
-12.5000000000000018
 30
0.0
 40
0.5
  0
CIRCLE
  5
10D
100
AcDbEntity
100
AcDbCircle
  8
noname
 62
256
370
-1
  6
ByLayer
 10
937.4999999999988631
 20
-12.5000000000000018
 30
0.0
 40
0.5
  0
CIRCLE
  5
10E
100
AcDbEntity
100
AcDbCircle
  8
noname
 62
256
370
-1
  6
ByLayer
 10
957.4999999999987494
 20
-12.5000000000000018
 30
0.0
 40
0.5
  0
CIRCLE
  5
10F
100
AcDbEntity
100
AcDbCircle
  8
noname
 62
256
370
-1
  6
ByLayer
 10
977.4999999999986358
 20
-12.5000000000000018
 30
0.0
 40
0.5
  0
LINE
  5
110
100
AcDbEntity
100
AcDbLine
  8
noname
 62
256
370
-1
  6
ByLayer
 10
500.0
 20
0.0
 30
0.0
 11
597.0
 21
0.0
 31
0.0
  0
LINE
  5
111
100
AcDbEntity
100
AcDbLine
  8
noname
 62
256
370
-1
  6
ByLayer
 10
500.0
 20
0.0
 30
0.0
 11
500.0
 21
-5.0
 31
0.0
  0
LINE
  5
112
100
AcDbEntity
100
AcDbLine
  8
noname
 62
256
370
-1
  6
ByLayer
 10
500.0
 20
-5.0
 30
0.0
 11
597.0
 21
-5.0
 31
0.0
  0
LINE
  5
113
100
AcDbEntity
100
AcDbLine
  8
noname
 62
256
370
-1
  6
ByLayer
 10
530.0
 20
-5.0
 30
0.0
 11
530.0
 21
-8.0
 31
0.0
  0
LINE
  5
114
100
AcDbEntity
100
AcDbLine
  8
noname
 62
256
370
-1
  6
ByLayer
 10
530.0
 20
-8.0
 30
0.0
 11
570.0
 21
-8.0
 31
0.0
  0
LINE
  5
115
100
AcDbEntity
100
AcDbLine
  8
noname
 62
256
370
-1
  6
ByLayer
 10
570.0
 20
-8.0
 30
0.0
 11
570.0
 21
-5.0
 31
0.0
  0
LINE
  5
116
100
AcDbEntity
100
AcDbLine
  8
noname
 62
256
370
-1
  6
ByLayer
 10
570.0
 20
-5.0
 30
0.0
 11
530.0
 21
-5.0
 31
0.0
  0
ARC
  5
117
100
AcDbEntity
  8
noname2
 62
256
370
-1
  6
ByLayer
100
AcDbCircle
 10
0.0
 20
0.0
 30
0.0
 40
0.0
100
AcDbArc
 50
0.0
 51
0.0
  0
ARC
  5
118
100
AcDbEntity
  8
noname2
 62
256
370
-1
  6
ByLayer
100
AcDbCircle
 10
480.0
 20
-73.0
 30
0.0
 40
5.0
100
AcDbArc
 50
180.0
 51
270.0
  0
ARC
  5
119
100
AcDbEntity
  8
noname2
 62
256
370
-1
  6
ByLayer
100
AcDbCircle
 10
530.0
 20
-10.0
 30
0.0
 40
5.0
100
AcDbArc
 50
90.0
 51
180.0
  0
LINE
  5
11A
100
AcDbEntity
100
AcDbLine
  8
noname2
 62
256
370
-1
  6
ByLayer
 10
530.0
 20
-5.0
 30
0.0
 11
550.0
 21
-5.0
 31
0.0
  0
LINE
  5
11B
100
AcDbEntity
100
AcDbLine
  8
noname
 62
256
370
-1
  6
ByLayer
 10
535.857864376269049
 20
-55.857864376269049
 30
0.0
 11
550.0
 21
-70.0
 31
0.0
  0
LINE
  5
11C
100
AcDbEntity
100
AcDbLine
  8
noname
 62
256
370
-1
  6
ByLayer
 10
550.0
 20
-70.0
 30
0.0
 11
564.142135623730951
 21
-55.857864376269049
 31
0.0
  0
LINE
  5
11D
100
AcDbEntity
100
AcDbLine
  8
noname
 62
256
370
-1
  6
ByLayer
 10
564.142135623730951
 20
-55.857864376269049
 30
0.0
 11
562.0208152801712913
 21
-53.7365440327094035
 31
0.0
  0
LINE
  5
11E
100
AcDbEntity
100
AcDbLine
  8
noname
 62
256
370
-1
  6
ByLayer
 10
562.0208152801712913
 20
-53.7365440327094035
 30
0.0
 11
550.0
 21
-65.757359312880709
 31
0.0
  0
LINE
  5
11F
100
AcDbEntity
100
AcDbLine
  8
noname
 62
256
370
-1
  6
ByLayer
 10
550.0
 20
-65.757359312880709
 30
0.0
 11
537.9791847198287087
 21
-53.7365440327094035
 31
0.0
  0
LINE
  5
120
100
AcDbEntity
100
AcDbLine
  8
noname
 62
256
370
-1
  6
ByLayer
 10
537.9791847198287087
 20
-53.7365440327094035
 30
0.0
 11
535.857864376269049
 21
-55.857864376269049
 31
0.0
  0
LINE
  5
121
100
AcDbEntity
100
AcDbLine
  8
noname
 62
256
370
-1
  6
ByLayer
 10
480.0
 20
-81.0
 30
0.0
 11
480.0
 21
-66.0
 31
0.0
  0
LINE
  5
122
100
AcDbEntity
100
AcDbLine
  8
noname
 62
256
370
-1
  6
ByLayer
 10
480.0
 20
-81.0
 30
0.0
 11
500.0
 21
-81.0
 31
0.0
  0
LINE
  5
123
100
AcDbEntity
100
AcDbLine
  8
noname
 62
256
370
-1
  6
ByLayer
 10
500.0
 20
-81.0
 30
0.0
 11
500.0
 21
-66.0
 31
0.0
  0
LINE
  5
124
100
AcDbEntity
100
AcDbLine
  8
noname
 62
256
370
-1
  6
ByLayer
 10
500.0
 20
-78.0
 30
0.0
 11
480.0
 21
-78.0
 31
0.0
  0
ARC
  5
125
100
AcDbEntity
  8
noname
 62
256
370
-1
  6
ByLayer
100
AcDbCircle
 10
490.0
 20
-66.0
 30
0.0
 40
10.0
100
AcDbArc
 50
0.0
 51
180.0
  0
LINE
  5
126
100
AcDbEntity
100
AcDbLine
  8
noname
 62
256
370
-1
  6
ByLayer
 10
488.0
 20
-78.0
 30
0.0
 11
488.0
 21
-81.0
 31
0.0
  0
LINE
  5
127
100
AcDbEntity
100
AcDbLine
  8
noname
 62
256
370
-1
  6
ByLayer
 10
492.0
 20
-81.0
 30
0.0
 11
492.0
 21
-78.0
 31
0.0
  0
ARC
  5
128
100
AcDbEntity
  8
noname
 62
256
370
-1
  6
ByLayer
100
AcDbCircle
 10
490.0
 20
-78.0
 30
0.0
 40
5.0
100
AcDbArc
 50
216.86989764584402
 51
323.1301023541560085
  0
CIRCLE
  5
129
100
AcDbEntity
100
AcDbCircle
  8
noname
 62
256
370
-1
  6
ByLayer
 10
490.0
 20
-66.0
 30
0.0
 40
1.5
  0
LINE
  5
12A
100
AcDbEntity
100
AcDbLine
  8
noname
 62
256
370
-1
  6
ByLayer
 10
600.0
 20
-81.0
 30
0.0
 11
600.0
 21
-66.0
 31
0.0
  0
LINE
  5
12B
100
AcDbEntity
100
AcDbLine
  8
noname
 62
256
370
-1
  6
ByLayer
 10
600.0
 20
-81.0
 30
0.0
 11
620.0
 21
-81.0
 31
0.0
  0
LINE
  5
12C
100
AcDbEntity
100
AcDbLine
  8
noname
 62
256
370
-1
  6
ByLayer
 10
620.0
 20
-81.0
 30
0.0
 11
620.0
 21
-66.0
 31
0.0
  0
LINE
  5
12D
100
AcDbEntity
100
AcDbLine
  8
noname
 62
256
370
-1
  6
ByLayer
 10
620.0
 20
-78.0
 30
0.0
 11
600.0
 21
-78.0
 31
0.0
  0
ARC
  5
12E
100
AcDbEntity
  8
noname
 62
256
370
-1
  6
ByLayer
100
AcDbCircle
 10
610.0
 20
-66.0
 30
0.0
 40
10.0
100
AcDbArc
 50
0.0
 51
180.0
  0
LINE
  5
12F
100
AcDbEntity
100
AcDbLine
  8
noname
 62
256
370
-1
  6
ByLayer
 10
608.0
 20
-78.0
 30
0.0
 11
608.0
 21
-81.0
 31
0.0
  0
LINE
  5
130
100
AcDbEntity
100
AcDbLine
  8
noname
 62
256
370
-1
  6
ByLayer
 10
612.0
 20
-81.0
 30
0.0
 11
612.0
 21
-78.0
 31
0.0
  0
ARC
  5
131
100
AcDbEntity
  8
noname
 62
256
370
-1
  6
ByLayer
100
AcDbCircle
 10
610.0
 20
-78.0
 30
0.0
 40
5.0
100
AcDbArc
 50
216.86989764584402
 51
323.1301023541560085
  0
CIRCLE
  5
132
100
AcDbEntity
100
AcDbCircle
  8
noname
 62
256
370
-1
  6
ByLayer
 10
610.0
 20
-66.0
 30
0.0
 40
1.5
  0
ARC
  5
133
100
AcDbEntity
  8
noname2
 62
256
370
-1
  6
ByLayer
100
AcDbCircle
 10
490.0
 20
-66.0
 30
0.0
 40
15.0332963783729081
100
AcDbArc
 50
90.0
 51
180.0
  0
ARC
  5
134
100
AcDbEntity
  8
noname2
 62
256
370
-1
  6
ByLayer
100
AcDbCircle
 10
483.2880184331797295
 20
-9.6797235023041566
 30
0.0
 40
41.7132111358707292
100
AcDbArc
 50
277.8705029110134888
 51
359.5600752998440726
  0
ARC
  5
135
100
AcDbEntity
  8
noname2
 62
256
370
-1
  6
ByLayer
100
AcDbCircle
 10
500.0
 20
-73.0
 30
0.0
 40
5.0
100
AcDbArc
 50
270.0
 51
0.0
  0
ARC
  5
136
100
AcDbEntity
  8
noname2
 62
256
370
-1
  6
ByLayer
100
AcDbCircle
 10
514.8000000000000682
 20
-108.6749999999999829
 30
0.0
 40
46.6904232685890079
100
AcDbArc
 50
41.0704852785724412
 51
88.5272674304775506
  0
ARC
  5
137
100
AcDbEntity
  8
noname2
 62
256
370
-1
  6
ByLayer
100
AcDbCircle
 10
516.0
 20
-73.0
 30
0.0
 40
11.0
100
AcDbArc
 50
90.0
 51
180.0
  0
LINE
  5
138
100
AcDbEntity
100
AcDbLine
  8
noname2
 62
256
370
-1
  6
ByLayer
 10
480.0
 20
-78.0
 30
0.0
 11
500.0
 21
-78.0
 31
0.0
  0
ARC
  5
139
100
AcDbEntity
  8
noname2
 62
256
370
-1
  6
ByLayer
100
AcDbCircle
 10
620.0
 20
-73.0
 30
0.0
 40
5.0
100
AcDbArc
 50
270.0
 51
0.0
  0
ARC
  5
13A
100
AcDbEntity
  8
noname2
 62
256
370
-1
  6
ByLayer
100
AcDbCircle
 10
570.0
 20
-10.0
 30
0.0
 40
5.0
100
AcDbArc
 50
0.0
 51
90.0
  0
LINE
  5
13B
100
AcDbEntity
100
AcDbLine
  8
noname2
 62
256
370
-1
  6
ByLayer
 10
570.0
 20
-5.0000000000000071
 30
0.0
 11
550.0
 21
-5.0
 31
0.0
  0
ARC
  5
13C
100
AcDbEntity
  8
noname2
 62
256
370
-1
  6
ByLayer
100
AcDbCircle
 10
610.0
 20
-66.0
 30
0.0
 40
15.0332963783729081
100
AcDbArc
 50
0.0
 51
90.0
  0
ARC
  5
13D
100
AcDbEntity
  8
noname2
 62
256
370
-1
  6
ByLayer
100
AcDbCircle
 10
616.7119815668203273
 20
-9.6797235023041743
 30
0.0
 40
41.7132111358707292
100
AcDbArc
 50
180.4399247001559274
 51
262.1294970889865112
  0
ARC
  5
13E
100
AcDbEntity
  8
noname2
 62
256
370
-1
  6
ByLayer
100
AcDbCircle
 10
600.0
 20
-72.9999999999999858
 30
0.0
 40
5.0
100
AcDbArc
 50
180.0
 51
270.0
  0
ARC
  5
13F
100
AcDbEntity
  8
noname2
 62
256
370
-1
  6
ByLayer
100
AcDbCircle
 10
585.1999999999999318
 20
-108.6750000000000114
 30
0.0
 40
46.6904232685890079
100
AcDbArc
 50
91.4727325695224494
 51
138.9295147214275516
  0
ARC
  5
140
100
AcDbEntity
  8
noname2
 62
256
370
-1
  6
ByLayer
100
AcDbCircle
 10
584.0
 20
-73.0
 30
0.0
 40
11.0
100
AcDbArc
 50
0.0
 51
90.0
  0
LINE
  5
141
100
AcDbEntity
100
AcDbLine
  8
noname2
 62
256
370
-1
  6
ByLayer
 10
620.0
 20
-78.0
 30
0.0
 11
600.0
 21
-78.0
 31
0.0
  0
CIRCLE
  5
142
100
AcDbEntity
100
AcDbCircle
  8
noname2
 62
256
370
-1
  6
ByLayer
 10
490.0
 20
-66.0
 30
0.0
 40
2.0
  0
CIRCLE
  5
143
100
AcDbEntity
100
AcDbCircle
  8
noname2
 62
256
370
-1
  6
ByLayer
 10
610.0
 20
-66.0
 30
0.0
 40
2.0
  0
LINE
  5
144
100
AcDbEntity
100
AcDbLine
  8
noname
 62
256
370
-1
  6
ByLayer
 10
528.0
 20
-31.0
 30
0.0
 11
534.0
 21
-28.0
 31
0.0
  0
ARC
  5
145
100
AcDbEntity
  8
noname
 62
256
370
-1
  6
ByLayer
100
AcDbCircle
 10
550.0
 20
-40.0
 30
0.0
 40
20.0
100
AcDbArc
 50
36.86989764584402
 51
143.13010235415598
  0
LINE
  5
146
100
AcDbEntity
100
AcDbLine
  8
noname
 62
256
370
-1
  6
ByLayer
 10
572.0
 20
-30.9999999999999964
 30
0.0
 11
566.0
 21
-27.9999999999999964
 31
0.0
  0
ARC
  5
147
100
AcDbEntity
  8
noname
 62
256
370
-1
  6
ByLayer
100
AcDbCircle
 10
725.0
 20
-33.0
 30
0.0
 40
3.0
100
AcDbArc
 50
270.0
 51
90.0
  0
ARC
  5
148
100
AcDbEntity
  8
noname
 62
256
370
-1
  6
ByLayer
100
AcDbCircle
 10
725.0
 20
-67.0
 30
0.0
 40
3.0
100
AcDbArc
 50
270.0
 51
90.0
  0
ARC
  5
149
100
AcDbEntity
  8
noname
 62
256
370
-1
  6
ByLayer
100
AcDbCircle
 10
730.8333333333332575
 20
-49.9999999999999929
 30
0.0
 40
15.166666666666659
100
AcDbArc
 50
112.6198649480401599
 51
247.3801350519598259
  0
ARC
  5
14A
100
AcDbEntity
  8
noname
 62
256
370
-1
  6
ByLayer
100
AcDbCircle
 10
721.6599999999999682
 20
-47.0999999999999801
 30
0.0
 40
17.423134046433745
100
AcDbArc
 50
78.9480386756667798
 51
162.9794743884801846
  0
ARC
  5
14B
100
AcDbEntity
  8
noname
 62
256
370
-1
  6
ByLayer
100
AcDbCircle
 10
721.6599999999999682
 20
-52.9000000000000199
 30
0.0
 40
17.423134046433745
100
AcDbArc
 50
197.0205256115198154
 51
281.051961324333206
  0
LINE
  5
14C
100
AcDbEntity
100
AcDbLine
  8
noname
 62
256
370
-1
  6
ByLayer
 10
705.0
 20
-58.0
 30
0.0
 11
705.0
 21
-42.0
 31
0.0
  0
LINE
  5
14D
100
AcDbEntity
100
AcDbLine
  8
noname
 62
256
370
-1
  6
ByLayer
 10
705.0
 20
-50.0
 30
0.0
 11
705.0
 21
-30.0
 31
0.0
  0
LINE
  5
14E
100
AcDbEntity
100
AcDbLine
  8
noname
 62
256
370
-1
  6
ByLayer
 10
705.0
 20
-30.0
 30
0.0
 11
700.0
 21
-30.0
 31
0.0
  0
LINE
  5
14F
100
AcDbEntity
100
AcDbLine
  8
noname
 62
256
370
-1
  6
ByLayer
 10
700.0
 20
-30.0
 30
0.0
 11
700.0
 21
-70.0
 31
0.0
  0
LINE
  5
150
100
AcDbEntity
100
AcDbLine
  8
noname
 62
256
370
-1
  6
ByLayer
 10
700.0
 20
-70.0
 30
0.0
 11
705.0
 21
-70.0
 31
0.0
  0
LINE
  5
151
100
AcDbEntity
100
AcDbLine
  8
noname
 62
256
370
-1
  6
ByLayer
 10
705.0
 20
-70.0
 30
0.0
 11
705.0
 21
-58.0
 31
0.0
  0
CIRCLE
  5
152
100
AcDbEntity
100
AcDbCircle
  8
noname2
 62
256
370
-1
  6
ByLayer
 10
560.0
 20
-15.0
 30
0.0
 40
2.0
  0
CIRCLE
  5
153
100
AcDbEntity
100
AcDbCircle
  8
noname2
 62
256
370
-1
  6
ByLayer
 10
540.0
 20
-15.0
 30
0.0
 40
2.0
  0
CIRCLE
  5
154
100
AcDbEntity
100
AcDbCircle
  8
noname
 62
256
370
-1
  6
ByLayer
 10
540.0
 20
-15.0
 30
0.0
 40
1.5000000000000036
  0
CIRCLE
  5
155
100
AcDbEntity
100
AcDbCircle
  8
noname
 62
256
370
-1
  6
ByLayer
 10
560.0
 20
-15.0
 30
0.0
 40
1.5
  0
CIRCLE
  5
156
100
AcDbEntity
100
AcDbCircle
  8
noname
 62
256
370
-1
  6
ByLayer
 10
712.0
 20
-60.0
 30
0.0
 40
1.5000000000000036
  0
CIRCLE
  5
157
100
AcDbEntity
100
AcDbCircle
  8
noname
 62
256
370
-1
  6
ByLayer
 10
712.0
 20
-40.0
 30
0.0
 40
1.5
  0
CIRCLE
  5
158
100
AcDbEntity
100
AcDbCircle
  8
noname2
 62
256
370
-1
  6
ByLayer
 10
712.0
 20
-40.0
 30
0.0
 40
2.0
  0
CIRCLE
  5
159
100
AcDbEntity
100
AcDbCircle
  8
noname2
 62
256
370
-1
  6
ByLayer
 10
712.0
 20
-60.0
 30
0.0
 40
2.0
  0
LINE
  5
15A
100
AcDbEntity
100
AcDbLine
  8
noname2
 62
256
370
-1
  6
ByLayer
 10
475.0
 20
-73.0
 30
0.0
 11
475.0
 21
-66.0
 31
0.0
  0
LINE
  5
15B
100
AcDbEntity
100
AcDbLine
  8
noname2
 62
256
370
-1
  6
ByLayer
 10
625.0
 20
-73.0
 30
0.0
 11
625.0
 21
-66.0
 31
0.0
  0
ARC
  5
15C
100
AcDbEntity
  8
noname
 62
256
370
-1
  6
ByLayer
100
AcDbCircle
 10
550.0
 20
-70.8473684210525931
 30
0.0
 40
20.8473684210525967
100
AcDbArc
 50
54.8574824433550887
 51
125.1425175566449042
  0
CIRCLE
  5
15D
100
AcDbEntity
100
AcDbCircle
  8
noname2
 62
256
370
-1
  6
ByLayer
 10
550.0
 20
-35.0
 30
0.0
 40
10.0
  0
CIRCLE
  5
15E
100
AcDbEntity
100
AcDbCircle
  8
noname2
 62
256
370
-1
  6
ByLayer
 10
550.0
 20
-55.0
 30
0.0
 40
2.0
  0
CIRCLE
  5
15F
100
AcDbEntity
100
AcDbCircle
  8
noname
 62
256
370
-1
  6
ByLayer
 10
550.0
 20
-55.0
 30
0.0
 40
1.5000000000000071
  0
LINE
  5
160
100
AcDbEntity
100
AcDbLine
  8
noname
 62
256
370
-1
  6
ByLayer
 10
1170.0
 20
-5.0
 30
0.0
 11
1130.0
 21
-5.0
 31
0.0
  0
LINE
  5
161
100
AcDbEntity
100
AcDbLine
  8
noname
 62
256
370
-1
  6
ByLayer
 10
1135.8578643762689353
 20
-55.857864376269049
 30
0.0
 11
1150.0
 21
-70.0
 31
0.0
  0
LINE
  5
162
100
AcDbEntity
100
AcDbLine
  8
noname
 62
256
370
-1
  6
ByLayer
 10
1150.0
 20
-70.0
 30
0.0
 11
1164.1421356237310647
 21
-55.857864376269049
 31
0.0
  0
LINE
  5
163
100
AcDbEntity
100
AcDbLine
  8
noname
 62
256
370
-1
  6
ByLayer
 10
1164.1421356237310647
 20
-55.857864376269049
 30
0.0
 11
1162.0208152801712913
 21
-53.7365440327094035
 31
0.0
  0
LINE
  5
164
100
AcDbEntity
100
AcDbLine
  8
noname
 62
256
370
-1
  6
ByLayer
 10
1162.0208152801712913
 20
-53.7365440327094035
 30
0.0
 11
1150.0
 21
-65.757359312880709
 31
0.0
  0
LINE
  5
165
100
AcDbEntity
100
AcDbLine
  8
noname
 62
256
370
-1
  6
ByLayer
 10
1150.0
 20
-65.757359312880709
 30
0.0
 11
1137.9791847198287087
 21
-53.7365440327094035
 31
0.0
  0
LINE
  5
166
100
AcDbEntity
100
AcDbLine
  8
noname
 62
256
370
-1
  6
ByLayer
 10
1137.9791847198287087
 20
-53.7365440327094035
 30
0.0
 11
1135.8578643762689353
 21
-55.857864376269049
 31
0.0
  0
LINE
  5
167
100
AcDbEntity
100
AcDbLine
  8
noname
 62
256
370
-1
  6
ByLayer
 10
1128.0
 20
-31.0
 30
0.0
 11
1134.0
 21
-28.0
 31
0.0
  0
ARC
  5
168
100
AcDbEntity
  8
noname
 62
256
370
-1
  6
ByLayer
100
AcDbCircle
 10
1150.0
 20
-40.0
 30
0.0
 40
20.0
100
AcDbArc
 50
36.86989764584402
 51
143.13010235415598
  0
LINE
  5
169
100
AcDbEntity
100
AcDbLine
  8
noname
 62
256
370
-1
  6
ByLayer
 10
1172.0
 20
-30.9999999999999964
 30
0.0
 11
1166.0
 21
-27.9999999999999964
 31
0.0
  0
CIRCLE
  5
16A
100
AcDbEntity
100
AcDbCircle
  8
noname
 62
256
370
-1
  6
ByLayer
 10
1140.0
 20
-15.0
 30
0.0
 40
1.5000000000000036
  0
CIRCLE
  5
16B
100
AcDbEntity
100
AcDbCircle
  8
noname
 62
256
370
-1
  6
ByLayer
 10
1160.0
 20
-15.0
 30
0.0
 40
1.5
  0
ARC
  5
16C
100
AcDbEntity
  8
noname
 62
256
370
-1
  6
ByLayer
100
AcDbCircle
 10
1150.0
 20
-70.8473684210525931
 30
0.0
 40
20.8473684210525967
100
AcDbArc
 50
54.8574824433550887
 51
125.1425175566449042
  0
CIRCLE
  5
16D
100
AcDbEntity
100
AcDbCircle
  8
noname
 62
256
370
-1
  6
ByLayer
 10
1150.0
 20
-55.0
 30
0.0
 40
1.5000000000000071
  0
ARC
  5
16E
100
AcDbEntity
  8
noname
 62
256
370
-1
  6
ByLayer
100
AcDbCircle
 10
1133.0
 20
15.0
 30
0.0
 40
3.0
100
AcDbArc
 50
360.0
 51
180.0
  0
ARC
  5
16F
100
AcDbEntity
  8
noname
 62
256
370
-1
  6
ByLayer
100
AcDbCircle
 10
1167.0
 20
15.0
 30
0.0
 40
3.0
100
AcDbArc
 50
360.0
 51
180.0
  0
ARC
  5
170
100
AcDbEntity
  8
noname
 62
256
370
-1
  6
ByLayer
100
AcDbCircle
 10
1150.0
 20
20.8333333333332575
 30
0.0
 40
15.166666666666659
100
AcDbArc
 50
202.6198649480401741
 51
337.3801350519598259
  0
ARC
  5
171
100
AcDbEntity
  8
noname
 62
256
370
-1
  6
ByLayer
100
AcDbCircle
 10
1147.0999999999999091
 20
11.6599999999998545
 30
0.0
 40
17.423134046433745
100
AcDbArc
 50
168.948038675666794
 51
252.9794743884801846
  0
ARC
  5
172
100
AcDbEntity
  8
noname
 62
256
370
-1
  6
ByLayer
100
AcDbCircle
 10
1152.9000000000000909
 20
11.6599999999998545
 30
0.0
 40
17.423134046433745
100
AcDbArc
 50
287.0205256115198154
 51
11.0519613243331882
  0
CIRCLE
  5
173
100
AcDbEntity
100
AcDbCircle
  8
noname
 62
256
370
-1
  6
ByLayer
 10
1160.0
 20
2.0
 30
0.0
 40
1.5000000000000036
  0
CIRCLE
  5
174
100
AcDbEntity
100
AcDbCircle
  8
noname
 62
256
370
-1
  6
ByLayer
 10
1140.0
 20
2.0
 30
0.0
 40
1.5
  0
ARC
  5
175
100
AcDbEntity
  8
noname
 62
256
370
-1
  6
ByLayer
100
AcDbCircle
 10
1141.5
 20
-6.4999999999999991
 30
0.0
 40
1.5811388300841904
100
AcDbArc
 50
288.4349488229220242
 51
71.5650511770779758
  0
ARC
  5
176
100
AcDbEntity
  8
noname
 62
256
370
-1
  6
ByLayer
100
AcDbCircle
 10
1140.0
 20
-14.2500000000000107
 30
0.0
 40
6.5622023742033511
100
AcDbArc
 50
72.2553283749430904
 51
139.635463426902561
  0
ARC
  5
177
100
AcDbEntity
  8
noname
 62
256
370
-1
  6
ByLayer
100
AcDbCircle
 10
1143.2999999999999545
 20
-17.7000000000000064
 30
0.0
 40
11.3216606555751778
100
AcDbArc
 50
137.1475854282983278
 51
176.4552335444050755
  0
ARC
  5
178
100
AcDbEntity
  8
noname
 62
256
370
-1
  6
ByLayer
100
AcDbCircle
 10
1104.0
 20
-16.5714285714285587
 30
0.0
 40
28.0032796913037991
100
AcDbArc
 50
328.9861159395848631
 51
359.1230922585693293
  0
ARC
  5
179
100
AcDbEntity
  8
noname
 62
256
370
-1
  6
ByLayer
100
AcDbCircle
 10
1158.5
 20
-6.4999999999999982
 30
0.0
 40
1.5811388300841904
100
AcDbArc
 50
108.4349488229220242
 51
251.5650511770780042
  0
ARC
  5
17A
100
AcDbEntity
  8
noname
 62
256
370
-1
  6
ByLayer
100
AcDbCircle
 10
1160.0
 20
-14.2500000000000107
 30
0.0
 40
6.5622023742033511
100
AcDbArc
 50
40.364536573097439
 51
107.7446716250569096
  0
ARC
  5
17B
100
AcDbEntity
  8
noname
 62
256
370
-1
  6
ByLayer
100
AcDbCircle
 10
1156.7000000000000455
 20
-17.7000000000000064
 30
0.0
 40
11.3216606555751778
100
AcDbArc
 50
3.5447664555949161
 51
42.852414571701658
  0
ARC
  5
17C
100
AcDbEntity
  8
noname
 62
256
370
-1
  6
ByLayer
100
AcDbCircle
 10
1196.0
 20
-16.5714285714285552
 30
0.0
 40
28.0032796913037991
100
AcDbArc
 50
180.8769077414306707
 51
211.0138840604151085
  0
LINE
  5
17D
100
AcDbEntity
100
AcDbLine
  8
noname
 62
256
370
-1
  6
ByLayer
 10
1240.0
 20
-5.0
 30
0.0
 11
1200.0
 21
-5.0
 31
0.0
  0
LINE
  5
17E
100
AcDbEntity
100
AcDbLine
  8
noname
 62
256
370
-1
  6
ByLayer
 10
1205.8578643762689353
 20
-55.857864376269049
 30
0.0
 11
1220.0
 21
-70.0
 31
0.0
  0
LINE
  5
17F
100
AcDbEntity
100
AcDbLine
  8
noname
 62
256
370
-1
  6
ByLayer
 10
1220.0
 20
-70.0
 30
0.0
 11
1234.1421356237310647
 21
-55.857864376269049
 31
0.0
  0
LINE
  5
180
100
AcDbEntity
100
AcDbLine
  8
noname
 62
256
370
-1
  6
ByLayer
 10
1234.1421356237310647
 20
-55.857864376269049
 30
0.0
 11
1232.0208152801712913
 21
-53.7365440327094035
 31
0.0
  0
LINE
  5
181
100
AcDbEntity
100
AcDbLine
  8
noname
 62
256
370
-1
  6
ByLayer
 10
1232.0208152801712913
 20
-53.7365440327094035
 30
0.0
 11
1220.0
 21
-65.757359312880709
 31
0.0
  0
LINE
  5
182
100
AcDbEntity
100
AcDbLine
  8
noname
 62
256
370
-1
  6
ByLayer
 10
1220.0
 20
-65.757359312880709
 30
0.0
 11
1207.9791847198287087
 21
-53.7365440327094035
 31
0.0
  0
LINE
  5
183
100
AcDbEntity
100
AcDbLine
  8
noname
 62
256
370
-1
  6
ByLayer
 10
1207.9791847198287087
 20
-53.7365440327094035
 30
0.0
 11
1205.8578643762689353
 21
-55.857864376269049
 31
0.0
  0
LINE
  5
184
100
AcDbEntity
100
AcDbLine
  8
noname
 62
256
370
-1
  6
ByLayer
 10
1198.0
 20
-31.0
 30
0.0
 11
1204.0
 21
-28.0
 31
0.0
  0
ARC
  5
185
100
AcDbEntity
  8
noname
 62
256
370
-1
  6
ByLayer
100
AcDbCircle
 10
1220.0
 20
-40.0
 30
0.0
 40
20.0
100
AcDbArc
 50
36.86989764584402
 51
143.13010235415598
  0
LINE
  5
186
100
AcDbEntity
100
AcDbLine
  8
noname
 62
256
370
-1
  6
ByLayer
 10
1242.0
 20
-30.9999999999999964
 30
0.0
 11
1236.0
 21
-27.9999999999999964
 31
0.0
  0
CIRCLE
  5
187
100
AcDbEntity
100
AcDbCircle
  8
noname
 62
256
370
-1
  6
ByLayer
 10
1210.0
 20
-15.0
 30
0.0
 40
1.5000000000000036
  0
CIRCLE
  5
188
100
AcDbEntity
100
AcDbCircle
  8
noname
 62
256
370
-1
  6
ByLayer
 10
1230.0
 20
-15.0
 30
0.0
 40
1.5
  0
ARC
  5
189
100
AcDbEntity
  8
noname
 62
256
370
-1
  6
ByLayer
100
AcDbCircle
 10
1220.0
 20
-70.8473684210525931
 30
0.0
 40
20.8473684210525967
100
AcDbArc
 50
54.8574824433550887
 51
125.1425175566449042
  0
CIRCLE
  5
18A
100
AcDbEntity
100
AcDbCircle
  8
noname
 62
256
370
-1
  6
ByLayer
 10
1220.0
 20
-55.0
 30
0.0
 40
1.5000000000000071
  0
ARC
  5
18B
100
AcDbEntity
  8
noname
 62
256
370
-1
  6
ByLayer
100
AcDbCircle
 10
1203.0
 20
15.0
 30
0.0
 40
3.0
100
AcDbArc
 50
360.0
 51
180.0
  0
ARC
  5
18C
100
AcDbEntity
  8
noname
 62
256
370
-1
  6
ByLayer
100
AcDbCircle
 10
1237.0
 20
15.0
 30
0.0
 40
3.0
100
AcDbArc
 50
360.0
 51
180.0
  0
ARC
  5
18D
100
AcDbEntity
  8
noname
 62
256
370
-1
  6
ByLayer
100
AcDbCircle
 10
1220.0
 20
20.8333333333332575
 30
0.0
 40
15.166666666666659
100
AcDbArc
 50
202.6198649480401741
 51
337.3801350519598259
  0
ARC
  5
18E
100
AcDbEntity
  8
noname
 62
256
370
-1
  6
ByLayer
100
AcDbCircle
 10
1217.0999999999999091
 20
11.6599999999998545
 30
0.0
 40
17.423134046433745
100
AcDbArc
 50
168.948038675666794
 51
252.9794743884801846
  0
ARC
  5
18F
100
AcDbEntity
  8
noname
 62
256
370
-1
  6
ByLayer
100
AcDbCircle
 10
1222.9000000000000909
 20
11.6599999999998545
 30
0.0
 40
17.423134046433745
100
AcDbArc
 50
287.0205256115198154
 51
11.0519613243331882
  0
CIRCLE
  5
190
100
AcDbEntity
100
AcDbCircle
  8
noname
 62
256
370
-1
  6
ByLayer
 10
1230.0
 20
2.0
 30
0.0
 40
1.5000000000000036
  0
CIRCLE
  5
191
100
AcDbEntity
100
AcDbCircle
  8
noname
 62
256
370
-1
  6
ByLayer
 10
1210.0
 20
2.0
 30
0.0
 40
1.5
  0
ARC
  5
192
100
AcDbEntity
  8
noname
 62
256
370
-1
  6
ByLayer
100
AcDbCircle
 10
1211.5
 20
-6.4999999999999991
 30
0.0
 40
1.5811388300841904
100
AcDbArc
 50
288.4349488229220242
 51
71.5650511770779758
  0
ARC
  5
193
100
AcDbEntity
  8
noname
 62
256
370
-1
  6
ByLayer
100
AcDbCircle
 10
1210.0
 20
-14.2500000000000107
 30
0.0
 40
6.5622023742033511
100
AcDbArc
 50
72.2553283749430904
 51
139.635463426902561
  0
ARC
  5
194
100
AcDbEntity
  8
noname
 62
256
370
-1
  6
ByLayer
100
AcDbCircle
 10
1213.2999999999999545
 20
-17.7000000000000064
 30
0.0
 40
11.3216606555751778
100
AcDbArc
 50
137.1475854282983278
 51
176.4552335444050755
  0
ARC
  5
195
100
AcDbEntity
  8
noname
 62
256
370
-1
  6
ByLayer
100
AcDbCircle
 10
1174.0
 20
-16.5714285714285587
 30
0.0
 40
28.0032796913037991
100
AcDbArc
 50
328.9861159395848631
 51
359.1230922585693293
  0
ARC
  5
196
100
AcDbEntity
  8
noname
 62
256
370
-1
  6
ByLayer
100
AcDbCircle
 10
1228.5
 20
-6.4999999999999982
 30
0.0
 40
1.5811388300841904
100
AcDbArc
 50
108.4349488229220242
 51
251.5650511770780042
  0
ARC
  5
197
100
AcDbEntity
  8
noname
 62
256
370
-1
  6
ByLayer
100
AcDbCircle
 10
1230.0
 20
-14.2500000000000107
 30
0.0
 40
6.5622023742033511
100
AcDbArc
 50
40.364536573097439
 51
107.7446716250569096
  0
ARC
  5
198
100
AcDbEntity
  8
noname
 62
256
370
-1
  6
ByLayer
100
AcDbCircle
 10
1226.7000000000000455
 20
-17.7000000000000064
 30
0.0
 40
11.3216606555751778
100
AcDbArc
 50
3.5447664555949161
 51
42.852414571701658
  0
ARC
  5
199
100
AcDbEntity
  8
noname
 62
256
370
-1
  6
ByLayer
100
AcDbCircle
 10
1266.0
 20
-16.5714285714285552
 30
0.0
 40
28.0032796913037991
100
AcDbArc
 50
180.8769077414306707
 51
211.0138840604151085
  0
LINE
  5
19A
100
AcDbEntity
100
AcDbLine
  8
noname
 62
256
370
-1
  6
ByLayer
 10
528.0
 20
-31.0
 30
0.0
 11
534.0
 21
-28.0
 31
0.0
  0
ARC
  5
19B
100
AcDbEntity
  8
noname
 62
256
370
-1
  6
ByLayer
100
AcDbCircle
 10
550.0
 20
-40.0
 30
0.0
 40
20.0
100
AcDbArc
 50
36.86989764584402
 51
143.13010235415598
  0
LINE
  5
19C
100
AcDbEntity
100
AcDbLine
  8
noname
 62
256
370
-1
  6
ByLayer
 10
572.0
 20
-30.9999999999999964
 30
0.0
 11
566.0
 21
-27.9999999999999964
 31
0.0
  0
CIRCLE
  5
19D
100
AcDbEntity
100
AcDbCircle
  8
noname
 62
256
370
-1
  6
ByLayer
 10
540.0
 20
-15.0
 30
0.0
 40
1.5000000000000036
  0
CIRCLE
  5
19E
100
AcDbEntity
100
AcDbCircle
  8
noname
 62
256
370
-1
  6
ByLayer
 10
560.0
 20
-15.0
 30
0.0
 40
1.5
  0
ARC
  5
19F
100
AcDbEntity
  8
noname
 62
256
370
-1
  6
ByLayer
100
AcDbCircle
 10
541.5
 20
-6.4999999999999991
 30
0.0
 40
1.5811388300841904
100
AcDbArc
 50
288.4349488229220242
 51
71.5650511770779758
  0
ARC
  5
1A0
100
AcDbEntity
  8
noname
 62
256
370
-1
  6
ByLayer
100
AcDbCircle
 10
540.0
 20
-14.2500000000000107
 30
0.0
 40
6.5622023742033511
100
AcDbArc
 50
72.2553283749430904
 51
139.635463426902561
  0
ARC
  5
1A1
100
AcDbEntity
  8
noname
 62
256
370
-1
  6
ByLayer
100
AcDbCircle
 10
543.2999999999999545
 20
-17.7000000000000064
 30
0.0
 40
11.3216606555751778
100
AcDbArc
 50
137.1475854282983278
 51
176.4552335444050755
  0
ARC
  5
1A2
100
AcDbEntity
  8
noname
 62
256
370
-1
  6
ByLayer
100
AcDbCircle
 10
504.0
 20
-16.5714285714285587
 30
0.0
 40
28.0032796913037991
100
AcDbArc
 50
328.9861159395848631
 51
359.1230922585693293
  0
ARC
  5
1A3
100
AcDbEntity
  8
noname
 62
256
370
-1
  6
ByLayer
100
AcDbCircle
 10
558.5
 20
-6.4999999999999982
 30
0.0
 40
1.5811388300841904
100
AcDbArc
 50
108.4349488229220242
 51
251.5650511770780042
  0
ARC
  5
1A4
100
AcDbEntity
  8
noname
 62
256
370
-1
  6
ByLayer
100
AcDbCircle
 10
560.0
 20
-14.2500000000000107
 30
0.0
 40
6.5622023742033511
100
AcDbArc
 50
40.364536573097439
 51
107.7446716250569096
  0
ARC
  5
1A5
100
AcDbEntity
  8
noname
 62
256
370
-1
  6
ByLayer
100
AcDbCircle
 10
556.7000000000000455
 20
-17.7000000000000064
 30
0.0
 40
11.3216606555751778
100
AcDbArc
 50
3.5447664555949161
 51
42.852414571701658
  0
ARC
  5
1A6
100
AcDbEntity
  8
noname
 62
256
370
-1
  6
ByLayer
100
AcDbCircle
 10
596.0
 20
-16.5714285714285552
 30
0.0
 40
28.0032796913037991
100
AcDbArc
 50
180.8769077414306707
 51
211.0138840604151085
  0
LINE
  5
1A7
100
AcDbEntity
100
AcDbLine
  8
noname
 62
256
370
-1
  6
ByLayer
 10
597.0
 20
-5.0
 30
0.0
 11
600.0
 21
-5.0
 31
0.0
  0
LINE
  5
1A8
100
AcDbEntity
100
AcDbLine
  8
noname
 62
256
370
-1
  6
ByLayer
 10
600.0
 20
-5.0
 30
0.0
 11
600.0
 21
0.0
 31
0.0
  0
LINE
  5
1A9
100
AcDbEntity
100
AcDbLine
  8
noname
 62
256
370
-1
  6
ByLayer
 10
600.0
 20
0.0
 30
0.0
 11
597.0
 21
0.0
 31
0.0
  0
CIRCLE
  5
1AA
100
AcDbEntity
100
AcDbCircle
  8
noname
 62
256
370
-1
  6
ByLayer
 10
727.5000000000001137
 20
-50.0000000000000071
 30
0.0
 40
0.5
  0
ARC
  5
1AB
100
AcDbEntity
  8
noname
 62
256
370
-1
  6
ByLayer
100
AcDbCircle
 10
727.5000000000001137
 20
-50.0000000000000071
 30
0.0
 40
5.0000000000000071
100
AcDbArc
 50
90.0000000000010942
 51
269.9999999999986926
  0
LINE
  5
1AC
100
AcDbEntity
100
AcDbLine
  8
noname
 62
256
370
-1
  6
ByLayer
 10
727.5
 20
-45.0
 30
0.0
 11
797.5
 21
-45.0
 31
0.0
  0
LINE
  5
1AD
100
AcDbEntity
100
AcDbLine
  8
noname
 62
256
370
-1
  6
ByLayer
 10
797.5
 20
-55.0
 30
0.0
 11
727.5
 21
-55.0
 31
0.0
  0
CIRCLE
  5
1AE
100
AcDbEntity
100
AcDbCircle
  8
noname
 62
256
370
-1
  6
ByLayer
 10
797.5
 20
-50.0
 30
0.0
 40
0.5
  0
ARC
  5
1AF
100
AcDbEntity
  8
noname
 62
256
370
-1
  6
ByLayer
100
AcDbCircle
 10
797.5000000000001137
 20
-50.0
 30
0.0
 40
5.0
100
AcDbArc
 50
269.9999999999986926
 51
90.0000000000013074
  0
CIRCLE
  5
1B0
100
AcDbEntity
100
AcDbCircle
  8
noname
 62
256
370
-1
  6
ByLayer
 10
812.5000000000001137
 20
-50.0000000000000071
 30
0.0
 40
0.5
  0
ARC
  5
1B1
100
AcDbEntity
  8
noname
 62
256
370
-1
  6
ByLayer
100
AcDbCircle
 10
812.5000000000001137
 20
-50.0000000000000071
 30
0.0
 40
5.0000000000000071
100
AcDbArc
 50
90.0000000000010942
 51
269.9999999999986926
  0
LINE
  5
1B2
100
AcDbEntity
100
AcDbLine
  8
noname
 62
256
370
-1
  6
ByLayer
 10
812.5
 20
-45.0
 30
0.0
 11
882.5
 21
-45.0
 31
0.0
  0
LINE
  5
1B3
100
AcDbEntity
100
AcDbLine
  8
noname
 62
256
370
-1
  6
ByLayer
 10
882.5
 20
-55.0
 30
0.0
 11
812.5
 21
-55.0
 31
0.0
  0
CIRCLE
  5
1B4
100
AcDbEntity
100
AcDbCircle
  8
noname
 62
256
370
-1
  6
ByLayer
 10
882.5
 20
-50.0
 30
0.0
 40
0.5
  0
ARC
  5
1B5
100
AcDbEntity
  8
noname
 62
256
370
-1
  6
ByLayer
100
AcDbCircle
 10
882.5000000000001137
 20
-50.0
 30
0.0
 40
5.0
100
AcDbArc
 50
269.9999999999986926
 51
90.0000000000013074
  0
CIRCLE
  5
1B6
100
AcDbEntity
100
AcDbCircle
  8
noname
 62
256
370
-1
  6
ByLayer
 10
897.5000000000001137
 20
-50.0000000000000071
 30
0.0
 40
0.5
  0
ARC
  5
1B7
100
AcDbEntity
  8
noname
 62
256
370
-1
  6
ByLayer
100
AcDbCircle
 10
897.5000000000001137
 20
-50.0000000000000071
 30
0.0
 40
5.0000000000000071
100
AcDbArc
 50
90.0000000000010942
 51
269.9999999999986926
  0
LINE
  5
1B8
100
AcDbEntity
100
AcDbLine
  8
noname
 62
256
370
-1
  6
ByLayer
 10
897.5
 20
-45.0
 30
0.0
 11
967.5
 21
-45.0
 31
0.0
  0
LINE
  5
1B9
100
AcDbEntity
100
AcDbLine
  8
noname
 62
256
370
-1
  6
ByLayer
 10
967.5
 20
-55.0
 30
0.0
 11
897.5
 21
-55.0
 31
0.0
  0
CIRCLE
  5
1BA
100
AcDbEntity
100
AcDbCircle
  8
noname
 62
256
370
-1
  6
ByLayer
 10
967.5
 20
-50.0
 30
0.0
 40
0.5
  0
ARC
  5
1BB
100
AcDbEntity
  8
noname
 62
256
370
-1
  6
ByLayer
100
AcDbCircle
 10
967.5000000000001137
 20
-50.0
 30
0.0
 40
5.0
100
AcDbArc
 50
269.9999999999986926
 51
90.0000000000013074
  0
LINE
  5
1BC
100
AcDbEntity
100
AcDbLine
  8
noname
 62
256
370
-1
  6
ByLayer
 10
700.0
 20
-97.0
 30
0.0
 11
700.0
 21
-100.0
 31
0.0
  0
LINE
  5
1BD
100
AcDbEntity
100
AcDbLine
  8
noname
 62
256
370
-1
  6
ByLayer
 10
700.0
 20
-100.0
 30
0.0
 11
995.0
 21
-100.0
 31
0.0
  0
LINE
  5
1BE
100
AcDbEntity
100
AcDbLine
  8
noname
 62
256
370
-1
  6
ByLayer
 10
995.0
 20
-100.0
 30
0.0
 11
995.0
 21
-97.0
 31
0.0
  0
CIRCLE
  5
1BF
100
AcDbEntity
100
AcDbCircle
  8
noname
 62
256
370
-1
  6
ByLayer
 10
717.5
 20
-87.5
 30
0.0
 40
7.5
  0
CIRCLE
  5
1C0
100
AcDbEntity
100
AcDbCircle
  8
noname
 62
256
370
-1
  6
ByLayer
 10
737.5
 20
-87.5
 30
0.0
 40
7.5
  0
CIRCLE
  5
1C1
100
AcDbEntity
100
AcDbCircle
  8
noname
 62
256
370
-1
  6
ByLayer
 10
757.5
 20
-87.5
 30
0.0
 40
7.5
  0
CIRCLE
  5
1C2
100
AcDbEntity
100
AcDbCircle
  8
noname
 62
256
370
-1
  6
ByLayer
 10
777.5
 20
-87.5
 30
0.0
 40
7.5
  0
CIRCLE
  5
1C3
100
AcDbEntity
100
AcDbCircle
  8
noname
 62
256
370
-1
  6
ByLayer
 10
917.5
 20
-87.5
 30
0.0
 40
7.5
  0
CIRCLE
  5
1C4
100
AcDbEntity
100
AcDbCircle
  8
noname
 62
256
370
-1
  6
ByLayer
 10
937.5
 20
-87.5
 30
0.0
 40
7.5
  0
CIRCLE
  5
1C5
100
AcDbEntity
100
AcDbCircle
  8
noname
 62
256
370
-1
  6
ByLayer
 10
957.5
 20
-87.5
 30
0.0
 40
7.5
  0
CIRCLE
  5
1C6
100
AcDbEntity
100
AcDbCircle
  8
noname
 62
256
370
-1
  6
ByLayer
 10
977.5
 20
-87.5
 30
0.0
 40
7.5
  0
CIRCLE
  5
1C7
100
AcDbEntity
100
AcDbCircle
  8
noname
 62
256
370
-1
  6
ByLayer
 10
717.5
 20
-87.5
 30
0.0
 40
0.5
  0
CIRCLE
  5
1C8
100
AcDbEntity
100
AcDbCircle
  8
noname
 62
256
370
-1
  6
ByLayer
 10
737.4999999999998863
 20
-87.5
 30
0.0
 40
0.5
  0
CIRCLE
  5
1C9
100
AcDbEntity
100
AcDbCircle
  8
noname
 62
256
370
-1
  6
ByLayer
 10
757.4999999999997726
 20
-87.5
 30
0.0
 40
0.5
  0
CIRCLE
  5
1CA
100
AcDbEntity
100
AcDbCircle
  8
noname
 62
256
370
-1
  6
ByLayer
 10
777.4999999999996589
 20
-87.5
 30
0.0
 40
0.5
  0
CIRCLE
  5
1CB
100
AcDbEntity
100
AcDbCircle
  8
noname
 62
256
370
-1
  6
ByLayer
 10
917.4999999999988631
 20
-87.5
 30
0.0
 40
0.5
  0
CIRCLE
  5
1CC
100
AcDbEntity
100
AcDbCircle
  8
noname
 62
256
370
-1
  6
ByLayer
 10
937.4999999999987494
 20
-87.5
 30
0.0
 40
0.5
  0
CIRCLE
  5
1CD
100
AcDbEntity
100
AcDbCircle
  8
noname
 62
256
370
-1
  6
ByLayer
 10
957.4999999999986358
 20
-87.5
 30
0.0
 40
0.5
  0
CIRCLE
  5
1CE
100
AcDbEntity
100
AcDbCircle
  8
noname
 62
256
370
-1
  6
ByLayer
 10
977.4999999999985221
 20
-87.5
 30
0.0
 40
0.5
  0
ENDSEC
  0
SECTION
  2
OBJECTS
  0
DICTIONARY
  5
C
100
AcDbDictionary
280
0
281
1
  3
ACAD_GROUP
350
D
  3
ACAD_LAYOUT
350
1A
  3
ACAD_MLINESTYLE
350
17
  3
ACAD_PLOTSETTINGS
350
19
  3
ACAD_PLOTSTYLENAME
350
E
  3
AcDbVariableDictionary
350
1CF
  0
DICTIONARY
  5
D
100
AcDbDictionary
280
0
281
1
  0
ACDBDICTIONARYWDFLT
  5
E
100
AcDbDictionary
281
1
  3
Normal
350
F
100
AcDbDictionaryWithDefault
340
F
  0
ACDBPLACEHOLDER
  5
F
  0
DICTIONARY
  5
17
100
AcDbDictionary
280
0
281
1
  3
Standard
350
18
  0
MLINESTYLE
  5
18
100
AcDbMlineStyle
  2
STANDARD
 70
0
  3

 62
256
 51
90.0
 52
90.0
 71
2
 49
0.5
 62
256
  6
BYLAYER
 49
-0.5
 62
256
  6
BYLAYER
  0
DICTIONARY
  5
19
100
AcDbDictionary
280
0
281
1
  0
DICTIONARY
  5
1A
100
AcDbDictionary
281
1
  3
Layout1
350
1E
  3
Layout2
350
26
  3
Model
350
22
  0
LAYOUT
  5
1E
100
AcDbPlotSettings
  1

  2
C:\Program Files\AutoCAD 2002\plotters\DWF ePlot (optimized for plotting).pc3
  4

  6

 40
0.0
 41
0.0
 42
0.0
 43
0.0
 44
0.0
 45
0.0
 46
0.0
 47
0.0
 48
0.0
 49
0.0
140
0.0
141
0.0
142
1.0
143
1.0
 70
688
 72
0
 73
0
 74
5
  7

 75
16
147
1.0
148
0.0
149
0.0
100
AcDbLayout
  1
Layout1
 70
1
 71
1
 10
0.0
 20
0.0
 11
420.0
 21
297.0
 12
0.0
 22
0.0
 32
0.0
 14
100000000000000000000.0
 24
100000000000000000000.0
 34
100000000000000000000.0
 15
-100000000000000000000.0
 25
-100000000000000000000.0
 35
-100000000000000000000.0
146
0.0
 13
0.0
 23
0.0
 33
0.0
 16
1.0
 26
0.0
 36
0.0
 17
0.0
 27
1.0
 37
0.0
 76
0
330
1B
  0
LAYOUT
  5
22
100
AcDbPlotSettings
  1

  2
C:\Program Files\AutoCAD 2002\plotters\DWF ePlot (optimized for plotting).pc3
  4

  6

 40
0.0
 41
0.0
 42
0.0
 43
0.0
 44
0.0
 45
0.0
 46
0.0
 47
0.0
 48
0.0
 49
0.0
140
0.0
141
0.0
142
1.0
143
1.0
 70
1712
 72
0
 73
0
 74
0
  7

 75
0
147
1.0
148
0.0
149
0.0
100
AcDbLayout
  1
Model
 70
1
 71
0
 10
0.0
 20
0.0
 11
12.0
 21
9.0
 12
0.0
 22
0.0
 32
0.0
 14
0.0
 24
0.0
 34
0.0
 15
0.0
 25
0.0
 35
0.0
146
0.0
 13
0.0
 23
0.0
 33
0.0
 16
1.0
 26
0.0
 36
0.0
 17
0.0
 27
1.0
 37
0.0
 76
0
330
1F
  0
LAYOUT
  5
26
100
AcDbPlotSettings
  1

  2
C:\Program Files\AutoCAD 2002\plotters\DWF ePlot (optimized for plotting).pc3
  4

  6

 40
0.0
 41
0.0
 42
0.0
 43
0.0
 44
0.0
 45
0.0
 46
0.0
 47
0.0
 48
0.0
 49
0.0
140
0.0
141
0.0
142
1.0
143
1.0
 70
688
 72
0
 73
0
 74
5
  7

 75
16
147
1.0
148
0.0
149
0.0
100
AcDbLayout
  1
Layout2
 70
1
 71
2
 10
0.0
 20
0.0
 11
12.0
 21
9.0
 12
0.0
 22
0.0
 32
0.0
 14
0.0
 24
0.0
 34
0.0
 15
0.0
 25
0.0
 35
0.0
146
0.0
 13
0.0
 23
0.0
 33
0.0
 16
1.0
 26
0.0
 36
0.0
 17
0.0
 27
1.0
 37
0.0
 76
0
330
23
  0
DICTIONARY
  5
1CF
100
AcDbDictionary
281
1
  3
DIMASSOC
350
1D1
  3
HIDETEXT
350
1D0
  0
DICTIONARYVAR
  5
1D0
100
DictionaryVariables
280
0
  1
2
  0
DICTIONARYVAR
  5
1D1
100
DictionaryVariables
280
0
  1
1
  0
ENDSEC
  0
EOF
