999
dxflib 2.0.4.8
  0
SECTION
  2
HEADER
  9
$ACADVER
  1
AC1015
  9
$HANDSEED
  5
FFFF
  9
$DIMASZ
 40
2.5
  9
$GRIDUNIT
 10
0.0
 20
0.0
  9
$DIMADEC
 70
2
  9
$DIMGAP
 40
0.625
  9
$SPLINESEGS
 70
8
  9
$AUPREC
 70
2
  9
$LUNITS
 70
2
  9
$DIMEXO
 40
0.625
  9
$INSUNITS
 70
4
  9
$DIMLUNIT
 70
2
  9
$DIMTXT
 40
5.0
  9
$GRIDMODE
 70
1
  9
$LUPREC
 70
4
  9
$PSVPSCALE
 40
0.1314971123944913
  9
$DIMSTYLE
  2
Standard
  9
$PLIMMAX
 10
210.0
 20
297.0
  9
$PLIMMIN
 10
0.0
 20
0.0
  9
$PINSBASE
 10
105.2876499333629425
 20
69.3140826299422486
 30
0.0
  9
$DIMEXE
 40
1.25
  9
$DIMAUNIT
 70
0
  9
$AUNITS
 70
0
  0
ENDSEC
  0
SECTION
  2
TABLES
  0
TABLE
  2
VPORT
  5
8
100
AcDbSymbolTable
 70
1
  0
VPORT
  5
30
100
AcDbSymbolTableRecord
100
AcDbViewportTableRecord
  2
*Active
 70
0
 10
0.0
 20
0.0
 11
1.0
 21
1.0
 12
286.3055555555554861
 22
148.5
 13
0.0
 23
0.0
 14
10.0
 24
10.0
 15
10.0
 25
10.0
 16
0.0
 26
0.0
 36
1.0
 17
0.0
 27
0.0
 37
0.0
 40
297.0
 41
1.92798353909465
 42
50.0
 43
0.0
 44
0.0
 50
0.0
 51
0.0
 71
0
 72
100
 73
1
 74
3
 75
1
 76
1
 77
0
 78
0
281
0
 65
1
110
0.0
120
0.0
130
0.0
111
1.0
121
0.0
131
0.0
112
0.0
122
1.0
132
0.0
 79
0
146
0.0
  0
ENDTAB
  0
TABLE
  2
LTYPE
  5
5
100
AcDbSymbolTable
 70
21
  0
LTYPE
  5
14
100
AcDbSymbolTableRecord
100
AcDbLinetypeTableRecord
  2
ByBlock
 70
0
  3

 72
65
 73
0
 40
0.0
  0
LTYPE
  5
15
100
AcDbSymbolTableRecord
100
AcDbLinetypeTableRecord
  2
ByLayer
 70
0
  3

 72
65
 73
0
 40
0.0
  0
LTYPE
  5
16
100
AcDbSymbolTableRecord
100
AcDbLinetypeTableRecord
  2
CONTINUOUS
 70
0
  3
Solid line
 72
65
 73
0
 40
0.0
  0
LTYPE
  5
31
100
AcDbSymbolTableRecord
100
AcDbLinetypeTableRecord
  2
DOT
 70
0
  3
Dot . . . . . . . . . . . . . . . . . . . . . .
 72
65
 73
2
 40
6.3499999999999996
 49
0.0
 74
0
 49
-6.3499999999999996
 74
0
  0
LTYPE
  5
32
100
AcDbSymbolTableRecord
100
AcDbLinetypeTableRecord
  2
DOT2
 70
0
  3
Dot (.5x) .....................................
 72
65
 73
2
 40
3.1749999999999998
 49
0.0
 74
0
 49
-3.1749999999999998
 74
0
  0
LTYPE
  5
33
100
AcDbSymbolTableRecord
100
AcDbLinetypeTableRecord
  2
DOTX2
 70
0
  3
Dot (2x) .  .  .  .  .  .  .  .  .  .  .  .  .
 72
65
 73
2
 40
12.6999999999999993
 49
0.0
 74
0
 49
-12.6999999999999993
 74
0
  0
LTYPE
  5
34
100
AcDbSymbolTableRecord
100
AcDbLinetypeTableRecord
  2
DASHED
 70
0
  3
Dashed __ __ __ __ __ __ __ __ __ __ __ __ __ _
 72
65
 73
2
 40
19.0500000000000007
 49
12.6999999999999993
 74
0
 49
-6.3499999999999996
 74
0
  0
LTYPE
  5
35
100
AcDbSymbolTableRecord
100
AcDbLinetypeTableRecord
  2
DASHED2
 70
0
  3
Dashed (.5x) _ _ _ _ _ _ _ _ _ _ _ _ _ _ _ _ _
 72
65
 73
2
 40
9.5250000000000004
 49
6.3499999999999996
 74
0
 49
-3.1749999999999998
 74
0
  0
LTYPE
  5
36
100
AcDbSymbolTableRecord
100
AcDbLinetypeTableRecord
  2
DASHEDX2
 70
0
  3
Dashed (2x) ____  ____  ____  ____  ____  ___
 72
65
 73
2
 40
38.1000000000000014
 49
25.3999999999999986
 74
0
 49
-12.6999999999999993
 74
0
  0
LTYPE
  5
37
100
AcDbSymbolTableRecord
100
AcDbLinetypeTableRecord
  2
DASHDOT
 70
0
  3
Dash dot __ . __ . __ . __ . __ . __ . __ . __
 72
65
 73
4
 40
25.3999999999999986
 49
12.6999999999999993
 74
0
 49
-6.3499999999999996
 74
0
 49
0.0
 74
0
 49
-6.3499999999999996
 74
0
  0
LTYPE
  5
38
100
AcDbSymbolTableRecord
100
AcDbLinetypeTableRecord
  2
DASHDOT2
 70
0
  3
Dash dot (.5x) _._._._._._._._._._._._._._._.
 72
65
 73
4
 40
12.6999999999999993
 49
6.3499999999999996
 74
0
 49
-3.1749999999999998
 74
0
 49
0.0
 74
0
 49
-3.1749999999999998
 74
0
  0
LTYPE
  5
39
100
AcDbSymbolTableRecord
100
AcDbLinetypeTableRecord
  2
DASHDOTX2
 70
0
  3
Dash dot (2x) ____  .  ____  .  ____  .  ___
 72
65
 73
4
 40
50.7999999999999972
 49
25.3999999999999986
 74
0
 49
-12.6999999999999993
 74
0
 49
0.0
 74
0
 49
-12.6999999999999993
 74
0
  0
LTYPE
  5
3A
100
AcDbSymbolTableRecord
100
AcDbLinetypeTableRecord
  2
DIVIDE
 70
0
  3
Divide ____ . . ____ . . ____ . . ____ . . ____
 72
65
 73
6
 40
31.75
 49
12.6999999999999993
 74
0
 49
-6.3499999999999996
 74
0
 49
0.0
 74
0
 49
-6.3499999999999996
 74
0
 49
0.0
 74
0
 49
-6.3499999999999996
 74
0
  0
LTYPE
  5
3B
100
AcDbSymbolTableRecord
100
AcDbLinetypeTableRecord
  2
DIVIDE2
 70
0
  3
Divide (.5x) __..__..__..__..__..__..__..__.._
 72
65
 73
6
 40
15.875
 49
6.3499999999999996
 74
0
 49
-3.1749999999999998
 74
0
 49
0.0
 74
0
 49
-3.1749999999999998
 74
0
 49
0.0
 74
0
 49
-3.1749999999999998
 74
0
  0
LTYPE
  5
3C
100
AcDbSymbolTableRecord
100
AcDbLinetypeTableRecord
  2
DIVIDEX2
 70
0
  3
Divide (2x) ________  .  .  ________  .  .  _
 72
65
 73
6
 40
63.5
 49
25.3999999999999986
 74
0
 49
-12.6999999999999993
 74
0
 49
0.0
 74
0
 49
-12.6999999999999993
 74
0
 49
0.0
 74
0
 49
-12.6999999999999993
 74
0
  0
LTYPE
  5
3D
100
AcDbSymbolTableRecord
100
AcDbLinetypeTableRecord
  2
CENTER
 70
0
  3
Center ____ _ ____ _ ____ _ ____ _ ____ _ ____
 72
65
 73
4
 40
50.7999999999999972
 49
31.75
 74
0
 49
-6.3499999999999996
 74
0
 49
6.3499999999999996
 74
0
 49
-6.3499999999999996
 74
0
  0
LTYPE
  5
3E
100
AcDbSymbolTableRecord
100
AcDbLinetypeTableRecord
  2
CENTER2
 70
0
  3
Center (.5x) ___ _ ___ _ ___ _ ___ _ ___ _ ___
 72
65
 73
4
 40
28.5749999999999993
 49
19.0500000000000007
 74
0
 49
-3.1749999999999998
 74
0
 49
3.1749999999999998
 74
0
 49
-3.1749999999999998
 74
0
  0
LTYPE
  5
3F
100
AcDbSymbolTableRecord
100
AcDbLinetypeTableRecord
  2
CENTERX2
 70
0
  3
Center (2x) ________  __  ________  __  _____
 72
65
 73
4
 40
101.5999999999999943
 49
63.5
 74
0
 49
-12.6999999999999993
 74
0
 49
12.6999999999999993
 74
0
 49
-12.6999999999999993
 74
0
  0
LTYPE
  5
40
100
AcDbSymbolTableRecord
100
AcDbLinetypeTableRecord
  2
BORDER
 70
0
  3
Border __ __ . __ __ . __ __ . __ __ . __ __ .
 72
65
 73
6
 40
44.4500000000000028
 49
12.6999999999999993
 74
0
 49
-6.3499999999999996
 74
0
 49
12.6999999999999993
 74
0
 49
-6.3499999999999996
 74
0
 49
0.0
 74
0
 49
-6.3499999999999996
 74
0
  0
LTYPE
  5
41
100
AcDbSymbolTableRecord
100
AcDbLinetypeTableRecord
  2
BORDER2
 70
0
  3
Border (.5x) __.__.__.__.__.__.__.__.__.__.__.
 72
65
 73
6
 40
22.2250000000000014
 49
6.3499999999999996
 74
0
 49
-3.1749999999999998
 74
0
 49
6.3499999999999996
 74
0
 49
-3.1749999999999998
 74
0
 49
0.0
 74
0
 49
-3.1749999999999998
 74
0
  0
LTYPE
  5
42
100
AcDbSymbolTableRecord
100
AcDbLinetypeTableRecord
  2
BORDERX2
 70
0
  3
Border (2x) ____  ____  .  ____  ____  .  ___
 72
65
 73
6
 40
88.9000000000000057
 49
25.3999999999999986
 74
0
 49
-12.6999999999999993
 74
0
 49
25.3999999999999986
 74
0
 49
-12.6999999999999993
 74
0
 49
0.0
 74
0
 49
-12.6999999999999993
 74
0
  0
ENDTAB
  0
TABLE
  2
LAYER
  5
2
100
AcDbSymbolTable
 70
5
  0
LAYER
  5
10
100
AcDbSymbolTableRecord
100
AcDbLayerTableRecord
  2
0
 70
0
 62
7
  6
CONTINUOUS
370
50
390
F
  0
LAYER
  5
43
100
AcDbSymbolTableRecord
100
AcDbLayerTableRecord
  2
Slots
 70
4
 62
7
  6
CONTINUOUS
370
50
390
F
  0
LAYER
  5
44
100
AcDbSymbolTableRecord
100
AcDbLayerTableRecord
  2
Feet
 70
0
 62
7
  6
CONTINUOUS
370
50
390
F
  0
LAYER
  5
45
100
AcDbSymbolTableRecord
100
AcDbLayerTableRecord
  2
Top
 70
4
 62
7
  6
CONTINUOUS
370
50
390
F
  0
LAYER
  5
46
100
AcDbSymbolTableRecord
100
AcDbLayerTableRecord
  2
Dimensions
 70
4
 62
1
  6
CONTINUOUS
370
50
390
F
  0
ENDTAB
  0
TABLE
  2
STYLE
  5
3
100
AcDbSymbolTable
 70
1
  0
STYLE
  5
11
100
AcDbSymbolTableRecord
100
AcDbTextStyleTableRecord
  2
Standard
 70
0
 40
0.0
 41
0.75
 50
0.0
 71
0
 42
2.5
  3
txt
  4

  0
ENDTAB
  0
TABLE
  2
VIEW
  5
6
100
AcDbSymbolTable
 70
0
  0
ENDTAB
  0
TABLE
  2
UCS
  5
7
100
AcDbSymbolTable
 70
0
  0
ENDTAB
  0
TABLE
  2
APPID
  5
9
100
AcDbSymbolTable
 70
1
  0
APPID
  5
12
100
AcDbSymbolTableRecord
100
AcDbRegAppTableRecord
  2
ACAD
 70
0
  0
ENDTAB
  0
TABLE
  2
DIMSTYLE
  5
A
100
AcDbSymbolTable
 70
1
100
AcDbDimStyleTable
 71
0
  0
DIMSTYLE
105
27
100
AcDbSymbolTableRecord
100
AcDbDimStyleTableRecord
  2
Standard
 41
2.5
 42
0.625
 43
3.75
 44
1.25
 70
0
 73
0
 74
0
 77
1
 78
8
140
5.0
141
2.5
143
0.03937007874016
147
0.625
171
3
172
1
271
2
272
2
274
3
278
44
283
0
284
8
340
11
  0
ENDTAB
  0
TABLE
  2
BLOCK_RECORD
  5
1
100
AcDbSymbolTable
 70
1
  0
BLOCK_RECORD
  5
1F
100
AcDbSymbolTableRecord
100
AcDbBlockTableRecord
  2
*Model_Space
340
22
  0
BLOCK_RECORD
  5
1B
100
AcDbSymbolTableRecord
100
AcDbBlockTableRecord
  2
*Paper_Space
340
1E
  0
BLOCK_RECORD
  5
23
100
AcDbSymbolTableRecord
100
AcDbBlockTableRecord
  2
*Paper_Space0
340
26
  0
ENDTAB
  0
ENDSEC
  0
SECTION
  2
BLOCKS
  0
BLOCK
  5
20
100
AcDbEntity
  8
0
100
AcDbBlockBegin
  2
*Model_Space
 70
0
 10
0.0
 20
0.0
 30
0.0
  3
*Model_Space
  1

  0
ENDBLK
  5
21
100
AcDbEntity
  8
0
100
AcDbBlockEnd
  0
BLOCK
  5
1C
100
AcDbEntity
 67
1
  8
0
100
AcDbBlockBegin
  2
*Paper_Space
 70
0
 10
0.0
 20
0.0
 30
0.0
  3
*Paper_Space
  1

  0
ENDBLK
  5
1D
100
AcDbEntity
 67
1
  8
0
100
AcDbBlockEnd
  0
BLOCK
  5
24
100
AcDbEntity
  8
0
100
AcDbBlockBegin
  2
*Paper_Space0
 70
0
 10
0.0
 20
0.0
 30
0.0
  3
*Paper_Space0
  1

  0
ENDBLK
  5
25
100
AcDbEntity
  8
0
100
AcDbBlockEnd
  0
ENDSEC
  0
SECTION
  2
ENTITIES
  0
LINE
  5
47
100
AcDbEntity
100
AcDbLine
  8
0
 62
256
370
-1
  6
ByLayer
 10
-300.0
 20
100.0
 30
0.0
 11
-300.0
 21
1100.0
 31
0.0
  0
LINE
  5
48
100
AcDbEntity
100
AcDbLine
  8
Slots
 62
256
370
-1
  6
ByLayer
 10
-300.0
 20
1070.0
 30
0.0
 11
-330.0
 21
1070.0
 31
0.0
  0
LINE
  5
49
100
AcDbEntity
100
AcDbLine
  8
Slots
 62
256
370
-1
  6
ByLayer
 10
-330.0
 20
1070.0
 30
0.0
 11
-330.0
 21
1055.0
 31
0.0
  0
LINE
  5
4A
100
AcDbEntity
100
AcDbLine
  8
Slots
 62
256
370
-1
  6
ByLayer
 10
-330.0
 20
1055.0
 30
0.0
 11
-300.0
 21
1055.0
 31
0.0
  0
LINE
  5
4B
100
AcDbEntity
100
AcDbLine
  8
Slots
 62
256
370
-1
  6
ByLayer
 10
-300.0
 20
1040.0
 30
0.0
 11
-330.0
 21
1040.0
 31
0.0
  0
LINE
  5
4C
100
AcDbEntity
100
AcDbLine
  8
Slots
 62
256
370
-1
  6
ByLayer
 10
-330.0
 20
1040.0
 30
0.0
 11
-330.0
 21
1025.0
 31
0.0
  0
LINE
  5
4D
100
AcDbEntity
100
AcDbLine
  8
Slots
 62
256
370
-1
  6
ByLayer
 10
-330.0
 20
1025.0
 30
0.0
 11
-300.0
 21
1025.0
 31
0.0
  0
LINE
  5
4E
100
AcDbEntity
100
AcDbLine
  8
Slots
 62
256
370
-1
  6
ByLayer
 10
-300.0
 20
1010.0
 30
0.0
 11
-330.0
 21
1010.0
 31
0.0
  0
LINE
  5
4F
100
AcDbEntity
100
AcDbLine
  8
Slots
 62
256
370
-1
  6
ByLayer
 10
-330.0
 20
1010.0
 30
0.0
 11
-330.0
 21
995.0
 31
0.0
  0
LINE
  5
50
100
AcDbEntity
100
AcDbLine
  8
Slots
 62
256
370
-1
  6
ByLayer
 10
-330.0
 20
995.0
 30
0.0
 11
-300.0
 21
995.0
 31
0.0
  0
LINE
  5
51
100
AcDbEntity
100
AcDbLine
  8
Slots
 62
256
370
-1
  6
ByLayer
 10
-300.0
 20
980.0
 30
0.0
 11
-330.0
 21
980.0
 31
0.0
  0
LINE
  5
52
100
AcDbEntity
100
AcDbLine
  8
Slots
 62
256
370
-1
  6
ByLayer
 10
-330.0
 20
980.0
 30
0.0
 11
-330.0
 21
965.0
 31
0.0
  0
LINE
  5
53
100
AcDbEntity
100
AcDbLine
  8
Slots
 62
256
370
-1
  6
ByLayer
 10
-330.0
 20
965.0
 30
0.0
 11
-300.0
 21
965.0
 31
0.0
  0
LINE
  5
54
100
AcDbEntity
100
AcDbLine
  8
Slots
 62
256
370
-1
  6
ByLayer
 10
-300.0
 20
950.0
 30
0.0
 11
-330.0
 21
950.0
 31
0.0
  0
LINE
  5
55
100
AcDbEntity
100
AcDbLine
  8
Slots
 62
256
370
-1
  6
ByLayer
 10
-330.0
 20
950.0
 30
0.0
 11
-330.0
 21
935.0
 31
0.0
  0
LINE
  5
56
100
AcDbEntity
100
AcDbLine
  8
Slots
 62
256
370
-1
  6
ByLayer
 10
-330.0
 20
935.0
 30
0.0
 11
-300.0
 21
935.0
 31
0.0
  0
LINE
  5
57
100
AcDbEntity
100
AcDbLine
  8
Slots
 62
256
370
-1
  6
ByLayer
 10
-300.0
 20
920.0
 30
0.0
 11
-330.0
 21
920.0
 31
0.0
  0
LINE
  5
58
100
AcDbEntity
100
AcDbLine
  8
Slots
 62
256
370
-1
  6
ByLayer
 10
-330.0
 20
920.0
 30
0.0
 11
-330.0
 21
905.0
 31
0.0
  0
LINE
  5
59
100
AcDbEntity
100
AcDbLine
  8
Slots
 62
256
370
-1
  6
ByLayer
 10
-330.0
 20
905.0
 30
0.0
 11
-300.0
 21
905.0
 31
0.0
  0
LINE
  5
5A
100
AcDbEntity
100
AcDbLine
  8
Slots
 62
256
370
-1
  6
ByLayer
 10
-300.0
 20
890.0
 30
0.0
 11
-330.0
 21
890.0
 31
0.0
  0
LINE
  5
5B
100
AcDbEntity
100
AcDbLine
  8
Slots
 62
256
370
-1
  6
ByLayer
 10
-330.0
 20
890.0
 30
0.0
 11
-330.0
 21
875.0
 31
0.0
  0
LINE
  5
5C
100
AcDbEntity
100
AcDbLine
  8
Slots
 62
256
370
-1
  6
ByLayer
 10
-330.0
 20
875.0
 30
0.0
 11
-300.0
 21
875.0
 31
0.0
  0
LINE
  5
5D
100
AcDbEntity
100
AcDbLine
  8
Slots
 62
256
370
-1
  6
ByLayer
 10
-300.0
 20
860.0
 30
0.0
 11
-330.0
 21
860.0
 31
0.0
  0
LINE
  5
5E
100
AcDbEntity
100
AcDbLine
  8
Slots
 62
256
370
-1
  6
ByLayer
 10
-330.0
 20
860.0
 30
0.0
 11
-330.0
 21
845.0
 31
0.0
  0
LINE
  5
5F
100
AcDbEntity
100
AcDbLine
  8
Slots
 62
256
370
-1
  6
ByLayer
 10
-330.0
 20
845.0
 30
0.0
 11
-300.0
 21
845.0
 31
0.0
  0
LINE
  5
60
100
AcDbEntity
100
AcDbLine
  8
Slots
 62
256
370
-1
  6
ByLayer
 10
-300.0
 20
830.0
 30
0.0
 11
-330.0
 21
830.0
 31
0.0
  0
LINE
  5
61
100
AcDbEntity
100
AcDbLine
  8
Slots
 62
256
370
-1
  6
ByLayer
 10
-330.0
 20
830.0
 30
0.0
 11
-330.0
 21
815.0
 31
0.0
  0
LINE
  5
62
100
AcDbEntity
100
AcDbLine
  8
Slots
 62
256
370
-1
  6
ByLayer
 10
-330.0
 20
815.0
 30
0.0
 11
-300.0
 21
815.0
 31
0.0
  0
LINE
  5
63
100
AcDbEntity
100
AcDbLine
  8
Slots
 62
256
370
-1
  6
ByLayer
 10
-300.0
 20
800.0
 30
0.0
 11
-330.0
 21
800.0
 31
0.0
  0
LINE
  5
64
100
AcDbEntity
100
AcDbLine
  8
Slots
 62
256
370
-1
  6
ByLayer
 10
-330.0
 20
800.0
 30
0.0
 11
-330.0
 21
785.0
 31
0.0
  0
LINE
  5
65
100
AcDbEntity
100
AcDbLine
  8
Slots
 62
256
370
-1
  6
ByLayer
 10
-330.0
 20
785.0
 30
0.0
 11
-300.0
 21
785.0
 31
0.0
  0
LINE
  5
66
100
AcDbEntity
100
AcDbLine
  8
Slots
 62
256
370
-1
  6
ByLayer
 10
-300.0
 20
770.0
 30
0.0
 11
-330.0
 21
770.0
 31
0.0
  0
LINE
  5
67
100
AcDbEntity
100
AcDbLine
  8
Slots
 62
256
370
-1
  6
ByLayer
 10
-330.0
 20
770.0
 30
0.0
 11
-330.0
 21
755.0
 31
0.0
  0
LINE
  5
68
100
AcDbEntity
100
AcDbLine
  8
Slots
 62
256
370
-1
  6
ByLayer
 10
-330.0
 20
755.0
 30
0.0
 11
-300.0
 21
755.0
 31
0.0
  0
LINE
  5
69
100
AcDbEntity
100
AcDbLine
  8
Slots
 62
256
370
-1
  6
ByLayer
 10
-300.0
 20
740.0
 30
0.0
 11
-330.0
 21
740.0
 31
0.0
  0
LINE
  5
6A
100
AcDbEntity
100
AcDbLine
  8
Slots
 62
256
370
-1
  6
ByLayer
 10
-330.0
 20
740.0
 30
0.0
 11
-330.0
 21
725.0
 31
0.0
  0
LINE
  5
6B
100
AcDbEntity
100
AcDbLine
  8
Slots
 62
256
370
-1
  6
ByLayer
 10
-330.0
 20
725.0
 30
0.0
 11
-300.0
 21
725.0
 31
0.0
  0
LINE
  5
6C
100
AcDbEntity
100
AcDbLine
  8
Slots
 62
256
370
-1
  6
ByLayer
 10
-300.0
 20
710.0
 30
0.0
 11
-330.0
 21
710.0
 31
0.0
  0
LINE
  5
6D
100
AcDbEntity
100
AcDbLine
  8
Slots
 62
256
370
-1
  6
ByLayer
 10
-330.0
 20
710.0
 30
0.0
 11
-330.0
 21
695.0
 31
0.0
  0
LINE
  5
6E
100
AcDbEntity
100
AcDbLine
  8
Slots
 62
256
370
-1
  6
ByLayer
 10
-330.0
 20
695.0
 30
0.0
 11
-300.0
 21
695.0
 31
0.0
  0
LINE
  5
6F
100
AcDbEntity
100
AcDbLine
  8
Slots
 62
256
370
-1
  6
ByLayer
 10
-300.0
 20
680.0
 30
0.0
 11
-330.0
 21
680.0
 31
0.0
  0
LINE
  5
70
100
AcDbEntity
100
AcDbLine
  8
Slots
 62
256
370
-1
  6
ByLayer
 10
-330.0
 20
680.0
 30
0.0
 11
-330.0
 21
665.0
 31
0.0
  0
LINE
  5
71
100
AcDbEntity
100
AcDbLine
  8
Slots
 62
256
370
-1
  6
ByLayer
 10
-330.0
 20
665.0
 30
0.0
 11
-300.0
 21
665.0
 31
0.0
  0
LINE
  5
72
100
AcDbEntity
100
AcDbLine
  8
Slots
 62
256
370
-1
  6
ByLayer
 10
-300.0
 20
650.0
 30
0.0
 11
-330.0
 21
650.0
 31
0.0
  0
LINE
  5
73
100
AcDbEntity
100
AcDbLine
  8
Slots
 62
256
370
-1
  6
ByLayer
 10
-330.0
 20
650.0
 30
0.0
 11
-330.0
 21
635.0
 31
0.0
  0
LINE
  5
74
100
AcDbEntity
100
AcDbLine
  8
Slots
 62
256
370
-1
  6
ByLayer
 10
-330.0
 20
635.0
 30
0.0
 11
-300.0
 21
635.0
 31
0.0
  0
LINE
  5
75
100
AcDbEntity
100
AcDbLine
  8
Slots
 62
256
370
-1
  6
ByLayer
 10
-300.0
 20
620.0
 30
0.0
 11
-330.0
 21
620.0
 31
0.0
  0
LINE
  5
76
100
AcDbEntity
100
AcDbLine
  8
Slots
 62
256
370
-1
  6
ByLayer
 10
-330.0
 20
620.0
 30
0.0
 11
-330.0
 21
605.0
 31
0.0
  0
LINE
  5
77
100
AcDbEntity
100
AcDbLine
  8
Slots
 62
256
370
-1
  6
ByLayer
 10
-330.0
 20
605.0
 30
0.0
 11
-300.0
 21
605.0
 31
0.0
  0
LINE
  5
78
100
AcDbEntity
100
AcDbLine
  8
Slots
 62
256
370
-1
  6
ByLayer
 10
-300.0
 20
590.0
 30
0.0
 11
-330.0
 21
590.0
 31
0.0
  0
LINE
  5
79
100
AcDbEntity
100
AcDbLine
  8
Slots
 62
256
370
-1
  6
ByLayer
 10
-330.0
 20
590.0
 30
0.0
 11
-330.0
 21
575.0
 31
0.0
  0
LINE
  5
7A
100
AcDbEntity
100
AcDbLine
  8
Slots
 62
256
370
-1
  6
ByLayer
 10
-330.0
 20
575.0
 30
0.0
 11
-300.0
 21
575.0
 31
0.0
  0
LINE
  5
7B
100
AcDbEntity
100
AcDbLine
  8
Slots
 62
256
370
-1
  6
ByLayer
 10
-300.0
 20
560.0
 30
0.0
 11
-330.0
 21
560.0
 31
0.0
  0
LINE
  5
7C
100
AcDbEntity
100
AcDbLine
  8
Slots
 62
256
370
-1
  6
ByLayer
 10
-330.0
 20
560.0
 30
0.0
 11
-330.0
 21
545.0
 31
0.0
  0
LINE
  5
7D
100
AcDbEntity
100
AcDbLine
  8
Slots
 62
256
370
-1
  6
ByLayer
 10
-330.0
 20
545.0
 30
0.0
 11
-300.0
 21
545.0
 31
0.0
  0
LINE
  5
7E
100
AcDbEntity
100
AcDbLine
  8
Slots
 62
256
370
-1
  6
ByLayer
 10
-300.0
 20
530.0
 30
0.0
 11
-330.0
 21
530.0
 31
0.0
  0
LINE
  5
7F
100
AcDbEntity
100
AcDbLine
  8
Slots
 62
256
370
-1
  6
ByLayer
 10
-330.0
 20
530.0
 30
0.0
 11
-330.0
 21
515.0
 31
0.0
  0
LINE
  5
80
100
AcDbEntity
100
AcDbLine
  8
Slots
 62
256
370
-1
  6
ByLayer
 10
-330.0
 20
515.0
 30
0.0
 11
-300.0
 21
515.0
 31
0.0
  0
LINE
  5
81
100
AcDbEntity
100
AcDbLine
  8
Slots
 62
256
370
-1
  6
ByLayer
 10
-300.0
 20
500.0
 30
0.0
 11
-330.0
 21
500.0
 31
0.0
  0
LINE
  5
82
100
AcDbEntity
100
AcDbLine
  8
Slots
 62
256
370
-1
  6
ByLayer
 10
-330.0
 20
500.0
 30
0.0
 11
-330.0
 21
485.0
 31
0.0
  0
LINE
  5
83
100
AcDbEntity
100
AcDbLine
  8
Slots
 62
256
370
-1
  6
ByLayer
 10
-330.0
 20
485.0
 30
0.0
 11
-300.0
 21
485.0
 31
0.0
  0
LINE
  5
84
100
AcDbEntity
100
AcDbLine
  8
Slots
 62
256
370
-1
  6
ByLayer
 10
-300.0
 20
470.0
 30
0.0
 11
-330.0
 21
470.0
 31
0.0
  0
LINE
  5
85
100
AcDbEntity
100
AcDbLine
  8
Slots
 62
256
370
-1
  6
ByLayer
 10
-330.0
 20
470.0
 30
0.0
 11
-330.0
 21
455.0
 31
0.0
  0
LINE
  5
86
100
AcDbEntity
100
AcDbLine
  8
Slots
 62
256
370
-1
  6
ByLayer
 10
-330.0
 20
455.0
 30
0.0
 11
-300.0
 21
455.0
 31
0.0
  0
LINE
  5
87
100
AcDbEntity
100
AcDbLine
  8
Slots
 62
256
370
-1
  6
ByLayer
 10
-300.0
 20
440.0
 30
0.0
 11
-330.0
 21
440.0
 31
0.0
  0
LINE
  5
88
100
AcDbEntity
100
AcDbLine
  8
Slots
 62
256
370
-1
  6
ByLayer
 10
-330.0
 20
440.0
 30
0.0
 11
-330.0
 21
425.0
 31
0.0
  0
LINE
  5
89
100
AcDbEntity
100
AcDbLine
  8
Slots
 62
256
370
-1
  6
ByLayer
 10
-330.0
 20
425.0
 30
0.0
 11
-300.0
 21
425.0
 31
0.0
  0
LINE
  5
8A
100
AcDbEntity
100
AcDbLine
  8
Slots
 62
256
370
-1
  6
ByLayer
 10
-300.0
 20
410.0
 30
0.0
 11
-330.0
 21
410.0
 31
0.0
  0
LINE
  5
8B
100
AcDbEntity
100
AcDbLine
  8
Slots
 62
256
370
-1
  6
ByLayer
 10
-330.0
 20
410.0
 30
0.0
 11
-330.0
 21
395.0
 31
0.0
  0
LINE
  5
8C
100
AcDbEntity
100
AcDbLine
  8
Slots
 62
256
370
-1
  6
ByLayer
 10
-330.0
 20
395.0
 30
0.0
 11
-300.0
 21
395.0
 31
0.0
  0
LINE
  5
8D
100
AcDbEntity
100
AcDbLine
  8
Slots
 62
256
370
-1
  6
ByLayer
 10
-300.0
 20
380.0
 30
0.0
 11
-330.0
 21
380.0
 31
0.0
  0
LINE
  5
8E
100
AcDbEntity
100
AcDbLine
  8
Slots
 62
256
370
-1
  6
ByLayer
 10
-330.0
 20
380.0
 30
0.0
 11
-330.0
 21
365.0
 31
0.0
  0
LINE
  5
8F
100
AcDbEntity
100
AcDbLine
  8
Slots
 62
256
370
-1
  6
ByLayer
 10
-330.0
 20
365.0
 30
0.0
 11
-300.0
 21
365.0
 31
0.0
  0
LINE
  5
90
100
AcDbEntity
100
AcDbLine
  8
Slots
 62
256
370
-1
  6
ByLayer
 10
-300.0
 20
350.0
 30
0.0
 11
-330.0
 21
350.0
 31
0.0
  0
LINE
  5
91
100
AcDbEntity
100
AcDbLine
  8
Slots
 62
256
370
-1
  6
ByLayer
 10
-330.0
 20
350.0
 30
0.0
 11
-330.0
 21
335.0
 31
0.0
  0
LINE
  5
92
100
AcDbEntity
100
AcDbLine
  8
Slots
 62
256
370
-1
  6
ByLayer
 10
-330.0
 20
335.0
 30
0.0
 11
-300.0
 21
335.0
 31
0.0
  0
LINE
  5
93
100
AcDbEntity
100
AcDbLine
  8
Feet
 62
256
370
-1
  6
ByLayer
 10
-320.0
 20
100.0
 30
0.0
 11
-320.0
 21
250.0
 31
0.0
  0
LINE
  5
94
100
AcDbEntity
100
AcDbLine
  8
Feet
 62
256
370
-1
  6
ByLayer
 10
-320.0
 20
250.0
 30
0.0
 11
-300.0
 21
250.0
 31
0.0
  0
LINE
  5
95
100
AcDbEntity
100
AcDbLine
  8
Feet
 62
256
370
-1
  6
ByLayer
 10
-320.0
 20
100.0
 30
0.0
 11
-300.0
 21
100.0
 31
0.0
  0
LINE
  5
96
100
AcDbEntity
100
AcDbLine
  8
Feet
 62
256
370
-1
  6
ByLayer
 10
-300.0
 20
250.0
 30
0.0
 11
-290.0
 21
250.0
 31
0.0
  0
LINE
  5
97
100
AcDbEntity
100
AcDbLine
  8
Feet
 62
256
370
-1
  6
ByLayer
 10
-150.0
 20
100.0
 30
0.0
 11
-150.0
 21
110.0
 31
0.0
  0
ARC
  5
98
100
AcDbEntity
  8
Feet
 62
256
370
-1
  6
ByLayer
100
AcDbCircle
 10
-170.0
 20
110.0
 30
0.0
 40
20.0
100
AcDbArc
 50
0.0
 51
90.0
  0
ARC
  5
99
100
AcDbEntity
  8
Feet
 62
256
370
-1
  6
ByLayer
100
AcDbCircle
 10
-290.0
 20
230.0
 30
0.0
 40
20.0
100
AcDbArc
 50
0.0
 51
90.0
  0
ARC
  5
9A
100
AcDbEntity
  8
Feet
 62
256
370
-1
  6
ByLayer
100
AcDbCircle
 10
-150.0
 20
250.0
 30
0.0
 40
121.6552506059643974
100
AcDbArc
 50
189.4623222080255971
 51
260.5376777919743745
  0
LINE
  5
9B
100
AcDbEntity
100
AcDbLine
  8
Feet
 62
256
370
-1
  6
ByLayer
 10
-300.0
 20
100.0
 30
0.0
 11
-280.0
 21
100.0
 31
0.0
  0
LINE
  5
9C
100
AcDbEntity
100
AcDbLine
  8
Feet
 62
256
370
-1
  6
ByLayer
 10
-280.0
 20
100.0
 30
0.0
 11
-150.0
 21
100.0
 31
0.0
  0
LINE
  5
9D
100
AcDbEntity
100
AcDbLine
  8
0
 62
256
370
-1
  6
ByLayer
 10
300.0
 20
1100.0
 30
0.0
 11
300.0
 21
100.0
 31
0.0
  0
LINE
  5
9E
100
AcDbEntity
100
AcDbLine
  8
Slots
 62
256
370
-1
  6
ByLayer
 10
300.0
 20
1070.0
 30
0.0
 11
300.0
 21
1055.0
 31
0.0
  0
LINE
  5
9F
100
AcDbEntity
100
AcDbLine
  8
Feet
 62
256
370
-1
  6
ByLayer
 10
320.0
 20
100.0
 30
0.0
 11
320.0
 21
250.0
 31
0.0
  0
LINE
  5
A0
100
AcDbEntity
100
AcDbLine
  8
Feet
 62
256
370
-1
  6
ByLayer
 10
320.0
 20
250.0
 30
0.0
 11
300.0
 21
250.0000000000000284
 31
0.0
  0
LINE
  5
A1
100
AcDbEntity
100
AcDbLine
  8
Feet
 62
256
370
-1
  6
ByLayer
 10
320.0
 20
100.0
 30
0.0
 11
300.0
 21
100.0
 31
0.0
  0
LINE
  5
A2
100
AcDbEntity
100
AcDbLine
  8
Feet
 62
256
370
-1
  6
ByLayer
 10
300.0
 20
250.0000000000000284
 30
0.0
 11
290.0
 21
250.0000000000000284
 31
0.0
  0
LINE
  5
A3
100
AcDbEntity
100
AcDbLine
  8
Feet
 62
256
370
-1
  6
ByLayer
 10
149.9999999999999716
 20
100.0000000000000568
 30
0.0
 11
150.0000000000000284
 21
109.9999999999999716
 31
0.0
  0
ARC
  5
A4
100
AcDbEntity
  8
Feet
 62
256
370
-1
  6
ByLayer
100
AcDbCircle
 10
169.9999999999999432
 20
110.0000000000000853
 30
0.0
 40
20.0
100
AcDbArc
 50
89.9999999999999858
 51
180.0
  0
ARC
  5
A5
100
AcDbEntity
  8
Feet
 62
256
370
-1
  6
ByLayer
100
AcDbCircle
 10
290.0
 20
230.0
 30
0.0
 40
20.0
100
AcDbArc
 50
89.9999999999999858
 51
180.0
  0
ARC
  5
A6
100
AcDbEntity
  8
Feet
 62
256
370
-1
  6
ByLayer
100
AcDbCircle
 10
150.0
 20
250.0000000000000853
 30
0.0
 40
121.6552506059643974
100
AcDbArc
 50
279.4623222080256255
 51
350.5376777919744313
  0
LINE
  5
A7
100
AcDbEntity
100
AcDbLine
  8
Feet
 62
256
370
-1
  6
ByLayer
 10
300.0
 20
100.0
 30
0.0
 11
279.9999999999999432
 21
100.0000000000000284
 31
0.0
  0
LINE
  5
A8
100
AcDbEntity
100
AcDbLine
  8
Feet
 62
256
370
-1
  6
ByLayer
 10
279.9999999999999432
 20
100.0000000000000284
 30
0.0
 11
149.9999999999999716
 21
100.0000000000000568
 31
0.0
  0
LINE
  5
A9
100
AcDbEntity
100
AcDbLine
  8
Top
 62
256
370
-1
  6
ByLayer
 10
280.0
 20
1090.0
 30
0.0
 11
300.0
 21
1090.0
 31
0.0
  0
LINE
  5
AA
100
AcDbEntity
100
AcDbLine
  8
Top
 62
256
370
-1
  6
ByLayer
 10
300.0
 20
1090.0
 30
0.0
 11
300.0
 21
1100.0
 31
0.0
  0
LINE
  5
AB
100
AcDbEntity
100
AcDbLine
  8
Top
 62
256
370
-1
  6
ByLayer
 10
280.0
 20
1110.0
 30
0.0
 11
280.0
 21
1090.0
 31
0.0
  0
LINE
  5
AC
100
AcDbEntity
100
AcDbLine
  8
Top
 62
256
370
-1
  6
ByLayer
 10
-300.0
 20
1100.0
 30
0.0
 11
-300.0
 21
1090.0
 31
0.0
  0
LINE
  5
AD
100
AcDbEntity
100
AcDbLine
  8
Top
 62
256
370
-1
  6
ByLayer
 10
-300.0
 20
1090.0
 30
0.0
 11
-280.0
 21
1090.0
 31
0.0
  0
LINE
  5
AE
100
AcDbEntity
100
AcDbLine
  8
Top
 62
256
370
-1
  6
ByLayer
 10
-280.0
 20
1090.0
 30
0.0
 11
-280.0
 21
1110.0
 31
0.0
  0
LINE
  5
AF
100
AcDbEntity
100
AcDbLine
  8
Feet
 62
256
370
-1
  6
ByLayer
 10
300.0
 20
250.0
 30
0.0
 11
300.0
 21
100.0
 31
0.0
  0
LINE
  5
B0
100
AcDbEntity
100
AcDbLine
  8
Feet
 62
256
370
-1
  6
ByLayer
 10
-300.0
 20
250.0
 30
0.0
 11
-300.0
 21
100.0
 31
0.0
  0
DIMENSION
  5
B1
100
AcDbEntity
  8
Dimensions
 62
256
370
-1
  6
ByLayer
100
AcDbDimension
 10
700.0
 20
250.0
 30
0.0
 11
696.875
 21
175.0
 31
0.0
 70
0
 71
5
 72
1
 41
1.0
 42
0.0
  1

  3
Standard
100
AcDbAlignedDimension
 13
600.0
 23
100.0
 33
0.0
 14
600.0
 24
250.0
 34
0.0
 50
90.0
100
AcDbRotatedDimension
  0
DIMENSION
  5
B2
100
AcDbEntity
  8
Dimensions
 62
256
370
-1
  6
ByLayer
100
AcDbDimension
 10
700.0
 20
335.0
 30
0.0
 11
696.875
 21
292.5
 31
0.0
 70
0
 71
5
 72
1
 41
1.0
 42
0.0
  1

  3
Standard
100
AcDbAlignedDimension
 13
600.0
 23
250.0
 33
0.0
 14
600.0
 24
335.0
 34
0.0
 50
90.0
100
AcDbRotatedDimension
  0
DIMENSION
  5
B3
100
AcDbEntity
  8
Dimensions
 62
256
370
-1
  6
ByLayer
100
AcDbDimension
 10
700.0
 20
350.0
 30
0.0
 11
696.875
 21
342.5
 31
0.0
 70
0
 71
5
 72
1
 41
1.0
 42
0.0
  1

  3
Standard
100
AcDbAlignedDimension
 13
600.0
 23
335.0
 33
0.0
 14
600.0
 24
350.0
 34
0.0
 50
90.0
100
AcDbRotatedDimension
  0
DIMENSION
  5
B4
100
AcDbEntity
  8
Dimensions
 62
256
370
-1
  6
ByLayer
100
AcDbDimension
 10
700.0
 20
365.0
 30
0.0
 11
696.875
 21
357.5
 31
0.0
 70
0
 71
5
 72
1
 41
1.0
 42
0.0
  1

  3
Standard
100
AcDbAlignedDimension
 13
600.0
 23
350.0
 33
0.0
 14
600.0
 24
365.0
 34
0.0
 50
90.0
100
AcDbRotatedDimension
  0
DIMENSION
  5
B5
100
AcDbEntity
  8
Dimensions
 62
256
370
-1
  6
ByLayer
100
AcDbDimension
 10
700.0
 20
380.0
 30
0.0
 11
696.875
 21
372.5
 31
0.0
 70
0
 71
5
 72
1
 41
1.0
 42
0.0
  1

  3
Standard
100
AcDbAlignedDimension
 13
600.0
 23
365.0
 33
0.0
 14
600.0
 24
380.0
 34
0.0
 50
90.0
100
AcDbRotatedDimension
  0
DIMENSION
  5
B6
100
AcDbEntity
  8
Dimensions
 62
256
370
-1
  6
ByLayer
100
AcDbDimension
 10
700.0
 20
395.0
 30
0.0
 11
696.875
 21
387.5
 31
0.0
 70
0
 71
5
 72
1
 41
1.0
 42
0.0
  1

  3
Standard
100
AcDbAlignedDimension
 13
600.0
 23
380.0
 33
0.0
 14
600.0
 24
395.0
 34
0.0
 50
90.0
100
AcDbRotatedDimension
  0
DIMENSION
  5
B7
100
AcDbEntity
  8
Dimensions
 62
256
370
-1
  6
ByLayer
100
AcDbDimension
 10
700.0
 20
410.0
 30
0.0
 11
696.875
 21
402.5
 31
0.0
 70
0
 71
5
 72
1
 41
1.0
 42
0.0
  1

  3
Standard
100
AcDbAlignedDimension
 13
600.0
 23
395.0
 33
0.0
 14
600.0
 24
410.0
 34
0.0
 50
90.0
100
AcDbRotatedDimension
  0
DIMENSION
  5
B8
100
AcDbEntity
  8
Dimensions
 62
256
370
-1
  6
ByLayer
100
AcDbDimension
 10
700.0
 20
425.0
 30
0.0
 11
696.875
 21
417.5
 31
0.0
 70
0
 71
5
 72
1
 41
1.0
 42
0.0
  1

  3
Standard
100
AcDbAlignedDimension
 13
600.0
 23
410.0
 33
0.0
 14
600.0
 24
425.0
 34
0.0
 50
90.0
100
AcDbRotatedDimension
  0
DIMENSION
  5
B9
100
AcDbEntity
  8
Dimensions
 62
256
370
-1
  6
ByLayer
100
AcDbDimension
 10
700.0
 20
440.0
 30
0.0
 11
696.875
 21
432.5
 31
0.0
 70
0
 71
5
 72
1
 41
1.0
 42
0.0
  1

  3
Standard
100
AcDbAlignedDimension
 13
600.0
 23
425.0
 33
0.0
 14
600.0
 24
440.0
 34
0.0
 50
90.0
100
AcDbRotatedDimension
  0
DIMENSION
  5
BA
100
AcDbEntity
  8
Dimensions
 62
256
370
-1
  6
ByLayer
100
AcDbDimension
 10
700.0
 20
455.0
 30
0.0
 11
696.875
 21
447.5
 31
0.0
 70
0
 71
5
 72
1
 41
1.0
 42
0.0
  1

  3
Standard
100
AcDbAlignedDimension
 13
600.0
 23
440.0
 33
0.0
 14
600.0
 24
455.0
 34
0.0
 50
90.0
100
AcDbRotatedDimension
  0
DIMENSION
  5
BB
100
AcDbEntity
  8
Dimensions
 62
256
370
-1
  6
ByLayer
100
AcDbDimension
 10
700.0
 20
470.0
 30
0.0
 11
696.875
 21
462.5
 31
0.0
 70
0
 71
5
 72
1
 41
1.0
 42
0.0
  1

  3
Standard
100
AcDbAlignedDimension
 13
600.0
 23
455.0
 33
0.0
 14
600.0
 24
470.0
 34
0.0
 50
90.0
100
AcDbRotatedDimension
  0
DIMENSION
  5
BC
100
AcDbEntity
  8
Dimensions
 62
256
370
-1
  6
ByLayer
100
AcDbDimension
 10
700.0
 20
485.0
 30
0.0
 11
696.875
 21
477.5
 31
0.0
 70
0
 71
5
 72
1
 41
1.0
 42
0.0
  1

  3
Standard
100
AcDbAlignedDimension
 13
600.0
 23
470.0
 33
0.0
 14
600.0
 24
485.0
 34
0.0
 50
90.0
100
AcDbRotatedDimension
  0
DIMENSION
  5
BD
100
AcDbEntity
  8
Dimensions
 62
256
370
-1
  6
ByLayer
100
AcDbDimension
 10
700.0
 20
500.0
 30
0.0
 11
696.875
 21
492.5
 31
0.0
 70
0
 71
5
 72
1
 41
1.0
 42
0.0
  1

  3
Standard
100
AcDbAlignedDimension
 13
600.0
 23
485.0
 33
0.0
 14
600.0
 24
500.0
 34
0.0
 50
90.0
100
AcDbRotatedDimension
  0
DIMENSION
  5
BE
100
AcDbEntity
  8
Dimensions
 62
256
370
-1
  6
ByLayer
100
AcDbDimension
 10
700.0
 20
515.0
 30
0.0
 11
696.875
 21
507.5
 31
0.0
 70
0
 71
5
 72
1
 41
1.0
 42
0.0
  1

  3
Standard
100
AcDbAlignedDimension
 13
600.0
 23
500.0
 33
0.0
 14
600.0
 24
515.0
 34
0.0
 50
90.0
100
AcDbRotatedDimension
  0
DIMENSION
  5
BF
100
AcDbEntity
  8
Dimensions
 62
256
370
-1
  6
ByLayer
100
AcDbDimension
 10
700.0
 20
530.0
 30
0.0
 11
696.875
 21
522.5
 31
0.0
 70
0
 71
5
 72
1
 41
1.0
 42
0.0
  1

  3
Standard
100
AcDbAlignedDimension
 13
600.0
 23
515.0
 33
0.0
 14
600.0
 24
530.0
 34
0.0
 50
90.0
100
AcDbRotatedDimension
  0
DIMENSION
  5
C0
100
AcDbEntity
  8
Dimensions
 62
256
370
-1
  6
ByLayer
100
AcDbDimension
 10
700.0
 20
545.0
 30
0.0
 11
696.875
 21
537.5
 31
0.0
 70
0
 71
5
 72
1
 41
1.0
 42
0.0
  1

  3
Standard
100
AcDbAlignedDimension
 13
600.0
 23
530.0
 33
0.0
 14
600.0
 24
545.0
 34
0.0
 50
90.0
100
AcDbRotatedDimension
  0
DIMENSION
  5
C1
100
AcDbEntity
  8
Dimensions
 62
256
370
-1
  6
ByLayer
100
AcDbDimension
 10
700.0
 20
560.0
 30
0.0
 11
696.875
 21
552.5
 31
0.0
 70
0
 71
5
 72
1
 41
1.0
 42
0.0
  1

  3
Standard
100
AcDbAlignedDimension
 13
600.0
 23
545.0
 33
0.0
 14
600.0
 24
560.0
 34
0.0
 50
90.0
100
AcDbRotatedDimension
  0
DIMENSION
  5
C2
100
AcDbEntity
  8
Dimensions
 62
256
370
-1
  6
ByLayer
100
AcDbDimension
 10
700.0
 20
575.0
 30
0.0
 11
696.875
 21
567.5
 31
0.0
 70
0
 71
5
 72
1
 41
1.0
 42
0.0
  1

  3
Standard
100
AcDbAlignedDimension
 13
600.0
 23
560.0
 33
0.0
 14
600.0
 24
575.0
 34
0.0
 50
90.0
100
AcDbRotatedDimension
  0
DIMENSION
  5
C3
100
AcDbEntity
  8
Dimensions
 62
256
370
-1
  6
ByLayer
100
AcDbDimension
 10
700.0
 20
590.0
 30
0.0
 11
696.875
 21
582.5
 31
0.0
 70
0
 71
5
 72
1
 41
1.0
 42
0.0
  1

  3
Standard
100
AcDbAlignedDimension
 13
600.0
 23
575.0
 33
0.0
 14
600.0
 24
590.0
 34
0.0
 50
90.0
100
AcDbRotatedDimension
  0
DIMENSION
  5
C4
100
AcDbEntity
  8
Dimensions
 62
256
370
-1
  6
ByLayer
100
AcDbDimension
 10
700.0
 20
605.0
 30
0.0
 11
696.875
 21
597.5
 31
0.0
 70
0
 71
5
 72
1
 41
1.0
 42
0.0
  1

  3
Standard
100
AcDbAlignedDimension
 13
600.0
 23
590.0
 33
0.0
 14
600.0
 24
605.0
 34
0.0
 50
90.0
100
AcDbRotatedDimension
  0
DIMENSION
  5
C5
100
AcDbEntity
  8
Dimensions
 62
256
370
-1
  6
ByLayer
100
AcDbDimension
 10
700.0
 20
620.0
 30
0.0
 11
696.875
 21
612.5
 31
0.0
 70
0
 71
5
 72
1
 41
1.0
 42
0.0
  1

  3
Standard
100
AcDbAlignedDimension
 13
600.0
 23
605.0
 33
0.0
 14
600.0
 24
620.0
 34
0.0
 50
90.0
100
AcDbRotatedDimension
  0
DIMENSION
  5
C6
100
AcDbEntity
  8
Dimensions
 62
256
370
-1
  6
ByLayer
100
AcDbDimension
 10
700.0
 20
635.0
 30
0.0
 11
696.875
 21
627.5
 31
0.0
 70
0
 71
5
 72
1
 41
1.0
 42
0.0
  1

  3
Standard
100
AcDbAlignedDimension
 13
600.0
 23
620.0
 33
0.0
 14
600.0
 24
635.0
 34
0.0
 50
90.0
100
AcDbRotatedDimension
  0
DIMENSION
  5
C7
100
AcDbEntity
  8
Dimensions
 62
256
370
-1
  6
ByLayer
100
AcDbDimension
 10
700.0
 20
650.0
 30
0.0
 11
696.875
 21
642.5
 31
0.0
 70
0
 71
5
 72
1
 41
1.0
 42
0.0
  1

  3
Standard
100
AcDbAlignedDimension
 13
600.0
 23
635.0
 33
0.0
 14
600.0
 24
650.0
 34
0.0
 50
90.0
100
AcDbRotatedDimension
  0
DIMENSION
  5
C8
100
AcDbEntity
  8
Dimensions
 62
256
370
-1
  6
ByLayer
100
AcDbDimension
 10
700.0
 20
665.0
 30
0.0
 11
696.875
 21
657.5
 31
0.0
 70
0
 71
5
 72
1
 41
1.0
 42
0.0
  1

  3
Standard
100
AcDbAlignedDimension
 13
600.0
 23
650.0
 33
0.0
 14
600.0
 24
665.0
 34
0.0
 50
90.0
100
AcDbRotatedDimension
  0
DIMENSION
  5
C9
100
AcDbEntity
  8
Dimensions
 62
256
370
-1
  6
ByLayer
100
AcDbDimension
 10
700.0
 20
680.0
 30
0.0
 11
696.875
 21
672.5
 31
0.0
 70
0
 71
5
 72
1
 41
1.0
 42
0.0
  1

  3
Standard
100
AcDbAlignedDimension
 13
600.0
 23
665.0
 33
0.0
 14
600.0
 24
680.0
 34
0.0
 50
90.0
100
AcDbRotatedDimension
  0
DIMENSION
  5
CA
100
AcDbEntity
  8
Dimensions
 62
256
370
-1
  6
ByLayer
100
AcDbDimension
 10
700.0
 20
695.0
 30
0.0
 11
696.875
 21
687.5
 31
0.0
 70
0
 71
5
 72
1
 41
1.0
 42
0.0
  1

  3
Standard
100
AcDbAlignedDimension
 13
600.0
 23
680.0
 33
0.0
 14
600.0
 24
695.0
 34
0.0
 50
90.0
100
AcDbRotatedDimension
  0
DIMENSION
  5
CB
100
AcDbEntity
  8
Dimensions
 62
256
370
-1
  6
ByLayer
100
AcDbDimension
 10
700.0
 20
710.0
 30
0.0
 11
696.875
 21
702.5
 31
0.0
 70
0
 71
5
 72
1
 41
1.0
 42
0.0
  1

  3
Standard
100
AcDbAlignedDimension
 13
600.0
 23
695.0
 33
0.0
 14
600.0
 24
710.0
 34
0.0
 50
90.0
100
AcDbRotatedDimension
  0
DIMENSION
  5
CC
100
AcDbEntity
  8
Dimensions
 62
256
370
-1
  6
ByLayer
100
AcDbDimension
 10
700.0
 20
725.0
 30
0.0
 11
696.875
 21
717.5
 31
0.0
 70
0
 71
5
 72
1
 41
1.0
 42
0.0
  1

  3
Standard
100
AcDbAlignedDimension
 13
600.0
 23
710.0
 33
0.0
 14
600.0
 24
725.0
 34
0.0
 50
90.0
100
AcDbRotatedDimension
  0
DIMENSION
  5
CD
100
AcDbEntity
  8
Dimensions
 62
256
370
-1
  6
ByLayer
100
AcDbDimension
 10
700.0
 20
740.0
 30
0.0
 11
696.875
 21
732.5
 31
0.0
 70
0
 71
5
 72
1
 41
1.0
 42
0.0
  1

  3
Standard
100
AcDbAlignedDimension
 13
600.0
 23
725.0
 33
0.0
 14
600.0
 24
740.0
 34
0.0
 50
90.0
100
AcDbRotatedDimension
  0
DIMENSION
  5
CE
100
AcDbEntity
  8
Dimensions
 62
256
370
-1
  6
ByLayer
100
AcDbDimension
 10
700.0
 20
755.0
 30
0.0
 11
696.875
 21
747.5
 31
0.0
 70
0
 71
5
 72
1
 41
1.0
 42
0.0
  1

  3
Standard
100
AcDbAlignedDimension
 13
600.0
 23
740.0
 33
0.0
 14
600.0
 24
755.0
 34
0.0
 50
90.0
100
AcDbRotatedDimension
  0
DIMENSION
  5
CF
100
AcDbEntity
  8
Dimensions
 62
256
370
-1
  6
ByLayer
100
AcDbDimension
 10
700.0
 20
770.0
 30
0.0
 11
696.875
 21
762.5
 31
0.0
 70
0
 71
5
 72
1
 41
1.0
 42
0.0
  1

  3
Standard
100
AcDbAlignedDimension
 13
600.0
 23
755.0
 33
0.0
 14
600.0
 24
770.0
 34
0.0
 50
90.0
100
AcDbRotatedDimension
  0
DIMENSION
  5
D0
100
AcDbEntity
  8
Dimensions
 62
256
370
-1
  6
ByLayer
100
AcDbDimension
 10
700.0
 20
785.0
 30
0.0
 11
696.875
 21
777.5
 31
0.0
 70
0
 71
5
 72
1
 41
1.0
 42
0.0
  1

  3
Standard
100
AcDbAlignedDimension
 13
600.0
 23
770.0
 33
0.0
 14
600.0
 24
785.0
 34
0.0
 50
90.0
100
AcDbRotatedDimension
  0
DIMENSION
  5
D1
100
AcDbEntity
  8
Dimensions
 62
256
370
-1
  6
ByLayer
100
AcDbDimension
 10
700.0
 20
800.0
 30
0.0
 11
696.875
 21
792.5
 31
0.0
 70
0
 71
5
 72
1
 41
1.0
 42
0.0
  1

  3
Standard
100
AcDbAlignedDimension
 13
600.0
 23
785.0
 33
0.0
 14
600.0
 24
800.0
 34
0.0
 50
90.0
100
AcDbRotatedDimension
  0
DIMENSION
  5
D2
100
AcDbEntity
  8
Dimensions
 62
256
370
-1
  6
ByLayer
100
AcDbDimension
 10
700.0
 20
815.0
 30
0.0
 11
696.875
 21
807.5
 31
0.0
 70
0
 71
5
 72
1
 41
1.0
 42
0.0
  1

  3
Standard
100
AcDbAlignedDimension
 13
600.0
 23
800.0
 33
0.0
 14
600.0
 24
815.0
 34
0.0
 50
90.0
100
AcDbRotatedDimension
  0
DIMENSION
  5
D3
100
AcDbEntity
  8
Dimensions
 62
256
370
-1
  6
ByLayer
100
AcDbDimension
 10
700.0
 20
830.0
 30
0.0
 11
696.875
 21
822.5
 31
0.0
 70
0
 71
5
 72
1
 41
1.0
 42
0.0
  1

  3
Standard
100
AcDbAlignedDimension
 13
600.0
 23
815.0
 33
0.0
 14
600.0
 24
830.0
 34
0.0
 50
90.0
100
AcDbRotatedDimension
  0
DIMENSION
  5
D4
100
AcDbEntity
  8
Dimensions
 62
256
370
-1
  6
ByLayer
100
AcDbDimension
 10
700.0
 20
845.0
 30
0.0
 11
696.875
 21
837.5
 31
0.0
 70
0
 71
5
 72
1
 41
1.0
 42
0.0
  1

  3
Standard
100
AcDbAlignedDimension
 13
600.0
 23
830.0
 33
0.0
 14
600.0
 24
845.0
 34
0.0
 50
90.0
100
AcDbRotatedDimension
  0
DIMENSION
  5
D5
100
AcDbEntity
  8
Dimensions
 62
256
370
-1
  6
ByLayer
100
AcDbDimension
 10
700.0
 20
860.0
 30
0.0
 11
696.875
 21
852.5
 31
0.0
 70
0
 71
5
 72
1
 41
1.0
 42
0.0
  1

  3
Standard
100
AcDbAlignedDimension
 13
600.0
 23
845.0
 33
0.0
 14
600.0
 24
860.0
 34
0.0
 50
90.0
100
AcDbRotatedDimension
  0
DIMENSION
  5
D6
100
AcDbEntity
  8
Dimensions
 62
256
370
-1
  6
ByLayer
100
AcDbDimension
 10
700.0
 20
875.0
 30
0.0
 11
696.875
 21
867.5
 31
0.0
 70
0
 71
5
 72
1
 41
1.0
 42
0.0
  1

  3
Standard
100
AcDbAlignedDimension
 13
600.0
 23
860.0
 33
0.0
 14
600.0
 24
875.0
 34
0.0
 50
90.0
100
AcDbRotatedDimension
  0
DIMENSION
  5
D7
100
AcDbEntity
  8
Dimensions
 62
256
370
-1
  6
ByLayer
100
AcDbDimension
 10
700.0
 20
890.0
 30
0.0
 11
696.875
 21
882.5
 31
0.0
 70
0
 71
5
 72
1
 41
1.0
 42
0.0
  1

  3
Standard
100
AcDbAlignedDimension
 13
600.0
 23
875.0
 33
0.0
 14
600.0
 24
890.0
 34
0.0
 50
90.0
100
AcDbRotatedDimension
  0
DIMENSION
  5
D8
100
AcDbEntity
  8
Dimensions
 62
256
370
-1
  6
ByLayer
100
AcDbDimension
 10
700.0
 20
905.0
 30
0.0
 11
696.875
 21
897.5
 31
0.0
 70
0
 71
5
 72
1
 41
1.0
 42
0.0
  1

  3
Standard
100
AcDbAlignedDimension
 13
600.0
 23
890.0
 33
0.0
 14
600.0
 24
905.0
 34
0.0
 50
90.0
100
AcDbRotatedDimension
  0
DIMENSION
  5
D9
100
AcDbEntity
  8
Dimensions
 62
256
370
-1
  6
ByLayer
100
AcDbDimension
 10
700.0
 20
920.0
 30
0.0
 11
696.875
 21
912.5
 31
0.0
 70
0
 71
5
 72
1
 41
1.0
 42
0.0
  1

  3
Standard
100
AcDbAlignedDimension
 13
600.0
 23
905.0
 33
0.0
 14
600.0
 24
920.0
 34
0.0
 50
90.0
100
AcDbRotatedDimension
  0
DIMENSION
  5
DA
100
AcDbEntity
  8
Dimensions
 62
256
370
-1
  6
ByLayer
100
AcDbDimension
 10
700.0
 20
935.0
 30
0.0
 11
696.875
 21
927.5
 31
0.0
 70
0
 71
5
 72
1
 41
1.0
 42
0.0
  1

  3
Standard
100
AcDbAlignedDimension
 13
600.0
 23
920.0
 33
0.0
 14
600.0
 24
935.0
 34
0.0
 50
90.0
100
AcDbRotatedDimension
  0
DIMENSION
  5
DB
100
AcDbEntity
  8
Dimensions
 62
256
370
-1
  6
ByLayer
100
AcDbDimension
 10
700.0
 20
950.0
 30
0.0
 11
696.875
 21
942.5
 31
0.0
 70
0
 71
5
 72
1
 41
1.0
 42
0.0
  1

  3
Standard
100
AcDbAlignedDimension
 13
600.0
 23
935.0
 33
0.0
 14
600.0
 24
950.0
 34
0.0
 50
90.0
100
AcDbRotatedDimension
  0
DIMENSION
  5
DC
100
AcDbEntity
  8
Dimensions
 62
256
370
-1
  6
ByLayer
100
AcDbDimension
 10
700.0
 20
965.0
 30
0.0
 11
696.875
 21
957.5
 31
0.0
 70
0
 71
5
 72
1
 41
1.0
 42
0.0
  1

  3
Standard
100
AcDbAlignedDimension
 13
600.0
 23
950.0
 33
0.0
 14
600.0
 24
965.0
 34
0.0
 50
90.0
100
AcDbRotatedDimension
  0
DIMENSION
  5
DD
100
AcDbEntity
  8
Dimensions
 62
256
370
-1
  6
ByLayer
100
AcDbDimension
 10
700.0
 20
980.0
 30
0.0
 11
696.875
 21
972.5
 31
0.0
 70
0
 71
5
 72
1
 41
1.0
 42
0.0
  1

  3
Standard
100
AcDbAlignedDimension
 13
600.0
 23
965.0
 33
0.0
 14
600.0
 24
980.0
 34
0.0
 50
90.0
100
AcDbRotatedDimension
  0
DIMENSION
  5
DE
100
AcDbEntity
  8
Dimensions
 62
256
370
-1
  6
ByLayer
100
AcDbDimension
 10
700.0
 20
995.0
 30
0.0
 11
696.875
 21
987.5
 31
0.0
 70
0
 71
5
 72
1
 41
1.0
 42
0.0
  1

  3
Standard
100
AcDbAlignedDimension
 13
600.0
 23
980.0
 33
0.0
 14
600.0
 24
995.0
 34
0.0
 50
90.0
100
AcDbRotatedDimension
  0
DIMENSION
  5
DF
100
AcDbEntity
  8
Dimensions
 62
256
370
-1
  6
ByLayer
100
AcDbDimension
 10
700.0
 20
1010.0
 30
0.0
 11
696.875
 21
1002.5
 31
0.0
 70
0
 71
5
 72
1
 41
1.0
 42
0.0
  1

  3
Standard
100
AcDbAlignedDimension
 13
600.0
 23
995.0
 33
0.0
 14
600.0
 24
1010.0
 34
0.0
 50
90.0
100
AcDbRotatedDimension
  0
DIMENSION
  5
E0
100
AcDbEntity
  8
Dimensions
 62
256
370
-1
  6
ByLayer
100
AcDbDimension
 10
700.0
 20
1025.0
 30
0.0
 11
696.875
 21
1017.5
 31
0.0
 70
0
 71
5
 72
1
 41
1.0
 42
0.0
  1

  3
Standard
100
AcDbAlignedDimension
 13
600.0
 23
1010.0
 33
0.0
 14
600.0
 24
1025.0
 34
0.0
 50
90.0
100
AcDbRotatedDimension
  0
DIMENSION
  5
E1
100
AcDbEntity
  8
Dimensions
 62
256
370
-1
  6
ByLayer
100
AcDbDimension
 10
700.0
 20
1040.0
 30
0.0
 11
696.875
 21
1032.5
 31
0.0
 70
0
 71
5
 72
1
 41
1.0
 42
0.0
  1

  3
Standard
100
AcDbAlignedDimension
 13
600.0
 23
1025.0
 33
0.0
 14
600.0
 24
1040.0
 34
0.0
 50
90.0
100
AcDbRotatedDimension
  0
DIMENSION
  5
E2
100
AcDbEntity
  8
Dimensions
 62
256
370
-1
  6
ByLayer
100
AcDbDimension
 10
700.0
 20
1055.0
 30
0.0
 11
696.875
 21
1047.5
 31
0.0
 70
0
 71
5
 72
1
 41
1.0
 42
0.0
  1

  3
Standard
100
AcDbAlignedDimension
 13
600.0
 23
1040.0
 33
0.0
 14
600.0
 24
1055.0
 34
0.0
 50
90.0
100
AcDbRotatedDimension
  0
DIMENSION
  5
E3
100
AcDbEntity
  8
Dimensions
 62
256
370
-1
  6
ByLayer
100
AcDbDimension
 10
700.0
 20
1070.0
 30
0.0
 11
696.875
 21
1062.5
 31
0.0
 70
0
 71
5
 72
1
 41
1.0
 42
0.0
  1

  3
Standard
100
AcDbAlignedDimension
 13
600.0
 23
1055.0
 33
0.0
 14
600.0
 24
1070.0
 34
0.0
 50
90.0
100
AcDbRotatedDimension
  0
DIMENSION
  5
E4
100
AcDbEntity
  8
Dimensions
 62
256
370
-1
  6
ByLayer
100
AcDbDimension
 10
700.0
 20
1090.0
 30
0.0
 11
696.875
 21
1080.0
 31
0.0
 70
0
 71
5
 72
1
 41
1.0
 42
0.0
  1

  3
Standard
100
AcDbAlignedDimension
 13
600.0
 23
1070.0
 33
0.0
 14
600.0
 24
1090.0
 34
0.0
 50
90.0
100
AcDbRotatedDimension
  0
DIMENSION
  5
E5
100
AcDbEntity
  8
Dimensions
 62
256
370
-1
  6
ByLayer
100
AcDbDimension
 10
700.0
 20
1100.0
 30
0.0
 11
696.875
 21
1095.0
 31
0.0
 70
0
 71
5
 72
1
 41
1.0
 42
0.0
  1

  3
Standard
100
AcDbAlignedDimension
 13
600.0
 23
1090.0
 33
0.0
 14
600.0
 24
1100.0
 34
0.0
 50
90.0
100
AcDbRotatedDimension
  0
DIMENSION
  5
E6
100
AcDbEntity
  8
Dimensions
 62
256
370
-1
  6
ByLayer
100
AcDbDimension
 10
700.0
 20
1110.0
 30
0.0
 11
696.875
 21
1105.0
 31
0.0
 70
0
 71
5
 72
1
 41
1.0
 42
0.0
  1

  3
Standard
100
AcDbAlignedDimension
 13
600.0
 23
1100.0
 33
0.0
 14
600.0
 24
1110.0
 34
0.0
 50
90.0
100
AcDbRotatedDimension
  0
DIMENSION
  5
E7
100
AcDbEntity
  8
Dimensions
 62
256
370
-1
  6
ByLayer
100
AcDbDimension
 10
-700.0
 20
250.0
 30
0.0
 11
-703.125
 21
175.0
 31
0.0
 70
0
 71
5
 72
1
 41
1.0
 42
0.0
  1

  3
Standard
100
AcDbAlignedDimension
 13
-600.0
 23
100.0
 33
0.0
 14
-600.0
 24
250.0
 34
0.0
 50
90.0
100
AcDbRotatedDimension
  0
DIMENSION
  5
E8
100
AcDbEntity
  8
Dimensions
 62
256
370
-1
  6
ByLayer
100
AcDbDimension
 10
-700.0
 20
1100.0
 30
0.0
 11
-703.125
 21
675.0
 31
0.0
 70
0
 71
5
 72
1
 41
1.0
 42
0.0
  1

  3
Standard
100
AcDbAlignedDimension
 13
-600.0
 23
250.0
 33
0.0
 14
-600.0
 24
1100.0
 34
0.0
 50
90.0
100
AcDbRotatedDimension
  0
DIMENSION
  5
E9
100
AcDbEntity
  8
Dimensions
 62
256
370
-1
  6
ByLayer
100
AcDbDimension
 10
300.0
 20
-100.0
 30
0.0
 11
310.0
 21
-96.875
 31
0.0
 70
0
 71
5
 72
1
 41
1.0
 42
0.0
  1

  3
Standard
100
AcDbAlignedDimension
 13
320.0
 23
0.0
 33
0.0
 14
300.0
 24
0.0
 34
0.0
 50
0.0
100
AcDbRotatedDimension
  0
DIMENSION
  5
EA
100
AcDbEntity
  8
Dimensions
 62
256
370
-1
  6
ByLayer
100
AcDbDimension
 10
150.0
 20
-100.0
 30
0.0
 11
225.0
 21
-96.875
 31
0.0
 70
0
 71
5
 72
1
 41
1.0
 42
0.0
  1

  3
Standard
100
AcDbAlignedDimension
 13
300.0
 23
0.0
 33
0.0
 14
150.0
 24
0.0
 34
0.0
 50
0.0
100
AcDbRotatedDimension
  0
DIMENSION
  5
EB
100
AcDbEntity
  8
Dimensions
 62
256
370
-1
  6
ByLayer
100
AcDbDimension
 10
-300.0
 20
-100.0
 30
0.0
 11
-225.0
 21
-96.875
 31
0.0
 70
0
 71
5
 72
1
 41
1.0
 42
0.0
  1

  3
Standard
100
AcDbAlignedDimension
 13
-150.0
 23
0.0
 33
0.0
 14
-300.0
 24
0.0
 34
0.0
 50
0.0
100
AcDbRotatedDimension
  0
DIMENSION
  5
EC
100
AcDbEntity
  8
Dimensions
 62
256
370
-1
  6
ByLayer
100
AcDbDimension
 10
-320.0
 20
-100.0
 30
0.0
 11
-310.0
 21
-96.875
 31
0.0
 70
0
 71
5
 72
1
 41
1.0
 42
0.0
  1

  3
Standard
100
AcDbAlignedDimension
 13
-300.0
 23
0.0
 33
0.0
 14
-320.0
 24
0.0
 34
0.0
 50
0.0
100
AcDbRotatedDimension
  0
DIMENSION
  5
ED
100
AcDbEntity
  8
Dimensions
 62
256
370
-1
  6
ByLayer
100
AcDbDimension
 10
280.0
 20
1300.0
 30
0.0
 11
290.0
 21
1303.125
 31
0.0
 70
0
 71
5
 72
1
 41
1.0
 42
0.0
  1

  3
Standard
100
AcDbAlignedDimension
 13
300.0
 23
1200.0
 33
0.0
 14
280.0
 24
1200.0
 34
0.0
 50
0.0
100
AcDbRotatedDimension
  0
DIMENSION
  5
EE
100
AcDbEntity
  8
Dimensions
 62
256
370
-1
  6
ByLayer
100
AcDbDimension
 10
-300.0
 20
1300.0
 30
0.0
 11
-290.0
 21
1303.125
 31
0.0
 70
0
 71
5
 72
1
 41
1.0
 42
0.0
  1

  3
Standard
100
AcDbAlignedDimension
 13
-280.0
 23
1200.0
 33
0.0
 14
-300.0
 24
1200.0
 34
0.0
 50
0.0
100
AcDbRotatedDimension
  0
LINE
  5
EF
100
AcDbEntity
100
AcDbLine
  8
0
 62
256
370
-1
  6
ByLayer
 10
-370.0
 20
100.0
 30
0.0
 11
-370.0
 21
1100.0
 31
0.0
  0
LINE
  5
F0
100
AcDbEntity
100
AcDbLine
  8
0
 62
256
370
-1
  6
ByLayer
 10
393.0
 20
100.0
 30
0.0
 11
393.0
 21
1100.0
 31
0.0
  0
LINE
  5
F1
100
AcDbEntity
100
AcDbLine
  8
0
 62
256
370
-1
  6
ByLayer
 10
-300.0
 20
1100.0
 30
0.0
 11
-370.0
 21
1100.0
 31
0.0
  0
LINE
  5
F2
100
AcDbEntity
100
AcDbLine
  8
0
 62
256
370
-1
  6
ByLayer
 10
-300.0
 20
100.0
 30
0.0
 11
-370.0
 21
100.0
 31
0.0
  0
LINE
  5
F3
100
AcDbEntity
100
AcDbLine
  8
0
 62
256
370
-1
  6
ByLayer
 10
300.0
 20
100.0
 30
0.0
 11
393.0
 21
100.0
 31
0.0
  0
LINE
  5
F4
100
AcDbEntity
100
AcDbLine
  8
0
 62
256
370
-1
  6
ByLayer
 10
300.0
 20
1100.0
 30
0.0
 11
393.0
 21
1100.0
 31
0.0
  0
LINE
  5
F5
100
AcDbEntity
100
AcDbLine
  8
Slots
 62
256
370
-1
  6
ByLayer
 10
300.0
 20
1070.0
 30
0.0
 11
393.0
 21
1070.0
 31
0.0
  0
LINE
  5
F6
100
AcDbEntity
100
AcDbLine
  8
Slots
 62
256
370
-1
  6
ByLayer
 10
393.0
 20
1070.0
 30
0.0
 11
393.0
 21
1055.0
 31
0.0
  0
LINE
  5
F7
100
AcDbEntity
100
AcDbLine
  8
Slots
 62
256
370
-1
  6
ByLayer
 10
393.0
 20
1055.0
 30
0.0
 11
300.0
 21
1055.0
 31
0.0
  0
LINE
  5
F8
100
AcDbEntity
100
AcDbLine
  8
Slots
 62
256
370
-1
  6
ByLayer
 10
300.0
 20
1040.0
 30
0.0
 11
300.0
 21
1025.0
 31
0.0
  0
LINE
  5
F9
100
AcDbEntity
100
AcDbLine
  8
Slots
 62
256
370
-1
  6
ByLayer
 10
300.0
 20
1040.0
 30
0.0
 11
393.0
 21
1040.0
 31
0.0
  0
LINE
  5
FA
100
AcDbEntity
100
AcDbLine
  8
Slots
 62
256
370
-1
  6
ByLayer
 10
393.0
 20
1040.0
 30
0.0
 11
393.0
 21
1025.0
 31
0.0
  0
LINE
  5
FB
100
AcDbEntity
100
AcDbLine
  8
Slots
 62
256
370
-1
  6
ByLayer
 10
393.0
 20
1025.0
 30
0.0
 11
300.0
 21
1025.0
 31
0.0
  0
LINE
  5
FC
100
AcDbEntity
100
AcDbLine
  8
Slots
 62
256
370
-1
  6
ByLayer
 10
300.0
 20
1010.0
 30
0.0
 11
300.0
 21
995.0
 31
0.0
  0
LINE
  5
FD
100
AcDbEntity
100
AcDbLine
  8
Slots
 62
256
370
-1
  6
ByLayer
 10
300.0
 20
1010.0
 30
0.0
 11
393.0
 21
1010.0
 31
0.0
  0
LINE
  5
FE
100
AcDbEntity
100
AcDbLine
  8
Slots
 62
256
370
-1
  6
ByLayer
 10
393.0
 20
1010.0
 30
0.0
 11
393.0
 21
995.0
 31
0.0
  0
LINE
  5
FF
100
AcDbEntity
100
AcDbLine
  8
Slots
 62
256
370
-1
  6
ByLayer
 10
393.0
 20
995.0
 30
0.0
 11
300.0
 21
995.0
 31
0.0
  0
LINE
  5
100
100
AcDbEntity
100
AcDbLine
  8
Slots
 62
256
370
-1
  6
ByLayer
 10
300.0
 20
980.0
 30
0.0
 11
300.0
 21
965.0
 31
0.0
  0
LINE
  5
101
100
AcDbEntity
100
AcDbLine
  8
Slots
 62
256
370
-1
  6
ByLayer
 10
300.0
 20
980.0
 30
0.0
 11
393.0
 21
980.0
 31
0.0
  0
LINE
  5
102
100
AcDbEntity
100
AcDbLine
  8
Slots
 62
256
370
-1
  6
ByLayer
 10
393.0
 20
980.0
 30
0.0
 11
393.0
 21
965.0
 31
0.0
  0
LINE
  5
103
100
AcDbEntity
100
AcDbLine
  8
Slots
 62
256
370
-1
  6
ByLayer
 10
393.0
 20
965.0
 30
0.0
 11
300.0
 21
965.0
 31
0.0
  0
LINE
  5
104
100
AcDbEntity
100
AcDbLine
  8
Slots
 62
256
370
-1
  6
ByLayer
 10
300.0
 20
950.0
 30
0.0
 11
300.0
 21
935.0
 31
0.0
  0
LINE
  5
105
100
AcDbEntity
100
AcDbLine
  8
Slots
 62
256
370
-1
  6
ByLayer
 10
300.0
 20
950.0
 30
0.0
 11
393.0
 21
950.0
 31
0.0
  0
LINE
  5
106
100
AcDbEntity
100
AcDbLine
  8
Slots
 62
256
370
-1
  6
ByLayer
 10
393.0
 20
950.0
 30
0.0
 11
393.0
 21
935.0
 31
0.0
  0
LINE
  5
107
100
AcDbEntity
100
AcDbLine
  8
Slots
 62
256
370
-1
  6
ByLayer
 10
393.0
 20
935.0
 30
0.0
 11
300.0
 21
935.0
 31
0.0
  0
LINE
  5
108
100
AcDbEntity
100
AcDbLine
  8
Slots
 62
256
370
-1
  6
ByLayer
 10
300.0
 20
920.0
 30
0.0
 11
300.0
 21
905.0
 31
0.0
  0
LINE
  5
109
100
AcDbEntity
100
AcDbLine
  8
Slots
 62
256
370
-1
  6
ByLayer
 10
300.0
 20
920.0
 30
0.0
 11
393.0
 21
920.0
 31
0.0
  0
LINE
  5
10A
100
AcDbEntity
100
AcDbLine
  8
Slots
 62
256
370
-1
  6
ByLayer
 10
393.0
 20
920.0
 30
0.0
 11
393.0
 21
905.0
 31
0.0
  0
LINE
  5
10B
100
AcDbEntity
100
AcDbLine
  8
Slots
 62
256
370
-1
  6
ByLayer
 10
393.0
 20
905.0
 30
0.0
 11
300.0
 21
905.0
 31
0.0
  0
LINE
  5
10C
100
AcDbEntity
100
AcDbLine
  8
Slots
 62
256
370
-1
  6
ByLayer
 10
300.0
 20
890.0
 30
0.0
 11
300.0
 21
875.0
 31
0.0
  0
LINE
  5
10D
100
AcDbEntity
100
AcDbLine
  8
Slots
 62
256
370
-1
  6
ByLayer
 10
300.0
 20
890.0
 30
0.0
 11
393.0
 21
890.0
 31
0.0
  0
LINE
  5
10E
100
AcDbEntity
100
AcDbLine
  8
Slots
 62
256
370
-1
  6
ByLayer
 10
393.0
 20
890.0
 30
0.0
 11
393.0
 21
875.0
 31
0.0
  0
LINE
  5
10F
100
AcDbEntity
100
AcDbLine
  8
Slots
 62
256
370
-1
  6
ByLayer
 10
393.0
 20
875.0
 30
0.0
 11
300.0
 21
875.0
 31
0.0
  0
LINE
  5
110
100
AcDbEntity
100
AcDbLine
  8
Slots
 62
256
370
-1
  6
ByLayer
 10
300.0
 20
860.0
 30
0.0
 11
300.0
 21
845.0
 31
0.0
  0
LINE
  5
111
100
AcDbEntity
100
AcDbLine
  8
Slots
 62
256
370
-1
  6
ByLayer
 10
300.0
 20
860.0
 30
0.0
 11
393.0
 21
860.0
 31
0.0
  0
LINE
  5
112
100
AcDbEntity
100
AcDbLine
  8
Slots
 62
256
370
-1
  6
ByLayer
 10
393.0
 20
860.0
 30
0.0
 11
393.0
 21
845.0
 31
0.0
  0
LINE
  5
113
100
AcDbEntity
100
AcDbLine
  8
Slots
 62
256
370
-1
  6
ByLayer
 10
393.0
 20
845.0
 30
0.0
 11
300.0
 21
845.0
 31
0.0
  0
LINE
  5
114
100
AcDbEntity
100
AcDbLine
  8
Slots
 62
256
370
-1
  6
ByLayer
 10
300.0
 20
830.0
 30
0.0
 11
300.0
 21
815.0
 31
0.0
  0
LINE
  5
115
100
AcDbEntity
100
AcDbLine
  8
Slots
 62
256
370
-1
  6
ByLayer
 10
300.0
 20
830.0
 30
0.0
 11
393.0
 21
830.0
 31
0.0
  0
LINE
  5
116
100
AcDbEntity
100
AcDbLine
  8
Slots
 62
256
370
-1
  6
ByLayer
 10
393.0
 20
830.0
 30
0.0
 11
393.0
 21
815.0
 31
0.0
  0
LINE
  5
117
100
AcDbEntity
100
AcDbLine
  8
Slots
 62
256
370
-1
  6
ByLayer
 10
393.0
 20
815.0
 30
0.0
 11
300.0
 21
815.0
 31
0.0
  0
LINE
  5
118
100
AcDbEntity
100
AcDbLine
  8
Slots
 62
256
370
-1
  6
ByLayer
 10
300.0
 20
800.0
 30
0.0
 11
300.0
 21
785.0
 31
0.0
  0
LINE
  5
119
100
AcDbEntity
100
AcDbLine
  8
Slots
 62
256
370
-1
  6
ByLayer
 10
300.0
 20
800.0
 30
0.0
 11
393.0
 21
800.0
 31
0.0
  0
LINE
  5
11A
100
AcDbEntity
100
AcDbLine
  8
Slots
 62
256
370
-1
  6
ByLayer
 10
393.0
 20
800.0
 30
0.0
 11
393.0
 21
785.0
 31
0.0
  0
LINE
  5
11B
100
AcDbEntity
100
AcDbLine
  8
Slots
 62
256
370
-1
  6
ByLayer
 10
393.0
 20
785.0
 30
0.0
 11
300.0
 21
785.0
 31
0.0
  0
LINE
  5
11C
100
AcDbEntity
100
AcDbLine
  8
Slots
 62
256
370
-1
  6
ByLayer
 10
300.0
 20
770.0
 30
0.0
 11
300.0
 21
755.0
 31
0.0
  0
LINE
  5
11D
100
AcDbEntity
100
AcDbLine
  8
Slots
 62
256
370
-1
  6
ByLayer
 10
300.0
 20
770.0
 30
0.0
 11
393.0
 21
770.0
 31
0.0
  0
LINE
  5
11E
100
AcDbEntity
100
AcDbLine
  8
Slots
 62
256
370
-1
  6
ByLayer
 10
393.0
 20
770.0
 30
0.0
 11
393.0
 21
755.0
 31
0.0
  0
LINE
  5
11F
100
AcDbEntity
100
AcDbLine
  8
Slots
 62
256
370
-1
  6
ByLayer
 10
393.0
 20
755.0
 30
0.0
 11
300.0
 21
755.0
 31
0.0
  0
LINE
  5
120
100
AcDbEntity
100
AcDbLine
  8
Slots
 62
256
370
-1
  6
ByLayer
 10
300.0
 20
740.0
 30
0.0
 11
300.0
 21
725.0
 31
0.0
  0
LINE
  5
121
100
AcDbEntity
100
AcDbLine
  8
Slots
 62
256
370
-1
  6
ByLayer
 10
300.0
 20
740.0
 30
0.0
 11
393.0
 21
740.0
 31
0.0
  0
LINE
  5
122
100
AcDbEntity
100
AcDbLine
  8
Slots
 62
256
370
-1
  6
ByLayer
 10
393.0
 20
740.0
 30
0.0
 11
393.0
 21
725.0
 31
0.0
  0
LINE
  5
123
100
AcDbEntity
100
AcDbLine
  8
Slots
 62
256
370
-1
  6
ByLayer
 10
393.0
 20
725.0
 30
0.0
 11
300.0
 21
725.0
 31
0.0
  0
LINE
  5
124
100
AcDbEntity
100
AcDbLine
  8
Slots
 62
256
370
-1
  6
ByLayer
 10
300.0
 20
710.0
 30
0.0
 11
300.0
 21
695.0
 31
0.0
  0
LINE
  5
125
100
AcDbEntity
100
AcDbLine
  8
Slots
 62
256
370
-1
  6
ByLayer
 10
300.0
 20
710.0
 30
0.0
 11
393.0
 21
710.0
 31
0.0
  0
LINE
  5
126
100
AcDbEntity
100
AcDbLine
  8
Slots
 62
256
370
-1
  6
ByLayer
 10
393.0
 20
710.0
 30
0.0
 11
393.0
 21
695.0
 31
0.0
  0
LINE
  5
127
100
AcDbEntity
100
AcDbLine
  8
Slots
 62
256
370
-1
  6
ByLayer
 10
393.0
 20
695.0
 30
0.0
 11
300.0
 21
695.0
 31
0.0
  0
LINE
  5
128
100
AcDbEntity
100
AcDbLine
  8
Slots
 62
256
370
-1
  6
ByLayer
 10
300.0
 20
680.0
 30
0.0
 11
300.0
 21
665.0
 31
0.0
  0
LINE
  5
129
100
AcDbEntity
100
AcDbLine
  8
Slots
 62
256
370
-1
  6
ByLayer
 10
300.0
 20
680.0
 30
0.0
 11
393.0
 21
680.0
 31
0.0
  0
LINE
  5
12A
100
AcDbEntity
100
AcDbLine
  8
Slots
 62
256
370
-1
  6
ByLayer
 10
393.0
 20
680.0
 30
0.0
 11
393.0
 21
665.0
 31
0.0
  0
LINE
  5
12B
100
AcDbEntity
100
AcDbLine
  8
Slots
 62
256
370
-1
  6
ByLayer
 10
393.0
 20
665.0
 30
0.0
 11
300.0
 21
665.0
 31
0.0
  0
LINE
  5
12C
100
AcDbEntity
100
AcDbLine
  8
Slots
 62
256
370
-1
  6
ByLayer
 10
300.0
 20
650.0
 30
0.0
 11
300.0
 21
635.0
 31
0.0
  0
LINE
  5
12D
100
AcDbEntity
100
AcDbLine
  8
Slots
 62
256
370
-1
  6
ByLayer
 10
300.0
 20
650.0
 30
0.0
 11
393.0
 21
650.0
 31
0.0
  0
LINE
  5
12E
100
AcDbEntity
100
AcDbLine
  8
Slots
 62
256
370
-1
  6
ByLayer
 10
393.0
 20
650.0
 30
0.0
 11
393.0
 21
635.0
 31
0.0
  0
LINE
  5
12F
100
AcDbEntity
100
AcDbLine
  8
Slots
 62
256
370
-1
  6
ByLayer
 10
393.0
 20
635.0
 30
0.0
 11
300.0
 21
635.0
 31
0.0
  0
LINE
  5
130
100
AcDbEntity
100
AcDbLine
  8
Slots
 62
256
370
-1
  6
ByLayer
 10
300.0
 20
620.0
 30
0.0
 11
300.0
 21
605.0
 31
0.0
  0
LINE
  5
131
100
AcDbEntity
100
AcDbLine
  8
Slots
 62
256
370
-1
  6
ByLayer
 10
300.0
 20
620.0
 30
0.0
 11
393.0
 21
620.0
 31
0.0
  0
LINE
  5
132
100
AcDbEntity
100
AcDbLine
  8
Slots
 62
256
370
-1
  6
ByLayer
 10
393.0
 20
620.0
 30
0.0
 11
393.0
 21
605.0
 31
0.0
  0
LINE
  5
133
100
AcDbEntity
100
AcDbLine
  8
Slots
 62
256
370
-1
  6
ByLayer
 10
393.0
 20
605.0
 30
0.0
 11
300.0
 21
605.0
 31
0.0
  0
LINE
  5
134
100
AcDbEntity
100
AcDbLine
  8
Slots
 62
256
370
-1
  6
ByLayer
 10
300.0
 20
590.0
 30
0.0
 11
300.0
 21
575.0
 31
0.0
  0
LINE
  5
135
100
AcDbEntity
100
AcDbLine
  8
Slots
 62
256
370
-1
  6
ByLayer
 10
300.0
 20
590.0
 30
0.0
 11
393.0
 21
590.0
 31
0.0
  0
LINE
  5
136
100
AcDbEntity
100
AcDbLine
  8
Slots
 62
256
370
-1
  6
ByLayer
 10
393.0
 20
590.0
 30
0.0
 11
393.0
 21
575.0
 31
0.0
  0
LINE
  5
137
100
AcDbEntity
100
AcDbLine
  8
Slots
 62
256
370
-1
  6
ByLayer
 10
393.0
 20
575.0
 30
0.0
 11
300.0
 21
575.0
 31
0.0
  0
LINE
  5
138
100
AcDbEntity
100
AcDbLine
  8
Slots
 62
256
370
-1
  6
ByLayer
 10
300.0
 20
560.0
 30
0.0
 11
300.0
 21
545.0
 31
0.0
  0
LINE
  5
139
100
AcDbEntity
100
AcDbLine
  8
Slots
 62
256
370
-1
  6
ByLayer
 10
300.0
 20
560.0
 30
0.0
 11
393.0
 21
560.0
 31
0.0
  0
LINE
  5
13A
100
AcDbEntity
100
AcDbLine
  8
Slots
 62
256
370
-1
  6
ByLayer
 10
393.0
 20
560.0
 30
0.0
 11
393.0
 21
545.0
 31
0.0
  0
LINE
  5
13B
100
AcDbEntity
100
AcDbLine
  8
Slots
 62
256
370
-1
  6
ByLayer
 10
393.0
 20
545.0
 30
0.0
 11
300.0
 21
545.0
 31
0.0
  0
LINE
  5
13C
100
AcDbEntity
100
AcDbLine
  8
Slots
 62
256
370
-1
  6
ByLayer
 10
300.0
 20
530.0
 30
0.0
 11
300.0
 21
515.0
 31
0.0
  0
LINE
  5
13D
100
AcDbEntity
100
AcDbLine
  8
Slots
 62
256
370
-1
  6
ByLayer
 10
300.0
 20
530.0
 30
0.0
 11
393.0
 21
530.0
 31
0.0
  0
LINE
  5
13E
100
AcDbEntity
100
AcDbLine
  8
Slots
 62
256
370
-1
  6
ByLayer
 10
393.0
 20
530.0
 30
0.0
 11
393.0
 21
515.0
 31
0.0
  0
LINE
  5
13F
100
AcDbEntity
100
AcDbLine
  8
Slots
 62
256
370
-1
  6
ByLayer
 10
393.0
 20
515.0
 30
0.0
 11
300.0
 21
515.0
 31
0.0
  0
LINE
  5
140
100
AcDbEntity
100
AcDbLine
  8
Slots
 62
256
370
-1
  6
ByLayer
 10
300.0
 20
500.0
 30
0.0
 11
300.0
 21
485.0
 31
0.0
  0
LINE
  5
141
100
AcDbEntity
100
AcDbLine
  8
Slots
 62
256
370
-1
  6
ByLayer
 10
300.0
 20
500.0
 30
0.0
 11
393.0
 21
500.0
 31
0.0
  0
LINE
  5
142
100
AcDbEntity
100
AcDbLine
  8
Slots
 62
256
370
-1
  6
ByLayer
 10
393.0
 20
500.0
 30
0.0
 11
393.0
 21
485.0
 31
0.0
  0
LINE
  5
143
100
AcDbEntity
100
AcDbLine
  8
Slots
 62
256
370
-1
  6
ByLayer
 10
393.0
 20
485.0
 30
0.0
 11
300.0
 21
485.0
 31
0.0
  0
LINE
  5
144
100
AcDbEntity
100
AcDbLine
  8
Slots
 62
256
370
-1
  6
ByLayer
 10
300.0
 20
470.0
 30
0.0
 11
300.0
 21
455.0
 31
0.0
  0
LINE
  5
145
100
AcDbEntity
100
AcDbLine
  8
Slots
 62
256
370
-1
  6
ByLayer
 10
300.0
 20
470.0
 30
0.0
 11
393.0
 21
470.0
 31
0.0
  0
LINE
  5
146
100
AcDbEntity
100
AcDbLine
  8
Slots
 62
256
370
-1
  6
ByLayer
 10
393.0
 20
470.0
 30
0.0
 11
393.0
 21
455.0
 31
0.0
  0
LINE
  5
147
100
AcDbEntity
100
AcDbLine
  8
Slots
 62
256
370
-1
  6
ByLayer
 10
393.0
 20
455.0
 30
0.0
 11
300.0
 21
455.0
 31
0.0
  0
LINE
  5
148
100
AcDbEntity
100
AcDbLine
  8
Slots
 62
256
370
-1
  6
ByLayer
 10
300.0
 20
440.0
 30
0.0
 11
300.0
 21
425.0
 31
0.0
  0
LINE
  5
149
100
AcDbEntity
100
AcDbLine
  8
Slots
 62
256
370
-1
  6
ByLayer
 10
300.0
 20
440.0
 30
0.0
 11
393.0
 21
440.0
 31
0.0
  0
LINE
  5
14A
100
AcDbEntity
100
AcDbLine
  8
Slots
 62
256
370
-1
  6
ByLayer
 10
393.0
 20
440.0
 30
0.0
 11
393.0
 21
425.0
 31
0.0
  0
LINE
  5
14B
100
AcDbEntity
100
AcDbLine
  8
Slots
 62
256
370
-1
  6
ByLayer
 10
393.0
 20
425.0
 30
0.0
 11
300.0
 21
425.0
 31
0.0
  0
LINE
  5
14C
100
AcDbEntity
100
AcDbLine
  8
Slots
 62
256
370
-1
  6
ByLayer
 10
300.0
 20
410.0
 30
0.0
 11
300.0
 21
395.0
 31
0.0
  0
LINE
  5
14D
100
AcDbEntity
100
AcDbLine
  8
Slots
 62
256
370
-1
  6
ByLayer
 10
300.0
 20
410.0
 30
0.0
 11
393.0
 21
410.0
 31
0.0
  0
LINE
  5
14E
100
AcDbEntity
100
AcDbLine
  8
Slots
 62
256
370
-1
  6
ByLayer
 10
393.0
 20
410.0
 30
0.0
 11
393.0
 21
395.0
 31
0.0
  0
LINE
  5
14F
100
AcDbEntity
100
AcDbLine
  8
Slots
 62
256
370
-1
  6
ByLayer
 10
393.0
 20
395.0
 30
0.0
 11
300.0
 21
395.0
 31
0.0
  0
LINE
  5
150
100
AcDbEntity
100
AcDbLine
  8
Slots
 62
256
370
-1
  6
ByLayer
 10
300.0
 20
380.0
 30
0.0
 11
300.0
 21
365.0
 31
0.0
  0
LINE
  5
151
100
AcDbEntity
100
AcDbLine
  8
Slots
 62
256
370
-1
  6
ByLayer
 10
300.0
 20
380.0
 30
0.0
 11
393.0
 21
380.0
 31
0.0
  0
LINE
  5
152
100
AcDbEntity
100
AcDbLine
  8
Slots
 62
256
370
-1
  6
ByLayer
 10
393.0
 20
380.0
 30
0.0
 11
393.0
 21
365.0
 31
0.0
  0
LINE
  5
153
100
AcDbEntity
100
AcDbLine
  8
Slots
 62
256
370
-1
  6
ByLayer
 10
393.0
 20
365.0
 30
0.0
 11
300.0
 21
365.0
 31
0.0
  0
LINE
  5
154
100
AcDbEntity
100
AcDbLine
  8
Slots
 62
256
370
-1
  6
ByLayer
 10
300.0
 20
350.0
 30
0.0
 11
300.0
 21
335.0
 31
0.0
  0
LINE
  5
155
100
AcDbEntity
100
AcDbLine
  8
Slots
 62
256
370
-1
  6
ByLayer
 10
300.0
 20
350.0
 30
0.0
 11
393.0
 21
350.0
 31
0.0
  0
LINE
  5
156
100
AcDbEntity
100
AcDbLine
  8
Slots
 62
256
370
-1
  6
ByLayer
 10
393.0
 20
350.0
 30
0.0
 11
393.0
 21
335.0
 31
0.0
  0
LINE
  5
157
100
AcDbEntity
100
AcDbLine
  8
Slots
 62
256
370
-1
  6
ByLayer
 10
393.0
 20
335.0
 30
0.0
 11
300.0
 21
335.0
 31
0.0
  0
LINE
  5
158
100
AcDbEntity
100
AcDbLine
  8
Top
 62
256
370
-1
  6
ByLayer
 10
-300.0
 20
1100.0
 30
0.0
 11
-370.0
 21
1100.0
 31
0.0
  0
LINE
  5
159
100
AcDbEntity
100
AcDbLine
  8
Top
 62
256
370
-1
  6
ByLayer
 10
-370.0
 20
1100.0
 30
0.0
 11
-370.0
 21
1090.0
 31
0.0
  0
LINE
  5
15A
100
AcDbEntity
100
AcDbLine
  8
Top
 62
256
370
-1
  6
ByLayer
 10
-370.0
 20
1090.0
 30
0.0
 11
-390.0
 21
1090.0
 31
0.0
  0
LINE
  5
15B
100
AcDbEntity
100
AcDbLine
  8
Top
 62
256
370
-1
  6
ByLayer
 10
-390.0
 20
1090.0
 30
0.0
 11
-390.0
 21
1110.0
 31
0.0
  0
LINE
  5
15C
100
AcDbEntity
100
AcDbLine
  8
Top
 62
256
370
-1
  6
ByLayer
 10
-390.0
 20
1110.0
 30
0.0
 11
-280.0
 21
1110.0
 31
0.0
  0
LINE
  5
15D
100
AcDbEntity
100
AcDbLine
  8
Top
 62
256
370
-1
  6
ByLayer
 10
300.0
 20
1100.0
 30
0.0
 11
393.0
 21
1100.0
 31
0.0
  0
LINE
  5
15E
100
AcDbEntity
100
AcDbLine
  8
Top
 62
256
370
-1
  6
ByLayer
 10
393.0
 20
1100.0
 30
0.0
 11
393.0
 21
1090.0
 31
0.0
  0
LINE
  5
15F
100
AcDbEntity
100
AcDbLine
  8
Top
 62
256
370
-1
  6
ByLayer
 10
393.0
 20
1090.0
 30
0.0
 11
413.0
 21
1090.0
 31
0.0
  0
LINE
  5
160
100
AcDbEntity
100
AcDbLine
  8
Top
 62
256
370
-1
  6
ByLayer
 10
413.0
 20
1090.0
 30
0.0
 11
413.0
 21
1110.0
 31
0.0
  0
LINE
  5
161
100
AcDbEntity
100
AcDbLine
  8
Top
 62
256
370
-1
  6
ByLayer
 10
413.0
 20
1110.0
 30
0.0
 11
280.0
 21
1110.0
 31
0.0
  0
LINE
  5
162
100
AcDbEntity
100
AcDbLine
  8
Feet
 62
256
370
-1
  6
ByLayer
 10
373.0
 20
100.0
 30
0.0
 11
373.0
 21
250.0
 31
0.0
  0
LINE
  5
163
100
AcDbEntity
100
AcDbLine
  8
Feet
 62
256
370
-1
  6
ByLayer
 10
373.0
 20
250.0
 30
0.0
 11
393.0
 21
250.0
 31
0.0
  0
LINE
  5
164
100
AcDbEntity
100
AcDbLine
  8
Feet
 62
256
370
-1
  6
ByLayer
 10
373.0
 20
100.0
 30
0.0
 11
393.0
 21
100.0
 31
0.0
  0
LINE
  5
165
100
AcDbEntity
100
AcDbLine
  8
Feet
 62
256
370
-1
  6
ByLayer
 10
393.0
 20
250.0
 30
0.0
 11
403.0
 21
250.0
 31
0.0
  0
LINE
  5
166
100
AcDbEntity
100
AcDbLine
  8
Feet
 62
256
370
-1
  6
ByLayer
 10
543.0
 20
100.0
 30
0.0
 11
543.0
 21
110.0
 31
0.0
  0
ARC
  5
167
100
AcDbEntity
  8
Feet
 62
256
370
-1
  6
ByLayer
100
AcDbCircle
 10
523.0
 20
110.0
 30
0.0
 40
20.0
100
AcDbArc
 50
0.0
 51
90.0
  0
ARC
  5
168
100
AcDbEntity
  8
Feet
 62
256
370
-1
  6
ByLayer
100
AcDbCircle
 10
403.0
 20
230.0
 30
0.0
 40
20.0
100
AcDbArc
 50
0.0
 51
90.0
  0
ARC
  5
169
100
AcDbEntity
  8
Feet
 62
256
370
-1
  6
ByLayer
100
AcDbCircle
 10
543.0
 20
250.0
 30
0.0
 40
121.6552506059643974
100
AcDbArc
 50
189.4623222080255971
 51
260.5376777919743745
  0
LINE
  5
16A
100
AcDbEntity
100
AcDbLine
  8
Feet
 62
256
370
-1
  6
ByLayer
 10
393.0
 20
100.0
 30
0.0
 11
413.0
 21
100.0
 31
0.0
  0
LINE
  5
16B
100
AcDbEntity
100
AcDbLine
  8
Feet
 62
256
370
-1
  6
ByLayer
 10
413.0
 20
100.0
 30
0.0
 11
543.0
 21
100.0
 31
0.0
  0
LINE
  5
16C
100
AcDbEntity
100
AcDbLine
  8
Feet
 62
256
370
-1
  6
ByLayer
 10
393.0
 20
250.0
 30
0.0
 11
393.0
 21
100.0
 31
0.0
  0
LINE
  5
16D
100
AcDbEntity
100
AcDbLine
  8
Feet
 62
256
370
-1
  6
ByLayer
 10
356.5
 20
100.0
 30
0.0
 11
356.5
 21
250.0
 31
0.0
  0
LINE
  5
16E
100
AcDbEntity
100
AcDbLine
  8
Feet
 62
256
370
-1
  6
ByLayer
 10
356.5
 20
250.0
 30
0.0
 11
336.5
 21
250.0
 31
0.0
  0
LINE
  5
16F
100
AcDbEntity
100
AcDbLine
  8
Feet
 62
256
370
-1
  6
ByLayer
 10
336.5
 20
250.0
 30
0.0
 11
336.5
 21
100.0
 31
0.0
  0
LINE
  5
170
100
AcDbEntity
100
AcDbLine
  8
Feet
 62
256
370
-1
  6
ByLayer
 10
336.5
 20
100.0
 30
0.0
 11
356.5
 21
100.0
 31
0.0
  0
LINE
  5
171
100
AcDbEntity
100
AcDbLine
  8
Feet
 62
256
370
-1
  6
ByLayer
 10
-350.0
 20
100.0000000000000284
 30
0.0
 11
-350.0
 21
250.0000000000000284
 31
0.0
  0
LINE
  5
172
100
AcDbEntity
100
AcDbLine
  8
Feet
 62
256
370
-1
  6
ByLayer
 10
-350.0
 20
250.0000000000000284
 30
0.0
 11
-370.0
 21
250.0000000000000568
 31
0.0
  0
LINE
  5
173
100
AcDbEntity
100
AcDbLine
  8
Feet
 62
256
370
-1
  6
ByLayer
 10
-350.0
 20
100.0000000000000284
 30
0.0
 11
-370.0
 21
100.0000000000000284
 31
0.0
  0
LINE
  5
174
100
AcDbEntity
100
AcDbLine
  8
Feet
 62
256
370
-1
  6
ByLayer
 10
-370.0
 20
250.0000000000000568
 30
0.0
 11
-380.0
 21
250.0000000000000568
 31
0.0
  0
LINE
  5
175
100
AcDbEntity
100
AcDbLine
  8
Feet
 62
256
370
-1
  6
ByLayer
 10
-520.0
 20
100.0000000000000853
 30
0.0
 11
-520.0
 21
110.0
 31
0.0
  0
ARC
  5
176
100
AcDbEntity
  8
Feet
 62
256
370
-1
  6
ByLayer
100
AcDbCircle
 10
-500.0000000000000568
 20
110.0000000000001137
 30
0.0
 40
20.0
100
AcDbArc
 50
89.9999999999999858
 51
180.0
  0
ARC
  5
177
100
AcDbEntity
  8
Feet
 62
256
370
-1
  6
ByLayer
100
AcDbCircle
 10
-380.0
 20
230.0000000000000284
 30
0.0
 40
20.0
100
AcDbArc
 50
89.9999999999999858
 51
180.0
  0
ARC
  5
178
100
AcDbEntity
  8
Feet
 62
256
370
-1
  6
ByLayer
100
AcDbCircle
 10
-520.0
 20
250.0000000000001137
 30
0.0
 40
121.6552506059643974
100
AcDbArc
 50
279.4623222080256255
 51
350.5376777919744313
  0
LINE
  5
179
100
AcDbEntity
100
AcDbLine
  8
Feet
 62
256
370
-1
  6
ByLayer
 10
-370.0
 20
100.0000000000000284
 30
0.0
 11
-390.0000000000000568
 21
100.0000000000000568
 31
0.0
  0
LINE
  5
17A
100
AcDbEntity
100
AcDbLine
  8
Feet
 62
256
370
-1
  6
ByLayer
 10
-390.0000000000000568
 20
100.0000000000000568
 30
0.0
 11
-520.0
 21
100.0000000000000853
 31
0.0
  0
LINE
  5
17B
100
AcDbEntity
100
AcDbLine
  8
Feet
 62
256
370
-1
  6
ByLayer
 10
-370.0
 20
250.0
 30
0.0
 11
-370.0
 21
100.0
 31
0.0
  0
LINE
  5
17C
100
AcDbEntity
100
AcDbLine
  8
Feet
 62
256
370
-1
  6
ByLayer
 10
-325.0
 20
100.0
 30
0.0
 11
-325.0
 21
250.0
 31
0.0
  0
LINE
  5
17D
100
AcDbEntity
100
AcDbLine
  8
Feet
 62
256
370
-1
  6
ByLayer
 10
-325.0
 20
250.0
 30
0.0
 11
-345.0
 21
250.0
 31
0.0
  0
LINE
  5
17E
100
AcDbEntity
100
AcDbLine
  8
Feet
 62
256
370
-1
  6
ByLayer
 10
-345.0
 20
250.0
 30
0.0
 11
-345.0
 21
100.0
 31
0.0
  0
LINE
  5
17F
100
AcDbEntity
100
AcDbLine
  8
Feet
 62
256
370
-1
  6
ByLayer
 10
-345.0
 20
100.0
 30
0.0
 11
-325.0
 21
100.0
 31
0.0
  0
DIMENSION
  5
180
100
AcDbEntity
  8
Dimensions
 62
256
370
-1
  6
ByLayer
100
AcDbDimension
 10
-325.0
 20
-100.0
 30
0.0
 11
-322.5
 21
-96.875
 31
0.0
 70
0
 71
5
 72
1
 41
1.0
 42
0.0
  1

  3
Standard
100
AcDbAlignedDimension
 13
-320.0
 23
0.0
 33
0.0
 14
-325.0
 24
0.0
 34
0.0
 50
0.0
100
AcDbRotatedDimension
  0
DIMENSION
  5
181
100
AcDbEntity
  8
Dimensions
 62
256
370
-1
  6
ByLayer
100
AcDbDimension
 10
-345.0
 20
-100.0
 30
0.0
 11
-335.0
 21
-96.875
 31
0.0
 70
0
 71
5
 72
1
 41
1.0
 42
0.0
  1

  3
Standard
100
AcDbAlignedDimension
 13
-325.0
 23
0.0
 33
0.0
 14
-345.0
 24
0.0
 34
0.0
 50
0.0
100
AcDbRotatedDimension
  0
DIMENSION
  5
182
100
AcDbEntity
  8
Dimensions
 62
256
370
-1
  6
ByLayer
100
AcDbDimension
 10
-350.0
 20
-100.0
 30
0.0
 11
-347.5
 21
-96.875
 31
0.0
 70
0
 71
5
 72
1
 41
1.0
 42
0.0
  1

  3
Standard
100
AcDbAlignedDimension
 13
-345.0
 23
0.0
 33
0.0
 14
-350.0
 24
0.0
 34
0.0
 50
0.0
100
AcDbRotatedDimension
  0
DIMENSION
  5
183
100
AcDbEntity
  8
Dimensions
 62
256
370
-1
  6
ByLayer
100
AcDbDimension
 10
-370.0
 20
-100.0
 30
0.0
 11
-360.0
 21
-96.875
 31
0.0
 70
0
 71
5
 72
1
 41
1.0
 42
0.0
  1

  3
Standard
100
AcDbAlignedDimension
 13
-350.0
 23
0.0
 33
0.0
 14
-370.0
 24
0.0
 34
0.0
 50
0.0
100
AcDbRotatedDimension
  0
DIMENSION
  5
184
100
AcDbEntity
  8
Dimensions
 62
256
370
-1
  6
ByLayer
100
AcDbDimension
 10
-520.0
 20
-100.0
 30
0.0
 11
-445.0
 21
-96.875
 31
0.0
 70
0
 71
5
 72
1
 41
1.0
 42
0.0
  1

  3
Standard
100
AcDbAlignedDimension
 13
-370.0
 23
0.0
 33
0.0
 14
-520.0
 24
0.0
 34
0.0
 50
0.0
100
AcDbRotatedDimension
  0
CIRCLE
  5
185
100
AcDbEntity
100
AcDbCircle
  8
Feet
 62
256
370
-1
  6
ByLayer
 10
150.0
 20
250.0
 30
0.0
 40
1.0
  0
DIMENSION
  5
186
100
AcDbEntity
  8
Dimensions
 62
256
370
-1
  6
ByLayer
100
AcDbDimension
 10
336.5
 20
-100.0
 30
0.0
 11
328.25
 21
-96.875
 31
0.0
 70
0
 71
5
 72
1
 41
1.0
 42
0.0
  1

  3
Standard
100
AcDbAlignedDimension
 13
320.0
 23
0.0
 33
0.0
 14
336.5
 24
-0.0000000000000002
 34
0.0
 50
0.0
100
AcDbRotatedDimension
  0
DIMENSION
  5
187
100
AcDbEntity
  8
Dimensions
 62
256
370
-1
  6
ByLayer
100
AcDbDimension
 10
356.5
 20
-100.0
 30
0.0
 11
346.5
 21
-96.875
 31
0.0
 70
0
 71
5
 72
1
 41
1.0
 42
0.0
  1

  3
Standard
100
AcDbAlignedDimension
 13
336.5
 23
-0.0000000000000001
 33
0.0
 14
356.5
 24
0.0
 34
0.0
 50
0.0
100
AcDbRotatedDimension
  0
DIMENSION
  5
188
100
AcDbEntity
  8
Dimensions
 62
256
370
-1
  6
ByLayer
100
AcDbDimension
 10
373.0
 20
-100.0
 30
0.0
 11
364.75
 21
-96.875
 31
0.0
 70
0
 71
5
 72
1
 41
1.0
 42
0.0
  1

  3
Standard
100
AcDbAlignedDimension
 13
356.5
 23
-0.0000000000000001
 33
0.0
 14
373.0
 24
0.0
 34
0.0
 50
0.0
100
AcDbRotatedDimension
  0
DIMENSION
  5
189
100
AcDbEntity
  8
Dimensions
 62
256
370
-1
  6
ByLayer
100
AcDbDimension
 10
393.0
 20
-100.0
 30
0.0
 11
383.0
 21
-96.875
 31
0.0
 70
0
 71
5
 72
1
 41
1.0
 42
0.0
  1

  3
Standard
100
AcDbAlignedDimension
 13
373.0
 23
0.0
 33
0.0
 14
393.0
 24
0.0
 34
0.0
 50
0.0
100
AcDbRotatedDimension
  0
DIMENSION
  5
18A
100
AcDbEntity
  8
Dimensions
 62
256
370
-1
  6
ByLayer
100
AcDbDimension
 10
543.0
 20
-100.0
 30
0.0
 11
468.0
 21
-96.875
 31
0.0
 70
0
 71
5
 72
1
 41
1.0
 42
0.0
  1

  3
Standard
100
AcDbAlignedDimension
 13
393.0
 23
0.0
 33
0.0
 14
543.0
 24
0.0
 34
0.0
 50
0.0
100
AcDbRotatedDimension
  0
DIMENSION
  5
18B
100
AcDbEntity
  8
Dimensions
 62
256
370
-1
  6
ByLayer
100
AcDbDimension
 10
393.0
 20
1300.0
 30
0.0
 11
346.5
 21
1303.125
 31
0.0
 70
0
 71
5
 72
1
 41
1.0
 42
0.0
  1

  3
Standard
100
AcDbAlignedDimension
 13
300.0
 23
1200.0
 33
0.0
 14
393.0
 24
1200.0
 34
0.0
 50
0.0
100
AcDbRotatedDimension
  0
DIMENSION
  5
18C
100
AcDbEntity
  8
Dimensions
 62
256
370
-1
  6
ByLayer
100
AcDbDimension
 10
413.0
 20
1300.0
 30
0.0
 11
403.0
 21
1303.125
 31
0.0
 70
0
 71
5
 72
1
 41
1.0
 42
0.0
  1

  3
Standard
100
AcDbAlignedDimension
 13
393.0
 23
1200.0
 33
0.0
 14
413.0
 24
1200.0
 34
0.0
 50
0.0
100
AcDbRotatedDimension
  0
DIMENSION
  5
18D
100
AcDbEntity
  8
Dimensions
 62
256
370
-1
  6
ByLayer
100
AcDbDimension
 10
-370.0
 20
1300.0
 30
0.0
 11
-335.0
 21
1303.125
 31
0.0
 70
0
 71
5
 72
1
 41
1.0
 42
0.0
  1

  3
Standard
100
AcDbAlignedDimension
 13
-300.0
 23
1200.0
 33
0.0
 14
-370.0
 24
1200.0
 34
0.0
 50
0.0
100
AcDbRotatedDimension
  0
DIMENSION
  5
18E
100
AcDbEntity
  8
Dimensions
 62
256
370
-1
  6
ByLayer
100
AcDbDimension
 10
-390.0
 20
1300.0
 30
0.0
 11
-380.0
 21
1303.125
 31
0.0
 70
0
 71
5
 72
1
 41
1.0
 42
0.0
  1

  3
Standard
100
AcDbAlignedDimension
 13
-370.0
 23
1200.0
 33
0.0
 14
-390.0
 24
1200.0
 34
0.0
 50
0.0
100
AcDbRotatedDimension
  0
LINE
  5
18F
100
AcDbEntity
100
AcDbLine
  8
0
 62
256
370
-1
  6
ByLayer
 10
-50.0
 20
700.0
 30
0.0
 11
43.0
 21
700.0
 31
0.0
  0
LINE
  5
190
100
AcDbEntity
100
AcDbLine
  8
0
 62
256
370
-1
  6
ByLayer
 10
43.0
 20
700.0
 30
0.0
 11
43.0
 21
630.0
 31
0.0
  0
LINE
  5
191
100
AcDbEntity
100
AcDbLine
  8
0
 62
256
370
-1
  6
ByLayer
 10
43.0
 20
630.0
 30
0.0
 11
-50.0
 21
630.0
 31
0.0
  0
LINE
  5
192
100
AcDbEntity
100
AcDbLine
  8
0
 62
256
370
-1
  6
ByLayer
 10
-50.0
 20
630.0
 30
0.0
 11
-50.0
 21
700.0
 31
0.0
  0
LINE
  5
193
100
AcDbEntity
100
AcDbLine
  8
Feet
 62
256
370
-1
  6
ByLayer
 10
-30.0
 20
655.0
 30
0.0
 11
-30.0
 21
675.0
 31
0.0
  0
LINE
  5
194
100
AcDbEntity
100
AcDbLine
  8
Feet
 62
256
370
-1
  6
ByLayer
 10
23.0
 20
655.0
 30
0.0
 11
23.0
 21
675.0
 31
0.0
  0
LINE
  5
195
100
AcDbEntity
100
AcDbLine
  8
Feet
 62
256
370
-1
  6
ByLayer
 10
-13.5
 20
680.0
 30
0.0
 11
6.5
 21
680.0
 31
0.0
  0
LINE
  5
196
100
AcDbEntity
100
AcDbLine
  8
Feet
 62
256
370
-1
  6
ByLayer
 10
-13.5
 20
650.0
 30
0.0
 11
6.5
 21
650.0
 31
0.0
  0
LINE
  5
197
100
AcDbEntity
100
AcDbLine
  8
Feet
 62
256
370
-1
  6
ByLayer
 10
-30.0
 20
675.0
 30
0.0
 11
-50.0
 21
672.0
 31
0.0
  0
LINE
  5
198
100
AcDbEntity
100
AcDbLine
  8
Feet
 62
256
370
-1
  6
ByLayer
 10
-30.0
 20
655.0
 30
0.0
 11
-50.0
 21
658.0
 31
0.0
  0
LINE
  5
199
100
AcDbEntity
100
AcDbLine
  8
Feet
 62
256
370
-1
  6
ByLayer
 10
23.0
 20
655.0
 30
0.0
 11
43.0
 21
659.0
 31
0.0
  0
LINE
  5
19A
100
AcDbEntity
100
AcDbLine
  8
Feet
 62
256
370
-1
  6
ByLayer
 10
23.0
 20
675.0
 30
0.0
 11
43.0
 21
672.0
 31
0.0
  0
LINE
  5
19B
100
AcDbEntity
100
AcDbLine
  8
Feet
 62
256
370
-1
  6
ByLayer
 10
-13.5
 20
680.0
 30
0.0
 11
-10.5
 21
700.0
 31
0.0
  0
LINE
  5
19C
100
AcDbEntity
100
AcDbLine
  8
Feet
 62
256
370
-1
  6
ByLayer
 10
6.5
 20
680.0
 30
0.0
 11
3.5
 21
700.0
 31
0.0
  0
LINE
  5
19D
100
AcDbEntity
100
AcDbLine
  8
Feet
 62
256
370
-1
  6
ByLayer
 10
-13.5
 20
650.0
 30
0.0
 11
-10.5
 21
630.0
 31
0.0
  0
LINE
  5
19E
100
AcDbEntity
100
AcDbLine
  8
Feet
 62
256
370
-1
  6
ByLayer
 10
6.5
 20
650.0
 30
0.0
 11
3.5
 21
630.0
 31
0.0
  0
ENDSEC
  0
SECTION
  2
OBJECTS
  0
DICTIONARY
  5
C
100
AcDbDictionary
280
0
281
1
  3
ACAD_GROUP
350
D
  3
ACAD_LAYOUT
350
1A
  3
ACAD_MLINESTYLE
350
17
  3
ACAD_PLOTSETTINGS
350
19
  3
ACAD_PLOTSTYLENAME
350
E
  3
AcDbVariableDictionary
350
19F
  0
DICTIONARY
  5
D
100
AcDbDictionary
280
0
281
1
  0
ACDBDICTIONARYWDFLT
  5
E
100
AcDbDictionary
281
1
  3
Normal
350
F
100
AcDbDictionaryWithDefault
340
F
  0
ACDBPLACEHOLDER
  5
F
  0
DICTIONARY
  5
17
100
AcDbDictionary
280
0
281
1
  3
Standard
350
18
  0
MLINESTYLE
  5
18
100
AcDbMlineStyle
  2
STANDARD
 70
0
  3

 62
256
 51
90.0
 52
90.0
 71
2
 49
0.5
 62
256
  6
BYLAYER
 49
-0.5
 62
256
  6
BYLAYER
  0
DICTIONARY
  5
19
100
AcDbDictionary
280
0
281
1
  0
DICTIONARY
  5
1A
100
AcDbDictionary
281
1
  3
Layout1
350
1E
  3
Layout2
350
26
  3
Model
350
22
  0
LAYOUT
  5
1E
100
AcDbPlotSettings
  1

  2
C:\Program Files\AutoCAD 2002\plotters\DWF ePlot (optimized for plotting).pc3
  4

  6

 40
0.0
 41
0.0
 42
0.0
 43
0.0
 44
0.0
 45
0.0
 46
0.0
 47
0.0
 48
0.0
 49
0.0
140
0.0
141
0.0
142
1.0
143
1.0
 70
688
 72
0
 73
0
 74
5
  7

 75
16
147
1.0
148
0.0
149
0.0
100
AcDbLayout
  1
Layout1
 70
1
 71
1
 10
0.0
 20
0.0
 11
420.0
 21
297.0
 12
0.0
 22
0.0
 32
0.0
 14
100000000000000000000.0
 24
100000000000000000000.0
 34
100000000000000000000.0
 15
-100000000000000000000.0
 25
-100000000000000000000.0
 35
-100000000000000000000.0
146
0.0
 13
0.0
 23
0.0
 33
0.0
 16
1.0
 26
0.0
 36
0.0
 17
0.0
 27
1.0
 37
0.0
 76
0
330
1B
  0
LAYOUT
  5
22
100
AcDbPlotSettings
  1

  2
C:\Program Files\AutoCAD 2002\plotters\DWF ePlot (optimized for plotting).pc3
  4

  6

 40
0.0
 41
0.0
 42
0.0
 43
0.0
 44
0.0
 45
0.0
 46
0.0
 47
0.0
 48
0.0
 49
0.0
140
0.0
141
0.0
142
1.0
143
1.0
 70
1712
 72
0
 73
0
 74
0
  7

 75
0
147
1.0
148
0.0
149
0.0
100
AcDbLayout
  1
Model
 70
1
 71
0
 10
0.0
 20
0.0
 11
12.0
 21
9.0
 12
0.0
 22
0.0
 32
0.0
 14
0.0
 24
0.0
 34
0.0
 15
0.0
 25
0.0
 35
0.0
146
0.0
 13
0.0
 23
0.0
 33
0.0
 16
1.0
 26
0.0
 36
0.0
 17
0.0
 27
1.0
 37
0.0
 76
0
330
1F
  0
LAYOUT
  5
26
100
AcDbPlotSettings
  1

  2
C:\Program Files\AutoCAD 2002\plotters\DWF ePlot (optimized for plotting).pc3
  4

  6

 40
0.0
 41
0.0
 42
0.0
 43
0.0
 44
0.0
 45
0.0
 46
0.0
 47
0.0
 48
0.0
 49
0.0
140
0.0
141
0.0
142
1.0
143
1.0
 70
688
 72
0
 73
0
 74
5
  7

 75
16
147
1.0
148
0.0
149
0.0
100
AcDbLayout
  1
Layout2
 70
1
 71
2
 10
0.0
 20
0.0
 11
12.0
 21
9.0
 12
0.0
 22
0.0
 32
0.0
 14
0.0
 24
0.0
 34
0.0
 15
0.0
 25
0.0
 35
0.0
146
0.0
 13
0.0
 23
0.0
 33
0.0
 16
1.0
 26
0.0
 36
0.0
 17
0.0
 27
1.0
 37
0.0
 76
0
330
23
  0
DICTIONARY
  5
19F
100
AcDbDictionary
281
1
  3
DIMASSOC
350
1A1
  3
HIDETEXT
350
1A0
  0
DICTIONARYVAR
  5
1A0
100
DictionaryVariables
280
0
  1
2
  0
DICTIONARYVAR
  5
1A1
100
DictionaryVariables
280
0
  1
1
  0
ENDSEC
  0
EOF
