999
dxfrw 0.5.10
0
SECTION
2
HEADER
9
$ACADVER
1
AC1021
9
$HANDSEED
5
20000
9
$DWGCODEPAGE
3
ANSI_1252
9
$INSBASE
10
0
20
0
30
0
9
$EXTMIN
10
109.245244861
20
481.852309241
30
0
9
$EXTMAX
10
301
20
543.125
30
0
9
$LIMMIN
10
0
20
0
9
$LIMMAX
10
420
20
297
9
$ORTHOMODE
70
0
9
$LTSCALE
40
1
9
$TEXTSTYLE
7
STANDARD
9
$CLAYER
8
noname
9
$DIMASZ
40
2.5
9
$DIMLFAC
40
1
9
$DIMSCALE
40
1
9
$DIMEXO
40
0.625
9
$DIMEXE
40
1.25
9
$DIMTXT
40
2.5
9
$DIMTSZ
40
0
9
$DIMAUNIT
70
0
9
$DIMADEC
70
0
9
$DIMLUNIT
70
2
9
$DIMSTYLE
2
STANDARD
9
$DIMGAP
40
0.625
9
$DIMTIH
70
0
9
$LUNITS
70
2
9
$LUPREC
70
4
9
$AUNITS
70
0
9
$AUPREC
70
2
9
$SPLINESEGS
70
8
9
$GRIDMODE
70
1
9
$SNAPSTYLE
70
0
9
$PINSBASE
10
-963.671446643
20
-1978.22941637
30
0
9
$PLIMMIN
10
0
20
0
9
$PLIMMAX
10
297
20
210
9
$INSUNITS
70
4
9
$PSVPSCALE
40
4
0
ENDSEC
0
SECTION
2
CLASSES
0
ENDSEC
0
SECTION
2
TABLES
0
TABLE
2
VPORT
5
8
330
0
100
AcDbSymbolTable
70
1
0
VPORT
5
31
330
2
100
AcDbSymbolTableRecord
100
AcDbViewportTableRecord
2
*ACTIVE
70
0
10
0
20
0
11
1
21
1
12
208.720150785
22
286.617492775
13
0
23
0
14
10
24
10
15
10
25
10
16
0
26
0
36
1
17
0
27
0
37
0
40
116.88328444
41
2.04464285714
42
50
43
0
44
0
50
0
51
0
71
0
72
100
73
1
74
3
75
0
76
1
77
0
78
0
281
0
65
1
110
0
120
0
130
0
111
1
121
0
131
0
112
0
122
1
132
0
79
0
146
0
348
10020
60
7
61
5
292
1
282
1
141
0
142
0
63
250
421
3358443
0
ENDTAB
0
TABLE
2
LTYPE
5
5
330
0
100
AcDbSymbolTable
70
4
0
LTYPE
5
14
330
5
100
AcDbSymbolTableRecord
100
AcDbLinetypeTableRecord
2
ByBlock
70
0
3

72
65
73
0
40
0
0
LTYPE
5
15
330
5
100
AcDbSymbolTableRecord
100
AcDbLinetypeTableRecord
2
ByLayer
70
0
3

72
65
73
0
40
0
0
LTYPE
5
16
330
5
100
AcDbSymbolTableRecord
100
AcDbLinetypeTableRecord
2
Continuous
70
0
3
Solid line
72
65
73
0
40
0
0
LTYPE
5
32
330
5
100
AcDbSymbolTableRecord
100
AcDbLinetypeTableRecord
2
DOT
70
0
3
Dot . . . . . . . . . . . . . . . . . . . . . .
72
65
73
2
40
6.35
49
0
74
0
49
-6.35
74
0
0
LTYPE
5
33
330
5
100
AcDbSymbolTableRecord
100
AcDbLinetypeTableRecord
2
DOT2
70
0
3
Dot (.5x) .....................................
72
65
73
2
40
3.175
49
0
74
0
49
-3.175
74
0
0
LTYPE
5
34
330
5
100
AcDbSymbolTableRecord
100
AcDbLinetypeTableRecord
2
DOTX2
70
0
3
Dot (2x) .  .  .  .  .  .  .  .  .  .  .  .  .
72
65
73
2
40
12.7
49
0
74
0
49
-12.7
74
0
0
LTYPE
5
35
330
5
100
AcDbSymbolTableRecord
100
AcDbLinetypeTableRecord
2
DASHED
70
0
3
Dot . . . . . . . . . . . . . . . . . . . . . .
72
65
73
2
40
19.05
49
12.7
74
0
49
-6.35
74
0
0
LTYPE
5
36
330
5
100
AcDbSymbolTableRecord
100
AcDbLinetypeTableRecord
2
DASHED2
70
0
3
Dashed (.5x) _ _ _ _ _ _ _ _ _ _ _ _ _ _ _ _ _
72
65
73
2
40
9.525
49
6.35
74
0
49
-3.175
74
0
0
LTYPE
5
37
330
5
100
AcDbSymbolTableRecord
100
AcDbLinetypeTableRecord
2
DASHEDX2
70
0
3
Dashed (2x) ____  ____  ____  ____  ____  ___
72
65
73
2
40
38.1
49
25.4
74
0
49
-12.7
74
0
0
LTYPE
5
38
330
5
100
AcDbSymbolTableRecord
100
AcDbLinetypeTableRecord
2
DASHDOT
70
0
3
Dash dot __ . __ . __ . __ . __ . __ . __ . __
72
65
73
4
40
25.4
49
12.7
74
0
49
-6.35
74
0
49
0
74
0
49
-6.35
74
0
0
LTYPE
5
39
330
5
100
AcDbSymbolTableRecord
100
AcDbLinetypeTableRecord
2
DASHDOT2
70
0
3
Dash dot (.5x) _._._._._._._._._._._._._._._.
72
65
73
4
40
12.7
49
6.35
74
0
49
-3.175
74
0
49
0
74
0
49
-3.175
74
0
0
LTYPE
5
3A
330
5
100
AcDbSymbolTableRecord
100
AcDbLinetypeTableRecord
2
DASHDOTX2
70
0
3
Dash dot (2x) ____  .  ____  .  ____  .  ___
72
65
73
4
40
50.8
49
25.4
74
0
49
-12.7
74
0
49
0
74
0
49
-12.7
74
0
0
LTYPE
5
3B
330
5
100
AcDbSymbolTableRecord
100
AcDbLinetypeTableRecord
2
DIVIDE
70
0
3
Divide ____ . . ____ . . ____ . . ____ . . ____
72
65
73
6
40
31.75
49
12.7
74
0
49
-6.35
74
0
49
0
74
0
49
-6.35
74
0
49
0
74
0
49
-6.35
74
0
0
LTYPE
5
3C
330
5
100
AcDbSymbolTableRecord
100
AcDbLinetypeTableRecord
2
DIVIDE2
70
0
3
Divide (.5x) __..__..__..__..__..__..__..__.._
72
65
73
6
40
15.875
49
6.35
74
0
49
-3.175
74
0
49
0
74
0
49
-3.175
74
0
49
0
74
0
49
-3.175
74
0
0
LTYPE
5
3D
330
5
100
AcDbSymbolTableRecord
100
AcDbLinetypeTableRecord
2
DIVIDEX2
70
0
3
Divide (2x) ________  .  .  ________  .  .  _
72
65
73
6
40
63.5
49
25.4
74
0
49
-12.7
74
0
49
0
74
0
49
-12.7
74
0
49
0
74
0
49
-12.7
74
0
0
LTYPE
5
3E
330
5
100
AcDbSymbolTableRecord
100
AcDbLinetypeTableRecord
2
BORDER
70
0
3
Border __ __ . __ __ . __ __ . __ __ . __ __ .
72
65
73
6
40
44.45
49
12.7
74
0
49
-6.35
74
0
49
12.7
74
0
49
-6.35
74
0
49
0
74
0
49
-6.35
74
0
0
LTYPE
5
3F
330
5
100
AcDbSymbolTableRecord
100
AcDbLinetypeTableRecord
2
BORDER2
70
0
3
Border (.5x) __.__.__.__.__.__.__.__.__.__.__.
72
65
73
6
40
22.225
49
6.35
74
0
49
-3.175
74
0
49
6.35
74
0
49
-3.175
74
0
49
0
74
0
49
-3.175
74
0
0
LTYPE
5
40
330
5
100
AcDbSymbolTableRecord
100
AcDbLinetypeTableRecord
2
BORDERX2
70
0
3
Border (2x) ____  ____  .  ____  ____  .  ___
72
65
73
6
40
88.9
49
25.4
74
0
49
-12.7
74
0
49
25.4
74
0
49
-12.7
74
0
49
0
74
0
49
-12.7
74
0
0
LTYPE
5
41
330
5
100
AcDbSymbolTableRecord
100
AcDbLinetypeTableRecord
2
CENTER
70
0
3
Center ____ _ ____ _ ____ _ ____ _ ____ _ ____
72
65
73
4
40
50.8
49
31.75
74
0
49
-6.35
74
0
49
6.35
74
0
49
-6.35
74
0
0
LTYPE
5
42
330
5
100
AcDbSymbolTableRecord
100
AcDbLinetypeTableRecord
2
CENTER2
70
0
3
Center (.5x) ___ _ ___ _ ___ _ ___ _ ___ _ ___
72
65
73
4
40
28.575
49
19.05
74
0
49
-3.175
74
0
49
3.175
74
0
49
-3.175
74
0
0
LTYPE
5
43
330
5
100
AcDbSymbolTableRecord
100
AcDbLinetypeTableRecord
2
CENTERX2
70
0
3
Center (2x) ________  __  ________  __  _____
72
65
73
4
40
101.6
49
63.5
74
0
49
-12.7
74
0
49
12.7
74
0
49
-12.7
74
0
0
ENDTAB
0
TABLE
2
LAYER
5
2
330
0
100
AcDbSymbolTable
70
1
0
LAYER
5
10
330
2
100
AcDbSymbolTableRecord
100
AcDbLayerTableRecord
2
0
70
1
62
7
6
CONTINUOUS
370
0
390
F
0
LAYER
5
44
330
2
100
AcDbSymbolTableRecord
100
AcDbLayerTableRecord
2
noname
70
0
62
7
6
CONTINUOUS
370
25
390
F
0
ENDTAB
0
TABLE
2
STYLE
5
3
330
0
100
AcDbSymbolTable
70
3
0
STYLE
5
45
330
2
100
AcDbSymbolTableRecord
100
AcDbTextStyleTableRecord
2
Standard
70
0
40
0
41
1
50
0
71
0
42
1
3
txt
4

0
ENDTAB
0
TABLE
2
VIEW
5
6
330
0
100
AcDbSymbolTable
70
0
0
ENDTAB
0
TABLE
2
UCS
5
7
330
0
100
AcDbSymbolTable
70
0
0
ENDTAB
0
TABLE
2
APPID
5
9
330
0
100
AcDbSymbolTable
70
1
0
APPID
5
12
330
9
100
AcDbSymbolTableRecord
100
AcDbRegAppTableRecord
2
ACAD
70
0
0
ENDTAB
0
TABLE
2
DIMSTYLE
5
A
330
0
100
AcDbSymbolTable
70
1
100
AcDbDimStyleTable
71
1
0
DIMSTYLE
105
46
330
A
100
AcDbSymbolTableRecord
100
AcDbDimStyleTableRecord
2
Standard
70
0
40
1
41
2.5
42
0.625
43
0.38
44
1.25
45
0
46
0
47
0
48
0
140
2.5
141
0.09
142
0
143
25.4
144
1
145
0
146
1
147
0.625
148
0
71
0
72
0
73
0
74
1
75
0
76
0
77
0
78
0
79
0
170
0
171
2
172
0
173
0
174
0
175
0
176
0
177
0
178
0
179
0
271
4
272
4
273
2
274
2
275
0
276
0
277
2
278
46
279
0
280
0
281
0
282
0
283
1
284
0
285
0
286
0
288
0
289
3
340
Standard
341

371
-2
372
-2
0
ENDTAB
0
TABLE
2
BLOCK_RECORD
5
1
330
0
100
AcDbSymbolTable
70
2
0
BLOCK_RECORD
5
1F
330
1
100
AcDbSymbolTableRecord
100
AcDbBlockTableRecord
2
*Model_Space
70
0
280
1
281
0
0
BLOCK_RECORD
5
1E
330
1
100
AcDbSymbolTableRecord
100
AcDbBlockTableRecord
2
*Paper_Space
70
0
280
1
281
0
0
BLOCK_RECORD
5
47
330
1
100
AcDbSymbolTableRecord
100
AcDbBlockTableRecord
2
*D1
70
0
280
1
281
0
0
BLOCK_RECORD
5
4A
330
1
100
AcDbSymbolTableRecord
100
AcDbBlockTableRecord
2
*D2
70
0
280
1
281
0
0
BLOCK_RECORD
5
4D
330
1
100
AcDbSymbolTableRecord
100
AcDbBlockTableRecord
2
*D4
70
0
280
1
281
0
0
BLOCK_RECORD
5
50
330
1
100
AcDbSymbolTableRecord
100
AcDbBlockTableRecord
2
*D3
70
0
280
1
281
0
0
ENDTAB
0
ENDSEC
0
SECTION
2
BLOCKS
0
BLOCK
5
20
330
1F
100
AcDbEntity
8
0
100
AcDbBlockBegin
2
*Model_Space
70
0
10
0
20
0
30
0
3
*Model_Space
1

0
ENDBLK
5
21
330
1F
100
AcDbEntity
8
0
100
AcDbBlockEnd
0
BLOCK
5
1C
330
1B
100
AcDbEntity
8
0
100
AcDbBlockBegin
2
*Paper_Space
70
0
10
0
20
0
30
0
3
*Paper_Space
1

0
ENDBLK
5
1D
330
1F
100
AcDbEntity
8
0
100
AcDbBlockEnd
0
BLOCK
5
48
330
47
100
AcDbEntity
8
0
100
AcDbBlockBegin
2
*D1
70
1
10
0
20
0
3
*D1
1

0
LINE
5
53
100
AcDbEntity
8
noname
6
CONTINUOUS
62
7
370
0
100
AcDbLine
10
261.3
20
500
11
269.7
21
500
0
SOLID
5
54
100
AcDbEntity
8
noname
6
CONTINUOUS
62
7
370
0
100
AcDbTrace
10
261.3
20
500
30
0
11
263.8
21
500.416284658
31
0
12
263.8
22
499.583715342
32
0
13
263.8
23
499.583715342
33
0
0
SOLID
5
55
100
AcDbEntity
8
noname
6
CONTINUOUS
62
7
370
0
100
AcDbTrace
10
269.7
20
500
30
0
11
267.2
21
499.583715342
31
0
12
267.2
22
500.416284658
32
0
13
267.2
23
500.416284658
33
0
0
MTEXT
5
56
100
AcDbEntity
8
noname
6
CONTINUOUS
62
7
370
0
100
AcDbMText
10
265.5
20
501.875
30
0
40
2.5
41
4.16666666667
71
5
72
1
1
8.4
7
standard
210
0
220
0
230
1
50
0
73
2
44
1
0
LINE
5
57
100
AcDbEntity
8
noname
6
CONTINUOUS
62
7
370
0
100
AcDbLine
10
261.3
20
508.375
11
261.3
21
498.75
0
LINE
5
58
100
AcDbEntity
8
noname
6
CONTINUOUS
62
7
370
0
100
AcDbLine
10
269.7
20
508.375
11
269.7
21
498.75
0
ENDBLK
5
49
330
47
100
AcDbEntity
8
0
100
AcDbBlockEnd
0
BLOCK
5
4B
330
4A
100
AcDbEntity
8
0
100
AcDbBlockBegin
2
*D2
70
1
10
0
20
0
3
*D2
1

0
LINE
5
59
100
AcDbEntity
8
noname
6
CONTINUOUS
62
7
370
0
100
AcDbLine
10
286.3
20
500
11
299.7
21
500
0
SOLID
5
5A
100
AcDbEntity
8
noname
6
CONTINUOUS
62
7
370
0
100
AcDbTrace
10
291.3
20
500
30
0
11
288.8
21
499.583715342
31
0
12
288.8
22
500.416284658
32
0
13
288.8
23
500.416284658
33
0
0
SOLID
5
5B
100
AcDbEntity
8
noname
6
CONTINUOUS
62
7
370
0
100
AcDbTrace
10
294.7
20
500
30
0
11
297.2
21
500.416284658
31
0
12
297.2
22
499.583715342
32
0
13
297.2
23
499.583715342
33
0
0
MTEXT
5
5C
100
AcDbEntity
8
noname
6
CONTINUOUS
62
7
370
0
100
AcDbMText
10
297.408333333
20
501.875
30
0
40
2.5
41
4.16666666667
71
5
72
1
1
3.4
7
standard
210
0
220
0
230
1
50
0
73
2
44
1
0
LINE
5
5D
100
AcDbEntity
8
noname
6
CONTINUOUS
62
7
370
0
100
AcDbLine
10
291.3
20
508.475
11
291.3
21
498.75
0
LINE
5
5E
100
AcDbEntity
8
noname
6
CONTINUOUS
62
7
370
0
100
AcDbLine
10
294.7
20
508.475
11
294.7
21
498.75
0
ENDBLK
5
4C
330
4A
100
AcDbEntity
8
0
100
AcDbBlockEnd
0
BLOCK
5
4E
330
4D
100
AcDbEntity
8
0
100
AcDbBlockBegin
2
*D4
70
1
10
0
20
0
3
*D4
1

0
LINE
5
5F
100
AcDbEntity
8
noname
6
CONTINUOUS
62
7
370
0
100
AcDbLine
10
285
20
540
11
301
21
540
0
SOLID
5
60
100
AcDbEntity
8
noname
6
CONTINUOUS
62
7
370
0
100
AcDbTrace
10
290
20
540
30
0
11
287.5
21
539.583715342
31
0
12
287.5
22
540.416284658
32
0
13
287.5
23
540.416284658
33
0
0
SOLID
5
61
100
AcDbEntity
8
noname
6
CONTINUOUS
62
7
370
0
100
AcDbTrace
10
296
20
540
30
0
11
298.5
21
540.416284658
31
0
12
298.5
22
539.583715342
32
0
13
298.5
23
539.583715342
33
0
0
MTEXT
5
62
100
AcDbEntity
8
noname
6
CONTINUOUS
62
7
370
0
100
AcDbMText
10
293
20
541.875
30
0
40
2.5
41
1.11111111111
71
5
72
1
1
6
7
standard
210
0
220
0
230
1
50
0
73
2
44
1
0
LINE
5
63
100
AcDbEntity
8
noname
6
CONTINUOUS
62
7
370
0
100
AcDbLine
10
290
20
537.625
11
290
21
541.25
0
LINE
5
64
100
AcDbEntity
8
noname
6
CONTINUOUS
62
7
370
0
100
AcDbLine
10
296
20
537.625
11
296
21
541.25
0
ENDBLK
5
4F
330
4D
100
AcDbEntity
8
0
100
AcDbBlockEnd
0
BLOCK
5
51
330
50
100
AcDbEntity
8
0
100
AcDbBlockBegin
2
*D3
70
1
10
0
20
0
3
*D3
1

0
LINE
5
65
100
AcDbEntity
8
noname
6
CONTINUOUS
62
7
370
0
100
AcDbLine
10
260
20
540
11
271
21
540
0
SOLID
5
66
100
AcDbEntity
8
noname
6
CONTINUOUS
62
7
370
0
100
AcDbTrace
10
260
20
540
30
0
11
262.5
21
540.416284658
31
0
12
262.5
22
539.583715342
32
0
13
262.5
23
539.583715342
33
0
0
SOLID
5
67
100
AcDbEntity
8
noname
6
CONTINUOUS
62
7
370
0
100
AcDbTrace
10
271
20
540
30
0
11
268.5
21
539.583715342
31
0
12
268.5
22
540.416284658
32
0
13
268.5
23
540.416284658
33
0
0
MTEXT
5
68
100
AcDbEntity
8
noname
6
CONTINUOUS
62
7
370
0
100
AcDbMText
10
265.5
20
541.875
30
0
40
2.5
41
1.94444444444
71
5
72
1
1
11
7
standard
210
0
220
0
230
1
50
0
73
2
44
1
0
LINE
5
69
100
AcDbEntity
8
noname
6
CONTINUOUS
62
7
370
0
100
AcDbLine
10
260
20
537.625
11
260
21
541.25
0
LINE
5
6A
100
AcDbEntity
8
noname
6
CONTINUOUS
62
7
370
0
100
AcDbLine
10
271
20
537.625
11
271
21
541.25
0
ENDBLK
5
52
330
50
100
AcDbEntity
8
0
100
AcDbBlockEnd
0
ENDSEC
0
SECTION
2
ENTITIES
0
IMAGE
5
6D
100
AcDbEntity
8
0
6
ByLayer
62
256
370
-1
100
AcDbRasterImage
10
61.9980621338
20
84.765548706
30
0
11
1
21
0
31
0
12
6.12323399574e-17
22
1
32
0
13
960
23
720
340
6B
70
1
280
0
281
50
282
50
283
0
360
6C
0
LINE
5
6E
100
AcDbEntity
8
noname
6
ByLayer
62
256
370
-1
100
AcDbLine
10
200
20
519
11
225
21
519
0
LINE
5
6F
100
AcDbEntity
8
noname
6
ByLayer
62
256
370
-1
100
AcDbLine
10
225
20
519
11
225
21
507
0
LINE
5
70
100
AcDbEntity
8
noname
6
ByLayer
62
256
370
-1
100
AcDbLine
10
225
20
507
11
200
21
507
0
SPLINE
5
71
100
AcDbEntity
8
noname
6
ByLayer
62
256
370
-1
100
AcDbSpline
210
0
220
0
230
1
70
8
71
3
72
9
73
5
74
0
42
1e-07
43
1e-07
40
0
40
0
40
0
40
0
40
0.5
40
1
40
1
40
1
40
1
10
131
20
486
30
0
10
131
20
494
30
0
10
139
20
493
30
0
10
139
20
493
30
0
10
139
20
493
30
0
0
SPLINE
5
72
100
AcDbEntity
8
noname
6
ByLayer
62
256
370
-1
100
AcDbSpline
210
0
220
0
230
1
70
8
71
3
72
8
73
4
74
0
42
1e-07
43
1e-07
40
0
40
0
40
0
40
0
40
1
40
1
40
1
40
1
10
129
20
508
30
0
10
128
20
499
30
0
10
120
20
503
30
0
10
120
20
503
30
0
0
CIRCLE
5
73
100
AcDbEntity
8
noname
6
ByLayer
62
256
370
-1
100
AcDbCircle
10
138
20
502
40
3
0
SPLINE
5
74
100
AcDbEntity
8
noname
6
ByLayer
62
256
370
-1
100
AcDbSpline
210
0
220
0
230
1
70
8
71
3
72
23
73
19
74
0
42
1e-07
43
1e-07
40
0
40
0
40
0
40
0
40
0.0625
40
0.125
40
0.1875
40
0.25
40
0.3125
40
0.375
40
0.4375
40
0.5
40
0.5625
40
0.625
40
0.6875
40
0.75
40
0.8125
40
0.875
40
0.9375
40
1
40
1
40
1
40
1
10
199.999420055
20
507.089920249
30
0
10
178.118271367
20
506.7003922
30
0
10
138.731423894
20
495.501881311
30
0
10
134.247475935
20
488.298117663
30
0
10
134.247475935
20
488.298117663
30
0
10
122
20
481
30
0
10
108.924100785
20
482.405183669
30
0
10
108.924100785
20
482.405183669
30
0
10
114
20
501
30
0
10
130.461774446
20
508.978264283
30
0
10
149.114328847
20
514.858928729
30
0
10
182.003485081
20
519.124301182
30
0
10
200
20
519
30
0
10
200
20
519
30
0
10
200
20
519
30
0
10
199.999420055
20
507.089920249
30
0
10
199.999420055
20
507.089920249
30
0
10
199.999420055
20
507.089920249
30
0
10
199.999420055
20
507.089920249
30
0
0
CIRCLE
5
75
100
AcDbEntity
8
noname
6
ByLayer
62
256
370
-1
100
AcDbCircle
10
138
20
502
40
1
0
CIRCLE
5
76
100
AcDbEntity
8
noname
6
ByLayer
62
256
370
-1
100
AcDbCircle
10
138
20
502
40
0.1
0
LINE
5
77
100
AcDbEntity
8
noname
6
ByLayer
62
256
370
-1
100
AcDbLine
10
260
20
510
11
260
21
535
0
LINE
5
78
100
AcDbEntity
8
noname
6
ByLayer
62
256
370
-1
100
AcDbLine
10
271
20
535
11
260
21
535
0
LINE
5
79
100
AcDbEntity
8
noname
6
ByLayer
62
256
370
-1
100
AcDbLine
10
271
20
535
11
271
21
510
0
LINE
5
7A
100
AcDbEntity
8
noname
6
ByLayer
62
256
370
-1
100
AcDbLine
10
261.308398906
20
510.034261631
11
260
21
535
0
LINE
5
7B
100
AcDbEntity
8
noname
6
ByLayer
62
256
370
-1
100
AcDbLine
10
271
20
535
11
269.691601094
21
510.034261631
0
LINE
5
7C
100
AcDbEntity
8
noname
6
ByLayer
62
256
370
-1
100
AcDbLine
10
261.3
20
510
11
269.7
21
510
0
LINE
5
7D
100
AcDbEntity
8
noname
6
ByLayer
62
256
370
-1
100
AcDbLine
10
290
20
535
11
290
21
510
0
LINE
5
7E
100
AcDbEntity
8
noname
6
ByLayer
62
256
370
-1
100
AcDbLine
10
290
20
535
11
296
21
535
0
LINE
5
7F
100
AcDbEntity
8
noname
6
ByLayer
62
256
370
-1
100
AcDbLine
10
296
20
535
11
296
21
510
0
LINE
5
80
100
AcDbEntity
8
noname
6
ByLayer
62
256
370
-1
100
AcDbLine
10
290
20
535
11
291.308398906
21
510.034261631
0
LINE
5
81
100
AcDbEntity
8
noname
6
ByLayer
62
256
370
-1
100
AcDbLine
10
296
20
535
11
294.691601094
21
510.034261631
0
LINE
5
82
100
AcDbEntity
8
noname
6
ByLayer
62
256
370
-1
100
AcDbLine
10
294.7
20
510
11
291.3
21
510
0
DIMENSION
5
83
100
AcDbEntity
8
noname
6
ByLayer
62
256
370
-1
100
AcDbDimension
2
*D1
10
269.7
20
500
30
0
11
265.5
21
501.875
31
0
70
32
71
5
3
Standard
53
0
210
0
220
0
230
1
100
AcDbAlignedDimension
13
261.3
23
509
33
0
14
269.7
24
509
34
0
100
AcDbRotatedDimension
0
DIMENSION
5
84
100
AcDbEntity
8
noname
6
ByLayer
62
256
370
-1
100
AcDbDimension
2
*D2
10
294.7
20
500
30
0
11
293
21
501.875
31
0
70
32
71
5
3
Standard
53
0
210
0
220
0
230
1
100
AcDbAlignedDimension
13
291.3
23
509.1
33
0
14
294.7
24
509.1
34
0
100
AcDbRotatedDimension
0
DIMENSION
5
85
100
AcDbEntity
8
noname
6
ByLayer
62
256
370
-1
100
AcDbDimension
2
*D3
10
271
20
540
30
0
11
265.5
21
541.875
31
0
70
32
71
5
3
Standard
53
0
210
0
220
0
230
1
100
AcDbAlignedDimension
13
260
23
537
33
0
14
271
24
537
34
0
100
AcDbRotatedDimension
0
DIMENSION
5
86
100
AcDbEntity
8
noname
6
ByLayer
62
256
370
-1
100
AcDbDimension
2
*D4
10
296
20
540
30
0
11
293
21
541.875
31
0
70
32
71
5
3
Standard
53
0
210
0
220
0
230
1
100
AcDbAlignedDimension
13
290
23
537
33
0
14
296
24
537
34
0
100
AcDbRotatedDimension
0
ENDSEC
0
SECTION
2
OBJECTS
0
DICTIONARY
5
C
330
0
100
AcDbDictionary
281
1
3
ACAD_GROUP
350
D
3
ACAD_IMAGE_DICT
350
87
0
DICTIONARY
5
D
330
C
100
AcDbDictionary
281
1
0
IMAGEDEF_REACTOR
5
6C
330
6D
100
AcDbRasterImageDefReactor
90
2
330
6D
0
DICTIONARY
5
87
330
C
100
AcDbDictionary
281
1
3
Leather Edge Creaser - 09
350
6B
0
IMAGEDEF
5
6B
102
{ACAD_REACTORS
330
6C
102
}
100
AcDbRasterImageDef
90
0
1
/home/knoba/Desktop/Leather Edge Creaser/Leather Edge Creaser - 09.jpg
10
960
20
720
11
1
21
1
280
1
281
0
0
ENDSEC
0
EOF
