999
dxflib 2.0.4.8
  0
SECTION
  2
HEADER
  9
$ACADVER
  1
AC1015
  9
$HANDSEED
  5
FFFF
  9
$DIMASZ
 40
2.5
  9
$DIMGAP
 40
0.625
  9
$INSUNITS
 70
4
  9
$DIMEXO
 40
0.625
  9
$DIMTXT
 40
2.5
  9
$DIMSTYLE
  2
Standard
  9
$PLIMMIN
 10
0.0
 20
0.0
  9
$PLIMMAX
 10
210.0
 20
297.0
  9
$DIMEXE
 40
1.25
  0
ENDSEC
  0
SECTION
  2
TABLES
  0
TABLE
  2
VPORT
  5
8
100
AcDbSymbolTable
 70
1
  0
VPORT
  5
30
100
AcDbSymbolTableRecord
100
AcDbViewportTableRecord
  2
*Active
 70
0
 10
0.0
 20
0.0
 11
1.0
 21
1.0
 12
286.3055555555554861
 22
148.5
 13
0.0
 23
0.0
 14
10.0
 24
10.0
 15
10.0
 25
10.0
 16
0.0
 26
0.0
 36
1.0
 17
0.0
 27
0.0
 37
0.0
 40
297.0
 41
1.92798353909465
 42
50.0
 43
0.0
 44
0.0
 50
0.0
 51
0.0
 71
0
 72
100
 73
1
 74
3
 75
1
 76
1
 77
0
 78
0
281
0
 65
1
110
0.0
120
0.0
130
0.0
111
1.0
121
0.0
131
0.0
112
0.0
122
1.0
132
0.0
 79
0
146
0.0
  0
ENDTAB
  0
TABLE
  2
LTYPE
  5
5
100
AcDbSymbolTable
 70
21
  0
LTYPE
  5
14
100
AcDbSymbolTableRecord
100
AcDbLinetypeTableRecord
  2
ByBlock
 70
0
  3

 72
65
 73
0
 40
0.0
  0
LTYPE
  5
15
100
AcDbSymbolTableRecord
100
AcDbLinetypeTableRecord
  2
ByLayer
 70
0
  3

 72
65
 73
0
 40
0.0
  0
LTYPE
  5
16
100
AcDbSymbolTableRecord
100
AcDbLinetypeTableRecord
  2
CONTINUOUS
 70
0
  3
Solid line
 72
65
 73
0
 40
0.0
  0
LTYPE
  5
31
100
AcDbSymbolTableRecord
100
AcDbLinetypeTableRecord
  2
DOT
 70
0
  3
Dot . . . . . . . . . . . . . . . . . . . . . .
 72
65
 73
2
 40
6.3499999999999996
 49
0.0
 74
0
 49
-6.3499999999999996
 74
0
  0
LTYPE
  5
32
100
AcDbSymbolTableRecord
100
AcDbLinetypeTableRecord
  2
DOT2
 70
0
  3
Dot (.5x) .....................................
 72
65
 73
2
 40
3.1749999999999998
 49
0.0
 74
0
 49
-3.1749999999999998
 74
0
  0
LTYPE
  5
33
100
AcDbSymbolTableRecord
100
AcDbLinetypeTableRecord
  2
DOTX2
 70
0
  3
Dot (2x) .  .  .  .  .  .  .  .  .  .  .  .  .
 72
65
 73
2
 40
12.6999999999999993
 49
0.0
 74
0
 49
-12.6999999999999993
 74
0
  0
LTYPE
  5
34
100
AcDbSymbolTableRecord
100
AcDbLinetypeTableRecord
  2
DASHED
 70
0
  3
Dashed __ __ __ __ __ __ __ __ __ __ __ __ __ _
 72
65
 73
2
 40
19.0500000000000007
 49
12.6999999999999993
 74
0
 49
-6.3499999999999996
 74
0
  0
LTYPE
  5
35
100
AcDbSymbolTableRecord
100
AcDbLinetypeTableRecord
  2
DASHED2
 70
0
  3
Dashed (.5x) _ _ _ _ _ _ _ _ _ _ _ _ _ _ _ _ _
 72
65
 73
2
 40
9.5250000000000004
 49
6.3499999999999996
 74
0
 49
-3.1749999999999998
 74
0
  0
LTYPE
  5
36
100
AcDbSymbolTableRecord
100
AcDbLinetypeTableRecord
  2
DASHEDX2
 70
0
  3
Dashed (2x) ____  ____  ____  ____  ____  ___
 72
65
 73
2
 40
38.1000000000000014
 49
25.3999999999999986
 74
0
 49
-12.6999999999999993
 74
0
  0
LTYPE
  5
37
100
AcDbSymbolTableRecord
100
AcDbLinetypeTableRecord
  2
DASHDOT
 70
0
  3
Dash dot __ . __ . __ . __ . __ . __ . __ . __
 72
65
 73
4
 40
25.3999999999999986
 49
12.6999999999999993
 74
0
 49
-6.3499999999999996
 74
0
 49
0.0
 74
0
 49
-6.3499999999999996
 74
0
  0
LTYPE
  5
38
100
AcDbSymbolTableRecord
100
AcDbLinetypeTableRecord
  2
DASHDOT2
 70
0
  3
Dash dot (.5x) _._._._._._._._._._._._._._._.
 72
65
 73
4
 40
12.6999999999999993
 49
6.3499999999999996
 74
0
 49
-3.1749999999999998
 74
0
 49
0.0
 74
0
 49
-3.1749999999999998
 74
0
  0
LTYPE
  5
39
100
AcDbSymbolTableRecord
100
AcDbLinetypeTableRecord
  2
DASHDOTX2
 70
0
  3
Dash dot (2x) ____  .  ____  .  ____  .  ___
 72
65
 73
4
 40
50.7999999999999972
 49
25.3999999999999986
 74
0
 49
-12.6999999999999993
 74
0
 49
0.0
 74
0
 49
-12.6999999999999993
 74
0
  0
LTYPE
  5
3A
100
AcDbSymbolTableRecord
100
AcDbLinetypeTableRecord
  2
DIVIDE
 70
0
  3
Divide ____ . . ____ . . ____ . . ____ . . ____
 72
65
 73
6
 40
31.75
 49
12.6999999999999993
 74
0
 49
-6.3499999999999996
 74
0
 49
0.0
 74
0
 49
-6.3499999999999996
 74
0
 49
0.0
 74
0
 49
-6.3499999999999996
 74
0
  0
LTYPE
  5
3B
100
AcDbSymbolTableRecord
100
AcDbLinetypeTableRecord
  2
DIVIDE2
 70
0
  3
Divide (.5x) __..__..__..__..__..__..__..__.._
 72
65
 73
6
 40
15.875
 49
6.3499999999999996
 74
0
 49
-3.1749999999999998
 74
0
 49
0.0
 74
0
 49
-3.1749999999999998
 74
0
 49
0.0
 74
0
 49
-3.1749999999999998
 74
0
  0
LTYPE
  5
3C
100
AcDbSymbolTableRecord
100
AcDbLinetypeTableRecord
  2
DIVIDEX2
 70
0
  3
Divide (2x) ________  .  .  ________  .  .  _
 72
65
 73
6
 40
63.5
 49
25.3999999999999986
 74
0
 49
-12.6999999999999993
 74
0
 49
0.0
 74
0
 49
-12.6999999999999993
 74
0
 49
0.0
 74
0
 49
-12.6999999999999993
 74
0
  0
LTYPE
  5
3D
100
AcDbSymbolTableRecord
100
AcDbLinetypeTableRecord
  2
CENTER
 70
0
  3
Center ____ _ ____ _ ____ _ ____ _ ____ _ ____
 72
65
 73
4
 40
50.7999999999999972
 49
31.75
 74
0
 49
-6.3499999999999996
 74
0
 49
6.3499999999999996
 74
0
 49
-6.3499999999999996
 74
0
  0
LTYPE
  5
3E
100
AcDbSymbolTableRecord
100
AcDbLinetypeTableRecord
  2
CENTER2
 70
0
  3
Center (.5x) ___ _ ___ _ ___ _ ___ _ ___ _ ___
 72
65
 73
4
 40
28.5749999999999993
 49
19.0500000000000007
 74
0
 49
-3.1749999999999998
 74
0
 49
3.1749999999999998
 74
0
 49
-3.1749999999999998
 74
0
  0
LTYPE
  5
3F
100
AcDbSymbolTableRecord
100
AcDbLinetypeTableRecord
  2
CENTERX2
 70
0
  3
Center (2x) ________  __  ________  __  _____
 72
65
 73
4
 40
101.5999999999999943
 49
63.5
 74
0
 49
-12.6999999999999993
 74
0
 49
12.6999999999999993
 74
0
 49
-12.6999999999999993
 74
0
  0
LTYPE
  5
40
100
AcDbSymbolTableRecord
100
AcDbLinetypeTableRecord
  2
BORDER
 70
0
  3
Border __ __ . __ __ . __ __ . __ __ . __ __ .
 72
65
 73
6
 40
44.4500000000000028
 49
12.6999999999999993
 74
0
 49
-6.3499999999999996
 74
0
 49
12.6999999999999993
 74
0
 49
-6.3499999999999996
 74
0
 49
0.0
 74
0
 49
-6.3499999999999996
 74
0
  0
LTYPE
  5
41
100
AcDbSymbolTableRecord
100
AcDbLinetypeTableRecord
  2
BORDER2
 70
0
  3
Border (.5x) __.__.__.__.__.__.__.__.__.__.__.
 72
65
 73
6
 40
22.2250000000000014
 49
6.3499999999999996
 74
0
 49
-3.1749999999999998
 74
0
 49
6.3499999999999996
 74
0
 49
-3.1749999999999998
 74
0
 49
0.0
 74
0
 49
-3.1749999999999998
 74
0
  0
LTYPE
  5
42
100
AcDbSymbolTableRecord
100
AcDbLinetypeTableRecord
  2
BORDERX2
 70
0
  3
Border (2x) ____  ____  .  ____  ____  .  ___
 72
65
 73
6
 40
88.9000000000000057
 49
25.3999999999999986
 74
0
 49
-12.6999999999999993
 74
0
 49
25.3999999999999986
 74
0
 49
-12.6999999999999993
 74
0
 49
0.0
 74
0
 49
-12.6999999999999993
 74
0
  0
ENDTAB
  0
TABLE
  2
LAYER
  5
2
100
AcDbSymbolTable
 70
6
  0
LAYER
  5
10
100
AcDbSymbolTableRecord
100
AcDbLayerTableRecord
  2
0
 70
0
 62
7
  6
CONTINUOUS
370
50
390
F
  0
LAYER
  5
43
100
AcDbSymbolTableRecord
100
AcDbLayerTableRecord
  2
Castors
 70
0
 62
7
  6
CONTINUOUS
370
-3
390
F
  0
LAYER
  5
44
100
AcDbSymbolTableRecord
100
AcDbLayerTableRecord
  2
Dimensions
 70
0
 62
7
  6
CONTINUOUS
370
50
390
F
  0
LAYER
  5
45
100
AcDbSymbolTableRecord
100
AcDbLayerTableRecord
  2
Frame
 70
0
 62
7
  6
CONTINUOUS
370
-3
390
F
  0
LAYER
  5
46
100
AcDbSymbolTableRecord
100
AcDbLayerTableRecord
  2
FixingCenters
 70
0
 62
1
  6
CONTINUOUS
370
0
390
F
  0
LAYER
  5
47
100
AcDbSymbolTableRecord
100
AcDbLayerTableRecord
  2
Fett
 70
0
 62
7
  6
CONTINUOUS
370
200
390
F
  0
ENDTAB
  0
TABLE
  2
STYLE
  5
3
100
AcDbSymbolTable
 70
1
  0
STYLE
  5
11
100
AcDbSymbolTableRecord
100
AcDbTextStyleTableRecord
  2
Standard
 70
0
 40
0.0
 41
0.75
 50
0.0
 71
0
 42
2.5
  3
txt
  4

  0
ENDTAB
  0
TABLE
  2
VIEW
  5
6
100
AcDbSymbolTable
 70
0
  0
ENDTAB
  0
TABLE
  2
UCS
  5
7
100
AcDbSymbolTable
 70
0
  0
ENDTAB
  0
TABLE
  2
APPID
  5
9
100
AcDbSymbolTable
 70
1
  0
APPID
  5
12
100
AcDbSymbolTableRecord
100
AcDbRegAppTableRecord
  2
ACAD
 70
0
  0
ENDTAB
  0
TABLE
  2
DIMSTYLE
  5
A
100
AcDbSymbolTable
 70
1
100
AcDbDimStyleTable
 71
0
  0
DIMSTYLE
105
27
100
AcDbSymbolTableRecord
100
AcDbDimStyleTableRecord
  2
Standard
 41
2.5
 42
0.625
 43
3.75
 44
1.25
 70
0
 73
0
 74
0
 77
1
 78
8
140
2.5
141
2.5
143
0.03937007874016
147
0.625
171
3
172
1
271
2
272
2
274
3
278
44
283
0
284
8
340
11
  0
ENDTAB
  0
TABLE
  2
BLOCK_RECORD
  5
1
100
AcDbSymbolTable
 70
1
  0
BLOCK_RECORD
  5
1F
100
AcDbSymbolTableRecord
100
AcDbBlockTableRecord
  2
*Model_Space
340
22
  0
BLOCK_RECORD
  5
1B
100
AcDbSymbolTableRecord
100
AcDbBlockTableRecord
  2
*Paper_Space
340
1E
  0
BLOCK_RECORD
  5
23
100
AcDbSymbolTableRecord
100
AcDbBlockTableRecord
  2
*Paper_Space0
340
26
  0
ENDTAB
  0
ENDSEC
  0
SECTION
  2
BLOCKS
  0
BLOCK
  5
20
100
AcDbEntity
  8
0
100
AcDbBlockBegin
  2
*Model_Space
 70
0
 10
0.0
 20
0.0
 30
0.0
  3
*Model_Space
  1

  0
ENDBLK
  5
21
100
AcDbEntity
  8
0
100
AcDbBlockEnd
  0
BLOCK
  5
1C
100
AcDbEntity
 67
1
  8
0
100
AcDbBlockBegin
  2
*Paper_Space
 70
0
 10
0.0
 20
0.0
 30
0.0
  3
*Paper_Space
  1

  0
ENDBLK
  5
1D
100
AcDbEntity
 67
1
  8
0
100
AcDbBlockEnd
  0
BLOCK
  5
24
100
AcDbEntity
  8
0
100
AcDbBlockBegin
  2
*Paper_Space0
 70
0
 10
0.0
 20
0.0
 30
0.0
  3
*Paper_Space0
  1

  0
ENDBLK
  5
25
100
AcDbEntity
  8
0
100
AcDbBlockEnd
  0
ENDSEC
  0
SECTION
  2
ENTITIES
  0
LINE
  5
48
100
AcDbEntity
100
AcDbLine
  8
Frame
 62
256
370
-1
  6
ByLayer
 10
-47.5
 20
90.0000000000000142
 30
0.0
 11
-47.5
 21
92.5000000000000142
 31
0.0
  0
LINE
  5
49
100
AcDbEntity
100
AcDbLine
  8
Frame
 62
256
370
-1
  6
ByLayer
 10
-47.5
 20
92.5000000000000142
 30
0.0
 11
-97.5
 21
92.5000000000000142
 31
0.0
  0
LINE
  5
4A
100
AcDbEntity
100
AcDbLine
  8
Frame
 62
256
370
-1
  6
ByLayer
 10
-97.5
 20
92.5000000000000142
 30
0.0
 11
-97.5
 21
90.0000000000000142
 31
0.0
  0
LINE
  5
4B
100
AcDbEntity
100
AcDbLine
  8
Frame
 62
256
370
-1
  6
ByLayer
 10
-97.5
 20
90.0000000000000142
 30
0.0
 11
-47.5000000000000071
 21
90.0000000000000142
 31
0.0
  0
LINE
  5
4C
100
AcDbEntity
100
AcDbLine
  8
Frame
 62
256
370
-1
  6
ByLayer
 10
-95.0
 20
90.0
 30
0.0
 11
-97.5
 21
90.0000000000000142
 31
0.0
  0
LINE
  5
4D
100
AcDbEntity
100
AcDbLine
  8
Frame
 62
256
370
-1
  6
ByLayer
 10
-42.5000000000000071
 20
30.0
 30
0.0
 11
-102.5
 21
30.0
 31
0.0
  0
LINE
  5
4E
100
AcDbEntity
100
AcDbLine
  8
Frame
 62
256
370
-1
  6
ByLayer
 10
-102.5
 20
30.0
 30
0.0
 11
-102.2000000000000028
 21
32.5
 31
0.0
  0
LINE
  5
4F
100
AcDbEntity
100
AcDbLine
  8
Frame
 62
256
370
-1
  6
ByLayer
 10
-102.2000000000000028
 20
32.5
 30
0.0
 11
-42.8000000000000043
 21
32.5
 31
0.0
  0
LINE
  5
50
100
AcDbEntity
100
AcDbLine
  8
Frame
 62
256
370
-1
  6
ByLayer
 10
-42.8000000000000043
 20
32.5
 30
0.0
 11
-42.5
 21
30.0
 31
0.0
  0
LINE
  5
51
100
AcDbEntity
100
AcDbLine
  8
Frame
 62
256
370
-1
  6
ByLayer
 10
-38.2565101649807815
 20
16.1002168611211616
 30
0.0
 11
-47.5012743000661573
 21
90.0024144632832446
 31
0.0
  0
LINE
  5
52
100
AcDbEntity
100
AcDbLine
  8
Frame
 62
256
370
-1
  6
ByLayer
 10
-50.0013413684906922
 20
90.0024144632832446
 30
0.0
 11
-40.7645344361180264
 21
16.1025825159817302
 31
0.0
  0
LINE
  5
53
100
AcDbEntity
100
AcDbLine
  8
Frame
 62
256
370
-1
  6
ByLayer
 10
-106.7383473032670764
 20
16.1036578136457109
 30
0.0
 11
-97.501355554109125
 21
90.0036745777349836
 31
0.0
  0
LINE
  5
54
100
AcDbEntity
100
AcDbLine
  8
Frame
 62
256
370
-1
  6
ByLayer
 10
-94.9811266544875679
 20
90.0036745777349836
 30
0.0
 11
-104.2299466779492576
 21
16.1025825159821032
 31
0.0
  0
LINE
  5
55
100
AcDbEntity
100
AcDbLine
  8
Frame
 62
256
370
-1
  6
ByLayer
 10
45.0
 20
-27.5
 30
0.0
 11
47.5000000000000071
 21
-30.0000000000000036
 31
0.0
  0
LINE
  5
56
100
AcDbEntity
100
AcDbLine
  8
Frame
 62
256
370
-1
  6
ByLayer
 10
47.5000000000000142
 20
-74.2000000000000171
 30
0.0
 11
45.0000000000000071
 21
-76.7000000000000171
 31
0.0
  0
LINE
  5
57
100
AcDbEntity
100
AcDbLine
  8
Frame
 62
256
370
-1
  6
ByLayer
 10
45.0
 20
-27.5000000000000036
 30
0.0
 11
45.0
 21
-76.6999999999999886
 31
0.0
  0
LINE
  5
58
100
AcDbEntity
100
AcDbLine
  8
Frame
 62
256
370
-1
  6
ByLayer
 10
47.5
 20
-74.1999999999999886
 30
0.0
 11
47.5
 21
-30.0000000000000071
 31
0.0
  0
CIRCLE
  5
59
100
AcDbEntity
100
AcDbCircle
  8
FixingCenters
 62
256
370
-1
  6
ByLayer
 10
48.0
 20
-28.7500000000000036
 30
0.0
 40
0.3000000000000043
  0
CIRCLE
  5
5A
100
AcDbEntity
100
AcDbCircle
  8
FixingCenters
 62
256
370
-1
  6
ByLayer
 10
116.2000000000000028
 20
-28.7500000000000036
 30
0.0
 40
0.2999999999999829
  0
CIRCLE
  5
5B
100
AcDbEntity
100
AcDbCircle
  8
FixingCenters
 62
256
370
-1
  6
ByLayer
 10
116.25
 20
-75.4500000000000028
 30
0.0
 40
0.3000000000000114
  0
CIRCLE
  5
5C
100
AcDbEntity
100
AcDbCircle
  8
FixingCenters
 62
256
370
-1
  6
ByLayer
 10
48.0
 20
-75.4500000000000028
 30
0.0
 40
0.2999999999999972
  0
LINE
  5
5D
100
AcDbEntity
100
AcDbLine
  8
Frame
 62
256
370
-1
  6
ByLayer
 10
119.2500000000000142
 20
-27.5000000000000036
 30
0.0
 11
116.7500000000000142
 21
-30.0000000000000036
 31
0.0
  0
LINE
  5
5E
100
AcDbEntity
100
AcDbLine
  8
Frame
 62
256
370
-1
  6
ByLayer
 10
119.25
 20
-76.7000000000000171
 30
0.0
 11
116.7500000000000284
 21
-74.2000000000000171
 31
0.0
  0
LINE
  5
5F
100
AcDbEntity
100
AcDbLine
  8
Frame
 62
256
370
-1
  6
ByLayer
 10
116.7500000000000142
 20
-74.2000000000000028
 30
0.0
 11
116.7500000000000142
 21
-30.0000000000000071
 31
0.0
  0
LINE
  5
60
100
AcDbEntity
100
AcDbLine
  8
Frame
 62
256
370
-1
  6
ByLayer
 10
119.2500000000000142
 20
-27.5
 30
0.0
 11
119.2500000000000142
 21
-76.7000000000000028
 31
0.0
  0
LINE
  5
61
100
AcDbEntity
100
AcDbLine
  8
Frame
 62
256
370
-1
  6
ByLayer
 10
45.0000000000000071
 20
-27.5
 30
0.0
 11
119.25
 21
-27.5000000000000036
 31
0.0
  0
LINE
  5
62
100
AcDbEntity
100
AcDbLine
  8
Frame
 62
256
370
-1
  6
ByLayer
 10
116.75
 20
-30.0
 30
0.0
 11
47.5
 21
-30.0000000000000036
 31
0.0
  0
LINE
  5
63
100
AcDbEntity
100
AcDbLine
  8
Frame
 62
256
370
-1
  6
ByLayer
 10
45.0
 20
-76.7000000000000028
 30
0.0
 11
119.25
 21
-76.7000000000000171
 31
0.0
  0
LINE
  5
64
100
AcDbEntity
100
AcDbLine
  8
Frame
 62
256
370
-1
  6
ByLayer
 10
116.75
 20
-74.2000000000000028
 30
0.0
 11
47.5000000000000071
 21
-74.2000000000000028
 31
0.0
  0
DIMENSION
  5
65
100
AcDbEntity
  8
Dimensions
 62
256
370
-1
  6
ByLayer
100
AcDbDimension
 10
119.25
 20
-90.0
 30
0.0
 11
82.125
 21
-88.125
 31
0.0
 70
0
 71
5
 72
1
 41
1.0
 42
0.0
  1

  3
Standard
100
AcDbAlignedDimension
 13
45.0
 23
-78.0
 33
0.0
 14
119.25
 24
-78.0
 34
0.0
 50
0.0
100
AcDbRotatedDimension
  0
DIMENSION
  5
66
100
AcDbEntity
  8
Dimensions
 62
256
370
-1
  6
ByLayer
100
AcDbDimension
 10
140.0
 20
-27.5000000000000071
 30
0.0
 11
138.125
 21
-52.1000000000000085
 31
0.0
 70
0
 71
5
 72
1
 41
1.0
 42
0.0
  1

  3
Standard
100
AcDbAlignedDimension
 13
122.0000000000000142
 23
-76.7000000000000028
 33
0.0
 14
122.0000000000000142
 24
-27.5000000000000036
 34
0.0
 50
90.0
100
AcDbRotatedDimension
  0
LINE
  5
67
100
AcDbEntity
100
AcDbLine
  8
FixingCenters
 62
256
370
-1
  6
ByLayer
 10
115.9899999999999949
 20
-75.9000000000000057
 30
0.0
 11
116.5097114317029963
 21
-75.9001666049839656
 31
0.0
  0
LINE
  5
68
100
AcDbEntity
100
AcDbLine
  8
FixingCenters
 62
256
370
-1
  6
ByLayer
 10
116.5097114317029963
 20
-75.9001666049839656
 30
0.0
 11
116.7697114317030014
 21
-75.4501666049839628
 31
0.0
  0
LINE
  5
69
100
AcDbEntity
100
AcDbLine
  8
FixingCenters
 62
256
370
-1
  6
ByLayer
 10
116.7697114317030014
 20
-75.4501666049839628
 30
0.0
 11
116.5100000000001472
 21
-75.0000000000000853
 31
0.0
  0
LINE
  5
6A
100
AcDbEntity
100
AcDbLine
  8
FixingCenters
 62
256
370
-1
  6
ByLayer
 10
116.5100000000001472
 20
-75.0000000000000853
 30
0.0
 11
115.9902885682971458
 21
-74.999833395015969
 31
0.0
  0
LINE
  5
6B
100
AcDbEntity
100
AcDbLine
  8
FixingCenters
 62
256
370
-1
  6
ByLayer
 10
115.9902885682971458
 20
-74.999833395015969
 30
0.0
 11
115.7302885682969986
 21
-75.4498333950158866
 31
0.0
  0
LINE
  5
6C
100
AcDbEntity
100
AcDbLine
  8
FixingCenters
 62
256
370
-1
  6
ByLayer
 10
115.7302885682969986
 20
-75.4498333950158866
 30
0.0
 11
115.9899999999998528
 21
-75.8999999999999204
 31
0.0
  0
LINE
  5
6D
100
AcDbEntity
100
AcDbLine
  8
FixingCenters
 62
256
370
-1
  6
ByLayer
 10
115.9399999999999977
 20
-29.2000000000000064
 30
0.0
 11
116.4597114317029991
 21
-29.2001666049839663
 31
0.0
  0
LINE
  5
6E
100
AcDbEntity
100
AcDbLine
  8
FixingCenters
 62
256
370
-1
  6
ByLayer
 10
116.4597114317029991
 20
-29.2001666049839663
 30
0.0
 11
116.7197114317030042
 21
-28.7501666049839635
 31
0.0
  0
LINE
  5
6F
100
AcDbEntity
100
AcDbLine
  8
FixingCenters
 62
256
370
-1
  6
ByLayer
 10
116.7197114317030042
 20
-28.7501666049839635
 30
0.0
 11
116.4600000000001501
 21
-28.300000000000086
 31
0.0
  0
LINE
  5
70
100
AcDbEntity
100
AcDbLine
  8
FixingCenters
 62
256
370
-1
  6
ByLayer
 10
116.4600000000001501
 20
-28.300000000000086
 30
0.0
 11
115.9402885682971487
 21
-28.2998333950159697
 31
0.0
  0
LINE
  5
71
100
AcDbEntity
100
AcDbLine
  8
FixingCenters
 62
256
370
-1
  6
ByLayer
 10
115.9402885682971487
 20
-28.2998333950159697
 30
0.0
 11
115.6802885682970015
 21
-28.7498333950158873
 31
0.0
  0
LINE
  5
72
100
AcDbEntity
100
AcDbLine
  8
FixingCenters
 62
256
370
-1
  6
ByLayer
 10
115.6802885682970015
 20
-28.7498333950158873
 30
0.0
 11
115.9399999999998556
 21
-29.1999999999999211
 31
0.0
  0
LINE
  5
73
100
AcDbEntity
100
AcDbLine
  8
FixingCenters
 62
256
370
-1
  6
ByLayer
 10
47.740000000000002
 20
-29.2000000000000064
 30
0.0
 11
48.2597114317030034
 21
-29.2001666049839663
 31
0.0
  0
LINE
  5
74
100
AcDbEntity
100
AcDbLine
  8
FixingCenters
 62
256
370
-1
  6
ByLayer
 10
48.2597114317030034
 20
-29.2001666049839663
 30
0.0
 11
48.5197114317030085
 21
-28.7501666049839635
 31
0.0
  0
LINE
  5
75
100
AcDbEntity
100
AcDbLine
  8
FixingCenters
 62
256
370
-1
  6
ByLayer
 10
48.5197114317030085
 20
-28.7501666049839635
 30
0.0
 11
48.2600000000001543
 21
-28.300000000000086
 31
0.0
  0
LINE
  5
76
100
AcDbEntity
100
AcDbLine
  8
FixingCenters
 62
256
370
-1
  6
ByLayer
 10
48.2600000000001543
 20
-28.300000000000086
 30
0.0
 11
47.7402885682971529
 21
-28.2998333950159697
 31
0.0
  0
LINE
  5
77
100
AcDbEntity
100
AcDbLine
  8
FixingCenters
 62
256
370
-1
  6
ByLayer
 10
47.7402885682971529
 20
-28.2998333950159697
 30
0.0
 11
47.4802885682970057
 21
-28.7498333950158873
 31
0.0
  0
LINE
  5
78
100
AcDbEntity
100
AcDbLine
  8
FixingCenters
 62
256
370
-1
  6
ByLayer
 10
47.4802885682970057
 20
-28.7498333950158873
 30
0.0
 11
47.7399999999998599
 21
-29.1999999999999211
 31
0.0
  0
LINE
  5
79
100
AcDbEntity
100
AcDbLine
  8
FixingCenters
 62
256
370
-1
  6
ByLayer
 10
47.740000000000002
 20
-75.9000000000000057
 30
0.0
 11
48.2597114317030034
 21
-75.9001666049839656
 31
0.0
  0
LINE
  5
7A
100
AcDbEntity
100
AcDbLine
  8
FixingCenters
 62
256
370
-1
  6
ByLayer
 10
48.2597114317030034
 20
-75.9001666049839656
 30
0.0
 11
48.5197114317030085
 21
-75.4501666049839628
 31
0.0
  0
LINE
  5
7B
100
AcDbEntity
100
AcDbLine
  8
FixingCenters
 62
256
370
-1
  6
ByLayer
 10
48.5197114317030085
 20
-75.4501666049839628
 30
0.0
 11
48.2600000000001543
 21
-75.0000000000000853
 31
0.0
  0
LINE
  5
7C
100
AcDbEntity
100
AcDbLine
  8
FixingCenters
 62
256
370
-1
  6
ByLayer
 10
48.2600000000001543
 20
-75.0000000000000853
 30
0.0
 11
47.7402885682971529
 21
-74.999833395015969
 31
0.0
  0
LINE
  5
7D
100
AcDbEntity
100
AcDbLine
  8
FixingCenters
 62
256
370
-1
  6
ByLayer
 10
47.7402885682971529
 20
-74.999833395015969
 30
0.0
 11
47.4802885682970057
 21
-75.4498333950158866
 31
0.0
  0
LINE
  5
7E
100
AcDbEntity
100
AcDbLine
  8
FixingCenters
 62
256
370
-1
  6
ByLayer
 10
47.4802885682970057
 20
-75.4498333950158866
 30
0.0
 11
47.7399999999998599
 21
-75.8999999999999204
 31
0.0
  0
DIMENSION
  5
7F
100
AcDbEntity
  8
Dimensions
 62
256
370
-1
  6
ByLayer
100
AcDbDimension
 10
30.0
 20
-28.7499999999999964
 30
0.0
 11
28.125
 21
-52.1000000000000085
 31
0.0
 70
0
 71
5
 72
1
 41
1.0
 42
0.0
  1

  3
Standard
100
AcDbAlignedDimension
 13
48.0
 23
-75.4500000000000171
 33
0.0
 14
48.0000000000000071
 24
-28.75
 34
0.0
 50
90.0
100
AcDbRotatedDimension
  0
DIMENSION
  5
80
100
AcDbEntity
  8
Dimensions
 62
256
370
-1
  6
ByLayer
100
AcDbDimension
 10
116.2000000000000028
 20
-20.0
 30
0.0
 11
82.0999999999999943
 21
-18.125
 31
0.0
 70
0
 71
5
 72
1
 41
1.0
 42
0.0
  1

  3
Standard
100
AcDbAlignedDimension
 13
48.0
 23
-28.75
 33
0.0
 14
116.2000000000000028
 24
-28.7500000000000036
 34
0.0
 50
0.0
100
AcDbRotatedDimension
  0
LINE
  5
81
100
AcDbEntity
100
AcDbLine
  8
Frame
 62
256
370
-1
  6
ByLayer
 10
47.5000000000000071
 20
-39.9999999999999929
 30
0.0
 11
57.5000000000000071
 21
-29.9999999999999929
 31
0.0
  0
LINE
  5
82
100
AcDbEntity
100
AcDbLine
  8
Frame
 62
256
370
-1
  6
ByLayer
 10
49.267766952966376
 20
-41.767766952966376
 30
0.0
 11
47.5000000000000071
 21
-43.5355339059327449
 31
0.0
  0
LINE
  5
83
100
AcDbEntity
100
AcDbLine
  8
Frame
 62
256
370
-1
  6
ByLayer
 10
47.5000000000000071
 20
-43.5355339059327449
 30
0.0
 11
47.5000000000000071
 21
-39.9999999999999929
 31
0.0
  0
LINE
  5
84
100
AcDbEntity
100
AcDbLine
  8
Frame
 62
256
370
-1
  6
ByLayer
 10
49.267766952966376
 20
-41.767766952966376
 30
0.0
 11
60.9350288425444049
 21
-30.1005050633883364
 31
0.0
  0
LINE
  5
85
100
AcDbEntity
100
AcDbLine
  8
Frame
 62
256
370
-1
  6
ByLayer
 10
57.49848988597779
 20
-30.0015101140222136
 30
0.0
 11
61.0340237919105135
 21
-30.00151011402221
 31
0.0
  0
LINE
  5
86
100
AcDbEntity
100
AcDbLine
  8
Frame
 62
256
370
-1
  6
ByLayer
 10
60.9350288425444049
 20
-30.1005050633883364
 30
0.0
 11
61.0340237919105135
 21
-30.00151011402221
 31
0.0
  0
LINE
  5
87
100
AcDbEntity
100
AcDbLine
  8
FixingCenters
 62
256
370
-1
  6
ByLayer
 10
36.7000000000000028
 20
-39.7600000000000051
 30
0.0
 11
36.7001666049839628
 21
-39.2402885682970037
 31
0.0
  0
LINE
  5
88
100
AcDbEntity
100
AcDbLine
  8
Frame
 62
256
370
-1
  6
ByLayer
 10
37.6005050633883329
 20
-26.5649711574556022
 30
0.0
 11
37.5015101140222029
 21
-26.4659762080894936
 31
0.0
  0
LINE
  5
89
100
AcDbEntity
100
AcDbLine
  8
Frame
 62
256
370
-1
  6
ByLayer
 10
57.5
 20
-74.1999999999999886
 30
0.0
 11
47.4999999999999858
 21
-64.1999999999999886
 31
0.0
  0
LINE
  5
8A
100
AcDbEntity
100
AcDbLine
  8
Frame
 62
256
370
-1
  6
ByLayer
 10
59.2677669529663689
 20
-72.4322330470336198
 30
0.0
 11
61.0355339059327378
 21
-74.1999999999999886
 31
0.0
  0
LINE
  5
8B
100
AcDbEntity
100
AcDbLine
  8
Frame
 62
256
370
-1
  6
ByLayer
 10
61.0355339059327378
 20
-74.1999999999999886
 30
0.0
 11
57.5
 21
-74.1999999999999886
 31
0.0
  0
LINE
  5
8C
100
AcDbEntity
100
AcDbLine
  8
Frame
 62
256
370
-1
  6
ByLayer
 10
59.2677669529663689
 20
-72.4322330470336198
 30
0.0
 11
47.6005050633883329
 21
-60.7649711574555909
 31
0.0
  0
LINE
  5
8D
100
AcDbEntity
100
AcDbLine
  8
Frame
 62
256
370
-1
  6
ByLayer
 10
47.50151011402221
 20
-64.2015101140221986
 30
0.0
 11
47.5015101140222029
 21
-60.6659762080894822
 31
0.0
  0
LINE
  5
8E
100
AcDbEntity
100
AcDbLine
  8
Frame
 62
256
370
-1
  6
ByLayer
 10
116.7499999999999858
 20
-64.1999999999999886
 30
0.0
 11
106.7499999999999858
 21
-74.1999999999999886
 31
0.0
  0
LINE
  5
8F
100
AcDbEntity
100
AcDbLine
  8
Frame
 62
256
370
-1
  6
ByLayer
 10
114.9822330470336169
 20
-62.4322330470336126
 30
0.0
 11
116.7499999999999858
 21
-60.6644660940672438
 31
0.0
  0
LINE
  5
90
100
AcDbEntity
100
AcDbLine
  8
Frame
 62
256
370
-1
  6
ByLayer
 10
116.7499999999999858
 20
-60.6644660940672438
 30
0.0
 11
116.7499999999999858
 21
-64.1999999999999886
 31
0.0
  0
LINE
  5
91
100
AcDbEntity
100
AcDbLine
  8
Frame
 62
256
370
-1
  6
ByLayer
 10
114.9822330470336169
 20
-62.4322330470336126
 30
0.0
 11
103.314971157455588
 21
-74.0994949366116487
 31
0.0
  0
LINE
  5
92
100
AcDbEntity
100
AcDbLine
  8
Frame
 62
256
370
-1
  6
ByLayer
 10
106.7515101140221958
 20
-74.1984898859777786
 30
0.0
 11
103.2159762080894865
 21
-74.1984898859777786
 31
0.0
  0
LINE
  5
93
100
AcDbEntity
100
AcDbLine
  8
Frame
 62
256
370
-1
  6
ByLayer
 10
106.7499999999999716
 20
-29.9999999999999858
 30
0.0
 11
116.7499999999999858
 21
-39.9999999999999716
 31
0.0
  0
LINE
  5
94
100
AcDbEntity
100
AcDbLine
  8
Frame
 62
256
370
-1
  6
ByLayer
 10
104.9822330470335885
 20
-31.7677669529663547
 30
0.0
 11
103.2144660940672338
 21
-29.9999999999999858
 31
0.0
  0
LINE
  5
95
100
AcDbEntity
100
AcDbLine
  8
Frame
 62
256
370
-1
  6
ByLayer
 10
103.2144660940672338
 20
-29.9999999999999858
 30
0.0
 11
106.7499999999999716
 21
-29.9999999999999858
 31
0.0
  0
LINE
  5
96
100
AcDbEntity
100
AcDbLine
  8
Frame
 62
256
370
-1
  6
ByLayer
 10
104.9822330470335885
 20
-31.7677669529663547
 30
0.0
 11
116.6494949366116174
 21
-43.4350288425443836
 31
0.0
  0
LINE
  5
97
100
AcDbEntity
100
AcDbLine
  8
Frame
 62
256
370
-1
  6
ByLayer
 10
116.7484898859777616
 20
-39.9984898859777758
 30
0.0
 11
116.7484898859782874
 21
-43.5340237919104851
 31
0.0
  0
ARC
  5
98
100
AcDbEntity
  8
Castors
 62
256
370
-1
  6
ByLayer
100
AcDbCircle
 10
132.0002360999999951
 20
14.1630688000000049
 30
0.0
 40
4.1999999999999993
100
AcDbArc
 50
0.0
 51
82.9704969999999946
  0
ARC
  5
99
100
AcDbEntity
  8
Castors
 62
256
370
-1
  6
ByLayer
100
AcDbCircle
 10
132.0002360999999951
 20
14.1630688000000049
 30
0.0
 40
4.1999999999999993
100
AcDbArc
 50
82.9704969999999946
 51
128.4302439999999876
  0
ARC
  5
9A
100
AcDbEntity
  8
Castors
 62
256
370
-1
  6
ByLayer
100
AcDbCircle
 10
132.0002360999999951
 20
14.1630688000000049
 30
0.0
 40
4.1999999999999993
100
AcDbArc
 50
128.4302439999999876
 51
0.0
  0
CIRCLE
  5
9B
100
AcDbEntity
100
AcDbCircle
  8
Castors
 62
256
370
-1
  6
ByLayer
 10
132.0002360999999951
 20
14.1630688000000049
 30
0.0
 40
0.5775
  0
LINE
  5
9C
100
AcDbEntity
100
AcDbLine
  8
Castors
 62
256
370
-1
  6
ByLayer
 10
132.4071572999999944
 20
18.8145688000000035
 30
0.0
 11
127.976157299999997
 21
18.8145688000000035
 31
0.0
  0
LINE
  5
9D
100
AcDbEntity
100
AcDbLine
  8
Castors
 62
256
370
-1
  6
ByLayer
 10
132.4071572999999944
 20
19.1505688000000021
 30
0.0
 11
132.4071572999999944
 21
18.8145688000000035
 31
0.0
  0
ARC
  5
9E
100
AcDbEntity
  8
Castors
 62
256
370
-1
  6
ByLayer
100
AcDbCircle
 10
132.0002360999999951
 20
14.1630688000000049
 30
0.0
 40
1.0499999999999998
100
AcDbArc
 50
196.1320890000000077
 51
7.4480090000000008
  0
LINE
  5
9F
100
AcDbEntity
100
AcDbLine
  8
Castors
 62
256
370
-1
  6
ByLayer
 10
133.041376200000002
 20
14.2991761000000057
 30
0.0
 11
132.4071572999999944
 21
19.1505688000000021
 31
0.0
  0
LINE
  5
A0
100
AcDbEntity
100
AcDbLine
  8
Castors
 62
256
370
-1
  6
ByLayer
 10
127.976157299999997
 20
18.1157854
 30
0.0
 11
129.0933551999999906
 21
18.1157854
 31
0.0
  0
LINE
  5
A1
100
AcDbEntity
100
AcDbLine
  8
Castors
 62
256
370
-1
  6
ByLayer
 10
129.0933551999999906
 20
18.1157854
 30
0.0
 11
130.991580899999974
 21
13.8713220999999987
 31
0.0
  0
LINE
  5
A2
100
AcDbEntity
100
AcDbLine
  8
Castors
 62
256
370
-1
  6
ByLayer
 10
127.976157299999997
 20
18.1157854
 30
0.0
 11
127.976157299999997
 21
19.1505688000000021
 31
0.0
  0
LINE
  5
A3
100
AcDbEntity
100
AcDbLine
  8
Castors
 62
256
370
-1
  6
ByLayer
 10
128.6346731999999804
 20
19.1505688000000021
 30
0.0
 11
127.976157299999997
 21
19.1505688000000021
 31
0.0
  0
LINE
  5
A4
100
AcDbEntity
100
AcDbLine
  8
Castors
 62
256
370
-1
  6
ByLayer
 10
132.4071572999999944
 20
19.1505688000000021
 30
0.0
 11
131.2236393000000021
 21
19.1505688000000021
 31
0.0
  0
LINE
  5
A5
100
AcDbEntity
100
AcDbLine
  8
Castors
 62
256
370
-1
  6
ByLayer
 10
128.6346731999999804
 20
19.1505688000000021
 30
0.0
 11
131.2236393000000021
 21
19.1505688000000021
 31
0.0
  0
LINE
  5
A6
100
AcDbEntity
100
AcDbLine
  8
Castors
 62
256
370
-1
  6
ByLayer
 10
127.8921572999999796
 20
19.1505688000000021
 30
0.0
 11
127.976157299999997
 21
19.1505688000000021
 31
0.0
  0
LINE
  5
A7
100
AcDbEntity
100
AcDbLine
  8
Frame
 62
256
370
-1
  6
ByLayer
 10
127.8459260433084523
 20
19.1538737739750893
 30
0.0
 11
131.6161884771426287
 21
19.1538737739750893
 31
0.0
  0
LINE
  5
A8
100
AcDbEntity
100
AcDbLine
  8
Castors
 62
256
370
-1
  6
ByLayer
 10
-38.7256302000000119
 20
18.3630688000000077
 30
0.0
 11
-38.7256302000000119
 21
14.1630688000000049
 31
0.0
  0
LINE
  5
A9
100
AcDbEntity
100
AcDbLine
  8
Castors
 62
256
370
-1
  6
ByLayer
 10
-38.7256302000000119
 20
14.1630688000000049
 30
0.0
 11
-38.7256302000000119
 21
9.9630688000000038
 31
0.0
  0
LINE
  5
AA
100
AcDbEntity
100
AcDbLine
  8
Castors
 62
256
370
-1
  6
ByLayer
 10
-40.7122302000000076
 20
18.3630688000000077
 30
0.0
 11
-40.7122302000000076
 21
14.1630688000000049
 31
0.0
  0
LINE
  5
AB
100
AcDbEntity
100
AcDbLine
  8
Castors
 62
256
370
-1
  6
ByLayer
 10
-40.7122302000000076
 20
14.1630688000000049
 30
0.0
 11
-40.7122302000000076
 21
9.9630688000000038
 31
0.0
  0
LINE
  5
AC
100
AcDbEntity
100
AcDbLine
  8
Castors
 62
256
370
-1
  6
ByLayer
 10
-40.9557252000000034
 20
14.2991761000000004
 30
0.0
 11
-40.9557252000000034
 21
19.1505688000000092
 31
0.0
  0
LINE
  5
AD
100
AcDbEntity
100
AcDbLine
  8
Castors
 62
256
370
-1
  6
ByLayer
 10
-40.9557252000000034
 20
14.2991761000000004
 30
0.0
 11
-40.9557252000000034
 21
13.113068800000006
 31
0.0
  0
LINE
  5
AE
100
AcDbEntity
100
AcDbLine
  8
Castors
 62
256
370
-1
  6
ByLayer
 10
-41.2917252000000019
 20
14.2991761000000004
 30
0.0
 11
-41.2917252000000019
 21
13.113068800000006
 31
0.0
  0
LINE
  5
AF
100
AcDbEntity
100
AcDbLine
  8
Castors
 62
256
370
-1
  6
ByLayer
 10
-41.2917252000000019
 20
13.8713221000000093
 30
0.0
 11
-40.9557252000000034
 21
13.8713221000000093
 31
0.0
  0
LINE
  5
B0
100
AcDbEntity
100
AcDbLine
  8
Castors
 62
256
370
-1
  6
ByLayer
 10
-40.9557252000000034
 20
19.1505688000000092
 30
0.0
 11
-41.2917252000000019
 21
19.1505688000000092
 31
0.0
  0
LINE
  5
B1
100
AcDbEntity
100
AcDbLine
  8
Castors
 62
256
370
-1
  6
ByLayer
 10
-41.2917252000000019
 20
14.2991761000000004
 30
0.0
 11
-41.2917252000000019
 21
19.1505688000000092
 31
0.0
  0
LINE
  5
B2
100
AcDbEntity
100
AcDbLine
  8
Castors
 62
256
370
-1
  6
ByLayer
 10
-41.2917252000000019
 20
18.1157854
 30
0.0
 11
-40.9557252000000034
 21
18.1157854
 31
0.0
  0
LINE
  5
B3
100
AcDbEntity
100
AcDbLine
  8
Castors
 62
256
370
-1
  6
ByLayer
 10
-38.4821352000000161
 20
19.1505688000000092
 30
0.0
 11
-40.9557252000000034
 21
19.1505688000000092
 31
0.0
  0
LINE
  5
B4
100
AcDbEntity
100
AcDbLine
  8
Castors
 62
256
370
-1
  6
ByLayer
 10
-38.1461351999999962
 20
19.1505688000000092
 30
0.0
 11
-38.4821352000000161
 21
19.1505688000000092
 31
0.0
  0
LINE
  5
B5
100
AcDbEntity
100
AcDbLine
  8
Castors
 62
256
370
-1
  6
ByLayer
 10
-40.9557252000000034
 20
18.8145688000000071
 30
0.0
 11
-38.4821352000000161
 21
18.8145688000000071
 31
0.0
  0
LINE
  5
B6
100
AcDbEntity
100
AcDbLine
  8
Castors
 62
256
370
-1
  6
ByLayer
 10
-38.4821352000000161
 20
14.2991761000000004
 30
0.0
 11
-38.4821352000000161
 21
13.113068800000006
 31
0.0
  0
LINE
  5
B7
100
AcDbEntity
100
AcDbLine
  8
Castors
 62
256
370
-1
  6
ByLayer
 10
-38.4821352000000161
 20
14.2991761000000004
 30
0.0
 11
-38.4821352000000161
 21
19.1505688000000092
 31
0.0
  0
LINE
  5
B8
100
AcDbEntity
100
AcDbLine
  8
Castors
 62
256
370
-1
  6
ByLayer
 10
-38.1461351999999962
 20
13.8713221000000093
 30
0.0
 11
-38.4821352000000161
 21
13.8713221000000093
 31
0.0
  0
LINE
  5
B9
100
AcDbEntity
100
AcDbLine
  8
Castors
 62
256
370
-1
  6
ByLayer
 10
-38.1461351999999962
 20
14.2991761000000004
 30
0.0
 11
-38.1461351999999962
 21
13.113068800000006
 31
0.0
  0
LINE
  5
BA
100
AcDbEntity
100
AcDbLine
  8
Castors
 62
256
370
-1
  6
ByLayer
 10
-38.1461351999999962
 20
14.2991761000000004
 30
0.0
 11
-38.1461351999999962
 21
19.1505688000000092
 31
0.0
  0
LINE
  5
BB
100
AcDbEntity
100
AcDbLine
  8
Castors
 62
256
370
-1
  6
ByLayer
 10
-38.1461351999999962
 20
18.1157854
 30
0.0
 11
-38.4821352000000161
 21
18.1157854
 31
0.0
  0
LINE
  5
BC
100
AcDbEntity
100
AcDbLine
  8
Castors
 62
256
370
-1
  6
ByLayer
 10
-40.7122302000000076
 20
14.7405688000000019
 30
0.0
 11
-38.7256302000000119
 21
14.7405688000000019
 31
0.0
  0
LINE
  5
BD
100
AcDbEntity
100
AcDbLine
  8
Castors
 62
256
370
-1
  6
ByLayer
 10
-40.7122302000000076
 20
13.5855688000000026
 30
0.0
 11
-38.7256302000000119
 21
13.5855688000000026
 31
0.0
  0
LINE
  5
BE
100
AcDbEntity
100
AcDbLine
  8
Castors
 62
256
370
-1
  6
ByLayer
 10
-40.7122302000000076
 20
18.3630688000000077
 30
0.0
 11
-38.7256302000000119
 21
18.3630688000000077
 31
0.0
  0
LINE
  5
BF
100
AcDbEntity
100
AcDbLine
  8
Castors
 62
256
370
-1
  6
ByLayer
 10
-40.7122302000000076
 20
9.9630688000000038
 30
0.0
 11
-38.7256302000000119
 21
9.9630688000000038
 31
0.0
  0
LINE
  5
C0
100
AcDbEntity
100
AcDbLine
  8
Castors
 62
256
370
-1
  6
ByLayer
 10
-41.2917252000000019
 20
13.113068800000006
 30
0.0
 11
-40.9557252000000034
 21
13.113068800000006
 31
0.0
  0
LINE
  5
C1
100
AcDbEntity
100
AcDbLine
  8
Castors
 62
256
370
-1
  6
ByLayer
 10
-38.4821352000000161
 20
13.113068800000006
 30
0.0
 11
-38.1461351999999962
 21
13.113068800000006
 31
0.0
  0
LINE
  5
C2
100
AcDbEntity
100
AcDbLine
  8
Castors
 62
256
370
-1
  6
ByLayer
 10
-40.9557252000000034
 20
14.7405688000000019
 30
0.0
 11
-40.7122302000000076
 21
14.7405688000000019
 31
0.0
  0
LINE
  5
C3
100
AcDbEntity
100
AcDbLine
  8
Castors
 62
256
370
-1
  6
ByLayer
 10
-40.7122302000000076
 20
14.7405688000000019
 30
0.0
 11
-38.7256302000000119
 21
14.7405688000000019
 31
0.0
  0
LINE
  5
C4
100
AcDbEntity
100
AcDbLine
  8
Castors
 62
256
370
-1
  6
ByLayer
 10
-38.7256302000000119
 20
14.7405688000000019
 30
0.0
 11
-38.4821352000000161
 21
14.7405688000000019
 31
0.0
  0
LINE
  5
C5
100
AcDbEntity
100
AcDbLine
  8
Castors
 62
256
370
-1
  6
ByLayer
 10
-40.9557252000000034
 20
13.5855688000000026
 30
0.0
 11
-40.7122302000000076
 21
13.5855688000000026
 31
0.0
  0
LINE
  5
C6
100
AcDbEntity
100
AcDbLine
  8
Castors
 62
256
370
-1
  6
ByLayer
 10
-40.7122302000000076
 20
13.5855688000000026
 30
0.0
 11
-38.7256302000000119
 21
13.5855688000000026
 31
0.0
  0
LINE
  5
C7
100
AcDbEntity
100
AcDbLine
  8
Castors
 62
256
370
-1
  6
ByLayer
 10
-38.7256302000000119
 20
13.5855688000000026
 30
0.0
 11
-38.4821352000000161
 21
13.5855688000000026
 31
0.0
  0
LINE
  5
C8
100
AcDbEntity
100
AcDbLine
  8
Frame
 62
256
370
-1
  6
ByLayer
 10
-41.6484791185320802
 20
19.1513575774389935
 30
0.0
 11
-37.8847652474711722
 21
19.1503252916817424
 31
0.0
  0
LINE
  5
C9
100
AcDbEntity
100
AcDbLine
  8
Castors
 62
256
370
-1
  6
ByLayer
 10
-104.7256301999999977
 20
18.3630688000000077
 30
0.0
 11
-104.7256301999999977
 21
14.1630688000000049
 31
0.0
  0
LINE
  5
CA
100
AcDbEntity
100
AcDbLine
  8
Castors
 62
256
370
-1
  6
ByLayer
 10
-104.7256301999999977
 20
14.1630688000000049
 30
0.0
 11
-104.7256301999999977
 21
9.9630688000000038
 31
0.0
  0
LINE
  5
CB
100
AcDbEntity
100
AcDbLine
  8
Castors
 62
256
370
-1
  6
ByLayer
 10
-106.7122301999999934
 20
18.3630688000000077
 30
0.0
 11
-106.7122301999999934
 21
14.1630688000000049
 31
0.0
  0
LINE
  5
CC
100
AcDbEntity
100
AcDbLine
  8
Castors
 62
256
370
-1
  6
ByLayer
 10
-106.7122301999999934
 20
14.1630688000000049
 30
0.0
 11
-106.7122301999999934
 21
9.9630688000000038
 31
0.0
  0
LINE
  5
CD
100
AcDbEntity
100
AcDbLine
  8
Castors
 62
256
370
-1
  6
ByLayer
 10
-106.9557251999999892
 20
14.2991761000000004
 30
0.0
 11
-106.9557251999999892
 21
19.1505688000000092
 31
0.0
  0
LINE
  5
CE
100
AcDbEntity
100
AcDbLine
  8
Castors
 62
256
370
-1
  6
ByLayer
 10
-106.9557251999999892
 20
14.2991761000000004
 30
0.0
 11
-106.9557251999999892
 21
13.113068800000006
 31
0.0
  0
LINE
  5
CF
100
AcDbEntity
100
AcDbLine
  8
Castors
 62
256
370
-1
  6
ByLayer
 10
-107.2917252000000019
 20
14.2991761000000004
 30
0.0
 11
-107.2917252000000019
 21
13.113068800000006
 31
0.0
  0
LINE
  5
D0
100
AcDbEntity
100
AcDbLine
  8
Castors
 62
256
370
-1
  6
ByLayer
 10
-107.2917252000000019
 20
13.8713221000000093
 30
0.0
 11
-106.9557251999999892
 21
13.8713221000000093
 31
0.0
  0
LINE
  5
D1
100
AcDbEntity
100
AcDbLine
  8
Castors
 62
256
370
-1
  6
ByLayer
 10
-106.9557251999999892
 20
19.1505688000000092
 30
0.0
 11
-107.2917252000000019
 21
19.1505688000000092
 31
0.0
  0
LINE
  5
D2
100
AcDbEntity
100
AcDbLine
  8
Castors
 62
256
370
-1
  6
ByLayer
 10
-107.2917252000000019
 20
14.2991761000000004
 30
0.0
 11
-107.2917252000000019
 21
19.1505688000000092
 31
0.0
  0
LINE
  5
D3
100
AcDbEntity
100
AcDbLine
  8
Castors
 62
256
370
-1
  6
ByLayer
 10
-107.2917252000000019
 20
18.1157854
 30
0.0
 11
-106.9557251999999892
 21
18.1157854
 31
0.0
  0
LINE
  5
D4
100
AcDbEntity
100
AcDbLine
  8
Castors
 62
256
370
-1
  6
ByLayer
 10
-104.4821352000000019
 20
19.1505688000000092
 30
0.0
 11
-106.9557251999999892
 21
19.1505688000000092
 31
0.0
  0
LINE
  5
D5
100
AcDbEntity
100
AcDbLine
  8
Castors
 62
256
370
-1
  6
ByLayer
 10
-104.1461352000000034
 20
19.1505688000000092
 30
0.0
 11
-104.4821352000000019
 21
19.1505688000000092
 31
0.0
  0
LINE
  5
D6
100
AcDbEntity
100
AcDbLine
  8
Castors
 62
256
370
-1
  6
ByLayer
 10
-106.9557251999999892
 20
18.8145688000000071
 30
0.0
 11
-104.4821352000000019
 21
18.8145688000000071
 31
0.0
  0
LINE
  5
D7
100
AcDbEntity
100
AcDbLine
  8
Castors
 62
256
370
-1
  6
ByLayer
 10
-104.4821352000000019
 20
14.2991761000000004
 30
0.0
 11
-104.4821352000000019
 21
13.113068800000006
 31
0.0
  0
LINE
  5
D8
100
AcDbEntity
100
AcDbLine
  8
Castors
 62
256
370
-1
  6
ByLayer
 10
-104.4821352000000019
 20
14.2991761000000004
 30
0.0
 11
-104.4821352000000019
 21
19.1505688000000092
 31
0.0
  0
LINE
  5
D9
100
AcDbEntity
100
AcDbLine
  8
Castors
 62
256
370
-1
  6
ByLayer
 10
-104.1461352000000034
 20
13.8713221000000093
 30
0.0
 11
-104.4821352000000019
 21
13.8713221000000093
 31
0.0
  0
LINE
  5
DA
100
AcDbEntity
100
AcDbLine
  8
Castors
 62
256
370
-1
  6
ByLayer
 10
-104.1461352000000034
 20
14.2991761000000004
 30
0.0
 11
-104.1461352000000034
 21
13.113068800000006
 31
0.0
  0
LINE
  5
DB
100
AcDbEntity
100
AcDbLine
  8
Castors
 62
256
370
-1
  6
ByLayer
 10
-104.1461352000000034
 20
14.2991761000000004
 30
0.0
 11
-104.1461352000000034
 21
19.1505688000000092
 31
0.0
  0
LINE
  5
DC
100
AcDbEntity
100
AcDbLine
  8
Castors
 62
256
370
-1
  6
ByLayer
 10
-104.1461352000000034
 20
18.1157854
 30
0.0
 11
-104.4821352000000019
 21
18.1157854
 31
0.0
  0
LINE
  5
DD
100
AcDbEntity
100
AcDbLine
  8
Castors
 62
256
370
-1
  6
ByLayer
 10
-106.7122301999999934
 20
14.7405688000000019
 30
0.0
 11
-104.7256301999999977
 21
14.7405688000000019
 31
0.0
  0
LINE
  5
DE
100
AcDbEntity
100
AcDbLine
  8
Castors
 62
256
370
-1
  6
ByLayer
 10
-106.7122301999999934
 20
13.5855688000000026
 30
0.0
 11
-104.7256301999999977
 21
13.5855688000000026
 31
0.0
  0
LINE
  5
DF
100
AcDbEntity
100
AcDbLine
  8
Castors
 62
256
370
-1
  6
ByLayer
 10
-106.7122301999999934
 20
18.3630688000000077
 30
0.0
 11
-104.7256301999999977
 21
18.3630688000000077
 31
0.0
  0
LINE
  5
E0
100
AcDbEntity
100
AcDbLine
  8
Castors
 62
256
370
-1
  6
ByLayer
 10
-106.7122301999999934
 20
9.9630688000000038
 30
0.0
 11
-104.7256301999999977
 21
9.9630688000000038
 31
0.0
  0
LINE
  5
E1
100
AcDbEntity
100
AcDbLine
  8
Castors
 62
256
370
-1
  6
ByLayer
 10
-107.2917252000000019
 20
13.113068800000006
 30
0.0
 11
-106.9557251999999892
 21
13.113068800000006
 31
0.0
  0
LINE
  5
E2
100
AcDbEntity
100
AcDbLine
  8
Castors
 62
256
370
-1
  6
ByLayer
 10
-104.4821352000000019
 20
13.113068800000006
 30
0.0
 11
-104.1461352000000034
 21
13.113068800000006
 31
0.0
  0
LINE
  5
E3
100
AcDbEntity
100
AcDbLine
  8
Castors
 62
256
370
-1
  6
ByLayer
 10
-106.9557251999999892
 20
14.7405688000000019
 30
0.0
 11
-106.7122301999999934
 21
14.7405688000000019
 31
0.0
  0
LINE
  5
E4
100
AcDbEntity
100
AcDbLine
  8
Castors
 62
256
370
-1
  6
ByLayer
 10
-106.7122301999999934
 20
14.7405688000000019
 30
0.0
 11
-104.7256301999999977
 21
14.7405688000000019
 31
0.0
  0
LINE
  5
E5
100
AcDbEntity
100
AcDbLine
  8
Castors
 62
256
370
-1
  6
ByLayer
 10
-104.7256301999999977
 20
14.7405688000000019
 30
0.0
 11
-104.4821352000000019
 21
14.7405688000000019
 31
0.0
  0
LINE
  5
E6
100
AcDbEntity
100
AcDbLine
  8
Castors
 62
256
370
-1
  6
ByLayer
 10
-106.9557251999999892
 20
13.5855688000000026
 30
0.0
 11
-106.7122301999999934
 21
13.5855688000000026
 31
0.0
  0
LINE
  5
E7
100
AcDbEntity
100
AcDbLine
  8
Castors
 62
256
370
-1
  6
ByLayer
 10
-106.7122301999999934
 20
13.5855688000000026
 30
0.0
 11
-104.7256301999999977
 21
13.5855688000000026
 31
0.0
  0
LINE
  5
E8
100
AcDbEntity
100
AcDbLine
  8
Castors
 62
256
370
-1
  6
ByLayer
 10
-104.7256301999999977
 20
13.5855688000000026
 30
0.0
 11
-104.4821352000000019
 21
13.5855688000000026
 31
0.0
  0
LINE
  5
E9
100
AcDbEntity
100
AcDbLine
  8
Frame
 62
256
370
-1
  6
ByLayer
 10
-107.6171986338714248
 20
19.1538737739722436
 30
0.0
 11
-103.8509685662770892
 21
19.1538737739722436
 31
0.0
  0
LINE
  5
EA
100
AcDbEntity
100
AcDbLine
  8
Frame
 62
256
370
-1
  6
ByLayer
 10
122.5000000000000142
 20
90.0000000000000142
 30
0.0
 11
122.5000000000000142
 21
92.5000000000000142
 31
0.0
  0
LINE
  5
EB
100
AcDbEntity
100
AcDbLine
  8
Frame
 62
256
370
-1
  6
ByLayer
 10
122.5000000000000142
 20
92.5000000000000142
 30
0.0
 11
48.5000000000000071
 21
92.5000000000000142
 31
0.0
  0
LINE
  5
EC
100
AcDbEntity
100
AcDbLine
  8
Frame
 62
256
370
-1
  6
ByLayer
 10
48.5000000000000071
 20
92.5000000000000142
 30
0.0
 11
48.5000000000000071
 21
90.0000000000000142
 31
0.0
  0
LINE
  5
ED
100
AcDbEntity
100
AcDbLine
  8
Frame
 62
256
370
-1
  6
ByLayer
 10
48.5000000000000071
 20
90.0000000000000142
 30
0.0
 11
122.5
 21
90.0000000000000142
 31
0.0
  0
LINE
  5
EE
100
AcDbEntity
100
AcDbLine
  8
Frame
 62
256
370
-1
  6
ByLayer
 10
41.0
 20
10.0
 30
0.0
 11
51.0
 21
90.0
 31
0.0
  0
LINE
  5
EF
100
AcDbEntity
100
AcDbLine
  8
Frame
 62
256
370
-1
  6
ByLayer
 10
48.5
 20
90.0000000000000142
 30
0.0
 11
38.5
 21
10.0
 31
0.0
  0
LINE
  5
F0
100
AcDbEntity
100
AcDbLine
  8
Frame
 62
256
370
-1
  6
ByLayer
 10
38.5
 20
10.0
 30
0.0
 11
41.0
 21
10.0000000000000018
 31
0.0
  0
LINE
  5
F1
100
AcDbEntity
100
AcDbLine
  8
Frame
 62
256
370
-1
  6
ByLayer
 10
126.0
 20
40.0
 30
0.0
 11
44.75
 21
40.0
 31
0.0
  0
LINE
  5
F2
100
AcDbEntity
100
AcDbLine
  8
Frame
 62
256
370
-1
  6
ByLayer
 10
126.6000000000000085
 20
37.5
 30
0.0
 11
44.3999999999999986
 21
37.5
 31
0.0
  0
LINE
  5
F3
100
AcDbEntity
100
AcDbLine
  8
Frame
 62
256
370
-1
  6
ByLayer
 10
53.5255398056682168
 20
37.4620152637699775
 30
0.0
 11
43.1487374556098615
 21
27.1438389156893578
 31
0.0
  0
LINE
  5
F4
100
AcDbEntity
100
AcDbLine
  8
Frame
 62
256
370
-1
  6
ByLayer
 10
43.1487374556098615
 20
27.1438389156893578
 30
0.0
 11
42.6504164387991551
 21
23.098644779225932
 31
0.0
  0
LINE
  5
F5
100
AcDbEntity
100
AcDbLine
  8
Frame
 62
256
370
-1
  6
ByLayer
 10
42.6504164387991551
 20
23.098644779225932
 30
0.0
 11
57.0137869233431971
 21
37.4913282647588417
 31
0.0
  0
LINE
  5
F6
100
AcDbEntity
100
AcDbLine
  8
Frame
 62
256
370
-1
  6
ByLayer
 10
57.0137869233431971
 20
37.4913282647588417
 30
0.0
 11
53.554852806657081
 21
37.4913282647588417
 31
0.0
  0
LINE
  5
F7
100
AcDbEntity
100
AcDbLine
  8
Frame
 62
256
370
-1
  6
ByLayer
 10
60.0911806358472589
 20
89.9540956394284024
 30
0.0
 11
49.7143782857889036
 21
79.6359192913477898
 31
0.0
  0
LINE
  5
F8
100
AcDbEntity
100
AcDbLine
  8
Frame
 62
256
370
-1
  6
ByLayer
 10
49.7143782857889036
 20
79.6359192913477898
 30
0.0
 11
49.2160572689781972
 21
75.5907251548843675
 31
0.0
  0
LINE
  5
F9
100
AcDbEntity
100
AcDbLine
  8
Frame
 62
256
370
-1
  6
ByLayer
 10
49.2160572689781972
 20
75.5907251548843675
 30
0.0
 11
63.5794277535222392
 21
89.9834086404172808
 31
0.0
  0
LINE
  5
FA
100
AcDbEntity
100
AcDbLine
  8
Frame
 62
256
370
-1
  6
ByLayer
 10
63.5794277535222392
 20
89.9834086404172808
 30
0.0
 11
60.1204936368361231
 21
89.9834086404172808
 31
0.0
  0
LINE
  5
FB
100
AcDbEntity
100
AcDbLine
  8
Frame
 62
256
370
-1
  6
ByLayer
 10
117.5164506662663086
 20
37.4620152637699704
 30
0.0
 11
127.8932530163246781
 21
27.1438389156893507
 31
0.0
  0
LINE
  5
FC
100
AcDbEntity
100
AcDbLine
  8
Frame
 62
256
370
-1
  6
ByLayer
 10
127.8932530163246781
 20
27.1438389156893507
 30
0.0
 11
128.3915740331354414
 21
23.0986447792259497
 31
0.0
  0
LINE
  5
FD
100
AcDbEntity
100
AcDbLine
  8
Frame
 62
256
370
-1
  6
ByLayer
 10
128.3915740331354414
 20
23.0986447792259497
 30
0.0
 11
114.0282035485913212
 21
37.4913282647588204
 31
0.0
  0
LINE
  5
FE
100
AcDbEntity
100
AcDbLine
  8
Frame
 62
256
370
-1
  6
ByLayer
 10
114.0282035485913212
 20
37.4913282647588204
 30
0.0
 11
117.4871376652774586
 21
37.4913282647588346
 31
0.0
  0
LINE
  5
FF
100
AcDbEntity
100
AcDbLine
  8
Frame
 62
256
370
-1
  6
ByLayer
 10
110.9508098360873021
 20
89.9540956394273934
 30
0.0
 11
121.3276121861456431
 21
79.6359192913477756
 31
0.0
  0
LINE
  5
100
100
AcDbEntity
100
AcDbLine
  8
Frame
 62
256
370
-1
  6
ByLayer
 10
121.3276121861456431
 20
79.6359192913477756
 30
0.0
 11
121.8259332029563495
 21
75.5907251548843533
 31
0.0
  0
LINE
  5
101
100
AcDbEntity
100
AcDbLine
  8
Frame
 62
256
370
-1
  6
ByLayer
 10
121.8259332029563495
 20
75.5907251548843533
 30
0.0
 11
107.4625627184123147
 21
89.983408640419853
 31
0.0
  0
LINE
  5
102
100
AcDbEntity
100
AcDbLine
  8
Frame
 62
256
370
-1
  6
ByLayer
 10
107.4625627184123147
 20
89.983408640419853
 30
0.0
 11
110.9214968350984236
 21
89.9834086404155755
 31
0.0
  0
LINE
  5
103
100
AcDbEntity
100
AcDbLine
  8
Frame
 62
256
370
-1
  6
ByLayer
 10
120.0097710884960094
 20
89.9932580758973586
 30
0.0
 11
128.8548870604840602
 21
19.1385286968329851
 31
0.0
  0
LINE
  5
104
100
AcDbEntity
100
AcDbLine
  8
Frame
 62
256
370
-1
  6
ByLayer
 10
131.3762741535423686
 20
19.1505353020380262
 30
0.0
 11
122.5048937326693448
 21
89.9932580758981402
 31
0.0
  0
LINE
  5
105
100
AcDbEntity
100
AcDbLine
  8
Fett
 62
256
370
-1
  6
ByLayer
 10
38.6000000000000014
 20
13.0
 30
0.0
 11
38.1000000000000014
 21
9.6999999999999993
 31
0.0
  0
LINE
  5
106
100
AcDbEntity
100
AcDbLine
  8
Fett
 62
256
370
-1
  6
ByLayer
 10
38.1000000000000014
 20
9.6999999999999993
 30
0.0
 11
41.3999999999999986
 21
9.6999999999999993
 31
0.0
  0
LINE
  5
107
100
AcDbEntity
100
AcDbLine
  8
Fett
 62
256
370
-1
  6
ByLayer
 10
41.3999999999999986
 20
9.6999999999999993
 30
0.0
 11
41.8999999999999986
 21
13.0999999999999996
 31
0.0
  0
ENDSEC
  0
SECTION
  2
OBJECTS
  0
DICTIONARY
  5
C
100
AcDbDictionary
280
0
281
1
  3
ACAD_GROUP
350
D
  3
ACAD_LAYOUT
350
1A
  3
ACAD_MLINESTYLE
350
17
  3
ACAD_PLOTSETTINGS
350
19
  3
ACAD_PLOTSTYLENAME
350
E
  3
AcDbVariableDictionary
350
108
  0
DICTIONARY
  5
D
100
AcDbDictionary
280
0
281
1
  0
ACDBDICTIONARYWDFLT
  5
E
100
AcDbDictionary
281
1
  3
Normal
350
F
100
AcDbDictionaryWithDefault
340
F
  0
ACDBPLACEHOLDER
  5
F
  0
DICTIONARY
  5
17
100
AcDbDictionary
280
0
281
1
  3
Standard
350
18
  0
MLINESTYLE
  5
18
100
AcDbMlineStyle
  2
STANDARD
 70
0
  3

 62
256
 51
90.0
 52
90.0
 71
2
 49
0.5
 62
256
  6
BYLAYER
 49
-0.5
 62
256
  6
BYLAYER
  0
DICTIONARY
  5
19
100
AcDbDictionary
280
0
281
1
  0
DICTIONARY
  5
1A
100
AcDbDictionary
281
1
  3
Layout1
350
1E
  3
Layout2
350
26
  3
Model
350
22
  0
LAYOUT
  5
1E
100
AcDbPlotSettings
  1

  2
C:\Program Files\AutoCAD 2002\plotters\DWF ePlot (optimized for plotting).pc3
  4

  6

 40
0.0
 41
0.0
 42
0.0
 43
0.0
 44
0.0
 45
0.0
 46
0.0
 47
0.0
 48
0.0
 49
0.0
140
0.0
141
0.0
142
1.0
143
1.0
 70
688
 72
0
 73
0
 74
5
  7

 75
16
147
1.0
148
0.0
149
0.0
100
AcDbLayout
  1
Layout1
 70
1
 71
1
 10
0.0
 20
0.0
 11
420.0
 21
297.0
 12
0.0
 22
0.0
 32
0.0
 14
100000000000000000000.0
 24
100000000000000000000.0
 34
100000000000000000000.0
 15
-100000000000000000000.0
 25
-100000000000000000000.0
 35
-100000000000000000000.0
146
0.0
 13
0.0
 23
0.0
 33
0.0
 16
1.0
 26
0.0
 36
0.0
 17
0.0
 27
1.0
 37
0.0
 76
0
330
1B
  0
LAYOUT
  5
22
100
AcDbPlotSettings
  1

  2
C:\Program Files\AutoCAD 2002\plotters\DWF ePlot (optimized for plotting).pc3
  4

  6

 40
0.0
 41
0.0
 42
0.0
 43
0.0
 44
0.0
 45
0.0
 46
0.0
 47
0.0
 48
0.0
 49
0.0
140
0.0
141
0.0
142
1.0
143
1.0
 70
1712
 72
0
 73
0
 74
0
  7

 75
0
147
1.0
148
0.0
149
0.0
100
AcDbLayout
  1
Model
 70
1
 71
0
 10
0.0
 20
0.0
 11
12.0
 21
9.0
 12
0.0
 22
0.0
 32
0.0
 14
0.0
 24
0.0
 34
0.0
 15
0.0
 25
0.0
 35
0.0
146
0.0
 13
0.0
 23
0.0
 33
0.0
 16
1.0
 26
0.0
 36
0.0
 17
0.0
 27
1.0
 37
0.0
 76
0
330
1F
  0
LAYOUT
  5
26
100
AcDbPlotSettings
  1

  2
C:\Program Files\AutoCAD 2002\plotters\DWF ePlot (optimized for plotting).pc3
  4

  6

 40
0.0
 41
0.0
 42
0.0
 43
0.0
 44
0.0
 45
0.0
 46
0.0
 47
0.0
 48
0.0
 49
0.0
140
0.0
141
0.0
142
1.0
143
1.0
 70
688
 72
0
 73
0
 74
5
  7

 75
16
147
1.0
148
0.0
149
0.0
100
AcDbLayout
  1
Layout2
 70
1
 71
2
 10
0.0
 20
0.0
 11
12.0
 21
9.0
 12
0.0
 22
0.0
 32
0.0
 14
0.0
 24
0.0
 34
0.0
 15
0.0
 25
0.0
 35
0.0
146
0.0
 13
0.0
 23
0.0
 33
0.0
 16
1.0
 26
0.0
 36
0.0
 17
0.0
 27
1.0
 37
0.0
 76
0
330
23
  0
DICTIONARY
  5
108
100
AcDbDictionary
281
1
  3
DIMASSOC
350
10A
  3
HIDETEXT
350
109
  0
DICTIONARYVAR
  5
109
100
DictionaryVariables
280
0
  1
2
  0
DICTIONARYVAR
  5
10A
100
DictionaryVariables
280
0
  1
1
  0
ENDSEC
  0
EOF
